%MOIN*%
%OFA0B0*%
%FSLAX44Y44*%
%IPPOS*%
%LPD*%
%ADD10C,0*%
D10*
X00000000Y00001968D02*
X00000002Y00001871D01*
X00000009Y00001775D01*
X00000021Y00001679D01*
X00000037Y00001584D01*
X00000058Y00001490D01*
X00000084Y00001397D01*
X00000115Y00001305D01*
X00000149Y00001215D01*
X00000188Y00001126D01*
X00000232Y00001040D01*
X00000280Y00000956D01*
X00000331Y00000874D01*
X00000387Y00000795D01*
X00000446Y00000719D01*
X00000509Y00000646D01*
X00000576Y00000576D01*
X00000646Y00000509D01*
X00000719Y00000446D01*
X00000795Y00000387D01*
X00000874Y00000331D01*
X00000956Y00000280D01*
X00001040Y00000232D01*
X00001126Y00000188D01*
X00001215Y00000149D01*
X00001305Y00000115D01*
X00001397Y00000084D01*
X00001490Y00000058D01*
X00001584Y00000037D01*
X00001679Y00000021D01*
X00001775Y00000009D01*
X00001871Y00000002D01*
X00001968Y00000000D01*
X00161417Y00000000D01*
X00161513Y00000002D01*
X00161610Y00000009D01*
X00161706Y00000021D01*
X00161801Y00000037D01*
X00161895Y00000058D01*
X00161988Y00000084D01*
X00162080Y00000115D01*
X00162170Y00000149D01*
X00162258Y00000188D01*
X00162345Y00000232D01*
X00162429Y00000280D01*
X00162510Y00000331D01*
X00162589Y00000387D01*
X00162666Y00000446D01*
X00162739Y00000509D01*
X00162809Y00000576D01*
X00162875Y00000646D01*
X00162938Y00000719D01*
X00162998Y00000795D01*
X00163054Y00000874D01*
X00163105Y00000956D01*
X00163153Y00001040D01*
X00163196Y00001126D01*
X00163235Y00001215D01*
X00163270Y00001305D01*
X00163301Y00001397D01*
X00163326Y00001490D01*
X00163348Y00001584D01*
X00163364Y00001679D01*
X00163376Y00001775D01*
X00163383Y00001871D01*
X00163385Y00001968D01*
X00163385Y00062992D01*
X00163383Y00063088D01*
X00163376Y00063185D01*
X00163364Y00063280D01*
X00163348Y00063376D01*
X00163326Y00063470D01*
X00163301Y00063563D01*
X00163270Y00063655D01*
X00163235Y00063745D01*
X00163196Y00063833D01*
X00163153Y00063920D01*
X00163105Y00064004D01*
X00163054Y00064085D01*
X00162998Y00064164D01*
X00162938Y00064240D01*
X00162875Y00064314D01*
X00162809Y00064384D01*
X00162739Y00064450D01*
X00162666Y00064513D01*
X00162589Y00064573D01*
X00162510Y00064628D01*
X00162429Y00064680D01*
X00162345Y00064728D01*
X00162258Y00064771D01*
X00162170Y00064810D01*
X00162080Y00064845D01*
X00161988Y00064875D01*
X00161895Y00064901D01*
X00161801Y00064922D01*
X00161706Y00064939D01*
X00161610Y00064951D01*
X00161513Y00064958D01*
X00161417Y00064960D01*
X00001968Y00064960D01*
X00001871Y00064958D01*
X00001775Y00064951D01*
X00001679Y00064939D01*
X00001584Y00064922D01*
X00001490Y00064901D01*
X00001397Y00064875D01*
X00001305Y00064845D01*
X00001215Y00064810D01*
X00001126Y00064771D01*
X00001040Y00064728D01*
X00000956Y00064680D01*
X00000874Y00064628D01*
X00000795Y00064573D01*
X00000719Y00064513D01*
X00000646Y00064450D01*
X00000576Y00064384D01*
X00000509Y00064314D01*
X00000446Y00064240D01*
X00000387Y00064164D01*
X00000331Y00064085D01*
X00000280Y00064004D01*
X00000232Y00063920D01*
X00000188Y00063833D01*
X00000149Y00063745D01*
X00000115Y00063655D01*
X00000084Y00063563D01*
X00000058Y00063470D01*
X00000037Y00063376D01*
X00000021Y00063280D01*
X00000009Y00063185D01*
X00000002Y00063088D01*
X00000000Y00062992D01*
X00000000Y00001968D01*
X00003937Y00004330D02*
X00003946Y00004243D01*
X00003975Y00004159D01*
X00004022Y00004085D01*
X00004085Y00004022D01*
X00004159Y00003975D01*
X00004243Y00003946D01*
X00004330Y00003937D01*
X00159055Y00003937D01*
X00159142Y00003946D01*
X00159225Y00003975D01*
X00159300Y00004022D01*
X00159362Y00004085D01*
X00159409Y00004159D01*
X00159438Y00004243D01*
X00159448Y00004330D01*
X00159448Y00060629D01*
X00159438Y00060717D01*
X00159409Y00060800D01*
X00159362Y00060875D01*
X00159300Y00060937D01*
X00159225Y00060984D01*
X00159142Y00061013D01*
X00159055Y00061023D01*
X00004330Y00061023D01*
X00004243Y00061013D01*
X00004159Y00060984D01*
X00004085Y00060937D01*
X00004022Y00060875D01*
X00003975Y00060800D01*
X00003946Y00060717D01*
X00003937Y00060629D01*
X00003937Y00004330D01*
M02*