  0
SECTION
  2
HEADER
  9
$ANGBASE
  50
0.0
  9
$ANGDIR
  70
1
  9
$MEASUREMENT
  70
1
  0
ENDSEC
  0
SECTION
  2
TABLES
  0
TABLE
  2
LTYPE
  70
4
  0
LTYPE
  5
40F
  2
CONTINUOUS
  70
0
  3
Solid line
  72
65
  73
0
  40
0.0
  0
LTYPE
  5
410
  2
DASHDOT
 70
0
  3
Dash Dot ____ _ ____ _
 72
65
 73
4
 40
2.0
 49
1.25
 49
-0.25
 49
0.25
 49
-0.25
  0
LTYPE
  5
411
  2
DASHED
 70
0
  3
Dashed __ __ __ __ __
 72
65
 73
2
 40
0.75
 49
0.5
 49
-0.25
  0
LTYPE
  5
43B
  2
DOTTED
 70
0
  3
Dotted .  .  .  .
 72
65
 73
2
 40
0.2
 49
0.0
 49
-0.2
  0
ENDTAB
  0
TABLE
  2
STYLE
  70
4
  0
STYLE
  2
KICAD
  70
0
  40
0
  41
1
  42
1
  50
0
  71
0
  3
isocp.shx
  0
STYLE
  2
KICADB
  70
0
  40
0
  41
1
  42
1
  50
0
  71
0
  3
isocp.shx
  0
STYLE
  2
KICADI
  70
0
  40
0
  41
1
  42
1
  50
15
  71
0
  3
isocp.shx
  0
STYLE
  2
KICADBI
  70
0
  40
0
  41
1
  42
1
  50
15
  71
0
  3
isocp.shx
  0
ENDTAB
  0
TABLE
  2
LAYER
  70
1
  0
LAYER
  2
BLACK
  70
0
  62
7
  6
CONTINUOUS
  0
ENDTAB
  0
ENDSEC
  0
SECTION
  2
ENTITIES
0
LINE
8
BLACK
6
CONTINUOUS
10
101.435
20
-142.949
11
101.435
21
-174.949
0
LINE
8
BLACK
6
CONTINUOUS
10
101.435
20
-174.949
11
209.435
21
-174.949
0
LINE
8
BLACK
6
CONTINUOUS
10
209.435
20
-174.949
11
209.435
21
-142.949
0
LINE
8
BLACK
6
CONTINUOUS
10
209.435
20
-142.949
11
101.435
21
-142.949
0
LINE
8
BLACK
6
CONTINUOUS
10
-65.5675
20
13.0581
11
-65.5675
21
-176.949
0
LINE
8
BLACK
6
CONTINUOUS
10
-65.5675
20
-176.949
11
211.435
21
-176.949
0
LINE
8
BLACK
6
CONTINUOUS
10
211.435
20
-176.949
11
211.435
21
13.0581
0
LINE
8
BLACK
6
CONTINUOUS
10
211.435
20
13.0581
11
-65.5675
21
13.0581
0
LINE
8
BLACK
6
CONTINUOUS
10
-63.5675
20
11.0581
11
-63.5675
21
-174.949
0
LINE
8
BLACK
6
CONTINUOUS
10
-63.5675
20
-174.949
11
209.435
21
-174.949
0
LINE
8
BLACK
6
CONTINUOUS
10
209.435
20
-174.949
11
209.435
21
11.0581
0
LINE
8
BLACK
6
CONTINUOUS
10
209.435
20
11.0581
11
-63.5675
21
11.0581
0
LINE
8
BLACK
6
CONTINUOUS
10
-15.5675
20
11.0581
11
-15.5675
21
13.0581
0
LINE
8
BLACK
6
CONTINUOUS
10
34.4325
20
11.0581
11
34.4325
21
13.0581
0
LINE
8
BLACK
6
CONTINUOUS
10
84.4325
20
11.0581
11
84.4325
21
13.0581
0
LINE
8
BLACK
6
CONTINUOUS
10
134.432
20
11.0581
11
134.432
21
13.0581
0
LINE
8
BLACK
6
CONTINUOUS
10
184.432
20
11.0581
11
184.432
21
13.0581
0
LINE
8
BLACK
6
CONTINUOUS
10
-39.5021
20
11.47
11
-40.2449
21
11.47
0
LINE
8
BLACK
6
CONTINUOUS
10
-39.8735
20
11.47
11
-39.8735
21
12.77
0
LINE
8
BLACK
6
CONTINUOUS
10
-39.8735
20
12.77
11
-39.9973
21
12.5843
0
LINE
8
BLACK
6
CONTINUOUS
10
-39.9973
20
12.5843
11
-40.1211
21
12.4605
0
LINE
8
BLACK
6
CONTINUOUS
10
-40.1211
20
12.4605
11
-40.2449
21
12.3986
0
LINE
8
BLACK
6
CONTINUOUS
10
9.75508
20
12.6462
11
9.81698
21
12.7081
0
LINE
8
BLACK
6
CONTINUOUS
10
9.81698
20
12.7081
11
9.94079
21
12.77
0
LINE
8
BLACK
6
CONTINUOUS
10
9.94079
20
12.77
11
10.2503
21
12.77
0
LINE
8
BLACK
6
CONTINUOUS
10
10.2503
20
12.77
11
10.3741
21
12.7081
0
LINE
8
BLACK
6
CONTINUOUS
10
10.3741
20
12.7081
11
10.436
21
12.6462
0
LINE
8
BLACK
6
CONTINUOUS
10
10.436
20
12.6462
11
10.4979
21
12.5224
0
LINE
8
BLACK
6
CONTINUOUS
10
10.4979
20
12.5224
11
10.4979
21
12.3986
0
LINE
8
BLACK
6
CONTINUOUS
10
10.4979
20
12.3986
11
10.436
21
12.2129
0
LINE
8
BLACK
6
CONTINUOUS
10
10.436
20
12.2129
11
9.69317
21
11.47
0
LINE
8
BLACK
6
CONTINUOUS
10
9.69317
20
11.47
11
10.4979
21
11.47
0
LINE
8
BLACK
6
CONTINUOUS
10
59.6932
20
12.77
11
60.4979
21
12.77
0
LINE
8
BLACK
6
CONTINUOUS
10
60.4979
20
12.77
11
60.0646
21
12.2748
0
LINE
8
BLACK
6
CONTINUOUS
10
60.0646
20
12.2748
11
60.2503
21
12.2748
0
LINE
8
BLACK
6
CONTINUOUS
10
60.2503
20
12.2748
11
60.3741
21
12.2129
0
LINE
8
BLACK
6
CONTINUOUS
10
60.3741
20
12.2129
11
60.436
21
12.151
0
LINE
8
BLACK
6
CONTINUOUS
10
60.436
20
12.151
11
60.4979
21
12.0272
0
LINE
8
BLACK
6
CONTINUOUS
10
60.4979
20
12.0272
11
60.4979
21
11.7176
0
LINE
8
BLACK
6
CONTINUOUS
10
60.4979
20
11.7176
11
60.436
21
11.5938
0
LINE
8
BLACK
6
CONTINUOUS
10
60.436
20
11.5938
11
60.3741
21
11.5319
0
LINE
8
BLACK
6
CONTINUOUS
10
60.3741
20
11.5319
11
60.2503
21
11.47
0
LINE
8
BLACK
6
CONTINUOUS
10
60.2503
20
11.47
11
59.8789
21
11.47
0
LINE
8
BLACK
6
CONTINUOUS
10
59.8789
20
11.47
11
59.7551
21
11.5319
0
LINE
8
BLACK
6
CONTINUOUS
10
59.7551
20
11.5319
11
59.6932
21
11.5938
0
LINE
8
BLACK
6
CONTINUOUS
10
110.374
20
12.3367
11
110.374
21
11.47
0
LINE
8
BLACK
6
CONTINUOUS
10
110.065
20
12.8319
11
109.755
21
11.9034
0
LINE
8
BLACK
6
CONTINUOUS
10
109.755
20
11.9034
11
110.56
21
11.9034
0
LINE
8
BLACK
6
CONTINUOUS
10
160.436
20
12.77
11
159.817
21
12.77
0
LINE
8
BLACK
6
CONTINUOUS
10
159.817
20
12.77
11
159.755
21
12.151
0
LINE
8
BLACK
6
CONTINUOUS
10
159.755
20
12.151
11
159.817
21
12.2129
0
LINE
8
BLACK
6
CONTINUOUS
10
159.817
20
12.2129
11
159.941
21
12.2748
0
LINE
8
BLACK
6
CONTINUOUS
10
159.941
20
12.2748
11
160.25
21
12.2748
0
LINE
8
BLACK
6
CONTINUOUS
10
160.25
20
12.2748
11
160.374
21
12.2129
0
LINE
8
BLACK
6
CONTINUOUS
10
160.374
20
12.2129
11
160.436
21
12.151
0
LINE
8
BLACK
6
CONTINUOUS
10
160.436
20
12.151
11
160.498
21
12.0272
0
LINE
8
BLACK
6
CONTINUOUS
10
160.498
20
12.0272
11
160.498
21
11.7176
0
LINE
8
BLACK
6
CONTINUOUS
10
160.498
20
11.7176
11
160.436
21
11.5938
0
LINE
8
BLACK
6
CONTINUOUS
10
160.436
20
11.5938
11
160.374
21
11.5319
0
LINE
8
BLACK
6
CONTINUOUS
10
160.374
20
11.5319
11
160.25
21
11.47
0
LINE
8
BLACK
6
CONTINUOUS
10
160.25
20
11.47
11
159.941
21
11.47
0
LINE
8
BLACK
6
CONTINUOUS
10
159.941
20
11.47
11
159.817
21
11.5319
0
LINE
8
BLACK
6
CONTINUOUS
10
159.817
20
11.5319
11
159.755
21
11.5938
0
LINE
8
BLACK
6
CONTINUOUS
10
210.374
20
12.77
11
210.127
21
12.77
0
LINE
8
BLACK
6
CONTINUOUS
10
210.127
20
12.77
11
210.003
21
12.7081
0
LINE
8
BLACK
6
CONTINUOUS
10
210.003
20
12.7081
11
209.941
21
12.6462
0
LINE
8
BLACK
6
CONTINUOUS
10
209.941
20
12.6462
11
209.817
21
12.4605
0
LINE
8
BLACK
6
CONTINUOUS
10
209.817
20
12.4605
11
209.755
21
12.2129
0
LINE
8
BLACK
6
CONTINUOUS
10
209.755
20
12.2129
11
209.755
21
11.7176
0
LINE
8
BLACK
6
CONTINUOUS
10
209.755
20
11.7176
11
209.817
21
11.5938
0
LINE
8
BLACK
6
CONTINUOUS
10
209.817
20
11.5938
11
209.879
21
11.5319
0
LINE
8
BLACK
6
CONTINUOUS
10
209.879
20
11.5319
11
210.003
21
11.47
0
LINE
8
BLACK
6
CONTINUOUS
10
210.003
20
11.47
11
210.25
21
11.47
0
LINE
8
BLACK
6
CONTINUOUS
10
210.25
20
11.47
11
210.374
21
11.5319
0
LINE
8
BLACK
6
CONTINUOUS
10
210.374
20
11.5319
11
210.436
21
11.5938
0
LINE
8
BLACK
6
CONTINUOUS
10
210.436
20
11.5938
11
210.498
21
11.7176
0
LINE
8
BLACK
6
CONTINUOUS
10
210.498
20
11.7176
11
210.498
21
12.0272
0
LINE
8
BLACK
6
CONTINUOUS
10
210.498
20
12.0272
11
210.436
21
12.151
0
LINE
8
BLACK
6
CONTINUOUS
10
210.436
20
12.151
11
210.374
21
12.2129
0
LINE
8
BLACK
6
CONTINUOUS
10
210.374
20
12.2129
11
210.25
21
12.2748
0
LINE
8
BLACK
6
CONTINUOUS
10
210.25
20
12.2748
11
210.003
21
12.2748
0
LINE
8
BLACK
6
CONTINUOUS
10
210.003
20
12.2748
11
209.879
21
12.2129
0
LINE
8
BLACK
6
CONTINUOUS
10
209.879
20
12.2129
11
209.817
21
12.151
0
LINE
8
BLACK
6
CONTINUOUS
10
209.817
20
12.151
11
209.755
21
12.0272
0
LINE
8
BLACK
6
CONTINUOUS
10
-15.5675
20
-174.949
11
-15.5675
21
-176.949
0
LINE
8
BLACK
6
CONTINUOUS
10
34.4325
20
-174.949
11
34.4325
21
-176.949
0
LINE
8
BLACK
6
CONTINUOUS
10
84.4325
20
-174.949
11
84.4325
21
-176.949
0
LINE
8
BLACK
6
CONTINUOUS
10
134.432
20
-174.949
11
134.432
21
-176.949
0
LINE
8
BLACK
6
CONTINUOUS
10
184.432
20
-174.949
11
184.432
21
-176.949
0
LINE
8
BLACK
6
CONTINUOUS
10
-39.5021
20
-176.537
11
-40.2449
21
-176.537
0
LINE
8
BLACK
6
CONTINUOUS
10
-39.8735
20
-176.537
11
-39.8735
21
-175.237
0
LINE
8
BLACK
6
CONTINUOUS
10
-39.8735
20
-175.237
11
-39.9973
21
-175.423
0
LINE
8
BLACK
6
CONTINUOUS
10
-39.9973
20
-175.423
11
-40.1211
21
-175.547
0
LINE
8
BLACK
6
CONTINUOUS
10
-40.1211
20
-175.547
11
-40.2449
21
-175.609
0
LINE
8
BLACK
6
CONTINUOUS
10
9.75508
20
-175.361
11
9.81698
21
-175.299
0
LINE
8
BLACK
6
CONTINUOUS
10
9.81698
20
-175.299
11
9.94079
21
-175.237
0
LINE
8
BLACK
6
CONTINUOUS
10
9.94079
20
-175.237
11
10.2503
21
-175.237
0
LINE
8
BLACK
6
CONTINUOUS
10
10.2503
20
-175.237
11
10.3741
21
-175.299
0
LINE
8
BLACK
6
CONTINUOUS
10
10.3741
20
-175.299
11
10.436
21
-175.361
0
LINE
8
BLACK
6
CONTINUOUS
10
10.436
20
-175.361
11
10.4979
21
-175.485
0
LINE
8
BLACK
6
CONTINUOUS
10
10.4979
20
-175.485
11
10.4979
21
-175.609
0
LINE
8
BLACK
6
CONTINUOUS
10
10.4979
20
-175.609
11
10.436
21
-175.794
0
LINE
8
BLACK
6
CONTINUOUS
10
10.436
20
-175.794
11
9.69317
21
-176.537
0
LINE
8
BLACK
6
CONTINUOUS
10
9.69317
20
-176.537
11
10.4979
21
-176.537
0
LINE
8
BLACK
6
CONTINUOUS
10
59.6932
20
-175.237
11
60.4979
21
-175.237
0
LINE
8
BLACK
6
CONTINUOUS
10
60.4979
20
-175.237
11
60.0646
21
-175.732
0
LINE
8
BLACK
6
CONTINUOUS
10
60.0646
20
-175.732
11
60.2503
21
-175.732
0
LINE
8
BLACK
6
CONTINUOUS
10
60.2503
20
-175.732
11
60.3741
21
-175.794
0
LINE
8
BLACK
6
CONTINUOUS
10
60.3741
20
-175.794
11
60.436
21
-175.856
0
LINE
8
BLACK
6
CONTINUOUS
10
60.436
20
-175.856
11
60.4979
21
-175.98
0
LINE
8
BLACK
6
CONTINUOUS
10
60.4979
20
-175.98
11
60.4979
21
-176.29
0
LINE
8
BLACK
6
CONTINUOUS
10
60.4979
20
-176.29
11
60.436
21
-176.413
0
LINE
8
BLACK
6
CONTINUOUS
10
60.436
20
-176.413
11
60.3741
21
-176.475
0
LINE
8
BLACK
6
CONTINUOUS
10
60.3741
20
-176.475
11
60.2503
21
-176.537
0
LINE
8
BLACK
6
CONTINUOUS
10
60.2503
20
-176.537
11
59.8789
21
-176.537
0
LINE
8
BLACK
6
CONTINUOUS
10
59.8789
20
-176.537
11
59.7551
21
-176.475
0
LINE
8
BLACK
6
CONTINUOUS
10
59.7551
20
-176.475
11
59.6932
21
-176.413
0
LINE
8
BLACK
6
CONTINUOUS
10
110.374
20
-175.671
11
110.374
21
-176.537
0
LINE
8
BLACK
6
CONTINUOUS
10
110.065
20
-175.175
11
109.755
21
-176.104
0
LINE
8
BLACK
6
CONTINUOUS
10
109.755
20
-176.104
11
110.56
21
-176.104
0
LINE
8
BLACK
6
CONTINUOUS
10
160.436
20
-175.237
11
159.817
21
-175.237
0
LINE
8
BLACK
6
CONTINUOUS
10
159.817
20
-175.237
11
159.755
21
-175.856
0
LINE
8
BLACK
6
CONTINUOUS
10
159.755
20
-175.856
11
159.817
21
-175.794
0
LINE
8
BLACK
6
CONTINUOUS
10
159.817
20
-175.794
11
159.941
21
-175.732
0
LINE
8
BLACK
6
CONTINUOUS
10
159.941
20
-175.732
11
160.25
21
-175.732
0
LINE
8
BLACK
6
CONTINUOUS
10
160.25
20
-175.732
11
160.374
21
-175.794
0
LINE
8
BLACK
6
CONTINUOUS
10
160.374
20
-175.794
11
160.436
21
-175.856
0
LINE
8
BLACK
6
CONTINUOUS
10
160.436
20
-175.856
11
160.498
21
-175.98
0
LINE
8
BLACK
6
CONTINUOUS
10
160.498
20
-175.98
11
160.498
21
-176.29
0
LINE
8
BLACK
6
CONTINUOUS
10
160.498
20
-176.29
11
160.436
21
-176.413
0
LINE
8
BLACK
6
CONTINUOUS
10
160.436
20
-176.413
11
160.374
21
-176.475
0
LINE
8
BLACK
6
CONTINUOUS
10
160.374
20
-176.475
11
160.25
21
-176.537
0
LINE
8
BLACK
6
CONTINUOUS
10
160.25
20
-176.537
11
159.941
21
-176.537
0
LINE
8
BLACK
6
CONTINUOUS
10
159.941
20
-176.537
11
159.817
21
-176.475
0
LINE
8
BLACK
6
CONTINUOUS
10
159.817
20
-176.475
11
159.755
21
-176.413
0
LINE
8
BLACK
6
CONTINUOUS
10
210.374
20
-175.237
11
210.127
21
-175.237
0
LINE
8
BLACK
6
CONTINUOUS
10
210.127
20
-175.237
11
210.003
21
-175.299
0
LINE
8
BLACK
6
CONTINUOUS
10
210.003
20
-175.299
11
209.941
21
-175.361
0
LINE
8
BLACK
6
CONTINUOUS
10
209.941
20
-175.361
11
209.817
21
-175.547
0
LINE
8
BLACK
6
CONTINUOUS
10
209.817
20
-175.547
11
209.755
21
-175.794
0
LINE
8
BLACK
6
CONTINUOUS
10
209.755
20
-175.794
11
209.755
21
-176.29
0
LINE
8
BLACK
6
CONTINUOUS
10
209.755
20
-176.29
11
209.817
21
-176.413
0
LINE
8
BLACK
6
CONTINUOUS
10
209.817
20
-176.413
11
209.879
21
-176.475
0
LINE
8
BLACK
6
CONTINUOUS
10
209.879
20
-176.475
11
210.003
21
-176.537
0
LINE
8
BLACK
6
CONTINUOUS
10
210.003
20
-176.537
11
210.25
21
-176.537
0
LINE
8
BLACK
6
CONTINUOUS
10
210.25
20
-176.537
11
210.374
21
-176.475
0
LINE
8
BLACK
6
CONTINUOUS
10
210.374
20
-176.475
11
210.436
21
-176.413
0
LINE
8
BLACK
6
CONTINUOUS
10
210.436
20
-176.413
11
210.498
21
-176.29
0
LINE
8
BLACK
6
CONTINUOUS
10
210.498
20
-176.29
11
210.498
21
-175.98
0
LINE
8
BLACK
6
CONTINUOUS
10
210.498
20
-175.98
11
210.436
21
-175.856
0
LINE
8
BLACK
6
CONTINUOUS
10
210.436
20
-175.856
11
210.374
21
-175.794
0
LINE
8
BLACK
6
CONTINUOUS
10
210.374
20
-175.794
11
210.25
21
-175.732
0
LINE
8
BLACK
6
CONTINUOUS
10
210.25
20
-175.732
11
210.003
21
-175.732
0
LINE
8
BLACK
6
CONTINUOUS
10
210.003
20
-175.732
11
209.879
21
-175.794
0
LINE
8
BLACK
6
CONTINUOUS
10
209.879
20
-175.794
11
209.817
21
-175.856
0
LINE
8
BLACK
6
CONTINUOUS
10
209.817
20
-175.856
11
209.755
21
-175.98
0
LINE
8
BLACK
6
CONTINUOUS
10
-65.5675
20
-36.9419
11
-63.5675
21
-36.9419
0
LINE
8
BLACK
6
CONTINUOUS
10
-65.5675
20
-86.9419
11
-63.5675
21
-86.9419
0
LINE
8
BLACK
6
CONTINUOUS
10
-65.5675
20
-136.942
11
-63.5675
21
-136.942
0
LINE
8
BLACK
6
CONTINUOUS
10
-64.8771
20
-12.1585
11
-64.258
21
-12.1585
0
LINE
8
BLACK
6
CONTINUOUS
10
-65.0009
20
-12.53
11
-64.5675
21
-11.23
0
LINE
8
BLACK
6
CONTINUOUS
10
-64.5675
20
-11.23
11
-64.1342
21
-12.53
0
LINE
8
BLACK
6
CONTINUOUS
10
-64.4747
20
-61.849
11
-64.289
21
-61.9109
0
LINE
8
BLACK
6
CONTINUOUS
10
-64.289
20
-61.9109
11
-64.2271
21
-61.9728
0
LINE
8
BLACK
6
CONTINUOUS
10
-64.2271
20
-61.9728
11
-64.1652
21
-62.0966
0
LINE
8
BLACK
6
CONTINUOUS
10
-64.1652
20
-62.0966
11
-64.1652
21
-62.2824
0
LINE
8
BLACK
6
CONTINUOUS
10
-64.1652
20
-62.2824
11
-64.2271
21
-62.4062
0
LINE
8
BLACK
6
CONTINUOUS
10
-64.2271
20
-62.4062
11
-64.289
21
-62.4681
0
LINE
8
BLACK
6
CONTINUOUS
10
-64.289
20
-62.4681
11
-64.4128
21
-62.53
0
LINE
8
BLACK
6
CONTINUOUS
10
-64.4128
20
-62.53
11
-64.908
21
-62.53
0
LINE
8
BLACK
6
CONTINUOUS
10
-64.908
20
-62.53
11
-64.908
21
-61.23
0
LINE
8
BLACK
6
CONTINUOUS
10
-64.908
20
-61.23
11
-64.4747
21
-61.23
0
LINE
8
BLACK
6
CONTINUOUS
10
-64.4747
20
-61.23
11
-64.3509
21
-61.2919
0
LINE
8
BLACK
6
CONTINUOUS
10
-64.3509
20
-61.2919
11
-64.289
21
-61.3538
0
LINE
8
BLACK
6
CONTINUOUS
10
-64.289
20
-61.3538
11
-64.2271
21
-61.4776
0
LINE
8
BLACK
6
CONTINUOUS
10
-64.2271
20
-61.4776
11
-64.2271
21
-61.6014
0
LINE
8
BLACK
6
CONTINUOUS
10
-64.2271
20
-61.6014
11
-64.289
21
-61.7252
0
LINE
8
BLACK
6
CONTINUOUS
10
-64.289
20
-61.7252
11
-64.3509
21
-61.7871
0
LINE
8
BLACK
6
CONTINUOUS
10
-64.3509
20
-61.7871
11
-64.4747
21
-61.849
0
LINE
8
BLACK
6
CONTINUOUS
10
-64.4747
20
-61.849
11
-64.908
21
-61.849
0
LINE
8
BLACK
6
CONTINUOUS
10
-64.1652
20
-112.406
11
-64.2271
21
-112.468
0
LINE
8
BLACK
6
CONTINUOUS
10
-64.2271
20
-112.468
11
-64.4128
21
-112.53
0
LINE
8
BLACK
6
CONTINUOUS
10
-64.4128
20
-112.53
11
-64.5366
21
-112.53
0
LINE
8
BLACK
6
CONTINUOUS
10
-64.5366
20
-112.53
11
-64.7223
21
-112.468
0
LINE
8
BLACK
6
CONTINUOUS
10
-64.7223
20
-112.468
11
-64.8461
21
-112.344
0
LINE
8
BLACK
6
CONTINUOUS
10
-64.8461
20
-112.344
11
-64.908
21
-112.22
0
LINE
8
BLACK
6
CONTINUOUS
10
-64.908
20
-112.22
11
-64.9699
21
-111.973
0
LINE
8
BLACK
6
CONTINUOUS
10
-64.9699
20
-111.973
11
-64.9699
21
-111.787
0
LINE
8
BLACK
6
CONTINUOUS
10
-64.9699
20
-111.787
11
-64.908
21
-111.539
0
LINE
8
BLACK
6
CONTINUOUS
10
-64.908
20
-111.539
11
-64.8461
21
-111.416
0
LINE
8
BLACK
6
CONTINUOUS
10
-64.8461
20
-111.416
11
-64.7223
21
-111.292
0
LINE
8
BLACK
6
CONTINUOUS
10
-64.7223
20
-111.292
11
-64.5366
21
-111.23
0
LINE
8
BLACK
6
CONTINUOUS
10
-64.5366
20
-111.23
11
-64.4128
21
-111.23
0
LINE
8
BLACK
6
CONTINUOUS
10
-64.4128
20
-111.23
11
-64.2271
21
-111.292
0
LINE
8
BLACK
6
CONTINUOUS
10
-64.2271
20
-111.292
11
-64.1652
21
-111.354
0
LINE
8
BLACK
6
CONTINUOUS
10
-64.908
20
-162.53
11
-64.908
21
-161.23
0
LINE
8
BLACK
6
CONTINUOUS
10
-64.908
20
-161.23
11
-64.5985
21
-161.23
0
LINE
8
BLACK
6
CONTINUOUS
10
-64.5985
20
-161.23
11
-64.4128
21
-161.292
0
LINE
8
BLACK
6
CONTINUOUS
10
-64.4128
20
-161.292
11
-64.289
21
-161.416
0
LINE
8
BLACK
6
CONTINUOUS
10
-64.289
20
-161.416
11
-64.2271
21
-161.539
0
LINE
8
BLACK
6
CONTINUOUS
10
-64.2271
20
-161.539
11
-64.1652
21
-161.787
0
LINE
8
BLACK
6
CONTINUOUS
10
-64.1652
20
-161.787
11
-64.1652
21
-161.973
0
LINE
8
BLACK
6
CONTINUOUS
10
-64.1652
20
-161.973
11
-64.2271
21
-162.22
0
LINE
8
BLACK
6
CONTINUOUS
10
-64.2271
20
-162.22
11
-64.289
21
-162.344
0
LINE
8
BLACK
6
CONTINUOUS
10
-64.289
20
-162.344
11
-64.4128
21
-162.468
0
LINE
8
BLACK
6
CONTINUOUS
10
-64.4128
20
-162.468
11
-64.5985
21
-162.53
0
LINE
8
BLACK
6
CONTINUOUS
10
-64.5985
20
-162.53
11
-64.908
21
-162.53
0
LINE
8
BLACK
6
CONTINUOUS
10
211.435
20
-36.9419
11
209.435
21
-36.9419
0
LINE
8
BLACK
6
CONTINUOUS
10
211.435
20
-86.9419
11
209.435
21
-86.9419
0
LINE
8
BLACK
6
CONTINUOUS
10
211.435
20
-136.942
11
209.435
21
-136.942
0
LINE
8
BLACK
6
CONTINUOUS
10
210.125
20
-12.1585
11
210.744
21
-12.1585
0
LINE
8
BLACK
6
CONTINUOUS
10
210.001
20
-12.53
11
210.435
21
-11.23
0
LINE
8
BLACK
6
CONTINUOUS
10
210.435
20
-11.23
11
210.868
21
-12.53
0
LINE
8
BLACK
6
CONTINUOUS
10
210.528
20
-61.849
11
210.713
21
-61.9109
0
LINE
8
BLACK
6
CONTINUOUS
10
210.713
20
-61.9109
11
210.775
21
-61.9728
0
LINE
8
BLACK
6
CONTINUOUS
10
210.775
20
-61.9728
11
210.837
21
-62.0966
0
LINE
8
BLACK
6
CONTINUOUS
10
210.837
20
-62.0966
11
210.837
21
-62.2824
0
LINE
8
BLACK
6
CONTINUOUS
10
210.837
20
-62.2824
11
210.775
21
-62.4062
0
LINE
8
BLACK
6
CONTINUOUS
10
210.775
20
-62.4062
11
210.713
21
-62.4681
0
LINE
8
BLACK
6
CONTINUOUS
10
210.713
20
-62.4681
11
210.589
21
-62.53
0
LINE
8
BLACK
6
CONTINUOUS
10
210.589
20
-62.53
11
210.094
21
-62.53
0
LINE
8
BLACK
6
CONTINUOUS
10
210.094
20
-62.53
11
210.094
21
-61.23
0
LINE
8
BLACK
6
CONTINUOUS
10
210.094
20
-61.23
11
210.528
21
-61.23
0
LINE
8
BLACK
6
CONTINUOUS
10
210.528
20
-61.23
11
210.651
21
-61.2919
0
LINE
8
BLACK
6
CONTINUOUS
10
210.651
20
-61.2919
11
210.713
21
-61.3538
0
LINE
8
BLACK
6
CONTINUOUS
10
210.713
20
-61.3538
11
210.775
21
-61.4776
0
LINE
8
BLACK
6
CONTINUOUS
10
210.775
20
-61.4776
11
210.775
21
-61.6014
0
LINE
8
BLACK
6
CONTINUOUS
10
210.775
20
-61.6014
11
210.713
21
-61.7252
0
LINE
8
BLACK
6
CONTINUOUS
10
210.713
20
-61.7252
11
210.651
21
-61.7871
0
LINE
8
BLACK
6
CONTINUOUS
10
210.651
20
-61.7871
11
210.528
21
-61.849
0
LINE
8
BLACK
6
CONTINUOUS
10
210.528
20
-61.849
11
210.094
21
-61.849
0
LINE
8
BLACK
6
CONTINUOUS
10
210.837
20
-112.406
11
210.775
21
-112.468
0
LINE
8
BLACK
6
CONTINUOUS
10
210.775
20
-112.468
11
210.589
21
-112.53
0
LINE
8
BLACK
6
CONTINUOUS
10
210.589
20
-112.53
11
210.466
21
-112.53
0
LINE
8
BLACK
6
CONTINUOUS
10
210.466
20
-112.53
11
210.28
21
-112.468
0
LINE
8
BLACK
6
CONTINUOUS
10
210.28
20
-112.468
11
210.156
21
-112.344
0
LINE
8
BLACK
6
CONTINUOUS
10
210.156
20
-112.344
11
210.094
21
-112.22
0
LINE
8
BLACK
6
CONTINUOUS
10
210.094
20
-112.22
11
210.032
21
-111.973
0
LINE
8
BLACK
6
CONTINUOUS
10
210.032
20
-111.973
11
210.032
21
-111.787
0
LINE
8
BLACK
6
CONTINUOUS
10
210.032
20
-111.787
11
210.094
21
-111.539
0
LINE
8
BLACK
6
CONTINUOUS
10
210.094
20
-111.539
11
210.156
21
-111.416
0
LINE
8
BLACK
6
CONTINUOUS
10
210.156
20
-111.416
11
210.28
21
-111.292
0
LINE
8
BLACK
6
CONTINUOUS
10
210.28
20
-111.292
11
210.466
21
-111.23
0
LINE
8
BLACK
6
CONTINUOUS
10
210.466
20
-111.23
11
210.589
21
-111.23
0
LINE
8
BLACK
6
CONTINUOUS
10
210.589
20
-111.23
11
210.775
21
-111.292
0
LINE
8
BLACK
6
CONTINUOUS
10
210.775
20
-111.292
11
210.837
21
-111.354
0
LINE
8
BLACK
6
CONTINUOUS
10
210.094
20
-162.53
11
210.094
21
-161.23
0
LINE
8
BLACK
6
CONTINUOUS
10
210.094
20
-161.23
11
210.404
21
-161.23
0
LINE
8
BLACK
6
CONTINUOUS
10
210.404
20
-161.23
11
210.589
21
-161.292
0
LINE
8
BLACK
6
CONTINUOUS
10
210.589
20
-161.292
11
210.713
21
-161.416
0
LINE
8
BLACK
6
CONTINUOUS
10
210.713
20
-161.416
11
210.775
21
-161.539
0
LINE
8
BLACK
6
CONTINUOUS
10
210.775
20
-161.539
11
210.837
21
-161.787
0
LINE
8
BLACK
6
CONTINUOUS
10
210.837
20
-161.787
11
210.837
21
-161.973
0
LINE
8
BLACK
6
CONTINUOUS
10
210.837
20
-161.973
11
210.775
21
-162.22
0
LINE
8
BLACK
6
CONTINUOUS
10
210.775
20
-162.22
11
210.713
21
-162.344
0
LINE
8
BLACK
6
CONTINUOUS
10
210.713
20
-162.344
11
210.589
21
-162.468
0
LINE
8
BLACK
6
CONTINUOUS
10
210.589
20
-162.468
11
210.404
21
-162.53
0
LINE
8
BLACK
6
CONTINUOUS
10
210.404
20
-162.53
11
210.094
21
-162.53
0
LINE
8
BLACK
6
CONTINUOUS
10
124.867
20
-170.728
11
124.867
21
-169.228
0
LINE
8
BLACK
6
CONTINUOUS
10
124.867
20
-169.228
11
125.224
21
-169.228
0
LINE
8
BLACK
6
CONTINUOUS
10
125.224
20
-169.228
11
125.438
21
-169.299
0
LINE
8
BLACK
6
CONTINUOUS
10
125.438
20
-169.299
11
125.581
21
-169.442
0
LINE
8
BLACK
6
CONTINUOUS
10
125.581
20
-169.442
11
125.653
21
-169.585
0
LINE
8
BLACK
6
CONTINUOUS
10
125.653
20
-169.585
11
125.724
21
-169.871
0
LINE
8
BLACK
6
CONTINUOUS
10
125.724
20
-169.871
11
125.724
21
-170.085
0
LINE
8
BLACK
6
CONTINUOUS
10
125.724
20
-170.085
11
125.653
21
-170.371
0
LINE
8
BLACK
6
CONTINUOUS
10
125.653
20
-170.371
11
125.581
21
-170.513
0
LINE
8
BLACK
6
CONTINUOUS
10
125.581
20
-170.513
11
125.438
21
-170.656
0
LINE
8
BLACK
6
CONTINUOUS
10
125.438
20
-170.656
11
125.224
21
-170.728
0
LINE
8
BLACK
6
CONTINUOUS
10
125.224
20
-170.728
11
124.867
21
-170.728
0
LINE
8
BLACK
6
CONTINUOUS
10
127.01
20
-170.728
11
127.01
21
-169.942
0
LINE
8
BLACK
6
CONTINUOUS
10
127.01
20
-169.942
11
126.938
21
-169.799
0
LINE
8
BLACK
6
CONTINUOUS
10
126.938
20
-169.799
11
126.795
21
-169.728
0
LINE
8
BLACK
6
CONTINUOUS
10
126.795
20
-169.728
11
126.51
21
-169.728
0
LINE
8
BLACK
6
CONTINUOUS
10
126.51
20
-169.728
11
126.367
21
-169.799
0
LINE
8
BLACK
6
CONTINUOUS
10
127.01
20
-170.656
11
126.867
21
-170.728
0
LINE
8
BLACK
6
CONTINUOUS
10
126.867
20
-170.728
11
126.51
21
-170.728
0
LINE
8
BLACK
6
CONTINUOUS
10
126.51
20
-170.728
11
126.367
21
-170.656
0
LINE
8
BLACK
6
CONTINUOUS
10
126.367
20
-170.656
11
126.295
21
-170.513
0
LINE
8
BLACK
6
CONTINUOUS
10
126.295
20
-170.513
11
126.295
21
-170.371
0
LINE
8
BLACK
6
CONTINUOUS
10
126.295
20
-170.371
11
126.367
21
-170.228
0
LINE
8
BLACK
6
CONTINUOUS
10
126.367
20
-170.228
11
126.51
21
-170.156
0
LINE
8
BLACK
6
CONTINUOUS
10
126.51
20
-170.156
11
126.867
21
-170.156
0
LINE
8
BLACK
6
CONTINUOUS
10
126.867
20
-170.156
11
127.01
21
-170.085
0
LINE
8
BLACK
6
CONTINUOUS
10
127.51
20
-169.728
11
128.081
21
-169.728
0
LINE
8
BLACK
6
CONTINUOUS
10
127.724
20
-169.228
11
127.724
21
-170.513
0
LINE
8
BLACK
6
CONTINUOUS
10
127.724
20
-170.513
11
127.795
21
-170.656
0
LINE
8
BLACK
6
CONTINUOUS
10
127.795
20
-170.656
11
127.938
21
-170.728
0
LINE
8
BLACK
6
CONTINUOUS
10
127.938
20
-170.728
11
128.081
21
-170.728
0
LINE
8
BLACK
6
CONTINUOUS
10
129.153
20
-170.656
11
129.01
21
-170.728
0
LINE
8
BLACK
6
CONTINUOUS
10
129.01
20
-170.728
11
128.724
21
-170.728
0
LINE
8
BLACK
6
CONTINUOUS
10
128.724
20
-170.728
11
128.581
21
-170.656
0
LINE
8
BLACK
6
CONTINUOUS
10
128.581
20
-170.656
11
128.51
21
-170.513
0
LINE
8
BLACK
6
CONTINUOUS
10
128.51
20
-170.513
11
128.51
21
-169.942
0
LINE
8
BLACK
6
CONTINUOUS
10
128.51
20
-169.942
11
128.581
21
-169.799
0
LINE
8
BLACK
6
CONTINUOUS
10
128.581
20
-169.799
11
128.724
21
-169.728
0
LINE
8
BLACK
6
CONTINUOUS
10
128.724
20
-169.728
11
129.01
21
-169.728
0
LINE
8
BLACK
6
CONTINUOUS
10
129.01
20
-169.728
11
129.153
21
-169.799
0
LINE
8
BLACK
6
CONTINUOUS
10
129.153
20
-169.799
11
129.224
21
-169.942
0
LINE
8
BLACK
6
CONTINUOUS
10
129.224
20
-169.942
11
129.224
21
-170.085
0
LINE
8
BLACK
6
CONTINUOUS
10
129.224
20
-170.085
11
128.51
21
-170.228
0
LINE
8
BLACK
6
CONTINUOUS
10
129.867
20
-170.585
11
129.938
21
-170.656
0
LINE
8
BLACK
6
CONTINUOUS
10
129.938
20
-170.656
11
129.867
21
-170.728
0
LINE
8
BLACK
6
CONTINUOUS
10
129.867
20
-170.728
11
129.795
21
-170.656
0
LINE
8
BLACK
6
CONTINUOUS
10
129.795
20
-170.656
11
129.867
21
-170.585
0
LINE
8
BLACK
6
CONTINUOUS
10
129.867
20
-170.585
11
129.867
21
-170.728
0
LINE
8
BLACK
6
CONTINUOUS
10
129.867
20
-169.799
11
129.938
21
-169.871
0
LINE
8
BLACK
6
CONTINUOUS
10
129.938
20
-169.871
11
129.867
21
-169.942
0
LINE
8
BLACK
6
CONTINUOUS
10
129.867
20
-169.942
11
129.795
21
-169.871
0
LINE
8
BLACK
6
CONTINUOUS
10
129.795
20
-169.871
11
129.867
21
-169.799
0
LINE
8
BLACK
6
CONTINUOUS
10
129.867
20
-169.799
11
129.867
21
-169.942
0
LINE
8
BLACK
6
CONTINUOUS
10
101.435
20
-171.449
11
209.435
21
-171.449
0
LINE
8
BLACK
6
CONTINUOUS
10
102.867
20
-173.528
11
102.867
21
-172.028
0
LINE
8
BLACK
6
CONTINUOUS
10
103.724
20
-173.528
11
103.081
21
-172.671
0
LINE
8
BLACK
6
CONTINUOUS
10
103.724
20
-172.028
11
102.867
21
-172.885
0
LINE
8
BLACK
6
CONTINUOUS
10
104.367
20
-173.528
11
104.367
21
-172.528
0
LINE
8
BLACK
6
CONTINUOUS
10
104.367
20
-172.028
11
104.295
21
-172.099
0
LINE
8
BLACK
6
CONTINUOUS
10
104.295
20
-172.099
11
104.367
21
-172.171
0
LINE
8
BLACK
6
CONTINUOUS
10
104.367
20
-172.171
11
104.438
21
-172.099
0
LINE
8
BLACK
6
CONTINUOUS
10
104.438
20
-172.099
11
104.367
21
-172.028
0
LINE
8
BLACK
6
CONTINUOUS
10
104.367
20
-172.028
11
104.367
21
-172.171
0
LINE
8
BLACK
6
CONTINUOUS
10
105.938
20
-173.385
11
105.867
21
-173.456
0
LINE
8
BLACK
6
CONTINUOUS
10
105.867
20
-173.456
11
105.653
21
-173.528
0
LINE
8
BLACK
6
CONTINUOUS
10
105.653
20
-173.528
11
105.51
21
-173.528
0
LINE
8
BLACK
6
CONTINUOUS
10
105.51
20
-173.528
11
105.295
21
-173.456
0
LINE
8
BLACK
6
CONTINUOUS
10
105.295
20
-173.456
11
105.153
21
-173.313
0
LINE
8
BLACK
6
CONTINUOUS
10
105.153
20
-173.313
11
105.081
21
-173.171
0
LINE
8
BLACK
6
CONTINUOUS
10
105.081
20
-173.171
11
105.01
21
-172.885
0
LINE
8
BLACK
6
CONTINUOUS
10
105.01
20
-172.885
11
105.01
21
-172.671
0
LINE
8
BLACK
6
CONTINUOUS
10
105.01
20
-172.671
11
105.081
21
-172.385
0
LINE
8
BLACK
6
CONTINUOUS
10
105.081
20
-172.385
11
105.153
21
-172.242
0
LINE
8
BLACK
6
CONTINUOUS
10
105.153
20
-172.242
11
105.295
21
-172.099
0
LINE
8
BLACK
6
CONTINUOUS
10
105.295
20
-172.099
11
105.51
21
-172.028
0
LINE
8
BLACK
6
CONTINUOUS
10
105.51
20
-172.028
11
105.653
21
-172.028
0
LINE
8
BLACK
6
CONTINUOUS
10
105.653
20
-172.028
11
105.867
21
-172.099
0
LINE
8
BLACK
6
CONTINUOUS
10
105.867
20
-172.099
11
105.938
21
-172.171
0
LINE
8
BLACK
6
CONTINUOUS
10
107.224
20
-173.528
11
107.224
21
-172.742
0
LINE
8
BLACK
6
CONTINUOUS
10
107.224
20
-172.742
11
107.153
21
-172.599
0
LINE
8
BLACK
6
CONTINUOUS
10
107.153
20
-172.599
11
107.01
21
-172.528
0
LINE
8
BLACK
6
CONTINUOUS
10
107.01
20
-172.528
11
106.724
21
-172.528
0
LINE
8
BLACK
6
CONTINUOUS
10
106.724
20
-172.528
11
106.581
21
-172.599
0
LINE
8
BLACK
6
CONTINUOUS
10
107.224
20
-173.456
11
107.081
21
-173.528
0
LINE
8
BLACK
6
CONTINUOUS
10
107.081
20
-173.528
11
106.724
21
-173.528
0
LINE
8
BLACK
6
CONTINUOUS
10
106.724
20
-173.528
11
106.581
21
-173.456
0
LINE
8
BLACK
6
CONTINUOUS
10
106.581
20
-173.456
11
106.51
21
-173.313
0
LINE
8
BLACK
6
CONTINUOUS
10
106.51
20
-173.313
11
106.51
21
-173.171
0
LINE
8
BLACK
6
CONTINUOUS
10
106.51
20
-173.171
11
106.581
21
-173.028
0
LINE
8
BLACK
6
CONTINUOUS
10
106.581
20
-173.028
11
106.724
21
-172.956
0
LINE
8
BLACK
6
CONTINUOUS
10
106.724
20
-172.956
11
107.081
21
-172.956
0
LINE
8
BLACK
6
CONTINUOUS
10
107.081
20
-172.956
11
107.224
21
-172.885
0
LINE
8
BLACK
6
CONTINUOUS
10
108.581
20
-173.528
11
108.581
21
-172.028
0
LINE
8
BLACK
6
CONTINUOUS
10
108.581
20
-173.456
11
108.438
21
-173.528
0
LINE
8
BLACK
6
CONTINUOUS
10
108.438
20
-173.528
11
108.153
21
-173.528
0
LINE
8
BLACK
6
CONTINUOUS
10
108.153
20
-173.528
11
108.01
21
-173.456
0
LINE
8
BLACK
6
CONTINUOUS
10
108.01
20
-173.456
11
107.938
21
-173.385
0
LINE
8
BLACK
6
CONTINUOUS
10
107.938
20
-173.385
11
107.867
21
-173.242
0
LINE
8
BLACK
6
CONTINUOUS
10
107.867
20
-173.242
11
107.867
21
-172.813
0
LINE
8
BLACK
6
CONTINUOUS
10
107.867
20
-172.813
11
107.938
21
-172.671
0
LINE
8
BLACK
6
CONTINUOUS
10
107.938
20
-172.671
11
108.01
21
-172.599
0
LINE
8
BLACK
6
CONTINUOUS
10
108.01
20
-172.599
11
108.153
21
-172.528
0
LINE
8
BLACK
6
CONTINUOUS
10
108.153
20
-172.528
11
108.438
21
-172.528
0
LINE
8
BLACK
6
CONTINUOUS
10
108.438
20
-172.528
11
108.581
21
-172.599
0
LINE
8
BLACK
6
CONTINUOUS
10
110.438
20
-172.742
11
110.938
21
-172.742
0
LINE
8
BLACK
6
CONTINUOUS
10
111.153
20
-173.528
11
110.438
21
-173.528
0
LINE
8
BLACK
6
CONTINUOUS
10
110.438
20
-173.528
11
110.438
21
-172.028
0
LINE
8
BLACK
6
CONTINUOUS
10
110.438
20
-172.028
11
111.153
21
-172.028
0
LINE
8
BLACK
6
CONTINUOUS
10
111.795
20
-173.385
11
111.867
21
-173.456
0
LINE
8
BLACK
6
CONTINUOUS
10
111.867
20
-173.456
11
111.795
21
-173.528
0
LINE
8
BLACK
6
CONTINUOUS
10
111.795
20
-173.528
11
111.724
21
-173.456
0
LINE
8
BLACK
6
CONTINUOUS
10
111.724
20
-173.456
11
111.795
21
-173.385
0
LINE
8
BLACK
6
CONTINUOUS
10
111.795
20
-173.385
11
111.795
21
-173.528
0
LINE
8
BLACK
6
CONTINUOUS
10
112.51
20
-173.528
11
112.51
21
-172.028
0
LINE
8
BLACK
6
CONTINUOUS
10
112.51
20
-172.028
11
112.867
21
-172.028
0
LINE
8
BLACK
6
CONTINUOUS
10
112.867
20
-172.028
11
113.081
21
-172.099
0
LINE
8
BLACK
6
CONTINUOUS
10
113.081
20
-172.099
11
113.224
21
-172.242
0
LINE
8
BLACK
6
CONTINUOUS
10
113.224
20
-172.242
11
113.295
21
-172.385
0
LINE
8
BLACK
6
CONTINUOUS
10
113.295
20
-172.385
11
113.367
21
-172.671
0
LINE
8
BLACK
6
CONTINUOUS
10
113.367
20
-172.671
11
113.367
21
-172.885
0
LINE
8
BLACK
6
CONTINUOUS
10
113.367
20
-172.885
11
113.295
21
-173.171
0
LINE
8
BLACK
6
CONTINUOUS
10
113.295
20
-173.171
11
113.224
21
-173.313
0
LINE
8
BLACK
6
CONTINUOUS
10
113.224
20
-173.313
11
113.081
21
-173.456
0
LINE
8
BLACK
6
CONTINUOUS
10
113.081
20
-173.456
11
112.867
21
-173.528
0
LINE
8
BLACK
6
CONTINUOUS
10
112.867
20
-173.528
11
112.51
21
-173.528
0
LINE
8
BLACK
6
CONTINUOUS
10
114.01
20
-173.385
11
114.081
21
-173.456
0
LINE
8
BLACK
6
CONTINUOUS
10
114.081
20
-173.456
11
114.01
21
-173.528
0
LINE
8
BLACK
6
CONTINUOUS
10
114.01
20
-173.528
11
113.938
21
-173.456
0
LINE
8
BLACK
6
CONTINUOUS
10
113.938
20
-173.456
11
114.01
21
-173.385
0
LINE
8
BLACK
6
CONTINUOUS
10
114.01
20
-173.385
11
114.01
21
-173.528
0
LINE
8
BLACK
6
CONTINUOUS
10
114.653
20
-173.099
11
115.367
21
-173.099
0
LINE
8
BLACK
6
CONTINUOUS
10
114.51
20
-173.528
11
115.01
21
-172.028
0
LINE
8
BLACK
6
CONTINUOUS
10
115.01
20
-172.028
11
115.51
21
-173.528
0
LINE
8
BLACK
6
CONTINUOUS
10
116.01
20
-173.385
11
116.081
21
-173.456
0
LINE
8
BLACK
6
CONTINUOUS
10
116.081
20
-173.456
11
116.01
21
-173.528
0
LINE
8
BLACK
6
CONTINUOUS
10
116.01
20
-173.528
11
115.938
21
-173.456
0
LINE
8
BLACK
6
CONTINUOUS
10
115.938
20
-173.456
11
116.01
21
-173.385
0
LINE
8
BLACK
6
CONTINUOUS
10
116.01
20
-173.385
11
116.01
21
-173.528
0
LINE
8
BLACK
6
CONTINUOUS
10
119.01
20
-173.528
11
119.01
21
-172.028
0
LINE
8
BLACK
6
CONTINUOUS
10
119.153
20
-172.956
11
119.581
21
-173.528
0
LINE
8
BLACK
6
CONTINUOUS
10
119.581
20
-172.528
11
119.01
21
-173.099
0
LINE
8
BLACK
6
CONTINUOUS
10
120.224
20
-173.528
11
120.224
21
-172.528
0
LINE
8
BLACK
6
CONTINUOUS
10
120.224
20
-172.028
11
120.153
21
-172.099
0
LINE
8
BLACK
6
CONTINUOUS
10
120.153
20
-172.099
11
120.224
21
-172.171
0
LINE
8
BLACK
6
CONTINUOUS
10
120.224
20
-172.171
11
120.295
21
-172.099
0
LINE
8
BLACK
6
CONTINUOUS
10
120.295
20
-172.099
11
120.224
21
-172.028
0
LINE
8
BLACK
6
CONTINUOUS
10
120.224
20
-172.028
11
120.224
21
-172.171
0
LINE
8
BLACK
6
CONTINUOUS
10
121.581
20
-173.456
11
121.438
21
-173.528
0
LINE
8
BLACK
6
CONTINUOUS
10
121.438
20
-173.528
11
121.153
21
-173.528
0
LINE
8
BLACK
6
CONTINUOUS
10
121.153
20
-173.528
11
121.01
21
-173.456
0
LINE
8
BLACK
6
CONTINUOUS
10
121.01
20
-173.456
11
120.938
21
-173.385
0
LINE
8
BLACK
6
CONTINUOUS
10
120.938
20
-173.385
11
120.867
21
-173.242
0
LINE
8
BLACK
6
CONTINUOUS
10
120.867
20
-173.242
11
120.867
21
-172.813
0
LINE
8
BLACK
6
CONTINUOUS
10
120.867
20
-172.813
11
120.938
21
-172.671
0
LINE
8
BLACK
6
CONTINUOUS
10
120.938
20
-172.671
11
121.01
21
-172.599
0
LINE
8
BLACK
6
CONTINUOUS
10
121.01
20
-172.599
11
121.153
21
-172.528
0
LINE
8
BLACK
6
CONTINUOUS
10
121.153
20
-172.528
11
121.438
21
-172.528
0
LINE
8
BLACK
6
CONTINUOUS
10
121.438
20
-172.528
11
121.581
21
-172.599
0
LINE
8
BLACK
6
CONTINUOUS
10
122.867
20
-173.528
11
122.867
21
-172.742
0
LINE
8
BLACK
6
CONTINUOUS
10
122.867
20
-172.742
11
122.795
21
-172.599
0
LINE
8
BLACK
6
CONTINUOUS
10
122.795
20
-172.599
11
122.653
21
-172.528
0
LINE
8
BLACK
6
CONTINUOUS
10
122.653
20
-172.528
11
122.367
21
-172.528
0
LINE
8
BLACK
6
CONTINUOUS
10
122.367
20
-172.528
11
122.224
21
-172.599
0
LINE
8
BLACK
6
CONTINUOUS
10
122.867
20
-173.456
11
122.724
21
-173.528
0
LINE
8
BLACK
6
CONTINUOUS
10
122.724
20
-173.528
11
122.367
21
-173.528
0
LINE
8
BLACK
6
CONTINUOUS
10
122.367
20
-173.528
11
122.224
21
-173.456
0
LINE
8
BLACK
6
CONTINUOUS
10
122.224
20
-173.456
11
122.153
21
-173.313
0
LINE
8
BLACK
6
CONTINUOUS
10
122.153
20
-173.313
11
122.153
21
-173.171
0
LINE
8
BLACK
6
CONTINUOUS
10
122.153
20
-173.171
11
122.224
21
-173.028
0
LINE
8
BLACK
6
CONTINUOUS
10
122.224
20
-173.028
11
122.367
21
-172.956
0
LINE
8
BLACK
6
CONTINUOUS
10
122.367
20
-172.956
11
122.724
21
-172.956
0
LINE
8
BLACK
6
CONTINUOUS
10
122.724
20
-172.956
11
122.867
21
-172.885
0
LINE
8
BLACK
6
CONTINUOUS
10
124.224
20
-173.528
11
124.224
21
-172.028
0
LINE
8
BLACK
6
CONTINUOUS
10
124.224
20
-173.456
11
124.081
21
-173.528
0
LINE
8
BLACK
6
CONTINUOUS
10
124.081
20
-173.528
11
123.795
21
-173.528
0
LINE
8
BLACK
6
CONTINUOUS
10
123.795
20
-173.528
11
123.653
21
-173.456
0
LINE
8
BLACK
6
CONTINUOUS
10
123.653
20
-173.456
11
123.581
21
-173.385
0
LINE
8
BLACK
6
CONTINUOUS
10
123.581
20
-173.385
11
123.51
21
-173.242
0
LINE
8
BLACK
6
CONTINUOUS
10
123.51
20
-173.242
11
123.51
21
-172.813
0
LINE
8
BLACK
6
CONTINUOUS
10
123.51
20
-172.813
11
123.581
21
-172.671
0
LINE
8
BLACK
6
CONTINUOUS
10
123.581
20
-172.671
11
123.653
21
-172.599
0
LINE
8
BLACK
6
CONTINUOUS
10
123.653
20
-172.599
11
123.795
21
-172.528
0
LINE
8
BLACK
6
CONTINUOUS
10
123.795
20
-172.528
11
124.081
21
-172.528
0
LINE
8
BLACK
6
CONTINUOUS
10
124.081
20
-172.528
11
124.224
21
-172.599
0
LINE
8
BLACK
6
CONTINUOUS
10
126.795
20
-172.028
11
126.081
21
-172.028
0
LINE
8
BLACK
6
CONTINUOUS
10
126.081
20
-172.028
11
126.01
21
-172.742
0
LINE
8
BLACK
6
CONTINUOUS
10
126.01
20
-172.742
11
126.081
21
-172.671
0
LINE
8
BLACK
6
CONTINUOUS
10
126.081
20
-172.671
11
126.224
21
-172.599
0
LINE
8
BLACK
6
CONTINUOUS
10
126.224
20
-172.599
11
126.581
21
-172.599
0
LINE
8
BLACK
6
CONTINUOUS
10
126.581
20
-172.599
11
126.724
21
-172.671
0
LINE
8
BLACK
6
CONTINUOUS
10
126.724
20
-172.671
11
126.795
21
-172.742
0
LINE
8
BLACK
6
CONTINUOUS
10
126.795
20
-172.742
11
126.867
21
-172.885
0
LINE
8
BLACK
6
CONTINUOUS
10
126.867
20
-172.885
11
126.867
21
-173.242
0
LINE
8
BLACK
6
CONTINUOUS
10
126.867
20
-173.242
11
126.795
21
-173.385
0
LINE
8
BLACK
6
CONTINUOUS
10
126.795
20
-173.385
11
126.724
21
-173.456
0
LINE
8
BLACK
6
CONTINUOUS
10
126.724
20
-173.456
11
126.581
21
-173.528
0
LINE
8
BLACK
6
CONTINUOUS
10
126.581
20
-173.528
11
126.224
21
-173.528
0
LINE
8
BLACK
6
CONTINUOUS
10
126.224
20
-173.528
11
126.081
21
-173.456
0
LINE
8
BLACK
6
CONTINUOUS
10
126.081
20
-173.456
11
126.01
21
-173.385
0
LINE
8
BLACK
6
CONTINUOUS
10
127.51
20
-173.385
11
127.581
21
-173.456
0
LINE
8
BLACK
6
CONTINUOUS
10
127.581
20
-173.456
11
127.51
21
-173.528
0
LINE
8
BLACK
6
CONTINUOUS
10
127.51
20
-173.528
11
127.438
21
-173.456
0
LINE
8
BLACK
6
CONTINUOUS
10
127.438
20
-173.456
11
127.51
21
-173.385
0
LINE
8
BLACK
6
CONTINUOUS
10
127.51
20
-173.385
11
127.51
21
-173.528
0
LINE
8
BLACK
6
CONTINUOUS
10
129.01
20
-173.528
11
128.153
21
-173.528
0
LINE
8
BLACK
6
CONTINUOUS
10
128.581
20
-173.528
11
128.581
21
-172.028
0
LINE
8
BLACK
6
CONTINUOUS
10
128.581
20
-172.028
11
128.438
21
-172.242
0
LINE
8
BLACK
6
CONTINUOUS
10
128.438
20
-172.242
11
128.295
21
-172.385
0
LINE
8
BLACK
6
CONTINUOUS
10
128.295
20
-172.385
11
128.153
21
-172.456
0
LINE
8
BLACK
6
CONTINUOUS
10
129.653
20
-173.385
11
129.724
21
-173.456
0
LINE
8
BLACK
6
CONTINUOUS
10
129.724
20
-173.456
11
129.653
21
-173.528
0
LINE
8
BLACK
6
CONTINUOUS
10
129.653
20
-173.528
11
129.581
21
-173.456
0
LINE
8
BLACK
6
CONTINUOUS
10
129.581
20
-173.456
11
129.653
21
-173.385
0
LINE
8
BLACK
6
CONTINUOUS
10
129.653
20
-173.385
11
129.653
21
-173.528
0
LINE
8
BLACK
6
CONTINUOUS
10
131.01
20
-172.528
11
131.01
21
-173.528
0
LINE
8
BLACK
6
CONTINUOUS
10
130.653
20
-171.956
11
130.295
21
-173.028
0
LINE
8
BLACK
6
CONTINUOUS
10
130.295
20
-173.028
11
131.224
21
-173.028
0
LINE
8
BLACK
6
CONTINUOUS
10
131.795
20
-172.956
11
132.938
21
-172.956
0
LINE
8
BLACK
6
CONTINUOUS
10
134.224
20
-173.456
11
134.081
21
-173.528
0
LINE
8
BLACK
6
CONTINUOUS
10
134.081
20
-173.528
11
133.795
21
-173.528
0
LINE
8
BLACK
6
CONTINUOUS
10
133.795
20
-173.528
11
133.653
21
-173.456
0
LINE
8
BLACK
6
CONTINUOUS
10
133.653
20
-173.456
11
133.581
21
-173.313
0
LINE
8
BLACK
6
CONTINUOUS
10
133.581
20
-173.313
11
133.581
21
-172.742
0
LINE
8
BLACK
6
CONTINUOUS
10
133.581
20
-172.742
11
133.653
21
-172.599
0
LINE
8
BLACK
6
CONTINUOUS
10
133.653
20
-172.599
11
133.795
21
-172.528
0
LINE
8
BLACK
6
CONTINUOUS
10
133.795
20
-172.528
11
134.081
21
-172.528
0
LINE
8
BLACK
6
CONTINUOUS
10
134.081
20
-172.528
11
134.224
21
-172.599
0
LINE
8
BLACK
6
CONTINUOUS
10
134.224
20
-172.599
11
134.295
21
-172.742
0
LINE
8
BLACK
6
CONTINUOUS
10
134.295
20
-172.742
11
134.295
21
-172.885
0
LINE
8
BLACK
6
CONTINUOUS
10
134.295
20
-172.885
11
133.581
21
-173.028
0
LINE
8
BLACK
6
CONTINUOUS
10
135.581
20
-172.028
11
135.295
21
-172.028
0
LINE
8
BLACK
6
CONTINUOUS
10
135.295
20
-172.028
11
135.153
21
-172.099
0
LINE
8
BLACK
6
CONTINUOUS
10
135.153
20
-172.099
11
135.081
21
-172.171
0
LINE
8
BLACK
6
CONTINUOUS
10
135.081
20
-172.171
11
134.938
21
-172.385
0
LINE
8
BLACK
6
CONTINUOUS
10
134.938
20
-172.385
11
134.867
21
-172.671
0
LINE
8
BLACK
6
CONTINUOUS
10
134.867
20
-172.671
11
134.867
21
-173.242
0
LINE
8
BLACK
6
CONTINUOUS
10
134.867
20
-173.242
11
134.938
21
-173.385
0
LINE
8
BLACK
6
CONTINUOUS
10
134.938
20
-173.385
11
135.01
21
-173.456
0
LINE
8
BLACK
6
CONTINUOUS
10
135.01
20
-173.456
11
135.153
21
-173.528
0
LINE
8
BLACK
6
CONTINUOUS
10
135.153
20
-173.528
11
135.438
21
-173.528
0
LINE
8
BLACK
6
CONTINUOUS
10
135.438
20
-173.528
11
135.581
21
-173.456
0
LINE
8
BLACK
6
CONTINUOUS
10
135.581
20
-173.456
11
135.653
21
-173.385
0
LINE
8
BLACK
6
CONTINUOUS
10
135.653
20
-173.385
11
135.724
21
-173.242
0
LINE
8
BLACK
6
CONTINUOUS
10
135.724
20
-173.242
11
135.724
21
-172.885
0
LINE
8
BLACK
6
CONTINUOUS
10
135.724
20
-172.885
11
135.653
21
-172.742
0
LINE
8
BLACK
6
CONTINUOUS
10
135.653
20
-172.742
11
135.581
21
-172.671
0
LINE
8
BLACK
6
CONTINUOUS
10
135.581
20
-172.671
11
135.438
21
-172.599
0
LINE
8
BLACK
6
CONTINUOUS
10
135.438
20
-172.599
11
135.153
21
-172.599
0
LINE
8
BLACK
6
CONTINUOUS
10
135.153
20
-172.599
11
135.01
21
-172.671
0
LINE
8
BLACK
6
CONTINUOUS
10
135.01
20
-172.671
11
134.938
21
-172.742
0
LINE
8
BLACK
6
CONTINUOUS
10
134.938
20
-172.742
11
134.867
21
-172.885
0
LINE
8
BLACK
6
CONTINUOUS
10
136.653
20
-172.028
11
136.795
21
-172.028
0
LINE
8
BLACK
6
CONTINUOUS
10
136.795
20
-172.028
11
136.938
21
-172.099
0
LINE
8
BLACK
6
CONTINUOUS
10
136.938
20
-172.099
11
137.01
21
-172.171
0
LINE
8
BLACK
6
CONTINUOUS
10
137.01
20
-172.171
11
137.081
21
-172.313
0
LINE
8
BLACK
6
CONTINUOUS
10
137.081
20
-172.313
11
137.153
21
-172.599
0
LINE
8
BLACK
6
CONTINUOUS
10
137.153
20
-172.599
11
137.153
21
-172.956
0
LINE
8
BLACK
6
CONTINUOUS
10
137.153
20
-172.956
11
137.081
21
-173.242
0
LINE
8
BLACK
6
CONTINUOUS
10
137.081
20
-173.242
11
137.01
21
-173.385
0
LINE
8
BLACK
6
CONTINUOUS
10
137.01
20
-173.385
11
136.938
21
-173.456
0
LINE
8
BLACK
6
CONTINUOUS
10
136.938
20
-173.456
11
136.795
21
-173.528
0
LINE
8
BLACK
6
CONTINUOUS
10
136.795
20
-173.528
11
136.653
21
-173.528
0
LINE
8
BLACK
6
CONTINUOUS
10
136.653
20
-173.528
11
136.51
21
-173.456
0
LINE
8
BLACK
6
CONTINUOUS
10
136.51
20
-173.456
11
136.438
21
-173.385
0
LINE
8
BLACK
6
CONTINUOUS
10
136.438
20
-173.385
11
136.367
21
-173.242
0
LINE
8
BLACK
6
CONTINUOUS
10
136.367
20
-173.242
11
136.295
21
-172.956
0
LINE
8
BLACK
6
CONTINUOUS
10
136.295
20
-172.956
11
136.295
21
-172.599
0
LINE
8
BLACK
6
CONTINUOUS
10
136.295
20
-172.599
11
136.367
21
-172.313
0
LINE
8
BLACK
6
CONTINUOUS
10
136.367
20
-172.313
11
136.438
21
-172.171
0
LINE
8
BLACK
6
CONTINUOUS
10
136.438
20
-172.171
11
136.51
21
-172.099
0
LINE
8
BLACK
6
CONTINUOUS
10
136.51
20
-172.099
11
136.653
21
-172.028
0
LINE
8
BLACK
6
CONTINUOUS
10
137.795
20
-173.528
11
137.795
21
-172.028
0
LINE
8
BLACK
6
CONTINUOUS
10
137.795
20
-172.599
11
137.938
21
-172.528
0
LINE
8
BLACK
6
CONTINUOUS
10
137.938
20
-172.528
11
138.224
21
-172.528
0
LINE
8
BLACK
6
CONTINUOUS
10
138.224
20
-172.528
11
138.367
21
-172.599
0
LINE
8
BLACK
6
CONTINUOUS
10
138.367
20
-172.599
11
138.438
21
-172.671
0
LINE
8
BLACK
6
CONTINUOUS
10
138.438
20
-172.671
11
138.51
21
-172.813
0
LINE
8
BLACK
6
CONTINUOUS
10
138.51
20
-172.813
11
138.51
21
-173.242
0
LINE
8
BLACK
6
CONTINUOUS
10
138.51
20
-173.242
11
138.438
21
-173.385
0
LINE
8
BLACK
6
CONTINUOUS
10
138.438
20
-173.385
11
138.367
21
-173.456
0
LINE
8
BLACK
6
CONTINUOUS
10
138.367
20
-173.456
11
138.224
21
-173.528
0
LINE
8
BLACK
6
CONTINUOUS
10
138.224
20
-173.528
11
137.938
21
-173.528
0
LINE
8
BLACK
6
CONTINUOUS
10
137.938
20
-173.528
11
137.795
21
-173.456
0
LINE
8
BLACK
6
CONTINUOUS
10
139.081
20
-172.171
11
139.153
21
-172.099
0
LINE
8
BLACK
6
CONTINUOUS
10
139.153
20
-172.099
11
139.295
21
-172.028
0
LINE
8
BLACK
6
CONTINUOUS
10
139.295
20
-172.028
11
139.653
21
-172.028
0
LINE
8
BLACK
6
CONTINUOUS
10
139.653
20
-172.028
11
139.795
21
-172.099
0
LINE
8
BLACK
6
CONTINUOUS
10
139.795
20
-172.099
11
139.867
21
-172.171
0
LINE
8
BLACK
6
CONTINUOUS
10
139.867
20
-172.171
11
139.938
21
-172.313
0
LINE
8
BLACK
6
CONTINUOUS
10
139.938
20
-172.313
11
139.938
21
-172.456
0
LINE
8
BLACK
6
CONTINUOUS
10
139.938
20
-172.456
11
139.867
21
-172.671
0
LINE
8
BLACK
6
CONTINUOUS
10
139.867
20
-172.671
11
139.01
21
-173.528
0
LINE
8
BLACK
6
CONTINUOUS
10
139.01
20
-173.528
11
139.938
21
-173.528
0
LINE
8
BLACK
6
CONTINUOUS
10
141.224
20
-172.028
11
140.938
21
-172.028
0
LINE
8
BLACK
6
CONTINUOUS
10
140.938
20
-172.028
11
140.795
21
-172.099
0
LINE
8
BLACK
6
CONTINUOUS
10
140.795
20
-172.099
11
140.724
21
-172.171
0
LINE
8
BLACK
6
CONTINUOUS
10
140.724
20
-172.171
11
140.581
21
-172.385
0
LINE
8
BLACK
6
CONTINUOUS
10
140.581
20
-172.385
11
140.51
21
-172.671
0
LINE
8
BLACK
6
CONTINUOUS
10
140.51
20
-172.671
11
140.51
21
-173.242
0
LINE
8
BLACK
6
CONTINUOUS
10
140.51
20
-173.242
11
140.581
21
-173.385
0
LINE
8
BLACK
6
CONTINUOUS
10
140.581
20
-173.385
11
140.653
21
-173.456
0
LINE
8
BLACK
6
CONTINUOUS
10
140.653
20
-173.456
11
140.795
21
-173.528
0
LINE
8
BLACK
6
CONTINUOUS
10
140.795
20
-173.528
11
141.081
21
-173.528
0
LINE
8
BLACK
6
CONTINUOUS
10
141.081
20
-173.528
11
141.224
21
-173.456
0
LINE
8
BLACK
6
CONTINUOUS
10
141.224
20
-173.456
11
141.295
21
-173.385
0
LINE
8
BLACK
6
CONTINUOUS
10
141.295
20
-173.385
11
141.367
21
-173.242
0
LINE
8
BLACK
6
CONTINUOUS
10
141.367
20
-173.242
11
141.367
21
-172.885
0
LINE
8
BLACK
6
CONTINUOUS
10
141.367
20
-172.885
11
141.295
21
-172.742
0
LINE
8
BLACK
6
CONTINUOUS
10
141.295
20
-172.742
11
141.224
21
-172.671
0
LINE
8
BLACK
6
CONTINUOUS
10
141.224
20
-172.671
11
141.081
21
-172.599
0
LINE
8
BLACK
6
CONTINUOUS
10
141.081
20
-172.599
11
140.795
21
-172.599
0
LINE
8
BLACK
6
CONTINUOUS
10
140.795
20
-172.599
11
140.653
21
-172.671
0
LINE
8
BLACK
6
CONTINUOUS
10
140.653
20
-172.671
11
140.581
21
-172.742
0
LINE
8
BLACK
6
CONTINUOUS
10
140.581
20
-172.742
11
140.51
21
-172.885
0
LINE
8
BLACK
6
CONTINUOUS
10
142.653
20
-172.028
11
142.367
21
-172.028
0
LINE
8
BLACK
6
CONTINUOUS
10
142.367
20
-172.028
11
142.224
21
-172.099
0
LINE
8
BLACK
6
CONTINUOUS
10
142.224
20
-172.099
11
142.153
21
-172.171
0
LINE
8
BLACK
6
CONTINUOUS
10
142.153
20
-172.171
11
142.01
21
-172.385
0
LINE
8
BLACK
6
CONTINUOUS
10
142.01
20
-172.385
11
141.938
21
-172.671
0
LINE
8
BLACK
6
CONTINUOUS
10
141.938
20
-172.671
11
141.938
21
-173.242
0
LINE
8
BLACK
6
CONTINUOUS
10
141.938
20
-173.242
11
142.01
21
-173.385
0
LINE
8
BLACK
6
CONTINUOUS
10
142.01
20
-173.385
11
142.081
21
-173.456
0
LINE
8
BLACK
6
CONTINUOUS
10
142.081
20
-173.456
11
142.224
21
-173.528
0
LINE
8
BLACK
6
CONTINUOUS
10
142.224
20
-173.528
11
142.51
21
-173.528
0
LINE
8
BLACK
6
CONTINUOUS
10
142.51
20
-173.528
11
142.653
21
-173.456
0
LINE
8
BLACK
6
CONTINUOUS
10
142.653
20
-173.456
11
142.724
21
-173.385
0
LINE
8
BLACK
6
CONTINUOUS
10
142.724
20
-173.385
11
142.795
21
-173.242
0
LINE
8
BLACK
6
CONTINUOUS
10
142.795
20
-173.242
11
142.795
21
-172.885
0
LINE
8
BLACK
6
CONTINUOUS
10
142.795
20
-172.885
11
142.724
21
-172.742
0
LINE
8
BLACK
6
CONTINUOUS
10
142.724
20
-172.742
11
142.653
21
-172.671
0
LINE
8
BLACK
6
CONTINUOUS
10
142.653
20
-172.671
11
142.51
21
-172.599
0
LINE
8
BLACK
6
CONTINUOUS
10
142.51
20
-172.599
11
142.224
21
-172.599
0
LINE
8
BLACK
6
CONTINUOUS
10
142.224
20
-172.599
11
142.081
21
-172.671
0
LINE
8
BLACK
6
CONTINUOUS
10
142.081
20
-172.671
11
142.01
21
-172.742
0
LINE
8
BLACK
6
CONTINUOUS
10
142.01
20
-172.742
11
141.938
21
-172.885
0
LINE
8
BLACK
6
CONTINUOUS
10
143.081
20
-171.619
11
144.51
21
-171.619
0
LINE
8
BLACK
6
CONTINUOUS
10
143.653
20
-172.671
11
143.51
21
-172.599
0
LINE
8
BLACK
6
CONTINUOUS
10
143.51
20
-172.599
11
143.438
21
-172.528
0
LINE
8
BLACK
6
CONTINUOUS
10
143.438
20
-172.528
11
143.367
21
-172.385
0
LINE
8
BLACK
6
CONTINUOUS
10
143.367
20
-172.385
11
143.367
21
-172.313
0
LINE
8
BLACK
6
CONTINUOUS
10
143.367
20
-172.313
11
143.438
21
-172.171
0
LINE
8
BLACK
6
CONTINUOUS
10
143.438
20
-172.171
11
143.51
21
-172.099
0
LINE
8
BLACK
6
CONTINUOUS
10
143.51
20
-172.099
11
143.653
21
-172.028
0
LINE
8
BLACK
6
CONTINUOUS
10
143.653
20
-172.028
11
143.938
21
-172.028
0
LINE
8
BLACK
6
CONTINUOUS
10
143.938
20
-172.028
11
144.081
21
-172.099
0
LINE
8
BLACK
6
CONTINUOUS
10
144.081
20
-172.099
11
144.153
21
-172.171
0
LINE
8
BLACK
6
CONTINUOUS
10
144.153
20
-172.171
11
144.224
21
-172.313
0
LINE
8
BLACK
6
CONTINUOUS
10
144.224
20
-172.313
11
144.224
21
-172.385
0
LINE
8
BLACK
6
CONTINUOUS
10
144.224
20
-172.385
11
144.153
21
-172.528
0
LINE
8
BLACK
6
CONTINUOUS
10
144.153
20
-172.528
11
144.081
21
-172.599
0
LINE
8
BLACK
6
CONTINUOUS
10
144.081
20
-172.599
11
143.938
21
-172.671
0
LINE
8
BLACK
6
CONTINUOUS
10
143.938
20
-172.671
11
143.653
21
-172.671
0
LINE
8
BLACK
6
CONTINUOUS
10
143.653
20
-172.671
11
143.51
21
-172.742
0
LINE
8
BLACK
6
CONTINUOUS
10
143.51
20
-172.742
11
143.438
21
-172.813
0
LINE
8
BLACK
6
CONTINUOUS
10
143.438
20
-172.813
11
143.367
21
-172.956
0
LINE
8
BLACK
6
CONTINUOUS
10
143.367
20
-172.956
11
143.367
21
-173.242
0
LINE
8
BLACK
6
CONTINUOUS
10
143.367
20
-173.242
11
143.438
21
-173.385
0
LINE
8
BLACK
6
CONTINUOUS
10
143.438
20
-173.385
11
143.51
21
-173.456
0
LINE
8
BLACK
6
CONTINUOUS
10
143.51
20
-173.456
11
143.653
21
-173.528
0
LINE
8
BLACK
6
CONTINUOUS
10
143.653
20
-173.528
11
143.938
21
-173.528
0
LINE
8
BLACK
6
CONTINUOUS
10
143.938
20
-173.528
11
144.081
21
-173.456
0
LINE
8
BLACK
6
CONTINUOUS
10
144.081
20
-173.456
11
144.153
21
-173.385
0
LINE
8
BLACK
6
CONTINUOUS
10
144.153
20
-173.385
11
144.224
21
-173.242
0
LINE
8
BLACK
6
CONTINUOUS
10
144.224
20
-173.242
11
144.224
21
-172.956
0
LINE
8
BLACK
6
CONTINUOUS
10
144.224
20
-172.956
11
144.153
21
-172.813
0
LINE
8
BLACK
6
CONTINUOUS
10
144.153
20
-172.813
11
144.081
21
-172.742
0
LINE
8
BLACK
6
CONTINUOUS
10
144.081
20
-172.742
11
143.938
21
-172.671
0
LINE
8
BLACK
6
CONTINUOUS
10
144.51
20
-171.619
11
145.938
21
-171.619
0
LINE
8
BLACK
6
CONTINUOUS
10
145.51
20
-172.528
11
145.51
21
-173.528
0
LINE
8
BLACK
6
CONTINUOUS
10
145.153
20
-171.956
11
144.795
21
-173.028
0
LINE
8
BLACK
6
CONTINUOUS
10
144.795
20
-173.028
11
145.724
21
-173.028
0
LINE
8
BLACK
6
CONTINUOUS
10
146.938
20
-172.528
11
146.938
21
-173.528
0
LINE
8
BLACK
6
CONTINUOUS
10
146.295
20
-172.528
11
146.295
21
-173.313
0
LINE
8
BLACK
6
CONTINUOUS
10
146.295
20
-173.313
11
146.367
21
-173.456
0
LINE
8
BLACK
6
CONTINUOUS
10
146.367
20
-173.456
11
146.51
21
-173.528
0
LINE
8
BLACK
6
CONTINUOUS
10
146.51
20
-173.528
11
146.724
21
-173.528
0
LINE
8
BLACK
6
CONTINUOUS
10
146.724
20
-173.528
11
146.867
21
-173.456
0
LINE
8
BLACK
6
CONTINUOUS
10
146.867
20
-173.456
11
146.938
21
-173.385
0
LINE
8
BLACK
6
CONTINUOUS
10
147.653
20
-173.528
11
147.653
21
-172.028
0
LINE
8
BLACK
6
CONTINUOUS
10
147.653
20
-172.599
11
147.795
21
-172.528
0
LINE
8
BLACK
6
CONTINUOUS
10
147.795
20
-172.528
11
148.081
21
-172.528
0
LINE
8
BLACK
6
CONTINUOUS
10
148.081
20
-172.528
11
148.224
21
-172.599
0
LINE
8
BLACK
6
CONTINUOUS
10
148.224
20
-172.599
11
148.295
21
-172.671
0
LINE
8
BLACK
6
CONTINUOUS
10
148.295
20
-172.671
11
148.367
21
-172.813
0
LINE
8
BLACK
6
CONTINUOUS
10
148.367
20
-172.813
11
148.367
21
-173.242
0
LINE
8
BLACK
6
CONTINUOUS
10
148.367
20
-173.242
11
148.295
21
-173.385
0
LINE
8
BLACK
6
CONTINUOUS
10
148.295
20
-173.385
11
148.224
21
-173.456
0
LINE
8
BLACK
6
CONTINUOUS
10
148.224
20
-173.456
11
148.081
21
-173.528
0
LINE
8
BLACK
6
CONTINUOUS
10
148.081
20
-173.528
11
147.795
21
-173.528
0
LINE
8
BLACK
6
CONTINUOUS
10
147.795
20
-173.528
11
147.653
21
-173.456
0
LINE
8
BLACK
6
CONTINUOUS
10
149.653
20
-172.528
11
149.653
21
-173.528
0
LINE
8
BLACK
6
CONTINUOUS
10
149.01
20
-172.528
11
149.01
21
-173.313
0
LINE
8
BLACK
6
CONTINUOUS
10
149.01
20
-173.313
11
149.081
21
-173.456
0
LINE
8
BLACK
6
CONTINUOUS
10
149.081
20
-173.456
11
149.224
21
-173.528
0
LINE
8
BLACK
6
CONTINUOUS
10
149.224
20
-173.528
11
149.438
21
-173.528
0
LINE
8
BLACK
6
CONTINUOUS
10
149.438
20
-173.528
11
149.581
21
-173.456
0
LINE
8
BLACK
6
CONTINUOUS
10
149.581
20
-173.456
11
149.653
21
-173.385
0
LINE
8
BLACK
6
CONTINUOUS
10
150.367
20
-172.528
11
150.367
21
-173.528
0
LINE
8
BLACK
6
CONTINUOUS
10
150.367
20
-172.671
11
150.438
21
-172.599
0
LINE
8
BLACK
6
CONTINUOUS
10
150.438
20
-172.599
11
150.581
21
-172.528
0
LINE
8
BLACK
6
CONTINUOUS
10
150.581
20
-172.528
11
150.795
21
-172.528
0
LINE
8
BLACK
6
CONTINUOUS
10
150.795
20
-172.528
11
150.938
21
-172.599
0
LINE
8
BLACK
6
CONTINUOUS
10
150.938
20
-172.599
11
151.01
21
-172.742
0
LINE
8
BLACK
6
CONTINUOUS
10
151.01
20
-172.742
11
151.01
21
-173.528
0
LINE
8
BLACK
6
CONTINUOUS
10
151.51
20
-172.528
11
152.081
21
-172.528
0
LINE
8
BLACK
6
CONTINUOUS
10
151.724
20
-172.028
11
151.724
21
-173.313
0
LINE
8
BLACK
6
CONTINUOUS
10
151.724
20
-173.313
11
151.795
21
-173.456
0
LINE
8
BLACK
6
CONTINUOUS
10
151.795
20
-173.456
11
151.938
21
-173.528
0
LINE
8
BLACK
6
CONTINUOUS
10
151.938
20
-173.528
11
152.081
21
-173.528
0
LINE
8
BLACK
6
CONTINUOUS
10
153.224
20
-172.528
11
153.224
21
-173.528
0
LINE
8
BLACK
6
CONTINUOUS
10
152.581
20
-172.528
11
152.581
21
-173.313
0
LINE
8
BLACK
6
CONTINUOUS
10
152.581
20
-173.313
11
152.653
21
-173.456
0
LINE
8
BLACK
6
CONTINUOUS
10
152.653
20
-173.456
11
152.795
21
-173.528
0
LINE
8
BLACK
6
CONTINUOUS
10
152.795
20
-173.528
11
153.01
21
-173.528
0
LINE
8
BLACK
6
CONTINUOUS
10
153.01
20
-173.528
11
153.153
21
-173.456
0
LINE
8
BLACK
6
CONTINUOUS
10
153.153
20
-173.456
11
153.224
21
-173.385
0
LINE
8
BLACK
6
CONTINUOUS
10
154.724
20
-173.528
11
153.867
21
-173.528
0
LINE
8
BLACK
6
CONTINUOUS
10
154.295
20
-173.528
11
154.295
21
-172.028
0
LINE
8
BLACK
6
CONTINUOUS
10
154.295
20
-172.028
11
154.153
21
-172.242
0
LINE
8
BLACK
6
CONTINUOUS
10
154.153
20
-172.242
11
154.01
21
-172.385
0
LINE
8
BLACK
6
CONTINUOUS
10
154.01
20
-172.385
11
153.867
21
-172.456
0
LINE
8
BLACK
6
CONTINUOUS
10
155.581
20
-172.671
11
155.438
21
-172.599
0
LINE
8
BLACK
6
CONTINUOUS
10
155.438
20
-172.599
11
155.367
21
-172.528
0
LINE
8
BLACK
6
CONTINUOUS
10
155.367
20
-172.528
11
155.295
21
-172.385
0
LINE
8
BLACK
6
CONTINUOUS
10
155.295
20
-172.385
11
155.295
21
-172.313
0
LINE
8
BLACK
6
CONTINUOUS
10
155.295
20
-172.313
11
155.367
21
-172.171
0
LINE
8
BLACK
6
CONTINUOUS
10
155.367
20
-172.171
11
155.438
21
-172.099
0
LINE
8
BLACK
6
CONTINUOUS
10
155.438
20
-172.099
11
155.581
21
-172.028
0
LINE
8
BLACK
6
CONTINUOUS
10
155.581
20
-172.028
11
155.867
21
-172.028
0
LINE
8
BLACK
6
CONTINUOUS
10
155.867
20
-172.028
11
156.01
21
-172.099
0
LINE
8
BLACK
6
CONTINUOUS
10
156.01
20
-172.099
11
156.081
21
-172.171
0
LINE
8
BLACK
6
CONTINUOUS
10
156.081
20
-172.171
11
156.153
21
-172.313
0
LINE
8
BLACK
6
CONTINUOUS
10
156.153
20
-172.313
11
156.153
21
-172.385
0
LINE
8
BLACK
6
CONTINUOUS
10
156.153
20
-172.385
11
156.081
21
-172.528
0
LINE
8
BLACK
6
CONTINUOUS
10
156.081
20
-172.528
11
156.01
21
-172.599
0
LINE
8
BLACK
6
CONTINUOUS
10
156.01
20
-172.599
11
155.867
21
-172.671
0
LINE
8
BLACK
6
CONTINUOUS
10
155.867
20
-172.671
11
155.581
21
-172.671
0
LINE
8
BLACK
6
CONTINUOUS
10
155.581
20
-172.671
11
155.438
21
-172.742
0
LINE
8
BLACK
6
CONTINUOUS
10
155.438
20
-172.742
11
155.367
21
-172.813
0
LINE
8
BLACK
6
CONTINUOUS
10
155.367
20
-172.813
11
155.295
21
-172.956
0
LINE
8
BLACK
6
CONTINUOUS
10
155.295
20
-172.956
11
155.295
21
-173.242
0
LINE
8
BLACK
6
CONTINUOUS
10
155.295
20
-173.242
11
155.367
21
-173.385
0
LINE
8
BLACK
6
CONTINUOUS
10
155.367
20
-173.385
11
155.438
21
-173.456
0
LINE
8
BLACK
6
CONTINUOUS
10
155.438
20
-173.456
11
155.581
21
-173.528
0
LINE
8
BLACK
6
CONTINUOUS
10
155.581
20
-173.528
11
155.867
21
-173.528
0
LINE
8
BLACK
6
CONTINUOUS
10
155.867
20
-173.528
11
156.01
21
-173.456
0
LINE
8
BLACK
6
CONTINUOUS
10
156.01
20
-173.456
11
156.081
21
-173.385
0
LINE
8
BLACK
6
CONTINUOUS
10
156.081
20
-173.385
11
156.153
21
-173.242
0
LINE
8
BLACK
6
CONTINUOUS
10
156.153
20
-173.242
11
156.153
21
-172.956
0
LINE
8
BLACK
6
CONTINUOUS
10
156.153
20
-172.956
11
156.081
21
-172.813
0
LINE
8
BLACK
6
CONTINUOUS
10
156.081
20
-172.813
11
156.01
21
-172.742
0
LINE
8
BLACK
6
CONTINUOUS
10
156.01
20
-172.742
11
155.867
21
-172.671
0
LINE
8
BLACK
6
CONTINUOUS
10
156.795
20
-173.385
11
156.867
21
-173.456
0
LINE
8
BLACK
6
CONTINUOUS
10
156.867
20
-173.456
11
156.795
21
-173.528
0
LINE
8
BLACK
6
CONTINUOUS
10
156.795
20
-173.528
11
156.724
21
-173.456
0
LINE
8
BLACK
6
CONTINUOUS
10
156.724
20
-173.456
11
156.795
21
-173.385
0
LINE
8
BLACK
6
CONTINUOUS
10
156.795
20
-173.385
11
156.795
21
-173.528
0
LINE
8
BLACK
6
CONTINUOUS
10
157.795
20
-172.028
11
157.938
21
-172.028
0
LINE
8
BLACK
6
CONTINUOUS
10
157.938
20
-172.028
11
158.081
21
-172.099
0
LINE
8
BLACK
6
CONTINUOUS
10
158.081
20
-172.099
11
158.153
21
-172.171
0
LINE
8
BLACK
6
CONTINUOUS
10
158.153
20
-172.171
11
158.224
21
-172.313
0
LINE
8
BLACK
6
CONTINUOUS
10
158.224
20
-172.313
11
158.295
21
-172.599
0
LINE
8
BLACK
6
CONTINUOUS
10
158.295
20
-172.599
11
158.295
21
-172.956
0
LINE
8
BLACK
6
CONTINUOUS
10
158.295
20
-172.956
11
158.224
21
-173.242
0
LINE
8
BLACK
6
CONTINUOUS
10
158.224
20
-173.242
11
158.153
21
-173.385
0
LINE
8
BLACK
6
CONTINUOUS
10
158.153
20
-173.385
11
158.081
21
-173.456
0
LINE
8
BLACK
6
CONTINUOUS
10
158.081
20
-173.456
11
157.938
21
-173.528
0
LINE
8
BLACK
6
CONTINUOUS
10
157.938
20
-173.528
11
157.795
21
-173.528
0
LINE
8
BLACK
6
CONTINUOUS
10
157.795
20
-173.528
11
157.653
21
-173.456
0
LINE
8
BLACK
6
CONTINUOUS
10
157.653
20
-173.456
11
157.581
21
-173.385
0
LINE
8
BLACK
6
CONTINUOUS
10
157.581
20
-173.385
11
157.51
21
-173.242
0
LINE
8
BLACK
6
CONTINUOUS
10
157.51
20
-173.242
11
157.438
21
-172.956
0
LINE
8
BLACK
6
CONTINUOUS
10
157.438
20
-172.956
11
157.438
21
-172.599
0
LINE
8
BLACK
6
CONTINUOUS
10
157.438
20
-172.599
11
157.51
21
-172.313
0
LINE
8
BLACK
6
CONTINUOUS
10
157.51
20
-172.313
11
157.581
21
-172.171
0
LINE
8
BLACK
6
CONTINUOUS
10
157.581
20
-172.171
11
157.653
21
-172.099
0
LINE
8
BLACK
6
CONTINUOUS
10
157.653
20
-172.099
11
157.795
21
-172.028
0
LINE
8
BLACK
6
CONTINUOUS
10
159.581
20
-172.528
11
159.581
21
-173.528
0
LINE
8
BLACK
6
CONTINUOUS
10
159.224
20
-171.956
11
158.867
21
-173.028
0
LINE
8
BLACK
6
CONTINUOUS
10
158.867
20
-173.028
11
159.795
21
-173.028
0
LINE
8
BLACK
6
CONTINUOUS
10
160.367
20
-173.385
11
160.438
21
-173.456
0
LINE
8
BLACK
6
CONTINUOUS
10
160.438
20
-173.456
11
160.367
21
-173.528
0
LINE
8
BLACK
6
CONTINUOUS
10
160.367
20
-173.528
11
160.295
21
-173.456
0
LINE
8
BLACK
6
CONTINUOUS
10
160.295
20
-173.456
11
160.367
21
-173.385
0
LINE
8
BLACK
6
CONTINUOUS
10
160.367
20
-173.385
11
160.367
21
-173.528
0
LINE
8
BLACK
6
CONTINUOUS
10
161.867
20
-173.528
11
161.01
21
-173.528
0
LINE
8
BLACK
6
CONTINUOUS
10
161.438
20
-173.528
11
161.438
21
-172.028
0
LINE
8
BLACK
6
CONTINUOUS
10
161.438
20
-172.028
11
161.295
21
-172.242
0
LINE
8
BLACK
6
CONTINUOUS
10
161.295
20
-172.242
11
161.153
21
-172.385
0
LINE
8
BLACK
6
CONTINUOUS
10
161.153
20
-172.385
11
161.01
21
-172.456
0
LINE
8
BLACK
6
CONTINUOUS
10
101.435
20
-168.449
11
209.435
21
-168.449
0
LINE
8
BLACK
6
CONTINUOUS
10
188.844
20
-170.728
11
188.344
21
-170.013
0
LINE
8
BLACK
6
CONTINUOUS
10
187.987
20
-170.728
11
187.987
21
-169.228
0
LINE
8
BLACK
6
CONTINUOUS
10
187.987
20
-169.228
11
188.558
21
-169.228
0
LINE
8
BLACK
6
CONTINUOUS
10
188.558
20
-169.228
11
188.701
21
-169.299
0
LINE
8
BLACK
6
CONTINUOUS
10
188.701
20
-169.299
11
188.773
21
-169.371
0
LINE
8
BLACK
6
CONTINUOUS
10
188.773
20
-169.371
11
188.844
21
-169.513
0
LINE
8
BLACK
6
CONTINUOUS
10
188.844
20
-169.513
11
188.844
21
-169.728
0
LINE
8
BLACK
6
CONTINUOUS
10
188.844
20
-169.728
11
188.773
21
-169.871
0
LINE
8
BLACK
6
CONTINUOUS
10
188.773
20
-169.871
11
188.701
21
-169.942
0
LINE
8
BLACK
6
CONTINUOUS
10
188.701
20
-169.942
11
188.558
21
-170.013
0
LINE
8
BLACK
6
CONTINUOUS
10
188.558
20
-170.013
11
187.987
21
-170.013
0
LINE
8
BLACK
6
CONTINUOUS
10
190.058
20
-170.656
11
189.915
21
-170.728
0
LINE
8
BLACK
6
CONTINUOUS
10
189.915
20
-170.728
11
189.63
21
-170.728
0
LINE
8
BLACK
6
CONTINUOUS
10
189.63
20
-170.728
11
189.487
21
-170.656
0
LINE
8
BLACK
6
CONTINUOUS
10
189.487
20
-170.656
11
189.415
21
-170.513
0
LINE
8
BLACK
6
CONTINUOUS
10
189.415
20
-170.513
11
189.415
21
-169.942
0
LINE
8
BLACK
6
CONTINUOUS
10
189.415
20
-169.942
11
189.487
21
-169.799
0
LINE
8
BLACK
6
CONTINUOUS
10
189.487
20
-169.799
11
189.63
21
-169.728
0
LINE
8
BLACK
6
CONTINUOUS
10
189.63
20
-169.728
11
189.915
21
-169.728
0
LINE
8
BLACK
6
CONTINUOUS
10
189.915
20
-169.728
11
190.058
21
-169.799
0
LINE
8
BLACK
6
CONTINUOUS
10
190.058
20
-169.799
11
190.13
21
-169.942
0
LINE
8
BLACK
6
CONTINUOUS
10
190.13
20
-169.942
11
190.13
21
-170.085
0
LINE
8
BLACK
6
CONTINUOUS
10
190.13
20
-170.085
11
189.415
21
-170.228
0
LINE
8
BLACK
6
CONTINUOUS
10
190.63
20
-169.728
11
190.987
21
-170.728
0
LINE
8
BLACK
6
CONTINUOUS
10
190.987
20
-170.728
11
191.344
21
-169.728
0
LINE
8
BLACK
6
CONTINUOUS
10
191.915
20
-170.585
11
191.987
21
-170.656
0
LINE
8
BLACK
6
CONTINUOUS
10
191.987
20
-170.656
11
191.915
21
-170.728
0
LINE
8
BLACK
6
CONTINUOUS
10
191.915
20
-170.728
11
191.844
21
-170.656
0
LINE
8
BLACK
6
CONTINUOUS
10
191.844
20
-170.656
11
191.915
21
-170.585
0
LINE
8
BLACK
6
CONTINUOUS
10
191.915
20
-170.585
11
191.915
21
-170.728
0
LINE
8
BLACK
6
CONTINUOUS
10
191.915
20
-169.799
11
191.987
21
-169.871
0
LINE
8
BLACK
6
CONTINUOUS
10
191.987
20
-169.871
11
191.915
21
-169.942
0
LINE
8
BLACK
6
CONTINUOUS
10
191.915
20
-169.942
11
191.844
21
-169.871
0
LINE
8
BLACK
6
CONTINUOUS
10
191.844
20
-169.871
11
191.915
21
-169.799
0
LINE
8
BLACK
6
CONTINUOUS
10
191.915
20
-169.799
11
191.915
21
-169.942
0
LINE
8
BLACK
6
CONTINUOUS
10
102.795
20
-170.656
11
103.01
21
-170.728
0
LINE
8
BLACK
6
CONTINUOUS
10
103.01
20
-170.728
11
103.367
21
-170.728
0
LINE
8
BLACK
6
CONTINUOUS
10
103.367
20
-170.728
11
103.51
21
-170.656
0
LINE
8
BLACK
6
CONTINUOUS
10
103.51
20
-170.656
11
103.581
21
-170.585
0
LINE
8
BLACK
6
CONTINUOUS
10
103.581
20
-170.585
11
103.653
21
-170.442
0
LINE
8
BLACK
6
CONTINUOUS
10
103.653
20
-170.442
11
103.653
21
-170.299
0
LINE
8
BLACK
6
CONTINUOUS
10
103.653
20
-170.299
11
103.581
21
-170.156
0
LINE
8
BLACK
6
CONTINUOUS
10
103.581
20
-170.156
11
103.51
21
-170.085
0
LINE
8
BLACK
6
CONTINUOUS
10
103.51
20
-170.085
11
103.367
21
-170.013
0
LINE
8
BLACK
6
CONTINUOUS
10
103.367
20
-170.013
11
103.081
21
-169.942
0
LINE
8
BLACK
6
CONTINUOUS
10
103.081
20
-169.942
11
102.938
21
-169.871
0
LINE
8
BLACK
6
CONTINUOUS
10
102.938
20
-169.871
11
102.867
21
-169.799
0
LINE
8
BLACK
6
CONTINUOUS
10
102.867
20
-169.799
11
102.795
21
-169.656
0
LINE
8
BLACK
6
CONTINUOUS
10
102.795
20
-169.656
11
102.795
21
-169.513
0
LINE
8
BLACK
6
CONTINUOUS
10
102.795
20
-169.513
11
102.867
21
-169.371
0
LINE
8
BLACK
6
CONTINUOUS
10
102.867
20
-169.371
11
102.938
21
-169.299
0
LINE
8
BLACK
6
CONTINUOUS
10
102.938
20
-169.299
11
103.081
21
-169.228
0
LINE
8
BLACK
6
CONTINUOUS
10
103.081
20
-169.228
11
103.438
21
-169.228
0
LINE
8
BLACK
6
CONTINUOUS
10
103.438
20
-169.228
11
103.653
21
-169.299
0
LINE
8
BLACK
6
CONTINUOUS
10
104.295
20
-170.728
11
104.295
21
-169.728
0
LINE
8
BLACK
6
CONTINUOUS
10
104.295
20
-169.228
11
104.224
21
-169.299
0
LINE
8
BLACK
6
CONTINUOUS
10
104.224
20
-169.299
11
104.295
21
-169.371
0
LINE
8
BLACK
6
CONTINUOUS
10
104.295
20
-169.371
11
104.367
21
-169.299
0
LINE
8
BLACK
6
CONTINUOUS
10
104.367
20
-169.299
11
104.295
21
-169.228
0
LINE
8
BLACK
6
CONTINUOUS
10
104.295
20
-169.228
11
104.295
21
-169.371
0
LINE
8
BLACK
6
CONTINUOUS
10
104.867
20
-169.728
11
105.653
21
-169.728
0
LINE
8
BLACK
6
CONTINUOUS
10
105.653
20
-169.728
11
104.867
21
-170.728
0
LINE
8
BLACK
6
CONTINUOUS
10
104.867
20
-170.728
11
105.653
21
-170.728
0
LINE
8
BLACK
6
CONTINUOUS
10
106.795
20
-170.656
11
106.653
21
-170.728
0
LINE
8
BLACK
6
CONTINUOUS
10
106.653
20
-170.728
11
106.367
21
-170.728
0
LINE
8
BLACK
6
CONTINUOUS
10
106.367
20
-170.728
11
106.224
21
-170.656
0
LINE
8
BLACK
6
CONTINUOUS
10
106.224
20
-170.656
11
106.153
21
-170.513
0
LINE
8
BLACK
6
CONTINUOUS
10
106.153
20
-170.513
11
106.153
21
-169.942
0
LINE
8
BLACK
6
CONTINUOUS
10
106.153
20
-169.942
11
106.224
21
-169.799
0
LINE
8
BLACK
6
CONTINUOUS
10
106.224
20
-169.799
11
106.367
21
-169.728
0
LINE
8
BLACK
6
CONTINUOUS
10
106.367
20
-169.728
11
106.653
21
-169.728
0
LINE
8
BLACK
6
CONTINUOUS
10
106.653
20
-169.728
11
106.795
21
-169.799
0
LINE
8
BLACK
6
CONTINUOUS
10
106.795
20
-169.799
11
106.867
21
-169.942
0
LINE
8
BLACK
6
CONTINUOUS
10
106.867
20
-169.942
11
106.867
21
-170.085
0
LINE
8
BLACK
6
CONTINUOUS
10
106.867
20
-170.085
11
106.153
21
-170.228
0
LINE
8
BLACK
6
CONTINUOUS
10
107.51
20
-170.585
11
107.581
21
-170.656
0
LINE
8
BLACK
6
CONTINUOUS
10
107.581
20
-170.656
11
107.51
21
-170.728
0
LINE
8
BLACK
6
CONTINUOUS
10
107.51
20
-170.728
11
107.438
21
-170.656
0
LINE
8
BLACK
6
CONTINUOUS
10
107.438
20
-170.656
11
107.51
21
-170.585
0
LINE
8
BLACK
6
CONTINUOUS
10
107.51
20
-170.585
11
107.51
21
-170.728
0
LINE
8
BLACK
6
CONTINUOUS
10
107.51
20
-169.799
11
107.581
21
-169.871
0
LINE
8
BLACK
6
CONTINUOUS
10
107.581
20
-169.871
11
107.51
21
-169.942
0
LINE
8
BLACK
6
CONTINUOUS
10
107.51
20
-169.942
11
107.438
21
-169.871
0
LINE
8
BLACK
6
CONTINUOUS
10
107.438
20
-169.871
11
107.51
21
-169.799
0
LINE
8
BLACK
6
CONTINUOUS
10
107.51
20
-169.799
11
107.51
21
-169.942
0
LINE
8
BLACK
6
CONTINUOUS
10
109.295
20
-170.299
11
110.01
21
-170.299
0
LINE
8
BLACK
6
CONTINUOUS
10
109.153
20
-170.728
11
109.653
21
-169.228
0
LINE
8
BLACK
6
CONTINUOUS
10
109.653
20
-169.228
11
110.153
21
-170.728
0
LINE
8
BLACK
6
CONTINUOUS
10
111.295
20
-169.728
11
111.295
21
-170.728
0
LINE
8
BLACK
6
CONTINUOUS
10
110.938
20
-169.156
11
110.581
21
-170.228
0
LINE
8
BLACK
6
CONTINUOUS
10
110.581
20
-170.228
11
111.51
21
-170.228
0
LINE
8
BLACK
6
CONTINUOUS
10
187.867
20
-173.528
11
187.867
21
-172.028
0
LINE
8
BLACK
6
CONTINUOUS
10
189.224
20
-173.528
11
189.224
21
-172.028
0
LINE
8
BLACK
6
CONTINUOUS
10
189.224
20
-173.456
11
189.081
21
-173.528
0
LINE
8
BLACK
6
CONTINUOUS
10
189.081
20
-173.528
11
188.795
21
-173.528
0
LINE
8
BLACK
6
CONTINUOUS
10
188.795
20
-173.528
11
188.653
21
-173.456
0
LINE
8
BLACK
6
CONTINUOUS
10
188.653
20
-173.456
11
188.581
21
-173.385
0
LINE
8
BLACK
6
CONTINUOUS
10
188.581
20
-173.385
11
188.51
21
-173.242
0
LINE
8
BLACK
6
CONTINUOUS
10
188.51
20
-173.242
11
188.51
21
-172.813
0
LINE
8
BLACK
6
CONTINUOUS
10
188.51
20
-172.813
11
188.581
21
-172.671
0
LINE
8
BLACK
6
CONTINUOUS
10
188.581
20
-172.671
11
188.653
21
-172.599
0
LINE
8
BLACK
6
CONTINUOUS
10
188.653
20
-172.599
11
188.795
21
-172.528
0
LINE
8
BLACK
6
CONTINUOUS
10
188.795
20
-172.528
11
189.081
21
-172.528
0
LINE
8
BLACK
6
CONTINUOUS
10
189.081
20
-172.528
11
189.224
21
-172.599
0
LINE
8
BLACK
6
CONTINUOUS
10
189.938
20
-173.385
11
190.01
21
-173.456
0
LINE
8
BLACK
6
CONTINUOUS
10
190.01
20
-173.456
11
189.938
21
-173.528
0
LINE
8
BLACK
6
CONTINUOUS
10
189.938
20
-173.528
11
189.867
21
-173.456
0
LINE
8
BLACK
6
CONTINUOUS
10
189.867
20
-173.456
11
189.938
21
-173.385
0
LINE
8
BLACK
6
CONTINUOUS
10
189.938
20
-173.385
11
189.938
21
-173.528
0
LINE
8
BLACK
6
CONTINUOUS
10
189.938
20
-172.599
11
190.01
21
-172.671
0
LINE
8
BLACK
6
CONTINUOUS
10
190.01
20
-172.671
11
189.938
21
-172.742
0
LINE
8
BLACK
6
CONTINUOUS
10
189.938
20
-172.742
11
189.867
21
-172.671
0
LINE
8
BLACK
6
CONTINUOUS
10
189.867
20
-172.671
11
189.938
21
-172.599
0
LINE
8
BLACK
6
CONTINUOUS
10
189.938
20
-172.599
11
189.938
21
-172.742
0
LINE
8
BLACK
6
CONTINUOUS
10
192.581
20
-173.528
11
191.724
21
-173.528
0
LINE
8
BLACK
6
CONTINUOUS
10
192.153
20
-173.528
11
192.153
21
-172.028
0
LINE
8
BLACK
6
CONTINUOUS
10
192.153
20
-172.028
11
192.01
21
-172.242
0
LINE
8
BLACK
6
CONTINUOUS
10
192.01
20
-172.242
11
191.867
21
-172.385
0
LINE
8
BLACK
6
CONTINUOUS
10
191.867
20
-172.385
11
191.724
21
-172.456
0
LINE
8
BLACK
6
CONTINUOUS
10
194.295
20
-171.956
11
193.01
21
-173.885
0
LINE
8
BLACK
6
CONTINUOUS
10
195.581
20
-173.528
11
194.724
21
-173.528
0
LINE
8
BLACK
6
CONTINUOUS
10
195.153
20
-173.528
11
195.153
21
-172.028
0
LINE
8
BLACK
6
CONTINUOUS
10
195.153
20
-172.028
11
195.01
21
-172.242
0
LINE
8
BLACK
6
CONTINUOUS
10
195.01
20
-172.242
11
194.867
21
-172.385
0
LINE
8
BLACK
6
CONTINUOUS
10
194.867
20
-172.385
11
194.724
21
-172.456
0
LINE
8
BLACK
6
CONTINUOUS
10
101.435
20
-164.449
11
209.435
21
-164.449
0
LINE
8
BLACK
6
CONTINUOUS
10
103.147
20
-165.154
11
104.29
21
-165.154
0
LINE
8
BLACK
6
CONTINUOUS
10
103.468
20
-167.154
11
103.718
21
-165.154
0
LINE
8
BLACK
6
CONTINUOUS
10
104.707
20
-167.154
11
104.873
21
-165.821
0
LINE
8
BLACK
6
CONTINUOUS
10
104.957
20
-165.154
11
104.849
21
-165.249
0
LINE
8
BLACK
6
CONTINUOUS
10
104.849
20
-165.249
11
104.933
21
-165.344
0
LINE
8
BLACK
6
CONTINUOUS
10
104.933
20
-165.344
11
105.04
21
-165.249
0
LINE
8
BLACK
6
CONTINUOUS
10
105.04
20
-165.249
11
104.957
21
-165.154
0
LINE
8
BLACK
6
CONTINUOUS
10
104.957
20
-165.154
11
104.933
21
-165.344
0
LINE
8
BLACK
6
CONTINUOUS
10
105.54
20
-165.821
11
106.302
21
-165.821
0
LINE
8
BLACK
6
CONTINUOUS
10
105.909
20
-165.154
11
105.695
21
-166.868
0
LINE
8
BLACK
6
CONTINUOUS
10
105.695
20
-166.868
11
105.766
21
-167.059
0
LINE
8
BLACK
6
CONTINUOUS
10
105.766
20
-167.059
11
105.945
21
-167.154
0
LINE
8
BLACK
6
CONTINUOUS
10
105.945
20
-167.154
11
106.135
21
-167.154
0
LINE
8
BLACK
6
CONTINUOUS
10
107.088
20
-167.154
11
106.909
21
-167.059
0
LINE
8
BLACK
6
CONTINUOUS
10
106.909
20
-167.059
11
106.838
21
-166.868
0
LINE
8
BLACK
6
CONTINUOUS
10
106.838
20
-166.868
11
107.052
21
-165.154
0
LINE
8
BLACK
6
CONTINUOUS
10
108.623
20
-167.059
11
108.421
21
-167.154
0
LINE
8
BLACK
6
CONTINUOUS
10
108.421
20
-167.154
11
108.04
21
-167.154
0
LINE
8
BLACK
6
CONTINUOUS
10
108.04
20
-167.154
11
107.861
21
-167.059
0
LINE
8
BLACK
6
CONTINUOUS
10
107.861
20
-167.059
11
107.79
21
-166.868
0
LINE
8
BLACK
6
CONTINUOUS
10
107.79
20
-166.868
11
107.885
21
-166.106
0
LINE
8
BLACK
6
CONTINUOUS
10
107.885
20
-166.106
11
108.004
21
-165.916
0
LINE
8
BLACK
6
CONTINUOUS
10
108.004
20
-165.916
11
108.207
21
-165.821
0
LINE
8
BLACK
6
CONTINUOUS
10
108.207
20
-165.821
11
108.588
21
-165.821
0
LINE
8
BLACK
6
CONTINUOUS
10
108.588
20
-165.821
11
108.766
21
-165.916
0
LINE
8
BLACK
6
CONTINUOUS
10
108.766
20
-165.916
11
108.838
21
-166.106
0
LINE
8
BLACK
6
CONTINUOUS
10
108.838
20
-166.106
11
108.814
21
-166.297
0
LINE
8
BLACK
6
CONTINUOUS
10
108.814
20
-166.297
11
107.838
21
-166.487
0
LINE
8
BLACK
6
CONTINUOUS
10
109.588
20
-166.963
11
109.671
21
-167.059
0
LINE
8
BLACK
6
CONTINUOUS
10
109.671
20
-167.059
11
109.564
21
-167.154
0
LINE
8
BLACK
6
CONTINUOUS
10
109.564
20
-167.154
11
109.48
21
-167.059
0
LINE
8
BLACK
6
CONTINUOUS
10
109.48
20
-167.059
11
109.588
21
-166.963
0
LINE
8
BLACK
6
CONTINUOUS
10
109.588
20
-166.963
11
109.564
21
-167.154
0
LINE
8
BLACK
6
CONTINUOUS
10
109.718
20
-165.916
11
109.802
21
-166.011
0
LINE
8
BLACK
6
CONTINUOUS
10
109.802
20
-166.011
11
109.695
21
-166.106
0
LINE
8
BLACK
6
CONTINUOUS
10
109.695
20
-166.106
11
109.611
21
-166.011
0
LINE
8
BLACK
6
CONTINUOUS
10
109.611
20
-166.011
11
109.718
21
-165.916
0
LINE
8
BLACK
6
CONTINUOUS
10
109.718
20
-165.916
11
109.695
21
-166.106
0
LINE
8
BLACK
6
CONTINUOUS
10
112.04
20
-167.154
11
112.29
21
-165.154
0
LINE
8
BLACK
6
CONTINUOUS
10
112.195
20
-165.916
11
112.397
21
-165.821
0
LINE
8
BLACK
6
CONTINUOUS
10
112.397
20
-165.821
11
112.778
21
-165.821
0
LINE
8
BLACK
6
CONTINUOUS
10
112.778
20
-165.821
11
112.957
21
-165.916
0
LINE
8
BLACK
6
CONTINUOUS
10
112.957
20
-165.916
11
113.04
21
-166.011
0
LINE
8
BLACK
6
CONTINUOUS
10
113.04
20
-166.011
11
113.111
21
-166.201
0
LINE
8
BLACK
6
CONTINUOUS
10
113.111
20
-166.201
11
113.04
21
-166.773
0
LINE
8
BLACK
6
CONTINUOUS
10
113.04
20
-166.773
11
112.921
21
-166.963
0
LINE
8
BLACK
6
CONTINUOUS
10
112.921
20
-166.963
11
112.814
21
-167.059
0
LINE
8
BLACK
6
CONTINUOUS
10
112.814
20
-167.059
11
112.611
21
-167.154
0
LINE
8
BLACK
6
CONTINUOUS
10
112.611
20
-167.154
11
112.23
21
-167.154
0
LINE
8
BLACK
6
CONTINUOUS
10
112.23
20
-167.154
11
112.052
21
-167.059
0
LINE
8
BLACK
6
CONTINUOUS
10
114.135
20
-167.154
11
113.957
21
-167.059
0
LINE
8
BLACK
6
CONTINUOUS
10
113.957
20
-167.059
11
113.873
21
-166.963
0
LINE
8
BLACK
6
CONTINUOUS
10
113.873
20
-166.963
11
113.802
21
-166.773
0
LINE
8
BLACK
6
CONTINUOUS
10
113.802
20
-166.773
11
113.873
21
-166.201
0
LINE
8
BLACK
6
CONTINUOUS
10
113.873
20
-166.201
11
113.992
21
-166.011
0
LINE
8
BLACK
6
CONTINUOUS
10
113.992
20
-166.011
11
114.099
21
-165.916
0
LINE
8
BLACK
6
CONTINUOUS
10
114.099
20
-165.916
11
114.302
21
-165.821
0
LINE
8
BLACK
6
CONTINUOUS
10
114.302
20
-165.821
11
114.588
21
-165.821
0
LINE
8
BLACK
6
CONTINUOUS
10
114.588
20
-165.821
11
114.766
21
-165.916
0
LINE
8
BLACK
6
CONTINUOUS
10
114.766
20
-165.916
11
114.849
21
-166.011
0
LINE
8
BLACK
6
CONTINUOUS
10
114.849
20
-166.011
11
114.921
21
-166.201
0
LINE
8
BLACK
6
CONTINUOUS
10
114.921
20
-166.201
11
114.849
21
-166.773
0
LINE
8
BLACK
6
CONTINUOUS
10
114.849
20
-166.773
11
114.73
21
-166.963
0
LINE
8
BLACK
6
CONTINUOUS
10
114.73
20
-166.963
11
114.623
21
-167.059
0
LINE
8
BLACK
6
CONTINUOUS
10
114.623
20
-167.059
11
114.421
21
-167.154
0
LINE
8
BLACK
6
CONTINUOUS
10
114.421
20
-167.154
11
114.135
21
-167.154
0
LINE
8
BLACK
6
CONTINUOUS
10
115.54
20
-165.821
11
116.302
21
-165.821
0
LINE
8
BLACK
6
CONTINUOUS
10
115.909
20
-165.154
11
115.695
21
-166.868
0
LINE
8
BLACK
6
CONTINUOUS
10
115.695
20
-166.868
11
115.766
21
-167.059
0
LINE
8
BLACK
6
CONTINUOUS
10
115.766
20
-167.059
11
115.945
21
-167.154
0
LINE
8
BLACK
6
CONTINUOUS
10
115.945
20
-167.154
11
116.135
21
-167.154
0
LINE
8
BLACK
6
CONTINUOUS
10
116.683
20
-165.821
11
117.445
21
-165.821
0
LINE
8
BLACK
6
CONTINUOUS
10
117.052
20
-165.154
11
116.838
21
-166.868
0
LINE
8
BLACK
6
CONTINUOUS
10
116.838
20
-166.868
11
116.909
21
-167.059
0
LINE
8
BLACK
6
CONTINUOUS
10
116.909
20
-167.059
11
117.088
21
-167.154
0
LINE
8
BLACK
6
CONTINUOUS
10
117.088
20
-167.154
11
117.278
21
-167.154
0
LINE
8
BLACK
6
CONTINUOUS
10
118.23
20
-167.154
11
118.052
21
-167.059
0
LINE
8
BLACK
6
CONTINUOUS
10
118.052
20
-167.059
11
117.968
21
-166.963
0
LINE
8
BLACK
6
CONTINUOUS
10
117.968
20
-166.963
11
117.897
21
-166.773
0
LINE
8
BLACK
6
CONTINUOUS
10
117.897
20
-166.773
11
117.968
21
-166.201
0
LINE
8
BLACK
6
CONTINUOUS
10
117.968
20
-166.201
11
118.088
21
-166.011
0
LINE
8
BLACK
6
CONTINUOUS
10
118.088
20
-166.011
11
118.195
21
-165.916
0
LINE
8
BLACK
6
CONTINUOUS
10
118.195
20
-165.916
11
118.397
21
-165.821
0
LINE
8
BLACK
6
CONTINUOUS
10
118.397
20
-165.821
11
118.683
21
-165.821
0
LINE
8
BLACK
6
CONTINUOUS
10
118.683
20
-165.821
11
118.861
21
-165.916
0
LINE
8
BLACK
6
CONTINUOUS
10
118.861
20
-165.916
11
118.945
21
-166.011
0
LINE
8
BLACK
6
CONTINUOUS
10
118.945
20
-166.011
11
119.016
21
-166.201
0
LINE
8
BLACK
6
CONTINUOUS
10
119.016
20
-166.201
11
118.945
21
-166.773
0
LINE
8
BLACK
6
CONTINUOUS
10
118.945
20
-166.773
11
118.826
21
-166.963
0
LINE
8
BLACK
6
CONTINUOUS
10
118.826
20
-166.963
11
118.718
21
-167.059
0
LINE
8
BLACK
6
CONTINUOUS
10
118.718
20
-167.059
11
118.516
21
-167.154
0
LINE
8
BLACK
6
CONTINUOUS
10
118.516
20
-167.154
11
118.23
21
-167.154
0
LINE
8
BLACK
6
CONTINUOUS
10
119.754
20
-167.154
11
119.921
21
-165.821
0
LINE
8
BLACK
6
CONTINUOUS
10
119.897
20
-166.011
11
120.004
21
-165.916
0
LINE
8
BLACK
6
CONTINUOUS
10
120.004
20
-165.916
11
120.207
21
-165.821
0
LINE
8
BLACK
6
CONTINUOUS
10
120.207
20
-165.821
11
120.492
21
-165.821
0
LINE
8
BLACK
6
CONTINUOUS
10
120.492
20
-165.821
11
120.671
21
-165.916
0
LINE
8
BLACK
6
CONTINUOUS
10
120.671
20
-165.916
11
120.742
21
-166.106
0
LINE
8
BLACK
6
CONTINUOUS
10
120.742
20
-166.106
11
120.611
21
-167.154
0
LINE
8
BLACK
6
CONTINUOUS
10
120.742
20
-166.106
11
120.861
21
-165.916
0
LINE
8
BLACK
6
CONTINUOUS
10
120.861
20
-165.916
11
121.064
21
-165.821
0
LINE
8
BLACK
6
CONTINUOUS
10
121.064
20
-165.821
11
121.349
21
-165.821
0
LINE
8
BLACK
6
CONTINUOUS
10
121.349
20
-165.821
11
121.528
21
-165.916
0
LINE
8
BLACK
6
CONTINUOUS
10
121.528
20
-165.916
11
121.599
21
-166.106
0
LINE
8
BLACK
6
CONTINUOUS
10
121.599
20
-166.106
11
121.468
21
-167.154
0
LINE
8
BLACK
6
CONTINUOUS
10
123.945
20
-167.154
11
124.195
21
-165.154
0
LINE
8
BLACK
6
CONTINUOUS
10
124.099
20
-165.916
11
124.302
21
-165.821
0
LINE
8
BLACK
6
CONTINUOUS
10
124.302
20
-165.821
11
124.683
21
-165.821
0
LINE
8
BLACK
6
CONTINUOUS
10
124.683
20
-165.821
11
124.861
21
-165.916
0
LINE
8
BLACK
6
CONTINUOUS
10
124.861
20
-165.916
11
124.945
21
-166.011
0
LINE
8
BLACK
6
CONTINUOUS
10
124.945
20
-166.011
11
125.016
21
-166.201
0
LINE
8
BLACK
6
CONTINUOUS
10
125.016
20
-166.201
11
124.945
21
-166.773
0
LINE
8
BLACK
6
CONTINUOUS
10
124.945
20
-166.773
11
124.826
21
-166.963
0
LINE
8
BLACK
6
CONTINUOUS
10
124.826
20
-166.963
11
124.718
21
-167.059
0
LINE
8
BLACK
6
CONTINUOUS
10
124.718
20
-167.059
11
124.516
21
-167.154
0
LINE
8
BLACK
6
CONTINUOUS
10
124.516
20
-167.154
11
124.135
21
-167.154
0
LINE
8
BLACK
6
CONTINUOUS
10
124.135
20
-167.154
11
123.957
21
-167.059
0
LINE
8
BLACK
6
CONTINUOUS
10
126.04
20
-167.154
11
125.861
21
-167.059
0
LINE
8
BLACK
6
CONTINUOUS
10
125.861
20
-167.059
11
125.778
21
-166.963
0
LINE
8
BLACK
6
CONTINUOUS
10
125.778
20
-166.963
11
125.707
21
-166.773
0
LINE
8
BLACK
6
CONTINUOUS
10
125.707
20
-166.773
11
125.778
21
-166.201
0
LINE
8
BLACK
6
CONTINUOUS
10
125.778
20
-166.201
11
125.897
21
-166.011
0
LINE
8
BLACK
6
CONTINUOUS
10
125.897
20
-166.011
11
126.004
21
-165.916
0
LINE
8
BLACK
6
CONTINUOUS
10
126.004
20
-165.916
11
126.207
21
-165.821
0
LINE
8
BLACK
6
CONTINUOUS
10
126.207
20
-165.821
11
126.492
21
-165.821
0
LINE
8
BLACK
6
CONTINUOUS
10
126.492
20
-165.821
11
126.671
21
-165.916
0
LINE
8
BLACK
6
CONTINUOUS
10
126.671
20
-165.916
11
126.754
21
-166.011
0
LINE
8
BLACK
6
CONTINUOUS
10
126.754
20
-166.011
11
126.826
21
-166.201
0
LINE
8
BLACK
6
CONTINUOUS
10
126.826
20
-166.201
11
126.754
21
-166.773
0
LINE
8
BLACK
6
CONTINUOUS
10
126.754
20
-166.773
11
126.635
21
-166.963
0
LINE
8
BLACK
6
CONTINUOUS
10
126.635
20
-166.963
11
126.528
21
-167.059
0
LINE
8
BLACK
6
CONTINUOUS
10
126.528
20
-167.059
11
126.326
21
-167.154
0
LINE
8
BLACK
6
CONTINUOUS
10
126.326
20
-167.154
11
126.04
21
-167.154
0
LINE
8
BLACK
6
CONTINUOUS
10
128.421
20
-167.154
11
128.552
21
-166.106
0
LINE
8
BLACK
6
CONTINUOUS
10
128.552
20
-166.106
11
128.48
21
-165.916
0
LINE
8
BLACK
6
CONTINUOUS
10
128.48
20
-165.916
11
128.302
21
-165.821
0
LINE
8
BLACK
6
CONTINUOUS
10
128.302
20
-165.821
11
127.921
21
-165.821
0
LINE
8
BLACK
6
CONTINUOUS
10
127.921
20
-165.821
11
127.718
21
-165.916
0
LINE
8
BLACK
6
CONTINUOUS
10
128.433
20
-167.059
11
128.23
21
-167.154
0
LINE
8
BLACK
6
CONTINUOUS
10
128.23
20
-167.154
11
127.754
21
-167.154
0
LINE
8
BLACK
6
CONTINUOUS
10
127.754
20
-167.154
11
127.576
21
-167.059
0
LINE
8
BLACK
6
CONTINUOUS
10
127.576
20
-167.059
11
127.504
21
-166.868
0
LINE
8
BLACK
6
CONTINUOUS
10
127.504
20
-166.868
11
127.528
21
-166.678
0
LINE
8
BLACK
6
CONTINUOUS
10
127.528
20
-166.678
11
127.647
21
-166.487
0
LINE
8
BLACK
6
CONTINUOUS
10
127.647
20
-166.487
11
127.849
21
-166.392
0
LINE
8
BLACK
6
CONTINUOUS
10
127.849
20
-166.392
11
128.326
21
-166.392
0
LINE
8
BLACK
6
CONTINUOUS
10
128.326
20
-166.392
11
128.528
21
-166.297
0
LINE
8
BLACK
6
CONTINUOUS
10
129.373
20
-167.154
11
129.54
21
-165.821
0
LINE
8
BLACK
6
CONTINUOUS
10
129.492
20
-166.201
11
129.611
21
-166.011
0
LINE
8
BLACK
6
CONTINUOUS
10
129.611
20
-166.011
11
129.718
21
-165.916
0
LINE
8
BLACK
6
CONTINUOUS
10
129.718
20
-165.916
11
129.921
21
-165.821
0
LINE
8
BLACK
6
CONTINUOUS
10
129.921
20
-165.821
11
130.111
21
-165.821
0
LINE
8
BLACK
6
CONTINUOUS
10
131.468
20
-167.154
11
131.718
21
-165.154
0
LINE
8
BLACK
6
CONTINUOUS
10
131.48
20
-167.059
11
131.278
21
-167.154
0
LINE
8
BLACK
6
CONTINUOUS
10
131.278
20
-167.154
11
130.897
21
-167.154
0
LINE
8
BLACK
6
CONTINUOUS
10
130.897
20
-167.154
11
130.718
21
-167.059
0
LINE
8
BLACK
6
CONTINUOUS
10
130.718
20
-167.059
11
130.635
21
-166.963
0
LINE
8
BLACK
6
CONTINUOUS
10
130.635
20
-166.963
11
130.564
21
-166.773
0
LINE
8
BLACK
6
CONTINUOUS
10
130.564
20
-166.773
11
130.635
21
-166.201
0
LINE
8
BLACK
6
CONTINUOUS
10
130.635
20
-166.201
11
130.754
21
-166.011
0
LINE
8
BLACK
6
CONTINUOUS
10
130.754
20
-166.011
11
130.861
21
-165.916
0
LINE
8
BLACK
6
CONTINUOUS
10
130.861
20
-165.916
11
131.064
21
-165.821
0
LINE
8
BLACK
6
CONTINUOUS
10
131.064
20
-165.821
11
131.445
21
-165.821
0
LINE
8
BLACK
6
CONTINUOUS
10
131.445
20
-165.821
11
131.623
21
-165.916
0
LINE
8
BLACK
6
CONTINUOUS
10
103.367
20
-162.542
11
102.867
21
-162.542
0
LINE
8
BLACK
6
CONTINUOUS
10
102.867
20
-163.328
11
102.867
21
-161.828
0
LINE
8
BLACK
6
CONTINUOUS
10
102.867
20
-161.828
11
103.581
21
-161.828
0
LINE
8
BLACK
6
CONTINUOUS
10
104.153
20
-163.328
11
104.153
21
-162.328
0
LINE
8
BLACK
6
CONTINUOUS
10
104.153
20
-161.828
11
104.081
21
-161.899
0
LINE
8
BLACK
6
CONTINUOUS
10
104.081
20
-161.899
11
104.153
21
-161.971
0
LINE
8
BLACK
6
CONTINUOUS
10
104.153
20
-161.971
11
104.224
21
-161.899
0
LINE
8
BLACK
6
CONTINUOUS
10
104.224
20
-161.899
11
104.153
21
-161.828
0
LINE
8
BLACK
6
CONTINUOUS
10
104.153
20
-161.828
11
104.153
21
-161.971
0
LINE
8
BLACK
6
CONTINUOUS
10
105.081
20
-163.328
11
104.938
21
-163.256
0
LINE
8
BLACK
6
CONTINUOUS
10
104.938
20
-163.256
11
104.867
21
-163.113
0
LINE
8
BLACK
6
CONTINUOUS
10
104.867
20
-163.113
11
104.867
21
-161.828
0
LINE
8
BLACK
6
CONTINUOUS
10
106.224
20
-163.256
11
106.081
21
-163.328
0
LINE
8
BLACK
6
CONTINUOUS
10
106.081
20
-163.328
11
105.795
21
-163.328
0
LINE
8
BLACK
6
CONTINUOUS
10
105.795
20
-163.328
11
105.653
21
-163.256
0
LINE
8
BLACK
6
CONTINUOUS
10
105.653
20
-163.256
11
105.581
21
-163.113
0
LINE
8
BLACK
6
CONTINUOUS
10
105.581
20
-163.113
11
105.581
21
-162.542
0
LINE
8
BLACK
6
CONTINUOUS
10
105.581
20
-162.542
11
105.653
21
-162.399
0
LINE
8
BLACK
6
CONTINUOUS
10
105.653
20
-162.399
11
105.795
21
-162.328
0
LINE
8
BLACK
6
CONTINUOUS
10
105.795
20
-162.328
11
106.081
21
-162.328
0
LINE
8
BLACK
6
CONTINUOUS
10
106.081
20
-162.328
11
106.224
21
-162.399
0
LINE
8
BLACK
6
CONTINUOUS
10
106.224
20
-162.399
11
106.295
21
-162.542
0
LINE
8
BLACK
6
CONTINUOUS
10
106.295
20
-162.542
11
106.295
21
-162.685
0
LINE
8
BLACK
6
CONTINUOUS
10
106.295
20
-162.685
11
105.581
21
-162.828
0
LINE
8
BLACK
6
CONTINUOUS
10
106.938
20
-163.185
11
107.01
21
-163.256
0
LINE
8
BLACK
6
CONTINUOUS
10
107.01
20
-163.256
11
106.938
21
-163.328
0
LINE
8
BLACK
6
CONTINUOUS
10
106.938
20
-163.328
11
106.867
21
-163.256
0
LINE
8
BLACK
6
CONTINUOUS
10
106.867
20
-163.256
11
106.938
21
-163.185
0
LINE
8
BLACK
6
CONTINUOUS
10
106.938
20
-163.185
11
106.938
21
-163.328
0
LINE
8
BLACK
6
CONTINUOUS
10
106.938
20
-162.399
11
107.01
21
-162.471
0
LINE
8
BLACK
6
CONTINUOUS
10
107.01
20
-162.471
11
106.938
21
-162.542
0
LINE
8
BLACK
6
CONTINUOUS
10
106.938
20
-162.542
11
106.867
21
-162.471
0
LINE
8
BLACK
6
CONTINUOUS
10
106.867
20
-162.471
11
106.938
21
-162.399
0
LINE
8
BLACK
6
CONTINUOUS
10
106.938
20
-162.399
11
106.938
21
-162.542
0
LINE
8
BLACK
6
CONTINUOUS
10
108.795
20
-163.328
11
108.795
21
-161.828
0
LINE
8
BLACK
6
CONTINUOUS
10
108.795
20
-162.399
11
108.938
21
-162.328
0
LINE
8
BLACK
6
CONTINUOUS
10
108.938
20
-162.328
11
109.224
21
-162.328
0
LINE
8
BLACK
6
CONTINUOUS
10
109.224
20
-162.328
11
109.367
21
-162.399
0
LINE
8
BLACK
6
CONTINUOUS
10
109.367
20
-162.399
11
109.438
21
-162.471
0
LINE
8
BLACK
6
CONTINUOUS
10
109.438
20
-162.471
11
109.51
21
-162.613
0
LINE
8
BLACK
6
CONTINUOUS
10
109.51
20
-162.613
11
109.51
21
-163.042
0
LINE
8
BLACK
6
CONTINUOUS
10
109.51
20
-163.042
11
109.438
21
-163.185
0
LINE
8
BLACK
6
CONTINUOUS
10
109.438
20
-163.185
11
109.367
21
-163.256
0
LINE
8
BLACK
6
CONTINUOUS
10
109.367
20
-163.256
11
109.224
21
-163.328
0
LINE
8
BLACK
6
CONTINUOUS
10
109.224
20
-163.328
11
108.938
21
-163.328
0
LINE
8
BLACK
6
CONTINUOUS
10
108.938
20
-163.328
11
108.795
21
-163.256
0
LINE
8
BLACK
6
CONTINUOUS
10
110.367
20
-163.328
11
110.224
21
-163.256
0
LINE
8
BLACK
6
CONTINUOUS
10
110.224
20
-163.256
11
110.153
21
-163.185
0
LINE
8
BLACK
6
CONTINUOUS
10
110.153
20
-163.185
11
110.081
21
-163.042
0
LINE
8
BLACK
6
CONTINUOUS
10
110.081
20
-163.042
11
110.081
21
-162.613
0
LINE
8
BLACK
6
CONTINUOUS
10
110.081
20
-162.613
11
110.153
21
-162.471
0
LINE
8
BLACK
6
CONTINUOUS
10
110.153
20
-162.471
11
110.224
21
-162.399
0
LINE
8
BLACK
6
CONTINUOUS
10
110.224
20
-162.399
11
110.367
21
-162.328
0
LINE
8
BLACK
6
CONTINUOUS
10
110.367
20
-162.328
11
110.581
21
-162.328
0
LINE
8
BLACK
6
CONTINUOUS
10
110.581
20
-162.328
11
110.724
21
-162.399
0
LINE
8
BLACK
6
CONTINUOUS
10
110.724
20
-162.399
11
110.795
21
-162.471
0
LINE
8
BLACK
6
CONTINUOUS
10
110.795
20
-162.471
11
110.867
21
-162.613
0
LINE
8
BLACK
6
CONTINUOUS
10
110.867
20
-162.613
11
110.867
21
-163.042
0
LINE
8
BLACK
6
CONTINUOUS
10
110.867
20
-163.042
11
110.795
21
-163.185
0
LINE
8
BLACK
6
CONTINUOUS
10
110.795
20
-163.185
11
110.724
21
-163.256
0
LINE
8
BLACK
6
CONTINUOUS
10
110.724
20
-163.256
11
110.581
21
-163.328
0
LINE
8
BLACK
6
CONTINUOUS
10
110.581
20
-163.328
11
110.367
21
-163.328
0
LINE
8
BLACK
6
CONTINUOUS
10
111.295
20
-162.328
11
111.867
21
-162.328
0
LINE
8
BLACK
6
CONTINUOUS
10
111.51
20
-161.828
11
111.51
21
-163.113
0
LINE
8
BLACK
6
CONTINUOUS
10
111.51
20
-163.113
11
111.581
21
-163.256
0
LINE
8
BLACK
6
CONTINUOUS
10
111.581
20
-163.256
11
111.724
21
-163.328
0
LINE
8
BLACK
6
CONTINUOUS
10
111.724
20
-163.328
11
111.867
21
-163.328
0
LINE
8
BLACK
6
CONTINUOUS
10
112.153
20
-162.328
11
112.724
21
-162.328
0
LINE
8
BLACK
6
CONTINUOUS
10
112.367
20
-161.828
11
112.367
21
-163.113
0
LINE
8
BLACK
6
CONTINUOUS
10
112.367
20
-163.113
11
112.438
21
-163.256
0
LINE
8
BLACK
6
CONTINUOUS
10
112.438
20
-163.256
11
112.581
21
-163.328
0
LINE
8
BLACK
6
CONTINUOUS
10
112.581
20
-163.328
11
112.724
21
-163.328
0
LINE
8
BLACK
6
CONTINUOUS
10
113.438
20
-163.328
11
113.295
21
-163.256
0
LINE
8
BLACK
6
CONTINUOUS
10
113.295
20
-163.256
11
113.224
21
-163.185
0
LINE
8
BLACK
6
CONTINUOUS
10
113.224
20
-163.185
11
113.153
21
-163.042
0
LINE
8
BLACK
6
CONTINUOUS
10
113.153
20
-163.042
11
113.153
21
-162.613
0
LINE
8
BLACK
6
CONTINUOUS
10
113.153
20
-162.613
11
113.224
21
-162.471
0
LINE
8
BLACK
6
CONTINUOUS
10
113.224
20
-162.471
11
113.295
21
-162.399
0
LINE
8
BLACK
6
CONTINUOUS
10
113.295
20
-162.399
11
113.438
21
-162.328
0
LINE
8
BLACK
6
CONTINUOUS
10
113.438
20
-162.328
11
113.653
21
-162.328
0
LINE
8
BLACK
6
CONTINUOUS
10
113.653
20
-162.328
11
113.795
21
-162.399
0
LINE
8
BLACK
6
CONTINUOUS
10
113.795
20
-162.399
11
113.867
21
-162.471
0
LINE
8
BLACK
6
CONTINUOUS
10
113.867
20
-162.471
11
113.938
21
-162.613
0
LINE
8
BLACK
6
CONTINUOUS
10
113.938
20
-162.613
11
113.938
21
-163.042
0
LINE
8
BLACK
6
CONTINUOUS
10
113.938
20
-163.042
11
113.867
21
-163.185
0
LINE
8
BLACK
6
CONTINUOUS
10
113.867
20
-163.185
11
113.795
21
-163.256
0
LINE
8
BLACK
6
CONTINUOUS
10
113.795
20
-163.256
11
113.653
21
-163.328
0
LINE
8
BLACK
6
CONTINUOUS
10
113.653
20
-163.328
11
113.438
21
-163.328
0
LINE
8
BLACK
6
CONTINUOUS
10
114.581
20
-163.328
11
114.581
21
-162.328
0
LINE
8
BLACK
6
CONTINUOUS
10
114.581
20
-162.471
11
114.653
21
-162.399
0
LINE
8
BLACK
6
CONTINUOUS
10
114.653
20
-162.399
11
114.795
21
-162.328
0
LINE
8
BLACK
6
CONTINUOUS
10
114.795
20
-162.328
11
115.01
21
-162.328
0
LINE
8
BLACK
6
CONTINUOUS
10
115.01
20
-162.328
11
115.153
21
-162.399
0
LINE
8
BLACK
6
CONTINUOUS
10
115.153
20
-162.399
11
115.224
21
-162.542
0
LINE
8
BLACK
6
CONTINUOUS
10
115.224
20
-162.542
11
115.224
21
-163.328
0
LINE
8
BLACK
6
CONTINUOUS
10
115.224
20
-162.542
11
115.295
21
-162.399
0
LINE
8
BLACK
6
CONTINUOUS
10
115.295
20
-162.399
11
115.438
21
-162.328
0
LINE
8
BLACK
6
CONTINUOUS
10
115.438
20
-162.328
11
115.653
21
-162.328
0
LINE
8
BLACK
6
CONTINUOUS
10
115.653
20
-162.328
11
115.795
21
-162.399
0
LINE
8
BLACK
6
CONTINUOUS
10
115.795
20
-162.399
11
115.867
21
-162.542
0
LINE
8
BLACK
6
CONTINUOUS
10
115.867
20
-162.542
11
115.867
21
-163.328
0
LINE
8
BLACK
6
CONTINUOUS
10
116.581
20
-162.756
11
117.724
21
-162.756
0
LINE
8
BLACK
6
CONTINUOUS
10
118.438
20
-163.328
11
118.438
21
-161.828
0
LINE
8
BLACK
6
CONTINUOUS
10
118.438
20
-162.399
11
118.581
21
-162.328
0
LINE
8
BLACK
6
CONTINUOUS
10
118.581
20
-162.328
11
118.867
21
-162.328
0
LINE
8
BLACK
6
CONTINUOUS
10
118.867
20
-162.328
11
119.01
21
-162.399
0
LINE
8
BLACK
6
CONTINUOUS
10
119.01
20
-162.399
11
119.081
21
-162.471
0
LINE
8
BLACK
6
CONTINUOUS
10
119.081
20
-162.471
11
119.153
21
-162.613
0
LINE
8
BLACK
6
CONTINUOUS
10
119.153
20
-162.613
11
119.153
21
-163.042
0
LINE
8
BLACK
6
CONTINUOUS
10
119.153
20
-163.042
11
119.081
21
-163.185
0
LINE
8
BLACK
6
CONTINUOUS
10
119.081
20
-163.185
11
119.01
21
-163.256
0
LINE
8
BLACK
6
CONTINUOUS
10
119.01
20
-163.256
11
118.867
21
-163.328
0
LINE
8
BLACK
6
CONTINUOUS
10
118.867
20
-163.328
11
118.581
21
-163.328
0
LINE
8
BLACK
6
CONTINUOUS
10
118.581
20
-163.328
11
118.438
21
-163.256
0
LINE
8
BLACK
6
CONTINUOUS
10
120.01
20
-163.328
11
119.867
21
-163.256
0
LINE
8
BLACK
6
CONTINUOUS
10
119.867
20
-163.256
11
119.795
21
-163.185
0
LINE
8
BLACK
6
CONTINUOUS
10
119.795
20
-163.185
11
119.724
21
-163.042
0
LINE
8
BLACK
6
CONTINUOUS
10
119.724
20
-163.042
11
119.724
21
-162.613
0
LINE
8
BLACK
6
CONTINUOUS
10
119.724
20
-162.613
11
119.795
21
-162.471
0
LINE
8
BLACK
6
CONTINUOUS
10
119.795
20
-162.471
11
119.867
21
-162.399
0
LINE
8
BLACK
6
CONTINUOUS
10
119.867
20
-162.399
11
120.01
21
-162.328
0
LINE
8
BLACK
6
CONTINUOUS
10
120.01
20
-162.328
11
120.224
21
-162.328
0
LINE
8
BLACK
6
CONTINUOUS
10
120.224
20
-162.328
11
120.367
21
-162.399
0
LINE
8
BLACK
6
CONTINUOUS
10
120.367
20
-162.399
11
120.438
21
-162.471
0
LINE
8
BLACK
6
CONTINUOUS
10
120.438
20
-162.471
11
120.51
21
-162.613
0
LINE
8
BLACK
6
CONTINUOUS
10
120.51
20
-162.613
11
120.51
21
-163.042
0
LINE
8
BLACK
6
CONTINUOUS
10
120.51
20
-163.042
11
120.438
21
-163.185
0
LINE
8
BLACK
6
CONTINUOUS
10
120.438
20
-163.185
11
120.367
21
-163.256
0
LINE
8
BLACK
6
CONTINUOUS
10
120.367
20
-163.256
11
120.224
21
-163.328
0
LINE
8
BLACK
6
CONTINUOUS
10
120.224
20
-163.328
11
120.01
21
-163.328
0
LINE
8
BLACK
6
CONTINUOUS
10
121.795
20
-163.328
11
121.795
21
-162.542
0
LINE
8
BLACK
6
CONTINUOUS
10
121.795
20
-162.542
11
121.724
21
-162.399
0
LINE
8
BLACK
6
CONTINUOUS
10
121.724
20
-162.399
11
121.581
21
-162.328
0
LINE
8
BLACK
6
CONTINUOUS
10
121.581
20
-162.328
11
121.295
21
-162.328
0
LINE
8
BLACK
6
CONTINUOUS
10
121.295
20
-162.328
11
121.153
21
-162.399
0
LINE
8
BLACK
6
CONTINUOUS
10
121.795
20
-163.256
11
121.653
21
-163.328
0
LINE
8
BLACK
6
CONTINUOUS
10
121.653
20
-163.328
11
121.295
21
-163.328
0
LINE
8
BLACK
6
CONTINUOUS
10
121.295
20
-163.328
11
121.153
21
-163.256
0
LINE
8
BLACK
6
CONTINUOUS
10
121.153
20
-163.256
11
121.081
21
-163.113
0
LINE
8
BLACK
6
CONTINUOUS
10
121.081
20
-163.113
11
121.081
21
-162.971
0
LINE
8
BLACK
6
CONTINUOUS
10
121.081
20
-162.971
11
121.153
21
-162.828
0
LINE
8
BLACK
6
CONTINUOUS
10
121.153
20
-162.828
11
121.295
21
-162.756
0
LINE
8
BLACK
6
CONTINUOUS
10
121.295
20
-162.756
11
121.653
21
-162.756
0
LINE
8
BLACK
6
CONTINUOUS
10
121.653
20
-162.756
11
121.795
21
-162.685
0
LINE
8
BLACK
6
CONTINUOUS
10
122.51
20
-163.328
11
122.51
21
-162.328
0
LINE
8
BLACK
6
CONTINUOUS
10
122.51
20
-162.613
11
122.581
21
-162.471
0
LINE
8
BLACK
6
CONTINUOUS
10
122.581
20
-162.471
11
122.653
21
-162.399
0
LINE
8
BLACK
6
CONTINUOUS
10
122.653
20
-162.399
11
122.795
21
-162.328
0
LINE
8
BLACK
6
CONTINUOUS
10
122.795
20
-162.328
11
122.938
21
-162.328
0
LINE
8
BLACK
6
CONTINUOUS
10
124.081
20
-163.328
11
124.081
21
-161.828
0
LINE
8
BLACK
6
CONTINUOUS
10
124.081
20
-163.256
11
123.938
21
-163.328
0
LINE
8
BLACK
6
CONTINUOUS
10
123.938
20
-163.328
11
123.653
21
-163.328
0
LINE
8
BLACK
6
CONTINUOUS
10
123.653
20
-163.328
11
123.51
21
-163.256
0
LINE
8
BLACK
6
CONTINUOUS
10
123.51
20
-163.256
11
123.438
21
-163.185
0
LINE
8
BLACK
6
CONTINUOUS
10
123.438
20
-163.185
11
123.367
21
-163.042
0
LINE
8
BLACK
6
CONTINUOUS
10
123.367
20
-163.042
11
123.367
21
-162.613
0
LINE
8
BLACK
6
CONTINUOUS
10
123.367
20
-162.613
11
123.438
21
-162.471
0
LINE
8
BLACK
6
CONTINUOUS
10
123.438
20
-162.471
11
123.51
21
-162.399
0
LINE
8
BLACK
6
CONTINUOUS
10
123.51
20
-162.399
11
123.653
21
-162.328
0
LINE
8
BLACK
6
CONTINUOUS
10
123.653
20
-162.328
11
123.938
21
-162.328
0
LINE
8
BLACK
6
CONTINUOUS
10
123.938
20
-162.328
11
124.081
21
-162.399
0
LINE
8
BLACK
6
CONTINUOUS
10
124.795
20
-163.185
11
124.867
21
-163.256
0
LINE
8
BLACK
6
CONTINUOUS
10
124.867
20
-163.256
11
124.795
21
-163.328
0
LINE
8
BLACK
6
CONTINUOUS
10
124.795
20
-163.328
11
124.724
21
-163.256
0
LINE
8
BLACK
6
CONTINUOUS
10
124.724
20
-163.256
11
124.795
21
-163.185
0
LINE
8
BLACK
6
CONTINUOUS
10
124.795
20
-163.185
11
124.795
21
-163.328
0
LINE
8
BLACK
6
CONTINUOUS
10
125.51
20
-163.328
11
125.51
21
-161.828
0
LINE
8
BLACK
6
CONTINUOUS
10
125.653
20
-162.756
11
126.081
21
-163.328
0
LINE
8
BLACK
6
CONTINUOUS
10
126.081
20
-162.328
11
125.51
21
-162.899
0
LINE
8
BLACK
6
CONTINUOUS
10
126.724
20
-163.328
11
126.724
21
-162.328
0
LINE
8
BLACK
6
CONTINUOUS
10
126.724
20
-161.828
11
126.653
21
-161.899
0
LINE
8
BLACK
6
CONTINUOUS
10
126.653
20
-161.899
11
126.724
21
-161.971
0
LINE
8
BLACK
6
CONTINUOUS
10
126.724
20
-161.971
11
126.795
21
-161.899
0
LINE
8
BLACK
6
CONTINUOUS
10
126.795
20
-161.899
11
126.724
21
-161.828
0
LINE
8
BLACK
6
CONTINUOUS
10
126.724
20
-161.828
11
126.724
21
-161.971
0
LINE
8
BLACK
6
CONTINUOUS
10
128.081
20
-163.256
11
127.938
21
-163.328
0
LINE
8
BLACK
6
CONTINUOUS
10
127.938
20
-163.328
11
127.653
21
-163.328
0
LINE
8
BLACK
6
CONTINUOUS
10
127.653
20
-163.328
11
127.51
21
-163.256
0
LINE
8
BLACK
6
CONTINUOUS
10
127.51
20
-163.256
11
127.438
21
-163.185
0
LINE
8
BLACK
6
CONTINUOUS
10
127.438
20
-163.185
11
127.367
21
-163.042
0
LINE
8
BLACK
6
CONTINUOUS
10
127.367
20
-163.042
11
127.367
21
-162.613
0
LINE
8
BLACK
6
CONTINUOUS
10
127.367
20
-162.613
11
127.438
21
-162.471
0
LINE
8
BLACK
6
CONTINUOUS
10
127.438
20
-162.471
11
127.51
21
-162.399
0
LINE
8
BLACK
6
CONTINUOUS
10
127.51
20
-162.399
11
127.653
21
-162.328
0
LINE
8
BLACK
6
CONTINUOUS
10
127.653
20
-162.328
11
127.938
21
-162.328
0
LINE
8
BLACK
6
CONTINUOUS
10
127.938
20
-162.328
11
128.081
21
-162.399
0
LINE
8
BLACK
6
CONTINUOUS
10
129.367
20
-163.328
11
129.367
21
-162.542
0
LINE
8
BLACK
6
CONTINUOUS
10
129.367
20
-162.542
11
129.295
21
-162.399
0
LINE
8
BLACK
6
CONTINUOUS
10
129.295
20
-162.399
11
129.153
21
-162.328
0
LINE
8
BLACK
6
CONTINUOUS
10
129.153
20
-162.328
11
128.867
21
-162.328
0
LINE
8
BLACK
6
CONTINUOUS
10
128.867
20
-162.328
11
128.724
21
-162.399
0
LINE
8
BLACK
6
CONTINUOUS
10
129.367
20
-163.256
11
129.224
21
-163.328
0
LINE
8
BLACK
6
CONTINUOUS
10
129.224
20
-163.328
11
128.867
21
-163.328
0
LINE
8
BLACK
6
CONTINUOUS
10
128.867
20
-163.328
11
128.724
21
-163.256
0
LINE
8
BLACK
6
CONTINUOUS
10
128.724
20
-163.256
11
128.653
21
-163.113
0
LINE
8
BLACK
6
CONTINUOUS
10
128.653
20
-163.113
11
128.653
21
-162.971
0
LINE
8
BLACK
6
CONTINUOUS
10
128.653
20
-162.971
11
128.724
21
-162.828
0
LINE
8
BLACK
6
CONTINUOUS
10
128.724
20
-162.828
11
128.867
21
-162.756
0
LINE
8
BLACK
6
CONTINUOUS
10
128.867
20
-162.756
11
129.224
21
-162.756
0
LINE
8
BLACK
6
CONTINUOUS
10
129.224
20
-162.756
11
129.367
21
-162.685
0
LINE
8
BLACK
6
CONTINUOUS
10
130.724
20
-163.328
11
130.724
21
-161.828
0
LINE
8
BLACK
6
CONTINUOUS
10
130.724
20
-163.256
11
130.581
21
-163.328
0
LINE
8
BLACK
6
CONTINUOUS
10
130.581
20
-163.328
11
130.295
21
-163.328
0
LINE
8
BLACK
6
CONTINUOUS
10
130.295
20
-163.328
11
130.153
21
-163.256
0
LINE
8
BLACK
6
CONTINUOUS
10
130.153
20
-163.256
11
130.081
21
-163.185
0
LINE
8
BLACK
6
CONTINUOUS
10
130.081
20
-163.185
11
130.01
21
-163.042
0
LINE
8
BLACK
6
CONTINUOUS
10
130.01
20
-163.042
11
130.01
21
-162.613
0
LINE
8
BLACK
6
CONTINUOUS
10
130.01
20
-162.613
11
130.081
21
-162.471
0
LINE
8
BLACK
6
CONTINUOUS
10
130.081
20
-162.471
11
130.153
21
-162.399
0
LINE
8
BLACK
6
CONTINUOUS
10
130.153
20
-162.399
11
130.295
21
-162.328
0
LINE
8
BLACK
6
CONTINUOUS
10
130.295
20
-162.328
11
130.581
21
-162.328
0
LINE
8
BLACK
6
CONTINUOUS
10
130.581
20
-162.328
11
130.724
21
-162.399
0
LINE
8
BLACK
6
CONTINUOUS
10
131.081
20
-163.471
11
132.224
21
-163.471
0
LINE
8
BLACK
6
CONTINUOUS
10
132.581
20
-162.328
11
132.581
21
-163.828
0
LINE
8
BLACK
6
CONTINUOUS
10
132.581
20
-162.399
11
132.724
21
-162.328
0
LINE
8
BLACK
6
CONTINUOUS
10
132.724
20
-162.328
11
133.01
21
-162.328
0
LINE
8
BLACK
6
CONTINUOUS
10
133.01
20
-162.328
11
133.153
21
-162.399
0
LINE
8
BLACK
6
CONTINUOUS
10
133.153
20
-162.399
11
133.224
21
-162.471
0
LINE
8
BLACK
6
CONTINUOUS
10
133.224
20
-162.471
11
133.295
21
-162.613
0
LINE
8
BLACK
6
CONTINUOUS
10
133.295
20
-162.613
11
133.295
21
-163.042
0
LINE
8
BLACK
6
CONTINUOUS
10
133.295
20
-163.042
11
133.224
21
-163.185
0
LINE
8
BLACK
6
CONTINUOUS
10
133.224
20
-163.185
11
133.153
21
-163.256
0
LINE
8
BLACK
6
CONTINUOUS
10
133.153
20
-163.256
11
133.01
21
-163.328
0
LINE
8
BLACK
6
CONTINUOUS
10
133.01
20
-163.328
11
132.724
21
-163.328
0
LINE
8
BLACK
6
CONTINUOUS
10
132.724
20
-163.328
11
132.581
21
-163.256
0
LINE
8
BLACK
6
CONTINUOUS
10
134.581
20
-163.256
11
134.438
21
-163.328
0
LINE
8
BLACK
6
CONTINUOUS
10
134.438
20
-163.328
11
134.153
21
-163.328
0
LINE
8
BLACK
6
CONTINUOUS
10
134.153
20
-163.328
11
134.01
21
-163.256
0
LINE
8
BLACK
6
CONTINUOUS
10
134.01
20
-163.256
11
133.938
21
-163.185
0
LINE
8
BLACK
6
CONTINUOUS
10
133.938
20
-163.185
11
133.867
21
-163.042
0
LINE
8
BLACK
6
CONTINUOUS
10
133.867
20
-163.042
11
133.867
21
-162.613
0
LINE
8
BLACK
6
CONTINUOUS
10
133.867
20
-162.613
11
133.938
21
-162.471
0
LINE
8
BLACK
6
CONTINUOUS
10
133.938
20
-162.471
11
134.01
21
-162.399
0
LINE
8
BLACK
6
CONTINUOUS
10
134.01
20
-162.399
11
134.153
21
-162.328
0
LINE
8
BLACK
6
CONTINUOUS
10
134.153
20
-162.328
11
134.438
21
-162.328
0
LINE
8
BLACK
6
CONTINUOUS
10
134.438
20
-162.328
11
134.581
21
-162.399
0
LINE
8
BLACK
6
CONTINUOUS
10
135.224
20
-163.328
11
135.224
21
-161.828
0
LINE
8
BLACK
6
CONTINUOUS
10
135.224
20
-162.399
11
135.367
21
-162.328
0
LINE
8
BLACK
6
CONTINUOUS
10
135.367
20
-162.328
11
135.653
21
-162.328
0
LINE
8
BLACK
6
CONTINUOUS
10
135.653
20
-162.328
11
135.795
21
-162.399
0
LINE
8
BLACK
6
CONTINUOUS
10
135.795
20
-162.399
11
135.867
21
-162.471
0
LINE
8
BLACK
6
CONTINUOUS
10
135.867
20
-162.471
11
135.938
21
-162.613
0
LINE
8
BLACK
6
CONTINUOUS
10
135.938
20
-162.613
11
135.938
21
-163.042
0
LINE
8
BLACK
6
CONTINUOUS
10
135.938
20
-163.042
11
135.867
21
-163.185
0
LINE
8
BLACK
6
CONTINUOUS
10
135.867
20
-163.185
11
135.795
21
-163.256
0
LINE
8
BLACK
6
CONTINUOUS
10
135.795
20
-163.256
11
135.653
21
-163.328
0
LINE
8
BLACK
6
CONTINUOUS
10
135.653
20
-163.328
11
135.367
21
-163.328
0
LINE
8
BLACK
6
CONTINUOUS
10
135.367
20
-163.328
11
135.224
21
-163.256
0
LINE
8
BLACK
6
CONTINUOUS
10
101.435
20
-158.449
11
209.435
21
-158.449
0
LINE
8
BLACK
6
CONTINUOUS
10
102.795
20
-160.556
11
103.01
21
-160.628
0
LINE
8
BLACK
6
CONTINUOUS
10
103.01
20
-160.628
11
103.367
21
-160.628
0
LINE
8
BLACK
6
CONTINUOUS
10
103.367
20
-160.628
11
103.51
21
-160.556
0
LINE
8
BLACK
6
CONTINUOUS
10
103.51
20
-160.556
11
103.581
21
-160.485
0
LINE
8
BLACK
6
CONTINUOUS
10
103.581
20
-160.485
11
103.653
21
-160.342
0
LINE
8
BLACK
6
CONTINUOUS
10
103.653
20
-160.342
11
103.653
21
-160.199
0
LINE
8
BLACK
6
CONTINUOUS
10
103.653
20
-160.199
11
103.581
21
-160.056
0
LINE
8
BLACK
6
CONTINUOUS
10
103.581
20
-160.056
11
103.51
21
-159.985
0
LINE
8
BLACK
6
CONTINUOUS
10
103.51
20
-159.985
11
103.367
21
-159.913
0
LINE
8
BLACK
6
CONTINUOUS
10
103.367
20
-159.913
11
103.081
21
-159.842
0
LINE
8
BLACK
6
CONTINUOUS
10
103.081
20
-159.842
11
102.938
21
-159.771
0
LINE
8
BLACK
6
CONTINUOUS
10
102.938
20
-159.771
11
102.867
21
-159.699
0
LINE
8
BLACK
6
CONTINUOUS
10
102.867
20
-159.699
11
102.795
21
-159.556
0
LINE
8
BLACK
6
CONTINUOUS
10
102.795
20
-159.556
11
102.795
21
-159.413
0
LINE
8
BLACK
6
CONTINUOUS
10
102.795
20
-159.413
11
102.867
21
-159.271
0
LINE
8
BLACK
6
CONTINUOUS
10
102.867
20
-159.271
11
102.938
21
-159.199
0
LINE
8
BLACK
6
CONTINUOUS
10
102.938
20
-159.199
11
103.081
21
-159.128
0
LINE
8
BLACK
6
CONTINUOUS
10
103.081
20
-159.128
11
103.438
21
-159.128
0
LINE
8
BLACK
6
CONTINUOUS
10
103.438
20
-159.128
11
103.653
21
-159.199
0
LINE
8
BLACK
6
CONTINUOUS
10
104.295
20
-160.628
11
104.295
21
-159.128
0
LINE
8
BLACK
6
CONTINUOUS
10
104.938
20
-160.628
11
104.938
21
-159.842
0
LINE
8
BLACK
6
CONTINUOUS
10
104.938
20
-159.842
11
104.867
21
-159.699
0
LINE
8
BLACK
6
CONTINUOUS
10
104.867
20
-159.699
11
104.724
21
-159.628
0
LINE
8
BLACK
6
CONTINUOUS
10
104.724
20
-159.628
11
104.51
21
-159.628
0
LINE
8
BLACK
6
CONTINUOUS
10
104.51
20
-159.628
11
104.367
21
-159.699
0
LINE
8
BLACK
6
CONTINUOUS
10
104.367
20
-159.699
11
104.295
21
-159.771
0
LINE
8
BLACK
6
CONTINUOUS
10
106.224
20
-160.556
11
106.081
21
-160.628
0
LINE
8
BLACK
6
CONTINUOUS
10
106.081
20
-160.628
11
105.795
21
-160.628
0
LINE
8
BLACK
6
CONTINUOUS
10
105.795
20
-160.628
11
105.653
21
-160.556
0
LINE
8
BLACK
6
CONTINUOUS
10
105.653
20
-160.556
11
105.581
21
-160.413
0
LINE
8
BLACK
6
CONTINUOUS
10
105.581
20
-160.413
11
105.581
21
-159.842
0
LINE
8
BLACK
6
CONTINUOUS
10
105.581
20
-159.842
11
105.653
21
-159.699
0
LINE
8
BLACK
6
CONTINUOUS
10
105.653
20
-159.699
11
105.795
21
-159.628
0
LINE
8
BLACK
6
CONTINUOUS
10
105.795
20
-159.628
11
106.081
21
-159.628
0
LINE
8
BLACK
6
CONTINUOUS
10
106.081
20
-159.628
11
106.224
21
-159.699
0
LINE
8
BLACK
6
CONTINUOUS
10
106.224
20
-159.699
11
106.295
21
-159.842
0
LINE
8
BLACK
6
CONTINUOUS
10
106.295
20
-159.842
11
106.295
21
-159.985
0
LINE
8
BLACK
6
CONTINUOUS
10
106.295
20
-159.985
11
105.581
21
-160.128
0
LINE
8
BLACK
6
CONTINUOUS
10
107.51
20
-160.556
11
107.367
21
-160.628
0
LINE
8
BLACK
6
CONTINUOUS
10
107.367
20
-160.628
11
107.081
21
-160.628
0
LINE
8
BLACK
6
CONTINUOUS
10
107.081
20
-160.628
11
106.938
21
-160.556
0
LINE
8
BLACK
6
CONTINUOUS
10
106.938
20
-160.556
11
106.867
21
-160.413
0
LINE
8
BLACK
6
CONTINUOUS
10
106.867
20
-160.413
11
106.867
21
-159.842
0
LINE
8
BLACK
6
CONTINUOUS
10
106.867
20
-159.842
11
106.938
21
-159.699
0
LINE
8
BLACK
6
CONTINUOUS
10
106.938
20
-159.699
11
107.081
21
-159.628
0
LINE
8
BLACK
6
CONTINUOUS
10
107.081
20
-159.628
11
107.367
21
-159.628
0
LINE
8
BLACK
6
CONTINUOUS
10
107.367
20
-159.628
11
107.51
21
-159.699
0
LINE
8
BLACK
6
CONTINUOUS
10
107.51
20
-159.699
11
107.581
21
-159.842
0
LINE
8
BLACK
6
CONTINUOUS
10
107.581
20
-159.842
11
107.581
21
-159.985
0
LINE
8
BLACK
6
CONTINUOUS
10
107.581
20
-159.985
11
106.867
21
-160.128
0
LINE
8
BLACK
6
CONTINUOUS
10
108.01
20
-159.628
11
108.581
21
-159.628
0
LINE
8
BLACK
6
CONTINUOUS
10
108.224
20
-159.128
11
108.224
21
-160.413
0
LINE
8
BLACK
6
CONTINUOUS
10
108.224
20
-160.413
11
108.295
21
-160.556
0
LINE
8
BLACK
6
CONTINUOUS
10
108.295
20
-160.556
11
108.438
21
-160.628
0
LINE
8
BLACK
6
CONTINUOUS
10
108.438
20
-160.628
11
108.581
21
-160.628
0
LINE
8
BLACK
6
CONTINUOUS
10
109.081
20
-160.485
11
109.153
21
-160.556
0
LINE
8
BLACK
6
CONTINUOUS
10
109.153
20
-160.556
11
109.081
21
-160.628
0
LINE
8
BLACK
6
CONTINUOUS
10
109.081
20
-160.628
11
109.01
21
-160.556
0
LINE
8
BLACK
6
CONTINUOUS
10
109.01
20
-160.556
11
109.081
21
-160.485
0
LINE
8
BLACK
6
CONTINUOUS
10
109.081
20
-160.485
11
109.081
21
-160.628
0
LINE
8
BLACK
6
CONTINUOUS
10
109.081
20
-159.699
11
109.153
21
-159.771
0
LINE
8
BLACK
6
CONTINUOUS
10
109.153
20
-159.771
11
109.081
21
-159.842
0
LINE
8
BLACK
6
CONTINUOUS
10
109.081
20
-159.842
11
109.01
21
-159.771
0
LINE
8
BLACK
6
CONTINUOUS
10
109.01
20
-159.771
11
109.081
21
-159.699
0
LINE
8
BLACK
6
CONTINUOUS
10
109.081
20
-159.699
11
109.081
21
-159.842
0
LINE
8
BLACK
6
CONTINUOUS
10
102.987
20
-157.628
11
102.987
21
-156.128
0
LINE
8
BLACK
6
CONTINUOUS
10
102.987
20
-156.128
11
103.487
21
-157.199
0
LINE
8
BLACK
6
CONTINUOUS
10
103.487
20
-157.199
11
103.987
21
-156.128
0
LINE
8
BLACK
6
CONTINUOUS
10
103.987
20
-156.128
11
103.987
21
-157.628
0
LINE
8
BLACK
6
CONTINUOUS
10
104.987
20
-156.128
11
105.273
21
-156.128
0
LINE
8
BLACK
6
CONTINUOUS
10
105.273
20
-156.128
11
105.415
21
-156.199
0
LINE
8
BLACK
6
CONTINUOUS
10
105.415
20
-156.199
11
105.558
21
-156.342
0
LINE
8
BLACK
6
CONTINUOUS
10
105.558
20
-156.342
11
105.63
21
-156.628
0
LINE
8
BLACK
6
CONTINUOUS
10
105.63
20
-156.628
11
105.63
21
-157.128
0
LINE
8
BLACK
6
CONTINUOUS
10
105.63
20
-157.128
11
105.558
21
-157.413
0
LINE
8
BLACK
6
CONTINUOUS
10
105.558
20
-157.413
11
105.415
21
-157.556
0
LINE
8
BLACK
6
CONTINUOUS
10
105.415
20
-157.556
11
105.273
21
-157.628
0
LINE
8
BLACK
6
CONTINUOUS
10
105.273
20
-157.628
11
104.987
21
-157.628
0
LINE
8
BLACK
6
CONTINUOUS
10
104.987
20
-157.628
11
104.844
21
-157.556
0
LINE
8
BLACK
6
CONTINUOUS
10
104.844
20
-157.556
11
104.701
21
-157.413
0
LINE
8
BLACK
6
CONTINUOUS
10
104.701
20
-157.413
11
104.63
21
-157.128
0
LINE
8
BLACK
6
CONTINUOUS
10
104.63
20
-157.128
11
104.63
21
-156.628
0
LINE
8
BLACK
6
CONTINUOUS
10
104.63
20
-156.628
11
104.701
21
-156.342
0
LINE
8
BLACK
6
CONTINUOUS
10
104.701
20
-156.342
11
104.844
21
-156.199
0
LINE
8
BLACK
6
CONTINUOUS
10
104.844
20
-156.199
11
104.987
21
-156.128
0
LINE
8
BLACK
6
CONTINUOUS
10
106.273
20
-157.628
11
106.273
21
-156.128
0
LINE
8
BLACK
6
CONTINUOUS
10
106.273
20
-156.128
11
106.63
21
-156.128
0
LINE
8
BLACK
6
CONTINUOUS
10
106.63
20
-156.128
11
106.844
21
-156.199
0
LINE
8
BLACK
6
CONTINUOUS
10
106.844
20
-156.199
11
106.987
21
-156.342
0
LINE
8
BLACK
6
CONTINUOUS
10
106.987
20
-156.342
11
107.058
21
-156.485
0
LINE
8
BLACK
6
CONTINUOUS
10
107.058
20
-156.485
11
107.13
21
-156.771
0
LINE
8
BLACK
6
CONTINUOUS
10
107.13
20
-156.771
11
107.13
21
-156.985
0
LINE
8
BLACK
6
CONTINUOUS
10
107.13
20
-156.985
11
107.058
21
-157.271
0
LINE
8
BLACK
6
CONTINUOUS
10
107.058
20
-157.271
11
106.987
21
-157.413
0
LINE
8
BLACK
6
CONTINUOUS
10
106.987
20
-157.413
11
106.844
21
-157.556
0
LINE
8
BLACK
6
CONTINUOUS
10
106.844
20
-157.556
11
106.63
21
-157.628
0
LINE
8
BLACK
6
CONTINUOUS
10
106.63
20
-157.628
11
106.273
21
-157.628
0
LINE
8
BLACK
6
CONTINUOUS
10
121.435
20
-168.449
11
121.435
21
-171.449
0
LINE
8
BLACK
6
CONTINUOUS
10
185.435
20
-168.449
11
185.435
21
-174.949
0
LINE
8
BLACK
6
CONTINUOUS
10
143.414
20
3.11787
11
143.418
21
3.11532
0
LINE
8
BLACK
6
CONTINUOUS
10
143.418
20
3.11532
11
143.422
21
3.1128
0
LINE
8
BLACK
6
CONTINUOUS
10
143.422
20
3.1128
11
143.8
21
2.80443
0
LINE
8
BLACK
6
CONTINUOUS
10
143.8
20
2.80443
11
143.8
21
2.80443
0
LINE
8
BLACK
6
CONTINUOUS
10
143.8
20
2.80443
11
143.8
21
2.80442
0
LINE
8
BLACK
6
CONTINUOUS
10
143.8
20
2.80442
11
143.801
21
2.80398
0
LINE
8
BLACK
6
CONTINUOUS
10
143.801
20
2.80398
11
143.804
21
2.8008
0
LINE
8
BLACK
6
CONTINUOUS
10
143.804
20
2.8008
11
143.807
21
2.79755
0
LINE
8
BLACK
6
CONTINUOUS
10
143.807
20
2.79755
11
144.118
21
2.42161
0
LINE
8
BLACK
6
CONTINUOUS
10
144.118
20
2.42161
11
144.118
21
2.42161
0
LINE
8
BLACK
6
CONTINUOUS
10
144.118
20
2.42161
11
144.118
21
2.4216
0
LINE
8
BLACK
6
CONTINUOUS
10
144.118
20
2.4216
11
144.118
21
2.42107
0
LINE
8
BLACK
6
CONTINUOUS
10
144.118
20
2.42107
11
144.121
21
2.4173
0
LINE
8
BLACK
6
CONTINUOUS
10
144.121
20
2.4173
11
144.123
21
2.41352
0
LINE
8
BLACK
6
CONTINUOUS
10
144.123
20
2.41352
11
144.355
21
1.98434
0
LINE
8
BLACK
6
CONTINUOUS
10
144.355
20
1.98434
11
144.355
21
1.98432
0
LINE
8
BLACK
6
CONTINUOUS
10
144.355
20
1.98432
11
144.355
21
1.98431
0
LINE
8
BLACK
6
CONTINUOUS
10
144.355
20
1.98431
11
144.356
21
1.98371
0
LINE
8
BLACK
6
CONTINUOUS
10
144.356
20
1.98371
11
144.357
21
1.97955
0
LINE
8
BLACK
6
CONTINUOUS
10
144.357
20
1.97955
11
144.359
21
1.97533
0
LINE
8
BLACK
6
CONTINUOUS
10
144.359
20
1.97533
11
144.504
21
1.50923
0
LINE
8
BLACK
6
CONTINUOUS
10
144.504
20
1.50923
11
144.504
21
1.50857
0
LINE
8
BLACK
6
CONTINUOUS
10
144.504
20
1.50857
11
144.505
21
1.50415
0
LINE
8
BLACK
6
CONTINUOUS
10
144.505
20
1.50415
11
144.505
21
1.49967
0
LINE
8
BLACK
6
CONTINUOUS
10
144.505
20
1.49967
11
144.556
21
1.01443
0
LINE
8
BLACK
6
CONTINUOUS
10
144.556
20
1.01443
11
144.557
21
1.01374
0
LINE
8
BLACK
6
CONTINUOUS
10
144.557
20
1.01374
11
144.557
21
1.01156
0
LINE
8
BLACK
6
CONTINUOUS
10
144.557
20
1.01156
11
144.557
21
1.00938
0
LINE
8
BLACK
6
CONTINUOUS
10
144.557
20
1.00938
11
144.557
21
0.994308
0
LINE
8
BLACK
6
CONTINUOUS
10
144.557
20
0.994308
11
144.557
21
0.994203
0
LINE
8
BLACK
6
CONTINUOUS
10
144.557
20
0.994203
11
144.557
21
-3.00712
0
LINE
8
BLACK
6
CONTINUOUS
10
144.557
20
-3.00712
11
144.583
21
-3.56732
0
LINE
8
BLACK
6
CONTINUOUS
10
144.583
20
-3.56732
11
144.754
21
-4.52811
0
LINE
8
BLACK
6
CONTINUOUS
10
144.754
20
-4.52811
11
145.08
21
-5.44722
0
LINE
8
BLACK
6
CONTINUOUS
10
145.08
20
-5.44722
11
145.551
21
-6.30083
0
LINE
8
BLACK
6
CONTINUOUS
10
145.551
20
-6.30083
11
146.155
21
-7.06602
0
LINE
8
BLACK
6
CONTINUOUS
10
146.155
20
-7.06602
11
146.877
21
-7.72224
0
LINE
8
BLACK
6
CONTINUOUS
10
146.877
20
-7.72224
11
147.695
21
-8.25185
0
LINE
8
BLACK
6
CONTINUOUS
10
147.695
20
-8.25185
11
148.589
21
-8.64065
0
LINE
8
BLACK
6
CONTINUOUS
10
148.589
20
-8.64065
11
149.535
21
-8.87818
0
LINE
8
BLACK
6
CONTINUOUS
10
149.535
20
-8.87818
11
150.509
21
-8.95824
0
LINE
8
BLACK
6
CONTINUOUS
10
150.509
20
-8.95824
11
152.509
21
-8.95824
0
LINE
8
BLACK
6
CONTINUOUS
10
152.509
20
-8.95824
11
152.517
21
-8.95897
0
LINE
8
BLACK
6
CONTINUOUS
10
152.517
20
-8.95897
11
152.517
21
-8.95897
0
LINE
8
BLACK
6
CONTINUOUS
10
152.517
20
-8.95897
11
153.289
21
-9.03466
0
LINE
8
BLACK
6
CONTINUOUS
10
153.289
20
-9.03466
11
153.289
21
-9.03466
0
LINE
8
BLACK
6
CONTINUOUS
10
153.289
20
-9.03466
11
153.289
21
-9.03467
0
LINE
8
BLACK
6
CONTINUOUS
10
153.289
20
-9.03467
11
153.289
21
-9.03474
0
LINE
8
BLACK
6
CONTINUOUS
10
153.289
20
-9.03474
11
153.294
21
-9.03567
0
LINE
8
BLACK
6
CONTINUOUS
10
153.294
20
-9.03567
11
153.298
21
-9.03656
0
LINE
8
BLACK
6
CONTINUOUS
10
153.298
20
-9.03656
11
154.046
21
-9.2622
0
LINE
8
BLACK
6
CONTINUOUS
10
154.046
20
-9.2622
11
154.046
21
-9.2624
0
LINE
8
BLACK
6
CONTINUOUS
10
154.046
20
-9.2624
11
154.05
21
-9.26418
0
LINE
8
BLACK
6
CONTINUOUS
10
154.05
20
-9.26418
11
154.055
21
-9.26591
0
LINE
8
BLACK
6
CONTINUOUS
10
154.055
20
-9.26591
11
154.744
21
-9.63241
0
LINE
8
BLACK
6
CONTINUOUS
10
154.744
20
-9.63241
11
154.744
21
-9.63241
0
LINE
8
BLACK
6
CONTINUOUS
10
154.744
20
-9.63241
11
154.744
21
-9.63275
0
LINE
8
BLACK
6
CONTINUOUS
10
154.744
20
-9.63275
11
154.748
21
-9.6353
0
LINE
8
BLACK
6
CONTINUOUS
10
154.748
20
-9.6353
11
154.752
21
-9.63781
0
LINE
8
BLACK
6
CONTINUOUS
10
154.752
20
-9.63781
11
155.357
21
-10.1312
0
LINE
8
BLACK
6
CONTINUOUS
10
155.357
20
-10.1312
11
155.357
21
-10.1317
0
LINE
8
BLACK
6
CONTINUOUS
10
155.357
20
-10.1317
11
155.361
21
-10.1349
0
LINE
8
BLACK
6
CONTINUOUS
10
155.361
20
-10.1349
11
155.364
21
-10.1381
0
LINE
8
BLACK
6
CONTINUOUS
10
155.364
20
-10.1381
11
155.861
21
-10.7396
0
LINE
8
BLACK
6
CONTINUOUS
10
155.861
20
-10.7396
11
155.861
21
-10.7396
0
LINE
8
BLACK
6
CONTINUOUS
10
155.861
20
-10.7396
11
155.861
21
-10.7396
0
LINE
8
BLACK
6
CONTINUOUS
10
155.861
20
-10.7396
11
155.862
21
-10.7401
0
LINE
8
BLACK
6
CONTINUOUS
10
155.862
20
-10.7401
11
155.864
21
-10.7439
0
LINE
8
BLACK
6
CONTINUOUS
10
155.864
20
-10.7439
11
155.867
21
-10.7477
0
LINE
8
BLACK
6
CONTINUOUS
10
155.867
20
-10.7477
11
156.238
21
-11.4344
0
LINE
8
BLACK
6
CONTINUOUS
10
156.238
20
-11.4344
11
156.238
21
-11.4344
0
LINE
8
BLACK
6
CONTINUOUS
10
156.238
20
-11.4344
11
156.238
21
-11.4344
0
LINE
8
BLACK
6
CONTINUOUS
10
156.238
20
-11.4344
11
156.239
21
-11.435
0
LINE
8
BLACK
6
CONTINUOUS
10
156.239
20
-11.435
11
156.24
21
-11.4392
0
LINE
8
BLACK
6
CONTINUOUS
10
156.24
20
-11.4392
11
156.242
21
-11.4434
0
LINE
8
BLACK
6
CONTINUOUS
10
156.242
20
-11.4434
11
156.473
21
-12.1891
0
LINE
8
BLACK
6
CONTINUOUS
10
156.473
20
-12.1891
11
156.473
21
-12.1898
0
LINE
8
BLACK
6
CONTINUOUS
10
156.473
20
-12.1898
11
156.474
21
-12.1942
0
LINE
8
BLACK
6
CONTINUOUS
10
156.474
20
-12.1942
11
156.475
21
-12.1987
0
LINE
8
BLACK
6
CONTINUOUS
10
156.475
20
-12.1987
11
156.556
21
-12.9751
0
LINE
8
BLACK
6
CONTINUOUS
10
156.556
20
-12.9751
11
156.557
21
-12.9758
0
LINE
8
BLACK
6
CONTINUOUS
10
156.557
20
-12.9758
11
156.556
21
-12.978
0
LINE
8
BLACK
6
CONTINUOUS
10
156.556
20
-12.978
11
156.557
21
-12.9801
0
LINE
8
BLACK
6
CONTINUOUS
10
156.557
20
-12.9801
11
156.557
21
-13.0057
0
LINE
8
BLACK
6
CONTINUOUS
10
156.557
20
-13.0057
11
156.557
21
-13.0058
0
LINE
8
BLACK
6
CONTINUOUS
10
156.557
20
-13.0058
11
156.557
21
-134.511
0
LINE
8
BLACK
6
CONTINUOUS
10
156.557
20
-134.511
11
156.556
21
-134.518
0
LINE
8
BLACK
6
CONTINUOUS
10
156.556
20
-134.518
11
156.556
21
-134.518
0
LINE
8
BLACK
6
CONTINUOUS
10
156.556
20
-134.518
11
156.509
21
-134.999
0
LINE
8
BLACK
6
CONTINUOUS
10
156.509
20
-134.999
11
156.509
21
-134.999
0
LINE
8
BLACK
6
CONTINUOUS
10
156.509
20
-134.999
11
156.509
21
-134.999
0
LINE
8
BLACK
6
CONTINUOUS
10
156.509
20
-134.999
11
156.509
21
-134.999
0
LINE
8
BLACK
6
CONTINUOUS
10
156.509
20
-134.999
11
156.508
21
-135.004
0
LINE
8
BLACK
6
CONTINUOUS
10
156.508
20
-135.004
11
156.507
21
-135.008
0
LINE
8
BLACK
6
CONTINUOUS
10
156.507
20
-135.008
11
156.366
21
-135.475
0
LINE
8
BLACK
6
CONTINUOUS
10
156.366
20
-135.475
11
156.366
21
-135.475
0
LINE
8
BLACK
6
CONTINUOUS
10
156.366
20
-135.475
11
156.366
21
-135.475
0
LINE
8
BLACK
6
CONTINUOUS
10
156.366
20
-135.475
11
156.366
21
-135.476
0
LINE
8
BLACK
6
CONTINUOUS
10
156.366
20
-135.476
11
156.364
21
-135.48
0
LINE
8
BLACK
6
CONTINUOUS
10
156.364
20
-135.48
11
156.362
21
-135.484
0
LINE
8
BLACK
6
CONTINUOUS
10
156.362
20
-135.484
11
156.133
21
-135.915
0
LINE
8
BLACK
6
CONTINUOUS
10
156.133
20
-135.915
11
156.133
21
-135.916
0
LINE
8
BLACK
6
CONTINUOUS
10
156.133
20
-135.916
11
156.13
21
-135.92
0
LINE
8
BLACK
6
CONTINUOUS
10
156.13
20
-135.92
11
156.128
21
-135.923
0
LINE
8
BLACK
6
CONTINUOUS
10
156.128
20
-135.923
11
155.819
21
-136.301
0
LINE
8
BLACK
6
CONTINUOUS
10
155.819
20
-136.301
11
155.819
21
-136.301
0
LINE
8
BLACK
6
CONTINUOUS
10
155.819
20
-136.301
11
155.819
21
-136.301
0
LINE
8
BLACK
6
CONTINUOUS
10
155.819
20
-136.301
11
155.819
21
-136.302
0
LINE
8
BLACK
6
CONTINUOUS
10
155.819
20
-136.302
11
155.816
21
-136.305
0
LINE
8
BLACK
6
CONTINUOUS
10
155.816
20
-136.305
11
155.813
21
-136.308
0
LINE
8
BLACK
6
CONTINUOUS
10
155.813
20
-136.308
11
155.437
21
-136.619
0
LINE
8
BLACK
6
CONTINUOUS
10
155.437
20
-136.619
11
155.436
21
-136.62
0
LINE
8
BLACK
6
CONTINUOUS
10
155.436
20
-136.62
11
155.432
21
-136.622
0
LINE
8
BLACK
6
CONTINUOUS
10
155.432
20
-136.622
11
155.429
21
-136.625
0
LINE
8
BLACK
6
CONTINUOUS
10
155.429
20
-136.625
11
154.999
21
-136.857
0
LINE
8
BLACK
6
CONTINUOUS
10
154.999
20
-136.857
11
154.999
21
-136.857
0
LINE
8
BLACK
6
CONTINUOUS
10
154.999
20
-136.857
11
154.999
21
-136.857
0
LINE
8
BLACK
6
CONTINUOUS
10
154.999
20
-136.857
11
154.999
21
-136.857
0
LINE
8
BLACK
6
CONTINUOUS
10
154.999
20
-136.857
11
154.995
21
-136.859
0
LINE
8
BLACK
6
CONTINUOUS
10
154.995
20
-136.859
11
154.99
21
-136.861
0
LINE
8
BLACK
6
CONTINUOUS
10
154.99
20
-136.861
11
154.524
21
-137.005
0
LINE
8
BLACK
6
CONTINUOUS
10
154.524
20
-137.005
11
154.524
21
-137.005
0
LINE
8
BLACK
6
CONTINUOUS
10
154.524
20
-137.005
11
154.524
21
-137.005
0
LINE
8
BLACK
6
CONTINUOUS
10
154.524
20
-137.005
11
154.519
21
-137.006
0
LINE
8
BLACK
6
CONTINUOUS
10
154.519
20
-137.006
11
154.515
21
-137.007
0
LINE
8
BLACK
6
CONTINUOUS
10
154.515
20
-137.007
11
154.029
21
-137.058
0
LINE
8
BLACK
6
CONTINUOUS
10
154.029
20
-137.058
11
154.029
21
-137.058
0
LINE
8
BLACK
6
CONTINUOUS
10
154.029
20
-137.058
11
154.027
21
-137.058
0
LINE
8
BLACK
6
CONTINUOUS
10
154.027
20
-137.058
11
154.024
21
-137.058
0
LINE
8
BLACK
6
CONTINUOUS
10
154.024
20
-137.058
11
154.009
21
-137.058
0
LINE
8
BLACK
6
CONTINUOUS
10
154.009
20
-137.058
11
154.009
21
-137.058
0
LINE
8
BLACK
6
CONTINUOUS
10
154.009
20
-137.058
11
-12.9956
21
-137.058
0
LINE
8
BLACK
6
CONTINUOUS
10
-12.9956
20
-137.058
11
-13.003
21
-137.058
0
LINE
8
BLACK
6
CONTINUOUS
10
-13.003
20
-137.058
11
-13.003
21
-137.058
0
LINE
8
BLACK
6
CONTINUOUS
10
-13.003
20
-137.058
11
-13.4836
21
-137.01
0
LINE
8
BLACK
6
CONTINUOUS
10
-13.4836
20
-137.01
11
-13.4837
21
-137.01
0
LINE
8
BLACK
6
CONTINUOUS
10
-13.4837
20
-137.01
11
-13.4837
21
-137.01
0
LINE
8
BLACK
6
CONTINUOUS
10
-13.4837
20
-137.01
11
-13.4844
21
-137.01
0
LINE
8
BLACK
6
CONTINUOUS
10
-13.4844
20
-137.01
11
-13.4887
21
-137.009
0
LINE
8
BLACK
6
CONTINUOUS
10
-13.4887
20
-137.009
11
-13.4932
21
-137.008
0
LINE
8
BLACK
6
CONTINUOUS
10
-13.4932
20
-137.008
11
-13.9603
21
-136.867
0
LINE
8
BLACK
6
CONTINUOUS
10
-13.9603
20
-136.867
11
-13.9603
21
-136.867
0
LINE
8
BLACK
6
CONTINUOUS
10
-13.9603
20
-136.867
11
-13.9603
21
-136.867
0
LINE
8
BLACK
6
CONTINUOUS
10
-13.9603
20
-136.867
11
-13.961
21
-136.867
0
LINE
8
BLACK
6
CONTINUOUS
10
-13.961
20
-136.867
11
-13.9651
21
-136.866
0
LINE
8
BLACK
6
CONTINUOUS
10
-13.9651
20
-136.866
11
-13.9693
21
-136.864
0
LINE
8
BLACK
6
CONTINUOUS
10
-13.9693
20
-136.864
11
-14.4001
21
-136.635
0
LINE
8
BLACK
6
CONTINUOUS
10
-14.4001
20
-136.635
11
-14.4002
21
-136.635
0
LINE
8
BLACK
6
CONTINUOUS
10
-14.4002
20
-136.635
11
-14.4008
21
-136.634
0
LINE
8
BLACK
6
CONTINUOUS
10
-14.4008
20
-136.634
11
-14.4045
21
-136.632
0
LINE
8
BLACK
6
CONTINUOUS
10
-14.4045
20
-136.632
11
-14.4083
21
-136.629
0
LINE
8
BLACK
6
CONTINUOUS
10
-14.4083
20
-136.629
11
-14.7864
21
-136.321
0
LINE
8
BLACK
6
CONTINUOUS
10
-14.7864
20
-136.321
11
-14.7864
21
-136.321
0
LINE
8
BLACK
6
CONTINUOUS
10
-14.7864
20
-136.321
11
-14.7864
21
-136.321
0
LINE
8
BLACK
6
CONTINUOUS
10
-14.7864
20
-136.321
11
-14.7869
21
-136.32
0
LINE
8
BLACK
6
CONTINUOUS
10
-14.7869
20
-136.32
11
-14.7901
21
-136.317
0
LINE
8
BLACK
6
CONTINUOUS
10
-14.7901
20
-136.317
11
-14.7933
21
-136.314
0
LINE
8
BLACK
6
CONTINUOUS
10
-14.7933
20
-136.314
11
-15.1043
21
-135.938
0
LINE
8
BLACK
6
CONTINUOUS
10
-15.1043
20
-135.938
11
-15.1048
21
-135.938
0
LINE
8
BLACK
6
CONTINUOUS
10
-15.1048
20
-135.938
11
-15.1072
21
-135.934
0
LINE
8
BLACK
6
CONTINUOUS
10
-15.1072
20
-135.934
11
-15.1098
21
-135.93
0
LINE
8
BLACK
6
CONTINUOUS
10
-15.1098
20
-135.93
11
-15.3418
21
-135.501
0
LINE
8
BLACK
6
CONTINUOUS
10
-15.3418
20
-135.501
11
-15.3418
21
-135.501
0
LINE
8
BLACK
6
CONTINUOUS
10
-15.3418
20
-135.501
11
-15.3418
21
-135.501
0
LINE
8
BLACK
6
CONTINUOUS
10
-15.3418
20
-135.501
11
-15.3422
21
-135.5
0
LINE
8
BLACK
6
CONTINUOUS
10
-15.3422
20
-135.5
11
-15.3439
21
-135.496
0
LINE
8
BLACK
6
CONTINUOUS
10
-15.3439
20
-135.496
11
-15.3456
21
-135.492
0
LINE
8
BLACK
6
CONTINUOUS
10
-15.3456
20
-135.492
11
-15.4899
21
-135.026
0
LINE
8
BLACK
6
CONTINUOUS
10
-15.4899
20
-135.026
11
-15.4901
21
-135.025
0
LINE
8
BLACK
6
CONTINUOUS
10
-15.4901
20
-135.025
11
-15.4909
21
-135.021
0
LINE
8
BLACK
6
CONTINUOUS
10
-15.4909
20
-135.021
11
-15.4919
21
-135.016
0
LINE
8
BLACK
6
CONTINUOUS
10
-15.4919
20
-135.016
11
-15.5429
21
-134.531
0
LINE
8
BLACK
6
CONTINUOUS
10
-15.5429
20
-134.531
11
-15.5429
21
-134.53
0
LINE
8
BLACK
6
CONTINUOUS
10
-15.5429
20
-134.53
11
-15.5429
21
-134.528
0
LINE
8
BLACK
6
CONTINUOUS
10
-15.5429
20
-134.528
11
-15.5431
21
-134.526
0
LINE
8
BLACK
6
CONTINUOUS
10
-15.5431
20
-134.526
11
-15.5432
21
-134.511
0
LINE
8
BLACK
6
CONTINUOUS
10
-15.5432
20
-134.511
11
-15.5432
21
-134.511
0
LINE
8
BLACK
6
CONTINUOUS
10
-15.5432
20
-134.511
11
-15.5432
21
-13.0058
0
LINE
8
BLACK
6
CONTINUOUS
10
-15.5432
20
-13.0058
11
-15.5428
21
-13.0022
0
LINE
8
BLACK
6
CONTINUOUS
10
-15.5428
20
-13.0022
11
-15.4668
21
-12.2264
0
LINE
8
BLACK
6
CONTINUOUS
10
-15.4668
20
-12.2264
11
-15.4668
21
-12.2264
0
LINE
8
BLACK
6
CONTINUOUS
10
-15.4668
20
-12.2264
11
-15.4668
21
-12.2264
0
LINE
8
BLACK
6
CONTINUOUS
10
-15.4668
20
-12.2264
11
-15.4667
21
-12.2257
0
LINE
8
BLACK
6
CONTINUOUS
10
-15.4667
20
-12.2257
11
-15.4658
21
-12.2213
0
LINE
8
BLACK
6
CONTINUOUS
10
-15.4658
20
-12.2213
11
-15.4649
21
-12.2169
0
LINE
8
BLACK
6
CONTINUOUS
10
-15.4649
20
-12.2169
11
-15.2392
21
-11.4695
0
LINE
8
BLACK
6
CONTINUOUS
10
-15.2392
20
-11.4695
11
-15.239
21
-11.4688
0
LINE
8
BLACK
6
CONTINUOUS
10
-15.239
20
-11.4688
11
-15.2373
21
-11.4647
0
LINE
8
BLACK
6
CONTINUOUS
10
-15.2373
20
-11.4647
11
-15.2355
21
-11.4605
0
LINE
8
BLACK
6
CONTINUOUS
10
-15.2355
20
-11.4605
11
-14.869
21
-10.7712
0
LINE
8
BLACK
6
CONTINUOUS
10
-14.869
20
-10.7712
11
-14.8687
21
-10.7706
0
LINE
8
BLACK
6
CONTINUOUS
10
-14.8687
20
-10.7706
11
-14.8661
21
-10.7669
0
LINE
8
BLACK
6
CONTINUOUS
10
-14.8661
20
-10.7669
11
-14.8636
21
-10.7631
0
LINE
8
BLACK
6
CONTINUOUS
10
-14.8636
20
-10.7631
11
-14.3702
21
-10.1581
0
LINE
8
BLACK
6
CONTINUOUS
10
-14.3702
20
-10.1581
11
-14.3698
21
-10.1576
0
LINE
8
BLACK
6
CONTINUOUS
10
-14.3698
20
-10.1576
11
-14.3666
21
-10.1544
0
LINE
8
BLACK
6
CONTINUOUS
10
-14.3666
20
-10.1544
11
-14.3633
21
-10.1512
0
LINE
8
BLACK
6
CONTINUOUS
10
-14.3633
20
-10.1512
11
-13.7618
21
-9.65358
0
LINE
8
BLACK
6
CONTINUOUS
10
-13.7618
20
-9.65358
11
-13.7618
21
-9.65357
0
LINE
8
BLACK
6
CONTINUOUS
10
-13.7618
20
-9.65357
11
-13.7618
21
-9.65357
0
LINE
8
BLACK
6
CONTINUOUS
10
-13.7618
20
-9.65357
11
-13.7613
21
-9.65313
0
LINE
8
BLACK
6
CONTINUOUS
10
-13.7613
20
-9.65313
11
-13.7575
21
-9.65066
0
LINE
8
BLACK
6
CONTINUOUS
10
-13.7575
20
-9.65066
11
-13.7537
21
-9.64811
0
LINE
8
BLACK
6
CONTINUOUS
10
-13.7537
20
-9.64811
11
-13.0671
21
-9.27682
0
LINE
8
BLACK
6
CONTINUOUS
10
-13.0671
20
-9.27682
11
-13.067
21
-9.27681
0
LINE
8
BLACK
6
CONTINUOUS
10
-13.067
20
-9.27681
11
-13.067
21
-9.2768
0
LINE
8
BLACK
6
CONTINUOUS
10
-13.067
20
-9.2768
11
-13.0664
21
-9.27648
0
LINE
8
BLACK
6
CONTINUOUS
10
-13.0664
20
-9.27648
11
-13.0623
21
-9.2748
0
LINE
8
BLACK
6
CONTINUOUS
10
-13.0623
20
-9.2748
11
-13.058
21
-9.27303
0
LINE
8
BLACK
6
CONTINUOUS
10
-13.058
20
-9.27303
11
-12.3123
21
-9.04218
0
LINE
8
BLACK
6
CONTINUOUS
10
-12.3123
20
-9.04218
11
-12.3116
21
-9.04198
0
LINE
8
BLACK
6
CONTINUOUS
10
-12.3116
20
-9.04198
11
-12.3072
21
-9.04113
0
LINE
8
BLACK
6
CONTINUOUS
10
-12.3072
20
-9.04113
11
-12.3027
21
-9.04022
0
LINE
8
BLACK
6
CONTINUOUS
10
-12.3027
20
-9.04022
11
-11.5263
21
-8.95862
0
LINE
8
BLACK
6
CONTINUOUS
10
-11.5263
20
-8.95862
11
-11.5256
21
-8.95855
0
LINE
8
BLACK
6
CONTINUOUS
10
-11.5256
20
-8.95855
11
-11.5235
21
-8.95856
0
LINE
8
BLACK
6
CONTINUOUS
10
-11.5235
20
-8.95856
11
-11.5213
21
-8.95834
0
LINE
8
BLACK
6
CONTINUOUS
10
-11.5213
20
-8.95834
11
-11.4958
21
-8.95825
0
LINE
8
BLACK
6
CONTINUOUS
10
-11.4958
20
-8.95825
11
-11.4956
21
-8.95824
0
LINE
8
BLACK
6
CONTINUOUS
10
-11.4956
20
-8.95824
11
-9.4943
21
-8.95824
0
LINE
8
BLACK
6
CONTINUOUS
10
-9.4943
20
-8.95824
11
-8.93412
21
-8.93182
0
LINE
8
BLACK
6
CONTINUOUS
10
-8.93412
20
-8.93182
11
-7.97333
21
-8.76068
0
LINE
8
BLACK
6
CONTINUOUS
10
-7.97333
20
-8.76068
11
-7.05422
21
-8.43521
0
LINE
8
BLACK
6
CONTINUOUS
10
-7.05422
20
-8.43521
11
-6.20061
21
-7.96399
0
LINE
8
BLACK
6
CONTINUOUS
10
-6.20061
20
-7.96399
11
-5.43542
21
-7.35968
0
LINE
8
BLACK
6
CONTINUOUS
10
-5.43542
20
-7.35968
11
-4.7792
21
-6.6385
0
LINE
8
BLACK
6
CONTINUOUS
10
-4.7792
20
-6.6385
11
-4.24959
21
-5.81984
0
LINE
8
BLACK
6
CONTINUOUS
10
-4.24959
20
-5.81984
11
-3.86079
21
-4.92567
0
LINE
8
BLACK
6
CONTINUOUS
10
-3.86079
20
-4.92567
11
-3.62326
21
-3.98001
0
LINE
8
BLACK
6
CONTINUOUS
10
-3.62326
20
-3.98001
11
-3.54319
21
-3.00619
0
LINE
8
BLACK
6
CONTINUOUS
10
-3.54319
20
-3.00619
11
-3.54319
21
0.994203
0
LINE
8
BLACK
6
CONTINUOUS
10
-3.54319
20
0.994203
11
-3.54295
21
0.99662
0
LINE
8
BLACK
6
CONTINUOUS
10
-3.54295
20
0.99662
11
-3.54295
21
0.996633
0
LINE
8
BLACK
6
CONTINUOUS
10
-3.54295
20
0.996633
11
-3.49534
21
1.48221
0
LINE
8
BLACK
6
CONTINUOUS
10
-3.49534
20
1.48221
11
-3.49534
21
1.48222
0
LINE
8
BLACK
6
CONTINUOUS
10
-3.49534
20
1.48222
11
-3.49534
21
1.48223
0
LINE
8
BLACK
6
CONTINUOUS
10
-3.49534
20
1.48223
11
-3.49527
21
1.48291
0
LINE
8
BLACK
6
CONTINUOUS
10
-3.49527
20
1.48291
11
-3.49434
21
1.4873
0
LINE
8
BLACK
6
CONTINUOUS
10
-3.49434
20
1.4873
11
-3.49345
21
1.49179
0
LINE
8
BLACK
6
CONTINUOUS
10
-3.49345
20
1.49179
11
-3.35242
21
1.95888
0
LINE
8
BLACK
6
CONTINUOUS
10
-3.35242
20
1.95888
11
-3.35222
21
1.95955
0
LINE
8
BLACK
6
CONTINUOUS
10
-3.35222
20
1.95955
11
-3.35043
21
1.96373
0
LINE
8
BLACK
6
CONTINUOUS
10
-3.35043
20
1.96373
11
-3.34871
21
1.9679
0
LINE
8
BLACK
6
CONTINUOUS
10
-3.34871
20
1.9679
11
-3.11964
21
2.39871
0
LINE
8
BLACK
6
CONTINUOUS
10
-3.11964
20
2.39871
11
-3.11931
21
2.39932
0
LINE
8
BLACK
6
CONTINUOUS
10
-3.11931
20
2.39932
11
-3.11676
21
2.40305
0
LINE
8
BLACK
6
CONTINUOUS
10
-3.11676
20
2.40305
11
-3.11424
21
2.40683
0
LINE
8
BLACK
6
CONTINUOUS
10
-3.11424
20
2.40683
11
-2.80587
21
2.78493
0
LINE
8
BLACK
6
CONTINUOUS
10
-2.80587
20
2.78493
11
-2.80587
21
2.78494
0
LINE
8
BLACK
6
CONTINUOUS
10
-2.80587
20
2.78494
11
-2.80586
21
2.78495
0
LINE
8
BLACK
6
CONTINUOUS
10
-2.80586
20
2.78495
11
-2.80542
21
2.78548
0
LINE
8
BLACK
6
CONTINUOUS
10
-2.80542
20
2.78548
11
-2.80224
21
2.7886
0
LINE
8
BLACK
6
CONTINUOUS
10
-2.80224
20
2.7886
11
-2.79899
21
2.79187
0
LINE
8
BLACK
6
CONTINUOUS
10
-2.79899
20
2.79187
11
-2.42305
21
3.10287
0
LINE
8
BLACK
6
CONTINUOUS
10
-2.42305
20
3.10287
11
-2.42305
21
3.10287
0
LINE
8
BLACK
6
CONTINUOUS
10
-2.42305
20
3.10287
11
-2.42304
21
3.10288
0
LINE
8
BLACK
6
CONTINUOUS
10
-2.42304
20
3.10288
11
-2.42251
21
3.10331
0
LINE
8
BLACK
6
CONTINUOUS
10
-2.42251
20
3.10331
11
-2.41874
21
3.10578
0
LINE
8
BLACK
6
CONTINUOUS
10
-2.41874
20
3.10578
11
-2.41496
21
3.10833
0
LINE
8
BLACK
6
CONTINUOUS
10
-2.41496
20
3.10833
11
-1.98578
21
3.34039
0
LINE
8
BLACK
6
CONTINUOUS
10
-1.98578
20
3.34039
11
-1.98577
21
3.3404
0
LINE
8
BLACK
6
CONTINUOUS
10
-1.98577
20
3.3404
11
-1.98575
21
3.3404
0
LINE
8
BLACK
6
CONTINUOUS
10
-1.98575
20
3.3404
11
-1.98515
21
3.34072
0
LINE
8
BLACK
6
CONTINUOUS
10
-1.98515
20
3.34072
11
-1.98099
21
3.3424
0
LINE
8
BLACK
6
CONTINUOUS
10
-1.98099
20
3.3424
11
-1.97677
21
3.34418
0
LINE
8
BLACK
6
CONTINUOUS
10
-1.97677
20
3.34418
11
-1.51067
21
3.48846
0
LINE
8
BLACK
6
CONTINUOUS
10
-1.51067
20
3.48846
11
-1.51001
21
3.48866
0
LINE
8
BLACK
6
CONTINUOUS
10
-1.51001
20
3.48866
11
-1.50559
21
3.4895
0
LINE
8
BLACK
6
CONTINUOUS
10
-1.50559
20
3.4895
11
-1.50111
21
3.49042
0
LINE
8
BLACK
6
CONTINUOUS
10
-1.50111
20
3.49042
11
-1.01587
21
3.54142
0
LINE
8
BLACK
6
CONTINUOUS
10
-1.01587
20
3.54142
11
-1.01518
21
3.54149
0
LINE
8
BLACK
6
CONTINUOUS
10
-1.01518
20
3.54149
11
-1.013
21
3.54147
0
LINE
8
BLACK
6
CONTINUOUS
10
-1.013
20
3.54147
11
-1.01082
21
3.54169
0
LINE
8
BLACK
6
CONTINUOUS
10
-1.01082
20
3.54169
11
-0.995707
21
3.54175
0
LINE
8
BLACK
6
CONTINUOUS
10
-0.995707
20
3.54175
11
-0.995644
21
3.54175
0
LINE
8
BLACK
6
CONTINUOUS
10
-0.995644
20
3.54175
11
-0.993941
21
3.54175
0
LINE
8
BLACK
6
CONTINUOUS
10
-0.993941
20
3.54175
11
-0.993369
21
3.54175
0
LINE
8
BLACK
6
CONTINUOUS
10
-0.993369
20
3.54175
11
-0.992904
21
3.54175
0
LINE
8
BLACK
6
CONTINUOUS
10
-0.992904
20
3.54175
11
142.009
21
3.54175
0
LINE
8
BLACK
6
CONTINUOUS
10
142.009
20
3.54175
11
142.012
21
3.54151
0
LINE
8
BLACK
6
CONTINUOUS
10
142.012
20
3.54151
11
142.012
21
3.54151
0
LINE
8
BLACK
6
CONTINUOUS
10
142.012
20
3.54151
11
142.497
21
3.4939
0
LINE
8
BLACK
6
CONTINUOUS
10
142.497
20
3.4939
11
142.497
21
3.4939
0
LINE
8
BLACK
6
CONTINUOUS
10
142.497
20
3.4939
11
142.497
21
3.4939
0
LINE
8
BLACK
6
CONTINUOUS
10
142.497
20
3.4939
11
142.498
21
3.49383
0
LINE
8
BLACK
6
CONTINUOUS
10
142.498
20
3.49383
11
142.502
21
3.4929
0
LINE
8
BLACK
6
CONTINUOUS
10
142.502
20
3.4929
11
142.507
21
3.49201
0
LINE
8
BLACK
6
CONTINUOUS
10
142.507
20
3.49201
11
142.974
21
3.35098
0
LINE
8
BLACK
6
CONTINUOUS
10
142.974
20
3.35098
11
142.975
21
3.35078
0
LINE
8
BLACK
6
CONTINUOUS
10
142.975
20
3.35078
11
142.979
21
3.34899
0
LINE
8
BLACK
6
CONTINUOUS
10
142.979
20
3.34899
11
142.983
21
3.34727
0
LINE
8
BLACK
6
CONTINUOUS
10
142.983
20
3.34727
11
143.414
21
3.11821
0
LINE
8
BLACK
6
CONTINUOUS
10
143.414
20
3.11821
11
143.414
21
3.1182
0
LINE
8
BLACK
6
CONTINUOUS
10
143.414
20
3.1182
11
143.414
21
3.11787
0
LINE
8
BLACK
6
CONTINUOUS
10
-0.993591
20
3.44175
11
-1.00794
21
3.4417
0
LINE
8
BLACK
6
CONTINUOUS
10
-1.00794
20
3.4417
11
-1.48579
21
3.39148
0
LINE
8
BLACK
6
CONTINUOUS
10
-1.48579
20
3.39148
11
-1.94251
21
3.2501
0
LINE
8
BLACK
6
CONTINUOUS
10
-1.94251
20
3.2501
11
-2.36308
21
3.0227
0
LINE
8
BLACK
6
CONTINUOUS
10
-2.36308
20
3.0227
11
-2.73147
21
2.71794
0
LINE
8
BLACK
6
CONTINUOUS
10
-2.73147
20
2.71794
11
-3.03365
21
2.34743
0
LINE
8
BLACK
6
CONTINUOUS
10
-3.03365
20
2.34743
11
-3.25811
21
1.92529
0
LINE
8
BLACK
6
CONTINUOUS
10
-3.25811
20
1.92529
11
-3.3963
21
1.46758
0
LINE
8
BLACK
6
CONTINUOUS
10
-3.3963
20
1.46758
11
-3.44319
21
0.989313
0
LINE
8
BLACK
6
CONTINUOUS
10
-3.44319
20
0.989313
11
-3.44319
21
-3.01069
0
LINE
8
BLACK
6
CONTINUOUS
10
-3.44319
20
-3.01069
11
-3.44339
21
-3.01269
0
LINE
8
BLACK
6
CONTINUOUS
10
-3.44339
20
-3.01269
11
-3.52393
21
-3.9923
0
LINE
8
BLACK
6
CONTINUOUS
10
-3.52393
20
-3.9923
11
-3.52404
21
-3.99352
0
LINE
8
BLACK
6
CONTINUOUS
10
-3.52404
20
-3.99352
11
-3.5247
21
-3.99693
0
LINE
8
BLACK
6
CONTINUOUS
10
-3.5247
20
-3.99693
11
-3.52527
21
-4.00038
0
LINE
8
BLACK
6
CONTINUOUS
10
-3.52527
20
-4.00038
11
-3.7648
21
-4.95402
0
LINE
8
BLACK
6
CONTINUOUS
10
-3.7648
20
-4.95402
11
-3.76512
21
-4.9552
0
LINE
8
BLACK
6
CONTINUOUS
10
-3.76512
20
-4.9552
11
-3.76631
21
-4.95846
0
LINE
8
BLACK
6
CONTINUOUS
10
-3.76631
20
-4.95846
11
-3.76744
21
-4.96178
0
LINE
8
BLACK
6
CONTINUOUS
10
-3.76744
20
-4.96178
11
-4.15952
21
-5.86349
0
LINE
8
BLACK
6
CONTINUOUS
10
-4.15952
20
-5.86349
11
-4.16002
21
-5.8646
0
LINE
8
BLACK
6
CONTINUOUS
10
-4.16002
20
-5.8646
11
-4.16174
21
-5.86763
0
LINE
8
BLACK
6
CONTINUOUS
10
-4.16174
20
-5.86763
11
-4.16339
21
-5.87071
0
LINE
8
BLACK
6
CONTINUOUS
10
-4.16339
20
-5.87071
11
-4.69747
21
-6.69628
0
LINE
8
BLACK
6
CONTINUOUS
10
-4.69747
20
-6.69628
11
-4.69815
21
-6.69729
0
LINE
8
BLACK
6
CONTINUOUS
10
-4.69815
20
-6.69729
11
-4.70035
21
-6.70001
0
LINE
8
BLACK
6
CONTINUOUS
10
-4.70035
20
-6.70001
11
-4.70247
21
-6.70277
0
LINE
8
BLACK
6
CONTINUOUS
10
-4.70247
20
-6.70277
11
-5.36422
21
-7.43002
0
LINE
8
BLACK
6
CONTINUOUS
10
-5.36422
20
-7.43002
11
-5.36506
21
-7.43091
0
LINE
8
BLACK
6
CONTINUOUS
10
-5.36506
20
-7.43091
11
-5.36765
21
-7.43321
0
LINE
8
BLACK
6
CONTINUOUS
10
-5.36765
20
-7.43321
11
-5.37021
21
-7.43561
0
LINE
8
BLACK
6
CONTINUOUS
10
-5.37021
20
-7.43561
11
-6.14186
21
-8.04501
0
LINE
8
BLACK
6
CONTINUOUS
10
-6.14186
20
-8.04501
11
-6.14282
21
-8.04576
0
LINE
8
BLACK
6
CONTINUOUS
10
-6.14282
20
-8.04576
11
-6.14576
21
-8.04761
0
LINE
8
BLACK
6
CONTINUOUS
10
-6.14576
20
-8.04761
11
-6.14868
21
-8.04955
0
LINE
8
BLACK
6
CONTINUOUS
10
-6.14868
20
-8.04955
11
-7.00948
21
-8.52473
0
LINE
8
BLACK
6
CONTINUOUS
10
-7.00948
20
-8.52473
11
-7.00949
21
-8.52474
0
LINE
8
BLACK
6
CONTINUOUS
10
-7.00949
20
-8.52474
11
-7.0095
21
-8.52475
0
LINE
8
BLACK
6
CONTINUOUS
10
-7.0095
20
-8.52475
11
-7.01057
21
-8.52532
0
LINE
8
BLACK
6
CONTINUOUS
10
-7.01057
20
-8.52532
11
-7.01377
21
-8.52666
0
LINE
8
BLACK
6
CONTINUOUS
10
-7.01377
20
-8.52666
11
-7.01697
21
-8.5281
0
LINE
8
BLACK
6
CONTINUOUS
10
-7.01697
20
-8.5281
11
-7.94382
21
-8.85632
0
LINE
8
BLACK
6
CONTINUOUS
10
-7.94382
20
-8.85632
11
-7.94383
21
-8.85632
0
LINE
8
BLACK
6
CONTINUOUS
10
-7.94383
20
-8.85632
11
-7.94383
21
-8.85632
0
LINE
8
BLACK
6
CONTINUOUS
10
-7.94383
20
-8.85632
11
-7.94499
21
-8.85671
0
LINE
8
BLACK
6
CONTINUOUS
10
-7.94499
20
-8.85671
11
-7.94836
21
-8.85752
0
LINE
8
BLACK
6
CONTINUOUS
10
-7.94836
20
-8.85752
11
-7.95175
21
-8.85841
0
LINE
8
BLACK
6
CONTINUOUS
10
-7.95175
20
-8.85841
11
-8.91978
21
-9.03084
0
LINE
8
BLACK
6
CONTINUOUS
10
-8.91978
20
-9.03084
11
-8.92098
21
-9.03104
0
LINE
8
BLACK
6
CONTINUOUS
10
-8.92098
20
-9.03104
11
-8.92359
21
-9.03123
0
LINE
8
BLACK
6
CONTINUOUS
10
-8.92359
20
-9.03123
11
-8.92619
21
-9.03156
0
LINE
8
BLACK
6
CONTINUOUS
10
-8.92619
20
-9.03156
11
-9.48962
21
-9.05813
0
LINE
8
BLACK
6
CONTINUOUS
10
-9.48962
20
-9.05813
11
-9.49074
21
-9.05824
0
LINE
8
BLACK
6
CONTINUOUS
10
-9.49074
20
-9.05824
11
-11.493
21
-9.05824
0
LINE
8
BLACK
6
CONTINUOUS
10
-11.493
20
-9.05824
11
-11.493
21
-9.05825
0
LINE
8
BLACK
6
CONTINUOUS
10
-11.493
20
-9.05825
11
-11.5184
21
-9.05833
0
LINE
8
BLACK
6
CONTINUOUS
10
-11.5184
20
-9.05833
11
-12.2874
21
-9.13916
0
LINE
8
BLACK
6
CONTINUOUS
10
-12.2874
20
-9.13916
11
-13.0238
21
-9.36711
0
LINE
8
BLACK
6
CONTINUOUS
10
-13.0238
20
-9.36711
11
-13.7019
21
-9.73375
0
LINE
8
BLACK
6
CONTINUOUS
10
-13.7019
20
-9.73375
11
-14.2958
21
-10.2251
0
LINE
8
BLACK
6
CONTINUOUS
10
-14.2958
20
-10.2251
11
-14.783
21
-10.8225
0
LINE
8
BLACK
6
CONTINUOUS
10
-14.783
20
-10.8225
11
-15.1449
21
-11.5031
0
LINE
8
BLACK
6
CONTINUOUS
10
-15.1449
20
-11.5031
11
-15.3677
21
-12.2411
0
LINE
8
BLACK
6
CONTINUOUS
10
-15.3677
20
-12.2411
11
-15.4432
21
-13.0107
0
LINE
8
BLACK
6
CONTINUOUS
10
-15.4432
20
-13.0107
11
-15.4432
21
-134.508
0
LINE
8
BLACK
6
CONTINUOUS
10
-15.4432
20
-134.508
11
-15.4432
21
-134.508
0
LINE
8
BLACK
6
CONTINUOUS
10
-15.4432
20
-134.508
11
-15.4431
21
-134.523
0
LINE
8
BLACK
6
CONTINUOUS
10
-15.4431
20
-134.523
11
-15.3929
21
-135.001
0
LINE
8
BLACK
6
CONTINUOUS
10
-15.3929
20
-135.001
11
-15.2515
21
-135.458
0
LINE
8
BLACK
6
CONTINUOUS
10
-15.2515
20
-135.458
11
-15.0241
21
-135.878
0
LINE
8
BLACK
6
CONTINUOUS
10
-15.0241
20
-135.878
11
-14.7194
21
-136.247
0
LINE
8
BLACK
6
CONTINUOUS
10
-14.7194
20
-136.247
11
-14.3489
21
-136.549
0
LINE
8
BLACK
6
CONTINUOUS
10
-14.3489
20
-136.549
11
-13.9267
21
-136.773
0
LINE
8
BLACK
6
CONTINUOUS
10
-13.9267
20
-136.773
11
-13.469
21
-136.911
0
LINE
8
BLACK
6
CONTINUOUS
10
-13.469
20
-136.911
11
-12.9907
21
-136.958
0
LINE
8
BLACK
6
CONTINUOUS
10
-12.9907
20
-136.958
11
154.007
21
-136.958
0
LINE
8
BLACK
6
CONTINUOUS
10
154.007
20
-136.958
11
154.007
21
-136.958
0
LINE
8
BLACK
6
CONTINUOUS
10
154.007
20
-136.958
11
154.022
21
-136.958
0
LINE
8
BLACK
6
CONTINUOUS
10
154.022
20
-136.958
11
154.499
21
-136.908
0
LINE
8
BLACK
6
CONTINUOUS
10
154.499
20
-136.908
11
154.956
21
-136.767
0
LINE
8
BLACK
6
CONTINUOUS
10
154.956
20
-136.767
11
155.377
21
-136.539
0
LINE
8
BLACK
6
CONTINUOUS
10
155.377
20
-136.539
11
155.745
21
-136.234
0
LINE
8
BLACK
6
CONTINUOUS
10
155.745
20
-136.234
11
156.047
21
-135.864
0
LINE
8
BLACK
6
CONTINUOUS
10
156.047
20
-135.864
11
156.272
21
-135.442
0
LINE
8
BLACK
6
CONTINUOUS
10
156.272
20
-135.442
11
156.41
21
-134.984
0
LINE
8
BLACK
6
CONTINUOUS
10
156.41
20
-134.984
11
156.457
21
-134.506
0
LINE
8
BLACK
6
CONTINUOUS
10
156.457
20
-134.506
11
156.457
21
-13.0085
0
LINE
8
BLACK
6
CONTINUOUS
10
156.457
20
-13.0085
11
156.457
21
-13.0084
0
LINE
8
BLACK
6
CONTINUOUS
10
156.457
20
-13.0084
11
156.457
21
-12.983
0
LINE
8
BLACK
6
CONTINUOUS
10
156.457
20
-12.983
11
156.376
21
-12.214
0
LINE
8
BLACK
6
CONTINUOUS
10
156.376
20
-12.214
11
156.148
21
-11.4777
0
LINE
8
BLACK
6
CONTINUOUS
10
156.148
20
-11.4777
11
155.781
21
-10.7996
0
LINE
8
BLACK
6
CONTINUOUS
10
155.781
20
-10.7996
11
155.29
21
-10.2056
0
LINE
8
BLACK
6
CONTINUOUS
10
155.29
20
-10.2056
11
154.693
21
-9.71841
0
LINE
8
BLACK
6
CONTINUOUS
10
154.693
20
-9.71841
11
154.012
21
-9.35651
0
LINE
8
BLACK
6
CONTINUOUS
10
154.012
20
-9.35651
11
153.274
21
-9.13371
0
LINE
8
BLACK
6
CONTINUOUS
10
153.274
20
-9.13371
11
152.504
21
-9.05824
0
LINE
8
BLACK
6
CONTINUOUS
10
152.504
20
-9.05824
11
150.504
21
-9.05824
0
LINE
8
BLACK
6
CONTINUOUS
10
150.504
20
-9.05824
11
150.503
21
-9.05806
0
LINE
8
BLACK
6
CONTINUOUS
10
150.503
20
-9.05806
11
149.523
21
-8.97751
0
LINE
8
BLACK
6
CONTINUOUS
10
149.523
20
-8.97751
11
149.522
21
-8.9774
0
LINE
8
BLACK
6
CONTINUOUS
10
149.522
20
-8.9774
11
149.518
21
-8.97674
0
LINE
8
BLACK
6
CONTINUOUS
10
149.518
20
-8.97674
11
149.515
21
-8.97617
0
LINE
8
BLACK
6
CONTINUOUS
10
149.515
20
-8.97617
11
148.561
21
-8.73664
0
LINE
8
BLACK
6
CONTINUOUS
10
148.561
20
-8.73664
11
148.56
21
-8.73632
0
LINE
8
BLACK
6
CONTINUOUS
10
148.56
20
-8.73632
11
148.557
21
-8.73513
0
LINE
8
BLACK
6
CONTINUOUS
10
148.557
20
-8.73513
11
148.553
21
-8.734
0
LINE
8
BLACK
6
CONTINUOUS
10
148.553
20
-8.734
11
147.652
21
-8.34192
0
LINE
8
BLACK
6
CONTINUOUS
10
147.652
20
-8.34192
11
147.652
21
-8.34192
0
LINE
8
BLACK
6
CONTINUOUS
10
147.652
20
-8.34192
11
147.652
21
-8.34192
0
LINE
8
BLACK
6
CONTINUOUS
10
147.652
20
-8.34192
11
147.65
21
-8.34142
0
LINE
8
BLACK
6
CONTINUOUS
10
147.65
20
-8.34142
11
147.647
21
-8.3397
0
LINE
8
BLACK
6
CONTINUOUS
10
147.647
20
-8.3397
11
147.644
21
-8.33805
0
LINE
8
BLACK
6
CONTINUOUS
10
147.644
20
-8.33805
11
146.819
21
-7.80396
0
LINE
8
BLACK
6
CONTINUOUS
10
146.819
20
-7.80396
11
146.818
21
-7.80329
0
LINE
8
BLACK
6
CONTINUOUS
10
146.818
20
-7.80329
11
146.815
21
-7.80109
0
LINE
8
BLACK
6
CONTINUOUS
10
146.815
20
-7.80109
11
146.812
21
-7.79896
0
LINE
8
BLACK
6
CONTINUOUS
10
146.812
20
-7.79896
11
146.085
21
-7.13722
0
LINE
8
BLACK
6
CONTINUOUS
10
146.085
20
-7.13722
11
146.084
21
-7.13638
0
LINE
8
BLACK
6
CONTINUOUS
10
146.084
20
-7.13638
11
146.082
21
-7.13379
0
LINE
8
BLACK
6
CONTINUOUS
10
146.082
20
-7.13379
11
146.079
21
-7.13122
0
LINE
8
BLACK
6
CONTINUOUS
10
146.079
20
-7.13122
11
145.47
21
-6.35958
0
LINE
8
BLACK
6
CONTINUOUS
10
145.47
20
-6.35958
11
145.469
21
-6.35862
0
LINE
8
BLACK
6
CONTINUOUS
10
145.469
20
-6.35862
11
145.467
21
-6.35568
0
LINE
8
BLACK
6
CONTINUOUS
10
145.467
20
-6.35568
11
145.466
21
-6.35276
0
LINE
8
BLACK
6
CONTINUOUS
10
145.466
20
-6.35276
11
144.99
21
-5.49196
0
LINE
8
BLACK
6
CONTINUOUS
10
144.99
20
-5.49196
11
144.99
21
-5.49195
0
LINE
8
BLACK
6
CONTINUOUS
10
144.99
20
-5.49195
11
144.99
21
-5.49194
0
LINE
8
BLACK
6
CONTINUOUS
10
144.99
20
-5.49194
11
144.99
21
-5.49087
0
LINE
8
BLACK
6
CONTINUOUS
10
144.99
20
-5.49087
11
144.988
21
-5.48767
0
LINE
8
BLACK
6
CONTINUOUS
10
144.988
20
-5.48767
11
144.987
21
-5.48447
0
LINE
8
BLACK
6
CONTINUOUS
10
144.987
20
-5.48447
11
144.659
21
-4.55761
0
LINE
8
BLACK
6
CONTINUOUS
10
144.659
20
-4.55761
11
144.658
21
-4.55645
0
LINE
8
BLACK
6
CONTINUOUS
10
144.658
20
-4.55645
11
144.658
21
-4.55307
0
LINE
8
BLACK
6
CONTINUOUS
10
144.658
20
-4.55307
11
144.657
21
-4.54969
0
LINE
8
BLACK
6
CONTINUOUS
10
144.657
20
-4.54969
11
144.484
21
-3.58166
0
LINE
8
BLACK
6
CONTINUOUS
10
144.484
20
-3.58166
11
144.484
21
-3.58046
0
LINE
8
BLACK
6
CONTINUOUS
10
144.484
20
-3.58046
11
144.484
21
-3.57784
0
LINE
8
BLACK
6
CONTINUOUS
10
144.484
20
-3.57784
11
144.483
21
-3.57525
0
LINE
8
BLACK
6
CONTINUOUS
10
144.483
20
-3.57525
11
144.457
21
-3.01181
0
LINE
8
BLACK
6
CONTINUOUS
10
144.457
20
-3.01181
11
144.457
21
-3.01069
0
LINE
8
BLACK
6
CONTINUOUS
10
144.457
20
-3.01069
11
144.457
21
0.991559
0
LINE
8
BLACK
6
CONTINUOUS
10
144.457
20
0.991559
11
144.457
21
0.991579
0
LINE
8
BLACK
6
CONTINUOUS
10
144.457
20
0.991579
11
144.457
21
1.0065
0
LINE
8
BLACK
6
CONTINUOUS
10
144.457
20
1.0065
11
144.407
21
1.48435
0
LINE
8
BLACK
6
CONTINUOUS
10
144.407
20
1.48435
11
144.265
21
1.94107
0
LINE
8
BLACK
6
CONTINUOUS
10
144.265
20
1.94107
11
144.038
21
2.36164
0
LINE
8
BLACK
6
CONTINUOUS
10
144.038
20
2.36164
11
143.733
21
2.73003
0
LINE
8
BLACK
6
CONTINUOUS
10
143.733
20
2.73003
11
143.362
21
3.03221
0
LINE
8
BLACK
6
CONTINUOUS
10
143.362
20
3.03221
11
142.94
21
3.25667
0
LINE
8
BLACK
6
CONTINUOUS
10
142.94
20
3.25667
11
142.483
21
3.39486
0
LINE
8
BLACK
6
CONTINUOUS
10
142.483
20
3.39486
11
142.004
21
3.44175
0
LINE
8
BLACK
6
CONTINUOUS
10
142.004
20
3.44175
11
-0.993591
21
3.44175
  0
ENDSEC
  0
EOF
