G04 #@! TF.FileFunction,Copper,L2,Bot,Signal*
%FSLAX46Y46*%
G04 Gerber Fmt 4.6, Leading zero omitted, Abs format (unit mm)*
G04 Created by KiCad (PCBNEW (2015-05-18 BZR 5668)-product) date Fri 12 Jun 2015 12:16:12 AM CEST*
%MOMM*%
G01*
G04 APERTURE LIST*
%ADD10C,0.100000*%
%ADD11C,3.500000*%
%ADD12R,0.800000X0.750000*%
%ADD13R,0.750000X0.800000*%
%ADD14R,1.300000X0.700000*%
%ADD15C,1.600000*%
%ADD16R,2.800000X3.600000*%
%ADD17R,2.900000X2.900000*%
%ADD18C,2.900000*%
%ADD19R,1.727200X1.727200*%
%ADD20O,1.727200X1.727200*%
%ADD21R,1.050000X1.050000*%
%ADD22C,1.050000*%
%ADD23R,0.500000X0.900000*%
%ADD24R,2.032000X2.032000*%
%ADD25O,2.032000X2.032000*%
%ADD26C,0.600000*%
%ADD27C,0.900000*%
%ADD28C,0.381000*%
%ADD29C,0.304800*%
%ADD30C,0.508000*%
%ADD31C,0.762000*%
%ADD32C,0.254000*%
G04 APERTURE END LIST*
D10*
D11*
X238175800Y-42557700D03*
X238163100Y-101498400D03*
X156667200Y-89052400D03*
X75171300Y-42557700D03*
D12*
X152564400Y-66344800D03*
X154064400Y-66344800D03*
X152564400Y-67919600D03*
X154064400Y-67919600D03*
D13*
X198297800Y-94374400D03*
X198297800Y-92874400D03*
D12*
X232423400Y-76123800D03*
X230923400Y-76123800D03*
D13*
X122072400Y-94374400D03*
X122072400Y-92874400D03*
D12*
X232423400Y-96088200D03*
X230923400Y-96088200D03*
X80936400Y-76022200D03*
X82436400Y-76022200D03*
X80936400Y-96088200D03*
X82436400Y-96088200D03*
D14*
X193229900Y-94368800D03*
X193229900Y-93268800D03*
X193229900Y-92168800D03*
X196329900Y-92168800D03*
X196329900Y-93268800D03*
X196329900Y-94368800D03*
X230123400Y-74302800D03*
X230123400Y-73202800D03*
X230123400Y-72102800D03*
X233223400Y-72102800D03*
X233223400Y-73202800D03*
X233223400Y-74302800D03*
X117017200Y-94368800D03*
X117017200Y-93268800D03*
X117017200Y-92168800D03*
X120117200Y-92168800D03*
X120117200Y-93268800D03*
X120117200Y-94368800D03*
X230123400Y-94356100D03*
X230123400Y-93256100D03*
X230123400Y-92156100D03*
X233223400Y-92156100D03*
X233223400Y-93256100D03*
X233223400Y-94356100D03*
X83236400Y-72102800D03*
X83236400Y-73202800D03*
X83236400Y-74302800D03*
X80136400Y-74302800D03*
X80136400Y-73202800D03*
X80136400Y-72102800D03*
X83223700Y-92156100D03*
X83223700Y-93256100D03*
X83223700Y-94356100D03*
X80123700Y-94356100D03*
X80123700Y-93256100D03*
X80123700Y-92156100D03*
D15*
X192307200Y-55727600D03*
X192307200Y-41227600D03*
X197307200Y-55727600D03*
X197307200Y-41227600D03*
X194807200Y-55727600D03*
D16*
X188207200Y-48227600D03*
X201407200Y-48227600D03*
D15*
X116081800Y-55778400D03*
X116081800Y-41278400D03*
X121081800Y-55778400D03*
X121081800Y-41278400D03*
X118581800Y-55778400D03*
D16*
X111981800Y-48278400D03*
X125181800Y-48278400D03*
D17*
X83718400Y-58775600D03*
D18*
X87678400Y-58775600D03*
D19*
X168122600Y-48768000D03*
D20*
X168122600Y-51308000D03*
X165582600Y-48768000D03*
X165582600Y-51308000D03*
X163042600Y-48768000D03*
X163042600Y-51308000D03*
X160502600Y-48768000D03*
X160502600Y-51308000D03*
X157962600Y-48768000D03*
X157962600Y-51308000D03*
X155422600Y-48768000D03*
X155422600Y-51308000D03*
X152882600Y-48768000D03*
X152882600Y-51308000D03*
X150342600Y-48768000D03*
X150342600Y-51308000D03*
X147802600Y-48768000D03*
X147802600Y-51308000D03*
X145262600Y-48768000D03*
X145262600Y-51308000D03*
D21*
X150228300Y-54559200D03*
D22*
X148958300Y-54559200D03*
X147688300Y-54559200D03*
X146418300Y-54559200D03*
X145148300Y-54559200D03*
X148958300Y-55829200D03*
X147688300Y-55829200D03*
X146418300Y-55829200D03*
X145148300Y-55829200D03*
X150228300Y-55829200D03*
D21*
X156654500Y-64300100D03*
D22*
X157924500Y-64300100D03*
X159194500Y-64300100D03*
X160464500Y-64300100D03*
X157924500Y-65570100D03*
X159194500Y-65570100D03*
X160464500Y-65570100D03*
X156654500Y-65570100D03*
D23*
X191275400Y-94970600D03*
X189775400Y-94970600D03*
X191275400Y-93268800D03*
X189775400Y-93268800D03*
X191275400Y-91592400D03*
X189775400Y-91592400D03*
X115050000Y-94970600D03*
X113550000Y-94970600D03*
X115050000Y-93268800D03*
X113550000Y-93268800D03*
X115050000Y-91567000D03*
X113550000Y-91567000D03*
X85203600Y-71526400D03*
X86703600Y-71526400D03*
X85203600Y-73202800D03*
X86703600Y-73202800D03*
X85203600Y-74879200D03*
X86703600Y-74879200D03*
X85203600Y-91567000D03*
X86703600Y-91567000D03*
X85203600Y-93243400D03*
X86703600Y-93243400D03*
X85203600Y-94919800D03*
X86703600Y-94919800D03*
D24*
X164795200Y-94081600D03*
D25*
X162255200Y-94081600D03*
D24*
X151079200Y-94081600D03*
D25*
X148539200Y-94081600D03*
D11*
X75171300Y-101498400D03*
D26*
X140525500Y-70154800D03*
X152057100Y-80314800D03*
X157924500Y-70815200D03*
X156438600Y-67919600D03*
X153441400Y-70815200D03*
X224815400Y-76073000D03*
X224815400Y-68656200D03*
X222580200Y-68656200D03*
X222580200Y-76123800D03*
D27*
X219557600Y-92329000D03*
X214185500Y-92341700D03*
X114566700Y-45504100D03*
X111290100Y-45491400D03*
X200190100Y-51714400D03*
X187528200Y-45504100D03*
X168021000Y-67233800D03*
X168021000Y-73914000D03*
D26*
X150418800Y-60553600D03*
X155282900Y-59194700D03*
X152273000Y-72720200D03*
X158991300Y-72720200D03*
D27*
X159512000Y-96596200D03*
X145821400Y-96596200D03*
X141909800Y-96596200D03*
X182397400Y-94602300D03*
X195503800Y-90043000D03*
D26*
X221310200Y-77089000D03*
D27*
X203581000Y-96596200D03*
X203581000Y-96596200D03*
X126923800Y-96596200D03*
X119380000Y-90043000D03*
X81762600Y-93243400D03*
X95504000Y-54559200D03*
D26*
X150825200Y-76174600D03*
X148386800Y-69850000D03*
X151612600Y-66344800D03*
X140614400Y-74549000D03*
X143586200Y-62509400D03*
X231381300Y-74307700D03*
X231381300Y-73202800D03*
X231394000Y-72097900D03*
X231381300Y-94361000D03*
X231381300Y-93243400D03*
X231381300Y-92151200D03*
X161086800Y-78359000D03*
X156946600Y-78359000D03*
X160388300Y-79057500D03*
X156248100Y-79057500D03*
X159689800Y-79756000D03*
X155549600Y-79756000D03*
X158991300Y-80454500D03*
X156248100Y-77254100D03*
X154851100Y-80454500D03*
X162788600Y-54203600D03*
X162179000Y-54787800D03*
X212598000Y-73202800D03*
X212598000Y-75336400D03*
X150825200Y-80314800D03*
X144500600Y-50038000D03*
X212598000Y-76911200D03*
X160172400Y-69850000D03*
X151358600Y-65214500D03*
X159194500Y-67284600D03*
X153670000Y-64592200D03*
X148539200Y-84023200D03*
X154457400Y-73533000D03*
X154279600Y-76428600D03*
X147777200Y-84480400D03*
X162407600Y-76428600D03*
X160223200Y-76428600D03*
X156997400Y-73533000D03*
X146888200Y-85242400D03*
X169138600Y-64338200D03*
X168554400Y-63703200D03*
X169138600Y-63093600D03*
X165430200Y-67640200D03*
X166039800Y-68249800D03*
X166649400Y-67640200D03*
X215417400Y-68630800D03*
X216077800Y-69291200D03*
X216738200Y-69951600D03*
X217398600Y-71247000D03*
X218059000Y-71882000D03*
X218719400Y-72517000D03*
X160934400Y-73482200D03*
X164211000Y-58699400D03*
X164211000Y-62509400D03*
X159435800Y-73482200D03*
X163550600Y-59334400D03*
X163550600Y-61976000D03*
D28*
X139242800Y-71335900D02*
X140525500Y-70154800D01*
X139242800Y-79616300D02*
X139242800Y-71335900D01*
X141058900Y-81432400D02*
X139242800Y-79616300D01*
X150939500Y-81432400D02*
X141058900Y-81432400D01*
X152057100Y-80314800D02*
X150939500Y-81432400D01*
D29*
X156438600Y-67919600D02*
X154064400Y-67919600D01*
D30*
X82436400Y-76022200D02*
X81991200Y-75577000D01*
X81991200Y-60502800D02*
X83718400Y-58775600D01*
X81991200Y-75577000D02*
X81991200Y-60502800D01*
D29*
X154191400Y-68046600D02*
X154064400Y-67919600D01*
X154064400Y-67919600D02*
X154064400Y-66344800D01*
D28*
X224815400Y-68656200D02*
X224815400Y-76073000D01*
X222580200Y-76123800D02*
X230923400Y-76123800D01*
X222580200Y-76123800D02*
X222580200Y-68656200D01*
D31*
X232423400Y-96088200D02*
X233223400Y-96088200D01*
X230454200Y-97497900D02*
X232727500Y-97497900D01*
X219557600Y-92329000D02*
X224726500Y-97497900D01*
X224726500Y-97497900D02*
X230454200Y-97497900D01*
X232727500Y-97497900D02*
X233223400Y-97002000D01*
X233223400Y-97002000D02*
X233223400Y-94356100D01*
X233223400Y-96088200D02*
X233223400Y-96278100D01*
X203581000Y-96596200D02*
X209931000Y-96596200D01*
X209931000Y-96596200D02*
X214185500Y-92341700D01*
X233223400Y-96278100D02*
X233223400Y-96088200D01*
D30*
X114566700Y-45504100D02*
X114566700Y-45516800D01*
X114566700Y-45516800D02*
X114566700Y-45504100D01*
X114566700Y-45504100D02*
X114566700Y-45516800D01*
X111290100Y-45491400D02*
X111290100Y-45516800D01*
X111290100Y-45516800D02*
X111290100Y-45491400D01*
X111290100Y-45491400D02*
X111290100Y-45516800D01*
X187528200Y-45504100D02*
X187528200Y-45516800D01*
X187528200Y-45516800D02*
X187528200Y-45504100D01*
X187528200Y-45504100D02*
X187528200Y-45516800D01*
D31*
X200190100Y-51714400D02*
X193992500Y-45516800D01*
X193992500Y-45516800D02*
X187528200Y-45516800D01*
X233223400Y-55436100D02*
X229514400Y-51727100D01*
X233223400Y-72102800D02*
X233223400Y-55436100D01*
X229514400Y-51727100D02*
X200190100Y-51714400D01*
X95504000Y-51409600D02*
X95504000Y-54559200D01*
X101396800Y-45516800D02*
X95504000Y-51409600D01*
X187528200Y-45516800D02*
X114566700Y-45516800D01*
X114566700Y-45516800D02*
X111290100Y-45516800D01*
X111290100Y-45516800D02*
X101396800Y-45516800D01*
X168021000Y-67233800D02*
X168021000Y-73914000D01*
X182397400Y-80645000D02*
X182397400Y-75717400D01*
X182397400Y-80645000D02*
X182397400Y-94602300D01*
X182397400Y-75717400D02*
X180594000Y-73914000D01*
X180594000Y-73914000D02*
X168021000Y-73914000D01*
D28*
X152564400Y-66344800D02*
X152564400Y-60553600D01*
X152552400Y-60579000D02*
X152552400Y-60553600D01*
X152552400Y-60565600D02*
X152552400Y-60579000D01*
X152564400Y-60553600D02*
X152552400Y-60565600D01*
X150418800Y-60553600D02*
X152552400Y-60553600D01*
X152552400Y-60553600D02*
X153924000Y-60553600D01*
X153924000Y-60553600D02*
X155282900Y-59194700D01*
D29*
X158991300Y-72720200D02*
X152273000Y-72720200D01*
D31*
X159512000Y-96596200D02*
X159550100Y-96596200D01*
X141935200Y-96596200D02*
X141909800Y-96596200D01*
X159550100Y-96596200D02*
X180403500Y-96596200D01*
X180403500Y-96596200D02*
X182397400Y-94602300D01*
X159550100Y-96596200D02*
X145821400Y-96596200D01*
X145821400Y-96596200D02*
X141935200Y-96596200D01*
X127000000Y-96596200D02*
X141935200Y-96596200D01*
X196329900Y-90869100D02*
X196329900Y-92168800D01*
X195503800Y-90043000D02*
X196329900Y-90869100D01*
D28*
X231458200Y-77089000D02*
X232423400Y-76123800D01*
X221310200Y-77089000D02*
X231458200Y-77089000D01*
D31*
X233223400Y-76123800D02*
X232423400Y-76123800D01*
X233223400Y-92156100D02*
X233223400Y-76123800D01*
X233223400Y-76123800D02*
X233223400Y-74302800D01*
X233223400Y-73202800D02*
X233223400Y-74302800D01*
X233223400Y-72102800D02*
X233223400Y-73202800D01*
X233223400Y-93256100D02*
X233223400Y-92156100D01*
X233223400Y-94356100D02*
X233223400Y-93256100D01*
X233223400Y-96088200D02*
X233223400Y-96088200D01*
X233223400Y-96088200D02*
X233223400Y-94356100D01*
X198297800Y-94374400D02*
X200519600Y-96596200D01*
X200519600Y-96596200D02*
X203581000Y-96596200D01*
X196329900Y-94368800D02*
X198292200Y-94368800D01*
X198292200Y-94368800D02*
X198297800Y-94374400D01*
X196329900Y-93268800D02*
X196329900Y-94368800D01*
X196329900Y-92168800D02*
X196329900Y-93268800D01*
X122072400Y-94374400D02*
X124294200Y-96596200D01*
X124294200Y-96596200D02*
X127000000Y-96596200D01*
X127000000Y-96596200D02*
X126923800Y-96596200D01*
X120117200Y-94368800D02*
X122066800Y-94368800D01*
X122066800Y-94368800D02*
X122072400Y-94374400D01*
X120117200Y-93268800D02*
X120117200Y-94368800D01*
X120117200Y-92168800D02*
X120117200Y-93268800D01*
X80123700Y-93256100D02*
X81749900Y-93256100D01*
X120117200Y-90780200D02*
X120117200Y-92168800D01*
X119380000Y-90043000D02*
X120117200Y-90780200D01*
X81749900Y-93256100D02*
X81762600Y-93243400D01*
X80136400Y-76022200D02*
X80936400Y-76022200D01*
X80123700Y-94356100D02*
X80123700Y-95275500D01*
X80123700Y-95275500D02*
X80936400Y-96088200D01*
X80123700Y-93256100D02*
X80123700Y-94356100D01*
X80123700Y-92156100D02*
X80123700Y-93256100D01*
X80136400Y-74302800D02*
X80136400Y-76022200D01*
X80136400Y-76022200D02*
X80136400Y-92143400D01*
X80136400Y-92143400D02*
X80123700Y-92156100D01*
X80136400Y-73202800D02*
X80136400Y-74302800D01*
X80136400Y-72102800D02*
X80136400Y-73202800D01*
X80136400Y-72102800D02*
X80136400Y-57303000D01*
X80136400Y-57303000D02*
X82880200Y-54559200D01*
X82880200Y-54559200D02*
X95504000Y-54559200D01*
D29*
X150825200Y-76174600D02*
X148869400Y-76174600D01*
X148869400Y-76174600D02*
X148386800Y-75692000D01*
X148386800Y-75692000D02*
X148386800Y-69850000D01*
X152564400Y-66344800D02*
X151612600Y-66344800D01*
X152564400Y-67919600D02*
X152564400Y-66344800D01*
X152513600Y-67868800D02*
X152564400Y-67919600D01*
D30*
X80885600Y-76073000D02*
X80936400Y-76022200D01*
X80136400Y-92143400D02*
X80123700Y-92156100D01*
X198292200Y-94368800D02*
X198297800Y-94374400D01*
X122066800Y-94368800D02*
X122072400Y-94374400D01*
D29*
X143002000Y-74549000D02*
X140614400Y-74549000D01*
X143586200Y-73964800D02*
X143002000Y-74549000D01*
X143586200Y-62509400D02*
X143586200Y-73964800D01*
D28*
X191877200Y-94368800D02*
X193229900Y-94368800D01*
X191275400Y-94970600D02*
X191877200Y-94368800D01*
X191275400Y-93268800D02*
X193229900Y-93268800D01*
X191851800Y-92168800D02*
X193229900Y-92168800D01*
X191275400Y-91592400D02*
X191851800Y-92168800D01*
X231376400Y-74302800D02*
X230123400Y-74302800D01*
X231381300Y-74307700D02*
X231376400Y-74302800D01*
X231381300Y-73202800D02*
X230123400Y-73202800D01*
X231389100Y-72102800D02*
X230123400Y-72102800D01*
X231394000Y-72097900D02*
X231389100Y-72102800D01*
X115651800Y-94368800D02*
X117017200Y-94368800D01*
X115050000Y-94970600D02*
X115651800Y-94368800D01*
X115050000Y-93268800D02*
X117017200Y-93268800D01*
X115651800Y-92168800D02*
X117017200Y-92168800D01*
X115050000Y-91567000D02*
X115651800Y-92168800D01*
X231376400Y-94356100D02*
X230123400Y-94356100D01*
X231381300Y-94361000D02*
X231376400Y-94356100D01*
X231368600Y-93256100D02*
X230123400Y-93256100D01*
X231381300Y-93243400D02*
X231368600Y-93256100D01*
X231376400Y-92156100D02*
X230123400Y-92156100D01*
X231381300Y-92151200D02*
X231376400Y-92156100D01*
X84627200Y-72102800D02*
X85203600Y-71526400D01*
X83236400Y-72102800D02*
X84627200Y-72102800D01*
X83236400Y-73202800D02*
X85203600Y-73202800D01*
X84627200Y-74302800D02*
X85203600Y-74879200D01*
X83236400Y-74302800D02*
X84627200Y-74302800D01*
X84614500Y-92156100D02*
X85203600Y-91567000D01*
X83223700Y-92156100D02*
X84614500Y-92156100D01*
X83236400Y-93243400D02*
X83223700Y-93256100D01*
X85203600Y-93243400D02*
X83236400Y-93243400D01*
X84639900Y-94356100D02*
X85203600Y-94919800D01*
X83223700Y-94356100D02*
X84639900Y-94356100D01*
D29*
X156946600Y-78359000D02*
X161086800Y-78359000D01*
X156248100Y-79057500D02*
X160388300Y-79057500D01*
X156248100Y-79057500D02*
X156248100Y-79057500D01*
X155549600Y-79756000D02*
X159689800Y-79756000D01*
X154851100Y-80454500D02*
X158991300Y-80454500D01*
X154851100Y-80454500D02*
X154851100Y-78651100D01*
X154851100Y-78651100D02*
X156248100Y-77254100D01*
X161772600Y-52044600D02*
X161772600Y-53187600D01*
X161772600Y-53187600D02*
X162788600Y-54203600D01*
X161772600Y-50038000D02*
X160502600Y-48768000D01*
X161772600Y-52044600D02*
X161772600Y-50038000D01*
X159232600Y-50038000D02*
X159232600Y-51841400D01*
X159232600Y-50038000D02*
X157962600Y-48768000D01*
X159232600Y-51841400D02*
X162179000Y-54787800D01*
D28*
X161518600Y-59055000D02*
X161518600Y-59156600D01*
X210007200Y-60147200D02*
X212598000Y-62738000D01*
X162509200Y-60147200D02*
X210007200Y-60147200D01*
X161518600Y-59156600D02*
X162509200Y-60147200D01*
X151841200Y-52070000D02*
X152781000Y-53009800D01*
X161518600Y-55067200D02*
X161518600Y-59055000D01*
X159461200Y-53009800D02*
X161518600Y-55067200D01*
X152781000Y-53009800D02*
X159461200Y-53009800D01*
X151612600Y-50038000D02*
X151612600Y-51841400D01*
X151612600Y-51841400D02*
X151841200Y-52070000D01*
X150342600Y-48768000D02*
X151612600Y-50038000D01*
X212598000Y-73202800D02*
X212598000Y-62738000D01*
X160959800Y-58623200D02*
X160959800Y-59348750D01*
X160959800Y-59348750D02*
X162317050Y-60706000D01*
X211937600Y-63779400D02*
X211937600Y-62890400D01*
X209753200Y-60706000D02*
X162317050Y-60706000D01*
X211937600Y-62890400D02*
X209753200Y-60706000D01*
X151714200Y-52730400D02*
X152552400Y-53568600D01*
X147802600Y-48768000D02*
X149072600Y-50038000D01*
X149527402Y-52730400D02*
X151714200Y-52730400D01*
X149072600Y-52275598D02*
X149527402Y-52730400D01*
X149072600Y-50038000D02*
X149072600Y-52275598D01*
X152552400Y-53568600D02*
X159232600Y-53568600D01*
X159232600Y-53568600D02*
X160959800Y-55295800D01*
X160959800Y-55295800D02*
X160959800Y-58623200D01*
X212598000Y-75336400D02*
X211937600Y-74676000D01*
X211937600Y-74676000D02*
X211937600Y-63779400D01*
D29*
X143560800Y-57886600D02*
X143560800Y-50977800D01*
X146674698Y-61000498D02*
X143560800Y-57886600D01*
X146674698Y-77866098D02*
X146674698Y-61000498D01*
X149123400Y-80314800D02*
X146674698Y-77866098D01*
X150825200Y-80314800D02*
X149123400Y-80314800D01*
X143560800Y-50977800D02*
X144500600Y-50038000D01*
D28*
X208610200Y-61264800D02*
X209561050Y-61264800D01*
X211277200Y-62980950D02*
X211277200Y-64439800D01*
X209561050Y-61264800D02*
X211277200Y-62980950D01*
X207772000Y-61264800D02*
X208610200Y-61264800D01*
X160401000Y-59029600D02*
X160401000Y-59588400D01*
X162077400Y-61264800D02*
X207772000Y-61264800D01*
X160401000Y-59588400D02*
X162077400Y-61264800D01*
X151676100Y-53479700D02*
X152323800Y-54127400D01*
X160401000Y-55524400D02*
X160401000Y-59029600D01*
X159004000Y-54127400D02*
X160401000Y-55524400D01*
X152323800Y-54127400D02*
X159004000Y-54127400D01*
X146532600Y-50038000D02*
X146532600Y-52247800D01*
X146532600Y-52247800D02*
X147574000Y-53289200D01*
X147574000Y-53289200D02*
X151485600Y-53289200D01*
X151485600Y-53289200D02*
X151676100Y-53479700D01*
X145262600Y-48768000D02*
X146532600Y-50038000D01*
X212598000Y-76911200D02*
X211277200Y-75590400D01*
X211277200Y-75590400D02*
X211277200Y-64439800D01*
D29*
X159537400Y-69850000D02*
X159626300Y-69850000D01*
D28*
X160172400Y-69850000D02*
X159537400Y-69850000D01*
X149720300Y-69024500D02*
X150545800Y-69850000D01*
X150545800Y-69850000D02*
X159626300Y-69850000D01*
X144068800Y-52501800D02*
X144068800Y-57632600D01*
X144068800Y-57632600D02*
X147167600Y-60731400D01*
X147167600Y-60731400D02*
X147167600Y-66471800D01*
X147167600Y-66471800D02*
X149720300Y-69024500D01*
X145262600Y-51308000D02*
X144068800Y-52501800D01*
D29*
X148196300Y-66040000D02*
X150990300Y-68834000D01*
X157924500Y-68465700D02*
X157924500Y-65570100D01*
X157556200Y-68834000D02*
X157924500Y-68465700D01*
X150990300Y-68834000D02*
X157556200Y-68834000D01*
X151358600Y-65214500D02*
X148196300Y-65214500D01*
X148196300Y-65214500D02*
X148247100Y-65214500D01*
X148247100Y-65214500D02*
X148196300Y-65214500D01*
X148196300Y-56591200D02*
X148958300Y-55829200D01*
X148196300Y-66040000D02*
X148196300Y-65214500D01*
X148196300Y-65214500D02*
X148196300Y-56591200D01*
X149282150Y-67862450D02*
X150736300Y-69316600D01*
X160464500Y-68719700D02*
X160464500Y-65570100D01*
X159867600Y-69316600D02*
X160464500Y-68719700D01*
X150736300Y-69316600D02*
X159867600Y-69316600D01*
X147688300Y-66268600D02*
X147688300Y-55829200D01*
X149282150Y-67862450D02*
X147688300Y-66268600D01*
X159194500Y-67284600D02*
X159194500Y-65570100D01*
X153746200Y-64668400D02*
X154914600Y-64668400D01*
X154914600Y-64668400D02*
X155816300Y-65570100D01*
X155816300Y-65570100D02*
X156654500Y-65570100D01*
X153670000Y-64592200D02*
X153746200Y-64668400D01*
X154457400Y-73533000D02*
X153746200Y-73533000D01*
X153746200Y-73533000D02*
X152958800Y-74320400D01*
X148945600Y-84429600D02*
X152400000Y-84429600D01*
X152400000Y-84429600D02*
X152958800Y-83870800D01*
X152958800Y-83870800D02*
X152958800Y-74320400D01*
X148539200Y-84023200D02*
X148945600Y-84429600D01*
X153441400Y-77266800D02*
X153441400Y-84074000D01*
X154279600Y-76428600D02*
X153441400Y-77266800D01*
X148209000Y-84912200D02*
X152603200Y-84912200D01*
X152603200Y-84912200D02*
X153441400Y-84074000D01*
X147777200Y-84480400D02*
X148209000Y-84912200D01*
X160223200Y-76428600D02*
X162407600Y-76428600D01*
X156997400Y-73533000D02*
X156997400Y-75615800D01*
X156997400Y-75615800D02*
X153974800Y-78638400D01*
X153974800Y-78638400D02*
X153974800Y-78638400D01*
X153974800Y-83566000D02*
X153974800Y-83845400D01*
X153974800Y-83566000D02*
X153974800Y-78638400D01*
X153974800Y-84251800D02*
X153974800Y-83845400D01*
X147040600Y-85394800D02*
X152831800Y-85394800D01*
X152831800Y-85394800D02*
X153974800Y-84251800D01*
X146888200Y-85242400D02*
X147040600Y-85394800D01*
X186309000Y-93675200D02*
X187604400Y-94970600D01*
X186309000Y-65125600D02*
X186309000Y-93675200D01*
X187604400Y-94970600D02*
X189775400Y-94970600D01*
X185521600Y-64338200D02*
X186309000Y-65125600D01*
X169138600Y-64338200D02*
X185521600Y-64338200D01*
X168554400Y-63703200D02*
X185597800Y-63703200D01*
X185597800Y-63703200D02*
X186817000Y-64922400D01*
X186817000Y-64922400D02*
X186817000Y-92430600D01*
X186817000Y-92430600D02*
X187655200Y-93268800D01*
X187655200Y-93268800D02*
X189775400Y-93268800D01*
X169138600Y-63093600D02*
X185699400Y-63093600D01*
X185699400Y-63093600D02*
X187325000Y-64719200D01*
X187325000Y-64719200D02*
X187325000Y-90805000D01*
X187325000Y-90805000D02*
X188112400Y-91592400D01*
X188112400Y-91592400D02*
X189775400Y-91592400D01*
X151307800Y-85864700D02*
X154470100Y-85864700D01*
X165430200Y-74904600D02*
X165430200Y-67640200D01*
X154470100Y-85864700D02*
X165430200Y-74904600D01*
X150685500Y-85864700D02*
X151307800Y-85864700D01*
X150685500Y-85864700D02*
X114388900Y-85864700D01*
X113550000Y-94970600D02*
X112090200Y-93510800D01*
X112090200Y-93510800D02*
X112090200Y-88163400D01*
X112090200Y-88163400D02*
X114388900Y-85864700D01*
X153593800Y-86334600D02*
X154643388Y-86334600D01*
X154643388Y-86334600D02*
X166039800Y-74938188D01*
X114731800Y-86334600D02*
X112826800Y-88239600D01*
X153593800Y-86334600D02*
X114731800Y-86334600D01*
X166039800Y-68249800D02*
X166039800Y-74938188D01*
X112826800Y-92545600D02*
X112826800Y-88239600D01*
X113550000Y-93268800D02*
X112826800Y-92545600D01*
X152844500Y-86804500D02*
X154901900Y-86804500D01*
X154901900Y-86804500D02*
X166649400Y-75057000D01*
X114998500Y-86804500D02*
X113550000Y-88253000D01*
X152844500Y-86804500D02*
X114998500Y-86804500D01*
X166649400Y-67640200D02*
X166649400Y-75057000D01*
X113550000Y-91567000D02*
X113550000Y-88253000D01*
D28*
X99288600Y-100634800D02*
X215087200Y-100634800D01*
X215087200Y-100634800D02*
X215417400Y-100304600D01*
X215417400Y-100304600D02*
X215417400Y-68630800D01*
X91313000Y-92659200D02*
X99288600Y-100634800D01*
X88595200Y-73418000D02*
X88595200Y-89941400D01*
X88595200Y-89941400D02*
X91313000Y-92659200D01*
X86703600Y-71526400D02*
X88595200Y-73418000D01*
X87630000Y-74129200D02*
X87630000Y-89789000D01*
X87630000Y-89789000D02*
X99034600Y-101193600D01*
X99034600Y-101193600D02*
X215315800Y-101193600D01*
X215315800Y-101193600D02*
X216077800Y-100431600D01*
X216077800Y-100431600D02*
X216077800Y-69291200D01*
X86703600Y-73202800D02*
X87630000Y-74129200D01*
X98755200Y-101752400D02*
X215544400Y-101752400D01*
X215544400Y-101752400D02*
X216738200Y-100558600D01*
X216738200Y-100558600D02*
X216738200Y-69951600D01*
X86703600Y-89700800D02*
X98755200Y-101752400D01*
X86703600Y-74879200D02*
X86703600Y-89700800D01*
X86703600Y-91567000D02*
X87769700Y-91567000D01*
X87769700Y-91567000D02*
X98513900Y-102311200D01*
X98513900Y-102311200D02*
X98958400Y-102311200D01*
X98958400Y-102311200D02*
X215798400Y-102311200D01*
X217398600Y-100711000D02*
X217398600Y-71247000D01*
X215798400Y-102311200D02*
X217398600Y-100711000D01*
X86703600Y-93243400D02*
X88620600Y-93243400D01*
X88620600Y-93243400D02*
X98247200Y-102870000D01*
X98247200Y-102870000D02*
X216027000Y-102870000D01*
X218059000Y-100838000D02*
X218059000Y-71882000D01*
X216027000Y-102870000D02*
X218059000Y-100838000D01*
X86703600Y-94919800D02*
X89433400Y-94919800D01*
X89433400Y-94919800D02*
X97942400Y-103428800D01*
X97942400Y-103428800D02*
X212521800Y-103428800D01*
X218719400Y-100965000D02*
X218719400Y-72517000D01*
X212521800Y-103428800D02*
X216255600Y-103428800D01*
X216255600Y-103428800D02*
X218719400Y-100965000D01*
X160934400Y-73482200D02*
X164211000Y-70205600D01*
X166852600Y-50038000D02*
X168122600Y-48768000D01*
X166852600Y-52324000D02*
X166852600Y-50038000D01*
X166293800Y-52882800D02*
X166852600Y-52324000D01*
X165277800Y-52882800D02*
X166293800Y-52882800D01*
X164211000Y-53949600D02*
X165277800Y-52882800D01*
X164211000Y-58699400D02*
X164211000Y-53949600D01*
X164211000Y-70205600D02*
X164211000Y-62509400D01*
X159435800Y-73482200D02*
X163550600Y-69367400D01*
X164312600Y-50038000D02*
X165582600Y-48768000D01*
X164312600Y-52222400D02*
X164312600Y-50038000D01*
X163550600Y-52984400D02*
X164312600Y-52222400D01*
X163550600Y-59334400D02*
X163550600Y-52984400D01*
X163550600Y-69367400D02*
X163550600Y-61976000D01*
D32*
G36*
X86329084Y-90493718D02*
X86211477Y-90516537D01*
X85998673Y-90656327D01*
X85953986Y-90722528D01*
X85914273Y-90662073D01*
X85703240Y-90519623D01*
X85453600Y-90469560D01*
X84953600Y-90469560D01*
X84711477Y-90516537D01*
X84498673Y-90656327D01*
X84356223Y-90867360D01*
X84306160Y-91117000D01*
X84306160Y-91297006D01*
X84285191Y-91317974D01*
X84123340Y-91208723D01*
X83873700Y-91158660D01*
X83471400Y-91158660D01*
X83471400Y-76523510D01*
X83471400Y-76307950D01*
X83312650Y-76149200D01*
X82563400Y-76149200D01*
X82563400Y-76873450D01*
X82722150Y-77032200D01*
X82962709Y-77032200D01*
X83196098Y-76935527D01*
X83374727Y-76756899D01*
X83471400Y-76523510D01*
X83471400Y-91158660D01*
X82573700Y-91158660D01*
X82331577Y-91205637D01*
X82118773Y-91345427D01*
X81976323Y-91556460D01*
X81926260Y-91806100D01*
X81926260Y-92158542D01*
X81547727Y-92158212D01*
X81421140Y-92210516D01*
X81421140Y-91806100D01*
X81374163Y-91563977D01*
X81234373Y-91351173D01*
X81152400Y-91295840D01*
X81152400Y-77044640D01*
X81336400Y-77044640D01*
X81578523Y-76997663D01*
X81675279Y-76934104D01*
X81676702Y-76935527D01*
X81910091Y-77032200D01*
X82150650Y-77032200D01*
X82309400Y-76873450D01*
X82309400Y-76149200D01*
X82289400Y-76149200D01*
X82289400Y-75895200D01*
X82309400Y-75895200D01*
X82309400Y-75875200D01*
X82563400Y-75875200D01*
X82563400Y-75895200D01*
X83312650Y-75895200D01*
X83471400Y-75736450D01*
X83471400Y-75520890D01*
X83380003Y-75300240D01*
X83886400Y-75300240D01*
X84128523Y-75253263D01*
X84298543Y-75141577D01*
X84306160Y-75149193D01*
X84306160Y-75329200D01*
X84353137Y-75571323D01*
X84492927Y-75784127D01*
X84703960Y-75926577D01*
X84953600Y-75976640D01*
X85453600Y-75976640D01*
X85695723Y-75929663D01*
X85878100Y-75809860D01*
X85878100Y-89700800D01*
X85940937Y-90016706D01*
X86119883Y-90284517D01*
X86329084Y-90493718D01*
X86329084Y-90493718D01*
G37*
X86329084Y-90493718D02*
X86211477Y-90516537D01*
X85998673Y-90656327D01*
X85953986Y-90722528D01*
X85914273Y-90662073D01*
X85703240Y-90519623D01*
X85453600Y-90469560D01*
X84953600Y-90469560D01*
X84711477Y-90516537D01*
X84498673Y-90656327D01*
X84356223Y-90867360D01*
X84306160Y-91117000D01*
X84306160Y-91297006D01*
X84285191Y-91317974D01*
X84123340Y-91208723D01*
X83873700Y-91158660D01*
X83471400Y-91158660D01*
X83471400Y-76523510D01*
X83471400Y-76307950D01*
X83312650Y-76149200D01*
X82563400Y-76149200D01*
X82563400Y-76873450D01*
X82722150Y-77032200D01*
X82962709Y-77032200D01*
X83196098Y-76935527D01*
X83374727Y-76756899D01*
X83471400Y-76523510D01*
X83471400Y-91158660D01*
X82573700Y-91158660D01*
X82331577Y-91205637D01*
X82118773Y-91345427D01*
X81976323Y-91556460D01*
X81926260Y-91806100D01*
X81926260Y-92158542D01*
X81547727Y-92158212D01*
X81421140Y-92210516D01*
X81421140Y-91806100D01*
X81374163Y-91563977D01*
X81234373Y-91351173D01*
X81152400Y-91295840D01*
X81152400Y-77044640D01*
X81336400Y-77044640D01*
X81578523Y-76997663D01*
X81675279Y-76934104D01*
X81676702Y-76935527D01*
X81910091Y-77032200D01*
X82150650Y-77032200D01*
X82309400Y-76873450D01*
X82309400Y-76149200D01*
X82289400Y-76149200D01*
X82289400Y-75895200D01*
X82309400Y-75895200D01*
X82309400Y-75875200D01*
X82563400Y-75875200D01*
X82563400Y-75895200D01*
X83312650Y-75895200D01*
X83471400Y-75736450D01*
X83471400Y-75520890D01*
X83380003Y-75300240D01*
X83886400Y-75300240D01*
X84128523Y-75253263D01*
X84298543Y-75141577D01*
X84306160Y-75149193D01*
X84306160Y-75329200D01*
X84353137Y-75571323D01*
X84492927Y-75784127D01*
X84703960Y-75926577D01*
X84953600Y-75976640D01*
X85453600Y-75976640D01*
X85695723Y-75929663D01*
X85878100Y-75809860D01*
X85878100Y-89700800D01*
X85940937Y-90016706D01*
X86119883Y-90284517D01*
X86329084Y-90493718D01*
G36*
X145258384Y-54461394D02*
X145258213Y-54657176D01*
X145246105Y-54669284D01*
X145050323Y-54669113D01*
X144954552Y-54573342D01*
X144968695Y-54559200D01*
X144954552Y-54545057D01*
X145134157Y-54365452D01*
X145148300Y-54379595D01*
X145162442Y-54365452D01*
X145258384Y-54461394D01*
X145258384Y-54461394D01*
G37*
X145258384Y-54461394D02*
X145258213Y-54657176D01*
X145246105Y-54669284D01*
X145050323Y-54669113D01*
X144954552Y-54573342D01*
X144968695Y-54559200D01*
X144954552Y-54545057D01*
X145134157Y-54365452D01*
X145148300Y-54379595D01*
X145162442Y-54365452D01*
X145258384Y-54461394D01*
G36*
X147802029Y-54653360D02*
X147786105Y-54669284D01*
X147590323Y-54669113D01*
X147578214Y-54657004D01*
X147578385Y-54461224D01*
X147674157Y-54365452D01*
X147688300Y-54379595D01*
X147702442Y-54365452D01*
X147788197Y-54451207D01*
X147802029Y-54653360D01*
X147802029Y-54653360D01*
G37*
X147802029Y-54653360D02*
X147786105Y-54669284D01*
X147590323Y-54669113D01*
X147578214Y-54657004D01*
X147578385Y-54461224D01*
X147674157Y-54365452D01*
X147688300Y-54379595D01*
X147702442Y-54365452D01*
X147788197Y-54451207D01*
X147802029Y-54653360D01*
G36*
X149055860Y-54669284D02*
X148860323Y-54669113D01*
X148858401Y-54667191D01*
X148844569Y-54465040D01*
X148944157Y-54365452D01*
X148958300Y-54379595D01*
X148972442Y-54365452D01*
X149055860Y-54448870D01*
X149055860Y-54669284D01*
X149055860Y-54669284D01*
G37*
X149055860Y-54669284D02*
X148860323Y-54669113D01*
X148858401Y-54667191D01*
X148844569Y-54465040D01*
X148944157Y-54365452D01*
X148958300Y-54379595D01*
X148972442Y-54365452D01*
X149055860Y-54448870D01*
X149055860Y-54669284D01*
G36*
X157137100Y-68046600D02*
X155099400Y-68046600D01*
X155099400Y-67633850D01*
X155099400Y-67418290D01*
X155002727Y-67184901D01*
X154950025Y-67132200D01*
X155002727Y-67079499D01*
X155099400Y-66846110D01*
X155099400Y-66630550D01*
X154940650Y-66471800D01*
X154191400Y-66471800D01*
X154191400Y-67068350D01*
X154191400Y-67196050D01*
X154191400Y-67792600D01*
X154940650Y-67792600D01*
X155099400Y-67633850D01*
X155099400Y-68046600D01*
X154940650Y-68046600D01*
X154191400Y-68046600D01*
X153937400Y-68046600D01*
X153917400Y-68046600D01*
X153917400Y-67792600D01*
X153937400Y-67792600D01*
X153937400Y-67196050D01*
X153937400Y-67068350D01*
X153937400Y-66471800D01*
X153917400Y-66471800D01*
X153917400Y-66217800D01*
X153937400Y-66217800D01*
X153937400Y-66197800D01*
X154191400Y-66197800D01*
X154191400Y-66217800D01*
X154940650Y-66217800D01*
X155099400Y-66059050D01*
X155099400Y-65966752D01*
X155259524Y-66126876D01*
X155514975Y-66297563D01*
X155797793Y-66353818D01*
X155996555Y-66552927D01*
X156422749Y-66729898D01*
X156884226Y-66730301D01*
X157137100Y-66625815D01*
X157137100Y-68046600D01*
X157137100Y-68046600D01*
G37*
X157137100Y-68046600D02*
X155099400Y-68046600D01*
X155099400Y-67633850D01*
X155099400Y-67418290D01*
X155002727Y-67184901D01*
X154950025Y-67132200D01*
X155002727Y-67079499D01*
X155099400Y-66846110D01*
X155099400Y-66630550D01*
X154940650Y-66471800D01*
X154191400Y-66471800D01*
X154191400Y-67068350D01*
X154191400Y-67196050D01*
X154191400Y-67792600D01*
X154940650Y-67792600D01*
X155099400Y-67633850D01*
X155099400Y-68046600D01*
X154940650Y-68046600D01*
X154191400Y-68046600D01*
X153937400Y-68046600D01*
X153917400Y-68046600D01*
X153917400Y-67792600D01*
X153937400Y-67792600D01*
X153937400Y-67196050D01*
X153937400Y-67068350D01*
X153937400Y-66471800D01*
X153917400Y-66471800D01*
X153917400Y-66217800D01*
X153937400Y-66217800D01*
X153937400Y-66197800D01*
X154191400Y-66197800D01*
X154191400Y-66217800D01*
X154940650Y-66217800D01*
X155099400Y-66059050D01*
X155099400Y-65966752D01*
X155259524Y-66126876D01*
X155514975Y-66297563D01*
X155797793Y-66353818D01*
X155996555Y-66552927D01*
X156422749Y-66729898D01*
X156884226Y-66730301D01*
X157137100Y-66625815D01*
X157137100Y-68046600D01*
G36*
X232207400Y-91287011D02*
X232118473Y-91345427D01*
X232029560Y-91477147D01*
X231911627Y-91359008D01*
X231568099Y-91216362D01*
X231196133Y-91216038D01*
X231095485Y-91257624D01*
X231023040Y-91208723D01*
X230773400Y-91158660D01*
X229473400Y-91158660D01*
X229231277Y-91205637D01*
X229018473Y-91345427D01*
X228876023Y-91556460D01*
X228825960Y-91806100D01*
X228825960Y-92506100D01*
X228865405Y-92709404D01*
X228825960Y-92906100D01*
X228825960Y-93606100D01*
X228865405Y-93809404D01*
X228825960Y-94006100D01*
X228825960Y-94706100D01*
X228872937Y-94948223D01*
X229012727Y-95161027D01*
X229223760Y-95303477D01*
X229473400Y-95353540D01*
X229985056Y-95353540D01*
X229888400Y-95586890D01*
X229888400Y-95802450D01*
X230047150Y-95961200D01*
X230796400Y-95961200D01*
X230796400Y-95941200D01*
X231050400Y-95941200D01*
X231050400Y-95961200D01*
X231070400Y-95961200D01*
X231070400Y-96215200D01*
X231050400Y-96215200D01*
X231050400Y-96235200D01*
X230796400Y-96235200D01*
X230796400Y-96215200D01*
X230047150Y-96215200D01*
X229888400Y-96373950D01*
X229888400Y-96481900D01*
X225147340Y-96481900D01*
X220546476Y-91881036D01*
X220477954Y-91715200D01*
X220173005Y-91409718D01*
X219774367Y-91244189D01*
X219544900Y-91243988D01*
X219544900Y-72967112D01*
X219654238Y-72703799D01*
X219654562Y-72331833D01*
X219512517Y-71988057D01*
X219249727Y-71724808D01*
X218955185Y-71602503D01*
X218852117Y-71353057D01*
X218589327Y-71089808D01*
X218294785Y-70967503D01*
X218191717Y-70718057D01*
X217928927Y-70454808D01*
X217598607Y-70317646D01*
X217673038Y-70138399D01*
X217673362Y-69766433D01*
X217531317Y-69422657D01*
X217268527Y-69159408D01*
X216986654Y-69042363D01*
X216870917Y-68762257D01*
X216608127Y-68499008D01*
X216326254Y-68381963D01*
X216210517Y-68101857D01*
X215947727Y-67838608D01*
X215604199Y-67695962D01*
X215232233Y-67695638D01*
X214888457Y-67837683D01*
X214625208Y-68100473D01*
X214482562Y-68444001D01*
X214482238Y-68815967D01*
X214591900Y-69081369D01*
X214591900Y-91335631D01*
X214402267Y-91256889D01*
X213970627Y-91256512D01*
X213571700Y-91421346D01*
X213533162Y-91459816D01*
X213533162Y-76726033D01*
X213391117Y-76382257D01*
X213132890Y-76123579D01*
X213390192Y-75866727D01*
X213532838Y-75523199D01*
X213533162Y-75151233D01*
X213391117Y-74807457D01*
X213128327Y-74544208D01*
X212863115Y-74434082D01*
X212763100Y-74334066D01*
X212763100Y-74137944D01*
X212783167Y-74137962D01*
X213126943Y-73995917D01*
X213390192Y-73733127D01*
X213532838Y-73389599D01*
X213533162Y-73017633D01*
X213423500Y-72752230D01*
X213423500Y-62738000D01*
X213360663Y-62422095D01*
X213360662Y-62422094D01*
X213181717Y-62154283D01*
X213181713Y-62154280D01*
X210590917Y-59563483D01*
X210323106Y-59384537D01*
X210007200Y-59321700D01*
X198742448Y-59321700D01*
X198742448Y-55443413D01*
X198524443Y-54915800D01*
X198121123Y-54511776D01*
X197593891Y-54292850D01*
X197023013Y-54292352D01*
X196495400Y-54510357D01*
X196091376Y-54913677D01*
X196063776Y-54980143D01*
X196061064Y-54973595D01*
X195814945Y-54899461D01*
X195635339Y-55079066D01*
X195635339Y-54719855D01*
X195561205Y-54473736D01*
X195023977Y-54280635D01*
X194453746Y-54307822D01*
X194053195Y-54473736D01*
X193979061Y-54719855D01*
X194807200Y-55547995D01*
X195635339Y-54719855D01*
X195635339Y-55079066D01*
X194986805Y-55727600D01*
X195814945Y-56555739D01*
X196061064Y-56481605D01*
X196063395Y-56475117D01*
X196089957Y-56539400D01*
X196493277Y-56943424D01*
X197020509Y-57162350D01*
X197591387Y-57162848D01*
X198119000Y-56944843D01*
X198523024Y-56541523D01*
X198741950Y-56014291D01*
X198742448Y-55443413D01*
X198742448Y-59321700D01*
X195635339Y-59321700D01*
X195635339Y-56735345D01*
X194807200Y-55907205D01*
X194627595Y-56086810D01*
X194627595Y-55727600D01*
X193799455Y-54899461D01*
X193553336Y-54973595D01*
X193551004Y-54980082D01*
X193524443Y-54915800D01*
X193121123Y-54511776D01*
X192593891Y-54292850D01*
X192023013Y-54292352D01*
X191495400Y-54510357D01*
X191091376Y-54913677D01*
X190872450Y-55440909D01*
X190871952Y-56011787D01*
X191089957Y-56539400D01*
X191493277Y-56943424D01*
X192020509Y-57162350D01*
X192591387Y-57162848D01*
X193119000Y-56944843D01*
X193523024Y-56541523D01*
X193550623Y-56475056D01*
X193553336Y-56481605D01*
X193799455Y-56555739D01*
X194627595Y-55727600D01*
X194627595Y-56086810D01*
X193979061Y-56735345D01*
X194053195Y-56981464D01*
X194590423Y-57174565D01*
X195160654Y-57147378D01*
X195561205Y-56981464D01*
X195635339Y-56735345D01*
X195635339Y-59321700D01*
X169577568Y-59321700D01*
X169577568Y-51667027D01*
X169457069Y-51435000D01*
X168249600Y-51435000D01*
X168249600Y-52641817D01*
X168481626Y-52762958D01*
X168897547Y-52590688D01*
X169329421Y-52196490D01*
X169577568Y-51667027D01*
X169577568Y-59321700D01*
X164911058Y-59321700D01*
X165003192Y-59229727D01*
X165145838Y-58886199D01*
X165146162Y-58514233D01*
X165036500Y-58248830D01*
X165036500Y-54291534D01*
X165619734Y-53708300D01*
X166293800Y-53708300D01*
X166609705Y-53645463D01*
X166609706Y-53645463D01*
X166877517Y-53466517D01*
X167436313Y-52907719D01*
X167436317Y-52907717D01*
X167436317Y-52907716D01*
X167583012Y-52688171D01*
X167763574Y-52762958D01*
X167995600Y-52641817D01*
X167995600Y-51435000D01*
X167975600Y-51435000D01*
X167975600Y-51181000D01*
X167995600Y-51181000D01*
X167995600Y-51161000D01*
X168249600Y-51161000D01*
X168249600Y-51181000D01*
X169457069Y-51181000D01*
X169577568Y-50948973D01*
X169329421Y-50419510D01*
X169142336Y-50248746D01*
X169228323Y-50232063D01*
X169441127Y-50092273D01*
X169583577Y-49881240D01*
X169633640Y-49631600D01*
X169633640Y-47904400D01*
X169586663Y-47662277D01*
X169446873Y-47449473D01*
X169235840Y-47307023D01*
X168986200Y-47256960D01*
X167259000Y-47256960D01*
X167016877Y-47303937D01*
X166804073Y-47443727D01*
X166661623Y-47654760D01*
X166653420Y-47695659D01*
X166642270Y-47678971D01*
X166156089Y-47354115D01*
X165582600Y-47240041D01*
X165009111Y-47354115D01*
X164522930Y-47678971D01*
X164306936Y-48002228D01*
X164249421Y-47879510D01*
X163817547Y-47485312D01*
X163401626Y-47313042D01*
X163169600Y-47434183D01*
X163169600Y-48641000D01*
X163189600Y-48641000D01*
X163189600Y-48895000D01*
X163169600Y-48895000D01*
X163169600Y-48915000D01*
X162915600Y-48915000D01*
X162915600Y-48895000D01*
X162895600Y-48895000D01*
X162895600Y-48641000D01*
X162915600Y-48641000D01*
X162915600Y-47434183D01*
X162683574Y-47313042D01*
X162267653Y-47485312D01*
X161835779Y-47879510D01*
X161778263Y-48002228D01*
X161562270Y-47678971D01*
X161076089Y-47354115D01*
X160502600Y-47240041D01*
X159929111Y-47354115D01*
X159442930Y-47678971D01*
X159232600Y-47993751D01*
X159022270Y-47678971D01*
X158536089Y-47354115D01*
X157962600Y-47240041D01*
X157389111Y-47354115D01*
X156902930Y-47678971D01*
X156686936Y-48002228D01*
X156629421Y-47879510D01*
X156197547Y-47485312D01*
X155781626Y-47313042D01*
X155549600Y-47434183D01*
X155549600Y-48641000D01*
X155569600Y-48641000D01*
X155569600Y-48895000D01*
X155549600Y-48895000D01*
X155549600Y-49974183D01*
X155549600Y-50101817D01*
X155549600Y-51181000D01*
X155569600Y-51181000D01*
X155569600Y-51435000D01*
X155549600Y-51435000D01*
X155549600Y-51455000D01*
X155295600Y-51455000D01*
X155295600Y-51435000D01*
X155275600Y-51435000D01*
X155275600Y-51181000D01*
X155295600Y-51181000D01*
X155295600Y-50101817D01*
X155295600Y-49974183D01*
X155295600Y-48895000D01*
X155275600Y-48895000D01*
X155275600Y-48641000D01*
X155295600Y-48641000D01*
X155295600Y-47434183D01*
X155063574Y-47313042D01*
X154647653Y-47485312D01*
X154215779Y-47879510D01*
X154158263Y-48002228D01*
X153942270Y-47678971D01*
X153456089Y-47354115D01*
X152882600Y-47240041D01*
X152309111Y-47354115D01*
X151822930Y-47678971D01*
X151612600Y-47993751D01*
X151402270Y-47678971D01*
X150916089Y-47354115D01*
X150342600Y-47240041D01*
X149769111Y-47354115D01*
X149282930Y-47678971D01*
X149072600Y-47993751D01*
X148862270Y-47678971D01*
X148376089Y-47354115D01*
X147802600Y-47240041D01*
X147229111Y-47354115D01*
X146742930Y-47678971D01*
X146532600Y-47993751D01*
X146322270Y-47678971D01*
X145836089Y-47354115D01*
X145262600Y-47240041D01*
X144689111Y-47354115D01*
X144202930Y-47678971D01*
X143878074Y-48165152D01*
X143764000Y-48738641D01*
X143764000Y-48797359D01*
X143872672Y-49343694D01*
X143708408Y-49507673D01*
X143565762Y-49851201D01*
X143565754Y-49859293D01*
X143004024Y-50421024D01*
X142833337Y-50676475D01*
X142773400Y-50977800D01*
X142773400Y-57886600D01*
X142833337Y-58187925D01*
X143004024Y-58443376D01*
X145887298Y-61326650D01*
X145887298Y-77866098D01*
X145947235Y-78167423D01*
X146117922Y-78422874D01*
X148566624Y-80871576D01*
X148822075Y-81042263D01*
X149123400Y-81102200D01*
X150290089Y-81102200D01*
X150294873Y-81106992D01*
X150638401Y-81249638D01*
X151010367Y-81249962D01*
X151354143Y-81107917D01*
X151617392Y-80845127D01*
X151760038Y-80501599D01*
X151760362Y-80129633D01*
X151618317Y-79785857D01*
X151355527Y-79522608D01*
X151011999Y-79379962D01*
X150640033Y-79379638D01*
X150296257Y-79521683D01*
X150290530Y-79527400D01*
X149449552Y-79527400D01*
X147462098Y-77539946D01*
X147462098Y-70060482D01*
X147593683Y-70378943D01*
X147599400Y-70384669D01*
X147599400Y-75692000D01*
X147659337Y-75993325D01*
X147830024Y-76248776D01*
X148312624Y-76731376D01*
X148568075Y-76902063D01*
X148869400Y-76962000D01*
X150290089Y-76962000D01*
X150294873Y-76966792D01*
X150638401Y-77109438D01*
X151010367Y-77109762D01*
X151354143Y-76967717D01*
X151617392Y-76704927D01*
X151760038Y-76361399D01*
X151760362Y-75989433D01*
X151618317Y-75645657D01*
X151355527Y-75382408D01*
X151011999Y-75239762D01*
X150640033Y-75239438D01*
X150296257Y-75381483D01*
X150290530Y-75387200D01*
X149195552Y-75387200D01*
X149174200Y-75365848D01*
X149174200Y-70385110D01*
X149178992Y-70380327D01*
X149321638Y-70036799D01*
X149321849Y-69793483D01*
X149962080Y-70433713D01*
X149962083Y-70433717D01*
X150122624Y-70540986D01*
X150229894Y-70612663D01*
X150229895Y-70612663D01*
X150545800Y-70675500D01*
X159537400Y-70675500D01*
X159626300Y-70675500D01*
X159722287Y-70675500D01*
X159985601Y-70784838D01*
X160357567Y-70785162D01*
X160701343Y-70643117D01*
X160964592Y-70380327D01*
X161107238Y-70036799D01*
X161107562Y-69664833D01*
X160968785Y-69328966D01*
X161021276Y-69276476D01*
X161191963Y-69021025D01*
X161251900Y-68719700D01*
X161251900Y-66423131D01*
X161447327Y-66228045D01*
X161624298Y-65801851D01*
X161624701Y-65340374D01*
X161457050Y-64934627D01*
X161624298Y-64531851D01*
X161624701Y-64070374D01*
X161448474Y-63643871D01*
X161122445Y-63317273D01*
X160696251Y-63140302D01*
X160234774Y-63139899D01*
X159829027Y-63307549D01*
X159426251Y-63140302D01*
X158964774Y-63139899D01*
X158559027Y-63307549D01*
X158156251Y-63140302D01*
X157694774Y-63139899D01*
X157495242Y-63222343D01*
X157429140Y-63177723D01*
X157179500Y-63127660D01*
X156129500Y-63127660D01*
X155887377Y-63174637D01*
X155674573Y-63314427D01*
X155532123Y-63525460D01*
X155482060Y-63775100D01*
X155482060Y-64122308D01*
X155471376Y-64111624D01*
X155215925Y-63940937D01*
X154914600Y-63881000D01*
X154281177Y-63881000D01*
X154200327Y-63800008D01*
X153856799Y-63657362D01*
X153484833Y-63657038D01*
X153389900Y-63696263D01*
X153389900Y-61379100D01*
X153924000Y-61379100D01*
X154239905Y-61316263D01*
X154239906Y-61316263D01*
X154507717Y-61137317D01*
X155548340Y-60096693D01*
X155811843Y-59987817D01*
X156075092Y-59725027D01*
X156217738Y-59381499D01*
X156218062Y-59009533D01*
X156076017Y-58665757D01*
X155813227Y-58402508D01*
X155469699Y-58259862D01*
X155097733Y-58259538D01*
X154753957Y-58401583D01*
X154490708Y-58664373D01*
X154380582Y-58929583D01*
X153582066Y-59728100D01*
X152564405Y-59728100D01*
X152564400Y-59728099D01*
X152564394Y-59728100D01*
X152552400Y-59728100D01*
X150868912Y-59728100D01*
X150605599Y-59618762D01*
X150233633Y-59618438D01*
X149889857Y-59760483D01*
X149626608Y-60023273D01*
X149483962Y-60366801D01*
X149483638Y-60738767D01*
X149625683Y-61082543D01*
X149888473Y-61345792D01*
X150232001Y-61488438D01*
X150603967Y-61488762D01*
X150869369Y-61379100D01*
X151738900Y-61379100D01*
X151738900Y-64360011D01*
X151545399Y-64279662D01*
X151173433Y-64279338D01*
X150829657Y-64421383D01*
X150823930Y-64427100D01*
X148983700Y-64427100D01*
X148983700Y-56989222D01*
X149188026Y-56989401D01*
X149593772Y-56821750D01*
X149996549Y-56988998D01*
X150458026Y-56989401D01*
X150884529Y-56813174D01*
X151211127Y-56487145D01*
X151388098Y-56060951D01*
X151388501Y-55599474D01*
X151306056Y-55399942D01*
X151350677Y-55333840D01*
X151400740Y-55084200D01*
X151400740Y-54371774D01*
X151740083Y-54711117D01*
X152007894Y-54890063D01*
X152007895Y-54890063D01*
X152323800Y-54952900D01*
X158662066Y-54952900D01*
X159575500Y-55866333D01*
X159575500Y-59029600D01*
X159575500Y-59588400D01*
X159638337Y-59904306D01*
X159817283Y-60172117D01*
X161493680Y-61848513D01*
X161493683Y-61848517D01*
X161493684Y-61848517D01*
X161761495Y-62027463D01*
X162077400Y-62090301D01*
X162077400Y-62090300D01*
X162077405Y-62090300D01*
X162615499Y-62090300D01*
X162615438Y-62161167D01*
X162725100Y-62426569D01*
X162725100Y-69025466D01*
X159671961Y-72078604D01*
X159521627Y-71928008D01*
X159178099Y-71785362D01*
X158806133Y-71785038D01*
X158462357Y-71927083D01*
X158456630Y-71932800D01*
X152808110Y-71932800D01*
X152803327Y-71928008D01*
X152459799Y-71785362D01*
X152087833Y-71785038D01*
X151744057Y-71927083D01*
X151480808Y-72189873D01*
X151338162Y-72533401D01*
X151337838Y-72905367D01*
X151479883Y-73249143D01*
X151742673Y-73512392D01*
X152086201Y-73655038D01*
X152458167Y-73655362D01*
X152546984Y-73618663D01*
X152402024Y-73763624D01*
X152231337Y-74019075D01*
X152171400Y-74320400D01*
X152171400Y-83544648D01*
X152073848Y-83642200D01*
X149393445Y-83642200D01*
X149332317Y-83494257D01*
X149069527Y-83231008D01*
X148725999Y-83088362D01*
X148354033Y-83088038D01*
X148010257Y-83230083D01*
X147747008Y-83492873D01*
X147725215Y-83545354D01*
X147592033Y-83545238D01*
X147248257Y-83687283D01*
X146985008Y-83950073D01*
X146842362Y-84293601D01*
X146842350Y-84307359D01*
X146703033Y-84307238D01*
X146359257Y-84449283D01*
X146096008Y-84712073D01*
X145953362Y-85055601D01*
X145953343Y-85077300D01*
X144521362Y-85077300D01*
X144521362Y-62324233D01*
X144379317Y-61980457D01*
X144116527Y-61717208D01*
X143772999Y-61574562D01*
X143401033Y-61574238D01*
X143057257Y-61716283D01*
X142794008Y-61979073D01*
X142651362Y-62322601D01*
X142651038Y-62694567D01*
X142793083Y-63038343D01*
X142798800Y-63044069D01*
X142798800Y-73638648D01*
X142675848Y-73761600D01*
X141149510Y-73761600D01*
X141144727Y-73756808D01*
X140801199Y-73614162D01*
X140429233Y-73613838D01*
X140085457Y-73755883D01*
X139822208Y-74018673D01*
X139679562Y-74362201D01*
X139679238Y-74734167D01*
X139821283Y-75077943D01*
X140084073Y-75341192D01*
X140427601Y-75483838D01*
X140799567Y-75484162D01*
X141143343Y-75342117D01*
X141149069Y-75336400D01*
X143002000Y-75336400D01*
X143303325Y-75276463D01*
X143558776Y-75105776D01*
X144142976Y-74521576D01*
X144313663Y-74266125D01*
X144373600Y-73964800D01*
X144373600Y-63044510D01*
X144378392Y-63039727D01*
X144521038Y-62696199D01*
X144521362Y-62324233D01*
X144521362Y-85077300D01*
X122517048Y-85077300D01*
X122517048Y-55494213D01*
X122299043Y-54966600D01*
X121895723Y-54562576D01*
X121368491Y-54343650D01*
X120797613Y-54343152D01*
X120270000Y-54561157D01*
X119865976Y-54964477D01*
X119838376Y-55030943D01*
X119835664Y-55024395D01*
X119589545Y-54950261D01*
X119409939Y-55129866D01*
X119409939Y-54770655D01*
X119335805Y-54524536D01*
X118798577Y-54331435D01*
X118228346Y-54358622D01*
X117827795Y-54524536D01*
X117753661Y-54770655D01*
X118581800Y-55598795D01*
X119409939Y-54770655D01*
X119409939Y-55129866D01*
X118761405Y-55778400D01*
X119589545Y-56606539D01*
X119835664Y-56532405D01*
X119837995Y-56525917D01*
X119864557Y-56590200D01*
X120267877Y-56994224D01*
X120795109Y-57213150D01*
X121365987Y-57213648D01*
X121893600Y-56995643D01*
X122297624Y-56592323D01*
X122516550Y-56065091D01*
X122517048Y-55494213D01*
X122517048Y-85077300D01*
X119409939Y-85077300D01*
X119409939Y-56786145D01*
X118581800Y-55958005D01*
X118402195Y-56137610D01*
X118402195Y-55778400D01*
X117574055Y-54950261D01*
X117327936Y-55024395D01*
X117325604Y-55030882D01*
X117299043Y-54966600D01*
X116895723Y-54562576D01*
X116368491Y-54343650D01*
X115797613Y-54343152D01*
X115270000Y-54561157D01*
X114865976Y-54964477D01*
X114647050Y-55491709D01*
X114646552Y-56062587D01*
X114864557Y-56590200D01*
X115267877Y-56994224D01*
X115795109Y-57213150D01*
X116365987Y-57213648D01*
X116893600Y-56995643D01*
X117297624Y-56592323D01*
X117325223Y-56525856D01*
X117327936Y-56532405D01*
X117574055Y-56606539D01*
X118402195Y-55778400D01*
X118402195Y-56137610D01*
X117753661Y-56786145D01*
X117827795Y-57032264D01*
X118365023Y-57225365D01*
X118935254Y-57198178D01*
X119335805Y-57032264D01*
X119409939Y-56786145D01*
X119409939Y-85077300D01*
X114388900Y-85077300D01*
X114087575Y-85137237D01*
X113832124Y-85307924D01*
X111533424Y-87606624D01*
X111362737Y-87862075D01*
X111302800Y-88163400D01*
X111302800Y-93510800D01*
X111362737Y-93812125D01*
X111533424Y-94067576D01*
X112652560Y-95186712D01*
X112652560Y-95420600D01*
X112699537Y-95662723D01*
X112839327Y-95875527D01*
X113050360Y-96017977D01*
X113300000Y-96068040D01*
X113800000Y-96068040D01*
X114042123Y-96021063D01*
X114254927Y-95881273D01*
X114299613Y-95815071D01*
X114339327Y-95875527D01*
X114550360Y-96017977D01*
X114800000Y-96068040D01*
X115300000Y-96068040D01*
X115542123Y-96021063D01*
X115754927Y-95881273D01*
X115897377Y-95670240D01*
X115947440Y-95420600D01*
X115947440Y-95240593D01*
X115970872Y-95217161D01*
X116117560Y-95316177D01*
X116367200Y-95366240D01*
X117667200Y-95366240D01*
X117909323Y-95319263D01*
X118122127Y-95179473D01*
X118264577Y-94968440D01*
X118314640Y-94718800D01*
X118314640Y-94018800D01*
X118275194Y-93815495D01*
X118314640Y-93618800D01*
X118314640Y-92918800D01*
X118275194Y-92715495D01*
X118314640Y-92518800D01*
X118314640Y-91818800D01*
X118267663Y-91576677D01*
X118127873Y-91363873D01*
X117916840Y-91221423D01*
X117667200Y-91171360D01*
X116367200Y-91171360D01*
X116125077Y-91218337D01*
X115970386Y-91319952D01*
X115947440Y-91297006D01*
X115947440Y-91117000D01*
X115900463Y-90874877D01*
X115760673Y-90662073D01*
X115549640Y-90519623D01*
X115300000Y-90469560D01*
X114800000Y-90469560D01*
X114557877Y-90516537D01*
X114345073Y-90656327D01*
X114337400Y-90667694D01*
X114337400Y-88579152D01*
X115324652Y-87591900D01*
X152844500Y-87591900D01*
X154782042Y-87591900D01*
X154425259Y-88125864D01*
X154239906Y-89057698D01*
X154425259Y-89989532D01*
X154953101Y-90779503D01*
X155743072Y-91307345D01*
X156674906Y-91492698D01*
X157606740Y-91307345D01*
X158396711Y-90779503D01*
X158924553Y-89989532D01*
X159109906Y-89057698D01*
X158924553Y-88125864D01*
X158396711Y-87335893D01*
X157606740Y-86808051D01*
X156674906Y-86622698D01*
X156078651Y-86741300D01*
X167206176Y-75613776D01*
X167376863Y-75358325D01*
X167436800Y-75057000D01*
X167436800Y-74846239D01*
X167804233Y-74998811D01*
X168235873Y-74999188D01*
X168403320Y-74930000D01*
X180173159Y-74930000D01*
X181381400Y-76138240D01*
X181381400Y-80645000D01*
X181381400Y-94181459D01*
X179982659Y-95580200D01*
X166226625Y-95580200D01*
X166349527Y-95457298D01*
X166446200Y-95223909D01*
X166446200Y-94367350D01*
X166446200Y-93795850D01*
X166446200Y-92939291D01*
X166349527Y-92705902D01*
X166170899Y-92527273D01*
X165937510Y-92430600D01*
X165684891Y-92430600D01*
X165080950Y-92430600D01*
X164922200Y-92589350D01*
X164922200Y-93954600D01*
X166287450Y-93954600D01*
X166446200Y-93795850D01*
X166446200Y-94367350D01*
X166287450Y-94208600D01*
X164922200Y-94208600D01*
X164922200Y-94228600D01*
X164668200Y-94228600D01*
X164668200Y-94208600D01*
X164648200Y-94208600D01*
X164648200Y-93954600D01*
X164668200Y-93954600D01*
X164668200Y-92589350D01*
X164509450Y-92430600D01*
X163905509Y-92430600D01*
X163652890Y-92430600D01*
X163419501Y-92527273D01*
X163240873Y-92705902D01*
X163223201Y-92748565D01*
X162887010Y-92523930D01*
X162255200Y-92398255D01*
X161623390Y-92523930D01*
X161087767Y-92881822D01*
X160729875Y-93417445D01*
X160604200Y-94049255D01*
X160604200Y-94113945D01*
X160729875Y-94745755D01*
X161087767Y-95281378D01*
X161534985Y-95580200D01*
X159894482Y-95580200D01*
X159728767Y-95511389D01*
X159297127Y-95511012D01*
X159129679Y-95580200D01*
X152510625Y-95580200D01*
X152633527Y-95457298D01*
X152730200Y-95223909D01*
X152730200Y-94367350D01*
X152730200Y-93795850D01*
X152730200Y-92939291D01*
X152633527Y-92705902D01*
X152454899Y-92527273D01*
X152221510Y-92430600D01*
X151968891Y-92430600D01*
X151364950Y-92430600D01*
X151206200Y-92589350D01*
X151206200Y-93954600D01*
X152571450Y-93954600D01*
X152730200Y-93795850D01*
X152730200Y-94367350D01*
X152571450Y-94208600D01*
X151206200Y-94208600D01*
X151206200Y-94228600D01*
X150952200Y-94228600D01*
X150952200Y-94208600D01*
X150932200Y-94208600D01*
X150932200Y-93954600D01*
X150952200Y-93954600D01*
X150952200Y-92589350D01*
X150793450Y-92430600D01*
X150189509Y-92430600D01*
X149936890Y-92430600D01*
X149703501Y-92527273D01*
X149524873Y-92705902D01*
X149507201Y-92748565D01*
X149171010Y-92523930D01*
X148539200Y-92398255D01*
X147907390Y-92523930D01*
X147371767Y-92881822D01*
X147013875Y-93417445D01*
X146888200Y-94049255D01*
X146888200Y-94113945D01*
X147013875Y-94745755D01*
X147371767Y-95281378D01*
X147818985Y-95580200D01*
X146203882Y-95580200D01*
X146038167Y-95511389D01*
X145606527Y-95511012D01*
X145439079Y-95580200D01*
X142292282Y-95580200D01*
X142126567Y-95511389D01*
X141694927Y-95511012D01*
X141527479Y-95580200D01*
X127306282Y-95580200D01*
X127140567Y-95511389D01*
X126708927Y-95511012D01*
X126541479Y-95580200D01*
X124715040Y-95580200D01*
X123091373Y-93956533D01*
X123047863Y-93732277D01*
X122984304Y-93635520D01*
X122985727Y-93634098D01*
X123082400Y-93400709D01*
X123082400Y-93160150D01*
X123082400Y-92588650D01*
X123082400Y-92348091D01*
X122985727Y-92114702D01*
X122807099Y-91936073D01*
X122573710Y-91839400D01*
X122358150Y-91839400D01*
X122199400Y-91998150D01*
X122199400Y-92747400D01*
X122923650Y-92747400D01*
X123082400Y-92588650D01*
X123082400Y-93160150D01*
X122923650Y-93001400D01*
X122199400Y-93001400D01*
X122199400Y-93021400D01*
X121945400Y-93021400D01*
X121945400Y-93001400D01*
X121925400Y-93001400D01*
X121925400Y-92747400D01*
X121945400Y-92747400D01*
X121945400Y-91998150D01*
X121786650Y-91839400D01*
X121571090Y-91839400D01*
X121414640Y-91904203D01*
X121414640Y-91818800D01*
X121367663Y-91576677D01*
X121227873Y-91363873D01*
X121133200Y-91299967D01*
X121133200Y-90780200D01*
X121055862Y-90391394D01*
X121055861Y-90391393D01*
X120982780Y-90282021D01*
X120835620Y-90061780D01*
X120835620Y-90061779D01*
X120368876Y-89595035D01*
X120300354Y-89429200D01*
X119995405Y-89123718D01*
X119596767Y-88958189D01*
X119165127Y-88957812D01*
X118766200Y-89122646D01*
X118460718Y-89427595D01*
X118295189Y-89826233D01*
X118294812Y-90257873D01*
X118459646Y-90656800D01*
X118764595Y-90962282D01*
X118931921Y-91031762D01*
X119101200Y-91201040D01*
X119101200Y-91299711D01*
X119012273Y-91358127D01*
X118869823Y-91569160D01*
X118819760Y-91818800D01*
X118819760Y-92518800D01*
X118859205Y-92722104D01*
X118819760Y-92918800D01*
X118819760Y-93618800D01*
X118859205Y-93822104D01*
X118819760Y-94018800D01*
X118819760Y-94718800D01*
X118866737Y-94960923D01*
X119006527Y-95173727D01*
X119217560Y-95316177D01*
X119467200Y-95366240D01*
X120023892Y-95366240D01*
X120117200Y-95384800D01*
X121512699Y-95384800D01*
X121679387Y-95418227D01*
X123575780Y-97314621D01*
X123905393Y-97534862D01*
X123905394Y-97534862D01*
X124294200Y-97612200D01*
X126541317Y-97612200D01*
X126707033Y-97681011D01*
X127138673Y-97681388D01*
X127306120Y-97612200D01*
X141527317Y-97612200D01*
X141693033Y-97681011D01*
X142124673Y-97681388D01*
X142292120Y-97612200D01*
X145438917Y-97612200D01*
X145604633Y-97681011D01*
X146036273Y-97681388D01*
X146203720Y-97612200D01*
X159129517Y-97612200D01*
X159295233Y-97681011D01*
X159726873Y-97681388D01*
X159894320Y-97612200D01*
X180403500Y-97612200D01*
X180403500Y-97612199D01*
X180727799Y-97547692D01*
X180792306Y-97534862D01*
X180792307Y-97534862D01*
X181121920Y-97314620D01*
X182845364Y-95591175D01*
X183011200Y-95522654D01*
X183316682Y-95217705D01*
X183482211Y-94819067D01*
X183482588Y-94387427D01*
X183413400Y-94219979D01*
X183413400Y-80645000D01*
X183413400Y-75717400D01*
X183348892Y-75393100D01*
X183336062Y-75328594D01*
X183336062Y-75328593D01*
X183115821Y-74998980D01*
X181312420Y-73195580D01*
X180982807Y-72975338D01*
X180918299Y-72962507D01*
X180594000Y-72898000D01*
X169037000Y-72898000D01*
X169037000Y-67616282D01*
X169105811Y-67450567D01*
X169106188Y-67018927D01*
X168941354Y-66620000D01*
X168636405Y-66314518D01*
X168237767Y-66148989D01*
X167806127Y-66148612D01*
X167407200Y-66313446D01*
X167101718Y-66618395D01*
X167031868Y-66786611D01*
X166836199Y-66705362D01*
X166464233Y-66705038D01*
X166120457Y-66847083D01*
X166039889Y-66927509D01*
X165960527Y-66848008D01*
X165616999Y-66705362D01*
X165245033Y-66705038D01*
X165036500Y-66791201D01*
X165036500Y-62959512D01*
X165145838Y-62696199D01*
X165146162Y-62324233D01*
X165049503Y-62090300D01*
X207772000Y-62090300D01*
X208610200Y-62090300D01*
X209219116Y-62090300D01*
X210451700Y-63322883D01*
X210451700Y-64439800D01*
X210451700Y-75590400D01*
X210514537Y-75906306D01*
X210693483Y-76174117D01*
X211696005Y-77176638D01*
X211804883Y-77440143D01*
X212067673Y-77703392D01*
X212411201Y-77846038D01*
X212783167Y-77846362D01*
X213126943Y-77704317D01*
X213390192Y-77441527D01*
X213532838Y-77097999D01*
X213533162Y-76726033D01*
X213533162Y-91459816D01*
X213266218Y-91726295D01*
X213196738Y-91893620D01*
X209510159Y-95580200D01*
X203963482Y-95580200D01*
X203797767Y-95511389D01*
X203366127Y-95511012D01*
X203198679Y-95580200D01*
X200940440Y-95580200D01*
X199316773Y-93956533D01*
X199273263Y-93732277D01*
X199209704Y-93635520D01*
X199211127Y-93634098D01*
X199307800Y-93400709D01*
X199307800Y-93160150D01*
X199307800Y-92588650D01*
X199307800Y-92348091D01*
X199211127Y-92114702D01*
X199032499Y-91936073D01*
X198799110Y-91839400D01*
X198583550Y-91839400D01*
X198424800Y-91998150D01*
X198424800Y-92747400D01*
X199149050Y-92747400D01*
X199307800Y-92588650D01*
X199307800Y-93160150D01*
X199149050Y-93001400D01*
X198424800Y-93001400D01*
X198424800Y-93021400D01*
X198170800Y-93021400D01*
X198170800Y-93001400D01*
X198150800Y-93001400D01*
X198150800Y-92747400D01*
X198170800Y-92747400D01*
X198170800Y-91998150D01*
X198012050Y-91839400D01*
X197796490Y-91839400D01*
X197627340Y-91909464D01*
X197627340Y-91818800D01*
X197580363Y-91576677D01*
X197440573Y-91363873D01*
X197345900Y-91299967D01*
X197345900Y-90869100D01*
X197281392Y-90544800D01*
X197268562Y-90480294D01*
X197268562Y-90480293D01*
X197048321Y-90150680D01*
X196492676Y-89595036D01*
X196424154Y-89429200D01*
X196119205Y-89123718D01*
X195720567Y-88958189D01*
X195288927Y-88957812D01*
X194890000Y-89122646D01*
X194584518Y-89427595D01*
X194418989Y-89826233D01*
X194418612Y-90257873D01*
X194583446Y-90656800D01*
X194888395Y-90962282D01*
X195055721Y-91031762D01*
X195313900Y-91289940D01*
X195313900Y-91299711D01*
X195224973Y-91358127D01*
X195082523Y-91569160D01*
X195032460Y-91818800D01*
X195032460Y-92518800D01*
X195071905Y-92722104D01*
X195032460Y-92918800D01*
X195032460Y-93618800D01*
X195071905Y-93822104D01*
X195032460Y-94018800D01*
X195032460Y-94718800D01*
X195079437Y-94960923D01*
X195219227Y-95173727D01*
X195430260Y-95316177D01*
X195679900Y-95366240D01*
X196236592Y-95366240D01*
X196329900Y-95384800D01*
X197738099Y-95384800D01*
X197904787Y-95418227D01*
X199801180Y-97314621D01*
X200130793Y-97534862D01*
X200130794Y-97534862D01*
X200519600Y-97612200D01*
X203198517Y-97612200D01*
X203364233Y-97681011D01*
X203795873Y-97681388D01*
X203963320Y-97612200D01*
X209931000Y-97612200D01*
X209931000Y-97612199D01*
X210255299Y-97547692D01*
X210319806Y-97534862D01*
X210319807Y-97534862D01*
X210649420Y-97314620D01*
X214591900Y-93372140D01*
X214591900Y-99809300D01*
X194527340Y-99809300D01*
X194527340Y-94718800D01*
X194527340Y-94018800D01*
X194487894Y-93815495D01*
X194527340Y-93618800D01*
X194527340Y-92918800D01*
X194487894Y-92715495D01*
X194527340Y-92518800D01*
X194527340Y-91818800D01*
X194480363Y-91576677D01*
X194340573Y-91363873D01*
X194129540Y-91221423D01*
X193879900Y-91171360D01*
X192579900Y-91171360D01*
X192337777Y-91218337D01*
X192175421Y-91324987D01*
X192172840Y-91322406D01*
X192172840Y-91142400D01*
X192125863Y-90900277D01*
X191986073Y-90687473D01*
X191775040Y-90545023D01*
X191525400Y-90494960D01*
X191025400Y-90494960D01*
X190783277Y-90541937D01*
X190570473Y-90681727D01*
X190525786Y-90747928D01*
X190486073Y-90687473D01*
X190275040Y-90545023D01*
X190025400Y-90494960D01*
X189525400Y-90494960D01*
X189283277Y-90541937D01*
X189070473Y-90681727D01*
X188987262Y-90805000D01*
X188438552Y-90805000D01*
X188112400Y-90478848D01*
X188112400Y-64719200D01*
X188052463Y-64417875D01*
X187881776Y-64162424D01*
X186256176Y-62536824D01*
X186000725Y-62366137D01*
X185699400Y-62306200D01*
X169673710Y-62306200D01*
X169668927Y-62301408D01*
X169325399Y-62158762D01*
X168953433Y-62158438D01*
X168609657Y-62300483D01*
X168346408Y-62563273D01*
X168239045Y-62821830D01*
X168025457Y-62910083D01*
X167762208Y-63172873D01*
X167619562Y-63516401D01*
X167619238Y-63888367D01*
X167761283Y-64232143D01*
X168024073Y-64495392D01*
X168226632Y-64579502D01*
X168345483Y-64867143D01*
X168608273Y-65130392D01*
X168951801Y-65273038D01*
X169323767Y-65273362D01*
X169667543Y-65131317D01*
X169673269Y-65125600D01*
X185195448Y-65125600D01*
X185521600Y-65451752D01*
X185521600Y-93675200D01*
X185581537Y-93976525D01*
X185752224Y-94231976D01*
X187047624Y-95527376D01*
X187303075Y-95698063D01*
X187604400Y-95758000D01*
X188987524Y-95758000D01*
X189064727Y-95875527D01*
X189275760Y-96017977D01*
X189525400Y-96068040D01*
X190025400Y-96068040D01*
X190267523Y-96021063D01*
X190480327Y-95881273D01*
X190525013Y-95815071D01*
X190564727Y-95875527D01*
X190775760Y-96017977D01*
X191025400Y-96068040D01*
X191525400Y-96068040D01*
X191767523Y-96021063D01*
X191980327Y-95881273D01*
X192122777Y-95670240D01*
X192172840Y-95420600D01*
X192172840Y-95240593D01*
X192191154Y-95222278D01*
X192330260Y-95316177D01*
X192579900Y-95366240D01*
X193879900Y-95366240D01*
X194122023Y-95319263D01*
X194334827Y-95179473D01*
X194477277Y-94968440D01*
X194527340Y-94718800D01*
X194527340Y-99809300D01*
X99630533Y-99809300D01*
X91896717Y-92075484D01*
X91896717Y-92075483D01*
X91896713Y-92075480D01*
X89763762Y-89942528D01*
X89763762Y-58362687D01*
X89447008Y-57596085D01*
X88861000Y-57009053D01*
X88094952Y-56690962D01*
X87265487Y-56690238D01*
X86498885Y-57006992D01*
X85911853Y-57593000D01*
X85803400Y-57854183D01*
X85803400Y-57451909D01*
X85803400Y-57199290D01*
X85706727Y-56965901D01*
X85528098Y-56787273D01*
X85294709Y-56690600D01*
X84004150Y-56690600D01*
X83845400Y-56849350D01*
X83845400Y-58648600D01*
X83865400Y-58648600D01*
X83865400Y-58902600D01*
X83845400Y-58902600D01*
X83845400Y-60701850D01*
X84004150Y-60860600D01*
X85294709Y-60860600D01*
X85528098Y-60763927D01*
X85706727Y-60585299D01*
X85803400Y-60351910D01*
X85803400Y-60099291D01*
X85803400Y-59697627D01*
X85909792Y-59955115D01*
X86495800Y-60542147D01*
X87261848Y-60860238D01*
X88091313Y-60860962D01*
X88857915Y-60544208D01*
X89444947Y-59958200D01*
X89763038Y-59192152D01*
X89763762Y-58362687D01*
X89763762Y-89942528D01*
X89420700Y-89599466D01*
X89420700Y-73418000D01*
X89357863Y-73102095D01*
X89357862Y-73102094D01*
X89178917Y-72834283D01*
X89178913Y-72834280D01*
X87601040Y-71256406D01*
X87601040Y-71076400D01*
X87554063Y-70834277D01*
X87414273Y-70621473D01*
X87203240Y-70479023D01*
X86953600Y-70428960D01*
X86453600Y-70428960D01*
X86211477Y-70475937D01*
X85998673Y-70615727D01*
X85953986Y-70681928D01*
X85914273Y-70621473D01*
X85703240Y-70479023D01*
X85453600Y-70428960D01*
X84953600Y-70428960D01*
X84711477Y-70475937D01*
X84498673Y-70615727D01*
X84356223Y-70826760D01*
X84306160Y-71076400D01*
X84306160Y-71256406D01*
X84297891Y-71264674D01*
X84136040Y-71155423D01*
X83886400Y-71105360D01*
X83591400Y-71105360D01*
X83591400Y-60701850D01*
X83591400Y-58902600D01*
X81792150Y-58902600D01*
X81633400Y-59061350D01*
X81633400Y-60099291D01*
X81633400Y-60351910D01*
X81730073Y-60585299D01*
X81908702Y-60763927D01*
X82142091Y-60860600D01*
X83432650Y-60860600D01*
X83591400Y-60701850D01*
X83591400Y-71105360D01*
X82586400Y-71105360D01*
X82344277Y-71152337D01*
X82131473Y-71292127D01*
X81989023Y-71503160D01*
X81938960Y-71752800D01*
X81938960Y-72452800D01*
X81978405Y-72656104D01*
X81938960Y-72852800D01*
X81938960Y-73552800D01*
X81978405Y-73756104D01*
X81938960Y-73952800D01*
X81938960Y-74652800D01*
X81985937Y-74894923D01*
X82062975Y-75012200D01*
X81910091Y-75012200D01*
X81676702Y-75108873D01*
X81675419Y-75110155D01*
X81586040Y-75049823D01*
X81336400Y-74999760D01*
X81318084Y-74999760D01*
X81383777Y-74902440D01*
X81433840Y-74652800D01*
X81433840Y-73952800D01*
X81394394Y-73749495D01*
X81433840Y-73552800D01*
X81433840Y-72852800D01*
X81394394Y-72649495D01*
X81433840Y-72452800D01*
X81433840Y-71752800D01*
X81386863Y-71510677D01*
X81247073Y-71297873D01*
X81152400Y-71233967D01*
X81152400Y-57723840D01*
X81633400Y-57242840D01*
X81633400Y-57451909D01*
X81633400Y-58489850D01*
X81792150Y-58648600D01*
X83591400Y-58648600D01*
X83591400Y-56849350D01*
X83432650Y-56690600D01*
X82185640Y-56690600D01*
X83301040Y-55575200D01*
X95121517Y-55575200D01*
X95287233Y-55644011D01*
X95718873Y-55644388D01*
X96117800Y-55479554D01*
X96423282Y-55174605D01*
X96588811Y-54775967D01*
X96589188Y-54344327D01*
X96520000Y-54176879D01*
X96520000Y-51830440D01*
X101817640Y-46532800D01*
X109934360Y-46532800D01*
X109934360Y-50078400D01*
X109981337Y-50320523D01*
X110121127Y-50533327D01*
X110332160Y-50675777D01*
X110581800Y-50725840D01*
X113381800Y-50725840D01*
X113623923Y-50678863D01*
X113836727Y-50539073D01*
X113979177Y-50328040D01*
X114029240Y-50078400D01*
X114029240Y-46532800D01*
X114214802Y-46532800D01*
X114349933Y-46588911D01*
X114781573Y-46589288D01*
X114918283Y-46532800D01*
X123134360Y-46532800D01*
X123134360Y-50078400D01*
X123181337Y-50320523D01*
X123321127Y-50533327D01*
X123532160Y-50675777D01*
X123781800Y-50725840D01*
X126581800Y-50725840D01*
X126823923Y-50678863D01*
X127036727Y-50539073D01*
X127179177Y-50328040D01*
X127229240Y-50078400D01*
X127229240Y-46532800D01*
X186159760Y-46532800D01*
X186159760Y-50027600D01*
X186206737Y-50269723D01*
X186346527Y-50482527D01*
X186557560Y-50624977D01*
X186807200Y-50675040D01*
X189607200Y-50675040D01*
X189849323Y-50628063D01*
X190062127Y-50488273D01*
X190204577Y-50277240D01*
X190254640Y-50027600D01*
X190254640Y-46532800D01*
X193571659Y-46532800D01*
X199201224Y-52162365D01*
X199269746Y-52328200D01*
X199574695Y-52633682D01*
X199973333Y-52799211D01*
X200404973Y-52799588D01*
X200572019Y-52730565D01*
X229093377Y-52742917D01*
X232207400Y-55856940D01*
X232207400Y-71233711D01*
X232118473Y-71292127D01*
X232034683Y-71416257D01*
X231924327Y-71305708D01*
X231580799Y-71163062D01*
X231208833Y-71162738D01*
X231100307Y-71207579D01*
X231023040Y-71155423D01*
X230773400Y-71105360D01*
X229473400Y-71105360D01*
X229231277Y-71152337D01*
X229018473Y-71292127D01*
X228876023Y-71503160D01*
X228825960Y-71752800D01*
X228825960Y-72452800D01*
X228865405Y-72656104D01*
X228825960Y-72852800D01*
X228825960Y-73552800D01*
X228865405Y-73756104D01*
X228825960Y-73952800D01*
X228825960Y-74652800D01*
X228872937Y-74894923D01*
X229012727Y-75107727D01*
X229223760Y-75250177D01*
X229473400Y-75300240D01*
X230073934Y-75300240D01*
X229985073Y-75389101D01*
X229888400Y-75622490D01*
X229888400Y-75838050D01*
X230047150Y-75996800D01*
X230796400Y-75996800D01*
X230796400Y-75976800D01*
X231050400Y-75976800D01*
X231050400Y-75996800D01*
X231070400Y-75996800D01*
X231070400Y-76250800D01*
X231050400Y-76250800D01*
X231050400Y-76263500D01*
X230796400Y-76263500D01*
X230796400Y-76250800D01*
X230047150Y-76250800D01*
X230034450Y-76263500D01*
X221760312Y-76263500D01*
X221496999Y-76154162D01*
X221125033Y-76153838D01*
X220781257Y-76295883D01*
X220518008Y-76558673D01*
X220375362Y-76902201D01*
X220375038Y-77274167D01*
X220517083Y-77617943D01*
X220779873Y-77881192D01*
X221123401Y-78023838D01*
X221495367Y-78024162D01*
X221760769Y-77914500D01*
X231458200Y-77914500D01*
X231774105Y-77851663D01*
X231774106Y-77851663D01*
X232041917Y-77672717D01*
X232207400Y-77507234D01*
X232207400Y-91287011D01*
X232207400Y-91287011D01*
G37*
X232207400Y-91287011D02*
X232118473Y-91345427D01*
X232029560Y-91477147D01*
X231911627Y-91359008D01*
X231568099Y-91216362D01*
X231196133Y-91216038D01*
X231095485Y-91257624D01*
X231023040Y-91208723D01*
X230773400Y-91158660D01*
X229473400Y-91158660D01*
X229231277Y-91205637D01*
X229018473Y-91345427D01*
X228876023Y-91556460D01*
X228825960Y-91806100D01*
X228825960Y-92506100D01*
X228865405Y-92709404D01*
X228825960Y-92906100D01*
X228825960Y-93606100D01*
X228865405Y-93809404D01*
X228825960Y-94006100D01*
X228825960Y-94706100D01*
X228872937Y-94948223D01*
X229012727Y-95161027D01*
X229223760Y-95303477D01*
X229473400Y-95353540D01*
X229985056Y-95353540D01*
X229888400Y-95586890D01*
X229888400Y-95802450D01*
X230047150Y-95961200D01*
X230796400Y-95961200D01*
X230796400Y-95941200D01*
X231050400Y-95941200D01*
X231050400Y-95961200D01*
X231070400Y-95961200D01*
X231070400Y-96215200D01*
X231050400Y-96215200D01*
X231050400Y-96235200D01*
X230796400Y-96235200D01*
X230796400Y-96215200D01*
X230047150Y-96215200D01*
X229888400Y-96373950D01*
X229888400Y-96481900D01*
X225147340Y-96481900D01*
X220546476Y-91881036D01*
X220477954Y-91715200D01*
X220173005Y-91409718D01*
X219774367Y-91244189D01*
X219544900Y-91243988D01*
X219544900Y-72967112D01*
X219654238Y-72703799D01*
X219654562Y-72331833D01*
X219512517Y-71988057D01*
X219249727Y-71724808D01*
X218955185Y-71602503D01*
X218852117Y-71353057D01*
X218589327Y-71089808D01*
X218294785Y-70967503D01*
X218191717Y-70718057D01*
X217928927Y-70454808D01*
X217598607Y-70317646D01*
X217673038Y-70138399D01*
X217673362Y-69766433D01*
X217531317Y-69422657D01*
X217268527Y-69159408D01*
X216986654Y-69042363D01*
X216870917Y-68762257D01*
X216608127Y-68499008D01*
X216326254Y-68381963D01*
X216210517Y-68101857D01*
X215947727Y-67838608D01*
X215604199Y-67695962D01*
X215232233Y-67695638D01*
X214888457Y-67837683D01*
X214625208Y-68100473D01*
X214482562Y-68444001D01*
X214482238Y-68815967D01*
X214591900Y-69081369D01*
X214591900Y-91335631D01*
X214402267Y-91256889D01*
X213970627Y-91256512D01*
X213571700Y-91421346D01*
X213533162Y-91459816D01*
X213533162Y-76726033D01*
X213391117Y-76382257D01*
X213132890Y-76123579D01*
X213390192Y-75866727D01*
X213532838Y-75523199D01*
X213533162Y-75151233D01*
X213391117Y-74807457D01*
X213128327Y-74544208D01*
X212863115Y-74434082D01*
X212763100Y-74334066D01*
X212763100Y-74137944D01*
X212783167Y-74137962D01*
X213126943Y-73995917D01*
X213390192Y-73733127D01*
X213532838Y-73389599D01*
X213533162Y-73017633D01*
X213423500Y-72752230D01*
X213423500Y-62738000D01*
X213360663Y-62422095D01*
X213360662Y-62422094D01*
X213181717Y-62154283D01*
X213181713Y-62154280D01*
X210590917Y-59563483D01*
X210323106Y-59384537D01*
X210007200Y-59321700D01*
X198742448Y-59321700D01*
X198742448Y-55443413D01*
X198524443Y-54915800D01*
X198121123Y-54511776D01*
X197593891Y-54292850D01*
X197023013Y-54292352D01*
X196495400Y-54510357D01*
X196091376Y-54913677D01*
X196063776Y-54980143D01*
X196061064Y-54973595D01*
X195814945Y-54899461D01*
X195635339Y-55079066D01*
X195635339Y-54719855D01*
X195561205Y-54473736D01*
X195023977Y-54280635D01*
X194453746Y-54307822D01*
X194053195Y-54473736D01*
X193979061Y-54719855D01*
X194807200Y-55547995D01*
X195635339Y-54719855D01*
X195635339Y-55079066D01*
X194986805Y-55727600D01*
X195814945Y-56555739D01*
X196061064Y-56481605D01*
X196063395Y-56475117D01*
X196089957Y-56539400D01*
X196493277Y-56943424D01*
X197020509Y-57162350D01*
X197591387Y-57162848D01*
X198119000Y-56944843D01*
X198523024Y-56541523D01*
X198741950Y-56014291D01*
X198742448Y-55443413D01*
X198742448Y-59321700D01*
X195635339Y-59321700D01*
X195635339Y-56735345D01*
X194807200Y-55907205D01*
X194627595Y-56086810D01*
X194627595Y-55727600D01*
X193799455Y-54899461D01*
X193553336Y-54973595D01*
X193551004Y-54980082D01*
X193524443Y-54915800D01*
X193121123Y-54511776D01*
X192593891Y-54292850D01*
X192023013Y-54292352D01*
X191495400Y-54510357D01*
X191091376Y-54913677D01*
X190872450Y-55440909D01*
X190871952Y-56011787D01*
X191089957Y-56539400D01*
X191493277Y-56943424D01*
X192020509Y-57162350D01*
X192591387Y-57162848D01*
X193119000Y-56944843D01*
X193523024Y-56541523D01*
X193550623Y-56475056D01*
X193553336Y-56481605D01*
X193799455Y-56555739D01*
X194627595Y-55727600D01*
X194627595Y-56086810D01*
X193979061Y-56735345D01*
X194053195Y-56981464D01*
X194590423Y-57174565D01*
X195160654Y-57147378D01*
X195561205Y-56981464D01*
X195635339Y-56735345D01*
X195635339Y-59321700D01*
X169577568Y-59321700D01*
X169577568Y-51667027D01*
X169457069Y-51435000D01*
X168249600Y-51435000D01*
X168249600Y-52641817D01*
X168481626Y-52762958D01*
X168897547Y-52590688D01*
X169329421Y-52196490D01*
X169577568Y-51667027D01*
X169577568Y-59321700D01*
X164911058Y-59321700D01*
X165003192Y-59229727D01*
X165145838Y-58886199D01*
X165146162Y-58514233D01*
X165036500Y-58248830D01*
X165036500Y-54291534D01*
X165619734Y-53708300D01*
X166293800Y-53708300D01*
X166609705Y-53645463D01*
X166609706Y-53645463D01*
X166877517Y-53466517D01*
X167436313Y-52907719D01*
X167436317Y-52907717D01*
X167436317Y-52907716D01*
X167583012Y-52688171D01*
X167763574Y-52762958D01*
X167995600Y-52641817D01*
X167995600Y-51435000D01*
X167975600Y-51435000D01*
X167975600Y-51181000D01*
X167995600Y-51181000D01*
X167995600Y-51161000D01*
X168249600Y-51161000D01*
X168249600Y-51181000D01*
X169457069Y-51181000D01*
X169577568Y-50948973D01*
X169329421Y-50419510D01*
X169142336Y-50248746D01*
X169228323Y-50232063D01*
X169441127Y-50092273D01*
X169583577Y-49881240D01*
X169633640Y-49631600D01*
X169633640Y-47904400D01*
X169586663Y-47662277D01*
X169446873Y-47449473D01*
X169235840Y-47307023D01*
X168986200Y-47256960D01*
X167259000Y-47256960D01*
X167016877Y-47303937D01*
X166804073Y-47443727D01*
X166661623Y-47654760D01*
X166653420Y-47695659D01*
X166642270Y-47678971D01*
X166156089Y-47354115D01*
X165582600Y-47240041D01*
X165009111Y-47354115D01*
X164522930Y-47678971D01*
X164306936Y-48002228D01*
X164249421Y-47879510D01*
X163817547Y-47485312D01*
X163401626Y-47313042D01*
X163169600Y-47434183D01*
X163169600Y-48641000D01*
X163189600Y-48641000D01*
X163189600Y-48895000D01*
X163169600Y-48895000D01*
X163169600Y-48915000D01*
X162915600Y-48915000D01*
X162915600Y-48895000D01*
X162895600Y-48895000D01*
X162895600Y-48641000D01*
X162915600Y-48641000D01*
X162915600Y-47434183D01*
X162683574Y-47313042D01*
X162267653Y-47485312D01*
X161835779Y-47879510D01*
X161778263Y-48002228D01*
X161562270Y-47678971D01*
X161076089Y-47354115D01*
X160502600Y-47240041D01*
X159929111Y-47354115D01*
X159442930Y-47678971D01*
X159232600Y-47993751D01*
X159022270Y-47678971D01*
X158536089Y-47354115D01*
X157962600Y-47240041D01*
X157389111Y-47354115D01*
X156902930Y-47678971D01*
X156686936Y-48002228D01*
X156629421Y-47879510D01*
X156197547Y-47485312D01*
X155781626Y-47313042D01*
X155549600Y-47434183D01*
X155549600Y-48641000D01*
X155569600Y-48641000D01*
X155569600Y-48895000D01*
X155549600Y-48895000D01*
X155549600Y-49974183D01*
X155549600Y-50101817D01*
X155549600Y-51181000D01*
X155569600Y-51181000D01*
X155569600Y-51435000D01*
X155549600Y-51435000D01*
X155549600Y-51455000D01*
X155295600Y-51455000D01*
X155295600Y-51435000D01*
X155275600Y-51435000D01*
X155275600Y-51181000D01*
X155295600Y-51181000D01*
X155295600Y-50101817D01*
X155295600Y-49974183D01*
X155295600Y-48895000D01*
X155275600Y-48895000D01*
X155275600Y-48641000D01*
X155295600Y-48641000D01*
X155295600Y-47434183D01*
X155063574Y-47313042D01*
X154647653Y-47485312D01*
X154215779Y-47879510D01*
X154158263Y-48002228D01*
X153942270Y-47678971D01*
X153456089Y-47354115D01*
X152882600Y-47240041D01*
X152309111Y-47354115D01*
X151822930Y-47678971D01*
X151612600Y-47993751D01*
X151402270Y-47678971D01*
X150916089Y-47354115D01*
X150342600Y-47240041D01*
X149769111Y-47354115D01*
X149282930Y-47678971D01*
X149072600Y-47993751D01*
X148862270Y-47678971D01*
X148376089Y-47354115D01*
X147802600Y-47240041D01*
X147229111Y-47354115D01*
X146742930Y-47678971D01*
X146532600Y-47993751D01*
X146322270Y-47678971D01*
X145836089Y-47354115D01*
X145262600Y-47240041D01*
X144689111Y-47354115D01*
X144202930Y-47678971D01*
X143878074Y-48165152D01*
X143764000Y-48738641D01*
X143764000Y-48797359D01*
X143872672Y-49343694D01*
X143708408Y-49507673D01*
X143565762Y-49851201D01*
X143565754Y-49859293D01*
X143004024Y-50421024D01*
X142833337Y-50676475D01*
X142773400Y-50977800D01*
X142773400Y-57886600D01*
X142833337Y-58187925D01*
X143004024Y-58443376D01*
X145887298Y-61326650D01*
X145887298Y-77866098D01*
X145947235Y-78167423D01*
X146117922Y-78422874D01*
X148566624Y-80871576D01*
X148822075Y-81042263D01*
X149123400Y-81102200D01*
X150290089Y-81102200D01*
X150294873Y-81106992D01*
X150638401Y-81249638D01*
X151010367Y-81249962D01*
X151354143Y-81107917D01*
X151617392Y-80845127D01*
X151760038Y-80501599D01*
X151760362Y-80129633D01*
X151618317Y-79785857D01*
X151355527Y-79522608D01*
X151011999Y-79379962D01*
X150640033Y-79379638D01*
X150296257Y-79521683D01*
X150290530Y-79527400D01*
X149449552Y-79527400D01*
X147462098Y-77539946D01*
X147462098Y-70060482D01*
X147593683Y-70378943D01*
X147599400Y-70384669D01*
X147599400Y-75692000D01*
X147659337Y-75993325D01*
X147830024Y-76248776D01*
X148312624Y-76731376D01*
X148568075Y-76902063D01*
X148869400Y-76962000D01*
X150290089Y-76962000D01*
X150294873Y-76966792D01*
X150638401Y-77109438D01*
X151010367Y-77109762D01*
X151354143Y-76967717D01*
X151617392Y-76704927D01*
X151760038Y-76361399D01*
X151760362Y-75989433D01*
X151618317Y-75645657D01*
X151355527Y-75382408D01*
X151011999Y-75239762D01*
X150640033Y-75239438D01*
X150296257Y-75381483D01*
X150290530Y-75387200D01*
X149195552Y-75387200D01*
X149174200Y-75365848D01*
X149174200Y-70385110D01*
X149178992Y-70380327D01*
X149321638Y-70036799D01*
X149321849Y-69793483D01*
X149962080Y-70433713D01*
X149962083Y-70433717D01*
X150122624Y-70540986D01*
X150229894Y-70612663D01*
X150229895Y-70612663D01*
X150545800Y-70675500D01*
X159537400Y-70675500D01*
X159626300Y-70675500D01*
X159722287Y-70675500D01*
X159985601Y-70784838D01*
X160357567Y-70785162D01*
X160701343Y-70643117D01*
X160964592Y-70380327D01*
X161107238Y-70036799D01*
X161107562Y-69664833D01*
X160968785Y-69328966D01*
X161021276Y-69276476D01*
X161191963Y-69021025D01*
X161251900Y-68719700D01*
X161251900Y-66423131D01*
X161447327Y-66228045D01*
X161624298Y-65801851D01*
X161624701Y-65340374D01*
X161457050Y-64934627D01*
X161624298Y-64531851D01*
X161624701Y-64070374D01*
X161448474Y-63643871D01*
X161122445Y-63317273D01*
X160696251Y-63140302D01*
X160234774Y-63139899D01*
X159829027Y-63307549D01*
X159426251Y-63140302D01*
X158964774Y-63139899D01*
X158559027Y-63307549D01*
X158156251Y-63140302D01*
X157694774Y-63139899D01*
X157495242Y-63222343D01*
X157429140Y-63177723D01*
X157179500Y-63127660D01*
X156129500Y-63127660D01*
X155887377Y-63174637D01*
X155674573Y-63314427D01*
X155532123Y-63525460D01*
X155482060Y-63775100D01*
X155482060Y-64122308D01*
X155471376Y-64111624D01*
X155215925Y-63940937D01*
X154914600Y-63881000D01*
X154281177Y-63881000D01*
X154200327Y-63800008D01*
X153856799Y-63657362D01*
X153484833Y-63657038D01*
X153389900Y-63696263D01*
X153389900Y-61379100D01*
X153924000Y-61379100D01*
X154239905Y-61316263D01*
X154239906Y-61316263D01*
X154507717Y-61137317D01*
X155548340Y-60096693D01*
X155811843Y-59987817D01*
X156075092Y-59725027D01*
X156217738Y-59381499D01*
X156218062Y-59009533D01*
X156076017Y-58665757D01*
X155813227Y-58402508D01*
X155469699Y-58259862D01*
X155097733Y-58259538D01*
X154753957Y-58401583D01*
X154490708Y-58664373D01*
X154380582Y-58929583D01*
X153582066Y-59728100D01*
X152564405Y-59728100D01*
X152564400Y-59728099D01*
X152564394Y-59728100D01*
X152552400Y-59728100D01*
X150868912Y-59728100D01*
X150605599Y-59618762D01*
X150233633Y-59618438D01*
X149889857Y-59760483D01*
X149626608Y-60023273D01*
X149483962Y-60366801D01*
X149483638Y-60738767D01*
X149625683Y-61082543D01*
X149888473Y-61345792D01*
X150232001Y-61488438D01*
X150603967Y-61488762D01*
X150869369Y-61379100D01*
X151738900Y-61379100D01*
X151738900Y-64360011D01*
X151545399Y-64279662D01*
X151173433Y-64279338D01*
X150829657Y-64421383D01*
X150823930Y-64427100D01*
X148983700Y-64427100D01*
X148983700Y-56989222D01*
X149188026Y-56989401D01*
X149593772Y-56821750D01*
X149996549Y-56988998D01*
X150458026Y-56989401D01*
X150884529Y-56813174D01*
X151211127Y-56487145D01*
X151388098Y-56060951D01*
X151388501Y-55599474D01*
X151306056Y-55399942D01*
X151350677Y-55333840D01*
X151400740Y-55084200D01*
X151400740Y-54371774D01*
X151740083Y-54711117D01*
X152007894Y-54890063D01*
X152007895Y-54890063D01*
X152323800Y-54952900D01*
X158662066Y-54952900D01*
X159575500Y-55866333D01*
X159575500Y-59029600D01*
X159575500Y-59588400D01*
X159638337Y-59904306D01*
X159817283Y-60172117D01*
X161493680Y-61848513D01*
X161493683Y-61848517D01*
X161493684Y-61848517D01*
X161761495Y-62027463D01*
X162077400Y-62090301D01*
X162077400Y-62090300D01*
X162077405Y-62090300D01*
X162615499Y-62090300D01*
X162615438Y-62161167D01*
X162725100Y-62426569D01*
X162725100Y-69025466D01*
X159671961Y-72078604D01*
X159521627Y-71928008D01*
X159178099Y-71785362D01*
X158806133Y-71785038D01*
X158462357Y-71927083D01*
X158456630Y-71932800D01*
X152808110Y-71932800D01*
X152803327Y-71928008D01*
X152459799Y-71785362D01*
X152087833Y-71785038D01*
X151744057Y-71927083D01*
X151480808Y-72189873D01*
X151338162Y-72533401D01*
X151337838Y-72905367D01*
X151479883Y-73249143D01*
X151742673Y-73512392D01*
X152086201Y-73655038D01*
X152458167Y-73655362D01*
X152546984Y-73618663D01*
X152402024Y-73763624D01*
X152231337Y-74019075D01*
X152171400Y-74320400D01*
X152171400Y-83544648D01*
X152073848Y-83642200D01*
X149393445Y-83642200D01*
X149332317Y-83494257D01*
X149069527Y-83231008D01*
X148725999Y-83088362D01*
X148354033Y-83088038D01*
X148010257Y-83230083D01*
X147747008Y-83492873D01*
X147725215Y-83545354D01*
X147592033Y-83545238D01*
X147248257Y-83687283D01*
X146985008Y-83950073D01*
X146842362Y-84293601D01*
X146842350Y-84307359D01*
X146703033Y-84307238D01*
X146359257Y-84449283D01*
X146096008Y-84712073D01*
X145953362Y-85055601D01*
X145953343Y-85077300D01*
X144521362Y-85077300D01*
X144521362Y-62324233D01*
X144379317Y-61980457D01*
X144116527Y-61717208D01*
X143772999Y-61574562D01*
X143401033Y-61574238D01*
X143057257Y-61716283D01*
X142794008Y-61979073D01*
X142651362Y-62322601D01*
X142651038Y-62694567D01*
X142793083Y-63038343D01*
X142798800Y-63044069D01*
X142798800Y-73638648D01*
X142675848Y-73761600D01*
X141149510Y-73761600D01*
X141144727Y-73756808D01*
X140801199Y-73614162D01*
X140429233Y-73613838D01*
X140085457Y-73755883D01*
X139822208Y-74018673D01*
X139679562Y-74362201D01*
X139679238Y-74734167D01*
X139821283Y-75077943D01*
X140084073Y-75341192D01*
X140427601Y-75483838D01*
X140799567Y-75484162D01*
X141143343Y-75342117D01*
X141149069Y-75336400D01*
X143002000Y-75336400D01*
X143303325Y-75276463D01*
X143558776Y-75105776D01*
X144142976Y-74521576D01*
X144313663Y-74266125D01*
X144373600Y-73964800D01*
X144373600Y-63044510D01*
X144378392Y-63039727D01*
X144521038Y-62696199D01*
X144521362Y-62324233D01*
X144521362Y-85077300D01*
X122517048Y-85077300D01*
X122517048Y-55494213D01*
X122299043Y-54966600D01*
X121895723Y-54562576D01*
X121368491Y-54343650D01*
X120797613Y-54343152D01*
X120270000Y-54561157D01*
X119865976Y-54964477D01*
X119838376Y-55030943D01*
X119835664Y-55024395D01*
X119589545Y-54950261D01*
X119409939Y-55129866D01*
X119409939Y-54770655D01*
X119335805Y-54524536D01*
X118798577Y-54331435D01*
X118228346Y-54358622D01*
X117827795Y-54524536D01*
X117753661Y-54770655D01*
X118581800Y-55598795D01*
X119409939Y-54770655D01*
X119409939Y-55129866D01*
X118761405Y-55778400D01*
X119589545Y-56606539D01*
X119835664Y-56532405D01*
X119837995Y-56525917D01*
X119864557Y-56590200D01*
X120267877Y-56994224D01*
X120795109Y-57213150D01*
X121365987Y-57213648D01*
X121893600Y-56995643D01*
X122297624Y-56592323D01*
X122516550Y-56065091D01*
X122517048Y-55494213D01*
X122517048Y-85077300D01*
X119409939Y-85077300D01*
X119409939Y-56786145D01*
X118581800Y-55958005D01*
X118402195Y-56137610D01*
X118402195Y-55778400D01*
X117574055Y-54950261D01*
X117327936Y-55024395D01*
X117325604Y-55030882D01*
X117299043Y-54966600D01*
X116895723Y-54562576D01*
X116368491Y-54343650D01*
X115797613Y-54343152D01*
X115270000Y-54561157D01*
X114865976Y-54964477D01*
X114647050Y-55491709D01*
X114646552Y-56062587D01*
X114864557Y-56590200D01*
X115267877Y-56994224D01*
X115795109Y-57213150D01*
X116365987Y-57213648D01*
X116893600Y-56995643D01*
X117297624Y-56592323D01*
X117325223Y-56525856D01*
X117327936Y-56532405D01*
X117574055Y-56606539D01*
X118402195Y-55778400D01*
X118402195Y-56137610D01*
X117753661Y-56786145D01*
X117827795Y-57032264D01*
X118365023Y-57225365D01*
X118935254Y-57198178D01*
X119335805Y-57032264D01*
X119409939Y-56786145D01*
X119409939Y-85077300D01*
X114388900Y-85077300D01*
X114087575Y-85137237D01*
X113832124Y-85307924D01*
X111533424Y-87606624D01*
X111362737Y-87862075D01*
X111302800Y-88163400D01*
X111302800Y-93510800D01*
X111362737Y-93812125D01*
X111533424Y-94067576D01*
X112652560Y-95186712D01*
X112652560Y-95420600D01*
X112699537Y-95662723D01*
X112839327Y-95875527D01*
X113050360Y-96017977D01*
X113300000Y-96068040D01*
X113800000Y-96068040D01*
X114042123Y-96021063D01*
X114254927Y-95881273D01*
X114299613Y-95815071D01*
X114339327Y-95875527D01*
X114550360Y-96017977D01*
X114800000Y-96068040D01*
X115300000Y-96068040D01*
X115542123Y-96021063D01*
X115754927Y-95881273D01*
X115897377Y-95670240D01*
X115947440Y-95420600D01*
X115947440Y-95240593D01*
X115970872Y-95217161D01*
X116117560Y-95316177D01*
X116367200Y-95366240D01*
X117667200Y-95366240D01*
X117909323Y-95319263D01*
X118122127Y-95179473D01*
X118264577Y-94968440D01*
X118314640Y-94718800D01*
X118314640Y-94018800D01*
X118275194Y-93815495D01*
X118314640Y-93618800D01*
X118314640Y-92918800D01*
X118275194Y-92715495D01*
X118314640Y-92518800D01*
X118314640Y-91818800D01*
X118267663Y-91576677D01*
X118127873Y-91363873D01*
X117916840Y-91221423D01*
X117667200Y-91171360D01*
X116367200Y-91171360D01*
X116125077Y-91218337D01*
X115970386Y-91319952D01*
X115947440Y-91297006D01*
X115947440Y-91117000D01*
X115900463Y-90874877D01*
X115760673Y-90662073D01*
X115549640Y-90519623D01*
X115300000Y-90469560D01*
X114800000Y-90469560D01*
X114557877Y-90516537D01*
X114345073Y-90656327D01*
X114337400Y-90667694D01*
X114337400Y-88579152D01*
X115324652Y-87591900D01*
X152844500Y-87591900D01*
X154782042Y-87591900D01*
X154425259Y-88125864D01*
X154239906Y-89057698D01*
X154425259Y-89989532D01*
X154953101Y-90779503D01*
X155743072Y-91307345D01*
X156674906Y-91492698D01*
X157606740Y-91307345D01*
X158396711Y-90779503D01*
X158924553Y-89989532D01*
X159109906Y-89057698D01*
X158924553Y-88125864D01*
X158396711Y-87335893D01*
X157606740Y-86808051D01*
X156674906Y-86622698D01*
X156078651Y-86741300D01*
X167206176Y-75613776D01*
X167376863Y-75358325D01*
X167436800Y-75057000D01*
X167436800Y-74846239D01*
X167804233Y-74998811D01*
X168235873Y-74999188D01*
X168403320Y-74930000D01*
X180173159Y-74930000D01*
X181381400Y-76138240D01*
X181381400Y-80645000D01*
X181381400Y-94181459D01*
X179982659Y-95580200D01*
X166226625Y-95580200D01*
X166349527Y-95457298D01*
X166446200Y-95223909D01*
X166446200Y-94367350D01*
X166446200Y-93795850D01*
X166446200Y-92939291D01*
X166349527Y-92705902D01*
X166170899Y-92527273D01*
X165937510Y-92430600D01*
X165684891Y-92430600D01*
X165080950Y-92430600D01*
X164922200Y-92589350D01*
X164922200Y-93954600D01*
X166287450Y-93954600D01*
X166446200Y-93795850D01*
X166446200Y-94367350D01*
X166287450Y-94208600D01*
X164922200Y-94208600D01*
X164922200Y-94228600D01*
X164668200Y-94228600D01*
X164668200Y-94208600D01*
X164648200Y-94208600D01*
X164648200Y-93954600D01*
X164668200Y-93954600D01*
X164668200Y-92589350D01*
X164509450Y-92430600D01*
X163905509Y-92430600D01*
X163652890Y-92430600D01*
X163419501Y-92527273D01*
X163240873Y-92705902D01*
X163223201Y-92748565D01*
X162887010Y-92523930D01*
X162255200Y-92398255D01*
X161623390Y-92523930D01*
X161087767Y-92881822D01*
X160729875Y-93417445D01*
X160604200Y-94049255D01*
X160604200Y-94113945D01*
X160729875Y-94745755D01*
X161087767Y-95281378D01*
X161534985Y-95580200D01*
X159894482Y-95580200D01*
X159728767Y-95511389D01*
X159297127Y-95511012D01*
X159129679Y-95580200D01*
X152510625Y-95580200D01*
X152633527Y-95457298D01*
X152730200Y-95223909D01*
X152730200Y-94367350D01*
X152730200Y-93795850D01*
X152730200Y-92939291D01*
X152633527Y-92705902D01*
X152454899Y-92527273D01*
X152221510Y-92430600D01*
X151968891Y-92430600D01*
X151364950Y-92430600D01*
X151206200Y-92589350D01*
X151206200Y-93954600D01*
X152571450Y-93954600D01*
X152730200Y-93795850D01*
X152730200Y-94367350D01*
X152571450Y-94208600D01*
X151206200Y-94208600D01*
X151206200Y-94228600D01*
X150952200Y-94228600D01*
X150952200Y-94208600D01*
X150932200Y-94208600D01*
X150932200Y-93954600D01*
X150952200Y-93954600D01*
X150952200Y-92589350D01*
X150793450Y-92430600D01*
X150189509Y-92430600D01*
X149936890Y-92430600D01*
X149703501Y-92527273D01*
X149524873Y-92705902D01*
X149507201Y-92748565D01*
X149171010Y-92523930D01*
X148539200Y-92398255D01*
X147907390Y-92523930D01*
X147371767Y-92881822D01*
X147013875Y-93417445D01*
X146888200Y-94049255D01*
X146888200Y-94113945D01*
X147013875Y-94745755D01*
X147371767Y-95281378D01*
X147818985Y-95580200D01*
X146203882Y-95580200D01*
X146038167Y-95511389D01*
X145606527Y-95511012D01*
X145439079Y-95580200D01*
X142292282Y-95580200D01*
X142126567Y-95511389D01*
X141694927Y-95511012D01*
X141527479Y-95580200D01*
X127306282Y-95580200D01*
X127140567Y-95511389D01*
X126708927Y-95511012D01*
X126541479Y-95580200D01*
X124715040Y-95580200D01*
X123091373Y-93956533D01*
X123047863Y-93732277D01*
X122984304Y-93635520D01*
X122985727Y-93634098D01*
X123082400Y-93400709D01*
X123082400Y-93160150D01*
X123082400Y-92588650D01*
X123082400Y-92348091D01*
X122985727Y-92114702D01*
X122807099Y-91936073D01*
X122573710Y-91839400D01*
X122358150Y-91839400D01*
X122199400Y-91998150D01*
X122199400Y-92747400D01*
X122923650Y-92747400D01*
X123082400Y-92588650D01*
X123082400Y-93160150D01*
X122923650Y-93001400D01*
X122199400Y-93001400D01*
X122199400Y-93021400D01*
X121945400Y-93021400D01*
X121945400Y-93001400D01*
X121925400Y-93001400D01*
X121925400Y-92747400D01*
X121945400Y-92747400D01*
X121945400Y-91998150D01*
X121786650Y-91839400D01*
X121571090Y-91839400D01*
X121414640Y-91904203D01*
X121414640Y-91818800D01*
X121367663Y-91576677D01*
X121227873Y-91363873D01*
X121133200Y-91299967D01*
X121133200Y-90780200D01*
X121055862Y-90391394D01*
X121055861Y-90391393D01*
X120982780Y-90282021D01*
X120835620Y-90061780D01*
X120835620Y-90061779D01*
X120368876Y-89595035D01*
X120300354Y-89429200D01*
X119995405Y-89123718D01*
X119596767Y-88958189D01*
X119165127Y-88957812D01*
X118766200Y-89122646D01*
X118460718Y-89427595D01*
X118295189Y-89826233D01*
X118294812Y-90257873D01*
X118459646Y-90656800D01*
X118764595Y-90962282D01*
X118931921Y-91031762D01*
X119101200Y-91201040D01*
X119101200Y-91299711D01*
X119012273Y-91358127D01*
X118869823Y-91569160D01*
X118819760Y-91818800D01*
X118819760Y-92518800D01*
X118859205Y-92722104D01*
X118819760Y-92918800D01*
X118819760Y-93618800D01*
X118859205Y-93822104D01*
X118819760Y-94018800D01*
X118819760Y-94718800D01*
X118866737Y-94960923D01*
X119006527Y-95173727D01*
X119217560Y-95316177D01*
X119467200Y-95366240D01*
X120023892Y-95366240D01*
X120117200Y-95384800D01*
X121512699Y-95384800D01*
X121679387Y-95418227D01*
X123575780Y-97314621D01*
X123905393Y-97534862D01*
X123905394Y-97534862D01*
X124294200Y-97612200D01*
X126541317Y-97612200D01*
X126707033Y-97681011D01*
X127138673Y-97681388D01*
X127306120Y-97612200D01*
X141527317Y-97612200D01*
X141693033Y-97681011D01*
X142124673Y-97681388D01*
X142292120Y-97612200D01*
X145438917Y-97612200D01*
X145604633Y-97681011D01*
X146036273Y-97681388D01*
X146203720Y-97612200D01*
X159129517Y-97612200D01*
X159295233Y-97681011D01*
X159726873Y-97681388D01*
X159894320Y-97612200D01*
X180403500Y-97612200D01*
X180403500Y-97612199D01*
X180727799Y-97547692D01*
X180792306Y-97534862D01*
X180792307Y-97534862D01*
X181121920Y-97314620D01*
X182845364Y-95591175D01*
X183011200Y-95522654D01*
X183316682Y-95217705D01*
X183482211Y-94819067D01*
X183482588Y-94387427D01*
X183413400Y-94219979D01*
X183413400Y-80645000D01*
X183413400Y-75717400D01*
X183348892Y-75393100D01*
X183336062Y-75328594D01*
X183336062Y-75328593D01*
X183115821Y-74998980D01*
X181312420Y-73195580D01*
X180982807Y-72975338D01*
X180918299Y-72962507D01*
X180594000Y-72898000D01*
X169037000Y-72898000D01*
X169037000Y-67616282D01*
X169105811Y-67450567D01*
X169106188Y-67018927D01*
X168941354Y-66620000D01*
X168636405Y-66314518D01*
X168237767Y-66148989D01*
X167806127Y-66148612D01*
X167407200Y-66313446D01*
X167101718Y-66618395D01*
X167031868Y-66786611D01*
X166836199Y-66705362D01*
X166464233Y-66705038D01*
X166120457Y-66847083D01*
X166039889Y-66927509D01*
X165960527Y-66848008D01*
X165616999Y-66705362D01*
X165245033Y-66705038D01*
X165036500Y-66791201D01*
X165036500Y-62959512D01*
X165145838Y-62696199D01*
X165146162Y-62324233D01*
X165049503Y-62090300D01*
X207772000Y-62090300D01*
X208610200Y-62090300D01*
X209219116Y-62090300D01*
X210451700Y-63322883D01*
X210451700Y-64439800D01*
X210451700Y-75590400D01*
X210514537Y-75906306D01*
X210693483Y-76174117D01*
X211696005Y-77176638D01*
X211804883Y-77440143D01*
X212067673Y-77703392D01*
X212411201Y-77846038D01*
X212783167Y-77846362D01*
X213126943Y-77704317D01*
X213390192Y-77441527D01*
X213532838Y-77097999D01*
X213533162Y-76726033D01*
X213533162Y-91459816D01*
X213266218Y-91726295D01*
X213196738Y-91893620D01*
X209510159Y-95580200D01*
X203963482Y-95580200D01*
X203797767Y-95511389D01*
X203366127Y-95511012D01*
X203198679Y-95580200D01*
X200940440Y-95580200D01*
X199316773Y-93956533D01*
X199273263Y-93732277D01*
X199209704Y-93635520D01*
X199211127Y-93634098D01*
X199307800Y-93400709D01*
X199307800Y-93160150D01*
X199307800Y-92588650D01*
X199307800Y-92348091D01*
X199211127Y-92114702D01*
X199032499Y-91936073D01*
X198799110Y-91839400D01*
X198583550Y-91839400D01*
X198424800Y-91998150D01*
X198424800Y-92747400D01*
X199149050Y-92747400D01*
X199307800Y-92588650D01*
X199307800Y-93160150D01*
X199149050Y-93001400D01*
X198424800Y-93001400D01*
X198424800Y-93021400D01*
X198170800Y-93021400D01*
X198170800Y-93001400D01*
X198150800Y-93001400D01*
X198150800Y-92747400D01*
X198170800Y-92747400D01*
X198170800Y-91998150D01*
X198012050Y-91839400D01*
X197796490Y-91839400D01*
X197627340Y-91909464D01*
X197627340Y-91818800D01*
X197580363Y-91576677D01*
X197440573Y-91363873D01*
X197345900Y-91299967D01*
X197345900Y-90869100D01*
X197281392Y-90544800D01*
X197268562Y-90480294D01*
X197268562Y-90480293D01*
X197048321Y-90150680D01*
X196492676Y-89595036D01*
X196424154Y-89429200D01*
X196119205Y-89123718D01*
X195720567Y-88958189D01*
X195288927Y-88957812D01*
X194890000Y-89122646D01*
X194584518Y-89427595D01*
X194418989Y-89826233D01*
X194418612Y-90257873D01*
X194583446Y-90656800D01*
X194888395Y-90962282D01*
X195055721Y-91031762D01*
X195313900Y-91289940D01*
X195313900Y-91299711D01*
X195224973Y-91358127D01*
X195082523Y-91569160D01*
X195032460Y-91818800D01*
X195032460Y-92518800D01*
X195071905Y-92722104D01*
X195032460Y-92918800D01*
X195032460Y-93618800D01*
X195071905Y-93822104D01*
X195032460Y-94018800D01*
X195032460Y-94718800D01*
X195079437Y-94960923D01*
X195219227Y-95173727D01*
X195430260Y-95316177D01*
X195679900Y-95366240D01*
X196236592Y-95366240D01*
X196329900Y-95384800D01*
X197738099Y-95384800D01*
X197904787Y-95418227D01*
X199801180Y-97314621D01*
X200130793Y-97534862D01*
X200130794Y-97534862D01*
X200519600Y-97612200D01*
X203198517Y-97612200D01*
X203364233Y-97681011D01*
X203795873Y-97681388D01*
X203963320Y-97612200D01*
X209931000Y-97612200D01*
X209931000Y-97612199D01*
X210255299Y-97547692D01*
X210319806Y-97534862D01*
X210319807Y-97534862D01*
X210649420Y-97314620D01*
X214591900Y-93372140D01*
X214591900Y-99809300D01*
X194527340Y-99809300D01*
X194527340Y-94718800D01*
X194527340Y-94018800D01*
X194487894Y-93815495D01*
X194527340Y-93618800D01*
X194527340Y-92918800D01*
X194487894Y-92715495D01*
X194527340Y-92518800D01*
X194527340Y-91818800D01*
X194480363Y-91576677D01*
X194340573Y-91363873D01*
X194129540Y-91221423D01*
X193879900Y-91171360D01*
X192579900Y-91171360D01*
X192337777Y-91218337D01*
X192175421Y-91324987D01*
X192172840Y-91322406D01*
X192172840Y-91142400D01*
X192125863Y-90900277D01*
X191986073Y-90687473D01*
X191775040Y-90545023D01*
X191525400Y-90494960D01*
X191025400Y-90494960D01*
X190783277Y-90541937D01*
X190570473Y-90681727D01*
X190525786Y-90747928D01*
X190486073Y-90687473D01*
X190275040Y-90545023D01*
X190025400Y-90494960D01*
X189525400Y-90494960D01*
X189283277Y-90541937D01*
X189070473Y-90681727D01*
X188987262Y-90805000D01*
X188438552Y-90805000D01*
X188112400Y-90478848D01*
X188112400Y-64719200D01*
X188052463Y-64417875D01*
X187881776Y-64162424D01*
X186256176Y-62536824D01*
X186000725Y-62366137D01*
X185699400Y-62306200D01*
X169673710Y-62306200D01*
X169668927Y-62301408D01*
X169325399Y-62158762D01*
X168953433Y-62158438D01*
X168609657Y-62300483D01*
X168346408Y-62563273D01*
X168239045Y-62821830D01*
X168025457Y-62910083D01*
X167762208Y-63172873D01*
X167619562Y-63516401D01*
X167619238Y-63888367D01*
X167761283Y-64232143D01*
X168024073Y-64495392D01*
X168226632Y-64579502D01*
X168345483Y-64867143D01*
X168608273Y-65130392D01*
X168951801Y-65273038D01*
X169323767Y-65273362D01*
X169667543Y-65131317D01*
X169673269Y-65125600D01*
X185195448Y-65125600D01*
X185521600Y-65451752D01*
X185521600Y-93675200D01*
X185581537Y-93976525D01*
X185752224Y-94231976D01*
X187047624Y-95527376D01*
X187303075Y-95698063D01*
X187604400Y-95758000D01*
X188987524Y-95758000D01*
X189064727Y-95875527D01*
X189275760Y-96017977D01*
X189525400Y-96068040D01*
X190025400Y-96068040D01*
X190267523Y-96021063D01*
X190480327Y-95881273D01*
X190525013Y-95815071D01*
X190564727Y-95875527D01*
X190775760Y-96017977D01*
X191025400Y-96068040D01*
X191525400Y-96068040D01*
X191767523Y-96021063D01*
X191980327Y-95881273D01*
X192122777Y-95670240D01*
X192172840Y-95420600D01*
X192172840Y-95240593D01*
X192191154Y-95222278D01*
X192330260Y-95316177D01*
X192579900Y-95366240D01*
X193879900Y-95366240D01*
X194122023Y-95319263D01*
X194334827Y-95179473D01*
X194477277Y-94968440D01*
X194527340Y-94718800D01*
X194527340Y-99809300D01*
X99630533Y-99809300D01*
X91896717Y-92075484D01*
X91896717Y-92075483D01*
X91896713Y-92075480D01*
X89763762Y-89942528D01*
X89763762Y-58362687D01*
X89447008Y-57596085D01*
X88861000Y-57009053D01*
X88094952Y-56690962D01*
X87265487Y-56690238D01*
X86498885Y-57006992D01*
X85911853Y-57593000D01*
X85803400Y-57854183D01*
X85803400Y-57451909D01*
X85803400Y-57199290D01*
X85706727Y-56965901D01*
X85528098Y-56787273D01*
X85294709Y-56690600D01*
X84004150Y-56690600D01*
X83845400Y-56849350D01*
X83845400Y-58648600D01*
X83865400Y-58648600D01*
X83865400Y-58902600D01*
X83845400Y-58902600D01*
X83845400Y-60701850D01*
X84004150Y-60860600D01*
X85294709Y-60860600D01*
X85528098Y-60763927D01*
X85706727Y-60585299D01*
X85803400Y-60351910D01*
X85803400Y-60099291D01*
X85803400Y-59697627D01*
X85909792Y-59955115D01*
X86495800Y-60542147D01*
X87261848Y-60860238D01*
X88091313Y-60860962D01*
X88857915Y-60544208D01*
X89444947Y-59958200D01*
X89763038Y-59192152D01*
X89763762Y-58362687D01*
X89763762Y-89942528D01*
X89420700Y-89599466D01*
X89420700Y-73418000D01*
X89357863Y-73102095D01*
X89357862Y-73102094D01*
X89178917Y-72834283D01*
X89178913Y-72834280D01*
X87601040Y-71256406D01*
X87601040Y-71076400D01*
X87554063Y-70834277D01*
X87414273Y-70621473D01*
X87203240Y-70479023D01*
X86953600Y-70428960D01*
X86453600Y-70428960D01*
X86211477Y-70475937D01*
X85998673Y-70615727D01*
X85953986Y-70681928D01*
X85914273Y-70621473D01*
X85703240Y-70479023D01*
X85453600Y-70428960D01*
X84953600Y-70428960D01*
X84711477Y-70475937D01*
X84498673Y-70615727D01*
X84356223Y-70826760D01*
X84306160Y-71076400D01*
X84306160Y-71256406D01*
X84297891Y-71264674D01*
X84136040Y-71155423D01*
X83886400Y-71105360D01*
X83591400Y-71105360D01*
X83591400Y-60701850D01*
X83591400Y-58902600D01*
X81792150Y-58902600D01*
X81633400Y-59061350D01*
X81633400Y-60099291D01*
X81633400Y-60351910D01*
X81730073Y-60585299D01*
X81908702Y-60763927D01*
X82142091Y-60860600D01*
X83432650Y-60860600D01*
X83591400Y-60701850D01*
X83591400Y-71105360D01*
X82586400Y-71105360D01*
X82344277Y-71152337D01*
X82131473Y-71292127D01*
X81989023Y-71503160D01*
X81938960Y-71752800D01*
X81938960Y-72452800D01*
X81978405Y-72656104D01*
X81938960Y-72852800D01*
X81938960Y-73552800D01*
X81978405Y-73756104D01*
X81938960Y-73952800D01*
X81938960Y-74652800D01*
X81985937Y-74894923D01*
X82062975Y-75012200D01*
X81910091Y-75012200D01*
X81676702Y-75108873D01*
X81675419Y-75110155D01*
X81586040Y-75049823D01*
X81336400Y-74999760D01*
X81318084Y-74999760D01*
X81383777Y-74902440D01*
X81433840Y-74652800D01*
X81433840Y-73952800D01*
X81394394Y-73749495D01*
X81433840Y-73552800D01*
X81433840Y-72852800D01*
X81394394Y-72649495D01*
X81433840Y-72452800D01*
X81433840Y-71752800D01*
X81386863Y-71510677D01*
X81247073Y-71297873D01*
X81152400Y-71233967D01*
X81152400Y-57723840D01*
X81633400Y-57242840D01*
X81633400Y-57451909D01*
X81633400Y-58489850D01*
X81792150Y-58648600D01*
X83591400Y-58648600D01*
X83591400Y-56849350D01*
X83432650Y-56690600D01*
X82185640Y-56690600D01*
X83301040Y-55575200D01*
X95121517Y-55575200D01*
X95287233Y-55644011D01*
X95718873Y-55644388D01*
X96117800Y-55479554D01*
X96423282Y-55174605D01*
X96588811Y-54775967D01*
X96589188Y-54344327D01*
X96520000Y-54176879D01*
X96520000Y-51830440D01*
X101817640Y-46532800D01*
X109934360Y-46532800D01*
X109934360Y-50078400D01*
X109981337Y-50320523D01*
X110121127Y-50533327D01*
X110332160Y-50675777D01*
X110581800Y-50725840D01*
X113381800Y-50725840D01*
X113623923Y-50678863D01*
X113836727Y-50539073D01*
X113979177Y-50328040D01*
X114029240Y-50078400D01*
X114029240Y-46532800D01*
X114214802Y-46532800D01*
X114349933Y-46588911D01*
X114781573Y-46589288D01*
X114918283Y-46532800D01*
X123134360Y-46532800D01*
X123134360Y-50078400D01*
X123181337Y-50320523D01*
X123321127Y-50533327D01*
X123532160Y-50675777D01*
X123781800Y-50725840D01*
X126581800Y-50725840D01*
X126823923Y-50678863D01*
X127036727Y-50539073D01*
X127179177Y-50328040D01*
X127229240Y-50078400D01*
X127229240Y-46532800D01*
X186159760Y-46532800D01*
X186159760Y-50027600D01*
X186206737Y-50269723D01*
X186346527Y-50482527D01*
X186557560Y-50624977D01*
X186807200Y-50675040D01*
X189607200Y-50675040D01*
X189849323Y-50628063D01*
X190062127Y-50488273D01*
X190204577Y-50277240D01*
X190254640Y-50027600D01*
X190254640Y-46532800D01*
X193571659Y-46532800D01*
X199201224Y-52162365D01*
X199269746Y-52328200D01*
X199574695Y-52633682D01*
X199973333Y-52799211D01*
X200404973Y-52799588D01*
X200572019Y-52730565D01*
X229093377Y-52742917D01*
X232207400Y-55856940D01*
X232207400Y-71233711D01*
X232118473Y-71292127D01*
X232034683Y-71416257D01*
X231924327Y-71305708D01*
X231580799Y-71163062D01*
X231208833Y-71162738D01*
X231100307Y-71207579D01*
X231023040Y-71155423D01*
X230773400Y-71105360D01*
X229473400Y-71105360D01*
X229231277Y-71152337D01*
X229018473Y-71292127D01*
X228876023Y-71503160D01*
X228825960Y-71752800D01*
X228825960Y-72452800D01*
X228865405Y-72656104D01*
X228825960Y-72852800D01*
X228825960Y-73552800D01*
X228865405Y-73756104D01*
X228825960Y-73952800D01*
X228825960Y-74652800D01*
X228872937Y-74894923D01*
X229012727Y-75107727D01*
X229223760Y-75250177D01*
X229473400Y-75300240D01*
X230073934Y-75300240D01*
X229985073Y-75389101D01*
X229888400Y-75622490D01*
X229888400Y-75838050D01*
X230047150Y-75996800D01*
X230796400Y-75996800D01*
X230796400Y-75976800D01*
X231050400Y-75976800D01*
X231050400Y-75996800D01*
X231070400Y-75996800D01*
X231070400Y-76250800D01*
X231050400Y-76250800D01*
X231050400Y-76263500D01*
X230796400Y-76263500D01*
X230796400Y-76250800D01*
X230047150Y-76250800D01*
X230034450Y-76263500D01*
X221760312Y-76263500D01*
X221496999Y-76154162D01*
X221125033Y-76153838D01*
X220781257Y-76295883D01*
X220518008Y-76558673D01*
X220375362Y-76902201D01*
X220375038Y-77274167D01*
X220517083Y-77617943D01*
X220779873Y-77881192D01*
X221123401Y-78023838D01*
X221495367Y-78024162D01*
X221760769Y-77914500D01*
X231458200Y-77914500D01*
X231774105Y-77851663D01*
X231774106Y-77851663D01*
X232041917Y-77672717D01*
X232207400Y-77507234D01*
X232207400Y-91287011D01*
G36*
X240989908Y-104310907D02*
X240609906Y-104310907D01*
X240609906Y-101495908D01*
X240609906Y-42557698D01*
X240424553Y-41625864D01*
X239896711Y-40835893D01*
X239106740Y-40308051D01*
X238174906Y-40122698D01*
X237243072Y-40308051D01*
X236453101Y-40835893D01*
X235925259Y-41625864D01*
X235739906Y-42557698D01*
X235925259Y-43489532D01*
X236453101Y-44279503D01*
X237243072Y-44807345D01*
X238174906Y-44992698D01*
X239106740Y-44807345D01*
X239896711Y-44279503D01*
X240424553Y-43489532D01*
X240609906Y-42557698D01*
X240609906Y-101495908D01*
X240424553Y-100564074D01*
X239896711Y-99774103D01*
X239106740Y-99246261D01*
X238174906Y-99060908D01*
X237243072Y-99246261D01*
X236453101Y-99774103D01*
X235925259Y-100564074D01*
X235739906Y-101495908D01*
X235925259Y-102427742D01*
X236453101Y-103217713D01*
X237243072Y-103745555D01*
X238174906Y-103930908D01*
X239106740Y-103745555D01*
X239896711Y-103217713D01*
X240424553Y-102427742D01*
X240609906Y-101495908D01*
X240609906Y-104310907D01*
X234520840Y-104310907D01*
X234520840Y-94706100D01*
X234520840Y-94006100D01*
X234481394Y-93802795D01*
X234520840Y-93606100D01*
X234520840Y-92906100D01*
X234481394Y-92702795D01*
X234520840Y-92506100D01*
X234520840Y-91806100D01*
X234473863Y-91563977D01*
X234334073Y-91351173D01*
X234239400Y-91287267D01*
X234239400Y-76123800D01*
X234239400Y-75171888D01*
X234328327Y-75113473D01*
X234470777Y-74902440D01*
X234520840Y-74652800D01*
X234520840Y-73952800D01*
X234481394Y-73749495D01*
X234520840Y-73552800D01*
X234520840Y-72852800D01*
X234481394Y-72649495D01*
X234520840Y-72452800D01*
X234520840Y-71752800D01*
X234473863Y-71510677D01*
X234334073Y-71297873D01*
X234239400Y-71233967D01*
X234239400Y-55436100D01*
X234174892Y-55111800D01*
X234162062Y-55047294D01*
X234162062Y-55047293D01*
X233941820Y-54717680D01*
X233941820Y-54717679D01*
X230233131Y-51008991D01*
X230232820Y-51008680D01*
X230068441Y-50898845D01*
X229903613Y-50788606D01*
X229903392Y-50788562D01*
X229903207Y-50788438D01*
X229710638Y-50750134D01*
X229514840Y-50711100D01*
X200611123Y-50698582D01*
X200587580Y-50675040D01*
X202807200Y-50675040D01*
X203049323Y-50628063D01*
X203262127Y-50488273D01*
X203404577Y-50277240D01*
X203454640Y-50027600D01*
X203454640Y-46427600D01*
X203407663Y-46185477D01*
X203267873Y-45972673D01*
X203056840Y-45830223D01*
X202807200Y-45780160D01*
X200007200Y-45780160D01*
X199765077Y-45827137D01*
X199552273Y-45966927D01*
X199409823Y-46177960D01*
X199359760Y-46427600D01*
X199359760Y-49447219D01*
X198754165Y-48841624D01*
X198754165Y-41444377D01*
X198726978Y-40874146D01*
X198561064Y-40473595D01*
X198314945Y-40399461D01*
X198135339Y-40579066D01*
X198135339Y-40219855D01*
X198061205Y-39973736D01*
X197523977Y-39780635D01*
X196953746Y-39807822D01*
X196553195Y-39973736D01*
X196479061Y-40219855D01*
X197307200Y-41047995D01*
X198135339Y-40219855D01*
X198135339Y-40579066D01*
X197486805Y-41227600D01*
X198314945Y-42055739D01*
X198561064Y-41981605D01*
X198754165Y-41444377D01*
X198754165Y-48841624D01*
X198135339Y-48222798D01*
X198135339Y-42235345D01*
X197307200Y-41407205D01*
X197127595Y-41586810D01*
X197127595Y-41227600D01*
X196299455Y-40399461D01*
X196053336Y-40473595D01*
X195860235Y-41010823D01*
X195887422Y-41581054D01*
X196053336Y-41981605D01*
X196299455Y-42055739D01*
X197127595Y-41227600D01*
X197127595Y-41586810D01*
X196479061Y-42235345D01*
X196553195Y-42481464D01*
X197090423Y-42674565D01*
X197660654Y-42647378D01*
X198061205Y-42481464D01*
X198135339Y-42235345D01*
X198135339Y-48222798D01*
X194710920Y-44798380D01*
X194381307Y-44578138D01*
X194316799Y-44565307D01*
X193992500Y-44500800D01*
X193742448Y-44500800D01*
X193742448Y-40943413D01*
X193524443Y-40415800D01*
X193121123Y-40011776D01*
X192593891Y-39792850D01*
X192023013Y-39792352D01*
X191495400Y-40010357D01*
X191091376Y-40413677D01*
X190872450Y-40940909D01*
X190871952Y-41511787D01*
X191089957Y-42039400D01*
X191493277Y-42443424D01*
X192020509Y-42662350D01*
X192591387Y-42662848D01*
X193119000Y-42444843D01*
X193523024Y-42041523D01*
X193741950Y-41514291D01*
X193742448Y-40943413D01*
X193742448Y-44500800D01*
X187941267Y-44500800D01*
X187744967Y-44419289D01*
X187313327Y-44418912D01*
X187115143Y-44500800D01*
X122528765Y-44500800D01*
X122528765Y-41495177D01*
X122501578Y-40924946D01*
X122335664Y-40524395D01*
X122089545Y-40450261D01*
X121909939Y-40629866D01*
X121909939Y-40270655D01*
X121835805Y-40024536D01*
X121298577Y-39831435D01*
X120728346Y-39858622D01*
X120327795Y-40024536D01*
X120253661Y-40270655D01*
X121081800Y-41098795D01*
X121909939Y-40270655D01*
X121909939Y-40629866D01*
X121261405Y-41278400D01*
X122089545Y-42106539D01*
X122335664Y-42032405D01*
X122528765Y-41495177D01*
X122528765Y-44500800D01*
X121909939Y-44500800D01*
X121909939Y-42286145D01*
X121081800Y-41458005D01*
X120902195Y-41637610D01*
X120902195Y-41278400D01*
X120074055Y-40450261D01*
X119827936Y-40524395D01*
X119634835Y-41061623D01*
X119662022Y-41631854D01*
X119827936Y-42032405D01*
X120074055Y-42106539D01*
X120902195Y-41278400D01*
X120902195Y-41637610D01*
X120253661Y-42286145D01*
X120327795Y-42532264D01*
X120865023Y-42725365D01*
X121435254Y-42698178D01*
X121835805Y-42532264D01*
X121909939Y-42286145D01*
X121909939Y-44500800D01*
X117517048Y-44500800D01*
X117517048Y-40994213D01*
X117299043Y-40466600D01*
X116895723Y-40062576D01*
X116368491Y-39843650D01*
X115797613Y-39843152D01*
X115270000Y-40061157D01*
X114865976Y-40464477D01*
X114647050Y-40991709D01*
X114646552Y-41562587D01*
X114864557Y-42090200D01*
X115267877Y-42494224D01*
X115795109Y-42713150D01*
X116365987Y-42713648D01*
X116893600Y-42495643D01*
X117297624Y-42092323D01*
X117516550Y-41565091D01*
X117517048Y-40994213D01*
X117517048Y-44500800D01*
X114979767Y-44500800D01*
X114783467Y-44419289D01*
X114351827Y-44418912D01*
X114153643Y-44500800D01*
X111733752Y-44500800D01*
X111506867Y-44406589D01*
X111075227Y-44406212D01*
X110846307Y-44500800D01*
X101396800Y-44500800D01*
X101007993Y-44578138D01*
X100678380Y-44798379D01*
X94785580Y-50691180D01*
X94565338Y-51020793D01*
X94552507Y-51085300D01*
X94488000Y-51409600D01*
X94488000Y-53543200D01*
X82880200Y-53543200D01*
X82555900Y-53607707D01*
X82491393Y-53620538D01*
X82161779Y-53840780D01*
X79417980Y-56584580D01*
X79197738Y-56914193D01*
X79184907Y-56978700D01*
X79120400Y-57303000D01*
X79120400Y-71233711D01*
X79031473Y-71292127D01*
X78889023Y-71503160D01*
X78838960Y-71752800D01*
X78838960Y-72452800D01*
X78878405Y-72656104D01*
X78838960Y-72852800D01*
X78838960Y-73552800D01*
X78878405Y-73756104D01*
X78838960Y-73952800D01*
X78838960Y-74652800D01*
X78885937Y-74894923D01*
X79025727Y-75107727D01*
X79120400Y-75171632D01*
X79120400Y-76022200D01*
X79120400Y-91278668D01*
X79018773Y-91345427D01*
X78876323Y-91556460D01*
X78826260Y-91806100D01*
X78826260Y-92506100D01*
X78865705Y-92709404D01*
X78826260Y-92906100D01*
X78826260Y-93606100D01*
X78865705Y-93809404D01*
X78826260Y-94006100D01*
X78826260Y-94706100D01*
X78873237Y-94948223D01*
X79013027Y-95161027D01*
X79107700Y-95224932D01*
X79107700Y-95275500D01*
X79172207Y-95599799D01*
X79185038Y-95664307D01*
X79405280Y-95993920D01*
X79892426Y-96481067D01*
X79935937Y-96705323D01*
X80075727Y-96918127D01*
X80286760Y-97060577D01*
X80536400Y-97110640D01*
X81336400Y-97110640D01*
X81578523Y-97063663D01*
X81675279Y-97000104D01*
X81676702Y-97001527D01*
X81910091Y-97098200D01*
X82150650Y-97098200D01*
X82309400Y-96939450D01*
X82309400Y-96215200D01*
X82289400Y-96215200D01*
X82289400Y-95961200D01*
X82309400Y-95961200D01*
X82309400Y-95941200D01*
X82563400Y-95941200D01*
X82563400Y-95961200D01*
X83312650Y-95961200D01*
X83471400Y-95802450D01*
X83471400Y-95586890D01*
X83374743Y-95353540D01*
X83873700Y-95353540D01*
X84115823Y-95306563D01*
X84301173Y-95184807D01*
X84306160Y-95189794D01*
X84306160Y-95369800D01*
X84353137Y-95611923D01*
X84492927Y-95824727D01*
X84703960Y-95967177D01*
X84953600Y-96017240D01*
X85453600Y-96017240D01*
X85695723Y-95970263D01*
X85908527Y-95830473D01*
X85953213Y-95764271D01*
X85992927Y-95824727D01*
X86203960Y-95967177D01*
X86453600Y-96017240D01*
X86953600Y-96017240D01*
X87195723Y-95970263D01*
X87408527Y-95830473D01*
X87466019Y-95745300D01*
X89091466Y-95745300D01*
X97358683Y-104012517D01*
X97626494Y-104191463D01*
X97626495Y-104191463D01*
X97942400Y-104254300D01*
X212521800Y-104254300D01*
X216255600Y-104254300D01*
X216571505Y-104191463D01*
X216571506Y-104191463D01*
X216839317Y-104012517D01*
X219303113Y-101548719D01*
X219303116Y-101548717D01*
X219303117Y-101548717D01*
X219482062Y-101280906D01*
X219482063Y-101280905D01*
X219544900Y-100965000D01*
X219544900Y-93753140D01*
X224008079Y-98216320D01*
X224008080Y-98216320D01*
X224228321Y-98363480D01*
X224337693Y-98436561D01*
X224337694Y-98436562D01*
X224726500Y-98513900D01*
X230454200Y-98513900D01*
X232727500Y-98513900D01*
X232727500Y-98513899D01*
X233051799Y-98449392D01*
X233116306Y-98436562D01*
X233116307Y-98436562D01*
X233445920Y-98216320D01*
X233941820Y-97720420D01*
X233941821Y-97720420D01*
X234162062Y-97390807D01*
X234162062Y-97390806D01*
X234239400Y-97002000D01*
X234239400Y-96278100D01*
X234239400Y-96088200D01*
X234239400Y-95225188D01*
X234328327Y-95166773D01*
X234470777Y-94955740D01*
X234520840Y-94706100D01*
X234520840Y-104310907D01*
X83471400Y-104310907D01*
X83471400Y-96589510D01*
X83471400Y-96373950D01*
X83312650Y-96215200D01*
X82563400Y-96215200D01*
X82563400Y-96939450D01*
X82722150Y-97098200D01*
X82962709Y-97098200D01*
X83196098Y-97001527D01*
X83374727Y-96822899D01*
X83471400Y-96589510D01*
X83471400Y-104310907D01*
X77609906Y-104310907D01*
X77609906Y-101495908D01*
X77609906Y-42557698D01*
X77424553Y-41625864D01*
X76896711Y-40835893D01*
X76106740Y-40308051D01*
X75174906Y-40122698D01*
X74243072Y-40308051D01*
X73453101Y-40835893D01*
X72925259Y-41625864D01*
X72739906Y-42557698D01*
X72925259Y-43489532D01*
X73453101Y-44279503D01*
X74243072Y-44807345D01*
X75174906Y-44992698D01*
X76106740Y-44807345D01*
X76896711Y-44279503D01*
X77424553Y-43489532D01*
X77609906Y-42557698D01*
X77609906Y-101495908D01*
X77424553Y-100564074D01*
X76896711Y-99774103D01*
X76106740Y-99246261D01*
X75174906Y-99060908D01*
X74243072Y-99246261D01*
X73453101Y-99774103D01*
X72925259Y-100564074D01*
X72739906Y-101495908D01*
X72925259Y-102427742D01*
X73453101Y-103217713D01*
X74243072Y-103745555D01*
X75174906Y-103930908D01*
X76106740Y-103745555D01*
X76896711Y-103217713D01*
X77424553Y-102427742D01*
X77609906Y-101495908D01*
X77609906Y-104310907D01*
X72359906Y-104310907D01*
X72359906Y-39742698D01*
X240989908Y-39742698D01*
X240989908Y-104310907D01*
X240989908Y-104310907D01*
G37*
X240989908Y-104310907D02*
X240609906Y-104310907D01*
X240609906Y-101495908D01*
X240609906Y-42557698D01*
X240424553Y-41625864D01*
X239896711Y-40835893D01*
X239106740Y-40308051D01*
X238174906Y-40122698D01*
X237243072Y-40308051D01*
X236453101Y-40835893D01*
X235925259Y-41625864D01*
X235739906Y-42557698D01*
X235925259Y-43489532D01*
X236453101Y-44279503D01*
X237243072Y-44807345D01*
X238174906Y-44992698D01*
X239106740Y-44807345D01*
X239896711Y-44279503D01*
X240424553Y-43489532D01*
X240609906Y-42557698D01*
X240609906Y-101495908D01*
X240424553Y-100564074D01*
X239896711Y-99774103D01*
X239106740Y-99246261D01*
X238174906Y-99060908D01*
X237243072Y-99246261D01*
X236453101Y-99774103D01*
X235925259Y-100564074D01*
X235739906Y-101495908D01*
X235925259Y-102427742D01*
X236453101Y-103217713D01*
X237243072Y-103745555D01*
X238174906Y-103930908D01*
X239106740Y-103745555D01*
X239896711Y-103217713D01*
X240424553Y-102427742D01*
X240609906Y-101495908D01*
X240609906Y-104310907D01*
X234520840Y-104310907D01*
X234520840Y-94706100D01*
X234520840Y-94006100D01*
X234481394Y-93802795D01*
X234520840Y-93606100D01*
X234520840Y-92906100D01*
X234481394Y-92702795D01*
X234520840Y-92506100D01*
X234520840Y-91806100D01*
X234473863Y-91563977D01*
X234334073Y-91351173D01*
X234239400Y-91287267D01*
X234239400Y-76123800D01*
X234239400Y-75171888D01*
X234328327Y-75113473D01*
X234470777Y-74902440D01*
X234520840Y-74652800D01*
X234520840Y-73952800D01*
X234481394Y-73749495D01*
X234520840Y-73552800D01*
X234520840Y-72852800D01*
X234481394Y-72649495D01*
X234520840Y-72452800D01*
X234520840Y-71752800D01*
X234473863Y-71510677D01*
X234334073Y-71297873D01*
X234239400Y-71233967D01*
X234239400Y-55436100D01*
X234174892Y-55111800D01*
X234162062Y-55047294D01*
X234162062Y-55047293D01*
X233941820Y-54717680D01*
X233941820Y-54717679D01*
X230233131Y-51008991D01*
X230232820Y-51008680D01*
X230068441Y-50898845D01*
X229903613Y-50788606D01*
X229903392Y-50788562D01*
X229903207Y-50788438D01*
X229710638Y-50750134D01*
X229514840Y-50711100D01*
X200611123Y-50698582D01*
X200587580Y-50675040D01*
X202807200Y-50675040D01*
X203049323Y-50628063D01*
X203262127Y-50488273D01*
X203404577Y-50277240D01*
X203454640Y-50027600D01*
X203454640Y-46427600D01*
X203407663Y-46185477D01*
X203267873Y-45972673D01*
X203056840Y-45830223D01*
X202807200Y-45780160D01*
X200007200Y-45780160D01*
X199765077Y-45827137D01*
X199552273Y-45966927D01*
X199409823Y-46177960D01*
X199359760Y-46427600D01*
X199359760Y-49447219D01*
X198754165Y-48841624D01*
X198754165Y-41444377D01*
X198726978Y-40874146D01*
X198561064Y-40473595D01*
X198314945Y-40399461D01*
X198135339Y-40579066D01*
X198135339Y-40219855D01*
X198061205Y-39973736D01*
X197523977Y-39780635D01*
X196953746Y-39807822D01*
X196553195Y-39973736D01*
X196479061Y-40219855D01*
X197307200Y-41047995D01*
X198135339Y-40219855D01*
X198135339Y-40579066D01*
X197486805Y-41227600D01*
X198314945Y-42055739D01*
X198561064Y-41981605D01*
X198754165Y-41444377D01*
X198754165Y-48841624D01*
X198135339Y-48222798D01*
X198135339Y-42235345D01*
X197307200Y-41407205D01*
X197127595Y-41586810D01*
X197127595Y-41227600D01*
X196299455Y-40399461D01*
X196053336Y-40473595D01*
X195860235Y-41010823D01*
X195887422Y-41581054D01*
X196053336Y-41981605D01*
X196299455Y-42055739D01*
X197127595Y-41227600D01*
X197127595Y-41586810D01*
X196479061Y-42235345D01*
X196553195Y-42481464D01*
X197090423Y-42674565D01*
X197660654Y-42647378D01*
X198061205Y-42481464D01*
X198135339Y-42235345D01*
X198135339Y-48222798D01*
X194710920Y-44798380D01*
X194381307Y-44578138D01*
X194316799Y-44565307D01*
X193992500Y-44500800D01*
X193742448Y-44500800D01*
X193742448Y-40943413D01*
X193524443Y-40415800D01*
X193121123Y-40011776D01*
X192593891Y-39792850D01*
X192023013Y-39792352D01*
X191495400Y-40010357D01*
X191091376Y-40413677D01*
X190872450Y-40940909D01*
X190871952Y-41511787D01*
X191089957Y-42039400D01*
X191493277Y-42443424D01*
X192020509Y-42662350D01*
X192591387Y-42662848D01*
X193119000Y-42444843D01*
X193523024Y-42041523D01*
X193741950Y-41514291D01*
X193742448Y-40943413D01*
X193742448Y-44500800D01*
X187941267Y-44500800D01*
X187744967Y-44419289D01*
X187313327Y-44418912D01*
X187115143Y-44500800D01*
X122528765Y-44500800D01*
X122528765Y-41495177D01*
X122501578Y-40924946D01*
X122335664Y-40524395D01*
X122089545Y-40450261D01*
X121909939Y-40629866D01*
X121909939Y-40270655D01*
X121835805Y-40024536D01*
X121298577Y-39831435D01*
X120728346Y-39858622D01*
X120327795Y-40024536D01*
X120253661Y-40270655D01*
X121081800Y-41098795D01*
X121909939Y-40270655D01*
X121909939Y-40629866D01*
X121261405Y-41278400D01*
X122089545Y-42106539D01*
X122335664Y-42032405D01*
X122528765Y-41495177D01*
X122528765Y-44500800D01*
X121909939Y-44500800D01*
X121909939Y-42286145D01*
X121081800Y-41458005D01*
X120902195Y-41637610D01*
X120902195Y-41278400D01*
X120074055Y-40450261D01*
X119827936Y-40524395D01*
X119634835Y-41061623D01*
X119662022Y-41631854D01*
X119827936Y-42032405D01*
X120074055Y-42106539D01*
X120902195Y-41278400D01*
X120902195Y-41637610D01*
X120253661Y-42286145D01*
X120327795Y-42532264D01*
X120865023Y-42725365D01*
X121435254Y-42698178D01*
X121835805Y-42532264D01*
X121909939Y-42286145D01*
X121909939Y-44500800D01*
X117517048Y-44500800D01*
X117517048Y-40994213D01*
X117299043Y-40466600D01*
X116895723Y-40062576D01*
X116368491Y-39843650D01*
X115797613Y-39843152D01*
X115270000Y-40061157D01*
X114865976Y-40464477D01*
X114647050Y-40991709D01*
X114646552Y-41562587D01*
X114864557Y-42090200D01*
X115267877Y-42494224D01*
X115795109Y-42713150D01*
X116365987Y-42713648D01*
X116893600Y-42495643D01*
X117297624Y-42092323D01*
X117516550Y-41565091D01*
X117517048Y-40994213D01*
X117517048Y-44500800D01*
X114979767Y-44500800D01*
X114783467Y-44419289D01*
X114351827Y-44418912D01*
X114153643Y-44500800D01*
X111733752Y-44500800D01*
X111506867Y-44406589D01*
X111075227Y-44406212D01*
X110846307Y-44500800D01*
X101396800Y-44500800D01*
X101007993Y-44578138D01*
X100678380Y-44798379D01*
X94785580Y-50691180D01*
X94565338Y-51020793D01*
X94552507Y-51085300D01*
X94488000Y-51409600D01*
X94488000Y-53543200D01*
X82880200Y-53543200D01*
X82555900Y-53607707D01*
X82491393Y-53620538D01*
X82161779Y-53840780D01*
X79417980Y-56584580D01*
X79197738Y-56914193D01*
X79184907Y-56978700D01*
X79120400Y-57303000D01*
X79120400Y-71233711D01*
X79031473Y-71292127D01*
X78889023Y-71503160D01*
X78838960Y-71752800D01*
X78838960Y-72452800D01*
X78878405Y-72656104D01*
X78838960Y-72852800D01*
X78838960Y-73552800D01*
X78878405Y-73756104D01*
X78838960Y-73952800D01*
X78838960Y-74652800D01*
X78885937Y-74894923D01*
X79025727Y-75107727D01*
X79120400Y-75171632D01*
X79120400Y-76022200D01*
X79120400Y-91278668D01*
X79018773Y-91345427D01*
X78876323Y-91556460D01*
X78826260Y-91806100D01*
X78826260Y-92506100D01*
X78865705Y-92709404D01*
X78826260Y-92906100D01*
X78826260Y-93606100D01*
X78865705Y-93809404D01*
X78826260Y-94006100D01*
X78826260Y-94706100D01*
X78873237Y-94948223D01*
X79013027Y-95161027D01*
X79107700Y-95224932D01*
X79107700Y-95275500D01*
X79172207Y-95599799D01*
X79185038Y-95664307D01*
X79405280Y-95993920D01*
X79892426Y-96481067D01*
X79935937Y-96705323D01*
X80075727Y-96918127D01*
X80286760Y-97060577D01*
X80536400Y-97110640D01*
X81336400Y-97110640D01*
X81578523Y-97063663D01*
X81675279Y-97000104D01*
X81676702Y-97001527D01*
X81910091Y-97098200D01*
X82150650Y-97098200D01*
X82309400Y-96939450D01*
X82309400Y-96215200D01*
X82289400Y-96215200D01*
X82289400Y-95961200D01*
X82309400Y-95961200D01*
X82309400Y-95941200D01*
X82563400Y-95941200D01*
X82563400Y-95961200D01*
X83312650Y-95961200D01*
X83471400Y-95802450D01*
X83471400Y-95586890D01*
X83374743Y-95353540D01*
X83873700Y-95353540D01*
X84115823Y-95306563D01*
X84301173Y-95184807D01*
X84306160Y-95189794D01*
X84306160Y-95369800D01*
X84353137Y-95611923D01*
X84492927Y-95824727D01*
X84703960Y-95967177D01*
X84953600Y-96017240D01*
X85453600Y-96017240D01*
X85695723Y-95970263D01*
X85908527Y-95830473D01*
X85953213Y-95764271D01*
X85992927Y-95824727D01*
X86203960Y-95967177D01*
X86453600Y-96017240D01*
X86953600Y-96017240D01*
X87195723Y-95970263D01*
X87408527Y-95830473D01*
X87466019Y-95745300D01*
X89091466Y-95745300D01*
X97358683Y-104012517D01*
X97626494Y-104191463D01*
X97626495Y-104191463D01*
X97942400Y-104254300D01*
X212521800Y-104254300D01*
X216255600Y-104254300D01*
X216571505Y-104191463D01*
X216571506Y-104191463D01*
X216839317Y-104012517D01*
X219303113Y-101548719D01*
X219303116Y-101548717D01*
X219303117Y-101548717D01*
X219482062Y-101280906D01*
X219482063Y-101280905D01*
X219544900Y-100965000D01*
X219544900Y-93753140D01*
X224008079Y-98216320D01*
X224008080Y-98216320D01*
X224228321Y-98363480D01*
X224337693Y-98436561D01*
X224337694Y-98436562D01*
X224726500Y-98513900D01*
X230454200Y-98513900D01*
X232727500Y-98513900D01*
X232727500Y-98513899D01*
X233051799Y-98449392D01*
X233116306Y-98436562D01*
X233116307Y-98436562D01*
X233445920Y-98216320D01*
X233941820Y-97720420D01*
X233941821Y-97720420D01*
X234162062Y-97390807D01*
X234162062Y-97390806D01*
X234239400Y-97002000D01*
X234239400Y-96278100D01*
X234239400Y-96088200D01*
X234239400Y-95225188D01*
X234328327Y-95166773D01*
X234470777Y-94955740D01*
X234520840Y-94706100D01*
X234520840Y-104310907D01*
X83471400Y-104310907D01*
X83471400Y-96589510D01*
X83471400Y-96373950D01*
X83312650Y-96215200D01*
X82563400Y-96215200D01*
X82563400Y-96939450D01*
X82722150Y-97098200D01*
X82962709Y-97098200D01*
X83196098Y-97001527D01*
X83374727Y-96822899D01*
X83471400Y-96589510D01*
X83471400Y-104310907D01*
X77609906Y-104310907D01*
X77609906Y-101495908D01*
X77609906Y-42557698D01*
X77424553Y-41625864D01*
X76896711Y-40835893D01*
X76106740Y-40308051D01*
X75174906Y-40122698D01*
X74243072Y-40308051D01*
X73453101Y-40835893D01*
X72925259Y-41625864D01*
X72739906Y-42557698D01*
X72925259Y-43489532D01*
X73453101Y-44279503D01*
X74243072Y-44807345D01*
X75174906Y-44992698D01*
X76106740Y-44807345D01*
X76896711Y-44279503D01*
X77424553Y-43489532D01*
X77609906Y-42557698D01*
X77609906Y-101495908D01*
X77424553Y-100564074D01*
X76896711Y-99774103D01*
X76106740Y-99246261D01*
X75174906Y-99060908D01*
X74243072Y-99246261D01*
X73453101Y-99774103D01*
X72925259Y-100564074D01*
X72739906Y-101495908D01*
X72925259Y-102427742D01*
X73453101Y-103217713D01*
X74243072Y-103745555D01*
X75174906Y-103930908D01*
X76106740Y-103745555D01*
X76896711Y-103217713D01*
X77424553Y-102427742D01*
X77609906Y-101495908D01*
X77609906Y-104310907D01*
X72359906Y-104310907D01*
X72359906Y-39742698D01*
X240989908Y-39742698D01*
X240989908Y-104310907D01*
M02*
