M48
;DRILL file {KiCad 4.0.7} date Tue May 29 14:09:56 2018
;FORMAT={-:-/ absolute / inch / decimal}
FMAT,2
INCH,TZ
T1C0.012
T2C0.015
T3C0.018
T4C0.027
T5C0.035
T6C0.037
T7C0.039
T8C0.040
T9C0.071
T10C0.138
%
G90
G05
M72
T1
X0.2381Y-1.9525
X0.2381Y-1.9955
X0.2381Y-2.039
X0.2441Y-1.163
X0.2441Y-1.2065
X0.2441Y-1.2495
X0.3686Y-1.1405
X0.3686Y-1.2065
X0.3686Y-1.2725
X0.3686Y-1.929
X0.3686Y-1.9955
X0.3686Y-2.0615
X1.1546Y-1.4496
X1.1783Y-1.4888
X1.324Y-1.4495
X1.324Y-1.4888
X1.45Y-2.1423
X1.5625Y-1.8218
X1.708Y-0.3063
X1.7675Y-1.8668
X1.816Y-0.3063
X2.5169Y-0.4573
X2.5287Y-0.8471
X2.686Y-0.5283
X2.6862Y-0.3471
X2.7335Y-1.9573
X2.7689Y-1.9573
X2.7768Y-1.4101
X2.8083Y-1.9573
X2.8398Y-0.855
X2.8437Y-2.4475
X2.8476Y-0.9888
X2.8476Y-1.9573
X2.8586Y-0.7634
X2.8594Y-0.7959
X2.886Y-0.5623
X2.887Y-2.481
X2.9224Y-1.3235
X2.9303Y-2.5145
X2.9579Y-1.3471
X2.9975Y-0.7893
X2.9975Y-0.8543
X3.0326Y-2.454
X3.09Y-1.3203
X3.1361Y-1.2025
X3.1425Y-0.8193
X3.1626Y-1.229
X3.1675Y-1.0593
X3.18Y-0.9843
X3.2225Y-1.0593
X3.2325Y-0.9218
X3.2575Y-1.0543
X3.264Y-1.3203
X3.289Y-0.9833
X3.289Y-1.0573
X3.3161Y-2.5788
X3.32Y-1.0543
X3.3325Y-0.9218
X3.3525Y-0.4493
X3.3525Y-0.4868
X3.3725Y-1.0543
X3.3875Y-0.4868
X3.3875Y-0.5218
X3.4225Y-0.5218
X3.4271Y-0.5718
X3.4771Y-0.5918
X3.48Y-1.0818
X3.505Y-1.1093
X3.5146Y-0.5918
X3.5169Y-2.4751
X3.5484Y-2.4455
X3.5546Y-0.5918
X3.572Y-0.6699
X3.572Y-0.8156
X3.605Y-1.0393
X3.6232Y-0.6424
X3.6846Y-0.9968
X3.6941Y-0.7093
X3.795Y-1.0093
X3.815Y-0.5593
X3.8161Y-0.8117
X3.8476Y-0.8117
X3.8525Y-0.5593
X3.8983Y-0.387
X3.9067Y-0.1384
X4.0996Y-1.2723
X4.1429Y-1.2723
X4.1822Y-1.2723
X4.2295Y-1.2723
X4.3881Y-2.035
X4.424Y-0.0243
X4.4775Y-0.5418
X4.5175Y-0.5418
X4.5425Y-1.8418
X4.552Y-0.2703
X4.6812Y-1.8431
X4.866Y-0.2703
X4.87Y-0.5393
X5.0251Y-1.913
X5.5051Y-1.462
X5.6175Y-1.3348
X5.6175Y-1.3858
X5.758Y-1.1443
X5.758Y-1.1803
X5.758Y-1.2163
X5.758Y-1.2523
X5.758Y-1.2903
X5.758Y-1.3263
X5.8506Y-1.463
X5.8506Y-1.5605
X5.8951Y-1.181
X5.9051Y-1.2835
X5.9246Y-1.207
X5.9306Y-1.309
X5.9561Y-1.3345
X5.9856Y-1.2325
X6.034Y-0.2743
X6.1575Y-0.2743
X6.2221Y-1.307
X6.2575Y-0.2743
T2
X2.9975Y-0.9593
T3
X0.061Y-1.085
X0.061Y-1.371
X0.061Y-1.821
X0.539Y-1.821
X0.787Y-1.085
X0.787Y-1.371
X0.787Y-1.819
X1.081Y-1.085
X1.081Y-1.371
X1.081Y-1.821
X1.081Y-2.167
X1.2271Y-0.133
X1.325Y-1.371
X1.356Y-0.0543
X1.361Y-2.1668
X1.481Y-0.709
X1.481Y-1.085
X1.947Y-0.709
X1.947Y-1.085
X2.2381Y-2.4055
X2.257Y-0.709
X2.257Y-1.085
X2.339Y-1.211
X2.9001Y-2.097
X2.9002Y-1.4743
X3.225Y-1.647
X3.5911Y-2.166
X3.615Y-1.4745
X3.615Y-2.097
X3.6862Y-0.387
X3.6902Y-0.139
X3.981Y-2.097
X3.985Y-0.789
X3.985Y-1.037
X3.985Y-1.473
X4.385Y-0.709
X4.52Y-0.0543
X4.653Y-1.037
X4.681Y-1.605
X5.095Y-0.709
X5.095Y-1.037
X5.095Y-1.605
X5.1272Y-2.4062
X5.365Y-0.397
X5.365Y-0.519
X5.365Y-1.037
X5.507Y-0.255
X5.809Y-0.255
X5.809Y-0.519
X5.809Y-1.037
X6.034Y-0.4363
T4
X0.042Y-0.6023
X0.042Y-0.6843
X0.042Y-0.7963
X0.042Y-0.8803
X0.042Y-0.9603
X0.146Y-0.7563
X0.146Y-0.8403
X0.146Y-0.9203
X0.252Y-0.7963
X0.252Y-0.8803
X0.252Y-0.9603
X0.35Y-0.9203
X0.352Y-0.7563
X0.352Y-0.8403
X0.444Y-0.6043
X0.444Y-0.6843
X0.444Y-0.7963
X0.444Y-0.8803
X0.444Y-0.9603
X0.664Y-0.6023
X0.664Y-0.6843
X0.664Y-0.7963
X0.664Y-0.8803
X0.664Y-0.9603
X0.768Y-0.7563
X0.768Y-0.8403
X0.768Y-0.9203
X0.874Y-0.7963
X0.874Y-0.8803
X0.874Y-0.9603
X0.972Y-0.9203
X0.974Y-0.7563
X0.974Y-0.8403
X1.066Y-0.6043
X1.066Y-0.6843
X1.066Y-0.7963
X1.066Y-0.8803
X1.066Y-0.9603
T6
X0.5097Y-0.18
X0.6081Y-0.18
T7
X1.2426Y-2.685
X1.3426Y-2.685
X1.4426Y-2.685
X1.5891Y-2.685
X1.6102Y0.0506
X1.6102Y-0.5203
X1.6891Y-2.685
X1.7086Y-0.5203
X1.7891Y-2.685
X1.807Y0.0506
X1.807Y-0.5203
X1.9391Y-2.6855
X2.0391Y-2.6855
X2.1391Y-2.6855
X2.8631Y-2.685
X2.9631Y-2.685
X3.0631Y-2.685
X3.3306Y-2.685
X3.4306Y-2.685
X3.5306Y-2.685
X4.2556Y-2.685
X4.3556Y-2.685
X4.4556Y-2.685
X4.6112Y0.0526
X4.6112Y-0.5183
X4.6136Y-2.685
X4.7096Y-0.5183
X4.7136Y-2.685
X4.808Y0.0526
X4.808Y-0.5183
X4.8136Y-2.685
X4.9686Y-2.685
X5.0686Y-2.685
X5.1686Y-2.685
T8
X5.3077Y-0.0293
X5.3077Y-0.1293
X5.4077Y-0.0293
X5.4077Y-0.1293
X5.5077Y-0.0293
X5.5077Y-0.1293
X5.6077Y-0.0293
X5.6077Y-0.1293
X5.7077Y-0.0293
X5.7077Y-0.1293
X5.8077Y-0.0293
X5.8077Y-0.1293
X5.9077Y-0.0293
X5.9077Y-0.1293
X6.0077Y-0.0293
X6.0077Y-0.1293
X6.1077Y-0.0293
X6.1077Y-0.1293
X6.2077Y-0.0293
X6.2077Y-0.1293
T10
X0.Y0.
X0.0001Y-2.3622
X1.7059Y-2.9377
X3.2059Y-2.9377
X3.208Y-1.831
X4.7059Y-2.9377
X6.417Y0.
X6.417Y-2.3622
T5
X0.7606Y-2.8722G85X0.7606Y-2.8879
G05
X0.7606Y-2.9747G85X0.7606Y-2.9904
G05
X0.7606Y-3.0722G85X0.7606Y-3.0879
G05
X1.1506Y-2.8722G85X1.1506Y-2.8879
G05
X1.1506Y-2.9722G85X1.1506Y-2.9879
G05
X1.1506Y-3.0722G85X1.1506Y-3.0879
G05
X2.2626Y-2.8741G85X2.2626Y-2.8899
G05
X2.2626Y-2.9766G85X2.2626Y-2.9924
G05
X2.2626Y-3.0741G85X2.2626Y-3.0899
G05
X2.42Y-0.134G85X2.42Y-0.1497
G05
X2.42Y-0.2365G85X2.42Y-0.2522
G05
X2.42Y-0.334G85X2.42Y-0.3497
G05
X2.6526Y-2.8741G85X2.6526Y-2.8899
G05
X2.6526Y-2.9741G85X2.6526Y-2.9899
G05
X2.6526Y-3.0741G85X2.6526Y-3.0899
G05
X2.81Y-0.134G85X2.81Y-0.1497
G05
X2.81Y-0.234G85X2.81Y-0.2497
G05
X2.81Y-0.334G85X2.81Y-0.3497
G05
X3.013Y-0.1379G85X3.013Y-0.1537
G05
X3.013Y-0.2404G85X3.013Y-0.2562
G05
X3.013Y-0.3379G85X3.013Y-0.3537
G05
X3.403Y-0.1379G85X3.403Y-0.1537
G05
X3.403Y-0.2379G85X3.403Y-0.2537
G05
X3.403Y-0.3379G85X3.403Y-0.3537
G05
X3.6011Y-0.1379G85X3.6011Y-0.1537
G05
X3.6011Y-0.2404G85X3.6011Y-0.2562
G05
X3.6011Y-0.3379G85X3.6011Y-0.3537
G05
X3.7606Y-2.8722G85X3.7606Y-2.8879
G05
X3.7606Y-2.9747G85X3.7606Y-2.9904
G05
X3.7606Y-3.0722G85X3.7606Y-3.0879
G05
X3.9911Y-0.1379G85X3.9911Y-0.1537
G05
X3.9911Y-0.2379G85X3.9911Y-0.2537
G05
X3.9911Y-0.3379G85X3.9911Y-0.3537
G05
X4.1506Y-2.8722G85X4.1506Y-2.8879
G05
X4.1506Y-2.9722G85X4.1506Y-2.9879
G05
X4.1506Y-3.0722G85X4.1506Y-3.0879
G05
X5.2626Y-2.8741G85X5.2626Y-2.8899
G05
X5.2626Y-2.9766G85X5.2626Y-2.9924
G05
X5.2626Y-3.0741G85X5.2626Y-3.0899
G05
X5.6526Y-2.8741G85X5.6526Y-2.8899
G05
X5.6526Y-2.9741G85X5.6526Y-2.9899
G05
X5.6526Y-3.0741G85X5.6526Y-3.0899
G05
T9
X1.4488Y-0.2408G85X1.4488Y-0.2093
G05
X1.9684Y-0.2408G85X1.9684Y-0.2093
G05
X4.4498Y-0.2388G85X4.4498Y-0.2073
G05
X4.9694Y-0.2388G85X4.9694Y-0.2073
G05
T0
M30
