M48
;DRILL file {KiCad (2015-05-18 BZR 5668)-product} date Wed 16 Sep 2015 05:41:17 PM CEST
;FORMAT={-:-/ absolute / inch / decimal}
FMAT,2
INCH,TZ
T1C0.012
T2C0.015
T3C0.018
T4C0.026
T5C0.027
T6C0.031
T7C0.039
T8C0.040
T9C0.071
T10C0.138
%
G90
G05
M72
T1
X3.276Y-3.046
X3.276Y-3.842
X4.41Y-3.818
X4.5225Y-3.4975
X4.668Y-1.982
X4.7275Y-3.5425
X4.776Y-1.982
X5.4975Y-2.5225
X5.5825Y-2.1825
X5.646Y-2.204
X5.72Y-2.155
X5.8125Y-2.155
X5.844Y-2.595
X5.846Y-2.238
X5.89Y-2.155
X5.952Y-2.39
X5.9575Y-2.465
X5.9575Y-2.53
X5.97Y-2.155
X5.977Y-2.4175
X6.022Y-2.4225
X6.05Y-2.996
X6.0595Y-2.4225
X6.1025Y-2.495
X6.1275Y-2.735
X6.14Y-2.66
X6.1825Y-2.735
X6.1925Y-2.5975
X6.2175Y-2.73
X6.224Y-2.996
X6.249Y-2.659
X6.249Y-2.733
X6.2575Y-3.0725
X6.28Y-2.73
X6.2875Y-2.455
X6.2925Y-2.5975
X6.3125Y-2.125
X6.3125Y-2.1625
X6.3125Y-2.475
X6.327Y-3.073
X6.3325Y-2.73
X6.335Y-2.495
X6.3475Y-2.1625
X6.3475Y-2.1975
X6.3825Y-2.1975
X6.387Y-2.2475
X6.437Y-2.2675
X6.44Y-2.7575
X6.465Y-2.785
X6.4745Y-2.2675
X6.5145Y-2.2675
X6.515Y-2.3175
X6.55Y-2.3175
X6.565Y-2.715
X6.585Y-2.3175
X6.6445Y-2.6725
X6.755Y-2.685
X6.775Y-2.235
X6.775Y-2.41
X6.81Y-2.41
X6.8125Y-2.235
X7.384Y-1.7
X7.4375Y-2.2175
X7.4775Y-2.2175
X7.5025Y-3.5175
X7.512Y-1.946
X7.6412Y-3.5188
X7.75Y-3.818
X7.826Y-1.946
X7.83Y-2.215
X8.488Y-3.138
X8.5775Y-3.0105
X8.5775Y-3.0615
X8.718Y-2.82
X8.718Y-2.856
X8.718Y-2.892
X8.718Y-2.928
X8.718Y-2.966
X8.718Y-3.002
X8.8215Y-3.029
X8.8335Y-3.001
X8.8712Y-2.8163
X8.8712Y-2.8813
X8.8712Y-2.9463
X8.8715Y-3.001
X8.994Y-1.95
X9.06Y-3.06
X9.1175Y-1.95
X9.2175Y-1.95
T2
X5.36Y-3.584
X5.9575Y-2.635
X8.36Y-3.5625
X9.12Y-3.06
T3
X3.021Y-2.7607
X3.021Y-3.0467
X3.021Y-3.4967
X3.217Y-3.974
X3.276Y-3.4967
X3.499Y-3.4967
X3.499Y-3.8427
X3.747Y-2.7607
X3.747Y-3.0467
X3.747Y-3.4947
X4.041Y-2.7607
X4.041Y-3.0467
X4.041Y-3.4967
X4.041Y-3.8427
X4.285Y-3.0467
X4.316Y-1.73
X4.441Y-2.3847
X4.441Y-2.7607
X4.66Y-1.9
X4.907Y-2.3847
X4.907Y-2.7607
X5.191Y-1.6227
X5.217Y-1.9007
X5.217Y-2.3847
X5.217Y-2.7607
X5.299Y-2.8867
X5.299Y-3.1507
X5.299Y-3.5427
X5.481Y-1.9007
X5.617Y-3.5427
X5.617Y-3.7727
X5.873Y-1.8147
X5.891Y-1.6227
X6.185Y-3.3227
X6.225Y-2.0627
X6.421Y-1.6227
X6.575Y-3.7727
X6.599Y-1.8147
X6.599Y-2.0627
X6.941Y-3.7727
X6.945Y-1.8147
X6.945Y-1.8987
X6.945Y-2.0627
X6.945Y-2.4647
X6.945Y-2.7127
X6.945Y-3.1487
X7.233Y-1.6227
X7.345Y-2.3847
X7.48Y-1.73
X7.613Y-2.7127
X7.641Y-3.2807
X8.055Y-2.3847
X8.055Y-2.7127
X8.055Y-3.2807
X8.325Y-2.0727
X8.325Y-2.1947
X8.325Y-2.7127
X8.467Y-1.9307
X8.531Y-3.2807
X8.769Y-1.9307
X8.769Y-2.1947
X8.769Y-2.7127
X8.7875Y-3.9725
X8.994Y-2.112
X9.06Y-3.28
X9.06Y-3.848
T4
X5.7225Y-1.9275
X5.7225Y-1.9775
X5.7725Y-1.9275
X5.7725Y-1.9775
X5.8225Y-1.9275
X5.8225Y-1.9775
X5.8725Y-1.9275
X5.8725Y-1.9775
X5.9225Y-1.9275
X5.9225Y-1.9775
T5
X3.002Y-2.278
X3.002Y-2.36
X3.002Y-2.472
X3.002Y-2.556
X3.002Y-2.636
X3.106Y-2.432
X3.106Y-2.516
X3.106Y-2.596
X3.212Y-2.472
X3.212Y-2.556
X3.212Y-2.636
X3.31Y-2.596
X3.312Y-2.432
X3.312Y-2.516
X3.404Y-2.28
X3.404Y-2.36
X3.404Y-2.472
X3.404Y-2.556
X3.404Y-2.636
X3.624Y-2.278
X3.624Y-2.36
X3.624Y-2.472
X3.624Y-2.556
X3.624Y-2.636
X3.728Y-2.432
X3.728Y-2.516
X3.728Y-2.596
X3.834Y-2.472
X3.834Y-2.556
X3.834Y-2.636
X3.932Y-2.596
X3.934Y-2.432
X3.934Y-2.516
X4.026Y-2.28
X4.026Y-2.36
X4.026Y-2.472
X4.026Y-2.556
X4.026Y-2.636
T6
X3.4646Y-1.806
X3.5433Y-1.806
T7
X4.5701Y-1.6251
X4.5701Y-2.196
X4.6686Y-2.196
X4.767Y-1.6251
X4.767Y-2.196
X7.5711Y-1.6231
X7.5711Y-2.194
X7.6696Y-2.194
X7.768Y-1.6231
X7.768Y-2.194
T8
X5.7602Y-3.15
X5.8602Y-3.15
X6.4752Y-3.15
X6.5752Y-3.15
X8.2677Y-1.705
X8.2677Y-1.805
X8.3677Y-1.705
X8.3677Y-1.805
X8.4677Y-1.705
X8.4677Y-1.805
X8.5677Y-1.705
X8.5677Y-1.805
X8.6677Y-1.705
X8.6677Y-1.805
X8.7677Y-1.705
X8.7677Y-1.805
X8.8677Y-1.705
X8.8677Y-1.805
X8.9677Y-1.705
X8.9677Y-1.805
X9.0677Y-1.705
X9.0677Y-1.805
X9.1677Y-1.705
X9.1677Y-1.805
T10
X2.96Y-1.6757
X2.96Y-3.9957
X6.168Y-3.5067
X9.377Y-1.6757
X9.377Y-3.9957
T9
X4.4087Y-1.9165G85X4.4087Y-1.885
G05
X4.9284Y-1.9165G85X4.9284Y-1.885
G05
X7.4097Y-1.9145G85X7.4097Y-1.883
G05
X7.9294Y-1.9145G85X7.9294Y-1.883
G05
T0
M30
