G04 #@! TF.FileFunction,Soldermask,Bot*
%FSLAX46Y46*%
G04 Gerber Fmt 4.6, Leading zero omitted, Abs format (unit mm)*
G04 Created by KiCad (PCBNEW (2015-05-18 BZR 5668)-product) date Fri 12 Jun 2015 12:16:12 AM CEST*
%MOMM*%
G01*
G04 APERTURE LIST*
%ADD10C,0.100000*%
%ADD11C,3.500000*%
%ADD12R,0.800000X0.750000*%
%ADD13R,0.750000X0.800000*%
%ADD14R,1.300000X0.700000*%
%ADD15C,1.600000*%
%ADD16R,2.800000X3.600000*%
%ADD17R,2.900000X2.900000*%
%ADD18C,2.900000*%
%ADD19R,1.727200X1.727200*%
%ADD20O,1.727200X1.727200*%
%ADD21R,1.050000X1.050000*%
%ADD22C,1.050000*%
%ADD23R,0.500000X0.900000*%
%ADD24R,2.032000X2.032000*%
%ADD25O,2.032000X2.032000*%
G04 APERTURE END LIST*
D10*
D11*
X238175800Y-42557700D03*
X238163100Y-101498400D03*
X156667200Y-89052400D03*
X75171300Y-42557700D03*
D12*
X152564400Y-66344800D03*
X154064400Y-66344800D03*
X152564400Y-67919600D03*
X154064400Y-67919600D03*
D13*
X198297800Y-94374400D03*
X198297800Y-92874400D03*
D12*
X232423400Y-76123800D03*
X230923400Y-76123800D03*
D13*
X122072400Y-94374400D03*
X122072400Y-92874400D03*
D12*
X232423400Y-96088200D03*
X230923400Y-96088200D03*
X80936400Y-76022200D03*
X82436400Y-76022200D03*
X80936400Y-96088200D03*
X82436400Y-96088200D03*
D14*
X193229900Y-94368800D03*
X193229900Y-93268800D03*
X193229900Y-92168800D03*
X196329900Y-92168800D03*
X196329900Y-93268800D03*
X196329900Y-94368800D03*
X230123400Y-74302800D03*
X230123400Y-73202800D03*
X230123400Y-72102800D03*
X233223400Y-72102800D03*
X233223400Y-73202800D03*
X233223400Y-74302800D03*
X117017200Y-94368800D03*
X117017200Y-93268800D03*
X117017200Y-92168800D03*
X120117200Y-92168800D03*
X120117200Y-93268800D03*
X120117200Y-94368800D03*
X230123400Y-94356100D03*
X230123400Y-93256100D03*
X230123400Y-92156100D03*
X233223400Y-92156100D03*
X233223400Y-93256100D03*
X233223400Y-94356100D03*
X83236400Y-72102800D03*
X83236400Y-73202800D03*
X83236400Y-74302800D03*
X80136400Y-74302800D03*
X80136400Y-73202800D03*
X80136400Y-72102800D03*
X83223700Y-92156100D03*
X83223700Y-93256100D03*
X83223700Y-94356100D03*
X80123700Y-94356100D03*
X80123700Y-93256100D03*
X80123700Y-92156100D03*
D15*
X192307200Y-55727600D03*
X192307200Y-41227600D03*
X197307200Y-55727600D03*
X197307200Y-41227600D03*
X194807200Y-55727600D03*
D16*
X188207200Y-48227600D03*
X201407200Y-48227600D03*
D15*
X116081800Y-55778400D03*
X116081800Y-41278400D03*
X121081800Y-55778400D03*
X121081800Y-41278400D03*
X118581800Y-55778400D03*
D16*
X111981800Y-48278400D03*
X125181800Y-48278400D03*
D17*
X83718400Y-58775600D03*
D18*
X87678400Y-58775600D03*
D19*
X168122600Y-48768000D03*
D20*
X168122600Y-51308000D03*
X165582600Y-48768000D03*
X165582600Y-51308000D03*
X163042600Y-48768000D03*
X163042600Y-51308000D03*
X160502600Y-48768000D03*
X160502600Y-51308000D03*
X157962600Y-48768000D03*
X157962600Y-51308000D03*
X155422600Y-48768000D03*
X155422600Y-51308000D03*
X152882600Y-48768000D03*
X152882600Y-51308000D03*
X150342600Y-48768000D03*
X150342600Y-51308000D03*
X147802600Y-48768000D03*
X147802600Y-51308000D03*
X145262600Y-48768000D03*
X145262600Y-51308000D03*
D21*
X150228300Y-54559200D03*
D22*
X148958300Y-54559200D03*
X147688300Y-54559200D03*
X146418300Y-54559200D03*
X145148300Y-54559200D03*
X148958300Y-55829200D03*
X147688300Y-55829200D03*
X146418300Y-55829200D03*
X145148300Y-55829200D03*
X150228300Y-55829200D03*
D21*
X156654500Y-64300100D03*
D22*
X157924500Y-64300100D03*
X159194500Y-64300100D03*
X160464500Y-64300100D03*
X157924500Y-65570100D03*
X159194500Y-65570100D03*
X160464500Y-65570100D03*
X156654500Y-65570100D03*
D23*
X191275400Y-94970600D03*
X189775400Y-94970600D03*
X191275400Y-93268800D03*
X189775400Y-93268800D03*
X191275400Y-91592400D03*
X189775400Y-91592400D03*
X115050000Y-94970600D03*
X113550000Y-94970600D03*
X115050000Y-93268800D03*
X113550000Y-93268800D03*
X115050000Y-91567000D03*
X113550000Y-91567000D03*
X85203600Y-71526400D03*
X86703600Y-71526400D03*
X85203600Y-73202800D03*
X86703600Y-73202800D03*
X85203600Y-74879200D03*
X86703600Y-74879200D03*
X85203600Y-91567000D03*
X86703600Y-91567000D03*
X85203600Y-93243400D03*
X86703600Y-93243400D03*
X85203600Y-94919800D03*
X86703600Y-94919800D03*
D24*
X164795200Y-94081600D03*
D25*
X162255200Y-94081600D03*
D24*
X151079200Y-94081600D03*
D25*
X148539200Y-94081600D03*
D11*
X75171300Y-101498400D03*
M02*
