G04 #@! TF.FileFunction,Legend,Top*
%FSLAX46Y46*%
G04 Gerber Fmt 4.6, Leading zero omitted, Abs format (unit mm)*
G04 Created by KiCad (PCBNEW (2015-05-18 BZR 5668)-product) date Mon 22 Jun 2015 04:57:38 PM CEST*
%MOMM*%
G01*
G04 APERTURE LIST*
%ADD10C,0.100000*%
%ADD11C,0.300000*%
%ADD12C,0.150000*%
G04 APERTURE END LIST*
D10*
D11*
X94364971Y-71398971D02*
X94364971Y-69898971D01*
X94864971Y-70970400D01*
X95364971Y-69898971D01*
X95364971Y-71398971D01*
X96364971Y-69898971D02*
X96650685Y-69898971D01*
X96793543Y-69970400D01*
X96936400Y-70113257D01*
X97007828Y-70398971D01*
X97007828Y-70898971D01*
X96936400Y-71184686D01*
X96793543Y-71327543D01*
X96650685Y-71398971D01*
X96364971Y-71398971D01*
X96222114Y-71327543D01*
X96079257Y-71184686D01*
X96007828Y-70898971D01*
X96007828Y-70398971D01*
X96079257Y-70113257D01*
X96222114Y-69970400D01*
X96364971Y-69898971D01*
X97650686Y-71398971D02*
X97650686Y-69898971D01*
X98007829Y-69898971D01*
X98222114Y-69970400D01*
X98364972Y-70113257D01*
X98436400Y-70256114D01*
X98507829Y-70541829D01*
X98507829Y-70756114D01*
X98436400Y-71041829D01*
X98364972Y-71184686D01*
X98222114Y-71327543D01*
X98007829Y-71398971D01*
X97650686Y-71398971D01*
X100293543Y-70827543D02*
X101436400Y-70827543D01*
X103293543Y-71398971D02*
X103293543Y-69898971D01*
X103793543Y-70970400D01*
X104293543Y-69898971D01*
X104293543Y-71398971D01*
X105650686Y-70398971D02*
X105650686Y-71398971D01*
X105007829Y-70398971D02*
X105007829Y-71184686D01*
X105079257Y-71327543D01*
X105222115Y-71398971D01*
X105436400Y-71398971D01*
X105579257Y-71327543D01*
X105650686Y-71256114D01*
X106293543Y-71327543D02*
X106436400Y-71398971D01*
X106722115Y-71398971D01*
X106864972Y-71327543D01*
X106936400Y-71184686D01*
X106936400Y-71113257D01*
X106864972Y-70970400D01*
X106722115Y-70898971D01*
X106507829Y-70898971D01*
X106364972Y-70827543D01*
X106293543Y-70684686D01*
X106293543Y-70613257D01*
X106364972Y-70470400D01*
X106507829Y-70398971D01*
X106722115Y-70398971D01*
X106864972Y-70470400D01*
X107579258Y-71398971D02*
X107579258Y-70398971D01*
X107579258Y-69898971D02*
X107507829Y-69970400D01*
X107579258Y-70041829D01*
X107650686Y-69970400D01*
X107579258Y-69898971D01*
X107579258Y-70041829D01*
X108936401Y-71327543D02*
X108793544Y-71398971D01*
X108507830Y-71398971D01*
X108364972Y-71327543D01*
X108293544Y-71256114D01*
X108222115Y-71113257D01*
X108222115Y-70684686D01*
X108293544Y-70541829D01*
X108364972Y-70470400D01*
X108507830Y-70398971D01*
X108793544Y-70398971D01*
X108936401Y-70470400D01*
X110222115Y-71398971D02*
X110222115Y-70613257D01*
X110150686Y-70470400D01*
X110007829Y-70398971D01*
X109722115Y-70398971D01*
X109579258Y-70470400D01*
X110222115Y-71327543D02*
X110079258Y-71398971D01*
X109722115Y-71398971D01*
X109579258Y-71327543D01*
X109507829Y-71184686D01*
X109507829Y-71041829D01*
X109579258Y-70898971D01*
X109722115Y-70827543D01*
X110079258Y-70827543D01*
X110222115Y-70756114D01*
X111150687Y-71398971D02*
X111007829Y-71327543D01*
X110936401Y-71184686D01*
X110936401Y-69898971D01*
X113150686Y-69898971D02*
X113436400Y-69898971D01*
X113579258Y-69970400D01*
X113722115Y-70113257D01*
X113793543Y-70398971D01*
X113793543Y-70898971D01*
X113722115Y-71184686D01*
X113579258Y-71327543D01*
X113436400Y-71398971D01*
X113150686Y-71398971D01*
X113007829Y-71327543D01*
X112864972Y-71184686D01*
X112793543Y-70898971D01*
X112793543Y-70398971D01*
X112864972Y-70113257D01*
X113007829Y-69970400D01*
X113150686Y-69898971D01*
X114436401Y-70398971D02*
X114436401Y-71898971D01*
X114436401Y-70470400D02*
X114579258Y-70398971D01*
X114864972Y-70398971D01*
X115007829Y-70470400D01*
X115079258Y-70541829D01*
X115150687Y-70684686D01*
X115150687Y-71113257D01*
X115079258Y-71256114D01*
X115007829Y-71327543D01*
X114864972Y-71398971D01*
X114579258Y-71398971D01*
X114436401Y-71327543D01*
X116364972Y-71327543D02*
X116222115Y-71398971D01*
X115936401Y-71398971D01*
X115793544Y-71327543D01*
X115722115Y-71184686D01*
X115722115Y-70613257D01*
X115793544Y-70470400D01*
X115936401Y-70398971D01*
X116222115Y-70398971D01*
X116364972Y-70470400D01*
X116436401Y-70613257D01*
X116436401Y-70756114D01*
X115722115Y-70898971D01*
X117079258Y-71398971D02*
X117079258Y-70398971D01*
X117079258Y-70684686D02*
X117150686Y-70541829D01*
X117222115Y-70470400D01*
X117364972Y-70398971D01*
X117507829Y-70398971D01*
X118650686Y-71398971D02*
X118650686Y-70613257D01*
X118579257Y-70470400D01*
X118436400Y-70398971D01*
X118150686Y-70398971D01*
X118007829Y-70470400D01*
X118650686Y-71327543D02*
X118507829Y-71398971D01*
X118150686Y-71398971D01*
X118007829Y-71327543D01*
X117936400Y-71184686D01*
X117936400Y-71041829D01*
X118007829Y-70898971D01*
X118150686Y-70827543D01*
X118507829Y-70827543D01*
X118650686Y-70756114D01*
X119150686Y-70398971D02*
X119722115Y-70398971D01*
X119364972Y-69898971D02*
X119364972Y-71184686D01*
X119436400Y-71327543D01*
X119579258Y-71398971D01*
X119722115Y-71398971D01*
X120222115Y-71398971D02*
X120222115Y-70398971D01*
X120222115Y-69898971D02*
X120150686Y-69970400D01*
X120222115Y-70041829D01*
X120293543Y-69970400D01*
X120222115Y-69898971D01*
X120222115Y-70041829D01*
X120936401Y-70398971D02*
X120936401Y-71398971D01*
X120936401Y-70541829D02*
X121007829Y-70470400D01*
X121150687Y-70398971D01*
X121364972Y-70398971D01*
X121507829Y-70470400D01*
X121579258Y-70613257D01*
X121579258Y-71398971D01*
X122936401Y-70398971D02*
X122936401Y-71613257D01*
X122864972Y-71756114D01*
X122793544Y-71827543D01*
X122650687Y-71898971D01*
X122436401Y-71898971D01*
X122293544Y-71827543D01*
X122936401Y-71327543D02*
X122793544Y-71398971D01*
X122507830Y-71398971D01*
X122364972Y-71327543D01*
X122293544Y-71256114D01*
X122222115Y-71113257D01*
X122222115Y-70684686D01*
X122293544Y-70541829D01*
X122364972Y-70470400D01*
X122507830Y-70398971D01*
X122793544Y-70398971D01*
X122936401Y-70470400D01*
X124793544Y-71398971D02*
X124793544Y-69898971D01*
X125150687Y-69898971D01*
X125364972Y-69970400D01*
X125507830Y-70113257D01*
X125579258Y-70256114D01*
X125650687Y-70541829D01*
X125650687Y-70756114D01*
X125579258Y-71041829D01*
X125507830Y-71184686D01*
X125364972Y-71327543D01*
X125150687Y-71398971D01*
X124793544Y-71398971D01*
X126864972Y-71327543D02*
X126722115Y-71398971D01*
X126436401Y-71398971D01*
X126293544Y-71327543D01*
X126222115Y-71184686D01*
X126222115Y-70613257D01*
X126293544Y-70470400D01*
X126436401Y-70398971D01*
X126722115Y-70398971D01*
X126864972Y-70470400D01*
X126936401Y-70613257D01*
X126936401Y-70756114D01*
X126222115Y-70898971D01*
X127436401Y-70398971D02*
X127793544Y-71398971D01*
X128150686Y-70398971D01*
X128722115Y-71398971D02*
X128722115Y-70398971D01*
X128722115Y-69898971D02*
X128650686Y-69970400D01*
X128722115Y-70041829D01*
X128793543Y-69970400D01*
X128722115Y-69898971D01*
X128722115Y-70041829D01*
X130079258Y-71327543D02*
X129936401Y-71398971D01*
X129650687Y-71398971D01*
X129507829Y-71327543D01*
X129436401Y-71256114D01*
X129364972Y-71113257D01*
X129364972Y-70684686D01*
X129436401Y-70541829D01*
X129507829Y-70470400D01*
X129650687Y-70398971D01*
X129936401Y-70398971D01*
X130079258Y-70470400D01*
X131293543Y-71327543D02*
X131150686Y-71398971D01*
X130864972Y-71398971D01*
X130722115Y-71327543D01*
X130650686Y-71184686D01*
X130650686Y-70613257D01*
X130722115Y-70470400D01*
X130864972Y-70398971D01*
X131150686Y-70398971D01*
X131293543Y-70470400D01*
X131364972Y-70613257D01*
X131364972Y-70756114D01*
X130650686Y-70898971D01*
X131936400Y-71327543D02*
X132079257Y-71398971D01*
X132364972Y-71398971D01*
X132507829Y-71327543D01*
X132579257Y-71184686D01*
X132579257Y-71113257D01*
X132507829Y-70970400D01*
X132364972Y-70898971D01*
X132150686Y-70898971D01*
X132007829Y-70827543D01*
X131936400Y-70684686D01*
X131936400Y-70613257D01*
X132007829Y-70470400D01*
X132150686Y-70398971D01*
X132364972Y-70398971D01*
X132507829Y-70470400D01*
X100472114Y-73798971D02*
X100472114Y-72298971D01*
X101114971Y-73798971D02*
X101114971Y-73013257D01*
X101043542Y-72870400D01*
X100900685Y-72798971D01*
X100686400Y-72798971D01*
X100543542Y-72870400D01*
X100472114Y-72941829D01*
X101614971Y-72798971D02*
X102186400Y-72798971D01*
X101829257Y-72298971D02*
X101829257Y-73584686D01*
X101900685Y-73727543D01*
X102043543Y-73798971D01*
X102186400Y-73798971D01*
X102472114Y-72798971D02*
X103043543Y-72798971D01*
X102686400Y-72298971D02*
X102686400Y-73584686D01*
X102757828Y-73727543D01*
X102900686Y-73798971D01*
X103043543Y-73798971D01*
X103543543Y-72798971D02*
X103543543Y-74298971D01*
X103543543Y-72870400D02*
X103686400Y-72798971D01*
X103972114Y-72798971D01*
X104114971Y-72870400D01*
X104186400Y-72941829D01*
X104257829Y-73084686D01*
X104257829Y-73513257D01*
X104186400Y-73656114D01*
X104114971Y-73727543D01*
X103972114Y-73798971D01*
X103686400Y-73798971D01*
X103543543Y-73727543D01*
X104900686Y-73656114D02*
X104972114Y-73727543D01*
X104900686Y-73798971D01*
X104829257Y-73727543D01*
X104900686Y-73656114D01*
X104900686Y-73798971D01*
X104900686Y-72870400D02*
X104972114Y-72941829D01*
X104900686Y-73013257D01*
X104829257Y-72941829D01*
X104900686Y-72870400D01*
X104900686Y-73013257D01*
X106686400Y-72227543D02*
X105400686Y-74156114D01*
X108257829Y-72227543D02*
X106972115Y-74156114D01*
X108757830Y-73798971D02*
X108757830Y-72798971D01*
X108757830Y-72941829D02*
X108829258Y-72870400D01*
X108972116Y-72798971D01*
X109186401Y-72798971D01*
X109329258Y-72870400D01*
X109400687Y-73013257D01*
X109400687Y-73798971D01*
X109400687Y-73013257D02*
X109472116Y-72870400D01*
X109614973Y-72798971D01*
X109829258Y-72798971D01*
X109972116Y-72870400D01*
X110043544Y-73013257D01*
X110043544Y-73798971D01*
X110972116Y-73798971D02*
X110829258Y-73727543D01*
X110757830Y-73656114D01*
X110686401Y-73513257D01*
X110686401Y-73084686D01*
X110757830Y-72941829D01*
X110829258Y-72870400D01*
X110972116Y-72798971D01*
X111186401Y-72798971D01*
X111329258Y-72870400D01*
X111400687Y-72941829D01*
X111472116Y-73084686D01*
X111472116Y-73513257D01*
X111400687Y-73656114D01*
X111329258Y-73727543D01*
X111186401Y-73798971D01*
X110972116Y-73798971D01*
X112757830Y-73798971D02*
X112757830Y-72298971D01*
X112757830Y-73727543D02*
X112614973Y-73798971D01*
X112329259Y-73798971D01*
X112186401Y-73727543D01*
X112114973Y-73656114D01*
X112043544Y-73513257D01*
X112043544Y-73084686D01*
X112114973Y-72941829D01*
X112186401Y-72870400D01*
X112329259Y-72798971D01*
X112614973Y-72798971D01*
X112757830Y-72870400D01*
X114114973Y-73798971D02*
X114114973Y-72298971D01*
X114114973Y-73727543D02*
X113972116Y-73798971D01*
X113686402Y-73798971D01*
X113543544Y-73727543D01*
X113472116Y-73656114D01*
X113400687Y-73513257D01*
X113400687Y-73084686D01*
X113472116Y-72941829D01*
X113543544Y-72870400D01*
X113686402Y-72798971D01*
X113972116Y-72798971D01*
X114114973Y-72870400D01*
X115400687Y-73727543D02*
X115257830Y-73798971D01*
X114972116Y-73798971D01*
X114829259Y-73727543D01*
X114757830Y-73584686D01*
X114757830Y-73013257D01*
X114829259Y-72870400D01*
X114972116Y-72798971D01*
X115257830Y-72798971D01*
X115400687Y-72870400D01*
X115472116Y-73013257D01*
X115472116Y-73156114D01*
X114757830Y-73298971D01*
X115972116Y-72798971D02*
X116329259Y-73798971D01*
X116686401Y-72798971D01*
X117257830Y-73798971D02*
X117257830Y-72798971D01*
X117257830Y-72298971D02*
X117186401Y-72370400D01*
X117257830Y-72441829D01*
X117329258Y-72370400D01*
X117257830Y-72298971D01*
X117257830Y-72441829D01*
X118614973Y-73727543D02*
X118472116Y-73798971D01*
X118186402Y-73798971D01*
X118043544Y-73727543D01*
X117972116Y-73656114D01*
X117900687Y-73513257D01*
X117900687Y-73084686D01*
X117972116Y-72941829D01*
X118043544Y-72870400D01*
X118186402Y-72798971D01*
X118472116Y-72798971D01*
X118614973Y-72870400D01*
X119829258Y-73727543D02*
X119686401Y-73798971D01*
X119400687Y-73798971D01*
X119257830Y-73727543D01*
X119186401Y-73584686D01*
X119186401Y-73013257D01*
X119257830Y-72870400D01*
X119400687Y-72798971D01*
X119686401Y-72798971D01*
X119829258Y-72870400D01*
X119900687Y-73013257D01*
X119900687Y-73156114D01*
X119186401Y-73298971D01*
X120472115Y-73727543D02*
X120614972Y-73798971D01*
X120900687Y-73798971D01*
X121043544Y-73727543D01*
X121114972Y-73584686D01*
X121114972Y-73513257D01*
X121043544Y-73370400D01*
X120900687Y-73298971D01*
X120686401Y-73298971D01*
X120543544Y-73227543D01*
X120472115Y-73084686D01*
X120472115Y-73013257D01*
X120543544Y-72870400D01*
X120686401Y-72798971D01*
X120900687Y-72798971D01*
X121043544Y-72870400D01*
X121757830Y-73656114D02*
X121829258Y-73727543D01*
X121757830Y-73798971D01*
X121686401Y-73727543D01*
X121757830Y-73656114D01*
X121757830Y-73798971D01*
X123114973Y-73727543D02*
X122972116Y-73798971D01*
X122686402Y-73798971D01*
X122543544Y-73727543D01*
X122472116Y-73656114D01*
X122400687Y-73513257D01*
X122400687Y-73084686D01*
X122472116Y-72941829D01*
X122543544Y-72870400D01*
X122686402Y-72798971D01*
X122972116Y-72798971D01*
X123114973Y-72870400D01*
X123972116Y-73798971D02*
X123829258Y-73727543D01*
X123757830Y-73656114D01*
X123686401Y-73513257D01*
X123686401Y-73084686D01*
X123757830Y-72941829D01*
X123829258Y-72870400D01*
X123972116Y-72798971D01*
X124186401Y-72798971D01*
X124329258Y-72870400D01*
X124400687Y-72941829D01*
X124472116Y-73084686D01*
X124472116Y-73513257D01*
X124400687Y-73656114D01*
X124329258Y-73727543D01*
X124186401Y-73798971D01*
X123972116Y-73798971D01*
X125114973Y-73798971D02*
X125114973Y-72798971D01*
X125114973Y-72941829D02*
X125186401Y-72870400D01*
X125329259Y-72798971D01*
X125543544Y-72798971D01*
X125686401Y-72870400D01*
X125757830Y-73013257D01*
X125757830Y-73798971D01*
X125757830Y-73013257D02*
X125829259Y-72870400D01*
X125972116Y-72798971D01*
X126186401Y-72798971D01*
X126329259Y-72870400D01*
X126400687Y-73013257D01*
X126400687Y-73798971D01*
X100900686Y-78598971D02*
X100900686Y-77098971D01*
X101400686Y-78170400D01*
X101900686Y-77098971D01*
X101900686Y-78598971D01*
X102900686Y-77098971D02*
X103186400Y-77098971D01*
X103329258Y-77170400D01*
X103472115Y-77313257D01*
X103543543Y-77598971D01*
X103543543Y-78098971D01*
X103472115Y-78384686D01*
X103329258Y-78527543D01*
X103186400Y-78598971D01*
X102900686Y-78598971D01*
X102757829Y-78527543D01*
X102614972Y-78384686D01*
X102543543Y-78098971D01*
X102543543Y-77598971D01*
X102614972Y-77313257D01*
X102757829Y-77170400D01*
X102900686Y-77098971D01*
X104186401Y-78598971D02*
X104186401Y-77098971D01*
X104543544Y-77098971D01*
X104757829Y-77170400D01*
X104900687Y-77313257D01*
X104972115Y-77456114D01*
X105043544Y-77741829D01*
X105043544Y-77956114D01*
X104972115Y-78241829D01*
X104900687Y-78384686D01*
X104757829Y-78527543D01*
X104543544Y-78598971D01*
X104186401Y-78598971D01*
X106829258Y-78598971D02*
X106829258Y-77098971D01*
X107186401Y-77098971D01*
X107400686Y-77170400D01*
X107543544Y-77313257D01*
X107614972Y-77456114D01*
X107686401Y-77741829D01*
X107686401Y-77956114D01*
X107614972Y-78241829D01*
X107543544Y-78384686D01*
X107400686Y-78527543D01*
X107186401Y-78598971D01*
X106829258Y-78598971D01*
X108972115Y-77598971D02*
X108972115Y-78598971D01*
X108329258Y-77598971D02*
X108329258Y-78384686D01*
X108400686Y-78527543D01*
X108543544Y-78598971D01*
X108757829Y-78598971D01*
X108900686Y-78527543D01*
X108972115Y-78456114D01*
X109900687Y-78598971D02*
X109757829Y-78527543D01*
X109686401Y-78456114D01*
X109614972Y-78313257D01*
X109614972Y-77884686D01*
X109686401Y-77741829D01*
X109757829Y-77670400D01*
X109900687Y-77598971D01*
X110114972Y-77598971D01*
X110257829Y-77670400D01*
X110329258Y-77741829D01*
X110400687Y-77884686D01*
X110400687Y-78313257D01*
X110329258Y-78456114D01*
X110257829Y-78527543D01*
X110114972Y-78598971D01*
X109900687Y-78598971D01*
X112186401Y-78027543D02*
X113329258Y-78027543D01*
X114972115Y-77098971D02*
X115829258Y-77098971D01*
X115400687Y-78598971D02*
X115400687Y-77098971D01*
X116543544Y-78598971D02*
X116400686Y-78527543D01*
X116329258Y-78456114D01*
X116257829Y-78313257D01*
X116257829Y-77884686D01*
X116329258Y-77741829D01*
X116400686Y-77670400D01*
X116543544Y-77598971D01*
X116757829Y-77598971D01*
X116900686Y-77670400D01*
X116972115Y-77741829D01*
X117043544Y-77884686D01*
X117043544Y-78313257D01*
X116972115Y-78456114D01*
X116900686Y-78527543D01*
X116757829Y-78598971D01*
X116543544Y-78598971D01*
X117686401Y-77598971D02*
X117686401Y-79098971D01*
X117686401Y-77670400D02*
X117829258Y-77598971D01*
X118114972Y-77598971D01*
X118257829Y-77670400D01*
X118329258Y-77741829D01*
X118400687Y-77884686D01*
X118400687Y-78313257D01*
X118329258Y-78456114D01*
X118257829Y-78527543D01*
X118114972Y-78598971D01*
X117829258Y-78598971D01*
X117686401Y-78527543D01*
X120686401Y-77813257D02*
X120900687Y-77884686D01*
X120972115Y-77956114D01*
X121043544Y-78098971D01*
X121043544Y-78313257D01*
X120972115Y-78456114D01*
X120900687Y-78527543D01*
X120757829Y-78598971D01*
X120186401Y-78598971D01*
X120186401Y-77098971D01*
X120686401Y-77098971D01*
X120829258Y-77170400D01*
X120900687Y-77241829D01*
X120972115Y-77384686D01*
X120972115Y-77527543D01*
X120900687Y-77670400D01*
X120829258Y-77741829D01*
X120686401Y-77813257D01*
X120186401Y-77813257D01*
X121900687Y-78598971D02*
X121757829Y-78527543D01*
X121686401Y-78456114D01*
X121614972Y-78313257D01*
X121614972Y-77884686D01*
X121686401Y-77741829D01*
X121757829Y-77670400D01*
X121900687Y-77598971D01*
X122114972Y-77598971D01*
X122257829Y-77670400D01*
X122329258Y-77741829D01*
X122400687Y-77884686D01*
X122400687Y-78313257D01*
X122329258Y-78456114D01*
X122257829Y-78527543D01*
X122114972Y-78598971D01*
X121900687Y-78598971D01*
X123686401Y-78598971D02*
X123686401Y-77813257D01*
X123614972Y-77670400D01*
X123472115Y-77598971D01*
X123186401Y-77598971D01*
X123043544Y-77670400D01*
X123686401Y-78527543D02*
X123543544Y-78598971D01*
X123186401Y-78598971D01*
X123043544Y-78527543D01*
X122972115Y-78384686D01*
X122972115Y-78241829D01*
X123043544Y-78098971D01*
X123186401Y-78027543D01*
X123543544Y-78027543D01*
X123686401Y-77956114D01*
X124400687Y-78598971D02*
X124400687Y-77598971D01*
X124400687Y-77884686D02*
X124472115Y-77741829D01*
X124543544Y-77670400D01*
X124686401Y-77598971D01*
X124829258Y-77598971D01*
X125972115Y-78598971D02*
X125972115Y-77098971D01*
X125972115Y-78527543D02*
X125829258Y-78598971D01*
X125543544Y-78598971D01*
X125400686Y-78527543D01*
X125329258Y-78456114D01*
X125257829Y-78313257D01*
X125257829Y-77884686D01*
X125329258Y-77741829D01*
X125400686Y-77670400D01*
X125543544Y-77598971D01*
X125829258Y-77598971D01*
X125972115Y-77670400D01*
D12*
X83210400Y-51587400D02*
X83210400Y-52984400D01*
X83337400Y-51333400D02*
X83337400Y-53111400D01*
X83464400Y-50952400D02*
X83464400Y-53492400D01*
X83591400Y-53619400D02*
X83591400Y-50825400D01*
X83718400Y-50698400D02*
X83718400Y-53746400D01*
X83845400Y-53873400D02*
X83845400Y-50571400D01*
X83972400Y-50444400D02*
X83972400Y-54000400D01*
X87909400Y-52222400D02*
G75*
G03X87909400Y-52222400I-2413000J0D01*
G01*
X82829400Y-49555400D02*
X87401400Y-49555400D01*
X87401400Y-49555400D02*
X88163400Y-50317400D01*
X88163400Y-50317400D02*
X88163400Y-54127400D01*
X88163400Y-54127400D02*
X87401400Y-54889400D01*
X87401400Y-54889400D02*
X82829400Y-54889400D01*
X82829400Y-54889400D02*
X82829400Y-49555400D01*
X87655400Y-52222400D02*
X86893400Y-52222400D01*
X87274400Y-51841400D02*
X87274400Y-52603400D01*
X93604600Y-48650600D02*
X94304600Y-48650600D01*
X94304600Y-49850600D02*
X93604600Y-49850600D01*
X108010400Y-58185800D02*
X108010400Y-57485800D01*
X109210400Y-57485800D02*
X109210400Y-58185800D01*
X104749600Y-52908200D02*
X103225600Y-52908200D01*
X102844600Y-53035200D02*
X105130600Y-53035200D01*
X105384600Y-53162200D02*
X102590600Y-53162200D01*
X102336600Y-53289200D02*
X105638600Y-53289200D01*
X105765600Y-53416200D02*
X102209600Y-53416200D01*
X107035600Y-55829200D02*
G75*
G03X107035600Y-55829200I-3048000J0D01*
G01*
X107289600Y-52527200D02*
X100685600Y-52527200D01*
X100685600Y-52527200D02*
X100685600Y-58369200D01*
X100685600Y-58369200D02*
X101447600Y-59131200D01*
X101447600Y-59131200D02*
X106527600Y-59131200D01*
X106527600Y-59131200D02*
X107289600Y-58369200D01*
X107289600Y-58369200D02*
X107289600Y-52527200D01*
X103987600Y-57988200D02*
X103987600Y-57226200D01*
X104368600Y-57607200D02*
X103606600Y-57607200D01*
X197206500Y-97137600D02*
X197206500Y-98137600D01*
X198906500Y-98137600D02*
X198906500Y-97137600D01*
X181117800Y-91940900D02*
X181117800Y-92640900D01*
X179917800Y-92640900D02*
X179917800Y-91940900D01*
X183247400Y-92536900D02*
X183247400Y-91536900D01*
X181547400Y-91536900D02*
X181547400Y-92536900D01*
X195072900Y-97137600D02*
X195072900Y-98137600D01*
X196772900Y-98137600D02*
X196772900Y-97137600D01*
X182271300Y-97137600D02*
X182271300Y-98137600D01*
X183971300Y-98137600D02*
X183971300Y-97137600D01*
X190805700Y-97137600D02*
X190805700Y-98137600D01*
X192505700Y-98137600D02*
X192505700Y-97137600D01*
X192939300Y-97137600D02*
X192939300Y-98137600D01*
X194639300Y-98137600D02*
X194639300Y-97137600D01*
X188672100Y-97137600D02*
X188672100Y-98137600D01*
X190372100Y-98137600D02*
X190372100Y-97137600D01*
X186538500Y-97137600D02*
X186538500Y-98137600D01*
X188238500Y-98137600D02*
X188238500Y-97137600D01*
X184404900Y-97137600D02*
X184404900Y-98137600D01*
X186104900Y-98137600D02*
X186104900Y-97137600D01*
X199340100Y-97137600D02*
X199340100Y-98137600D01*
X201040100Y-98137600D02*
X201040100Y-97137600D01*
X121057300Y-97163000D02*
X121057300Y-98163000D01*
X122757300Y-98163000D02*
X122757300Y-97163000D01*
X104968600Y-91902800D02*
X104968600Y-92602800D01*
X103768600Y-92602800D02*
X103768600Y-91902800D01*
X107098200Y-92486100D02*
X107098200Y-91486100D01*
X105398200Y-91486100D02*
X105398200Y-92486100D01*
X118923700Y-97163000D02*
X118923700Y-98163000D01*
X120623700Y-98163000D02*
X120623700Y-97163000D01*
X106122100Y-97213800D02*
X106122100Y-98213800D01*
X107822100Y-98213800D02*
X107822100Y-97213800D01*
X114656500Y-97213800D02*
X114656500Y-98213800D01*
X116356500Y-98213800D02*
X116356500Y-97213800D01*
X116790100Y-97163000D02*
X116790100Y-98163000D01*
X118490100Y-98163000D02*
X118490100Y-97163000D01*
X112522900Y-97213800D02*
X112522900Y-98213800D01*
X114222900Y-98213800D02*
X114222900Y-97213800D01*
X110389300Y-97213800D02*
X110389300Y-98213800D01*
X112089300Y-98213800D02*
X112089300Y-97213800D01*
X108255700Y-97213800D02*
X108255700Y-98213800D01*
X109955700Y-98213800D02*
X109955700Y-97213800D01*
X123190900Y-97163000D02*
X123190900Y-98163000D01*
X124890900Y-98163000D02*
X124890900Y-97163000D01*
X150286200Y-75682400D02*
X149586200Y-75682400D01*
X149586200Y-74482400D02*
X150286200Y-74482400D01*
X165791400Y-71815400D02*
X166491400Y-71815400D01*
X166491400Y-73015400D02*
X165791400Y-73015400D01*
X167264600Y-64982800D02*
X167964600Y-64982800D01*
X167964600Y-66182800D02*
X167264600Y-66182800D01*
X153044600Y-58795400D02*
X153044600Y-58095400D01*
X154244600Y-58095400D02*
X154244600Y-58795400D01*
X157642000Y-58795400D02*
X157642000Y-58095400D01*
X158842000Y-58095400D02*
X158842000Y-58795400D01*
X158892800Y-77120000D02*
X158892800Y-77820000D01*
X157692800Y-77820000D02*
X157692800Y-77120000D01*
X142869400Y-66233600D02*
X142169400Y-66233600D01*
X142169400Y-65033600D02*
X142869400Y-65033600D01*
X142869400Y-79873400D02*
X142169400Y-79873400D01*
X142169400Y-78673400D02*
X142869400Y-78673400D01*
X193202000Y-52953400D02*
X193202000Y-52253400D01*
X194402000Y-52253400D02*
X194402000Y-52953400D01*
X116951200Y-52953400D02*
X116951200Y-52253400D01*
X118151200Y-52253400D02*
X118151200Y-52953400D01*
X195208600Y-52953400D02*
X195208600Y-52253400D01*
X196408600Y-52253400D02*
X196408600Y-52953400D01*
X118957800Y-52953400D02*
X118957800Y-52253400D01*
X120157800Y-52253400D02*
X120157800Y-52953400D01*
X149174200Y-77753400D02*
X149174200Y-77503400D01*
X149174200Y-78253400D02*
X149174200Y-78503400D01*
X149174200Y-78253400D02*
X148824200Y-77753400D01*
X148824200Y-77753400D02*
X149524200Y-77753400D01*
X149524200Y-77753400D02*
X149174200Y-78253400D01*
X148824200Y-78253400D02*
X149524200Y-78253400D01*
X149974200Y-79303400D02*
X149974200Y-76903400D01*
X148374200Y-79303400D02*
X148374200Y-76903400D01*
X143598900Y-58758900D02*
X143598900Y-59008900D01*
X143598900Y-58258900D02*
X143598900Y-58008900D01*
X143598900Y-58258900D02*
X143948900Y-58758900D01*
X143948900Y-58758900D02*
X143248900Y-58758900D01*
X143248900Y-58758900D02*
X143598900Y-58258900D01*
X143948900Y-58258900D02*
X143248900Y-58258900D01*
X142798900Y-57208900D02*
X142798900Y-59608900D01*
X144398900Y-57208900D02*
X144398900Y-59608900D01*
X183767200Y-93584400D02*
X183767200Y-88584400D01*
X205767200Y-88584400D02*
X183767200Y-88584400D01*
X205767200Y-93584400D02*
X205767200Y-88584400D01*
X205767200Y-93584400D02*
X183767200Y-93584400D01*
X107618000Y-93533600D02*
X107618000Y-88533600D01*
X129618000Y-88533600D02*
X107618000Y-88533600D01*
X129618000Y-93533600D02*
X129618000Y-88533600D01*
X129618000Y-93533600D02*
X107618000Y-93533600D01*
X81724500Y-55727600D02*
X89649300Y-55727600D01*
X81724500Y-63347600D02*
X89649300Y-63347600D01*
X81724500Y-61188600D02*
X89649300Y-61188600D01*
X89668400Y-55727600D02*
X89668400Y-63347600D01*
X81724500Y-55727600D02*
X81724500Y-63347600D01*
X217699200Y-94927200D02*
X220149200Y-94927200D01*
X211549200Y-94927200D02*
X213999200Y-94927200D01*
X211549200Y-86327200D02*
X211549200Y-94927200D01*
X211549200Y-86327200D02*
X220149200Y-86327200D01*
X220149200Y-86327200D02*
X220149200Y-94927200D01*
X141499200Y-94927200D02*
X143949200Y-94927200D01*
X135349200Y-94927200D02*
X137799200Y-94927200D01*
X135349200Y-86327200D02*
X135349200Y-94927200D01*
X135349200Y-86327200D02*
X143949200Y-86327200D01*
X143949200Y-86327200D02*
X143949200Y-94927200D01*
X143992600Y-52578000D02*
X169392600Y-52578000D01*
X166852600Y-47498000D02*
X143992600Y-47498000D01*
X143992600Y-52578000D02*
X143992600Y-47498000D01*
X169392600Y-52578000D02*
X169392600Y-50038000D01*
X169672600Y-48768000D02*
X169672600Y-47218000D01*
X169392600Y-50038000D02*
X166852600Y-50038000D01*
X166852600Y-50038000D02*
X166852600Y-47498000D01*
X169672600Y-47218000D02*
X168122600Y-47218000D01*
X151028300Y-56659200D02*
X151028300Y-55859200D01*
X144378300Y-56659200D02*
X151028300Y-56659200D01*
X144378300Y-56659200D02*
X144378300Y-53709200D01*
X144378300Y-53709200D02*
X148928300Y-53709200D01*
X151028300Y-55059200D02*
X151028300Y-53709200D01*
X151028300Y-53709200D02*
X149728300Y-53709200D01*
X208250840Y-91518740D02*
X208299100Y-91518740D01*
X211049820Y-90817700D02*
X211049820Y-91518740D01*
X211049820Y-91518740D02*
X210800900Y-91518740D01*
X208250840Y-91518740D02*
X208050180Y-91518740D01*
X208050180Y-91518740D02*
X208050180Y-90817700D01*
X144649240Y-91518740D02*
X144697500Y-91518740D01*
X147448220Y-90817700D02*
X147448220Y-91518740D01*
X147448220Y-91518740D02*
X147199300Y-91518740D01*
X144649240Y-91518740D02*
X144448580Y-91518740D01*
X144448580Y-91518740D02*
X144448580Y-90817700D01*
X216095200Y-98236400D02*
X215095200Y-98236400D01*
X215095200Y-96886400D02*
X216095200Y-96886400D01*
X203344400Y-95391600D02*
X202344400Y-95391600D01*
X202344400Y-94041600D02*
X203344400Y-94041600D01*
X139895200Y-98236400D02*
X138895200Y-98236400D01*
X138895200Y-96886400D02*
X139895200Y-96886400D01*
X126661800Y-95366200D02*
X125661800Y-95366200D01*
X125661800Y-94016200D02*
X126661800Y-94016200D01*
X143848200Y-60285000D02*
X144848200Y-60285000D01*
X144848200Y-61635000D02*
X143848200Y-61635000D01*
X152893400Y-78503400D02*
X152893400Y-77503400D01*
X154243400Y-77503400D02*
X154243400Y-78503400D01*
X166156000Y-74074400D02*
X166156000Y-75074400D01*
X164806000Y-75074400D02*
X164806000Y-74074400D01*
X151106500Y-57818400D02*
X151106500Y-58818400D01*
X149756500Y-58818400D02*
X149756500Y-57818400D01*
X149442800Y-57818400D02*
X149442800Y-58818400D01*
X148092800Y-58818400D02*
X148092800Y-57818400D01*
X147779100Y-57831100D02*
X147779100Y-58831100D01*
X146429100Y-58831100D02*
X146429100Y-57831100D01*
X146115400Y-57831100D02*
X146115400Y-58831100D01*
X144765400Y-58831100D02*
X144765400Y-57831100D01*
X160199700Y-94330900D02*
X160199700Y-95330900D01*
X158849700Y-95330900D02*
X158849700Y-94330900D01*
X188203200Y-43035600D02*
X188203200Y-44035600D01*
X186853200Y-44035600D02*
X186853200Y-43035600D01*
X111977800Y-43035600D02*
X111977800Y-44035600D01*
X110627800Y-44035600D02*
X110627800Y-43035600D01*
X192066800Y-52440200D02*
X191066800Y-52440200D01*
X191066800Y-51090200D02*
X192066800Y-51090200D01*
X115816000Y-52440200D02*
X114816000Y-52440200D01*
X114816000Y-51090200D02*
X115816000Y-51090200D01*
X191066800Y-52817400D02*
X192066800Y-52817400D01*
X192066800Y-54167400D02*
X191066800Y-54167400D01*
X114816000Y-52817400D02*
X115816000Y-52817400D01*
X115816000Y-54167400D02*
X114816000Y-54167400D01*
X146496400Y-94330900D02*
X146496400Y-95330900D01*
X145146400Y-95330900D02*
X145146400Y-94330900D01*
X197543800Y-51090200D02*
X198543800Y-51090200D01*
X198543800Y-52440200D02*
X197543800Y-52440200D01*
X121293000Y-51090200D02*
X122293000Y-51090200D01*
X122293000Y-52440200D02*
X121293000Y-52440200D01*
X198543800Y-54167400D02*
X197543800Y-54167400D01*
X197543800Y-52817400D02*
X198543800Y-52817400D01*
X122293000Y-54167400D02*
X121293000Y-54167400D01*
X121293000Y-52817400D02*
X122293000Y-52817400D01*
X226906200Y-74204200D02*
X227906200Y-74204200D01*
X227906200Y-75554200D02*
X226906200Y-75554200D01*
X226906200Y-72527800D02*
X227906200Y-72527800D01*
X227906200Y-73877800D02*
X226906200Y-73877800D01*
X226906200Y-70851400D02*
X227906200Y-70851400D01*
X227906200Y-72201400D02*
X226906200Y-72201400D01*
X226906200Y-94244800D02*
X227906200Y-94244800D01*
X227906200Y-95594800D02*
X226906200Y-95594800D01*
X226906200Y-92568400D02*
X227906200Y-92568400D01*
X227906200Y-93918400D02*
X226906200Y-93918400D01*
X226906200Y-90892000D02*
X227906200Y-90892000D01*
X227906200Y-92242000D02*
X226906200Y-92242000D01*
X141164400Y-71216200D02*
X141164400Y-73716200D01*
X141164400Y-73716200D02*
X140064400Y-73716200D01*
X140064400Y-73716200D02*
X140064400Y-71216200D01*
X140064400Y-71216200D02*
X141164400Y-71216200D01*
X139814400Y-70966200D02*
X139814400Y-73966200D01*
X141414400Y-70966200D02*
X141414400Y-73966200D01*
X141414400Y-73966200D02*
X139814400Y-73966200D01*
X141414400Y-70966200D02*
X139814400Y-70966200D01*
X138864400Y-69466200D02*
X138864400Y-75466200D01*
X142364400Y-69466200D02*
X142364400Y-75466200D01*
X142364400Y-69466200D02*
X138864400Y-69466200D01*
X142364400Y-75466200D02*
X138864400Y-75466200D01*
X94107000Y-53771800D02*
X94107000Y-50596800D01*
X94107000Y-50596800D02*
X92329000Y-50596800D01*
X92329000Y-50596800D02*
X92329000Y-53771800D01*
X98679000Y-53771800D02*
X98679000Y-50596800D01*
X98679000Y-50596800D02*
X96901000Y-50596800D01*
X96901000Y-50596800D02*
X96901000Y-53771800D01*
X92075000Y-59867800D02*
X92075000Y-53771800D01*
X92075000Y-53771800D02*
X98933000Y-53771800D01*
X98933000Y-53771800D02*
X98933000Y-61645800D01*
X98933000Y-61772800D02*
X92075000Y-61772800D01*
X92075000Y-61645800D02*
X92075000Y-59867800D01*
X152476200Y-77368400D02*
X150444200Y-77368400D01*
X150444200Y-77368400D02*
X150444200Y-78638400D01*
X150444200Y-78638400D02*
X152476200Y-78638400D01*
X152476200Y-78638400D02*
X152476200Y-77368400D01*
X150567600Y-61845400D02*
X150567600Y-62855400D01*
X162817600Y-61845400D02*
X162817600Y-62855400D01*
X162817600Y-74095400D02*
X162817600Y-73085400D01*
X150567600Y-74095400D02*
X150567600Y-73085400D01*
X150567600Y-61845400D02*
X151577600Y-61845400D01*
X150567600Y-74095400D02*
X151577600Y-74095400D01*
X162817600Y-74095400D02*
X161807600Y-74095400D01*
X162817600Y-61845400D02*
X161807600Y-61845400D01*
X150567600Y-62855400D02*
X149042600Y-62855400D01*
X219469600Y-77847600D02*
X219469600Y-77522600D01*
X214819600Y-77847600D02*
X214819600Y-77522600D01*
X214819600Y-67897600D02*
X214819600Y-68222600D01*
X219469600Y-67897600D02*
X219469600Y-68222600D01*
X219469600Y-77847600D02*
X214819600Y-77847600D01*
X219469600Y-67897600D02*
X214819600Y-67897600D01*
X219469600Y-77522600D02*
X220544600Y-77522600D01*
X143029940Y-66603880D02*
X143029940Y-78303120D01*
X148028660Y-78303120D02*
X148028660Y-66603880D01*
X143029940Y-78303120D02*
X143878300Y-78303120D01*
X148028660Y-78303120D02*
X147180300Y-78303120D01*
X143029940Y-66603880D02*
X143878300Y-66603880D01*
X148028660Y-66603880D02*
X147180300Y-66603880D01*
X166345200Y-92781600D02*
X164795200Y-92781600D01*
X166345200Y-94081600D02*
X166345200Y-92781600D01*
X164922200Y-98272600D02*
X164922200Y-104114600D01*
X164922200Y-104114600D02*
X164668200Y-104114600D01*
X164668200Y-104114600D02*
X164668200Y-98272600D01*
X164668200Y-98272600D02*
X164795200Y-98272600D01*
X164795200Y-98272600D02*
X164795200Y-104114600D01*
X165049200Y-95605600D02*
X165049200Y-95224600D01*
X164541200Y-95605600D02*
X164541200Y-95224600D01*
X162509200Y-95605600D02*
X162509200Y-95224600D01*
X162001200Y-95605600D02*
X162001200Y-95224600D01*
X166065200Y-95605600D02*
X166065200Y-98145600D01*
X163525200Y-95605600D02*
X163525200Y-98145600D01*
X163525200Y-95605600D02*
X160985200Y-95605600D01*
X160985200Y-95605600D02*
X160985200Y-98145600D01*
X162509200Y-98145600D02*
X162509200Y-104241600D01*
X162509200Y-104241600D02*
X162001200Y-104241600D01*
X162001200Y-104241600D02*
X162001200Y-98145600D01*
X160985200Y-98145600D02*
X163525200Y-98145600D01*
X163525200Y-98145600D02*
X166065200Y-98145600D01*
X164541200Y-104241600D02*
X164541200Y-98145600D01*
X165049200Y-104241600D02*
X164541200Y-104241600D01*
X165049200Y-98145600D02*
X165049200Y-104241600D01*
X163525200Y-95605600D02*
X163525200Y-98145600D01*
X166065200Y-95605600D02*
X163525200Y-95605600D01*
X152629200Y-92781600D02*
X151079200Y-92781600D01*
X152629200Y-94081600D02*
X152629200Y-92781600D01*
X151206200Y-98272600D02*
X151206200Y-104114600D01*
X151206200Y-104114600D02*
X150952200Y-104114600D01*
X150952200Y-104114600D02*
X150952200Y-98272600D01*
X150952200Y-98272600D02*
X151079200Y-98272600D01*
X151079200Y-98272600D02*
X151079200Y-104114600D01*
X151333200Y-95605600D02*
X151333200Y-95224600D01*
X150825200Y-95605600D02*
X150825200Y-95224600D01*
X148793200Y-95605600D02*
X148793200Y-95224600D01*
X148285200Y-95605600D02*
X148285200Y-95224600D01*
X152349200Y-95605600D02*
X152349200Y-98145600D01*
X149809200Y-95605600D02*
X149809200Y-98145600D01*
X149809200Y-95605600D02*
X147269200Y-95605600D01*
X147269200Y-95605600D02*
X147269200Y-98145600D01*
X148793200Y-98145600D02*
X148793200Y-104241600D01*
X148793200Y-104241600D02*
X148285200Y-104241600D01*
X148285200Y-104241600D02*
X148285200Y-98145600D01*
X147269200Y-98145600D02*
X149809200Y-98145600D01*
X149809200Y-98145600D02*
X152349200Y-98145600D01*
X150825200Y-104241600D02*
X150825200Y-98145600D01*
X151333200Y-104241600D02*
X150825200Y-104241600D01*
X151333200Y-98145600D02*
X151333200Y-104241600D01*
X149809200Y-95605600D02*
X149809200Y-98145600D01*
X152349200Y-95605600D02*
X149809200Y-95605600D01*
X85329734Y-49252143D02*
X85282115Y-49299762D01*
X85139258Y-49347381D01*
X85044020Y-49347381D01*
X84901162Y-49299762D01*
X84805924Y-49204524D01*
X84758305Y-49109286D01*
X84710686Y-48918810D01*
X84710686Y-48775952D01*
X84758305Y-48585476D01*
X84805924Y-48490238D01*
X84901162Y-48395000D01*
X85044020Y-48347381D01*
X85139258Y-48347381D01*
X85282115Y-48395000D01*
X85329734Y-48442619D01*
X86282115Y-49347381D02*
X85710686Y-49347381D01*
X85996400Y-49347381D02*
X85996400Y-48347381D01*
X85901162Y-48490238D01*
X85805924Y-48585476D01*
X85710686Y-48633095D01*
X93787934Y-48261543D02*
X93740315Y-48309162D01*
X93597458Y-48356781D01*
X93502220Y-48356781D01*
X93359362Y-48309162D01*
X93264124Y-48213924D01*
X93216505Y-48118686D01*
X93168886Y-47928210D01*
X93168886Y-47785352D01*
X93216505Y-47594876D01*
X93264124Y-47499638D01*
X93359362Y-47404400D01*
X93502220Y-47356781D01*
X93597458Y-47356781D01*
X93740315Y-47404400D01*
X93787934Y-47452019D01*
X94168886Y-47452019D02*
X94216505Y-47404400D01*
X94311743Y-47356781D01*
X94549839Y-47356781D01*
X94645077Y-47404400D01*
X94692696Y-47452019D01*
X94740315Y-47547257D01*
X94740315Y-47642495D01*
X94692696Y-47785352D01*
X94121267Y-48356781D01*
X94740315Y-48356781D01*
X110440743Y-58002466D02*
X110488362Y-58050085D01*
X110535981Y-58192942D01*
X110535981Y-58288180D01*
X110488362Y-58431038D01*
X110393124Y-58526276D01*
X110297886Y-58573895D01*
X110107410Y-58621514D01*
X109964552Y-58621514D01*
X109774076Y-58573895D01*
X109678838Y-58526276D01*
X109583600Y-58431038D01*
X109535981Y-58288180D01*
X109535981Y-58192942D01*
X109583600Y-58050085D01*
X109631219Y-58002466D01*
X109535981Y-57669133D02*
X109535981Y-57050085D01*
X109916933Y-57383419D01*
X109916933Y-57240561D01*
X109964552Y-57145323D01*
X110012171Y-57097704D01*
X110107410Y-57050085D01*
X110345505Y-57050085D01*
X110440743Y-57097704D01*
X110488362Y-57145323D01*
X110535981Y-57240561D01*
X110535981Y-57526276D01*
X110488362Y-57621514D01*
X110440743Y-57669133D01*
X106021143Y-60364666D02*
X106068762Y-60412285D01*
X106116381Y-60555142D01*
X106116381Y-60650380D01*
X106068762Y-60793238D01*
X105973524Y-60888476D01*
X105878286Y-60936095D01*
X105687810Y-60983714D01*
X105544952Y-60983714D01*
X105354476Y-60936095D01*
X105259238Y-60888476D01*
X105164000Y-60793238D01*
X105116381Y-60650380D01*
X105116381Y-60555142D01*
X105164000Y-60412285D01*
X105211619Y-60364666D01*
X105449714Y-59507523D02*
X106116381Y-59507523D01*
X105068762Y-59745619D02*
X105783048Y-59983714D01*
X105783048Y-59364666D01*
X198413643Y-100547466D02*
X198461262Y-100595085D01*
X198508881Y-100737942D01*
X198508881Y-100833180D01*
X198461262Y-100976038D01*
X198366024Y-101071276D01*
X198270786Y-101118895D01*
X198080310Y-101166514D01*
X197937452Y-101166514D01*
X197746976Y-101118895D01*
X197651738Y-101071276D01*
X197556500Y-100976038D01*
X197508881Y-100833180D01*
X197508881Y-100737942D01*
X197556500Y-100595085D01*
X197604119Y-100547466D01*
X197508881Y-99642704D02*
X197508881Y-100118895D01*
X197985071Y-100166514D01*
X197937452Y-100118895D01*
X197889833Y-100023657D01*
X197889833Y-99785561D01*
X197937452Y-99690323D01*
X197985071Y-99642704D01*
X198080310Y-99595085D01*
X198318405Y-99595085D01*
X198413643Y-99642704D01*
X198461262Y-99690323D01*
X198508881Y-99785561D01*
X198508881Y-100023657D01*
X198461262Y-100118895D01*
X198413643Y-100166514D01*
X180874943Y-90019166D02*
X180922562Y-90066785D01*
X180970181Y-90209642D01*
X180970181Y-90304880D01*
X180922562Y-90447738D01*
X180827324Y-90542976D01*
X180732086Y-90590595D01*
X180541610Y-90638214D01*
X180398752Y-90638214D01*
X180208276Y-90590595D01*
X180113038Y-90542976D01*
X180017800Y-90447738D01*
X179970181Y-90304880D01*
X179970181Y-90209642D01*
X180017800Y-90066785D01*
X180065419Y-90019166D01*
X179970181Y-89162023D02*
X179970181Y-89352500D01*
X180017800Y-89447738D01*
X180065419Y-89495357D01*
X180208276Y-89590595D01*
X180398752Y-89638214D01*
X180779705Y-89638214D01*
X180874943Y-89590595D01*
X180922562Y-89542976D01*
X180970181Y-89447738D01*
X180970181Y-89257261D01*
X180922562Y-89162023D01*
X180874943Y-89114404D01*
X180779705Y-89066785D01*
X180541610Y-89066785D01*
X180446371Y-89114404D01*
X180398752Y-89162023D01*
X180351133Y-89257261D01*
X180351133Y-89447738D01*
X180398752Y-89542976D01*
X180446371Y-89590595D01*
X180541610Y-89638214D01*
X182754543Y-89409566D02*
X182802162Y-89457185D01*
X182849781Y-89600042D01*
X182849781Y-89695280D01*
X182802162Y-89838138D01*
X182706924Y-89933376D01*
X182611686Y-89980995D01*
X182421210Y-90028614D01*
X182278352Y-90028614D01*
X182087876Y-89980995D01*
X181992638Y-89933376D01*
X181897400Y-89838138D01*
X181849781Y-89695280D01*
X181849781Y-89600042D01*
X181897400Y-89457185D01*
X181945019Y-89409566D01*
X181849781Y-89076233D02*
X181849781Y-88409566D01*
X182849781Y-88838138D01*
X196280043Y-100572866D02*
X196327662Y-100620485D01*
X196375281Y-100763342D01*
X196375281Y-100858580D01*
X196327662Y-101001438D01*
X196232424Y-101096676D01*
X196137186Y-101144295D01*
X195946710Y-101191914D01*
X195803852Y-101191914D01*
X195613376Y-101144295D01*
X195518138Y-101096676D01*
X195422900Y-101001438D01*
X195375281Y-100858580D01*
X195375281Y-100763342D01*
X195422900Y-100620485D01*
X195470519Y-100572866D01*
X195803852Y-100001438D02*
X195756233Y-100096676D01*
X195708614Y-100144295D01*
X195613376Y-100191914D01*
X195565757Y-100191914D01*
X195470519Y-100144295D01*
X195422900Y-100096676D01*
X195375281Y-100001438D01*
X195375281Y-99810961D01*
X195422900Y-99715723D01*
X195470519Y-99668104D01*
X195565757Y-99620485D01*
X195613376Y-99620485D01*
X195708614Y-99668104D01*
X195756233Y-99715723D01*
X195803852Y-99810961D01*
X195803852Y-100001438D01*
X195851471Y-100096676D01*
X195899090Y-100144295D01*
X195994329Y-100191914D01*
X196184805Y-100191914D01*
X196280043Y-100144295D01*
X196327662Y-100096676D01*
X196375281Y-100001438D01*
X196375281Y-99810961D01*
X196327662Y-99715723D01*
X196280043Y-99668104D01*
X196184805Y-99620485D01*
X195994329Y-99620485D01*
X195899090Y-99668104D01*
X195851471Y-99715723D01*
X195803852Y-99810961D01*
X183478443Y-100547466D02*
X183526062Y-100595085D01*
X183573681Y-100737942D01*
X183573681Y-100833180D01*
X183526062Y-100976038D01*
X183430824Y-101071276D01*
X183335586Y-101118895D01*
X183145110Y-101166514D01*
X183002252Y-101166514D01*
X182811776Y-101118895D01*
X182716538Y-101071276D01*
X182621300Y-100976038D01*
X182573681Y-100833180D01*
X182573681Y-100737942D01*
X182621300Y-100595085D01*
X182668919Y-100547466D01*
X183573681Y-100071276D02*
X183573681Y-99880800D01*
X183526062Y-99785561D01*
X183478443Y-99737942D01*
X183335586Y-99642704D01*
X183145110Y-99595085D01*
X182764157Y-99595085D01*
X182668919Y-99642704D01*
X182621300Y-99690323D01*
X182573681Y-99785561D01*
X182573681Y-99976038D01*
X182621300Y-100071276D01*
X182668919Y-100118895D01*
X182764157Y-100166514D01*
X183002252Y-100166514D01*
X183097490Y-100118895D01*
X183145110Y-100071276D01*
X183192729Y-99976038D01*
X183192729Y-99785561D01*
X183145110Y-99690323D01*
X183097490Y-99642704D01*
X183002252Y-99595085D01*
X192012843Y-101480857D02*
X192060462Y-101528476D01*
X192108081Y-101671333D01*
X192108081Y-101766571D01*
X192060462Y-101909429D01*
X191965224Y-102004667D01*
X191869986Y-102052286D01*
X191679510Y-102099905D01*
X191536652Y-102099905D01*
X191346176Y-102052286D01*
X191250938Y-102004667D01*
X191155700Y-101909429D01*
X191108081Y-101766571D01*
X191108081Y-101671333D01*
X191155700Y-101528476D01*
X191203319Y-101480857D01*
X192108081Y-100528476D02*
X192108081Y-101099905D01*
X192108081Y-100814191D02*
X191108081Y-100814191D01*
X191250938Y-100909429D01*
X191346176Y-101004667D01*
X191393795Y-101099905D01*
X191108081Y-99909429D02*
X191108081Y-99814190D01*
X191155700Y-99718952D01*
X191203319Y-99671333D01*
X191298557Y-99623714D01*
X191489033Y-99576095D01*
X191727129Y-99576095D01*
X191917605Y-99623714D01*
X192012843Y-99671333D01*
X192060462Y-99718952D01*
X192108081Y-99814190D01*
X192108081Y-99909429D01*
X192060462Y-100004667D01*
X192012843Y-100052286D01*
X191917605Y-100099905D01*
X191727129Y-100147524D01*
X191489033Y-100147524D01*
X191298557Y-100099905D01*
X191203319Y-100052286D01*
X191155700Y-100004667D01*
X191108081Y-99909429D01*
X194146443Y-101455457D02*
X194194062Y-101503076D01*
X194241681Y-101645933D01*
X194241681Y-101741171D01*
X194194062Y-101884029D01*
X194098824Y-101979267D01*
X194003586Y-102026886D01*
X193813110Y-102074505D01*
X193670252Y-102074505D01*
X193479776Y-102026886D01*
X193384538Y-101979267D01*
X193289300Y-101884029D01*
X193241681Y-101741171D01*
X193241681Y-101645933D01*
X193289300Y-101503076D01*
X193336919Y-101455457D01*
X194241681Y-100503076D02*
X194241681Y-101074505D01*
X194241681Y-100788791D02*
X193241681Y-100788791D01*
X193384538Y-100884029D01*
X193479776Y-100979267D01*
X193527395Y-101074505D01*
X194241681Y-99550695D02*
X194241681Y-100122124D01*
X194241681Y-99836410D02*
X193241681Y-99836410D01*
X193384538Y-99931648D01*
X193479776Y-100026886D01*
X193527395Y-100122124D01*
X189879243Y-101480857D02*
X189926862Y-101528476D01*
X189974481Y-101671333D01*
X189974481Y-101766571D01*
X189926862Y-101909429D01*
X189831624Y-102004667D01*
X189736386Y-102052286D01*
X189545910Y-102099905D01*
X189403052Y-102099905D01*
X189212576Y-102052286D01*
X189117338Y-102004667D01*
X189022100Y-101909429D01*
X188974481Y-101766571D01*
X188974481Y-101671333D01*
X189022100Y-101528476D01*
X189069719Y-101480857D01*
X189974481Y-100528476D02*
X189974481Y-101099905D01*
X189974481Y-100814191D02*
X188974481Y-100814191D01*
X189117338Y-100909429D01*
X189212576Y-101004667D01*
X189260195Y-101099905D01*
X189069719Y-100147524D02*
X189022100Y-100099905D01*
X188974481Y-100004667D01*
X188974481Y-99766571D01*
X189022100Y-99671333D01*
X189069719Y-99623714D01*
X189164957Y-99576095D01*
X189260195Y-99576095D01*
X189403052Y-99623714D01*
X189974481Y-100195143D01*
X189974481Y-99576095D01*
X187745643Y-101480857D02*
X187793262Y-101528476D01*
X187840881Y-101671333D01*
X187840881Y-101766571D01*
X187793262Y-101909429D01*
X187698024Y-102004667D01*
X187602786Y-102052286D01*
X187412310Y-102099905D01*
X187269452Y-102099905D01*
X187078976Y-102052286D01*
X186983738Y-102004667D01*
X186888500Y-101909429D01*
X186840881Y-101766571D01*
X186840881Y-101671333D01*
X186888500Y-101528476D01*
X186936119Y-101480857D01*
X187840881Y-100528476D02*
X187840881Y-101099905D01*
X187840881Y-100814191D02*
X186840881Y-100814191D01*
X186983738Y-100909429D01*
X187078976Y-101004667D01*
X187126595Y-101099905D01*
X186840881Y-100195143D02*
X186840881Y-99576095D01*
X187221833Y-99909429D01*
X187221833Y-99766571D01*
X187269452Y-99671333D01*
X187317071Y-99623714D01*
X187412310Y-99576095D01*
X187650405Y-99576095D01*
X187745643Y-99623714D01*
X187793262Y-99671333D01*
X187840881Y-99766571D01*
X187840881Y-100052286D01*
X187793262Y-100147524D01*
X187745643Y-100195143D01*
X185612043Y-101531657D02*
X185659662Y-101579276D01*
X185707281Y-101722133D01*
X185707281Y-101817371D01*
X185659662Y-101960229D01*
X185564424Y-102055467D01*
X185469186Y-102103086D01*
X185278710Y-102150705D01*
X185135852Y-102150705D01*
X184945376Y-102103086D01*
X184850138Y-102055467D01*
X184754900Y-101960229D01*
X184707281Y-101817371D01*
X184707281Y-101722133D01*
X184754900Y-101579276D01*
X184802519Y-101531657D01*
X185707281Y-100579276D02*
X185707281Y-101150705D01*
X185707281Y-100864991D02*
X184707281Y-100864991D01*
X184850138Y-100960229D01*
X184945376Y-101055467D01*
X184992995Y-101150705D01*
X185040614Y-99722133D02*
X185707281Y-99722133D01*
X184659662Y-99960229D02*
X185373948Y-100198324D01*
X185373948Y-99579276D01*
X200547243Y-101480857D02*
X200594862Y-101528476D01*
X200642481Y-101671333D01*
X200642481Y-101766571D01*
X200594862Y-101909429D01*
X200499624Y-102004667D01*
X200404386Y-102052286D01*
X200213910Y-102099905D01*
X200071052Y-102099905D01*
X199880576Y-102052286D01*
X199785338Y-102004667D01*
X199690100Y-101909429D01*
X199642481Y-101766571D01*
X199642481Y-101671333D01*
X199690100Y-101528476D01*
X199737719Y-101480857D01*
X200642481Y-100528476D02*
X200642481Y-101099905D01*
X200642481Y-100814191D02*
X199642481Y-100814191D01*
X199785338Y-100909429D01*
X199880576Y-101004667D01*
X199928195Y-101099905D01*
X199642481Y-99623714D02*
X199642481Y-100099905D01*
X200118671Y-100147524D01*
X200071052Y-100099905D01*
X200023433Y-100004667D01*
X200023433Y-99766571D01*
X200071052Y-99671333D01*
X200118671Y-99623714D01*
X200213910Y-99576095D01*
X200452005Y-99576095D01*
X200547243Y-99623714D01*
X200594862Y-99671333D01*
X200642481Y-99766571D01*
X200642481Y-100004667D01*
X200594862Y-100099905D01*
X200547243Y-100147524D01*
X122264443Y-101582457D02*
X122312062Y-101630076D01*
X122359681Y-101772933D01*
X122359681Y-101868171D01*
X122312062Y-102011029D01*
X122216824Y-102106267D01*
X122121586Y-102153886D01*
X121931110Y-102201505D01*
X121788252Y-102201505D01*
X121597776Y-102153886D01*
X121502538Y-102106267D01*
X121407300Y-102011029D01*
X121359681Y-101868171D01*
X121359681Y-101772933D01*
X121407300Y-101630076D01*
X121454919Y-101582457D01*
X122359681Y-100630076D02*
X122359681Y-101201505D01*
X122359681Y-100915791D02*
X121359681Y-100915791D01*
X121502538Y-101011029D01*
X121597776Y-101106267D01*
X121645395Y-101201505D01*
X121359681Y-99772933D02*
X121359681Y-99963410D01*
X121407300Y-100058648D01*
X121454919Y-100106267D01*
X121597776Y-100201505D01*
X121788252Y-100249124D01*
X122169205Y-100249124D01*
X122264443Y-100201505D01*
X122312062Y-100153886D01*
X122359681Y-100058648D01*
X122359681Y-99868171D01*
X122312062Y-99772933D01*
X122264443Y-99725314D01*
X122169205Y-99677695D01*
X121931110Y-99677695D01*
X121835871Y-99725314D01*
X121788252Y-99772933D01*
X121740633Y-99868171D01*
X121740633Y-100058648D01*
X121788252Y-100153886D01*
X121835871Y-100201505D01*
X121931110Y-100249124D01*
X104725743Y-90000057D02*
X104773362Y-90047676D01*
X104820981Y-90190533D01*
X104820981Y-90285771D01*
X104773362Y-90428629D01*
X104678124Y-90523867D01*
X104582886Y-90571486D01*
X104392410Y-90619105D01*
X104249552Y-90619105D01*
X104059076Y-90571486D01*
X103963838Y-90523867D01*
X103868600Y-90428629D01*
X103820981Y-90285771D01*
X103820981Y-90190533D01*
X103868600Y-90047676D01*
X103916219Y-90000057D01*
X104820981Y-89047676D02*
X104820981Y-89619105D01*
X104820981Y-89333391D02*
X103820981Y-89333391D01*
X103963838Y-89428629D01*
X104059076Y-89523867D01*
X104106695Y-89619105D01*
X103820981Y-88714343D02*
X103820981Y-88047676D01*
X104820981Y-88476248D01*
X106605343Y-89377757D02*
X106652962Y-89425376D01*
X106700581Y-89568233D01*
X106700581Y-89663471D01*
X106652962Y-89806329D01*
X106557724Y-89901567D01*
X106462486Y-89949186D01*
X106272010Y-89996805D01*
X106129152Y-89996805D01*
X105938676Y-89949186D01*
X105843438Y-89901567D01*
X105748200Y-89806329D01*
X105700581Y-89663471D01*
X105700581Y-89568233D01*
X105748200Y-89425376D01*
X105795819Y-89377757D01*
X106700581Y-88425376D02*
X106700581Y-88996805D01*
X106700581Y-88711091D02*
X105700581Y-88711091D01*
X105843438Y-88806329D01*
X105938676Y-88901567D01*
X105986295Y-88996805D01*
X106129152Y-87853948D02*
X106081533Y-87949186D01*
X106033914Y-87996805D01*
X105938676Y-88044424D01*
X105891057Y-88044424D01*
X105795819Y-87996805D01*
X105748200Y-87949186D01*
X105700581Y-87853948D01*
X105700581Y-87663471D01*
X105748200Y-87568233D01*
X105795819Y-87520614D01*
X105891057Y-87472995D01*
X105938676Y-87472995D01*
X106033914Y-87520614D01*
X106081533Y-87568233D01*
X106129152Y-87663471D01*
X106129152Y-87853948D01*
X106176771Y-87949186D01*
X106224390Y-87996805D01*
X106319629Y-88044424D01*
X106510105Y-88044424D01*
X106605343Y-87996805D01*
X106652962Y-87949186D01*
X106700581Y-87853948D01*
X106700581Y-87663471D01*
X106652962Y-87568233D01*
X106605343Y-87520614D01*
X106510105Y-87472995D01*
X106319629Y-87472995D01*
X106224390Y-87520614D01*
X106176771Y-87568233D01*
X106129152Y-87663471D01*
X120130843Y-101531657D02*
X120178462Y-101579276D01*
X120226081Y-101722133D01*
X120226081Y-101817371D01*
X120178462Y-101960229D01*
X120083224Y-102055467D01*
X119987986Y-102103086D01*
X119797510Y-102150705D01*
X119654652Y-102150705D01*
X119464176Y-102103086D01*
X119368938Y-102055467D01*
X119273700Y-101960229D01*
X119226081Y-101817371D01*
X119226081Y-101722133D01*
X119273700Y-101579276D01*
X119321319Y-101531657D01*
X120226081Y-100579276D02*
X120226081Y-101150705D01*
X120226081Y-100864991D02*
X119226081Y-100864991D01*
X119368938Y-100960229D01*
X119464176Y-101055467D01*
X119511795Y-101150705D01*
X120226081Y-100103086D02*
X120226081Y-99912610D01*
X120178462Y-99817371D01*
X120130843Y-99769752D01*
X119987986Y-99674514D01*
X119797510Y-99626895D01*
X119416557Y-99626895D01*
X119321319Y-99674514D01*
X119273700Y-99722133D01*
X119226081Y-99817371D01*
X119226081Y-100007848D01*
X119273700Y-100103086D01*
X119321319Y-100150705D01*
X119416557Y-100198324D01*
X119654652Y-100198324D01*
X119749890Y-100150705D01*
X119797510Y-100103086D01*
X119845129Y-100007848D01*
X119845129Y-99817371D01*
X119797510Y-99722133D01*
X119749890Y-99674514D01*
X119654652Y-99626895D01*
X107329243Y-101582457D02*
X107376862Y-101630076D01*
X107424481Y-101772933D01*
X107424481Y-101868171D01*
X107376862Y-102011029D01*
X107281624Y-102106267D01*
X107186386Y-102153886D01*
X106995910Y-102201505D01*
X106853052Y-102201505D01*
X106662576Y-102153886D01*
X106567338Y-102106267D01*
X106472100Y-102011029D01*
X106424481Y-101868171D01*
X106424481Y-101772933D01*
X106472100Y-101630076D01*
X106519719Y-101582457D01*
X106519719Y-101201505D02*
X106472100Y-101153886D01*
X106424481Y-101058648D01*
X106424481Y-100820552D01*
X106472100Y-100725314D01*
X106519719Y-100677695D01*
X106614957Y-100630076D01*
X106710195Y-100630076D01*
X106853052Y-100677695D01*
X107424481Y-101249124D01*
X107424481Y-100630076D01*
X106424481Y-100011029D02*
X106424481Y-99915790D01*
X106472100Y-99820552D01*
X106519719Y-99772933D01*
X106614957Y-99725314D01*
X106805433Y-99677695D01*
X107043529Y-99677695D01*
X107234005Y-99725314D01*
X107329243Y-99772933D01*
X107376862Y-99820552D01*
X107424481Y-99915790D01*
X107424481Y-100011029D01*
X107376862Y-100106267D01*
X107329243Y-100153886D01*
X107234005Y-100201505D01*
X107043529Y-100249124D01*
X106805433Y-100249124D01*
X106614957Y-100201505D01*
X106519719Y-100153886D01*
X106472100Y-100106267D01*
X106424481Y-100011029D01*
X115863643Y-101582457D02*
X115911262Y-101630076D01*
X115958881Y-101772933D01*
X115958881Y-101868171D01*
X115911262Y-102011029D01*
X115816024Y-102106267D01*
X115720786Y-102153886D01*
X115530310Y-102201505D01*
X115387452Y-102201505D01*
X115196976Y-102153886D01*
X115101738Y-102106267D01*
X115006500Y-102011029D01*
X114958881Y-101868171D01*
X114958881Y-101772933D01*
X115006500Y-101630076D01*
X115054119Y-101582457D01*
X115054119Y-101201505D02*
X115006500Y-101153886D01*
X114958881Y-101058648D01*
X114958881Y-100820552D01*
X115006500Y-100725314D01*
X115054119Y-100677695D01*
X115149357Y-100630076D01*
X115244595Y-100630076D01*
X115387452Y-100677695D01*
X115958881Y-101249124D01*
X115958881Y-100630076D01*
X115958881Y-99677695D02*
X115958881Y-100249124D01*
X115958881Y-99963410D02*
X114958881Y-99963410D01*
X115101738Y-100058648D01*
X115196976Y-100153886D01*
X115244595Y-100249124D01*
X117997243Y-101506257D02*
X118044862Y-101553876D01*
X118092481Y-101696733D01*
X118092481Y-101791971D01*
X118044862Y-101934829D01*
X117949624Y-102030067D01*
X117854386Y-102077686D01*
X117663910Y-102125305D01*
X117521052Y-102125305D01*
X117330576Y-102077686D01*
X117235338Y-102030067D01*
X117140100Y-101934829D01*
X117092481Y-101791971D01*
X117092481Y-101696733D01*
X117140100Y-101553876D01*
X117187719Y-101506257D01*
X117187719Y-101125305D02*
X117140100Y-101077686D01*
X117092481Y-100982448D01*
X117092481Y-100744352D01*
X117140100Y-100649114D01*
X117187719Y-100601495D01*
X117282957Y-100553876D01*
X117378195Y-100553876D01*
X117521052Y-100601495D01*
X118092481Y-101172924D01*
X118092481Y-100553876D01*
X117187719Y-100172924D02*
X117140100Y-100125305D01*
X117092481Y-100030067D01*
X117092481Y-99791971D01*
X117140100Y-99696733D01*
X117187719Y-99649114D01*
X117282957Y-99601495D01*
X117378195Y-99601495D01*
X117521052Y-99649114D01*
X118092481Y-100220543D01*
X118092481Y-99601495D01*
X113730043Y-101607857D02*
X113777662Y-101655476D01*
X113825281Y-101798333D01*
X113825281Y-101893571D01*
X113777662Y-102036429D01*
X113682424Y-102131667D01*
X113587186Y-102179286D01*
X113396710Y-102226905D01*
X113253852Y-102226905D01*
X113063376Y-102179286D01*
X112968138Y-102131667D01*
X112872900Y-102036429D01*
X112825281Y-101893571D01*
X112825281Y-101798333D01*
X112872900Y-101655476D01*
X112920519Y-101607857D01*
X112920519Y-101226905D02*
X112872900Y-101179286D01*
X112825281Y-101084048D01*
X112825281Y-100845952D01*
X112872900Y-100750714D01*
X112920519Y-100703095D01*
X113015757Y-100655476D01*
X113110995Y-100655476D01*
X113253852Y-100703095D01*
X113825281Y-101274524D01*
X113825281Y-100655476D01*
X112825281Y-100322143D02*
X112825281Y-99703095D01*
X113206233Y-100036429D01*
X113206233Y-99893571D01*
X113253852Y-99798333D01*
X113301471Y-99750714D01*
X113396710Y-99703095D01*
X113634805Y-99703095D01*
X113730043Y-99750714D01*
X113777662Y-99798333D01*
X113825281Y-99893571D01*
X113825281Y-100179286D01*
X113777662Y-100274524D01*
X113730043Y-100322143D01*
X111596443Y-101607857D02*
X111644062Y-101655476D01*
X111691681Y-101798333D01*
X111691681Y-101893571D01*
X111644062Y-102036429D01*
X111548824Y-102131667D01*
X111453586Y-102179286D01*
X111263110Y-102226905D01*
X111120252Y-102226905D01*
X110929776Y-102179286D01*
X110834538Y-102131667D01*
X110739300Y-102036429D01*
X110691681Y-101893571D01*
X110691681Y-101798333D01*
X110739300Y-101655476D01*
X110786919Y-101607857D01*
X110786919Y-101226905D02*
X110739300Y-101179286D01*
X110691681Y-101084048D01*
X110691681Y-100845952D01*
X110739300Y-100750714D01*
X110786919Y-100703095D01*
X110882157Y-100655476D01*
X110977395Y-100655476D01*
X111120252Y-100703095D01*
X111691681Y-101274524D01*
X111691681Y-100655476D01*
X111025014Y-99798333D02*
X111691681Y-99798333D01*
X110644062Y-100036429D02*
X111358348Y-100274524D01*
X111358348Y-99655476D01*
X109462843Y-101557057D02*
X109510462Y-101604676D01*
X109558081Y-101747533D01*
X109558081Y-101842771D01*
X109510462Y-101985629D01*
X109415224Y-102080867D01*
X109319986Y-102128486D01*
X109129510Y-102176105D01*
X108986652Y-102176105D01*
X108796176Y-102128486D01*
X108700938Y-102080867D01*
X108605700Y-101985629D01*
X108558081Y-101842771D01*
X108558081Y-101747533D01*
X108605700Y-101604676D01*
X108653319Y-101557057D01*
X108653319Y-101176105D02*
X108605700Y-101128486D01*
X108558081Y-101033248D01*
X108558081Y-100795152D01*
X108605700Y-100699914D01*
X108653319Y-100652295D01*
X108748557Y-100604676D01*
X108843795Y-100604676D01*
X108986652Y-100652295D01*
X109558081Y-101223724D01*
X109558081Y-100604676D01*
X108558081Y-99699914D02*
X108558081Y-100176105D01*
X109034271Y-100223724D01*
X108986652Y-100176105D01*
X108939033Y-100080867D01*
X108939033Y-99842771D01*
X108986652Y-99747533D01*
X109034271Y-99699914D01*
X109129510Y-99652295D01*
X109367605Y-99652295D01*
X109462843Y-99699914D01*
X109510462Y-99747533D01*
X109558081Y-99842771D01*
X109558081Y-100080867D01*
X109510462Y-100176105D01*
X109462843Y-100223724D01*
X124398043Y-101531657D02*
X124445662Y-101579276D01*
X124493281Y-101722133D01*
X124493281Y-101817371D01*
X124445662Y-101960229D01*
X124350424Y-102055467D01*
X124255186Y-102103086D01*
X124064710Y-102150705D01*
X123921852Y-102150705D01*
X123731376Y-102103086D01*
X123636138Y-102055467D01*
X123540900Y-101960229D01*
X123493281Y-101817371D01*
X123493281Y-101722133D01*
X123540900Y-101579276D01*
X123588519Y-101531657D01*
X123588519Y-101150705D02*
X123540900Y-101103086D01*
X123493281Y-101007848D01*
X123493281Y-100769752D01*
X123540900Y-100674514D01*
X123588519Y-100626895D01*
X123683757Y-100579276D01*
X123778995Y-100579276D01*
X123921852Y-100626895D01*
X124493281Y-101198324D01*
X124493281Y-100579276D01*
X123493281Y-99722133D02*
X123493281Y-99912610D01*
X123540900Y-100007848D01*
X123588519Y-100055467D01*
X123731376Y-100150705D01*
X123921852Y-100198324D01*
X124302805Y-100198324D01*
X124398043Y-100150705D01*
X124445662Y-100103086D01*
X124493281Y-100007848D01*
X124493281Y-99817371D01*
X124445662Y-99722133D01*
X124398043Y-99674514D01*
X124302805Y-99626895D01*
X124064710Y-99626895D01*
X123969471Y-99674514D01*
X123921852Y-99722133D01*
X123874233Y-99817371D01*
X123874233Y-100007848D01*
X123921852Y-100103086D01*
X123969471Y-100150705D01*
X124064710Y-100198324D01*
X165498543Y-71426343D02*
X165450924Y-71473962D01*
X165308067Y-71521581D01*
X165212829Y-71521581D01*
X165069971Y-71473962D01*
X164974733Y-71378724D01*
X164927114Y-71283486D01*
X164879495Y-71093010D01*
X164879495Y-70950152D01*
X164927114Y-70759676D01*
X164974733Y-70664438D01*
X165069971Y-70569200D01*
X165212829Y-70521581D01*
X165308067Y-70521581D01*
X165450924Y-70569200D01*
X165498543Y-70616819D01*
X165879495Y-70616819D02*
X165927114Y-70569200D01*
X166022352Y-70521581D01*
X166260448Y-70521581D01*
X166355686Y-70569200D01*
X166403305Y-70616819D01*
X166450924Y-70712057D01*
X166450924Y-70807295D01*
X166403305Y-70950152D01*
X165831876Y-71521581D01*
X166450924Y-71521581D01*
X167022352Y-70950152D02*
X166927114Y-70902533D01*
X166879495Y-70854914D01*
X166831876Y-70759676D01*
X166831876Y-70712057D01*
X166879495Y-70616819D01*
X166927114Y-70569200D01*
X167022352Y-70521581D01*
X167212829Y-70521581D01*
X167308067Y-70569200D01*
X167355686Y-70616819D01*
X167403305Y-70712057D01*
X167403305Y-70759676D01*
X167355686Y-70854914D01*
X167308067Y-70902533D01*
X167212829Y-70950152D01*
X167022352Y-70950152D01*
X166927114Y-70997771D01*
X166879495Y-71045390D01*
X166831876Y-71140629D01*
X166831876Y-71331105D01*
X166879495Y-71426343D01*
X166927114Y-71473962D01*
X167022352Y-71521581D01*
X167212829Y-71521581D01*
X167308067Y-71473962D01*
X167355686Y-71426343D01*
X167403305Y-71331105D01*
X167403305Y-71140629D01*
X167355686Y-71045390D01*
X167308067Y-70997771D01*
X167212829Y-70950152D01*
X169880043Y-65939943D02*
X169832424Y-65987562D01*
X169689567Y-66035181D01*
X169594329Y-66035181D01*
X169451471Y-65987562D01*
X169356233Y-65892324D01*
X169308614Y-65797086D01*
X169260995Y-65606610D01*
X169260995Y-65463752D01*
X169308614Y-65273276D01*
X169356233Y-65178038D01*
X169451471Y-65082800D01*
X169594329Y-65035181D01*
X169689567Y-65035181D01*
X169832424Y-65082800D01*
X169880043Y-65130419D01*
X170260995Y-65130419D02*
X170308614Y-65082800D01*
X170403852Y-65035181D01*
X170641948Y-65035181D01*
X170737186Y-65082800D01*
X170784805Y-65130419D01*
X170832424Y-65225657D01*
X170832424Y-65320895D01*
X170784805Y-65463752D01*
X170213376Y-66035181D01*
X170832424Y-66035181D01*
X171308614Y-66035181D02*
X171499090Y-66035181D01*
X171594329Y-65987562D01*
X171641948Y-65939943D01*
X171737186Y-65797086D01*
X171784805Y-65606610D01*
X171784805Y-65225657D01*
X171737186Y-65130419D01*
X171689567Y-65082800D01*
X171594329Y-65035181D01*
X171403852Y-65035181D01*
X171308614Y-65082800D01*
X171260995Y-65130419D01*
X171213376Y-65225657D01*
X171213376Y-65463752D01*
X171260995Y-65558990D01*
X171308614Y-65606610D01*
X171403852Y-65654229D01*
X171594329Y-65654229D01*
X171689567Y-65606610D01*
X171737186Y-65558990D01*
X171784805Y-65463752D01*
X154001743Y-56129157D02*
X154049362Y-56176776D01*
X154096981Y-56319633D01*
X154096981Y-56414871D01*
X154049362Y-56557729D01*
X153954124Y-56652967D01*
X153858886Y-56700586D01*
X153668410Y-56748205D01*
X153525552Y-56748205D01*
X153335076Y-56700586D01*
X153239838Y-56652967D01*
X153144600Y-56557729D01*
X153096981Y-56414871D01*
X153096981Y-56319633D01*
X153144600Y-56176776D01*
X153192219Y-56129157D01*
X153096981Y-55795824D02*
X153096981Y-55176776D01*
X153477933Y-55510110D01*
X153477933Y-55367252D01*
X153525552Y-55272014D01*
X153573171Y-55224395D01*
X153668410Y-55176776D01*
X153906505Y-55176776D01*
X154001743Y-55224395D01*
X154049362Y-55272014D01*
X154096981Y-55367252D01*
X154096981Y-55652967D01*
X154049362Y-55748205D01*
X154001743Y-55795824D01*
X153096981Y-54557729D02*
X153096981Y-54462490D01*
X153144600Y-54367252D01*
X153192219Y-54319633D01*
X153287457Y-54272014D01*
X153477933Y-54224395D01*
X153716029Y-54224395D01*
X153906505Y-54272014D01*
X154001743Y-54319633D01*
X154049362Y-54367252D01*
X154096981Y-54462490D01*
X154096981Y-54557729D01*
X154049362Y-54652967D01*
X154001743Y-54700586D01*
X153906505Y-54748205D01*
X153716029Y-54795824D01*
X153477933Y-54795824D01*
X153287457Y-54748205D01*
X153192219Y-54700586D01*
X153144600Y-54652967D01*
X153096981Y-54557729D01*
X158599143Y-56179957D02*
X158646762Y-56227576D01*
X158694381Y-56370433D01*
X158694381Y-56465671D01*
X158646762Y-56608529D01*
X158551524Y-56703767D01*
X158456286Y-56751386D01*
X158265810Y-56799005D01*
X158122952Y-56799005D01*
X157932476Y-56751386D01*
X157837238Y-56703767D01*
X157742000Y-56608529D01*
X157694381Y-56465671D01*
X157694381Y-56370433D01*
X157742000Y-56227576D01*
X157789619Y-56179957D01*
X157694381Y-55846624D02*
X157694381Y-55227576D01*
X158075333Y-55560910D01*
X158075333Y-55418052D01*
X158122952Y-55322814D01*
X158170571Y-55275195D01*
X158265810Y-55227576D01*
X158503905Y-55227576D01*
X158599143Y-55275195D01*
X158646762Y-55322814D01*
X158694381Y-55418052D01*
X158694381Y-55703767D01*
X158646762Y-55799005D01*
X158599143Y-55846624D01*
X158694381Y-54275195D02*
X158694381Y-54846624D01*
X158694381Y-54560910D02*
X157694381Y-54560910D01*
X157837238Y-54656148D01*
X157932476Y-54751386D01*
X157980095Y-54846624D01*
X158154643Y-81021157D02*
X158202262Y-81068776D01*
X158249881Y-81211633D01*
X158249881Y-81306871D01*
X158202262Y-81449729D01*
X158107024Y-81544967D01*
X158011786Y-81592586D01*
X157821310Y-81640205D01*
X157678452Y-81640205D01*
X157487976Y-81592586D01*
X157392738Y-81544967D01*
X157297500Y-81449729D01*
X157249881Y-81306871D01*
X157249881Y-81211633D01*
X157297500Y-81068776D01*
X157345119Y-81021157D01*
X157249881Y-80687824D02*
X157249881Y-80068776D01*
X157630833Y-80402110D01*
X157630833Y-80259252D01*
X157678452Y-80164014D01*
X157726071Y-80116395D01*
X157821310Y-80068776D01*
X158059405Y-80068776D01*
X158154643Y-80116395D01*
X158202262Y-80164014D01*
X158249881Y-80259252D01*
X158249881Y-80544967D01*
X158202262Y-80640205D01*
X158154643Y-80687824D01*
X157345119Y-79687824D02*
X157297500Y-79640205D01*
X157249881Y-79544967D01*
X157249881Y-79306871D01*
X157297500Y-79211633D01*
X157345119Y-79164014D01*
X157440357Y-79116395D01*
X157535595Y-79116395D01*
X157678452Y-79164014D01*
X158249881Y-79735443D01*
X158249881Y-79116395D01*
X138879343Y-65990743D02*
X138831724Y-66038362D01*
X138688867Y-66085981D01*
X138593629Y-66085981D01*
X138450771Y-66038362D01*
X138355533Y-65943124D01*
X138307914Y-65847886D01*
X138260295Y-65657410D01*
X138260295Y-65514552D01*
X138307914Y-65324076D01*
X138355533Y-65228838D01*
X138450771Y-65133600D01*
X138593629Y-65085981D01*
X138688867Y-65085981D01*
X138831724Y-65133600D01*
X138879343Y-65181219D01*
X139212676Y-65085981D02*
X139831724Y-65085981D01*
X139498390Y-65466933D01*
X139641248Y-65466933D01*
X139736486Y-65514552D01*
X139784105Y-65562171D01*
X139831724Y-65657410D01*
X139831724Y-65895505D01*
X139784105Y-65990743D01*
X139736486Y-66038362D01*
X139641248Y-66085981D01*
X139355533Y-66085981D01*
X139260295Y-66038362D01*
X139212676Y-65990743D01*
X140688867Y-65419314D02*
X140688867Y-66085981D01*
X140450771Y-65038362D02*
X140212676Y-65752648D01*
X140831724Y-65752648D01*
X138930143Y-79630543D02*
X138882524Y-79678162D01*
X138739667Y-79725781D01*
X138644429Y-79725781D01*
X138501571Y-79678162D01*
X138406333Y-79582924D01*
X138358714Y-79487686D01*
X138311095Y-79297210D01*
X138311095Y-79154352D01*
X138358714Y-78963876D01*
X138406333Y-78868638D01*
X138501571Y-78773400D01*
X138644429Y-78725781D01*
X138739667Y-78725781D01*
X138882524Y-78773400D01*
X138930143Y-78821019D01*
X139263476Y-78725781D02*
X139882524Y-78725781D01*
X139549190Y-79106733D01*
X139692048Y-79106733D01*
X139787286Y-79154352D01*
X139834905Y-79201971D01*
X139882524Y-79297210D01*
X139882524Y-79535305D01*
X139834905Y-79630543D01*
X139787286Y-79678162D01*
X139692048Y-79725781D01*
X139406333Y-79725781D01*
X139311095Y-79678162D01*
X139263476Y-79630543D01*
X140787286Y-78725781D02*
X140311095Y-78725781D01*
X140263476Y-79201971D01*
X140311095Y-79154352D01*
X140406333Y-79106733D01*
X140644429Y-79106733D01*
X140739667Y-79154352D01*
X140787286Y-79201971D01*
X140834905Y-79297210D01*
X140834905Y-79535305D01*
X140787286Y-79630543D01*
X140739667Y-79678162D01*
X140644429Y-79725781D01*
X140406333Y-79725781D01*
X140311095Y-79678162D01*
X140263476Y-79630543D01*
X194159143Y-50350657D02*
X194206762Y-50398276D01*
X194254381Y-50541133D01*
X194254381Y-50636371D01*
X194206762Y-50779229D01*
X194111524Y-50874467D01*
X194016286Y-50922086D01*
X193825810Y-50969705D01*
X193682952Y-50969705D01*
X193492476Y-50922086D01*
X193397238Y-50874467D01*
X193302000Y-50779229D01*
X193254381Y-50636371D01*
X193254381Y-50541133D01*
X193302000Y-50398276D01*
X193349619Y-50350657D01*
X193254381Y-50017324D02*
X193254381Y-49398276D01*
X193635333Y-49731610D01*
X193635333Y-49588752D01*
X193682952Y-49493514D01*
X193730571Y-49445895D01*
X193825810Y-49398276D01*
X194063905Y-49398276D01*
X194159143Y-49445895D01*
X194206762Y-49493514D01*
X194254381Y-49588752D01*
X194254381Y-49874467D01*
X194206762Y-49969705D01*
X194159143Y-50017324D01*
X193254381Y-49064943D02*
X193254381Y-48398276D01*
X194254381Y-48826848D01*
X117908343Y-50376057D02*
X117955962Y-50423676D01*
X118003581Y-50566533D01*
X118003581Y-50661771D01*
X117955962Y-50804629D01*
X117860724Y-50899867D01*
X117765486Y-50947486D01*
X117575010Y-50995105D01*
X117432152Y-50995105D01*
X117241676Y-50947486D01*
X117146438Y-50899867D01*
X117051200Y-50804629D01*
X117003581Y-50661771D01*
X117003581Y-50566533D01*
X117051200Y-50423676D01*
X117098819Y-50376057D01*
X117003581Y-50042724D02*
X117003581Y-49423676D01*
X117384533Y-49757010D01*
X117384533Y-49614152D01*
X117432152Y-49518914D01*
X117479771Y-49471295D01*
X117575010Y-49423676D01*
X117813105Y-49423676D01*
X117908343Y-49471295D01*
X117955962Y-49518914D01*
X118003581Y-49614152D01*
X118003581Y-49899867D01*
X117955962Y-49995105D01*
X117908343Y-50042724D01*
X117432152Y-48852248D02*
X117384533Y-48947486D01*
X117336914Y-48995105D01*
X117241676Y-49042724D01*
X117194057Y-49042724D01*
X117098819Y-48995105D01*
X117051200Y-48947486D01*
X117003581Y-48852248D01*
X117003581Y-48661771D01*
X117051200Y-48566533D01*
X117098819Y-48518914D01*
X117194057Y-48471295D01*
X117241676Y-48471295D01*
X117336914Y-48518914D01*
X117384533Y-48566533D01*
X117432152Y-48661771D01*
X117432152Y-48852248D01*
X117479771Y-48947486D01*
X117527390Y-48995105D01*
X117622629Y-49042724D01*
X117813105Y-49042724D01*
X117908343Y-48995105D01*
X117955962Y-48947486D01*
X118003581Y-48852248D01*
X118003581Y-48661771D01*
X117955962Y-48566533D01*
X117908343Y-48518914D01*
X117813105Y-48471295D01*
X117622629Y-48471295D01*
X117527390Y-48518914D01*
X117479771Y-48566533D01*
X117432152Y-48661771D01*
X196165743Y-50350657D02*
X196213362Y-50398276D01*
X196260981Y-50541133D01*
X196260981Y-50636371D01*
X196213362Y-50779229D01*
X196118124Y-50874467D01*
X196022886Y-50922086D01*
X195832410Y-50969705D01*
X195689552Y-50969705D01*
X195499076Y-50922086D01*
X195403838Y-50874467D01*
X195308600Y-50779229D01*
X195260981Y-50636371D01*
X195260981Y-50541133D01*
X195308600Y-50398276D01*
X195356219Y-50350657D01*
X195260981Y-50017324D02*
X195260981Y-49398276D01*
X195641933Y-49731610D01*
X195641933Y-49588752D01*
X195689552Y-49493514D01*
X195737171Y-49445895D01*
X195832410Y-49398276D01*
X196070505Y-49398276D01*
X196165743Y-49445895D01*
X196213362Y-49493514D01*
X196260981Y-49588752D01*
X196260981Y-49874467D01*
X196213362Y-49969705D01*
X196165743Y-50017324D01*
X196260981Y-48922086D02*
X196260981Y-48731610D01*
X196213362Y-48636371D01*
X196165743Y-48588752D01*
X196022886Y-48493514D01*
X195832410Y-48445895D01*
X195451457Y-48445895D01*
X195356219Y-48493514D01*
X195308600Y-48541133D01*
X195260981Y-48636371D01*
X195260981Y-48826848D01*
X195308600Y-48922086D01*
X195356219Y-48969705D01*
X195451457Y-49017324D01*
X195689552Y-49017324D01*
X195784790Y-48969705D01*
X195832410Y-48922086D01*
X195880029Y-48826848D01*
X195880029Y-48636371D01*
X195832410Y-48541133D01*
X195784790Y-48493514D01*
X195689552Y-48445895D01*
X119914943Y-50376057D02*
X119962562Y-50423676D01*
X120010181Y-50566533D01*
X120010181Y-50661771D01*
X119962562Y-50804629D01*
X119867324Y-50899867D01*
X119772086Y-50947486D01*
X119581610Y-50995105D01*
X119438752Y-50995105D01*
X119248276Y-50947486D01*
X119153038Y-50899867D01*
X119057800Y-50804629D01*
X119010181Y-50661771D01*
X119010181Y-50566533D01*
X119057800Y-50423676D01*
X119105419Y-50376057D01*
X119343514Y-49518914D02*
X120010181Y-49518914D01*
X118962562Y-49757010D02*
X119676848Y-49995105D01*
X119676848Y-49376057D01*
X119010181Y-48804629D02*
X119010181Y-48709390D01*
X119057800Y-48614152D01*
X119105419Y-48566533D01*
X119200657Y-48518914D01*
X119391133Y-48471295D01*
X119629229Y-48471295D01*
X119819705Y-48518914D01*
X119914943Y-48566533D01*
X119962562Y-48614152D01*
X120010181Y-48709390D01*
X120010181Y-48804629D01*
X119962562Y-48899867D01*
X119914943Y-48947486D01*
X119819705Y-48995105D01*
X119629229Y-49042724D01*
X119391133Y-49042724D01*
X119200657Y-48995105D01*
X119105419Y-48947486D01*
X119057800Y-48899867D01*
X119010181Y-48804629D01*
X149601181Y-81179895D02*
X148601181Y-81179895D01*
X148601181Y-80941800D01*
X148648800Y-80798942D01*
X148744038Y-80703704D01*
X148839276Y-80656085D01*
X149029752Y-80608466D01*
X149172610Y-80608466D01*
X149363086Y-80656085D01*
X149458324Y-80703704D01*
X149553562Y-80798942D01*
X149601181Y-80941800D01*
X149601181Y-81179895D01*
X149601181Y-79656085D02*
X149601181Y-80227514D01*
X149601181Y-79941800D02*
X148601181Y-79941800D01*
X148744038Y-80037038D01*
X148839276Y-80132276D01*
X148886895Y-80227514D01*
X142489181Y-59259695D02*
X141489181Y-59259695D01*
X141489181Y-59021600D01*
X141536800Y-58878742D01*
X141632038Y-58783504D01*
X141727276Y-58735885D01*
X141917752Y-58688266D01*
X142060610Y-58688266D01*
X142251086Y-58735885D01*
X142346324Y-58783504D01*
X142441562Y-58878742D01*
X142489181Y-59021600D01*
X142489181Y-59259695D01*
X141584419Y-58307314D02*
X141536800Y-58259695D01*
X141489181Y-58164457D01*
X141489181Y-57926361D01*
X141536800Y-57831123D01*
X141584419Y-57783504D01*
X141679657Y-57735885D01*
X141774895Y-57735885D01*
X141917752Y-57783504D01*
X142489181Y-58354933D01*
X142489181Y-57735885D01*
X193652914Y-87836781D02*
X193652914Y-86836781D01*
X193891009Y-86836781D01*
X194033867Y-86884400D01*
X194129105Y-86979638D01*
X194176724Y-87074876D01*
X194224343Y-87265352D01*
X194224343Y-87408210D01*
X194176724Y-87598686D01*
X194129105Y-87693924D01*
X194033867Y-87789162D01*
X193891009Y-87836781D01*
X193652914Y-87836781D01*
X194605295Y-87789162D02*
X194748152Y-87836781D01*
X194986248Y-87836781D01*
X195081486Y-87789162D01*
X195129105Y-87741543D01*
X195176724Y-87646305D01*
X195176724Y-87551067D01*
X195129105Y-87455829D01*
X195081486Y-87408210D01*
X194986248Y-87360590D01*
X194795771Y-87312971D01*
X194700533Y-87265352D01*
X194652914Y-87217733D01*
X194605295Y-87122495D01*
X194605295Y-87027257D01*
X194652914Y-86932019D01*
X194700533Y-86884400D01*
X194795771Y-86836781D01*
X195033867Y-86836781D01*
X195176724Y-86884400D01*
X196129105Y-87836781D02*
X195557676Y-87836781D01*
X195843390Y-87836781D02*
X195843390Y-86836781D01*
X195748152Y-86979638D01*
X195652914Y-87074876D01*
X195557676Y-87122495D01*
X117503714Y-87785981D02*
X117503714Y-86785981D01*
X117741809Y-86785981D01*
X117884667Y-86833600D01*
X117979905Y-86928838D01*
X118027524Y-87024076D01*
X118075143Y-87214552D01*
X118075143Y-87357410D01*
X118027524Y-87547886D01*
X117979905Y-87643124D01*
X117884667Y-87738362D01*
X117741809Y-87785981D01*
X117503714Y-87785981D01*
X118456095Y-87738362D02*
X118598952Y-87785981D01*
X118837048Y-87785981D01*
X118932286Y-87738362D01*
X118979905Y-87690743D01*
X119027524Y-87595505D01*
X119027524Y-87500267D01*
X118979905Y-87405029D01*
X118932286Y-87357410D01*
X118837048Y-87309790D01*
X118646571Y-87262171D01*
X118551333Y-87214552D01*
X118503714Y-87166933D01*
X118456095Y-87071695D01*
X118456095Y-86976457D01*
X118503714Y-86881219D01*
X118551333Y-86833600D01*
X118646571Y-86785981D01*
X118884667Y-86785981D01*
X119027524Y-86833600D01*
X119408476Y-86881219D02*
X119456095Y-86833600D01*
X119551333Y-86785981D01*
X119789429Y-86785981D01*
X119884667Y-86833600D01*
X119932286Y-86881219D01*
X119979905Y-86976457D01*
X119979905Y-87071695D01*
X119932286Y-87214552D01*
X119360857Y-87785981D01*
X119979905Y-87785981D01*
X79779905Y-59227981D02*
X79779905Y-58227981D01*
X80160858Y-58227981D01*
X80256096Y-58275600D01*
X80303715Y-58323219D01*
X80351334Y-58418457D01*
X80351334Y-58561314D01*
X80303715Y-58656552D01*
X80256096Y-58704171D01*
X80160858Y-58751790D01*
X79779905Y-58751790D01*
X81303715Y-59227981D02*
X80732286Y-59227981D01*
X81018000Y-59227981D02*
X81018000Y-58227981D01*
X80922762Y-58370838D01*
X80827524Y-58466076D01*
X80732286Y-58513695D01*
X215111105Y-85729581D02*
X215111105Y-84729581D01*
X215492058Y-84729581D01*
X215587296Y-84777200D01*
X215634915Y-84824819D01*
X215682534Y-84920057D01*
X215682534Y-85062914D01*
X215634915Y-85158152D01*
X215587296Y-85205771D01*
X215492058Y-85253390D01*
X215111105Y-85253390D01*
X216063486Y-84824819D02*
X216111105Y-84777200D01*
X216206343Y-84729581D01*
X216444439Y-84729581D01*
X216539677Y-84777200D01*
X216587296Y-84824819D01*
X216634915Y-84920057D01*
X216634915Y-85015295D01*
X216587296Y-85158152D01*
X216015867Y-85729581D01*
X216634915Y-85729581D01*
X138911105Y-85729581D02*
X138911105Y-84729581D01*
X139292058Y-84729581D01*
X139387296Y-84777200D01*
X139434915Y-84824819D01*
X139482534Y-84920057D01*
X139482534Y-85062914D01*
X139434915Y-85158152D01*
X139387296Y-85205771D01*
X139292058Y-85253390D01*
X138911105Y-85253390D01*
X139815867Y-84729581D02*
X140434915Y-84729581D01*
X140101581Y-85110533D01*
X140244439Y-85110533D01*
X140339677Y-85158152D01*
X140387296Y-85205771D01*
X140434915Y-85301010D01*
X140434915Y-85539105D01*
X140387296Y-85634343D01*
X140339677Y-85681962D01*
X140244439Y-85729581D01*
X139958724Y-85729581D01*
X139863486Y-85681962D01*
X139815867Y-85634343D01*
X155954505Y-46731181D02*
X155954505Y-45731181D01*
X156335458Y-45731181D01*
X156430696Y-45778800D01*
X156478315Y-45826419D01*
X156525934Y-45921657D01*
X156525934Y-46064514D01*
X156478315Y-46159752D01*
X156430696Y-46207371D01*
X156335458Y-46254990D01*
X155954505Y-46254990D01*
X157383077Y-46064514D02*
X157383077Y-46731181D01*
X157144981Y-45683562D02*
X156906886Y-46397848D01*
X157525934Y-46397848D01*
X144051281Y-55767195D02*
X143051281Y-55767195D01*
X143051281Y-55386242D01*
X143098900Y-55291004D01*
X143146519Y-55243385D01*
X143241757Y-55195766D01*
X143384614Y-55195766D01*
X143479852Y-55243385D01*
X143527471Y-55291004D01*
X143575090Y-55386242D01*
X143575090Y-55767195D01*
X143051281Y-54291004D02*
X143051281Y-54767195D01*
X143527471Y-54814814D01*
X143479852Y-54767195D01*
X143432233Y-54671957D01*
X143432233Y-54433861D01*
X143479852Y-54338623D01*
X143527471Y-54291004D01*
X143622710Y-54243385D01*
X143860805Y-54243385D01*
X143956043Y-54291004D01*
X144003662Y-54338623D01*
X144051281Y-54433861D01*
X144051281Y-54671957D01*
X144003662Y-54767195D01*
X143956043Y-54814814D01*
X209454762Y-93666119D02*
X209359524Y-93618500D01*
X209264286Y-93523262D01*
X209121429Y-93380405D01*
X209026190Y-93332786D01*
X208930952Y-93332786D01*
X208978571Y-93570881D02*
X208883333Y-93523262D01*
X208788095Y-93428024D01*
X208740476Y-93237548D01*
X208740476Y-92904214D01*
X208788095Y-92713738D01*
X208883333Y-92618500D01*
X208978571Y-92570881D01*
X209169048Y-92570881D01*
X209264286Y-92618500D01*
X209359524Y-92713738D01*
X209407143Y-92904214D01*
X209407143Y-93237548D01*
X209359524Y-93428024D01*
X209264286Y-93523262D01*
X209169048Y-93570881D01*
X208978571Y-93570881D01*
X210359524Y-93570881D02*
X209788095Y-93570881D01*
X210073809Y-93570881D02*
X210073809Y-92570881D01*
X209978571Y-92713738D01*
X209883333Y-92808976D01*
X209788095Y-92856595D01*
X145319762Y-89066619D02*
X145224524Y-89019000D01*
X145129286Y-88923762D01*
X144986429Y-88780905D01*
X144891190Y-88733286D01*
X144795952Y-88733286D01*
X144843571Y-88971381D02*
X144748333Y-88923762D01*
X144653095Y-88828524D01*
X144605476Y-88638048D01*
X144605476Y-88304714D01*
X144653095Y-88114238D01*
X144748333Y-88019000D01*
X144843571Y-87971381D01*
X145034048Y-87971381D01*
X145129286Y-88019000D01*
X145224524Y-88114238D01*
X145272143Y-88304714D01*
X145272143Y-88638048D01*
X145224524Y-88828524D01*
X145129286Y-88923762D01*
X145034048Y-88971381D01*
X144843571Y-88971381D01*
X145653095Y-88066619D02*
X145700714Y-88019000D01*
X145795952Y-87971381D01*
X146034048Y-87971381D01*
X146129286Y-88019000D01*
X146176905Y-88066619D01*
X146224524Y-88161857D01*
X146224524Y-88257095D01*
X146176905Y-88399952D01*
X145605476Y-88971381D01*
X146224524Y-88971381D01*
X215428534Y-99563181D02*
X215095200Y-99086990D01*
X214857105Y-99563181D02*
X214857105Y-98563181D01*
X215238058Y-98563181D01*
X215333296Y-98610800D01*
X215380915Y-98658419D01*
X215428534Y-98753657D01*
X215428534Y-98896514D01*
X215380915Y-98991752D01*
X215333296Y-99039371D01*
X215238058Y-99086990D01*
X214857105Y-99086990D01*
X216380915Y-99563181D02*
X215809486Y-99563181D01*
X216095200Y-99563181D02*
X216095200Y-98563181D01*
X215999962Y-98706038D01*
X215904724Y-98801276D01*
X215809486Y-98848895D01*
X204925634Y-95168981D02*
X204592300Y-94692790D01*
X204354205Y-95168981D02*
X204354205Y-94168981D01*
X204735158Y-94168981D01*
X204830396Y-94216600D01*
X204878015Y-94264219D01*
X204925634Y-94359457D01*
X204925634Y-94502314D01*
X204878015Y-94597552D01*
X204830396Y-94645171D01*
X204735158Y-94692790D01*
X204354205Y-94692790D01*
X205306586Y-94264219D02*
X205354205Y-94216600D01*
X205449443Y-94168981D01*
X205687539Y-94168981D01*
X205782777Y-94216600D01*
X205830396Y-94264219D01*
X205878015Y-94359457D01*
X205878015Y-94454695D01*
X205830396Y-94597552D01*
X205258967Y-95168981D01*
X205878015Y-95168981D01*
X136891734Y-98013781D02*
X136558400Y-97537590D01*
X136320305Y-98013781D02*
X136320305Y-97013781D01*
X136701258Y-97013781D01*
X136796496Y-97061400D01*
X136844115Y-97109019D01*
X136891734Y-97204257D01*
X136891734Y-97347114D01*
X136844115Y-97442352D01*
X136796496Y-97489971D01*
X136701258Y-97537590D01*
X136320305Y-97537590D01*
X137225067Y-97013781D02*
X137844115Y-97013781D01*
X137510781Y-97394733D01*
X137653639Y-97394733D01*
X137748877Y-97442352D01*
X137796496Y-97489971D01*
X137844115Y-97585210D01*
X137844115Y-97823305D01*
X137796496Y-97918543D01*
X137748877Y-97966162D01*
X137653639Y-98013781D01*
X137367924Y-98013781D01*
X137272686Y-97966162D01*
X137225067Y-97918543D01*
X128281134Y-95143581D02*
X127947800Y-94667390D01*
X127709705Y-95143581D02*
X127709705Y-94143581D01*
X128090658Y-94143581D01*
X128185896Y-94191200D01*
X128233515Y-94238819D01*
X128281134Y-94334057D01*
X128281134Y-94476914D01*
X128233515Y-94572152D01*
X128185896Y-94619771D01*
X128090658Y-94667390D01*
X127709705Y-94667390D01*
X129138277Y-94476914D02*
X129138277Y-95143581D01*
X128900181Y-94095962D02*
X128662086Y-94810248D01*
X129281134Y-94810248D01*
X141844734Y-61412381D02*
X141511400Y-60936190D01*
X141273305Y-61412381D02*
X141273305Y-60412381D01*
X141654258Y-60412381D01*
X141749496Y-60460000D01*
X141797115Y-60507619D01*
X141844734Y-60602857D01*
X141844734Y-60745714D01*
X141797115Y-60840952D01*
X141749496Y-60888571D01*
X141654258Y-60936190D01*
X141273305Y-60936190D01*
X142749496Y-60412381D02*
X142273305Y-60412381D01*
X142225686Y-60888571D01*
X142273305Y-60840952D01*
X142368543Y-60793333D01*
X142606639Y-60793333D01*
X142701877Y-60840952D01*
X142749496Y-60888571D01*
X142797115Y-60983810D01*
X142797115Y-61221905D01*
X142749496Y-61317143D01*
X142701877Y-61364762D01*
X142606639Y-61412381D01*
X142368543Y-61412381D01*
X142273305Y-61364762D01*
X142225686Y-61317143D01*
X154046181Y-80633866D02*
X153569990Y-80967200D01*
X154046181Y-81205295D02*
X153046181Y-81205295D01*
X153046181Y-80824342D01*
X153093800Y-80729104D01*
X153141419Y-80681485D01*
X153236657Y-80633866D01*
X153379514Y-80633866D01*
X153474752Y-80681485D01*
X153522371Y-80729104D01*
X153569990Y-80824342D01*
X153569990Y-81205295D01*
X153046181Y-79776723D02*
X153046181Y-79967200D01*
X153093800Y-80062438D01*
X153141419Y-80110057D01*
X153284276Y-80205295D01*
X153474752Y-80252914D01*
X153855705Y-80252914D01*
X153950943Y-80205295D01*
X153998562Y-80157676D01*
X154046181Y-80062438D01*
X154046181Y-79871961D01*
X153998562Y-79776723D01*
X153950943Y-79729104D01*
X153855705Y-79681485D01*
X153617610Y-79681485D01*
X153522371Y-79729104D01*
X153474752Y-79776723D01*
X153427133Y-79871961D01*
X153427133Y-80062438D01*
X153474752Y-80157676D01*
X153522371Y-80205295D01*
X153617610Y-80252914D01*
X167495481Y-74741066D02*
X167019290Y-75074400D01*
X167495481Y-75312495D02*
X166495481Y-75312495D01*
X166495481Y-74931542D01*
X166543100Y-74836304D01*
X166590719Y-74788685D01*
X166685957Y-74741066D01*
X166828814Y-74741066D01*
X166924052Y-74788685D01*
X166971671Y-74836304D01*
X167019290Y-74931542D01*
X167019290Y-75312495D01*
X166495481Y-74407733D02*
X166495481Y-73741066D01*
X167495481Y-74169638D01*
X159964381Y-99067857D02*
X159488190Y-99401191D01*
X159964381Y-99639286D02*
X158964381Y-99639286D01*
X158964381Y-99258333D01*
X159012000Y-99163095D01*
X159059619Y-99115476D01*
X159154857Y-99067857D01*
X159297714Y-99067857D01*
X159392952Y-99115476D01*
X159440571Y-99163095D01*
X159488190Y-99258333D01*
X159488190Y-99639286D01*
X159964381Y-98115476D02*
X159964381Y-98686905D01*
X159964381Y-98401191D02*
X158964381Y-98401191D01*
X159107238Y-98496429D01*
X159202476Y-98591667D01*
X159250095Y-98686905D01*
X159059619Y-97734524D02*
X159012000Y-97686905D01*
X158964381Y-97591667D01*
X158964381Y-97353571D01*
X159012000Y-97258333D01*
X159059619Y-97210714D01*
X159154857Y-97163095D01*
X159250095Y-97163095D01*
X159392952Y-97210714D01*
X159964381Y-97782143D01*
X159964381Y-97163095D01*
X186456581Y-44178457D02*
X185980390Y-44511791D01*
X186456581Y-44749886D02*
X185456581Y-44749886D01*
X185456581Y-44368933D01*
X185504200Y-44273695D01*
X185551819Y-44226076D01*
X185647057Y-44178457D01*
X185789914Y-44178457D01*
X185885152Y-44226076D01*
X185932771Y-44273695D01*
X185980390Y-44368933D01*
X185980390Y-44749886D01*
X186456581Y-43226076D02*
X186456581Y-43797505D01*
X186456581Y-43511791D02*
X185456581Y-43511791D01*
X185599438Y-43607029D01*
X185694676Y-43702267D01*
X185742295Y-43797505D01*
X185456581Y-42892743D02*
X185456581Y-42273695D01*
X185837533Y-42607029D01*
X185837533Y-42464171D01*
X185885152Y-42368933D01*
X185932771Y-42321314D01*
X186028010Y-42273695D01*
X186266105Y-42273695D01*
X186361343Y-42321314D01*
X186408962Y-42368933D01*
X186456581Y-42464171D01*
X186456581Y-42749886D01*
X186408962Y-42845124D01*
X186361343Y-42892743D01*
X110231181Y-44178457D02*
X109754990Y-44511791D01*
X110231181Y-44749886D02*
X109231181Y-44749886D01*
X109231181Y-44368933D01*
X109278800Y-44273695D01*
X109326419Y-44226076D01*
X109421657Y-44178457D01*
X109564514Y-44178457D01*
X109659752Y-44226076D01*
X109707371Y-44273695D01*
X109754990Y-44368933D01*
X109754990Y-44749886D01*
X110231181Y-43226076D02*
X110231181Y-43797505D01*
X110231181Y-43511791D02*
X109231181Y-43511791D01*
X109374038Y-43607029D01*
X109469276Y-43702267D01*
X109516895Y-43797505D01*
X109564514Y-42368933D02*
X110231181Y-42368933D01*
X109183562Y-42607029D02*
X109897848Y-42845124D01*
X109897848Y-42226076D01*
X190923943Y-50757081D02*
X190590609Y-50280890D01*
X190352514Y-50757081D02*
X190352514Y-49757081D01*
X190733467Y-49757081D01*
X190828705Y-49804700D01*
X190876324Y-49852319D01*
X190923943Y-49947557D01*
X190923943Y-50090414D01*
X190876324Y-50185652D01*
X190828705Y-50233271D01*
X190733467Y-50280890D01*
X190352514Y-50280890D01*
X191876324Y-50757081D02*
X191304895Y-50757081D01*
X191590609Y-50757081D02*
X191590609Y-49757081D01*
X191495371Y-49899938D01*
X191400133Y-49995176D01*
X191304895Y-50042795D01*
X192781086Y-49757081D02*
X192304895Y-49757081D01*
X192257276Y-50233271D01*
X192304895Y-50185652D01*
X192400133Y-50138033D01*
X192638229Y-50138033D01*
X192733467Y-50185652D01*
X192781086Y-50233271D01*
X192828705Y-50328510D01*
X192828705Y-50566605D01*
X192781086Y-50661843D01*
X192733467Y-50709462D01*
X192638229Y-50757081D01*
X192400133Y-50757081D01*
X192304895Y-50709462D01*
X192257276Y-50661843D01*
X111904543Y-52217581D02*
X111571209Y-51741390D01*
X111333114Y-52217581D02*
X111333114Y-51217581D01*
X111714067Y-51217581D01*
X111809305Y-51265200D01*
X111856924Y-51312819D01*
X111904543Y-51408057D01*
X111904543Y-51550914D01*
X111856924Y-51646152D01*
X111809305Y-51693771D01*
X111714067Y-51741390D01*
X111333114Y-51741390D01*
X112856924Y-52217581D02*
X112285495Y-52217581D01*
X112571209Y-52217581D02*
X112571209Y-51217581D01*
X112475971Y-51360438D01*
X112380733Y-51455676D01*
X112285495Y-51503295D01*
X113714067Y-51217581D02*
X113523590Y-51217581D01*
X113428352Y-51265200D01*
X113380733Y-51312819D01*
X113285495Y-51455676D01*
X113237876Y-51646152D01*
X113237876Y-52027105D01*
X113285495Y-52122343D01*
X113333114Y-52169962D01*
X113428352Y-52217581D01*
X113618829Y-52217581D01*
X113714067Y-52169962D01*
X113761686Y-52122343D01*
X113809305Y-52027105D01*
X113809305Y-51789010D01*
X113761686Y-51693771D01*
X113714067Y-51646152D01*
X113618829Y-51598533D01*
X113428352Y-51598533D01*
X113333114Y-51646152D01*
X113285495Y-51693771D01*
X113237876Y-51789010D01*
X188104543Y-53944781D02*
X187771209Y-53468590D01*
X187533114Y-53944781D02*
X187533114Y-52944781D01*
X187914067Y-52944781D01*
X188009305Y-52992400D01*
X188056924Y-53040019D01*
X188104543Y-53135257D01*
X188104543Y-53278114D01*
X188056924Y-53373352D01*
X188009305Y-53420971D01*
X187914067Y-53468590D01*
X187533114Y-53468590D01*
X189056924Y-53944781D02*
X188485495Y-53944781D01*
X188771209Y-53944781D02*
X188771209Y-52944781D01*
X188675971Y-53087638D01*
X188580733Y-53182876D01*
X188485495Y-53230495D01*
X189390257Y-52944781D02*
X190056924Y-52944781D01*
X189628352Y-53944781D01*
X111904543Y-53944781D02*
X111571209Y-53468590D01*
X111333114Y-53944781D02*
X111333114Y-52944781D01*
X111714067Y-52944781D01*
X111809305Y-52992400D01*
X111856924Y-53040019D01*
X111904543Y-53135257D01*
X111904543Y-53278114D01*
X111856924Y-53373352D01*
X111809305Y-53420971D01*
X111714067Y-53468590D01*
X111333114Y-53468590D01*
X112856924Y-53944781D02*
X112285495Y-53944781D01*
X112571209Y-53944781D02*
X112571209Y-52944781D01*
X112475971Y-53087638D01*
X112380733Y-53182876D01*
X112285495Y-53230495D01*
X113428352Y-53373352D02*
X113333114Y-53325733D01*
X113285495Y-53278114D01*
X113237876Y-53182876D01*
X113237876Y-53135257D01*
X113285495Y-53040019D01*
X113333114Y-52992400D01*
X113428352Y-52944781D01*
X113618829Y-52944781D01*
X113714067Y-52992400D01*
X113761686Y-53040019D01*
X113809305Y-53135257D01*
X113809305Y-53182876D01*
X113761686Y-53278114D01*
X113714067Y-53325733D01*
X113618829Y-53373352D01*
X113428352Y-53373352D01*
X113333114Y-53420971D01*
X113285495Y-53468590D01*
X113237876Y-53563829D01*
X113237876Y-53754305D01*
X113285495Y-53849543D01*
X113333114Y-53897162D01*
X113428352Y-53944781D01*
X113618829Y-53944781D01*
X113714067Y-53897162D01*
X113761686Y-53849543D01*
X113809305Y-53754305D01*
X113809305Y-53563829D01*
X113761686Y-53468590D01*
X113714067Y-53420971D01*
X113618829Y-53373352D01*
X146248381Y-99296457D02*
X145772190Y-99629791D01*
X146248381Y-99867886D02*
X145248381Y-99867886D01*
X145248381Y-99486933D01*
X145296000Y-99391695D01*
X145343619Y-99344076D01*
X145438857Y-99296457D01*
X145581714Y-99296457D01*
X145676952Y-99344076D01*
X145724571Y-99391695D01*
X145772190Y-99486933D01*
X145772190Y-99867886D01*
X146248381Y-98344076D02*
X146248381Y-98915505D01*
X146248381Y-98629791D02*
X145248381Y-98629791D01*
X145391238Y-98725029D01*
X145486476Y-98820267D01*
X145534095Y-98915505D01*
X146248381Y-97867886D02*
X146248381Y-97677410D01*
X146200762Y-97582171D01*
X146153143Y-97534552D01*
X146010286Y-97439314D01*
X145819810Y-97391695D01*
X145438857Y-97391695D01*
X145343619Y-97439314D01*
X145296000Y-97486933D01*
X145248381Y-97582171D01*
X145248381Y-97772648D01*
X145296000Y-97867886D01*
X145343619Y-97915505D01*
X145438857Y-97963124D01*
X145676952Y-97963124D01*
X145772190Y-97915505D01*
X145819810Y-97867886D01*
X145867429Y-97772648D01*
X145867429Y-97582171D01*
X145819810Y-97486933D01*
X145772190Y-97439314D01*
X145676952Y-97391695D01*
X197388243Y-50757081D02*
X197054909Y-50280890D01*
X196816814Y-50757081D02*
X196816814Y-49757081D01*
X197197767Y-49757081D01*
X197293005Y-49804700D01*
X197340624Y-49852319D01*
X197388243Y-49947557D01*
X197388243Y-50090414D01*
X197340624Y-50185652D01*
X197293005Y-50233271D01*
X197197767Y-50280890D01*
X196816814Y-50280890D01*
X197769195Y-49852319D02*
X197816814Y-49804700D01*
X197912052Y-49757081D01*
X198150148Y-49757081D01*
X198245386Y-49804700D01*
X198293005Y-49852319D01*
X198340624Y-49947557D01*
X198340624Y-50042795D01*
X198293005Y-50185652D01*
X197721576Y-50757081D01*
X198340624Y-50757081D01*
X198959671Y-49757081D02*
X199054910Y-49757081D01*
X199150148Y-49804700D01*
X199197767Y-49852319D01*
X199245386Y-49947557D01*
X199293005Y-50138033D01*
X199293005Y-50376129D01*
X199245386Y-50566605D01*
X199197767Y-50661843D01*
X199150148Y-50709462D01*
X199054910Y-50757081D01*
X198959671Y-50757081D01*
X198864433Y-50709462D01*
X198816814Y-50661843D01*
X198769195Y-50566605D01*
X198721576Y-50376129D01*
X198721576Y-50138033D01*
X198769195Y-49947557D01*
X198816814Y-49852319D01*
X198864433Y-49804700D01*
X198959671Y-49757081D01*
X123842543Y-52217581D02*
X123509209Y-51741390D01*
X123271114Y-52217581D02*
X123271114Y-51217581D01*
X123652067Y-51217581D01*
X123747305Y-51265200D01*
X123794924Y-51312819D01*
X123842543Y-51408057D01*
X123842543Y-51550914D01*
X123794924Y-51646152D01*
X123747305Y-51693771D01*
X123652067Y-51741390D01*
X123271114Y-51741390D01*
X124223495Y-51312819D02*
X124271114Y-51265200D01*
X124366352Y-51217581D01*
X124604448Y-51217581D01*
X124699686Y-51265200D01*
X124747305Y-51312819D01*
X124794924Y-51408057D01*
X124794924Y-51503295D01*
X124747305Y-51646152D01*
X124175876Y-52217581D01*
X124794924Y-52217581D01*
X125747305Y-52217581D02*
X125175876Y-52217581D01*
X125461590Y-52217581D02*
X125461590Y-51217581D01*
X125366352Y-51360438D01*
X125271114Y-51455676D01*
X125175876Y-51503295D01*
X200118743Y-53944781D02*
X199785409Y-53468590D01*
X199547314Y-53944781D02*
X199547314Y-52944781D01*
X199928267Y-52944781D01*
X200023505Y-52992400D01*
X200071124Y-53040019D01*
X200118743Y-53135257D01*
X200118743Y-53278114D01*
X200071124Y-53373352D01*
X200023505Y-53420971D01*
X199928267Y-53468590D01*
X199547314Y-53468590D01*
X200499695Y-53040019D02*
X200547314Y-52992400D01*
X200642552Y-52944781D01*
X200880648Y-52944781D01*
X200975886Y-52992400D01*
X201023505Y-53040019D01*
X201071124Y-53135257D01*
X201071124Y-53230495D01*
X201023505Y-53373352D01*
X200452076Y-53944781D01*
X201071124Y-53944781D01*
X201452076Y-53040019D02*
X201499695Y-52992400D01*
X201594933Y-52944781D01*
X201833029Y-52944781D01*
X201928267Y-52992400D01*
X201975886Y-53040019D01*
X202023505Y-53135257D01*
X202023505Y-53230495D01*
X201975886Y-53373352D01*
X201404457Y-53944781D01*
X202023505Y-53944781D01*
X123842543Y-53944781D02*
X123509209Y-53468590D01*
X123271114Y-53944781D02*
X123271114Y-52944781D01*
X123652067Y-52944781D01*
X123747305Y-52992400D01*
X123794924Y-53040019D01*
X123842543Y-53135257D01*
X123842543Y-53278114D01*
X123794924Y-53373352D01*
X123747305Y-53420971D01*
X123652067Y-53468590D01*
X123271114Y-53468590D01*
X124223495Y-53040019D02*
X124271114Y-52992400D01*
X124366352Y-52944781D01*
X124604448Y-52944781D01*
X124699686Y-52992400D01*
X124747305Y-53040019D01*
X124794924Y-53135257D01*
X124794924Y-53230495D01*
X124747305Y-53373352D01*
X124175876Y-53944781D01*
X124794924Y-53944781D01*
X125128257Y-52944781D02*
X125747305Y-52944781D01*
X125413971Y-53325733D01*
X125556829Y-53325733D01*
X125652067Y-53373352D01*
X125699686Y-53420971D01*
X125747305Y-53516210D01*
X125747305Y-53754305D01*
X125699686Y-53849543D01*
X125652067Y-53897162D01*
X125556829Y-53944781D01*
X125271114Y-53944781D01*
X125175876Y-53897162D01*
X125128257Y-53849543D01*
X223918543Y-75331581D02*
X223585209Y-74855390D01*
X223347114Y-75331581D02*
X223347114Y-74331581D01*
X223728067Y-74331581D01*
X223823305Y-74379200D01*
X223870924Y-74426819D01*
X223918543Y-74522057D01*
X223918543Y-74664914D01*
X223870924Y-74760152D01*
X223823305Y-74807771D01*
X223728067Y-74855390D01*
X223347114Y-74855390D01*
X224299495Y-74426819D02*
X224347114Y-74379200D01*
X224442352Y-74331581D01*
X224680448Y-74331581D01*
X224775686Y-74379200D01*
X224823305Y-74426819D01*
X224870924Y-74522057D01*
X224870924Y-74617295D01*
X224823305Y-74760152D01*
X224251876Y-75331581D01*
X224870924Y-75331581D01*
X225775686Y-74331581D02*
X225299495Y-74331581D01*
X225251876Y-74807771D01*
X225299495Y-74760152D01*
X225394733Y-74712533D01*
X225632829Y-74712533D01*
X225728067Y-74760152D01*
X225775686Y-74807771D01*
X225823305Y-74903010D01*
X225823305Y-75141105D01*
X225775686Y-75236343D01*
X225728067Y-75283962D01*
X225632829Y-75331581D01*
X225394733Y-75331581D01*
X225299495Y-75283962D01*
X225251876Y-75236343D01*
X223918543Y-73655181D02*
X223585209Y-73178990D01*
X223347114Y-73655181D02*
X223347114Y-72655181D01*
X223728067Y-72655181D01*
X223823305Y-72702800D01*
X223870924Y-72750419D01*
X223918543Y-72845657D01*
X223918543Y-72988514D01*
X223870924Y-73083752D01*
X223823305Y-73131371D01*
X223728067Y-73178990D01*
X223347114Y-73178990D01*
X224299495Y-72750419D02*
X224347114Y-72702800D01*
X224442352Y-72655181D01*
X224680448Y-72655181D01*
X224775686Y-72702800D01*
X224823305Y-72750419D01*
X224870924Y-72845657D01*
X224870924Y-72940895D01*
X224823305Y-73083752D01*
X224251876Y-73655181D01*
X224870924Y-73655181D01*
X225204257Y-72655181D02*
X225870924Y-72655181D01*
X225442352Y-73655181D01*
X223918543Y-72004181D02*
X223585209Y-71527990D01*
X223347114Y-72004181D02*
X223347114Y-71004181D01*
X223728067Y-71004181D01*
X223823305Y-71051800D01*
X223870924Y-71099419D01*
X223918543Y-71194657D01*
X223918543Y-71337514D01*
X223870924Y-71432752D01*
X223823305Y-71480371D01*
X223728067Y-71527990D01*
X223347114Y-71527990D01*
X224299495Y-71099419D02*
X224347114Y-71051800D01*
X224442352Y-71004181D01*
X224680448Y-71004181D01*
X224775686Y-71051800D01*
X224823305Y-71099419D01*
X224870924Y-71194657D01*
X224870924Y-71289895D01*
X224823305Y-71432752D01*
X224251876Y-72004181D01*
X224870924Y-72004181D01*
X225347114Y-72004181D02*
X225537590Y-72004181D01*
X225632829Y-71956562D01*
X225680448Y-71908943D01*
X225775686Y-71766086D01*
X225823305Y-71575610D01*
X225823305Y-71194657D01*
X225775686Y-71099419D01*
X225728067Y-71051800D01*
X225632829Y-71004181D01*
X225442352Y-71004181D01*
X225347114Y-71051800D01*
X225299495Y-71099419D01*
X225251876Y-71194657D01*
X225251876Y-71432752D01*
X225299495Y-71527990D01*
X225347114Y-71575610D01*
X225442352Y-71623229D01*
X225632829Y-71623229D01*
X225728067Y-71575610D01*
X225775686Y-71527990D01*
X225823305Y-71432752D01*
X224020143Y-95372181D02*
X223686809Y-94895990D01*
X223448714Y-95372181D02*
X223448714Y-94372181D01*
X223829667Y-94372181D01*
X223924905Y-94419800D01*
X223972524Y-94467419D01*
X224020143Y-94562657D01*
X224020143Y-94705514D01*
X223972524Y-94800752D01*
X223924905Y-94848371D01*
X223829667Y-94895990D01*
X223448714Y-94895990D01*
X224353476Y-94372181D02*
X224972524Y-94372181D01*
X224639190Y-94753133D01*
X224782048Y-94753133D01*
X224877286Y-94800752D01*
X224924905Y-94848371D01*
X224972524Y-94943610D01*
X224972524Y-95181705D01*
X224924905Y-95276943D01*
X224877286Y-95324562D01*
X224782048Y-95372181D01*
X224496333Y-95372181D01*
X224401095Y-95324562D01*
X224353476Y-95276943D01*
X225924905Y-95372181D02*
X225353476Y-95372181D01*
X225639190Y-95372181D02*
X225639190Y-94372181D01*
X225543952Y-94515038D01*
X225448714Y-94610276D01*
X225353476Y-94657895D01*
X224020143Y-93695781D02*
X223686809Y-93219590D01*
X223448714Y-93695781D02*
X223448714Y-92695781D01*
X223829667Y-92695781D01*
X223924905Y-92743400D01*
X223972524Y-92791019D01*
X224020143Y-92886257D01*
X224020143Y-93029114D01*
X223972524Y-93124352D01*
X223924905Y-93171971D01*
X223829667Y-93219590D01*
X223448714Y-93219590D01*
X224353476Y-92695781D02*
X224972524Y-92695781D01*
X224639190Y-93076733D01*
X224782048Y-93076733D01*
X224877286Y-93124352D01*
X224924905Y-93171971D01*
X224972524Y-93267210D01*
X224972524Y-93505305D01*
X224924905Y-93600543D01*
X224877286Y-93648162D01*
X224782048Y-93695781D01*
X224496333Y-93695781D01*
X224401095Y-93648162D01*
X224353476Y-93600543D01*
X225305857Y-92695781D02*
X225924905Y-92695781D01*
X225591571Y-93076733D01*
X225734429Y-93076733D01*
X225829667Y-93124352D01*
X225877286Y-93171971D01*
X225924905Y-93267210D01*
X225924905Y-93505305D01*
X225877286Y-93600543D01*
X225829667Y-93648162D01*
X225734429Y-93695781D01*
X225448714Y-93695781D01*
X225353476Y-93648162D01*
X225305857Y-93600543D01*
X224020143Y-92019381D02*
X223686809Y-91543190D01*
X223448714Y-92019381D02*
X223448714Y-91019381D01*
X223829667Y-91019381D01*
X223924905Y-91067000D01*
X223972524Y-91114619D01*
X224020143Y-91209857D01*
X224020143Y-91352714D01*
X223972524Y-91447952D01*
X223924905Y-91495571D01*
X223829667Y-91543190D01*
X223448714Y-91543190D01*
X224353476Y-91019381D02*
X224972524Y-91019381D01*
X224639190Y-91400333D01*
X224782048Y-91400333D01*
X224877286Y-91447952D01*
X224924905Y-91495571D01*
X224972524Y-91590810D01*
X224972524Y-91828905D01*
X224924905Y-91924143D01*
X224877286Y-91971762D01*
X224782048Y-92019381D01*
X224496333Y-92019381D01*
X224401095Y-91971762D01*
X224353476Y-91924143D01*
X225877286Y-91019381D02*
X225401095Y-91019381D01*
X225353476Y-91495571D01*
X225401095Y-91447952D01*
X225496333Y-91400333D01*
X225734429Y-91400333D01*
X225829667Y-91447952D01*
X225877286Y-91495571D01*
X225924905Y-91590810D01*
X225924905Y-91828905D01*
X225877286Y-91924143D01*
X225829667Y-91971762D01*
X225734429Y-92019381D01*
X225496333Y-92019381D01*
X225401095Y-91971762D01*
X225353476Y-91924143D01*
X138987162Y-69011633D02*
X139034781Y-68868776D01*
X139034781Y-68630680D01*
X138987162Y-68535442D01*
X138939543Y-68487823D01*
X138844305Y-68440204D01*
X138749067Y-68440204D01*
X138653829Y-68487823D01*
X138606210Y-68535442D01*
X138558590Y-68630680D01*
X138510971Y-68821157D01*
X138463352Y-68916395D01*
X138415733Y-68964014D01*
X138320495Y-69011633D01*
X138225257Y-69011633D01*
X138130019Y-68964014D01*
X138082400Y-68916395D01*
X138034781Y-68821157D01*
X138034781Y-68583061D01*
X138082400Y-68440204D01*
X138034781Y-68106871D02*
X139034781Y-67868776D01*
X138320495Y-67678299D01*
X139034781Y-67487823D01*
X138034781Y-67249728D01*
X139034781Y-66344966D02*
X139034781Y-66916395D01*
X139034781Y-66630681D02*
X138034781Y-66630681D01*
X138177638Y-66725919D01*
X138272876Y-66821157D01*
X138320495Y-66916395D01*
X99187095Y-60844181D02*
X99187095Y-61653705D01*
X99234714Y-61748943D01*
X99282333Y-61796562D01*
X99377571Y-61844181D01*
X99568048Y-61844181D01*
X99663286Y-61796562D01*
X99710905Y-61748943D01*
X99758524Y-61653705D01*
X99758524Y-60844181D01*
X100758524Y-61844181D02*
X100187095Y-61844181D01*
X100472809Y-61844181D02*
X100472809Y-60844181D01*
X100377571Y-60987038D01*
X100282333Y-61082276D01*
X100187095Y-61129895D01*
X150698295Y-77531981D02*
X150698295Y-78341505D01*
X150745914Y-78436743D01*
X150793533Y-78484362D01*
X150888771Y-78531981D01*
X151079248Y-78531981D01*
X151174486Y-78484362D01*
X151222105Y-78436743D01*
X151269724Y-78341505D01*
X151269724Y-77531981D01*
X151698295Y-77627219D02*
X151745914Y-77579600D01*
X151841152Y-77531981D01*
X152079248Y-77531981D01*
X152174486Y-77579600D01*
X152222105Y-77627219D01*
X152269724Y-77722457D01*
X152269724Y-77817695D01*
X152222105Y-77960552D01*
X151650676Y-78531981D01*
X152269724Y-78531981D01*
X149210781Y-62382305D02*
X150020305Y-62382305D01*
X150115543Y-62334686D01*
X150163162Y-62287067D01*
X150210781Y-62191829D01*
X150210781Y-62001352D01*
X150163162Y-61906114D01*
X150115543Y-61858495D01*
X150020305Y-61810876D01*
X149210781Y-61810876D01*
X149210781Y-61429924D02*
X149210781Y-60810876D01*
X149591733Y-61144210D01*
X149591733Y-61001352D01*
X149639352Y-60906114D01*
X149686971Y-60858495D01*
X149782210Y-60810876D01*
X150020305Y-60810876D01*
X150115543Y-60858495D01*
X150163162Y-60906114D01*
X150210781Y-61001352D01*
X150210781Y-61287067D01*
X150163162Y-61382305D01*
X150115543Y-61429924D01*
X216382695Y-78224981D02*
X216382695Y-79034505D01*
X216430314Y-79129743D01*
X216477933Y-79177362D01*
X216573171Y-79224981D01*
X216763648Y-79224981D01*
X216858886Y-79177362D01*
X216906505Y-79129743D01*
X216954124Y-79034505D01*
X216954124Y-78224981D01*
X217858886Y-78558314D02*
X217858886Y-79224981D01*
X217620790Y-78177362D02*
X217382695Y-78891648D01*
X218001743Y-78891648D01*
X143816390Y-72916991D02*
X144292581Y-72916991D01*
X143292581Y-73250324D02*
X143816390Y-72916991D01*
X143292581Y-72583657D01*
X144292581Y-71726514D02*
X144292581Y-72297943D01*
X144292581Y-72012229D02*
X143292581Y-72012229D01*
X143435438Y-72107467D01*
X143530676Y-72202705D01*
X143578295Y-72297943D01*
X166647905Y-96134181D02*
X166647905Y-95134181D01*
X167028858Y-95134181D01*
X167124096Y-95181800D01*
X167171715Y-95229419D01*
X167219334Y-95324657D01*
X167219334Y-95467514D01*
X167171715Y-95562752D01*
X167124096Y-95610371D01*
X167028858Y-95657990D01*
X166647905Y-95657990D01*
X167552667Y-95134181D02*
X168219334Y-95134181D01*
X167790762Y-96134181D01*
X152931905Y-96134181D02*
X152931905Y-95134181D01*
X153312858Y-95134181D01*
X153408096Y-95181800D01*
X153455715Y-95229419D01*
X153503334Y-95324657D01*
X153503334Y-95467514D01*
X153455715Y-95562752D01*
X153408096Y-95610371D01*
X153312858Y-95657990D01*
X152931905Y-95657990D01*
X154074762Y-95562752D02*
X153979524Y-95515133D01*
X153931905Y-95467514D01*
X153884286Y-95372276D01*
X153884286Y-95324657D01*
X153931905Y-95229419D01*
X153979524Y-95181800D01*
X154074762Y-95134181D01*
X154265239Y-95134181D01*
X154360477Y-95181800D01*
X154408096Y-95229419D01*
X154455715Y-95324657D01*
X154455715Y-95372276D01*
X154408096Y-95467514D01*
X154360477Y-95515133D01*
X154265239Y-95562752D01*
X154074762Y-95562752D01*
X153979524Y-95610371D01*
X153931905Y-95657990D01*
X153884286Y-95753229D01*
X153884286Y-95943705D01*
X153931905Y-96038943D01*
X153979524Y-96086562D01*
X154074762Y-96134181D01*
X154265239Y-96134181D01*
X154360477Y-96086562D01*
X154408096Y-96038943D01*
X154455715Y-95943705D01*
X154455715Y-95753229D01*
X154408096Y-95657990D01*
X154360477Y-95610371D01*
X154265239Y-95562752D01*
M02*
