G04 #@! TF.FileFunction,Copper,L2,Bot,Signal*
%FSLAX46Y46*%
G04 Gerber Fmt 4.6, Leading zero omitted, Abs format (unit mm)*
G04 Created by KiCad (PCBNEW no-vcs-found-product) date Mon 12 Oct 2015 08:57:33 AM BRT*
%MOMM*%
G01*
G04 APERTURE LIST*
%ADD10C,0.100000*%
%ADD11R,0.750000X0.800000*%
%ADD12R,1.250000X1.000000*%
%ADD13R,0.800000X0.750000*%
%ADD14R,1.300000X0.700000*%
%ADD15C,1.600000*%
%ADD16R,2.800000X3.600000*%
%ADD17R,1.050000X1.050000*%
%ADD18C,1.050000*%
%ADD19R,0.500000X0.900000*%
%ADD20R,2.032000X2.032000*%
%ADD21O,2.032000X2.032000*%
%ADD22R,1.727200X1.727200*%
%ADD23O,1.727200X1.727200*%
%ADD24R,0.500000X0.320000*%
%ADD25C,1.000000*%
%ADD26C,3.500000*%
%ADD27O,1.600000X1.600000*%
%ADD28R,1.600000X1.600000*%
%ADD29C,0.750000*%
%ADD30C,0.900000*%
%ADD31C,0.600000*%
%ADD32C,1.350000*%
%ADD33C,0.508000*%
%ADD34C,0.304800*%
%ADD35C,0.381000*%
%ADD36C,0.762000*%
%ADD37C,0.254000*%
G04 APERTURE END LIST*
D10*
D11*
X121125700Y-43780000D03*
X121125700Y-45280000D03*
D12*
X118903200Y-43212500D03*
X118903200Y-45212500D03*
D11*
X45878200Y-44796000D03*
X45878200Y-46296000D03*
D12*
X43655700Y-44292000D03*
X43655700Y-46292000D03*
D11*
X90488100Y-26386400D03*
X90488100Y-24886400D03*
D13*
X77101600Y-20048400D03*
X78601600Y-20048400D03*
X77101600Y-21699400D03*
X78601600Y-21699400D03*
X119559100Y-53766900D03*
X118059100Y-53766900D03*
X156452600Y-33764400D03*
X154952600Y-33764400D03*
X43359100Y-53830400D03*
X41859100Y-53830400D03*
X156452600Y-53703400D03*
X154952600Y-53703400D03*
X6515000Y-33637400D03*
X8015000Y-33637400D03*
X6515000Y-53703400D03*
X8015000Y-53703400D03*
D14*
X118046500Y-51806200D03*
X118046500Y-50706200D03*
X118046500Y-49606200D03*
X121146500Y-49606200D03*
X121146500Y-50706200D03*
X121146500Y-51806200D03*
X154940000Y-31740200D03*
X154940000Y-30640200D03*
X154940000Y-29540200D03*
X158040000Y-29540200D03*
X158040000Y-30640200D03*
X158040000Y-31740200D03*
X41833800Y-51806200D03*
X41833800Y-50706200D03*
X41833800Y-49606200D03*
X44933800Y-49606200D03*
X44933800Y-50706200D03*
X44933800Y-51806200D03*
X154940000Y-51793500D03*
X154940000Y-50693500D03*
X154940000Y-49593500D03*
X158040000Y-49593500D03*
X158040000Y-50693500D03*
X158040000Y-51793500D03*
X8053000Y-29540200D03*
X8053000Y-30640200D03*
X8053000Y-31740200D03*
X4953000Y-31740200D03*
X4953000Y-30640200D03*
X4953000Y-29540200D03*
X8040300Y-49593500D03*
X8040300Y-50693500D03*
X8040300Y-51793500D03*
X4940300Y-51793500D03*
X4940300Y-50693500D03*
X4940300Y-49593500D03*
D15*
X117123800Y-13165000D03*
X117123800Y1335000D03*
X122123800Y-13165000D03*
X122123800Y1335000D03*
X119623800Y-13165000D03*
D16*
X113023800Y-5665000D03*
X126223800Y-5665000D03*
D15*
X40898400Y-13215800D03*
X40898400Y1284200D03*
X45898400Y-13215800D03*
X45898400Y1284200D03*
X43398400Y-13215800D03*
D16*
X36798400Y-5715800D03*
X49998400Y-5715800D03*
D17*
X75248100Y-6395900D03*
D18*
X73978100Y-6395900D03*
X72708100Y-6395900D03*
X71438100Y-6395900D03*
X70168100Y-6395900D03*
X73978100Y-7665900D03*
X72708100Y-7665900D03*
X71438100Y-7665900D03*
X70168100Y-7665900D03*
X75248100Y-7665900D03*
D19*
X116092000Y-52408000D03*
X114592000Y-52408000D03*
X152782300Y-32316600D03*
X151282300Y-32316600D03*
X116092000Y-50706200D03*
X114592000Y-50706200D03*
X152782300Y-30640200D03*
X151282300Y-30640200D03*
X116092000Y-49029800D03*
X114592000Y-49029800D03*
X152782300Y-28963800D03*
X151282300Y-28963800D03*
X39866600Y-52408000D03*
X38366600Y-52408000D03*
X152782300Y-52357200D03*
X151282300Y-52357200D03*
X39866600Y-50706200D03*
X38366600Y-50706200D03*
X152782300Y-50680800D03*
X151282300Y-50680800D03*
X39866600Y-49004400D03*
X38366600Y-49004400D03*
X152782300Y-49004400D03*
X151282300Y-49004400D03*
X10210700Y-28963800D03*
X11710700Y-28963800D03*
X10210700Y-30640200D03*
X11710700Y-30640200D03*
X10210700Y-32316600D03*
X11710700Y-32316600D03*
X10210700Y-49004400D03*
X11710700Y-49004400D03*
X10210700Y-50680800D03*
X11710700Y-50680800D03*
X10210700Y-52357200D03*
X11710700Y-52357200D03*
D20*
X91827100Y-37447400D03*
D21*
X89287100Y-37447400D03*
D20*
X73666100Y-37447400D03*
D21*
X71126100Y-37447400D03*
D22*
X134816600Y-3284400D03*
D23*
X134816600Y-744400D03*
X137356600Y-3284400D03*
X137356600Y-744400D03*
X139896600Y-3284400D03*
X139896600Y-744400D03*
X142436600Y-3284400D03*
X142436600Y-744400D03*
X144976600Y-3284400D03*
X144976600Y-744400D03*
X147516600Y-3284400D03*
X147516600Y-744400D03*
X150056600Y-3284400D03*
X150056600Y-744400D03*
X152596600Y-3284400D03*
X152596600Y-744400D03*
X155136600Y-3284400D03*
X155136600Y-744400D03*
X157676600Y-3284400D03*
X157676600Y-744400D03*
D24*
X79736600Y-16694900D03*
X79736600Y-17694900D03*
X79736600Y-17194900D03*
X79736600Y-18194900D03*
X78736600Y-17194900D03*
X78736600Y-16694900D03*
X78736600Y-17694900D03*
X78736600Y-18194900D03*
D25*
X3327400Y-55016400D03*
X81483200Y-6731000D03*
X150114000Y-55016400D03*
D26*
X0Y-58928000D03*
X81483200Y-46507400D03*
X162991800Y-58928000D03*
X0Y0D03*
X162991800Y0D03*
D27*
X12945740Y-4572000D03*
D28*
X15445740Y-4572000D03*
D29*
X141886940Y-20599400D03*
X154155140Y-20599400D03*
D30*
X73662540Y-53263800D03*
X91821000Y-53263800D03*
X101117400Y-53263800D03*
X1549400Y-46253400D03*
X1549400Y-34823400D03*
X1549400Y-27559000D03*
D31*
X79820100Y-20810400D03*
X93587600Y-25318900D03*
X84646100Y-23413900D03*
X82106100Y-23413900D03*
X80772600Y-25001400D03*
X82741100Y-26779400D03*
X82906200Y-33535800D03*
X78486600Y-33535800D03*
X154940600Y-35161400D03*
X121666600Y-54414600D03*
X36830600Y-54414600D03*
X8027000Y-55024200D03*
X8027000Y-34805800D03*
X68225000Y-13419000D03*
X73305000Y-14282600D03*
D30*
X154940600Y-55176600D03*
X154940600Y-40749400D03*
X43180600Y-5697400D03*
X19989800Y-46202600D03*
X19989800Y-34823400D03*
X19989800Y-27559000D03*
X13690600Y-55041800D03*
X13690600Y-46253400D03*
X27457400Y-46253400D03*
X27457400Y-55041800D03*
X27457400Y-27559000D03*
X27457400Y-34823400D03*
X33655000Y-34823400D03*
X49453800Y-27559000D03*
X37617400Y-27559000D03*
X49453800Y-18008600D03*
X37617400Y-18008600D03*
X57327800Y-27559000D03*
X57327800Y-18008600D03*
X59410600Y-30759400D03*
X57327800Y-5715000D03*
X64033400Y-5715000D03*
X108534200Y1346200D03*
X87909400Y1346200D03*
X74447400Y1346200D03*
X56667400Y1346200D03*
X82931000Y-9829800D03*
X92430600Y-9829800D03*
X92430600Y-3530600D03*
X73990200Y-3530600D03*
X101219000Y-9829800D03*
X101219000Y-3530600D03*
X101219000Y-5664200D03*
X101219000Y-26339800D03*
X101219000Y-20040600D03*
X101219000Y-37414200D03*
X136271000Y-13182600D03*
X136271000Y-26339800D03*
X118186200Y-26339800D03*
X139877800Y-6477000D03*
X136271000Y-10083800D03*
X147548600Y-6477000D03*
X147548600Y-13182600D03*
X147548600Y-26339800D03*
X141503400Y-40767000D03*
X129413000Y-40767000D03*
X118897400Y-40767000D03*
X129413000Y-26339800D03*
X81915000Y-41833800D03*
X129413000Y-18008600D03*
X111379000Y-18008600D03*
X148008340Y-59055000D03*
X6555740Y-59055000D03*
D31*
X158269940Y-37007800D03*
X140337540Y-37134800D03*
X127637540Y-48590200D03*
D32*
X19507800Y-19210200D03*
X24740200Y-19210200D03*
X19507800Y-23375800D03*
X24689400Y-23375800D03*
X19507800Y-21343800D03*
X24740200Y-21343800D03*
X27077000Y-24391800D03*
X16866200Y-24391800D03*
X22200200Y-24391800D03*
X27077000Y-22359800D03*
X16866200Y-22359800D03*
X22200200Y-22359800D03*
X27077000Y-20226200D03*
X27077000Y-15349400D03*
X27077000Y-17381400D03*
X16866200Y-20226200D03*
X22200200Y-20226200D03*
X16866200Y-15298600D03*
X16866200Y-17381400D03*
D31*
X85522400Y-35491600D03*
X83541200Y-26855600D03*
X83541200Y-24976000D03*
X70104600Y-12174400D03*
X72454100Y-12174400D03*
D29*
X76137100Y-24366400D03*
X156464600Y-35161400D03*
D31*
X115380100Y-46781900D03*
X76137100Y-21699400D03*
X76137100Y-20048400D03*
X44895100Y-47416900D03*
X39688100Y-46273900D03*
X158941100Y-6967400D03*
X156401100Y-6967400D03*
X96393600Y-25636400D03*
X91567600Y-26398400D03*
X118903200Y-46816000D03*
X153264200Y-6967400D03*
X123597000Y-6865800D03*
X115621400Y-6865800D03*
D30*
X153264200Y-11082200D03*
X114808600Y-1379400D03*
X34443000Y-1379400D03*
D31*
X112370200Y-617400D03*
X43383800Y-7780200D03*
X46127000Y-7780200D03*
X89027600Y-28176400D03*
X80455100Y-26906400D03*
X88392600Y-27477900D03*
X81852100Y-26906400D03*
X86932100Y-13253900D03*
X86043100Y-13253900D03*
X86043100Y-12364900D03*
X85154100Y-12364900D03*
X87047100Y-14523900D03*
X142685100Y-33904100D03*
X142685100Y-35199500D03*
X66612100Y-12872900D03*
X85154100Y-11412400D03*
X88317100Y-15031900D03*
X123698600Y-13698400D03*
X74422600Y-12174400D03*
X76633100Y-18841900D03*
X78728600Y-18968900D03*
X77776100Y-18968900D03*
X75998100Y-18143400D03*
X76454600Y-12174400D03*
X83757100Y-35478900D03*
X91186600Y-16301900D03*
X92075600Y-16301900D03*
X90297600Y-16301900D03*
X85154100Y-20302400D03*
X85725600Y-20810400D03*
X150145200Y-32274500D03*
X84519100Y-19794400D03*
X150145200Y-28972500D03*
X148883400Y-34374000D03*
X149188200Y-33662800D03*
X150153400Y-33662800D03*
X146253800Y-29065400D03*
X146253800Y-29979800D03*
X146253800Y-30894200D03*
X97854100Y-14206400D03*
X97790600Y-18651400D03*
X85662100Y-26779400D03*
X96901600Y-18651400D03*
X96901600Y-14206400D03*
X84328600Y-26779400D03*
X113729100Y-13761900D03*
X114745100Y-13761900D03*
X90285600Y-15031900D03*
X89269600Y-15031900D03*
D32*
X1067400Y-17381400D03*
X1067400Y-15298600D03*
X6401400Y-20226200D03*
X1067400Y-20226200D03*
X11278200Y-17381400D03*
X11278200Y-15349400D03*
X11278200Y-20226200D03*
X6401400Y-22359800D03*
X1067400Y-22359800D03*
X11278200Y-22359800D03*
X6401400Y-24391800D03*
X1067400Y-24391800D03*
X11278200Y-24391800D03*
X8941400Y-21343800D03*
X3709000Y-21343800D03*
X8890600Y-23375800D03*
X3709000Y-23375800D03*
X8941400Y-19210200D03*
X3709000Y-19210200D03*
D31*
X150145200Y-30623500D03*
X146253800Y-31808600D03*
X146253800Y-32773800D03*
X146253800Y-33688200D03*
X73254200Y-23350400D03*
X64453100Y-21508900D03*
D30*
X31168340Y-3378200D03*
D33*
X141886940Y-20599400D02*
X154155140Y-20599400D01*
X73662540Y-37450960D02*
X73662540Y-53263800D01*
X73662540Y-53263800D02*
X91821000Y-53263800D01*
X73662540Y-37450960D02*
X73666100Y-37447400D01*
X101219000Y-53162200D02*
X101219000Y-37414200D01*
X101117400Y-53263800D02*
X101219000Y-53162200D01*
X1549400Y-46253400D02*
X1549400Y-34823400D01*
X1549400Y-34823400D02*
X1549400Y-27559000D01*
D34*
X79820100Y-21318400D02*
X79820100Y-20810400D01*
X78601600Y-21699400D02*
X79439100Y-21699400D01*
X79439100Y-21699400D02*
X79820100Y-21318400D01*
X79820100Y-20429400D02*
X79439100Y-20048400D01*
X79439100Y-20048400D02*
X78601600Y-20048400D01*
X79820100Y-20810400D02*
X79820100Y-20429400D01*
X91567600Y-24886400D02*
X90488100Y-24886400D01*
X92000100Y-25318900D02*
X91567600Y-24886400D01*
X93587600Y-25318900D02*
X92000100Y-25318900D01*
X84646100Y-23413900D02*
X82106100Y-23413900D01*
X80772600Y-25001400D02*
X82106100Y-23667900D01*
X82106100Y-23667900D02*
X82106100Y-23413900D01*
X82741100Y-26779400D02*
X82741100Y-25382400D01*
X82741100Y-25382400D02*
X82360100Y-25001400D01*
X82360100Y-25001400D02*
X80772600Y-25001400D01*
X82906200Y-33535800D02*
X78486600Y-33535800D01*
D35*
X154940600Y-35161400D02*
X154952600Y-35149400D01*
D33*
X154952600Y-35149400D02*
X154952600Y-33764400D01*
D35*
X118059100Y-54820300D02*
X118618600Y-55379800D01*
X118618600Y-55379800D02*
X121158600Y-55379800D01*
X121158600Y-55379800D02*
X121666600Y-54871800D01*
X121666600Y-54871800D02*
X121666600Y-54414600D01*
X118059100Y-53766900D02*
X118059100Y-54820300D01*
X120558200Y-43212500D02*
X121125700Y-43780000D01*
X118903200Y-43212500D02*
X120558200Y-43212500D01*
X37414800Y-53830400D02*
X36830600Y-54414600D01*
X41859100Y-53830400D02*
X37414800Y-53830400D01*
X44538800Y-44292000D02*
X45042800Y-44796000D01*
X45042800Y-44796000D02*
X45878200Y-44796000D01*
X43655700Y-44292000D02*
X44538800Y-44292000D01*
X8027000Y-33649400D02*
X8015000Y-33637400D01*
X8015000Y-55012200D02*
X8027000Y-55024200D01*
X8027000Y-34805800D02*
X8027000Y-33649400D01*
X8015000Y-53703400D02*
X8015000Y-55012200D01*
X69088600Y-14282600D02*
X68225000Y-13419000D01*
X73305000Y-14282600D02*
X69088600Y-14282600D01*
D33*
X154952600Y-55164600D02*
X154940600Y-55176600D01*
X154940600Y-40749400D02*
X154940600Y-35161400D01*
X154952600Y-53703400D02*
X154952600Y-55164600D01*
X49980000Y-5697400D02*
X49998400Y-5715800D01*
X43162200Y-5715800D02*
X36798400Y-5715800D01*
X43162200Y-5715800D02*
X43180600Y-5697400D01*
X49980000Y-5697400D02*
X43180600Y-5697400D01*
X19989800Y-34823400D02*
X19989800Y-46202600D01*
X27457400Y-55041800D02*
X27457400Y-46253400D01*
X27457400Y-27559000D02*
X19989800Y-27559000D01*
X19989800Y-34823400D02*
X27457400Y-34823400D01*
X33655000Y-34823400D02*
X27457400Y-34823400D01*
X27457400Y-27559000D02*
X37617400Y-27559000D01*
X43408600Y-18008600D02*
X49453800Y-18008600D01*
X37617400Y-18008600D02*
X43408600Y-18008600D01*
X43408600Y-13226000D02*
X43398400Y-13215800D01*
X43408600Y-18008600D02*
X43408600Y-13226000D01*
X49453800Y-10744200D02*
X49453800Y-18008600D01*
X49998400Y-10199600D02*
X49453800Y-10744200D01*
X49998400Y-5715800D02*
X49998400Y-10199600D01*
X57327800Y-27559000D02*
X49453800Y-27559000D01*
X49453800Y-18008600D02*
X57327800Y-18008600D01*
X59410600Y-29641800D02*
X57327800Y-27559000D01*
X59410600Y-30759400D02*
X59410600Y-29641800D01*
X57327800Y-18008600D02*
X57327800Y-5715000D01*
X64714300Y-6395900D02*
X64033400Y-5715000D01*
X70168100Y-6395900D02*
X64714300Y-6395900D01*
X87909400Y1346200D02*
X108534200Y1346200D01*
X56667400Y1346200D02*
X74447400Y1346200D01*
X92430600Y-9829800D02*
X82931000Y-9829800D01*
X73990200Y-3530600D02*
X92430600Y-3530600D01*
X101219000Y-9829800D02*
X92430600Y-9829800D01*
X92430600Y-3530600D02*
X101219000Y-3530600D01*
X101219800Y-5665000D02*
X101219000Y-5664200D01*
X113023800Y-5665000D02*
X101219800Y-5665000D01*
X101219000Y-20040600D02*
X101219000Y-26339800D01*
X101219000Y-26339800D02*
X101219000Y-37414200D01*
X118186200Y-26339800D02*
X136271000Y-26339800D01*
X136271000Y-10083800D02*
X139877800Y-6477000D01*
X147548600Y-13182600D02*
X147548600Y-6477000D01*
X147548600Y-26339800D02*
X136271000Y-26339800D01*
X118903200Y-40772800D02*
X118903200Y-43212500D01*
X118897400Y-40767000D02*
X118903200Y-40772800D01*
X129413000Y-40767000D02*
X129413000Y-26339800D01*
X78052500Y-41833800D02*
X81915000Y-41833800D01*
X73666100Y-37447400D02*
X78052500Y-41833800D01*
X87440700Y-41833800D02*
X91827100Y-37447400D01*
X81915000Y-41833800D02*
X87440700Y-41833800D01*
X111379000Y-18008600D02*
X129413000Y-18008600D01*
X43359100Y-53830400D02*
X43359100Y-55421560D01*
X122395340Y-51806200D02*
X121146500Y-51806200D01*
X123167140Y-52578000D02*
X122395340Y-51806200D01*
X123167140Y-55168800D02*
X123167140Y-52578000D01*
X122024140Y-56311800D02*
X123167140Y-55168800D01*
X44249340Y-56311800D02*
X122024140Y-56311800D01*
X43359100Y-55421560D02*
X44249340Y-56311800D01*
D36*
X160223800Y-52324000D02*
X160223800Y-55043740D01*
X156212540Y-59055000D02*
X148008340Y-59055000D01*
X160223800Y-55043740D02*
X156212540Y-59055000D01*
D33*
X6542340Y-59041600D02*
X6515000Y-53703400D01*
D36*
X6555740Y-59055000D02*
X6542340Y-59041600D01*
D35*
X156464600Y-35202460D02*
X156464600Y-35161400D01*
X158269940Y-37007800D02*
X156464600Y-35202460D01*
X138788140Y-38684200D02*
X140337540Y-37134800D01*
X138788140Y-45516800D02*
X138788140Y-38684200D01*
X135714740Y-48590200D02*
X138788140Y-45516800D01*
X127637540Y-48590200D02*
X135714740Y-48590200D01*
D36*
X19507800Y-19210200D02*
X24740200Y-19210200D01*
X19507800Y-23375800D02*
X24689400Y-23375800D01*
X19507800Y-20226200D02*
X19507800Y-21343800D01*
X24740200Y-21343800D02*
X24740200Y-20226200D01*
X24740200Y-20226200D02*
X24740200Y-20277000D01*
X22200200Y-24391800D02*
X27077000Y-24391800D01*
X16866200Y-24391800D02*
X22200200Y-24391800D01*
X22200200Y-22359800D02*
X27077000Y-22359800D01*
X16866200Y-22359800D02*
X22200200Y-22359800D01*
X27077000Y-20226200D02*
X24740200Y-20226200D01*
X24740200Y-20226200D02*
X22200200Y-20226200D01*
X27077000Y-15349400D02*
X27077000Y-17381400D01*
X16866200Y-20226200D02*
X19507800Y-20226200D01*
X19507800Y-20226200D02*
X22200200Y-20226200D01*
X16866200Y-15298600D02*
X16866200Y-17381400D01*
D33*
X6515000Y-51823800D02*
X4970600Y-51823800D01*
X4970600Y-51823800D02*
X4940300Y-51793500D01*
X6515000Y-50706200D02*
X4953000Y-50706200D01*
X4953000Y-50706200D02*
X4940300Y-50693500D01*
X4940300Y-49593500D02*
X6515000Y-49593500D01*
X6510100Y-49588600D02*
X6515000Y-49588600D01*
X6515000Y-49593500D02*
X6510100Y-49588600D01*
X6515000Y-53703400D02*
X6515000Y-51823800D01*
X6515000Y-51823800D02*
X6515000Y-50706200D01*
X6515000Y-50706200D02*
X6515000Y-49588600D01*
X6515000Y-49588600D02*
X6515000Y-33637400D01*
X6503000Y-30640200D02*
X4953000Y-30640200D01*
X6503000Y-31783200D02*
X4996000Y-31783200D01*
X4996000Y-31783200D02*
X4953000Y-31740200D01*
X6503000Y-31605400D02*
X6503000Y-31783200D01*
X6503000Y-31783200D02*
X6503000Y-33625400D01*
X6503000Y-33625400D02*
X6515000Y-33637400D01*
X4953000Y-29540200D02*
X6038000Y-29540200D01*
X6038000Y-29540200D02*
X6503000Y-30005200D01*
X6503000Y-30005200D02*
X6503000Y-30640200D01*
X6503000Y-30640200D02*
X6503000Y-31605400D01*
X6503000Y-31605400D02*
X6503000Y-31554600D01*
D34*
X90488100Y-26386400D02*
X90488100Y-27960500D01*
X85522400Y-32926200D02*
X85522400Y-35491600D01*
X90488100Y-27960500D02*
X85522400Y-32926200D01*
X83541200Y-24976000D02*
X83541200Y-26855600D01*
X72454100Y-12174400D02*
X70104600Y-12174400D01*
X76137100Y-21699400D02*
X76137100Y-24366400D01*
D35*
X156452600Y-35149400D02*
X156452600Y-33764400D01*
X156464600Y-35161400D02*
X156452600Y-35149400D01*
D34*
X118903200Y-46816000D02*
X120557700Y-46816000D01*
X121146500Y-47404800D02*
X121146500Y-49606200D01*
X120557700Y-46816000D02*
X121146500Y-47404800D01*
X44895100Y-47416900D02*
X44895100Y-49567500D01*
D35*
X44895100Y-49567500D02*
X44933800Y-49606200D01*
D33*
X44933800Y-51806200D02*
X43359100Y-51806200D01*
X43366900Y-51798400D02*
X43359100Y-51798400D01*
X43359100Y-51806200D02*
X43366900Y-51798400D01*
X44933800Y-50706200D02*
X43359100Y-50706200D01*
X43371800Y-50718900D02*
X43359100Y-50718900D01*
X43359100Y-50706200D02*
X43371800Y-50718900D01*
X43359100Y-53830400D02*
X43359100Y-51798400D01*
X43359100Y-51798400D02*
X43359100Y-50718900D01*
X43975800Y-49606200D02*
X44933800Y-49606200D01*
X43359100Y-50718900D02*
X43359100Y-50222900D01*
X43359100Y-50222900D02*
X43975800Y-49606200D01*
X121146500Y-51806200D02*
X119559100Y-51806200D01*
X119566900Y-51798400D02*
X119559100Y-51798400D01*
X119559100Y-51806200D02*
X119566900Y-51798400D01*
X121146500Y-50706200D02*
X119559100Y-50706200D01*
X119571800Y-50718900D02*
X119559100Y-50718900D01*
X119559100Y-50706200D02*
X119571800Y-50718900D01*
X119559100Y-53766900D02*
X119559100Y-51798400D01*
X119559100Y-51798400D02*
X119559100Y-50718900D01*
X119559100Y-50718900D02*
X119559100Y-50095900D01*
X119559100Y-50095900D02*
X120048800Y-49606200D01*
X120048800Y-49606200D02*
X121146500Y-49606200D01*
D34*
X118903200Y-46816000D02*
X115414200Y-46816000D01*
X115414200Y-46816000D02*
X115380100Y-46781900D01*
D33*
X158070300Y-29509900D02*
X158040000Y-29540200D01*
X158085900Y-49639400D02*
X158040000Y-49593500D01*
X158040000Y-31740200D02*
X156452600Y-31740200D01*
X156460400Y-31732400D02*
X156452600Y-31732400D01*
X156452600Y-31740200D02*
X156460400Y-31732400D01*
X158040000Y-30640200D02*
X156452600Y-30640200D01*
X156503400Y-30589400D02*
X156452600Y-30589400D01*
X156452600Y-30640200D02*
X156503400Y-30589400D01*
X156452600Y-30589400D02*
X156452600Y-31732400D01*
X156452600Y-31732400D02*
X156452600Y-33764400D01*
X156452600Y-29966400D02*
X156452600Y-30589400D01*
X158040000Y-29540200D02*
X156878800Y-29540200D01*
X156878800Y-29540200D02*
X156452600Y-29966400D01*
X156452600Y-51798400D02*
X158035100Y-51798400D01*
X158035100Y-51798400D02*
X158040000Y-51793500D01*
X158040000Y-50693500D02*
X156452600Y-50693500D01*
X156464600Y-50591900D02*
X156452600Y-50591900D01*
X156464600Y-50681500D02*
X156464600Y-50591900D01*
X156452600Y-50693500D02*
X156464600Y-50681500D01*
X156452600Y-53703400D02*
X156452600Y-51798400D01*
X156452600Y-51798400D02*
X156452600Y-50591900D01*
X156452600Y-50591900D02*
X156452600Y-50159400D01*
X157018500Y-49593500D02*
X158040000Y-49593500D01*
X156452600Y-50159400D02*
X157018500Y-49593500D01*
D34*
X77101600Y-20048400D02*
X77101600Y-21699400D01*
X76137100Y-21699400D02*
X77101600Y-21699400D01*
X76137100Y-20048400D02*
X77101600Y-20048400D01*
X44895100Y-46292000D02*
X44895100Y-47416900D01*
X43655700Y-46292000D02*
X39706200Y-46292000D01*
X39706200Y-46292000D02*
X39688100Y-46273900D01*
D35*
X156401100Y-6967400D02*
X158941100Y-6967400D01*
D34*
X91567600Y-26398400D02*
X95631600Y-26398400D01*
X95631600Y-26398400D02*
X96393600Y-25636400D01*
X91555600Y-26386400D02*
X90488100Y-26386400D01*
X91567600Y-26398400D02*
X91555600Y-26386400D01*
D33*
X158032200Y-31732400D02*
X158040000Y-31740200D01*
X158032200Y-51798400D02*
X158040000Y-51806200D01*
D34*
X118903200Y-46816000D02*
X118903200Y-45212500D01*
X118970700Y-45280000D02*
X118903200Y-45212500D01*
X121125700Y-45280000D02*
X118970700Y-45280000D01*
X45874200Y-46292000D02*
X45878200Y-46296000D01*
X43655700Y-46292000D02*
X44895100Y-46292000D01*
X44895100Y-46292000D02*
X45874200Y-46292000D01*
D35*
X153264200Y-6967400D02*
X156401100Y-6967400D01*
X123597000Y-6865800D02*
X115621400Y-6865800D01*
D36*
X160223800Y-29522600D02*
X160223800Y-30640200D01*
X160223800Y-30640200D02*
X160223800Y-31707000D01*
X160223800Y-31707000D02*
X160223800Y-49588600D01*
X160223800Y-49588600D02*
X160223800Y-50706200D01*
X160223800Y-50706200D02*
X160223800Y-51823800D01*
X160223800Y-51823800D02*
X160223800Y-52324000D01*
X112370200Y-1379400D02*
X114808600Y-1379400D01*
X34443000Y-1379400D02*
X112370200Y-1379400D01*
X160223800Y-18041800D02*
X160223800Y-29522600D01*
X153264200Y-11082200D02*
X160223800Y-18041800D01*
D33*
X160223800Y-29540200D02*
X160206200Y-29522600D01*
X160206200Y-29522600D02*
X160223800Y-29522600D01*
X158040000Y-29540200D02*
X160223800Y-29540200D01*
X160122200Y-30640200D02*
X160223800Y-30640200D01*
X158040000Y-30640200D02*
X160223800Y-30640200D01*
X160223800Y-31740200D02*
X160190600Y-31707000D01*
X160190600Y-31707000D02*
X160223800Y-31707000D01*
X158040000Y-31740200D02*
X160223800Y-31740200D01*
X160223800Y-49593500D02*
X160218900Y-49588600D01*
X160218900Y-49588600D02*
X160223800Y-49588600D01*
X158040000Y-49593500D02*
X160223800Y-49593500D01*
X160223800Y-50693500D02*
X160211100Y-50706200D01*
X160211100Y-50706200D02*
X160223800Y-50706200D01*
X158040000Y-50693500D02*
X160223800Y-50693500D01*
X160223800Y-51793500D02*
X160193500Y-51823800D01*
X160193500Y-51823800D02*
X160223800Y-51823800D01*
X158040000Y-51793500D02*
X160223800Y-51793500D01*
X153264200Y-6967400D02*
X153264200Y-11082200D01*
D35*
X112370200Y-1379400D02*
X112370200Y-617400D01*
X43383800Y-7780200D02*
X46127000Y-7780200D01*
D33*
X116548500Y-52408000D02*
X117150300Y-51806200D01*
X117150300Y-51806200D02*
X118046500Y-51806200D01*
X116092000Y-52408000D02*
X116548500Y-52408000D01*
X116092000Y-50706200D02*
X118046500Y-50706200D01*
X116612000Y-49029800D02*
X117188400Y-49606200D01*
X117188400Y-49606200D02*
X118046500Y-49606200D01*
X116092000Y-49029800D02*
X116612000Y-49029800D01*
X40412000Y-52408000D02*
X41013800Y-51806200D01*
X41013800Y-51806200D02*
X41833800Y-51806200D01*
X39866600Y-52408000D02*
X40412000Y-52408000D01*
X39866600Y-50706200D02*
X41833800Y-50706200D01*
X40386600Y-49004400D02*
X40988400Y-49606200D01*
X40988400Y-49606200D02*
X41833800Y-49606200D01*
X39866600Y-49004400D02*
X40386600Y-49004400D01*
X153403900Y-32316600D02*
X153980300Y-31740200D01*
X153980300Y-31740200D02*
X154940000Y-31740200D01*
X152782300Y-32316600D02*
X153403900Y-32316600D01*
X152782300Y-30640200D02*
X154940000Y-30640200D01*
X153315000Y-28963800D02*
X153891400Y-29540200D01*
X153891400Y-29540200D02*
X154940000Y-29540200D01*
X152782300Y-28963800D02*
X153315000Y-28963800D01*
X152782300Y-52382600D02*
X153403900Y-52382600D01*
X153980300Y-51806200D02*
X154940000Y-51806200D01*
X153403900Y-52382600D02*
X153980300Y-51806200D01*
X152782300Y-50706200D02*
X154940000Y-50706200D01*
X152782300Y-49029800D02*
X153315000Y-49029800D01*
X153891400Y-49606200D02*
X154940000Y-49606200D01*
X153315000Y-49029800D02*
X153891400Y-49606200D01*
X9114300Y-29540200D02*
X9690700Y-28963800D01*
X9690700Y-28963800D02*
X10210700Y-28963800D01*
X8053000Y-29540200D02*
X9114300Y-29540200D01*
X8053000Y-30640200D02*
X10210700Y-30640200D01*
X9025400Y-31740200D02*
X9601800Y-32316600D01*
X9601800Y-32316600D02*
X10210700Y-32316600D01*
X8053000Y-31740200D02*
X9025400Y-31740200D01*
D34*
X81725100Y-28176400D02*
X80455100Y-26906400D01*
X89027600Y-28176400D02*
X81725100Y-28176400D01*
X88392600Y-27477900D02*
X82423600Y-27477900D01*
X82423600Y-27477900D02*
X81852100Y-26906400D01*
X79736600Y-18194900D02*
X81991100Y-18194900D01*
X81991100Y-18194900D02*
X86932100Y-13253900D01*
X129477100Y-9634400D02*
X113284600Y-9634400D01*
X113284600Y-9634400D02*
X110046100Y-12872900D01*
X87313100Y-12872900D02*
X110046100Y-12872900D01*
X86932100Y-13253900D02*
X87313100Y-12872900D01*
X136086600Y525600D02*
X132842600Y525600D01*
X137356600Y-744400D02*
X136086600Y525600D01*
X131763100Y-7348400D02*
X129477100Y-9634400D01*
X131763100Y-553900D02*
X131763100Y-7348400D01*
X132842600Y525600D02*
X131763100Y-553900D01*
X137356600Y-744400D02*
X137356600Y-178400D01*
X86043100Y-13253900D02*
X81602100Y-17694900D01*
X81602100Y-17694900D02*
X79736600Y-17694900D01*
X129286600Y-9126400D02*
X113094100Y-9126400D01*
X113094100Y-9126400D02*
X109855600Y-12364900D01*
X109855600Y-12364900D02*
X86932100Y-12364900D01*
X86043100Y-13253900D02*
X86932100Y-12364900D01*
X138118600Y1033600D02*
X132652100Y1033600D01*
X139896600Y-744400D02*
X138118600Y1033600D01*
X129286600Y-9126400D02*
X131255100Y-7157900D01*
X131255100Y-7157900D02*
X131255100Y-363400D01*
X131255100Y-363400D02*
X132652100Y1033600D01*
X79736600Y-17194900D02*
X81213100Y-17194900D01*
X81213100Y-17194900D02*
X86043100Y-12364900D01*
X129096100Y-8618400D02*
X112903600Y-8618400D01*
X112903600Y-8618400D02*
X109665100Y-11856900D01*
X109665100Y-11856900D02*
X86551100Y-11856900D01*
X142436600Y-744400D02*
X140150600Y1541600D01*
X140150600Y1541600D02*
X132461600Y1541600D01*
X129096100Y-8618400D02*
X130747100Y-6967400D01*
X130747100Y-6967400D02*
X130747100Y-172900D01*
X130747100Y-172900D02*
X132461600Y1541600D01*
X86043100Y-12364900D02*
X86551100Y-11856900D01*
X85154100Y-12364900D02*
X80824100Y-16694900D01*
X80824100Y-16694900D02*
X79736600Y-16694900D01*
X128905600Y-8110400D02*
X112713100Y-8110400D01*
X112713100Y-8110400D02*
X109474600Y-11348900D01*
X86170100Y-11348900D02*
X109474600Y-11348900D01*
X142182600Y2049600D02*
X132271100Y2049600D01*
X144976600Y-744400D02*
X142182600Y2049600D01*
X128905600Y-8110400D02*
X130239100Y-6776900D01*
X130239100Y-6776900D02*
X130239100Y17600D01*
X130239100Y17600D02*
X132271100Y2049600D01*
X85154100Y-12364900D02*
X86170100Y-11348900D01*
X87047100Y-14523900D02*
X87682100Y-13888900D01*
X87682100Y-13888900D02*
X92647100Y-13888900D01*
X150056600Y-3284400D02*
X150056600Y-5395702D01*
X93663100Y-14904900D02*
X92647100Y-13888900D01*
X148019100Y-14904900D02*
X93663100Y-14904900D01*
X150813100Y-12110900D02*
X148019100Y-14904900D01*
X150813100Y-6152202D02*
X150813100Y-12110900D01*
X150056600Y-5395702D02*
X150813100Y-6152202D01*
D35*
X142685100Y-35199500D02*
X142685100Y-33904100D01*
D34*
X74701400Y-11412400D02*
X76639600Y-11412400D01*
X76639600Y-11412400D02*
X77139800Y-11912600D01*
X77139800Y-11912600D02*
X77139800Y-15062200D01*
X77139800Y-15062200D02*
X77952600Y-15875000D01*
X77952600Y-15875000D02*
X80691500Y-15875000D01*
X80691500Y-15875000D02*
X85154100Y-11412400D01*
X66612100Y-12872900D02*
X67691600Y-12872900D01*
X67691600Y-12872900D02*
X69152100Y-11412400D01*
X69152100Y-11412400D02*
X74701400Y-11412400D01*
X151321100Y-2019900D02*
X151321100Y-12301400D01*
X151321100Y-2019900D02*
X152596600Y-744400D01*
X92456600Y-14396900D02*
X93472600Y-15412900D01*
X93472600Y-15412900D02*
X148209600Y-15412900D01*
X148209600Y-15412900D02*
X151321100Y-12301400D01*
X88952100Y-14396900D02*
X88317100Y-15031900D01*
X92456600Y-14396900D02*
X88952100Y-14396900D01*
X123698600Y-13698400D02*
X124397100Y-14396900D01*
X148781100Y-2019900D02*
X150056600Y-744400D01*
X148781100Y-4808400D02*
X148781100Y-2019900D01*
X150305100Y-6332400D02*
X148781100Y-4808400D01*
X150305100Y-11920400D02*
X150305100Y-6332400D01*
X147828600Y-14396900D02*
X150305100Y-11920400D01*
X124397100Y-14396900D02*
X147828600Y-14396900D01*
X76633100Y-18841900D02*
X75756100Y-18841900D01*
X75375100Y-18460900D02*
X75375100Y-17600398D01*
X75756100Y-18841900D02*
X75375100Y-18460900D01*
X78736600Y-17194900D02*
X77010100Y-17194900D01*
X76633100Y-17571900D02*
X76633100Y-18841900D01*
X77010100Y-17194900D02*
X76633100Y-17571900D01*
X75375100Y-17600398D02*
X75489400Y-17486098D01*
X75489400Y-17486098D02*
X75489400Y-13241200D01*
X75489400Y-13241200D02*
X74422600Y-12174400D01*
X78736600Y-18960900D02*
X78736600Y-18194900D01*
X78728600Y-18968900D02*
X78736600Y-18960900D01*
X78097600Y-17694900D02*
X78736600Y-17694900D01*
X77776100Y-18016400D02*
X78097600Y-17694900D01*
X77776100Y-18968900D02*
X77776100Y-18016400D01*
X78736600Y-16694900D02*
X75998100Y-16694900D01*
X75998100Y-16694900D02*
X75998100Y-18143400D01*
X75998100Y-12630900D02*
X76454600Y-12174400D01*
X75998100Y-18143400D02*
X75998100Y-12630900D01*
X72459600Y-36113900D02*
X82233100Y-36113900D01*
X82233100Y-36113900D02*
X82868100Y-35478900D01*
X82868100Y-35478900D02*
X83757100Y-35478900D01*
X71126100Y-37447400D02*
X72459600Y-36113900D01*
X91186600Y-16301900D02*
X92329600Y-17444900D01*
X113462400Y-50706200D02*
X114592000Y-50706200D01*
X112649600Y-49893400D02*
X113462400Y-50706200D01*
X112649600Y-22842400D02*
X112649600Y-49893400D01*
X107252100Y-17444900D02*
X112649600Y-22842400D01*
X92329600Y-17444900D02*
X107252100Y-17444900D01*
X92075600Y-16301900D02*
X92710600Y-16936900D01*
X107442600Y-16936900D02*
X113157600Y-22651900D01*
X92710600Y-16936900D02*
X107442600Y-16936900D01*
X113691000Y-49029800D02*
X114592000Y-49029800D01*
X113157600Y-22651900D02*
X113157600Y-48496400D01*
X113157600Y-48496400D02*
X113691000Y-49029800D01*
X90297600Y-16301900D02*
X91948600Y-17952900D01*
X113322700Y-52408000D02*
X114592000Y-52408000D01*
X112141600Y-51226900D02*
X113322700Y-52408000D01*
X112141600Y-23032900D02*
X112141600Y-51226900D01*
X107061600Y-17952900D02*
X112141600Y-23032900D01*
X91948600Y-17952900D02*
X107061600Y-17952900D01*
X84201600Y-21254900D02*
X85154100Y-20302400D01*
X73152600Y-35097900D02*
X74549600Y-33700900D01*
X74549600Y-29001900D02*
X82296600Y-21254900D01*
X74549600Y-33700900D02*
X74549600Y-29001900D01*
X38366600Y-50706200D02*
X37325900Y-50706200D01*
X36703600Y-42146400D02*
X43752100Y-35097900D01*
X36703600Y-50083900D02*
X36703600Y-42146400D01*
X37325900Y-50706200D02*
X36703600Y-50083900D01*
X43752100Y-35097900D02*
X73152600Y-35097900D01*
X82296600Y-21254900D02*
X84201600Y-21254900D01*
X37656100Y-49004400D02*
X37211600Y-48559900D01*
X37211600Y-48559900D02*
X37211600Y-42400400D01*
X37211600Y-42400400D02*
X44006100Y-35605900D01*
X38366600Y-49004400D02*
X37656100Y-49004400D01*
X73343100Y-35605900D02*
X75057600Y-33891400D01*
X75057600Y-29192400D02*
X82360100Y-21889900D01*
X82360100Y-21889900D02*
X84646100Y-21889900D01*
X44006100Y-35605900D02*
X73343100Y-35605900D01*
X75057600Y-33891400D02*
X75057600Y-29192400D01*
X84646100Y-21889900D02*
X85725600Y-20810400D01*
D35*
X150145200Y-32274500D02*
X150187300Y-32316600D01*
X150187300Y-32316600D02*
X151282300Y-32316600D01*
D34*
X36868700Y-52408000D02*
X36195600Y-51734900D01*
X36195600Y-51734900D02*
X36195600Y-41955900D01*
X36195600Y-41955900D02*
X43561600Y-34589900D01*
X38366600Y-52408000D02*
X36868700Y-52408000D01*
X43561600Y-34589900D02*
X72962100Y-34589900D01*
X72962100Y-34589900D02*
X74041600Y-33510400D01*
X74041600Y-28811400D02*
X82233100Y-20619900D01*
X74041600Y-33510400D02*
X74041600Y-28811400D01*
X84519100Y-19794400D02*
X83693600Y-20619900D01*
X83693600Y-20619900D02*
X82233100Y-20619900D01*
D35*
X150145200Y-28972500D02*
X150153900Y-28963800D01*
X150153900Y-28963800D02*
X151282300Y-28963800D01*
X148883400Y-34374000D02*
X148883400Y-51078700D01*
X148883400Y-51078700D02*
X150161900Y-52357200D01*
X150161900Y-52357200D02*
X151282300Y-52357200D01*
X150145200Y-52340500D02*
X150161900Y-52357200D01*
X150161900Y-52357200D02*
X151282300Y-52357200D01*
X150161900Y-52357200D02*
X151282300Y-52357200D01*
X150136500Y-50680800D02*
X151282300Y-50680800D01*
X149543800Y-50088100D02*
X150136500Y-50680800D01*
X149543800Y-34018400D02*
X149543800Y-50088100D01*
X149188200Y-33662800D02*
X149543800Y-34018400D01*
X150153400Y-46566000D02*
X150153400Y-48445600D01*
X150712200Y-49004400D02*
X151282300Y-49004400D01*
X150153400Y-48445600D02*
X150712200Y-49004400D01*
X150153400Y-33662800D02*
X150153400Y-46566000D01*
X150153400Y-46566000D02*
X150153400Y-46515200D01*
X16599500Y-28963800D02*
X18542600Y-30906900D01*
X18542600Y-30906900D02*
X18542600Y-53576400D01*
X21908100Y-56941900D02*
X18542600Y-53576400D01*
X137922600Y-56941900D02*
X21908100Y-56941900D01*
X11710700Y-28963800D02*
X16599500Y-28963800D01*
X142253300Y-56941900D02*
X21908100Y-56941900D01*
X143358200Y-55837000D02*
X142253300Y-56941900D01*
X143358200Y-31961000D02*
X143358200Y-55837000D01*
X146253800Y-29065400D02*
X143358200Y-31961000D01*
X17907600Y-31986400D02*
X16561400Y-30640200D01*
X16561400Y-30640200D02*
X11710700Y-30640200D01*
X17907600Y-53766900D02*
X17907600Y-31986400D01*
X21654100Y-57513400D02*
X17907600Y-53766900D01*
X142484298Y-57513400D02*
X21654100Y-57513400D01*
X143917000Y-56080698D02*
X142484298Y-57513400D01*
X143917000Y-32316600D02*
X143917000Y-56080698D01*
X146253800Y-29979800D02*
X143917000Y-32316600D01*
X17272600Y-33129400D02*
X17272600Y-53957400D01*
X21400100Y-58084900D02*
X17272600Y-53957400D01*
X17272600Y-33129400D02*
X16459800Y-32316600D01*
X16459800Y-32316600D02*
X11710700Y-32316600D01*
X142735900Y-58084900D02*
X21400100Y-58084900D01*
X144475800Y-56345000D02*
X142735900Y-58084900D01*
X144475800Y-32672200D02*
X144475800Y-56345000D01*
X146253800Y-30894200D02*
X144475800Y-32672200D01*
D34*
X85662100Y-26779400D02*
X85662100Y-26144400D01*
X129990600Y-10650400D02*
X137356600Y-3284400D01*
X110427100Y-13888900D02*
X98171600Y-13888900D01*
X113665600Y-10650400D02*
X110427100Y-13888900D01*
X129990600Y-10650400D02*
X113665600Y-10650400D01*
X97854100Y-14206400D02*
X98171600Y-13888900D01*
X97155600Y-19286400D02*
X97790600Y-18651400D01*
X92520100Y-19286400D02*
X97155600Y-19286400D01*
X85662100Y-26144400D02*
X92520100Y-19286400D01*
X84328600Y-26779400D02*
X92456600Y-18651400D01*
X92456600Y-18651400D02*
X96901600Y-18651400D01*
X134816600Y-4993400D02*
X129667600Y-10142400D01*
X96901600Y-14206400D02*
X97727100Y-13380900D01*
X97727100Y-13380900D02*
X110236600Y-13380900D01*
X129667600Y-10142400D02*
X113475100Y-10142400D01*
X113475100Y-10142400D02*
X110236600Y-13380900D01*
X134816600Y-4993400D02*
X134816600Y-3284400D01*
X116142100Y-11348900D02*
X141796100Y-11348900D01*
X113729100Y-13761900D02*
X116142100Y-11348900D01*
X141796100Y-11348900D02*
X144463100Y-8681900D01*
X144463100Y-5310900D02*
X142436600Y-3284400D01*
X144463100Y-8681900D02*
X144463100Y-5310900D01*
X116650100Y-11856900D02*
X141986600Y-11856900D01*
X114745100Y-13761900D02*
X116650100Y-11856900D01*
X141986600Y-11856900D02*
X144976600Y-8866900D01*
X144976600Y-8866900D02*
X144976600Y-3284400D01*
X153861100Y-4173400D02*
X151829100Y-6205400D01*
X151829100Y-12618900D02*
X148527100Y-15920900D01*
X151829100Y-6205400D02*
X151829100Y-12618900D01*
X90285600Y-15031900D02*
X92393100Y-15031900D01*
X93282100Y-15920900D02*
X148527100Y-15920900D01*
X92393100Y-15031900D02*
X93282100Y-15920900D01*
X153861100Y-2019900D02*
X155136600Y-744400D01*
X153861100Y-4173400D02*
X153861100Y-2019900D01*
X89269600Y-15031900D02*
X89904600Y-15666900D01*
X89904600Y-15666900D02*
X92329600Y-15666900D01*
X148717600Y-16428900D02*
X152337100Y-12809400D01*
X154496100Y-4554400D02*
X155702600Y-4554400D01*
X155702600Y-4554400D02*
X156401100Y-3855900D01*
X156401100Y-3855900D02*
X156401100Y-2019900D01*
X156401100Y-2019900D02*
X157676600Y-744400D01*
X92329600Y-15666900D02*
X93091600Y-16428900D01*
X93091600Y-16428900D02*
X148717600Y-16428900D01*
X152337100Y-12809400D02*
X152337100Y-6713400D01*
X152337100Y-6713400D02*
X154496100Y-4554400D01*
D36*
X1067400Y-15298600D02*
X1067400Y-17381400D01*
X3709000Y-20226200D02*
X6401400Y-20226200D01*
X1067400Y-20226200D02*
X3709000Y-20226200D01*
X11278200Y-15349400D02*
X11278200Y-17381400D01*
X8941400Y-20226200D02*
X6401400Y-20226200D01*
X11278200Y-20226200D02*
X8941400Y-20226200D01*
X1067400Y-22359800D02*
X6401400Y-22359800D01*
X6401400Y-22359800D02*
X11278200Y-22359800D01*
X1067400Y-24391800D02*
X6401400Y-24391800D01*
X6401400Y-24391800D02*
X11278200Y-24391800D01*
X8941400Y-20277000D02*
X8941400Y-20226200D01*
X8941400Y-21343800D02*
X8941400Y-20226200D01*
X3709000Y-20226200D02*
X3709000Y-21343800D01*
X3709000Y-23375800D02*
X8890600Y-23375800D01*
X3709000Y-19210200D02*
X8941400Y-19210200D01*
D33*
X7989500Y-49606200D02*
X9050800Y-49606200D01*
X9627200Y-49029800D02*
X10147200Y-49029800D01*
X9050800Y-49606200D02*
X9627200Y-49029800D01*
X7989500Y-50706200D02*
X10147200Y-50706200D01*
X7989500Y-51806200D02*
X8961900Y-51806200D01*
X9538300Y-52382600D02*
X10147200Y-52382600D01*
X8961900Y-51806200D02*
X9538300Y-52382600D01*
D35*
X150145200Y-30623500D02*
X150161900Y-30640200D01*
X150161900Y-30640200D02*
X151282300Y-30640200D01*
X21146100Y-58656400D02*
X16701100Y-54211400D01*
X16701100Y-54211400D02*
X16701100Y-50337900D01*
X16701100Y-50337900D02*
X15367600Y-49004400D01*
X15367600Y-49004400D02*
X11710700Y-49004400D01*
X21146100Y-58656400D02*
X142977200Y-58656400D01*
X145034600Y-56599000D02*
X142977200Y-58656400D01*
X145034600Y-33027800D02*
X145034600Y-56599000D01*
X146253800Y-31808600D02*
X145034600Y-33027800D01*
X20892100Y-59227900D02*
X16129600Y-54465400D01*
X16129600Y-54465400D02*
X16129600Y-51544400D01*
X16129600Y-51544400D02*
X15266000Y-50680800D01*
X15266000Y-50680800D02*
X11710700Y-50680800D01*
X146253800Y-32773800D02*
X146203000Y-32811053D01*
X20892100Y-59227900D02*
X143269300Y-59227900D01*
X145593400Y-56903800D02*
X143269300Y-59227900D01*
X145593400Y-33420653D02*
X145593400Y-56903800D01*
X146203000Y-32811053D02*
X145593400Y-33420653D01*
X20638100Y-59799400D02*
X15494600Y-54655900D01*
X14910400Y-52357200D02*
X11710700Y-52357200D01*
X15494600Y-52941400D02*
X14910400Y-52357200D01*
X15494600Y-54655900D02*
X15494600Y-52941400D01*
X143510600Y-59799400D02*
X20638100Y-59799400D01*
X146253800Y-57056200D02*
X143510600Y-59799400D01*
X146253800Y-33688200D02*
X146253800Y-57056200D01*
X73254200Y-23350400D02*
X66294600Y-23350400D01*
X66294600Y-23350400D02*
X64453100Y-21508900D01*
D36*
X12945740Y-4572000D02*
X12945740Y-3109600D01*
X12945740Y-3109600D02*
X14023340Y-2032000D01*
X14023340Y-2032000D02*
X29822140Y-2032000D01*
X29822140Y-2032000D02*
X31168340Y-3378200D01*
D37*
G36*
X131969775Y2777063D02*
X131714324Y2606376D01*
X129682324Y574376D01*
X129511637Y318925D01*
X129451700Y17600D01*
X129451700Y-6450748D01*
X128579448Y-7323000D01*
X128258800Y-7323000D01*
X128258800Y-5950750D01*
X128100050Y-5792000D01*
X126350800Y-5792000D01*
X126350800Y-5812000D01*
X126096800Y-5812000D01*
X126096800Y-5792000D01*
X124347550Y-5792000D01*
X124188800Y-5950750D01*
X124188800Y-6135188D01*
X124127327Y-6073608D01*
X123783799Y-5930962D01*
X123411833Y-5930638D01*
X123146430Y-6040300D01*
X116071513Y-6040300D01*
X115808199Y-5930962D01*
X115436233Y-5930638D01*
X115092457Y-6072683D01*
X115058800Y-6106281D01*
X115058800Y-5950750D01*
X114900050Y-5792000D01*
X113150800Y-5792000D01*
X113150800Y-5812000D01*
X112896800Y-5812000D01*
X112896800Y-5792000D01*
X111147550Y-5792000D01*
X110988800Y-5950750D01*
X110988800Y-7591310D01*
X111085473Y-7824699D01*
X111264102Y-8003327D01*
X111497491Y-8100000D01*
X111609948Y-8100000D01*
X109148448Y-10561500D01*
X86170100Y-10561500D01*
X85868775Y-10621437D01*
X85758925Y-10694836D01*
X85684427Y-10620208D01*
X85340899Y-10477562D01*
X84968933Y-10477238D01*
X84625157Y-10619283D01*
X84361908Y-10882073D01*
X84219262Y-11225601D01*
X84219255Y-11233693D01*
X80365348Y-15087600D01*
X78278752Y-15087600D01*
X77927200Y-14736048D01*
X77927200Y-11912600D01*
X77867263Y-11611275D01*
X77696576Y-11355824D01*
X77196376Y-10855624D01*
X76940925Y-10684937D01*
X76639600Y-10625000D01*
X69152100Y-10625000D01*
X68850775Y-10684937D01*
X68595324Y-10855624D01*
X67365448Y-12085500D01*
X67147211Y-12085500D01*
X67142427Y-12080708D01*
X66798899Y-11938062D01*
X66426933Y-11937738D01*
X66083157Y-12079783D01*
X65819908Y-12342573D01*
X65677262Y-12686101D01*
X65676938Y-13058067D01*
X65818983Y-13401843D01*
X66081773Y-13665092D01*
X66425301Y-13807738D01*
X66797267Y-13808062D01*
X67141043Y-13666017D01*
X67146770Y-13660300D01*
X67691600Y-13660300D01*
X67992925Y-13600363D01*
X68248376Y-13429676D01*
X69213017Y-12465035D01*
X69311483Y-12703343D01*
X69574273Y-12966592D01*
X69917801Y-13109238D01*
X70289767Y-13109562D01*
X70633543Y-12967517D01*
X70639270Y-12961800D01*
X71918989Y-12961800D01*
X71923773Y-12966592D01*
X72267301Y-13109238D01*
X72639267Y-13109562D01*
X72983043Y-12967517D01*
X73246292Y-12704727D01*
X73388938Y-12361199D01*
X73389079Y-12199800D01*
X73487577Y-12199800D01*
X73487438Y-12359567D01*
X73629483Y-12703343D01*
X73892273Y-12966592D01*
X74235801Y-13109238D01*
X74243893Y-13109245D01*
X74702000Y-13567352D01*
X74702000Y-17217713D01*
X74647637Y-17299073D01*
X74587700Y-17600398D01*
X74587700Y-18460900D01*
X74647637Y-18762225D01*
X74818324Y-19017676D01*
X75199324Y-19398676D01*
X75358182Y-19504822D01*
X75344908Y-19518073D01*
X75202262Y-19861601D01*
X75201938Y-20233567D01*
X75343983Y-20577343D01*
X75606773Y-20840592D01*
X75686759Y-20873805D01*
X75608157Y-20906283D01*
X75344908Y-21169073D01*
X75202262Y-21512601D01*
X75201938Y-21884567D01*
X75343983Y-22228343D01*
X75349700Y-22234070D01*
X75349700Y-23725316D01*
X75281363Y-23793534D01*
X75127276Y-24164617D01*
X75126925Y-24566420D01*
X75280364Y-24937772D01*
X75564234Y-25222137D01*
X75935317Y-25376224D01*
X76337120Y-25376575D01*
X76381006Y-25358442D01*
X73484824Y-28254624D01*
X73314137Y-28510075D01*
X73254200Y-28811400D01*
X73254200Y-33184248D01*
X72635948Y-33802500D01*
X43561600Y-33802500D01*
X43260275Y-33862437D01*
X43004824Y-34033124D01*
X35638824Y-41399124D01*
X35468137Y-41654575D01*
X35408200Y-41955900D01*
X35408200Y-51734900D01*
X35468137Y-52036225D01*
X35638824Y-52291676D01*
X36311924Y-52964776D01*
X36567375Y-53135463D01*
X36868700Y-53195400D01*
X37579127Y-53195400D01*
X37652510Y-53309441D01*
X37864710Y-53454431D01*
X38116600Y-53505440D01*
X38616600Y-53505440D01*
X38851917Y-53461162D01*
X39068041Y-53322090D01*
X39115734Y-53252289D01*
X39152510Y-53309441D01*
X39364710Y-53454431D01*
X39616600Y-53505440D01*
X40116600Y-53505440D01*
X40351917Y-53461162D01*
X40568041Y-53322090D01*
X40612424Y-53257133D01*
X40752206Y-53229329D01*
X40908749Y-53124730D01*
X40824100Y-53329090D01*
X40824100Y-53544650D01*
X40982850Y-53703400D01*
X41732100Y-53703400D01*
X41732100Y-52979150D01*
X41573350Y-52820400D01*
X41332791Y-52820400D01*
X41203128Y-52874108D01*
X41273596Y-52803640D01*
X42470100Y-52803640D01*
X42470100Y-52855480D01*
X42385409Y-52820400D01*
X42144850Y-52820400D01*
X41986100Y-52979150D01*
X41986100Y-53703400D01*
X42006100Y-53703400D01*
X42006100Y-53957400D01*
X41986100Y-53957400D01*
X41986100Y-54681650D01*
X42144850Y-54840400D01*
X42385409Y-54840400D01*
X42470100Y-54805320D01*
X42470100Y-55421560D01*
X42537771Y-55761766D01*
X42707166Y-56015283D01*
X42730482Y-56050178D01*
X42796704Y-56116400D01*
X22250033Y-56116400D01*
X20249784Y-54116150D01*
X40824100Y-54116150D01*
X40824100Y-54331710D01*
X40920773Y-54565099D01*
X41099402Y-54743727D01*
X41332791Y-54840400D01*
X41573350Y-54840400D01*
X41732100Y-54681650D01*
X41732100Y-53957400D01*
X40982850Y-53957400D01*
X40824100Y-54116150D01*
X20249784Y-54116150D01*
X19368100Y-53234466D01*
X19368100Y-30906900D01*
X19305263Y-30590995D01*
X19126317Y-30323183D01*
X19126314Y-30323181D01*
X17183217Y-28380083D01*
X16915406Y-28201137D01*
X16599500Y-28138300D01*
X12473657Y-28138300D01*
X12424790Y-28062359D01*
X12212590Y-27917369D01*
X11960700Y-27866360D01*
X11460700Y-27866360D01*
X11225383Y-27910638D01*
X11009259Y-28049710D01*
X10961566Y-28119511D01*
X10924790Y-28062359D01*
X10712590Y-27917369D01*
X10460700Y-27866360D01*
X9960700Y-27866360D01*
X9725383Y-27910638D01*
X9509259Y-28049710D01*
X9460881Y-28120514D01*
X9350494Y-28142471D01*
X9146938Y-28278483D01*
X9062082Y-28335182D01*
X8828990Y-28568274D01*
X8703000Y-28542760D01*
X7403000Y-28542760D01*
X7167683Y-28587038D01*
X6951559Y-28726110D01*
X6806569Y-28938310D01*
X6787502Y-29032466D01*
X6666618Y-28911582D01*
X6619701Y-28880233D01*
X6378206Y-28718871D01*
X6038000Y-28651200D01*
X5938943Y-28651200D01*
X5854890Y-28593769D01*
X5603000Y-28542760D01*
X4303000Y-28542760D01*
X4067683Y-28587038D01*
X3851559Y-28726110D01*
X3706569Y-28938310D01*
X3655560Y-29190200D01*
X3655560Y-29890200D01*
X3694574Y-30097542D01*
X3655560Y-30290200D01*
X3655560Y-30990200D01*
X3694574Y-31197542D01*
X3655560Y-31390200D01*
X3655560Y-32090200D01*
X3699838Y-32325517D01*
X3838910Y-32541641D01*
X4051110Y-32686631D01*
X4303000Y-32737640D01*
X5603000Y-32737640D01*
X5614000Y-32735570D01*
X5614000Y-32870842D01*
X5518569Y-33010510D01*
X5467560Y-33262400D01*
X5467560Y-34012400D01*
X5511838Y-34247717D01*
X5626000Y-34425130D01*
X5626000Y-48603289D01*
X5590300Y-48596060D01*
X4290300Y-48596060D01*
X4054983Y-48640338D01*
X3838859Y-48779410D01*
X3693869Y-48991610D01*
X3642860Y-49243500D01*
X3642860Y-49943500D01*
X3681874Y-50150842D01*
X3642860Y-50343500D01*
X3642860Y-51043500D01*
X3681874Y-51250842D01*
X3642860Y-51443500D01*
X3642860Y-52143500D01*
X3687138Y-52378817D01*
X3826210Y-52594941D01*
X4038410Y-52739931D01*
X4290300Y-52790940D01*
X5590300Y-52790940D01*
X5626000Y-52784223D01*
X5626000Y-52919279D01*
X5518569Y-53076510D01*
X5467560Y-53328400D01*
X5467560Y-54078400D01*
X5511838Y-54313717D01*
X5630055Y-54497432D01*
X5650175Y-58425902D01*
X5636458Y-58439595D01*
X5470929Y-58838233D01*
X5470552Y-59269873D01*
X5635386Y-59668800D01*
X5940335Y-59974282D01*
X6338973Y-60139811D01*
X6770613Y-60140188D01*
X7169540Y-59975354D01*
X7475022Y-59670405D01*
X7640551Y-59271767D01*
X7640928Y-58840127D01*
X7476094Y-58441200D01*
X7428030Y-58393052D01*
X7409015Y-54680397D01*
X7488691Y-54713400D01*
X7729250Y-54713400D01*
X7888000Y-54554650D01*
X7888000Y-53830400D01*
X8142000Y-53830400D01*
X8142000Y-54554650D01*
X8300750Y-54713400D01*
X8541309Y-54713400D01*
X8774698Y-54616727D01*
X8953327Y-54438099D01*
X9050000Y-54204710D01*
X9050000Y-53989150D01*
X8891250Y-53830400D01*
X8142000Y-53830400D01*
X7888000Y-53830400D01*
X7868000Y-53830400D01*
X7868000Y-53576400D01*
X7888000Y-53576400D01*
X7888000Y-53556400D01*
X8142000Y-53556400D01*
X8142000Y-53576400D01*
X8891250Y-53576400D01*
X9050000Y-53417650D01*
X9050000Y-53202090D01*
X8994380Y-53067811D01*
X9198094Y-53203929D01*
X9506244Y-53265224D01*
X9708810Y-53403631D01*
X9960700Y-53454640D01*
X10460700Y-53454640D01*
X10696017Y-53410362D01*
X10912141Y-53271290D01*
X10959834Y-53201489D01*
X10996610Y-53258641D01*
X11208810Y-53403631D01*
X11460700Y-53454640D01*
X11960700Y-53454640D01*
X12196017Y-53410362D01*
X12412141Y-53271290D01*
X12472672Y-53182700D01*
X14568466Y-53182700D01*
X14669100Y-53283333D01*
X14669100Y-54655900D01*
X14731937Y-54971806D01*
X14910883Y-55239617D01*
X20054381Y-60383114D01*
X20054383Y-60383117D01*
X20322195Y-60562063D01*
X20638100Y-60624900D01*
X143510600Y-60624900D01*
X143826506Y-60562063D01*
X144094317Y-60383117D01*
X146837514Y-57639919D01*
X146837517Y-57639917D01*
X147016463Y-57372105D01*
X147026382Y-57322237D01*
X147079301Y-57056200D01*
X147079300Y-57056195D01*
X147079300Y-55241175D01*
X148978803Y-55241175D01*
X149151233Y-55658486D01*
X149470235Y-55978045D01*
X149887244Y-56151203D01*
X150338775Y-56151597D01*
X150756086Y-55979167D01*
X151075645Y-55660165D01*
X151248803Y-55243156D01*
X151249197Y-54791625D01*
X151076767Y-54374314D01*
X150757765Y-54054755D01*
X150599772Y-53989150D01*
X153917600Y-53989150D01*
X153917600Y-54204710D01*
X154014273Y-54438099D01*
X154192902Y-54616727D01*
X154426291Y-54713400D01*
X154666850Y-54713400D01*
X154825600Y-54554650D01*
X154825600Y-53830400D01*
X154076350Y-53830400D01*
X153917600Y-53989150D01*
X150599772Y-53989150D01*
X150340756Y-53881597D01*
X149889225Y-53881203D01*
X149471914Y-54053633D01*
X149152355Y-54372635D01*
X148979197Y-54789644D01*
X148978803Y-55241175D01*
X147079300Y-55241175D01*
X147079300Y-34138313D01*
X147188638Y-33874999D01*
X147188962Y-33503033D01*
X147076459Y-33230754D01*
X147188638Y-32960599D01*
X147188962Y-32588633D01*
X147065938Y-32290892D01*
X147188638Y-31995399D01*
X147188962Y-31623433D01*
X147076459Y-31351154D01*
X147188638Y-31080999D01*
X147188962Y-30709033D01*
X147076459Y-30436754D01*
X147188638Y-30166599D01*
X147188962Y-29794633D01*
X147076459Y-29522354D01*
X147188638Y-29252199D01*
X147188962Y-28880233D01*
X147046917Y-28536457D01*
X146784127Y-28273208D01*
X146440599Y-28130562D01*
X146068633Y-28130238D01*
X145724857Y-28272283D01*
X145461608Y-28535073D01*
X145351482Y-28800284D01*
X142774483Y-31377283D01*
X142595537Y-31645094D01*
X142551477Y-31866600D01*
X142532700Y-31961000D01*
X142532700Y-32968967D01*
X142499933Y-32968938D01*
X142156157Y-33110983D01*
X141892908Y-33373773D01*
X141750262Y-33717301D01*
X141749938Y-34089267D01*
X141859600Y-34354670D01*
X141859600Y-34749387D01*
X141750262Y-35012701D01*
X141749938Y-35384667D01*
X141891983Y-35728443D01*
X142154773Y-35991692D01*
X142498301Y-36134338D01*
X142532700Y-36134368D01*
X142532700Y-55495067D01*
X141911366Y-56116400D01*
X123476776Y-56116400D01*
X123795758Y-55797418D01*
X123872088Y-55683182D01*
X123988469Y-55509006D01*
X124056140Y-55168800D01*
X124056140Y-52578000D01*
X123988469Y-52237794D01*
X123795758Y-51949382D01*
X123023958Y-51177582D01*
X122900374Y-51095006D01*
X122735546Y-50984871D01*
X122443940Y-50926867D01*
X122443940Y-50356200D01*
X122404926Y-50148858D01*
X122443940Y-49956200D01*
X122443940Y-49256200D01*
X122399662Y-49020883D01*
X122260590Y-48804759D01*
X122217574Y-48775367D01*
X126702378Y-48775367D01*
X126844423Y-49119143D01*
X127107213Y-49382392D01*
X127450741Y-49525038D01*
X127822707Y-49525362D01*
X128088110Y-49415700D01*
X135714740Y-49415700D01*
X136030646Y-49352863D01*
X136298457Y-49173917D01*
X139371857Y-46100517D01*
X139550803Y-45832706D01*
X139613641Y-45516800D01*
X139613640Y-45516795D01*
X139613640Y-39026134D01*
X140602979Y-38036794D01*
X140866483Y-37927917D01*
X141129732Y-37665127D01*
X141272378Y-37321599D01*
X141272702Y-36949633D01*
X141130657Y-36605857D01*
X140867867Y-36342608D01*
X140524339Y-36199962D01*
X140152373Y-36199638D01*
X139808597Y-36341683D01*
X139545348Y-36604473D01*
X139435222Y-36869685D01*
X138204423Y-38100483D01*
X138025477Y-38368294D01*
X138025477Y-38368295D01*
X137962640Y-38684200D01*
X137962640Y-45174866D01*
X135372806Y-47764700D01*
X128087653Y-47764700D01*
X127824339Y-47655362D01*
X127452373Y-47655038D01*
X127108597Y-47797083D01*
X126845348Y-48059873D01*
X126702702Y-48403401D01*
X126702378Y-48775367D01*
X122217574Y-48775367D01*
X122048390Y-48659769D01*
X121933900Y-48636584D01*
X121933900Y-47404800D01*
X121873963Y-47103475D01*
X121703276Y-46848024D01*
X121182692Y-46327440D01*
X121500700Y-46327440D01*
X121736017Y-46283162D01*
X121952141Y-46144090D01*
X122097131Y-45931890D01*
X122148140Y-45680000D01*
X122148140Y-44880000D01*
X122103862Y-44644683D01*
X122037371Y-44541354D01*
X122039027Y-44539698D01*
X122135700Y-44306309D01*
X122135700Y-44065750D01*
X121976950Y-43907000D01*
X121252700Y-43907000D01*
X121252700Y-43927000D01*
X120998700Y-43927000D01*
X120998700Y-43907000D01*
X120978700Y-43907000D01*
X120978700Y-43653000D01*
X120998700Y-43653000D01*
X120998700Y-42903750D01*
X121252700Y-42903750D01*
X121252700Y-43653000D01*
X121976950Y-43653000D01*
X122135700Y-43494250D01*
X122135700Y-43253691D01*
X122039027Y-43020302D01*
X121860399Y-42841673D01*
X121627010Y-42745000D01*
X121411450Y-42745000D01*
X121252700Y-42903750D01*
X120998700Y-42903750D01*
X120839950Y-42745000D01*
X120624390Y-42745000D01*
X120391001Y-42841673D01*
X120212373Y-43020302D01*
X120163200Y-43139016D01*
X120163200Y-43085498D01*
X120004452Y-43085498D01*
X120163200Y-42926750D01*
X120163200Y-42586191D01*
X120066527Y-42352802D01*
X119887899Y-42174173D01*
X119654510Y-42077500D01*
X119188950Y-42077500D01*
X119030200Y-42236250D01*
X119030200Y-43085500D01*
X119050200Y-43085500D01*
X119050200Y-43339500D01*
X119030200Y-43339500D01*
X119030200Y-43359500D01*
X118776200Y-43359500D01*
X118776200Y-43339500D01*
X117801950Y-43339500D01*
X117643200Y-43498250D01*
X117643200Y-43838809D01*
X117739873Y-44072198D01*
X117881110Y-44213436D01*
X117826759Y-44248410D01*
X117681769Y-44460610D01*
X117630760Y-44712500D01*
X117630760Y-45712500D01*
X117675038Y-45947817D01*
X117727020Y-46028600D01*
X115949251Y-46028600D01*
X115910427Y-45989708D01*
X115566899Y-45847062D01*
X115194933Y-45846738D01*
X114851157Y-45988783D01*
X114587908Y-46251573D01*
X114445262Y-46595101D01*
X114444938Y-46967067D01*
X114586983Y-47310843D01*
X114849773Y-47574092D01*
X115193301Y-47716738D01*
X115565267Y-47717062D01*
X115840351Y-47603400D01*
X118368089Y-47603400D01*
X118372873Y-47608192D01*
X118716401Y-47750838D01*
X119088367Y-47751162D01*
X119432143Y-47609117D01*
X119437870Y-47603400D01*
X120231548Y-47603400D01*
X120359100Y-47730952D01*
X120359100Y-48634614D01*
X120261183Y-48653038D01*
X120161472Y-48717200D01*
X120048800Y-48717200D01*
X119708594Y-48784871D01*
X119420182Y-48977582D01*
X119311891Y-49085873D01*
X119299662Y-49020883D01*
X119160590Y-48804759D01*
X118948390Y-48659769D01*
X118696500Y-48608760D01*
X117448196Y-48608760D01*
X117240618Y-48401182D01*
X117155762Y-48344483D01*
X116952206Y-48208471D01*
X116843760Y-48186900D01*
X116806090Y-48128359D01*
X116593890Y-47983369D01*
X116342000Y-47932360D01*
X115842000Y-47932360D01*
X115606683Y-47976638D01*
X115390559Y-48115710D01*
X115342866Y-48185511D01*
X115306090Y-48128359D01*
X115093890Y-47983369D01*
X114842000Y-47932360D01*
X114342000Y-47932360D01*
X114106683Y-47976638D01*
X113945000Y-48080678D01*
X113945000Y-42586191D01*
X117643200Y-42586191D01*
X117643200Y-42926750D01*
X117801950Y-43085500D01*
X118776200Y-43085500D01*
X118776200Y-42236250D01*
X118617450Y-42077500D01*
X118151890Y-42077500D01*
X117918501Y-42174173D01*
X117739873Y-42352802D01*
X117643200Y-42586191D01*
X113945000Y-42586191D01*
X113945000Y-22651905D01*
X113945001Y-22651900D01*
X113885063Y-22350575D01*
X113714376Y-22095124D01*
X108835552Y-17216300D01*
X148717600Y-17216300D01*
X149018925Y-17156363D01*
X149274376Y-16985676D01*
X152893876Y-13366176D01*
X153064563Y-13110725D01*
X153124500Y-12809400D01*
X153124500Y-12379340D01*
X159207800Y-18462641D01*
X159207800Y-28651200D01*
X159025943Y-28651200D01*
X158941890Y-28593769D01*
X158690000Y-28542760D01*
X157390000Y-28542760D01*
X157154683Y-28587038D01*
X157054972Y-28651200D01*
X156878800Y-28651200D01*
X156538594Y-28718871D01*
X156297099Y-28880233D01*
X156250182Y-28911582D01*
X156195335Y-28966429D01*
X156193162Y-28954883D01*
X156054090Y-28738759D01*
X155841890Y-28593769D01*
X155590000Y-28542760D01*
X154290000Y-28542760D01*
X154173178Y-28564742D01*
X153943618Y-28335182D01*
X153858762Y-28278483D01*
X153655206Y-28142471D01*
X153532196Y-28118003D01*
X153496390Y-28062359D01*
X153284190Y-27917369D01*
X153032300Y-27866360D01*
X152532300Y-27866360D01*
X152296983Y-27910638D01*
X152080859Y-28049710D01*
X152033166Y-28119511D01*
X151996390Y-28062359D01*
X151784190Y-27917369D01*
X151532300Y-27866360D01*
X151032300Y-27866360D01*
X150796983Y-27910638D01*
X150580859Y-28049710D01*
X150532270Y-28120822D01*
X150331999Y-28037662D01*
X149960033Y-28037338D01*
X149616257Y-28179383D01*
X149353008Y-28442173D01*
X149210362Y-28785701D01*
X149210038Y-29157667D01*
X149352083Y-29501443D01*
X149614873Y-29764692D01*
X149694859Y-29797905D01*
X149616257Y-29830383D01*
X149353008Y-30093173D01*
X149210362Y-30436701D01*
X149210038Y-30808667D01*
X149352083Y-31152443D01*
X149614873Y-31415692D01*
X149694859Y-31448905D01*
X149616257Y-31481383D01*
X149353008Y-31744173D01*
X149210362Y-32087701D01*
X149210038Y-32459667D01*
X149320875Y-32727915D01*
X149003033Y-32727638D01*
X148659257Y-32869683D01*
X148396008Y-33132473D01*
X148253362Y-33476001D01*
X148253183Y-33681981D01*
X148091208Y-33843673D01*
X147948562Y-34187201D01*
X147948238Y-34559167D01*
X148057900Y-34824570D01*
X148057900Y-51078700D01*
X148120737Y-51394606D01*
X148299683Y-51662417D01*
X149578183Y-52940917D01*
X149845994Y-53119863D01*
X150161900Y-53182700D01*
X150519343Y-53182700D01*
X150568210Y-53258641D01*
X150780410Y-53403631D01*
X151032300Y-53454640D01*
X151532300Y-53454640D01*
X151767617Y-53410362D01*
X151983741Y-53271290D01*
X152031434Y-53201489D01*
X152068210Y-53258641D01*
X152280410Y-53403631D01*
X152532300Y-53454640D01*
X153032300Y-53454640D01*
X153267617Y-53410362D01*
X153483741Y-53271290D01*
X153496054Y-53253270D01*
X153744106Y-53203929D01*
X153982940Y-53044345D01*
X153917600Y-53202090D01*
X153917600Y-53417650D01*
X154076350Y-53576400D01*
X154825600Y-53576400D01*
X154825600Y-53556400D01*
X155079600Y-53556400D01*
X155079600Y-53576400D01*
X155099600Y-53576400D01*
X155099600Y-53830400D01*
X155079600Y-53830400D01*
X155079600Y-54554650D01*
X155238350Y-54713400D01*
X155478909Y-54713400D01*
X155712298Y-54616727D01*
X155713668Y-54615357D01*
X155800710Y-54674831D01*
X156052600Y-54725840D01*
X156852600Y-54725840D01*
X157087917Y-54681562D01*
X157304041Y-54542490D01*
X157449031Y-54330290D01*
X157500040Y-54078400D01*
X157500040Y-53328400D01*
X157455762Y-53093083D01*
X157341600Y-52915670D01*
X157341600Y-52781139D01*
X157390000Y-52790940D01*
X158690000Y-52790940D01*
X158925317Y-52746662D01*
X159025028Y-52682500D01*
X159207800Y-52682500D01*
X159207800Y-54622899D01*
X155791700Y-58039000D01*
X148390822Y-58039000D01*
X148225107Y-57970189D01*
X147793467Y-57969812D01*
X147394540Y-58134646D01*
X147089058Y-58439595D01*
X146923529Y-58838233D01*
X146923152Y-59269873D01*
X147087986Y-59668800D01*
X147392935Y-59974282D01*
X147791573Y-60139811D01*
X148223213Y-60140188D01*
X148390660Y-60071000D01*
X156212540Y-60071000D01*
X156536840Y-60006493D01*
X156601347Y-59993662D01*
X156930960Y-59773420D01*
X157304055Y-59400325D01*
X160606387Y-59400325D01*
X160968716Y-60277229D01*
X161639042Y-60948726D01*
X162515313Y-61312585D01*
X163464125Y-61313413D01*
X164341029Y-60951084D01*
X165012526Y-60280758D01*
X165376385Y-59404487D01*
X165377213Y-58455675D01*
X165014884Y-57578771D01*
X164344558Y-56907274D01*
X163468287Y-56543415D01*
X162519475Y-56542587D01*
X161642571Y-56904916D01*
X160971074Y-57575242D01*
X160607215Y-58451513D01*
X160606387Y-59400325D01*
X157304055Y-59400325D01*
X160942220Y-55762161D01*
X161111373Y-55509006D01*
X161162462Y-55432546D01*
X161239800Y-55043740D01*
X161239800Y-18041800D01*
X161211937Y-17901723D01*
X161162462Y-17652993D01*
X160942221Y-17323380D01*
X154253077Y-10634237D01*
X154184554Y-10468400D01*
X154153200Y-10436991D01*
X154153200Y-7792900D01*
X155950987Y-7792900D01*
X156214301Y-7902238D01*
X156586267Y-7902562D01*
X156851670Y-7792900D01*
X158490987Y-7792900D01*
X158754301Y-7902238D01*
X159126267Y-7902562D01*
X159470043Y-7760517D01*
X159733292Y-7497727D01*
X159875938Y-7154199D01*
X159876262Y-6782233D01*
X159734217Y-6438457D01*
X159471427Y-6175208D01*
X159127899Y-6032562D01*
X158755933Y-6032238D01*
X158490530Y-6141900D01*
X156851213Y-6141900D01*
X156587899Y-6032562D01*
X156215933Y-6032238D01*
X155950530Y-6141900D01*
X154022152Y-6141900D01*
X154822252Y-5341800D01*
X155702600Y-5341800D01*
X156003925Y-5281863D01*
X156259376Y-5111176D01*
X156844839Y-4525713D01*
X157103111Y-4698285D01*
X157676600Y-4812359D01*
X158250089Y-4698285D01*
X158736270Y-4373429D01*
X159061126Y-3887248D01*
X159175200Y-3313759D01*
X159175200Y-3255041D01*
X159061126Y-2681552D01*
X158736270Y-2195371D01*
X158465428Y-2014400D01*
X158736270Y-1833429D01*
X159061126Y-1347248D01*
X159175200Y-773759D01*
X159175200Y-715041D01*
X159126921Y-472325D01*
X160606387Y-472325D01*
X160968716Y-1349229D01*
X161639042Y-2020726D01*
X162515313Y-2384585D01*
X163464125Y-2385413D01*
X164341029Y-2023084D01*
X165012526Y-1352758D01*
X165376385Y-476487D01*
X165377213Y472325D01*
X165014884Y1349229D01*
X164344558Y2020726D01*
X163468287Y2384585D01*
X162519475Y2385413D01*
X161642571Y2023084D01*
X160971074Y1352758D01*
X160607215Y476487D01*
X160606387Y-472325D01*
X159126921Y-472325D01*
X159061126Y-141552D01*
X158736270Y344629D01*
X158250089Y669485D01*
X157676600Y783559D01*
X157103111Y669485D01*
X156616930Y344629D01*
X156406600Y29848D01*
X156196270Y344629D01*
X155710089Y669485D01*
X155136600Y783559D01*
X154563111Y669485D01*
X154076930Y344629D01*
X153866600Y29848D01*
X153656270Y344629D01*
X153170089Y669485D01*
X152596600Y783559D01*
X152023111Y669485D01*
X151536930Y344629D01*
X151326600Y29848D01*
X151116270Y344629D01*
X150630089Y669485D01*
X150056600Y783559D01*
X149483111Y669485D01*
X148996930Y344629D01*
X148780936Y21372D01*
X148723421Y144090D01*
X148291547Y538288D01*
X147875626Y710558D01*
X147643600Y589417D01*
X147643600Y-617400D01*
X147663600Y-617400D01*
X147663600Y-871400D01*
X147643600Y-871400D01*
X147643600Y-3157400D01*
X147663600Y-3157400D01*
X147663600Y-3411400D01*
X147643600Y-3411400D01*
X147643600Y-4618217D01*
X147875626Y-4739358D01*
X147993700Y-4690453D01*
X147993700Y-4808400D01*
X148053637Y-5109725D01*
X148224324Y-5365176D01*
X149517700Y-6658552D01*
X149517700Y-11594248D01*
X147502448Y-13609500D01*
X124723252Y-13609500D01*
X124633756Y-13520004D01*
X124633762Y-13513233D01*
X124491717Y-13169457D01*
X124228927Y-12906208D01*
X123885399Y-12763562D01*
X123513433Y-12763238D01*
X123510900Y-12764285D01*
X123461323Y-12644300D01*
X141986600Y-12644300D01*
X142287925Y-12584363D01*
X142543376Y-12413676D01*
X145533376Y-9423676D01*
X145704063Y-9168225D01*
X145764000Y-8866900D01*
X145764000Y-4555354D01*
X146036270Y-4373429D01*
X146252264Y-4050172D01*
X146309779Y-4172890D01*
X146741653Y-4567088D01*
X147157574Y-4739358D01*
X147389600Y-4618217D01*
X147389600Y-3411400D01*
X147369600Y-3411400D01*
X147369600Y-3157400D01*
X147389600Y-3157400D01*
X147389600Y-871400D01*
X147369600Y-871400D01*
X147369600Y-617400D01*
X147389600Y-617400D01*
X147389600Y589417D01*
X147157574Y710558D01*
X146741653Y538288D01*
X146309779Y144090D01*
X146252264Y21372D01*
X146036270Y344629D01*
X145550089Y669485D01*
X144976600Y783559D01*
X144630948Y714804D01*
X142739376Y2606376D01*
X142483925Y2777063D01*
X142268558Y2819902D01*
X165806508Y2819902D01*
X165806508Y-61748307D01*
X-2823494Y-61748307D01*
X-2823494Y-59400325D01*
X-2385413Y-59400325D01*
X-2023084Y-60277229D01*
X-1352758Y-60948726D01*
X-476487Y-61312585D01*
X472325Y-61313413D01*
X1349229Y-60951084D01*
X2020726Y-60280758D01*
X2384585Y-59404487D01*
X2385413Y-58455675D01*
X2023084Y-57578771D01*
X1352758Y-56907274D01*
X476487Y-56543415D01*
X-472325Y-56542587D01*
X-1349229Y-56904916D01*
X-2020726Y-57575242D01*
X-2384585Y-58451513D01*
X-2385413Y-59400325D01*
X-2823494Y-59400325D01*
X-2823494Y-55241175D01*
X2192203Y-55241175D01*
X2364633Y-55658486D01*
X2683635Y-55978045D01*
X3100644Y-56151203D01*
X3552175Y-56151597D01*
X3969486Y-55979167D01*
X4289045Y-55660165D01*
X4462203Y-55243156D01*
X4462597Y-54791625D01*
X4290167Y-54374314D01*
X3971165Y-54054755D01*
X3554156Y-53881597D01*
X3102625Y-53881203D01*
X2685314Y-54053633D01*
X2365755Y-54372635D01*
X2192597Y-54789644D01*
X2192203Y-55241175D01*
X-2823494Y-55241175D01*
X-2823494Y-12052100D01*
X-1700500Y-12052100D01*
X-1700500Y-25593600D01*
X-1688299Y-25717481D01*
X-1650239Y-25908823D01*
X-1555422Y-26137732D01*
X-1447035Y-26299943D01*
X-1271843Y-26475135D01*
X-1109632Y-26583522D01*
X-880723Y-26678339D01*
X-689381Y-26716399D01*
X-565500Y-26728600D01*
X13230000Y-26728600D01*
X13353881Y-26716399D01*
X13545223Y-26678339D01*
X13774132Y-26583522D01*
X13936343Y-26475135D01*
X14111535Y-26299943D01*
X14219922Y-26137732D01*
X14238000Y-26094088D01*
X14256078Y-26137732D01*
X14364465Y-26299943D01*
X14539657Y-26475135D01*
X14701868Y-26583522D01*
X14930777Y-26678339D01*
X15122119Y-26716399D01*
X15246000Y-26728600D01*
X29041500Y-26728600D01*
X29165381Y-26716399D01*
X29356723Y-26678339D01*
X29585632Y-26583522D01*
X29747843Y-26475135D01*
X29923035Y-26299943D01*
X30031422Y-26137732D01*
X30126239Y-25908823D01*
X30164299Y-25717481D01*
X30176500Y-25593600D01*
X30176500Y-21694067D01*
X63517938Y-21694067D01*
X63659983Y-22037843D01*
X63922773Y-22301092D01*
X64187984Y-22411218D01*
X65710881Y-23934114D01*
X65710883Y-23934117D01*
X65871087Y-24041162D01*
X65978694Y-24113063D01*
X66294600Y-24175900D01*
X72804087Y-24175900D01*
X73067401Y-24285238D01*
X73439367Y-24285562D01*
X73783143Y-24143517D01*
X74046392Y-23880727D01*
X74189038Y-23537199D01*
X74189362Y-23165233D01*
X74047317Y-22821457D01*
X73784527Y-22558208D01*
X73440999Y-22415562D01*
X73069033Y-22415238D01*
X72803630Y-22524900D01*
X66636533Y-22524900D01*
X65355094Y-21243460D01*
X65246217Y-20979957D01*
X64983427Y-20716708D01*
X64639899Y-20574062D01*
X64267933Y-20573738D01*
X63924157Y-20715783D01*
X63660908Y-20978573D01*
X63518262Y-21322101D01*
X63517938Y-21694067D01*
X30176500Y-21694067D01*
X30176500Y-13499987D01*
X39463152Y-13499987D01*
X39681157Y-14027600D01*
X40084477Y-14431624D01*
X40611709Y-14650550D01*
X41182587Y-14651048D01*
X41710200Y-14433043D01*
X41920063Y-14223545D01*
X42570261Y-14223545D01*
X42644395Y-14469664D01*
X43181623Y-14662765D01*
X43751854Y-14635578D01*
X44152405Y-14469664D01*
X44226539Y-14223545D01*
X43398400Y-13395405D01*
X42570261Y-14223545D01*
X41920063Y-14223545D01*
X42114224Y-14029723D01*
X42141823Y-13963256D01*
X42144536Y-13969805D01*
X42390655Y-14043939D01*
X43218795Y-13215800D01*
X43578005Y-13215800D01*
X44406145Y-14043939D01*
X44652264Y-13969805D01*
X44654596Y-13963317D01*
X44681157Y-14027600D01*
X45084477Y-14431624D01*
X45611709Y-14650550D01*
X46182587Y-14651048D01*
X46710200Y-14433043D01*
X47114224Y-14029723D01*
X47333150Y-13502491D01*
X47333648Y-12931613D01*
X47115643Y-12404000D01*
X46712323Y-11999976D01*
X46185091Y-11781050D01*
X45614213Y-11780552D01*
X45086600Y-11998557D01*
X44682576Y-12401877D01*
X44654977Y-12468344D01*
X44652264Y-12461795D01*
X44406145Y-12387661D01*
X43578005Y-13215800D01*
X43218795Y-13215800D01*
X42390655Y-12387661D01*
X42144536Y-12461795D01*
X42142204Y-12468283D01*
X42115643Y-12404000D01*
X41920040Y-12208055D01*
X42570261Y-12208055D01*
X43398400Y-13036195D01*
X44226539Y-12208055D01*
X44152405Y-11961936D01*
X43615177Y-11768835D01*
X43044946Y-11796022D01*
X42644395Y-11961936D01*
X42570261Y-12208055D01*
X41920040Y-12208055D01*
X41712323Y-11999976D01*
X41185091Y-11781050D01*
X40614213Y-11780552D01*
X40086600Y-11998557D01*
X39682576Y-12401877D01*
X39463650Y-12929109D01*
X39463152Y-13499987D01*
X30176500Y-13499987D01*
X30176500Y-12052100D01*
X30164299Y-11928219D01*
X30126239Y-11736877D01*
X30031422Y-11507968D01*
X29923035Y-11345757D01*
X29747843Y-11170565D01*
X29585632Y-11062178D01*
X29356723Y-10967361D01*
X29165381Y-10929301D01*
X29041500Y-10917100D01*
X15246000Y-10917100D01*
X15122119Y-10929301D01*
X14930777Y-10967361D01*
X14701868Y-11062178D01*
X14539657Y-11170565D01*
X14364465Y-11345757D01*
X14256078Y-11507968D01*
X14238000Y-11551612D01*
X14219922Y-11507968D01*
X14111535Y-11345757D01*
X13936343Y-11170565D01*
X13774132Y-11062178D01*
X13545223Y-10967361D01*
X13353881Y-10929301D01*
X13230000Y-10917100D01*
X-565500Y-10917100D01*
X-689381Y-10929301D01*
X-880723Y-10967361D01*
X-1109632Y-11062178D01*
X-1271843Y-11170565D01*
X-1447035Y-11345757D01*
X-1555422Y-11507968D01*
X-1650239Y-11736877D01*
X-1688299Y-11928219D01*
X-1700500Y-12052100D01*
X-2823494Y-12052100D01*
X-2823494Y-4572000D01*
X11482627Y-4572000D01*
X11591860Y-5121151D01*
X11902929Y-5586698D01*
X12368476Y-5897767D01*
X12917627Y-6007000D01*
X12973853Y-6007000D01*
X13523004Y-5897767D01*
X13988551Y-5586698D01*
X14024850Y-5532373D01*
X14107413Y-5731699D01*
X14286042Y-5910327D01*
X14519431Y-6007000D01*
X15159990Y-6007000D01*
X15318740Y-5848250D01*
X15318740Y-4699000D01*
X15572740Y-4699000D01*
X15572740Y-5848250D01*
X15731490Y-6007000D01*
X16372049Y-6007000D01*
X16385206Y-6001550D01*
X34763400Y-6001550D01*
X34763400Y-7642110D01*
X34860073Y-7875499D01*
X35038702Y-8054127D01*
X35272091Y-8150800D01*
X36512650Y-8150800D01*
X36671400Y-7992050D01*
X36671400Y-5842800D01*
X36925400Y-5842800D01*
X36925400Y-7992050D01*
X37084150Y-8150800D01*
X38324709Y-8150800D01*
X38558098Y-8054127D01*
X38646858Y-7965367D01*
X42448638Y-7965367D01*
X42590683Y-8309143D01*
X42853473Y-8572392D01*
X43197001Y-8715038D01*
X43568967Y-8715362D01*
X43834370Y-8605700D01*
X45676887Y-8605700D01*
X45940201Y-8715038D01*
X46312167Y-8715362D01*
X46655943Y-8573317D01*
X46919192Y-8310527D01*
X47061838Y-7966999D01*
X47062162Y-7595033D01*
X46920117Y-7251257D01*
X46657327Y-6988008D01*
X46313799Y-6845362D01*
X45941833Y-6845038D01*
X45676430Y-6954700D01*
X43833913Y-6954700D01*
X43570599Y-6845362D01*
X43198633Y-6845038D01*
X42854857Y-6987083D01*
X42591608Y-7249873D01*
X42448962Y-7593401D01*
X42448638Y-7965367D01*
X38646858Y-7965367D01*
X38736727Y-7875499D01*
X38833400Y-7642110D01*
X38833400Y-6001550D01*
X47963400Y-6001550D01*
X47963400Y-7642110D01*
X48060073Y-7875499D01*
X48238702Y-8054127D01*
X48472091Y-8150800D01*
X49712650Y-8150800D01*
X49871400Y-7992050D01*
X49871400Y-5842800D01*
X50125400Y-5842800D01*
X50125400Y-7992050D01*
X50284150Y-8150800D01*
X51524709Y-8150800D01*
X51758098Y-8054127D01*
X51936727Y-7875499D01*
X52033400Y-7642110D01*
X52033400Y-6244885D01*
X68995054Y-6244885D01*
X69026557Y-6705286D01*
X69142138Y-6984325D01*
X69198506Y-6994745D01*
X69185273Y-7007955D01*
X69008302Y-7434149D01*
X69007899Y-7895626D01*
X69184126Y-8322129D01*
X69510155Y-8648727D01*
X69936349Y-8825698D01*
X70397826Y-8826101D01*
X70803572Y-8658451D01*
X71206349Y-8825698D01*
X71667826Y-8826101D01*
X72073572Y-8658451D01*
X72476349Y-8825698D01*
X72937826Y-8826101D01*
X73343572Y-8658451D01*
X73746349Y-8825698D01*
X74207826Y-8826101D01*
X74613572Y-8658451D01*
X75016349Y-8825698D01*
X75477826Y-8826101D01*
X75904329Y-8649874D01*
X76230927Y-8323845D01*
X76407898Y-7897651D01*
X76408301Y-7436174D01*
X76325874Y-7236684D01*
X76369531Y-7172790D01*
X76413477Y-6955775D01*
X80348003Y-6955775D01*
X80520433Y-7373086D01*
X80839435Y-7692645D01*
X81256444Y-7865803D01*
X81707975Y-7866197D01*
X82125286Y-7693767D01*
X82444845Y-7374765D01*
X82618003Y-6957756D01*
X82618397Y-6506225D01*
X82445967Y-6088914D01*
X82126965Y-5769355D01*
X81709956Y-5596197D01*
X81258425Y-5595803D01*
X80841114Y-5768233D01*
X80521555Y-6087235D01*
X80348397Y-6504244D01*
X80348003Y-6955775D01*
X76413477Y-6955775D01*
X76420540Y-6920900D01*
X76420540Y-5870900D01*
X76376262Y-5635583D01*
X76237190Y-5419459D01*
X76024990Y-5274469D01*
X75773100Y-5223460D01*
X74723100Y-5223460D01*
X74487783Y-5267738D01*
X74410495Y-5317471D01*
X74129115Y-5222854D01*
X73668714Y-5254357D01*
X73389675Y-5369938D01*
X73352306Y-5572086D01*
X73343100Y-5581292D01*
X73333894Y-5572086D01*
X73296525Y-5369938D01*
X72859115Y-5222854D01*
X72398714Y-5254357D01*
X72119675Y-5369938D01*
X72109255Y-5426306D01*
X72096045Y-5413073D01*
X71669851Y-5236102D01*
X71208374Y-5235699D01*
X70781871Y-5411926D01*
X70767026Y-5426745D01*
X70756525Y-5369938D01*
X70319115Y-5222854D01*
X69858714Y-5254357D01*
X69579675Y-5369938D01*
X69539433Y-5587627D01*
X70168100Y-6216295D01*
X70182243Y-6202153D01*
X70278185Y-6298095D01*
X70278014Y-6493876D01*
X70265905Y-6505985D01*
X70070124Y-6505814D01*
X69974352Y-6410042D01*
X69988495Y-6395900D01*
X69359827Y-5767233D01*
X69142138Y-5807475D01*
X68995054Y-6244885D01*
X52033400Y-6244885D01*
X52033400Y-6001550D01*
X51874650Y-5842800D01*
X50125400Y-5842800D01*
X49871400Y-5842800D01*
X48122150Y-5842800D01*
X47963400Y-6001550D01*
X38833400Y-6001550D01*
X38674650Y-5842800D01*
X36925400Y-5842800D01*
X36671400Y-5842800D01*
X34922150Y-5842800D01*
X34763400Y-6001550D01*
X16385206Y-6001550D01*
X16605438Y-5910327D01*
X16784067Y-5731699D01*
X16880740Y-5498310D01*
X16880740Y-4857750D01*
X16721990Y-4699000D01*
X15572740Y-4699000D01*
X15318740Y-4699000D01*
X15298740Y-4699000D01*
X15298740Y-4445000D01*
X15318740Y-4445000D01*
X15318740Y-3295750D01*
X15572740Y-3295750D01*
X15572740Y-4445000D01*
X16721990Y-4445000D01*
X16880740Y-4286250D01*
X16880740Y-3645690D01*
X16784067Y-3412301D01*
X16605438Y-3233673D01*
X16372049Y-3137000D01*
X15731490Y-3137000D01*
X15572740Y-3295750D01*
X15318740Y-3295750D01*
X15159990Y-3137000D01*
X14519431Y-3137000D01*
X14286042Y-3233673D01*
X14107413Y-3412301D01*
X14024850Y-3611627D01*
X13988551Y-3557302D01*
X13961740Y-3539387D01*
X13961740Y-3530440D01*
X14444181Y-3048000D01*
X29401300Y-3048000D01*
X30179464Y-3826165D01*
X30247986Y-3992000D01*
X30552935Y-4297482D01*
X30951573Y-4463011D01*
X31383213Y-4463388D01*
X31782140Y-4298554D01*
X32087622Y-3993605D01*
X32172377Y-3789490D01*
X34763400Y-3789490D01*
X34763400Y-5430050D01*
X34922150Y-5588800D01*
X36671400Y-5588800D01*
X36671400Y-3439550D01*
X36925400Y-3439550D01*
X36925400Y-5588800D01*
X38674650Y-5588800D01*
X38833400Y-5430050D01*
X38833400Y-3789490D01*
X47963400Y-3789490D01*
X47963400Y-5430050D01*
X48122150Y-5588800D01*
X49871400Y-5588800D01*
X49871400Y-3439550D01*
X50125400Y-3439550D01*
X50125400Y-5588800D01*
X51874650Y-5588800D01*
X52033400Y-5430050D01*
X52033400Y-3789490D01*
X52012358Y-3738690D01*
X110988800Y-3738690D01*
X110988800Y-5379250D01*
X111147550Y-5538000D01*
X112896800Y-5538000D01*
X112896800Y-3388750D01*
X113150800Y-3388750D01*
X113150800Y-5538000D01*
X114900050Y-5538000D01*
X115058800Y-5379250D01*
X115058800Y-3738690D01*
X124188800Y-3738690D01*
X124188800Y-5379250D01*
X124347550Y-5538000D01*
X126096800Y-5538000D01*
X126096800Y-3388750D01*
X126350800Y-3388750D01*
X126350800Y-5538000D01*
X128100050Y-5538000D01*
X128258800Y-5379250D01*
X128258800Y-3738690D01*
X128162127Y-3505301D01*
X127983498Y-3326673D01*
X127750109Y-3230000D01*
X126509550Y-3230000D01*
X126350800Y-3388750D01*
X126096800Y-3388750D01*
X125938050Y-3230000D01*
X124697491Y-3230000D01*
X124464102Y-3326673D01*
X124285473Y-3505301D01*
X124188800Y-3738690D01*
X115058800Y-3738690D01*
X114962127Y-3505301D01*
X114783498Y-3326673D01*
X114550109Y-3230000D01*
X113309550Y-3230000D01*
X113150800Y-3388750D01*
X112896800Y-3388750D01*
X112738050Y-3230000D01*
X111497491Y-3230000D01*
X111264102Y-3326673D01*
X111085473Y-3505301D01*
X110988800Y-3738690D01*
X52012358Y-3738690D01*
X51936727Y-3556101D01*
X51758098Y-3377473D01*
X51524709Y-3280800D01*
X50284150Y-3280800D01*
X50125400Y-3439550D01*
X49871400Y-3439550D01*
X49712650Y-3280800D01*
X48472091Y-3280800D01*
X48238702Y-3377473D01*
X48060073Y-3556101D01*
X47963400Y-3789490D01*
X38833400Y-3789490D01*
X38736727Y-3556101D01*
X38558098Y-3377473D01*
X38324709Y-3280800D01*
X37084150Y-3280800D01*
X36925400Y-3439550D01*
X36671400Y-3439550D01*
X36512650Y-3280800D01*
X35272091Y-3280800D01*
X35038702Y-3377473D01*
X34860073Y-3556101D01*
X34763400Y-3789490D01*
X32172377Y-3789490D01*
X32253151Y-3594967D01*
X32253528Y-3163327D01*
X32088694Y-2764400D01*
X31783745Y-2458918D01*
X31616419Y-2389438D01*
X30821254Y-1594273D01*
X33357812Y-1594273D01*
X33522646Y-1993200D01*
X33827595Y-2298682D01*
X34226233Y-2464211D01*
X34657873Y-2464588D01*
X34825320Y-2395400D01*
X114426118Y-2395400D01*
X114591833Y-2464211D01*
X115023473Y-2464588D01*
X115422400Y-2299754D01*
X115727882Y-1994805D01*
X115893411Y-1596167D01*
X115893788Y-1164527D01*
X115728954Y-765600D01*
X115424005Y-460118D01*
X115025367Y-294589D01*
X114593727Y-294212D01*
X114426280Y-363400D01*
X113276921Y-363400D01*
X113163317Y-88457D01*
X112900527Y174792D01*
X112556999Y317438D01*
X112185033Y317762D01*
X111841257Y175717D01*
X111578008Y-87073D01*
X111463266Y-363400D01*
X34825482Y-363400D01*
X34659767Y-294589D01*
X34228127Y-294212D01*
X33829200Y-459046D01*
X33523718Y-763995D01*
X33358189Y-1162633D01*
X33357812Y-1594273D01*
X30821254Y-1594273D01*
X30540560Y-1313580D01*
X30210947Y-1093338D01*
X30146440Y-1080507D01*
X29822140Y-1016000D01*
X14023340Y-1016000D01*
X13634533Y-1093338D01*
X13304920Y-1313579D01*
X12227320Y-2391180D01*
X12007078Y-2720793D01*
X11998404Y-2764400D01*
X11929740Y-3109600D01*
X11929740Y-3539387D01*
X11902929Y-3557302D01*
X11591860Y-4022849D01*
X11482627Y-4572000D01*
X-2823494Y-4572000D01*
X-2823494Y-472325D01*
X-2385413Y-472325D01*
X-2023084Y-1349229D01*
X-1352758Y-2020726D01*
X-476487Y-2384585D01*
X472325Y-2385413D01*
X1349229Y-2023084D01*
X2020726Y-1352758D01*
X2384585Y-476487D01*
X2385413Y472325D01*
X2167377Y1000013D01*
X39463152Y1000013D01*
X39681157Y472400D01*
X40084477Y68376D01*
X40611709Y-150550D01*
X41182587Y-151048D01*
X41710200Y66957D01*
X41920063Y276455D01*
X45070261Y276455D01*
X45144395Y30336D01*
X45681623Y-162765D01*
X46251854Y-135578D01*
X46652405Y30336D01*
X46726539Y276455D01*
X45898400Y1104595D01*
X45070261Y276455D01*
X41920063Y276455D01*
X42114224Y470277D01*
X42333150Y997509D01*
X42333589Y1500977D01*
X44451435Y1500977D01*
X44478622Y930746D01*
X44644536Y530195D01*
X44890655Y456061D01*
X45718795Y1284200D01*
X46078005Y1284200D01*
X46906145Y456061D01*
X47152264Y530195D01*
X47339394Y1050813D01*
X115688552Y1050813D01*
X115906557Y523200D01*
X116309877Y119176D01*
X116837109Y-99750D01*
X117407987Y-100248D01*
X117935600Y117757D01*
X118145463Y327255D01*
X121295661Y327255D01*
X121369795Y81136D01*
X121907023Y-111965D01*
X122477254Y-84778D01*
X122877805Y81136D01*
X122951939Y327255D01*
X122123800Y1155395D01*
X121295661Y327255D01*
X118145463Y327255D01*
X118339624Y521077D01*
X118558550Y1048309D01*
X118558989Y1551777D01*
X120676835Y1551777D01*
X120704022Y981546D01*
X120869936Y580995D01*
X121116055Y506861D01*
X121944195Y1335000D01*
X122303405Y1335000D01*
X123131545Y506861D01*
X123377664Y580995D01*
X123570765Y1118223D01*
X123543578Y1688454D01*
X123377664Y2089005D01*
X123131545Y2163139D01*
X122303405Y1335000D01*
X121944195Y1335000D01*
X121116055Y2163139D01*
X120869936Y2089005D01*
X120676835Y1551777D01*
X118558989Y1551777D01*
X118559048Y1619187D01*
X118341043Y2146800D01*
X118145440Y2342745D01*
X121295661Y2342745D01*
X122123800Y1514605D01*
X122951939Y2342745D01*
X122877805Y2588864D01*
X122340577Y2781965D01*
X121770346Y2754778D01*
X121369795Y2588864D01*
X121295661Y2342745D01*
X118145440Y2342745D01*
X117937723Y2550824D01*
X117410491Y2769750D01*
X116839613Y2770248D01*
X116312000Y2552243D01*
X115907976Y2148923D01*
X115689050Y1621691D01*
X115688552Y1050813D01*
X47339394Y1050813D01*
X47345365Y1067423D01*
X47318178Y1637654D01*
X47152264Y2038205D01*
X46906145Y2112339D01*
X46078005Y1284200D01*
X45718795Y1284200D01*
X44890655Y2112339D01*
X44644536Y2038205D01*
X44451435Y1500977D01*
X42333589Y1500977D01*
X42333648Y1568387D01*
X42115643Y2096000D01*
X41920040Y2291945D01*
X45070261Y2291945D01*
X45898400Y1463805D01*
X46726539Y2291945D01*
X46652405Y2538064D01*
X46115177Y2731165D01*
X45544946Y2703978D01*
X45144395Y2538064D01*
X45070261Y2291945D01*
X41920040Y2291945D01*
X41712323Y2500024D01*
X41185091Y2718950D01*
X40614213Y2719448D01*
X40086600Y2501443D01*
X39682576Y2098123D01*
X39463650Y1570891D01*
X39463152Y1000013D01*
X2167377Y1000013D01*
X2023084Y1349229D01*
X1352758Y2020726D01*
X476487Y2384585D01*
X-472325Y2385413D01*
X-1349229Y2023084D01*
X-2020726Y1352758D01*
X-2384585Y476487D01*
X-2385413Y-472325D01*
X-2823494Y-472325D01*
X-2823494Y2819902D01*
X132185142Y2819902D01*
X131969775Y2777063D01*
X131969775Y2777063D01*
G37*
X131969775Y2777063D02*
X131714324Y2606376D01*
X129682324Y574376D01*
X129511637Y318925D01*
X129451700Y17600D01*
X129451700Y-6450748D01*
X128579448Y-7323000D01*
X128258800Y-7323000D01*
X128258800Y-5950750D01*
X128100050Y-5792000D01*
X126350800Y-5792000D01*
X126350800Y-5812000D01*
X126096800Y-5812000D01*
X126096800Y-5792000D01*
X124347550Y-5792000D01*
X124188800Y-5950750D01*
X124188800Y-6135188D01*
X124127327Y-6073608D01*
X123783799Y-5930962D01*
X123411833Y-5930638D01*
X123146430Y-6040300D01*
X116071513Y-6040300D01*
X115808199Y-5930962D01*
X115436233Y-5930638D01*
X115092457Y-6072683D01*
X115058800Y-6106281D01*
X115058800Y-5950750D01*
X114900050Y-5792000D01*
X113150800Y-5792000D01*
X113150800Y-5812000D01*
X112896800Y-5812000D01*
X112896800Y-5792000D01*
X111147550Y-5792000D01*
X110988800Y-5950750D01*
X110988800Y-7591310D01*
X111085473Y-7824699D01*
X111264102Y-8003327D01*
X111497491Y-8100000D01*
X111609948Y-8100000D01*
X109148448Y-10561500D01*
X86170100Y-10561500D01*
X85868775Y-10621437D01*
X85758925Y-10694836D01*
X85684427Y-10620208D01*
X85340899Y-10477562D01*
X84968933Y-10477238D01*
X84625157Y-10619283D01*
X84361908Y-10882073D01*
X84219262Y-11225601D01*
X84219255Y-11233693D01*
X80365348Y-15087600D01*
X78278752Y-15087600D01*
X77927200Y-14736048D01*
X77927200Y-11912600D01*
X77867263Y-11611275D01*
X77696576Y-11355824D01*
X77196376Y-10855624D01*
X76940925Y-10684937D01*
X76639600Y-10625000D01*
X69152100Y-10625000D01*
X68850775Y-10684937D01*
X68595324Y-10855624D01*
X67365448Y-12085500D01*
X67147211Y-12085500D01*
X67142427Y-12080708D01*
X66798899Y-11938062D01*
X66426933Y-11937738D01*
X66083157Y-12079783D01*
X65819908Y-12342573D01*
X65677262Y-12686101D01*
X65676938Y-13058067D01*
X65818983Y-13401843D01*
X66081773Y-13665092D01*
X66425301Y-13807738D01*
X66797267Y-13808062D01*
X67141043Y-13666017D01*
X67146770Y-13660300D01*
X67691600Y-13660300D01*
X67992925Y-13600363D01*
X68248376Y-13429676D01*
X69213017Y-12465035D01*
X69311483Y-12703343D01*
X69574273Y-12966592D01*
X69917801Y-13109238D01*
X70289767Y-13109562D01*
X70633543Y-12967517D01*
X70639270Y-12961800D01*
X71918989Y-12961800D01*
X71923773Y-12966592D01*
X72267301Y-13109238D01*
X72639267Y-13109562D01*
X72983043Y-12967517D01*
X73246292Y-12704727D01*
X73388938Y-12361199D01*
X73389079Y-12199800D01*
X73487577Y-12199800D01*
X73487438Y-12359567D01*
X73629483Y-12703343D01*
X73892273Y-12966592D01*
X74235801Y-13109238D01*
X74243893Y-13109245D01*
X74702000Y-13567352D01*
X74702000Y-17217713D01*
X74647637Y-17299073D01*
X74587700Y-17600398D01*
X74587700Y-18460900D01*
X74647637Y-18762225D01*
X74818324Y-19017676D01*
X75199324Y-19398676D01*
X75358182Y-19504822D01*
X75344908Y-19518073D01*
X75202262Y-19861601D01*
X75201938Y-20233567D01*
X75343983Y-20577343D01*
X75606773Y-20840592D01*
X75686759Y-20873805D01*
X75608157Y-20906283D01*
X75344908Y-21169073D01*
X75202262Y-21512601D01*
X75201938Y-21884567D01*
X75343983Y-22228343D01*
X75349700Y-22234070D01*
X75349700Y-23725316D01*
X75281363Y-23793534D01*
X75127276Y-24164617D01*
X75126925Y-24566420D01*
X75280364Y-24937772D01*
X75564234Y-25222137D01*
X75935317Y-25376224D01*
X76337120Y-25376575D01*
X76381006Y-25358442D01*
X73484824Y-28254624D01*
X73314137Y-28510075D01*
X73254200Y-28811400D01*
X73254200Y-33184248D01*
X72635948Y-33802500D01*
X43561600Y-33802500D01*
X43260275Y-33862437D01*
X43004824Y-34033124D01*
X35638824Y-41399124D01*
X35468137Y-41654575D01*
X35408200Y-41955900D01*
X35408200Y-51734900D01*
X35468137Y-52036225D01*
X35638824Y-52291676D01*
X36311924Y-52964776D01*
X36567375Y-53135463D01*
X36868700Y-53195400D01*
X37579127Y-53195400D01*
X37652510Y-53309441D01*
X37864710Y-53454431D01*
X38116600Y-53505440D01*
X38616600Y-53505440D01*
X38851917Y-53461162D01*
X39068041Y-53322090D01*
X39115734Y-53252289D01*
X39152510Y-53309441D01*
X39364710Y-53454431D01*
X39616600Y-53505440D01*
X40116600Y-53505440D01*
X40351917Y-53461162D01*
X40568041Y-53322090D01*
X40612424Y-53257133D01*
X40752206Y-53229329D01*
X40908749Y-53124730D01*
X40824100Y-53329090D01*
X40824100Y-53544650D01*
X40982850Y-53703400D01*
X41732100Y-53703400D01*
X41732100Y-52979150D01*
X41573350Y-52820400D01*
X41332791Y-52820400D01*
X41203128Y-52874108D01*
X41273596Y-52803640D01*
X42470100Y-52803640D01*
X42470100Y-52855480D01*
X42385409Y-52820400D01*
X42144850Y-52820400D01*
X41986100Y-52979150D01*
X41986100Y-53703400D01*
X42006100Y-53703400D01*
X42006100Y-53957400D01*
X41986100Y-53957400D01*
X41986100Y-54681650D01*
X42144850Y-54840400D01*
X42385409Y-54840400D01*
X42470100Y-54805320D01*
X42470100Y-55421560D01*
X42537771Y-55761766D01*
X42707166Y-56015283D01*
X42730482Y-56050178D01*
X42796704Y-56116400D01*
X22250033Y-56116400D01*
X20249784Y-54116150D01*
X40824100Y-54116150D01*
X40824100Y-54331710D01*
X40920773Y-54565099D01*
X41099402Y-54743727D01*
X41332791Y-54840400D01*
X41573350Y-54840400D01*
X41732100Y-54681650D01*
X41732100Y-53957400D01*
X40982850Y-53957400D01*
X40824100Y-54116150D01*
X20249784Y-54116150D01*
X19368100Y-53234466D01*
X19368100Y-30906900D01*
X19305263Y-30590995D01*
X19126317Y-30323183D01*
X19126314Y-30323181D01*
X17183217Y-28380083D01*
X16915406Y-28201137D01*
X16599500Y-28138300D01*
X12473657Y-28138300D01*
X12424790Y-28062359D01*
X12212590Y-27917369D01*
X11960700Y-27866360D01*
X11460700Y-27866360D01*
X11225383Y-27910638D01*
X11009259Y-28049710D01*
X10961566Y-28119511D01*
X10924790Y-28062359D01*
X10712590Y-27917369D01*
X10460700Y-27866360D01*
X9960700Y-27866360D01*
X9725383Y-27910638D01*
X9509259Y-28049710D01*
X9460881Y-28120514D01*
X9350494Y-28142471D01*
X9146938Y-28278483D01*
X9062082Y-28335182D01*
X8828990Y-28568274D01*
X8703000Y-28542760D01*
X7403000Y-28542760D01*
X7167683Y-28587038D01*
X6951559Y-28726110D01*
X6806569Y-28938310D01*
X6787502Y-29032466D01*
X6666618Y-28911582D01*
X6619701Y-28880233D01*
X6378206Y-28718871D01*
X6038000Y-28651200D01*
X5938943Y-28651200D01*
X5854890Y-28593769D01*
X5603000Y-28542760D01*
X4303000Y-28542760D01*
X4067683Y-28587038D01*
X3851559Y-28726110D01*
X3706569Y-28938310D01*
X3655560Y-29190200D01*
X3655560Y-29890200D01*
X3694574Y-30097542D01*
X3655560Y-30290200D01*
X3655560Y-30990200D01*
X3694574Y-31197542D01*
X3655560Y-31390200D01*
X3655560Y-32090200D01*
X3699838Y-32325517D01*
X3838910Y-32541641D01*
X4051110Y-32686631D01*
X4303000Y-32737640D01*
X5603000Y-32737640D01*
X5614000Y-32735570D01*
X5614000Y-32870842D01*
X5518569Y-33010510D01*
X5467560Y-33262400D01*
X5467560Y-34012400D01*
X5511838Y-34247717D01*
X5626000Y-34425130D01*
X5626000Y-48603289D01*
X5590300Y-48596060D01*
X4290300Y-48596060D01*
X4054983Y-48640338D01*
X3838859Y-48779410D01*
X3693869Y-48991610D01*
X3642860Y-49243500D01*
X3642860Y-49943500D01*
X3681874Y-50150842D01*
X3642860Y-50343500D01*
X3642860Y-51043500D01*
X3681874Y-51250842D01*
X3642860Y-51443500D01*
X3642860Y-52143500D01*
X3687138Y-52378817D01*
X3826210Y-52594941D01*
X4038410Y-52739931D01*
X4290300Y-52790940D01*
X5590300Y-52790940D01*
X5626000Y-52784223D01*
X5626000Y-52919279D01*
X5518569Y-53076510D01*
X5467560Y-53328400D01*
X5467560Y-54078400D01*
X5511838Y-54313717D01*
X5630055Y-54497432D01*
X5650175Y-58425902D01*
X5636458Y-58439595D01*
X5470929Y-58838233D01*
X5470552Y-59269873D01*
X5635386Y-59668800D01*
X5940335Y-59974282D01*
X6338973Y-60139811D01*
X6770613Y-60140188D01*
X7169540Y-59975354D01*
X7475022Y-59670405D01*
X7640551Y-59271767D01*
X7640928Y-58840127D01*
X7476094Y-58441200D01*
X7428030Y-58393052D01*
X7409015Y-54680397D01*
X7488691Y-54713400D01*
X7729250Y-54713400D01*
X7888000Y-54554650D01*
X7888000Y-53830400D01*
X8142000Y-53830400D01*
X8142000Y-54554650D01*
X8300750Y-54713400D01*
X8541309Y-54713400D01*
X8774698Y-54616727D01*
X8953327Y-54438099D01*
X9050000Y-54204710D01*
X9050000Y-53989150D01*
X8891250Y-53830400D01*
X8142000Y-53830400D01*
X7888000Y-53830400D01*
X7868000Y-53830400D01*
X7868000Y-53576400D01*
X7888000Y-53576400D01*
X7888000Y-53556400D01*
X8142000Y-53556400D01*
X8142000Y-53576400D01*
X8891250Y-53576400D01*
X9050000Y-53417650D01*
X9050000Y-53202090D01*
X8994380Y-53067811D01*
X9198094Y-53203929D01*
X9506244Y-53265224D01*
X9708810Y-53403631D01*
X9960700Y-53454640D01*
X10460700Y-53454640D01*
X10696017Y-53410362D01*
X10912141Y-53271290D01*
X10959834Y-53201489D01*
X10996610Y-53258641D01*
X11208810Y-53403631D01*
X11460700Y-53454640D01*
X11960700Y-53454640D01*
X12196017Y-53410362D01*
X12412141Y-53271290D01*
X12472672Y-53182700D01*
X14568466Y-53182700D01*
X14669100Y-53283333D01*
X14669100Y-54655900D01*
X14731937Y-54971806D01*
X14910883Y-55239617D01*
X20054381Y-60383114D01*
X20054383Y-60383117D01*
X20322195Y-60562063D01*
X20638100Y-60624900D01*
X143510600Y-60624900D01*
X143826506Y-60562063D01*
X144094317Y-60383117D01*
X146837514Y-57639919D01*
X146837517Y-57639917D01*
X147016463Y-57372105D01*
X147026382Y-57322237D01*
X147079301Y-57056200D01*
X147079300Y-57056195D01*
X147079300Y-55241175D01*
X148978803Y-55241175D01*
X149151233Y-55658486D01*
X149470235Y-55978045D01*
X149887244Y-56151203D01*
X150338775Y-56151597D01*
X150756086Y-55979167D01*
X151075645Y-55660165D01*
X151248803Y-55243156D01*
X151249197Y-54791625D01*
X151076767Y-54374314D01*
X150757765Y-54054755D01*
X150599772Y-53989150D01*
X153917600Y-53989150D01*
X153917600Y-54204710D01*
X154014273Y-54438099D01*
X154192902Y-54616727D01*
X154426291Y-54713400D01*
X154666850Y-54713400D01*
X154825600Y-54554650D01*
X154825600Y-53830400D01*
X154076350Y-53830400D01*
X153917600Y-53989150D01*
X150599772Y-53989150D01*
X150340756Y-53881597D01*
X149889225Y-53881203D01*
X149471914Y-54053633D01*
X149152355Y-54372635D01*
X148979197Y-54789644D01*
X148978803Y-55241175D01*
X147079300Y-55241175D01*
X147079300Y-34138313D01*
X147188638Y-33874999D01*
X147188962Y-33503033D01*
X147076459Y-33230754D01*
X147188638Y-32960599D01*
X147188962Y-32588633D01*
X147065938Y-32290892D01*
X147188638Y-31995399D01*
X147188962Y-31623433D01*
X147076459Y-31351154D01*
X147188638Y-31080999D01*
X147188962Y-30709033D01*
X147076459Y-30436754D01*
X147188638Y-30166599D01*
X147188962Y-29794633D01*
X147076459Y-29522354D01*
X147188638Y-29252199D01*
X147188962Y-28880233D01*
X147046917Y-28536457D01*
X146784127Y-28273208D01*
X146440599Y-28130562D01*
X146068633Y-28130238D01*
X145724857Y-28272283D01*
X145461608Y-28535073D01*
X145351482Y-28800284D01*
X142774483Y-31377283D01*
X142595537Y-31645094D01*
X142551477Y-31866600D01*
X142532700Y-31961000D01*
X142532700Y-32968967D01*
X142499933Y-32968938D01*
X142156157Y-33110983D01*
X141892908Y-33373773D01*
X141750262Y-33717301D01*
X141749938Y-34089267D01*
X141859600Y-34354670D01*
X141859600Y-34749387D01*
X141750262Y-35012701D01*
X141749938Y-35384667D01*
X141891983Y-35728443D01*
X142154773Y-35991692D01*
X142498301Y-36134338D01*
X142532700Y-36134368D01*
X142532700Y-55495067D01*
X141911366Y-56116400D01*
X123476776Y-56116400D01*
X123795758Y-55797418D01*
X123872088Y-55683182D01*
X123988469Y-55509006D01*
X124056140Y-55168800D01*
X124056140Y-52578000D01*
X123988469Y-52237794D01*
X123795758Y-51949382D01*
X123023958Y-51177582D01*
X122900374Y-51095006D01*
X122735546Y-50984871D01*
X122443940Y-50926867D01*
X122443940Y-50356200D01*
X122404926Y-50148858D01*
X122443940Y-49956200D01*
X122443940Y-49256200D01*
X122399662Y-49020883D01*
X122260590Y-48804759D01*
X122217574Y-48775367D01*
X126702378Y-48775367D01*
X126844423Y-49119143D01*
X127107213Y-49382392D01*
X127450741Y-49525038D01*
X127822707Y-49525362D01*
X128088110Y-49415700D01*
X135714740Y-49415700D01*
X136030646Y-49352863D01*
X136298457Y-49173917D01*
X139371857Y-46100517D01*
X139550803Y-45832706D01*
X139613641Y-45516800D01*
X139613640Y-45516795D01*
X139613640Y-39026134D01*
X140602979Y-38036794D01*
X140866483Y-37927917D01*
X141129732Y-37665127D01*
X141272378Y-37321599D01*
X141272702Y-36949633D01*
X141130657Y-36605857D01*
X140867867Y-36342608D01*
X140524339Y-36199962D01*
X140152373Y-36199638D01*
X139808597Y-36341683D01*
X139545348Y-36604473D01*
X139435222Y-36869685D01*
X138204423Y-38100483D01*
X138025477Y-38368294D01*
X138025477Y-38368295D01*
X137962640Y-38684200D01*
X137962640Y-45174866D01*
X135372806Y-47764700D01*
X128087653Y-47764700D01*
X127824339Y-47655362D01*
X127452373Y-47655038D01*
X127108597Y-47797083D01*
X126845348Y-48059873D01*
X126702702Y-48403401D01*
X126702378Y-48775367D01*
X122217574Y-48775367D01*
X122048390Y-48659769D01*
X121933900Y-48636584D01*
X121933900Y-47404800D01*
X121873963Y-47103475D01*
X121703276Y-46848024D01*
X121182692Y-46327440D01*
X121500700Y-46327440D01*
X121736017Y-46283162D01*
X121952141Y-46144090D01*
X122097131Y-45931890D01*
X122148140Y-45680000D01*
X122148140Y-44880000D01*
X122103862Y-44644683D01*
X122037371Y-44541354D01*
X122039027Y-44539698D01*
X122135700Y-44306309D01*
X122135700Y-44065750D01*
X121976950Y-43907000D01*
X121252700Y-43907000D01*
X121252700Y-43927000D01*
X120998700Y-43927000D01*
X120998700Y-43907000D01*
X120978700Y-43907000D01*
X120978700Y-43653000D01*
X120998700Y-43653000D01*
X120998700Y-42903750D01*
X121252700Y-42903750D01*
X121252700Y-43653000D01*
X121976950Y-43653000D01*
X122135700Y-43494250D01*
X122135700Y-43253691D01*
X122039027Y-43020302D01*
X121860399Y-42841673D01*
X121627010Y-42745000D01*
X121411450Y-42745000D01*
X121252700Y-42903750D01*
X120998700Y-42903750D01*
X120839950Y-42745000D01*
X120624390Y-42745000D01*
X120391001Y-42841673D01*
X120212373Y-43020302D01*
X120163200Y-43139016D01*
X120163200Y-43085498D01*
X120004452Y-43085498D01*
X120163200Y-42926750D01*
X120163200Y-42586191D01*
X120066527Y-42352802D01*
X119887899Y-42174173D01*
X119654510Y-42077500D01*
X119188950Y-42077500D01*
X119030200Y-42236250D01*
X119030200Y-43085500D01*
X119050200Y-43085500D01*
X119050200Y-43339500D01*
X119030200Y-43339500D01*
X119030200Y-43359500D01*
X118776200Y-43359500D01*
X118776200Y-43339500D01*
X117801950Y-43339500D01*
X117643200Y-43498250D01*
X117643200Y-43838809D01*
X117739873Y-44072198D01*
X117881110Y-44213436D01*
X117826759Y-44248410D01*
X117681769Y-44460610D01*
X117630760Y-44712500D01*
X117630760Y-45712500D01*
X117675038Y-45947817D01*
X117727020Y-46028600D01*
X115949251Y-46028600D01*
X115910427Y-45989708D01*
X115566899Y-45847062D01*
X115194933Y-45846738D01*
X114851157Y-45988783D01*
X114587908Y-46251573D01*
X114445262Y-46595101D01*
X114444938Y-46967067D01*
X114586983Y-47310843D01*
X114849773Y-47574092D01*
X115193301Y-47716738D01*
X115565267Y-47717062D01*
X115840351Y-47603400D01*
X118368089Y-47603400D01*
X118372873Y-47608192D01*
X118716401Y-47750838D01*
X119088367Y-47751162D01*
X119432143Y-47609117D01*
X119437870Y-47603400D01*
X120231548Y-47603400D01*
X120359100Y-47730952D01*
X120359100Y-48634614D01*
X120261183Y-48653038D01*
X120161472Y-48717200D01*
X120048800Y-48717200D01*
X119708594Y-48784871D01*
X119420182Y-48977582D01*
X119311891Y-49085873D01*
X119299662Y-49020883D01*
X119160590Y-48804759D01*
X118948390Y-48659769D01*
X118696500Y-48608760D01*
X117448196Y-48608760D01*
X117240618Y-48401182D01*
X117155762Y-48344483D01*
X116952206Y-48208471D01*
X116843760Y-48186900D01*
X116806090Y-48128359D01*
X116593890Y-47983369D01*
X116342000Y-47932360D01*
X115842000Y-47932360D01*
X115606683Y-47976638D01*
X115390559Y-48115710D01*
X115342866Y-48185511D01*
X115306090Y-48128359D01*
X115093890Y-47983369D01*
X114842000Y-47932360D01*
X114342000Y-47932360D01*
X114106683Y-47976638D01*
X113945000Y-48080678D01*
X113945000Y-42586191D01*
X117643200Y-42586191D01*
X117643200Y-42926750D01*
X117801950Y-43085500D01*
X118776200Y-43085500D01*
X118776200Y-42236250D01*
X118617450Y-42077500D01*
X118151890Y-42077500D01*
X117918501Y-42174173D01*
X117739873Y-42352802D01*
X117643200Y-42586191D01*
X113945000Y-42586191D01*
X113945000Y-22651905D01*
X113945001Y-22651900D01*
X113885063Y-22350575D01*
X113714376Y-22095124D01*
X108835552Y-17216300D01*
X148717600Y-17216300D01*
X149018925Y-17156363D01*
X149274376Y-16985676D01*
X152893876Y-13366176D01*
X153064563Y-13110725D01*
X153124500Y-12809400D01*
X153124500Y-12379340D01*
X159207800Y-18462641D01*
X159207800Y-28651200D01*
X159025943Y-28651200D01*
X158941890Y-28593769D01*
X158690000Y-28542760D01*
X157390000Y-28542760D01*
X157154683Y-28587038D01*
X157054972Y-28651200D01*
X156878800Y-28651200D01*
X156538594Y-28718871D01*
X156297099Y-28880233D01*
X156250182Y-28911582D01*
X156195335Y-28966429D01*
X156193162Y-28954883D01*
X156054090Y-28738759D01*
X155841890Y-28593769D01*
X155590000Y-28542760D01*
X154290000Y-28542760D01*
X154173178Y-28564742D01*
X153943618Y-28335182D01*
X153858762Y-28278483D01*
X153655206Y-28142471D01*
X153532196Y-28118003D01*
X153496390Y-28062359D01*
X153284190Y-27917369D01*
X153032300Y-27866360D01*
X152532300Y-27866360D01*
X152296983Y-27910638D01*
X152080859Y-28049710D01*
X152033166Y-28119511D01*
X151996390Y-28062359D01*
X151784190Y-27917369D01*
X151532300Y-27866360D01*
X151032300Y-27866360D01*
X150796983Y-27910638D01*
X150580859Y-28049710D01*
X150532270Y-28120822D01*
X150331999Y-28037662D01*
X149960033Y-28037338D01*
X149616257Y-28179383D01*
X149353008Y-28442173D01*
X149210362Y-28785701D01*
X149210038Y-29157667D01*
X149352083Y-29501443D01*
X149614873Y-29764692D01*
X149694859Y-29797905D01*
X149616257Y-29830383D01*
X149353008Y-30093173D01*
X149210362Y-30436701D01*
X149210038Y-30808667D01*
X149352083Y-31152443D01*
X149614873Y-31415692D01*
X149694859Y-31448905D01*
X149616257Y-31481383D01*
X149353008Y-31744173D01*
X149210362Y-32087701D01*
X149210038Y-32459667D01*
X149320875Y-32727915D01*
X149003033Y-32727638D01*
X148659257Y-32869683D01*
X148396008Y-33132473D01*
X148253362Y-33476001D01*
X148253183Y-33681981D01*
X148091208Y-33843673D01*
X147948562Y-34187201D01*
X147948238Y-34559167D01*
X148057900Y-34824570D01*
X148057900Y-51078700D01*
X148120737Y-51394606D01*
X148299683Y-51662417D01*
X149578183Y-52940917D01*
X149845994Y-53119863D01*
X150161900Y-53182700D01*
X150519343Y-53182700D01*
X150568210Y-53258641D01*
X150780410Y-53403631D01*
X151032300Y-53454640D01*
X151532300Y-53454640D01*
X151767617Y-53410362D01*
X151983741Y-53271290D01*
X152031434Y-53201489D01*
X152068210Y-53258641D01*
X152280410Y-53403631D01*
X152532300Y-53454640D01*
X153032300Y-53454640D01*
X153267617Y-53410362D01*
X153483741Y-53271290D01*
X153496054Y-53253270D01*
X153744106Y-53203929D01*
X153982940Y-53044345D01*
X153917600Y-53202090D01*
X153917600Y-53417650D01*
X154076350Y-53576400D01*
X154825600Y-53576400D01*
X154825600Y-53556400D01*
X155079600Y-53556400D01*
X155079600Y-53576400D01*
X155099600Y-53576400D01*
X155099600Y-53830400D01*
X155079600Y-53830400D01*
X155079600Y-54554650D01*
X155238350Y-54713400D01*
X155478909Y-54713400D01*
X155712298Y-54616727D01*
X155713668Y-54615357D01*
X155800710Y-54674831D01*
X156052600Y-54725840D01*
X156852600Y-54725840D01*
X157087917Y-54681562D01*
X157304041Y-54542490D01*
X157449031Y-54330290D01*
X157500040Y-54078400D01*
X157500040Y-53328400D01*
X157455762Y-53093083D01*
X157341600Y-52915670D01*
X157341600Y-52781139D01*
X157390000Y-52790940D01*
X158690000Y-52790940D01*
X158925317Y-52746662D01*
X159025028Y-52682500D01*
X159207800Y-52682500D01*
X159207800Y-54622899D01*
X155791700Y-58039000D01*
X148390822Y-58039000D01*
X148225107Y-57970189D01*
X147793467Y-57969812D01*
X147394540Y-58134646D01*
X147089058Y-58439595D01*
X146923529Y-58838233D01*
X146923152Y-59269873D01*
X147087986Y-59668800D01*
X147392935Y-59974282D01*
X147791573Y-60139811D01*
X148223213Y-60140188D01*
X148390660Y-60071000D01*
X156212540Y-60071000D01*
X156536840Y-60006493D01*
X156601347Y-59993662D01*
X156930960Y-59773420D01*
X157304055Y-59400325D01*
X160606387Y-59400325D01*
X160968716Y-60277229D01*
X161639042Y-60948726D01*
X162515313Y-61312585D01*
X163464125Y-61313413D01*
X164341029Y-60951084D01*
X165012526Y-60280758D01*
X165376385Y-59404487D01*
X165377213Y-58455675D01*
X165014884Y-57578771D01*
X164344558Y-56907274D01*
X163468287Y-56543415D01*
X162519475Y-56542587D01*
X161642571Y-56904916D01*
X160971074Y-57575242D01*
X160607215Y-58451513D01*
X160606387Y-59400325D01*
X157304055Y-59400325D01*
X160942220Y-55762161D01*
X161111373Y-55509006D01*
X161162462Y-55432546D01*
X161239800Y-55043740D01*
X161239800Y-18041800D01*
X161211937Y-17901723D01*
X161162462Y-17652993D01*
X160942221Y-17323380D01*
X154253077Y-10634237D01*
X154184554Y-10468400D01*
X154153200Y-10436991D01*
X154153200Y-7792900D01*
X155950987Y-7792900D01*
X156214301Y-7902238D01*
X156586267Y-7902562D01*
X156851670Y-7792900D01*
X158490987Y-7792900D01*
X158754301Y-7902238D01*
X159126267Y-7902562D01*
X159470043Y-7760517D01*
X159733292Y-7497727D01*
X159875938Y-7154199D01*
X159876262Y-6782233D01*
X159734217Y-6438457D01*
X159471427Y-6175208D01*
X159127899Y-6032562D01*
X158755933Y-6032238D01*
X158490530Y-6141900D01*
X156851213Y-6141900D01*
X156587899Y-6032562D01*
X156215933Y-6032238D01*
X155950530Y-6141900D01*
X154022152Y-6141900D01*
X154822252Y-5341800D01*
X155702600Y-5341800D01*
X156003925Y-5281863D01*
X156259376Y-5111176D01*
X156844839Y-4525713D01*
X157103111Y-4698285D01*
X157676600Y-4812359D01*
X158250089Y-4698285D01*
X158736270Y-4373429D01*
X159061126Y-3887248D01*
X159175200Y-3313759D01*
X159175200Y-3255041D01*
X159061126Y-2681552D01*
X158736270Y-2195371D01*
X158465428Y-2014400D01*
X158736270Y-1833429D01*
X159061126Y-1347248D01*
X159175200Y-773759D01*
X159175200Y-715041D01*
X159126921Y-472325D01*
X160606387Y-472325D01*
X160968716Y-1349229D01*
X161639042Y-2020726D01*
X162515313Y-2384585D01*
X163464125Y-2385413D01*
X164341029Y-2023084D01*
X165012526Y-1352758D01*
X165376385Y-476487D01*
X165377213Y472325D01*
X165014884Y1349229D01*
X164344558Y2020726D01*
X163468287Y2384585D01*
X162519475Y2385413D01*
X161642571Y2023084D01*
X160971074Y1352758D01*
X160607215Y476487D01*
X160606387Y-472325D01*
X159126921Y-472325D01*
X159061126Y-141552D01*
X158736270Y344629D01*
X158250089Y669485D01*
X157676600Y783559D01*
X157103111Y669485D01*
X156616930Y344629D01*
X156406600Y29848D01*
X156196270Y344629D01*
X155710089Y669485D01*
X155136600Y783559D01*
X154563111Y669485D01*
X154076930Y344629D01*
X153866600Y29848D01*
X153656270Y344629D01*
X153170089Y669485D01*
X152596600Y783559D01*
X152023111Y669485D01*
X151536930Y344629D01*
X151326600Y29848D01*
X151116270Y344629D01*
X150630089Y669485D01*
X150056600Y783559D01*
X149483111Y669485D01*
X148996930Y344629D01*
X148780936Y21372D01*
X148723421Y144090D01*
X148291547Y538288D01*
X147875626Y710558D01*
X147643600Y589417D01*
X147643600Y-617400D01*
X147663600Y-617400D01*
X147663600Y-871400D01*
X147643600Y-871400D01*
X147643600Y-3157400D01*
X147663600Y-3157400D01*
X147663600Y-3411400D01*
X147643600Y-3411400D01*
X147643600Y-4618217D01*
X147875626Y-4739358D01*
X147993700Y-4690453D01*
X147993700Y-4808400D01*
X148053637Y-5109725D01*
X148224324Y-5365176D01*
X149517700Y-6658552D01*
X149517700Y-11594248D01*
X147502448Y-13609500D01*
X124723252Y-13609500D01*
X124633756Y-13520004D01*
X124633762Y-13513233D01*
X124491717Y-13169457D01*
X124228927Y-12906208D01*
X123885399Y-12763562D01*
X123513433Y-12763238D01*
X123510900Y-12764285D01*
X123461323Y-12644300D01*
X141986600Y-12644300D01*
X142287925Y-12584363D01*
X142543376Y-12413676D01*
X145533376Y-9423676D01*
X145704063Y-9168225D01*
X145764000Y-8866900D01*
X145764000Y-4555354D01*
X146036270Y-4373429D01*
X146252264Y-4050172D01*
X146309779Y-4172890D01*
X146741653Y-4567088D01*
X147157574Y-4739358D01*
X147389600Y-4618217D01*
X147389600Y-3411400D01*
X147369600Y-3411400D01*
X147369600Y-3157400D01*
X147389600Y-3157400D01*
X147389600Y-871400D01*
X147369600Y-871400D01*
X147369600Y-617400D01*
X147389600Y-617400D01*
X147389600Y589417D01*
X147157574Y710558D01*
X146741653Y538288D01*
X146309779Y144090D01*
X146252264Y21372D01*
X146036270Y344629D01*
X145550089Y669485D01*
X144976600Y783559D01*
X144630948Y714804D01*
X142739376Y2606376D01*
X142483925Y2777063D01*
X142268558Y2819902D01*
X165806508Y2819902D01*
X165806508Y-61748307D01*
X-2823494Y-61748307D01*
X-2823494Y-59400325D01*
X-2385413Y-59400325D01*
X-2023084Y-60277229D01*
X-1352758Y-60948726D01*
X-476487Y-61312585D01*
X472325Y-61313413D01*
X1349229Y-60951084D01*
X2020726Y-60280758D01*
X2384585Y-59404487D01*
X2385413Y-58455675D01*
X2023084Y-57578771D01*
X1352758Y-56907274D01*
X476487Y-56543415D01*
X-472325Y-56542587D01*
X-1349229Y-56904916D01*
X-2020726Y-57575242D01*
X-2384585Y-58451513D01*
X-2385413Y-59400325D01*
X-2823494Y-59400325D01*
X-2823494Y-55241175D01*
X2192203Y-55241175D01*
X2364633Y-55658486D01*
X2683635Y-55978045D01*
X3100644Y-56151203D01*
X3552175Y-56151597D01*
X3969486Y-55979167D01*
X4289045Y-55660165D01*
X4462203Y-55243156D01*
X4462597Y-54791625D01*
X4290167Y-54374314D01*
X3971165Y-54054755D01*
X3554156Y-53881597D01*
X3102625Y-53881203D01*
X2685314Y-54053633D01*
X2365755Y-54372635D01*
X2192597Y-54789644D01*
X2192203Y-55241175D01*
X-2823494Y-55241175D01*
X-2823494Y-12052100D01*
X-1700500Y-12052100D01*
X-1700500Y-25593600D01*
X-1688299Y-25717481D01*
X-1650239Y-25908823D01*
X-1555422Y-26137732D01*
X-1447035Y-26299943D01*
X-1271843Y-26475135D01*
X-1109632Y-26583522D01*
X-880723Y-26678339D01*
X-689381Y-26716399D01*
X-565500Y-26728600D01*
X13230000Y-26728600D01*
X13353881Y-26716399D01*
X13545223Y-26678339D01*
X13774132Y-26583522D01*
X13936343Y-26475135D01*
X14111535Y-26299943D01*
X14219922Y-26137732D01*
X14238000Y-26094088D01*
X14256078Y-26137732D01*
X14364465Y-26299943D01*
X14539657Y-26475135D01*
X14701868Y-26583522D01*
X14930777Y-26678339D01*
X15122119Y-26716399D01*
X15246000Y-26728600D01*
X29041500Y-26728600D01*
X29165381Y-26716399D01*
X29356723Y-26678339D01*
X29585632Y-26583522D01*
X29747843Y-26475135D01*
X29923035Y-26299943D01*
X30031422Y-26137732D01*
X30126239Y-25908823D01*
X30164299Y-25717481D01*
X30176500Y-25593600D01*
X30176500Y-21694067D01*
X63517938Y-21694067D01*
X63659983Y-22037843D01*
X63922773Y-22301092D01*
X64187984Y-22411218D01*
X65710881Y-23934114D01*
X65710883Y-23934117D01*
X65871087Y-24041162D01*
X65978694Y-24113063D01*
X66294600Y-24175900D01*
X72804087Y-24175900D01*
X73067401Y-24285238D01*
X73439367Y-24285562D01*
X73783143Y-24143517D01*
X74046392Y-23880727D01*
X74189038Y-23537199D01*
X74189362Y-23165233D01*
X74047317Y-22821457D01*
X73784527Y-22558208D01*
X73440999Y-22415562D01*
X73069033Y-22415238D01*
X72803630Y-22524900D01*
X66636533Y-22524900D01*
X65355094Y-21243460D01*
X65246217Y-20979957D01*
X64983427Y-20716708D01*
X64639899Y-20574062D01*
X64267933Y-20573738D01*
X63924157Y-20715783D01*
X63660908Y-20978573D01*
X63518262Y-21322101D01*
X63517938Y-21694067D01*
X30176500Y-21694067D01*
X30176500Y-13499987D01*
X39463152Y-13499987D01*
X39681157Y-14027600D01*
X40084477Y-14431624D01*
X40611709Y-14650550D01*
X41182587Y-14651048D01*
X41710200Y-14433043D01*
X41920063Y-14223545D01*
X42570261Y-14223545D01*
X42644395Y-14469664D01*
X43181623Y-14662765D01*
X43751854Y-14635578D01*
X44152405Y-14469664D01*
X44226539Y-14223545D01*
X43398400Y-13395405D01*
X42570261Y-14223545D01*
X41920063Y-14223545D01*
X42114224Y-14029723D01*
X42141823Y-13963256D01*
X42144536Y-13969805D01*
X42390655Y-14043939D01*
X43218795Y-13215800D01*
X43578005Y-13215800D01*
X44406145Y-14043939D01*
X44652264Y-13969805D01*
X44654596Y-13963317D01*
X44681157Y-14027600D01*
X45084477Y-14431624D01*
X45611709Y-14650550D01*
X46182587Y-14651048D01*
X46710200Y-14433043D01*
X47114224Y-14029723D01*
X47333150Y-13502491D01*
X47333648Y-12931613D01*
X47115643Y-12404000D01*
X46712323Y-11999976D01*
X46185091Y-11781050D01*
X45614213Y-11780552D01*
X45086600Y-11998557D01*
X44682576Y-12401877D01*
X44654977Y-12468344D01*
X44652264Y-12461795D01*
X44406145Y-12387661D01*
X43578005Y-13215800D01*
X43218795Y-13215800D01*
X42390655Y-12387661D01*
X42144536Y-12461795D01*
X42142204Y-12468283D01*
X42115643Y-12404000D01*
X41920040Y-12208055D01*
X42570261Y-12208055D01*
X43398400Y-13036195D01*
X44226539Y-12208055D01*
X44152405Y-11961936D01*
X43615177Y-11768835D01*
X43044946Y-11796022D01*
X42644395Y-11961936D01*
X42570261Y-12208055D01*
X41920040Y-12208055D01*
X41712323Y-11999976D01*
X41185091Y-11781050D01*
X40614213Y-11780552D01*
X40086600Y-11998557D01*
X39682576Y-12401877D01*
X39463650Y-12929109D01*
X39463152Y-13499987D01*
X30176500Y-13499987D01*
X30176500Y-12052100D01*
X30164299Y-11928219D01*
X30126239Y-11736877D01*
X30031422Y-11507968D01*
X29923035Y-11345757D01*
X29747843Y-11170565D01*
X29585632Y-11062178D01*
X29356723Y-10967361D01*
X29165381Y-10929301D01*
X29041500Y-10917100D01*
X15246000Y-10917100D01*
X15122119Y-10929301D01*
X14930777Y-10967361D01*
X14701868Y-11062178D01*
X14539657Y-11170565D01*
X14364465Y-11345757D01*
X14256078Y-11507968D01*
X14238000Y-11551612D01*
X14219922Y-11507968D01*
X14111535Y-11345757D01*
X13936343Y-11170565D01*
X13774132Y-11062178D01*
X13545223Y-10967361D01*
X13353881Y-10929301D01*
X13230000Y-10917100D01*
X-565500Y-10917100D01*
X-689381Y-10929301D01*
X-880723Y-10967361D01*
X-1109632Y-11062178D01*
X-1271843Y-11170565D01*
X-1447035Y-11345757D01*
X-1555422Y-11507968D01*
X-1650239Y-11736877D01*
X-1688299Y-11928219D01*
X-1700500Y-12052100D01*
X-2823494Y-12052100D01*
X-2823494Y-4572000D01*
X11482627Y-4572000D01*
X11591860Y-5121151D01*
X11902929Y-5586698D01*
X12368476Y-5897767D01*
X12917627Y-6007000D01*
X12973853Y-6007000D01*
X13523004Y-5897767D01*
X13988551Y-5586698D01*
X14024850Y-5532373D01*
X14107413Y-5731699D01*
X14286042Y-5910327D01*
X14519431Y-6007000D01*
X15159990Y-6007000D01*
X15318740Y-5848250D01*
X15318740Y-4699000D01*
X15572740Y-4699000D01*
X15572740Y-5848250D01*
X15731490Y-6007000D01*
X16372049Y-6007000D01*
X16385206Y-6001550D01*
X34763400Y-6001550D01*
X34763400Y-7642110D01*
X34860073Y-7875499D01*
X35038702Y-8054127D01*
X35272091Y-8150800D01*
X36512650Y-8150800D01*
X36671400Y-7992050D01*
X36671400Y-5842800D01*
X36925400Y-5842800D01*
X36925400Y-7992050D01*
X37084150Y-8150800D01*
X38324709Y-8150800D01*
X38558098Y-8054127D01*
X38646858Y-7965367D01*
X42448638Y-7965367D01*
X42590683Y-8309143D01*
X42853473Y-8572392D01*
X43197001Y-8715038D01*
X43568967Y-8715362D01*
X43834370Y-8605700D01*
X45676887Y-8605700D01*
X45940201Y-8715038D01*
X46312167Y-8715362D01*
X46655943Y-8573317D01*
X46919192Y-8310527D01*
X47061838Y-7966999D01*
X47062162Y-7595033D01*
X46920117Y-7251257D01*
X46657327Y-6988008D01*
X46313799Y-6845362D01*
X45941833Y-6845038D01*
X45676430Y-6954700D01*
X43833913Y-6954700D01*
X43570599Y-6845362D01*
X43198633Y-6845038D01*
X42854857Y-6987083D01*
X42591608Y-7249873D01*
X42448962Y-7593401D01*
X42448638Y-7965367D01*
X38646858Y-7965367D01*
X38736727Y-7875499D01*
X38833400Y-7642110D01*
X38833400Y-6001550D01*
X47963400Y-6001550D01*
X47963400Y-7642110D01*
X48060073Y-7875499D01*
X48238702Y-8054127D01*
X48472091Y-8150800D01*
X49712650Y-8150800D01*
X49871400Y-7992050D01*
X49871400Y-5842800D01*
X50125400Y-5842800D01*
X50125400Y-7992050D01*
X50284150Y-8150800D01*
X51524709Y-8150800D01*
X51758098Y-8054127D01*
X51936727Y-7875499D01*
X52033400Y-7642110D01*
X52033400Y-6244885D01*
X68995054Y-6244885D01*
X69026557Y-6705286D01*
X69142138Y-6984325D01*
X69198506Y-6994745D01*
X69185273Y-7007955D01*
X69008302Y-7434149D01*
X69007899Y-7895626D01*
X69184126Y-8322129D01*
X69510155Y-8648727D01*
X69936349Y-8825698D01*
X70397826Y-8826101D01*
X70803572Y-8658451D01*
X71206349Y-8825698D01*
X71667826Y-8826101D01*
X72073572Y-8658451D01*
X72476349Y-8825698D01*
X72937826Y-8826101D01*
X73343572Y-8658451D01*
X73746349Y-8825698D01*
X74207826Y-8826101D01*
X74613572Y-8658451D01*
X75016349Y-8825698D01*
X75477826Y-8826101D01*
X75904329Y-8649874D01*
X76230927Y-8323845D01*
X76407898Y-7897651D01*
X76408301Y-7436174D01*
X76325874Y-7236684D01*
X76369531Y-7172790D01*
X76413477Y-6955775D01*
X80348003Y-6955775D01*
X80520433Y-7373086D01*
X80839435Y-7692645D01*
X81256444Y-7865803D01*
X81707975Y-7866197D01*
X82125286Y-7693767D01*
X82444845Y-7374765D01*
X82618003Y-6957756D01*
X82618397Y-6506225D01*
X82445967Y-6088914D01*
X82126965Y-5769355D01*
X81709956Y-5596197D01*
X81258425Y-5595803D01*
X80841114Y-5768233D01*
X80521555Y-6087235D01*
X80348397Y-6504244D01*
X80348003Y-6955775D01*
X76413477Y-6955775D01*
X76420540Y-6920900D01*
X76420540Y-5870900D01*
X76376262Y-5635583D01*
X76237190Y-5419459D01*
X76024990Y-5274469D01*
X75773100Y-5223460D01*
X74723100Y-5223460D01*
X74487783Y-5267738D01*
X74410495Y-5317471D01*
X74129115Y-5222854D01*
X73668714Y-5254357D01*
X73389675Y-5369938D01*
X73352306Y-5572086D01*
X73343100Y-5581292D01*
X73333894Y-5572086D01*
X73296525Y-5369938D01*
X72859115Y-5222854D01*
X72398714Y-5254357D01*
X72119675Y-5369938D01*
X72109255Y-5426306D01*
X72096045Y-5413073D01*
X71669851Y-5236102D01*
X71208374Y-5235699D01*
X70781871Y-5411926D01*
X70767026Y-5426745D01*
X70756525Y-5369938D01*
X70319115Y-5222854D01*
X69858714Y-5254357D01*
X69579675Y-5369938D01*
X69539433Y-5587627D01*
X70168100Y-6216295D01*
X70182243Y-6202153D01*
X70278185Y-6298095D01*
X70278014Y-6493876D01*
X70265905Y-6505985D01*
X70070124Y-6505814D01*
X69974352Y-6410042D01*
X69988495Y-6395900D01*
X69359827Y-5767233D01*
X69142138Y-5807475D01*
X68995054Y-6244885D01*
X52033400Y-6244885D01*
X52033400Y-6001550D01*
X51874650Y-5842800D01*
X50125400Y-5842800D01*
X49871400Y-5842800D01*
X48122150Y-5842800D01*
X47963400Y-6001550D01*
X38833400Y-6001550D01*
X38674650Y-5842800D01*
X36925400Y-5842800D01*
X36671400Y-5842800D01*
X34922150Y-5842800D01*
X34763400Y-6001550D01*
X16385206Y-6001550D01*
X16605438Y-5910327D01*
X16784067Y-5731699D01*
X16880740Y-5498310D01*
X16880740Y-4857750D01*
X16721990Y-4699000D01*
X15572740Y-4699000D01*
X15318740Y-4699000D01*
X15298740Y-4699000D01*
X15298740Y-4445000D01*
X15318740Y-4445000D01*
X15318740Y-3295750D01*
X15572740Y-3295750D01*
X15572740Y-4445000D01*
X16721990Y-4445000D01*
X16880740Y-4286250D01*
X16880740Y-3645690D01*
X16784067Y-3412301D01*
X16605438Y-3233673D01*
X16372049Y-3137000D01*
X15731490Y-3137000D01*
X15572740Y-3295750D01*
X15318740Y-3295750D01*
X15159990Y-3137000D01*
X14519431Y-3137000D01*
X14286042Y-3233673D01*
X14107413Y-3412301D01*
X14024850Y-3611627D01*
X13988551Y-3557302D01*
X13961740Y-3539387D01*
X13961740Y-3530440D01*
X14444181Y-3048000D01*
X29401300Y-3048000D01*
X30179464Y-3826165D01*
X30247986Y-3992000D01*
X30552935Y-4297482D01*
X30951573Y-4463011D01*
X31383213Y-4463388D01*
X31782140Y-4298554D01*
X32087622Y-3993605D01*
X32172377Y-3789490D01*
X34763400Y-3789490D01*
X34763400Y-5430050D01*
X34922150Y-5588800D01*
X36671400Y-5588800D01*
X36671400Y-3439550D01*
X36925400Y-3439550D01*
X36925400Y-5588800D01*
X38674650Y-5588800D01*
X38833400Y-5430050D01*
X38833400Y-3789490D01*
X47963400Y-3789490D01*
X47963400Y-5430050D01*
X48122150Y-5588800D01*
X49871400Y-5588800D01*
X49871400Y-3439550D01*
X50125400Y-3439550D01*
X50125400Y-5588800D01*
X51874650Y-5588800D01*
X52033400Y-5430050D01*
X52033400Y-3789490D01*
X52012358Y-3738690D01*
X110988800Y-3738690D01*
X110988800Y-5379250D01*
X111147550Y-5538000D01*
X112896800Y-5538000D01*
X112896800Y-3388750D01*
X113150800Y-3388750D01*
X113150800Y-5538000D01*
X114900050Y-5538000D01*
X115058800Y-5379250D01*
X115058800Y-3738690D01*
X124188800Y-3738690D01*
X124188800Y-5379250D01*
X124347550Y-5538000D01*
X126096800Y-5538000D01*
X126096800Y-3388750D01*
X126350800Y-3388750D01*
X126350800Y-5538000D01*
X128100050Y-5538000D01*
X128258800Y-5379250D01*
X128258800Y-3738690D01*
X128162127Y-3505301D01*
X127983498Y-3326673D01*
X127750109Y-3230000D01*
X126509550Y-3230000D01*
X126350800Y-3388750D01*
X126096800Y-3388750D01*
X125938050Y-3230000D01*
X124697491Y-3230000D01*
X124464102Y-3326673D01*
X124285473Y-3505301D01*
X124188800Y-3738690D01*
X115058800Y-3738690D01*
X114962127Y-3505301D01*
X114783498Y-3326673D01*
X114550109Y-3230000D01*
X113309550Y-3230000D01*
X113150800Y-3388750D01*
X112896800Y-3388750D01*
X112738050Y-3230000D01*
X111497491Y-3230000D01*
X111264102Y-3326673D01*
X111085473Y-3505301D01*
X110988800Y-3738690D01*
X52012358Y-3738690D01*
X51936727Y-3556101D01*
X51758098Y-3377473D01*
X51524709Y-3280800D01*
X50284150Y-3280800D01*
X50125400Y-3439550D01*
X49871400Y-3439550D01*
X49712650Y-3280800D01*
X48472091Y-3280800D01*
X48238702Y-3377473D01*
X48060073Y-3556101D01*
X47963400Y-3789490D01*
X38833400Y-3789490D01*
X38736727Y-3556101D01*
X38558098Y-3377473D01*
X38324709Y-3280800D01*
X37084150Y-3280800D01*
X36925400Y-3439550D01*
X36671400Y-3439550D01*
X36512650Y-3280800D01*
X35272091Y-3280800D01*
X35038702Y-3377473D01*
X34860073Y-3556101D01*
X34763400Y-3789490D01*
X32172377Y-3789490D01*
X32253151Y-3594967D01*
X32253528Y-3163327D01*
X32088694Y-2764400D01*
X31783745Y-2458918D01*
X31616419Y-2389438D01*
X30821254Y-1594273D01*
X33357812Y-1594273D01*
X33522646Y-1993200D01*
X33827595Y-2298682D01*
X34226233Y-2464211D01*
X34657873Y-2464588D01*
X34825320Y-2395400D01*
X114426118Y-2395400D01*
X114591833Y-2464211D01*
X115023473Y-2464588D01*
X115422400Y-2299754D01*
X115727882Y-1994805D01*
X115893411Y-1596167D01*
X115893788Y-1164527D01*
X115728954Y-765600D01*
X115424005Y-460118D01*
X115025367Y-294589D01*
X114593727Y-294212D01*
X114426280Y-363400D01*
X113276921Y-363400D01*
X113163317Y-88457D01*
X112900527Y174792D01*
X112556999Y317438D01*
X112185033Y317762D01*
X111841257Y175717D01*
X111578008Y-87073D01*
X111463266Y-363400D01*
X34825482Y-363400D01*
X34659767Y-294589D01*
X34228127Y-294212D01*
X33829200Y-459046D01*
X33523718Y-763995D01*
X33358189Y-1162633D01*
X33357812Y-1594273D01*
X30821254Y-1594273D01*
X30540560Y-1313580D01*
X30210947Y-1093338D01*
X30146440Y-1080507D01*
X29822140Y-1016000D01*
X14023340Y-1016000D01*
X13634533Y-1093338D01*
X13304920Y-1313579D01*
X12227320Y-2391180D01*
X12007078Y-2720793D01*
X11998404Y-2764400D01*
X11929740Y-3109600D01*
X11929740Y-3539387D01*
X11902929Y-3557302D01*
X11591860Y-4022849D01*
X11482627Y-4572000D01*
X-2823494Y-4572000D01*
X-2823494Y-472325D01*
X-2385413Y-472325D01*
X-2023084Y-1349229D01*
X-1352758Y-2020726D01*
X-476487Y-2384585D01*
X472325Y-2385413D01*
X1349229Y-2023084D01*
X2020726Y-1352758D01*
X2384585Y-476487D01*
X2385413Y472325D01*
X2167377Y1000013D01*
X39463152Y1000013D01*
X39681157Y472400D01*
X40084477Y68376D01*
X40611709Y-150550D01*
X41182587Y-151048D01*
X41710200Y66957D01*
X41920063Y276455D01*
X45070261Y276455D01*
X45144395Y30336D01*
X45681623Y-162765D01*
X46251854Y-135578D01*
X46652405Y30336D01*
X46726539Y276455D01*
X45898400Y1104595D01*
X45070261Y276455D01*
X41920063Y276455D01*
X42114224Y470277D01*
X42333150Y997509D01*
X42333589Y1500977D01*
X44451435Y1500977D01*
X44478622Y930746D01*
X44644536Y530195D01*
X44890655Y456061D01*
X45718795Y1284200D01*
X46078005Y1284200D01*
X46906145Y456061D01*
X47152264Y530195D01*
X47339394Y1050813D01*
X115688552Y1050813D01*
X115906557Y523200D01*
X116309877Y119176D01*
X116837109Y-99750D01*
X117407987Y-100248D01*
X117935600Y117757D01*
X118145463Y327255D01*
X121295661Y327255D01*
X121369795Y81136D01*
X121907023Y-111965D01*
X122477254Y-84778D01*
X122877805Y81136D01*
X122951939Y327255D01*
X122123800Y1155395D01*
X121295661Y327255D01*
X118145463Y327255D01*
X118339624Y521077D01*
X118558550Y1048309D01*
X118558989Y1551777D01*
X120676835Y1551777D01*
X120704022Y981546D01*
X120869936Y580995D01*
X121116055Y506861D01*
X121944195Y1335000D01*
X122303405Y1335000D01*
X123131545Y506861D01*
X123377664Y580995D01*
X123570765Y1118223D01*
X123543578Y1688454D01*
X123377664Y2089005D01*
X123131545Y2163139D01*
X122303405Y1335000D01*
X121944195Y1335000D01*
X121116055Y2163139D01*
X120869936Y2089005D01*
X120676835Y1551777D01*
X118558989Y1551777D01*
X118559048Y1619187D01*
X118341043Y2146800D01*
X118145440Y2342745D01*
X121295661Y2342745D01*
X122123800Y1514605D01*
X122951939Y2342745D01*
X122877805Y2588864D01*
X122340577Y2781965D01*
X121770346Y2754778D01*
X121369795Y2588864D01*
X121295661Y2342745D01*
X118145440Y2342745D01*
X117937723Y2550824D01*
X117410491Y2769750D01*
X116839613Y2770248D01*
X116312000Y2552243D01*
X115907976Y2148923D01*
X115689050Y1621691D01*
X115688552Y1050813D01*
X47339394Y1050813D01*
X47345365Y1067423D01*
X47318178Y1637654D01*
X47152264Y2038205D01*
X46906145Y2112339D01*
X46078005Y1284200D01*
X45718795Y1284200D01*
X44890655Y2112339D01*
X44644536Y2038205D01*
X44451435Y1500977D01*
X42333589Y1500977D01*
X42333648Y1568387D01*
X42115643Y2096000D01*
X41920040Y2291945D01*
X45070261Y2291945D01*
X45898400Y1463805D01*
X46726539Y2291945D01*
X46652405Y2538064D01*
X46115177Y2731165D01*
X45544946Y2703978D01*
X45144395Y2538064D01*
X45070261Y2291945D01*
X41920040Y2291945D01*
X41712323Y2500024D01*
X41185091Y2718950D01*
X40614213Y2719448D01*
X40086600Y2501443D01*
X39682576Y2098123D01*
X39463650Y1570891D01*
X39463152Y1000013D01*
X2167377Y1000013D01*
X2023084Y1349229D01*
X1352758Y2020726D01*
X476487Y2384585D01*
X-472325Y2385413D01*
X-1349229Y2023084D01*
X-2020726Y1352758D01*
X-2384585Y476487D01*
X-2385413Y-472325D01*
X-2823494Y-472325D01*
X-2823494Y2819902D01*
X132185142Y2819902D01*
X131969775Y2777063D01*
G36*
X74075660Y-6285570D02*
X74075660Y-6505985D01*
X73880124Y-6505814D01*
X73878203Y-6503893D01*
X73864370Y-6301740D01*
X73963958Y-6202153D01*
X73978100Y-6216295D01*
X73992243Y-6202153D01*
X74075660Y-6285570D01*
X74075660Y-6285570D01*
G37*
X74075660Y-6285570D02*
X74075660Y-6505985D01*
X73880124Y-6505814D01*
X73878203Y-6503893D01*
X73864370Y-6301740D01*
X73963958Y-6202153D01*
X73978100Y-6216295D01*
X73992243Y-6202153D01*
X74075660Y-6285570D01*
G36*
X72708100Y-6216295D02*
X72722243Y-6202153D01*
X72807998Y-6287908D01*
X72821830Y-6490060D01*
X72805905Y-6505985D01*
X72610124Y-6505814D01*
X72598015Y-6493705D01*
X72598186Y-6297924D01*
X72693958Y-6202152D01*
X72708100Y-6216295D01*
X72708100Y-6216295D01*
G37*
X72708100Y-6216295D02*
X72722243Y-6202153D01*
X72807998Y-6287908D01*
X72821830Y-6490060D01*
X72805905Y-6505985D01*
X72610124Y-6505814D01*
X72598015Y-6493705D01*
X72598186Y-6297924D01*
X72693958Y-6202152D01*
X72708100Y-6216295D01*
G36*
X111354200Y-23359052D02*
X111354200Y-51226900D01*
X111414137Y-51528225D01*
X111584824Y-51783676D01*
X112765924Y-52964776D01*
X113021375Y-53135463D01*
X113322700Y-53195400D01*
X113804527Y-53195400D01*
X113877910Y-53309441D01*
X114090110Y-53454431D01*
X114342000Y-53505440D01*
X114842000Y-53505440D01*
X115077317Y-53461162D01*
X115293441Y-53322090D01*
X115341134Y-53252289D01*
X115377910Y-53309441D01*
X115590110Y-53454431D01*
X115842000Y-53505440D01*
X116342000Y-53505440D01*
X116577317Y-53461162D01*
X116793441Y-53322090D01*
X116851807Y-53236669D01*
X116888706Y-53229329D01*
X117096681Y-53090364D01*
X117024100Y-53265590D01*
X117024100Y-53481150D01*
X117182850Y-53639900D01*
X117932100Y-53639900D01*
X117932100Y-53619900D01*
X118186100Y-53619900D01*
X118186100Y-53639900D01*
X118206100Y-53639900D01*
X118206100Y-53893900D01*
X118186100Y-53893900D01*
X118186100Y-54618150D01*
X118344850Y-54776900D01*
X118585409Y-54776900D01*
X118818798Y-54680227D01*
X118820168Y-54678857D01*
X118907210Y-54738331D01*
X119159100Y-54789340D01*
X119959100Y-54789340D01*
X120194417Y-54745062D01*
X120410541Y-54605990D01*
X120555531Y-54393790D01*
X120606540Y-54141900D01*
X120606540Y-53391900D01*
X120562262Y-53156583D01*
X120448100Y-52979170D01*
X120448100Y-52793839D01*
X120496500Y-52803640D01*
X121796500Y-52803640D01*
X122031817Y-52759362D01*
X122067990Y-52736086D01*
X122278140Y-52946236D01*
X122278140Y-54800564D01*
X121655904Y-55422800D01*
X44617576Y-55422800D01*
X44248100Y-55053324D01*
X44248100Y-54614521D01*
X44355531Y-54457290D01*
X44406540Y-54205400D01*
X44406540Y-54052650D01*
X117024100Y-54052650D01*
X117024100Y-54268210D01*
X117120773Y-54501599D01*
X117299402Y-54680227D01*
X117532791Y-54776900D01*
X117773350Y-54776900D01*
X117932100Y-54618150D01*
X117932100Y-53893900D01*
X117182850Y-53893900D01*
X117024100Y-54052650D01*
X44406540Y-54052650D01*
X44406540Y-53455400D01*
X44362262Y-53220083D01*
X44248100Y-53042670D01*
X44248100Y-52796411D01*
X44283800Y-52803640D01*
X45583800Y-52803640D01*
X45819117Y-52759362D01*
X46035241Y-52620290D01*
X46180231Y-52408090D01*
X46231240Y-52156200D01*
X46231240Y-51456200D01*
X46192226Y-51248858D01*
X46231240Y-51056200D01*
X46231240Y-50356200D01*
X46192226Y-50148858D01*
X46231240Y-49956200D01*
X46231240Y-49256200D01*
X46186962Y-49020883D01*
X46047890Y-48804759D01*
X45835690Y-48659769D01*
X45682500Y-48628747D01*
X45682500Y-47952011D01*
X45687292Y-47947227D01*
X45829938Y-47603699D01*
X45830165Y-47343440D01*
X46253200Y-47343440D01*
X46488517Y-47299162D01*
X46704641Y-47160090D01*
X46827879Y-46979725D01*
X79097787Y-46979725D01*
X79460116Y-47856629D01*
X80130442Y-48528126D01*
X81006713Y-48891985D01*
X81955525Y-48892813D01*
X82832429Y-48530484D01*
X83503926Y-47860158D01*
X83867785Y-46983887D01*
X83868613Y-46035075D01*
X83506284Y-45158171D01*
X82835958Y-44486674D01*
X81959687Y-44122815D01*
X81010875Y-44121987D01*
X80133971Y-44484316D01*
X79462474Y-45154642D01*
X79098615Y-46030913D01*
X79097787Y-46979725D01*
X46827879Y-46979725D01*
X46849631Y-46947890D01*
X46900640Y-46696000D01*
X46900640Y-45896000D01*
X46856362Y-45660683D01*
X46789871Y-45557354D01*
X46791527Y-45555698D01*
X46888200Y-45322309D01*
X46888200Y-45081750D01*
X46729450Y-44923000D01*
X46005200Y-44923000D01*
X46005200Y-44943000D01*
X45751200Y-44943000D01*
X45751200Y-44923000D01*
X45731200Y-44923000D01*
X45731200Y-44669000D01*
X45751200Y-44669000D01*
X45751200Y-43919750D01*
X46005200Y-43919750D01*
X46005200Y-44669000D01*
X46729450Y-44669000D01*
X46888200Y-44510250D01*
X46888200Y-44269691D01*
X46791527Y-44036302D01*
X46612899Y-43857673D01*
X46379510Y-43761000D01*
X46163950Y-43761000D01*
X46005200Y-43919750D01*
X45751200Y-43919750D01*
X45592450Y-43761000D01*
X45376890Y-43761000D01*
X45143501Y-43857673D01*
X44964873Y-44036302D01*
X44911565Y-44164998D01*
X44756952Y-44164998D01*
X44915700Y-44006250D01*
X44915700Y-43665691D01*
X44819027Y-43432302D01*
X44640399Y-43253673D01*
X44407010Y-43157000D01*
X43941450Y-43157000D01*
X43782700Y-43315750D01*
X43782700Y-44165000D01*
X43802700Y-44165000D01*
X43802700Y-44419000D01*
X43782700Y-44419000D01*
X43782700Y-44439000D01*
X43528700Y-44439000D01*
X43528700Y-44419000D01*
X42554450Y-44419000D01*
X42395700Y-44577750D01*
X42395700Y-44918309D01*
X42492373Y-45151698D01*
X42633610Y-45292936D01*
X42579259Y-45327910D01*
X42458532Y-45504600D01*
X40241279Y-45504600D01*
X40218427Y-45481708D01*
X39874899Y-45339062D01*
X39502933Y-45338738D01*
X39159157Y-45480783D01*
X38895908Y-45743573D01*
X38753262Y-46087101D01*
X38752938Y-46459067D01*
X38894983Y-46802843D01*
X39157773Y-47066092D01*
X39501301Y-47208738D01*
X39873267Y-47209062D01*
X40187074Y-47079400D01*
X42461052Y-47079400D01*
X42566610Y-47243441D01*
X42778810Y-47388431D01*
X43030700Y-47439440D01*
X43960080Y-47439440D01*
X43959938Y-47602067D01*
X44101983Y-47945843D01*
X44107700Y-47951570D01*
X44107700Y-48641896D01*
X44048483Y-48653038D01*
X43936680Y-48724981D01*
X43635595Y-48784870D01*
X43347182Y-48977582D01*
X43121314Y-49203450D01*
X43086962Y-49020883D01*
X42947890Y-48804759D01*
X42735690Y-48659769D01*
X42483800Y-48608760D01*
X41248196Y-48608760D01*
X41015218Y-48375782D01*
X40726806Y-48183071D01*
X40618360Y-48161500D01*
X40580690Y-48102959D01*
X40368490Y-47957969D01*
X40116600Y-47906960D01*
X39616600Y-47906960D01*
X39381283Y-47951238D01*
X39165159Y-48090310D01*
X39117466Y-48160111D01*
X39080690Y-48102959D01*
X38868490Y-47957969D01*
X38616600Y-47906960D01*
X38116600Y-47906960D01*
X37999000Y-47929088D01*
X37999000Y-43665691D01*
X42395700Y-43665691D01*
X42395700Y-44006250D01*
X42554450Y-44165000D01*
X43528700Y-44165000D01*
X43528700Y-43315750D01*
X43369950Y-43157000D01*
X42904390Y-43157000D01*
X42671001Y-43253673D01*
X42492373Y-43432302D01*
X42395700Y-43665691D01*
X37999000Y-43665691D01*
X37999000Y-42726552D01*
X44332252Y-36393300D01*
X69861328Y-36393300D01*
X69600775Y-36783245D01*
X69475100Y-37415055D01*
X69475100Y-37479745D01*
X69600775Y-38111555D01*
X69958667Y-38647178D01*
X70494290Y-39005070D01*
X71126100Y-39130745D01*
X71757910Y-39005070D01*
X72094101Y-38780434D01*
X72111773Y-38823098D01*
X72290401Y-39001727D01*
X72523790Y-39098400D01*
X73380350Y-39098400D01*
X73539100Y-38939650D01*
X73539100Y-37574400D01*
X73793100Y-37574400D01*
X73793100Y-38939650D01*
X73951850Y-39098400D01*
X74808410Y-39098400D01*
X75041799Y-39001727D01*
X75220427Y-38823098D01*
X75317100Y-38589709D01*
X75317100Y-37733150D01*
X75158350Y-37574400D01*
X73793100Y-37574400D01*
X73539100Y-37574400D01*
X73519100Y-37574400D01*
X73519100Y-37415055D01*
X87636100Y-37415055D01*
X87636100Y-37479745D01*
X87761775Y-38111555D01*
X88119667Y-38647178D01*
X88655290Y-39005070D01*
X89287100Y-39130745D01*
X89918910Y-39005070D01*
X90255101Y-38780434D01*
X90272773Y-38823098D01*
X90451401Y-39001727D01*
X90684790Y-39098400D01*
X91541350Y-39098400D01*
X91700100Y-38939650D01*
X91700100Y-37574400D01*
X91954100Y-37574400D01*
X91954100Y-38939650D01*
X92112850Y-39098400D01*
X92969410Y-39098400D01*
X93202799Y-39001727D01*
X93381427Y-38823098D01*
X93478100Y-38589709D01*
X93478100Y-37733150D01*
X93319350Y-37574400D01*
X91954100Y-37574400D01*
X91700100Y-37574400D01*
X91680100Y-37574400D01*
X91680100Y-37320400D01*
X91700100Y-37320400D01*
X91700100Y-35955150D01*
X91954100Y-35955150D01*
X91954100Y-37320400D01*
X93319350Y-37320400D01*
X93478100Y-37161650D01*
X93478100Y-36305091D01*
X93381427Y-36071702D01*
X93202799Y-35893073D01*
X92969410Y-35796400D01*
X92112850Y-35796400D01*
X91954100Y-35955150D01*
X91700100Y-35955150D01*
X91541350Y-35796400D01*
X90684790Y-35796400D01*
X90451401Y-35893073D01*
X90272773Y-36071702D01*
X90255101Y-36114366D01*
X89918910Y-35889730D01*
X89287100Y-35764055D01*
X88655290Y-35889730D01*
X88119667Y-36247622D01*
X87761775Y-36783245D01*
X87636100Y-37415055D01*
X73519100Y-37415055D01*
X73519100Y-37320400D01*
X73539100Y-37320400D01*
X73539100Y-37300400D01*
X73793100Y-37300400D01*
X73793100Y-37320400D01*
X75158350Y-37320400D01*
X75317100Y-37161650D01*
X75317100Y-36901300D01*
X82233100Y-36901300D01*
X82534425Y-36841363D01*
X82789876Y-36670676D01*
X83194252Y-36266300D01*
X83221989Y-36266300D01*
X83226773Y-36271092D01*
X83570301Y-36413738D01*
X83942267Y-36414062D01*
X84286043Y-36272017D01*
X84549292Y-36009227D01*
X84637166Y-35797603D01*
X84729283Y-36020543D01*
X84992073Y-36283792D01*
X85335601Y-36426438D01*
X85707567Y-36426762D01*
X86051343Y-36284717D01*
X86314592Y-36021927D01*
X86457238Y-35678399D01*
X86457562Y-35306433D01*
X86315517Y-34962657D01*
X86309800Y-34956930D01*
X86309800Y-33252352D01*
X91044876Y-28517276D01*
X91215563Y-28261825D01*
X91275500Y-27960500D01*
X91275500Y-27289513D01*
X91380801Y-27333238D01*
X91752767Y-27333562D01*
X92096543Y-27191517D01*
X92102270Y-27185800D01*
X95631600Y-27185800D01*
X95932925Y-27125863D01*
X96188376Y-26955176D01*
X96571996Y-26571556D01*
X96578767Y-26571562D01*
X96922543Y-26429517D01*
X97185792Y-26166727D01*
X97328438Y-25823199D01*
X97328762Y-25451233D01*
X97186717Y-25107457D01*
X96923927Y-24844208D01*
X96580399Y-24701562D01*
X96208433Y-24701238D01*
X95864657Y-24843283D01*
X95601408Y-25106073D01*
X95458762Y-25449601D01*
X95458755Y-25457693D01*
X95305448Y-25611000D01*
X92102711Y-25611000D01*
X92097927Y-25606208D01*
X91754399Y-25463562D01*
X91477136Y-25463320D01*
X91498100Y-25412709D01*
X91498100Y-25172150D01*
X91339350Y-25013400D01*
X90615100Y-25013400D01*
X90615100Y-25033400D01*
X90361100Y-25033400D01*
X90361100Y-25013400D01*
X89636850Y-25013400D01*
X89478100Y-25172150D01*
X89478100Y-25412709D01*
X89574773Y-25646098D01*
X89576143Y-25647468D01*
X89516669Y-25734510D01*
X89465660Y-25986400D01*
X89465660Y-26786400D01*
X89509938Y-27021717D01*
X89649010Y-27237841D01*
X89700700Y-27273159D01*
X89700700Y-27527230D01*
X89557927Y-27384208D01*
X89325718Y-27287786D01*
X89185717Y-26948957D01*
X88922927Y-26685708D01*
X88579399Y-26543062D01*
X88207433Y-26542738D01*
X87863657Y-26684783D01*
X87857930Y-26690500D01*
X86597178Y-26690500D01*
X86597262Y-26594233D01*
X86517897Y-26402155D01*
X88559961Y-24360091D01*
X89478100Y-24360091D01*
X89478100Y-24600650D01*
X89636850Y-24759400D01*
X90361100Y-24759400D01*
X90361100Y-24010150D01*
X90615100Y-24010150D01*
X90615100Y-24759400D01*
X91339350Y-24759400D01*
X91498100Y-24600650D01*
X91498100Y-24360091D01*
X91401427Y-24126702D01*
X91222799Y-23948073D01*
X90989410Y-23851400D01*
X90773850Y-23851400D01*
X90615100Y-24010150D01*
X90361100Y-24010150D01*
X90202350Y-23851400D01*
X89986790Y-23851400D01*
X89753401Y-23948073D01*
X89574773Y-24126702D01*
X89478100Y-24360091D01*
X88559961Y-24360091D01*
X92846252Y-20073800D01*
X97155600Y-20073800D01*
X97456925Y-20013863D01*
X97712376Y-19843176D01*
X97968996Y-19586556D01*
X97975767Y-19586562D01*
X98319543Y-19444517D01*
X98582792Y-19181727D01*
X98725438Y-18838199D01*
X98725523Y-18740300D01*
X106735448Y-18740300D01*
X111354200Y-23359052D01*
X111354200Y-23359052D01*
G37*
X111354200Y-23359052D02*
X111354200Y-51226900D01*
X111414137Y-51528225D01*
X111584824Y-51783676D01*
X112765924Y-52964776D01*
X113021375Y-53135463D01*
X113322700Y-53195400D01*
X113804527Y-53195400D01*
X113877910Y-53309441D01*
X114090110Y-53454431D01*
X114342000Y-53505440D01*
X114842000Y-53505440D01*
X115077317Y-53461162D01*
X115293441Y-53322090D01*
X115341134Y-53252289D01*
X115377910Y-53309441D01*
X115590110Y-53454431D01*
X115842000Y-53505440D01*
X116342000Y-53505440D01*
X116577317Y-53461162D01*
X116793441Y-53322090D01*
X116851807Y-53236669D01*
X116888706Y-53229329D01*
X117096681Y-53090364D01*
X117024100Y-53265590D01*
X117024100Y-53481150D01*
X117182850Y-53639900D01*
X117932100Y-53639900D01*
X117932100Y-53619900D01*
X118186100Y-53619900D01*
X118186100Y-53639900D01*
X118206100Y-53639900D01*
X118206100Y-53893900D01*
X118186100Y-53893900D01*
X118186100Y-54618150D01*
X118344850Y-54776900D01*
X118585409Y-54776900D01*
X118818798Y-54680227D01*
X118820168Y-54678857D01*
X118907210Y-54738331D01*
X119159100Y-54789340D01*
X119959100Y-54789340D01*
X120194417Y-54745062D01*
X120410541Y-54605990D01*
X120555531Y-54393790D01*
X120606540Y-54141900D01*
X120606540Y-53391900D01*
X120562262Y-53156583D01*
X120448100Y-52979170D01*
X120448100Y-52793839D01*
X120496500Y-52803640D01*
X121796500Y-52803640D01*
X122031817Y-52759362D01*
X122067990Y-52736086D01*
X122278140Y-52946236D01*
X122278140Y-54800564D01*
X121655904Y-55422800D01*
X44617576Y-55422800D01*
X44248100Y-55053324D01*
X44248100Y-54614521D01*
X44355531Y-54457290D01*
X44406540Y-54205400D01*
X44406540Y-54052650D01*
X117024100Y-54052650D01*
X117024100Y-54268210D01*
X117120773Y-54501599D01*
X117299402Y-54680227D01*
X117532791Y-54776900D01*
X117773350Y-54776900D01*
X117932100Y-54618150D01*
X117932100Y-53893900D01*
X117182850Y-53893900D01*
X117024100Y-54052650D01*
X44406540Y-54052650D01*
X44406540Y-53455400D01*
X44362262Y-53220083D01*
X44248100Y-53042670D01*
X44248100Y-52796411D01*
X44283800Y-52803640D01*
X45583800Y-52803640D01*
X45819117Y-52759362D01*
X46035241Y-52620290D01*
X46180231Y-52408090D01*
X46231240Y-52156200D01*
X46231240Y-51456200D01*
X46192226Y-51248858D01*
X46231240Y-51056200D01*
X46231240Y-50356200D01*
X46192226Y-50148858D01*
X46231240Y-49956200D01*
X46231240Y-49256200D01*
X46186962Y-49020883D01*
X46047890Y-48804759D01*
X45835690Y-48659769D01*
X45682500Y-48628747D01*
X45682500Y-47952011D01*
X45687292Y-47947227D01*
X45829938Y-47603699D01*
X45830165Y-47343440D01*
X46253200Y-47343440D01*
X46488517Y-47299162D01*
X46704641Y-47160090D01*
X46827879Y-46979725D01*
X79097787Y-46979725D01*
X79460116Y-47856629D01*
X80130442Y-48528126D01*
X81006713Y-48891985D01*
X81955525Y-48892813D01*
X82832429Y-48530484D01*
X83503926Y-47860158D01*
X83867785Y-46983887D01*
X83868613Y-46035075D01*
X83506284Y-45158171D01*
X82835958Y-44486674D01*
X81959687Y-44122815D01*
X81010875Y-44121987D01*
X80133971Y-44484316D01*
X79462474Y-45154642D01*
X79098615Y-46030913D01*
X79097787Y-46979725D01*
X46827879Y-46979725D01*
X46849631Y-46947890D01*
X46900640Y-46696000D01*
X46900640Y-45896000D01*
X46856362Y-45660683D01*
X46789871Y-45557354D01*
X46791527Y-45555698D01*
X46888200Y-45322309D01*
X46888200Y-45081750D01*
X46729450Y-44923000D01*
X46005200Y-44923000D01*
X46005200Y-44943000D01*
X45751200Y-44943000D01*
X45751200Y-44923000D01*
X45731200Y-44923000D01*
X45731200Y-44669000D01*
X45751200Y-44669000D01*
X45751200Y-43919750D01*
X46005200Y-43919750D01*
X46005200Y-44669000D01*
X46729450Y-44669000D01*
X46888200Y-44510250D01*
X46888200Y-44269691D01*
X46791527Y-44036302D01*
X46612899Y-43857673D01*
X46379510Y-43761000D01*
X46163950Y-43761000D01*
X46005200Y-43919750D01*
X45751200Y-43919750D01*
X45592450Y-43761000D01*
X45376890Y-43761000D01*
X45143501Y-43857673D01*
X44964873Y-44036302D01*
X44911565Y-44164998D01*
X44756952Y-44164998D01*
X44915700Y-44006250D01*
X44915700Y-43665691D01*
X44819027Y-43432302D01*
X44640399Y-43253673D01*
X44407010Y-43157000D01*
X43941450Y-43157000D01*
X43782700Y-43315750D01*
X43782700Y-44165000D01*
X43802700Y-44165000D01*
X43802700Y-44419000D01*
X43782700Y-44419000D01*
X43782700Y-44439000D01*
X43528700Y-44439000D01*
X43528700Y-44419000D01*
X42554450Y-44419000D01*
X42395700Y-44577750D01*
X42395700Y-44918309D01*
X42492373Y-45151698D01*
X42633610Y-45292936D01*
X42579259Y-45327910D01*
X42458532Y-45504600D01*
X40241279Y-45504600D01*
X40218427Y-45481708D01*
X39874899Y-45339062D01*
X39502933Y-45338738D01*
X39159157Y-45480783D01*
X38895908Y-45743573D01*
X38753262Y-46087101D01*
X38752938Y-46459067D01*
X38894983Y-46802843D01*
X39157773Y-47066092D01*
X39501301Y-47208738D01*
X39873267Y-47209062D01*
X40187074Y-47079400D01*
X42461052Y-47079400D01*
X42566610Y-47243441D01*
X42778810Y-47388431D01*
X43030700Y-47439440D01*
X43960080Y-47439440D01*
X43959938Y-47602067D01*
X44101983Y-47945843D01*
X44107700Y-47951570D01*
X44107700Y-48641896D01*
X44048483Y-48653038D01*
X43936680Y-48724981D01*
X43635595Y-48784870D01*
X43347182Y-48977582D01*
X43121314Y-49203450D01*
X43086962Y-49020883D01*
X42947890Y-48804759D01*
X42735690Y-48659769D01*
X42483800Y-48608760D01*
X41248196Y-48608760D01*
X41015218Y-48375782D01*
X40726806Y-48183071D01*
X40618360Y-48161500D01*
X40580690Y-48102959D01*
X40368490Y-47957969D01*
X40116600Y-47906960D01*
X39616600Y-47906960D01*
X39381283Y-47951238D01*
X39165159Y-48090310D01*
X39117466Y-48160111D01*
X39080690Y-48102959D01*
X38868490Y-47957969D01*
X38616600Y-47906960D01*
X38116600Y-47906960D01*
X37999000Y-47929088D01*
X37999000Y-43665691D01*
X42395700Y-43665691D01*
X42395700Y-44006250D01*
X42554450Y-44165000D01*
X43528700Y-44165000D01*
X43528700Y-43315750D01*
X43369950Y-43157000D01*
X42904390Y-43157000D01*
X42671001Y-43253673D01*
X42492373Y-43432302D01*
X42395700Y-43665691D01*
X37999000Y-43665691D01*
X37999000Y-42726552D01*
X44332252Y-36393300D01*
X69861328Y-36393300D01*
X69600775Y-36783245D01*
X69475100Y-37415055D01*
X69475100Y-37479745D01*
X69600775Y-38111555D01*
X69958667Y-38647178D01*
X70494290Y-39005070D01*
X71126100Y-39130745D01*
X71757910Y-39005070D01*
X72094101Y-38780434D01*
X72111773Y-38823098D01*
X72290401Y-39001727D01*
X72523790Y-39098400D01*
X73380350Y-39098400D01*
X73539100Y-38939650D01*
X73539100Y-37574400D01*
X73793100Y-37574400D01*
X73793100Y-38939650D01*
X73951850Y-39098400D01*
X74808410Y-39098400D01*
X75041799Y-39001727D01*
X75220427Y-38823098D01*
X75317100Y-38589709D01*
X75317100Y-37733150D01*
X75158350Y-37574400D01*
X73793100Y-37574400D01*
X73539100Y-37574400D01*
X73519100Y-37574400D01*
X73519100Y-37415055D01*
X87636100Y-37415055D01*
X87636100Y-37479745D01*
X87761775Y-38111555D01*
X88119667Y-38647178D01*
X88655290Y-39005070D01*
X89287100Y-39130745D01*
X89918910Y-39005070D01*
X90255101Y-38780434D01*
X90272773Y-38823098D01*
X90451401Y-39001727D01*
X90684790Y-39098400D01*
X91541350Y-39098400D01*
X91700100Y-38939650D01*
X91700100Y-37574400D01*
X91954100Y-37574400D01*
X91954100Y-38939650D01*
X92112850Y-39098400D01*
X92969410Y-39098400D01*
X93202799Y-39001727D01*
X93381427Y-38823098D01*
X93478100Y-38589709D01*
X93478100Y-37733150D01*
X93319350Y-37574400D01*
X91954100Y-37574400D01*
X91700100Y-37574400D01*
X91680100Y-37574400D01*
X91680100Y-37320400D01*
X91700100Y-37320400D01*
X91700100Y-35955150D01*
X91954100Y-35955150D01*
X91954100Y-37320400D01*
X93319350Y-37320400D01*
X93478100Y-37161650D01*
X93478100Y-36305091D01*
X93381427Y-36071702D01*
X93202799Y-35893073D01*
X92969410Y-35796400D01*
X92112850Y-35796400D01*
X91954100Y-35955150D01*
X91700100Y-35955150D01*
X91541350Y-35796400D01*
X90684790Y-35796400D01*
X90451401Y-35893073D01*
X90272773Y-36071702D01*
X90255101Y-36114366D01*
X89918910Y-35889730D01*
X89287100Y-35764055D01*
X88655290Y-35889730D01*
X88119667Y-36247622D01*
X87761775Y-36783245D01*
X87636100Y-37415055D01*
X73519100Y-37415055D01*
X73519100Y-37320400D01*
X73539100Y-37320400D01*
X73539100Y-37300400D01*
X73793100Y-37300400D01*
X73793100Y-37320400D01*
X75158350Y-37320400D01*
X75317100Y-37161650D01*
X75317100Y-36901300D01*
X82233100Y-36901300D01*
X82534425Y-36841363D01*
X82789876Y-36670676D01*
X83194252Y-36266300D01*
X83221989Y-36266300D01*
X83226773Y-36271092D01*
X83570301Y-36413738D01*
X83942267Y-36414062D01*
X84286043Y-36272017D01*
X84549292Y-36009227D01*
X84637166Y-35797603D01*
X84729283Y-36020543D01*
X84992073Y-36283792D01*
X85335601Y-36426438D01*
X85707567Y-36426762D01*
X86051343Y-36284717D01*
X86314592Y-36021927D01*
X86457238Y-35678399D01*
X86457562Y-35306433D01*
X86315517Y-34962657D01*
X86309800Y-34956930D01*
X86309800Y-33252352D01*
X91044876Y-28517276D01*
X91215563Y-28261825D01*
X91275500Y-27960500D01*
X91275500Y-27289513D01*
X91380801Y-27333238D01*
X91752767Y-27333562D01*
X92096543Y-27191517D01*
X92102270Y-27185800D01*
X95631600Y-27185800D01*
X95932925Y-27125863D01*
X96188376Y-26955176D01*
X96571996Y-26571556D01*
X96578767Y-26571562D01*
X96922543Y-26429517D01*
X97185792Y-26166727D01*
X97328438Y-25823199D01*
X97328762Y-25451233D01*
X97186717Y-25107457D01*
X96923927Y-24844208D01*
X96580399Y-24701562D01*
X96208433Y-24701238D01*
X95864657Y-24843283D01*
X95601408Y-25106073D01*
X95458762Y-25449601D01*
X95458755Y-25457693D01*
X95305448Y-25611000D01*
X92102711Y-25611000D01*
X92097927Y-25606208D01*
X91754399Y-25463562D01*
X91477136Y-25463320D01*
X91498100Y-25412709D01*
X91498100Y-25172150D01*
X91339350Y-25013400D01*
X90615100Y-25013400D01*
X90615100Y-25033400D01*
X90361100Y-25033400D01*
X90361100Y-25013400D01*
X89636850Y-25013400D01*
X89478100Y-25172150D01*
X89478100Y-25412709D01*
X89574773Y-25646098D01*
X89576143Y-25647468D01*
X89516669Y-25734510D01*
X89465660Y-25986400D01*
X89465660Y-26786400D01*
X89509938Y-27021717D01*
X89649010Y-27237841D01*
X89700700Y-27273159D01*
X89700700Y-27527230D01*
X89557927Y-27384208D01*
X89325718Y-27287786D01*
X89185717Y-26948957D01*
X88922927Y-26685708D01*
X88579399Y-26543062D01*
X88207433Y-26542738D01*
X87863657Y-26684783D01*
X87857930Y-26690500D01*
X86597178Y-26690500D01*
X86597262Y-26594233D01*
X86517897Y-26402155D01*
X88559961Y-24360091D01*
X89478100Y-24360091D01*
X89478100Y-24600650D01*
X89636850Y-24759400D01*
X90361100Y-24759400D01*
X90361100Y-24010150D01*
X90615100Y-24010150D01*
X90615100Y-24759400D01*
X91339350Y-24759400D01*
X91498100Y-24600650D01*
X91498100Y-24360091D01*
X91401427Y-24126702D01*
X91222799Y-23948073D01*
X90989410Y-23851400D01*
X90773850Y-23851400D01*
X90615100Y-24010150D01*
X90361100Y-24010150D01*
X90202350Y-23851400D01*
X89986790Y-23851400D01*
X89753401Y-23948073D01*
X89574773Y-24126702D01*
X89478100Y-24360091D01*
X88559961Y-24360091D01*
X92846252Y-20073800D01*
X97155600Y-20073800D01*
X97456925Y-20013863D01*
X97712376Y-19843176D01*
X97968996Y-19586556D01*
X97975767Y-19586562D01*
X98319543Y-19444517D01*
X98582792Y-19181727D01*
X98725438Y-18838199D01*
X98725523Y-18740300D01*
X106735448Y-18740300D01*
X111354200Y-23359052D01*
G36*
X159207800Y-48704500D02*
X159025943Y-48704500D01*
X158941890Y-48647069D01*
X158690000Y-48596060D01*
X157390000Y-48596060D01*
X157154683Y-48640338D01*
X157054972Y-48704500D01*
X157018500Y-48704500D01*
X156678294Y-48772171D01*
X156389882Y-48964882D01*
X156217458Y-49137306D01*
X156193162Y-49008183D01*
X156054090Y-48792059D01*
X155841890Y-48647069D01*
X155590000Y-48596060D01*
X154290000Y-48596060D01*
X154162489Y-48620053D01*
X153943618Y-48401182D01*
X153858762Y-48344483D01*
X153655206Y-48208471D01*
X153550939Y-48187731D01*
X153496390Y-48102959D01*
X153284190Y-47957969D01*
X153032300Y-47906960D01*
X152532300Y-47906960D01*
X152296983Y-47951238D01*
X152080859Y-48090310D01*
X152033166Y-48160111D01*
X151996390Y-48102959D01*
X151784190Y-47957969D01*
X151532300Y-47906960D01*
X151032300Y-47906960D01*
X150978900Y-47917008D01*
X150978900Y-34112913D01*
X151004961Y-34050150D01*
X153917600Y-34050150D01*
X153917600Y-34265710D01*
X154014273Y-34499099D01*
X154192902Y-34677727D01*
X154426291Y-34774400D01*
X154666850Y-34774400D01*
X154825600Y-34615650D01*
X154825600Y-33891400D01*
X154076350Y-33891400D01*
X153917600Y-34050150D01*
X151004961Y-34050150D01*
X151088238Y-33849599D01*
X151088562Y-33477633D01*
X151062286Y-33414040D01*
X151532300Y-33414040D01*
X151767617Y-33369762D01*
X151983741Y-33230690D01*
X152031434Y-33160889D01*
X152068210Y-33218041D01*
X152280410Y-33363031D01*
X152532300Y-33414040D01*
X153032300Y-33414040D01*
X153267617Y-33369762D01*
X153433389Y-33263090D01*
X153917600Y-33263090D01*
X153917600Y-33478650D01*
X154076350Y-33637400D01*
X154825600Y-33637400D01*
X154825600Y-32913150D01*
X154666850Y-32754400D01*
X154426291Y-32754400D01*
X154192902Y-32851073D01*
X154014273Y-33029701D01*
X153917600Y-33263090D01*
X153433389Y-33263090D01*
X153483741Y-33230690D01*
X153516139Y-33183274D01*
X153744106Y-33137929D01*
X154032518Y-32945218D01*
X154248500Y-32729236D01*
X154290000Y-32737640D01*
X155563600Y-32737640D01*
X155563600Y-32789480D01*
X155478909Y-32754400D01*
X155238350Y-32754400D01*
X155079600Y-32913150D01*
X155079600Y-33637400D01*
X155099600Y-33637400D01*
X155099600Y-33891400D01*
X155079600Y-33891400D01*
X155079600Y-34615650D01*
X155238350Y-34774400D01*
X155478909Y-34774400D01*
X155542648Y-34747999D01*
X155454776Y-34959617D01*
X155454425Y-35361420D01*
X155607864Y-35732772D01*
X155891734Y-36017137D01*
X156262817Y-36171224D01*
X156265933Y-36171227D01*
X157367945Y-37273239D01*
X157476823Y-37536743D01*
X157739613Y-37799992D01*
X158083141Y-37942638D01*
X158455107Y-37942962D01*
X158798883Y-37800917D01*
X159062132Y-37538127D01*
X159204778Y-37194599D01*
X159205102Y-36822633D01*
X159063057Y-36478857D01*
X158800267Y-36215608D01*
X158535055Y-36105482D01*
X157474702Y-35045128D01*
X157474775Y-34961380D01*
X157321336Y-34590028D01*
X157316529Y-34585213D01*
X157449031Y-34391290D01*
X157500040Y-34139400D01*
X157500040Y-33389400D01*
X157455762Y-33154083D01*
X157341600Y-32976670D01*
X157341600Y-32727839D01*
X157390000Y-32737640D01*
X158690000Y-32737640D01*
X158925317Y-32693362D01*
X159025028Y-32629200D01*
X159207800Y-32629200D01*
X159207800Y-48704500D01*
X159207800Y-48704500D01*
G37*
X159207800Y-48704500D02*
X159025943Y-48704500D01*
X158941890Y-48647069D01*
X158690000Y-48596060D01*
X157390000Y-48596060D01*
X157154683Y-48640338D01*
X157054972Y-48704500D01*
X157018500Y-48704500D01*
X156678294Y-48772171D01*
X156389882Y-48964882D01*
X156217458Y-49137306D01*
X156193162Y-49008183D01*
X156054090Y-48792059D01*
X155841890Y-48647069D01*
X155590000Y-48596060D01*
X154290000Y-48596060D01*
X154162489Y-48620053D01*
X153943618Y-48401182D01*
X153858762Y-48344483D01*
X153655206Y-48208471D01*
X153550939Y-48187731D01*
X153496390Y-48102959D01*
X153284190Y-47957969D01*
X153032300Y-47906960D01*
X152532300Y-47906960D01*
X152296983Y-47951238D01*
X152080859Y-48090310D01*
X152033166Y-48160111D01*
X151996390Y-48102959D01*
X151784190Y-47957969D01*
X151532300Y-47906960D01*
X151032300Y-47906960D01*
X150978900Y-47917008D01*
X150978900Y-34112913D01*
X151004961Y-34050150D01*
X153917600Y-34050150D01*
X153917600Y-34265710D01*
X154014273Y-34499099D01*
X154192902Y-34677727D01*
X154426291Y-34774400D01*
X154666850Y-34774400D01*
X154825600Y-34615650D01*
X154825600Y-33891400D01*
X154076350Y-33891400D01*
X153917600Y-34050150D01*
X151004961Y-34050150D01*
X151088238Y-33849599D01*
X151088562Y-33477633D01*
X151062286Y-33414040D01*
X151532300Y-33414040D01*
X151767617Y-33369762D01*
X151983741Y-33230690D01*
X152031434Y-33160889D01*
X152068210Y-33218041D01*
X152280410Y-33363031D01*
X152532300Y-33414040D01*
X153032300Y-33414040D01*
X153267617Y-33369762D01*
X153433389Y-33263090D01*
X153917600Y-33263090D01*
X153917600Y-33478650D01*
X154076350Y-33637400D01*
X154825600Y-33637400D01*
X154825600Y-32913150D01*
X154666850Y-32754400D01*
X154426291Y-32754400D01*
X154192902Y-32851073D01*
X154014273Y-33029701D01*
X153917600Y-33263090D01*
X153433389Y-33263090D01*
X153483741Y-33230690D01*
X153516139Y-33183274D01*
X153744106Y-33137929D01*
X154032518Y-32945218D01*
X154248500Y-32729236D01*
X154290000Y-32737640D01*
X155563600Y-32737640D01*
X155563600Y-32789480D01*
X155478909Y-32754400D01*
X155238350Y-32754400D01*
X155079600Y-32913150D01*
X155079600Y-33637400D01*
X155099600Y-33637400D01*
X155099600Y-33891400D01*
X155079600Y-33891400D01*
X155079600Y-34615650D01*
X155238350Y-34774400D01*
X155478909Y-34774400D01*
X155542648Y-34747999D01*
X155454776Y-34959617D01*
X155454425Y-35361420D01*
X155607864Y-35732772D01*
X155891734Y-36017137D01*
X156262817Y-36171224D01*
X156265933Y-36171227D01*
X157367945Y-37273239D01*
X157476823Y-37536743D01*
X157739613Y-37799992D01*
X158083141Y-37942638D01*
X158455107Y-37942962D01*
X158798883Y-37800917D01*
X159062132Y-37538127D01*
X159204778Y-37194599D01*
X159205102Y-36822633D01*
X159063057Y-36478857D01*
X158800267Y-36215608D01*
X158535055Y-36105482D01*
X157474702Y-35045128D01*
X157474775Y-34961380D01*
X157321336Y-34590028D01*
X157316529Y-34585213D01*
X157449031Y-34391290D01*
X157500040Y-34139400D01*
X157500040Y-33389400D01*
X157455762Y-33154083D01*
X157341600Y-32976670D01*
X157341600Y-32727839D01*
X157390000Y-32737640D01*
X158690000Y-32737640D01*
X158925317Y-32693362D01*
X159025028Y-32629200D01*
X159207800Y-32629200D01*
X159207800Y-48704500D01*
G36*
X8973182Y-32945218D02*
X9261594Y-33137929D01*
X9471989Y-33179779D01*
X9496610Y-33218041D01*
X9708810Y-33363031D01*
X9960700Y-33414040D01*
X10460700Y-33414040D01*
X10696017Y-33369762D01*
X10912141Y-33230690D01*
X10959834Y-33160889D01*
X10996610Y-33218041D01*
X11208810Y-33363031D01*
X11460700Y-33414040D01*
X11960700Y-33414040D01*
X12196017Y-33369762D01*
X12412141Y-33230690D01*
X12472672Y-33142100D01*
X16117866Y-33142100D01*
X16447100Y-33471333D01*
X16447100Y-48916466D01*
X15951317Y-48420683D01*
X15683506Y-48241737D01*
X15367600Y-48178900D01*
X12473657Y-48178900D01*
X12424790Y-48102959D01*
X12212590Y-47957969D01*
X11960700Y-47906960D01*
X11460700Y-47906960D01*
X11225383Y-47951238D01*
X11009259Y-48090310D01*
X10961566Y-48160111D01*
X10924790Y-48102959D01*
X10712590Y-47957969D01*
X10460700Y-47906960D01*
X9960700Y-47906960D01*
X9725383Y-47951238D01*
X9509259Y-48090310D01*
X9450784Y-48175891D01*
X9286994Y-48208471D01*
X9083438Y-48344483D01*
X8998582Y-48401182D01*
X8784606Y-48615158D01*
X8690300Y-48596060D01*
X7404000Y-48596060D01*
X7404000Y-34612320D01*
X7488691Y-34647400D01*
X7729250Y-34647400D01*
X7888000Y-34488650D01*
X7888000Y-33764400D01*
X8142000Y-33764400D01*
X8142000Y-34488650D01*
X8300750Y-34647400D01*
X8541309Y-34647400D01*
X8774698Y-34550727D01*
X8953327Y-34372099D01*
X9050000Y-34138710D01*
X9050000Y-33923150D01*
X8891250Y-33764400D01*
X8142000Y-33764400D01*
X7888000Y-33764400D01*
X7868000Y-33764400D01*
X7868000Y-33510400D01*
X7888000Y-33510400D01*
X7888000Y-33490400D01*
X8142000Y-33490400D01*
X8142000Y-33510400D01*
X8891250Y-33510400D01*
X9050000Y-33351650D01*
X9050000Y-33136090D01*
X8969351Y-32941387D01*
X8973182Y-32945218D01*
X8973182Y-32945218D01*
G37*
X8973182Y-32945218D02*
X9261594Y-33137929D01*
X9471989Y-33179779D01*
X9496610Y-33218041D01*
X9708810Y-33363031D01*
X9960700Y-33414040D01*
X10460700Y-33414040D01*
X10696017Y-33369762D01*
X10912141Y-33230690D01*
X10959834Y-33160889D01*
X10996610Y-33218041D01*
X11208810Y-33363031D01*
X11460700Y-33414040D01*
X11960700Y-33414040D01*
X12196017Y-33369762D01*
X12412141Y-33230690D01*
X12472672Y-33142100D01*
X16117866Y-33142100D01*
X16447100Y-33471333D01*
X16447100Y-48916466D01*
X15951317Y-48420683D01*
X15683506Y-48241737D01*
X15367600Y-48178900D01*
X12473657Y-48178900D01*
X12424790Y-48102959D01*
X12212590Y-47957969D01*
X11960700Y-47906960D01*
X11460700Y-47906960D01*
X11225383Y-47951238D01*
X11009259Y-48090310D01*
X10961566Y-48160111D01*
X10924790Y-48102959D01*
X10712590Y-47957969D01*
X10460700Y-47906960D01*
X9960700Y-47906960D01*
X9725383Y-47951238D01*
X9509259Y-48090310D01*
X9450784Y-48175891D01*
X9286994Y-48208471D01*
X9083438Y-48344483D01*
X8998582Y-48401182D01*
X8784606Y-48615158D01*
X8690300Y-48596060D01*
X7404000Y-48596060D01*
X7404000Y-34612320D01*
X7488691Y-34647400D01*
X7729250Y-34647400D01*
X7888000Y-34488650D01*
X7888000Y-33764400D01*
X8142000Y-33764400D01*
X8142000Y-34488650D01*
X8300750Y-34647400D01*
X8541309Y-34647400D01*
X8774698Y-34550727D01*
X8953327Y-34372099D01*
X9050000Y-34138710D01*
X9050000Y-33923150D01*
X8891250Y-33764400D01*
X8142000Y-33764400D01*
X7888000Y-33764400D01*
X7868000Y-33764400D01*
X7868000Y-33510400D01*
X7888000Y-33510400D01*
X7888000Y-33490400D01*
X8142000Y-33490400D01*
X8142000Y-33510400D01*
X8891250Y-33510400D01*
X9050000Y-33351650D01*
X9050000Y-33136090D01*
X8969351Y-32941387D01*
X8973182Y-32945218D01*
G36*
X86253983Y-15052843D02*
X86516773Y-15316092D01*
X86860301Y-15458738D01*
X87232267Y-15459062D01*
X87445520Y-15370948D01*
X87523983Y-15560843D01*
X87786773Y-15824092D01*
X88130301Y-15966738D01*
X88502267Y-15967062D01*
X88793643Y-15846668D01*
X89082801Y-15966738D01*
X89090893Y-15966745D01*
X89347824Y-16223676D01*
X89362659Y-16233588D01*
X89362438Y-16487067D01*
X89504483Y-16830843D01*
X89767273Y-17094092D01*
X90110801Y-17236738D01*
X90118893Y-17236745D01*
X91391824Y-18509676D01*
X91447542Y-18546906D01*
X84328600Y-25665848D01*
X84328600Y-25511111D01*
X84333392Y-25506327D01*
X84476038Y-25162799D01*
X84476362Y-24790833D01*
X84334317Y-24447057D01*
X84071527Y-24183808D01*
X83727999Y-24041162D01*
X83356033Y-24040838D01*
X83012257Y-24182883D01*
X82749008Y-24445673D01*
X82606362Y-24789201D01*
X82606038Y-25161167D01*
X82748083Y-25504943D01*
X82753800Y-25510670D01*
X82753800Y-26320489D01*
X82749008Y-26325273D01*
X82686177Y-26476587D01*
X82645217Y-26377457D01*
X82382427Y-26114208D01*
X82038899Y-25971562D01*
X81666933Y-25971238D01*
X81323157Y-26113283D01*
X81153535Y-26282609D01*
X80985427Y-26114208D01*
X80641899Y-25971562D01*
X80269933Y-25971238D01*
X79926157Y-26113283D01*
X79662908Y-26376073D01*
X79520262Y-26719601D01*
X79519938Y-27091567D01*
X79661983Y-27435343D01*
X79924773Y-27698592D01*
X80268301Y-27841238D01*
X80276393Y-27841245D01*
X81168324Y-28733176D01*
X81423775Y-28903863D01*
X81725100Y-28963800D01*
X88371248Y-28963800D01*
X84965624Y-32369424D01*
X84794937Y-32624875D01*
X84735000Y-32926200D01*
X84735000Y-34956489D01*
X84730208Y-34961273D01*
X84642334Y-35172897D01*
X84550217Y-34949957D01*
X84287427Y-34686708D01*
X83943899Y-34544062D01*
X83571933Y-34543738D01*
X83228157Y-34685783D01*
X83222430Y-34691500D01*
X82868100Y-34691500D01*
X82566775Y-34751437D01*
X82311324Y-34922124D01*
X81906948Y-35326500D01*
X74736052Y-35326500D01*
X75614376Y-34448176D01*
X75785063Y-34192725D01*
X75845000Y-33891400D01*
X75845000Y-29518552D01*
X82686252Y-22677300D01*
X84646100Y-22677300D01*
X84947425Y-22617363D01*
X85202876Y-22446676D01*
X85903996Y-21745556D01*
X85910767Y-21745562D01*
X86254543Y-21603517D01*
X86517792Y-21340727D01*
X86660438Y-20997199D01*
X86660762Y-20625233D01*
X86518717Y-20281457D01*
X86255927Y-20018208D01*
X86005354Y-19914161D01*
X85947217Y-19773457D01*
X85684427Y-19510208D01*
X85357203Y-19374332D01*
X85312217Y-19265457D01*
X85049427Y-19002208D01*
X84705899Y-18859562D01*
X84333933Y-18859238D01*
X83990157Y-19001283D01*
X83726908Y-19264073D01*
X83584262Y-19607601D01*
X83584255Y-19615693D01*
X83367448Y-19832500D01*
X82233100Y-19832500D01*
X81931775Y-19892437D01*
X81676324Y-20063124D01*
X79636600Y-22102848D01*
X79636600Y-21985150D01*
X79477850Y-21826400D01*
X78728600Y-21826400D01*
X78728600Y-22550650D01*
X78887350Y-22709400D01*
X79030048Y-22709400D01*
X77129640Y-24609808D01*
X77146924Y-24568183D01*
X77147275Y-24166380D01*
X76993836Y-23795028D01*
X76924500Y-23725571D01*
X76924500Y-22721840D01*
X77501600Y-22721840D01*
X77736917Y-22677562D01*
X77840246Y-22611071D01*
X77841902Y-22612727D01*
X78075291Y-22709400D01*
X78315850Y-22709400D01*
X78474600Y-22550650D01*
X78474600Y-21826400D01*
X78454600Y-21826400D01*
X78454600Y-21572400D01*
X78474600Y-21572400D01*
X78474600Y-20175400D01*
X78728600Y-20175400D01*
X78728600Y-21572400D01*
X79477850Y-21572400D01*
X79636600Y-21413650D01*
X79636600Y-21198090D01*
X79539927Y-20964701D01*
X79449125Y-20873900D01*
X79539927Y-20783099D01*
X79636600Y-20549710D01*
X79636600Y-20334150D01*
X79477850Y-20175400D01*
X78728600Y-20175400D01*
X78474600Y-20175400D01*
X78454600Y-20175400D01*
X78454600Y-19921400D01*
X78474600Y-19921400D01*
X78474600Y-19901400D01*
X78536170Y-19901400D01*
X78541801Y-19903738D01*
X78728600Y-19903901D01*
X78728600Y-19921400D01*
X79477850Y-19921400D01*
X79636600Y-19762650D01*
X79636600Y-19547090D01*
X79568843Y-19383509D01*
X79663438Y-19155699D01*
X79663572Y-19002340D01*
X79986600Y-19002340D01*
X80093103Y-18982300D01*
X81991100Y-18982300D01*
X82292425Y-18922363D01*
X82547876Y-18751676D01*
X86251856Y-15047696D01*
X86253983Y-15052843D01*
X86253983Y-15052843D01*
G37*
X86253983Y-15052843D02*
X86516773Y-15316092D01*
X86860301Y-15458738D01*
X87232267Y-15459062D01*
X87445520Y-15370948D01*
X87523983Y-15560843D01*
X87786773Y-15824092D01*
X88130301Y-15966738D01*
X88502267Y-15967062D01*
X88793643Y-15846668D01*
X89082801Y-15966738D01*
X89090893Y-15966745D01*
X89347824Y-16223676D01*
X89362659Y-16233588D01*
X89362438Y-16487067D01*
X89504483Y-16830843D01*
X89767273Y-17094092D01*
X90110801Y-17236738D01*
X90118893Y-17236745D01*
X91391824Y-18509676D01*
X91447542Y-18546906D01*
X84328600Y-25665848D01*
X84328600Y-25511111D01*
X84333392Y-25506327D01*
X84476038Y-25162799D01*
X84476362Y-24790833D01*
X84334317Y-24447057D01*
X84071527Y-24183808D01*
X83727999Y-24041162D01*
X83356033Y-24040838D01*
X83012257Y-24182883D01*
X82749008Y-24445673D01*
X82606362Y-24789201D01*
X82606038Y-25161167D01*
X82748083Y-25504943D01*
X82753800Y-25510670D01*
X82753800Y-26320489D01*
X82749008Y-26325273D01*
X82686177Y-26476587D01*
X82645217Y-26377457D01*
X82382427Y-26114208D01*
X82038899Y-25971562D01*
X81666933Y-25971238D01*
X81323157Y-26113283D01*
X81153535Y-26282609D01*
X80985427Y-26114208D01*
X80641899Y-25971562D01*
X80269933Y-25971238D01*
X79926157Y-26113283D01*
X79662908Y-26376073D01*
X79520262Y-26719601D01*
X79519938Y-27091567D01*
X79661983Y-27435343D01*
X79924773Y-27698592D01*
X80268301Y-27841238D01*
X80276393Y-27841245D01*
X81168324Y-28733176D01*
X81423775Y-28903863D01*
X81725100Y-28963800D01*
X88371248Y-28963800D01*
X84965624Y-32369424D01*
X84794937Y-32624875D01*
X84735000Y-32926200D01*
X84735000Y-34956489D01*
X84730208Y-34961273D01*
X84642334Y-35172897D01*
X84550217Y-34949957D01*
X84287427Y-34686708D01*
X83943899Y-34544062D01*
X83571933Y-34543738D01*
X83228157Y-34685783D01*
X83222430Y-34691500D01*
X82868100Y-34691500D01*
X82566775Y-34751437D01*
X82311324Y-34922124D01*
X81906948Y-35326500D01*
X74736052Y-35326500D01*
X75614376Y-34448176D01*
X75785063Y-34192725D01*
X75845000Y-33891400D01*
X75845000Y-29518552D01*
X82686252Y-22677300D01*
X84646100Y-22677300D01*
X84947425Y-22617363D01*
X85202876Y-22446676D01*
X85903996Y-21745556D01*
X85910767Y-21745562D01*
X86254543Y-21603517D01*
X86517792Y-21340727D01*
X86660438Y-20997199D01*
X86660762Y-20625233D01*
X86518717Y-20281457D01*
X86255927Y-20018208D01*
X86005354Y-19914161D01*
X85947217Y-19773457D01*
X85684427Y-19510208D01*
X85357203Y-19374332D01*
X85312217Y-19265457D01*
X85049427Y-19002208D01*
X84705899Y-18859562D01*
X84333933Y-18859238D01*
X83990157Y-19001283D01*
X83726908Y-19264073D01*
X83584262Y-19607601D01*
X83584255Y-19615693D01*
X83367448Y-19832500D01*
X82233100Y-19832500D01*
X81931775Y-19892437D01*
X81676324Y-20063124D01*
X79636600Y-22102848D01*
X79636600Y-21985150D01*
X79477850Y-21826400D01*
X78728600Y-21826400D01*
X78728600Y-22550650D01*
X78887350Y-22709400D01*
X79030048Y-22709400D01*
X77129640Y-24609808D01*
X77146924Y-24568183D01*
X77147275Y-24166380D01*
X76993836Y-23795028D01*
X76924500Y-23725571D01*
X76924500Y-22721840D01*
X77501600Y-22721840D01*
X77736917Y-22677562D01*
X77840246Y-22611071D01*
X77841902Y-22612727D01*
X78075291Y-22709400D01*
X78315850Y-22709400D01*
X78474600Y-22550650D01*
X78474600Y-21826400D01*
X78454600Y-21826400D01*
X78454600Y-21572400D01*
X78474600Y-21572400D01*
X78474600Y-20175400D01*
X78728600Y-20175400D01*
X78728600Y-21572400D01*
X79477850Y-21572400D01*
X79636600Y-21413650D01*
X79636600Y-21198090D01*
X79539927Y-20964701D01*
X79449125Y-20873900D01*
X79539927Y-20783099D01*
X79636600Y-20549710D01*
X79636600Y-20334150D01*
X79477850Y-20175400D01*
X78728600Y-20175400D01*
X78474600Y-20175400D01*
X78454600Y-20175400D01*
X78454600Y-19921400D01*
X78474600Y-19921400D01*
X78474600Y-19901400D01*
X78536170Y-19901400D01*
X78541801Y-19903738D01*
X78728600Y-19903901D01*
X78728600Y-19921400D01*
X79477850Y-19921400D01*
X79636600Y-19762650D01*
X79636600Y-19547090D01*
X79568843Y-19383509D01*
X79663438Y-19155699D01*
X79663572Y-19002340D01*
X79986600Y-19002340D01*
X80093103Y-18982300D01*
X81991100Y-18982300D01*
X82292425Y-18922363D01*
X82547876Y-18751676D01*
X86251856Y-15047696D01*
X86253983Y-15052843D01*
G36*
X119817548Y-13150858D02*
X119803405Y-13165000D01*
X119817548Y-13179142D01*
X119637942Y-13358748D01*
X119623800Y-13344605D01*
X119609658Y-13358748D01*
X119430052Y-13179142D01*
X119444195Y-13165000D01*
X119430052Y-13150858D01*
X119609658Y-12971253D01*
X119623800Y-12985395D01*
X119637943Y-12971253D01*
X119817548Y-13150858D01*
X119817548Y-13150858D01*
G37*
X119817548Y-13150858D02*
X119803405Y-13165000D01*
X119817548Y-13179142D01*
X119637942Y-13358748D01*
X119623800Y-13344605D01*
X119609658Y-13358748D01*
X119430052Y-13179142D01*
X119444195Y-13165000D01*
X119430052Y-13150858D01*
X119609658Y-12971253D01*
X119623800Y-12985395D01*
X119637943Y-12971253D01*
X119817548Y-13150858D01*
G36*
X140023600Y-3157400D02*
X140043600Y-3157400D01*
X140043600Y-3411400D01*
X140023600Y-3411400D01*
X140023600Y-4618217D01*
X140255626Y-4739358D01*
X140671547Y-4567088D01*
X141103421Y-4172890D01*
X141160936Y-4050172D01*
X141376930Y-4373429D01*
X141863111Y-4698285D01*
X142436600Y-4812359D01*
X142782252Y-4743604D01*
X143675700Y-5637052D01*
X143675700Y-8355748D01*
X141469948Y-10561500D01*
X131193052Y-10561500D01*
X137010948Y-4743604D01*
X137356600Y-4812359D01*
X137930089Y-4698285D01*
X138416270Y-4373429D01*
X138632264Y-4050172D01*
X138689779Y-4172890D01*
X139121653Y-4567088D01*
X139537574Y-4739358D01*
X139769600Y-4618217D01*
X139769600Y-3411400D01*
X139749600Y-3411400D01*
X139749600Y-3157400D01*
X139769600Y-3157400D01*
X139769600Y-3137400D01*
X140023600Y-3137400D01*
X140023600Y-3157400D01*
X140023600Y-3157400D01*
G37*
X140023600Y-3157400D02*
X140043600Y-3157400D01*
X140043600Y-3411400D01*
X140023600Y-3411400D01*
X140023600Y-4618217D01*
X140255626Y-4739358D01*
X140671547Y-4567088D01*
X141103421Y-4172890D01*
X141160936Y-4050172D01*
X141376930Y-4373429D01*
X141863111Y-4698285D01*
X142436600Y-4812359D01*
X142782252Y-4743604D01*
X143675700Y-5637052D01*
X143675700Y-8355748D01*
X141469948Y-10561500D01*
X131193052Y-10561500D01*
X137010948Y-4743604D01*
X137356600Y-4812359D01*
X137930089Y-4698285D01*
X138416270Y-4373429D01*
X138632264Y-4050172D01*
X138689779Y-4172890D01*
X139121653Y-4567088D01*
X139537574Y-4739358D01*
X139769600Y-4618217D01*
X139769600Y-3411400D01*
X139749600Y-3411400D01*
X139749600Y-3157400D01*
X139769600Y-3157400D01*
X139769600Y-3137400D01*
X140023600Y-3137400D01*
X140023600Y-3157400D01*
G36*
X133361632Y-385373D02*
X133482131Y-617400D01*
X134689600Y-617400D01*
X134689600Y-597400D01*
X134943600Y-597400D01*
X134943600Y-617400D01*
X134963600Y-617400D01*
X134963600Y-871400D01*
X134943600Y-871400D01*
X134943600Y-891400D01*
X134689600Y-891400D01*
X134689600Y-871400D01*
X133482131Y-871400D01*
X133361632Y-1103427D01*
X133609779Y-1632890D01*
X133796033Y-1802895D01*
X133717683Y-1817638D01*
X133501559Y-1956710D01*
X133356569Y-2168910D01*
X133305560Y-2420800D01*
X133305560Y-4148000D01*
X133349838Y-4383317D01*
X133488910Y-4599441D01*
X133701110Y-4744431D01*
X133909764Y-4786684D01*
X132550500Y-6145948D01*
X132550500Y-880052D01*
X133168752Y-261800D01*
X133419548Y-261800D01*
X133361632Y-385373D01*
X133361632Y-385373D01*
G37*
X133361632Y-385373D02*
X133482131Y-617400D01*
X134689600Y-617400D01*
X134689600Y-597400D01*
X134943600Y-597400D01*
X134943600Y-617400D01*
X134963600Y-617400D01*
X134963600Y-871400D01*
X134943600Y-871400D01*
X134943600Y-891400D01*
X134689600Y-891400D01*
X134689600Y-871400D01*
X133482131Y-871400D01*
X133361632Y-1103427D01*
X133609779Y-1632890D01*
X133796033Y-1802895D01*
X133717683Y-1817638D01*
X133501559Y-1956710D01*
X133356569Y-2168910D01*
X133305560Y-2420800D01*
X133305560Y-4148000D01*
X133349838Y-4383317D01*
X133488910Y-4599441D01*
X133701110Y-4744431D01*
X133909764Y-4786684D01*
X132550500Y-6145948D01*
X132550500Y-880052D01*
X133168752Y-261800D01*
X133419548Y-261800D01*
X133361632Y-385373D01*
G36*
X13371790Y-11709792D02*
X13491991Y-11790109D01*
X13572308Y-11910310D01*
X13603000Y-12064609D01*
X13603000Y-25581091D01*
X13572308Y-25735390D01*
X13491991Y-25855591D01*
X13371790Y-25935908D01*
X13217491Y-25966600D01*
X-552991Y-25966600D01*
X-707290Y-25935908D01*
X-827491Y-25855591D01*
X-907808Y-25735390D01*
X-938500Y-25581091D01*
X-938500Y-12064609D01*
X-907808Y-11910310D01*
X-827491Y-11790109D01*
X-707290Y-11709792D01*
X-552991Y-11679100D01*
X13217491Y-11679100D01*
X13371790Y-11709792D01*
X13371790Y-11709792D01*
G37*
X13371790Y-11709792D02*
X13491991Y-11790109D01*
X13572308Y-11910310D01*
X13603000Y-12064609D01*
X13603000Y-25581091D01*
X13572308Y-25735390D01*
X13491991Y-25855591D01*
X13371790Y-25935908D01*
X13217491Y-25966600D01*
X-552991Y-25966600D01*
X-707290Y-25935908D01*
X-827491Y-25855591D01*
X-907808Y-25735390D01*
X-938500Y-25581091D01*
X-938500Y-12064609D01*
X-907808Y-11910310D01*
X-827491Y-11790109D01*
X-707290Y-11709792D01*
X-552991Y-11679100D01*
X13217491Y-11679100D01*
X13371790Y-11709792D01*
G36*
X29183290Y-11709792D02*
X29303491Y-11790109D01*
X29383808Y-11910310D01*
X29414500Y-12064609D01*
X29414500Y-25581091D01*
X29383808Y-25735390D01*
X29303491Y-25855591D01*
X29183290Y-25935908D01*
X29028991Y-25966600D01*
X15258509Y-25966600D01*
X15104210Y-25935908D01*
X14984009Y-25855591D01*
X14903692Y-25735390D01*
X14873000Y-25581091D01*
X14873000Y-12064609D01*
X14903692Y-11910310D01*
X14984009Y-11790109D01*
X15104210Y-11709792D01*
X15258509Y-11679100D01*
X29028991Y-11679100D01*
X29183290Y-11709792D01*
X29183290Y-11709792D01*
G37*
X29183290Y-11709792D02*
X29303491Y-11790109D01*
X29383808Y-11910310D01*
X29414500Y-12064609D01*
X29414500Y-25581091D01*
X29383808Y-25735390D01*
X29303491Y-25855591D01*
X29183290Y-25935908D01*
X29028991Y-25966600D01*
X15258509Y-25966600D01*
X15104210Y-25935908D01*
X14984009Y-25855591D01*
X14903692Y-25735390D01*
X14873000Y-25581091D01*
X14873000Y-12064609D01*
X14903692Y-11910310D01*
X14984009Y-11790109D01*
X15104210Y-11709792D01*
X15258509Y-11679100D01*
X29028991Y-11679100D01*
X29183290Y-11709792D01*
M02*
