G04 #@! TF.FileFunction,Legend,Bot*
%FSLAX46Y46*%
G04 Gerber Fmt 4.6, Leading zero omitted, Abs format (unit mm)*
G04 Created by KiCad (PCBNEW no-vcs-found-product) date Mon 12 Oct 2015 08:57:33 AM BRT*
%MOMM*%
G01*
G04 APERTURE LIST*
%ADD10C,0.100000*%
%ADD11C,0.150000*%
G04 APERTURE END LIST*
D10*
D11*
X120525700Y-44180000D02*
X120525700Y-44880000D01*
X121725700Y-44880000D02*
X121725700Y-44180000D01*
X118053200Y-44712500D02*
X118053200Y-43712500D01*
X119753200Y-43712500D02*
X119753200Y-44712500D01*
X45278200Y-45196000D02*
X45278200Y-45896000D01*
X46478200Y-45896000D02*
X46478200Y-45196000D01*
X42805700Y-45792000D02*
X42805700Y-44792000D01*
X44505700Y-44792000D02*
X44505700Y-45792000D01*
X91088100Y-25986400D02*
X91088100Y-25286400D01*
X89888100Y-25286400D02*
X89888100Y-25986400D01*
X77501600Y-20648400D02*
X78201600Y-20648400D01*
X78201600Y-19448400D02*
X77501600Y-19448400D01*
X77501600Y-22299400D02*
X78201600Y-22299400D01*
X78201600Y-21099400D02*
X77501600Y-21099400D01*
X119159100Y-53166900D02*
X118459100Y-53166900D01*
X118459100Y-54366900D02*
X119159100Y-54366900D01*
X156052600Y-33164400D02*
X155352600Y-33164400D01*
X155352600Y-34364400D02*
X156052600Y-34364400D01*
X42959100Y-53230400D02*
X42259100Y-53230400D01*
X42259100Y-54430400D02*
X42959100Y-54430400D01*
X156052600Y-53103400D02*
X155352600Y-53103400D01*
X155352600Y-54303400D02*
X156052600Y-54303400D01*
X6915000Y-34237400D02*
X7615000Y-34237400D01*
X7615000Y-33037400D02*
X6915000Y-33037400D01*
X6915000Y-54303400D02*
X7615000Y-54303400D01*
X7615000Y-53103400D02*
X6915000Y-53103400D01*
X117046500Y-52506200D02*
X117046500Y-51606200D01*
X117046500Y-48906200D02*
X121946500Y-48906200D01*
X121946500Y-52506200D02*
X117046500Y-52506200D01*
X153940000Y-32440200D02*
X153940000Y-31540200D01*
X153940000Y-28840200D02*
X158840000Y-28840200D01*
X158840000Y-32440200D02*
X153940000Y-32440200D01*
X40833800Y-52506200D02*
X40833800Y-51606200D01*
X40833800Y-48906200D02*
X45733800Y-48906200D01*
X45733800Y-52506200D02*
X40833800Y-52506200D01*
X153940000Y-52493500D02*
X153940000Y-51593500D01*
X153940000Y-48893500D02*
X158840000Y-48893500D01*
X158840000Y-52493500D02*
X153940000Y-52493500D01*
X9053000Y-28840200D02*
X9053000Y-29740200D01*
X9053000Y-32440200D02*
X4153000Y-32440200D01*
X4153000Y-28840200D02*
X9053000Y-28840200D01*
X9040300Y-48893500D02*
X9040300Y-49793500D01*
X9040300Y-52493500D02*
X4140300Y-52493500D01*
X4140300Y-48893500D02*
X9040300Y-48893500D01*
X118623800Y-13165000D02*
X118123800Y-13165000D01*
X121123800Y-13165000D02*
X120623800Y-13165000D01*
X125873800Y1335000D02*
X123223800Y1335000D01*
X118123800Y1335000D02*
X121123800Y1335000D01*
X113373800Y-3565000D02*
X113373800Y1335000D01*
X113373800Y1335000D02*
X116123800Y1335000D01*
X116023800Y-13165000D02*
X113373800Y-13165000D01*
X113373800Y-13165000D02*
X113373800Y-7765000D01*
X125873800Y-13165000D02*
X123223800Y-13165000D01*
X125873800Y-13165000D02*
X125873800Y-7765000D01*
X125873800Y1335000D02*
X125873800Y-3565000D01*
X42398400Y-13215800D02*
X41898400Y-13215800D01*
X44898400Y-13215800D02*
X44398400Y-13215800D01*
X49648400Y1284200D02*
X46998400Y1284200D01*
X41898400Y1284200D02*
X44898400Y1284200D01*
X37148400Y-3615800D02*
X37148400Y1284200D01*
X37148400Y1284200D02*
X39898400Y1284200D01*
X39798400Y-13215800D02*
X37148400Y-13215800D01*
X37148400Y-13215800D02*
X37148400Y-7815800D01*
X49648400Y-13215800D02*
X46998400Y-13215800D01*
X49648400Y-13215800D02*
X49648400Y-7815800D01*
X49648400Y1284200D02*
X49648400Y-3615800D01*
X114842000Y-53083000D02*
X115842000Y-53083000D01*
X115842000Y-51733000D02*
X114842000Y-51733000D01*
X151532300Y-32991600D02*
X152532300Y-32991600D01*
X152532300Y-31641600D02*
X151532300Y-31641600D01*
X114842000Y-51381200D02*
X115842000Y-51381200D01*
X115842000Y-50031200D02*
X114842000Y-50031200D01*
X151532300Y-31315200D02*
X152532300Y-31315200D01*
X152532300Y-29965200D02*
X151532300Y-29965200D01*
X114842000Y-49704800D02*
X115842000Y-49704800D01*
X115842000Y-48354800D02*
X114842000Y-48354800D01*
X151532300Y-29638800D02*
X152532300Y-29638800D01*
X152532300Y-28288800D02*
X151532300Y-28288800D01*
X38616600Y-53083000D02*
X39616600Y-53083000D01*
X39616600Y-51733000D02*
X38616600Y-51733000D01*
X151532300Y-53032200D02*
X152532300Y-53032200D01*
X152532300Y-51682200D02*
X151532300Y-51682200D01*
X38616600Y-51381200D02*
X39616600Y-51381200D01*
X39616600Y-50031200D02*
X38616600Y-50031200D01*
X151532300Y-51355800D02*
X152532300Y-51355800D01*
X152532300Y-50005800D02*
X151532300Y-50005800D01*
X38616600Y-49679400D02*
X39616600Y-49679400D01*
X39616600Y-48329400D02*
X38616600Y-48329400D01*
X151532300Y-49679400D02*
X152532300Y-49679400D01*
X152532300Y-48329400D02*
X151532300Y-48329400D01*
X11460700Y-28288800D02*
X10460700Y-28288800D01*
X10460700Y-29638800D02*
X11460700Y-29638800D01*
X11460700Y-29965200D02*
X10460700Y-29965200D01*
X10460700Y-31315200D02*
X11460700Y-31315200D01*
X11460700Y-31641600D02*
X10460700Y-31641600D01*
X10460700Y-32991600D02*
X11460700Y-32991600D01*
X11460700Y-48329400D02*
X10460700Y-48329400D01*
X10460700Y-49679400D02*
X11460700Y-49679400D01*
X11460700Y-50005800D02*
X10460700Y-50005800D01*
X10460700Y-51355800D02*
X11460700Y-51355800D01*
X11460700Y-51682200D02*
X10460700Y-51682200D01*
X10460700Y-53032200D02*
X11460700Y-53032200D01*
X78986600Y-16309900D02*
X79486600Y-16309900D01*
X78986600Y-18579900D02*
X79486600Y-18579900D01*
D10*
X122727057Y-44047857D02*
X122762771Y-44012143D01*
X122798486Y-43905000D01*
X122798486Y-43833571D01*
X122762771Y-43726428D01*
X122691343Y-43655000D01*
X122619914Y-43619285D01*
X122477057Y-43583571D01*
X122369914Y-43583571D01*
X122227057Y-43619285D01*
X122155629Y-43655000D01*
X122084200Y-43726428D01*
X122048486Y-43833571D01*
X122048486Y-43905000D01*
X122084200Y-44012143D01*
X122119914Y-44047857D01*
X122798486Y-44762143D02*
X122798486Y-44333571D01*
X122798486Y-44547857D02*
X122048486Y-44547857D01*
X122155629Y-44476428D01*
X122227057Y-44405000D01*
X122262771Y-44333571D01*
X122048486Y-45012143D02*
X122048486Y-45512143D01*
X122798486Y-45190714D01*
X117647057Y-43793857D02*
X117682771Y-43758143D01*
X117718486Y-43651000D01*
X117718486Y-43579571D01*
X117682771Y-43472428D01*
X117611343Y-43401000D01*
X117539914Y-43365285D01*
X117397057Y-43329571D01*
X117289914Y-43329571D01*
X117147057Y-43365285D01*
X117075629Y-43401000D01*
X117004200Y-43472428D01*
X116968486Y-43579571D01*
X116968486Y-43651000D01*
X117004200Y-43758143D01*
X117039914Y-43793857D01*
X117718486Y-44508143D02*
X117718486Y-44079571D01*
X117718486Y-44293857D02*
X116968486Y-44293857D01*
X117075629Y-44222428D01*
X117147057Y-44151000D01*
X117182771Y-44079571D01*
X117718486Y-44865286D02*
X117718486Y-45008143D01*
X117682771Y-45079571D01*
X117647057Y-45115286D01*
X117539914Y-45186714D01*
X117397057Y-45222429D01*
X117111343Y-45222429D01*
X117039914Y-45186714D01*
X117004200Y-45151000D01*
X116968486Y-45079571D01*
X116968486Y-44936714D01*
X117004200Y-44865286D01*
X117039914Y-44829571D01*
X117111343Y-44793857D01*
X117289914Y-44793857D01*
X117361343Y-44829571D01*
X117397057Y-44865286D01*
X117432771Y-44936714D01*
X117432771Y-45079571D01*
X117397057Y-45151000D01*
X117361343Y-45186714D01*
X117289914Y-45222429D01*
X47416057Y-45063857D02*
X47451771Y-45028143D01*
X47487486Y-44921000D01*
X47487486Y-44849571D01*
X47451771Y-44742428D01*
X47380343Y-44671000D01*
X47308914Y-44635285D01*
X47166057Y-44599571D01*
X47058914Y-44599571D01*
X46916057Y-44635285D01*
X46844629Y-44671000D01*
X46773200Y-44742428D01*
X46737486Y-44849571D01*
X46737486Y-44921000D01*
X46773200Y-45028143D01*
X46808914Y-45063857D01*
X47487486Y-45778143D02*
X47487486Y-45349571D01*
X47487486Y-45563857D02*
X46737486Y-45563857D01*
X46844629Y-45492428D01*
X46916057Y-45421000D01*
X46951771Y-45349571D01*
X47058914Y-46206714D02*
X47023200Y-46135286D01*
X46987486Y-46099571D01*
X46916057Y-46063857D01*
X46880343Y-46063857D01*
X46808914Y-46099571D01*
X46773200Y-46135286D01*
X46737486Y-46206714D01*
X46737486Y-46349571D01*
X46773200Y-46421000D01*
X46808914Y-46456714D01*
X46880343Y-46492429D01*
X46916057Y-46492429D01*
X46987486Y-46456714D01*
X47023200Y-46421000D01*
X47058914Y-46349571D01*
X47058914Y-46206714D01*
X47094629Y-46135286D01*
X47130343Y-46099571D01*
X47201771Y-46063857D01*
X47344629Y-46063857D01*
X47416057Y-46099571D01*
X47451771Y-46135286D01*
X47487486Y-46206714D01*
X47487486Y-46349571D01*
X47451771Y-46421000D01*
X47416057Y-46456714D01*
X47344629Y-46492429D01*
X47201771Y-46492429D01*
X47130343Y-46456714D01*
X47094629Y-46421000D01*
X47058914Y-46349571D01*
X42399557Y-44809857D02*
X42435271Y-44774143D01*
X42470986Y-44667000D01*
X42470986Y-44595571D01*
X42435271Y-44488428D01*
X42363843Y-44417000D01*
X42292414Y-44381285D01*
X42149557Y-44345571D01*
X42042414Y-44345571D01*
X41899557Y-44381285D01*
X41828129Y-44417000D01*
X41756700Y-44488428D01*
X41720986Y-44595571D01*
X41720986Y-44667000D01*
X41756700Y-44774143D01*
X41792414Y-44809857D01*
X41792414Y-45095571D02*
X41756700Y-45131285D01*
X41720986Y-45202714D01*
X41720986Y-45381285D01*
X41756700Y-45452714D01*
X41792414Y-45488428D01*
X41863843Y-45524143D01*
X41935271Y-45524143D01*
X42042414Y-45488428D01*
X42470986Y-45059857D01*
X42470986Y-45524143D01*
X41720986Y-45988429D02*
X41720986Y-46059857D01*
X41756700Y-46131286D01*
X41792414Y-46167000D01*
X41863843Y-46202714D01*
X42006700Y-46238429D01*
X42185271Y-46238429D01*
X42328129Y-46202714D01*
X42399557Y-46167000D01*
X42435271Y-46131286D01*
X42470986Y-46059857D01*
X42470986Y-45988429D01*
X42435271Y-45917000D01*
X42399557Y-45881286D01*
X42328129Y-45845571D01*
X42185271Y-45809857D01*
X42006700Y-45809857D01*
X41863843Y-45845571D01*
X41792414Y-45881286D01*
X41756700Y-45917000D01*
X41720986Y-45988429D01*
X90970243Y-23872257D02*
X91005957Y-23907971D01*
X91113100Y-23943686D01*
X91184529Y-23943686D01*
X91291672Y-23907971D01*
X91363100Y-23836543D01*
X91398815Y-23765114D01*
X91434529Y-23622257D01*
X91434529Y-23515114D01*
X91398815Y-23372257D01*
X91363100Y-23300829D01*
X91291672Y-23229400D01*
X91184529Y-23193686D01*
X91113100Y-23193686D01*
X91005957Y-23229400D01*
X90970243Y-23265114D01*
X90255957Y-23943686D02*
X90684529Y-23943686D01*
X90470243Y-23943686D02*
X90470243Y-23193686D01*
X90541672Y-23300829D01*
X90613100Y-23372257D01*
X90684529Y-23407971D01*
X89791671Y-23193686D02*
X89720243Y-23193686D01*
X89648814Y-23229400D01*
X89613100Y-23265114D01*
X89577386Y-23336543D01*
X89541671Y-23479400D01*
X89541671Y-23657971D01*
X89577386Y-23800829D01*
X89613100Y-23872257D01*
X89648814Y-23907971D01*
X89720243Y-23943686D01*
X89791671Y-23943686D01*
X89863100Y-23907971D01*
X89898814Y-23872257D01*
X89934529Y-23800829D01*
X89970243Y-23657971D01*
X89970243Y-23479400D01*
X89934529Y-23336543D01*
X89898814Y-23265114D01*
X89863100Y-23229400D01*
X89791671Y-23193686D01*
D11*
X81390057Y-20405543D02*
X81437676Y-20453162D01*
X81580533Y-20500781D01*
X81675771Y-20500781D01*
X81818629Y-20453162D01*
X81913867Y-20357924D01*
X81961486Y-20262686D01*
X82009105Y-20072210D01*
X82009105Y-19929352D01*
X81961486Y-19738876D01*
X81913867Y-19643638D01*
X81818629Y-19548400D01*
X81675771Y-19500781D01*
X81580533Y-19500781D01*
X81437676Y-19548400D01*
X81390057Y-19596019D01*
X80437676Y-20500781D02*
X81009105Y-20500781D01*
X80723391Y-20500781D02*
X80723391Y-19500781D01*
X80818629Y-19643638D01*
X80913867Y-19738876D01*
X81009105Y-19786495D01*
X79532914Y-19500781D02*
X80009105Y-19500781D01*
X80056724Y-19976971D01*
X80009105Y-19929352D01*
X79913867Y-19881733D01*
X79675771Y-19881733D01*
X79580533Y-19929352D01*
X79532914Y-19976971D01*
X79485295Y-20072210D01*
X79485295Y-20310305D01*
X79532914Y-20405543D01*
X79580533Y-20453162D01*
X79675771Y-20500781D01*
X79913867Y-20500781D01*
X80009105Y-20453162D01*
X80056724Y-20405543D01*
X81390057Y-22056543D02*
X81437676Y-22104162D01*
X81580533Y-22151781D01*
X81675771Y-22151781D01*
X81818629Y-22104162D01*
X81913867Y-22008924D01*
X81961486Y-21913686D01*
X82009105Y-21723210D01*
X82009105Y-21580352D01*
X81961486Y-21389876D01*
X81913867Y-21294638D01*
X81818629Y-21199400D01*
X81675771Y-21151781D01*
X81580533Y-21151781D01*
X81437676Y-21199400D01*
X81390057Y-21247019D01*
X80437676Y-22151781D02*
X81009105Y-22151781D01*
X80723391Y-22151781D02*
X80723391Y-21151781D01*
X80818629Y-21294638D01*
X80913867Y-21389876D01*
X81009105Y-21437495D01*
X79580533Y-21151781D02*
X79771010Y-21151781D01*
X79866248Y-21199400D01*
X79913867Y-21247019D01*
X80009105Y-21389876D01*
X80056724Y-21580352D01*
X80056724Y-21961305D01*
X80009105Y-22056543D01*
X79961486Y-22104162D01*
X79866248Y-22151781D01*
X79675771Y-22151781D01*
X79580533Y-22104162D01*
X79532914Y-22056543D01*
X79485295Y-21961305D01*
X79485295Y-21723210D01*
X79532914Y-21627971D01*
X79580533Y-21580352D01*
X79675771Y-21532733D01*
X79866248Y-21532733D01*
X79961486Y-21580352D01*
X80009105Y-21627971D01*
X80056724Y-21723210D01*
X119451957Y-55648043D02*
X119499576Y-55695662D01*
X119642433Y-55743281D01*
X119737671Y-55743281D01*
X119880529Y-55695662D01*
X119975767Y-55600424D01*
X120023386Y-55505186D01*
X120071005Y-55314710D01*
X120071005Y-55171852D01*
X120023386Y-54981376D01*
X119975767Y-54886138D01*
X119880529Y-54790900D01*
X119737671Y-54743281D01*
X119642433Y-54743281D01*
X119499576Y-54790900D01*
X119451957Y-54838519D01*
X118594814Y-55076614D02*
X118594814Y-55743281D01*
X118832910Y-54695662D02*
X119071005Y-55409948D01*
X118451957Y-55409948D01*
X118166243Y-54743281D02*
X117547195Y-54743281D01*
X117880529Y-55124233D01*
X117737671Y-55124233D01*
X117642433Y-55171852D01*
X117594814Y-55219471D01*
X117547195Y-55314710D01*
X117547195Y-55552805D01*
X117594814Y-55648043D01*
X117642433Y-55695662D01*
X117737671Y-55743281D01*
X118023386Y-55743281D01*
X118118624Y-55695662D01*
X118166243Y-55648043D01*
X156345457Y-35621543D02*
X156393076Y-35669162D01*
X156535933Y-35716781D01*
X156631171Y-35716781D01*
X156774029Y-35669162D01*
X156869267Y-35573924D01*
X156916886Y-35478686D01*
X156964505Y-35288210D01*
X156964505Y-35145352D01*
X156916886Y-34954876D01*
X156869267Y-34859638D01*
X156774029Y-34764400D01*
X156631171Y-34716781D01*
X156535933Y-34716781D01*
X156393076Y-34764400D01*
X156345457Y-34812019D01*
X155488314Y-35050114D02*
X155488314Y-35716781D01*
X155726410Y-34669162D02*
X155964505Y-35383448D01*
X155345457Y-35383448D01*
X154488314Y-34716781D02*
X154964505Y-34716781D01*
X155012124Y-35192971D01*
X154964505Y-35145352D01*
X154869267Y-35097733D01*
X154631171Y-35097733D01*
X154535933Y-35145352D01*
X154488314Y-35192971D01*
X154440695Y-35288210D01*
X154440695Y-35526305D01*
X154488314Y-35621543D01*
X154535933Y-35669162D01*
X154631171Y-35716781D01*
X154869267Y-35716781D01*
X154964505Y-35669162D01*
X155012124Y-35621543D01*
X43251957Y-55838543D02*
X43299576Y-55886162D01*
X43442433Y-55933781D01*
X43537671Y-55933781D01*
X43680529Y-55886162D01*
X43775767Y-55790924D01*
X43823386Y-55695686D01*
X43871005Y-55505210D01*
X43871005Y-55362352D01*
X43823386Y-55171876D01*
X43775767Y-55076638D01*
X43680529Y-54981400D01*
X43537671Y-54933781D01*
X43442433Y-54933781D01*
X43299576Y-54981400D01*
X43251957Y-55029019D01*
X42394814Y-55267114D02*
X42394814Y-55933781D01*
X42632910Y-54886162D02*
X42871005Y-55600448D01*
X42251957Y-55600448D01*
X41442433Y-55267114D02*
X41442433Y-55933781D01*
X41680529Y-54886162D02*
X41918624Y-55600448D01*
X41299576Y-55600448D01*
X156345457Y-55560543D02*
X156393076Y-55608162D01*
X156535933Y-55655781D01*
X156631171Y-55655781D01*
X156774029Y-55608162D01*
X156869267Y-55512924D01*
X156916886Y-55417686D01*
X156964505Y-55227210D01*
X156964505Y-55084352D01*
X156916886Y-54893876D01*
X156869267Y-54798638D01*
X156774029Y-54703400D01*
X156631171Y-54655781D01*
X156535933Y-54655781D01*
X156393076Y-54703400D01*
X156345457Y-54751019D01*
X155488314Y-54989114D02*
X155488314Y-55655781D01*
X155726410Y-54608162D02*
X155964505Y-55322448D01*
X155345457Y-55322448D01*
X154535933Y-54655781D02*
X154726410Y-54655781D01*
X154821648Y-54703400D01*
X154869267Y-54751019D01*
X154964505Y-54893876D01*
X155012124Y-55084352D01*
X155012124Y-55465305D01*
X154964505Y-55560543D01*
X154916886Y-55608162D01*
X154821648Y-55655781D01*
X154631171Y-55655781D01*
X154535933Y-55608162D01*
X154488314Y-55560543D01*
X154440695Y-55465305D01*
X154440695Y-55227210D01*
X154488314Y-55131971D01*
X154535933Y-55084352D01*
X154631171Y-55036733D01*
X154821648Y-55036733D01*
X154916886Y-55084352D01*
X154964505Y-55131971D01*
X155012124Y-55227210D01*
X7907857Y-35494543D02*
X7955476Y-35542162D01*
X8098333Y-35589781D01*
X8193571Y-35589781D01*
X8336429Y-35542162D01*
X8431667Y-35446924D01*
X8479286Y-35351686D01*
X8526905Y-35161210D01*
X8526905Y-35018352D01*
X8479286Y-34827876D01*
X8431667Y-34732638D01*
X8336429Y-34637400D01*
X8193571Y-34589781D01*
X8098333Y-34589781D01*
X7955476Y-34637400D01*
X7907857Y-34685019D01*
X7050714Y-34923114D02*
X7050714Y-35589781D01*
X7288810Y-34542162D02*
X7526905Y-35256448D01*
X6907857Y-35256448D01*
X6622143Y-34589781D02*
X5955476Y-34589781D01*
X6384048Y-35589781D01*
X7907857Y-55560543D02*
X7955476Y-55608162D01*
X8098333Y-55655781D01*
X8193571Y-55655781D01*
X8336429Y-55608162D01*
X8431667Y-55512924D01*
X8479286Y-55417686D01*
X8526905Y-55227210D01*
X8526905Y-55084352D01*
X8479286Y-54893876D01*
X8431667Y-54798638D01*
X8336429Y-54703400D01*
X8193571Y-54655781D01*
X8098333Y-54655781D01*
X7955476Y-54703400D01*
X7907857Y-54751019D01*
X7050714Y-54989114D02*
X7050714Y-55655781D01*
X7288810Y-54608162D02*
X7526905Y-55322448D01*
X6907857Y-55322448D01*
X6384048Y-55084352D02*
X6479286Y-55036733D01*
X6526905Y-54989114D01*
X6574524Y-54893876D01*
X6574524Y-54846257D01*
X6526905Y-54751019D01*
X6479286Y-54703400D01*
X6384048Y-54655781D01*
X6193571Y-54655781D01*
X6098333Y-54703400D01*
X6050714Y-54751019D01*
X6003095Y-54846257D01*
X6003095Y-54893876D01*
X6050714Y-54989114D01*
X6098333Y-55036733D01*
X6193571Y-55084352D01*
X6384048Y-55084352D01*
X6479286Y-55131971D01*
X6526905Y-55179590D01*
X6574524Y-55274829D01*
X6574524Y-55465305D01*
X6526905Y-55560543D01*
X6479286Y-55608162D01*
X6384048Y-55655781D01*
X6193571Y-55655781D01*
X6098333Y-55608162D01*
X6050714Y-55560543D01*
X6003095Y-55465305D01*
X6003095Y-55274829D01*
X6050714Y-55179590D01*
X6098333Y-55131971D01*
X6193571Y-55084352D01*
X120334595Y-48358581D02*
X120334595Y-47358581D01*
X120096500Y-47358581D01*
X119953642Y-47406200D01*
X119858404Y-47501438D01*
X119810785Y-47596676D01*
X119763166Y-47787152D01*
X119763166Y-47930010D01*
X119810785Y-48120486D01*
X119858404Y-48215724D01*
X119953642Y-48310962D01*
X120096500Y-48358581D01*
X120334595Y-48358581D01*
X118906023Y-47691914D02*
X118906023Y-48358581D01*
X119144119Y-47310962D02*
X119382214Y-48025248D01*
X118763166Y-48025248D01*
X157202695Y-28292581D02*
X157202695Y-27292581D01*
X156964600Y-27292581D01*
X156821742Y-27340200D01*
X156726504Y-27435438D01*
X156678885Y-27530676D01*
X156631266Y-27721152D01*
X156631266Y-27864010D01*
X156678885Y-28054486D01*
X156726504Y-28149724D01*
X156821742Y-28244962D01*
X156964600Y-28292581D01*
X157202695Y-28292581D01*
X155774123Y-27292581D02*
X155964600Y-27292581D01*
X156059838Y-27340200D01*
X156107457Y-27387819D01*
X156202695Y-27530676D01*
X156250314Y-27721152D01*
X156250314Y-28102105D01*
X156202695Y-28197343D01*
X156155076Y-28244962D01*
X156059838Y-28292581D01*
X155869361Y-28292581D01*
X155774123Y-28244962D01*
X155726504Y-28197343D01*
X155678885Y-28102105D01*
X155678885Y-27864010D01*
X155726504Y-27768771D01*
X155774123Y-27721152D01*
X155869361Y-27673533D01*
X156059838Y-27673533D01*
X156155076Y-27721152D01*
X156202695Y-27768771D01*
X156250314Y-27864010D01*
X44121895Y-48358581D02*
X44121895Y-47358581D01*
X43883800Y-47358581D01*
X43740942Y-47406200D01*
X43645704Y-47501438D01*
X43598085Y-47596676D01*
X43550466Y-47787152D01*
X43550466Y-47930010D01*
X43598085Y-48120486D01*
X43645704Y-48215724D01*
X43740942Y-48310962D01*
X43883800Y-48358581D01*
X44121895Y-48358581D01*
X42645704Y-47358581D02*
X43121895Y-47358581D01*
X43169514Y-47834771D01*
X43121895Y-47787152D01*
X43026657Y-47739533D01*
X42788561Y-47739533D01*
X42693323Y-47787152D01*
X42645704Y-47834771D01*
X42598085Y-47930010D01*
X42598085Y-48168105D01*
X42645704Y-48263343D01*
X42693323Y-48310962D01*
X42788561Y-48358581D01*
X43026657Y-48358581D01*
X43121895Y-48310962D01*
X43169514Y-48263343D01*
X157228095Y-48345881D02*
X157228095Y-47345881D01*
X156990000Y-47345881D01*
X156847142Y-47393500D01*
X156751904Y-47488738D01*
X156704285Y-47583976D01*
X156656666Y-47774452D01*
X156656666Y-47917310D01*
X156704285Y-48107786D01*
X156751904Y-48203024D01*
X156847142Y-48298262D01*
X156990000Y-48345881D01*
X157228095Y-48345881D01*
X156323333Y-47345881D02*
X155656666Y-47345881D01*
X156085238Y-48345881D01*
X7241095Y-28292581D02*
X7241095Y-27292581D01*
X7003000Y-27292581D01*
X6860142Y-27340200D01*
X6764904Y-27435438D01*
X6717285Y-27530676D01*
X6669666Y-27721152D01*
X6669666Y-27864010D01*
X6717285Y-28054486D01*
X6764904Y-28149724D01*
X6860142Y-28244962D01*
X7003000Y-28292581D01*
X7241095Y-28292581D01*
X6098238Y-27721152D02*
X6193476Y-27673533D01*
X6241095Y-27625914D01*
X6288714Y-27530676D01*
X6288714Y-27483057D01*
X6241095Y-27387819D01*
X6193476Y-27340200D01*
X6098238Y-27292581D01*
X5907761Y-27292581D01*
X5812523Y-27340200D01*
X5764904Y-27387819D01*
X5717285Y-27483057D01*
X5717285Y-27530676D01*
X5764904Y-27625914D01*
X5812523Y-27673533D01*
X5907761Y-27721152D01*
X6098238Y-27721152D01*
X6193476Y-27768771D01*
X6241095Y-27816390D01*
X6288714Y-27911629D01*
X6288714Y-28102105D01*
X6241095Y-28197343D01*
X6193476Y-28244962D01*
X6098238Y-28292581D01*
X5907761Y-28292581D01*
X5812523Y-28244962D01*
X5764904Y-28197343D01*
X5717285Y-28102105D01*
X5717285Y-27911629D01*
X5764904Y-27816390D01*
X5812523Y-27768771D01*
X5907761Y-27721152D01*
X7228395Y-48345881D02*
X7228395Y-47345881D01*
X6990300Y-47345881D01*
X6847442Y-47393500D01*
X6752204Y-47488738D01*
X6704585Y-47583976D01*
X6656966Y-47774452D01*
X6656966Y-47917310D01*
X6704585Y-48107786D01*
X6752204Y-48203024D01*
X6847442Y-48298262D01*
X6990300Y-48345881D01*
X7228395Y-48345881D01*
X6180776Y-48345881D02*
X5990300Y-48345881D01*
X5895061Y-48298262D01*
X5847442Y-48250643D01*
X5752204Y-48107786D01*
X5704585Y-47917310D01*
X5704585Y-47536357D01*
X5752204Y-47441119D01*
X5799823Y-47393500D01*
X5895061Y-47345881D01*
X6085538Y-47345881D01*
X6180776Y-47393500D01*
X6228395Y-47441119D01*
X6276014Y-47536357D01*
X6276014Y-47774452D01*
X6228395Y-47869690D01*
X6180776Y-47917310D01*
X6085538Y-47964929D01*
X5895061Y-47964929D01*
X5799823Y-47917310D01*
X5752204Y-47869690D01*
X5704585Y-47774452D01*
X127767276Y-12636371D02*
X127433942Y-12636371D01*
X127291085Y-13160181D02*
X127767276Y-13160181D01*
X127767276Y-12160181D01*
X127291085Y-12160181D01*
X126338704Y-13160181D02*
X126910133Y-13160181D01*
X126624419Y-13160181D02*
X126624419Y-12160181D01*
X126719657Y-12303038D01*
X126814895Y-12398276D01*
X126910133Y-12445895D01*
X51541876Y-12636371D02*
X51208542Y-12636371D01*
X51065685Y-13160181D02*
X51541876Y-13160181D01*
X51541876Y-12160181D01*
X51065685Y-12160181D01*
X50684733Y-12255419D02*
X50637114Y-12207800D01*
X50541876Y-12160181D01*
X50303780Y-12160181D01*
X50208542Y-12207800D01*
X50160923Y-12255419D01*
X50113304Y-12350657D01*
X50113304Y-12445895D01*
X50160923Y-12588752D01*
X50732352Y-13160181D01*
X50113304Y-13160181D01*
X113241657Y-52860381D02*
X113574991Y-52384190D01*
X113813086Y-52860381D02*
X113813086Y-51860381D01*
X113432133Y-51860381D01*
X113336895Y-51908000D01*
X113289276Y-51955619D01*
X113241657Y-52050857D01*
X113241657Y-52193714D01*
X113289276Y-52288952D01*
X113336895Y-52336571D01*
X113432133Y-52384190D01*
X113813086Y-52384190D01*
X112860705Y-51955619D02*
X112813086Y-51908000D01*
X112717848Y-51860381D01*
X112479752Y-51860381D01*
X112384514Y-51908000D01*
X112336895Y-51955619D01*
X112289276Y-52050857D01*
X112289276Y-52146095D01*
X112336895Y-52288952D01*
X112908324Y-52860381D01*
X112289276Y-52860381D01*
X111955943Y-51860381D02*
X111289276Y-51860381D01*
X111717848Y-52860381D01*
X149675157Y-32768981D02*
X150008491Y-32292790D01*
X150246586Y-32768981D02*
X150246586Y-31768981D01*
X149865633Y-31768981D01*
X149770395Y-31816600D01*
X149722776Y-31864219D01*
X149675157Y-31959457D01*
X149675157Y-32102314D01*
X149722776Y-32197552D01*
X149770395Y-32245171D01*
X149865633Y-32292790D01*
X150246586Y-32292790D01*
X149341824Y-31768981D02*
X148722776Y-31768981D01*
X149056110Y-32149933D01*
X148913252Y-32149933D01*
X148818014Y-32197552D01*
X148770395Y-32245171D01*
X148722776Y-32340410D01*
X148722776Y-32578505D01*
X148770395Y-32673743D01*
X148818014Y-32721362D01*
X148913252Y-32768981D01*
X149198967Y-32768981D01*
X149294205Y-32721362D01*
X149341824Y-32673743D01*
X148389443Y-31768981D02*
X147770395Y-31768981D01*
X148103729Y-32149933D01*
X147960871Y-32149933D01*
X147865633Y-32197552D01*
X147818014Y-32245171D01*
X147770395Y-32340410D01*
X147770395Y-32578505D01*
X147818014Y-32673743D01*
X147865633Y-32721362D01*
X147960871Y-32768981D01*
X148246586Y-32768981D01*
X148341824Y-32721362D01*
X148389443Y-32673743D01*
X113190857Y-51158581D02*
X113524191Y-50682390D01*
X113762286Y-51158581D02*
X113762286Y-50158581D01*
X113381333Y-50158581D01*
X113286095Y-50206200D01*
X113238476Y-50253819D01*
X113190857Y-50349057D01*
X113190857Y-50491914D01*
X113238476Y-50587152D01*
X113286095Y-50634771D01*
X113381333Y-50682390D01*
X113762286Y-50682390D01*
X112809905Y-50253819D02*
X112762286Y-50206200D01*
X112667048Y-50158581D01*
X112428952Y-50158581D01*
X112333714Y-50206200D01*
X112286095Y-50253819D01*
X112238476Y-50349057D01*
X112238476Y-50444295D01*
X112286095Y-50587152D01*
X112857524Y-51158581D01*
X112238476Y-51158581D01*
X111667048Y-50587152D02*
X111762286Y-50539533D01*
X111809905Y-50491914D01*
X111857524Y-50396676D01*
X111857524Y-50349057D01*
X111809905Y-50253819D01*
X111762286Y-50206200D01*
X111667048Y-50158581D01*
X111476571Y-50158581D01*
X111381333Y-50206200D01*
X111333714Y-50253819D01*
X111286095Y-50349057D01*
X111286095Y-50396676D01*
X111333714Y-50491914D01*
X111381333Y-50539533D01*
X111476571Y-50587152D01*
X111667048Y-50587152D01*
X111762286Y-50634771D01*
X111809905Y-50682390D01*
X111857524Y-50777629D01*
X111857524Y-50968105D01*
X111809905Y-51063343D01*
X111762286Y-51110962D01*
X111667048Y-51158581D01*
X111476571Y-51158581D01*
X111381333Y-51110962D01*
X111333714Y-51063343D01*
X111286095Y-50968105D01*
X111286095Y-50777629D01*
X111333714Y-50682390D01*
X111381333Y-50634771D01*
X111476571Y-50587152D01*
X149675157Y-31092581D02*
X150008491Y-30616390D01*
X150246586Y-31092581D02*
X150246586Y-30092581D01*
X149865633Y-30092581D01*
X149770395Y-30140200D01*
X149722776Y-30187819D01*
X149675157Y-30283057D01*
X149675157Y-30425914D01*
X149722776Y-30521152D01*
X149770395Y-30568771D01*
X149865633Y-30616390D01*
X150246586Y-30616390D01*
X149341824Y-30092581D02*
X148722776Y-30092581D01*
X149056110Y-30473533D01*
X148913252Y-30473533D01*
X148818014Y-30521152D01*
X148770395Y-30568771D01*
X148722776Y-30664010D01*
X148722776Y-30902105D01*
X148770395Y-30997343D01*
X148818014Y-31044962D01*
X148913252Y-31092581D01*
X149198967Y-31092581D01*
X149294205Y-31044962D01*
X149341824Y-30997343D01*
X147865633Y-30425914D02*
X147865633Y-31092581D01*
X148103729Y-30044962D02*
X148341824Y-30759248D01*
X147722776Y-30759248D01*
X113241657Y-49482181D02*
X113574991Y-49005990D01*
X113813086Y-49482181D02*
X113813086Y-48482181D01*
X113432133Y-48482181D01*
X113336895Y-48529800D01*
X113289276Y-48577419D01*
X113241657Y-48672657D01*
X113241657Y-48815514D01*
X113289276Y-48910752D01*
X113336895Y-48958371D01*
X113432133Y-49005990D01*
X113813086Y-49005990D01*
X112860705Y-48577419D02*
X112813086Y-48529800D01*
X112717848Y-48482181D01*
X112479752Y-48482181D01*
X112384514Y-48529800D01*
X112336895Y-48577419D01*
X112289276Y-48672657D01*
X112289276Y-48767895D01*
X112336895Y-48910752D01*
X112908324Y-49482181D01*
X112289276Y-49482181D01*
X111813086Y-49482181D02*
X111622610Y-49482181D01*
X111527371Y-49434562D01*
X111479752Y-49386943D01*
X111384514Y-49244086D01*
X111336895Y-49053610D01*
X111336895Y-48672657D01*
X111384514Y-48577419D01*
X111432133Y-48529800D01*
X111527371Y-48482181D01*
X111717848Y-48482181D01*
X111813086Y-48529800D01*
X111860705Y-48577419D01*
X111908324Y-48672657D01*
X111908324Y-48910752D01*
X111860705Y-49005990D01*
X111813086Y-49053610D01*
X111717848Y-49101229D01*
X111527371Y-49101229D01*
X111432133Y-49053610D01*
X111384514Y-49005990D01*
X111336895Y-48910752D01*
X149675157Y-29416181D02*
X150008491Y-28939990D01*
X150246586Y-29416181D02*
X150246586Y-28416181D01*
X149865633Y-28416181D01*
X149770395Y-28463800D01*
X149722776Y-28511419D01*
X149675157Y-28606657D01*
X149675157Y-28749514D01*
X149722776Y-28844752D01*
X149770395Y-28892371D01*
X149865633Y-28939990D01*
X150246586Y-28939990D01*
X149341824Y-28416181D02*
X148722776Y-28416181D01*
X149056110Y-28797133D01*
X148913252Y-28797133D01*
X148818014Y-28844752D01*
X148770395Y-28892371D01*
X148722776Y-28987610D01*
X148722776Y-29225705D01*
X148770395Y-29320943D01*
X148818014Y-29368562D01*
X148913252Y-29416181D01*
X149198967Y-29416181D01*
X149294205Y-29368562D01*
X149341824Y-29320943D01*
X147818014Y-28416181D02*
X148294205Y-28416181D01*
X148341824Y-28892371D01*
X148294205Y-28844752D01*
X148198967Y-28797133D01*
X147960871Y-28797133D01*
X147865633Y-28844752D01*
X147818014Y-28892371D01*
X147770395Y-28987610D01*
X147770395Y-29225705D01*
X147818014Y-29320943D01*
X147865633Y-29368562D01*
X147960871Y-29416181D01*
X148198967Y-29416181D01*
X148294205Y-29368562D01*
X148341824Y-29320943D01*
X37067057Y-52860381D02*
X37400391Y-52384190D01*
X37638486Y-52860381D02*
X37638486Y-51860381D01*
X37257533Y-51860381D01*
X37162295Y-51908000D01*
X37114676Y-51955619D01*
X37067057Y-52050857D01*
X37067057Y-52193714D01*
X37114676Y-52288952D01*
X37162295Y-52336571D01*
X37257533Y-52384190D01*
X37638486Y-52384190D01*
X36733724Y-51860381D02*
X36114676Y-51860381D01*
X36448010Y-52241333D01*
X36305152Y-52241333D01*
X36209914Y-52288952D01*
X36162295Y-52336571D01*
X36114676Y-52431810D01*
X36114676Y-52669905D01*
X36162295Y-52765143D01*
X36209914Y-52812762D01*
X36305152Y-52860381D01*
X36590867Y-52860381D01*
X36686105Y-52812762D01*
X36733724Y-52765143D01*
X35495629Y-51860381D02*
X35400390Y-51860381D01*
X35305152Y-51908000D01*
X35257533Y-51955619D01*
X35209914Y-52050857D01*
X35162295Y-52241333D01*
X35162295Y-52479429D01*
X35209914Y-52669905D01*
X35257533Y-52765143D01*
X35305152Y-52812762D01*
X35400390Y-52860381D01*
X35495629Y-52860381D01*
X35590867Y-52812762D01*
X35638486Y-52765143D01*
X35686105Y-52669905D01*
X35733724Y-52479429D01*
X35733724Y-52241333D01*
X35686105Y-52050857D01*
X35638486Y-51955619D01*
X35590867Y-51908000D01*
X35495629Y-51860381D01*
X149675157Y-52809581D02*
X150008491Y-52333390D01*
X150246586Y-52809581D02*
X150246586Y-51809581D01*
X149865633Y-51809581D01*
X149770395Y-51857200D01*
X149722776Y-51904819D01*
X149675157Y-52000057D01*
X149675157Y-52142914D01*
X149722776Y-52238152D01*
X149770395Y-52285771D01*
X149865633Y-52333390D01*
X150246586Y-52333390D01*
X149341824Y-51809581D02*
X148722776Y-51809581D01*
X149056110Y-52190533D01*
X148913252Y-52190533D01*
X148818014Y-52238152D01*
X148770395Y-52285771D01*
X148722776Y-52381010D01*
X148722776Y-52619105D01*
X148770395Y-52714343D01*
X148818014Y-52761962D01*
X148913252Y-52809581D01*
X149198967Y-52809581D01*
X149294205Y-52761962D01*
X149341824Y-52714343D01*
X147865633Y-51809581D02*
X148056110Y-51809581D01*
X148151348Y-51857200D01*
X148198967Y-51904819D01*
X148294205Y-52047676D01*
X148341824Y-52238152D01*
X148341824Y-52619105D01*
X148294205Y-52714343D01*
X148246586Y-52761962D01*
X148151348Y-52809581D01*
X147960871Y-52809581D01*
X147865633Y-52761962D01*
X147818014Y-52714343D01*
X147770395Y-52619105D01*
X147770395Y-52381010D01*
X147818014Y-52285771D01*
X147865633Y-52238152D01*
X147960871Y-52190533D01*
X148151348Y-52190533D01*
X148246586Y-52238152D01*
X148294205Y-52285771D01*
X148341824Y-52381010D01*
X37067057Y-51158581D02*
X37400391Y-50682390D01*
X37638486Y-51158581D02*
X37638486Y-50158581D01*
X37257533Y-50158581D01*
X37162295Y-50206200D01*
X37114676Y-50253819D01*
X37067057Y-50349057D01*
X37067057Y-50491914D01*
X37114676Y-50587152D01*
X37162295Y-50634771D01*
X37257533Y-50682390D01*
X37638486Y-50682390D01*
X36733724Y-50158581D02*
X36114676Y-50158581D01*
X36448010Y-50539533D01*
X36305152Y-50539533D01*
X36209914Y-50587152D01*
X36162295Y-50634771D01*
X36114676Y-50730010D01*
X36114676Y-50968105D01*
X36162295Y-51063343D01*
X36209914Y-51110962D01*
X36305152Y-51158581D01*
X36590867Y-51158581D01*
X36686105Y-51110962D01*
X36733724Y-51063343D01*
X35162295Y-51158581D02*
X35733724Y-51158581D01*
X35448010Y-51158581D02*
X35448010Y-50158581D01*
X35543248Y-50301438D01*
X35638486Y-50396676D01*
X35733724Y-50444295D01*
X149675157Y-51133181D02*
X150008491Y-50656990D01*
X150246586Y-51133181D02*
X150246586Y-50133181D01*
X149865633Y-50133181D01*
X149770395Y-50180800D01*
X149722776Y-50228419D01*
X149675157Y-50323657D01*
X149675157Y-50466514D01*
X149722776Y-50561752D01*
X149770395Y-50609371D01*
X149865633Y-50656990D01*
X150246586Y-50656990D01*
X149341824Y-50133181D02*
X148722776Y-50133181D01*
X149056110Y-50514133D01*
X148913252Y-50514133D01*
X148818014Y-50561752D01*
X148770395Y-50609371D01*
X148722776Y-50704610D01*
X148722776Y-50942705D01*
X148770395Y-51037943D01*
X148818014Y-51085562D01*
X148913252Y-51133181D01*
X149198967Y-51133181D01*
X149294205Y-51085562D01*
X149341824Y-51037943D01*
X148389443Y-50133181D02*
X147722776Y-50133181D01*
X148151348Y-51133181D01*
X37016257Y-49456781D02*
X37349591Y-48980590D01*
X37587686Y-49456781D02*
X37587686Y-48456781D01*
X37206733Y-48456781D01*
X37111495Y-48504400D01*
X37063876Y-48552019D01*
X37016257Y-48647257D01*
X37016257Y-48790114D01*
X37063876Y-48885352D01*
X37111495Y-48932971D01*
X37206733Y-48980590D01*
X37587686Y-48980590D01*
X36682924Y-48456781D02*
X36063876Y-48456781D01*
X36397210Y-48837733D01*
X36254352Y-48837733D01*
X36159114Y-48885352D01*
X36111495Y-48932971D01*
X36063876Y-49028210D01*
X36063876Y-49266305D01*
X36111495Y-49361543D01*
X36159114Y-49409162D01*
X36254352Y-49456781D01*
X36540067Y-49456781D01*
X36635305Y-49409162D01*
X36682924Y-49361543D01*
X35682924Y-48552019D02*
X35635305Y-48504400D01*
X35540067Y-48456781D01*
X35301971Y-48456781D01*
X35206733Y-48504400D01*
X35159114Y-48552019D01*
X35111495Y-48647257D01*
X35111495Y-48742495D01*
X35159114Y-48885352D01*
X35730543Y-49456781D01*
X35111495Y-49456781D01*
X149675157Y-49456781D02*
X150008491Y-48980590D01*
X150246586Y-49456781D02*
X150246586Y-48456781D01*
X149865633Y-48456781D01*
X149770395Y-48504400D01*
X149722776Y-48552019D01*
X149675157Y-48647257D01*
X149675157Y-48790114D01*
X149722776Y-48885352D01*
X149770395Y-48932971D01*
X149865633Y-48980590D01*
X150246586Y-48980590D01*
X149341824Y-48456781D02*
X148722776Y-48456781D01*
X149056110Y-48837733D01*
X148913252Y-48837733D01*
X148818014Y-48885352D01*
X148770395Y-48932971D01*
X148722776Y-49028210D01*
X148722776Y-49266305D01*
X148770395Y-49361543D01*
X148818014Y-49409162D01*
X148913252Y-49456781D01*
X149198967Y-49456781D01*
X149294205Y-49409162D01*
X149341824Y-49361543D01*
X148151348Y-48885352D02*
X148246586Y-48837733D01*
X148294205Y-48790114D01*
X148341824Y-48694876D01*
X148341824Y-48647257D01*
X148294205Y-48552019D01*
X148246586Y-48504400D01*
X148151348Y-48456781D01*
X147960871Y-48456781D01*
X147865633Y-48504400D01*
X147818014Y-48552019D01*
X147770395Y-48647257D01*
X147770395Y-48694876D01*
X147818014Y-48790114D01*
X147865633Y-48837733D01*
X147960871Y-48885352D01*
X148151348Y-48885352D01*
X148246586Y-48932971D01*
X148294205Y-48980590D01*
X148341824Y-49075829D01*
X148341824Y-49266305D01*
X148294205Y-49361543D01*
X148246586Y-49409162D01*
X148151348Y-49456781D01*
X147960871Y-49456781D01*
X147865633Y-49409162D01*
X147818014Y-49361543D01*
X147770395Y-49266305D01*
X147770395Y-49075829D01*
X147818014Y-48980590D01*
X147865633Y-48932971D01*
X147960871Y-48885352D01*
X14603557Y-29416181D02*
X14936891Y-28939990D01*
X15174986Y-29416181D02*
X15174986Y-28416181D01*
X14794033Y-28416181D01*
X14698795Y-28463800D01*
X14651176Y-28511419D01*
X14603557Y-28606657D01*
X14603557Y-28749514D01*
X14651176Y-28844752D01*
X14698795Y-28892371D01*
X14794033Y-28939990D01*
X15174986Y-28939990D01*
X14270224Y-28416181D02*
X13651176Y-28416181D01*
X13984510Y-28797133D01*
X13841652Y-28797133D01*
X13746414Y-28844752D01*
X13698795Y-28892371D01*
X13651176Y-28987610D01*
X13651176Y-29225705D01*
X13698795Y-29320943D01*
X13746414Y-29368562D01*
X13841652Y-29416181D01*
X14127367Y-29416181D01*
X14222605Y-29368562D01*
X14270224Y-29320943D01*
X13174986Y-29416181D02*
X12984510Y-29416181D01*
X12889271Y-29368562D01*
X12841652Y-29320943D01*
X12746414Y-29178086D01*
X12698795Y-28987610D01*
X12698795Y-28606657D01*
X12746414Y-28511419D01*
X12794033Y-28463800D01*
X12889271Y-28416181D01*
X13079748Y-28416181D01*
X13174986Y-28463800D01*
X13222605Y-28511419D01*
X13270224Y-28606657D01*
X13270224Y-28844752D01*
X13222605Y-28939990D01*
X13174986Y-28987610D01*
X13079748Y-29035229D01*
X12889271Y-29035229D01*
X12794033Y-28987610D01*
X12746414Y-28939990D01*
X12698795Y-28844752D01*
X14603557Y-31092581D02*
X14936891Y-30616390D01*
X15174986Y-31092581D02*
X15174986Y-30092581D01*
X14794033Y-30092581D01*
X14698795Y-30140200D01*
X14651176Y-30187819D01*
X14603557Y-30283057D01*
X14603557Y-30425914D01*
X14651176Y-30521152D01*
X14698795Y-30568771D01*
X14794033Y-30616390D01*
X15174986Y-30616390D01*
X13746414Y-30425914D02*
X13746414Y-31092581D01*
X13984510Y-30044962D02*
X14222605Y-30759248D01*
X13603557Y-30759248D01*
X13032129Y-30092581D02*
X12936890Y-30092581D01*
X12841652Y-30140200D01*
X12794033Y-30187819D01*
X12746414Y-30283057D01*
X12698795Y-30473533D01*
X12698795Y-30711629D01*
X12746414Y-30902105D01*
X12794033Y-30997343D01*
X12841652Y-31044962D01*
X12936890Y-31092581D01*
X13032129Y-31092581D01*
X13127367Y-31044962D01*
X13174986Y-30997343D01*
X13222605Y-30902105D01*
X13270224Y-30711629D01*
X13270224Y-30473533D01*
X13222605Y-30283057D01*
X13174986Y-30187819D01*
X13127367Y-30140200D01*
X13032129Y-30092581D01*
X14603557Y-32768981D02*
X14936891Y-32292790D01*
X15174986Y-32768981D02*
X15174986Y-31768981D01*
X14794033Y-31768981D01*
X14698795Y-31816600D01*
X14651176Y-31864219D01*
X14603557Y-31959457D01*
X14603557Y-32102314D01*
X14651176Y-32197552D01*
X14698795Y-32245171D01*
X14794033Y-32292790D01*
X15174986Y-32292790D01*
X13746414Y-32102314D02*
X13746414Y-32768981D01*
X13984510Y-31721362D02*
X14222605Y-32435648D01*
X13603557Y-32435648D01*
X12698795Y-32768981D02*
X13270224Y-32768981D01*
X12984510Y-32768981D02*
X12984510Y-31768981D01*
X13079748Y-31911838D01*
X13174986Y-32007076D01*
X13270224Y-32054695D01*
X14603557Y-49456781D02*
X14936891Y-48980590D01*
X15174986Y-49456781D02*
X15174986Y-48456781D01*
X14794033Y-48456781D01*
X14698795Y-48504400D01*
X14651176Y-48552019D01*
X14603557Y-48647257D01*
X14603557Y-48790114D01*
X14651176Y-48885352D01*
X14698795Y-48932971D01*
X14794033Y-48980590D01*
X15174986Y-48980590D01*
X13746414Y-48790114D02*
X13746414Y-49456781D01*
X13984510Y-48409162D02*
X14222605Y-49123448D01*
X13603557Y-49123448D01*
X13270224Y-48552019D02*
X13222605Y-48504400D01*
X13127367Y-48456781D01*
X12889271Y-48456781D01*
X12794033Y-48504400D01*
X12746414Y-48552019D01*
X12698795Y-48647257D01*
X12698795Y-48742495D01*
X12746414Y-48885352D01*
X13317843Y-49456781D01*
X12698795Y-49456781D01*
X14603557Y-51133181D02*
X14936891Y-50656990D01*
X15174986Y-51133181D02*
X15174986Y-50133181D01*
X14794033Y-50133181D01*
X14698795Y-50180800D01*
X14651176Y-50228419D01*
X14603557Y-50323657D01*
X14603557Y-50466514D01*
X14651176Y-50561752D01*
X14698795Y-50609371D01*
X14794033Y-50656990D01*
X15174986Y-50656990D01*
X13746414Y-50466514D02*
X13746414Y-51133181D01*
X13984510Y-50085562D02*
X14222605Y-50799848D01*
X13603557Y-50799848D01*
X13317843Y-50133181D02*
X12698795Y-50133181D01*
X13032129Y-50514133D01*
X12889271Y-50514133D01*
X12794033Y-50561752D01*
X12746414Y-50609371D01*
X12698795Y-50704610D01*
X12698795Y-50942705D01*
X12746414Y-51037943D01*
X12794033Y-51085562D01*
X12889271Y-51133181D01*
X13174986Y-51133181D01*
X13270224Y-51085562D01*
X13317843Y-51037943D01*
X14603557Y-52809581D02*
X14936891Y-52333390D01*
X15174986Y-52809581D02*
X15174986Y-51809581D01*
X14794033Y-51809581D01*
X14698795Y-51857200D01*
X14651176Y-51904819D01*
X14603557Y-52000057D01*
X14603557Y-52142914D01*
X14651176Y-52238152D01*
X14698795Y-52285771D01*
X14794033Y-52333390D01*
X15174986Y-52333390D01*
X13746414Y-52142914D02*
X13746414Y-52809581D01*
X13984510Y-51761962D02*
X14222605Y-52476248D01*
X13603557Y-52476248D01*
X12794033Y-52142914D02*
X12794033Y-52809581D01*
X13032129Y-51761962D02*
X13270224Y-52476248D01*
X12651176Y-52476248D01*
D10*
X79736600Y-15684186D02*
X79986600Y-15327043D01*
X80165172Y-15684186D02*
X80165172Y-14934186D01*
X79879457Y-14934186D01*
X79808029Y-14969900D01*
X79772314Y-15005614D01*
X79736600Y-15077043D01*
X79736600Y-15184186D01*
X79772314Y-15255614D01*
X79808029Y-15291329D01*
X79879457Y-15327043D01*
X80165172Y-15327043D01*
X79415172Y-15684186D02*
X79415172Y-14934186D01*
X79129457Y-14934186D01*
X79058029Y-14969900D01*
X79022314Y-15005614D01*
X78986600Y-15077043D01*
X78986600Y-15184186D01*
X79022314Y-15255614D01*
X79058029Y-15291329D01*
X79129457Y-15327043D01*
X79415172Y-15327043D01*
X78272314Y-15684186D02*
X78700886Y-15684186D01*
X78486600Y-15684186D02*
X78486600Y-14934186D01*
X78558029Y-15041329D01*
X78629457Y-15112757D01*
X78700886Y-15148471D01*
D11*
X4398828Y-52644971D02*
X4732162Y-52644971D01*
X4732162Y-53168781D02*
X4732162Y-52168781D01*
X4255971Y-52168781D01*
X3875019Y-53168781D02*
X3875019Y-52168781D01*
X3398829Y-53168781D02*
X3398829Y-52168781D01*
X3160734Y-52168781D01*
X3017876Y-52216400D01*
X2922638Y-52311638D01*
X2875019Y-52406876D01*
X2827400Y-52597352D01*
X2827400Y-52740210D01*
X2875019Y-52930686D01*
X2922638Y-53025924D01*
X3017876Y-53121162D01*
X3160734Y-53168781D01*
X3398829Y-53168781D01*
X1970257Y-52502114D02*
X1970257Y-53168781D01*
X2208353Y-52121162D02*
X2446448Y-52835448D01*
X1827400Y-52835448D01*
X82554628Y-4359571D02*
X82887962Y-4359571D01*
X82887962Y-4883381D02*
X82887962Y-3883381D01*
X82411771Y-3883381D01*
X82030819Y-4883381D02*
X82030819Y-3883381D01*
X81554629Y-4883381D02*
X81554629Y-3883381D01*
X81316534Y-3883381D01*
X81173676Y-3931000D01*
X81078438Y-4026238D01*
X81030819Y-4121476D01*
X80983200Y-4311952D01*
X80983200Y-4454810D01*
X81030819Y-4645286D01*
X81078438Y-4740524D01*
X81173676Y-4835762D01*
X81316534Y-4883381D01*
X81554629Y-4883381D01*
X80078438Y-3883381D02*
X80554629Y-3883381D01*
X80602248Y-4359571D01*
X80554629Y-4311952D01*
X80459391Y-4264333D01*
X80221295Y-4264333D01*
X80126057Y-4311952D01*
X80078438Y-4359571D01*
X80030819Y-4454810D01*
X80030819Y-4692905D01*
X80078438Y-4788143D01*
X80126057Y-4835762D01*
X80221295Y-4883381D01*
X80459391Y-4883381D01*
X80554629Y-4835762D01*
X80602248Y-4788143D01*
X151185428Y-52644971D02*
X151518762Y-52644971D01*
X151518762Y-53168781D02*
X151518762Y-52168781D01*
X151042571Y-52168781D01*
X150661619Y-53168781D02*
X150661619Y-52168781D01*
X150185429Y-53168781D02*
X150185429Y-52168781D01*
X149947334Y-52168781D01*
X149804476Y-52216400D01*
X149709238Y-52311638D01*
X149661619Y-52406876D01*
X149614000Y-52597352D01*
X149614000Y-52740210D01*
X149661619Y-52930686D01*
X149709238Y-53025924D01*
X149804476Y-53121162D01*
X149947334Y-53168781D01*
X150185429Y-53168781D01*
X148756857Y-52168781D02*
X148947334Y-52168781D01*
X149042572Y-52216400D01*
X149090191Y-52264019D01*
X149185429Y-52406876D01*
X149233048Y-52597352D01*
X149233048Y-52978305D01*
X149185429Y-53073543D01*
X149137810Y-53121162D01*
X149042572Y-53168781D01*
X148852095Y-53168781D01*
X148756857Y-53121162D01*
X148709238Y-53073543D01*
X148661619Y-52978305D01*
X148661619Y-52740210D01*
X148709238Y-52644971D01*
X148756857Y-52597352D01*
X148852095Y-52549733D01*
X149042572Y-52549733D01*
X149137810Y-52597352D01*
X149185429Y-52644971D01*
X149233048Y-52740210D01*
M02*
