G04 #@! TF.FileFunction,Soldermask,Top*
%FSLAX46Y46*%
G04 Gerber Fmt 4.6, Leading zero omitted, Abs format (unit mm)*
G04 Created by KiCad (PCBNEW 4.0.1-stable) date Fri 05 Feb 2016 02:13:53 PM CET*
%MOMM*%
G01*
G04 APERTURE LIST*
%ADD10C,0.100000*%
%ADD11R,1.000000X0.950000*%
%ADD12R,3.799180X1.800200*%
%ADD13R,1.450000X1.200000*%
%ADD14R,0.950000X1.000000*%
%ADD15C,1.800000*%
%ADD16R,3.000000X3.800000*%
%ADD17R,1.200000X3.050000*%
%ADD18R,1.600000X4.000000*%
%ADD19R,1.250000X1.250000*%
%ADD20C,1.250000*%
%ADD21R,1.000100X1.000100*%
%ADD22R,0.700000X1.100000*%
%ADD23R,1.100000X0.700000*%
%ADD24R,1.800000X2.380000*%
%ADD25R,1.851000X3.248000*%
%ADD26R,6.296000X6.296000*%
%ADD27R,1.700000X0.480000*%
%ADD28R,0.480000X1.700000*%
%ADD29R,1.300000X0.600000*%
%ADD30R,2.300580X5.800700*%
%ADD31R,2.232000X2.232000*%
%ADD32O,2.232000X2.232000*%
%ADD33R,1.200000X1.450000*%
%ADD34R,0.790000X0.650000*%
%ADD35R,0.650000X0.790000*%
%ADD36R,0.850000X1.260000*%
%ADD37R,1.927200X1.927200*%
%ADD38O,1.927200X1.927200*%
%ADD39R,2.200000X3.200000*%
%ADD40R,0.500000X1.450000*%
%ADD41C,1.200000*%
%ADD42R,3.200000X3.200000*%
%ADD43R,1.200000X3.400000*%
%ADD44O,2.000000X2.000000*%
%ADD45R,2.000000X2.000000*%
%ADD46C,0.254000*%
G04 APERTURE END LIST*
D10*
D11*
X5602540Y-5740400D03*
X7102540Y-5740400D03*
X24817100Y-6014900D03*
X23317100Y-6014900D03*
D12*
X27897420Y-1379400D03*
X22395780Y-1379400D03*
D13*
X115189600Y-53401900D03*
X115189600Y-55401900D03*
X117348600Y-55401900D03*
X117348600Y-53401900D03*
X130302600Y-55401900D03*
X130302600Y-53401900D03*
X121666600Y-55401900D03*
X121666600Y-53401900D03*
X119507600Y-55401900D03*
X119507600Y-53401900D03*
X123825600Y-55401900D03*
X123825600Y-53401900D03*
X125984600Y-55401900D03*
X125984600Y-53401900D03*
X128143600Y-55401900D03*
X128143600Y-53401900D03*
X113030600Y-55401900D03*
X113030600Y-53401900D03*
X38989600Y-53401900D03*
X38989600Y-55401900D03*
X41148600Y-55401900D03*
X41148600Y-53401900D03*
X54102600Y-55401900D03*
X54102600Y-53401900D03*
X45466600Y-55401900D03*
X45466600Y-53401900D03*
X43307600Y-55401900D03*
X43307600Y-53401900D03*
X47625600Y-55401900D03*
X47625600Y-53401900D03*
X49784600Y-55401900D03*
X49784600Y-53401900D03*
X51943600Y-55401900D03*
X51943600Y-53401900D03*
X36830600Y-55401900D03*
X36830600Y-53401900D03*
D14*
X76200600Y-30982400D03*
X76200600Y-32482400D03*
D11*
X90297600Y-19286400D03*
X91797600Y-19286400D03*
D14*
X78232600Y-12733900D03*
X78232600Y-11233900D03*
X82945000Y-12721200D03*
X82945000Y-11221200D03*
X82931600Y-30537900D03*
X82931600Y-32037900D03*
X66802600Y-21266900D03*
X66802600Y-22766900D03*
X66802600Y-30958400D03*
X66802600Y-29458400D03*
X118618600Y-10790800D03*
X118618600Y-9290800D03*
X42367800Y-10790800D03*
X42367800Y-9290800D03*
X120625200Y-10790800D03*
X120625200Y-9290800D03*
X44374400Y-10790800D03*
X44374400Y-9290800D03*
D15*
X117123800Y-13165000D03*
X117123800Y1335000D03*
X122123800Y-13165000D03*
X122123800Y1335000D03*
X119623800Y-13165000D03*
D16*
X113023800Y-5665000D03*
X126223800Y-5665000D03*
D15*
X40898400Y-13215800D03*
X40898400Y1284200D03*
X45898400Y-13215800D03*
X45898400Y1284200D03*
X43398400Y-13215800D03*
D16*
X36798400Y-5715800D03*
X49998400Y-5715800D03*
D17*
X135144600Y-50510400D03*
X137144600Y-50510400D03*
D18*
X132894600Y-44135400D03*
X139394600Y-44135400D03*
D17*
X58944600Y-50510400D03*
X60944600Y-50510400D03*
D18*
X56694600Y-44135400D03*
X63194600Y-44135400D03*
D19*
X75248100Y-6395900D03*
D20*
X73978100Y-6395900D03*
X72708100Y-6395900D03*
X71438100Y-6395900D03*
X70168100Y-6395900D03*
X73978100Y-7665900D03*
X72708100Y-7665900D03*
X71438100Y-7665900D03*
X70168100Y-7665900D03*
X75248100Y-7665900D03*
D21*
X143611640Y-47017940D03*
X141711640Y-47017940D03*
X142661640Y-49016920D03*
X67424340Y-47030640D03*
X65524340Y-47030640D03*
X66474340Y-49029620D03*
D22*
X142102140Y-45415200D03*
X143602140Y-45415200D03*
X65914840Y-45415200D03*
X67414840Y-45415200D03*
D23*
X96393600Y-26386400D03*
X96393600Y-24886400D03*
X76454600Y-12924400D03*
X76454600Y-11424400D03*
X74422600Y-12924400D03*
X74422600Y-11424400D03*
X72454100Y-12924400D03*
X72454100Y-11424400D03*
X70104600Y-12924400D03*
X70104600Y-11424400D03*
X85535100Y-36228900D03*
X85535100Y-34728900D03*
X112370200Y-1367400D03*
X112370200Y132600D03*
X36119400Y-1367400D03*
X36119400Y132600D03*
D22*
X115633400Y-9202600D03*
X117133400Y-9202600D03*
X39382600Y-9202600D03*
X40882600Y-9202600D03*
X117133400Y-10929800D03*
X115633400Y-10929800D03*
X40882600Y-10929800D03*
X39382600Y-10929800D03*
D23*
X83757100Y-36228900D03*
X83757100Y-34728900D03*
D22*
X123610400Y-9202600D03*
X122110400Y-9202600D03*
X47359600Y-9202600D03*
X45859600Y-9202600D03*
X122110400Y-10929800D03*
X123610400Y-10929800D03*
X45859600Y-10929800D03*
X47359600Y-10929800D03*
D24*
X62994700Y-21531860D03*
X62990060Y-30736720D03*
D25*
X24448100Y-8935900D03*
D26*
X22162100Y-15285900D03*
D25*
X19876100Y-8935900D03*
D27*
X74609200Y-16847800D03*
X74609200Y-17347800D03*
X74609200Y-17847800D03*
X74609200Y-18347800D03*
X74609200Y-18847800D03*
X74609200Y-19347800D03*
X74609200Y-19847800D03*
X74609200Y-20347800D03*
X74609200Y-20847800D03*
X74609200Y-21347800D03*
X74609200Y-21847800D03*
X74609200Y-22347800D03*
X74609200Y-22847800D03*
X74609200Y-23347800D03*
X74609200Y-23847800D03*
X74609200Y-24347800D03*
X74609200Y-24847800D03*
X74609200Y-25347800D03*
X74609200Y-25847800D03*
X74609200Y-26347800D03*
D28*
X76759200Y-28497800D03*
X77259200Y-28497800D03*
X77759200Y-28497800D03*
X78259200Y-28497800D03*
X78759200Y-28497800D03*
X79259200Y-28497800D03*
X79759200Y-28497800D03*
X80259200Y-28497800D03*
X80759200Y-28497800D03*
X81259200Y-28497800D03*
X81759200Y-28497800D03*
X82259200Y-28497800D03*
X82759200Y-28497800D03*
X83259200Y-28497800D03*
X83759200Y-28497800D03*
X84259200Y-28497800D03*
X84759200Y-28497800D03*
X85259200Y-28497800D03*
X85759200Y-28497800D03*
X86259200Y-28497800D03*
D27*
X88409200Y-26347800D03*
X88409200Y-25847800D03*
X88409200Y-25347800D03*
X88409200Y-24847800D03*
X88409200Y-24347800D03*
X88409200Y-23847800D03*
X88409200Y-23347800D03*
X88409200Y-22847800D03*
X88409200Y-22347800D03*
X88409200Y-21847800D03*
X88409200Y-21347800D03*
X88409200Y-20847800D03*
X88409200Y-20347800D03*
X88409200Y-19847800D03*
X88409200Y-19347800D03*
X88409200Y-18847800D03*
X88409200Y-18347800D03*
X88409200Y-17847800D03*
X88409200Y-17347800D03*
X88409200Y-16847800D03*
D28*
X86259200Y-14697800D03*
X85759200Y-14697800D03*
X85259200Y-14697800D03*
X84759200Y-14697800D03*
X84259200Y-14697800D03*
X83759200Y-14697800D03*
X83259200Y-14697800D03*
X82759200Y-14697800D03*
X82259200Y-14697800D03*
X81759200Y-14697800D03*
X81259200Y-14697800D03*
X80759200Y-14697800D03*
X80259200Y-14697800D03*
X79759200Y-14697800D03*
X79259200Y-14697800D03*
X78759200Y-14697800D03*
X78259200Y-14697800D03*
X77759200Y-14697800D03*
X77259200Y-14697800D03*
X76759200Y-14697800D03*
D29*
X147325800Y-37151200D03*
X147325800Y-36501200D03*
X147325800Y-35851200D03*
X147325800Y-35201200D03*
X147325800Y-34551200D03*
X147325800Y-33901200D03*
X147325800Y-33251200D03*
X147325800Y-32601200D03*
X147325800Y-31951200D03*
X147325800Y-31301200D03*
X147325800Y-30651200D03*
X147325800Y-30001200D03*
X147325800Y-29351200D03*
X147325800Y-28701200D03*
X141625800Y-28701200D03*
X141625800Y-29351200D03*
X141625800Y-30001200D03*
X141625800Y-30651200D03*
X141625800Y-31301200D03*
X141625800Y-31951200D03*
X141625800Y-32601200D03*
X141625800Y-33251200D03*
X141625800Y-33901200D03*
X141625800Y-34551200D03*
X141625800Y-35201200D03*
X141625800Y-35851200D03*
X141625800Y-36501200D03*
X141625800Y-37151200D03*
D30*
X70345900Y-21232040D03*
X70345900Y-30929760D03*
D31*
X91827100Y-37447400D03*
D32*
X89287100Y-37447400D03*
D31*
X73666100Y-37447400D03*
D32*
X71126100Y-37447400D03*
D14*
X19865340Y-5931600D03*
X19865340Y-4431600D03*
D33*
X68120100Y-14904900D03*
X66120100Y-14904900D03*
D14*
X65913600Y-25394400D03*
X65913600Y-26894400D03*
D34*
X64301600Y-12872900D03*
X62191600Y-12872900D03*
D35*
X70155400Y-15132600D03*
X70155400Y-17242600D03*
D34*
X64555600Y-18841900D03*
X62445600Y-18841900D03*
D21*
X94524860Y-27221400D03*
X94524860Y-25321400D03*
X92525880Y-26271400D03*
D22*
X67362100Y-12872900D03*
X65862100Y-12872900D03*
X67362100Y-16936900D03*
X65862100Y-16936900D03*
X65862100Y-18778400D03*
X67362100Y-18778400D03*
D23*
X158941100Y-7717400D03*
X158941100Y-6217400D03*
X156413800Y-7717400D03*
X156413800Y-6217400D03*
X153264200Y-7717400D03*
X153264200Y-6217400D03*
X60770100Y-17329900D03*
X60770100Y-18829900D03*
D25*
X8636600Y-8935900D03*
D26*
X6350600Y-15285900D03*
D25*
X4064600Y-8935900D03*
D36*
X62423600Y-16957400D03*
X63373600Y-16957400D03*
X64323600Y-16957400D03*
X64323600Y-14757400D03*
X62423600Y-14757400D03*
D37*
X134816600Y-3284400D03*
D38*
X134816600Y-744400D03*
X137356600Y-3284400D03*
X137356600Y-744400D03*
X139896600Y-3284400D03*
X139896600Y-744400D03*
X142436600Y-3284400D03*
X142436600Y-744400D03*
X144976600Y-3284400D03*
X144976600Y-744400D03*
X147516600Y-3284400D03*
X147516600Y-744400D03*
X150056600Y-3284400D03*
X150056600Y-744400D03*
X152596600Y-3284400D03*
X152596600Y-744400D03*
X155136600Y-3284400D03*
X155136600Y-744400D03*
X157676600Y-3284400D03*
X157676600Y-744400D03*
D39*
X109844600Y-46274900D03*
X129424600Y-46274900D03*
D40*
X126884600Y-48599900D03*
X126384600Y-48599900D03*
X125884600Y-48599900D03*
X125384600Y-48599900D03*
X124884600Y-48599900D03*
X124384600Y-48599900D03*
X123884600Y-48599900D03*
X123384600Y-48599900D03*
X122884600Y-48599900D03*
X122384600Y-48599900D03*
X121884600Y-48599900D03*
X121384600Y-48599900D03*
X120884600Y-48599900D03*
X120384600Y-48599900D03*
X119884600Y-48599900D03*
X119384600Y-48599900D03*
X118884600Y-48599900D03*
X118384600Y-48599900D03*
X117884600Y-48599900D03*
X117384600Y-48599900D03*
X116884600Y-48599900D03*
X116384600Y-48599900D03*
X115884600Y-48599900D03*
X115384600Y-48599900D03*
X114884600Y-48599900D03*
X114384600Y-48599900D03*
X113884600Y-48599900D03*
X113384600Y-48599900D03*
X112884600Y-48599900D03*
X112384600Y-48599900D03*
D39*
X33644600Y-46274900D03*
X53224600Y-46274900D03*
D40*
X50684600Y-48599900D03*
X50184600Y-48599900D03*
X49684600Y-48599900D03*
X49184600Y-48599900D03*
X48684600Y-48599900D03*
X48184600Y-48599900D03*
X47684600Y-48599900D03*
X47184600Y-48599900D03*
X46684600Y-48599900D03*
X46184600Y-48599900D03*
X45684600Y-48599900D03*
X45184600Y-48599900D03*
X44684600Y-48599900D03*
X44184600Y-48599900D03*
X43684600Y-48599900D03*
X43184600Y-48599900D03*
X42684600Y-48599900D03*
X42184600Y-48599900D03*
X41684600Y-48599900D03*
X41184600Y-48599900D03*
X40684600Y-48599900D03*
X40184600Y-48599900D03*
X39684600Y-48599900D03*
X39184600Y-48599900D03*
X38684600Y-48599900D03*
X38184600Y-48599900D03*
X37684600Y-48599900D03*
X37184600Y-48599900D03*
X36684600Y-48599900D03*
X36184600Y-48599900D03*
D41*
X3327400Y-55016400D03*
D42*
X3327400Y-55016400D03*
D41*
X81483200Y-6731000D03*
D42*
X81483200Y-6731000D03*
D41*
X150114000Y-55016400D03*
D42*
X150114000Y-55016400D03*
D43*
X139246540Y-54559200D03*
X133046540Y-54559200D03*
X63046540Y-54559200D03*
X56846540Y-54559200D03*
D44*
X12945740Y-4572000D03*
D45*
X15445740Y-4572000D03*
D23*
X139829540Y-33895600D03*
X139829540Y-35395600D03*
D46*
G36*
X29729390Y-11201792D02*
X29849591Y-11282109D01*
X29929908Y-11402310D01*
X29960600Y-11556609D01*
X29960600Y-26089091D01*
X29929908Y-26243390D01*
X29849591Y-26363591D01*
X29729390Y-26443908D01*
X29575091Y-26474600D01*
X-1010191Y-26474600D01*
X-1164490Y-26443908D01*
X-1284691Y-26363591D01*
X-1365008Y-26243390D01*
X-1395700Y-26089091D01*
X-1395700Y-11556609D01*
X-1365008Y-11402310D01*
X-1284691Y-11282109D01*
X-1164490Y-11201792D01*
X-1010191Y-11171100D01*
X29575091Y-11171100D01*
X29729390Y-11201792D01*
X29729390Y-11201792D01*
G37*
X29729390Y-11201792D02*
X29849591Y-11282109D01*
X29929908Y-11402310D01*
X29960600Y-11556609D01*
X29960600Y-26089091D01*
X29929908Y-26243390D01*
X29849591Y-26363591D01*
X29729390Y-26443908D01*
X29575091Y-26474600D01*
X-1010191Y-26474600D01*
X-1164490Y-26443908D01*
X-1284691Y-26363591D01*
X-1365008Y-26243390D01*
X-1395700Y-26089091D01*
X-1395700Y-11556609D01*
X-1365008Y-11402310D01*
X-1284691Y-11282109D01*
X-1164490Y-11201792D01*
X-1010191Y-11171100D01*
X29575091Y-11171100D01*
X29729390Y-11201792D01*
M02*
