G04 #@! TF.FileFunction,Legend,Top*
%FSLAX46Y46*%
G04 Gerber Fmt 4.6, Leading zero omitted, Abs format (unit mm)*
G04 Created by KiCad (PCBNEW (2015-05-18 BZR 5668)-product) date Wed 16 Sep 2015 05:41:14 PM CEST*
%MOMM*%
G01*
G04 APERTURE LIST*
%ADD10C,0.100000*%
%ADD11C,0.300000*%
%ADD12C,0.150000*%
G04 APERTURE END LIST*
D10*
D11*
X181052743Y-64966571D02*
X181052743Y-63466571D01*
X181552743Y-64538000D01*
X182052743Y-63466571D01*
X182052743Y-64966571D01*
X183409886Y-63966571D02*
X183409886Y-64966571D01*
X182767029Y-63966571D02*
X182767029Y-64752286D01*
X182838457Y-64895143D01*
X182981315Y-64966571D01*
X183195600Y-64966571D01*
X183338457Y-64895143D01*
X183409886Y-64823714D01*
X184052743Y-64895143D02*
X184195600Y-64966571D01*
X184481315Y-64966571D01*
X184624172Y-64895143D01*
X184695600Y-64752286D01*
X184695600Y-64680857D01*
X184624172Y-64538000D01*
X184481315Y-64466571D01*
X184267029Y-64466571D01*
X184124172Y-64395143D01*
X184052743Y-64252286D01*
X184052743Y-64180857D01*
X184124172Y-64038000D01*
X184267029Y-63966571D01*
X184481315Y-63966571D01*
X184624172Y-64038000D01*
X185338458Y-64966571D02*
X185338458Y-63966571D01*
X185338458Y-63466571D02*
X185267029Y-63538000D01*
X185338458Y-63609429D01*
X185409886Y-63538000D01*
X185338458Y-63466571D01*
X185338458Y-63609429D01*
X186695601Y-64895143D02*
X186552744Y-64966571D01*
X186267030Y-64966571D01*
X186124172Y-64895143D01*
X186052744Y-64823714D01*
X185981315Y-64680857D01*
X185981315Y-64252286D01*
X186052744Y-64109429D01*
X186124172Y-64038000D01*
X186267030Y-63966571D01*
X186552744Y-63966571D01*
X186695601Y-64038000D01*
X187981315Y-64966571D02*
X187981315Y-64180857D01*
X187909886Y-64038000D01*
X187767029Y-63966571D01*
X187481315Y-63966571D01*
X187338458Y-64038000D01*
X187981315Y-64895143D02*
X187838458Y-64966571D01*
X187481315Y-64966571D01*
X187338458Y-64895143D01*
X187267029Y-64752286D01*
X187267029Y-64609429D01*
X187338458Y-64466571D01*
X187481315Y-64395143D01*
X187838458Y-64395143D01*
X187981315Y-64323714D01*
X188909887Y-64966571D02*
X188767029Y-64895143D01*
X188695601Y-64752286D01*
X188695601Y-63466571D01*
X190909886Y-63466571D02*
X191195600Y-63466571D01*
X191338458Y-63538000D01*
X191481315Y-63680857D01*
X191552743Y-63966571D01*
X191552743Y-64466571D01*
X191481315Y-64752286D01*
X191338458Y-64895143D01*
X191195600Y-64966571D01*
X190909886Y-64966571D01*
X190767029Y-64895143D01*
X190624172Y-64752286D01*
X190552743Y-64466571D01*
X190552743Y-63966571D01*
X190624172Y-63680857D01*
X190767029Y-63538000D01*
X190909886Y-63466571D01*
X192195601Y-63966571D02*
X192195601Y-65466571D01*
X192195601Y-64038000D02*
X192338458Y-63966571D01*
X192624172Y-63966571D01*
X192767029Y-64038000D01*
X192838458Y-64109429D01*
X192909887Y-64252286D01*
X192909887Y-64680857D01*
X192838458Y-64823714D01*
X192767029Y-64895143D01*
X192624172Y-64966571D01*
X192338458Y-64966571D01*
X192195601Y-64895143D01*
X194124172Y-64895143D02*
X193981315Y-64966571D01*
X193695601Y-64966571D01*
X193552744Y-64895143D01*
X193481315Y-64752286D01*
X193481315Y-64180857D01*
X193552744Y-64038000D01*
X193695601Y-63966571D01*
X193981315Y-63966571D01*
X194124172Y-64038000D01*
X194195601Y-64180857D01*
X194195601Y-64323714D01*
X193481315Y-64466571D01*
X194838458Y-64966571D02*
X194838458Y-63966571D01*
X194838458Y-64252286D02*
X194909886Y-64109429D01*
X194981315Y-64038000D01*
X195124172Y-63966571D01*
X195267029Y-63966571D01*
X196409886Y-64966571D02*
X196409886Y-64180857D01*
X196338457Y-64038000D01*
X196195600Y-63966571D01*
X195909886Y-63966571D01*
X195767029Y-64038000D01*
X196409886Y-64895143D02*
X196267029Y-64966571D01*
X195909886Y-64966571D01*
X195767029Y-64895143D01*
X195695600Y-64752286D01*
X195695600Y-64609429D01*
X195767029Y-64466571D01*
X195909886Y-64395143D01*
X196267029Y-64395143D01*
X196409886Y-64323714D01*
X196909886Y-63966571D02*
X197481315Y-63966571D01*
X197124172Y-63466571D02*
X197124172Y-64752286D01*
X197195600Y-64895143D01*
X197338458Y-64966571D01*
X197481315Y-64966571D01*
X197981315Y-64966571D02*
X197981315Y-63966571D01*
X197981315Y-63466571D02*
X197909886Y-63538000D01*
X197981315Y-63609429D01*
X198052743Y-63538000D01*
X197981315Y-63466571D01*
X197981315Y-63609429D01*
X198695601Y-63966571D02*
X198695601Y-64966571D01*
X198695601Y-64109429D02*
X198767029Y-64038000D01*
X198909887Y-63966571D01*
X199124172Y-63966571D01*
X199267029Y-64038000D01*
X199338458Y-64180857D01*
X199338458Y-64966571D01*
X200695601Y-63966571D02*
X200695601Y-65180857D01*
X200624172Y-65323714D01*
X200552744Y-65395143D01*
X200409887Y-65466571D01*
X200195601Y-65466571D01*
X200052744Y-65395143D01*
X200695601Y-64895143D02*
X200552744Y-64966571D01*
X200267030Y-64966571D01*
X200124172Y-64895143D01*
X200052744Y-64823714D01*
X199981315Y-64680857D01*
X199981315Y-64252286D01*
X200052744Y-64109429D01*
X200124172Y-64038000D01*
X200267030Y-63966571D01*
X200552744Y-63966571D01*
X200695601Y-64038000D01*
X202552744Y-64966571D02*
X202552744Y-63466571D01*
X202909887Y-63466571D01*
X203124172Y-63538000D01*
X203267030Y-63680857D01*
X203338458Y-63823714D01*
X203409887Y-64109429D01*
X203409887Y-64323714D01*
X203338458Y-64609429D01*
X203267030Y-64752286D01*
X203124172Y-64895143D01*
X202909887Y-64966571D01*
X202552744Y-64966571D01*
X204624172Y-64895143D02*
X204481315Y-64966571D01*
X204195601Y-64966571D01*
X204052744Y-64895143D01*
X203981315Y-64752286D01*
X203981315Y-64180857D01*
X204052744Y-64038000D01*
X204195601Y-63966571D01*
X204481315Y-63966571D01*
X204624172Y-64038000D01*
X204695601Y-64180857D01*
X204695601Y-64323714D01*
X203981315Y-64466571D01*
X205195601Y-63966571D02*
X205552744Y-64966571D01*
X205909886Y-63966571D01*
X206481315Y-64966571D02*
X206481315Y-63966571D01*
X206481315Y-63466571D02*
X206409886Y-63538000D01*
X206481315Y-63609429D01*
X206552743Y-63538000D01*
X206481315Y-63466571D01*
X206481315Y-63609429D01*
X207838458Y-64895143D02*
X207695601Y-64966571D01*
X207409887Y-64966571D01*
X207267029Y-64895143D01*
X207195601Y-64823714D01*
X207124172Y-64680857D01*
X207124172Y-64252286D01*
X207195601Y-64109429D01*
X207267029Y-64038000D01*
X207409887Y-63966571D01*
X207695601Y-63966571D01*
X207838458Y-64038000D01*
X209052743Y-64895143D02*
X208909886Y-64966571D01*
X208624172Y-64966571D01*
X208481315Y-64895143D01*
X208409886Y-64752286D01*
X208409886Y-64180857D01*
X208481315Y-64038000D01*
X208624172Y-63966571D01*
X208909886Y-63966571D01*
X209052743Y-64038000D01*
X209124172Y-64180857D01*
X209124172Y-64323714D01*
X208409886Y-64466571D01*
X209695600Y-64895143D02*
X209838457Y-64966571D01*
X210124172Y-64966571D01*
X210267029Y-64895143D01*
X210338457Y-64752286D01*
X210338457Y-64680857D01*
X210267029Y-64538000D01*
X210124172Y-64466571D01*
X209909886Y-64466571D01*
X209767029Y-64395143D01*
X209695600Y-64252286D01*
X209695600Y-64180857D01*
X209767029Y-64038000D01*
X209909886Y-63966571D01*
X210124172Y-63966571D01*
X210267029Y-64038000D01*
X181052743Y-67366571D02*
X181052743Y-65866571D01*
X181695600Y-67366571D02*
X181695600Y-66580857D01*
X181624171Y-66438000D01*
X181481314Y-66366571D01*
X181267029Y-66366571D01*
X181124171Y-66438000D01*
X181052743Y-66509429D01*
X182195600Y-66366571D02*
X182767029Y-66366571D01*
X182409886Y-65866571D02*
X182409886Y-67152286D01*
X182481314Y-67295143D01*
X182624172Y-67366571D01*
X182767029Y-67366571D01*
X183052743Y-66366571D02*
X183624172Y-66366571D01*
X183267029Y-65866571D02*
X183267029Y-67152286D01*
X183338457Y-67295143D01*
X183481315Y-67366571D01*
X183624172Y-67366571D01*
X184124172Y-66366571D02*
X184124172Y-67866571D01*
X184124172Y-66438000D02*
X184267029Y-66366571D01*
X184552743Y-66366571D01*
X184695600Y-66438000D01*
X184767029Y-66509429D01*
X184838458Y-66652286D01*
X184838458Y-67080857D01*
X184767029Y-67223714D01*
X184695600Y-67295143D01*
X184552743Y-67366571D01*
X184267029Y-67366571D01*
X184124172Y-67295143D01*
X185481315Y-67223714D02*
X185552743Y-67295143D01*
X185481315Y-67366571D01*
X185409886Y-67295143D01*
X185481315Y-67223714D01*
X185481315Y-67366571D01*
X185481315Y-66438000D02*
X185552743Y-66509429D01*
X185481315Y-66580857D01*
X185409886Y-66509429D01*
X185481315Y-66438000D01*
X185481315Y-66580857D01*
X187267029Y-65795143D02*
X185981315Y-67723714D01*
X188838458Y-65795143D02*
X187552744Y-67723714D01*
X189338459Y-67366571D02*
X189338459Y-66366571D01*
X189338459Y-66509429D02*
X189409887Y-66438000D01*
X189552745Y-66366571D01*
X189767030Y-66366571D01*
X189909887Y-66438000D01*
X189981316Y-66580857D01*
X189981316Y-67366571D01*
X189981316Y-66580857D02*
X190052745Y-66438000D01*
X190195602Y-66366571D01*
X190409887Y-66366571D01*
X190552745Y-66438000D01*
X190624173Y-66580857D01*
X190624173Y-67366571D01*
X191552745Y-67366571D02*
X191409887Y-67295143D01*
X191338459Y-67223714D01*
X191267030Y-67080857D01*
X191267030Y-66652286D01*
X191338459Y-66509429D01*
X191409887Y-66438000D01*
X191552745Y-66366571D01*
X191767030Y-66366571D01*
X191909887Y-66438000D01*
X191981316Y-66509429D01*
X192052745Y-66652286D01*
X192052745Y-67080857D01*
X191981316Y-67223714D01*
X191909887Y-67295143D01*
X191767030Y-67366571D01*
X191552745Y-67366571D01*
X193338459Y-67366571D02*
X193338459Y-65866571D01*
X193338459Y-67295143D02*
X193195602Y-67366571D01*
X192909888Y-67366571D01*
X192767030Y-67295143D01*
X192695602Y-67223714D01*
X192624173Y-67080857D01*
X192624173Y-66652286D01*
X192695602Y-66509429D01*
X192767030Y-66438000D01*
X192909888Y-66366571D01*
X193195602Y-66366571D01*
X193338459Y-66438000D01*
X194695602Y-67366571D02*
X194695602Y-65866571D01*
X194695602Y-67295143D02*
X194552745Y-67366571D01*
X194267031Y-67366571D01*
X194124173Y-67295143D01*
X194052745Y-67223714D01*
X193981316Y-67080857D01*
X193981316Y-66652286D01*
X194052745Y-66509429D01*
X194124173Y-66438000D01*
X194267031Y-66366571D01*
X194552745Y-66366571D01*
X194695602Y-66438000D01*
X195981316Y-67295143D02*
X195838459Y-67366571D01*
X195552745Y-67366571D01*
X195409888Y-67295143D01*
X195338459Y-67152286D01*
X195338459Y-66580857D01*
X195409888Y-66438000D01*
X195552745Y-66366571D01*
X195838459Y-66366571D01*
X195981316Y-66438000D01*
X196052745Y-66580857D01*
X196052745Y-66723714D01*
X195338459Y-66866571D01*
X196552745Y-66366571D02*
X196909888Y-67366571D01*
X197267030Y-66366571D01*
X197838459Y-67366571D02*
X197838459Y-66366571D01*
X197838459Y-65866571D02*
X197767030Y-65938000D01*
X197838459Y-66009429D01*
X197909887Y-65938000D01*
X197838459Y-65866571D01*
X197838459Y-66009429D01*
X199195602Y-67295143D02*
X199052745Y-67366571D01*
X198767031Y-67366571D01*
X198624173Y-67295143D01*
X198552745Y-67223714D01*
X198481316Y-67080857D01*
X198481316Y-66652286D01*
X198552745Y-66509429D01*
X198624173Y-66438000D01*
X198767031Y-66366571D01*
X199052745Y-66366571D01*
X199195602Y-66438000D01*
X200409887Y-67295143D02*
X200267030Y-67366571D01*
X199981316Y-67366571D01*
X199838459Y-67295143D01*
X199767030Y-67152286D01*
X199767030Y-66580857D01*
X199838459Y-66438000D01*
X199981316Y-66366571D01*
X200267030Y-66366571D01*
X200409887Y-66438000D01*
X200481316Y-66580857D01*
X200481316Y-66723714D01*
X199767030Y-66866571D01*
X201052744Y-67295143D02*
X201195601Y-67366571D01*
X201481316Y-67366571D01*
X201624173Y-67295143D01*
X201695601Y-67152286D01*
X201695601Y-67080857D01*
X201624173Y-66938000D01*
X201481316Y-66866571D01*
X201267030Y-66866571D01*
X201124173Y-66795143D01*
X201052744Y-66652286D01*
X201052744Y-66580857D01*
X201124173Y-66438000D01*
X201267030Y-66366571D01*
X201481316Y-66366571D01*
X201624173Y-66438000D01*
X202338459Y-67223714D02*
X202409887Y-67295143D01*
X202338459Y-67366571D01*
X202267030Y-67295143D01*
X202338459Y-67223714D01*
X202338459Y-67366571D01*
X203695602Y-67295143D02*
X203552745Y-67366571D01*
X203267031Y-67366571D01*
X203124173Y-67295143D01*
X203052745Y-67223714D01*
X202981316Y-67080857D01*
X202981316Y-66652286D01*
X203052745Y-66509429D01*
X203124173Y-66438000D01*
X203267031Y-66366571D01*
X203552745Y-66366571D01*
X203695602Y-66438000D01*
X204552745Y-67366571D02*
X204409887Y-67295143D01*
X204338459Y-67223714D01*
X204267030Y-67080857D01*
X204267030Y-66652286D01*
X204338459Y-66509429D01*
X204409887Y-66438000D01*
X204552745Y-66366571D01*
X204767030Y-66366571D01*
X204909887Y-66438000D01*
X204981316Y-66509429D01*
X205052745Y-66652286D01*
X205052745Y-67080857D01*
X204981316Y-67223714D01*
X204909887Y-67295143D01*
X204767030Y-67366571D01*
X204552745Y-67366571D01*
X205695602Y-67366571D02*
X205695602Y-66366571D01*
X205695602Y-66509429D02*
X205767030Y-66438000D01*
X205909888Y-66366571D01*
X206124173Y-66366571D01*
X206267030Y-66438000D01*
X206338459Y-66580857D01*
X206338459Y-67366571D01*
X206338459Y-66580857D02*
X206409888Y-66438000D01*
X206552745Y-66366571D01*
X206767030Y-66366571D01*
X206909888Y-66438000D01*
X206981316Y-66580857D01*
X206981316Y-67366571D01*
X181052743Y-72166571D02*
X181052743Y-70666571D01*
X181552743Y-71738000D01*
X182052743Y-70666571D01*
X182052743Y-72166571D01*
X183052743Y-70666571D02*
X183338457Y-70666571D01*
X183481315Y-70738000D01*
X183624172Y-70880857D01*
X183695600Y-71166571D01*
X183695600Y-71666571D01*
X183624172Y-71952286D01*
X183481315Y-72095143D01*
X183338457Y-72166571D01*
X183052743Y-72166571D01*
X182909886Y-72095143D01*
X182767029Y-71952286D01*
X182695600Y-71666571D01*
X182695600Y-71166571D01*
X182767029Y-70880857D01*
X182909886Y-70738000D01*
X183052743Y-70666571D01*
X184338458Y-72166571D02*
X184338458Y-70666571D01*
X184695601Y-70666571D01*
X184909886Y-70738000D01*
X185052744Y-70880857D01*
X185124172Y-71023714D01*
X185195601Y-71309429D01*
X185195601Y-71523714D01*
X185124172Y-71809429D01*
X185052744Y-71952286D01*
X184909886Y-72095143D01*
X184695601Y-72166571D01*
X184338458Y-72166571D01*
X186981315Y-72166571D02*
X186981315Y-70666571D01*
X187338458Y-70666571D01*
X187552743Y-70738000D01*
X187695601Y-70880857D01*
X187767029Y-71023714D01*
X187838458Y-71309429D01*
X187838458Y-71523714D01*
X187767029Y-71809429D01*
X187695601Y-71952286D01*
X187552743Y-72095143D01*
X187338458Y-72166571D01*
X186981315Y-72166571D01*
X189124172Y-71166571D02*
X189124172Y-72166571D01*
X188481315Y-71166571D02*
X188481315Y-71952286D01*
X188552743Y-72095143D01*
X188695601Y-72166571D01*
X188909886Y-72166571D01*
X189052743Y-72095143D01*
X189124172Y-72023714D01*
X190052744Y-72166571D02*
X189909886Y-72095143D01*
X189838458Y-72023714D01*
X189767029Y-71880857D01*
X189767029Y-71452286D01*
X189838458Y-71309429D01*
X189909886Y-71238000D01*
X190052744Y-71166571D01*
X190267029Y-71166571D01*
X190409886Y-71238000D01*
X190481315Y-71309429D01*
X190552744Y-71452286D01*
X190552744Y-71880857D01*
X190481315Y-72023714D01*
X190409886Y-72095143D01*
X190267029Y-72166571D01*
X190052744Y-72166571D01*
X192338458Y-71595143D02*
X193481315Y-71595143D01*
X195124172Y-70666571D02*
X195981315Y-70666571D01*
X195552744Y-72166571D02*
X195552744Y-70666571D01*
X196695601Y-72166571D02*
X196552743Y-72095143D01*
X196481315Y-72023714D01*
X196409886Y-71880857D01*
X196409886Y-71452286D01*
X196481315Y-71309429D01*
X196552743Y-71238000D01*
X196695601Y-71166571D01*
X196909886Y-71166571D01*
X197052743Y-71238000D01*
X197124172Y-71309429D01*
X197195601Y-71452286D01*
X197195601Y-71880857D01*
X197124172Y-72023714D01*
X197052743Y-72095143D01*
X196909886Y-72166571D01*
X196695601Y-72166571D01*
X197838458Y-71166571D02*
X197838458Y-72666571D01*
X197838458Y-71238000D02*
X197981315Y-71166571D01*
X198267029Y-71166571D01*
X198409886Y-71238000D01*
X198481315Y-71309429D01*
X198552744Y-71452286D01*
X198552744Y-71880857D01*
X198481315Y-72023714D01*
X198409886Y-72095143D01*
X198267029Y-72166571D01*
X197981315Y-72166571D01*
X197838458Y-72095143D01*
X200838458Y-71380857D02*
X201052744Y-71452286D01*
X201124172Y-71523714D01*
X201195601Y-71666571D01*
X201195601Y-71880857D01*
X201124172Y-72023714D01*
X201052744Y-72095143D01*
X200909886Y-72166571D01*
X200338458Y-72166571D01*
X200338458Y-70666571D01*
X200838458Y-70666571D01*
X200981315Y-70738000D01*
X201052744Y-70809429D01*
X201124172Y-70952286D01*
X201124172Y-71095143D01*
X201052744Y-71238000D01*
X200981315Y-71309429D01*
X200838458Y-71380857D01*
X200338458Y-71380857D01*
X202052744Y-72166571D02*
X201909886Y-72095143D01*
X201838458Y-72023714D01*
X201767029Y-71880857D01*
X201767029Y-71452286D01*
X201838458Y-71309429D01*
X201909886Y-71238000D01*
X202052744Y-71166571D01*
X202267029Y-71166571D01*
X202409886Y-71238000D01*
X202481315Y-71309429D01*
X202552744Y-71452286D01*
X202552744Y-71880857D01*
X202481315Y-72023714D01*
X202409886Y-72095143D01*
X202267029Y-72166571D01*
X202052744Y-72166571D01*
X203838458Y-72166571D02*
X203838458Y-71380857D01*
X203767029Y-71238000D01*
X203624172Y-71166571D01*
X203338458Y-71166571D01*
X203195601Y-71238000D01*
X203838458Y-72095143D02*
X203695601Y-72166571D01*
X203338458Y-72166571D01*
X203195601Y-72095143D01*
X203124172Y-71952286D01*
X203124172Y-71809429D01*
X203195601Y-71666571D01*
X203338458Y-71595143D01*
X203695601Y-71595143D01*
X203838458Y-71523714D01*
X204552744Y-72166571D02*
X204552744Y-71166571D01*
X204552744Y-71452286D02*
X204624172Y-71309429D01*
X204695601Y-71238000D01*
X204838458Y-71166571D01*
X204981315Y-71166571D01*
X206124172Y-72166571D02*
X206124172Y-70666571D01*
X206124172Y-72095143D02*
X205981315Y-72166571D01*
X205695601Y-72166571D01*
X205552743Y-72095143D01*
X205481315Y-72023714D01*
X205409886Y-71880857D01*
X205409886Y-71452286D01*
X205481315Y-71309429D01*
X205552743Y-71238000D01*
X205695601Y-71166571D01*
X205981315Y-71166571D01*
X206124172Y-71238000D01*
X181909886Y-74566571D02*
X181409886Y-73852286D01*
X181052743Y-74566571D02*
X181052743Y-73066571D01*
X181624171Y-73066571D01*
X181767029Y-73138000D01*
X181838457Y-73209429D01*
X181909886Y-73352286D01*
X181909886Y-73566571D01*
X181838457Y-73709429D01*
X181767029Y-73780857D01*
X181624171Y-73852286D01*
X181052743Y-73852286D01*
X183124171Y-74495143D02*
X182981314Y-74566571D01*
X182695600Y-74566571D01*
X182552743Y-74495143D01*
X182481314Y-74352286D01*
X182481314Y-73780857D01*
X182552743Y-73638000D01*
X182695600Y-73566571D01*
X182981314Y-73566571D01*
X183124171Y-73638000D01*
X183195600Y-73780857D01*
X183195600Y-73923714D01*
X182481314Y-74066571D01*
X183695600Y-73566571D02*
X184052743Y-74566571D01*
X184409885Y-73566571D01*
X184981314Y-74423714D02*
X185052742Y-74495143D01*
X184981314Y-74566571D01*
X184909885Y-74495143D01*
X184981314Y-74423714D01*
X184981314Y-74566571D01*
X185695600Y-74423714D02*
X185767028Y-74495143D01*
X185695600Y-74566571D01*
X185624171Y-74495143D01*
X185695600Y-74423714D01*
X185695600Y-74566571D01*
X185695600Y-73638000D02*
X185767028Y-73709429D01*
X185695600Y-73780857D01*
X185624171Y-73709429D01*
X185695600Y-73638000D01*
X185695600Y-73780857D01*
X187481314Y-73209429D02*
X187552743Y-73138000D01*
X187695600Y-73066571D01*
X188052743Y-73066571D01*
X188195600Y-73138000D01*
X188267029Y-73209429D01*
X188338457Y-73352286D01*
X188338457Y-73495143D01*
X188267029Y-73709429D01*
X187409886Y-74566571D01*
X188338457Y-74566571D01*
X189267028Y-73066571D02*
X189409885Y-73066571D01*
X189552742Y-73138000D01*
X189624171Y-73209429D01*
X189695600Y-73352286D01*
X189767028Y-73638000D01*
X189767028Y-73995143D01*
X189695600Y-74280857D01*
X189624171Y-74423714D01*
X189552742Y-74495143D01*
X189409885Y-74566571D01*
X189267028Y-74566571D01*
X189124171Y-74495143D01*
X189052742Y-74423714D01*
X188981314Y-74280857D01*
X188909885Y-73995143D01*
X188909885Y-73638000D01*
X188981314Y-73352286D01*
X189052742Y-73209429D01*
X189124171Y-73138000D01*
X189267028Y-73066571D01*
X191195599Y-74566571D02*
X190338456Y-74566571D01*
X190767028Y-74566571D02*
X190767028Y-73066571D01*
X190624171Y-73280857D01*
X190481313Y-73423714D01*
X190338456Y-73495143D01*
X192552742Y-73066571D02*
X191838456Y-73066571D01*
X191767027Y-73780857D01*
X191838456Y-73709429D01*
X191981313Y-73638000D01*
X192338456Y-73638000D01*
X192481313Y-73709429D01*
X192552742Y-73780857D01*
X192624170Y-73923714D01*
X192624170Y-74280857D01*
X192552742Y-74423714D01*
X192481313Y-74495143D01*
X192338456Y-74566571D01*
X191981313Y-74566571D01*
X191838456Y-74495143D01*
X191767027Y-74423714D01*
X193267027Y-74423714D02*
X193338455Y-74495143D01*
X193267027Y-74566571D01*
X193195598Y-74495143D01*
X193267027Y-74423714D01*
X193267027Y-74566571D01*
X194267027Y-73066571D02*
X194409884Y-73066571D01*
X194552741Y-73138000D01*
X194624170Y-73209429D01*
X194695599Y-73352286D01*
X194767027Y-73638000D01*
X194767027Y-73995143D01*
X194695599Y-74280857D01*
X194624170Y-74423714D01*
X194552741Y-74495143D01*
X194409884Y-74566571D01*
X194267027Y-74566571D01*
X194124170Y-74495143D01*
X194052741Y-74423714D01*
X193981313Y-74280857D01*
X193909884Y-73995143D01*
X193909884Y-73638000D01*
X193981313Y-73352286D01*
X194052741Y-73209429D01*
X194124170Y-73138000D01*
X194267027Y-73066571D01*
X195267027Y-73066571D02*
X196267027Y-73066571D01*
X195624170Y-74566571D01*
X196838455Y-74423714D02*
X196909883Y-74495143D01*
X196838455Y-74566571D01*
X196767026Y-74495143D01*
X196838455Y-74423714D01*
X196838455Y-74566571D01*
X198338455Y-74566571D02*
X197481312Y-74566571D01*
X197909884Y-74566571D02*
X197909884Y-73066571D01*
X197767027Y-73280857D01*
X197624169Y-73423714D01*
X197481312Y-73495143D01*
X199695598Y-73066571D02*
X198981312Y-73066571D01*
X198909883Y-73780857D01*
X198981312Y-73709429D01*
X199124169Y-73638000D01*
X199481312Y-73638000D01*
X199624169Y-73709429D01*
X199695598Y-73780857D01*
X199767026Y-73923714D01*
X199767026Y-74280857D01*
X199695598Y-74423714D01*
X199624169Y-74495143D01*
X199481312Y-74566571D01*
X199124169Y-74566571D01*
X198981312Y-74495143D01*
X198909883Y-74423714D01*
D12*
X82708000Y-47977500D02*
X83408000Y-47977500D01*
X83408000Y-49177500D02*
X82708000Y-49177500D01*
X99600500Y-49177500D02*
X98900500Y-49177500D01*
X98900500Y-47977500D02*
X99600500Y-47977500D01*
X97409000Y-43180000D02*
X97409000Y-44704000D01*
X97536000Y-45085000D02*
X97536000Y-42799000D01*
X97663000Y-42545000D02*
X97663000Y-45339000D01*
X97790000Y-45593000D02*
X97790000Y-42291000D01*
X97917000Y-42164000D02*
X97917000Y-45720000D01*
X103378000Y-43942000D02*
G75*
G03X103378000Y-43942000I-3048000J0D01*
G01*
X97028000Y-40640000D02*
X97028000Y-47244000D01*
X97028000Y-47244000D02*
X102870000Y-47244000D01*
X102870000Y-47244000D02*
X103632000Y-46482000D01*
X103632000Y-46482000D02*
X103632000Y-41402000D01*
X103632000Y-41402000D02*
X102870000Y-40640000D01*
X102870000Y-40640000D02*
X97028000Y-40640000D01*
X102489000Y-43942000D02*
X101727000Y-43942000D01*
X102108000Y-43561000D02*
X102108000Y-44323000D01*
X191223000Y-97464500D02*
X191223000Y-96464500D01*
X189523000Y-96464500D02*
X189523000Y-97464500D01*
X191682000Y-96464500D02*
X191682000Y-97464500D01*
X193382000Y-97464500D02*
X193382000Y-96464500D01*
X204636000Y-96464500D02*
X204636000Y-97464500D01*
X206336000Y-97464500D02*
X206336000Y-96464500D01*
X196000000Y-96464500D02*
X196000000Y-97464500D01*
X197700000Y-97464500D02*
X197700000Y-96464500D01*
X193841000Y-96464500D02*
X193841000Y-97464500D01*
X195541000Y-97464500D02*
X195541000Y-96464500D01*
X198159000Y-96464500D02*
X198159000Y-97464500D01*
X199859000Y-97464500D02*
X199859000Y-96464500D01*
X200318000Y-96464500D02*
X200318000Y-97464500D01*
X202018000Y-97464500D02*
X202018000Y-96464500D01*
X202477000Y-96464500D02*
X202477000Y-97464500D01*
X204177000Y-97464500D02*
X204177000Y-96464500D01*
X187364000Y-96464500D02*
X187364000Y-97464500D01*
X189064000Y-97464500D02*
X189064000Y-96464500D01*
X115023000Y-97464500D02*
X115023000Y-96464500D01*
X113323000Y-96464500D02*
X113323000Y-97464500D01*
X115482000Y-96464500D02*
X115482000Y-97464500D01*
X117182000Y-97464500D02*
X117182000Y-96464500D01*
X128436000Y-96464500D02*
X128436000Y-97464500D01*
X130136000Y-97464500D02*
X130136000Y-96464500D01*
X119800000Y-96464500D02*
X119800000Y-97464500D01*
X121500000Y-97464500D02*
X121500000Y-96464500D01*
X117641000Y-96464500D02*
X117641000Y-97464500D01*
X119341000Y-97464500D02*
X119341000Y-96464500D01*
X121959000Y-96464500D02*
X121959000Y-97464500D01*
X123659000Y-97464500D02*
X123659000Y-96464500D01*
X124118000Y-96464500D02*
X124118000Y-97464500D01*
X125818000Y-97464500D02*
X125818000Y-96464500D01*
X126277000Y-96464500D02*
X126277000Y-97464500D01*
X127977000Y-97464500D02*
X127977000Y-96464500D01*
X111164000Y-96464500D02*
X111164000Y-97464500D01*
X112864000Y-97464500D02*
X112864000Y-96464500D01*
X151984000Y-73945000D02*
X151984000Y-74645000D01*
X150784000Y-74645000D02*
X150784000Y-73945000D01*
X165881000Y-61249000D02*
X166581000Y-61249000D01*
X166581000Y-62449000D02*
X165881000Y-62449000D01*
X152816000Y-54896500D02*
X152816000Y-54196500D01*
X154016000Y-54196500D02*
X154016000Y-54896500D01*
X157528400Y-54883800D02*
X157528400Y-54183800D01*
X158728400Y-54183800D02*
X158728400Y-54883800D01*
X158715000Y-73500500D02*
X158715000Y-74200500D01*
X157515000Y-74200500D02*
X157515000Y-73500500D01*
X142586000Y-64229500D02*
X142586000Y-64929500D01*
X141386000Y-64929500D02*
X141386000Y-64229500D01*
X141386000Y-73121000D02*
X141386000Y-72421000D01*
X142586000Y-72421000D02*
X142586000Y-73121000D01*
X193202000Y-52953400D02*
X193202000Y-52253400D01*
X194402000Y-52253400D02*
X194402000Y-52953400D01*
X116951200Y-52953400D02*
X116951200Y-52253400D01*
X118151200Y-52253400D02*
X118151200Y-52953400D01*
X195208600Y-52953400D02*
X195208600Y-52253400D01*
X196408600Y-52253400D02*
X196408600Y-52953400D01*
X118957800Y-52953400D02*
X118957800Y-52253400D01*
X120157800Y-52253400D02*
X120157800Y-52953400D01*
X213178000Y-93073000D02*
X215628000Y-93073000D01*
X207028000Y-93073000D02*
X209478000Y-93073000D01*
X207028000Y-84473000D02*
X207028000Y-93073000D01*
X207028000Y-84473000D02*
X215628000Y-84473000D01*
X215628000Y-84473000D02*
X215628000Y-93073000D01*
X136978000Y-93073000D02*
X139428000Y-93073000D01*
X130828000Y-93073000D02*
X133278000Y-93073000D01*
X130828000Y-84473000D02*
X130828000Y-93073000D01*
X130828000Y-84473000D02*
X139428000Y-84473000D01*
X139428000Y-84473000D02*
X139428000Y-93073000D01*
X151231500Y-51058500D02*
X151231500Y-50258500D01*
X144581500Y-51058500D02*
X151231500Y-51058500D01*
X144581500Y-51058500D02*
X144581500Y-48108500D01*
X144581500Y-48108500D02*
X149131500Y-48108500D01*
X151231500Y-49458500D02*
X151231500Y-48108500D01*
X151231500Y-48108500D02*
X149931500Y-48108500D01*
X211611160Y-96123760D02*
X211562900Y-96123760D01*
X208812180Y-96824800D02*
X208812180Y-96123760D01*
X208812180Y-96123760D02*
X209061100Y-96123760D01*
X211611160Y-96123760D02*
X211811820Y-96123760D01*
X211811820Y-96123760D02*
X211811820Y-96824800D01*
X135411160Y-96123760D02*
X135362900Y-96123760D01*
X132612180Y-96824800D02*
X132612180Y-96123760D01*
X132612180Y-96123760D02*
X132861100Y-96123760D01*
X135411160Y-96123760D02*
X135611820Y-96123760D01*
X135611820Y-96123760D02*
X135611820Y-96824800D01*
X214035000Y-96020000D02*
X214035000Y-97020000D01*
X212685000Y-97020000D02*
X212685000Y-96020000D01*
X137835000Y-96020000D02*
X137835000Y-97020000D01*
X136485000Y-97020000D02*
X136485000Y-96020000D01*
X172252000Y-67699000D02*
X172252000Y-68699000D01*
X170902000Y-68699000D02*
X170902000Y-67699000D01*
X152313000Y-54237000D02*
X152313000Y-55237000D01*
X150963000Y-55237000D02*
X150963000Y-54237000D01*
X150281000Y-54237000D02*
X150281000Y-55237000D01*
X148931000Y-55237000D02*
X148931000Y-54237000D01*
X148312500Y-54237000D02*
X148312500Y-55237000D01*
X146962500Y-55237000D02*
X146962500Y-54237000D01*
X145963000Y-54237000D02*
X145963000Y-55237000D01*
X144613000Y-55237000D02*
X144613000Y-54237000D01*
X161393500Y-77541500D02*
X161393500Y-78541500D01*
X160043500Y-78541500D02*
X160043500Y-77541500D01*
X188228600Y-42680000D02*
X188228600Y-43680000D01*
X186878600Y-43680000D02*
X186878600Y-42680000D01*
X111977800Y-42680000D02*
X111977800Y-43680000D01*
X110627800Y-43680000D02*
X110627800Y-42680000D01*
X192066800Y-52440200D02*
X191066800Y-52440200D01*
X191066800Y-51090200D02*
X192066800Y-51090200D01*
X115816000Y-52440200D02*
X114816000Y-52440200D01*
X114816000Y-51090200D02*
X115816000Y-51090200D01*
X191066800Y-52817400D02*
X192066800Y-52817400D01*
X192066800Y-54167400D02*
X191066800Y-54167400D01*
X114816000Y-52817400D02*
X115816000Y-52817400D01*
X115816000Y-54167400D02*
X114816000Y-54167400D01*
X159615500Y-77541500D02*
X159615500Y-78541500D01*
X158265500Y-78541500D02*
X158265500Y-77541500D01*
X197543800Y-51090200D02*
X198543800Y-51090200D01*
X198543800Y-52440200D02*
X197543800Y-52440200D01*
X121293000Y-51090200D02*
X122293000Y-51090200D01*
X122293000Y-52440200D02*
X121293000Y-52440200D01*
X198543800Y-54167400D02*
X197543800Y-54167400D01*
X197543800Y-52817400D02*
X198543800Y-52817400D01*
X122293000Y-54167400D02*
X121293000Y-54167400D01*
X121293000Y-52817400D02*
X122293000Y-52817400D01*
X138726000Y-67457000D02*
X138726000Y-69957000D01*
X138726000Y-69957000D02*
X137626000Y-69957000D01*
X137626000Y-69957000D02*
X137626000Y-67457000D01*
X137626000Y-67457000D02*
X138726000Y-67457000D01*
X137376000Y-67207000D02*
X137376000Y-70207000D01*
X138976000Y-67207000D02*
X138976000Y-70207000D01*
X138976000Y-70207000D02*
X137376000Y-70207000D01*
X138976000Y-67207000D02*
X137376000Y-67207000D01*
X136426000Y-65707000D02*
X136426000Y-71707000D01*
X139926000Y-65707000D02*
X139926000Y-71707000D01*
X139926000Y-65707000D02*
X136426000Y-65707000D01*
X139926000Y-71707000D02*
X136426000Y-71707000D01*
X95948500Y-53022500D02*
X95948500Y-49847500D01*
X95948500Y-49847500D02*
X94170500Y-49847500D01*
X94170500Y-49847500D02*
X94170500Y-53022500D01*
X100520500Y-53022500D02*
X100520500Y-49847500D01*
X100520500Y-49847500D02*
X98742500Y-49847500D01*
X98742500Y-49847500D02*
X98742500Y-53022500D01*
X93916500Y-59118500D02*
X93916500Y-53022500D01*
X93916500Y-53022500D02*
X100774500Y-53022500D01*
X100774500Y-53022500D02*
X100774500Y-60896500D01*
X100774500Y-61023500D02*
X93916500Y-61023500D01*
X93916500Y-60896500D02*
X93916500Y-59118500D01*
X150567600Y-58035400D02*
X150567600Y-59045400D01*
X162817600Y-58035400D02*
X162817600Y-59045400D01*
X162817600Y-70285400D02*
X162817600Y-69275400D01*
X150567600Y-70285400D02*
X150567600Y-69275400D01*
X150567600Y-58035400D02*
X151577600Y-58035400D01*
X150567600Y-70285400D02*
X151577600Y-70285400D01*
X162817600Y-70285400D02*
X161807600Y-70285400D01*
X162817600Y-58035400D02*
X161807600Y-58035400D01*
X150567600Y-59045400D02*
X149042600Y-59045400D01*
X221984200Y-80463800D02*
X221984200Y-80138800D01*
X217334200Y-80463800D02*
X217334200Y-80138800D01*
X217334200Y-70513800D02*
X217334200Y-70838800D01*
X221984200Y-70513800D02*
X221984200Y-70838800D01*
X221984200Y-80463800D02*
X217334200Y-80463800D01*
X221984200Y-70513800D02*
X217334200Y-70513800D01*
X221984200Y-80138800D02*
X223059200Y-80138800D01*
X143029940Y-62793880D02*
X143029940Y-74493120D01*
X148028660Y-74493120D02*
X148028660Y-62793880D01*
X143029940Y-74493120D02*
X143878300Y-74493120D01*
X148028660Y-74493120D02*
X147180300Y-74493120D01*
X143029940Y-62793880D02*
X143878300Y-62793880D01*
X148028660Y-62793880D02*
X147180300Y-62793880D01*
X168560500Y-78710000D02*
X167010500Y-78710000D01*
X168560500Y-80010000D02*
X168560500Y-78710000D01*
X167137500Y-84201000D02*
X167137500Y-90043000D01*
X167137500Y-90043000D02*
X166883500Y-90043000D01*
X166883500Y-90043000D02*
X166883500Y-84201000D01*
X166883500Y-84201000D02*
X167010500Y-84201000D01*
X167010500Y-84201000D02*
X167010500Y-90043000D01*
X167264500Y-81534000D02*
X167264500Y-81153000D01*
X166756500Y-81534000D02*
X166756500Y-81153000D01*
X164724500Y-81534000D02*
X164724500Y-81153000D01*
X164216500Y-81534000D02*
X164216500Y-81153000D01*
X168280500Y-81534000D02*
X168280500Y-84074000D01*
X165740500Y-81534000D02*
X165740500Y-84074000D01*
X165740500Y-81534000D02*
X163200500Y-81534000D01*
X163200500Y-81534000D02*
X163200500Y-84074000D01*
X164724500Y-84074000D02*
X164724500Y-90170000D01*
X164724500Y-90170000D02*
X164216500Y-90170000D01*
X164216500Y-90170000D02*
X164216500Y-84074000D01*
X163200500Y-84074000D02*
X165740500Y-84074000D01*
X165740500Y-84074000D02*
X168280500Y-84074000D01*
X166756500Y-90170000D02*
X166756500Y-84074000D01*
X167264500Y-90170000D02*
X166756500Y-90170000D01*
X167264500Y-84074000D02*
X167264500Y-90170000D01*
X165740500Y-81534000D02*
X165740500Y-84074000D01*
X168280500Y-81534000D02*
X165740500Y-81534000D01*
X150399500Y-78710000D02*
X148849500Y-78710000D01*
X150399500Y-80010000D02*
X150399500Y-78710000D01*
X148976500Y-84201000D02*
X148976500Y-90043000D01*
X148976500Y-90043000D02*
X148722500Y-90043000D01*
X148722500Y-90043000D02*
X148722500Y-84201000D01*
X148722500Y-84201000D02*
X148849500Y-84201000D01*
X148849500Y-84201000D02*
X148849500Y-90043000D01*
X149103500Y-81534000D02*
X149103500Y-81153000D01*
X148595500Y-81534000D02*
X148595500Y-81153000D01*
X146563500Y-81534000D02*
X146563500Y-81153000D01*
X146055500Y-81534000D02*
X146055500Y-81153000D01*
X150119500Y-81534000D02*
X150119500Y-84074000D01*
X147579500Y-81534000D02*
X147579500Y-84074000D01*
X147579500Y-81534000D02*
X145039500Y-81534000D01*
X145039500Y-81534000D02*
X145039500Y-84074000D01*
X146563500Y-84074000D02*
X146563500Y-90170000D01*
X146563500Y-90170000D02*
X146055500Y-90170000D01*
X146055500Y-90170000D02*
X146055500Y-84074000D01*
X145039500Y-84074000D02*
X147579500Y-84074000D01*
X147579500Y-84074000D02*
X150119500Y-84074000D01*
X148595500Y-90170000D02*
X148595500Y-84074000D01*
X149103500Y-90170000D02*
X148595500Y-90170000D01*
X149103500Y-84074000D02*
X149103500Y-90170000D01*
X147579500Y-81534000D02*
X147579500Y-84074000D01*
X150119500Y-81534000D02*
X147579500Y-81534000D01*
X94711000Y-49177500D02*
X94011000Y-49177500D01*
X94011000Y-47977500D02*
X94711000Y-47977500D01*
X141803500Y-58317500D02*
X142803500Y-58317500D01*
X142803500Y-56617500D02*
X141803500Y-56617500D01*
X141697000Y-68357000D02*
X141697000Y-69057000D01*
X140497000Y-69057000D02*
X140497000Y-68357000D01*
X138180000Y-55435500D02*
X137930000Y-55435500D01*
X138680000Y-55435500D02*
X138930000Y-55435500D01*
X138680000Y-55435500D02*
X138180000Y-55785500D01*
X138180000Y-55785500D02*
X138180000Y-55085500D01*
X138180000Y-55085500D02*
X138680000Y-55435500D01*
X138680000Y-55785500D02*
X138680000Y-55085500D01*
X139730000Y-54635500D02*
X137330000Y-54635500D01*
X139730000Y-56235500D02*
X137330000Y-56235500D01*
X145338800Y-59000200D02*
X145338800Y-59250200D01*
X145338800Y-58500200D02*
X145338800Y-58250200D01*
X145338800Y-58500200D02*
X145688800Y-59000200D01*
X145688800Y-59000200D02*
X144988800Y-59000200D01*
X144988800Y-59000200D02*
X145338800Y-58500200D01*
X145688800Y-58500200D02*
X144988800Y-58500200D01*
X144538800Y-57450200D02*
X144538800Y-59850200D01*
X146138800Y-57450200D02*
X146138800Y-59850200D01*
X138434000Y-61404500D02*
X138184000Y-61404500D01*
X138934000Y-61404500D02*
X139184000Y-61404500D01*
X138934000Y-61404500D02*
X138434000Y-61754500D01*
X138434000Y-61754500D02*
X138434000Y-61054500D01*
X138434000Y-61054500D02*
X138934000Y-61404500D01*
X138934000Y-61754500D02*
X138934000Y-61054500D01*
X139984000Y-60604500D02*
X137584000Y-60604500D01*
X139984000Y-62204500D02*
X137584000Y-62204500D01*
X91950000Y-47222400D02*
X91950000Y-39622400D01*
X86050000Y-39622400D02*
X91950000Y-39622400D01*
X86050000Y-47222400D02*
X86050000Y-39622400D01*
X86050000Y-47222400D02*
X91950000Y-47222400D01*
X168057260Y-67534840D02*
X168057260Y-67583100D01*
X168758300Y-70333820D02*
X168057260Y-70333820D01*
X168057260Y-70333820D02*
X168057260Y-70084900D01*
X168057260Y-67534840D02*
X168057260Y-67334180D01*
X168057260Y-67334180D02*
X168758300Y-67334180D01*
X141295500Y-54760500D02*
X142295500Y-54760500D01*
X142295500Y-56110500D02*
X141295500Y-56110500D01*
X141295500Y-58824500D02*
X142295500Y-58824500D01*
X142295500Y-60174500D02*
X141295500Y-60174500D01*
X142295500Y-62016000D02*
X141295500Y-62016000D01*
X141295500Y-60666000D02*
X142295500Y-60666000D01*
X234799500Y-49030000D02*
X234799500Y-50030000D01*
X233449500Y-50030000D02*
X233449500Y-49030000D01*
X232272200Y-49030000D02*
X232272200Y-50030000D01*
X230922200Y-50030000D02*
X230922200Y-49030000D01*
X229122600Y-49030000D02*
X229122600Y-50030000D01*
X227772600Y-50030000D02*
X227772600Y-49030000D01*
X135278500Y-61142500D02*
X135278500Y-60142500D01*
X136628500Y-60142500D02*
X136628500Y-61142500D01*
X80137000Y-53022500D02*
X80137000Y-49847500D01*
X80137000Y-49847500D02*
X78359000Y-49847500D01*
X78359000Y-49847500D02*
X78359000Y-53022500D01*
X84709000Y-53022500D02*
X84709000Y-49847500D01*
X84709000Y-49847500D02*
X82931000Y-49847500D01*
X82931000Y-49847500D02*
X82931000Y-53022500D01*
X78105000Y-59118500D02*
X78105000Y-53022500D01*
X78105000Y-53022500D02*
X84963000Y-53022500D01*
X84963000Y-53022500D02*
X84963000Y-60896500D01*
X84963000Y-61023500D02*
X78105000Y-61023500D01*
X78105000Y-60896500D02*
X78105000Y-59118500D01*
X136957000Y-58720000D02*
G75*
G03X136957000Y-58720000I-100000J0D01*
G01*
X137107000Y-58170000D02*
X137107000Y-58670000D01*
X140007000Y-58170000D02*
X137107000Y-58170000D01*
X140007000Y-58670000D02*
X140007000Y-58170000D01*
X137107000Y-58670000D02*
X140007000Y-58670000D01*
X209746000Y-44323000D02*
X209746000Y-44831000D01*
X210254000Y-44323000D02*
X210254000Y-44831000D01*
X233114000Y-44323000D02*
X233114000Y-44831000D01*
X232606000Y-44323000D02*
X232606000Y-44831000D01*
X227526000Y-44323000D02*
X227526000Y-44831000D01*
X228034000Y-44323000D02*
X228034000Y-44831000D01*
X230066000Y-44323000D02*
X230066000Y-44831000D01*
X230574000Y-44323000D02*
X230574000Y-44831000D01*
X225494000Y-44323000D02*
X225494000Y-44831000D01*
X224986000Y-44323000D02*
X224986000Y-44831000D01*
X222954000Y-44323000D02*
X222954000Y-44831000D01*
X222446000Y-44323000D02*
X222446000Y-44831000D01*
X212286000Y-44323000D02*
X212286000Y-44831000D01*
X212794000Y-44323000D02*
X212794000Y-44831000D01*
X214826000Y-44323000D02*
X214826000Y-44831000D01*
X215334000Y-44323000D02*
X215334000Y-44831000D01*
X220414000Y-44323000D02*
X220414000Y-44831000D01*
X219906000Y-44323000D02*
X219906000Y-44831000D01*
X217874000Y-44323000D02*
X217874000Y-44831000D01*
X217366000Y-44323000D02*
X217366000Y-44831000D01*
X233114000Y-41783000D02*
X233114000Y-42291000D01*
X232606000Y-41783000D02*
X232606000Y-42291000D01*
X230574000Y-41783000D02*
X230574000Y-42291000D01*
X230066000Y-41783000D02*
X230066000Y-42291000D01*
X224986000Y-41783000D02*
X224986000Y-42291000D01*
X225494000Y-41783000D02*
X225494000Y-42291000D01*
X227526000Y-41783000D02*
X227526000Y-42291000D01*
X228034000Y-41783000D02*
X228034000Y-42291000D01*
X222954000Y-41783000D02*
X222954000Y-42291000D01*
X222446000Y-41783000D02*
X222446000Y-42291000D01*
X220414000Y-41783000D02*
X220414000Y-42291000D01*
X219906000Y-41783000D02*
X219906000Y-42291000D01*
X209746000Y-41783000D02*
X209746000Y-42291000D01*
X210254000Y-41783000D02*
X210254000Y-42291000D01*
X212286000Y-41783000D02*
X212286000Y-42291000D01*
X212794000Y-41783000D02*
X212794000Y-42291000D01*
X217874000Y-41783000D02*
X217874000Y-42291000D01*
X217366000Y-41783000D02*
X217366000Y-42291000D01*
X215334000Y-41783000D02*
X215334000Y-42291000D01*
X214826000Y-41783000D02*
X214826000Y-42291000D01*
X208450000Y-45847000D02*
X208450000Y-46997000D01*
X208450000Y-46997000D02*
X210000000Y-46997000D01*
X209873000Y-39243000D02*
X209873000Y-33274000D01*
X209873000Y-33274000D02*
X210127000Y-33274000D01*
X210127000Y-33274000D02*
X210127000Y-39116000D01*
X210127000Y-39116000D02*
X210000000Y-39116000D01*
X210000000Y-39116000D02*
X210000000Y-33274000D01*
X229050000Y-41783000D02*
X229050000Y-39243000D01*
X229050000Y-41783000D02*
X231590000Y-41783000D01*
X231590000Y-41783000D02*
X231590000Y-39243000D01*
X230066000Y-39243000D02*
X230066000Y-33147000D01*
X230066000Y-33147000D02*
X230574000Y-33147000D01*
X230574000Y-33147000D02*
X230574000Y-39243000D01*
X231590000Y-39243000D02*
X229050000Y-39243000D01*
X234130000Y-39243000D02*
X231590000Y-39243000D01*
X233114000Y-33147000D02*
X233114000Y-39243000D01*
X232606000Y-33147000D02*
X233114000Y-33147000D01*
X232606000Y-39243000D02*
X232606000Y-33147000D01*
X231590000Y-41783000D02*
X234130000Y-41783000D01*
X231590000Y-41783000D02*
X231590000Y-39243000D01*
X234130000Y-41783000D02*
X234130000Y-39243000D01*
X218890000Y-41783000D02*
X218890000Y-39243000D01*
X218890000Y-41783000D02*
X221430000Y-41783000D01*
X221430000Y-41783000D02*
X221430000Y-39243000D01*
X219906000Y-39243000D02*
X219906000Y-33147000D01*
X219906000Y-33147000D02*
X220414000Y-33147000D01*
X220414000Y-33147000D02*
X220414000Y-39243000D01*
X221430000Y-39243000D02*
X218890000Y-39243000D01*
X223970000Y-39243000D02*
X221430000Y-39243000D01*
X222954000Y-33147000D02*
X222954000Y-39243000D01*
X222446000Y-33147000D02*
X222954000Y-33147000D01*
X222446000Y-39243000D02*
X222446000Y-33147000D01*
X223970000Y-41783000D02*
X223970000Y-39243000D01*
X221430000Y-41783000D02*
X223970000Y-41783000D01*
X221430000Y-41783000D02*
X221430000Y-39243000D01*
X226510000Y-41783000D02*
X226510000Y-39243000D01*
X226510000Y-41783000D02*
X229050000Y-41783000D01*
X229050000Y-41783000D02*
X229050000Y-39243000D01*
X227526000Y-39243000D02*
X227526000Y-33147000D01*
X227526000Y-33147000D02*
X228034000Y-33147000D01*
X228034000Y-33147000D02*
X228034000Y-39243000D01*
X229050000Y-39243000D02*
X226510000Y-39243000D01*
X226510000Y-39243000D02*
X223970000Y-39243000D01*
X225494000Y-33147000D02*
X225494000Y-39243000D01*
X224986000Y-33147000D02*
X225494000Y-33147000D01*
X224986000Y-39243000D02*
X224986000Y-33147000D01*
X226510000Y-41783000D02*
X226510000Y-39243000D01*
X223970000Y-41783000D02*
X226510000Y-41783000D01*
X223970000Y-41783000D02*
X223970000Y-39243000D01*
X213810000Y-41783000D02*
X213810000Y-39243000D01*
X213810000Y-41783000D02*
X216350000Y-41783000D01*
X216350000Y-41783000D02*
X216350000Y-39243000D01*
X214826000Y-39243000D02*
X214826000Y-33147000D01*
X214826000Y-33147000D02*
X215334000Y-33147000D01*
X215334000Y-33147000D02*
X215334000Y-39243000D01*
X216350000Y-39243000D02*
X213810000Y-39243000D01*
X218890000Y-39243000D02*
X216350000Y-39243000D01*
X217874000Y-33147000D02*
X217874000Y-39243000D01*
X217366000Y-33147000D02*
X217874000Y-33147000D01*
X217366000Y-39243000D02*
X217366000Y-33147000D01*
X218890000Y-41783000D02*
X218890000Y-39243000D01*
X216350000Y-41783000D02*
X218890000Y-41783000D01*
X216350000Y-41783000D02*
X216350000Y-39243000D01*
X211270000Y-41783000D02*
X211270000Y-39243000D01*
X211270000Y-41783000D02*
X213810000Y-41783000D01*
X213810000Y-41783000D02*
X213810000Y-39243000D01*
X212286000Y-39243000D02*
X212286000Y-33147000D01*
X212286000Y-33147000D02*
X212794000Y-33147000D01*
X212794000Y-33147000D02*
X212794000Y-39243000D01*
X213810000Y-39243000D02*
X211270000Y-39243000D01*
X211270000Y-39243000D02*
X208730000Y-39243000D01*
X210254000Y-33147000D02*
X210254000Y-39243000D01*
X209746000Y-33147000D02*
X210254000Y-33147000D01*
X209746000Y-39243000D02*
X209746000Y-33147000D01*
X211270000Y-41783000D02*
X211270000Y-39243000D01*
X208730000Y-41783000D02*
X211270000Y-41783000D01*
X208730000Y-41783000D02*
X208730000Y-39243000D01*
X183818000Y-92062500D02*
X183818000Y-87062500D01*
X205818000Y-87062500D02*
X183818000Y-87062500D01*
X205818000Y-92062500D02*
X205818000Y-87062500D01*
X205818000Y-92062500D02*
X183818000Y-92062500D01*
X107618000Y-92062500D02*
X107618000Y-87062500D01*
X129618000Y-87062500D02*
X107618000Y-87062500D01*
X129618000Y-92062500D02*
X129618000Y-87062500D01*
X129618000Y-92062500D02*
X107618000Y-92062500D01*
D10*
G36*
X115595685Y-83210400D02*
X115214742Y-83210400D01*
X114833799Y-83210400D01*
X114827249Y-81697496D01*
X114820700Y-80184593D01*
X113894309Y-81462546D01*
X113724962Y-81696091D01*
X113559905Y-81923586D01*
X113402340Y-82140628D01*
X113255467Y-82342814D01*
X113122488Y-82525739D01*
X113006605Y-82685001D01*
X112911017Y-82816196D01*
X112838926Y-82914920D01*
X112794509Y-82975450D01*
X112621100Y-83210400D01*
X112285800Y-83209041D01*
X111950500Y-83207682D01*
X110858300Y-81705372D01*
X109766100Y-80203062D01*
X109759548Y-81706731D01*
X109752997Y-83210400D01*
X109372198Y-83210400D01*
X108991400Y-83210400D01*
X108991400Y-81038700D01*
X108991400Y-78867000D01*
X109368099Y-78867000D01*
X109744799Y-78867000D01*
X111025449Y-80631538D01*
X111218368Y-80897089D01*
X111402861Y-81150535D01*
X111576742Y-81388898D01*
X111737820Y-81609204D01*
X111883909Y-81808474D01*
X112012818Y-81983732D01*
X112122361Y-82132002D01*
X112210347Y-82250307D01*
X112274590Y-82335670D01*
X112312899Y-82385114D01*
X112323322Y-82396838D01*
X112331319Y-82389678D01*
X112350407Y-82366802D01*
X112381834Y-82326499D01*
X112426850Y-82267058D01*
X112486703Y-82186766D01*
X112562640Y-82083912D01*
X112655912Y-81956785D01*
X112767766Y-81803672D01*
X112899450Y-81622862D01*
X113052214Y-81412643D01*
X113227306Y-81171305D01*
X113425975Y-80897134D01*
X113649468Y-80588419D01*
X113899036Y-80243449D01*
X114175925Y-79860513D01*
X114449319Y-79482268D01*
X114894955Y-78865636D01*
X115238827Y-78872668D01*
X115582700Y-78879700D01*
X115589192Y-81045050D01*
X115595685Y-83210400D01*
X115595685Y-83210400D01*
X115595685Y-83210400D01*
G37*
X115595685Y-83210400D02*
X115214742Y-83210400D01*
X114833799Y-83210400D01*
X114827249Y-81697496D01*
X114820700Y-80184593D01*
X113894309Y-81462546D01*
X113724962Y-81696091D01*
X113559905Y-81923586D01*
X113402340Y-82140628D01*
X113255467Y-82342814D01*
X113122488Y-82525739D01*
X113006605Y-82685001D01*
X112911017Y-82816196D01*
X112838926Y-82914920D01*
X112794509Y-82975450D01*
X112621100Y-83210400D01*
X112285800Y-83209041D01*
X111950500Y-83207682D01*
X110858300Y-81705372D01*
X109766100Y-80203062D01*
X109759548Y-81706731D01*
X109752997Y-83210400D01*
X109372198Y-83210400D01*
X108991400Y-83210400D01*
X108991400Y-81038700D01*
X108991400Y-78867000D01*
X109368099Y-78867000D01*
X109744799Y-78867000D01*
X111025449Y-80631538D01*
X111218368Y-80897089D01*
X111402861Y-81150535D01*
X111576742Y-81388898D01*
X111737820Y-81609204D01*
X111883909Y-81808474D01*
X112012818Y-81983732D01*
X112122361Y-82132002D01*
X112210347Y-82250307D01*
X112274590Y-82335670D01*
X112312899Y-82385114D01*
X112323322Y-82396838D01*
X112331319Y-82389678D01*
X112350407Y-82366802D01*
X112381834Y-82326499D01*
X112426850Y-82267058D01*
X112486703Y-82186766D01*
X112562640Y-82083912D01*
X112655912Y-81956785D01*
X112767766Y-81803672D01*
X112899450Y-81622862D01*
X113052214Y-81412643D01*
X113227306Y-81171305D01*
X113425975Y-80897134D01*
X113649468Y-80588419D01*
X113899036Y-80243449D01*
X114175925Y-79860513D01*
X114449319Y-79482268D01*
X114894955Y-78865636D01*
X115238827Y-78872668D01*
X115582700Y-78879700D01*
X115589192Y-81045050D01*
X115595685Y-83210400D01*
X115595685Y-83210400D01*
G36*
X121907300Y-81050865D02*
X121907262Y-81357122D01*
X121907051Y-81616808D01*
X121906515Y-81834154D01*
X121905507Y-82013388D01*
X121903877Y-82158741D01*
X121901474Y-82274441D01*
X121898151Y-82364720D01*
X121893757Y-82433806D01*
X121888144Y-82485929D01*
X121881162Y-82525318D01*
X121872661Y-82556203D01*
X121862492Y-82582815D01*
X121852413Y-82605262D01*
X121744316Y-82779118D01*
X121593233Y-82927346D01*
X121400715Y-83048753D01*
X121168311Y-83142150D01*
X121143701Y-83149676D01*
X121110657Y-83158508D01*
X121104465Y-83159746D01*
X121104465Y-81633615D01*
X121103598Y-81391961D01*
X121102030Y-81104927D01*
X121101529Y-81014899D01*
X121094500Y-79733902D01*
X121023387Y-79659693D01*
X120949533Y-79601764D01*
X120864028Y-79559244D01*
X120855340Y-79556442D01*
X120814057Y-79549859D01*
X120736046Y-79544187D01*
X120619484Y-79539395D01*
X120462549Y-79535454D01*
X120263419Y-79532331D01*
X120020271Y-79529998D01*
X119731283Y-79528423D01*
X119394632Y-79527576D01*
X119122085Y-79527400D01*
X117485763Y-79527400D01*
X117372431Y-79584550D01*
X117328081Y-79606930D01*
X117290739Y-79628483D01*
X117259802Y-79653525D01*
X117234669Y-79686371D01*
X117214738Y-79731337D01*
X117199405Y-79792738D01*
X117188068Y-79874892D01*
X117180125Y-79982113D01*
X117174974Y-80118717D01*
X117172013Y-80289020D01*
X117170638Y-80497339D01*
X117170247Y-80747988D01*
X117170239Y-81033165D01*
X117170339Y-81325421D01*
X117170916Y-81571302D01*
X117172353Y-81775231D01*
X117175034Y-81941635D01*
X117179340Y-82074937D01*
X117185655Y-82179562D01*
X117194363Y-82259934D01*
X117205847Y-82320478D01*
X117220489Y-82365620D01*
X117238674Y-82399782D01*
X117260783Y-82427390D01*
X117287200Y-82452869D01*
X117293678Y-82458672D01*
X117320451Y-82480870D01*
X117349832Y-82499989D01*
X117385585Y-82516244D01*
X117431476Y-82529850D01*
X117491268Y-82541022D01*
X117568724Y-82549975D01*
X117667609Y-82556924D01*
X117791687Y-82562086D01*
X117944722Y-82565675D01*
X118130478Y-82567905D01*
X118352719Y-82568993D01*
X118615208Y-82569154D01*
X118921711Y-82568602D01*
X119202200Y-82567790D01*
X120815100Y-82562700D01*
X120922526Y-82505300D01*
X120962876Y-82483931D01*
X120996941Y-82463663D01*
X121025229Y-82440272D01*
X121048248Y-82409530D01*
X121066505Y-82367214D01*
X121080507Y-82309098D01*
X121090763Y-82230955D01*
X121097779Y-82128561D01*
X121102063Y-81997690D01*
X121104123Y-81834117D01*
X121104465Y-81633615D01*
X121104465Y-83159746D01*
X121072488Y-83166143D01*
X121025372Y-83172684D01*
X120965486Y-83178230D01*
X120889007Y-83182883D01*
X120792112Y-83186745D01*
X120670979Y-83189917D01*
X120521784Y-83192499D01*
X120340705Y-83194592D01*
X120123919Y-83196299D01*
X119867603Y-83197720D01*
X119567934Y-83198957D01*
X119240300Y-83200050D01*
X118942035Y-83200641D01*
X118655378Y-83200567D01*
X118384910Y-83199868D01*
X118135208Y-83198587D01*
X117910852Y-83196765D01*
X117716422Y-83194444D01*
X117556497Y-83191665D01*
X117435656Y-83188470D01*
X117358477Y-83184900D01*
X117336081Y-83182759D01*
X117075149Y-83124914D01*
X116853759Y-83035576D01*
X116672076Y-82914857D01*
X116530267Y-82762867D01*
X116428496Y-82579717D01*
X116426734Y-82575400D01*
X116414453Y-82544236D01*
X116404090Y-82513407D01*
X116395482Y-82478535D01*
X116388465Y-82435241D01*
X116382877Y-82379145D01*
X116378556Y-82305869D01*
X116375339Y-82211034D01*
X116373062Y-82090262D01*
X116371564Y-81939173D01*
X116370681Y-81753389D01*
X116370252Y-81528531D01*
X116370112Y-81260221D01*
X116370100Y-81051400D01*
X116370092Y-80733044D01*
X116370429Y-80461171D01*
X116371649Y-80231462D01*
X116374293Y-80039601D01*
X116378899Y-79881270D01*
X116386007Y-79752151D01*
X116396157Y-79647928D01*
X116409887Y-79564282D01*
X116427738Y-79496896D01*
X116450248Y-79441452D01*
X116477958Y-79393635D01*
X116511405Y-79349125D01*
X116551131Y-79303605D01*
X116594363Y-79256384D01*
X116730705Y-79132518D01*
X116892036Y-79035411D01*
X117087589Y-78960167D01*
X117219900Y-78924714D01*
X117261257Y-78915833D01*
X117306808Y-78908194D01*
X117360490Y-78901704D01*
X117426240Y-78896274D01*
X117507991Y-78891811D01*
X117609680Y-78888225D01*
X117735242Y-78885425D01*
X117888614Y-78883320D01*
X118073730Y-78881818D01*
X118294527Y-78880828D01*
X118554939Y-78880260D01*
X118858903Y-78880022D01*
X119151400Y-78880011D01*
X119497179Y-78880185D01*
X119796037Y-78880632D01*
X120051850Y-78881438D01*
X120268497Y-78882689D01*
X120449856Y-78884471D01*
X120599803Y-78886870D01*
X120722218Y-78889972D01*
X120820977Y-78893862D01*
X120899958Y-78898627D01*
X120963039Y-78904352D01*
X121014099Y-78911124D01*
X121057014Y-78919029D01*
X121073097Y-78922604D01*
X121309433Y-78994127D01*
X121503515Y-79090047D01*
X121658926Y-79212857D01*
X121779248Y-79365055D01*
X121823683Y-79445382D01*
X121907300Y-79615231D01*
X121907300Y-81050865D01*
X121907300Y-81050865D01*
X121907300Y-81050865D01*
G37*
X121907300Y-81050865D02*
X121907262Y-81357122D01*
X121907051Y-81616808D01*
X121906515Y-81834154D01*
X121905507Y-82013388D01*
X121903877Y-82158741D01*
X121901474Y-82274441D01*
X121898151Y-82364720D01*
X121893757Y-82433806D01*
X121888144Y-82485929D01*
X121881162Y-82525318D01*
X121872661Y-82556203D01*
X121862492Y-82582815D01*
X121852413Y-82605262D01*
X121744316Y-82779118D01*
X121593233Y-82927346D01*
X121400715Y-83048753D01*
X121168311Y-83142150D01*
X121143701Y-83149676D01*
X121110657Y-83158508D01*
X121104465Y-83159746D01*
X121104465Y-81633615D01*
X121103598Y-81391961D01*
X121102030Y-81104927D01*
X121101529Y-81014899D01*
X121094500Y-79733902D01*
X121023387Y-79659693D01*
X120949533Y-79601764D01*
X120864028Y-79559244D01*
X120855340Y-79556442D01*
X120814057Y-79549859D01*
X120736046Y-79544187D01*
X120619484Y-79539395D01*
X120462549Y-79535454D01*
X120263419Y-79532331D01*
X120020271Y-79529998D01*
X119731283Y-79528423D01*
X119394632Y-79527576D01*
X119122085Y-79527400D01*
X117485763Y-79527400D01*
X117372431Y-79584550D01*
X117328081Y-79606930D01*
X117290739Y-79628483D01*
X117259802Y-79653525D01*
X117234669Y-79686371D01*
X117214738Y-79731337D01*
X117199405Y-79792738D01*
X117188068Y-79874892D01*
X117180125Y-79982113D01*
X117174974Y-80118717D01*
X117172013Y-80289020D01*
X117170638Y-80497339D01*
X117170247Y-80747988D01*
X117170239Y-81033165D01*
X117170339Y-81325421D01*
X117170916Y-81571302D01*
X117172353Y-81775231D01*
X117175034Y-81941635D01*
X117179340Y-82074937D01*
X117185655Y-82179562D01*
X117194363Y-82259934D01*
X117205847Y-82320478D01*
X117220489Y-82365620D01*
X117238674Y-82399782D01*
X117260783Y-82427390D01*
X117287200Y-82452869D01*
X117293678Y-82458672D01*
X117320451Y-82480870D01*
X117349832Y-82499989D01*
X117385585Y-82516244D01*
X117431476Y-82529850D01*
X117491268Y-82541022D01*
X117568724Y-82549975D01*
X117667609Y-82556924D01*
X117791687Y-82562086D01*
X117944722Y-82565675D01*
X118130478Y-82567905D01*
X118352719Y-82568993D01*
X118615208Y-82569154D01*
X118921711Y-82568602D01*
X119202200Y-82567790D01*
X120815100Y-82562700D01*
X120922526Y-82505300D01*
X120962876Y-82483931D01*
X120996941Y-82463663D01*
X121025229Y-82440272D01*
X121048248Y-82409530D01*
X121066505Y-82367214D01*
X121080507Y-82309098D01*
X121090763Y-82230955D01*
X121097779Y-82128561D01*
X121102063Y-81997690D01*
X121104123Y-81834117D01*
X121104465Y-81633615D01*
X121104465Y-83159746D01*
X121072488Y-83166143D01*
X121025372Y-83172684D01*
X120965486Y-83178230D01*
X120889007Y-83182883D01*
X120792112Y-83186745D01*
X120670979Y-83189917D01*
X120521784Y-83192499D01*
X120340705Y-83194592D01*
X120123919Y-83196299D01*
X119867603Y-83197720D01*
X119567934Y-83198957D01*
X119240300Y-83200050D01*
X118942035Y-83200641D01*
X118655378Y-83200567D01*
X118384910Y-83199868D01*
X118135208Y-83198587D01*
X117910852Y-83196765D01*
X117716422Y-83194444D01*
X117556497Y-83191665D01*
X117435656Y-83188470D01*
X117358477Y-83184900D01*
X117336081Y-83182759D01*
X117075149Y-83124914D01*
X116853759Y-83035576D01*
X116672076Y-82914857D01*
X116530267Y-82762867D01*
X116428496Y-82579717D01*
X116426734Y-82575400D01*
X116414453Y-82544236D01*
X116404090Y-82513407D01*
X116395482Y-82478535D01*
X116388465Y-82435241D01*
X116382877Y-82379145D01*
X116378556Y-82305869D01*
X116375339Y-82211034D01*
X116373062Y-82090262D01*
X116371564Y-81939173D01*
X116370681Y-81753389D01*
X116370252Y-81528531D01*
X116370112Y-81260221D01*
X116370100Y-81051400D01*
X116370092Y-80733044D01*
X116370429Y-80461171D01*
X116371649Y-80231462D01*
X116374293Y-80039601D01*
X116378899Y-79881270D01*
X116386007Y-79752151D01*
X116396157Y-79647928D01*
X116409887Y-79564282D01*
X116427738Y-79496896D01*
X116450248Y-79441452D01*
X116477958Y-79393635D01*
X116511405Y-79349125D01*
X116551131Y-79303605D01*
X116594363Y-79256384D01*
X116730705Y-79132518D01*
X116892036Y-79035411D01*
X117087589Y-78960167D01*
X117219900Y-78924714D01*
X117261257Y-78915833D01*
X117306808Y-78908194D01*
X117360490Y-78901704D01*
X117426240Y-78896274D01*
X117507991Y-78891811D01*
X117609680Y-78888225D01*
X117735242Y-78885425D01*
X117888614Y-78883320D01*
X118073730Y-78881818D01*
X118294527Y-78880828D01*
X118554939Y-78880260D01*
X118858903Y-78880022D01*
X119151400Y-78880011D01*
X119497179Y-78880185D01*
X119796037Y-78880632D01*
X120051850Y-78881438D01*
X120268497Y-78882689D01*
X120449856Y-78884471D01*
X120599803Y-78886870D01*
X120722218Y-78889972D01*
X120820977Y-78893862D01*
X120899958Y-78898627D01*
X120963039Y-78904352D01*
X121014099Y-78911124D01*
X121057014Y-78919029D01*
X121073097Y-78922604D01*
X121309433Y-78994127D01*
X121503515Y-79090047D01*
X121658926Y-79212857D01*
X121779248Y-79365055D01*
X121823683Y-79445382D01*
X121907300Y-79615231D01*
X121907300Y-81050865D01*
X121907300Y-81050865D01*
G36*
X128257300Y-81038700D02*
X128257122Y-81338598D01*
X128256325Y-81592475D01*
X128254511Y-81805108D01*
X128251281Y-81981274D01*
X128246240Y-82125751D01*
X128238988Y-82243317D01*
X128229129Y-82338750D01*
X128216265Y-82416827D01*
X128199998Y-82482326D01*
X128179931Y-82540025D01*
X128155666Y-82594700D01*
X128126806Y-82651131D01*
X128122448Y-82659310D01*
X128012130Y-82813903D01*
X127859164Y-82943930D01*
X127662709Y-83049928D01*
X127444500Y-83124698D01*
X127444500Y-81051400D01*
X127444414Y-80778312D01*
X127444028Y-80551282D01*
X127443152Y-80365566D01*
X127441592Y-80216420D01*
X127439158Y-80099101D01*
X127435658Y-80008868D01*
X127430900Y-79940975D01*
X127424692Y-79890680D01*
X127416843Y-79853241D01*
X127407161Y-79823914D01*
X127395454Y-79797956D01*
X127393700Y-79794435D01*
X127310914Y-79683369D01*
X127191021Y-79597383D01*
X127079187Y-79553207D01*
X127034148Y-79547912D01*
X126940472Y-79543158D01*
X126800317Y-79538976D01*
X126615845Y-79535396D01*
X126389214Y-79532448D01*
X126122585Y-79530163D01*
X125818116Y-79528571D01*
X125477969Y-79527703D01*
X125253750Y-79527541D01*
X123520200Y-79527400D01*
X123520200Y-81052534D01*
X123520200Y-82577669D01*
X125279150Y-82570184D01*
X127038100Y-82562700D01*
X127189327Y-82486500D01*
X127287499Y-82429821D01*
X127351594Y-82372125D01*
X127392527Y-82308700D01*
X127404791Y-82283016D01*
X127414959Y-82255106D01*
X127423226Y-82220224D01*
X127429789Y-82173627D01*
X127434845Y-82110570D01*
X127438589Y-82026309D01*
X127441217Y-81916101D01*
X127442926Y-81775200D01*
X127443912Y-81598863D01*
X127444370Y-81382346D01*
X127444497Y-81120905D01*
X127444500Y-81051400D01*
X127444500Y-83124698D01*
X127421920Y-83132436D01*
X127354548Y-83149491D01*
X127317915Y-83157399D01*
X127276513Y-83164371D01*
X127226955Y-83170482D01*
X127165856Y-83175810D01*
X127089830Y-83180428D01*
X126995493Y-83184414D01*
X126879457Y-83187842D01*
X126738338Y-83190789D01*
X126568750Y-83193330D01*
X126367307Y-83195541D01*
X126130623Y-83197498D01*
X125855313Y-83199276D01*
X125537991Y-83200952D01*
X125175271Y-83202601D01*
X124936250Y-83203601D01*
X122707400Y-83212722D01*
X122707400Y-81037605D01*
X122707400Y-78862489D01*
X124910850Y-78874352D01*
X125307234Y-78876599D01*
X125656071Y-78878849D01*
X125960612Y-78881172D01*
X126224108Y-78883637D01*
X126449812Y-78886315D01*
X126640976Y-78889273D01*
X126800851Y-78892581D01*
X126932689Y-78896310D01*
X127039743Y-78900527D01*
X127125264Y-78905303D01*
X127192504Y-78910707D01*
X127244714Y-78916808D01*
X127285148Y-78923676D01*
X127292100Y-78925146D01*
X127543157Y-78994042D01*
X127750168Y-79082638D01*
X127917102Y-79194047D01*
X128047930Y-79331382D01*
X128146619Y-79497755D01*
X128199931Y-79637038D01*
X128213133Y-79680263D01*
X128224137Y-79721804D01*
X128233143Y-79766548D01*
X128240352Y-79819382D01*
X128245962Y-79885191D01*
X128250175Y-79968863D01*
X128253190Y-80075283D01*
X128255207Y-80209339D01*
X128256427Y-80375916D01*
X128257048Y-80579902D01*
X128257272Y-80826183D01*
X128257300Y-81038700D01*
X128257300Y-81038700D01*
X128257300Y-81038700D01*
G37*
X128257300Y-81038700D02*
X128257122Y-81338598D01*
X128256325Y-81592475D01*
X128254511Y-81805108D01*
X128251281Y-81981274D01*
X128246240Y-82125751D01*
X128238988Y-82243317D01*
X128229129Y-82338750D01*
X128216265Y-82416827D01*
X128199998Y-82482326D01*
X128179931Y-82540025D01*
X128155666Y-82594700D01*
X128126806Y-82651131D01*
X128122448Y-82659310D01*
X128012130Y-82813903D01*
X127859164Y-82943930D01*
X127662709Y-83049928D01*
X127444500Y-83124698D01*
X127444500Y-81051400D01*
X127444414Y-80778312D01*
X127444028Y-80551282D01*
X127443152Y-80365566D01*
X127441592Y-80216420D01*
X127439158Y-80099101D01*
X127435658Y-80008868D01*
X127430900Y-79940975D01*
X127424692Y-79890680D01*
X127416843Y-79853241D01*
X127407161Y-79823914D01*
X127395454Y-79797956D01*
X127393700Y-79794435D01*
X127310914Y-79683369D01*
X127191021Y-79597383D01*
X127079187Y-79553207D01*
X127034148Y-79547912D01*
X126940472Y-79543158D01*
X126800317Y-79538976D01*
X126615845Y-79535396D01*
X126389214Y-79532448D01*
X126122585Y-79530163D01*
X125818116Y-79528571D01*
X125477969Y-79527703D01*
X125253750Y-79527541D01*
X123520200Y-79527400D01*
X123520200Y-81052534D01*
X123520200Y-82577669D01*
X125279150Y-82570184D01*
X127038100Y-82562700D01*
X127189327Y-82486500D01*
X127287499Y-82429821D01*
X127351594Y-82372125D01*
X127392527Y-82308700D01*
X127404791Y-82283016D01*
X127414959Y-82255106D01*
X127423226Y-82220224D01*
X127429789Y-82173627D01*
X127434845Y-82110570D01*
X127438589Y-82026309D01*
X127441217Y-81916101D01*
X127442926Y-81775200D01*
X127443912Y-81598863D01*
X127444370Y-81382346D01*
X127444497Y-81120905D01*
X127444500Y-81051400D01*
X127444500Y-83124698D01*
X127421920Y-83132436D01*
X127354548Y-83149491D01*
X127317915Y-83157399D01*
X127276513Y-83164371D01*
X127226955Y-83170482D01*
X127165856Y-83175810D01*
X127089830Y-83180428D01*
X126995493Y-83184414D01*
X126879457Y-83187842D01*
X126738338Y-83190789D01*
X126568750Y-83193330D01*
X126367307Y-83195541D01*
X126130623Y-83197498D01*
X125855313Y-83199276D01*
X125537991Y-83200952D01*
X125175271Y-83202601D01*
X124936250Y-83203601D01*
X122707400Y-83212722D01*
X122707400Y-81037605D01*
X122707400Y-78862489D01*
X124910850Y-78874352D01*
X125307234Y-78876599D01*
X125656071Y-78878849D01*
X125960612Y-78881172D01*
X126224108Y-78883637D01*
X126449812Y-78886315D01*
X126640976Y-78889273D01*
X126800851Y-78892581D01*
X126932689Y-78896310D01*
X127039743Y-78900527D01*
X127125264Y-78905303D01*
X127192504Y-78910707D01*
X127244714Y-78916808D01*
X127285148Y-78923676D01*
X127292100Y-78925146D01*
X127543157Y-78994042D01*
X127750168Y-79082638D01*
X127917102Y-79194047D01*
X128047930Y-79331382D01*
X128146619Y-79497755D01*
X128199931Y-79637038D01*
X128213133Y-79680263D01*
X128224137Y-79721804D01*
X128233143Y-79766548D01*
X128240352Y-79819382D01*
X128245962Y-79885191D01*
X128250175Y-79968863D01*
X128253190Y-80075283D01*
X128255207Y-80209339D01*
X128256427Y-80375916D01*
X128257048Y-80579902D01*
X128257272Y-80826183D01*
X128257300Y-81038700D01*
X128257300Y-81038700D01*
G36*
X127587115Y-68313300D02*
X127576470Y-68803245D01*
X127543955Y-69262441D01*
X127487608Y-69706873D01*
X127405466Y-70152526D01*
X127312815Y-70548500D01*
X127125495Y-71182816D01*
X126892664Y-71797178D01*
X126616335Y-72389576D01*
X126298523Y-72957996D01*
X126254597Y-73024685D01*
X126254597Y-68567300D01*
X126251562Y-67949420D01*
X126199595Y-67340628D01*
X126100119Y-66743292D01*
X125954554Y-66159779D01*
X125764324Y-65592458D01*
X125530850Y-65043697D01*
X125255555Y-64515864D01*
X124939859Y-64011326D01*
X124585186Y-63532453D01*
X124192957Y-63081612D01*
X123764593Y-62661170D01*
X123301518Y-62273497D01*
X122805153Y-61920960D01*
X122276920Y-61605928D01*
X121983500Y-61454476D01*
X121483710Y-61228621D01*
X120990653Y-61045255D01*
X120491925Y-60900759D01*
X119975124Y-60791514D01*
X119456200Y-60717096D01*
X119226045Y-60697626D01*
X118959802Y-60686406D01*
X118671093Y-60683171D01*
X118373543Y-60687657D01*
X118080774Y-60699597D01*
X117806411Y-60718726D01*
X117564078Y-60744779D01*
X117490067Y-60755374D01*
X116900538Y-60870001D01*
X116326762Y-61029805D01*
X115762704Y-61236705D01*
X115252500Y-61467665D01*
X114710600Y-61762687D01*
X114199554Y-62096582D01*
X113720812Y-62466928D01*
X113275826Y-62871306D01*
X112866046Y-63307294D01*
X112492922Y-63772471D01*
X112157904Y-64264416D01*
X111862444Y-64780708D01*
X111607993Y-65318927D01*
X111395999Y-65876652D01*
X111227915Y-66451461D01*
X111105191Y-67040934D01*
X111029277Y-67642650D01*
X111001624Y-68254188D01*
X111006059Y-68554600D01*
X111049635Y-69170335D01*
X111137853Y-69764387D01*
X111271862Y-70341322D01*
X111452812Y-70905707D01*
X111681852Y-71462106D01*
X111800247Y-71709758D01*
X112055457Y-72183429D01*
X112333337Y-72623000D01*
X112641037Y-73038186D01*
X112985709Y-73438701D01*
X113338643Y-73799700D01*
X113804972Y-74216824D01*
X114298066Y-74591096D01*
X114816700Y-74921802D01*
X115359650Y-75208227D01*
X115925691Y-75449658D01*
X116492853Y-75639365D01*
X116736174Y-75706773D01*
X116969704Y-75763423D01*
X117205167Y-75811446D01*
X117454286Y-75852971D01*
X117728784Y-75890128D01*
X118040385Y-75925046D01*
X118097300Y-75930854D01*
X118188755Y-75936025D01*
X118320928Y-75938085D01*
X118483853Y-75937347D01*
X118667565Y-75934127D01*
X118862096Y-75928739D01*
X119057481Y-75921497D01*
X119243753Y-75912716D01*
X119410948Y-75902711D01*
X119549097Y-75891796D01*
X119634000Y-75882348D01*
X120255520Y-75772077D01*
X120857805Y-75614911D01*
X121439739Y-75411413D01*
X122000209Y-75162145D01*
X122538100Y-74867671D01*
X123052298Y-74528554D01*
X123541688Y-74145356D01*
X124005156Y-73718640D01*
X124092595Y-73630225D01*
X124430504Y-73264192D01*
X124728338Y-72898874D01*
X124995080Y-72521806D01*
X125239715Y-72120520D01*
X125413662Y-71796995D01*
X125670036Y-71249804D01*
X125877932Y-70703913D01*
X126039061Y-70152756D01*
X126155132Y-69589767D01*
X126227855Y-69008379D01*
X126254597Y-68567300D01*
X126254597Y-73024685D01*
X125941242Y-73500425D01*
X125546506Y-74014853D01*
X125116330Y-74499266D01*
X124652728Y-74951652D01*
X124157714Y-75369999D01*
X123633304Y-75752295D01*
X123081511Y-76096527D01*
X122504349Y-76400683D01*
X121903834Y-76662751D01*
X121281979Y-76880719D01*
X120853200Y-77001389D01*
X120270797Y-77127449D01*
X119666930Y-77216457D01*
X119055630Y-77267060D01*
X118450926Y-77277908D01*
X118109705Y-77265507D01*
X117587445Y-77218431D01*
X117051530Y-77138055D01*
X116521934Y-77027925D01*
X116039900Y-76898074D01*
X115407179Y-76680162D01*
X114797700Y-76418252D01*
X114213260Y-76114318D01*
X113655657Y-75770333D01*
X113126687Y-75388272D01*
X112628147Y-74970108D01*
X112161835Y-74517814D01*
X111729547Y-74033365D01*
X111333081Y-73518735D01*
X110974233Y-72975896D01*
X110654801Y-72406823D01*
X110376582Y-71813489D01*
X110141373Y-71197868D01*
X109950970Y-70561935D01*
X109842372Y-70091300D01*
X109738125Y-69451312D01*
X109681170Y-68797922D01*
X109671450Y-68136140D01*
X109708911Y-67470976D01*
X109793497Y-66807438D01*
X109883853Y-66332100D01*
X109934030Y-66124415D01*
X110000259Y-65885214D01*
X110077801Y-65629332D01*
X110161919Y-65371602D01*
X110247873Y-65126860D01*
X110330923Y-64909939D01*
X110362602Y-64833500D01*
X110650164Y-64221330D01*
X110977091Y-63639464D01*
X111341273Y-63089090D01*
X111740596Y-62571395D01*
X112172950Y-62087566D01*
X112636221Y-61638791D01*
X113128299Y-61226256D01*
X113647070Y-60851150D01*
X114190424Y-60514660D01*
X114756247Y-60217973D01*
X115342429Y-59962276D01*
X115946856Y-59748758D01*
X116567417Y-59578604D01*
X117202001Y-59453004D01*
X117848494Y-59373143D01*
X118504785Y-59340210D01*
X119168761Y-59355391D01*
X119838312Y-59419875D01*
X119961246Y-59437101D01*
X120611839Y-59557810D01*
X121245477Y-59725172D01*
X121860260Y-59937324D01*
X122454292Y-60192402D01*
X123025674Y-60488542D01*
X123572508Y-60823880D01*
X124092896Y-61196553D01*
X124584940Y-61604697D01*
X125046742Y-62046449D01*
X125476404Y-62519944D01*
X125872028Y-63023319D01*
X126231716Y-63554710D01*
X126553570Y-64112254D01*
X126835691Y-64694087D01*
X127076182Y-65298344D01*
X127273145Y-65923163D01*
X127424682Y-66566680D01*
X127468818Y-66808913D01*
X127511520Y-67081638D01*
X127543371Y-67332212D01*
X127565596Y-67576212D01*
X127579420Y-67829212D01*
X127586066Y-68106788D01*
X127587115Y-68313300D01*
X127587115Y-68313300D01*
X127587115Y-68313300D01*
G37*
X127587115Y-68313300D02*
X127576470Y-68803245D01*
X127543955Y-69262441D01*
X127487608Y-69706873D01*
X127405466Y-70152526D01*
X127312815Y-70548500D01*
X127125495Y-71182816D01*
X126892664Y-71797178D01*
X126616335Y-72389576D01*
X126298523Y-72957996D01*
X126254597Y-73024685D01*
X126254597Y-68567300D01*
X126251562Y-67949420D01*
X126199595Y-67340628D01*
X126100119Y-66743292D01*
X125954554Y-66159779D01*
X125764324Y-65592458D01*
X125530850Y-65043697D01*
X125255555Y-64515864D01*
X124939859Y-64011326D01*
X124585186Y-63532453D01*
X124192957Y-63081612D01*
X123764593Y-62661170D01*
X123301518Y-62273497D01*
X122805153Y-61920960D01*
X122276920Y-61605928D01*
X121983500Y-61454476D01*
X121483710Y-61228621D01*
X120990653Y-61045255D01*
X120491925Y-60900759D01*
X119975124Y-60791514D01*
X119456200Y-60717096D01*
X119226045Y-60697626D01*
X118959802Y-60686406D01*
X118671093Y-60683171D01*
X118373543Y-60687657D01*
X118080774Y-60699597D01*
X117806411Y-60718726D01*
X117564078Y-60744779D01*
X117490067Y-60755374D01*
X116900538Y-60870001D01*
X116326762Y-61029805D01*
X115762704Y-61236705D01*
X115252500Y-61467665D01*
X114710600Y-61762687D01*
X114199554Y-62096582D01*
X113720812Y-62466928D01*
X113275826Y-62871306D01*
X112866046Y-63307294D01*
X112492922Y-63772471D01*
X112157904Y-64264416D01*
X111862444Y-64780708D01*
X111607993Y-65318927D01*
X111395999Y-65876652D01*
X111227915Y-66451461D01*
X111105191Y-67040934D01*
X111029277Y-67642650D01*
X111001624Y-68254188D01*
X111006059Y-68554600D01*
X111049635Y-69170335D01*
X111137853Y-69764387D01*
X111271862Y-70341322D01*
X111452812Y-70905707D01*
X111681852Y-71462106D01*
X111800247Y-71709758D01*
X112055457Y-72183429D01*
X112333337Y-72623000D01*
X112641037Y-73038186D01*
X112985709Y-73438701D01*
X113338643Y-73799700D01*
X113804972Y-74216824D01*
X114298066Y-74591096D01*
X114816700Y-74921802D01*
X115359650Y-75208227D01*
X115925691Y-75449658D01*
X116492853Y-75639365D01*
X116736174Y-75706773D01*
X116969704Y-75763423D01*
X117205167Y-75811446D01*
X117454286Y-75852971D01*
X117728784Y-75890128D01*
X118040385Y-75925046D01*
X118097300Y-75930854D01*
X118188755Y-75936025D01*
X118320928Y-75938085D01*
X118483853Y-75937347D01*
X118667565Y-75934127D01*
X118862096Y-75928739D01*
X119057481Y-75921497D01*
X119243753Y-75912716D01*
X119410948Y-75902711D01*
X119549097Y-75891796D01*
X119634000Y-75882348D01*
X120255520Y-75772077D01*
X120857805Y-75614911D01*
X121439739Y-75411413D01*
X122000209Y-75162145D01*
X122538100Y-74867671D01*
X123052298Y-74528554D01*
X123541688Y-74145356D01*
X124005156Y-73718640D01*
X124092595Y-73630225D01*
X124430504Y-73264192D01*
X124728338Y-72898874D01*
X124995080Y-72521806D01*
X125239715Y-72120520D01*
X125413662Y-71796995D01*
X125670036Y-71249804D01*
X125877932Y-70703913D01*
X126039061Y-70152756D01*
X126155132Y-69589767D01*
X126227855Y-69008379D01*
X126254597Y-68567300D01*
X126254597Y-73024685D01*
X125941242Y-73500425D01*
X125546506Y-74014853D01*
X125116330Y-74499266D01*
X124652728Y-74951652D01*
X124157714Y-75369999D01*
X123633304Y-75752295D01*
X123081511Y-76096527D01*
X122504349Y-76400683D01*
X121903834Y-76662751D01*
X121281979Y-76880719D01*
X120853200Y-77001389D01*
X120270797Y-77127449D01*
X119666930Y-77216457D01*
X119055630Y-77267060D01*
X118450926Y-77277908D01*
X118109705Y-77265507D01*
X117587445Y-77218431D01*
X117051530Y-77138055D01*
X116521934Y-77027925D01*
X116039900Y-76898074D01*
X115407179Y-76680162D01*
X114797700Y-76418252D01*
X114213260Y-76114318D01*
X113655657Y-75770333D01*
X113126687Y-75388272D01*
X112628147Y-74970108D01*
X112161835Y-74517814D01*
X111729547Y-74033365D01*
X111333081Y-73518735D01*
X110974233Y-72975896D01*
X110654801Y-72406823D01*
X110376582Y-71813489D01*
X110141373Y-71197868D01*
X109950970Y-70561935D01*
X109842372Y-70091300D01*
X109738125Y-69451312D01*
X109681170Y-68797922D01*
X109671450Y-68136140D01*
X109708911Y-67470976D01*
X109793497Y-66807438D01*
X109883853Y-66332100D01*
X109934030Y-66124415D01*
X110000259Y-65885214D01*
X110077801Y-65629332D01*
X110161919Y-65371602D01*
X110247873Y-65126860D01*
X110330923Y-64909939D01*
X110362602Y-64833500D01*
X110650164Y-64221330D01*
X110977091Y-63639464D01*
X111341273Y-63089090D01*
X111740596Y-62571395D01*
X112172950Y-62087566D01*
X112636221Y-61638791D01*
X113128299Y-61226256D01*
X113647070Y-60851150D01*
X114190424Y-60514660D01*
X114756247Y-60217973D01*
X115342429Y-59962276D01*
X115946856Y-59748758D01*
X116567417Y-59578604D01*
X117202001Y-59453004D01*
X117848494Y-59373143D01*
X118504785Y-59340210D01*
X119168761Y-59355391D01*
X119838312Y-59419875D01*
X119961246Y-59437101D01*
X120611839Y-59557810D01*
X121245477Y-59725172D01*
X121860260Y-59937324D01*
X122454292Y-60192402D01*
X123025674Y-60488542D01*
X123572508Y-60823880D01*
X124092896Y-61196553D01*
X124584940Y-61604697D01*
X125046742Y-62046449D01*
X125476404Y-62519944D01*
X125872028Y-63023319D01*
X126231716Y-63554710D01*
X126553570Y-64112254D01*
X126835691Y-64694087D01*
X127076182Y-65298344D01*
X127273145Y-65923163D01*
X127424682Y-66566680D01*
X127468818Y-66808913D01*
X127511520Y-67081638D01*
X127543371Y-67332212D01*
X127565596Y-67576212D01*
X127579420Y-67829212D01*
X127586066Y-68106788D01*
X127587115Y-68313300D01*
X127587115Y-68313300D01*
G36*
X122577280Y-69970181D02*
X122577036Y-70257115D01*
X122575949Y-70587636D01*
X122574453Y-70922665D01*
X122572727Y-71269514D01*
X122571010Y-71569329D01*
X122569197Y-71825875D01*
X122567180Y-72042918D01*
X122564853Y-72224225D01*
X122562109Y-72373560D01*
X122558841Y-72494690D01*
X122554943Y-72591380D01*
X122550309Y-72667396D01*
X122544831Y-72726503D01*
X122538403Y-72772468D01*
X122530919Y-72809056D01*
X122522271Y-72840032D01*
X122519962Y-72847200D01*
X122418544Y-73087575D01*
X122282804Y-73294049D01*
X122110668Y-73468451D01*
X121900064Y-73612615D01*
X121648920Y-73728372D01*
X121450100Y-73792866D01*
X121408647Y-73804418D01*
X121408647Y-70097780D01*
X121407984Y-69794358D01*
X121406302Y-69540633D01*
X121403598Y-69336239D01*
X121399867Y-69180811D01*
X121395106Y-69073986D01*
X121389311Y-69015398D01*
X121387699Y-69008239D01*
X121350486Y-68932485D01*
X121288191Y-68852467D01*
X121260466Y-68825104D01*
X121229752Y-68797086D01*
X121201271Y-68772319D01*
X121171863Y-68750613D01*
X121138369Y-68731776D01*
X121097631Y-68715617D01*
X121046489Y-68701946D01*
X120981785Y-68690570D01*
X120900360Y-68681299D01*
X120799054Y-68673942D01*
X120674709Y-68668307D01*
X120524165Y-68664203D01*
X120344264Y-68661440D01*
X120131847Y-68659826D01*
X119883754Y-68659170D01*
X119596827Y-68659281D01*
X119267907Y-68659967D01*
X118893835Y-68661038D01*
X118565253Y-68662027D01*
X116243100Y-68668900D01*
X116103738Y-68745100D01*
X115996874Y-68816150D01*
X115922852Y-68899102D01*
X115900538Y-68935600D01*
X115836700Y-69049900D01*
X115829475Y-70724409D01*
X115828183Y-71113822D01*
X115827896Y-71453670D01*
X115828628Y-71745180D01*
X115830392Y-71989576D01*
X115833203Y-72188085D01*
X115837075Y-72341932D01*
X115842022Y-72452344D01*
X115848059Y-72520545D01*
X115850378Y-72534413D01*
X115898669Y-72676162D01*
X115980436Y-72786550D01*
X116099835Y-72869263D01*
X116261019Y-72927984D01*
X116306600Y-72938965D01*
X116356076Y-72944276D01*
X116451709Y-72949181D01*
X116588859Y-72953671D01*
X116762884Y-72957737D01*
X116969144Y-72961368D01*
X117202997Y-72964556D01*
X117459803Y-72967291D01*
X117734920Y-72969562D01*
X118023708Y-72971362D01*
X118321525Y-72972680D01*
X118623731Y-72973506D01*
X118925684Y-72973832D01*
X119222744Y-72973647D01*
X119510269Y-72972942D01*
X119783619Y-72971707D01*
X120038152Y-72969933D01*
X120269227Y-72967611D01*
X120472204Y-72964731D01*
X120642442Y-72961283D01*
X120775299Y-72957257D01*
X120866135Y-72952645D01*
X120905995Y-72948421D01*
X121089727Y-72896128D01*
X121231987Y-72817119D01*
X121331125Y-72712643D01*
X121399300Y-72609640D01*
X121406932Y-70855170D01*
X121408296Y-70451262D01*
X121408647Y-70097780D01*
X121408647Y-73804418D01*
X121246900Y-73849494D01*
X118719600Y-73853713D01*
X118362148Y-73854084D01*
X118016722Y-73854004D01*
X117687011Y-73853497D01*
X117376702Y-73852589D01*
X117089485Y-73851306D01*
X116829047Y-73849671D01*
X116599079Y-73847711D01*
X116403267Y-73845449D01*
X116245300Y-73842913D01*
X116128868Y-73840125D01*
X116057659Y-73837113D01*
X116039900Y-73835491D01*
X115758252Y-73775598D01*
X115501515Y-73683999D01*
X115274405Y-73563590D01*
X115081642Y-73417265D01*
X114927944Y-73247917D01*
X114835835Y-73096897D01*
X114807541Y-73038391D01*
X114782945Y-72983417D01*
X114761787Y-72928116D01*
X114743809Y-72868632D01*
X114728752Y-72801105D01*
X114716356Y-72721678D01*
X114706365Y-72626494D01*
X114698517Y-72511695D01*
X114692555Y-72373422D01*
X114688219Y-72207818D01*
X114685252Y-72011026D01*
X114683393Y-71779187D01*
X114682384Y-71508444D01*
X114681967Y-71194938D01*
X114681882Y-70834813D01*
X114681882Y-70802500D01*
X114682038Y-70446003D01*
X114682553Y-70136651D01*
X114683497Y-69870789D01*
X114684940Y-69644762D01*
X114686953Y-69454915D01*
X114689606Y-69297594D01*
X114692969Y-69169143D01*
X114697112Y-69065909D01*
X114702105Y-68984236D01*
X114708019Y-68920470D01*
X114714924Y-68870956D01*
X114719450Y-68847143D01*
X114794133Y-68605265D01*
X114909646Y-68392762D01*
X115066271Y-68209383D01*
X115264294Y-68054881D01*
X115503997Y-67929008D01*
X115785666Y-67831514D01*
X115917980Y-67798650D01*
X115953897Y-67791356D01*
X115994352Y-67784905D01*
X116042505Y-67779247D01*
X116101517Y-67774330D01*
X116174548Y-67770103D01*
X116264757Y-67766514D01*
X116375307Y-67763514D01*
X116509357Y-67761050D01*
X116670068Y-67759071D01*
X116860600Y-67757526D01*
X117084113Y-67756364D01*
X117343768Y-67755534D01*
X117642726Y-67754984D01*
X117984146Y-67754663D01*
X118371190Y-67754521D01*
X118643400Y-67754500D01*
X121170700Y-67754500D01*
X121408073Y-67814335D01*
X121685647Y-67903251D01*
X121928811Y-68020455D01*
X122134506Y-68163777D01*
X122299671Y-68331044D01*
X122421245Y-68520084D01*
X122430798Y-68539911D01*
X122458593Y-68600982D01*
X122482788Y-68659920D01*
X122503613Y-68720535D01*
X122521298Y-68786637D01*
X122536072Y-68862036D01*
X122548164Y-68950541D01*
X122557806Y-69055964D01*
X122565225Y-69182114D01*
X122570653Y-69332801D01*
X122574318Y-69511834D01*
X122576450Y-69723024D01*
X122577280Y-69970181D01*
X122577280Y-69970181D01*
X122577280Y-69970181D01*
G37*
X122577280Y-69970181D02*
X122577036Y-70257115D01*
X122575949Y-70587636D01*
X122574453Y-70922665D01*
X122572727Y-71269514D01*
X122571010Y-71569329D01*
X122569197Y-71825875D01*
X122567180Y-72042918D01*
X122564853Y-72224225D01*
X122562109Y-72373560D01*
X122558841Y-72494690D01*
X122554943Y-72591380D01*
X122550309Y-72667396D01*
X122544831Y-72726503D01*
X122538403Y-72772468D01*
X122530919Y-72809056D01*
X122522271Y-72840032D01*
X122519962Y-72847200D01*
X122418544Y-73087575D01*
X122282804Y-73294049D01*
X122110668Y-73468451D01*
X121900064Y-73612615D01*
X121648920Y-73728372D01*
X121450100Y-73792866D01*
X121408647Y-73804418D01*
X121408647Y-70097780D01*
X121407984Y-69794358D01*
X121406302Y-69540633D01*
X121403598Y-69336239D01*
X121399867Y-69180811D01*
X121395106Y-69073986D01*
X121389311Y-69015398D01*
X121387699Y-69008239D01*
X121350486Y-68932485D01*
X121288191Y-68852467D01*
X121260466Y-68825104D01*
X121229752Y-68797086D01*
X121201271Y-68772319D01*
X121171863Y-68750613D01*
X121138369Y-68731776D01*
X121097631Y-68715617D01*
X121046489Y-68701946D01*
X120981785Y-68690570D01*
X120900360Y-68681299D01*
X120799054Y-68673942D01*
X120674709Y-68668307D01*
X120524165Y-68664203D01*
X120344264Y-68661440D01*
X120131847Y-68659826D01*
X119883754Y-68659170D01*
X119596827Y-68659281D01*
X119267907Y-68659967D01*
X118893835Y-68661038D01*
X118565253Y-68662027D01*
X116243100Y-68668900D01*
X116103738Y-68745100D01*
X115996874Y-68816150D01*
X115922852Y-68899102D01*
X115900538Y-68935600D01*
X115836700Y-69049900D01*
X115829475Y-70724409D01*
X115828183Y-71113822D01*
X115827896Y-71453670D01*
X115828628Y-71745180D01*
X115830392Y-71989576D01*
X115833203Y-72188085D01*
X115837075Y-72341932D01*
X115842022Y-72452344D01*
X115848059Y-72520545D01*
X115850378Y-72534413D01*
X115898669Y-72676162D01*
X115980436Y-72786550D01*
X116099835Y-72869263D01*
X116261019Y-72927984D01*
X116306600Y-72938965D01*
X116356076Y-72944276D01*
X116451709Y-72949181D01*
X116588859Y-72953671D01*
X116762884Y-72957737D01*
X116969144Y-72961368D01*
X117202997Y-72964556D01*
X117459803Y-72967291D01*
X117734920Y-72969562D01*
X118023708Y-72971362D01*
X118321525Y-72972680D01*
X118623731Y-72973506D01*
X118925684Y-72973832D01*
X119222744Y-72973647D01*
X119510269Y-72972942D01*
X119783619Y-72971707D01*
X120038152Y-72969933D01*
X120269227Y-72967611D01*
X120472204Y-72964731D01*
X120642442Y-72961283D01*
X120775299Y-72957257D01*
X120866135Y-72952645D01*
X120905995Y-72948421D01*
X121089727Y-72896128D01*
X121231987Y-72817119D01*
X121331125Y-72712643D01*
X121399300Y-72609640D01*
X121406932Y-70855170D01*
X121408296Y-70451262D01*
X121408647Y-70097780D01*
X121408647Y-73804418D01*
X121246900Y-73849494D01*
X118719600Y-73853713D01*
X118362148Y-73854084D01*
X118016722Y-73854004D01*
X117687011Y-73853497D01*
X117376702Y-73852589D01*
X117089485Y-73851306D01*
X116829047Y-73849671D01*
X116599079Y-73847711D01*
X116403267Y-73845449D01*
X116245300Y-73842913D01*
X116128868Y-73840125D01*
X116057659Y-73837113D01*
X116039900Y-73835491D01*
X115758252Y-73775598D01*
X115501515Y-73683999D01*
X115274405Y-73563590D01*
X115081642Y-73417265D01*
X114927944Y-73247917D01*
X114835835Y-73096897D01*
X114807541Y-73038391D01*
X114782945Y-72983417D01*
X114761787Y-72928116D01*
X114743809Y-72868632D01*
X114728752Y-72801105D01*
X114716356Y-72721678D01*
X114706365Y-72626494D01*
X114698517Y-72511695D01*
X114692555Y-72373422D01*
X114688219Y-72207818D01*
X114685252Y-72011026D01*
X114683393Y-71779187D01*
X114682384Y-71508444D01*
X114681967Y-71194938D01*
X114681882Y-70834813D01*
X114681882Y-70802500D01*
X114682038Y-70446003D01*
X114682553Y-70136651D01*
X114683497Y-69870789D01*
X114684940Y-69644762D01*
X114686953Y-69454915D01*
X114689606Y-69297594D01*
X114692969Y-69169143D01*
X114697112Y-69065909D01*
X114702105Y-68984236D01*
X114708019Y-68920470D01*
X114714924Y-68870956D01*
X114719450Y-68847143D01*
X114794133Y-68605265D01*
X114909646Y-68392762D01*
X115066271Y-68209383D01*
X115264294Y-68054881D01*
X115503997Y-67929008D01*
X115785666Y-67831514D01*
X115917980Y-67798650D01*
X115953897Y-67791356D01*
X115994352Y-67784905D01*
X116042505Y-67779247D01*
X116101517Y-67774330D01*
X116174548Y-67770103D01*
X116264757Y-67766514D01*
X116375307Y-67763514D01*
X116509357Y-67761050D01*
X116670068Y-67759071D01*
X116860600Y-67757526D01*
X117084113Y-67756364D01*
X117343768Y-67755534D01*
X117642726Y-67754984D01*
X117984146Y-67754663D01*
X118371190Y-67754521D01*
X118643400Y-67754500D01*
X121170700Y-67754500D01*
X121408073Y-67814335D01*
X121685647Y-67903251D01*
X121928811Y-68020455D01*
X122134506Y-68163777D01*
X122299671Y-68331044D01*
X122421245Y-68520084D01*
X122430798Y-68539911D01*
X122458593Y-68600982D01*
X122482788Y-68659920D01*
X122503613Y-68720535D01*
X122521298Y-68786637D01*
X122536072Y-68862036D01*
X122548164Y-68950541D01*
X122557806Y-69055964D01*
X122565225Y-69182114D01*
X122570653Y-69332801D01*
X122574318Y-69511834D01*
X122576450Y-69723024D01*
X122577280Y-69970181D01*
X122577280Y-69970181D01*
G36*
X121712988Y-64486088D02*
X121711706Y-64840899D01*
X121711109Y-64947800D01*
X121709206Y-65264882D01*
X121707267Y-65535543D01*
X121704836Y-65764160D01*
X121701459Y-65955111D01*
X121696680Y-66112771D01*
X121690045Y-66241519D01*
X121681096Y-66345731D01*
X121669381Y-66429784D01*
X121654442Y-66498057D01*
X121635825Y-66554925D01*
X121613074Y-66604765D01*
X121585735Y-66651956D01*
X121553352Y-66700874D01*
X121524391Y-66742910D01*
X121391572Y-66892017D01*
X121216202Y-67017413D01*
X121132505Y-67056373D01*
X121132505Y-65020161D01*
X121113854Y-64942129D01*
X121067337Y-64857548D01*
X121006780Y-64788885D01*
X120977732Y-64768679D01*
X120890999Y-64744192D01*
X120786509Y-64743909D01*
X120690504Y-64766645D01*
X120658506Y-64783112D01*
X120583396Y-64860474D01*
X120541716Y-64963367D01*
X120539504Y-65074537D01*
X120546374Y-65103457D01*
X120601424Y-65211409D01*
X120685785Y-65286287D01*
X120788838Y-65323657D01*
X120899967Y-65319084D01*
X120982220Y-65285466D01*
X121056359Y-65217134D01*
X121110836Y-65121644D01*
X121132497Y-65022219D01*
X121132505Y-65020161D01*
X121132505Y-67056373D01*
X121001540Y-67117337D01*
X120750846Y-67190030D01*
X120664385Y-67207105D01*
X120605560Y-67212720D01*
X120497163Y-67217645D01*
X120340415Y-67221863D01*
X120136538Y-67225361D01*
X119886756Y-67228125D01*
X119592290Y-67230138D01*
X119254363Y-67231388D01*
X118874198Y-67231858D01*
X118594285Y-67231729D01*
X118221371Y-67231173D01*
X117895827Y-67230323D01*
X117614221Y-67229114D01*
X117373122Y-67227484D01*
X117169101Y-67225369D01*
X116998727Y-67222705D01*
X116858568Y-67219429D01*
X116745196Y-67215477D01*
X116655178Y-67210787D01*
X116585085Y-67205295D01*
X116531485Y-67198937D01*
X116497100Y-67192964D01*
X116263975Y-67125672D01*
X116055167Y-67027051D01*
X115876972Y-66901427D01*
X115735689Y-66753124D01*
X115648211Y-66610105D01*
X115626675Y-66562254D01*
X115608294Y-66514547D01*
X115592842Y-66462761D01*
X115580094Y-66402674D01*
X115569824Y-66330064D01*
X115561808Y-66240708D01*
X115555820Y-66130383D01*
X115551634Y-65994869D01*
X115549025Y-65829942D01*
X115547769Y-65631379D01*
X115547640Y-65394960D01*
X115548412Y-65116460D01*
X115549860Y-64791658D01*
X115549972Y-64768907D01*
X115551539Y-64457176D01*
X115553032Y-64192036D01*
X115554618Y-63969278D01*
X115556469Y-63784692D01*
X115558751Y-63634071D01*
X115561635Y-63513205D01*
X115565289Y-63417886D01*
X115569881Y-63343905D01*
X115575581Y-63287052D01*
X115582558Y-63243120D01*
X115590980Y-63207900D01*
X115601016Y-63177182D01*
X115612836Y-63146757D01*
X115615297Y-63140663D01*
X115717377Y-62954915D01*
X115861852Y-62795323D01*
X116046491Y-62663766D01*
X116269066Y-62562125D01*
X116323315Y-62543834D01*
X116461357Y-62509442D01*
X116638332Y-62479959D01*
X116842502Y-62456686D01*
X117062128Y-62440923D01*
X117285472Y-62433971D01*
X117316250Y-62433776D01*
X117500400Y-62433200D01*
X117500400Y-63157100D01*
X117499917Y-63377670D01*
X117498341Y-63551850D01*
X117495479Y-63684043D01*
X117491137Y-63778652D01*
X117485123Y-63840078D01*
X117477243Y-63872724D01*
X117468650Y-63881141D01*
X117351014Y-63903768D01*
X117228813Y-63964229D01*
X117115544Y-64052879D01*
X117024707Y-64160072D01*
X116988987Y-64223900D01*
X116975200Y-64258699D01*
X116964422Y-64299648D01*
X116956293Y-64353100D01*
X116950451Y-64425408D01*
X116946534Y-64522926D01*
X116944180Y-64652008D01*
X116943028Y-64819007D01*
X116942715Y-65030278D01*
X116942715Y-65036700D01*
X116943010Y-65249263D01*
X116944134Y-65417382D01*
X116946451Y-65547410D01*
X116950320Y-65645703D01*
X116956106Y-65718612D01*
X116964168Y-65772492D01*
X116974868Y-65813697D01*
X116988570Y-65848580D01*
X116988987Y-65849500D01*
X117055031Y-65953575D01*
X117149074Y-66051248D01*
X117254925Y-66127950D01*
X117339852Y-66165168D01*
X117404759Y-66175402D01*
X117509292Y-66183120D01*
X117642337Y-66188320D01*
X117792782Y-66191003D01*
X117949514Y-66191169D01*
X118101421Y-66188817D01*
X118237390Y-66183948D01*
X118346310Y-66176562D01*
X118417066Y-66166658D01*
X118422947Y-66165168D01*
X118526329Y-66116813D01*
X118631295Y-66035440D01*
X118721652Y-65935617D01*
X118773812Y-65849500D01*
X118787599Y-65814700D01*
X118798377Y-65773751D01*
X118806506Y-65720299D01*
X118812348Y-65647991D01*
X118816265Y-65550473D01*
X118818619Y-65421391D01*
X118819771Y-65254392D01*
X118820084Y-65043121D01*
X118820084Y-65036700D01*
X118819789Y-64824136D01*
X118818665Y-64656017D01*
X118816348Y-64525989D01*
X118812479Y-64427696D01*
X118806693Y-64354787D01*
X118798631Y-64300907D01*
X118787931Y-64259702D01*
X118774229Y-64224819D01*
X118773812Y-64223900D01*
X118701210Y-64110586D01*
X118598699Y-64010472D01*
X118479779Y-63933204D01*
X118357947Y-63888427D01*
X118294150Y-63881141D01*
X118284495Y-63870110D01*
X118276866Y-63834181D01*
X118271072Y-63768961D01*
X118266921Y-63670055D01*
X118264221Y-63533068D01*
X118262779Y-63353607D01*
X118262400Y-63153974D01*
X118262400Y-62426949D01*
X119424450Y-62440466D01*
X119723371Y-62444185D01*
X119976636Y-62448183D01*
X120189386Y-62453008D01*
X120366762Y-62459208D01*
X120513908Y-62467333D01*
X120635965Y-62477930D01*
X120738075Y-62491548D01*
X120825381Y-62508734D01*
X120903025Y-62530039D01*
X120976148Y-62556010D01*
X121049893Y-62587195D01*
X121124409Y-62621769D01*
X121321806Y-62738995D01*
X121477228Y-62884202D01*
X121592353Y-63059614D01*
X121668857Y-63267453D01*
X121691277Y-63373000D01*
X121698447Y-63441685D01*
X121704182Y-63556009D01*
X121708494Y-63716792D01*
X121711392Y-63924854D01*
X121712886Y-64181013D01*
X121712988Y-64486088D01*
X121712988Y-64486088D01*
X121712988Y-64486088D01*
G37*
X121712988Y-64486088D02*
X121711706Y-64840899D01*
X121711109Y-64947800D01*
X121709206Y-65264882D01*
X121707267Y-65535543D01*
X121704836Y-65764160D01*
X121701459Y-65955111D01*
X121696680Y-66112771D01*
X121690045Y-66241519D01*
X121681096Y-66345731D01*
X121669381Y-66429784D01*
X121654442Y-66498057D01*
X121635825Y-66554925D01*
X121613074Y-66604765D01*
X121585735Y-66651956D01*
X121553352Y-66700874D01*
X121524391Y-66742910D01*
X121391572Y-66892017D01*
X121216202Y-67017413D01*
X121132505Y-67056373D01*
X121132505Y-65020161D01*
X121113854Y-64942129D01*
X121067337Y-64857548D01*
X121006780Y-64788885D01*
X120977732Y-64768679D01*
X120890999Y-64744192D01*
X120786509Y-64743909D01*
X120690504Y-64766645D01*
X120658506Y-64783112D01*
X120583396Y-64860474D01*
X120541716Y-64963367D01*
X120539504Y-65074537D01*
X120546374Y-65103457D01*
X120601424Y-65211409D01*
X120685785Y-65286287D01*
X120788838Y-65323657D01*
X120899967Y-65319084D01*
X120982220Y-65285466D01*
X121056359Y-65217134D01*
X121110836Y-65121644D01*
X121132497Y-65022219D01*
X121132505Y-65020161D01*
X121132505Y-67056373D01*
X121001540Y-67117337D01*
X120750846Y-67190030D01*
X120664385Y-67207105D01*
X120605560Y-67212720D01*
X120497163Y-67217645D01*
X120340415Y-67221863D01*
X120136538Y-67225361D01*
X119886756Y-67228125D01*
X119592290Y-67230138D01*
X119254363Y-67231388D01*
X118874198Y-67231858D01*
X118594285Y-67231729D01*
X118221371Y-67231173D01*
X117895827Y-67230323D01*
X117614221Y-67229114D01*
X117373122Y-67227484D01*
X117169101Y-67225369D01*
X116998727Y-67222705D01*
X116858568Y-67219429D01*
X116745196Y-67215477D01*
X116655178Y-67210787D01*
X116585085Y-67205295D01*
X116531485Y-67198937D01*
X116497100Y-67192964D01*
X116263975Y-67125672D01*
X116055167Y-67027051D01*
X115876972Y-66901427D01*
X115735689Y-66753124D01*
X115648211Y-66610105D01*
X115626675Y-66562254D01*
X115608294Y-66514547D01*
X115592842Y-66462761D01*
X115580094Y-66402674D01*
X115569824Y-66330064D01*
X115561808Y-66240708D01*
X115555820Y-66130383D01*
X115551634Y-65994869D01*
X115549025Y-65829942D01*
X115547769Y-65631379D01*
X115547640Y-65394960D01*
X115548412Y-65116460D01*
X115549860Y-64791658D01*
X115549972Y-64768907D01*
X115551539Y-64457176D01*
X115553032Y-64192036D01*
X115554618Y-63969278D01*
X115556469Y-63784692D01*
X115558751Y-63634071D01*
X115561635Y-63513205D01*
X115565289Y-63417886D01*
X115569881Y-63343905D01*
X115575581Y-63287052D01*
X115582558Y-63243120D01*
X115590980Y-63207900D01*
X115601016Y-63177182D01*
X115612836Y-63146757D01*
X115615297Y-63140663D01*
X115717377Y-62954915D01*
X115861852Y-62795323D01*
X116046491Y-62663766D01*
X116269066Y-62562125D01*
X116323315Y-62543834D01*
X116461357Y-62509442D01*
X116638332Y-62479959D01*
X116842502Y-62456686D01*
X117062128Y-62440923D01*
X117285472Y-62433971D01*
X117316250Y-62433776D01*
X117500400Y-62433200D01*
X117500400Y-63157100D01*
X117499917Y-63377670D01*
X117498341Y-63551850D01*
X117495479Y-63684043D01*
X117491137Y-63778652D01*
X117485123Y-63840078D01*
X117477243Y-63872724D01*
X117468650Y-63881141D01*
X117351014Y-63903768D01*
X117228813Y-63964229D01*
X117115544Y-64052879D01*
X117024707Y-64160072D01*
X116988987Y-64223900D01*
X116975200Y-64258699D01*
X116964422Y-64299648D01*
X116956293Y-64353100D01*
X116950451Y-64425408D01*
X116946534Y-64522926D01*
X116944180Y-64652008D01*
X116943028Y-64819007D01*
X116942715Y-65030278D01*
X116942715Y-65036700D01*
X116943010Y-65249263D01*
X116944134Y-65417382D01*
X116946451Y-65547410D01*
X116950320Y-65645703D01*
X116956106Y-65718612D01*
X116964168Y-65772492D01*
X116974868Y-65813697D01*
X116988570Y-65848580D01*
X116988987Y-65849500D01*
X117055031Y-65953575D01*
X117149074Y-66051248D01*
X117254925Y-66127950D01*
X117339852Y-66165168D01*
X117404759Y-66175402D01*
X117509292Y-66183120D01*
X117642337Y-66188320D01*
X117792782Y-66191003D01*
X117949514Y-66191169D01*
X118101421Y-66188817D01*
X118237390Y-66183948D01*
X118346310Y-66176562D01*
X118417066Y-66166658D01*
X118422947Y-66165168D01*
X118526329Y-66116813D01*
X118631295Y-66035440D01*
X118721652Y-65935617D01*
X118773812Y-65849500D01*
X118787599Y-65814700D01*
X118798377Y-65773751D01*
X118806506Y-65720299D01*
X118812348Y-65647991D01*
X118816265Y-65550473D01*
X118818619Y-65421391D01*
X118819771Y-65254392D01*
X118820084Y-65043121D01*
X118820084Y-65036700D01*
X118819789Y-64824136D01*
X118818665Y-64656017D01*
X118816348Y-64525989D01*
X118812479Y-64427696D01*
X118806693Y-64354787D01*
X118798631Y-64300907D01*
X118787931Y-64259702D01*
X118774229Y-64224819D01*
X118773812Y-64223900D01*
X118701210Y-64110586D01*
X118598699Y-64010472D01*
X118479779Y-63933204D01*
X118357947Y-63888427D01*
X118294150Y-63881141D01*
X118284495Y-63870110D01*
X118276866Y-63834181D01*
X118271072Y-63768961D01*
X118266921Y-63670055D01*
X118264221Y-63533068D01*
X118262779Y-63353607D01*
X118262400Y-63153974D01*
X118262400Y-62426949D01*
X119424450Y-62440466D01*
X119723371Y-62444185D01*
X119976636Y-62448183D01*
X120189386Y-62453008D01*
X120366762Y-62459208D01*
X120513908Y-62467333D01*
X120635965Y-62477930D01*
X120738075Y-62491548D01*
X120825381Y-62508734D01*
X120903025Y-62530039D01*
X120976148Y-62556010D01*
X121049893Y-62587195D01*
X121124409Y-62621769D01*
X121321806Y-62738995D01*
X121477228Y-62884202D01*
X121592353Y-63059614D01*
X121668857Y-63267453D01*
X121691277Y-63373000D01*
X121698447Y-63441685D01*
X121704182Y-63556009D01*
X121708494Y-63716792D01*
X121711392Y-63924854D01*
X121712886Y-64181013D01*
X121712988Y-64486088D01*
X121712988Y-64486088D01*
G36*
X118516421Y-70623276D02*
X118516400Y-70840599D01*
X118516419Y-71151794D01*
X118516144Y-71416294D01*
X118515079Y-71638204D01*
X118512724Y-71821631D01*
X118508583Y-71970679D01*
X118502159Y-72089452D01*
X118492953Y-72182058D01*
X118480467Y-72252599D01*
X118464205Y-72305183D01*
X118443669Y-72343913D01*
X118418361Y-72372895D01*
X118387783Y-72396234D01*
X118351438Y-72418036D01*
X118323255Y-72434032D01*
X118277055Y-72457714D01*
X118228799Y-72473735D01*
X118167532Y-72483528D01*
X118082298Y-72488527D01*
X117962142Y-72490164D01*
X117894100Y-72490187D01*
X117715184Y-72486614D01*
X117582925Y-72476694D01*
X117499013Y-72460569D01*
X117486440Y-72455872D01*
X117395077Y-72395259D01*
X117316557Y-72306622D01*
X117266325Y-72208707D01*
X117258965Y-72179702D01*
X117256239Y-72138960D01*
X117253958Y-72052522D01*
X117252151Y-71925492D01*
X117250843Y-71762971D01*
X117250062Y-71570063D01*
X117249834Y-71351870D01*
X117250185Y-71113494D01*
X117251143Y-70860039D01*
X117251604Y-70772591D01*
X117253316Y-70479176D01*
X117254975Y-70232281D01*
X117256765Y-70027626D01*
X117258870Y-69860932D01*
X117261474Y-69727919D01*
X117264759Y-69624306D01*
X117268910Y-69545816D01*
X117274110Y-69488167D01*
X117280543Y-69447080D01*
X117288392Y-69418276D01*
X117297841Y-69397475D01*
X117309073Y-69380397D01*
X117311469Y-69377160D01*
X117363294Y-69312364D01*
X117413292Y-69265720D01*
X117471135Y-69234047D01*
X117546492Y-69214164D01*
X117649036Y-69202888D01*
X117788437Y-69197040D01*
X117864111Y-69195362D01*
X118008339Y-69193146D01*
X118111957Y-69193716D01*
X118185126Y-69198196D01*
X118238008Y-69207711D01*
X118280766Y-69223384D01*
X118323255Y-69246162D01*
X118363806Y-69269663D01*
X118398248Y-69291828D01*
X118427081Y-69316769D01*
X118450802Y-69348597D01*
X118469909Y-69391423D01*
X118484900Y-69449358D01*
X118496273Y-69526513D01*
X118504526Y-69626998D01*
X118510157Y-69754926D01*
X118513664Y-69914406D01*
X118515545Y-70109551D01*
X118516298Y-70344471D01*
X118516421Y-70623276D01*
X118516421Y-70623276D01*
X118516421Y-70623276D01*
G37*
X118516421Y-70623276D02*
X118516400Y-70840599D01*
X118516419Y-71151794D01*
X118516144Y-71416294D01*
X118515079Y-71638204D01*
X118512724Y-71821631D01*
X118508583Y-71970679D01*
X118502159Y-72089452D01*
X118492953Y-72182058D01*
X118480467Y-72252599D01*
X118464205Y-72305183D01*
X118443669Y-72343913D01*
X118418361Y-72372895D01*
X118387783Y-72396234D01*
X118351438Y-72418036D01*
X118323255Y-72434032D01*
X118277055Y-72457714D01*
X118228799Y-72473735D01*
X118167532Y-72483528D01*
X118082298Y-72488527D01*
X117962142Y-72490164D01*
X117894100Y-72490187D01*
X117715184Y-72486614D01*
X117582925Y-72476694D01*
X117499013Y-72460569D01*
X117486440Y-72455872D01*
X117395077Y-72395259D01*
X117316557Y-72306622D01*
X117266325Y-72208707D01*
X117258965Y-72179702D01*
X117256239Y-72138960D01*
X117253958Y-72052522D01*
X117252151Y-71925492D01*
X117250843Y-71762971D01*
X117250062Y-71570063D01*
X117249834Y-71351870D01*
X117250185Y-71113494D01*
X117251143Y-70860039D01*
X117251604Y-70772591D01*
X117253316Y-70479176D01*
X117254975Y-70232281D01*
X117256765Y-70027626D01*
X117258870Y-69860932D01*
X117261474Y-69727919D01*
X117264759Y-69624306D01*
X117268910Y-69545816D01*
X117274110Y-69488167D01*
X117280543Y-69447080D01*
X117288392Y-69418276D01*
X117297841Y-69397475D01*
X117309073Y-69380397D01*
X117311469Y-69377160D01*
X117363294Y-69312364D01*
X117413292Y-69265720D01*
X117471135Y-69234047D01*
X117546492Y-69214164D01*
X117649036Y-69202888D01*
X117788437Y-69197040D01*
X117864111Y-69195362D01*
X118008339Y-69193146D01*
X118111957Y-69193716D01*
X118185126Y-69198196D01*
X118238008Y-69207711D01*
X118280766Y-69223384D01*
X118323255Y-69246162D01*
X118363806Y-69269663D01*
X118398248Y-69291828D01*
X118427081Y-69316769D01*
X118450802Y-69348597D01*
X118469909Y-69391423D01*
X118484900Y-69449358D01*
X118496273Y-69526513D01*
X118504526Y-69626998D01*
X118510157Y-69754926D01*
X118513664Y-69914406D01*
X118515545Y-70109551D01*
X118516298Y-70344471D01*
X118516421Y-70623276D01*
X118516421Y-70623276D01*
X82933000Y-47448357D02*
X82897286Y-47484071D01*
X82790143Y-47519786D01*
X82718714Y-47519786D01*
X82611571Y-47484071D01*
X82540143Y-47412643D01*
X82504428Y-47341214D01*
X82468714Y-47198357D01*
X82468714Y-47091214D01*
X82504428Y-46948357D01*
X82540143Y-46876929D01*
X82611571Y-46805500D01*
X82718714Y-46769786D01*
X82790143Y-46769786D01*
X82897286Y-46805500D01*
X82933000Y-46841214D01*
X83647286Y-47519786D02*
X83218714Y-47519786D01*
X83433000Y-47519786D02*
X83433000Y-46769786D01*
X83361571Y-46876929D01*
X83290143Y-46948357D01*
X83218714Y-46984071D01*
X97549857Y-48702500D02*
X97585571Y-48738214D01*
X97621286Y-48845357D01*
X97621286Y-48916786D01*
X97585571Y-49023929D01*
X97514143Y-49095357D01*
X97442714Y-49131072D01*
X97299857Y-49166786D01*
X97192714Y-49166786D01*
X97049857Y-49131072D01*
X96978429Y-49095357D01*
X96907000Y-49023929D01*
X96871286Y-48916786D01*
X96871286Y-48845357D01*
X96907000Y-48738214D01*
X96942714Y-48702500D01*
X96871286Y-48452500D02*
X96871286Y-47988214D01*
X97157000Y-48238214D01*
X97157000Y-48131072D01*
X97192714Y-48059643D01*
X97228429Y-48023929D01*
X97299857Y-47988214D01*
X97478429Y-47988214D01*
X97549857Y-48023929D01*
X97585571Y-48059643D01*
X97621286Y-48131072D01*
X97621286Y-48345357D01*
X97585571Y-48416786D01*
X97549857Y-48452500D01*
X104396000Y-42685857D02*
X104360286Y-42721571D01*
X104253143Y-42757286D01*
X104181714Y-42757286D01*
X104074571Y-42721571D01*
X104003143Y-42650143D01*
X103967428Y-42578714D01*
X103931714Y-42435857D01*
X103931714Y-42328714D01*
X103967428Y-42185857D01*
X104003143Y-42114429D01*
X104074571Y-42043000D01*
X104181714Y-42007286D01*
X104253143Y-42007286D01*
X104360286Y-42043000D01*
X104396000Y-42078714D01*
X105038857Y-42257286D02*
X105038857Y-42757286D01*
X104860286Y-41971571D02*
X104681714Y-42507286D01*
X105146000Y-42507286D01*
X190640857Y-100494643D02*
X190676571Y-100530357D01*
X190712286Y-100637500D01*
X190712286Y-100708929D01*
X190676571Y-100816072D01*
X190605143Y-100887500D01*
X190533714Y-100923215D01*
X190390857Y-100958929D01*
X190283714Y-100958929D01*
X190140857Y-100923215D01*
X190069429Y-100887500D01*
X189998000Y-100816072D01*
X189962286Y-100708929D01*
X189962286Y-100637500D01*
X189998000Y-100530357D01*
X190033714Y-100494643D01*
X190033714Y-100208929D02*
X189998000Y-100173215D01*
X189962286Y-100101786D01*
X189962286Y-99923215D01*
X189998000Y-99851786D01*
X190033714Y-99816072D01*
X190105143Y-99780357D01*
X190176571Y-99780357D01*
X190283714Y-99816072D01*
X190712286Y-100244643D01*
X190712286Y-99780357D01*
X190712286Y-99066071D02*
X190712286Y-99494643D01*
X190712286Y-99280357D02*
X189962286Y-99280357D01*
X190069429Y-99351786D01*
X190140857Y-99423214D01*
X190176571Y-99494643D01*
X192799857Y-100494643D02*
X192835571Y-100530357D01*
X192871286Y-100637500D01*
X192871286Y-100708929D01*
X192835571Y-100816072D01*
X192764143Y-100887500D01*
X192692714Y-100923215D01*
X192549857Y-100958929D01*
X192442714Y-100958929D01*
X192299857Y-100923215D01*
X192228429Y-100887500D01*
X192157000Y-100816072D01*
X192121286Y-100708929D01*
X192121286Y-100637500D01*
X192157000Y-100530357D01*
X192192714Y-100494643D01*
X192192714Y-100208929D02*
X192157000Y-100173215D01*
X192121286Y-100101786D01*
X192121286Y-99923215D01*
X192157000Y-99851786D01*
X192192714Y-99816072D01*
X192264143Y-99780357D01*
X192335571Y-99780357D01*
X192442714Y-99816072D01*
X192871286Y-100244643D01*
X192871286Y-99780357D01*
X192192714Y-99494643D02*
X192157000Y-99458929D01*
X192121286Y-99387500D01*
X192121286Y-99208929D01*
X192157000Y-99137500D01*
X192192714Y-99101786D01*
X192264143Y-99066071D01*
X192335571Y-99066071D01*
X192442714Y-99101786D01*
X192871286Y-99530357D01*
X192871286Y-99066071D01*
X205753857Y-100494643D02*
X205789571Y-100530357D01*
X205825286Y-100637500D01*
X205825286Y-100708929D01*
X205789571Y-100816072D01*
X205718143Y-100887500D01*
X205646714Y-100923215D01*
X205503857Y-100958929D01*
X205396714Y-100958929D01*
X205253857Y-100923215D01*
X205182429Y-100887500D01*
X205111000Y-100816072D01*
X205075286Y-100708929D01*
X205075286Y-100637500D01*
X205111000Y-100530357D01*
X205146714Y-100494643D01*
X205075286Y-100244643D02*
X205075286Y-99780357D01*
X205361000Y-100030357D01*
X205361000Y-99923215D01*
X205396714Y-99851786D01*
X205432429Y-99816072D01*
X205503857Y-99780357D01*
X205682429Y-99780357D01*
X205753857Y-99816072D01*
X205789571Y-99851786D01*
X205825286Y-99923215D01*
X205825286Y-100137500D01*
X205789571Y-100208929D01*
X205753857Y-100244643D01*
X205075286Y-99530357D02*
X205075286Y-99030357D01*
X205825286Y-99351786D01*
X197117857Y-100494643D02*
X197153571Y-100530357D01*
X197189286Y-100637500D01*
X197189286Y-100708929D01*
X197153571Y-100816072D01*
X197082143Y-100887500D01*
X197010714Y-100923215D01*
X196867857Y-100958929D01*
X196760714Y-100958929D01*
X196617857Y-100923215D01*
X196546429Y-100887500D01*
X196475000Y-100816072D01*
X196439286Y-100708929D01*
X196439286Y-100637500D01*
X196475000Y-100530357D01*
X196510714Y-100494643D01*
X196439286Y-100244643D02*
X196439286Y-99780357D01*
X196725000Y-100030357D01*
X196725000Y-99923215D01*
X196760714Y-99851786D01*
X196796429Y-99816072D01*
X196867857Y-99780357D01*
X197046429Y-99780357D01*
X197117857Y-99816072D01*
X197153571Y-99851786D01*
X197189286Y-99923215D01*
X197189286Y-100137500D01*
X197153571Y-100208929D01*
X197117857Y-100244643D01*
X196439286Y-99101786D02*
X196439286Y-99458929D01*
X196796429Y-99494643D01*
X196760714Y-99458929D01*
X196725000Y-99387500D01*
X196725000Y-99208929D01*
X196760714Y-99137500D01*
X196796429Y-99101786D01*
X196867857Y-99066071D01*
X197046429Y-99066071D01*
X197117857Y-99101786D01*
X197153571Y-99137500D01*
X197189286Y-99208929D01*
X197189286Y-99387500D01*
X197153571Y-99458929D01*
X197117857Y-99494643D01*
X194958857Y-100494643D02*
X194994571Y-100530357D01*
X195030286Y-100637500D01*
X195030286Y-100708929D01*
X194994571Y-100816072D01*
X194923143Y-100887500D01*
X194851714Y-100923215D01*
X194708857Y-100958929D01*
X194601714Y-100958929D01*
X194458857Y-100923215D01*
X194387429Y-100887500D01*
X194316000Y-100816072D01*
X194280286Y-100708929D01*
X194280286Y-100637500D01*
X194316000Y-100530357D01*
X194351714Y-100494643D01*
X194351714Y-100208929D02*
X194316000Y-100173215D01*
X194280286Y-100101786D01*
X194280286Y-99923215D01*
X194316000Y-99851786D01*
X194351714Y-99816072D01*
X194423143Y-99780357D01*
X194494571Y-99780357D01*
X194601714Y-99816072D01*
X195030286Y-100244643D01*
X195030286Y-99780357D01*
X194280286Y-99530357D02*
X194280286Y-99066071D01*
X194566000Y-99316071D01*
X194566000Y-99208929D01*
X194601714Y-99137500D01*
X194637429Y-99101786D01*
X194708857Y-99066071D01*
X194887429Y-99066071D01*
X194958857Y-99101786D01*
X194994571Y-99137500D01*
X195030286Y-99208929D01*
X195030286Y-99423214D01*
X194994571Y-99494643D01*
X194958857Y-99530357D01*
X199289557Y-100494643D02*
X199325271Y-100530357D01*
X199360986Y-100637500D01*
X199360986Y-100708929D01*
X199325271Y-100816072D01*
X199253843Y-100887500D01*
X199182414Y-100923215D01*
X199039557Y-100958929D01*
X198932414Y-100958929D01*
X198789557Y-100923215D01*
X198718129Y-100887500D01*
X198646700Y-100816072D01*
X198610986Y-100708929D01*
X198610986Y-100637500D01*
X198646700Y-100530357D01*
X198682414Y-100494643D01*
X198610986Y-100244643D02*
X198610986Y-99780357D01*
X198896700Y-100030357D01*
X198896700Y-99923215D01*
X198932414Y-99851786D01*
X198968129Y-99816072D01*
X199039557Y-99780357D01*
X199218129Y-99780357D01*
X199289557Y-99816072D01*
X199325271Y-99851786D01*
X199360986Y-99923215D01*
X199360986Y-100137500D01*
X199325271Y-100208929D01*
X199289557Y-100244643D01*
X198610986Y-99530357D02*
X198610986Y-99066071D01*
X198896700Y-99316071D01*
X198896700Y-99208929D01*
X198932414Y-99137500D01*
X198968129Y-99101786D01*
X199039557Y-99066071D01*
X199218129Y-99066071D01*
X199289557Y-99101786D01*
X199325271Y-99137500D01*
X199360986Y-99208929D01*
X199360986Y-99423214D01*
X199325271Y-99494643D01*
X199289557Y-99530357D01*
X201435857Y-100494643D02*
X201471571Y-100530357D01*
X201507286Y-100637500D01*
X201507286Y-100708929D01*
X201471571Y-100816072D01*
X201400143Y-100887500D01*
X201328714Y-100923215D01*
X201185857Y-100958929D01*
X201078714Y-100958929D01*
X200935857Y-100923215D01*
X200864429Y-100887500D01*
X200793000Y-100816072D01*
X200757286Y-100708929D01*
X200757286Y-100637500D01*
X200793000Y-100530357D01*
X200828714Y-100494643D01*
X200757286Y-100244643D02*
X200757286Y-99780357D01*
X201043000Y-100030357D01*
X201043000Y-99923215D01*
X201078714Y-99851786D01*
X201114429Y-99816072D01*
X201185857Y-99780357D01*
X201364429Y-99780357D01*
X201435857Y-99816072D01*
X201471571Y-99851786D01*
X201507286Y-99923215D01*
X201507286Y-100137500D01*
X201471571Y-100208929D01*
X201435857Y-100244643D01*
X201507286Y-99066071D02*
X201507286Y-99494643D01*
X201507286Y-99280357D02*
X200757286Y-99280357D01*
X200864429Y-99351786D01*
X200935857Y-99423214D01*
X200971571Y-99494643D01*
X203594857Y-100494643D02*
X203630571Y-100530357D01*
X203666286Y-100637500D01*
X203666286Y-100708929D01*
X203630571Y-100816072D01*
X203559143Y-100887500D01*
X203487714Y-100923215D01*
X203344857Y-100958929D01*
X203237714Y-100958929D01*
X203094857Y-100923215D01*
X203023429Y-100887500D01*
X202952000Y-100816072D01*
X202916286Y-100708929D01*
X202916286Y-100637500D01*
X202952000Y-100530357D01*
X202987714Y-100494643D01*
X202987714Y-100208929D02*
X202952000Y-100173215D01*
X202916286Y-100101786D01*
X202916286Y-99923215D01*
X202952000Y-99851786D01*
X202987714Y-99816072D01*
X203059143Y-99780357D01*
X203130571Y-99780357D01*
X203237714Y-99816072D01*
X203666286Y-100244643D01*
X203666286Y-99780357D01*
X203666286Y-99423214D02*
X203666286Y-99280357D01*
X203630571Y-99208929D01*
X203594857Y-99173214D01*
X203487714Y-99101786D01*
X203344857Y-99066071D01*
X203059143Y-99066071D01*
X202987714Y-99101786D01*
X202952000Y-99137500D01*
X202916286Y-99208929D01*
X202916286Y-99351786D01*
X202952000Y-99423214D01*
X202987714Y-99458929D01*
X203059143Y-99494643D01*
X203237714Y-99494643D01*
X203309143Y-99458929D01*
X203344857Y-99423214D01*
X203380571Y-99351786D01*
X203380571Y-99208929D01*
X203344857Y-99137500D01*
X203309143Y-99101786D01*
X203237714Y-99066071D01*
X188481857Y-100494643D02*
X188517571Y-100530357D01*
X188553286Y-100637500D01*
X188553286Y-100708929D01*
X188517571Y-100816072D01*
X188446143Y-100887500D01*
X188374714Y-100923215D01*
X188231857Y-100958929D01*
X188124714Y-100958929D01*
X187981857Y-100923215D01*
X187910429Y-100887500D01*
X187839000Y-100816072D01*
X187803286Y-100708929D01*
X187803286Y-100637500D01*
X187839000Y-100530357D01*
X187874714Y-100494643D01*
X187874714Y-100208929D02*
X187839000Y-100173215D01*
X187803286Y-100101786D01*
X187803286Y-99923215D01*
X187839000Y-99851786D01*
X187874714Y-99816072D01*
X187946143Y-99780357D01*
X188017571Y-99780357D01*
X188124714Y-99816072D01*
X188553286Y-100244643D01*
X188553286Y-99780357D01*
X187803286Y-99530357D02*
X187803286Y-99030357D01*
X188553286Y-99351786D01*
X114440857Y-100494643D02*
X114476571Y-100530357D01*
X114512286Y-100637500D01*
X114512286Y-100708929D01*
X114476571Y-100816072D01*
X114405143Y-100887500D01*
X114333714Y-100923215D01*
X114190857Y-100958929D01*
X114083714Y-100958929D01*
X113940857Y-100923215D01*
X113869429Y-100887500D01*
X113798000Y-100816072D01*
X113762286Y-100708929D01*
X113762286Y-100637500D01*
X113798000Y-100530357D01*
X113833714Y-100494643D01*
X113833714Y-100208929D02*
X113798000Y-100173215D01*
X113762286Y-100101786D01*
X113762286Y-99923215D01*
X113798000Y-99851786D01*
X113833714Y-99816072D01*
X113905143Y-99780357D01*
X113976571Y-99780357D01*
X114083714Y-99816072D01*
X114512286Y-100244643D01*
X114512286Y-99780357D01*
X114012286Y-99137500D02*
X114512286Y-99137500D01*
X113726571Y-99316071D02*
X114262286Y-99494643D01*
X114262286Y-99030357D01*
X116599857Y-100494643D02*
X116635571Y-100530357D01*
X116671286Y-100637500D01*
X116671286Y-100708929D01*
X116635571Y-100816072D01*
X116564143Y-100887500D01*
X116492714Y-100923215D01*
X116349857Y-100958929D01*
X116242714Y-100958929D01*
X116099857Y-100923215D01*
X116028429Y-100887500D01*
X115957000Y-100816072D01*
X115921286Y-100708929D01*
X115921286Y-100637500D01*
X115957000Y-100530357D01*
X115992714Y-100494643D01*
X115992714Y-100208929D02*
X115957000Y-100173215D01*
X115921286Y-100101786D01*
X115921286Y-99923215D01*
X115957000Y-99851786D01*
X115992714Y-99816072D01*
X116064143Y-99780357D01*
X116135571Y-99780357D01*
X116242714Y-99816072D01*
X116671286Y-100244643D01*
X116671286Y-99780357D01*
X115921286Y-99101786D02*
X115921286Y-99458929D01*
X116278429Y-99494643D01*
X116242714Y-99458929D01*
X116207000Y-99387500D01*
X116207000Y-99208929D01*
X116242714Y-99137500D01*
X116278429Y-99101786D01*
X116349857Y-99066071D01*
X116528429Y-99066071D01*
X116599857Y-99101786D01*
X116635571Y-99137500D01*
X116671286Y-99208929D01*
X116671286Y-99387500D01*
X116635571Y-99458929D01*
X116599857Y-99494643D01*
X129553857Y-100494643D02*
X129589571Y-100530357D01*
X129625286Y-100637500D01*
X129625286Y-100708929D01*
X129589571Y-100816072D01*
X129518143Y-100887500D01*
X129446714Y-100923215D01*
X129303857Y-100958929D01*
X129196714Y-100958929D01*
X129053857Y-100923215D01*
X128982429Y-100887500D01*
X128911000Y-100816072D01*
X128875286Y-100708929D01*
X128875286Y-100637500D01*
X128911000Y-100530357D01*
X128946714Y-100494643D01*
X128875286Y-100244643D02*
X128875286Y-99780357D01*
X129161000Y-100030357D01*
X129161000Y-99923215D01*
X129196714Y-99851786D01*
X129232429Y-99816072D01*
X129303857Y-99780357D01*
X129482429Y-99780357D01*
X129553857Y-99816072D01*
X129589571Y-99851786D01*
X129625286Y-99923215D01*
X129625286Y-100137500D01*
X129589571Y-100208929D01*
X129553857Y-100244643D01*
X129196714Y-99351786D02*
X129161000Y-99423214D01*
X129125286Y-99458929D01*
X129053857Y-99494643D01*
X129018143Y-99494643D01*
X128946714Y-99458929D01*
X128911000Y-99423214D01*
X128875286Y-99351786D01*
X128875286Y-99208929D01*
X128911000Y-99137500D01*
X128946714Y-99101786D01*
X129018143Y-99066071D01*
X129053857Y-99066071D01*
X129125286Y-99101786D01*
X129161000Y-99137500D01*
X129196714Y-99208929D01*
X129196714Y-99351786D01*
X129232429Y-99423214D01*
X129268143Y-99458929D01*
X129339571Y-99494643D01*
X129482429Y-99494643D01*
X129553857Y-99458929D01*
X129589571Y-99423214D01*
X129625286Y-99351786D01*
X129625286Y-99208929D01*
X129589571Y-99137500D01*
X129553857Y-99101786D01*
X129482429Y-99066071D01*
X129339571Y-99066071D01*
X129268143Y-99101786D01*
X129232429Y-99137500D01*
X129196714Y-99208929D01*
X120917857Y-100494643D02*
X120953571Y-100530357D01*
X120989286Y-100637500D01*
X120989286Y-100708929D01*
X120953571Y-100816072D01*
X120882143Y-100887500D01*
X120810714Y-100923215D01*
X120667857Y-100958929D01*
X120560714Y-100958929D01*
X120417857Y-100923215D01*
X120346429Y-100887500D01*
X120275000Y-100816072D01*
X120239286Y-100708929D01*
X120239286Y-100637500D01*
X120275000Y-100530357D01*
X120310714Y-100494643D01*
X120239286Y-100244643D02*
X120239286Y-99780357D01*
X120525000Y-100030357D01*
X120525000Y-99923215D01*
X120560714Y-99851786D01*
X120596429Y-99816072D01*
X120667857Y-99780357D01*
X120846429Y-99780357D01*
X120917857Y-99816072D01*
X120953571Y-99851786D01*
X120989286Y-99923215D01*
X120989286Y-100137500D01*
X120953571Y-100208929D01*
X120917857Y-100244643D01*
X120239286Y-99137500D02*
X120239286Y-99280357D01*
X120275000Y-99351786D01*
X120310714Y-99387500D01*
X120417857Y-99458929D01*
X120560714Y-99494643D01*
X120846429Y-99494643D01*
X120917857Y-99458929D01*
X120953571Y-99423214D01*
X120989286Y-99351786D01*
X120989286Y-99208929D01*
X120953571Y-99137500D01*
X120917857Y-99101786D01*
X120846429Y-99066071D01*
X120667857Y-99066071D01*
X120596429Y-99101786D01*
X120560714Y-99137500D01*
X120525000Y-99208929D01*
X120525000Y-99351786D01*
X120560714Y-99423214D01*
X120596429Y-99458929D01*
X120667857Y-99494643D01*
X118758857Y-100494643D02*
X118794571Y-100530357D01*
X118830286Y-100637500D01*
X118830286Y-100708929D01*
X118794571Y-100816072D01*
X118723143Y-100887500D01*
X118651714Y-100923215D01*
X118508857Y-100958929D01*
X118401714Y-100958929D01*
X118258857Y-100923215D01*
X118187429Y-100887500D01*
X118116000Y-100816072D01*
X118080286Y-100708929D01*
X118080286Y-100637500D01*
X118116000Y-100530357D01*
X118151714Y-100494643D01*
X118151714Y-100208929D02*
X118116000Y-100173215D01*
X118080286Y-100101786D01*
X118080286Y-99923215D01*
X118116000Y-99851786D01*
X118151714Y-99816072D01*
X118223143Y-99780357D01*
X118294571Y-99780357D01*
X118401714Y-99816072D01*
X118830286Y-100244643D01*
X118830286Y-99780357D01*
X118080286Y-99137500D02*
X118080286Y-99280357D01*
X118116000Y-99351786D01*
X118151714Y-99387500D01*
X118258857Y-99458929D01*
X118401714Y-99494643D01*
X118687429Y-99494643D01*
X118758857Y-99458929D01*
X118794571Y-99423214D01*
X118830286Y-99351786D01*
X118830286Y-99208929D01*
X118794571Y-99137500D01*
X118758857Y-99101786D01*
X118687429Y-99066071D01*
X118508857Y-99066071D01*
X118437429Y-99101786D01*
X118401714Y-99137500D01*
X118366000Y-99208929D01*
X118366000Y-99351786D01*
X118401714Y-99423214D01*
X118437429Y-99458929D01*
X118508857Y-99494643D01*
X123076857Y-100494643D02*
X123112571Y-100530357D01*
X123148286Y-100637500D01*
X123148286Y-100708929D01*
X123112571Y-100816072D01*
X123041143Y-100887500D01*
X122969714Y-100923215D01*
X122826857Y-100958929D01*
X122719714Y-100958929D01*
X122576857Y-100923215D01*
X122505429Y-100887500D01*
X122434000Y-100816072D01*
X122398286Y-100708929D01*
X122398286Y-100637500D01*
X122434000Y-100530357D01*
X122469714Y-100494643D01*
X122398286Y-100244643D02*
X122398286Y-99780357D01*
X122684000Y-100030357D01*
X122684000Y-99923215D01*
X122719714Y-99851786D01*
X122755429Y-99816072D01*
X122826857Y-99780357D01*
X123005429Y-99780357D01*
X123076857Y-99816072D01*
X123112571Y-99851786D01*
X123148286Y-99923215D01*
X123148286Y-100137500D01*
X123112571Y-100208929D01*
X123076857Y-100244643D01*
X122648286Y-99137500D02*
X123148286Y-99137500D01*
X122362571Y-99316071D02*
X122898286Y-99494643D01*
X122898286Y-99030357D01*
X125235857Y-100494643D02*
X125271571Y-100530357D01*
X125307286Y-100637500D01*
X125307286Y-100708929D01*
X125271571Y-100816072D01*
X125200143Y-100887500D01*
X125128714Y-100923215D01*
X124985857Y-100958929D01*
X124878714Y-100958929D01*
X124735857Y-100923215D01*
X124664429Y-100887500D01*
X124593000Y-100816072D01*
X124557286Y-100708929D01*
X124557286Y-100637500D01*
X124593000Y-100530357D01*
X124628714Y-100494643D01*
X124557286Y-100244643D02*
X124557286Y-99780357D01*
X124843000Y-100030357D01*
X124843000Y-99923215D01*
X124878714Y-99851786D01*
X124914429Y-99816072D01*
X124985857Y-99780357D01*
X125164429Y-99780357D01*
X125235857Y-99816072D01*
X125271571Y-99851786D01*
X125307286Y-99923215D01*
X125307286Y-100137500D01*
X125271571Y-100208929D01*
X125235857Y-100244643D01*
X124628714Y-99494643D02*
X124593000Y-99458929D01*
X124557286Y-99387500D01*
X124557286Y-99208929D01*
X124593000Y-99137500D01*
X124628714Y-99101786D01*
X124700143Y-99066071D01*
X124771571Y-99066071D01*
X124878714Y-99101786D01*
X125307286Y-99530357D01*
X125307286Y-99066071D01*
X127394857Y-100494643D02*
X127430571Y-100530357D01*
X127466286Y-100637500D01*
X127466286Y-100708929D01*
X127430571Y-100816072D01*
X127359143Y-100887500D01*
X127287714Y-100923215D01*
X127144857Y-100958929D01*
X127037714Y-100958929D01*
X126894857Y-100923215D01*
X126823429Y-100887500D01*
X126752000Y-100816072D01*
X126716286Y-100708929D01*
X126716286Y-100637500D01*
X126752000Y-100530357D01*
X126787714Y-100494643D01*
X126716286Y-100244643D02*
X126716286Y-99780357D01*
X127002000Y-100030357D01*
X127002000Y-99923215D01*
X127037714Y-99851786D01*
X127073429Y-99816072D01*
X127144857Y-99780357D01*
X127323429Y-99780357D01*
X127394857Y-99816072D01*
X127430571Y-99851786D01*
X127466286Y-99923215D01*
X127466286Y-100137500D01*
X127430571Y-100208929D01*
X127394857Y-100244643D01*
X126716286Y-99316071D02*
X126716286Y-99244643D01*
X126752000Y-99173214D01*
X126787714Y-99137500D01*
X126859143Y-99101786D01*
X127002000Y-99066071D01*
X127180571Y-99066071D01*
X127323429Y-99101786D01*
X127394857Y-99137500D01*
X127430571Y-99173214D01*
X127466286Y-99244643D01*
X127466286Y-99316071D01*
X127430571Y-99387500D01*
X127394857Y-99423214D01*
X127323429Y-99458929D01*
X127180571Y-99494643D01*
X127002000Y-99494643D01*
X126859143Y-99458929D01*
X126787714Y-99423214D01*
X126752000Y-99387500D01*
X126716286Y-99316071D01*
X112281857Y-100494643D02*
X112317571Y-100530357D01*
X112353286Y-100637500D01*
X112353286Y-100708929D01*
X112317571Y-100816072D01*
X112246143Y-100887500D01*
X112174714Y-100923215D01*
X112031857Y-100958929D01*
X111924714Y-100958929D01*
X111781857Y-100923215D01*
X111710429Y-100887500D01*
X111639000Y-100816072D01*
X111603286Y-100708929D01*
X111603286Y-100637500D01*
X111639000Y-100530357D01*
X111674714Y-100494643D01*
X111674714Y-100208929D02*
X111639000Y-100173215D01*
X111603286Y-100101786D01*
X111603286Y-99923215D01*
X111639000Y-99851786D01*
X111674714Y-99816072D01*
X111746143Y-99780357D01*
X111817571Y-99780357D01*
X111924714Y-99816072D01*
X112353286Y-100244643D01*
X112353286Y-99780357D01*
X111924714Y-99351786D02*
X111889000Y-99423214D01*
X111853286Y-99458929D01*
X111781857Y-99494643D01*
X111746143Y-99494643D01*
X111674714Y-99458929D01*
X111639000Y-99423214D01*
X111603286Y-99351786D01*
X111603286Y-99208929D01*
X111639000Y-99137500D01*
X111674714Y-99101786D01*
X111746143Y-99066071D01*
X111781857Y-99066071D01*
X111853286Y-99101786D01*
X111889000Y-99137500D01*
X111924714Y-99208929D01*
X111924714Y-99351786D01*
X111960429Y-99423214D01*
X111996143Y-99458929D01*
X112067571Y-99494643D01*
X112210429Y-99494643D01*
X112281857Y-99458929D01*
X112317571Y-99423214D01*
X112353286Y-99351786D01*
X112353286Y-99208929D01*
X112317571Y-99137500D01*
X112281857Y-99101786D01*
X112210429Y-99066071D01*
X112067571Y-99066071D01*
X111996143Y-99101786D01*
X111960429Y-99137500D01*
X111924714Y-99208929D01*
X150445357Y-74420000D02*
X150481071Y-74455714D01*
X150516786Y-74562857D01*
X150516786Y-74634286D01*
X150481071Y-74741429D01*
X150409643Y-74812857D01*
X150338214Y-74848572D01*
X150195357Y-74884286D01*
X150088214Y-74884286D01*
X149945357Y-74848572D01*
X149873929Y-74812857D01*
X149802500Y-74741429D01*
X149766786Y-74634286D01*
X149766786Y-74562857D01*
X149802500Y-74455714D01*
X149838214Y-74420000D01*
X150516786Y-74062857D02*
X150516786Y-73920000D01*
X150481071Y-73848572D01*
X150445357Y-73812857D01*
X150338214Y-73741429D01*
X150195357Y-73705714D01*
X149909643Y-73705714D01*
X149838214Y-73741429D01*
X149802500Y-73777143D01*
X149766786Y-73848572D01*
X149766786Y-73991429D01*
X149802500Y-74062857D01*
X149838214Y-74098572D01*
X149909643Y-74134286D01*
X150088214Y-74134286D01*
X150159643Y-74098572D01*
X150195357Y-74062857D01*
X150231071Y-73991429D01*
X150231071Y-73848572D01*
X150195357Y-73777143D01*
X150159643Y-73741429D01*
X150088214Y-73705714D01*
X165748857Y-63323357D02*
X165713143Y-63359071D01*
X165606000Y-63394786D01*
X165534571Y-63394786D01*
X165427428Y-63359071D01*
X165356000Y-63287643D01*
X165320285Y-63216214D01*
X165284571Y-63073357D01*
X165284571Y-62966214D01*
X165320285Y-62823357D01*
X165356000Y-62751929D01*
X165427428Y-62680500D01*
X165534571Y-62644786D01*
X165606000Y-62644786D01*
X165713143Y-62680500D01*
X165748857Y-62716214D01*
X166463143Y-63394786D02*
X166034571Y-63394786D01*
X166248857Y-63394786D02*
X166248857Y-62644786D01*
X166177428Y-62751929D01*
X166106000Y-62823357D01*
X166034571Y-62859071D01*
X167177429Y-63394786D02*
X166748857Y-63394786D01*
X166963143Y-63394786D02*
X166963143Y-62644786D01*
X166891714Y-62751929D01*
X166820286Y-62823357D01*
X166748857Y-62859071D01*
X155004657Y-55028643D02*
X155040371Y-55064357D01*
X155076086Y-55171500D01*
X155076086Y-55242929D01*
X155040371Y-55350072D01*
X154968943Y-55421500D01*
X154897514Y-55457215D01*
X154754657Y-55492929D01*
X154647514Y-55492929D01*
X154504657Y-55457215D01*
X154433229Y-55421500D01*
X154361800Y-55350072D01*
X154326086Y-55242929D01*
X154326086Y-55171500D01*
X154361800Y-55064357D01*
X154397514Y-55028643D01*
X155076086Y-54314357D02*
X155076086Y-54742929D01*
X155076086Y-54528643D02*
X154326086Y-54528643D01*
X154433229Y-54600072D01*
X154504657Y-54671500D01*
X154540371Y-54742929D01*
X154397514Y-54028643D02*
X154361800Y-53992929D01*
X154326086Y-53921500D01*
X154326086Y-53742929D01*
X154361800Y-53671500D01*
X154397514Y-53635786D01*
X154468943Y-53600071D01*
X154540371Y-53600071D01*
X154647514Y-53635786D01*
X155076086Y-54064357D01*
X155076086Y-53600071D01*
X157165057Y-55041343D02*
X157200771Y-55077057D01*
X157236486Y-55184200D01*
X157236486Y-55255629D01*
X157200771Y-55362772D01*
X157129343Y-55434200D01*
X157057914Y-55469915D01*
X156915057Y-55505629D01*
X156807914Y-55505629D01*
X156665057Y-55469915D01*
X156593629Y-55434200D01*
X156522200Y-55362772D01*
X156486486Y-55255629D01*
X156486486Y-55184200D01*
X156522200Y-55077057D01*
X156557914Y-55041343D01*
X157236486Y-54327057D02*
X157236486Y-54755629D01*
X157236486Y-54541343D02*
X156486486Y-54541343D01*
X156593629Y-54612772D01*
X156665057Y-54684200D01*
X156700771Y-54755629D01*
X156486486Y-54077057D02*
X156486486Y-53612771D01*
X156772200Y-53862771D01*
X156772200Y-53755629D01*
X156807914Y-53684200D01*
X156843629Y-53648486D01*
X156915057Y-53612771D01*
X157093629Y-53612771D01*
X157165057Y-53648486D01*
X157200771Y-53684200D01*
X157236486Y-53755629D01*
X157236486Y-53969914D01*
X157200771Y-54041343D01*
X157165057Y-54077057D01*
X159779857Y-74345343D02*
X159815571Y-74381057D01*
X159851286Y-74488200D01*
X159851286Y-74559629D01*
X159815571Y-74666772D01*
X159744143Y-74738200D01*
X159672714Y-74773915D01*
X159529857Y-74809629D01*
X159422714Y-74809629D01*
X159279857Y-74773915D01*
X159208429Y-74738200D01*
X159137000Y-74666772D01*
X159101286Y-74559629D01*
X159101286Y-74488200D01*
X159137000Y-74381057D01*
X159172714Y-74345343D01*
X159851286Y-73631057D02*
X159851286Y-74059629D01*
X159851286Y-73845343D02*
X159101286Y-73845343D01*
X159208429Y-73916772D01*
X159279857Y-73988200D01*
X159315571Y-74059629D01*
X159351286Y-72988200D02*
X159851286Y-72988200D01*
X159065571Y-73166771D02*
X159601286Y-73345343D01*
X159601286Y-72881057D01*
X141861000Y-66879357D02*
X141825286Y-66915071D01*
X141718143Y-66950786D01*
X141646714Y-66950786D01*
X141539571Y-66915071D01*
X141468143Y-66843643D01*
X141432428Y-66772214D01*
X141396714Y-66629357D01*
X141396714Y-66522214D01*
X141432428Y-66379357D01*
X141468143Y-66307929D01*
X141539571Y-66236500D01*
X141646714Y-66200786D01*
X141718143Y-66200786D01*
X141825286Y-66236500D01*
X141861000Y-66272214D01*
X142111000Y-66200786D02*
X142611000Y-66200786D01*
X142289571Y-66950786D01*
X141861000Y-71070357D02*
X141825286Y-71106071D01*
X141718143Y-71141786D01*
X141646714Y-71141786D01*
X141539571Y-71106071D01*
X141468143Y-71034643D01*
X141432428Y-70963214D01*
X141396714Y-70820357D01*
X141396714Y-70713214D01*
X141432428Y-70570357D01*
X141468143Y-70498929D01*
X141539571Y-70427500D01*
X141646714Y-70391786D01*
X141718143Y-70391786D01*
X141825286Y-70427500D01*
X141861000Y-70463214D01*
X142289571Y-70713214D02*
X142218143Y-70677500D01*
X142182428Y-70641786D01*
X142146714Y-70570357D01*
X142146714Y-70534643D01*
X142182428Y-70463214D01*
X142218143Y-70427500D01*
X142289571Y-70391786D01*
X142432428Y-70391786D01*
X142503857Y-70427500D01*
X142539571Y-70463214D01*
X142575286Y-70534643D01*
X142575286Y-70570357D01*
X142539571Y-70641786D01*
X142503857Y-70677500D01*
X142432428Y-70713214D01*
X142289571Y-70713214D01*
X142218143Y-70748929D01*
X142182428Y-70784643D01*
X142146714Y-70856071D01*
X142146714Y-70998929D01*
X142182428Y-71070357D01*
X142218143Y-71106071D01*
X142289571Y-71141786D01*
X142432428Y-71141786D01*
X142503857Y-71106071D01*
X142539571Y-71070357D01*
X142575286Y-70998929D01*
X142575286Y-70856071D01*
X142539571Y-70784643D01*
X142503857Y-70748929D01*
X142432428Y-70713214D01*
X194069857Y-50189943D02*
X194105571Y-50225657D01*
X194141286Y-50332800D01*
X194141286Y-50404229D01*
X194105571Y-50511372D01*
X194034143Y-50582800D01*
X193962714Y-50618515D01*
X193819857Y-50654229D01*
X193712714Y-50654229D01*
X193569857Y-50618515D01*
X193498429Y-50582800D01*
X193427000Y-50511372D01*
X193391286Y-50404229D01*
X193391286Y-50332800D01*
X193427000Y-50225657D01*
X193462714Y-50189943D01*
X193391286Y-49939943D02*
X193391286Y-49475657D01*
X193677000Y-49725657D01*
X193677000Y-49618515D01*
X193712714Y-49547086D01*
X193748429Y-49511372D01*
X193819857Y-49475657D01*
X193998429Y-49475657D01*
X194069857Y-49511372D01*
X194105571Y-49547086D01*
X194141286Y-49618515D01*
X194141286Y-49832800D01*
X194105571Y-49904229D01*
X194069857Y-49939943D01*
X194141286Y-49118514D02*
X194141286Y-48975657D01*
X194105571Y-48904229D01*
X194069857Y-48868514D01*
X193962714Y-48797086D01*
X193819857Y-48761371D01*
X193534143Y-48761371D01*
X193462714Y-48797086D01*
X193427000Y-48832800D01*
X193391286Y-48904229D01*
X193391286Y-49047086D01*
X193427000Y-49118514D01*
X193462714Y-49154229D01*
X193534143Y-49189943D01*
X193712714Y-49189943D01*
X193784143Y-49154229D01*
X193819857Y-49118514D01*
X193855571Y-49047086D01*
X193855571Y-48904229D01*
X193819857Y-48832800D01*
X193784143Y-48797086D01*
X193712714Y-48761371D01*
X117819057Y-50215343D02*
X117854771Y-50251057D01*
X117890486Y-50358200D01*
X117890486Y-50429629D01*
X117854771Y-50536772D01*
X117783343Y-50608200D01*
X117711914Y-50643915D01*
X117569057Y-50679629D01*
X117461914Y-50679629D01*
X117319057Y-50643915D01*
X117247629Y-50608200D01*
X117176200Y-50536772D01*
X117140486Y-50429629D01*
X117140486Y-50358200D01*
X117176200Y-50251057D01*
X117211914Y-50215343D01*
X117390486Y-49572486D02*
X117890486Y-49572486D01*
X117104771Y-49751057D02*
X117640486Y-49929629D01*
X117640486Y-49465343D01*
X117890486Y-48786771D02*
X117890486Y-49215343D01*
X117890486Y-49001057D02*
X117140486Y-49001057D01*
X117247629Y-49072486D01*
X117319057Y-49143914D01*
X117354771Y-49215343D01*
X196076457Y-50189943D02*
X196112171Y-50225657D01*
X196147886Y-50332800D01*
X196147886Y-50404229D01*
X196112171Y-50511372D01*
X196040743Y-50582800D01*
X195969314Y-50618515D01*
X195826457Y-50654229D01*
X195719314Y-50654229D01*
X195576457Y-50618515D01*
X195505029Y-50582800D01*
X195433600Y-50511372D01*
X195397886Y-50404229D01*
X195397886Y-50332800D01*
X195433600Y-50225657D01*
X195469314Y-50189943D01*
X195647886Y-49547086D02*
X196147886Y-49547086D01*
X195362171Y-49725657D02*
X195897886Y-49904229D01*
X195897886Y-49439943D01*
X195397886Y-49011371D02*
X195397886Y-48939943D01*
X195433600Y-48868514D01*
X195469314Y-48832800D01*
X195540743Y-48797086D01*
X195683600Y-48761371D01*
X195862171Y-48761371D01*
X196005029Y-48797086D01*
X196076457Y-48832800D01*
X196112171Y-48868514D01*
X196147886Y-48939943D01*
X196147886Y-49011371D01*
X196112171Y-49082800D01*
X196076457Y-49118514D01*
X196005029Y-49154229D01*
X195862171Y-49189943D01*
X195683600Y-49189943D01*
X195540743Y-49154229D01*
X195469314Y-49118514D01*
X195433600Y-49082800D01*
X195397886Y-49011371D01*
X119825657Y-50215343D02*
X119861371Y-50251057D01*
X119897086Y-50358200D01*
X119897086Y-50429629D01*
X119861371Y-50536772D01*
X119789943Y-50608200D01*
X119718514Y-50643915D01*
X119575657Y-50679629D01*
X119468514Y-50679629D01*
X119325657Y-50643915D01*
X119254229Y-50608200D01*
X119182800Y-50536772D01*
X119147086Y-50429629D01*
X119147086Y-50358200D01*
X119182800Y-50251057D01*
X119218514Y-50215343D01*
X119397086Y-49572486D02*
X119897086Y-49572486D01*
X119111371Y-49751057D02*
X119647086Y-49929629D01*
X119647086Y-49465343D01*
X119218514Y-49215343D02*
X119182800Y-49179629D01*
X119147086Y-49108200D01*
X119147086Y-48929629D01*
X119182800Y-48858200D01*
X119218514Y-48822486D01*
X119289943Y-48786771D01*
X119361371Y-48786771D01*
X119468514Y-48822486D01*
X119897086Y-49251057D01*
X119897086Y-48786771D01*
X210774428Y-83762286D02*
X210774428Y-83012286D01*
X211060143Y-83012286D01*
X211131571Y-83048000D01*
X211167286Y-83083714D01*
X211203000Y-83155143D01*
X211203000Y-83262286D01*
X211167286Y-83333714D01*
X211131571Y-83369429D01*
X211060143Y-83405143D01*
X210774428Y-83405143D01*
X211881571Y-83012286D02*
X211524428Y-83012286D01*
X211488714Y-83369429D01*
X211524428Y-83333714D01*
X211595857Y-83298000D01*
X211774428Y-83298000D01*
X211845857Y-83333714D01*
X211881571Y-83369429D01*
X211917286Y-83440857D01*
X211917286Y-83619429D01*
X211881571Y-83690857D01*
X211845857Y-83726571D01*
X211774428Y-83762286D01*
X211595857Y-83762286D01*
X211524428Y-83726571D01*
X211488714Y-83690857D01*
X134574428Y-83762286D02*
X134574428Y-83012286D01*
X134860143Y-83012286D01*
X134931571Y-83048000D01*
X134967286Y-83083714D01*
X135003000Y-83155143D01*
X135003000Y-83262286D01*
X134967286Y-83333714D01*
X134931571Y-83369429D01*
X134860143Y-83405143D01*
X134574428Y-83405143D01*
X135645857Y-83012286D02*
X135503000Y-83012286D01*
X135431571Y-83048000D01*
X135395857Y-83083714D01*
X135324428Y-83190857D01*
X135288714Y-83333714D01*
X135288714Y-83619429D01*
X135324428Y-83690857D01*
X135360143Y-83726571D01*
X135431571Y-83762286D01*
X135574428Y-83762286D01*
X135645857Y-83726571D01*
X135681571Y-83690857D01*
X135717286Y-83619429D01*
X135717286Y-83440857D01*
X135681571Y-83369429D01*
X135645857Y-83333714D01*
X135574428Y-83298000D01*
X135431571Y-83298000D01*
X135360143Y-83333714D01*
X135324428Y-83369429D01*
X135288714Y-83440857D01*
X144166786Y-49385072D02*
X143416786Y-49385072D01*
X143416786Y-49099357D01*
X143452500Y-49027929D01*
X143488214Y-48992214D01*
X143559643Y-48956500D01*
X143666786Y-48956500D01*
X143738214Y-48992214D01*
X143773929Y-49027929D01*
X143809643Y-49099357D01*
X143809643Y-49385072D01*
X143488214Y-48670786D02*
X143452500Y-48635072D01*
X143416786Y-48563643D01*
X143416786Y-48385072D01*
X143452500Y-48313643D01*
X143488214Y-48277929D01*
X143559643Y-48242214D01*
X143631071Y-48242214D01*
X143738214Y-48277929D01*
X144166786Y-48706500D01*
X144166786Y-48242214D01*
X210240571Y-99343714D02*
X210169143Y-99308000D01*
X210097714Y-99236571D01*
X209990571Y-99129429D01*
X209919143Y-99093714D01*
X209847714Y-99093714D01*
X209883429Y-99272286D02*
X209812000Y-99236571D01*
X209740571Y-99165143D01*
X209704857Y-99022286D01*
X209704857Y-98772286D01*
X209740571Y-98629429D01*
X209812000Y-98558000D01*
X209883429Y-98522286D01*
X210026286Y-98522286D01*
X210097714Y-98558000D01*
X210169143Y-98629429D01*
X210204857Y-98772286D01*
X210204857Y-99022286D01*
X210169143Y-99165143D01*
X210097714Y-99236571D01*
X210026286Y-99272286D01*
X209883429Y-99272286D01*
X210490571Y-98593714D02*
X210526285Y-98558000D01*
X210597714Y-98522286D01*
X210776285Y-98522286D01*
X210847714Y-98558000D01*
X210883428Y-98593714D01*
X210919143Y-98665143D01*
X210919143Y-98736571D01*
X210883428Y-98843714D01*
X210454857Y-99272286D01*
X210919143Y-99272286D01*
X134040571Y-99343714D02*
X133969143Y-99308000D01*
X133897714Y-99236571D01*
X133790571Y-99129429D01*
X133719143Y-99093714D01*
X133647714Y-99093714D01*
X133683429Y-99272286D02*
X133612000Y-99236571D01*
X133540571Y-99165143D01*
X133504857Y-99022286D01*
X133504857Y-98772286D01*
X133540571Y-98629429D01*
X133612000Y-98558000D01*
X133683429Y-98522286D01*
X133826286Y-98522286D01*
X133897714Y-98558000D01*
X133969143Y-98629429D01*
X134004857Y-98772286D01*
X134004857Y-99022286D01*
X133969143Y-99165143D01*
X133897714Y-99236571D01*
X133826286Y-99272286D01*
X133683429Y-99272286D01*
X134254857Y-98522286D02*
X134719143Y-98522286D01*
X134469143Y-98808000D01*
X134576285Y-98808000D01*
X134647714Y-98843714D01*
X134683428Y-98879429D01*
X134719143Y-98950857D01*
X134719143Y-99129429D01*
X134683428Y-99200857D01*
X134647714Y-99236571D01*
X134576285Y-99272286D01*
X134362000Y-99272286D01*
X134290571Y-99236571D01*
X134254857Y-99200857D01*
X215223286Y-97002143D02*
X214866143Y-97252143D01*
X215223286Y-97430715D02*
X214473286Y-97430715D01*
X214473286Y-97145000D01*
X214509000Y-97073572D01*
X214544714Y-97037857D01*
X214616143Y-97002143D01*
X214723286Y-97002143D01*
X214794714Y-97037857D01*
X214830429Y-97073572D01*
X214866143Y-97145000D01*
X214866143Y-97430715D01*
X215223286Y-96287857D02*
X215223286Y-96716429D01*
X215223286Y-96502143D02*
X214473286Y-96502143D01*
X214580429Y-96573572D01*
X214651857Y-96645000D01*
X214687571Y-96716429D01*
X214473286Y-96037857D02*
X214473286Y-95573571D01*
X214759000Y-95823571D01*
X214759000Y-95716429D01*
X214794714Y-95645000D01*
X214830429Y-95609286D01*
X214901857Y-95573571D01*
X215080429Y-95573571D01*
X215151857Y-95609286D01*
X215187571Y-95645000D01*
X215223286Y-95716429D01*
X215223286Y-95930714D01*
X215187571Y-96002143D01*
X215151857Y-96037857D01*
X139023286Y-97002143D02*
X138666143Y-97252143D01*
X139023286Y-97430715D02*
X138273286Y-97430715D01*
X138273286Y-97145000D01*
X138309000Y-97073572D01*
X138344714Y-97037857D01*
X138416143Y-97002143D01*
X138523286Y-97002143D01*
X138594714Y-97037857D01*
X138630429Y-97073572D01*
X138666143Y-97145000D01*
X138666143Y-97430715D01*
X139023286Y-96287857D02*
X139023286Y-96716429D01*
X139023286Y-96502143D02*
X138273286Y-96502143D01*
X138380429Y-96573572D01*
X138451857Y-96645000D01*
X138487571Y-96716429D01*
X138523286Y-95645000D02*
X139023286Y-95645000D01*
X138237571Y-95823571D02*
X138773286Y-96002143D01*
X138773286Y-95537857D01*
X161057786Y-80936643D02*
X160700643Y-81186643D01*
X161057786Y-81365215D02*
X160307786Y-81365215D01*
X160307786Y-81079500D01*
X160343500Y-81008072D01*
X160379214Y-80972357D01*
X160450643Y-80936643D01*
X160557786Y-80936643D01*
X160629214Y-80972357D01*
X160664929Y-81008072D01*
X160700643Y-81079500D01*
X160700643Y-81365215D01*
X161057786Y-80222357D02*
X161057786Y-80650929D01*
X161057786Y-80436643D02*
X160307786Y-80436643D01*
X160414929Y-80508072D01*
X160486357Y-80579500D01*
X160522071Y-80650929D01*
X160307786Y-79543786D02*
X160307786Y-79900929D01*
X160664929Y-79936643D01*
X160629214Y-79900929D01*
X160593500Y-79829500D01*
X160593500Y-79650929D01*
X160629214Y-79579500D01*
X160664929Y-79543786D01*
X160736357Y-79508071D01*
X160914929Y-79508071D01*
X160986357Y-79543786D01*
X161022071Y-79579500D01*
X161057786Y-79650929D01*
X161057786Y-79829500D01*
X161022071Y-79900929D01*
X160986357Y-79936643D01*
X187071457Y-41690486D02*
X186821457Y-41333343D01*
X186642885Y-41690486D02*
X186642885Y-40940486D01*
X186928600Y-40940486D01*
X187000028Y-40976200D01*
X187035743Y-41011914D01*
X187071457Y-41083343D01*
X187071457Y-41190486D01*
X187035743Y-41261914D01*
X187000028Y-41297629D01*
X186928600Y-41333343D01*
X186642885Y-41333343D01*
X187785743Y-41690486D02*
X187357171Y-41690486D01*
X187571457Y-41690486D02*
X187571457Y-40940486D01*
X187500028Y-41047629D01*
X187428600Y-41119057D01*
X187357171Y-41154771D01*
X188035743Y-40940486D02*
X188535743Y-40940486D01*
X188214314Y-41690486D01*
X110820657Y-41741286D02*
X110570657Y-41384143D01*
X110392085Y-41741286D02*
X110392085Y-40991286D01*
X110677800Y-40991286D01*
X110749228Y-41027000D01*
X110784943Y-41062714D01*
X110820657Y-41134143D01*
X110820657Y-41241286D01*
X110784943Y-41312714D01*
X110749228Y-41348429D01*
X110677800Y-41384143D01*
X110392085Y-41384143D01*
X111106371Y-41062714D02*
X111142085Y-41027000D01*
X111213514Y-40991286D01*
X111392085Y-40991286D01*
X111463514Y-41027000D01*
X111499228Y-41062714D01*
X111534943Y-41134143D01*
X111534943Y-41205571D01*
X111499228Y-41312714D01*
X111070657Y-41741286D01*
X111534943Y-41741286D01*
X111820657Y-41062714D02*
X111856371Y-41027000D01*
X111927800Y-40991286D01*
X112106371Y-40991286D01*
X112177800Y-41027000D01*
X112213514Y-41062714D01*
X112249229Y-41134143D01*
X112249229Y-41205571D01*
X112213514Y-41312714D01*
X111784943Y-41741286D01*
X112249229Y-41741286D01*
X191084657Y-50643986D02*
X190834657Y-50286843D01*
X190656085Y-50643986D02*
X190656085Y-49893986D01*
X190941800Y-49893986D01*
X191013228Y-49929700D01*
X191048943Y-49965414D01*
X191084657Y-50036843D01*
X191084657Y-50143986D01*
X191048943Y-50215414D01*
X191013228Y-50251129D01*
X190941800Y-50286843D01*
X190656085Y-50286843D01*
X191798943Y-50643986D02*
X191370371Y-50643986D01*
X191584657Y-50643986D02*
X191584657Y-49893986D01*
X191513228Y-50001129D01*
X191441800Y-50072557D01*
X191370371Y-50108271D01*
X192227514Y-50215414D02*
X192156086Y-50179700D01*
X192120371Y-50143986D01*
X192084657Y-50072557D01*
X192084657Y-50036843D01*
X192120371Y-49965414D01*
X192156086Y-49929700D01*
X192227514Y-49893986D01*
X192370371Y-49893986D01*
X192441800Y-49929700D01*
X192477514Y-49965414D01*
X192513229Y-50036843D01*
X192513229Y-50072557D01*
X192477514Y-50143986D01*
X192441800Y-50179700D01*
X192370371Y-50215414D01*
X192227514Y-50215414D01*
X192156086Y-50251129D01*
X192120371Y-50286843D01*
X192084657Y-50358271D01*
X192084657Y-50501129D01*
X192120371Y-50572557D01*
X192156086Y-50608271D01*
X192227514Y-50643986D01*
X192370371Y-50643986D01*
X192441800Y-50608271D01*
X192477514Y-50572557D01*
X192513229Y-50501129D01*
X192513229Y-50358271D01*
X192477514Y-50286843D01*
X192441800Y-50251129D01*
X192370371Y-50215414D01*
X112065257Y-52104486D02*
X111815257Y-51747343D01*
X111636685Y-52104486D02*
X111636685Y-51354486D01*
X111922400Y-51354486D01*
X111993828Y-51390200D01*
X112029543Y-51425914D01*
X112065257Y-51497343D01*
X112065257Y-51604486D01*
X112029543Y-51675914D01*
X111993828Y-51711629D01*
X111922400Y-51747343D01*
X111636685Y-51747343D01*
X112350971Y-51425914D02*
X112386685Y-51390200D01*
X112458114Y-51354486D01*
X112636685Y-51354486D01*
X112708114Y-51390200D01*
X112743828Y-51425914D01*
X112779543Y-51497343D01*
X112779543Y-51568771D01*
X112743828Y-51675914D01*
X112315257Y-52104486D01*
X112779543Y-52104486D01*
X113029543Y-51354486D02*
X113493829Y-51354486D01*
X113243829Y-51640200D01*
X113350971Y-51640200D01*
X113422400Y-51675914D01*
X113458114Y-51711629D01*
X113493829Y-51783057D01*
X113493829Y-51961629D01*
X113458114Y-52033057D01*
X113422400Y-52068771D01*
X113350971Y-52104486D01*
X113136686Y-52104486D01*
X113065257Y-52068771D01*
X113029543Y-52033057D01*
X188265257Y-53831686D02*
X188015257Y-53474543D01*
X187836685Y-53831686D02*
X187836685Y-53081686D01*
X188122400Y-53081686D01*
X188193828Y-53117400D01*
X188229543Y-53153114D01*
X188265257Y-53224543D01*
X188265257Y-53331686D01*
X188229543Y-53403114D01*
X188193828Y-53438829D01*
X188122400Y-53474543D01*
X187836685Y-53474543D01*
X188550971Y-53153114D02*
X188586685Y-53117400D01*
X188658114Y-53081686D01*
X188836685Y-53081686D01*
X188908114Y-53117400D01*
X188943828Y-53153114D01*
X188979543Y-53224543D01*
X188979543Y-53295971D01*
X188943828Y-53403114D01*
X188515257Y-53831686D01*
X188979543Y-53831686D01*
X189443829Y-53081686D02*
X189515257Y-53081686D01*
X189586686Y-53117400D01*
X189622400Y-53153114D01*
X189658114Y-53224543D01*
X189693829Y-53367400D01*
X189693829Y-53545971D01*
X189658114Y-53688829D01*
X189622400Y-53760257D01*
X189586686Y-53795971D01*
X189515257Y-53831686D01*
X189443829Y-53831686D01*
X189372400Y-53795971D01*
X189336686Y-53760257D01*
X189300971Y-53688829D01*
X189265257Y-53545971D01*
X189265257Y-53367400D01*
X189300971Y-53224543D01*
X189336686Y-53153114D01*
X189372400Y-53117400D01*
X189443829Y-53081686D01*
X112065257Y-53831686D02*
X111815257Y-53474543D01*
X111636685Y-53831686D02*
X111636685Y-53081686D01*
X111922400Y-53081686D01*
X111993828Y-53117400D01*
X112029543Y-53153114D01*
X112065257Y-53224543D01*
X112065257Y-53331686D01*
X112029543Y-53403114D01*
X111993828Y-53438829D01*
X111922400Y-53474543D01*
X111636685Y-53474543D01*
X112350971Y-53153114D02*
X112386685Y-53117400D01*
X112458114Y-53081686D01*
X112636685Y-53081686D01*
X112708114Y-53117400D01*
X112743828Y-53153114D01*
X112779543Y-53224543D01*
X112779543Y-53295971D01*
X112743828Y-53403114D01*
X112315257Y-53831686D01*
X112779543Y-53831686D01*
X113458114Y-53081686D02*
X113100971Y-53081686D01*
X113065257Y-53438829D01*
X113100971Y-53403114D01*
X113172400Y-53367400D01*
X113350971Y-53367400D01*
X113422400Y-53403114D01*
X113458114Y-53438829D01*
X113493829Y-53510257D01*
X113493829Y-53688829D01*
X113458114Y-53760257D01*
X113422400Y-53795971D01*
X113350971Y-53831686D01*
X113172400Y-53831686D01*
X113100971Y-53795971D01*
X113065257Y-53760257D01*
X159279786Y-80936643D02*
X158922643Y-81186643D01*
X159279786Y-81365215D02*
X158529786Y-81365215D01*
X158529786Y-81079500D01*
X158565500Y-81008072D01*
X158601214Y-80972357D01*
X158672643Y-80936643D01*
X158779786Y-80936643D01*
X158851214Y-80972357D01*
X158886929Y-81008072D01*
X158922643Y-81079500D01*
X158922643Y-81365215D01*
X159279786Y-80222357D02*
X159279786Y-80650929D01*
X159279786Y-80436643D02*
X158529786Y-80436643D01*
X158636929Y-80508072D01*
X158708357Y-80579500D01*
X158744071Y-80650929D01*
X158529786Y-79579500D02*
X158529786Y-79722357D01*
X158565500Y-79793786D01*
X158601214Y-79829500D01*
X158708357Y-79900929D01*
X158851214Y-79936643D01*
X159136929Y-79936643D01*
X159208357Y-79900929D01*
X159244071Y-79865214D01*
X159279786Y-79793786D01*
X159279786Y-79650929D01*
X159244071Y-79579500D01*
X159208357Y-79543786D01*
X159136929Y-79508071D01*
X158958357Y-79508071D01*
X158886929Y-79543786D01*
X158851214Y-79579500D01*
X158815500Y-79650929D01*
X158815500Y-79793786D01*
X158851214Y-79865214D01*
X158886929Y-79900929D01*
X158958357Y-79936643D01*
X197548957Y-50643986D02*
X197298957Y-50286843D01*
X197120385Y-50643986D02*
X197120385Y-49893986D01*
X197406100Y-49893986D01*
X197477528Y-49929700D01*
X197513243Y-49965414D01*
X197548957Y-50036843D01*
X197548957Y-50143986D01*
X197513243Y-50215414D01*
X197477528Y-50251129D01*
X197406100Y-50286843D01*
X197120385Y-50286843D01*
X198263243Y-50643986D02*
X197834671Y-50643986D01*
X198048957Y-50643986D02*
X198048957Y-49893986D01*
X197977528Y-50001129D01*
X197906100Y-50072557D01*
X197834671Y-50108271D01*
X198620386Y-50643986D02*
X198763243Y-50643986D01*
X198834671Y-50608271D01*
X198870386Y-50572557D01*
X198941814Y-50465414D01*
X198977529Y-50322557D01*
X198977529Y-50036843D01*
X198941814Y-49965414D01*
X198906100Y-49929700D01*
X198834671Y-49893986D01*
X198691814Y-49893986D01*
X198620386Y-49929700D01*
X198584671Y-49965414D01*
X198548957Y-50036843D01*
X198548957Y-50215414D01*
X198584671Y-50286843D01*
X198620386Y-50322557D01*
X198691814Y-50358271D01*
X198834671Y-50358271D01*
X198906100Y-50322557D01*
X198941814Y-50286843D01*
X198977529Y-50215414D01*
X124003257Y-52104486D02*
X123753257Y-51747343D01*
X123574685Y-52104486D02*
X123574685Y-51354486D01*
X123860400Y-51354486D01*
X123931828Y-51390200D01*
X123967543Y-51425914D01*
X124003257Y-51497343D01*
X124003257Y-51604486D01*
X123967543Y-51675914D01*
X123931828Y-51711629D01*
X123860400Y-51747343D01*
X123574685Y-51747343D01*
X124288971Y-51425914D02*
X124324685Y-51390200D01*
X124396114Y-51354486D01*
X124574685Y-51354486D01*
X124646114Y-51390200D01*
X124681828Y-51425914D01*
X124717543Y-51497343D01*
X124717543Y-51568771D01*
X124681828Y-51675914D01*
X124253257Y-52104486D01*
X124717543Y-52104486D01*
X125360400Y-51604486D02*
X125360400Y-52104486D01*
X125181829Y-51318771D02*
X125003257Y-51854486D01*
X125467543Y-51854486D01*
X200279457Y-53831686D02*
X200029457Y-53474543D01*
X199850885Y-53831686D02*
X199850885Y-53081686D01*
X200136600Y-53081686D01*
X200208028Y-53117400D01*
X200243743Y-53153114D01*
X200279457Y-53224543D01*
X200279457Y-53331686D01*
X200243743Y-53403114D01*
X200208028Y-53438829D01*
X200136600Y-53474543D01*
X199850885Y-53474543D01*
X200565171Y-53153114D02*
X200600885Y-53117400D01*
X200672314Y-53081686D01*
X200850885Y-53081686D01*
X200922314Y-53117400D01*
X200958028Y-53153114D01*
X200993743Y-53224543D01*
X200993743Y-53295971D01*
X200958028Y-53403114D01*
X200529457Y-53831686D01*
X200993743Y-53831686D01*
X201708029Y-53831686D02*
X201279457Y-53831686D01*
X201493743Y-53831686D02*
X201493743Y-53081686D01*
X201422314Y-53188829D01*
X201350886Y-53260257D01*
X201279457Y-53295971D01*
X124003257Y-53831686D02*
X123753257Y-53474543D01*
X123574685Y-53831686D02*
X123574685Y-53081686D01*
X123860400Y-53081686D01*
X123931828Y-53117400D01*
X123967543Y-53153114D01*
X124003257Y-53224543D01*
X124003257Y-53331686D01*
X123967543Y-53403114D01*
X123931828Y-53438829D01*
X123860400Y-53474543D01*
X123574685Y-53474543D01*
X124288971Y-53153114D02*
X124324685Y-53117400D01*
X124396114Y-53081686D01*
X124574685Y-53081686D01*
X124646114Y-53117400D01*
X124681828Y-53153114D01*
X124717543Y-53224543D01*
X124717543Y-53295971D01*
X124681828Y-53403114D01*
X124253257Y-53831686D01*
X124717543Y-53831686D01*
X125360400Y-53081686D02*
X125217543Y-53081686D01*
X125146114Y-53117400D01*
X125110400Y-53153114D01*
X125038971Y-53260257D01*
X125003257Y-53403114D01*
X125003257Y-53688829D01*
X125038971Y-53760257D01*
X125074686Y-53795971D01*
X125146114Y-53831686D01*
X125288971Y-53831686D01*
X125360400Y-53795971D01*
X125396114Y-53760257D01*
X125431829Y-53688829D01*
X125431829Y-53510257D01*
X125396114Y-53438829D01*
X125360400Y-53403114D01*
X125288971Y-53367400D01*
X125146114Y-53367400D01*
X125074686Y-53403114D01*
X125038971Y-53438829D01*
X125003257Y-53510257D01*
X136638071Y-74279000D02*
X136673786Y-74171857D01*
X136673786Y-73993286D01*
X136638071Y-73921857D01*
X136602357Y-73886143D01*
X136530929Y-73850428D01*
X136459500Y-73850428D01*
X136388071Y-73886143D01*
X136352357Y-73921857D01*
X136316643Y-73993286D01*
X136280929Y-74136143D01*
X136245214Y-74207571D01*
X136209500Y-74243286D01*
X136138071Y-74279000D01*
X136066643Y-74279000D01*
X135995214Y-74243286D01*
X135959500Y-74207571D01*
X135923786Y-74136143D01*
X135923786Y-73957571D01*
X135959500Y-73850428D01*
X135923786Y-73600428D02*
X136673786Y-73421857D01*
X136138071Y-73279000D01*
X136673786Y-73136142D01*
X135923786Y-72957571D01*
X136673786Y-72278999D02*
X136673786Y-72707571D01*
X136673786Y-72493285D02*
X135923786Y-72493285D01*
X136030929Y-72564714D01*
X136102357Y-72636142D01*
X136138071Y-72707571D01*
X96787471Y-51100486D02*
X96787471Y-51707629D01*
X96823186Y-51779057D01*
X96858900Y-51814771D01*
X96930329Y-51850486D01*
X97073186Y-51850486D01*
X97144614Y-51814771D01*
X97180329Y-51779057D01*
X97216043Y-51707629D01*
X97216043Y-51100486D01*
X97537471Y-51171914D02*
X97573185Y-51136200D01*
X97644614Y-51100486D01*
X97823185Y-51100486D01*
X97894614Y-51136200D01*
X97930328Y-51171914D01*
X97966043Y-51243343D01*
X97966043Y-51314771D01*
X97930328Y-51421914D01*
X97501757Y-51850486D01*
X97966043Y-51850486D01*
X149347686Y-58381829D02*
X149954829Y-58381829D01*
X150026257Y-58346114D01*
X150061971Y-58310400D01*
X150097686Y-58238971D01*
X150097686Y-58096114D01*
X150061971Y-58024686D01*
X150026257Y-57988971D01*
X149954829Y-57953257D01*
X149347686Y-57953257D01*
X149597686Y-57274686D02*
X150097686Y-57274686D01*
X149311971Y-57453257D02*
X149847686Y-57631829D01*
X149847686Y-57167543D01*
X219087771Y-80978086D02*
X219087771Y-81585229D01*
X219123486Y-81656657D01*
X219159200Y-81692371D01*
X219230629Y-81728086D01*
X219373486Y-81728086D01*
X219444914Y-81692371D01*
X219480629Y-81656657D01*
X219516343Y-81585229D01*
X219516343Y-80978086D01*
X220230628Y-80978086D02*
X219873485Y-80978086D01*
X219837771Y-81335229D01*
X219873485Y-81299514D01*
X219944914Y-81263800D01*
X220123485Y-81263800D01*
X220194914Y-81299514D01*
X220230628Y-81335229D01*
X220266343Y-81406657D01*
X220266343Y-81585229D01*
X220230628Y-81656657D01*
X220194914Y-81692371D01*
X220123485Y-81728086D01*
X219944914Y-81728086D01*
X219873485Y-81692371D01*
X219837771Y-81656657D01*
X143822343Y-68987942D02*
X144179486Y-68987942D01*
X143429486Y-69237942D02*
X143822343Y-68987942D01*
X143429486Y-68737942D01*
X144179486Y-68095085D02*
X144179486Y-68523657D01*
X144179486Y-68309371D02*
X143429486Y-68309371D01*
X143536629Y-68380800D01*
X143608057Y-68452228D01*
X143643771Y-68523657D01*
X165181428Y-85746786D02*
X165181428Y-84996786D01*
X165467143Y-84996786D01*
X165538571Y-85032500D01*
X165574286Y-85068214D01*
X165610000Y-85139643D01*
X165610000Y-85246786D01*
X165574286Y-85318214D01*
X165538571Y-85353929D01*
X165467143Y-85389643D01*
X165181428Y-85389643D01*
X165860000Y-84996786D02*
X166360000Y-84996786D01*
X166038571Y-85746786D01*
X147020428Y-85746786D02*
X147020428Y-84996786D01*
X147306143Y-84996786D01*
X147377571Y-85032500D01*
X147413286Y-85068214D01*
X147449000Y-85139643D01*
X147449000Y-85246786D01*
X147413286Y-85318214D01*
X147377571Y-85353929D01*
X147306143Y-85389643D01*
X147020428Y-85389643D01*
X147877571Y-85318214D02*
X147806143Y-85282500D01*
X147770428Y-85246786D01*
X147734714Y-85175357D01*
X147734714Y-85139643D01*
X147770428Y-85068214D01*
X147806143Y-85032500D01*
X147877571Y-84996786D01*
X148020428Y-84996786D01*
X148091857Y-85032500D01*
X148127571Y-85068214D01*
X148163286Y-85139643D01*
X148163286Y-85175357D01*
X148127571Y-85246786D01*
X148091857Y-85282500D01*
X148020428Y-85318214D01*
X147877571Y-85318214D01*
X147806143Y-85353929D01*
X147770428Y-85389643D01*
X147734714Y-85461071D01*
X147734714Y-85603929D01*
X147770428Y-85675357D01*
X147806143Y-85711071D01*
X147877571Y-85746786D01*
X148020428Y-85746786D01*
X148091857Y-85711071D01*
X148127571Y-85675357D01*
X148163286Y-85603929D01*
X148163286Y-85461071D01*
X148127571Y-85389643D01*
X148091857Y-85353929D01*
X148020428Y-85318214D01*
X92660357Y-48702500D02*
X92696071Y-48738214D01*
X92731786Y-48845357D01*
X92731786Y-48916786D01*
X92696071Y-49023929D01*
X92624643Y-49095357D01*
X92553214Y-49131072D01*
X92410357Y-49166786D01*
X92303214Y-49166786D01*
X92160357Y-49131072D01*
X92088929Y-49095357D01*
X92017500Y-49023929D01*
X91981786Y-48916786D01*
X91981786Y-48845357D01*
X92017500Y-48738214D01*
X92053214Y-48702500D01*
X92053214Y-48416786D02*
X92017500Y-48381072D01*
X91981786Y-48309643D01*
X91981786Y-48131072D01*
X92017500Y-48059643D01*
X92053214Y-48023929D01*
X92124643Y-47988214D01*
X92196071Y-47988214D01*
X92303214Y-48023929D01*
X92731786Y-48452500D01*
X92731786Y-47988214D01*
X136737286Y-55989072D02*
X135987286Y-55989072D01*
X135987286Y-55810500D01*
X136023000Y-55703357D01*
X136094429Y-55631929D01*
X136165857Y-55596214D01*
X136308714Y-55560500D01*
X136415857Y-55560500D01*
X136558714Y-55596214D01*
X136630143Y-55631929D01*
X136701571Y-55703357D01*
X136737286Y-55810500D01*
X136737286Y-55989072D01*
X136737286Y-54846214D02*
X136737286Y-55274786D01*
X136737286Y-55060500D02*
X135987286Y-55060500D01*
X136094429Y-55131929D01*
X136165857Y-55203357D01*
X136201571Y-55274786D01*
X147417286Y-61208772D02*
X146667286Y-61208772D01*
X146667286Y-61030200D01*
X146703000Y-60923057D01*
X146774429Y-60851629D01*
X146845857Y-60815914D01*
X146988714Y-60780200D01*
X147095857Y-60780200D01*
X147238714Y-60815914D01*
X147310143Y-60851629D01*
X147381571Y-60923057D01*
X147417286Y-61030200D01*
X147417286Y-61208772D01*
X146738714Y-60494486D02*
X146703000Y-60458772D01*
X146667286Y-60387343D01*
X146667286Y-60208772D01*
X146703000Y-60137343D01*
X146738714Y-60101629D01*
X146810143Y-60065914D01*
X146881571Y-60065914D01*
X146988714Y-60101629D01*
X147417286Y-60530200D01*
X147417286Y-60065914D01*
X85339286Y-46425972D02*
X84589286Y-46425972D01*
X84589286Y-46140257D01*
X84625000Y-46068829D01*
X84660714Y-46033114D01*
X84732143Y-45997400D01*
X84839286Y-45997400D01*
X84910714Y-46033114D01*
X84946429Y-46068829D01*
X84982143Y-46140257D01*
X84982143Y-46425972D01*
X85339286Y-45283114D02*
X85339286Y-45711686D01*
X85339286Y-45497400D02*
X84589286Y-45497400D01*
X84696429Y-45568829D01*
X84767857Y-45640257D01*
X84803571Y-45711686D01*
X167784714Y-67571929D02*
X167749000Y-67643357D01*
X167677571Y-67714786D01*
X167570429Y-67821929D01*
X167534714Y-67893357D01*
X167534714Y-67964786D01*
X167713286Y-67929071D02*
X167677571Y-68000500D01*
X167606143Y-68071929D01*
X167463286Y-68107643D01*
X167213286Y-68107643D01*
X167070429Y-68071929D01*
X166999000Y-68000500D01*
X166963286Y-67929071D01*
X166963286Y-67786214D01*
X166999000Y-67714786D01*
X167070429Y-67643357D01*
X167213286Y-67607643D01*
X167463286Y-67607643D01*
X167606143Y-67643357D01*
X167677571Y-67714786D01*
X167713286Y-67786214D01*
X167713286Y-67929071D01*
X167713286Y-66893357D02*
X167713286Y-67321929D01*
X167713286Y-67107643D02*
X166963286Y-67107643D01*
X167070429Y-67179072D01*
X167141857Y-67250500D01*
X167177571Y-67321929D01*
X140718000Y-54504786D02*
X140468000Y-54147643D01*
X140289428Y-54504786D02*
X140289428Y-53754786D01*
X140575143Y-53754786D01*
X140646571Y-53790500D01*
X140682286Y-53826214D01*
X140718000Y-53897643D01*
X140718000Y-54004786D01*
X140682286Y-54076214D01*
X140646571Y-54111929D01*
X140575143Y-54147643D01*
X140289428Y-54147643D01*
X141432286Y-54504786D02*
X141003714Y-54504786D01*
X141218000Y-54504786D02*
X141218000Y-53754786D01*
X141146571Y-53861929D01*
X141075143Y-53933357D01*
X141003714Y-53969071D01*
X143912786Y-59688000D02*
X143555643Y-59938000D01*
X143912786Y-60116572D02*
X143162786Y-60116572D01*
X143162786Y-59830857D01*
X143198500Y-59759429D01*
X143234214Y-59723714D01*
X143305643Y-59688000D01*
X143412786Y-59688000D01*
X143484214Y-59723714D01*
X143519929Y-59759429D01*
X143555643Y-59830857D01*
X143555643Y-60116572D01*
X143234214Y-59402286D02*
X143198500Y-59366572D01*
X143162786Y-59295143D01*
X143162786Y-59116572D01*
X143198500Y-59045143D01*
X143234214Y-59009429D01*
X143305643Y-58973714D01*
X143377071Y-58973714D01*
X143484214Y-59009429D01*
X143912786Y-59438000D01*
X143912786Y-58973714D01*
X143912786Y-61529500D02*
X143555643Y-61779500D01*
X143912786Y-61958072D02*
X143162786Y-61958072D01*
X143162786Y-61672357D01*
X143198500Y-61600929D01*
X143234214Y-61565214D01*
X143305643Y-61529500D01*
X143412786Y-61529500D01*
X143484214Y-61565214D01*
X143519929Y-61600929D01*
X143555643Y-61672357D01*
X143555643Y-61958072D01*
X143162786Y-61279500D02*
X143162786Y-60815214D01*
X143448500Y-61065214D01*
X143448500Y-60958072D01*
X143484214Y-60886643D01*
X143519929Y-60850929D01*
X143591357Y-60815214D01*
X143769929Y-60815214D01*
X143841357Y-60850929D01*
X143877071Y-60886643D01*
X143912786Y-60958072D01*
X143912786Y-61172357D01*
X143877071Y-61243786D01*
X143841357Y-61279500D01*
X233999500Y-51698086D02*
X233749500Y-51340943D01*
X233570928Y-51698086D02*
X233570928Y-50948086D01*
X233856643Y-50948086D01*
X233928071Y-50983800D01*
X233963786Y-51019514D01*
X233999500Y-51090943D01*
X233999500Y-51198086D01*
X233963786Y-51269514D01*
X233928071Y-51305229D01*
X233856643Y-51340943D01*
X233570928Y-51340943D01*
X234642357Y-51198086D02*
X234642357Y-51698086D01*
X234463786Y-50912371D02*
X234285214Y-51448086D01*
X234749500Y-51448086D01*
X231472200Y-51698086D02*
X231222200Y-51340943D01*
X231043628Y-51698086D02*
X231043628Y-50948086D01*
X231329343Y-50948086D01*
X231400771Y-50983800D01*
X231436486Y-51019514D01*
X231472200Y-51090943D01*
X231472200Y-51198086D01*
X231436486Y-51269514D01*
X231400771Y-51305229D01*
X231329343Y-51340943D01*
X231043628Y-51340943D01*
X232115057Y-50948086D02*
X231972200Y-50948086D01*
X231900771Y-50983800D01*
X231865057Y-51019514D01*
X231793628Y-51126657D01*
X231757914Y-51269514D01*
X231757914Y-51555229D01*
X231793628Y-51626657D01*
X231829343Y-51662371D01*
X231900771Y-51698086D01*
X232043628Y-51698086D01*
X232115057Y-51662371D01*
X232150771Y-51626657D01*
X232186486Y-51555229D01*
X232186486Y-51376657D01*
X232150771Y-51305229D01*
X232115057Y-51269514D01*
X232043628Y-51233800D01*
X231900771Y-51233800D01*
X231829343Y-51269514D01*
X231793628Y-51305229D01*
X231757914Y-51376657D01*
X228322600Y-51698086D02*
X228072600Y-51340943D01*
X227894028Y-51698086D02*
X227894028Y-50948086D01*
X228179743Y-50948086D01*
X228251171Y-50983800D01*
X228286886Y-51019514D01*
X228322600Y-51090943D01*
X228322600Y-51198086D01*
X228286886Y-51269514D01*
X228251171Y-51305229D01*
X228179743Y-51340943D01*
X227894028Y-51340943D01*
X228679743Y-51698086D02*
X228822600Y-51698086D01*
X228894028Y-51662371D01*
X228929743Y-51626657D01*
X229001171Y-51519514D01*
X229036886Y-51376657D01*
X229036886Y-51090943D01*
X229001171Y-51019514D01*
X228965457Y-50983800D01*
X228894028Y-50948086D01*
X228751171Y-50948086D01*
X228679743Y-50983800D01*
X228644028Y-51019514D01*
X228608314Y-51090943D01*
X228608314Y-51269514D01*
X228644028Y-51340943D01*
X228679743Y-51376657D01*
X228751171Y-51412371D01*
X228894028Y-51412371D01*
X228965457Y-51376657D01*
X229001171Y-51340943D01*
X229036886Y-51269514D01*
X134895786Y-61124643D02*
X134538643Y-61374643D01*
X134895786Y-61553215D02*
X134145786Y-61553215D01*
X134145786Y-61267500D01*
X134181500Y-61196072D01*
X134217214Y-61160357D01*
X134288643Y-61124643D01*
X134395786Y-61124643D01*
X134467214Y-61160357D01*
X134502929Y-61196072D01*
X134538643Y-61267500D01*
X134538643Y-61553215D01*
X134895786Y-60410357D02*
X134895786Y-60838929D01*
X134895786Y-60624643D02*
X134145786Y-60624643D01*
X134252929Y-60696072D01*
X134324357Y-60767500D01*
X134360071Y-60838929D01*
X134895786Y-59696071D02*
X134895786Y-60124643D01*
X134895786Y-59910357D02*
X134145786Y-59910357D01*
X134252929Y-59981786D01*
X134324357Y-60053214D01*
X134360071Y-60124643D01*
X80975971Y-51100486D02*
X80975971Y-51707629D01*
X81011686Y-51779057D01*
X81047400Y-51814771D01*
X81118829Y-51850486D01*
X81261686Y-51850486D01*
X81333114Y-51814771D01*
X81368829Y-51779057D01*
X81404543Y-51707629D01*
X81404543Y-51100486D01*
X82154543Y-51850486D02*
X81725971Y-51850486D01*
X81940257Y-51850486D02*
X81940257Y-51100486D01*
X81868828Y-51207629D01*
X81797400Y-51279057D01*
X81725971Y-51314771D01*
X136050786Y-58102429D02*
X136657929Y-58102429D01*
X136729357Y-58066714D01*
X136765071Y-58031000D01*
X136800786Y-57959571D01*
X136800786Y-57816714D01*
X136765071Y-57745286D01*
X136729357Y-57709571D01*
X136657929Y-57673857D01*
X136050786Y-57673857D01*
X136050786Y-57388143D02*
X136050786Y-56923857D01*
X136336500Y-57173857D01*
X136336500Y-57066715D01*
X136372214Y-56995286D01*
X136407929Y-56959572D01*
X136479357Y-56923857D01*
X136657929Y-56923857D01*
X136729357Y-56959572D01*
X136765071Y-56995286D01*
X136800786Y-57066715D01*
X136800786Y-57281000D01*
X136765071Y-57352429D01*
X136729357Y-57388143D01*
X207824686Y-41028472D02*
X207074686Y-41028472D01*
X207074686Y-40742757D01*
X207110400Y-40671329D01*
X207146114Y-40635614D01*
X207217543Y-40599900D01*
X207324686Y-40599900D01*
X207396114Y-40635614D01*
X207431829Y-40671329D01*
X207467543Y-40742757D01*
X207467543Y-41028472D01*
X207324686Y-39957043D02*
X207824686Y-39957043D01*
X207038971Y-40135614D02*
X207574686Y-40314186D01*
X207574686Y-39849900D01*
X182529800Y-91214285D02*
X182494086Y-91285714D01*
X182494086Y-91392857D01*
X182529800Y-91500000D01*
X182601229Y-91571428D01*
X182672657Y-91607143D01*
X182815514Y-91642857D01*
X182922657Y-91642857D01*
X183065514Y-91607143D01*
X183136943Y-91571428D01*
X183208371Y-91500000D01*
X183244086Y-91392857D01*
X183244086Y-91321428D01*
X183208371Y-91214285D01*
X183172657Y-91178571D01*
X182922657Y-91178571D01*
X182922657Y-91321428D01*
X183244086Y-90500000D02*
X183244086Y-90857143D01*
X182494086Y-90857143D01*
X183172657Y-89821428D02*
X183208371Y-89857142D01*
X183244086Y-89964285D01*
X183244086Y-90035714D01*
X183208371Y-90142857D01*
X183136943Y-90214285D01*
X183065514Y-90250000D01*
X182922657Y-90285714D01*
X182815514Y-90285714D01*
X182672657Y-90250000D01*
X182601229Y-90214285D01*
X182529800Y-90142857D01*
X182494086Y-90035714D01*
X182494086Y-89964285D01*
X182529800Y-89857142D01*
X182565514Y-89821428D01*
X183244086Y-89500000D02*
X182494086Y-89500000D01*
X182494086Y-89321428D01*
X182529800Y-89214285D01*
X182601229Y-89142857D01*
X182672657Y-89107142D01*
X182815514Y-89071428D01*
X182922657Y-89071428D01*
X183065514Y-89107142D01*
X183136943Y-89142857D01*
X183208371Y-89214285D01*
X183244086Y-89321428D01*
X183244086Y-89500000D01*
X183244086Y-88357142D02*
X183244086Y-88785714D01*
X183244086Y-88571428D02*
X182494086Y-88571428D01*
X182601229Y-88642857D01*
X182672657Y-88714285D01*
X182708371Y-88785714D01*
X106380600Y-91214285D02*
X106344886Y-91285714D01*
X106344886Y-91392857D01*
X106380600Y-91500000D01*
X106452029Y-91571428D01*
X106523457Y-91607143D01*
X106666314Y-91642857D01*
X106773457Y-91642857D01*
X106916314Y-91607143D01*
X106987743Y-91571428D01*
X107059171Y-91500000D01*
X107094886Y-91392857D01*
X107094886Y-91321428D01*
X107059171Y-91214285D01*
X107023457Y-91178571D01*
X106773457Y-91178571D01*
X106773457Y-91321428D01*
X107094886Y-90500000D02*
X107094886Y-90857143D01*
X106344886Y-90857143D01*
X107023457Y-89821428D02*
X107059171Y-89857142D01*
X107094886Y-89964285D01*
X107094886Y-90035714D01*
X107059171Y-90142857D01*
X106987743Y-90214285D01*
X106916314Y-90250000D01*
X106773457Y-90285714D01*
X106666314Y-90285714D01*
X106523457Y-90250000D01*
X106452029Y-90214285D01*
X106380600Y-90142857D01*
X106344886Y-90035714D01*
X106344886Y-89964285D01*
X106380600Y-89857142D01*
X106416314Y-89821428D01*
X107094886Y-89500000D02*
X106344886Y-89500000D01*
X106344886Y-89321428D01*
X106380600Y-89214285D01*
X106452029Y-89142857D01*
X106523457Y-89107142D01*
X106666314Y-89071428D01*
X106773457Y-89071428D01*
X106916314Y-89107142D01*
X106987743Y-89142857D01*
X107059171Y-89214285D01*
X107094886Y-89321428D01*
X107094886Y-89500000D01*
X106416314Y-88785714D02*
X106380600Y-88750000D01*
X106344886Y-88678571D01*
X106344886Y-88500000D01*
X106380600Y-88428571D01*
X106416314Y-88392857D01*
X106487743Y-88357142D01*
X106559171Y-88357142D01*
X106666314Y-88392857D01*
X107094886Y-88821428D01*
X107094886Y-88357142D01*
M02*
