G04 #@! TF.FileFunction,Copper,L2,Bot,Signal*
%FSLAX46Y46*%
G04 Gerber Fmt 4.6, Leading zero omitted, Abs format (unit mm)*
G04 Created by KiCad (PCBNEW (2015-05-18 BZR 5668)-product) date Wed 16 Sep 2015 05:41:14 PM CEST*
%MOMM*%
G01*
G04 APERTURE LIST*
%ADD10C,0.100000*%
%ADD11R,0.750000X0.800000*%
%ADD12R,1.250000X1.000000*%
%ADD13R,0.800000X0.750000*%
%ADD14R,1.300000X0.700000*%
%ADD15C,1.600000*%
%ADD16R,2.800000X3.600000*%
%ADD17R,1.050000X1.050000*%
%ADD18C,1.050000*%
%ADD19R,0.500000X0.900000*%
%ADD20R,2.032000X2.032000*%
%ADD21O,2.032000X2.032000*%
%ADD22O,1.600000X1.600000*%
%ADD23R,1.600000X1.600000*%
%ADD24R,1.727200X1.727200*%
%ADD25O,1.727200X1.727200*%
%ADD26R,0.500000X0.320000*%
%ADD27C,1.000000*%
%ADD28C,3.500000*%
%ADD29C,0.900000*%
%ADD30C,0.600000*%
%ADD31C,0.750000*%
%ADD32C,1.350000*%
%ADD33C,0.508000*%
%ADD34C,0.381000*%
%ADD35C,0.304800*%
%ADD36C,0.762000*%
%ADD37C,0.254000*%
G04 APERTURE END LIST*
D10*
D11*
X196309100Y-86342600D03*
X196309100Y-87842600D03*
D12*
X194086600Y-85775100D03*
X194086600Y-87775100D03*
D11*
X121061600Y-87358600D03*
X121061600Y-88858600D03*
D12*
X118839100Y-86854600D03*
X118839100Y-88854600D03*
D11*
X165671500Y-68949000D03*
X165671500Y-67449000D03*
D13*
X152285000Y-62611000D03*
X153785000Y-62611000D03*
X152285000Y-64262000D03*
X153785000Y-64262000D03*
X194742500Y-96329500D03*
X193242500Y-96329500D03*
X231636000Y-76327000D03*
X230136000Y-76327000D03*
X118542500Y-96393000D03*
X117042500Y-96393000D03*
X231636000Y-96266000D03*
X230136000Y-96266000D03*
X81698400Y-76200000D03*
X83198400Y-76200000D03*
X81698400Y-96266000D03*
X83198400Y-96266000D03*
D14*
X193229900Y-94368800D03*
X193229900Y-93268800D03*
X193229900Y-92168800D03*
X196329900Y-92168800D03*
X196329900Y-93268800D03*
X196329900Y-94368800D03*
X230123400Y-74302800D03*
X230123400Y-73202800D03*
X230123400Y-72102800D03*
X233223400Y-72102800D03*
X233223400Y-73202800D03*
X233223400Y-74302800D03*
X117017200Y-94368800D03*
X117017200Y-93268800D03*
X117017200Y-92168800D03*
X120117200Y-92168800D03*
X120117200Y-93268800D03*
X120117200Y-94368800D03*
X230123400Y-94356100D03*
X230123400Y-93256100D03*
X230123400Y-92156100D03*
X233223400Y-92156100D03*
X233223400Y-93256100D03*
X233223400Y-94356100D03*
X83236400Y-72102800D03*
X83236400Y-73202800D03*
X83236400Y-74302800D03*
X80136400Y-74302800D03*
X80136400Y-73202800D03*
X80136400Y-72102800D03*
X83223700Y-92156100D03*
X83223700Y-93256100D03*
X83223700Y-94356100D03*
X80123700Y-94356100D03*
X80123700Y-93256100D03*
X80123700Y-92156100D03*
D15*
X192307200Y-55727600D03*
X192307200Y-41227600D03*
X197307200Y-55727600D03*
X197307200Y-41227600D03*
X194807200Y-55727600D03*
D16*
X188207200Y-48227600D03*
X201407200Y-48227600D03*
D15*
X116081800Y-55778400D03*
X116081800Y-41278400D03*
X121081800Y-55778400D03*
X121081800Y-41278400D03*
X118581800Y-55778400D03*
D16*
X111981800Y-48278400D03*
X125181800Y-48278400D03*
D17*
X150431500Y-48958500D03*
D18*
X149161500Y-48958500D03*
X147891500Y-48958500D03*
X146621500Y-48958500D03*
X145351500Y-48958500D03*
X149161500Y-50228500D03*
X147891500Y-50228500D03*
X146621500Y-50228500D03*
X145351500Y-50228500D03*
X150431500Y-50228500D03*
D19*
X191275400Y-94970600D03*
X189775400Y-94970600D03*
X227965700Y-74879200D03*
X226465700Y-74879200D03*
X191275400Y-93268800D03*
X189775400Y-93268800D03*
X227965700Y-73202800D03*
X226465700Y-73202800D03*
X191275400Y-91592400D03*
X189775400Y-91592400D03*
X227965700Y-71526400D03*
X226465700Y-71526400D03*
X115050000Y-94970600D03*
X113550000Y-94970600D03*
X227965700Y-94919800D03*
X226465700Y-94919800D03*
X115050000Y-93268800D03*
X113550000Y-93268800D03*
X227965700Y-93243400D03*
X226465700Y-93243400D03*
X115050000Y-91567000D03*
X113550000Y-91567000D03*
X227965700Y-91567000D03*
X226465700Y-91567000D03*
X85394100Y-71526400D03*
X86894100Y-71526400D03*
X85394100Y-73202800D03*
X86894100Y-73202800D03*
X85394100Y-74879200D03*
X86894100Y-74879200D03*
X85394100Y-91567000D03*
X86894100Y-91567000D03*
X85394100Y-93243400D03*
X86894100Y-93243400D03*
X85394100Y-94919800D03*
X86894100Y-94919800D03*
D20*
X167010500Y-80010000D03*
D21*
X164470500Y-80010000D03*
D20*
X148849500Y-80010000D03*
D21*
X146309500Y-80010000D03*
D22*
X88000000Y-45872400D03*
D23*
X90000000Y-45872400D03*
D24*
X210000000Y-45847000D03*
D25*
X210000000Y-43307000D03*
X212540000Y-45847000D03*
X212540000Y-43307000D03*
X215080000Y-45847000D03*
X215080000Y-43307000D03*
X217620000Y-45847000D03*
X217620000Y-43307000D03*
X220160000Y-45847000D03*
X220160000Y-43307000D03*
X222700000Y-45847000D03*
X222700000Y-43307000D03*
X225240000Y-45847000D03*
X225240000Y-43307000D03*
X227780000Y-45847000D03*
X227780000Y-43307000D03*
X230320000Y-45847000D03*
X230320000Y-43307000D03*
X232860000Y-45847000D03*
X232860000Y-43307000D03*
D26*
X154920000Y-59257500D03*
X154920000Y-60257500D03*
X154920000Y-59757500D03*
X154920000Y-60757500D03*
X153920000Y-59757500D03*
X153920000Y-59257500D03*
X153920000Y-60257500D03*
X153920000Y-60757500D03*
D27*
X78510800Y-97579000D03*
X156666600Y-49293600D03*
X225297400Y-97579000D03*
D28*
X75183400Y-101490600D03*
X156666600Y-89070000D03*
X238175200Y-101490600D03*
X75183400Y-42562600D03*
X238175200Y-42562600D03*
D29*
X186562400Y-60571200D03*
X204596400Y-60571200D03*
X157098400Y-84396400D03*
X176300800Y-95826400D03*
X204596400Y-68902400D03*
X194080800Y-83329600D03*
X204596400Y-83329600D03*
X216686800Y-83329600D03*
X142671200Y-89984400D03*
X142671200Y-95826400D03*
X167004400Y-95826400D03*
X222732000Y-68902400D03*
X222732000Y-55745200D03*
X222732000Y-49039600D03*
X211454400Y-52646400D03*
X215061200Y-49039600D03*
X193369600Y-68902400D03*
X211454400Y-68902400D03*
X211454400Y-55745200D03*
X176402400Y-79976800D03*
X176402400Y-62603200D03*
X176402400Y-68902400D03*
X176402400Y-48226800D03*
X176402400Y-46093200D03*
X176402400Y-52392400D03*
X149173600Y-46093200D03*
X167614000Y-46093200D03*
X167614000Y-52392400D03*
X158114400Y-52392400D03*
X131850800Y-41216400D03*
X149630800Y-41216400D03*
X163092800Y-41216400D03*
X183717600Y-41216400D03*
X139216800Y-48277600D03*
X132511200Y-48277600D03*
X134594000Y-73322000D03*
X132511200Y-60571200D03*
X132511200Y-70121600D03*
X134594000Y-80027600D03*
X134594000Y-89984400D03*
X112800800Y-60571200D03*
X124637200Y-60571200D03*
X112800800Y-70121600D03*
X124637200Y-70121600D03*
X108838400Y-77386000D03*
X102640800Y-77386000D03*
X102640800Y-70121600D03*
X102640800Y-97604400D03*
X102640800Y-88816000D03*
X88874000Y-88816000D03*
X88874000Y-97604400D03*
X83210400Y-88816000D03*
X95173200Y-70121600D03*
X95173200Y-77386000D03*
X95173200Y-88765200D03*
X118364000Y-48260000D03*
X230124000Y-83312000D03*
X230124000Y-97739200D03*
D30*
X148488400Y-56845200D03*
X143408400Y-55981600D03*
X83210400Y-77368400D03*
X83210400Y-97586800D03*
X112014000Y-96977200D03*
X196850000Y-96977200D03*
X230124000Y-77724000D03*
X153670000Y-76098400D03*
X158089600Y-76098400D03*
X157924500Y-69342000D03*
X155956000Y-67564000D03*
X157289500Y-65976500D03*
X159829500Y-65976500D03*
X168771000Y-67881500D03*
X155003500Y-63373000D03*
D29*
X76732800Y-70121600D03*
X76732800Y-77386000D03*
X76732800Y-88816000D03*
D30*
X215595200Y-79705200D03*
X121310400Y-50342800D03*
X118567200Y-50342800D03*
X187553600Y-43180000D03*
D29*
X109626400Y-43942000D03*
X189992000Y-43942000D03*
X228447600Y-53644800D03*
X223202500Y-100901500D03*
D30*
X190804800Y-49428400D03*
X198780400Y-49428400D03*
X228447600Y-49530000D03*
X194086600Y-89378600D03*
X166751000Y-68961000D03*
X171577000Y-68199000D03*
X231584500Y-49530000D03*
X234124500Y-49530000D03*
X114871500Y-88836500D03*
X120078500Y-89979500D03*
X151320500Y-62611000D03*
X151320500Y-64262000D03*
X190563500Y-89344500D03*
D31*
X212344000Y-90487500D03*
X136144000Y-91033600D03*
X231648000Y-77724000D03*
X151320500Y-66929000D03*
D30*
X147637500Y-54737000D03*
X145288000Y-54737000D03*
X158724600Y-67538600D03*
X158724600Y-69418200D03*
X160705800Y-78054200D03*
D29*
X81711800Y-100939600D03*
D32*
X92049600Y-59944000D03*
X92049600Y-57861200D03*
X97383600Y-62788800D03*
X92049600Y-62788800D03*
X102260400Y-59944000D03*
X102260400Y-57912000D03*
X102260400Y-62788800D03*
X97383600Y-64922400D03*
X92049600Y-64922400D03*
X102260400Y-64922400D03*
X97383600Y-66954400D03*
X92049600Y-66954400D03*
X102260400Y-66954400D03*
X99923600Y-63906400D03*
X94691200Y-63906400D03*
X99872800Y-65938400D03*
X94691200Y-65938400D03*
X99923600Y-61772800D03*
X94691200Y-61772800D03*
D30*
X155638500Y-69469000D03*
X164211000Y-70739000D03*
X157035500Y-69469000D03*
X163576000Y-70040500D03*
X162115500Y-55816500D03*
X161226500Y-55816500D03*
X161226500Y-54927500D03*
X160337500Y-54927500D03*
X162230500Y-57086500D03*
X217868500Y-77762100D03*
X217868500Y-76466700D03*
X163500500Y-57594500D03*
X160337500Y-53975000D03*
X141795500Y-55435500D03*
X198882000Y-56261000D03*
X151816500Y-61404500D03*
X149606000Y-54737000D03*
X153912000Y-61531500D03*
X152959500Y-61531500D03*
X151638000Y-54737000D03*
X151181500Y-60706000D03*
X158940500Y-78041500D03*
X166370000Y-58864500D03*
X167259000Y-58864500D03*
X165481000Y-58864500D03*
X160337500Y-62865000D03*
X160909000Y-63373000D03*
X225328600Y-74837100D03*
X159702500Y-62357000D03*
X225328600Y-71535100D03*
X224066800Y-76936600D03*
X224371600Y-76225400D03*
X225336800Y-76225400D03*
X221437200Y-71628000D03*
X221437200Y-72542400D03*
X221437200Y-73456800D03*
X160845500Y-69342000D03*
X172974000Y-61214000D03*
X173037500Y-56769000D03*
X159512000Y-69342000D03*
X172085000Y-56769000D03*
X172085000Y-61214000D03*
X188912500Y-56324500D03*
X189928500Y-56324500D03*
X165469000Y-57594500D03*
X164453000Y-57594500D03*
D32*
X78892400Y-61772800D03*
X84124800Y-61772800D03*
X78892400Y-65938400D03*
X84074000Y-65938400D03*
X78892400Y-63906400D03*
X84124800Y-63906400D03*
X86461600Y-66954400D03*
X76250800Y-66954400D03*
X81584800Y-66954400D03*
X86461600Y-64922400D03*
X76250800Y-64922400D03*
X81584800Y-64922400D03*
X86461600Y-62788800D03*
X86461600Y-57912000D03*
X86461600Y-59944000D03*
X76250800Y-62788800D03*
X81584800Y-62788800D03*
X76250800Y-57861200D03*
X76250800Y-59944000D03*
D30*
X225328600Y-73186100D03*
X221437200Y-74371200D03*
X221437200Y-75336400D03*
X221437200Y-76250800D03*
X139636500Y-64071500D03*
X148437600Y-65913000D03*
D33*
X186562400Y-60571200D02*
X204596400Y-60571200D01*
X157098400Y-84396400D02*
X162624100Y-84396400D01*
X162624100Y-84396400D02*
X167010500Y-80010000D01*
X148849500Y-80010000D02*
X153235900Y-84396400D01*
X153235900Y-84396400D02*
X157098400Y-84396400D01*
X176300800Y-95826400D02*
X176402400Y-95724800D01*
X176402400Y-95724800D02*
X176402400Y-79976800D01*
X204596400Y-83329600D02*
X204596400Y-68902400D01*
X194080800Y-83329600D02*
X194086600Y-83335400D01*
X194086600Y-83335400D02*
X194086600Y-85775100D01*
X134594000Y-89984400D02*
X142671200Y-89984400D01*
X142671200Y-95826400D02*
X167004400Y-95826400D01*
X222732000Y-68902400D02*
X211454400Y-68902400D01*
X222732000Y-55745200D02*
X222732000Y-49039600D01*
X211454400Y-52646400D02*
X215061200Y-49039600D01*
X193369600Y-68902400D02*
X211454400Y-68902400D01*
X176402400Y-68902400D02*
X176402400Y-79976800D01*
X176402400Y-62603200D02*
X176402400Y-68902400D01*
X188207200Y-48227600D02*
X176403200Y-48227600D01*
X176403200Y-48227600D02*
X176402400Y-48226800D01*
X167614000Y-46093200D02*
X176402400Y-46093200D01*
X176402400Y-52392400D02*
X167614000Y-52392400D01*
X149173600Y-46093200D02*
X167614000Y-46093200D01*
X167614000Y-52392400D02*
X158114400Y-52392400D01*
X131850800Y-41216400D02*
X149630800Y-41216400D01*
X163092800Y-41216400D02*
X183717600Y-41216400D01*
X145351500Y-48958500D02*
X139897700Y-48958500D01*
X139897700Y-48958500D02*
X139216800Y-48277600D01*
X132511200Y-60571200D02*
X132511200Y-48277600D01*
X134594000Y-73322000D02*
X134594000Y-72204400D01*
X134594000Y-72204400D02*
X132511200Y-70121600D01*
X124637200Y-60571200D02*
X132511200Y-60571200D01*
X132511200Y-70121600D02*
X124637200Y-70121600D01*
X125181800Y-48278400D02*
X125181800Y-52762200D01*
X125181800Y-52762200D02*
X124637200Y-53306800D01*
X124637200Y-53306800D02*
X124637200Y-60571200D01*
X134594000Y-80027600D02*
X134594000Y-89984400D01*
X118592000Y-60571200D02*
X118592000Y-55788600D01*
X118592000Y-55788600D02*
X118581800Y-55778400D01*
X112800800Y-60571200D02*
X118592000Y-60571200D01*
X118592000Y-60571200D02*
X124637200Y-60571200D01*
X102640800Y-70121600D02*
X112800800Y-70121600D01*
X108838400Y-77386000D02*
X102640800Y-77386000D01*
X95173200Y-77386000D02*
X102640800Y-77386000D01*
X102640800Y-70121600D02*
X95173200Y-70121600D01*
X102640800Y-97604400D02*
X102640800Y-88816000D01*
X83210400Y-88816000D02*
X83235200Y-88816000D01*
X95173200Y-77386000D02*
X95173200Y-88765200D01*
X125163400Y-48260000D02*
X118364000Y-48260000D01*
X118345600Y-48278400D02*
X118364000Y-48260000D01*
X118345600Y-48278400D02*
X111981800Y-48278400D01*
X125163400Y-48260000D02*
X125181800Y-48278400D01*
X230136000Y-96266000D02*
X230136000Y-97727200D01*
X230124000Y-83312000D02*
X230124000Y-77724000D01*
X230136000Y-97727200D02*
X230124000Y-97739200D01*
D34*
X148488400Y-56845200D02*
X144272000Y-56845200D01*
X144272000Y-56845200D02*
X143408400Y-55981600D01*
X83198400Y-96266000D02*
X83198400Y-97574800D01*
X83210400Y-77368400D02*
X83210400Y-76212000D01*
X83198400Y-97574800D02*
X83210400Y-97586800D01*
X83210400Y-76212000D02*
X83198400Y-76200000D01*
X118839100Y-86854600D02*
X119722200Y-86854600D01*
X120226200Y-87358600D02*
X121061600Y-87358600D01*
X119722200Y-86854600D02*
X120226200Y-87358600D01*
X117042500Y-96393000D02*
X112598200Y-96393000D01*
X112598200Y-96393000D02*
X112014000Y-96977200D01*
X194086600Y-85775100D02*
X195741600Y-85775100D01*
X195741600Y-85775100D02*
X196309100Y-86342600D01*
X193242500Y-96329500D02*
X193242500Y-97382900D01*
X196850000Y-97434400D02*
X196850000Y-96977200D01*
X196342000Y-97942400D02*
X196850000Y-97434400D01*
X193802000Y-97942400D02*
X196342000Y-97942400D01*
X193242500Y-97382900D02*
X193802000Y-97942400D01*
D33*
X230136000Y-77712000D02*
X230136000Y-76327000D01*
D34*
X230124000Y-77724000D02*
X230136000Y-77712000D01*
D35*
X158089600Y-76098400D02*
X153670000Y-76098400D01*
X157543500Y-67564000D02*
X155956000Y-67564000D01*
X157924500Y-67945000D02*
X157543500Y-67564000D01*
X157924500Y-69342000D02*
X157924500Y-67945000D01*
X157289500Y-66230500D02*
X157289500Y-65976500D01*
X155956000Y-67564000D02*
X157289500Y-66230500D01*
X159829500Y-65976500D02*
X157289500Y-65976500D01*
X168771000Y-67881500D02*
X167183500Y-67881500D01*
X167183500Y-67881500D02*
X166751000Y-67449000D01*
X166751000Y-67449000D02*
X165671500Y-67449000D01*
X155003500Y-63373000D02*
X155003500Y-62992000D01*
X154622500Y-62611000D02*
X153785000Y-62611000D01*
X155003500Y-62992000D02*
X154622500Y-62611000D01*
X154622500Y-64262000D02*
X155003500Y-63881000D01*
X153785000Y-64262000D02*
X154622500Y-64262000D01*
X155003500Y-63881000D02*
X155003500Y-63373000D01*
D33*
X76732800Y-77386000D02*
X76732800Y-70121600D01*
X76732800Y-88816000D02*
X76732800Y-77386000D01*
D34*
X215595200Y-79705200D02*
X213715600Y-79705200D01*
X213715600Y-79705200D02*
X212344000Y-81076800D01*
X212344000Y-81076800D02*
X212344000Y-90487500D01*
X118567200Y-50342800D02*
X121310400Y-50342800D01*
X187553600Y-43942000D02*
X187553600Y-43180000D01*
D33*
X228447600Y-49530000D02*
X228447600Y-53644800D01*
X233223400Y-94356100D02*
X235407200Y-94356100D01*
X235376900Y-94386400D02*
X235407200Y-94386400D01*
X235407200Y-94356100D02*
X235376900Y-94386400D01*
X233223400Y-93256100D02*
X235407200Y-93256100D01*
X235394500Y-93268800D02*
X235407200Y-93268800D01*
X235407200Y-93256100D02*
X235394500Y-93268800D01*
X233223400Y-92156100D02*
X235407200Y-92156100D01*
X235402300Y-92151200D02*
X235407200Y-92151200D01*
X235407200Y-92156100D02*
X235402300Y-92151200D01*
X233223400Y-74302800D02*
X235407200Y-74302800D01*
X235374000Y-74269600D02*
X235407200Y-74269600D01*
X235407200Y-74302800D02*
X235374000Y-74269600D01*
X233223400Y-73202800D02*
X235407200Y-73202800D01*
X235305600Y-73202800D02*
X235407200Y-73202800D01*
X233223400Y-72102800D02*
X235407200Y-72102800D01*
X235389600Y-72085200D02*
X235407200Y-72085200D01*
X235407200Y-72102800D02*
X235389600Y-72085200D01*
D36*
X228447600Y-53644800D02*
X235407200Y-60604400D01*
X235407200Y-60604400D02*
X235407200Y-72085200D01*
X109626400Y-43942000D02*
X187553600Y-43942000D01*
X187553600Y-43942000D02*
X189992000Y-43942000D01*
X235407200Y-95999300D02*
X230505000Y-100901500D01*
X235407200Y-94386400D02*
X235407200Y-95999300D01*
X230505000Y-100901500D02*
X223202500Y-100901500D01*
X235407200Y-93268800D02*
X235407200Y-94386400D01*
X235407200Y-92151200D02*
X235407200Y-93268800D01*
X235407200Y-74269600D02*
X235407200Y-92151200D01*
X235407200Y-73202800D02*
X235407200Y-74269600D01*
X235407200Y-72085200D02*
X235407200Y-73202800D01*
D34*
X198780400Y-49428400D02*
X190804800Y-49428400D01*
X228447600Y-49530000D02*
X231584500Y-49530000D01*
D33*
X136144000Y-91033600D02*
X135008800Y-92168800D01*
X135008800Y-92168800D02*
X120117200Y-92168800D01*
D35*
X120078500Y-88854600D02*
X121057600Y-88854600D01*
X118839100Y-88854600D02*
X120078500Y-88854600D01*
X121057600Y-88854600D02*
X121061600Y-88858600D01*
X196309100Y-87842600D02*
X194154100Y-87842600D01*
X194154100Y-87842600D02*
X194086600Y-87775100D01*
X194086600Y-89378600D02*
X194086600Y-87775100D01*
D33*
X233215600Y-94361000D02*
X233223400Y-94368800D01*
X233215600Y-74295000D02*
X233223400Y-74302800D01*
D35*
X166751000Y-68961000D02*
X166739000Y-68949000D01*
X166739000Y-68949000D02*
X165671500Y-68949000D01*
X170815000Y-68961000D02*
X171577000Y-68199000D01*
X166751000Y-68961000D02*
X170815000Y-68961000D01*
D34*
X231584500Y-49530000D02*
X234124500Y-49530000D01*
D35*
X114889600Y-88854600D02*
X114871500Y-88836500D01*
X118839100Y-88854600D02*
X114889600Y-88854600D01*
X120078500Y-88854600D02*
X120078500Y-89979500D01*
X151320500Y-62611000D02*
X152285000Y-62611000D01*
X151320500Y-64262000D02*
X152285000Y-64262000D01*
X152285000Y-62611000D02*
X152285000Y-64262000D01*
D33*
X231636000Y-92722000D02*
X232201900Y-92156100D01*
X232201900Y-92156100D02*
X233223400Y-92156100D01*
X231636000Y-93154500D02*
X231636000Y-92722000D01*
X231636000Y-94361000D02*
X231636000Y-93154500D01*
X231636000Y-96266000D02*
X231636000Y-94361000D01*
X231636000Y-93256100D02*
X231648000Y-93244100D01*
X231648000Y-93244100D02*
X231648000Y-93154500D01*
X231648000Y-93154500D02*
X231636000Y-93154500D01*
X233223400Y-93256100D02*
X231636000Y-93256100D01*
X233218500Y-94361000D02*
X233223400Y-94356100D01*
X231636000Y-94361000D02*
X233218500Y-94361000D01*
X232062200Y-72102800D02*
X231636000Y-72529000D01*
X233223400Y-72102800D02*
X232062200Y-72102800D01*
X231636000Y-72529000D02*
X231636000Y-73152000D01*
X231636000Y-74295000D02*
X231636000Y-76327000D01*
X231636000Y-73152000D02*
X231636000Y-74295000D01*
X231636000Y-73202800D02*
X231686800Y-73152000D01*
X231686800Y-73152000D02*
X231636000Y-73152000D01*
X233223400Y-73202800D02*
X231636000Y-73202800D01*
X231636000Y-74302800D02*
X231643800Y-74295000D01*
X231643800Y-74295000D02*
X231636000Y-74295000D01*
X233223400Y-74302800D02*
X231636000Y-74302800D01*
X233269300Y-92202000D02*
X233223400Y-92156100D01*
X233253700Y-72072500D02*
X233223400Y-72102800D01*
D35*
X190597600Y-89378600D02*
X190563500Y-89344500D01*
X194086600Y-89378600D02*
X190597600Y-89378600D01*
D33*
X195232200Y-92168800D02*
X196329900Y-92168800D01*
X194742500Y-92658500D02*
X195232200Y-92168800D01*
X194742500Y-93281500D02*
X194742500Y-92658500D01*
X194742500Y-94361000D02*
X194742500Y-93281500D01*
X194742500Y-96329500D02*
X194742500Y-94361000D01*
X194742500Y-93268800D02*
X194755200Y-93281500D01*
X194755200Y-93281500D02*
X194742500Y-93281500D01*
X196329900Y-93268800D02*
X194742500Y-93268800D01*
X194742500Y-94368800D02*
X194750300Y-94361000D01*
X194750300Y-94361000D02*
X194742500Y-94361000D01*
X196329900Y-94368800D02*
X194742500Y-94368800D01*
X210662700Y-92168800D02*
X212344000Y-90487500D01*
X196329900Y-92168800D02*
X210662700Y-92168800D01*
X118542500Y-92785500D02*
X119159200Y-92168800D01*
X118542500Y-93281500D02*
X118542500Y-92785500D01*
X119159200Y-92168800D02*
X120117200Y-92168800D01*
X118542500Y-94361000D02*
X118542500Y-93281500D01*
X118542500Y-96393000D02*
X118542500Y-94361000D01*
X118542500Y-93268800D02*
X118555200Y-93281500D01*
X118555200Y-93281500D02*
X118542500Y-93281500D01*
X120117200Y-93268800D02*
X118542500Y-93268800D01*
X118542500Y-94368800D02*
X118550300Y-94361000D01*
X118550300Y-94361000D02*
X118542500Y-94361000D01*
X120117200Y-94368800D02*
X118542500Y-94368800D01*
D34*
X120078500Y-92130100D02*
X120117200Y-92168800D01*
D35*
X120078500Y-89979500D02*
X120078500Y-92130100D01*
X195741100Y-89378600D02*
X196329900Y-89967400D01*
X196329900Y-89967400D02*
X196329900Y-92168800D01*
X194086600Y-89378600D02*
X195741100Y-89378600D01*
D34*
X231648000Y-77724000D02*
X231636000Y-77712000D01*
X231636000Y-77712000D02*
X231636000Y-76327000D01*
D35*
X151320500Y-64262000D02*
X151320500Y-66929000D01*
X147637500Y-54737000D02*
X145288000Y-54737000D01*
X158724600Y-67538600D02*
X158724600Y-69418200D01*
X165671500Y-70523100D02*
X160705800Y-75488800D01*
X160705800Y-75488800D02*
X160705800Y-78054200D01*
X165671500Y-68949000D02*
X165671500Y-70523100D01*
D33*
X81686400Y-74168000D02*
X81686400Y-74117200D01*
X81686400Y-73202800D02*
X81686400Y-74168000D01*
X81686400Y-72567800D02*
X81686400Y-73202800D01*
X81221400Y-72102800D02*
X81686400Y-72567800D01*
X80136400Y-72102800D02*
X81221400Y-72102800D01*
X81686400Y-76188000D02*
X81698400Y-76200000D01*
X81686400Y-74345800D02*
X81686400Y-76188000D01*
X81686400Y-74168000D02*
X81686400Y-74345800D01*
X80179400Y-74345800D02*
X80136400Y-74302800D01*
X81686400Y-74345800D02*
X80179400Y-74345800D01*
X81686400Y-73202800D02*
X80136400Y-73202800D01*
X81698400Y-100926200D02*
X81698400Y-96266000D01*
D36*
X81711800Y-100939600D02*
X81698400Y-100926200D01*
D33*
X81698400Y-92151200D02*
X81698400Y-76200000D01*
X81698400Y-93268800D02*
X81698400Y-92151200D01*
X81698400Y-94386400D02*
X81698400Y-93268800D01*
X81698400Y-96266000D02*
X81698400Y-94386400D01*
X81698400Y-92156100D02*
X81693500Y-92151200D01*
X81693500Y-92151200D02*
X81698400Y-92151200D01*
X80123700Y-92156100D02*
X81698400Y-92156100D01*
X80136400Y-93268800D02*
X80123700Y-93256100D01*
X81698400Y-93268800D02*
X80136400Y-93268800D01*
X80154000Y-94386400D02*
X80123700Y-94356100D01*
X81698400Y-94386400D02*
X80154000Y-94386400D01*
D36*
X92049600Y-57861200D02*
X92049600Y-59944000D01*
X94691200Y-62788800D02*
X97383600Y-62788800D01*
X92049600Y-62788800D02*
X94691200Y-62788800D01*
X102260400Y-57912000D02*
X102260400Y-59944000D01*
X99923600Y-62788800D02*
X97383600Y-62788800D01*
X102260400Y-62788800D02*
X99923600Y-62788800D01*
X92049600Y-64922400D02*
X97383600Y-64922400D01*
X97383600Y-64922400D02*
X102260400Y-64922400D01*
X92049600Y-66954400D02*
X97383600Y-66954400D01*
X97383600Y-66954400D02*
X102260400Y-66954400D01*
X99923600Y-62788800D02*
X99923600Y-62839600D01*
X99923600Y-63906400D02*
X99923600Y-62788800D01*
X94691200Y-62788800D02*
X94691200Y-63906400D01*
X94691200Y-65938400D02*
X99872800Y-65938400D01*
X94691200Y-61772800D02*
X99923600Y-61772800D01*
D33*
X191275400Y-94970600D02*
X191731900Y-94970600D01*
X192333700Y-94368800D02*
X193229900Y-94368800D01*
X191731900Y-94970600D02*
X192333700Y-94368800D01*
X191275400Y-93268800D02*
X193229900Y-93268800D01*
X191275400Y-91592400D02*
X191795400Y-91592400D01*
X192371800Y-92168800D02*
X193229900Y-92168800D01*
X191795400Y-91592400D02*
X192371800Y-92168800D01*
X115050000Y-94970600D02*
X115595400Y-94970600D01*
X116197200Y-94368800D02*
X117017200Y-94368800D01*
X115595400Y-94970600D02*
X116197200Y-94368800D01*
X115050000Y-93268800D02*
X117017200Y-93268800D01*
X115050000Y-91567000D02*
X115570000Y-91567000D01*
X116171800Y-92168800D02*
X117017200Y-92168800D01*
X115570000Y-91567000D02*
X116171800Y-92168800D01*
X227965700Y-74879200D02*
X228587300Y-74879200D01*
X229163700Y-74302800D02*
X230123400Y-74302800D01*
X228587300Y-74879200D02*
X229163700Y-74302800D01*
X227965700Y-73202800D02*
X230123400Y-73202800D01*
X227965700Y-71526400D02*
X228498400Y-71526400D01*
X229074800Y-72102800D02*
X230123400Y-72102800D01*
X228498400Y-71526400D02*
X229074800Y-72102800D01*
X228587300Y-94945200D02*
X229163700Y-94368800D01*
X229163700Y-94368800D02*
X230123400Y-94368800D01*
X227965700Y-94945200D02*
X228587300Y-94945200D01*
X227965700Y-93268800D02*
X230123400Y-93268800D01*
X228498400Y-91592400D02*
X229074800Y-92168800D01*
X229074800Y-92168800D02*
X230123400Y-92168800D01*
X227965700Y-91592400D02*
X228498400Y-91592400D01*
X83236400Y-72102800D02*
X84297700Y-72102800D01*
X84874100Y-71526400D02*
X85394100Y-71526400D01*
X84297700Y-72102800D02*
X84874100Y-71526400D01*
X83236400Y-73202800D02*
X85394100Y-73202800D01*
X83236400Y-74302800D02*
X84208800Y-74302800D01*
X84785200Y-74879200D02*
X85394100Y-74879200D01*
X84208800Y-74302800D02*
X84785200Y-74879200D01*
D35*
X164211000Y-70739000D02*
X156908500Y-70739000D01*
X156908500Y-70739000D02*
X155638500Y-69469000D01*
X157607000Y-70040500D02*
X157035500Y-69469000D01*
X163576000Y-70040500D02*
X157607000Y-70040500D01*
X212540000Y-43307000D02*
X212540000Y-42741000D01*
X208026000Y-42037000D02*
X206946500Y-43116500D01*
X206946500Y-43116500D02*
X206946500Y-49911000D01*
X206946500Y-49911000D02*
X204660500Y-52197000D01*
X212540000Y-43307000D02*
X211270000Y-42037000D01*
X211270000Y-42037000D02*
X208026000Y-42037000D01*
X162115500Y-55816500D02*
X162496500Y-55435500D01*
X162496500Y-55435500D02*
X185229500Y-55435500D01*
X188468000Y-52197000D02*
X185229500Y-55435500D01*
X204660500Y-52197000D02*
X188468000Y-52197000D01*
X157174500Y-60757500D02*
X162115500Y-55816500D01*
X154920000Y-60757500D02*
X157174500Y-60757500D01*
X206438500Y-42926000D02*
X207835500Y-41529000D01*
X206438500Y-49720500D02*
X206438500Y-42926000D01*
X204470000Y-51689000D02*
X206438500Y-49720500D01*
X215080000Y-43307000D02*
X213302000Y-41529000D01*
X213302000Y-41529000D02*
X207835500Y-41529000D01*
X161226500Y-55816500D02*
X162115500Y-54927500D01*
X185039000Y-54927500D02*
X162115500Y-54927500D01*
X188277500Y-51689000D02*
X185039000Y-54927500D01*
X204470000Y-51689000D02*
X188277500Y-51689000D01*
X156785500Y-60257500D02*
X154920000Y-60257500D01*
X161226500Y-55816500D02*
X156785500Y-60257500D01*
X161226500Y-54927500D02*
X161734500Y-54419500D01*
X205930500Y-42735500D02*
X207645000Y-41021000D01*
X205930500Y-49530000D02*
X205930500Y-42735500D01*
X204279500Y-51181000D02*
X205930500Y-49530000D01*
X215334000Y-41021000D02*
X207645000Y-41021000D01*
X217620000Y-43307000D02*
X215334000Y-41021000D01*
X184848500Y-54419500D02*
X161734500Y-54419500D01*
X188087000Y-51181000D02*
X184848500Y-54419500D01*
X204279500Y-51181000D02*
X188087000Y-51181000D01*
X156396500Y-59757500D02*
X161226500Y-54927500D01*
X154920000Y-59757500D02*
X156396500Y-59757500D01*
X160337500Y-54927500D02*
X161353500Y-53911500D01*
X205422500Y-42545000D02*
X207454500Y-40513000D01*
X205422500Y-49339500D02*
X205422500Y-42545000D01*
X204089000Y-50673000D02*
X205422500Y-49339500D01*
X220160000Y-43307000D02*
X217366000Y-40513000D01*
X217366000Y-40513000D02*
X207454500Y-40513000D01*
X161353500Y-53911500D02*
X184658000Y-53911500D01*
X187896500Y-50673000D02*
X184658000Y-53911500D01*
X204089000Y-50673000D02*
X187896500Y-50673000D01*
X156007500Y-59257500D02*
X154920000Y-59257500D01*
X160337500Y-54927500D02*
X156007500Y-59257500D01*
X225240000Y-47958302D02*
X225996500Y-48714802D01*
X225996500Y-48714802D02*
X225996500Y-54673500D01*
X225996500Y-54673500D02*
X223202500Y-57467500D01*
X223202500Y-57467500D02*
X168846500Y-57467500D01*
X168846500Y-57467500D02*
X167830500Y-56451500D01*
X225240000Y-45847000D02*
X225240000Y-47958302D01*
X162865500Y-56451500D02*
X167830500Y-56451500D01*
X162230500Y-57086500D02*
X162865500Y-56451500D01*
D34*
X217868500Y-77762100D02*
X217868500Y-76466700D01*
D35*
X167640000Y-56959500D02*
X164135500Y-56959500D01*
X164135500Y-56959500D02*
X163500500Y-57594500D01*
X223393000Y-57975500D02*
X226504500Y-54864000D01*
X168656000Y-57975500D02*
X223393000Y-57975500D01*
X167640000Y-56959500D02*
X168656000Y-57975500D01*
X226504500Y-44582500D02*
X227780000Y-43307000D01*
X226504500Y-44582500D02*
X226504500Y-54864000D01*
X144335500Y-53975000D02*
X149884800Y-53975000D01*
X142875000Y-55435500D02*
X144335500Y-53975000D01*
X141795500Y-55435500D02*
X142875000Y-55435500D01*
X155874900Y-58437600D02*
X160337500Y-53975000D01*
X153136000Y-58437600D02*
X155874900Y-58437600D01*
X152323200Y-57624800D02*
X153136000Y-58437600D01*
X152323200Y-54475200D02*
X152323200Y-57624800D01*
X151823000Y-53975000D02*
X152323200Y-54475200D01*
X149884800Y-53975000D02*
X151823000Y-53975000D01*
X199580500Y-56959500D02*
X223012000Y-56959500D01*
X223012000Y-56959500D02*
X225488500Y-54483000D01*
X225488500Y-54483000D02*
X225488500Y-48895000D01*
X225488500Y-48895000D02*
X223964500Y-47371000D01*
X223964500Y-47371000D02*
X223964500Y-44582500D01*
X223964500Y-44582500D02*
X225240000Y-43307000D01*
X198882000Y-56261000D02*
X199580500Y-56959500D01*
X150672800Y-55803800D02*
X149606000Y-54737000D01*
X150672800Y-60048698D02*
X150672800Y-55803800D01*
X150558500Y-60162998D02*
X150672800Y-60048698D01*
X152193500Y-59757500D02*
X151816500Y-60134500D01*
X151816500Y-60134500D02*
X151816500Y-61404500D01*
X153920000Y-59757500D02*
X152193500Y-59757500D01*
X150939500Y-61404500D02*
X150558500Y-61023500D01*
X150558500Y-61023500D02*
X150558500Y-60162998D01*
X151816500Y-61404500D02*
X150939500Y-61404500D01*
X153912000Y-61531500D02*
X153920000Y-61523500D01*
X153920000Y-61523500D02*
X153920000Y-60757500D01*
X152959500Y-61531500D02*
X152959500Y-60579000D01*
X152959500Y-60579000D02*
X153281000Y-60257500D01*
X153281000Y-60257500D02*
X153920000Y-60257500D01*
X151181500Y-60706000D02*
X151181500Y-55193500D01*
X151181500Y-55193500D02*
X151638000Y-54737000D01*
X151181500Y-59257500D02*
X151181500Y-60706000D01*
X153920000Y-59257500D02*
X151181500Y-59257500D01*
X146309500Y-80010000D02*
X147643000Y-78676500D01*
X158051500Y-78041500D02*
X158940500Y-78041500D01*
X157416500Y-78676500D02*
X158051500Y-78041500D01*
X147643000Y-78676500D02*
X157416500Y-78676500D01*
X167513000Y-60007500D02*
X182435500Y-60007500D01*
X182435500Y-60007500D02*
X187833000Y-65405000D01*
X187833000Y-65405000D02*
X187833000Y-92456000D01*
X187833000Y-92456000D02*
X188645800Y-93268800D01*
X188645800Y-93268800D02*
X189775400Y-93268800D01*
X166370000Y-58864500D02*
X167513000Y-60007500D01*
X188341000Y-91059000D02*
X188874400Y-91592400D01*
X188341000Y-65214500D02*
X188341000Y-91059000D01*
X188874400Y-91592400D02*
X189775400Y-91592400D01*
X167894000Y-59499500D02*
X182626000Y-59499500D01*
X182626000Y-59499500D02*
X188341000Y-65214500D01*
X167259000Y-58864500D02*
X167894000Y-59499500D01*
X167132000Y-60515500D02*
X182245000Y-60515500D01*
X182245000Y-60515500D02*
X187325000Y-65595500D01*
X187325000Y-65595500D02*
X187325000Y-93789500D01*
X187325000Y-93789500D02*
X188506100Y-94970600D01*
X188506100Y-94970600D02*
X189775400Y-94970600D01*
X165481000Y-58864500D02*
X167132000Y-60515500D01*
X157480000Y-63817500D02*
X159385000Y-63817500D01*
X118935500Y-77660500D02*
X148336000Y-77660500D01*
X112509300Y-93268800D02*
X111887000Y-92646500D01*
X111887000Y-92646500D02*
X111887000Y-84709000D01*
X111887000Y-84709000D02*
X118935500Y-77660500D01*
X113550000Y-93268800D02*
X112509300Y-93268800D01*
X149733000Y-76263500D02*
X149733000Y-71564500D01*
X149733000Y-71564500D02*
X157480000Y-63817500D01*
X148336000Y-77660500D02*
X149733000Y-76263500D01*
X159385000Y-63817500D02*
X160337500Y-62865000D01*
X159829500Y-64452500D02*
X160909000Y-63373000D01*
X150241000Y-76454000D02*
X150241000Y-71755000D01*
X119189500Y-78168500D02*
X148526500Y-78168500D01*
X157543500Y-64452500D02*
X159829500Y-64452500D01*
X150241000Y-71755000D02*
X157543500Y-64452500D01*
X148526500Y-78168500D02*
X150241000Y-76454000D01*
X113550000Y-91567000D02*
X112839500Y-91567000D01*
X112395000Y-84963000D02*
X119189500Y-78168500D01*
X112395000Y-91122500D02*
X112395000Y-84963000D01*
X112839500Y-91567000D02*
X112395000Y-91122500D01*
D34*
X225370700Y-74879200D02*
X226465700Y-74879200D01*
X225328600Y-74837100D02*
X225370700Y-74879200D01*
D35*
X158877000Y-63182500D02*
X157416500Y-63182500D01*
X159702500Y-62357000D02*
X158877000Y-63182500D01*
X149225000Y-76073000D02*
X149225000Y-71374000D01*
X149225000Y-71374000D02*
X157416500Y-63182500D01*
X148145500Y-77152500D02*
X149225000Y-76073000D01*
X118745000Y-77152500D02*
X148145500Y-77152500D01*
X113550000Y-94970600D02*
X112052100Y-94970600D01*
X111379000Y-84518500D02*
X118745000Y-77152500D01*
X111379000Y-94297500D02*
X111379000Y-84518500D01*
X112052100Y-94970600D02*
X111379000Y-94297500D01*
D34*
X225337300Y-71526400D02*
X226465700Y-71526400D01*
X225328600Y-71535100D02*
X225337300Y-71526400D01*
X225345300Y-94919800D02*
X226465700Y-94919800D01*
X225345300Y-94919800D02*
X226465700Y-94919800D01*
X225328600Y-94903100D02*
X225345300Y-94919800D01*
X225345300Y-94919800D02*
X226465700Y-94919800D01*
X224066800Y-93641300D02*
X225345300Y-94919800D01*
X224066800Y-76936600D02*
X224066800Y-93641300D01*
X224371600Y-76225400D02*
X224727200Y-76581000D01*
X224727200Y-76581000D02*
X224727200Y-92650700D01*
X224727200Y-92650700D02*
X225319900Y-93243400D01*
X225319900Y-93243400D02*
X226465700Y-93243400D01*
X225336800Y-89128600D02*
X225336800Y-89077800D01*
X225336800Y-76225400D02*
X225336800Y-89128600D01*
X225336800Y-91008200D02*
X225895600Y-91567000D01*
X225895600Y-91567000D02*
X226465700Y-91567000D01*
X225336800Y-89128600D02*
X225336800Y-91008200D01*
X221437200Y-71628000D02*
X218541600Y-74523600D01*
X218541600Y-74523600D02*
X218541600Y-98399600D01*
X218541600Y-98399600D02*
X217436700Y-99504500D01*
X217436700Y-99504500D02*
X97091500Y-99504500D01*
X86894100Y-71526400D02*
X91782900Y-71526400D01*
X213106000Y-99504500D02*
X97091500Y-99504500D01*
X97091500Y-99504500D02*
X93726000Y-96139000D01*
X93726000Y-73469500D02*
X93726000Y-96139000D01*
X91782900Y-71526400D02*
X93726000Y-73469500D01*
X221437200Y-72542400D02*
X219100400Y-74879200D01*
X219100400Y-74879200D02*
X219100400Y-98643298D01*
X219100400Y-98643298D02*
X217667698Y-100076000D01*
X217667698Y-100076000D02*
X96837500Y-100076000D01*
X96837500Y-100076000D02*
X93091000Y-96329500D01*
X93091000Y-96329500D02*
X93091000Y-74549000D01*
X91744800Y-73202800D02*
X86894100Y-73202800D01*
X93091000Y-74549000D02*
X91744800Y-73202800D01*
X221437200Y-73456800D02*
X219659200Y-75234800D01*
X219659200Y-75234800D02*
X219659200Y-98907600D01*
X219659200Y-98907600D02*
X217919300Y-100647500D01*
X217919300Y-100647500D02*
X96583500Y-100647500D01*
X91643200Y-74879200D02*
X86894100Y-74879200D01*
X92456000Y-75692000D02*
X91643200Y-74879200D01*
X96583500Y-100647500D02*
X92456000Y-96520000D01*
X92456000Y-75692000D02*
X92456000Y-96520000D01*
D35*
X160845500Y-68707000D02*
X167703500Y-61849000D01*
X167703500Y-61849000D02*
X172339000Y-61849000D01*
X172339000Y-61849000D02*
X172974000Y-61214000D01*
X173037500Y-56769000D02*
X173355000Y-56451500D01*
X205174000Y-53213000D02*
X188849000Y-53213000D01*
X188849000Y-53213000D02*
X185610500Y-56451500D01*
X185610500Y-56451500D02*
X173355000Y-56451500D01*
X205174000Y-53213000D02*
X212540000Y-45847000D01*
X160845500Y-69342000D02*
X160845500Y-68707000D01*
X210000000Y-47556000D02*
X210000000Y-45847000D01*
X188658500Y-52705000D02*
X185420000Y-55943500D01*
X204851000Y-52705000D02*
X188658500Y-52705000D01*
X172910500Y-55943500D02*
X185420000Y-55943500D01*
X172085000Y-56769000D02*
X172910500Y-55943500D01*
X210000000Y-47556000D02*
X204851000Y-52705000D01*
X167640000Y-61214000D02*
X172085000Y-61214000D01*
X159512000Y-69342000D02*
X167640000Y-61214000D01*
X219646500Y-51244500D02*
X219646500Y-47873500D01*
X219646500Y-47873500D02*
X217620000Y-45847000D01*
X216979500Y-53911500D02*
X219646500Y-51244500D01*
X188912500Y-56324500D02*
X191325500Y-53911500D01*
X191325500Y-53911500D02*
X216979500Y-53911500D01*
X220160000Y-51429500D02*
X220160000Y-45847000D01*
X217170000Y-54419500D02*
X220160000Y-51429500D01*
X189928500Y-56324500D02*
X191833500Y-54419500D01*
X191833500Y-54419500D02*
X217170000Y-54419500D01*
X229044500Y-46736000D02*
X229044500Y-44582500D01*
X229044500Y-44582500D02*
X230320000Y-43307000D01*
X167576500Y-57594500D02*
X168465500Y-58483500D01*
X168465500Y-58483500D02*
X223710500Y-58483500D01*
X165469000Y-57594500D02*
X167576500Y-57594500D01*
X227012500Y-48768000D02*
X227012500Y-55181500D01*
X227012500Y-55181500D02*
X223710500Y-58483500D01*
X229044500Y-46736000D02*
X227012500Y-48768000D01*
X227520500Y-49276000D02*
X229679500Y-47117000D01*
X227520500Y-55372000D02*
X227520500Y-49276000D01*
X168275000Y-58991500D02*
X223901000Y-58991500D01*
X167513000Y-58229500D02*
X168275000Y-58991500D01*
X231584500Y-44582500D02*
X232860000Y-43307000D01*
X231584500Y-46418500D02*
X231584500Y-44582500D01*
X230886000Y-47117000D02*
X231584500Y-46418500D01*
X229679500Y-47117000D02*
X230886000Y-47117000D01*
X223901000Y-58991500D02*
X227520500Y-55372000D01*
X165088000Y-58229500D02*
X167513000Y-58229500D01*
X164453000Y-57594500D02*
X165088000Y-58229500D01*
D36*
X78892400Y-61772800D02*
X84124800Y-61772800D01*
X78892400Y-65938400D02*
X84074000Y-65938400D01*
X78892400Y-62788800D02*
X78892400Y-63906400D01*
X84124800Y-63906400D02*
X84124800Y-62788800D01*
X84124800Y-62839600D02*
X84124800Y-62788800D01*
X81584800Y-66954400D02*
X86461600Y-66954400D01*
X76250800Y-66954400D02*
X81584800Y-66954400D01*
X81584800Y-64922400D02*
X86461600Y-64922400D01*
X76250800Y-64922400D02*
X81584800Y-64922400D01*
X86461600Y-62788800D02*
X84124800Y-62788800D01*
X84124800Y-62788800D02*
X81584800Y-62788800D01*
X86461600Y-57912000D02*
X86461600Y-59944000D01*
X76250800Y-62788800D02*
X78892400Y-62788800D01*
X78892400Y-62788800D02*
X81584800Y-62788800D01*
X76250800Y-57861200D02*
X76250800Y-59944000D01*
D33*
X84234200Y-92168800D02*
X84810600Y-91592400D01*
X84810600Y-91592400D02*
X85330600Y-91592400D01*
X83172900Y-92168800D02*
X84234200Y-92168800D01*
X83172900Y-93268800D02*
X85330600Y-93268800D01*
X84145300Y-94368800D02*
X84721700Y-94945200D01*
X84721700Y-94945200D02*
X85330600Y-94945200D01*
X83172900Y-94368800D02*
X84145300Y-94368800D01*
D34*
X225345300Y-73202800D02*
X226465700Y-73202800D01*
X225328600Y-73186100D02*
X225345300Y-73202800D01*
X221437200Y-74371200D02*
X220218000Y-75590400D01*
X220218000Y-75590400D02*
X220218000Y-99161600D01*
X220218000Y-99161600D02*
X218160600Y-101219000D01*
X96329500Y-101219000D02*
X218160600Y-101219000D01*
X90551000Y-91567000D02*
X86894100Y-91567000D01*
X91884500Y-92900500D02*
X90551000Y-91567000D01*
X91884500Y-96774000D02*
X91884500Y-92900500D01*
X96329500Y-101219000D02*
X91884500Y-96774000D01*
X221386400Y-75373653D02*
X220776800Y-75983253D01*
X220776800Y-75983253D02*
X220776800Y-99466400D01*
X220776800Y-99466400D02*
X218452700Y-101790500D01*
X96075500Y-101790500D02*
X218452700Y-101790500D01*
X221437200Y-75336400D02*
X221386400Y-75373653D01*
X90449400Y-93243400D02*
X86894100Y-93243400D01*
X91313000Y-94107000D02*
X90449400Y-93243400D01*
X91313000Y-97028000D02*
X91313000Y-94107000D01*
X96075500Y-101790500D02*
X91313000Y-97028000D01*
X221437200Y-76250800D02*
X221437200Y-99618800D01*
X221437200Y-99618800D02*
X218694000Y-102362000D01*
X218694000Y-102362000D02*
X95821500Y-102362000D01*
X90678000Y-97218500D02*
X90678000Y-95504000D01*
X90678000Y-95504000D02*
X90093800Y-94919800D01*
X90093800Y-94919800D02*
X86894100Y-94919800D01*
X95821500Y-102362000D02*
X90678000Y-97218500D01*
X141478000Y-65913000D02*
X139636500Y-64071500D01*
X148437600Y-65913000D02*
X141478000Y-65913000D01*
D37*
G36*
X91630500Y-91479066D02*
X91134717Y-90983283D01*
X90866906Y-90804337D01*
X90551000Y-90741500D01*
X87656948Y-90741500D01*
X87604773Y-90662073D01*
X87393740Y-90519623D01*
X87144100Y-90469560D01*
X86644100Y-90469560D01*
X86401977Y-90516537D01*
X86189173Y-90656327D01*
X86144486Y-90722528D01*
X86104773Y-90662073D01*
X85893740Y-90519623D01*
X85644100Y-90469560D01*
X85144100Y-90469560D01*
X84901977Y-90516537D01*
X84689173Y-90656327D01*
X84633637Y-90738599D01*
X84633637Y-90738600D01*
X84470394Y-90771071D01*
X84233400Y-90929425D01*
X84233400Y-76701310D01*
X84233400Y-76485750D01*
X84074650Y-76327000D01*
X83325400Y-76327000D01*
X83325400Y-77051250D01*
X83484150Y-77210000D01*
X83724709Y-77210000D01*
X83958098Y-77113327D01*
X84136727Y-76934699D01*
X84233400Y-76701310D01*
X84233400Y-90929425D01*
X84181982Y-90963782D01*
X83968160Y-91177603D01*
X83873700Y-91158660D01*
X82587400Y-91158660D01*
X82587400Y-77174919D01*
X82672091Y-77210000D01*
X82912650Y-77210000D01*
X83071400Y-77051250D01*
X83071400Y-76327000D01*
X83051400Y-76327000D01*
X83051400Y-76073000D01*
X83071400Y-76073000D01*
X83071400Y-76053000D01*
X83325400Y-76053000D01*
X83325400Y-76073000D01*
X84074650Y-76073000D01*
X84233400Y-75914250D01*
X84233400Y-75698690D01*
X84152751Y-75503987D01*
X84156582Y-75507818D01*
X84444994Y-75700529D01*
X84444995Y-75700529D01*
X84656095Y-75742519D01*
X84683427Y-75784127D01*
X84894460Y-75926577D01*
X85144100Y-75976640D01*
X85644100Y-75976640D01*
X85886223Y-75929663D01*
X86099027Y-75789873D01*
X86143713Y-75723671D01*
X86183427Y-75784127D01*
X86394460Y-75926577D01*
X86644100Y-75976640D01*
X87144100Y-75976640D01*
X87386223Y-75929663D01*
X87599027Y-75789873D01*
X87656519Y-75704700D01*
X91301266Y-75704700D01*
X91630500Y-76033933D01*
X91630500Y-91479066D01*
X91630500Y-91479066D01*
G37*
X91630500Y-91479066D02*
X91134717Y-90983283D01*
X90866906Y-90804337D01*
X90551000Y-90741500D01*
X87656948Y-90741500D01*
X87604773Y-90662073D01*
X87393740Y-90519623D01*
X87144100Y-90469560D01*
X86644100Y-90469560D01*
X86401977Y-90516537D01*
X86189173Y-90656327D01*
X86144486Y-90722528D01*
X86104773Y-90662073D01*
X85893740Y-90519623D01*
X85644100Y-90469560D01*
X85144100Y-90469560D01*
X84901977Y-90516537D01*
X84689173Y-90656327D01*
X84633637Y-90738599D01*
X84633637Y-90738600D01*
X84470394Y-90771071D01*
X84233400Y-90929425D01*
X84233400Y-76701310D01*
X84233400Y-76485750D01*
X84074650Y-76327000D01*
X83325400Y-76327000D01*
X83325400Y-77051250D01*
X83484150Y-77210000D01*
X83724709Y-77210000D01*
X83958098Y-77113327D01*
X84136727Y-76934699D01*
X84233400Y-76701310D01*
X84233400Y-90929425D01*
X84181982Y-90963782D01*
X83968160Y-91177603D01*
X83873700Y-91158660D01*
X82587400Y-91158660D01*
X82587400Y-77174919D01*
X82672091Y-77210000D01*
X82912650Y-77210000D01*
X83071400Y-77051250D01*
X83071400Y-76327000D01*
X83051400Y-76327000D01*
X83051400Y-76073000D01*
X83071400Y-76073000D01*
X83071400Y-76053000D01*
X83325400Y-76053000D01*
X83325400Y-76073000D01*
X84074650Y-76073000D01*
X84233400Y-75914250D01*
X84233400Y-75698690D01*
X84152751Y-75503987D01*
X84156582Y-75507818D01*
X84444994Y-75700529D01*
X84444995Y-75700529D01*
X84656095Y-75742519D01*
X84683427Y-75784127D01*
X84894460Y-75926577D01*
X85144100Y-75976640D01*
X85644100Y-75976640D01*
X85886223Y-75929663D01*
X86099027Y-75789873D01*
X86143713Y-75723671D01*
X86183427Y-75784127D01*
X86394460Y-75926577D01*
X86644100Y-75976640D01*
X87144100Y-75976640D01*
X87386223Y-75929663D01*
X87599027Y-75789873D01*
X87656519Y-75704700D01*
X91301266Y-75704700D01*
X91630500Y-76033933D01*
X91630500Y-91479066D01*
G36*
X148005229Y-49052660D02*
X147989305Y-49068584D01*
X147793523Y-49068413D01*
X147781414Y-49056304D01*
X147781585Y-48860524D01*
X147877357Y-48764752D01*
X147891500Y-48778895D01*
X147905642Y-48764752D01*
X147991397Y-48850507D01*
X148005229Y-49052660D01*
X148005229Y-49052660D01*
G37*
X148005229Y-49052660D02*
X147989305Y-49068584D01*
X147793523Y-49068413D01*
X147781414Y-49056304D01*
X147781585Y-48860524D01*
X147877357Y-48764752D01*
X147891500Y-48778895D01*
X147905642Y-48764752D01*
X147991397Y-48850507D01*
X148005229Y-49052660D01*
G36*
X149259060Y-49068584D02*
X149063523Y-49068413D01*
X149061601Y-49066491D01*
X149047769Y-48864340D01*
X149147357Y-48764752D01*
X149161500Y-48778895D01*
X149175642Y-48764752D01*
X149259060Y-48848170D01*
X149259060Y-49068584D01*
X149259060Y-49068584D01*
G37*
X149259060Y-49068584D02*
X149063523Y-49068413D01*
X149061601Y-49066491D01*
X149047769Y-48864340D01*
X149147357Y-48764752D01*
X149161500Y-48778895D01*
X149175642Y-48764752D01*
X149259060Y-48848170D01*
X149259060Y-49068584D01*
G36*
X166630942Y-61109505D02*
X159512000Y-68228448D01*
X159512000Y-68073710D01*
X159516792Y-68068927D01*
X159659438Y-67725399D01*
X159659762Y-67353433D01*
X159517717Y-67009657D01*
X159254927Y-66746408D01*
X158911399Y-66603762D01*
X158539433Y-66603438D01*
X158195657Y-66745483D01*
X157932408Y-67008273D01*
X157789762Y-67351801D01*
X157789438Y-67723767D01*
X157931483Y-68067543D01*
X157937200Y-68073269D01*
X157937200Y-68883089D01*
X157932408Y-68887873D01*
X157869576Y-69039187D01*
X157828617Y-68940057D01*
X157565827Y-68676808D01*
X157222299Y-68534162D01*
X156850333Y-68533838D01*
X156506557Y-68675883D01*
X156336934Y-68845209D01*
X156168827Y-68676808D01*
X155825299Y-68534162D01*
X155453333Y-68533838D01*
X155109557Y-68675883D01*
X154846308Y-68938673D01*
X154703662Y-69282201D01*
X154703338Y-69654167D01*
X154845383Y-69997943D01*
X155108173Y-70261192D01*
X155451701Y-70403838D01*
X155459793Y-70403845D01*
X156351724Y-71295776D01*
X156607175Y-71466463D01*
X156908500Y-71526400D01*
X163554648Y-71526400D01*
X160149024Y-74932024D01*
X159978337Y-75187475D01*
X159918400Y-75488800D01*
X159918400Y-77519089D01*
X159913608Y-77523873D01*
X159825733Y-77735496D01*
X159733617Y-77512557D01*
X159470827Y-77249308D01*
X159127299Y-77106662D01*
X158755333Y-77106338D01*
X158411557Y-77248383D01*
X158405830Y-77254100D01*
X158051500Y-77254100D01*
X157750175Y-77314037D01*
X157494724Y-77484724D01*
X157090348Y-77889100D01*
X149919452Y-77889100D01*
X150797776Y-77010776D01*
X150968463Y-76755325D01*
X151028400Y-76454000D01*
X151028400Y-72081152D01*
X157869652Y-65239900D01*
X159829500Y-65239900D01*
X160130825Y-65179963D01*
X160386276Y-65009276D01*
X161087395Y-64308156D01*
X161094167Y-64308162D01*
X161437943Y-64166117D01*
X161701192Y-63903327D01*
X161843838Y-63559799D01*
X161844162Y-63187833D01*
X161702117Y-62844057D01*
X161439327Y-62580808D01*
X161188754Y-62476760D01*
X161130617Y-62336057D01*
X160867827Y-62072808D01*
X160540603Y-61936932D01*
X160495617Y-61828057D01*
X160232827Y-61564808D01*
X159889299Y-61422162D01*
X159517333Y-61421838D01*
X159173557Y-61563883D01*
X158910308Y-61826673D01*
X158767662Y-62170201D01*
X158767654Y-62178293D01*
X158550848Y-62395100D01*
X157416500Y-62395100D01*
X157115175Y-62455037D01*
X156859724Y-62625724D01*
X154820000Y-64665448D01*
X154820000Y-64547750D01*
X154820000Y-63976250D01*
X154820000Y-63760690D01*
X154723327Y-63527301D01*
X154632525Y-63436500D01*
X154723327Y-63345699D01*
X154820000Y-63112310D01*
X154820000Y-62896750D01*
X154661250Y-62738000D01*
X153912000Y-62738000D01*
X153912000Y-63410750D01*
X153912000Y-63462250D01*
X153912000Y-64135000D01*
X154661250Y-64135000D01*
X154820000Y-63976250D01*
X154820000Y-64547750D01*
X154661250Y-64389000D01*
X153912000Y-64389000D01*
X153912000Y-65113250D01*
X154070750Y-65272000D01*
X154213448Y-65272000D01*
X152313039Y-67172408D01*
X152330324Y-67130783D01*
X152330675Y-66728980D01*
X152177236Y-66357628D01*
X152107900Y-66288171D01*
X152107900Y-65284440D01*
X152685000Y-65284440D01*
X152927123Y-65237463D01*
X153023879Y-65173904D01*
X153025302Y-65175327D01*
X153258691Y-65272000D01*
X153499250Y-65272000D01*
X153658000Y-65113250D01*
X153658000Y-64389000D01*
X153638000Y-64389000D01*
X153638000Y-64135000D01*
X153658000Y-64135000D01*
X153658000Y-63462250D01*
X153658000Y-63410750D01*
X153658000Y-62738000D01*
X153638000Y-62738000D01*
X153638000Y-62484000D01*
X153658000Y-62484000D01*
X153658000Y-62464000D01*
X153719570Y-62464000D01*
X153725201Y-62466338D01*
X153912000Y-62466500D01*
X153912000Y-62484000D01*
X154661250Y-62484000D01*
X154820000Y-62325250D01*
X154820000Y-62109690D01*
X154752242Y-61946109D01*
X154846838Y-61718299D01*
X154846971Y-61564940D01*
X155170000Y-61564940D01*
X155273287Y-61544900D01*
X157174500Y-61544900D01*
X157475825Y-61484963D01*
X157731276Y-61314276D01*
X161435256Y-57610295D01*
X161437383Y-57615443D01*
X161700173Y-57878692D01*
X162043701Y-58021338D01*
X162415667Y-58021662D01*
X162628920Y-57933547D01*
X162707383Y-58123443D01*
X162970173Y-58386692D01*
X163313701Y-58529338D01*
X163685667Y-58529662D01*
X163977042Y-58409268D01*
X164266201Y-58529338D01*
X164274293Y-58529345D01*
X164531224Y-58786276D01*
X164546058Y-58796188D01*
X164545838Y-59049667D01*
X164687883Y-59393443D01*
X164950673Y-59656692D01*
X165294201Y-59799338D01*
X165302293Y-59799345D01*
X166575224Y-61072276D01*
X166630942Y-61109505D01*
X166630942Y-61109505D01*
G37*
X166630942Y-61109505D02*
X159512000Y-68228448D01*
X159512000Y-68073710D01*
X159516792Y-68068927D01*
X159659438Y-67725399D01*
X159659762Y-67353433D01*
X159517717Y-67009657D01*
X159254927Y-66746408D01*
X158911399Y-66603762D01*
X158539433Y-66603438D01*
X158195657Y-66745483D01*
X157932408Y-67008273D01*
X157789762Y-67351801D01*
X157789438Y-67723767D01*
X157931483Y-68067543D01*
X157937200Y-68073269D01*
X157937200Y-68883089D01*
X157932408Y-68887873D01*
X157869576Y-69039187D01*
X157828617Y-68940057D01*
X157565827Y-68676808D01*
X157222299Y-68534162D01*
X156850333Y-68533838D01*
X156506557Y-68675883D01*
X156336934Y-68845209D01*
X156168827Y-68676808D01*
X155825299Y-68534162D01*
X155453333Y-68533838D01*
X155109557Y-68675883D01*
X154846308Y-68938673D01*
X154703662Y-69282201D01*
X154703338Y-69654167D01*
X154845383Y-69997943D01*
X155108173Y-70261192D01*
X155451701Y-70403838D01*
X155459793Y-70403845D01*
X156351724Y-71295776D01*
X156607175Y-71466463D01*
X156908500Y-71526400D01*
X163554648Y-71526400D01*
X160149024Y-74932024D01*
X159978337Y-75187475D01*
X159918400Y-75488800D01*
X159918400Y-77519089D01*
X159913608Y-77523873D01*
X159825733Y-77735496D01*
X159733617Y-77512557D01*
X159470827Y-77249308D01*
X159127299Y-77106662D01*
X158755333Y-77106338D01*
X158411557Y-77248383D01*
X158405830Y-77254100D01*
X158051500Y-77254100D01*
X157750175Y-77314037D01*
X157494724Y-77484724D01*
X157090348Y-77889100D01*
X149919452Y-77889100D01*
X150797776Y-77010776D01*
X150968463Y-76755325D01*
X151028400Y-76454000D01*
X151028400Y-72081152D01*
X157869652Y-65239900D01*
X159829500Y-65239900D01*
X160130825Y-65179963D01*
X160386276Y-65009276D01*
X161087395Y-64308156D01*
X161094167Y-64308162D01*
X161437943Y-64166117D01*
X161701192Y-63903327D01*
X161843838Y-63559799D01*
X161844162Y-63187833D01*
X161702117Y-62844057D01*
X161439327Y-62580808D01*
X161188754Y-62476760D01*
X161130617Y-62336057D01*
X160867827Y-62072808D01*
X160540603Y-61936932D01*
X160495617Y-61828057D01*
X160232827Y-61564808D01*
X159889299Y-61422162D01*
X159517333Y-61421838D01*
X159173557Y-61563883D01*
X158910308Y-61826673D01*
X158767662Y-62170201D01*
X158767654Y-62178293D01*
X158550848Y-62395100D01*
X157416500Y-62395100D01*
X157115175Y-62455037D01*
X156859724Y-62625724D01*
X154820000Y-64665448D01*
X154820000Y-64547750D01*
X154820000Y-63976250D01*
X154820000Y-63760690D01*
X154723327Y-63527301D01*
X154632525Y-63436500D01*
X154723327Y-63345699D01*
X154820000Y-63112310D01*
X154820000Y-62896750D01*
X154661250Y-62738000D01*
X153912000Y-62738000D01*
X153912000Y-63410750D01*
X153912000Y-63462250D01*
X153912000Y-64135000D01*
X154661250Y-64135000D01*
X154820000Y-63976250D01*
X154820000Y-64547750D01*
X154661250Y-64389000D01*
X153912000Y-64389000D01*
X153912000Y-65113250D01*
X154070750Y-65272000D01*
X154213448Y-65272000D01*
X152313039Y-67172408D01*
X152330324Y-67130783D01*
X152330675Y-66728980D01*
X152177236Y-66357628D01*
X152107900Y-66288171D01*
X152107900Y-65284440D01*
X152685000Y-65284440D01*
X152927123Y-65237463D01*
X153023879Y-65173904D01*
X153025302Y-65175327D01*
X153258691Y-65272000D01*
X153499250Y-65272000D01*
X153658000Y-65113250D01*
X153658000Y-64389000D01*
X153638000Y-64389000D01*
X153638000Y-64135000D01*
X153658000Y-64135000D01*
X153658000Y-63462250D01*
X153658000Y-63410750D01*
X153658000Y-62738000D01*
X153638000Y-62738000D01*
X153638000Y-62484000D01*
X153658000Y-62484000D01*
X153658000Y-62464000D01*
X153719570Y-62464000D01*
X153725201Y-62466338D01*
X153912000Y-62466500D01*
X153912000Y-62484000D01*
X154661250Y-62484000D01*
X154820000Y-62325250D01*
X154820000Y-62109690D01*
X154752242Y-61946109D01*
X154846838Y-61718299D01*
X154846971Y-61564940D01*
X155170000Y-61564940D01*
X155273287Y-61544900D01*
X157174500Y-61544900D01*
X157475825Y-61484963D01*
X157731276Y-61314276D01*
X161435256Y-57610295D01*
X161437383Y-57615443D01*
X161700173Y-57878692D01*
X162043701Y-58021338D01*
X162415667Y-58021662D01*
X162628920Y-57933547D01*
X162707383Y-58123443D01*
X162970173Y-58386692D01*
X163313701Y-58529338D01*
X163685667Y-58529662D01*
X163977042Y-58409268D01*
X164266201Y-58529338D01*
X164274293Y-58529345D01*
X164531224Y-58786276D01*
X164546058Y-58796188D01*
X164545838Y-59049667D01*
X164687883Y-59393443D01*
X164950673Y-59656692D01*
X165294201Y-59799338D01*
X165302293Y-59799345D01*
X166575224Y-61072276D01*
X166630942Y-61109505D01*
G36*
X195000947Y-55741742D02*
X194821342Y-55921347D01*
X194807200Y-55907205D01*
X194793057Y-55921347D01*
X194613452Y-55741742D01*
X194627595Y-55727600D01*
X194613452Y-55713457D01*
X194793057Y-55533852D01*
X194807200Y-55547995D01*
X194821342Y-55533852D01*
X195000947Y-55713457D01*
X194986805Y-55727600D01*
X195000947Y-55741742D01*
X195000947Y-55741742D01*
G37*
X195000947Y-55741742D02*
X194821342Y-55921347D01*
X194807200Y-55907205D01*
X194793057Y-55921347D01*
X194613452Y-55741742D01*
X194627595Y-55727600D01*
X194613452Y-55713457D01*
X194793057Y-55533852D01*
X194807200Y-55547995D01*
X194821342Y-55533852D01*
X195000947Y-55713457D01*
X194986805Y-55727600D01*
X195000947Y-55741742D01*
G36*
X210147000Y-43434000D02*
X210127000Y-43434000D01*
X210127000Y-43454000D01*
X209873000Y-43454000D01*
X209873000Y-43434000D01*
X208665531Y-43434000D01*
X208545032Y-43666027D01*
X208793179Y-44195490D01*
X208980263Y-44366253D01*
X208894277Y-44382937D01*
X208681473Y-44522727D01*
X208539023Y-44733760D01*
X208488960Y-44983400D01*
X208488960Y-46710600D01*
X208535937Y-46952723D01*
X208675727Y-47165527D01*
X208886760Y-47307977D01*
X209093092Y-47349355D01*
X207733900Y-48708548D01*
X207733900Y-43442652D01*
X208352152Y-42824400D01*
X208602947Y-42824400D01*
X208545032Y-42947973D01*
X208665531Y-43180000D01*
X209873000Y-43180000D01*
X209873000Y-43160000D01*
X210127000Y-43160000D01*
X210127000Y-43180000D01*
X210147000Y-43180000D01*
X210147000Y-43434000D01*
X210147000Y-43434000D01*
G37*
X210147000Y-43434000D02*
X210127000Y-43434000D01*
X210127000Y-43454000D01*
X209873000Y-43454000D01*
X209873000Y-43434000D01*
X208665531Y-43434000D01*
X208545032Y-43666027D01*
X208793179Y-44195490D01*
X208980263Y-44366253D01*
X208894277Y-44382937D01*
X208681473Y-44522727D01*
X208539023Y-44733760D01*
X208488960Y-44983400D01*
X208488960Y-46710600D01*
X208535937Y-46952723D01*
X208675727Y-47165527D01*
X208886760Y-47307977D01*
X209093092Y-47349355D01*
X207733900Y-48708548D01*
X207733900Y-43442652D01*
X208352152Y-42824400D01*
X208602947Y-42824400D01*
X208545032Y-42947973D01*
X208665531Y-43180000D01*
X209873000Y-43180000D01*
X209873000Y-43160000D01*
X210127000Y-43160000D01*
X210127000Y-43180000D01*
X210147000Y-43180000D01*
X210147000Y-43434000D01*
G36*
X218859100Y-50918348D02*
X216653347Y-53124100D01*
X206376452Y-53124100D01*
X212194347Y-47306204D01*
X212540000Y-47374959D01*
X213113489Y-47260885D01*
X213599670Y-46936029D01*
X213815663Y-46612771D01*
X213873179Y-46735490D01*
X214305053Y-47129688D01*
X214720974Y-47301958D01*
X214953000Y-47180817D01*
X214953000Y-45974000D01*
X214933000Y-45974000D01*
X214933000Y-45720000D01*
X214953000Y-45720000D01*
X214953000Y-45700000D01*
X215207000Y-45700000D01*
X215207000Y-45720000D01*
X215227000Y-45720000D01*
X215227000Y-45974000D01*
X215207000Y-45974000D01*
X215207000Y-47180817D01*
X215439026Y-47301958D01*
X215854947Y-47129688D01*
X216286821Y-46735490D01*
X216344336Y-46612771D01*
X216560330Y-46936029D01*
X217046511Y-47260885D01*
X217620000Y-47374959D01*
X217965652Y-47306204D01*
X218859100Y-48199652D01*
X218859100Y-50918348D01*
X218859100Y-50918348D01*
G37*
X218859100Y-50918348D02*
X216653347Y-53124100D01*
X206376452Y-53124100D01*
X212194347Y-47306204D01*
X212540000Y-47374959D01*
X213113489Y-47260885D01*
X213599670Y-46936029D01*
X213815663Y-46612771D01*
X213873179Y-46735490D01*
X214305053Y-47129688D01*
X214720974Y-47301958D01*
X214953000Y-47180817D01*
X214953000Y-45974000D01*
X214933000Y-45974000D01*
X214933000Y-45720000D01*
X214953000Y-45720000D01*
X214953000Y-45700000D01*
X215207000Y-45700000D01*
X215207000Y-45720000D01*
X215227000Y-45720000D01*
X215227000Y-45974000D01*
X215207000Y-45974000D01*
X215207000Y-47180817D01*
X215439026Y-47301958D01*
X215854947Y-47129688D01*
X216286821Y-46735490D01*
X216344336Y-46612771D01*
X216560330Y-46936029D01*
X217046511Y-47260885D01*
X217620000Y-47374959D01*
X217965652Y-47306204D01*
X218859100Y-48199652D01*
X218859100Y-50918348D01*
G36*
X234391200Y-91267100D02*
X234209522Y-91267100D01*
X234123040Y-91208723D01*
X233873400Y-91158660D01*
X232573400Y-91158660D01*
X232331277Y-91205637D01*
X232237711Y-91267100D01*
X232201900Y-91267100D01*
X231861694Y-91334771D01*
X231573282Y-91527482D01*
X231400337Y-91700426D01*
X231373863Y-91563977D01*
X231234073Y-91351173D01*
X231023040Y-91208723D01*
X230773400Y-91158660D01*
X230009000Y-91158660D01*
X230009000Y-77178250D01*
X230009000Y-76454000D01*
X230009000Y-76200000D01*
X230009000Y-75475750D01*
X229850250Y-75317000D01*
X229609691Y-75317000D01*
X229376302Y-75413673D01*
X229197673Y-75592301D01*
X229101000Y-75825690D01*
X229101000Y-76041250D01*
X229259750Y-76200000D01*
X230009000Y-76200000D01*
X230009000Y-76454000D01*
X229259750Y-76454000D01*
X229101000Y-76612750D01*
X229101000Y-76828310D01*
X229197673Y-77061699D01*
X229376302Y-77240327D01*
X229609691Y-77337000D01*
X229850250Y-77337000D01*
X230009000Y-77178250D01*
X230009000Y-91158660D01*
X229473400Y-91158660D01*
X229346514Y-91183278D01*
X229127018Y-90963782D01*
X228838606Y-90771071D01*
X228734350Y-90750333D01*
X228676373Y-90662073D01*
X228465340Y-90519623D01*
X228215700Y-90469560D01*
X227715700Y-90469560D01*
X227473577Y-90516537D01*
X227260773Y-90656327D01*
X227216086Y-90722528D01*
X227176373Y-90662073D01*
X226965340Y-90519623D01*
X226715700Y-90469560D01*
X226215700Y-90469560D01*
X226162300Y-90479920D01*
X226162300Y-89128600D01*
X226162300Y-89077800D01*
X226162300Y-76675512D01*
X226271638Y-76412199D01*
X226271962Y-76040233D01*
X226245685Y-75976640D01*
X226715700Y-75976640D01*
X226957823Y-75929663D01*
X227170627Y-75789873D01*
X227215313Y-75723671D01*
X227255027Y-75784127D01*
X227466060Y-75926577D01*
X227715700Y-75976640D01*
X228215700Y-75976640D01*
X228457823Y-75929663D01*
X228670627Y-75789873D01*
X228700448Y-75745693D01*
X228927505Y-75700529D01*
X228927506Y-75700529D01*
X229215918Y-75507818D01*
X229431832Y-75291903D01*
X229473400Y-75300240D01*
X230747000Y-75300240D01*
X230747000Y-75352080D01*
X230662309Y-75317000D01*
X230421750Y-75317000D01*
X230263000Y-75475750D01*
X230263000Y-76200000D01*
X230283000Y-76200000D01*
X230283000Y-76454000D01*
X230263000Y-76454000D01*
X230263000Y-77178250D01*
X230421750Y-77337000D01*
X230662309Y-77337000D01*
X230726047Y-77310598D01*
X230638176Y-77522217D01*
X230637825Y-77924020D01*
X230791264Y-78295372D01*
X231075134Y-78579737D01*
X231446217Y-78733824D01*
X231848020Y-78734175D01*
X232219372Y-78580736D01*
X232503737Y-78296866D01*
X232657824Y-77925783D01*
X232658175Y-77523980D01*
X232504736Y-77152628D01*
X232500542Y-77148427D01*
X232633377Y-76951640D01*
X232683440Y-76702000D01*
X232683440Y-75952000D01*
X232636463Y-75709877D01*
X232525000Y-75540195D01*
X232525000Y-75290533D01*
X232573400Y-75300240D01*
X233873400Y-75300240D01*
X234115523Y-75253263D01*
X234209088Y-75191800D01*
X234391200Y-75191800D01*
X234391200Y-91267100D01*
X234391200Y-91267100D01*
G37*
X234391200Y-91267100D02*
X234209522Y-91267100D01*
X234123040Y-91208723D01*
X233873400Y-91158660D01*
X232573400Y-91158660D01*
X232331277Y-91205637D01*
X232237711Y-91267100D01*
X232201900Y-91267100D01*
X231861694Y-91334771D01*
X231573282Y-91527482D01*
X231400337Y-91700426D01*
X231373863Y-91563977D01*
X231234073Y-91351173D01*
X231023040Y-91208723D01*
X230773400Y-91158660D01*
X230009000Y-91158660D01*
X230009000Y-77178250D01*
X230009000Y-76454000D01*
X230009000Y-76200000D01*
X230009000Y-75475750D01*
X229850250Y-75317000D01*
X229609691Y-75317000D01*
X229376302Y-75413673D01*
X229197673Y-75592301D01*
X229101000Y-75825690D01*
X229101000Y-76041250D01*
X229259750Y-76200000D01*
X230009000Y-76200000D01*
X230009000Y-76454000D01*
X229259750Y-76454000D01*
X229101000Y-76612750D01*
X229101000Y-76828310D01*
X229197673Y-77061699D01*
X229376302Y-77240327D01*
X229609691Y-77337000D01*
X229850250Y-77337000D01*
X230009000Y-77178250D01*
X230009000Y-91158660D01*
X229473400Y-91158660D01*
X229346514Y-91183278D01*
X229127018Y-90963782D01*
X228838606Y-90771071D01*
X228734350Y-90750333D01*
X228676373Y-90662073D01*
X228465340Y-90519623D01*
X228215700Y-90469560D01*
X227715700Y-90469560D01*
X227473577Y-90516537D01*
X227260773Y-90656327D01*
X227216086Y-90722528D01*
X227176373Y-90662073D01*
X226965340Y-90519623D01*
X226715700Y-90469560D01*
X226215700Y-90469560D01*
X226162300Y-90479920D01*
X226162300Y-89128600D01*
X226162300Y-89077800D01*
X226162300Y-76675512D01*
X226271638Y-76412199D01*
X226271962Y-76040233D01*
X226245685Y-75976640D01*
X226715700Y-75976640D01*
X226957823Y-75929663D01*
X227170627Y-75789873D01*
X227215313Y-75723671D01*
X227255027Y-75784127D01*
X227466060Y-75926577D01*
X227715700Y-75976640D01*
X228215700Y-75976640D01*
X228457823Y-75929663D01*
X228670627Y-75789873D01*
X228700448Y-75745693D01*
X228927505Y-75700529D01*
X228927506Y-75700529D01*
X229215918Y-75507818D01*
X229431832Y-75291903D01*
X229473400Y-75300240D01*
X230747000Y-75300240D01*
X230747000Y-75352080D01*
X230662309Y-75317000D01*
X230421750Y-75317000D01*
X230263000Y-75475750D01*
X230263000Y-76200000D01*
X230283000Y-76200000D01*
X230283000Y-76454000D01*
X230263000Y-76454000D01*
X230263000Y-77178250D01*
X230421750Y-77337000D01*
X230662309Y-77337000D01*
X230726047Y-77310598D01*
X230638176Y-77522217D01*
X230637825Y-77924020D01*
X230791264Y-78295372D01*
X231075134Y-78579737D01*
X231446217Y-78733824D01*
X231848020Y-78734175D01*
X232219372Y-78580736D01*
X232503737Y-78296866D01*
X232657824Y-77925783D01*
X232658175Y-77523980D01*
X232504736Y-77152628D01*
X232500542Y-77148427D01*
X232633377Y-76951640D01*
X232683440Y-76702000D01*
X232683440Y-75952000D01*
X232636463Y-75709877D01*
X232525000Y-75540195D01*
X232525000Y-75290533D01*
X232573400Y-75300240D01*
X233873400Y-75300240D01*
X234115523Y-75253263D01*
X234209088Y-75191800D01*
X234391200Y-75191800D01*
X234391200Y-91267100D01*
G36*
X240989908Y-104310907D02*
X240560613Y-104310907D01*
X240560613Y-101018275D01*
X240560613Y-42090275D01*
X240198284Y-41213371D01*
X239527958Y-40541874D01*
X238651687Y-40178015D01*
X237702875Y-40177187D01*
X236825971Y-40539516D01*
X236154474Y-41209842D01*
X235790615Y-42086113D01*
X235789787Y-43034925D01*
X236152116Y-43911829D01*
X236822442Y-44583326D01*
X237698713Y-44947185D01*
X238647525Y-44948013D01*
X239524429Y-44585684D01*
X240195926Y-43915358D01*
X240559785Y-43039087D01*
X240560613Y-42090275D01*
X240560613Y-101018275D01*
X240198284Y-100141371D01*
X239527958Y-99469874D01*
X238651687Y-99106015D01*
X237702875Y-99105187D01*
X236825971Y-99467516D01*
X236154474Y-100137842D01*
X235790615Y-101014113D01*
X235789787Y-101962925D01*
X236152116Y-102839829D01*
X236822442Y-103511326D01*
X237698713Y-103875185D01*
X238647525Y-103876013D01*
X239524429Y-103513684D01*
X240195926Y-102843358D01*
X240559785Y-101967087D01*
X240560613Y-101018275D01*
X240560613Y-104310907D01*
X84233400Y-104310907D01*
X84233400Y-96767310D01*
X84233400Y-96551750D01*
X84074650Y-96393000D01*
X83325400Y-96393000D01*
X83325400Y-97117250D01*
X83484150Y-97276000D01*
X83724709Y-97276000D01*
X83958098Y-97179327D01*
X84136727Y-97000699D01*
X84233400Y-96767310D01*
X84233400Y-104310907D01*
X79645997Y-104310907D01*
X79645997Y-97354225D01*
X79473567Y-96936914D01*
X79154565Y-96617355D01*
X78737556Y-96444197D01*
X78286025Y-96443803D01*
X77868714Y-96616233D01*
X77549155Y-96935235D01*
X77375997Y-97352244D01*
X77375603Y-97803775D01*
X77548033Y-98221086D01*
X77867035Y-98540645D01*
X78284044Y-98713803D01*
X78735575Y-98714197D01*
X79152886Y-98541767D01*
X79472445Y-98222765D01*
X79645603Y-97805756D01*
X79645997Y-97354225D01*
X79645997Y-104310907D01*
X77568813Y-104310907D01*
X77568813Y-101018275D01*
X77206484Y-100141371D01*
X76536158Y-99469874D01*
X75659887Y-99106015D01*
X74711075Y-99105187D01*
X73834171Y-99467516D01*
X73162674Y-100137842D01*
X72798815Y-101014113D01*
X72797987Y-101962925D01*
X73160316Y-102839829D01*
X73830642Y-103511326D01*
X74706913Y-103875185D01*
X75655725Y-103876013D01*
X76532629Y-103513684D01*
X77204126Y-102843358D01*
X77567985Y-101967087D01*
X77568813Y-101018275D01*
X77568813Y-104310907D01*
X72359906Y-104310907D01*
X72359906Y-39742698D01*
X207368542Y-39742698D01*
X207153175Y-39785537D01*
X206897724Y-39956224D01*
X204865724Y-41988224D01*
X204695037Y-42243675D01*
X204635100Y-42545000D01*
X204635100Y-49013348D01*
X203762848Y-49885600D01*
X203442200Y-49885600D01*
X203442200Y-48513350D01*
X203442200Y-47941850D01*
X203442200Y-46553909D01*
X203442200Y-46301290D01*
X203345527Y-46067901D01*
X203166898Y-45889273D01*
X202933509Y-45792600D01*
X201692950Y-45792600D01*
X201534200Y-45951350D01*
X201534200Y-48100600D01*
X203283450Y-48100600D01*
X203442200Y-47941850D01*
X203442200Y-48513350D01*
X203283450Y-48354600D01*
X201534200Y-48354600D01*
X201534200Y-48374600D01*
X201280200Y-48374600D01*
X201280200Y-48354600D01*
X201280200Y-48100600D01*
X201280200Y-45951350D01*
X201121450Y-45792600D01*
X199880891Y-45792600D01*
X199647502Y-45889273D01*
X199468873Y-46067901D01*
X199372200Y-46301290D01*
X199372200Y-46553909D01*
X199372200Y-47941850D01*
X199530950Y-48100600D01*
X201280200Y-48100600D01*
X201280200Y-48354600D01*
X199530950Y-48354600D01*
X199372200Y-48513350D01*
X199372200Y-48697788D01*
X199310727Y-48636208D01*
X198967199Y-48493562D01*
X198754165Y-48493376D01*
X198754165Y-41444377D01*
X198726978Y-40874146D01*
X198561064Y-40473595D01*
X198314945Y-40399461D01*
X198135339Y-40579066D01*
X198135339Y-40219855D01*
X198061205Y-39973736D01*
X197523977Y-39780635D01*
X196953746Y-39807822D01*
X196553195Y-39973736D01*
X196479061Y-40219855D01*
X197307200Y-41047995D01*
X198135339Y-40219855D01*
X198135339Y-40579066D01*
X197486805Y-41227600D01*
X198314945Y-42055739D01*
X198561064Y-41981605D01*
X198754165Y-41444377D01*
X198754165Y-48493376D01*
X198595233Y-48493238D01*
X198329830Y-48602900D01*
X198135339Y-48602900D01*
X198135339Y-42235345D01*
X197307200Y-41407205D01*
X197127595Y-41586810D01*
X197127595Y-41227600D01*
X196299455Y-40399461D01*
X196053336Y-40473595D01*
X195860235Y-41010823D01*
X195887422Y-41581054D01*
X196053336Y-41981605D01*
X196299455Y-42055739D01*
X197127595Y-41227600D01*
X197127595Y-41586810D01*
X196479061Y-42235345D01*
X196553195Y-42481464D01*
X197090423Y-42674565D01*
X197660654Y-42647378D01*
X198061205Y-42481464D01*
X198135339Y-42235345D01*
X198135339Y-48602900D01*
X193742448Y-48602900D01*
X193742448Y-40943413D01*
X193524443Y-40415800D01*
X193121123Y-40011776D01*
X192593891Y-39792850D01*
X192023013Y-39792352D01*
X191495400Y-40010357D01*
X191091376Y-40413677D01*
X190872450Y-40940909D01*
X190871952Y-41511787D01*
X191089957Y-42039400D01*
X191493277Y-42443424D01*
X192020509Y-42662350D01*
X192591387Y-42662848D01*
X193119000Y-42444843D01*
X193523024Y-42041523D01*
X193741950Y-41514291D01*
X193742448Y-40943413D01*
X193742448Y-48602900D01*
X191254912Y-48602900D01*
X191077188Y-48529101D01*
X191077188Y-43727127D01*
X190912354Y-43328200D01*
X190607405Y-43022718D01*
X190208767Y-42857189D01*
X189777127Y-42856812D01*
X189609679Y-42926000D01*
X188460320Y-42926000D01*
X188346717Y-42651057D01*
X188083927Y-42387808D01*
X187740399Y-42245162D01*
X187368433Y-42244838D01*
X187024657Y-42386883D01*
X186761408Y-42649673D01*
X186646666Y-42926000D01*
X122528765Y-42926000D01*
X122528765Y-41495177D01*
X122501578Y-40924946D01*
X122335664Y-40524395D01*
X122089545Y-40450261D01*
X121909939Y-40629866D01*
X121909939Y-40270655D01*
X121835805Y-40024536D01*
X121298577Y-39831435D01*
X120728346Y-39858622D01*
X120327795Y-40024536D01*
X120253661Y-40270655D01*
X121081800Y-41098795D01*
X121909939Y-40270655D01*
X121909939Y-40629866D01*
X121261405Y-41278400D01*
X122089545Y-42106539D01*
X122335664Y-42032405D01*
X122528765Y-41495177D01*
X122528765Y-42926000D01*
X121909939Y-42926000D01*
X121909939Y-42286145D01*
X121081800Y-41458005D01*
X120902195Y-41637610D01*
X120902195Y-41278400D01*
X120074055Y-40450261D01*
X119827936Y-40524395D01*
X119634835Y-41061623D01*
X119662022Y-41631854D01*
X119827936Y-42032405D01*
X120074055Y-42106539D01*
X120902195Y-41278400D01*
X120902195Y-41637610D01*
X120253661Y-42286145D01*
X120327795Y-42532264D01*
X120865023Y-42725365D01*
X121435254Y-42698178D01*
X121835805Y-42532264D01*
X121909939Y-42286145D01*
X121909939Y-42926000D01*
X117517048Y-42926000D01*
X117517048Y-40994213D01*
X117299043Y-40466600D01*
X116895723Y-40062576D01*
X116368491Y-39843650D01*
X115797613Y-39843152D01*
X115270000Y-40061157D01*
X114865976Y-40464477D01*
X114647050Y-40991709D01*
X114646552Y-41562587D01*
X114864557Y-42090200D01*
X115267877Y-42494224D01*
X115795109Y-42713150D01*
X116365987Y-42713648D01*
X116893600Y-42495643D01*
X117297624Y-42092323D01*
X117516550Y-41565091D01*
X117517048Y-40994213D01*
X117517048Y-42926000D01*
X110008882Y-42926000D01*
X109843167Y-42857189D01*
X109411527Y-42856812D01*
X109012600Y-43021646D01*
X108707118Y-43326595D01*
X108541589Y-43725233D01*
X108541212Y-44156873D01*
X108706046Y-44555800D01*
X109010995Y-44861282D01*
X109409633Y-45026811D01*
X109841273Y-45027188D01*
X110008720Y-44958000D01*
X187553600Y-44958000D01*
X189609517Y-44958000D01*
X189775233Y-45026811D01*
X190206873Y-45027188D01*
X190605800Y-44862354D01*
X190911282Y-44557405D01*
X191076811Y-44158767D01*
X191077188Y-43727127D01*
X191077188Y-48529101D01*
X190991599Y-48493562D01*
X190619633Y-48493238D01*
X190275857Y-48635283D01*
X190242200Y-48668881D01*
X190242200Y-48513350D01*
X190242200Y-47941850D01*
X190242200Y-46553909D01*
X190242200Y-46301290D01*
X190145527Y-46067901D01*
X189966898Y-45889273D01*
X189733509Y-45792600D01*
X188492950Y-45792600D01*
X188334200Y-45951350D01*
X188334200Y-48100600D01*
X190083450Y-48100600D01*
X190242200Y-47941850D01*
X190242200Y-48513350D01*
X190083450Y-48354600D01*
X188334200Y-48354600D01*
X188334200Y-48374600D01*
X188080200Y-48374600D01*
X188080200Y-48354600D01*
X188080200Y-48100600D01*
X188080200Y-45951350D01*
X187921450Y-45792600D01*
X186680891Y-45792600D01*
X186447502Y-45889273D01*
X186268873Y-46067901D01*
X186172200Y-46301290D01*
X186172200Y-46553909D01*
X186172200Y-47941850D01*
X186330950Y-48100600D01*
X188080200Y-48100600D01*
X188080200Y-48354600D01*
X186330950Y-48354600D01*
X186172200Y-48513350D01*
X186172200Y-49901291D01*
X186172200Y-50153910D01*
X186268873Y-50387299D01*
X186447502Y-50565927D01*
X186680891Y-50662600D01*
X186793348Y-50662600D01*
X184331848Y-53124100D01*
X161353500Y-53124100D01*
X161052175Y-53184037D01*
X160942325Y-53257436D01*
X160867827Y-53182808D01*
X160524299Y-53040162D01*
X160152333Y-53039838D01*
X159808557Y-53181883D01*
X159545308Y-53444673D01*
X159402662Y-53788201D01*
X159402654Y-53796293D01*
X157801797Y-55397150D01*
X157801797Y-49068825D01*
X157629367Y-48651514D01*
X157310365Y-48331955D01*
X156893356Y-48158797D01*
X156441825Y-48158403D01*
X156024514Y-48330833D01*
X155704955Y-48649835D01*
X155531797Y-49066844D01*
X155531403Y-49518375D01*
X155703833Y-49935686D01*
X156022835Y-50255245D01*
X156439844Y-50428403D01*
X156891375Y-50428797D01*
X157308686Y-50256367D01*
X157628245Y-49937365D01*
X157801403Y-49520356D01*
X157801797Y-49068825D01*
X157801797Y-55397150D01*
X155548747Y-57650200D01*
X153462152Y-57650200D01*
X153110600Y-57298648D01*
X153110600Y-54475200D01*
X153050663Y-54173875D01*
X152879976Y-53918424D01*
X152379776Y-53418224D01*
X152124325Y-53247537D01*
X151823000Y-53187600D01*
X151603940Y-53187600D01*
X151603940Y-49483500D01*
X151603940Y-48433500D01*
X151556963Y-48191377D01*
X151417173Y-47978573D01*
X151206140Y-47836123D01*
X150956500Y-47786060D01*
X149906500Y-47786060D01*
X149664377Y-47833037D01*
X149593155Y-47879822D01*
X149312515Y-47785454D01*
X148852114Y-47816957D01*
X148573075Y-47932538D01*
X148535705Y-48134686D01*
X148526500Y-48143892D01*
X148517294Y-48134686D01*
X148479925Y-47932538D01*
X148042515Y-47785454D01*
X147582114Y-47816957D01*
X147303075Y-47932538D01*
X147292654Y-47988905D01*
X147279445Y-47975673D01*
X146853251Y-47798702D01*
X146391774Y-47798299D01*
X145965271Y-47974526D01*
X145950426Y-47989344D01*
X145939925Y-47932538D01*
X145502515Y-47785454D01*
X145042114Y-47816957D01*
X144763075Y-47932538D01*
X144722833Y-48150227D01*
X145351500Y-48778895D01*
X145365642Y-48764752D01*
X145461584Y-48860694D01*
X145461413Y-49056476D01*
X145449305Y-49068584D01*
X145253523Y-49068413D01*
X145157752Y-48972642D01*
X145171895Y-48958500D01*
X144543227Y-48329833D01*
X144325538Y-48370075D01*
X144178454Y-48807485D01*
X144209957Y-49267886D01*
X144325538Y-49546925D01*
X144381905Y-49557345D01*
X144368673Y-49570555D01*
X144191702Y-49996749D01*
X144191299Y-50458226D01*
X144367526Y-50884729D01*
X144693555Y-51211327D01*
X145119749Y-51388298D01*
X145581226Y-51388701D01*
X145986972Y-51221050D01*
X146389749Y-51388298D01*
X146851226Y-51388701D01*
X147256972Y-51221050D01*
X147659749Y-51388298D01*
X148121226Y-51388701D01*
X148526972Y-51221050D01*
X148929749Y-51388298D01*
X149391226Y-51388701D01*
X149796972Y-51221050D01*
X150199749Y-51388298D01*
X150661226Y-51388701D01*
X151087729Y-51212474D01*
X151414327Y-50886445D01*
X151591298Y-50460251D01*
X151591701Y-49998774D01*
X151509256Y-49799242D01*
X151553877Y-49733140D01*
X151603940Y-49483500D01*
X151603940Y-53187600D01*
X149884800Y-53187600D01*
X144335500Y-53187600D01*
X144034175Y-53247537D01*
X143778724Y-53418224D01*
X142548848Y-54648100D01*
X142330610Y-54648100D01*
X142325827Y-54643308D01*
X141982299Y-54500662D01*
X141610333Y-54500338D01*
X141266557Y-54642383D01*
X141003308Y-54905173D01*
X140860662Y-55248701D01*
X140860338Y-55620667D01*
X141002383Y-55964443D01*
X141265173Y-56227692D01*
X141608701Y-56370338D01*
X141980667Y-56370662D01*
X142324443Y-56228617D01*
X142330169Y-56222900D01*
X142875000Y-56222900D01*
X143176325Y-56162963D01*
X143431776Y-55992276D01*
X144396416Y-55027635D01*
X144494883Y-55265943D01*
X144757673Y-55529192D01*
X145101201Y-55671838D01*
X145473167Y-55672162D01*
X145816943Y-55530117D01*
X145822669Y-55524400D01*
X147102389Y-55524400D01*
X147107173Y-55529192D01*
X147450701Y-55671838D01*
X147822667Y-55672162D01*
X148166443Y-55530117D01*
X148429692Y-55267327D01*
X148572338Y-54923799D01*
X148572478Y-54762400D01*
X148670977Y-54762400D01*
X148670838Y-54922167D01*
X148812883Y-55265943D01*
X149075673Y-55529192D01*
X149419201Y-55671838D01*
X149427293Y-55671845D01*
X149885400Y-56129952D01*
X149885400Y-59780313D01*
X149831037Y-59861673D01*
X149771100Y-60162998D01*
X149771100Y-61023500D01*
X149831037Y-61324825D01*
X150001724Y-61580276D01*
X150382724Y-61961276D01*
X150541582Y-62067421D01*
X150528308Y-62080673D01*
X150385662Y-62424201D01*
X150385338Y-62796167D01*
X150527383Y-63139943D01*
X150790173Y-63403192D01*
X150870159Y-63436405D01*
X150791557Y-63468883D01*
X150528308Y-63731673D01*
X150385662Y-64075201D01*
X150385338Y-64447167D01*
X150527383Y-64790943D01*
X150533100Y-64796669D01*
X150533100Y-66287915D01*
X150464763Y-66356134D01*
X150310676Y-66727217D01*
X150310325Y-67129020D01*
X150463764Y-67500372D01*
X150747634Y-67784737D01*
X151118717Y-67938824D01*
X151520520Y-67939175D01*
X151564406Y-67921041D01*
X149372762Y-70112685D01*
X149372762Y-65727833D01*
X149230717Y-65384057D01*
X148967927Y-65120808D01*
X148624399Y-64978162D01*
X148252433Y-64977838D01*
X147987030Y-65087500D01*
X141819933Y-65087500D01*
X140538494Y-63806060D01*
X140429617Y-63542557D01*
X140166827Y-63279308D01*
X139823299Y-63136662D01*
X139451333Y-63136338D01*
X139107557Y-63278383D01*
X138844308Y-63541173D01*
X138701662Y-63884701D01*
X138701338Y-64256667D01*
X138843383Y-64600443D01*
X139106173Y-64863692D01*
X139371383Y-64973817D01*
X140894280Y-66496713D01*
X140894283Y-66496717D01*
X141054824Y-66603986D01*
X141162094Y-66675663D01*
X141162095Y-66675663D01*
X141478000Y-66738500D01*
X147987487Y-66738500D01*
X148250801Y-66847838D01*
X148622767Y-66848162D01*
X148966543Y-66706117D01*
X149229792Y-66443327D01*
X149372438Y-66099799D01*
X149372762Y-65727833D01*
X149372762Y-70112685D01*
X148668224Y-70817224D01*
X148497537Y-71072675D01*
X148437600Y-71374000D01*
X148437600Y-75746848D01*
X147819348Y-76365100D01*
X127216800Y-76365100D01*
X127216800Y-50204710D01*
X127216800Y-49952091D01*
X127216800Y-48564150D01*
X127216800Y-47992650D01*
X127216800Y-46604709D01*
X127216800Y-46352090D01*
X127120127Y-46118701D01*
X126941498Y-45940073D01*
X126708109Y-45843400D01*
X125467550Y-45843400D01*
X125308800Y-46002150D01*
X125308800Y-48151400D01*
X127058050Y-48151400D01*
X127216800Y-47992650D01*
X127216800Y-48564150D01*
X127058050Y-48405400D01*
X125308800Y-48405400D01*
X125308800Y-50554650D01*
X125467550Y-50713400D01*
X126708109Y-50713400D01*
X126941498Y-50616727D01*
X127120127Y-50438099D01*
X127216800Y-50204710D01*
X127216800Y-76365100D01*
X125054800Y-76365100D01*
X125054800Y-50554650D01*
X125054800Y-48405400D01*
X125054800Y-48151400D01*
X125054800Y-46002150D01*
X124896050Y-45843400D01*
X123655491Y-45843400D01*
X123422102Y-45940073D01*
X123243473Y-46118701D01*
X123146800Y-46352090D01*
X123146800Y-46604709D01*
X123146800Y-47992650D01*
X123305550Y-48151400D01*
X125054800Y-48151400D01*
X125054800Y-48405400D01*
X123305550Y-48405400D01*
X123146800Y-48564150D01*
X123146800Y-49952091D01*
X123146800Y-50204710D01*
X123243473Y-50438099D01*
X123422102Y-50616727D01*
X123655491Y-50713400D01*
X124896050Y-50713400D01*
X125054800Y-50554650D01*
X125054800Y-76365100D01*
X122517048Y-76365100D01*
X122517048Y-55494213D01*
X122299043Y-54966600D01*
X122245562Y-54913025D01*
X122245562Y-50157633D01*
X122103517Y-49813857D01*
X121840727Y-49550608D01*
X121497199Y-49407962D01*
X121125233Y-49407638D01*
X120859830Y-49517300D01*
X119017312Y-49517300D01*
X118753999Y-49407962D01*
X118382033Y-49407638D01*
X118038257Y-49549683D01*
X117775008Y-49812473D01*
X117632362Y-50156001D01*
X117632038Y-50527967D01*
X117774083Y-50871743D01*
X118036873Y-51134992D01*
X118380401Y-51277638D01*
X118752367Y-51277962D01*
X119017769Y-51168300D01*
X120860287Y-51168300D01*
X121123601Y-51277638D01*
X121495567Y-51277962D01*
X121839343Y-51135917D01*
X122102592Y-50873127D01*
X122245238Y-50529599D01*
X122245562Y-50157633D01*
X122245562Y-54913025D01*
X121895723Y-54562576D01*
X121368491Y-54343650D01*
X120797613Y-54343152D01*
X120270000Y-54561157D01*
X119865976Y-54964477D01*
X119838376Y-55030943D01*
X119835664Y-55024395D01*
X119589545Y-54950261D01*
X119409939Y-55129866D01*
X119409939Y-54770655D01*
X119335805Y-54524536D01*
X118798577Y-54331435D01*
X118228346Y-54358622D01*
X117827795Y-54524536D01*
X117753661Y-54770655D01*
X118581800Y-55598795D01*
X119409939Y-54770655D01*
X119409939Y-55129866D01*
X118761405Y-55778400D01*
X119589545Y-56606539D01*
X119835664Y-56532405D01*
X119837995Y-56525917D01*
X119864557Y-56590200D01*
X120267877Y-56994224D01*
X120795109Y-57213150D01*
X121365987Y-57213648D01*
X121893600Y-56995643D01*
X122297624Y-56592323D01*
X122516550Y-56065091D01*
X122517048Y-55494213D01*
X122517048Y-76365100D01*
X119409939Y-76365100D01*
X119409939Y-56786145D01*
X118581800Y-55958005D01*
X118402195Y-56137610D01*
X118402195Y-55778400D01*
X117574055Y-54950261D01*
X117327936Y-55024395D01*
X117325604Y-55030882D01*
X117299043Y-54966600D01*
X116895723Y-54562576D01*
X116368491Y-54343650D01*
X115797613Y-54343152D01*
X115270000Y-54561157D01*
X114865976Y-54964477D01*
X114647050Y-55491709D01*
X114646552Y-56062587D01*
X114864557Y-56590200D01*
X115267877Y-56994224D01*
X115795109Y-57213150D01*
X116365987Y-57213648D01*
X116893600Y-56995643D01*
X117297624Y-56592323D01*
X117325223Y-56525856D01*
X117327936Y-56532405D01*
X117574055Y-56606539D01*
X118402195Y-55778400D01*
X118402195Y-56137610D01*
X117753661Y-56786145D01*
X117827795Y-57032264D01*
X118365023Y-57225365D01*
X118935254Y-57198178D01*
X119335805Y-57032264D01*
X119409939Y-56786145D01*
X119409939Y-76365100D01*
X118745000Y-76365100D01*
X118443675Y-76425037D01*
X118188224Y-76595724D01*
X114016800Y-80767148D01*
X114016800Y-50204710D01*
X114016800Y-49952091D01*
X114016800Y-48564150D01*
X114016800Y-47992650D01*
X114016800Y-46604709D01*
X114016800Y-46352090D01*
X113920127Y-46118701D01*
X113741498Y-45940073D01*
X113508109Y-45843400D01*
X112267550Y-45843400D01*
X112108800Y-46002150D01*
X112108800Y-48151400D01*
X113858050Y-48151400D01*
X114016800Y-47992650D01*
X114016800Y-48564150D01*
X113858050Y-48405400D01*
X112108800Y-48405400D01*
X112108800Y-50554650D01*
X112267550Y-50713400D01*
X113508109Y-50713400D01*
X113741498Y-50616727D01*
X113920127Y-50438099D01*
X114016800Y-50204710D01*
X114016800Y-80767148D01*
X111854800Y-82929148D01*
X111854800Y-50554650D01*
X111854800Y-48405400D01*
X111854800Y-48151400D01*
X111854800Y-46002150D01*
X111696050Y-45843400D01*
X110455491Y-45843400D01*
X110222102Y-45940073D01*
X110043473Y-46118701D01*
X109946800Y-46352090D01*
X109946800Y-46604709D01*
X109946800Y-47992650D01*
X110105550Y-48151400D01*
X111854800Y-48151400D01*
X111854800Y-48405400D01*
X110105550Y-48405400D01*
X109946800Y-48564150D01*
X109946800Y-49952091D01*
X109946800Y-50204710D01*
X110043473Y-50438099D01*
X110222102Y-50616727D01*
X110455491Y-50713400D01*
X111696050Y-50713400D01*
X111854800Y-50554650D01*
X111854800Y-82929148D01*
X110822224Y-83961724D01*
X110651537Y-84217175D01*
X110591600Y-84518500D01*
X110591600Y-94297500D01*
X110651537Y-94598825D01*
X110822224Y-94854276D01*
X111495324Y-95527376D01*
X111750775Y-95698063D01*
X112052100Y-95758000D01*
X112762124Y-95758000D01*
X112839327Y-95875527D01*
X113050360Y-96017977D01*
X113300000Y-96068040D01*
X113800000Y-96068040D01*
X114042123Y-96021063D01*
X114254927Y-95881273D01*
X114299613Y-95815071D01*
X114339327Y-95875527D01*
X114550360Y-96017977D01*
X114800000Y-96068040D01*
X115300000Y-96068040D01*
X115542123Y-96021063D01*
X115754927Y-95881273D01*
X115796566Y-95819585D01*
X115935605Y-95791929D01*
X115935606Y-95791929D01*
X116092148Y-95687330D01*
X116007500Y-95891690D01*
X116007500Y-96107250D01*
X116166250Y-96266000D01*
X116915500Y-96266000D01*
X116915500Y-95541750D01*
X116756750Y-95383000D01*
X116516191Y-95383000D01*
X116386527Y-95436708D01*
X116456996Y-95366240D01*
X117653500Y-95366240D01*
X117653500Y-95418080D01*
X117568809Y-95383000D01*
X117328250Y-95383000D01*
X117169500Y-95541750D01*
X117169500Y-96266000D01*
X117189500Y-96266000D01*
X117189500Y-96520000D01*
X117169500Y-96520000D01*
X117169500Y-97244250D01*
X117328250Y-97403000D01*
X117568809Y-97403000D01*
X117802198Y-97306327D01*
X117803480Y-97305044D01*
X117892860Y-97365377D01*
X118142500Y-97415440D01*
X118942500Y-97415440D01*
X119184623Y-97368463D01*
X119397427Y-97228673D01*
X119539877Y-97017640D01*
X119589940Y-96768000D01*
X119589940Y-96018000D01*
X119542963Y-95775877D01*
X119431500Y-95606195D01*
X119431500Y-95359080D01*
X119467200Y-95366240D01*
X120767200Y-95366240D01*
X121009323Y-95319263D01*
X121222127Y-95179473D01*
X121364577Y-94968440D01*
X121414640Y-94718800D01*
X121414640Y-94018800D01*
X121375194Y-93815495D01*
X121414640Y-93618800D01*
X121414640Y-93057800D01*
X135008800Y-93057800D01*
X135349005Y-92990129D01*
X135349006Y-92990129D01*
X135637418Y-92797418D01*
X136424183Y-92010652D01*
X136715372Y-91890336D01*
X136999737Y-91606466D01*
X137153824Y-91235383D01*
X137154175Y-90833580D01*
X137000736Y-90462228D01*
X136716866Y-90177863D01*
X136345783Y-90023776D01*
X135943980Y-90023425D01*
X135572628Y-90176864D01*
X135288263Y-90460734D01*
X135166576Y-90753787D01*
X134640564Y-91279800D01*
X121103322Y-91279800D01*
X121016840Y-91221423D01*
X120865900Y-91191153D01*
X120865900Y-90514610D01*
X120870692Y-90509827D01*
X121013338Y-90166299D01*
X121013564Y-89906040D01*
X121436600Y-89906040D01*
X121678723Y-89859063D01*
X121891527Y-89719273D01*
X122033977Y-89508240D01*
X122084040Y-89258600D01*
X122084040Y-88458600D01*
X122037063Y-88216477D01*
X121973504Y-88119720D01*
X121974927Y-88118298D01*
X122071600Y-87884909D01*
X122071600Y-87644350D01*
X122071600Y-87072850D01*
X122071600Y-86832291D01*
X121974927Y-86598902D01*
X121796299Y-86420273D01*
X121562910Y-86323600D01*
X121347350Y-86323600D01*
X121188600Y-86482350D01*
X121188600Y-87231600D01*
X121912850Y-87231600D01*
X122071600Y-87072850D01*
X122071600Y-87644350D01*
X121912850Y-87485600D01*
X121188600Y-87485600D01*
X121188600Y-87505600D01*
X120934600Y-87505600D01*
X120934600Y-87485600D01*
X120914600Y-87485600D01*
X120914600Y-87231600D01*
X120934600Y-87231600D01*
X120934600Y-86482350D01*
X120775850Y-86323600D01*
X120560290Y-86323600D01*
X120326901Y-86420273D01*
X120148273Y-86598902D01*
X120099100Y-86717615D01*
X120094964Y-86727598D01*
X119940352Y-86727598D01*
X120099100Y-86568850D01*
X120099100Y-86228291D01*
X120002427Y-85994902D01*
X119823799Y-85816273D01*
X119590410Y-85719600D01*
X119337791Y-85719600D01*
X119124850Y-85719600D01*
X118966100Y-85878350D01*
X118966100Y-86727600D01*
X118986100Y-86727600D01*
X118986100Y-86981600D01*
X118966100Y-86981600D01*
X118966100Y-87001600D01*
X118712100Y-87001600D01*
X118712100Y-86981600D01*
X118712100Y-86727600D01*
X118712100Y-85878350D01*
X118553350Y-85719600D01*
X118340409Y-85719600D01*
X118087790Y-85719600D01*
X117854401Y-85816273D01*
X117675773Y-85994902D01*
X117579100Y-86228291D01*
X117579100Y-86568850D01*
X117737850Y-86727600D01*
X118712100Y-86727600D01*
X118712100Y-86981600D01*
X117737850Y-86981600D01*
X117579100Y-87140350D01*
X117579100Y-87480909D01*
X117675773Y-87714298D01*
X117817250Y-87855776D01*
X117759173Y-87893927D01*
X117642211Y-88067200D01*
X115424679Y-88067200D01*
X115401827Y-88044308D01*
X115058299Y-87901662D01*
X114686333Y-87901338D01*
X114342557Y-88043383D01*
X114079308Y-88306173D01*
X113936662Y-88649701D01*
X113936338Y-89021667D01*
X114078383Y-89365443D01*
X114341173Y-89628692D01*
X114684701Y-89771338D01*
X115056667Y-89771662D01*
X115370473Y-89642000D01*
X117643379Y-89642000D01*
X117753427Y-89809527D01*
X117964460Y-89951977D01*
X118214100Y-90002040D01*
X119143479Y-90002040D01*
X119143338Y-90164667D01*
X119285383Y-90508443D01*
X119291100Y-90514169D01*
X119291100Y-91205527D01*
X119225077Y-91218337D01*
X119119485Y-91287699D01*
X118818995Y-91347470D01*
X118530582Y-91540182D01*
X118304455Y-91766308D01*
X118267663Y-91576677D01*
X118127873Y-91363873D01*
X117916840Y-91221423D01*
X117667200Y-91171360D01*
X116431596Y-91171360D01*
X116198618Y-90938382D01*
X115910206Y-90745671D01*
X115801366Y-90724021D01*
X115760673Y-90662073D01*
X115549640Y-90519623D01*
X115300000Y-90469560D01*
X114800000Y-90469560D01*
X114557877Y-90516537D01*
X114345073Y-90656327D01*
X114300386Y-90722528D01*
X114260673Y-90662073D01*
X114049640Y-90519623D01*
X113800000Y-90469560D01*
X113300000Y-90469560D01*
X113182400Y-90492376D01*
X113182400Y-85289152D01*
X119515652Y-78955900D01*
X145044728Y-78955900D01*
X144784175Y-79345845D01*
X144658500Y-79977655D01*
X144658500Y-80042345D01*
X144784175Y-80674155D01*
X145142067Y-81209778D01*
X145677690Y-81567670D01*
X146309500Y-81693345D01*
X146941310Y-81567670D01*
X147277501Y-81343034D01*
X147295173Y-81385698D01*
X147473801Y-81564327D01*
X147707190Y-81661000D01*
X147959809Y-81661000D01*
X148563750Y-81661000D01*
X148722500Y-81502250D01*
X148722500Y-80137000D01*
X148702500Y-80137000D01*
X148702500Y-79883000D01*
X148722500Y-79883000D01*
X148722500Y-79863000D01*
X148976500Y-79863000D01*
X148976500Y-79883000D01*
X150341750Y-79883000D01*
X150500500Y-79724250D01*
X150500500Y-79463900D01*
X157416500Y-79463900D01*
X157717825Y-79403963D01*
X157973276Y-79233276D01*
X158377652Y-78828900D01*
X158405389Y-78828900D01*
X158410173Y-78833692D01*
X158753701Y-78976338D01*
X159125667Y-78976662D01*
X159469443Y-78834617D01*
X159732692Y-78571827D01*
X159820566Y-78360203D01*
X159912683Y-78583143D01*
X160175473Y-78846392D01*
X160519001Y-78989038D01*
X160890967Y-78989362D01*
X161234743Y-78847317D01*
X161497992Y-78584527D01*
X161640638Y-78240999D01*
X161640962Y-77869033D01*
X161498917Y-77525257D01*
X161493200Y-77519530D01*
X161493200Y-75814952D01*
X166228276Y-71079876D01*
X166398963Y-70824425D01*
X166458900Y-70523100D01*
X166458900Y-69852112D01*
X166564201Y-69895838D01*
X166936167Y-69896162D01*
X167279943Y-69754117D01*
X167285669Y-69748400D01*
X170815000Y-69748400D01*
X171116325Y-69688463D01*
X171371776Y-69517776D01*
X171755395Y-69134156D01*
X171762167Y-69134162D01*
X172105943Y-68992117D01*
X172369192Y-68729327D01*
X172511838Y-68385799D01*
X172512162Y-68013833D01*
X172370117Y-67670057D01*
X172107327Y-67406808D01*
X171763799Y-67264162D01*
X171391833Y-67263838D01*
X171048057Y-67405883D01*
X170784808Y-67668673D01*
X170642162Y-68012201D01*
X170642154Y-68020293D01*
X170488848Y-68173600D01*
X167286110Y-68173600D01*
X167281327Y-68168808D01*
X166937799Y-68026162D01*
X166660536Y-68025920D01*
X166681500Y-67975309D01*
X166681500Y-67734750D01*
X166681500Y-67163250D01*
X166681500Y-66922691D01*
X166584827Y-66689302D01*
X166406199Y-66510673D01*
X166172810Y-66414000D01*
X165957250Y-66414000D01*
X165798500Y-66572750D01*
X165798500Y-67322000D01*
X166522750Y-67322000D01*
X166681500Y-67163250D01*
X166681500Y-67734750D01*
X166522750Y-67576000D01*
X165798500Y-67576000D01*
X165798500Y-67596000D01*
X165544500Y-67596000D01*
X165544500Y-67576000D01*
X165544500Y-67322000D01*
X165544500Y-66572750D01*
X165385750Y-66414000D01*
X165170190Y-66414000D01*
X164936801Y-66510673D01*
X164758173Y-66689302D01*
X164661500Y-66922691D01*
X164661500Y-67163250D01*
X164820250Y-67322000D01*
X165544500Y-67322000D01*
X165544500Y-67576000D01*
X164820250Y-67576000D01*
X164661500Y-67734750D01*
X164661500Y-67975309D01*
X164758173Y-68208698D01*
X164759455Y-68209980D01*
X164699123Y-68299360D01*
X164649060Y-68549000D01*
X164649060Y-69349000D01*
X164696037Y-69591123D01*
X164835827Y-69803927D01*
X164884100Y-69836511D01*
X164884100Y-70089830D01*
X164741327Y-69946808D01*
X164509117Y-69850385D01*
X164369117Y-69511557D01*
X164106327Y-69248308D01*
X163762799Y-69105662D01*
X163390833Y-69105338D01*
X163047057Y-69247383D01*
X163041330Y-69253100D01*
X161780578Y-69253100D01*
X161780662Y-69156833D01*
X161701297Y-68964754D01*
X168029652Y-62636400D01*
X172339000Y-62636400D01*
X172640325Y-62576463D01*
X172895776Y-62405776D01*
X173152395Y-62149156D01*
X173159167Y-62149162D01*
X173502943Y-62007117D01*
X173766192Y-61744327D01*
X173908838Y-61400799D01*
X173908923Y-61302900D01*
X181918848Y-61302900D01*
X186537600Y-65921652D01*
X186537600Y-93789500D01*
X186597537Y-94090825D01*
X186768224Y-94346276D01*
X187949324Y-95527376D01*
X188204775Y-95698063D01*
X188506100Y-95758000D01*
X188987524Y-95758000D01*
X189064727Y-95875527D01*
X189275760Y-96017977D01*
X189525400Y-96068040D01*
X190025400Y-96068040D01*
X190267523Y-96021063D01*
X190480327Y-95881273D01*
X190525013Y-95815071D01*
X190564727Y-95875527D01*
X190775760Y-96017977D01*
X191025400Y-96068040D01*
X191525400Y-96068040D01*
X191767523Y-96021063D01*
X191980327Y-95881273D01*
X192035754Y-95799159D01*
X192072105Y-95791929D01*
X192072106Y-95791929D01*
X192280080Y-95652964D01*
X192207500Y-95828190D01*
X192207500Y-96043750D01*
X192366250Y-96202500D01*
X193115500Y-96202500D01*
X193115500Y-96182500D01*
X193369500Y-96182500D01*
X193369500Y-96202500D01*
X193389500Y-96202500D01*
X193389500Y-96456500D01*
X193369500Y-96456500D01*
X193369500Y-97180750D01*
X193528250Y-97339500D01*
X193768809Y-97339500D01*
X194002198Y-97242827D01*
X194003480Y-97241544D01*
X194092860Y-97301877D01*
X194342500Y-97351940D01*
X195142500Y-97351940D01*
X195384623Y-97304963D01*
X195597427Y-97165173D01*
X195739877Y-96954140D01*
X195789940Y-96704500D01*
X195789940Y-95954500D01*
X195742963Y-95712377D01*
X195631500Y-95542695D01*
X195631500Y-95356533D01*
X195679900Y-95366240D01*
X196979900Y-95366240D01*
X197222023Y-95319263D01*
X197434827Y-95179473D01*
X197577277Y-94968440D01*
X197627340Y-94718800D01*
X197627340Y-94018800D01*
X197587894Y-93815495D01*
X197627340Y-93618800D01*
X197627340Y-93057800D01*
X210662700Y-93057800D01*
X211002905Y-92990129D01*
X211002906Y-92990129D01*
X211291318Y-92797418D01*
X212624183Y-91464552D01*
X212915372Y-91344236D01*
X213199737Y-91060366D01*
X213353824Y-90689283D01*
X213354175Y-90287480D01*
X213200736Y-89916128D01*
X213169500Y-89884837D01*
X213169500Y-81418733D01*
X214057533Y-80530700D01*
X215145087Y-80530700D01*
X215408401Y-80640038D01*
X215780367Y-80640362D01*
X216124143Y-80498317D01*
X216387392Y-80235527D01*
X216530038Y-79891999D01*
X216530362Y-79520033D01*
X216388317Y-79176257D01*
X216125527Y-78913008D01*
X215781999Y-78770362D01*
X215410033Y-78770038D01*
X215144630Y-78879700D01*
X213715600Y-78879700D01*
X213399694Y-78942537D01*
X213292424Y-79014213D01*
X213131883Y-79121483D01*
X213131880Y-79121486D01*
X211760283Y-80493083D01*
X211581337Y-80760894D01*
X211518500Y-81076800D01*
X211518500Y-89884449D01*
X211488263Y-89914634D01*
X211366576Y-90207687D01*
X210294464Y-91279800D01*
X197316022Y-91279800D01*
X197229540Y-91221423D01*
X197117300Y-91198914D01*
X197117300Y-89967400D01*
X197057363Y-89666075D01*
X196886676Y-89410624D01*
X196366092Y-88890040D01*
X196684100Y-88890040D01*
X196926223Y-88843063D01*
X197139027Y-88703273D01*
X197281477Y-88492240D01*
X197331540Y-88242600D01*
X197331540Y-87442600D01*
X197284563Y-87200477D01*
X197221004Y-87103720D01*
X197222427Y-87102298D01*
X197319100Y-86868909D01*
X197319100Y-86628350D01*
X197319100Y-86056850D01*
X197319100Y-85816291D01*
X197222427Y-85582902D01*
X197043799Y-85404273D01*
X196810410Y-85307600D01*
X196594850Y-85307600D01*
X196436100Y-85466350D01*
X196436100Y-86215600D01*
X197160350Y-86215600D01*
X197319100Y-86056850D01*
X197319100Y-86628350D01*
X197160350Y-86469600D01*
X196436100Y-86469600D01*
X196436100Y-86489600D01*
X196182100Y-86489600D01*
X196182100Y-86469600D01*
X196162100Y-86469600D01*
X196162100Y-86215600D01*
X196182100Y-86215600D01*
X196182100Y-85466350D01*
X196023350Y-85307600D01*
X195807790Y-85307600D01*
X195574401Y-85404273D01*
X195395773Y-85582902D01*
X195346600Y-85701615D01*
X195346600Y-85648098D01*
X195187852Y-85648098D01*
X195346600Y-85489350D01*
X195346600Y-85148791D01*
X195249927Y-84915402D01*
X195071299Y-84736773D01*
X194837910Y-84640100D01*
X194585291Y-84640100D01*
X194372350Y-84640100D01*
X194213600Y-84798850D01*
X194213600Y-85648100D01*
X194233600Y-85648100D01*
X194233600Y-85902100D01*
X194213600Y-85902100D01*
X194213600Y-85922100D01*
X193959600Y-85922100D01*
X193959600Y-85902100D01*
X193959600Y-85648100D01*
X193959600Y-84798850D01*
X193800850Y-84640100D01*
X193587909Y-84640100D01*
X193335290Y-84640100D01*
X193101901Y-84736773D01*
X192923273Y-84915402D01*
X192826600Y-85148791D01*
X192826600Y-85489350D01*
X192985350Y-85648100D01*
X193959600Y-85648100D01*
X193959600Y-85902100D01*
X192985350Y-85902100D01*
X192826600Y-86060850D01*
X192826600Y-86401409D01*
X192923273Y-86634798D01*
X193064750Y-86776276D01*
X193006673Y-86814427D01*
X192864223Y-87025460D01*
X192814160Y-87275100D01*
X192814160Y-88275100D01*
X192861137Y-88517223D01*
X192909732Y-88591200D01*
X191132651Y-88591200D01*
X191093827Y-88552308D01*
X190750299Y-88409662D01*
X190378333Y-88409338D01*
X190034557Y-88551383D01*
X189771308Y-88814173D01*
X189628662Y-89157701D01*
X189628338Y-89529667D01*
X189770383Y-89873443D01*
X190033173Y-90136692D01*
X190376701Y-90279338D01*
X190748667Y-90279662D01*
X191023750Y-90166000D01*
X193551489Y-90166000D01*
X193556273Y-90170792D01*
X193899801Y-90313438D01*
X194271767Y-90313762D01*
X194615543Y-90171717D01*
X194621269Y-90166000D01*
X195414948Y-90166000D01*
X195542500Y-90293552D01*
X195542500Y-91198018D01*
X195437777Y-91218337D01*
X195344211Y-91279800D01*
X195232200Y-91279800D01*
X194891994Y-91347471D01*
X194603582Y-91540182D01*
X194494455Y-91649308D01*
X194480363Y-91576677D01*
X194340573Y-91363873D01*
X194129540Y-91221423D01*
X193879900Y-91171360D01*
X192631596Y-91171360D01*
X192424018Y-90963782D01*
X192135606Y-90771071D01*
X192026766Y-90749421D01*
X191986073Y-90687473D01*
X191775040Y-90545023D01*
X191525400Y-90494960D01*
X191025400Y-90494960D01*
X190783277Y-90541937D01*
X190570473Y-90681727D01*
X190525786Y-90747928D01*
X190486073Y-90687473D01*
X190275040Y-90545023D01*
X190025400Y-90494960D01*
X189525400Y-90494960D01*
X189283277Y-90541937D01*
X189128400Y-90643675D01*
X189128400Y-65214505D01*
X189128400Y-65214500D01*
X189128401Y-65214500D01*
X189068463Y-64913175D01*
X188897776Y-64657724D01*
X184018952Y-59778900D01*
X223901000Y-59778900D01*
X224202325Y-59718963D01*
X224457776Y-59548276D01*
X228077276Y-55928776D01*
X228247963Y-55673325D01*
X228307900Y-55372000D01*
X228307900Y-54941940D01*
X234391200Y-61025240D01*
X234391200Y-71213800D01*
X234209522Y-71213800D01*
X234123040Y-71155423D01*
X233873400Y-71105360D01*
X232573400Y-71105360D01*
X232331277Y-71152337D01*
X232237711Y-71213800D01*
X232062200Y-71213800D01*
X231721994Y-71281471D01*
X231433582Y-71474182D01*
X231377636Y-71530127D01*
X231373863Y-71510677D01*
X231234073Y-71297873D01*
X231023040Y-71155423D01*
X230773400Y-71105360D01*
X229473400Y-71105360D01*
X229357150Y-71127914D01*
X229127018Y-70897782D01*
X228838606Y-70705071D01*
X228715157Y-70680515D01*
X228676373Y-70621473D01*
X228465340Y-70479023D01*
X228215700Y-70428960D01*
X227715700Y-70428960D01*
X227473577Y-70475937D01*
X227260773Y-70615727D01*
X227216086Y-70681928D01*
X227176373Y-70621473D01*
X226965340Y-70479023D01*
X226715700Y-70428960D01*
X226215700Y-70428960D01*
X225973577Y-70475937D01*
X225760773Y-70615727D01*
X225715207Y-70683230D01*
X225515399Y-70600262D01*
X225143433Y-70599938D01*
X224799657Y-70741983D01*
X224536408Y-71004773D01*
X224393762Y-71348301D01*
X224393438Y-71720267D01*
X224535483Y-72064043D01*
X224798273Y-72327292D01*
X224878259Y-72360505D01*
X224799657Y-72392983D01*
X224536408Y-72655773D01*
X224393762Y-72999301D01*
X224393438Y-73371267D01*
X224535483Y-73715043D01*
X224798273Y-73978292D01*
X224878259Y-74011505D01*
X224799657Y-74043983D01*
X224536408Y-74306773D01*
X224393762Y-74650301D01*
X224393438Y-75022267D01*
X224504275Y-75290514D01*
X224186433Y-75290238D01*
X223842657Y-75432283D01*
X223579408Y-75695073D01*
X223436762Y-76038601D01*
X223436582Y-76244580D01*
X223274608Y-76406273D01*
X223131962Y-76749801D01*
X223131638Y-77121767D01*
X223241300Y-77387169D01*
X223241300Y-93641300D01*
X223304137Y-93957206D01*
X223483083Y-94225017D01*
X224744883Y-95486817D01*
X224761583Y-95503517D01*
X225029394Y-95682463D01*
X225029395Y-95682463D01*
X225345300Y-95745300D01*
X225702851Y-95745300D01*
X225755027Y-95824727D01*
X225966060Y-95967177D01*
X226215700Y-96017240D01*
X226715700Y-96017240D01*
X226957823Y-95970263D01*
X227170627Y-95830473D01*
X227215313Y-95764271D01*
X227255027Y-95824727D01*
X227466060Y-95967177D01*
X227715700Y-96017240D01*
X228215700Y-96017240D01*
X228457823Y-95970263D01*
X228670627Y-95830473D01*
X228680644Y-95815632D01*
X228927505Y-95766529D01*
X228927506Y-95766529D01*
X229166340Y-95606944D01*
X229101000Y-95764690D01*
X229101000Y-95980250D01*
X229259750Y-96139000D01*
X230009000Y-96139000D01*
X230009000Y-96119000D01*
X230263000Y-96119000D01*
X230263000Y-96139000D01*
X230283000Y-96139000D01*
X230283000Y-96393000D01*
X230263000Y-96393000D01*
X230263000Y-97117250D01*
X230421750Y-97276000D01*
X230662309Y-97276000D01*
X230895698Y-97179327D01*
X230896980Y-97178044D01*
X230986360Y-97238377D01*
X231236000Y-97288440D01*
X232036000Y-97288440D01*
X232278123Y-97241463D01*
X232490927Y-97101673D01*
X232633377Y-96890640D01*
X232683440Y-96641000D01*
X232683440Y-95891000D01*
X232636463Y-95648877D01*
X232525000Y-95479195D01*
X232525000Y-95343833D01*
X232573400Y-95353540D01*
X233873400Y-95353540D01*
X234115523Y-95306563D01*
X234209088Y-95245100D01*
X234391200Y-95245100D01*
X234391200Y-95578459D01*
X230084159Y-99885500D01*
X230009000Y-99885500D01*
X230009000Y-97117250D01*
X230009000Y-96393000D01*
X229259750Y-96393000D01*
X229101000Y-96551750D01*
X229101000Y-96767310D01*
X229197673Y-97000699D01*
X229376302Y-97179327D01*
X229609691Y-97276000D01*
X229850250Y-97276000D01*
X230009000Y-97117250D01*
X230009000Y-99885500D01*
X226432597Y-99885500D01*
X226432597Y-97354225D01*
X226260167Y-96936914D01*
X225941165Y-96617355D01*
X225524156Y-96444197D01*
X225072625Y-96443803D01*
X224655314Y-96616233D01*
X224335755Y-96935235D01*
X224162597Y-97352244D01*
X224162203Y-97803775D01*
X224334633Y-98221086D01*
X224653635Y-98540645D01*
X225070644Y-98713803D01*
X225522175Y-98714197D01*
X225939486Y-98541767D01*
X226259045Y-98222765D01*
X226432203Y-97805756D01*
X226432597Y-97354225D01*
X226432597Y-99885500D01*
X223584982Y-99885500D01*
X223419267Y-99816689D01*
X222987627Y-99816312D01*
X222588700Y-99981146D01*
X222372362Y-100197106D01*
X222372362Y-76065633D01*
X222259859Y-75793354D01*
X222372038Y-75523199D01*
X222372362Y-75151233D01*
X222249338Y-74853491D01*
X222372038Y-74557999D01*
X222372362Y-74186033D01*
X222259859Y-73913754D01*
X222372038Y-73643599D01*
X222372362Y-73271633D01*
X222259859Y-72999354D01*
X222372038Y-72729199D01*
X222372362Y-72357233D01*
X222259859Y-72084954D01*
X222372038Y-71814799D01*
X222372362Y-71442833D01*
X222230317Y-71099057D01*
X221967527Y-70835808D01*
X221623999Y-70693162D01*
X221252033Y-70692838D01*
X220908257Y-70834883D01*
X220645008Y-71097673D01*
X220534882Y-71362883D01*
X217957883Y-73939883D01*
X217778937Y-74207694D01*
X217716100Y-74523600D01*
X217716100Y-75531566D01*
X217683333Y-75531538D01*
X217339557Y-75673583D01*
X217076308Y-75936373D01*
X216933662Y-76279901D01*
X216933338Y-76651867D01*
X217043000Y-76917269D01*
X217043000Y-77311987D01*
X216933662Y-77575301D01*
X216933338Y-77947267D01*
X217075383Y-78291043D01*
X217338173Y-78554292D01*
X217681701Y-78696938D01*
X217716100Y-78696967D01*
X217716100Y-98057666D01*
X217094766Y-98679000D01*
X213106000Y-98679000D01*
X193115500Y-98679000D01*
X193115500Y-97180750D01*
X193115500Y-96456500D01*
X192366250Y-96456500D01*
X192207500Y-96615250D01*
X192207500Y-96830810D01*
X192304173Y-97064199D01*
X192482802Y-97242827D01*
X192716191Y-97339500D01*
X192956750Y-97339500D01*
X193115500Y-97180750D01*
X193115500Y-98679000D01*
X168661500Y-98679000D01*
X168661500Y-81152309D01*
X168661500Y-80295750D01*
X168661500Y-79724250D01*
X168661500Y-78867691D01*
X168564827Y-78634302D01*
X168386199Y-78455673D01*
X168152810Y-78359000D01*
X167900191Y-78359000D01*
X167296250Y-78359000D01*
X167137500Y-78517750D01*
X167137500Y-79883000D01*
X168502750Y-79883000D01*
X168661500Y-79724250D01*
X168661500Y-80295750D01*
X168502750Y-80137000D01*
X167137500Y-80137000D01*
X167137500Y-81502250D01*
X167296250Y-81661000D01*
X167900191Y-81661000D01*
X168152810Y-81661000D01*
X168386199Y-81564327D01*
X168564827Y-81385698D01*
X168661500Y-81152309D01*
X168661500Y-98679000D01*
X166883500Y-98679000D01*
X166883500Y-81502250D01*
X166883500Y-80137000D01*
X166863500Y-80137000D01*
X166863500Y-79883000D01*
X166883500Y-79883000D01*
X166883500Y-78517750D01*
X166724750Y-78359000D01*
X166120809Y-78359000D01*
X165868190Y-78359000D01*
X165634801Y-78455673D01*
X165456173Y-78634302D01*
X165438501Y-78676965D01*
X165102310Y-78452330D01*
X164470500Y-78326655D01*
X163838690Y-78452330D01*
X163303067Y-78810222D01*
X162945175Y-79345845D01*
X162819500Y-79977655D01*
X162819500Y-80042345D01*
X162945175Y-80674155D01*
X163303067Y-81209778D01*
X163838690Y-81567670D01*
X164470500Y-81693345D01*
X165102310Y-81567670D01*
X165438501Y-81343034D01*
X165456173Y-81385698D01*
X165634801Y-81564327D01*
X165868190Y-81661000D01*
X166120809Y-81661000D01*
X166724750Y-81661000D01*
X166883500Y-81502250D01*
X166883500Y-98679000D01*
X159052013Y-98679000D01*
X159052013Y-88597675D01*
X158689684Y-87720771D01*
X158019358Y-87049274D01*
X157143087Y-86685415D01*
X156194275Y-86684587D01*
X155317371Y-87046916D01*
X154645874Y-87717242D01*
X154282015Y-88593513D01*
X154281187Y-89542325D01*
X154643516Y-90419229D01*
X155313842Y-91090726D01*
X156190113Y-91454585D01*
X157138925Y-91455413D01*
X158015829Y-91093084D01*
X158687326Y-90422758D01*
X159051185Y-89546487D01*
X159052013Y-88597675D01*
X159052013Y-98679000D01*
X150500500Y-98679000D01*
X150500500Y-81152309D01*
X150500500Y-80295750D01*
X150341750Y-80137000D01*
X148976500Y-80137000D01*
X148976500Y-81502250D01*
X149135250Y-81661000D01*
X149739191Y-81661000D01*
X149991810Y-81661000D01*
X150225199Y-81564327D01*
X150403827Y-81385698D01*
X150500500Y-81152309D01*
X150500500Y-98679000D01*
X116915500Y-98679000D01*
X116915500Y-97244250D01*
X116915500Y-96520000D01*
X116166250Y-96520000D01*
X116007500Y-96678750D01*
X116007500Y-96894310D01*
X116104173Y-97127699D01*
X116282802Y-97306327D01*
X116516191Y-97403000D01*
X116756750Y-97403000D01*
X116915500Y-97244250D01*
X116915500Y-98679000D01*
X105359900Y-98679000D01*
X105359900Y-68218742D01*
X105359900Y-54552158D01*
X105284997Y-54175592D01*
X105036262Y-53803338D01*
X104664008Y-53554603D01*
X104287442Y-53479700D01*
X91435000Y-53479700D01*
X91435000Y-46798709D01*
X91435000Y-46158150D01*
X91435000Y-45586650D01*
X91435000Y-44946091D01*
X91338327Y-44712702D01*
X91159699Y-44534073D01*
X90926310Y-44437400D01*
X90673691Y-44437400D01*
X90285750Y-44437400D01*
X90127000Y-44596150D01*
X90127000Y-45745400D01*
X91276250Y-45745400D01*
X91435000Y-45586650D01*
X91435000Y-46158150D01*
X91276250Y-45999400D01*
X90127000Y-45999400D01*
X90127000Y-47148650D01*
X90285750Y-47307400D01*
X90673691Y-47307400D01*
X90926310Y-47307400D01*
X91159699Y-47210727D01*
X91338327Y-47032098D01*
X91435000Y-46798709D01*
X91435000Y-53479700D01*
X90366858Y-53479700D01*
X89990292Y-53554603D01*
X89873000Y-53632975D01*
X89873000Y-47148650D01*
X89873000Y-45999400D01*
X89853000Y-45999400D01*
X89853000Y-45745400D01*
X89873000Y-45745400D01*
X89873000Y-44596150D01*
X89714250Y-44437400D01*
X89326309Y-44437400D01*
X89073690Y-44437400D01*
X88840301Y-44534073D01*
X88733006Y-44641368D01*
X88549151Y-44518520D01*
X88000000Y-44409287D01*
X87450849Y-44518520D01*
X86985302Y-44829589D01*
X86674233Y-45295136D01*
X86565000Y-45844287D01*
X86565000Y-45900513D01*
X86674233Y-46449664D01*
X86985302Y-46915211D01*
X87450849Y-47226280D01*
X88000000Y-47335513D01*
X88549151Y-47226280D01*
X88733006Y-47103431D01*
X88840301Y-47210727D01*
X89073690Y-47307400D01*
X89326309Y-47307400D01*
X89714250Y-47307400D01*
X89873000Y-47148650D01*
X89873000Y-53632975D01*
X89618038Y-53803338D01*
X89421400Y-54097624D01*
X89224762Y-53803338D01*
X88852508Y-53554603D01*
X88475942Y-53479700D01*
X77568813Y-53479700D01*
X77568813Y-42090275D01*
X77206484Y-41213371D01*
X76536158Y-40541874D01*
X75659887Y-40178015D01*
X74711075Y-40177187D01*
X73834171Y-40539516D01*
X73162674Y-41209842D01*
X72798815Y-42086113D01*
X72797987Y-43034925D01*
X73160316Y-43911829D01*
X73830642Y-44583326D01*
X74706913Y-44947185D01*
X75655725Y-44948013D01*
X76532629Y-44585684D01*
X77204126Y-43915358D01*
X77567985Y-43039087D01*
X77568813Y-42090275D01*
X77568813Y-53479700D01*
X74555358Y-53479700D01*
X74178792Y-53554603D01*
X73806538Y-53803338D01*
X73557803Y-54175592D01*
X73482900Y-54552158D01*
X73482900Y-68218742D01*
X73557803Y-68595308D01*
X73806538Y-68967562D01*
X74178792Y-69216297D01*
X74555358Y-69291200D01*
X88475942Y-69291200D01*
X88852508Y-69216297D01*
X89224762Y-68967562D01*
X89421400Y-68673275D01*
X89618038Y-68967562D01*
X89990292Y-69216297D01*
X90366858Y-69291200D01*
X104287442Y-69291200D01*
X104664008Y-69216297D01*
X105036262Y-68967562D01*
X105284997Y-68595308D01*
X105359900Y-68218742D01*
X105359900Y-98679000D01*
X97433433Y-98679000D01*
X94551500Y-95797066D01*
X94551500Y-73469500D01*
X94488663Y-73153595D01*
X94488662Y-73153594D01*
X94309717Y-72885783D01*
X94309713Y-72885780D01*
X92366617Y-70942683D01*
X92098806Y-70763737D01*
X91782900Y-70700900D01*
X87656948Y-70700900D01*
X87604773Y-70621473D01*
X87393740Y-70479023D01*
X87144100Y-70428960D01*
X86644100Y-70428960D01*
X86401977Y-70475937D01*
X86189173Y-70615727D01*
X86144486Y-70681928D01*
X86104773Y-70621473D01*
X85893740Y-70479023D01*
X85644100Y-70428960D01*
X85144100Y-70428960D01*
X84901977Y-70475937D01*
X84689173Y-70615727D01*
X84643593Y-70683250D01*
X84533894Y-70705071D01*
X84245482Y-70897782D01*
X84012596Y-71130667D01*
X83886400Y-71105360D01*
X82586400Y-71105360D01*
X82344277Y-71152337D01*
X82131473Y-71292127D01*
X81989023Y-71503160D01*
X81970643Y-71594807D01*
X81850018Y-71474182D01*
X81561606Y-71281471D01*
X81221400Y-71213800D01*
X81122522Y-71213800D01*
X81036040Y-71155423D01*
X80786400Y-71105360D01*
X79486400Y-71105360D01*
X79244277Y-71152337D01*
X79031473Y-71292127D01*
X78889023Y-71503160D01*
X78838960Y-71752800D01*
X78838960Y-72452800D01*
X78878405Y-72656104D01*
X78838960Y-72852800D01*
X78838960Y-73552800D01*
X78878405Y-73756104D01*
X78838960Y-73952800D01*
X78838960Y-74652800D01*
X78885937Y-74894923D01*
X79025727Y-75107727D01*
X79236760Y-75250177D01*
X79486400Y-75300240D01*
X80786400Y-75300240D01*
X80797400Y-75298105D01*
X80797400Y-75432581D01*
X80701023Y-75575360D01*
X80650960Y-75825000D01*
X80650960Y-76575000D01*
X80697937Y-76817123D01*
X80809400Y-76986804D01*
X80809400Y-91165819D01*
X80773700Y-91158660D01*
X79473700Y-91158660D01*
X79231577Y-91205637D01*
X79018773Y-91345427D01*
X78876323Y-91556460D01*
X78826260Y-91806100D01*
X78826260Y-92506100D01*
X78865705Y-92709404D01*
X78826260Y-92906100D01*
X78826260Y-93606100D01*
X78865705Y-93809404D01*
X78826260Y-94006100D01*
X78826260Y-94706100D01*
X78873237Y-94948223D01*
X79013027Y-95161027D01*
X79224060Y-95303477D01*
X79473700Y-95353540D01*
X80773700Y-95353540D01*
X80809400Y-95346613D01*
X80809400Y-95480804D01*
X80701023Y-95641360D01*
X80650960Y-95891000D01*
X80650960Y-96641000D01*
X80697937Y-96883123D01*
X80809400Y-97052804D01*
X80809400Y-100307342D01*
X80792518Y-100324195D01*
X80626989Y-100722833D01*
X80626612Y-101154473D01*
X80791446Y-101553400D01*
X81096395Y-101858882D01*
X81495033Y-102024411D01*
X81926673Y-102024788D01*
X82325600Y-101859954D01*
X82631082Y-101555005D01*
X82796611Y-101156367D01*
X82796988Y-100724727D01*
X82632154Y-100325800D01*
X82587400Y-100280967D01*
X82587400Y-97240919D01*
X82672091Y-97276000D01*
X82912650Y-97276000D01*
X83071400Y-97117250D01*
X83071400Y-96393000D01*
X83051400Y-96393000D01*
X83051400Y-96139000D01*
X83071400Y-96139000D01*
X83071400Y-96119000D01*
X83325400Y-96119000D01*
X83325400Y-96139000D01*
X84074650Y-96139000D01*
X84233400Y-95980250D01*
X84233400Y-95764690D01*
X84177779Y-95630411D01*
X84381494Y-95766529D01*
X84381495Y-95766529D01*
X84687333Y-95827364D01*
X84894460Y-95967177D01*
X85144100Y-96017240D01*
X85644100Y-96017240D01*
X85886223Y-95970263D01*
X86099027Y-95830473D01*
X86143713Y-95764271D01*
X86183427Y-95824727D01*
X86394460Y-95967177D01*
X86644100Y-96017240D01*
X87144100Y-96017240D01*
X87386223Y-95970263D01*
X87599027Y-95830473D01*
X87656519Y-95745300D01*
X89751866Y-95745300D01*
X89852500Y-95845933D01*
X89852500Y-97218500D01*
X89915337Y-97534406D01*
X90094283Y-97802217D01*
X95237780Y-102945713D01*
X95237783Y-102945717D01*
X95505594Y-103124662D01*
X95505595Y-103124663D01*
X95821500Y-103187500D01*
X218694000Y-103187500D01*
X219009905Y-103124663D01*
X219009906Y-103124663D01*
X219277717Y-102945717D01*
X222020913Y-100202519D01*
X222020917Y-100202517D01*
X222020917Y-100202516D01*
X222199863Y-99934705D01*
X222262700Y-99618800D01*
X222262701Y-99618800D01*
X222262700Y-99618794D01*
X222262700Y-76700912D01*
X222372038Y-76437599D01*
X222372362Y-76065633D01*
X222372362Y-100197106D01*
X222283218Y-100286095D01*
X222117689Y-100684733D01*
X222117312Y-101116373D01*
X222282146Y-101515300D01*
X222587095Y-101820782D01*
X222985733Y-101986311D01*
X223417373Y-101986688D01*
X223584820Y-101917500D01*
X230505000Y-101917500D01*
X230505000Y-101917499D01*
X230829299Y-101852992D01*
X230893806Y-101840162D01*
X230893807Y-101840162D01*
X231223420Y-101619920D01*
X236125620Y-96717720D01*
X236125621Y-96717720D01*
X236345862Y-96388107D01*
X236345862Y-96388106D01*
X236423200Y-95999300D01*
X236423200Y-94386400D01*
X236423200Y-93268800D01*
X236423200Y-92151200D01*
X236423200Y-74269600D01*
X236423200Y-73202800D01*
X236423200Y-72085200D01*
X236423200Y-60604400D01*
X236345862Y-60215594D01*
X236345862Y-60215593D01*
X236125621Y-59885980D01*
X229436476Y-53196836D01*
X229367954Y-53031000D01*
X229336600Y-52999591D01*
X229336600Y-50355500D01*
X231134387Y-50355500D01*
X231397701Y-50464838D01*
X231769667Y-50465162D01*
X232035069Y-50355500D01*
X233674387Y-50355500D01*
X233937701Y-50464838D01*
X234309667Y-50465162D01*
X234653443Y-50323117D01*
X234916692Y-50060327D01*
X235059338Y-49716799D01*
X235059662Y-49344833D01*
X234917617Y-49001057D01*
X234654827Y-48737808D01*
X234311299Y-48595162D01*
X233939333Y-48594838D01*
X233673930Y-48704500D01*
X232034612Y-48704500D01*
X231771299Y-48595162D01*
X231399333Y-48594838D01*
X231133930Y-48704500D01*
X229205552Y-48704500D01*
X230005652Y-47904400D01*
X230886000Y-47904400D01*
X231187325Y-47844463D01*
X231442776Y-47673776D01*
X232028238Y-47088313D01*
X232286511Y-47260885D01*
X232860000Y-47374959D01*
X233433489Y-47260885D01*
X233919670Y-46936029D01*
X234244526Y-46449848D01*
X234358600Y-45876359D01*
X234358600Y-45817641D01*
X234244526Y-45244152D01*
X233919670Y-44757971D01*
X233648827Y-44577000D01*
X233919670Y-44396029D01*
X234244526Y-43909848D01*
X234358600Y-43336359D01*
X234358600Y-43277641D01*
X234244526Y-42704152D01*
X233919670Y-42217971D01*
X233433489Y-41893115D01*
X232860000Y-41779041D01*
X232286511Y-41893115D01*
X231800330Y-42217971D01*
X231590000Y-42532751D01*
X231379670Y-42217971D01*
X230893489Y-41893115D01*
X230320000Y-41779041D01*
X229746511Y-41893115D01*
X229260330Y-42217971D01*
X229050000Y-42532751D01*
X228839670Y-42217971D01*
X228353489Y-41893115D01*
X227780000Y-41779041D01*
X227206511Y-41893115D01*
X226720330Y-42217971D01*
X226510000Y-42532751D01*
X226299670Y-42217971D01*
X225813489Y-41893115D01*
X225240000Y-41779041D01*
X224666511Y-41893115D01*
X224180330Y-42217971D01*
X223964336Y-42541228D01*
X223906821Y-42418510D01*
X223474947Y-42024312D01*
X223059026Y-41852042D01*
X222827000Y-41973183D01*
X222827000Y-43180000D01*
X222847000Y-43180000D01*
X222847000Y-43434000D01*
X222827000Y-43434000D01*
X222827000Y-44513183D01*
X222827000Y-44640817D01*
X222827000Y-45720000D01*
X222847000Y-45720000D01*
X222847000Y-45974000D01*
X222827000Y-45974000D01*
X222827000Y-47180817D01*
X223059026Y-47301958D01*
X223177100Y-47253053D01*
X223177100Y-47371000D01*
X223237037Y-47672325D01*
X223407724Y-47927776D01*
X224701100Y-49221152D01*
X224701100Y-54156848D01*
X222685848Y-56172100D01*
X199906652Y-56172100D01*
X199817156Y-56082604D01*
X199817162Y-56075833D01*
X199675117Y-55732057D01*
X199412327Y-55468808D01*
X199068799Y-55326162D01*
X198696833Y-55325838D01*
X198694299Y-55326884D01*
X198644722Y-55206900D01*
X217170000Y-55206900D01*
X217471325Y-55146963D01*
X217726776Y-54976276D01*
X220716776Y-51986276D01*
X220887463Y-51730825D01*
X220947400Y-51429500D01*
X220947400Y-47117954D01*
X221219670Y-46936029D01*
X221435663Y-46612771D01*
X221493179Y-46735490D01*
X221925053Y-47129688D01*
X222340974Y-47301958D01*
X222573000Y-47180817D01*
X222573000Y-45974000D01*
X222553000Y-45974000D01*
X222553000Y-45720000D01*
X222573000Y-45720000D01*
X222573000Y-44640817D01*
X222573000Y-44513183D01*
X222573000Y-43434000D01*
X222553000Y-43434000D01*
X222553000Y-43180000D01*
X222573000Y-43180000D01*
X222573000Y-41973183D01*
X222340974Y-41852042D01*
X221925053Y-42024312D01*
X221493179Y-42418510D01*
X221435663Y-42541228D01*
X221219670Y-42217971D01*
X220733489Y-41893115D01*
X220160000Y-41779041D01*
X219814347Y-41847795D01*
X217922776Y-39956224D01*
X217667325Y-39785537D01*
X217451957Y-39742698D01*
X240989908Y-39742698D01*
X240989908Y-104310907D01*
X240989908Y-104310907D01*
G37*
X240989908Y-104310907D02*
X240560613Y-104310907D01*
X240560613Y-101018275D01*
X240560613Y-42090275D01*
X240198284Y-41213371D01*
X239527958Y-40541874D01*
X238651687Y-40178015D01*
X237702875Y-40177187D01*
X236825971Y-40539516D01*
X236154474Y-41209842D01*
X235790615Y-42086113D01*
X235789787Y-43034925D01*
X236152116Y-43911829D01*
X236822442Y-44583326D01*
X237698713Y-44947185D01*
X238647525Y-44948013D01*
X239524429Y-44585684D01*
X240195926Y-43915358D01*
X240559785Y-43039087D01*
X240560613Y-42090275D01*
X240560613Y-101018275D01*
X240198284Y-100141371D01*
X239527958Y-99469874D01*
X238651687Y-99106015D01*
X237702875Y-99105187D01*
X236825971Y-99467516D01*
X236154474Y-100137842D01*
X235790615Y-101014113D01*
X235789787Y-101962925D01*
X236152116Y-102839829D01*
X236822442Y-103511326D01*
X237698713Y-103875185D01*
X238647525Y-103876013D01*
X239524429Y-103513684D01*
X240195926Y-102843358D01*
X240559785Y-101967087D01*
X240560613Y-101018275D01*
X240560613Y-104310907D01*
X84233400Y-104310907D01*
X84233400Y-96767310D01*
X84233400Y-96551750D01*
X84074650Y-96393000D01*
X83325400Y-96393000D01*
X83325400Y-97117250D01*
X83484150Y-97276000D01*
X83724709Y-97276000D01*
X83958098Y-97179327D01*
X84136727Y-97000699D01*
X84233400Y-96767310D01*
X84233400Y-104310907D01*
X79645997Y-104310907D01*
X79645997Y-97354225D01*
X79473567Y-96936914D01*
X79154565Y-96617355D01*
X78737556Y-96444197D01*
X78286025Y-96443803D01*
X77868714Y-96616233D01*
X77549155Y-96935235D01*
X77375997Y-97352244D01*
X77375603Y-97803775D01*
X77548033Y-98221086D01*
X77867035Y-98540645D01*
X78284044Y-98713803D01*
X78735575Y-98714197D01*
X79152886Y-98541767D01*
X79472445Y-98222765D01*
X79645603Y-97805756D01*
X79645997Y-97354225D01*
X79645997Y-104310907D01*
X77568813Y-104310907D01*
X77568813Y-101018275D01*
X77206484Y-100141371D01*
X76536158Y-99469874D01*
X75659887Y-99106015D01*
X74711075Y-99105187D01*
X73834171Y-99467516D01*
X73162674Y-100137842D01*
X72798815Y-101014113D01*
X72797987Y-101962925D01*
X73160316Y-102839829D01*
X73830642Y-103511326D01*
X74706913Y-103875185D01*
X75655725Y-103876013D01*
X76532629Y-103513684D01*
X77204126Y-102843358D01*
X77567985Y-101967087D01*
X77568813Y-101018275D01*
X77568813Y-104310907D01*
X72359906Y-104310907D01*
X72359906Y-39742698D01*
X207368542Y-39742698D01*
X207153175Y-39785537D01*
X206897724Y-39956224D01*
X204865724Y-41988224D01*
X204695037Y-42243675D01*
X204635100Y-42545000D01*
X204635100Y-49013348D01*
X203762848Y-49885600D01*
X203442200Y-49885600D01*
X203442200Y-48513350D01*
X203442200Y-47941850D01*
X203442200Y-46553909D01*
X203442200Y-46301290D01*
X203345527Y-46067901D01*
X203166898Y-45889273D01*
X202933509Y-45792600D01*
X201692950Y-45792600D01*
X201534200Y-45951350D01*
X201534200Y-48100600D01*
X203283450Y-48100600D01*
X203442200Y-47941850D01*
X203442200Y-48513350D01*
X203283450Y-48354600D01*
X201534200Y-48354600D01*
X201534200Y-48374600D01*
X201280200Y-48374600D01*
X201280200Y-48354600D01*
X201280200Y-48100600D01*
X201280200Y-45951350D01*
X201121450Y-45792600D01*
X199880891Y-45792600D01*
X199647502Y-45889273D01*
X199468873Y-46067901D01*
X199372200Y-46301290D01*
X199372200Y-46553909D01*
X199372200Y-47941850D01*
X199530950Y-48100600D01*
X201280200Y-48100600D01*
X201280200Y-48354600D01*
X199530950Y-48354600D01*
X199372200Y-48513350D01*
X199372200Y-48697788D01*
X199310727Y-48636208D01*
X198967199Y-48493562D01*
X198754165Y-48493376D01*
X198754165Y-41444377D01*
X198726978Y-40874146D01*
X198561064Y-40473595D01*
X198314945Y-40399461D01*
X198135339Y-40579066D01*
X198135339Y-40219855D01*
X198061205Y-39973736D01*
X197523977Y-39780635D01*
X196953746Y-39807822D01*
X196553195Y-39973736D01*
X196479061Y-40219855D01*
X197307200Y-41047995D01*
X198135339Y-40219855D01*
X198135339Y-40579066D01*
X197486805Y-41227600D01*
X198314945Y-42055739D01*
X198561064Y-41981605D01*
X198754165Y-41444377D01*
X198754165Y-48493376D01*
X198595233Y-48493238D01*
X198329830Y-48602900D01*
X198135339Y-48602900D01*
X198135339Y-42235345D01*
X197307200Y-41407205D01*
X197127595Y-41586810D01*
X197127595Y-41227600D01*
X196299455Y-40399461D01*
X196053336Y-40473595D01*
X195860235Y-41010823D01*
X195887422Y-41581054D01*
X196053336Y-41981605D01*
X196299455Y-42055739D01*
X197127595Y-41227600D01*
X197127595Y-41586810D01*
X196479061Y-42235345D01*
X196553195Y-42481464D01*
X197090423Y-42674565D01*
X197660654Y-42647378D01*
X198061205Y-42481464D01*
X198135339Y-42235345D01*
X198135339Y-48602900D01*
X193742448Y-48602900D01*
X193742448Y-40943413D01*
X193524443Y-40415800D01*
X193121123Y-40011776D01*
X192593891Y-39792850D01*
X192023013Y-39792352D01*
X191495400Y-40010357D01*
X191091376Y-40413677D01*
X190872450Y-40940909D01*
X190871952Y-41511787D01*
X191089957Y-42039400D01*
X191493277Y-42443424D01*
X192020509Y-42662350D01*
X192591387Y-42662848D01*
X193119000Y-42444843D01*
X193523024Y-42041523D01*
X193741950Y-41514291D01*
X193742448Y-40943413D01*
X193742448Y-48602900D01*
X191254912Y-48602900D01*
X191077188Y-48529101D01*
X191077188Y-43727127D01*
X190912354Y-43328200D01*
X190607405Y-43022718D01*
X190208767Y-42857189D01*
X189777127Y-42856812D01*
X189609679Y-42926000D01*
X188460320Y-42926000D01*
X188346717Y-42651057D01*
X188083927Y-42387808D01*
X187740399Y-42245162D01*
X187368433Y-42244838D01*
X187024657Y-42386883D01*
X186761408Y-42649673D01*
X186646666Y-42926000D01*
X122528765Y-42926000D01*
X122528765Y-41495177D01*
X122501578Y-40924946D01*
X122335664Y-40524395D01*
X122089545Y-40450261D01*
X121909939Y-40629866D01*
X121909939Y-40270655D01*
X121835805Y-40024536D01*
X121298577Y-39831435D01*
X120728346Y-39858622D01*
X120327795Y-40024536D01*
X120253661Y-40270655D01*
X121081800Y-41098795D01*
X121909939Y-40270655D01*
X121909939Y-40629866D01*
X121261405Y-41278400D01*
X122089545Y-42106539D01*
X122335664Y-42032405D01*
X122528765Y-41495177D01*
X122528765Y-42926000D01*
X121909939Y-42926000D01*
X121909939Y-42286145D01*
X121081800Y-41458005D01*
X120902195Y-41637610D01*
X120902195Y-41278400D01*
X120074055Y-40450261D01*
X119827936Y-40524395D01*
X119634835Y-41061623D01*
X119662022Y-41631854D01*
X119827936Y-42032405D01*
X120074055Y-42106539D01*
X120902195Y-41278400D01*
X120902195Y-41637610D01*
X120253661Y-42286145D01*
X120327795Y-42532264D01*
X120865023Y-42725365D01*
X121435254Y-42698178D01*
X121835805Y-42532264D01*
X121909939Y-42286145D01*
X121909939Y-42926000D01*
X117517048Y-42926000D01*
X117517048Y-40994213D01*
X117299043Y-40466600D01*
X116895723Y-40062576D01*
X116368491Y-39843650D01*
X115797613Y-39843152D01*
X115270000Y-40061157D01*
X114865976Y-40464477D01*
X114647050Y-40991709D01*
X114646552Y-41562587D01*
X114864557Y-42090200D01*
X115267877Y-42494224D01*
X115795109Y-42713150D01*
X116365987Y-42713648D01*
X116893600Y-42495643D01*
X117297624Y-42092323D01*
X117516550Y-41565091D01*
X117517048Y-40994213D01*
X117517048Y-42926000D01*
X110008882Y-42926000D01*
X109843167Y-42857189D01*
X109411527Y-42856812D01*
X109012600Y-43021646D01*
X108707118Y-43326595D01*
X108541589Y-43725233D01*
X108541212Y-44156873D01*
X108706046Y-44555800D01*
X109010995Y-44861282D01*
X109409633Y-45026811D01*
X109841273Y-45027188D01*
X110008720Y-44958000D01*
X187553600Y-44958000D01*
X189609517Y-44958000D01*
X189775233Y-45026811D01*
X190206873Y-45027188D01*
X190605800Y-44862354D01*
X190911282Y-44557405D01*
X191076811Y-44158767D01*
X191077188Y-43727127D01*
X191077188Y-48529101D01*
X190991599Y-48493562D01*
X190619633Y-48493238D01*
X190275857Y-48635283D01*
X190242200Y-48668881D01*
X190242200Y-48513350D01*
X190242200Y-47941850D01*
X190242200Y-46553909D01*
X190242200Y-46301290D01*
X190145527Y-46067901D01*
X189966898Y-45889273D01*
X189733509Y-45792600D01*
X188492950Y-45792600D01*
X188334200Y-45951350D01*
X188334200Y-48100600D01*
X190083450Y-48100600D01*
X190242200Y-47941850D01*
X190242200Y-48513350D01*
X190083450Y-48354600D01*
X188334200Y-48354600D01*
X188334200Y-48374600D01*
X188080200Y-48374600D01*
X188080200Y-48354600D01*
X188080200Y-48100600D01*
X188080200Y-45951350D01*
X187921450Y-45792600D01*
X186680891Y-45792600D01*
X186447502Y-45889273D01*
X186268873Y-46067901D01*
X186172200Y-46301290D01*
X186172200Y-46553909D01*
X186172200Y-47941850D01*
X186330950Y-48100600D01*
X188080200Y-48100600D01*
X188080200Y-48354600D01*
X186330950Y-48354600D01*
X186172200Y-48513350D01*
X186172200Y-49901291D01*
X186172200Y-50153910D01*
X186268873Y-50387299D01*
X186447502Y-50565927D01*
X186680891Y-50662600D01*
X186793348Y-50662600D01*
X184331848Y-53124100D01*
X161353500Y-53124100D01*
X161052175Y-53184037D01*
X160942325Y-53257436D01*
X160867827Y-53182808D01*
X160524299Y-53040162D01*
X160152333Y-53039838D01*
X159808557Y-53181883D01*
X159545308Y-53444673D01*
X159402662Y-53788201D01*
X159402654Y-53796293D01*
X157801797Y-55397150D01*
X157801797Y-49068825D01*
X157629367Y-48651514D01*
X157310365Y-48331955D01*
X156893356Y-48158797D01*
X156441825Y-48158403D01*
X156024514Y-48330833D01*
X155704955Y-48649835D01*
X155531797Y-49066844D01*
X155531403Y-49518375D01*
X155703833Y-49935686D01*
X156022835Y-50255245D01*
X156439844Y-50428403D01*
X156891375Y-50428797D01*
X157308686Y-50256367D01*
X157628245Y-49937365D01*
X157801403Y-49520356D01*
X157801797Y-49068825D01*
X157801797Y-55397150D01*
X155548747Y-57650200D01*
X153462152Y-57650200D01*
X153110600Y-57298648D01*
X153110600Y-54475200D01*
X153050663Y-54173875D01*
X152879976Y-53918424D01*
X152379776Y-53418224D01*
X152124325Y-53247537D01*
X151823000Y-53187600D01*
X151603940Y-53187600D01*
X151603940Y-49483500D01*
X151603940Y-48433500D01*
X151556963Y-48191377D01*
X151417173Y-47978573D01*
X151206140Y-47836123D01*
X150956500Y-47786060D01*
X149906500Y-47786060D01*
X149664377Y-47833037D01*
X149593155Y-47879822D01*
X149312515Y-47785454D01*
X148852114Y-47816957D01*
X148573075Y-47932538D01*
X148535705Y-48134686D01*
X148526500Y-48143892D01*
X148517294Y-48134686D01*
X148479925Y-47932538D01*
X148042515Y-47785454D01*
X147582114Y-47816957D01*
X147303075Y-47932538D01*
X147292654Y-47988905D01*
X147279445Y-47975673D01*
X146853251Y-47798702D01*
X146391774Y-47798299D01*
X145965271Y-47974526D01*
X145950426Y-47989344D01*
X145939925Y-47932538D01*
X145502515Y-47785454D01*
X145042114Y-47816957D01*
X144763075Y-47932538D01*
X144722833Y-48150227D01*
X145351500Y-48778895D01*
X145365642Y-48764752D01*
X145461584Y-48860694D01*
X145461413Y-49056476D01*
X145449305Y-49068584D01*
X145253523Y-49068413D01*
X145157752Y-48972642D01*
X145171895Y-48958500D01*
X144543227Y-48329833D01*
X144325538Y-48370075D01*
X144178454Y-48807485D01*
X144209957Y-49267886D01*
X144325538Y-49546925D01*
X144381905Y-49557345D01*
X144368673Y-49570555D01*
X144191702Y-49996749D01*
X144191299Y-50458226D01*
X144367526Y-50884729D01*
X144693555Y-51211327D01*
X145119749Y-51388298D01*
X145581226Y-51388701D01*
X145986972Y-51221050D01*
X146389749Y-51388298D01*
X146851226Y-51388701D01*
X147256972Y-51221050D01*
X147659749Y-51388298D01*
X148121226Y-51388701D01*
X148526972Y-51221050D01*
X148929749Y-51388298D01*
X149391226Y-51388701D01*
X149796972Y-51221050D01*
X150199749Y-51388298D01*
X150661226Y-51388701D01*
X151087729Y-51212474D01*
X151414327Y-50886445D01*
X151591298Y-50460251D01*
X151591701Y-49998774D01*
X151509256Y-49799242D01*
X151553877Y-49733140D01*
X151603940Y-49483500D01*
X151603940Y-53187600D01*
X149884800Y-53187600D01*
X144335500Y-53187600D01*
X144034175Y-53247537D01*
X143778724Y-53418224D01*
X142548848Y-54648100D01*
X142330610Y-54648100D01*
X142325827Y-54643308D01*
X141982299Y-54500662D01*
X141610333Y-54500338D01*
X141266557Y-54642383D01*
X141003308Y-54905173D01*
X140860662Y-55248701D01*
X140860338Y-55620667D01*
X141002383Y-55964443D01*
X141265173Y-56227692D01*
X141608701Y-56370338D01*
X141980667Y-56370662D01*
X142324443Y-56228617D01*
X142330169Y-56222900D01*
X142875000Y-56222900D01*
X143176325Y-56162963D01*
X143431776Y-55992276D01*
X144396416Y-55027635D01*
X144494883Y-55265943D01*
X144757673Y-55529192D01*
X145101201Y-55671838D01*
X145473167Y-55672162D01*
X145816943Y-55530117D01*
X145822669Y-55524400D01*
X147102389Y-55524400D01*
X147107173Y-55529192D01*
X147450701Y-55671838D01*
X147822667Y-55672162D01*
X148166443Y-55530117D01*
X148429692Y-55267327D01*
X148572338Y-54923799D01*
X148572478Y-54762400D01*
X148670977Y-54762400D01*
X148670838Y-54922167D01*
X148812883Y-55265943D01*
X149075673Y-55529192D01*
X149419201Y-55671838D01*
X149427293Y-55671845D01*
X149885400Y-56129952D01*
X149885400Y-59780313D01*
X149831037Y-59861673D01*
X149771100Y-60162998D01*
X149771100Y-61023500D01*
X149831037Y-61324825D01*
X150001724Y-61580276D01*
X150382724Y-61961276D01*
X150541582Y-62067421D01*
X150528308Y-62080673D01*
X150385662Y-62424201D01*
X150385338Y-62796167D01*
X150527383Y-63139943D01*
X150790173Y-63403192D01*
X150870159Y-63436405D01*
X150791557Y-63468883D01*
X150528308Y-63731673D01*
X150385662Y-64075201D01*
X150385338Y-64447167D01*
X150527383Y-64790943D01*
X150533100Y-64796669D01*
X150533100Y-66287915D01*
X150464763Y-66356134D01*
X150310676Y-66727217D01*
X150310325Y-67129020D01*
X150463764Y-67500372D01*
X150747634Y-67784737D01*
X151118717Y-67938824D01*
X151520520Y-67939175D01*
X151564406Y-67921041D01*
X149372762Y-70112685D01*
X149372762Y-65727833D01*
X149230717Y-65384057D01*
X148967927Y-65120808D01*
X148624399Y-64978162D01*
X148252433Y-64977838D01*
X147987030Y-65087500D01*
X141819933Y-65087500D01*
X140538494Y-63806060D01*
X140429617Y-63542557D01*
X140166827Y-63279308D01*
X139823299Y-63136662D01*
X139451333Y-63136338D01*
X139107557Y-63278383D01*
X138844308Y-63541173D01*
X138701662Y-63884701D01*
X138701338Y-64256667D01*
X138843383Y-64600443D01*
X139106173Y-64863692D01*
X139371383Y-64973817D01*
X140894280Y-66496713D01*
X140894283Y-66496717D01*
X141054824Y-66603986D01*
X141162094Y-66675663D01*
X141162095Y-66675663D01*
X141478000Y-66738500D01*
X147987487Y-66738500D01*
X148250801Y-66847838D01*
X148622767Y-66848162D01*
X148966543Y-66706117D01*
X149229792Y-66443327D01*
X149372438Y-66099799D01*
X149372762Y-65727833D01*
X149372762Y-70112685D01*
X148668224Y-70817224D01*
X148497537Y-71072675D01*
X148437600Y-71374000D01*
X148437600Y-75746848D01*
X147819348Y-76365100D01*
X127216800Y-76365100D01*
X127216800Y-50204710D01*
X127216800Y-49952091D01*
X127216800Y-48564150D01*
X127216800Y-47992650D01*
X127216800Y-46604709D01*
X127216800Y-46352090D01*
X127120127Y-46118701D01*
X126941498Y-45940073D01*
X126708109Y-45843400D01*
X125467550Y-45843400D01*
X125308800Y-46002150D01*
X125308800Y-48151400D01*
X127058050Y-48151400D01*
X127216800Y-47992650D01*
X127216800Y-48564150D01*
X127058050Y-48405400D01*
X125308800Y-48405400D01*
X125308800Y-50554650D01*
X125467550Y-50713400D01*
X126708109Y-50713400D01*
X126941498Y-50616727D01*
X127120127Y-50438099D01*
X127216800Y-50204710D01*
X127216800Y-76365100D01*
X125054800Y-76365100D01*
X125054800Y-50554650D01*
X125054800Y-48405400D01*
X125054800Y-48151400D01*
X125054800Y-46002150D01*
X124896050Y-45843400D01*
X123655491Y-45843400D01*
X123422102Y-45940073D01*
X123243473Y-46118701D01*
X123146800Y-46352090D01*
X123146800Y-46604709D01*
X123146800Y-47992650D01*
X123305550Y-48151400D01*
X125054800Y-48151400D01*
X125054800Y-48405400D01*
X123305550Y-48405400D01*
X123146800Y-48564150D01*
X123146800Y-49952091D01*
X123146800Y-50204710D01*
X123243473Y-50438099D01*
X123422102Y-50616727D01*
X123655491Y-50713400D01*
X124896050Y-50713400D01*
X125054800Y-50554650D01*
X125054800Y-76365100D01*
X122517048Y-76365100D01*
X122517048Y-55494213D01*
X122299043Y-54966600D01*
X122245562Y-54913025D01*
X122245562Y-50157633D01*
X122103517Y-49813857D01*
X121840727Y-49550608D01*
X121497199Y-49407962D01*
X121125233Y-49407638D01*
X120859830Y-49517300D01*
X119017312Y-49517300D01*
X118753999Y-49407962D01*
X118382033Y-49407638D01*
X118038257Y-49549683D01*
X117775008Y-49812473D01*
X117632362Y-50156001D01*
X117632038Y-50527967D01*
X117774083Y-50871743D01*
X118036873Y-51134992D01*
X118380401Y-51277638D01*
X118752367Y-51277962D01*
X119017769Y-51168300D01*
X120860287Y-51168300D01*
X121123601Y-51277638D01*
X121495567Y-51277962D01*
X121839343Y-51135917D01*
X122102592Y-50873127D01*
X122245238Y-50529599D01*
X122245562Y-50157633D01*
X122245562Y-54913025D01*
X121895723Y-54562576D01*
X121368491Y-54343650D01*
X120797613Y-54343152D01*
X120270000Y-54561157D01*
X119865976Y-54964477D01*
X119838376Y-55030943D01*
X119835664Y-55024395D01*
X119589545Y-54950261D01*
X119409939Y-55129866D01*
X119409939Y-54770655D01*
X119335805Y-54524536D01*
X118798577Y-54331435D01*
X118228346Y-54358622D01*
X117827795Y-54524536D01*
X117753661Y-54770655D01*
X118581800Y-55598795D01*
X119409939Y-54770655D01*
X119409939Y-55129866D01*
X118761405Y-55778400D01*
X119589545Y-56606539D01*
X119835664Y-56532405D01*
X119837995Y-56525917D01*
X119864557Y-56590200D01*
X120267877Y-56994224D01*
X120795109Y-57213150D01*
X121365987Y-57213648D01*
X121893600Y-56995643D01*
X122297624Y-56592323D01*
X122516550Y-56065091D01*
X122517048Y-55494213D01*
X122517048Y-76365100D01*
X119409939Y-76365100D01*
X119409939Y-56786145D01*
X118581800Y-55958005D01*
X118402195Y-56137610D01*
X118402195Y-55778400D01*
X117574055Y-54950261D01*
X117327936Y-55024395D01*
X117325604Y-55030882D01*
X117299043Y-54966600D01*
X116895723Y-54562576D01*
X116368491Y-54343650D01*
X115797613Y-54343152D01*
X115270000Y-54561157D01*
X114865976Y-54964477D01*
X114647050Y-55491709D01*
X114646552Y-56062587D01*
X114864557Y-56590200D01*
X115267877Y-56994224D01*
X115795109Y-57213150D01*
X116365987Y-57213648D01*
X116893600Y-56995643D01*
X117297624Y-56592323D01*
X117325223Y-56525856D01*
X117327936Y-56532405D01*
X117574055Y-56606539D01*
X118402195Y-55778400D01*
X118402195Y-56137610D01*
X117753661Y-56786145D01*
X117827795Y-57032264D01*
X118365023Y-57225365D01*
X118935254Y-57198178D01*
X119335805Y-57032264D01*
X119409939Y-56786145D01*
X119409939Y-76365100D01*
X118745000Y-76365100D01*
X118443675Y-76425037D01*
X118188224Y-76595724D01*
X114016800Y-80767148D01*
X114016800Y-50204710D01*
X114016800Y-49952091D01*
X114016800Y-48564150D01*
X114016800Y-47992650D01*
X114016800Y-46604709D01*
X114016800Y-46352090D01*
X113920127Y-46118701D01*
X113741498Y-45940073D01*
X113508109Y-45843400D01*
X112267550Y-45843400D01*
X112108800Y-46002150D01*
X112108800Y-48151400D01*
X113858050Y-48151400D01*
X114016800Y-47992650D01*
X114016800Y-48564150D01*
X113858050Y-48405400D01*
X112108800Y-48405400D01*
X112108800Y-50554650D01*
X112267550Y-50713400D01*
X113508109Y-50713400D01*
X113741498Y-50616727D01*
X113920127Y-50438099D01*
X114016800Y-50204710D01*
X114016800Y-80767148D01*
X111854800Y-82929148D01*
X111854800Y-50554650D01*
X111854800Y-48405400D01*
X111854800Y-48151400D01*
X111854800Y-46002150D01*
X111696050Y-45843400D01*
X110455491Y-45843400D01*
X110222102Y-45940073D01*
X110043473Y-46118701D01*
X109946800Y-46352090D01*
X109946800Y-46604709D01*
X109946800Y-47992650D01*
X110105550Y-48151400D01*
X111854800Y-48151400D01*
X111854800Y-48405400D01*
X110105550Y-48405400D01*
X109946800Y-48564150D01*
X109946800Y-49952091D01*
X109946800Y-50204710D01*
X110043473Y-50438099D01*
X110222102Y-50616727D01*
X110455491Y-50713400D01*
X111696050Y-50713400D01*
X111854800Y-50554650D01*
X111854800Y-82929148D01*
X110822224Y-83961724D01*
X110651537Y-84217175D01*
X110591600Y-84518500D01*
X110591600Y-94297500D01*
X110651537Y-94598825D01*
X110822224Y-94854276D01*
X111495324Y-95527376D01*
X111750775Y-95698063D01*
X112052100Y-95758000D01*
X112762124Y-95758000D01*
X112839327Y-95875527D01*
X113050360Y-96017977D01*
X113300000Y-96068040D01*
X113800000Y-96068040D01*
X114042123Y-96021063D01*
X114254927Y-95881273D01*
X114299613Y-95815071D01*
X114339327Y-95875527D01*
X114550360Y-96017977D01*
X114800000Y-96068040D01*
X115300000Y-96068040D01*
X115542123Y-96021063D01*
X115754927Y-95881273D01*
X115796566Y-95819585D01*
X115935605Y-95791929D01*
X115935606Y-95791929D01*
X116092148Y-95687330D01*
X116007500Y-95891690D01*
X116007500Y-96107250D01*
X116166250Y-96266000D01*
X116915500Y-96266000D01*
X116915500Y-95541750D01*
X116756750Y-95383000D01*
X116516191Y-95383000D01*
X116386527Y-95436708D01*
X116456996Y-95366240D01*
X117653500Y-95366240D01*
X117653500Y-95418080D01*
X117568809Y-95383000D01*
X117328250Y-95383000D01*
X117169500Y-95541750D01*
X117169500Y-96266000D01*
X117189500Y-96266000D01*
X117189500Y-96520000D01*
X117169500Y-96520000D01*
X117169500Y-97244250D01*
X117328250Y-97403000D01*
X117568809Y-97403000D01*
X117802198Y-97306327D01*
X117803480Y-97305044D01*
X117892860Y-97365377D01*
X118142500Y-97415440D01*
X118942500Y-97415440D01*
X119184623Y-97368463D01*
X119397427Y-97228673D01*
X119539877Y-97017640D01*
X119589940Y-96768000D01*
X119589940Y-96018000D01*
X119542963Y-95775877D01*
X119431500Y-95606195D01*
X119431500Y-95359080D01*
X119467200Y-95366240D01*
X120767200Y-95366240D01*
X121009323Y-95319263D01*
X121222127Y-95179473D01*
X121364577Y-94968440D01*
X121414640Y-94718800D01*
X121414640Y-94018800D01*
X121375194Y-93815495D01*
X121414640Y-93618800D01*
X121414640Y-93057800D01*
X135008800Y-93057800D01*
X135349005Y-92990129D01*
X135349006Y-92990129D01*
X135637418Y-92797418D01*
X136424183Y-92010652D01*
X136715372Y-91890336D01*
X136999737Y-91606466D01*
X137153824Y-91235383D01*
X137154175Y-90833580D01*
X137000736Y-90462228D01*
X136716866Y-90177863D01*
X136345783Y-90023776D01*
X135943980Y-90023425D01*
X135572628Y-90176864D01*
X135288263Y-90460734D01*
X135166576Y-90753787D01*
X134640564Y-91279800D01*
X121103322Y-91279800D01*
X121016840Y-91221423D01*
X120865900Y-91191153D01*
X120865900Y-90514610D01*
X120870692Y-90509827D01*
X121013338Y-90166299D01*
X121013564Y-89906040D01*
X121436600Y-89906040D01*
X121678723Y-89859063D01*
X121891527Y-89719273D01*
X122033977Y-89508240D01*
X122084040Y-89258600D01*
X122084040Y-88458600D01*
X122037063Y-88216477D01*
X121973504Y-88119720D01*
X121974927Y-88118298D01*
X122071600Y-87884909D01*
X122071600Y-87644350D01*
X122071600Y-87072850D01*
X122071600Y-86832291D01*
X121974927Y-86598902D01*
X121796299Y-86420273D01*
X121562910Y-86323600D01*
X121347350Y-86323600D01*
X121188600Y-86482350D01*
X121188600Y-87231600D01*
X121912850Y-87231600D01*
X122071600Y-87072850D01*
X122071600Y-87644350D01*
X121912850Y-87485600D01*
X121188600Y-87485600D01*
X121188600Y-87505600D01*
X120934600Y-87505600D01*
X120934600Y-87485600D01*
X120914600Y-87485600D01*
X120914600Y-87231600D01*
X120934600Y-87231600D01*
X120934600Y-86482350D01*
X120775850Y-86323600D01*
X120560290Y-86323600D01*
X120326901Y-86420273D01*
X120148273Y-86598902D01*
X120099100Y-86717615D01*
X120094964Y-86727598D01*
X119940352Y-86727598D01*
X120099100Y-86568850D01*
X120099100Y-86228291D01*
X120002427Y-85994902D01*
X119823799Y-85816273D01*
X119590410Y-85719600D01*
X119337791Y-85719600D01*
X119124850Y-85719600D01*
X118966100Y-85878350D01*
X118966100Y-86727600D01*
X118986100Y-86727600D01*
X118986100Y-86981600D01*
X118966100Y-86981600D01*
X118966100Y-87001600D01*
X118712100Y-87001600D01*
X118712100Y-86981600D01*
X118712100Y-86727600D01*
X118712100Y-85878350D01*
X118553350Y-85719600D01*
X118340409Y-85719600D01*
X118087790Y-85719600D01*
X117854401Y-85816273D01*
X117675773Y-85994902D01*
X117579100Y-86228291D01*
X117579100Y-86568850D01*
X117737850Y-86727600D01*
X118712100Y-86727600D01*
X118712100Y-86981600D01*
X117737850Y-86981600D01*
X117579100Y-87140350D01*
X117579100Y-87480909D01*
X117675773Y-87714298D01*
X117817250Y-87855776D01*
X117759173Y-87893927D01*
X117642211Y-88067200D01*
X115424679Y-88067200D01*
X115401827Y-88044308D01*
X115058299Y-87901662D01*
X114686333Y-87901338D01*
X114342557Y-88043383D01*
X114079308Y-88306173D01*
X113936662Y-88649701D01*
X113936338Y-89021667D01*
X114078383Y-89365443D01*
X114341173Y-89628692D01*
X114684701Y-89771338D01*
X115056667Y-89771662D01*
X115370473Y-89642000D01*
X117643379Y-89642000D01*
X117753427Y-89809527D01*
X117964460Y-89951977D01*
X118214100Y-90002040D01*
X119143479Y-90002040D01*
X119143338Y-90164667D01*
X119285383Y-90508443D01*
X119291100Y-90514169D01*
X119291100Y-91205527D01*
X119225077Y-91218337D01*
X119119485Y-91287699D01*
X118818995Y-91347470D01*
X118530582Y-91540182D01*
X118304455Y-91766308D01*
X118267663Y-91576677D01*
X118127873Y-91363873D01*
X117916840Y-91221423D01*
X117667200Y-91171360D01*
X116431596Y-91171360D01*
X116198618Y-90938382D01*
X115910206Y-90745671D01*
X115801366Y-90724021D01*
X115760673Y-90662073D01*
X115549640Y-90519623D01*
X115300000Y-90469560D01*
X114800000Y-90469560D01*
X114557877Y-90516537D01*
X114345073Y-90656327D01*
X114300386Y-90722528D01*
X114260673Y-90662073D01*
X114049640Y-90519623D01*
X113800000Y-90469560D01*
X113300000Y-90469560D01*
X113182400Y-90492376D01*
X113182400Y-85289152D01*
X119515652Y-78955900D01*
X145044728Y-78955900D01*
X144784175Y-79345845D01*
X144658500Y-79977655D01*
X144658500Y-80042345D01*
X144784175Y-80674155D01*
X145142067Y-81209778D01*
X145677690Y-81567670D01*
X146309500Y-81693345D01*
X146941310Y-81567670D01*
X147277501Y-81343034D01*
X147295173Y-81385698D01*
X147473801Y-81564327D01*
X147707190Y-81661000D01*
X147959809Y-81661000D01*
X148563750Y-81661000D01*
X148722500Y-81502250D01*
X148722500Y-80137000D01*
X148702500Y-80137000D01*
X148702500Y-79883000D01*
X148722500Y-79883000D01*
X148722500Y-79863000D01*
X148976500Y-79863000D01*
X148976500Y-79883000D01*
X150341750Y-79883000D01*
X150500500Y-79724250D01*
X150500500Y-79463900D01*
X157416500Y-79463900D01*
X157717825Y-79403963D01*
X157973276Y-79233276D01*
X158377652Y-78828900D01*
X158405389Y-78828900D01*
X158410173Y-78833692D01*
X158753701Y-78976338D01*
X159125667Y-78976662D01*
X159469443Y-78834617D01*
X159732692Y-78571827D01*
X159820566Y-78360203D01*
X159912683Y-78583143D01*
X160175473Y-78846392D01*
X160519001Y-78989038D01*
X160890967Y-78989362D01*
X161234743Y-78847317D01*
X161497992Y-78584527D01*
X161640638Y-78240999D01*
X161640962Y-77869033D01*
X161498917Y-77525257D01*
X161493200Y-77519530D01*
X161493200Y-75814952D01*
X166228276Y-71079876D01*
X166398963Y-70824425D01*
X166458900Y-70523100D01*
X166458900Y-69852112D01*
X166564201Y-69895838D01*
X166936167Y-69896162D01*
X167279943Y-69754117D01*
X167285669Y-69748400D01*
X170815000Y-69748400D01*
X171116325Y-69688463D01*
X171371776Y-69517776D01*
X171755395Y-69134156D01*
X171762167Y-69134162D01*
X172105943Y-68992117D01*
X172369192Y-68729327D01*
X172511838Y-68385799D01*
X172512162Y-68013833D01*
X172370117Y-67670057D01*
X172107327Y-67406808D01*
X171763799Y-67264162D01*
X171391833Y-67263838D01*
X171048057Y-67405883D01*
X170784808Y-67668673D01*
X170642162Y-68012201D01*
X170642154Y-68020293D01*
X170488848Y-68173600D01*
X167286110Y-68173600D01*
X167281327Y-68168808D01*
X166937799Y-68026162D01*
X166660536Y-68025920D01*
X166681500Y-67975309D01*
X166681500Y-67734750D01*
X166681500Y-67163250D01*
X166681500Y-66922691D01*
X166584827Y-66689302D01*
X166406199Y-66510673D01*
X166172810Y-66414000D01*
X165957250Y-66414000D01*
X165798500Y-66572750D01*
X165798500Y-67322000D01*
X166522750Y-67322000D01*
X166681500Y-67163250D01*
X166681500Y-67734750D01*
X166522750Y-67576000D01*
X165798500Y-67576000D01*
X165798500Y-67596000D01*
X165544500Y-67596000D01*
X165544500Y-67576000D01*
X165544500Y-67322000D01*
X165544500Y-66572750D01*
X165385750Y-66414000D01*
X165170190Y-66414000D01*
X164936801Y-66510673D01*
X164758173Y-66689302D01*
X164661500Y-66922691D01*
X164661500Y-67163250D01*
X164820250Y-67322000D01*
X165544500Y-67322000D01*
X165544500Y-67576000D01*
X164820250Y-67576000D01*
X164661500Y-67734750D01*
X164661500Y-67975309D01*
X164758173Y-68208698D01*
X164759455Y-68209980D01*
X164699123Y-68299360D01*
X164649060Y-68549000D01*
X164649060Y-69349000D01*
X164696037Y-69591123D01*
X164835827Y-69803927D01*
X164884100Y-69836511D01*
X164884100Y-70089830D01*
X164741327Y-69946808D01*
X164509117Y-69850385D01*
X164369117Y-69511557D01*
X164106327Y-69248308D01*
X163762799Y-69105662D01*
X163390833Y-69105338D01*
X163047057Y-69247383D01*
X163041330Y-69253100D01*
X161780578Y-69253100D01*
X161780662Y-69156833D01*
X161701297Y-68964754D01*
X168029652Y-62636400D01*
X172339000Y-62636400D01*
X172640325Y-62576463D01*
X172895776Y-62405776D01*
X173152395Y-62149156D01*
X173159167Y-62149162D01*
X173502943Y-62007117D01*
X173766192Y-61744327D01*
X173908838Y-61400799D01*
X173908923Y-61302900D01*
X181918848Y-61302900D01*
X186537600Y-65921652D01*
X186537600Y-93789500D01*
X186597537Y-94090825D01*
X186768224Y-94346276D01*
X187949324Y-95527376D01*
X188204775Y-95698063D01*
X188506100Y-95758000D01*
X188987524Y-95758000D01*
X189064727Y-95875527D01*
X189275760Y-96017977D01*
X189525400Y-96068040D01*
X190025400Y-96068040D01*
X190267523Y-96021063D01*
X190480327Y-95881273D01*
X190525013Y-95815071D01*
X190564727Y-95875527D01*
X190775760Y-96017977D01*
X191025400Y-96068040D01*
X191525400Y-96068040D01*
X191767523Y-96021063D01*
X191980327Y-95881273D01*
X192035754Y-95799159D01*
X192072105Y-95791929D01*
X192072106Y-95791929D01*
X192280080Y-95652964D01*
X192207500Y-95828190D01*
X192207500Y-96043750D01*
X192366250Y-96202500D01*
X193115500Y-96202500D01*
X193115500Y-96182500D01*
X193369500Y-96182500D01*
X193369500Y-96202500D01*
X193389500Y-96202500D01*
X193389500Y-96456500D01*
X193369500Y-96456500D01*
X193369500Y-97180750D01*
X193528250Y-97339500D01*
X193768809Y-97339500D01*
X194002198Y-97242827D01*
X194003480Y-97241544D01*
X194092860Y-97301877D01*
X194342500Y-97351940D01*
X195142500Y-97351940D01*
X195384623Y-97304963D01*
X195597427Y-97165173D01*
X195739877Y-96954140D01*
X195789940Y-96704500D01*
X195789940Y-95954500D01*
X195742963Y-95712377D01*
X195631500Y-95542695D01*
X195631500Y-95356533D01*
X195679900Y-95366240D01*
X196979900Y-95366240D01*
X197222023Y-95319263D01*
X197434827Y-95179473D01*
X197577277Y-94968440D01*
X197627340Y-94718800D01*
X197627340Y-94018800D01*
X197587894Y-93815495D01*
X197627340Y-93618800D01*
X197627340Y-93057800D01*
X210662700Y-93057800D01*
X211002905Y-92990129D01*
X211002906Y-92990129D01*
X211291318Y-92797418D01*
X212624183Y-91464552D01*
X212915372Y-91344236D01*
X213199737Y-91060366D01*
X213353824Y-90689283D01*
X213354175Y-90287480D01*
X213200736Y-89916128D01*
X213169500Y-89884837D01*
X213169500Y-81418733D01*
X214057533Y-80530700D01*
X215145087Y-80530700D01*
X215408401Y-80640038D01*
X215780367Y-80640362D01*
X216124143Y-80498317D01*
X216387392Y-80235527D01*
X216530038Y-79891999D01*
X216530362Y-79520033D01*
X216388317Y-79176257D01*
X216125527Y-78913008D01*
X215781999Y-78770362D01*
X215410033Y-78770038D01*
X215144630Y-78879700D01*
X213715600Y-78879700D01*
X213399694Y-78942537D01*
X213292424Y-79014213D01*
X213131883Y-79121483D01*
X213131880Y-79121486D01*
X211760283Y-80493083D01*
X211581337Y-80760894D01*
X211518500Y-81076800D01*
X211518500Y-89884449D01*
X211488263Y-89914634D01*
X211366576Y-90207687D01*
X210294464Y-91279800D01*
X197316022Y-91279800D01*
X197229540Y-91221423D01*
X197117300Y-91198914D01*
X197117300Y-89967400D01*
X197057363Y-89666075D01*
X196886676Y-89410624D01*
X196366092Y-88890040D01*
X196684100Y-88890040D01*
X196926223Y-88843063D01*
X197139027Y-88703273D01*
X197281477Y-88492240D01*
X197331540Y-88242600D01*
X197331540Y-87442600D01*
X197284563Y-87200477D01*
X197221004Y-87103720D01*
X197222427Y-87102298D01*
X197319100Y-86868909D01*
X197319100Y-86628350D01*
X197319100Y-86056850D01*
X197319100Y-85816291D01*
X197222427Y-85582902D01*
X197043799Y-85404273D01*
X196810410Y-85307600D01*
X196594850Y-85307600D01*
X196436100Y-85466350D01*
X196436100Y-86215600D01*
X197160350Y-86215600D01*
X197319100Y-86056850D01*
X197319100Y-86628350D01*
X197160350Y-86469600D01*
X196436100Y-86469600D01*
X196436100Y-86489600D01*
X196182100Y-86489600D01*
X196182100Y-86469600D01*
X196162100Y-86469600D01*
X196162100Y-86215600D01*
X196182100Y-86215600D01*
X196182100Y-85466350D01*
X196023350Y-85307600D01*
X195807790Y-85307600D01*
X195574401Y-85404273D01*
X195395773Y-85582902D01*
X195346600Y-85701615D01*
X195346600Y-85648098D01*
X195187852Y-85648098D01*
X195346600Y-85489350D01*
X195346600Y-85148791D01*
X195249927Y-84915402D01*
X195071299Y-84736773D01*
X194837910Y-84640100D01*
X194585291Y-84640100D01*
X194372350Y-84640100D01*
X194213600Y-84798850D01*
X194213600Y-85648100D01*
X194233600Y-85648100D01*
X194233600Y-85902100D01*
X194213600Y-85902100D01*
X194213600Y-85922100D01*
X193959600Y-85922100D01*
X193959600Y-85902100D01*
X193959600Y-85648100D01*
X193959600Y-84798850D01*
X193800850Y-84640100D01*
X193587909Y-84640100D01*
X193335290Y-84640100D01*
X193101901Y-84736773D01*
X192923273Y-84915402D01*
X192826600Y-85148791D01*
X192826600Y-85489350D01*
X192985350Y-85648100D01*
X193959600Y-85648100D01*
X193959600Y-85902100D01*
X192985350Y-85902100D01*
X192826600Y-86060850D01*
X192826600Y-86401409D01*
X192923273Y-86634798D01*
X193064750Y-86776276D01*
X193006673Y-86814427D01*
X192864223Y-87025460D01*
X192814160Y-87275100D01*
X192814160Y-88275100D01*
X192861137Y-88517223D01*
X192909732Y-88591200D01*
X191132651Y-88591200D01*
X191093827Y-88552308D01*
X190750299Y-88409662D01*
X190378333Y-88409338D01*
X190034557Y-88551383D01*
X189771308Y-88814173D01*
X189628662Y-89157701D01*
X189628338Y-89529667D01*
X189770383Y-89873443D01*
X190033173Y-90136692D01*
X190376701Y-90279338D01*
X190748667Y-90279662D01*
X191023750Y-90166000D01*
X193551489Y-90166000D01*
X193556273Y-90170792D01*
X193899801Y-90313438D01*
X194271767Y-90313762D01*
X194615543Y-90171717D01*
X194621269Y-90166000D01*
X195414948Y-90166000D01*
X195542500Y-90293552D01*
X195542500Y-91198018D01*
X195437777Y-91218337D01*
X195344211Y-91279800D01*
X195232200Y-91279800D01*
X194891994Y-91347471D01*
X194603582Y-91540182D01*
X194494455Y-91649308D01*
X194480363Y-91576677D01*
X194340573Y-91363873D01*
X194129540Y-91221423D01*
X193879900Y-91171360D01*
X192631596Y-91171360D01*
X192424018Y-90963782D01*
X192135606Y-90771071D01*
X192026766Y-90749421D01*
X191986073Y-90687473D01*
X191775040Y-90545023D01*
X191525400Y-90494960D01*
X191025400Y-90494960D01*
X190783277Y-90541937D01*
X190570473Y-90681727D01*
X190525786Y-90747928D01*
X190486073Y-90687473D01*
X190275040Y-90545023D01*
X190025400Y-90494960D01*
X189525400Y-90494960D01*
X189283277Y-90541937D01*
X189128400Y-90643675D01*
X189128400Y-65214505D01*
X189128400Y-65214500D01*
X189128401Y-65214500D01*
X189068463Y-64913175D01*
X188897776Y-64657724D01*
X184018952Y-59778900D01*
X223901000Y-59778900D01*
X224202325Y-59718963D01*
X224457776Y-59548276D01*
X228077276Y-55928776D01*
X228247963Y-55673325D01*
X228307900Y-55372000D01*
X228307900Y-54941940D01*
X234391200Y-61025240D01*
X234391200Y-71213800D01*
X234209522Y-71213800D01*
X234123040Y-71155423D01*
X233873400Y-71105360D01*
X232573400Y-71105360D01*
X232331277Y-71152337D01*
X232237711Y-71213800D01*
X232062200Y-71213800D01*
X231721994Y-71281471D01*
X231433582Y-71474182D01*
X231377636Y-71530127D01*
X231373863Y-71510677D01*
X231234073Y-71297873D01*
X231023040Y-71155423D01*
X230773400Y-71105360D01*
X229473400Y-71105360D01*
X229357150Y-71127914D01*
X229127018Y-70897782D01*
X228838606Y-70705071D01*
X228715157Y-70680515D01*
X228676373Y-70621473D01*
X228465340Y-70479023D01*
X228215700Y-70428960D01*
X227715700Y-70428960D01*
X227473577Y-70475937D01*
X227260773Y-70615727D01*
X227216086Y-70681928D01*
X227176373Y-70621473D01*
X226965340Y-70479023D01*
X226715700Y-70428960D01*
X226215700Y-70428960D01*
X225973577Y-70475937D01*
X225760773Y-70615727D01*
X225715207Y-70683230D01*
X225515399Y-70600262D01*
X225143433Y-70599938D01*
X224799657Y-70741983D01*
X224536408Y-71004773D01*
X224393762Y-71348301D01*
X224393438Y-71720267D01*
X224535483Y-72064043D01*
X224798273Y-72327292D01*
X224878259Y-72360505D01*
X224799657Y-72392983D01*
X224536408Y-72655773D01*
X224393762Y-72999301D01*
X224393438Y-73371267D01*
X224535483Y-73715043D01*
X224798273Y-73978292D01*
X224878259Y-74011505D01*
X224799657Y-74043983D01*
X224536408Y-74306773D01*
X224393762Y-74650301D01*
X224393438Y-75022267D01*
X224504275Y-75290514D01*
X224186433Y-75290238D01*
X223842657Y-75432283D01*
X223579408Y-75695073D01*
X223436762Y-76038601D01*
X223436582Y-76244580D01*
X223274608Y-76406273D01*
X223131962Y-76749801D01*
X223131638Y-77121767D01*
X223241300Y-77387169D01*
X223241300Y-93641300D01*
X223304137Y-93957206D01*
X223483083Y-94225017D01*
X224744883Y-95486817D01*
X224761583Y-95503517D01*
X225029394Y-95682463D01*
X225029395Y-95682463D01*
X225345300Y-95745300D01*
X225702851Y-95745300D01*
X225755027Y-95824727D01*
X225966060Y-95967177D01*
X226215700Y-96017240D01*
X226715700Y-96017240D01*
X226957823Y-95970263D01*
X227170627Y-95830473D01*
X227215313Y-95764271D01*
X227255027Y-95824727D01*
X227466060Y-95967177D01*
X227715700Y-96017240D01*
X228215700Y-96017240D01*
X228457823Y-95970263D01*
X228670627Y-95830473D01*
X228680644Y-95815632D01*
X228927505Y-95766529D01*
X228927506Y-95766529D01*
X229166340Y-95606944D01*
X229101000Y-95764690D01*
X229101000Y-95980250D01*
X229259750Y-96139000D01*
X230009000Y-96139000D01*
X230009000Y-96119000D01*
X230263000Y-96119000D01*
X230263000Y-96139000D01*
X230283000Y-96139000D01*
X230283000Y-96393000D01*
X230263000Y-96393000D01*
X230263000Y-97117250D01*
X230421750Y-97276000D01*
X230662309Y-97276000D01*
X230895698Y-97179327D01*
X230896980Y-97178044D01*
X230986360Y-97238377D01*
X231236000Y-97288440D01*
X232036000Y-97288440D01*
X232278123Y-97241463D01*
X232490927Y-97101673D01*
X232633377Y-96890640D01*
X232683440Y-96641000D01*
X232683440Y-95891000D01*
X232636463Y-95648877D01*
X232525000Y-95479195D01*
X232525000Y-95343833D01*
X232573400Y-95353540D01*
X233873400Y-95353540D01*
X234115523Y-95306563D01*
X234209088Y-95245100D01*
X234391200Y-95245100D01*
X234391200Y-95578459D01*
X230084159Y-99885500D01*
X230009000Y-99885500D01*
X230009000Y-97117250D01*
X230009000Y-96393000D01*
X229259750Y-96393000D01*
X229101000Y-96551750D01*
X229101000Y-96767310D01*
X229197673Y-97000699D01*
X229376302Y-97179327D01*
X229609691Y-97276000D01*
X229850250Y-97276000D01*
X230009000Y-97117250D01*
X230009000Y-99885500D01*
X226432597Y-99885500D01*
X226432597Y-97354225D01*
X226260167Y-96936914D01*
X225941165Y-96617355D01*
X225524156Y-96444197D01*
X225072625Y-96443803D01*
X224655314Y-96616233D01*
X224335755Y-96935235D01*
X224162597Y-97352244D01*
X224162203Y-97803775D01*
X224334633Y-98221086D01*
X224653635Y-98540645D01*
X225070644Y-98713803D01*
X225522175Y-98714197D01*
X225939486Y-98541767D01*
X226259045Y-98222765D01*
X226432203Y-97805756D01*
X226432597Y-97354225D01*
X226432597Y-99885500D01*
X223584982Y-99885500D01*
X223419267Y-99816689D01*
X222987627Y-99816312D01*
X222588700Y-99981146D01*
X222372362Y-100197106D01*
X222372362Y-76065633D01*
X222259859Y-75793354D01*
X222372038Y-75523199D01*
X222372362Y-75151233D01*
X222249338Y-74853491D01*
X222372038Y-74557999D01*
X222372362Y-74186033D01*
X222259859Y-73913754D01*
X222372038Y-73643599D01*
X222372362Y-73271633D01*
X222259859Y-72999354D01*
X222372038Y-72729199D01*
X222372362Y-72357233D01*
X222259859Y-72084954D01*
X222372038Y-71814799D01*
X222372362Y-71442833D01*
X222230317Y-71099057D01*
X221967527Y-70835808D01*
X221623999Y-70693162D01*
X221252033Y-70692838D01*
X220908257Y-70834883D01*
X220645008Y-71097673D01*
X220534882Y-71362883D01*
X217957883Y-73939883D01*
X217778937Y-74207694D01*
X217716100Y-74523600D01*
X217716100Y-75531566D01*
X217683333Y-75531538D01*
X217339557Y-75673583D01*
X217076308Y-75936373D01*
X216933662Y-76279901D01*
X216933338Y-76651867D01*
X217043000Y-76917269D01*
X217043000Y-77311987D01*
X216933662Y-77575301D01*
X216933338Y-77947267D01*
X217075383Y-78291043D01*
X217338173Y-78554292D01*
X217681701Y-78696938D01*
X217716100Y-78696967D01*
X217716100Y-98057666D01*
X217094766Y-98679000D01*
X213106000Y-98679000D01*
X193115500Y-98679000D01*
X193115500Y-97180750D01*
X193115500Y-96456500D01*
X192366250Y-96456500D01*
X192207500Y-96615250D01*
X192207500Y-96830810D01*
X192304173Y-97064199D01*
X192482802Y-97242827D01*
X192716191Y-97339500D01*
X192956750Y-97339500D01*
X193115500Y-97180750D01*
X193115500Y-98679000D01*
X168661500Y-98679000D01*
X168661500Y-81152309D01*
X168661500Y-80295750D01*
X168661500Y-79724250D01*
X168661500Y-78867691D01*
X168564827Y-78634302D01*
X168386199Y-78455673D01*
X168152810Y-78359000D01*
X167900191Y-78359000D01*
X167296250Y-78359000D01*
X167137500Y-78517750D01*
X167137500Y-79883000D01*
X168502750Y-79883000D01*
X168661500Y-79724250D01*
X168661500Y-80295750D01*
X168502750Y-80137000D01*
X167137500Y-80137000D01*
X167137500Y-81502250D01*
X167296250Y-81661000D01*
X167900191Y-81661000D01*
X168152810Y-81661000D01*
X168386199Y-81564327D01*
X168564827Y-81385698D01*
X168661500Y-81152309D01*
X168661500Y-98679000D01*
X166883500Y-98679000D01*
X166883500Y-81502250D01*
X166883500Y-80137000D01*
X166863500Y-80137000D01*
X166863500Y-79883000D01*
X166883500Y-79883000D01*
X166883500Y-78517750D01*
X166724750Y-78359000D01*
X166120809Y-78359000D01*
X165868190Y-78359000D01*
X165634801Y-78455673D01*
X165456173Y-78634302D01*
X165438501Y-78676965D01*
X165102310Y-78452330D01*
X164470500Y-78326655D01*
X163838690Y-78452330D01*
X163303067Y-78810222D01*
X162945175Y-79345845D01*
X162819500Y-79977655D01*
X162819500Y-80042345D01*
X162945175Y-80674155D01*
X163303067Y-81209778D01*
X163838690Y-81567670D01*
X164470500Y-81693345D01*
X165102310Y-81567670D01*
X165438501Y-81343034D01*
X165456173Y-81385698D01*
X165634801Y-81564327D01*
X165868190Y-81661000D01*
X166120809Y-81661000D01*
X166724750Y-81661000D01*
X166883500Y-81502250D01*
X166883500Y-98679000D01*
X159052013Y-98679000D01*
X159052013Y-88597675D01*
X158689684Y-87720771D01*
X158019358Y-87049274D01*
X157143087Y-86685415D01*
X156194275Y-86684587D01*
X155317371Y-87046916D01*
X154645874Y-87717242D01*
X154282015Y-88593513D01*
X154281187Y-89542325D01*
X154643516Y-90419229D01*
X155313842Y-91090726D01*
X156190113Y-91454585D01*
X157138925Y-91455413D01*
X158015829Y-91093084D01*
X158687326Y-90422758D01*
X159051185Y-89546487D01*
X159052013Y-88597675D01*
X159052013Y-98679000D01*
X150500500Y-98679000D01*
X150500500Y-81152309D01*
X150500500Y-80295750D01*
X150341750Y-80137000D01*
X148976500Y-80137000D01*
X148976500Y-81502250D01*
X149135250Y-81661000D01*
X149739191Y-81661000D01*
X149991810Y-81661000D01*
X150225199Y-81564327D01*
X150403827Y-81385698D01*
X150500500Y-81152309D01*
X150500500Y-98679000D01*
X116915500Y-98679000D01*
X116915500Y-97244250D01*
X116915500Y-96520000D01*
X116166250Y-96520000D01*
X116007500Y-96678750D01*
X116007500Y-96894310D01*
X116104173Y-97127699D01*
X116282802Y-97306327D01*
X116516191Y-97403000D01*
X116756750Y-97403000D01*
X116915500Y-97244250D01*
X116915500Y-98679000D01*
X105359900Y-98679000D01*
X105359900Y-68218742D01*
X105359900Y-54552158D01*
X105284997Y-54175592D01*
X105036262Y-53803338D01*
X104664008Y-53554603D01*
X104287442Y-53479700D01*
X91435000Y-53479700D01*
X91435000Y-46798709D01*
X91435000Y-46158150D01*
X91435000Y-45586650D01*
X91435000Y-44946091D01*
X91338327Y-44712702D01*
X91159699Y-44534073D01*
X90926310Y-44437400D01*
X90673691Y-44437400D01*
X90285750Y-44437400D01*
X90127000Y-44596150D01*
X90127000Y-45745400D01*
X91276250Y-45745400D01*
X91435000Y-45586650D01*
X91435000Y-46158150D01*
X91276250Y-45999400D01*
X90127000Y-45999400D01*
X90127000Y-47148650D01*
X90285750Y-47307400D01*
X90673691Y-47307400D01*
X90926310Y-47307400D01*
X91159699Y-47210727D01*
X91338327Y-47032098D01*
X91435000Y-46798709D01*
X91435000Y-53479700D01*
X90366858Y-53479700D01*
X89990292Y-53554603D01*
X89873000Y-53632975D01*
X89873000Y-47148650D01*
X89873000Y-45999400D01*
X89853000Y-45999400D01*
X89853000Y-45745400D01*
X89873000Y-45745400D01*
X89873000Y-44596150D01*
X89714250Y-44437400D01*
X89326309Y-44437400D01*
X89073690Y-44437400D01*
X88840301Y-44534073D01*
X88733006Y-44641368D01*
X88549151Y-44518520D01*
X88000000Y-44409287D01*
X87450849Y-44518520D01*
X86985302Y-44829589D01*
X86674233Y-45295136D01*
X86565000Y-45844287D01*
X86565000Y-45900513D01*
X86674233Y-46449664D01*
X86985302Y-46915211D01*
X87450849Y-47226280D01*
X88000000Y-47335513D01*
X88549151Y-47226280D01*
X88733006Y-47103431D01*
X88840301Y-47210727D01*
X89073690Y-47307400D01*
X89326309Y-47307400D01*
X89714250Y-47307400D01*
X89873000Y-47148650D01*
X89873000Y-53632975D01*
X89618038Y-53803338D01*
X89421400Y-54097624D01*
X89224762Y-53803338D01*
X88852508Y-53554603D01*
X88475942Y-53479700D01*
X77568813Y-53479700D01*
X77568813Y-42090275D01*
X77206484Y-41213371D01*
X76536158Y-40541874D01*
X75659887Y-40178015D01*
X74711075Y-40177187D01*
X73834171Y-40539516D01*
X73162674Y-41209842D01*
X72798815Y-42086113D01*
X72797987Y-43034925D01*
X73160316Y-43911829D01*
X73830642Y-44583326D01*
X74706913Y-44947185D01*
X75655725Y-44948013D01*
X76532629Y-44585684D01*
X77204126Y-43915358D01*
X77567985Y-43039087D01*
X77568813Y-42090275D01*
X77568813Y-53479700D01*
X74555358Y-53479700D01*
X74178792Y-53554603D01*
X73806538Y-53803338D01*
X73557803Y-54175592D01*
X73482900Y-54552158D01*
X73482900Y-68218742D01*
X73557803Y-68595308D01*
X73806538Y-68967562D01*
X74178792Y-69216297D01*
X74555358Y-69291200D01*
X88475942Y-69291200D01*
X88852508Y-69216297D01*
X89224762Y-68967562D01*
X89421400Y-68673275D01*
X89618038Y-68967562D01*
X89990292Y-69216297D01*
X90366858Y-69291200D01*
X104287442Y-69291200D01*
X104664008Y-69216297D01*
X105036262Y-68967562D01*
X105284997Y-68595308D01*
X105359900Y-68218742D01*
X105359900Y-98679000D01*
X97433433Y-98679000D01*
X94551500Y-95797066D01*
X94551500Y-73469500D01*
X94488663Y-73153595D01*
X94488662Y-73153594D01*
X94309717Y-72885783D01*
X94309713Y-72885780D01*
X92366617Y-70942683D01*
X92098806Y-70763737D01*
X91782900Y-70700900D01*
X87656948Y-70700900D01*
X87604773Y-70621473D01*
X87393740Y-70479023D01*
X87144100Y-70428960D01*
X86644100Y-70428960D01*
X86401977Y-70475937D01*
X86189173Y-70615727D01*
X86144486Y-70681928D01*
X86104773Y-70621473D01*
X85893740Y-70479023D01*
X85644100Y-70428960D01*
X85144100Y-70428960D01*
X84901977Y-70475937D01*
X84689173Y-70615727D01*
X84643593Y-70683250D01*
X84533894Y-70705071D01*
X84245482Y-70897782D01*
X84012596Y-71130667D01*
X83886400Y-71105360D01*
X82586400Y-71105360D01*
X82344277Y-71152337D01*
X82131473Y-71292127D01*
X81989023Y-71503160D01*
X81970643Y-71594807D01*
X81850018Y-71474182D01*
X81561606Y-71281471D01*
X81221400Y-71213800D01*
X81122522Y-71213800D01*
X81036040Y-71155423D01*
X80786400Y-71105360D01*
X79486400Y-71105360D01*
X79244277Y-71152337D01*
X79031473Y-71292127D01*
X78889023Y-71503160D01*
X78838960Y-71752800D01*
X78838960Y-72452800D01*
X78878405Y-72656104D01*
X78838960Y-72852800D01*
X78838960Y-73552800D01*
X78878405Y-73756104D01*
X78838960Y-73952800D01*
X78838960Y-74652800D01*
X78885937Y-74894923D01*
X79025727Y-75107727D01*
X79236760Y-75250177D01*
X79486400Y-75300240D01*
X80786400Y-75300240D01*
X80797400Y-75298105D01*
X80797400Y-75432581D01*
X80701023Y-75575360D01*
X80650960Y-75825000D01*
X80650960Y-76575000D01*
X80697937Y-76817123D01*
X80809400Y-76986804D01*
X80809400Y-91165819D01*
X80773700Y-91158660D01*
X79473700Y-91158660D01*
X79231577Y-91205637D01*
X79018773Y-91345427D01*
X78876323Y-91556460D01*
X78826260Y-91806100D01*
X78826260Y-92506100D01*
X78865705Y-92709404D01*
X78826260Y-92906100D01*
X78826260Y-93606100D01*
X78865705Y-93809404D01*
X78826260Y-94006100D01*
X78826260Y-94706100D01*
X78873237Y-94948223D01*
X79013027Y-95161027D01*
X79224060Y-95303477D01*
X79473700Y-95353540D01*
X80773700Y-95353540D01*
X80809400Y-95346613D01*
X80809400Y-95480804D01*
X80701023Y-95641360D01*
X80650960Y-95891000D01*
X80650960Y-96641000D01*
X80697937Y-96883123D01*
X80809400Y-97052804D01*
X80809400Y-100307342D01*
X80792518Y-100324195D01*
X80626989Y-100722833D01*
X80626612Y-101154473D01*
X80791446Y-101553400D01*
X81096395Y-101858882D01*
X81495033Y-102024411D01*
X81926673Y-102024788D01*
X82325600Y-101859954D01*
X82631082Y-101555005D01*
X82796611Y-101156367D01*
X82796988Y-100724727D01*
X82632154Y-100325800D01*
X82587400Y-100280967D01*
X82587400Y-97240919D01*
X82672091Y-97276000D01*
X82912650Y-97276000D01*
X83071400Y-97117250D01*
X83071400Y-96393000D01*
X83051400Y-96393000D01*
X83051400Y-96139000D01*
X83071400Y-96139000D01*
X83071400Y-96119000D01*
X83325400Y-96119000D01*
X83325400Y-96139000D01*
X84074650Y-96139000D01*
X84233400Y-95980250D01*
X84233400Y-95764690D01*
X84177779Y-95630411D01*
X84381494Y-95766529D01*
X84381495Y-95766529D01*
X84687333Y-95827364D01*
X84894460Y-95967177D01*
X85144100Y-96017240D01*
X85644100Y-96017240D01*
X85886223Y-95970263D01*
X86099027Y-95830473D01*
X86143713Y-95764271D01*
X86183427Y-95824727D01*
X86394460Y-95967177D01*
X86644100Y-96017240D01*
X87144100Y-96017240D01*
X87386223Y-95970263D01*
X87599027Y-95830473D01*
X87656519Y-95745300D01*
X89751866Y-95745300D01*
X89852500Y-95845933D01*
X89852500Y-97218500D01*
X89915337Y-97534406D01*
X90094283Y-97802217D01*
X95237780Y-102945713D01*
X95237783Y-102945717D01*
X95505594Y-103124662D01*
X95505595Y-103124663D01*
X95821500Y-103187500D01*
X218694000Y-103187500D01*
X219009905Y-103124663D01*
X219009906Y-103124663D01*
X219277717Y-102945717D01*
X222020913Y-100202519D01*
X222020917Y-100202517D01*
X222020917Y-100202516D01*
X222199863Y-99934705D01*
X222262700Y-99618800D01*
X222262701Y-99618800D01*
X222262700Y-99618794D01*
X222262700Y-76700912D01*
X222372038Y-76437599D01*
X222372362Y-76065633D01*
X222372362Y-100197106D01*
X222283218Y-100286095D01*
X222117689Y-100684733D01*
X222117312Y-101116373D01*
X222282146Y-101515300D01*
X222587095Y-101820782D01*
X222985733Y-101986311D01*
X223417373Y-101986688D01*
X223584820Y-101917500D01*
X230505000Y-101917500D01*
X230505000Y-101917499D01*
X230829299Y-101852992D01*
X230893806Y-101840162D01*
X230893807Y-101840162D01*
X231223420Y-101619920D01*
X236125620Y-96717720D01*
X236125621Y-96717720D01*
X236345862Y-96388107D01*
X236345862Y-96388106D01*
X236423200Y-95999300D01*
X236423200Y-94386400D01*
X236423200Y-93268800D01*
X236423200Y-92151200D01*
X236423200Y-74269600D01*
X236423200Y-73202800D01*
X236423200Y-72085200D01*
X236423200Y-60604400D01*
X236345862Y-60215594D01*
X236345862Y-60215593D01*
X236125621Y-59885980D01*
X229436476Y-53196836D01*
X229367954Y-53031000D01*
X229336600Y-52999591D01*
X229336600Y-50355500D01*
X231134387Y-50355500D01*
X231397701Y-50464838D01*
X231769667Y-50465162D01*
X232035069Y-50355500D01*
X233674387Y-50355500D01*
X233937701Y-50464838D01*
X234309667Y-50465162D01*
X234653443Y-50323117D01*
X234916692Y-50060327D01*
X235059338Y-49716799D01*
X235059662Y-49344833D01*
X234917617Y-49001057D01*
X234654827Y-48737808D01*
X234311299Y-48595162D01*
X233939333Y-48594838D01*
X233673930Y-48704500D01*
X232034612Y-48704500D01*
X231771299Y-48595162D01*
X231399333Y-48594838D01*
X231133930Y-48704500D01*
X229205552Y-48704500D01*
X230005652Y-47904400D01*
X230886000Y-47904400D01*
X231187325Y-47844463D01*
X231442776Y-47673776D01*
X232028238Y-47088313D01*
X232286511Y-47260885D01*
X232860000Y-47374959D01*
X233433489Y-47260885D01*
X233919670Y-46936029D01*
X234244526Y-46449848D01*
X234358600Y-45876359D01*
X234358600Y-45817641D01*
X234244526Y-45244152D01*
X233919670Y-44757971D01*
X233648827Y-44577000D01*
X233919670Y-44396029D01*
X234244526Y-43909848D01*
X234358600Y-43336359D01*
X234358600Y-43277641D01*
X234244526Y-42704152D01*
X233919670Y-42217971D01*
X233433489Y-41893115D01*
X232860000Y-41779041D01*
X232286511Y-41893115D01*
X231800330Y-42217971D01*
X231590000Y-42532751D01*
X231379670Y-42217971D01*
X230893489Y-41893115D01*
X230320000Y-41779041D01*
X229746511Y-41893115D01*
X229260330Y-42217971D01*
X229050000Y-42532751D01*
X228839670Y-42217971D01*
X228353489Y-41893115D01*
X227780000Y-41779041D01*
X227206511Y-41893115D01*
X226720330Y-42217971D01*
X226510000Y-42532751D01*
X226299670Y-42217971D01*
X225813489Y-41893115D01*
X225240000Y-41779041D01*
X224666511Y-41893115D01*
X224180330Y-42217971D01*
X223964336Y-42541228D01*
X223906821Y-42418510D01*
X223474947Y-42024312D01*
X223059026Y-41852042D01*
X222827000Y-41973183D01*
X222827000Y-43180000D01*
X222847000Y-43180000D01*
X222847000Y-43434000D01*
X222827000Y-43434000D01*
X222827000Y-44513183D01*
X222827000Y-44640817D01*
X222827000Y-45720000D01*
X222847000Y-45720000D01*
X222847000Y-45974000D01*
X222827000Y-45974000D01*
X222827000Y-47180817D01*
X223059026Y-47301958D01*
X223177100Y-47253053D01*
X223177100Y-47371000D01*
X223237037Y-47672325D01*
X223407724Y-47927776D01*
X224701100Y-49221152D01*
X224701100Y-54156848D01*
X222685848Y-56172100D01*
X199906652Y-56172100D01*
X199817156Y-56082604D01*
X199817162Y-56075833D01*
X199675117Y-55732057D01*
X199412327Y-55468808D01*
X199068799Y-55326162D01*
X198696833Y-55325838D01*
X198694299Y-55326884D01*
X198644722Y-55206900D01*
X217170000Y-55206900D01*
X217471325Y-55146963D01*
X217726776Y-54976276D01*
X220716776Y-51986276D01*
X220887463Y-51730825D01*
X220947400Y-51429500D01*
X220947400Y-47117954D01*
X221219670Y-46936029D01*
X221435663Y-46612771D01*
X221493179Y-46735490D01*
X221925053Y-47129688D01*
X222340974Y-47301958D01*
X222573000Y-47180817D01*
X222573000Y-45974000D01*
X222553000Y-45974000D01*
X222553000Y-45720000D01*
X222573000Y-45720000D01*
X222573000Y-44640817D01*
X222573000Y-44513183D01*
X222573000Y-43434000D01*
X222553000Y-43434000D01*
X222553000Y-43180000D01*
X222573000Y-43180000D01*
X222573000Y-41973183D01*
X222340974Y-41852042D01*
X221925053Y-42024312D01*
X221493179Y-42418510D01*
X221435663Y-42541228D01*
X221219670Y-42217971D01*
X220733489Y-41893115D01*
X220160000Y-41779041D01*
X219814347Y-41847795D01*
X217922776Y-39956224D01*
X217667325Y-39785537D01*
X217451957Y-39742698D01*
X240989908Y-39742698D01*
X240989908Y-104310907D01*
G36*
X88786400Y-68143692D02*
X88755709Y-68297989D01*
X88675391Y-68418191D01*
X88555189Y-68498509D01*
X88400892Y-68529200D01*
X74630408Y-68529200D01*
X74476111Y-68498509D01*
X74355909Y-68418191D01*
X74275591Y-68297989D01*
X74244900Y-68143692D01*
X74244900Y-54627208D01*
X74275591Y-54472911D01*
X74355909Y-54352709D01*
X74476111Y-54272391D01*
X74630408Y-54241700D01*
X88400892Y-54241700D01*
X88555189Y-54272391D01*
X88675391Y-54352709D01*
X88755709Y-54472911D01*
X88786400Y-54627208D01*
X88786400Y-68143692D01*
X88786400Y-68143692D01*
G37*
X88786400Y-68143692D02*
X88755709Y-68297989D01*
X88675391Y-68418191D01*
X88555189Y-68498509D01*
X88400892Y-68529200D01*
X74630408Y-68529200D01*
X74476111Y-68498509D01*
X74355909Y-68418191D01*
X74275591Y-68297989D01*
X74244900Y-68143692D01*
X74244900Y-54627208D01*
X74275591Y-54472911D01*
X74355909Y-54352709D01*
X74476111Y-54272391D01*
X74630408Y-54241700D01*
X88400892Y-54241700D01*
X88555189Y-54272391D01*
X88675391Y-54352709D01*
X88755709Y-54472911D01*
X88786400Y-54627208D01*
X88786400Y-68143692D01*
G36*
X104597900Y-68143692D02*
X104567209Y-68297989D01*
X104486891Y-68418191D01*
X104366689Y-68498509D01*
X104212392Y-68529200D01*
X90441908Y-68529200D01*
X90287611Y-68498509D01*
X90167409Y-68418191D01*
X90087091Y-68297989D01*
X90056400Y-68143692D01*
X90056400Y-54627208D01*
X90087091Y-54472911D01*
X90167409Y-54352709D01*
X90287611Y-54272391D01*
X90441908Y-54241700D01*
X104212392Y-54241700D01*
X104366689Y-54272391D01*
X104486891Y-54352709D01*
X104567209Y-54472911D01*
X104597900Y-54627208D01*
X104597900Y-68143692D01*
X104597900Y-68143692D01*
G37*
X104597900Y-68143692D02*
X104567209Y-68297989D01*
X104486891Y-68418191D01*
X104366689Y-68498509D01*
X104212392Y-68529200D01*
X90441908Y-68529200D01*
X90287611Y-68498509D01*
X90167409Y-68418191D01*
X90087091Y-68297989D01*
X90056400Y-68143692D01*
X90056400Y-54627208D01*
X90087091Y-54472911D01*
X90167409Y-54352709D01*
X90287611Y-54272391D01*
X90441908Y-54241700D01*
X104212392Y-54241700D01*
X104366689Y-54272391D01*
X104486891Y-54352709D01*
X104567209Y-54472911D01*
X104597900Y-54627208D01*
X104597900Y-68143692D01*
M02*
