G04 #@! TF.FileFunction,Legend,Bot*
%FSLAX46Y46*%
G04 Gerber Fmt 4.6, Leading zero omitted, Abs format (unit mm)*
G04 Created by KiCad (PCBNEW (2015-05-18 BZR 5668)-product) date Fri 12 Jun 2015 12:16:12 AM CEST*
%MOMM*%
G01*
G04 APERTURE LIST*
%ADD10C,0.100000*%
%ADD11C,0.150000*%
G04 APERTURE END LIST*
D10*
D11*
X152964400Y-66944800D02*
X153664400Y-66944800D01*
X153664400Y-65744800D02*
X152964400Y-65744800D01*
X152964400Y-68519600D02*
X153664400Y-68519600D01*
X153664400Y-67319600D02*
X152964400Y-67319600D01*
X198897800Y-93974400D02*
X198897800Y-93274400D01*
X197697800Y-93274400D02*
X197697800Y-93974400D01*
X232023400Y-75523800D02*
X231323400Y-75523800D01*
X231323400Y-76723800D02*
X232023400Y-76723800D01*
X122672400Y-93974400D02*
X122672400Y-93274400D01*
X121472400Y-93274400D02*
X121472400Y-93974400D01*
X232023400Y-95488200D02*
X231323400Y-95488200D01*
X231323400Y-96688200D02*
X232023400Y-96688200D01*
X81336400Y-76622200D02*
X82036400Y-76622200D01*
X82036400Y-75422200D02*
X81336400Y-75422200D01*
X81336400Y-96688200D02*
X82036400Y-96688200D01*
X82036400Y-95488200D02*
X81336400Y-95488200D01*
X192229900Y-95068800D02*
X192229900Y-94168800D01*
X192229900Y-91468800D02*
X197129900Y-91468800D01*
X197129900Y-95068800D02*
X192229900Y-95068800D01*
X229123400Y-75002800D02*
X229123400Y-74102800D01*
X229123400Y-71402800D02*
X234023400Y-71402800D01*
X234023400Y-75002800D02*
X229123400Y-75002800D01*
X116017200Y-95068800D02*
X116017200Y-94168800D01*
X116017200Y-91468800D02*
X120917200Y-91468800D01*
X120917200Y-95068800D02*
X116017200Y-95068800D01*
X229123400Y-95056100D02*
X229123400Y-94156100D01*
X229123400Y-91456100D02*
X234023400Y-91456100D01*
X234023400Y-95056100D02*
X229123400Y-95056100D01*
X84236400Y-71402800D02*
X84236400Y-72302800D01*
X84236400Y-75002800D02*
X79336400Y-75002800D01*
X79336400Y-71402800D02*
X84236400Y-71402800D01*
X84223700Y-91456100D02*
X84223700Y-92356100D01*
X84223700Y-95056100D02*
X79323700Y-95056100D01*
X79323700Y-91456100D02*
X84223700Y-91456100D01*
X193807200Y-55727600D02*
X193307200Y-55727600D01*
X196307200Y-55727600D02*
X195807200Y-55727600D01*
X201057200Y-41227600D02*
X198407200Y-41227600D01*
X193307200Y-41227600D02*
X196307200Y-41227600D01*
X188557200Y-46127600D02*
X188557200Y-41227600D01*
X188557200Y-41227600D02*
X191307200Y-41227600D01*
X191207200Y-55727600D02*
X188557200Y-55727600D01*
X188557200Y-55727600D02*
X188557200Y-50327600D01*
X201057200Y-55727600D02*
X198407200Y-55727600D01*
X201057200Y-55727600D02*
X201057200Y-50327600D01*
X201057200Y-41227600D02*
X201057200Y-46127600D01*
X117581800Y-55778400D02*
X117081800Y-55778400D01*
X120081800Y-55778400D02*
X119581800Y-55778400D01*
X124831800Y-41278400D02*
X122181800Y-41278400D01*
X117081800Y-41278400D02*
X120081800Y-41278400D01*
X112331800Y-46178400D02*
X112331800Y-41278400D01*
X112331800Y-41278400D02*
X115081800Y-41278400D01*
X114981800Y-55778400D02*
X112331800Y-55778400D01*
X112331800Y-55778400D02*
X112331800Y-50378400D01*
X124831800Y-55778400D02*
X122181800Y-55778400D01*
X124831800Y-55778400D02*
X124831800Y-50378400D01*
X124831800Y-41278400D02*
X124831800Y-46178400D01*
X155854500Y-66400100D02*
X155854500Y-65600100D01*
X161254500Y-66400100D02*
X155854500Y-66400100D01*
X161254500Y-66400100D02*
X161254500Y-63450100D01*
X161254500Y-63450100D02*
X157954500Y-63450100D01*
X155854500Y-64800100D02*
X155854500Y-63450100D01*
X155854500Y-63450100D02*
X157154500Y-63450100D01*
X190025400Y-95645600D02*
X191025400Y-95645600D01*
X191025400Y-94295600D02*
X190025400Y-94295600D01*
X190025400Y-93943800D02*
X191025400Y-93943800D01*
X191025400Y-92593800D02*
X190025400Y-92593800D01*
X190025400Y-92267400D02*
X191025400Y-92267400D01*
X191025400Y-90917400D02*
X190025400Y-90917400D01*
X113800000Y-95645600D02*
X114800000Y-95645600D01*
X114800000Y-94295600D02*
X113800000Y-94295600D01*
X113800000Y-93943800D02*
X114800000Y-93943800D01*
X114800000Y-92593800D02*
X113800000Y-92593800D01*
X113800000Y-92242000D02*
X114800000Y-92242000D01*
X114800000Y-90892000D02*
X113800000Y-90892000D01*
X86453600Y-70851400D02*
X85453600Y-70851400D01*
X85453600Y-72201400D02*
X86453600Y-72201400D01*
X86453600Y-72527800D02*
X85453600Y-72527800D01*
X85453600Y-73877800D02*
X86453600Y-73877800D01*
X86453600Y-74204200D02*
X85453600Y-74204200D01*
X85453600Y-75554200D02*
X86453600Y-75554200D01*
X86453600Y-90892000D02*
X85453600Y-90892000D01*
X85453600Y-92242000D02*
X86453600Y-92242000D01*
X86453600Y-92568400D02*
X85453600Y-92568400D01*
X85453600Y-93918400D02*
X86453600Y-93918400D01*
X86453600Y-94244800D02*
X85453600Y-94244800D01*
X85453600Y-95594800D02*
X86453600Y-95594800D01*
X200140843Y-92994243D02*
X200188462Y-92946624D01*
X200236081Y-92803767D01*
X200236081Y-92708529D01*
X200188462Y-92565671D01*
X200093224Y-92470433D01*
X199997986Y-92422814D01*
X199807510Y-92375195D01*
X199664652Y-92375195D01*
X199474176Y-92422814D01*
X199378938Y-92470433D01*
X199283700Y-92565671D01*
X199236081Y-92708529D01*
X199236081Y-92803767D01*
X199283700Y-92946624D01*
X199331319Y-92994243D01*
X199569414Y-93851386D02*
X200236081Y-93851386D01*
X199188462Y-93613290D02*
X199902748Y-93375195D01*
X199902748Y-93994243D01*
X200236081Y-94899005D02*
X200236081Y-94327576D01*
X200236081Y-94613290D02*
X199236081Y-94613290D01*
X199378938Y-94518052D01*
X199474176Y-94422814D01*
X199521795Y-94327576D01*
X232316257Y-78004943D02*
X232363876Y-78052562D01*
X232506733Y-78100181D01*
X232601971Y-78100181D01*
X232744829Y-78052562D01*
X232840067Y-77957324D01*
X232887686Y-77862086D01*
X232935305Y-77671610D01*
X232935305Y-77528752D01*
X232887686Y-77338276D01*
X232840067Y-77243038D01*
X232744829Y-77147800D01*
X232601971Y-77100181D01*
X232506733Y-77100181D01*
X232363876Y-77147800D01*
X232316257Y-77195419D01*
X231459114Y-77433514D02*
X231459114Y-78100181D01*
X231697210Y-77052562D02*
X231935305Y-77766848D01*
X231316257Y-77766848D01*
X230982924Y-77195419D02*
X230935305Y-77147800D01*
X230840067Y-77100181D01*
X230601971Y-77100181D01*
X230506733Y-77147800D01*
X230459114Y-77195419D01*
X230411495Y-77290657D01*
X230411495Y-77385895D01*
X230459114Y-77528752D01*
X231030543Y-78100181D01*
X230411495Y-78100181D01*
X123928143Y-92981543D02*
X123975762Y-92933924D01*
X124023381Y-92791067D01*
X124023381Y-92695829D01*
X123975762Y-92552971D01*
X123880524Y-92457733D01*
X123785286Y-92410114D01*
X123594810Y-92362495D01*
X123451952Y-92362495D01*
X123261476Y-92410114D01*
X123166238Y-92457733D01*
X123071000Y-92552971D01*
X123023381Y-92695829D01*
X123023381Y-92791067D01*
X123071000Y-92933924D01*
X123118619Y-92981543D01*
X123356714Y-93838686D02*
X124023381Y-93838686D01*
X122975762Y-93600590D02*
X123690048Y-93362495D01*
X123690048Y-93981543D01*
X123023381Y-94267257D02*
X123023381Y-94886305D01*
X123404333Y-94552971D01*
X123404333Y-94695829D01*
X123451952Y-94791067D01*
X123499571Y-94838686D01*
X123594810Y-94886305D01*
X123832905Y-94886305D01*
X123928143Y-94838686D01*
X123975762Y-94791067D01*
X124023381Y-94695829D01*
X124023381Y-94410114D01*
X123975762Y-94314876D01*
X123928143Y-94267257D01*
X232316257Y-97918543D02*
X232363876Y-97966162D01*
X232506733Y-98013781D01*
X232601971Y-98013781D01*
X232744829Y-97966162D01*
X232840067Y-97870924D01*
X232887686Y-97775686D01*
X232935305Y-97585210D01*
X232935305Y-97442352D01*
X232887686Y-97251876D01*
X232840067Y-97156638D01*
X232744829Y-97061400D01*
X232601971Y-97013781D01*
X232506733Y-97013781D01*
X232363876Y-97061400D01*
X232316257Y-97109019D01*
X231459114Y-97347114D02*
X231459114Y-98013781D01*
X231697210Y-96966162D02*
X231935305Y-97680448D01*
X231316257Y-97680448D01*
X230506733Y-97347114D02*
X230506733Y-98013781D01*
X230744829Y-96966162D02*
X230982924Y-97680448D01*
X230363876Y-97680448D01*
X82329257Y-77877943D02*
X82376876Y-77925562D01*
X82519733Y-77973181D01*
X82614971Y-77973181D01*
X82757829Y-77925562D01*
X82853067Y-77830324D01*
X82900686Y-77735086D01*
X82948305Y-77544610D01*
X82948305Y-77401752D01*
X82900686Y-77211276D01*
X82853067Y-77116038D01*
X82757829Y-77020800D01*
X82614971Y-76973181D01*
X82519733Y-76973181D01*
X82376876Y-77020800D01*
X82329257Y-77068419D01*
X81472114Y-77306514D02*
X81472114Y-77973181D01*
X81710210Y-76925562D02*
X81948305Y-77639848D01*
X81329257Y-77639848D01*
X80472114Y-76973181D02*
X80948305Y-76973181D01*
X80995924Y-77449371D01*
X80948305Y-77401752D01*
X80853067Y-77354133D01*
X80614971Y-77354133D01*
X80519733Y-77401752D01*
X80472114Y-77449371D01*
X80424495Y-77544610D01*
X80424495Y-77782705D01*
X80472114Y-77877943D01*
X80519733Y-77925562D01*
X80614971Y-77973181D01*
X80853067Y-77973181D01*
X80948305Y-77925562D01*
X80995924Y-77877943D01*
X82329257Y-97943943D02*
X82376876Y-97991562D01*
X82519733Y-98039181D01*
X82614971Y-98039181D01*
X82757829Y-97991562D01*
X82853067Y-97896324D01*
X82900686Y-97801086D01*
X82948305Y-97610610D01*
X82948305Y-97467752D01*
X82900686Y-97277276D01*
X82853067Y-97182038D01*
X82757829Y-97086800D01*
X82614971Y-97039181D01*
X82519733Y-97039181D01*
X82376876Y-97086800D01*
X82329257Y-97134419D01*
X81472114Y-97372514D02*
X81472114Y-98039181D01*
X81710210Y-96991562D02*
X81948305Y-97705848D01*
X81329257Y-97705848D01*
X80519733Y-97039181D02*
X80710210Y-97039181D01*
X80805448Y-97086800D01*
X80853067Y-97134419D01*
X80948305Y-97277276D01*
X80995924Y-97467752D01*
X80995924Y-97848705D01*
X80948305Y-97943943D01*
X80900686Y-97991562D01*
X80805448Y-98039181D01*
X80614971Y-98039181D01*
X80519733Y-97991562D01*
X80472114Y-97943943D01*
X80424495Y-97848705D01*
X80424495Y-97610610D01*
X80472114Y-97515371D01*
X80519733Y-97467752D01*
X80614971Y-97420133D01*
X80805448Y-97420133D01*
X80900686Y-97467752D01*
X80948305Y-97515371D01*
X80995924Y-97610610D01*
X194946495Y-91130381D02*
X194946495Y-90130381D01*
X194708400Y-90130381D01*
X194565542Y-90178000D01*
X194470304Y-90273238D01*
X194422685Y-90368476D01*
X194375066Y-90558952D01*
X194375066Y-90701810D01*
X194422685Y-90892286D01*
X194470304Y-90987524D01*
X194565542Y-91082762D01*
X194708400Y-91130381D01*
X194946495Y-91130381D01*
X194041733Y-90130381D02*
X193422685Y-90130381D01*
X193756019Y-90511333D01*
X193613161Y-90511333D01*
X193517923Y-90558952D01*
X193470304Y-90606571D01*
X193422685Y-90701810D01*
X193422685Y-90939905D01*
X193470304Y-91035143D01*
X193517923Y-91082762D01*
X193613161Y-91130381D01*
X193898876Y-91130381D01*
X193994114Y-91082762D01*
X194041733Y-91035143D01*
X232386095Y-71038981D02*
X232386095Y-70038981D01*
X232148000Y-70038981D01*
X232005142Y-70086600D01*
X231909904Y-70181838D01*
X231862285Y-70277076D01*
X231814666Y-70467552D01*
X231814666Y-70610410D01*
X231862285Y-70800886D01*
X231909904Y-70896124D01*
X232005142Y-70991362D01*
X232148000Y-71038981D01*
X232386095Y-71038981D01*
X230957523Y-70372314D02*
X230957523Y-71038981D01*
X231195619Y-69991362D02*
X231433714Y-70705648D01*
X230814666Y-70705648D01*
X118898895Y-91130381D02*
X118898895Y-90130381D01*
X118660800Y-90130381D01*
X118517942Y-90178000D01*
X118422704Y-90273238D01*
X118375085Y-90368476D01*
X118327466Y-90558952D01*
X118327466Y-90701810D01*
X118375085Y-90892286D01*
X118422704Y-90987524D01*
X118517942Y-91082762D01*
X118660800Y-91130381D01*
X118898895Y-91130381D01*
X117422704Y-90130381D02*
X117898895Y-90130381D01*
X117946514Y-90606571D01*
X117898895Y-90558952D01*
X117803657Y-90511333D01*
X117565561Y-90511333D01*
X117470323Y-90558952D01*
X117422704Y-90606571D01*
X117375085Y-90701810D01*
X117375085Y-90939905D01*
X117422704Y-91035143D01*
X117470323Y-91082762D01*
X117565561Y-91130381D01*
X117803657Y-91130381D01*
X117898895Y-91082762D01*
X117946514Y-91035143D01*
X232411495Y-91130381D02*
X232411495Y-90130381D01*
X232173400Y-90130381D01*
X232030542Y-90178000D01*
X231935304Y-90273238D01*
X231887685Y-90368476D01*
X231840066Y-90558952D01*
X231840066Y-90701810D01*
X231887685Y-90892286D01*
X231935304Y-90987524D01*
X232030542Y-91082762D01*
X232173400Y-91130381D01*
X232411495Y-91130381D01*
X230982923Y-90130381D02*
X231173400Y-90130381D01*
X231268638Y-90178000D01*
X231316257Y-90225619D01*
X231411495Y-90368476D01*
X231459114Y-90558952D01*
X231459114Y-90939905D01*
X231411495Y-91035143D01*
X231363876Y-91082762D01*
X231268638Y-91130381D01*
X231078161Y-91130381D01*
X230982923Y-91082762D01*
X230935304Y-91035143D01*
X230887685Y-90939905D01*
X230887685Y-90701810D01*
X230935304Y-90606571D01*
X230982923Y-90558952D01*
X231078161Y-90511333D01*
X231268638Y-90511333D01*
X231363876Y-90558952D01*
X231411495Y-90606571D01*
X231459114Y-90701810D01*
X82424495Y-71105181D02*
X82424495Y-70105181D01*
X82186400Y-70105181D01*
X82043542Y-70152800D01*
X81948304Y-70248038D01*
X81900685Y-70343276D01*
X81853066Y-70533752D01*
X81853066Y-70676610D01*
X81900685Y-70867086D01*
X81948304Y-70962324D01*
X82043542Y-71057562D01*
X82186400Y-71105181D01*
X82424495Y-71105181D01*
X81519733Y-70105181D02*
X80853066Y-70105181D01*
X81281638Y-71105181D01*
X82411795Y-91158481D02*
X82411795Y-90158481D01*
X82173700Y-90158481D01*
X82030842Y-90206100D01*
X81935604Y-90301338D01*
X81887985Y-90396576D01*
X81840366Y-90587052D01*
X81840366Y-90729910D01*
X81887985Y-90920386D01*
X81935604Y-91015624D01*
X82030842Y-91110862D01*
X82173700Y-91158481D01*
X82411795Y-91158481D01*
X81268938Y-90587052D02*
X81364176Y-90539433D01*
X81411795Y-90491814D01*
X81459414Y-90396576D01*
X81459414Y-90348957D01*
X81411795Y-90253719D01*
X81364176Y-90206100D01*
X81268938Y-90158481D01*
X81078461Y-90158481D01*
X80983223Y-90206100D01*
X80935604Y-90253719D01*
X80887985Y-90348957D01*
X80887985Y-90396576D01*
X80935604Y-90491814D01*
X80983223Y-90539433D01*
X81078461Y-90587052D01*
X81268938Y-90587052D01*
X81364176Y-90634671D01*
X81411795Y-90682290D01*
X81459414Y-90777529D01*
X81459414Y-90968005D01*
X81411795Y-91063243D01*
X81364176Y-91110862D01*
X81268938Y-91158481D01*
X81078461Y-91158481D01*
X80983223Y-91110862D01*
X80935604Y-91063243D01*
X80887985Y-90968005D01*
X80887985Y-90777529D01*
X80935604Y-90682290D01*
X80983223Y-90634671D01*
X81078461Y-90587052D01*
X202950676Y-55198971D02*
X202617342Y-55198971D01*
X202474485Y-55722781D02*
X202950676Y-55722781D01*
X202950676Y-54722781D01*
X202474485Y-54722781D01*
X201522104Y-55722781D02*
X202093533Y-55722781D01*
X201807819Y-55722781D02*
X201807819Y-54722781D01*
X201903057Y-54865638D01*
X201998295Y-54960876D01*
X202093533Y-55008495D01*
X126725276Y-55198971D02*
X126391942Y-55198971D01*
X126249085Y-55722781D02*
X126725276Y-55722781D01*
X126725276Y-54722781D01*
X126249085Y-54722781D01*
X125868133Y-54818019D02*
X125820514Y-54770400D01*
X125725276Y-54722781D01*
X125487180Y-54722781D01*
X125391942Y-54770400D01*
X125344323Y-54818019D01*
X125296704Y-54913257D01*
X125296704Y-55008495D01*
X125344323Y-55151352D01*
X125915752Y-55722781D01*
X125296704Y-55722781D01*
X161240695Y-67711581D02*
X161240695Y-66711581D01*
X160859742Y-66711581D01*
X160764504Y-66759200D01*
X160716885Y-66806819D01*
X160669266Y-66902057D01*
X160669266Y-67044914D01*
X160716885Y-67140152D01*
X160764504Y-67187771D01*
X160859742Y-67235390D01*
X161240695Y-67235390D01*
X159812123Y-66711581D02*
X160002600Y-66711581D01*
X160097838Y-66759200D01*
X160145457Y-66806819D01*
X160240695Y-66949676D01*
X160288314Y-67140152D01*
X160288314Y-67521105D01*
X160240695Y-67616343D01*
X160193076Y-67663962D01*
X160097838Y-67711581D01*
X159907361Y-67711581D01*
X159812123Y-67663962D01*
X159764504Y-67616343D01*
X159716885Y-67521105D01*
X159716885Y-67283010D01*
X159764504Y-67187771D01*
X159812123Y-67140152D01*
X159907361Y-67092533D01*
X160097838Y-67092533D01*
X160193076Y-67140152D01*
X160240695Y-67187771D01*
X160288314Y-67283010D01*
X188425057Y-95422981D02*
X188758391Y-94946790D01*
X188996486Y-95422981D02*
X188996486Y-94422981D01*
X188615533Y-94422981D01*
X188520295Y-94470600D01*
X188472676Y-94518219D01*
X188425057Y-94613457D01*
X188425057Y-94756314D01*
X188472676Y-94851552D01*
X188520295Y-94899171D01*
X188615533Y-94946790D01*
X188996486Y-94946790D01*
X188044105Y-94518219D02*
X187996486Y-94470600D01*
X187901248Y-94422981D01*
X187663152Y-94422981D01*
X187567914Y-94470600D01*
X187520295Y-94518219D01*
X187472676Y-94613457D01*
X187472676Y-94708695D01*
X187520295Y-94851552D01*
X188091724Y-95422981D01*
X187472676Y-95422981D01*
X186615533Y-94756314D02*
X186615533Y-95422981D01*
X186853629Y-94375362D02*
X187091724Y-95089648D01*
X186472676Y-95089648D01*
X188374257Y-93721181D02*
X188707591Y-93244990D01*
X188945686Y-93721181D02*
X188945686Y-92721181D01*
X188564733Y-92721181D01*
X188469495Y-92768800D01*
X188421876Y-92816419D01*
X188374257Y-92911657D01*
X188374257Y-93054514D01*
X188421876Y-93149752D01*
X188469495Y-93197371D01*
X188564733Y-93244990D01*
X188945686Y-93244990D01*
X187993305Y-92816419D02*
X187945686Y-92768800D01*
X187850448Y-92721181D01*
X187612352Y-92721181D01*
X187517114Y-92768800D01*
X187469495Y-92816419D01*
X187421876Y-92911657D01*
X187421876Y-93006895D01*
X187469495Y-93149752D01*
X188040924Y-93721181D01*
X187421876Y-93721181D01*
X186564733Y-92721181D02*
X186755210Y-92721181D01*
X186850448Y-92768800D01*
X186898067Y-92816419D01*
X186993305Y-92959276D01*
X187040924Y-93149752D01*
X187040924Y-93530705D01*
X186993305Y-93625943D01*
X186945686Y-93673562D01*
X186850448Y-93721181D01*
X186659971Y-93721181D01*
X186564733Y-93673562D01*
X186517114Y-93625943D01*
X186469495Y-93530705D01*
X186469495Y-93292610D01*
X186517114Y-93197371D01*
X186564733Y-93149752D01*
X186659971Y-93102133D01*
X186850448Y-93102133D01*
X186945686Y-93149752D01*
X186993305Y-93197371D01*
X187040924Y-93292610D01*
X188425057Y-92044781D02*
X188758391Y-91568590D01*
X188996486Y-92044781D02*
X188996486Y-91044781D01*
X188615533Y-91044781D01*
X188520295Y-91092400D01*
X188472676Y-91140019D01*
X188425057Y-91235257D01*
X188425057Y-91378114D01*
X188472676Y-91473352D01*
X188520295Y-91520971D01*
X188615533Y-91568590D01*
X188996486Y-91568590D01*
X188044105Y-91140019D02*
X187996486Y-91092400D01*
X187901248Y-91044781D01*
X187663152Y-91044781D01*
X187567914Y-91092400D01*
X187520295Y-91140019D01*
X187472676Y-91235257D01*
X187472676Y-91330495D01*
X187520295Y-91473352D01*
X188091724Y-92044781D01*
X187472676Y-92044781D01*
X186901248Y-91473352D02*
X186996486Y-91425733D01*
X187044105Y-91378114D01*
X187091724Y-91282876D01*
X187091724Y-91235257D01*
X187044105Y-91140019D01*
X186996486Y-91092400D01*
X186901248Y-91044781D01*
X186710771Y-91044781D01*
X186615533Y-91092400D01*
X186567914Y-91140019D01*
X186520295Y-91235257D01*
X186520295Y-91282876D01*
X186567914Y-91378114D01*
X186615533Y-91425733D01*
X186710771Y-91473352D01*
X186901248Y-91473352D01*
X186996486Y-91520971D01*
X187044105Y-91568590D01*
X187091724Y-91663829D01*
X187091724Y-91854305D01*
X187044105Y-91949543D01*
X186996486Y-91997162D01*
X186901248Y-92044781D01*
X186710771Y-92044781D01*
X186615533Y-91997162D01*
X186567914Y-91949543D01*
X186520295Y-91854305D01*
X186520295Y-91663829D01*
X186567914Y-91568590D01*
X186615533Y-91520971D01*
X186710771Y-91473352D01*
X112250457Y-95422981D02*
X112583791Y-94946790D01*
X112821886Y-95422981D02*
X112821886Y-94422981D01*
X112440933Y-94422981D01*
X112345695Y-94470600D01*
X112298076Y-94518219D01*
X112250457Y-94613457D01*
X112250457Y-94756314D01*
X112298076Y-94851552D01*
X112345695Y-94899171D01*
X112440933Y-94946790D01*
X112821886Y-94946790D01*
X111917124Y-94422981D02*
X111298076Y-94422981D01*
X111631410Y-94803933D01*
X111488552Y-94803933D01*
X111393314Y-94851552D01*
X111345695Y-94899171D01*
X111298076Y-94994410D01*
X111298076Y-95232505D01*
X111345695Y-95327743D01*
X111393314Y-95375362D01*
X111488552Y-95422981D01*
X111774267Y-95422981D01*
X111869505Y-95375362D01*
X111917124Y-95327743D01*
X110679029Y-94422981D02*
X110583790Y-94422981D01*
X110488552Y-94470600D01*
X110440933Y-94518219D01*
X110393314Y-94613457D01*
X110345695Y-94803933D01*
X110345695Y-95042029D01*
X110393314Y-95232505D01*
X110440933Y-95327743D01*
X110488552Y-95375362D01*
X110583790Y-95422981D01*
X110679029Y-95422981D01*
X110774267Y-95375362D01*
X110821886Y-95327743D01*
X110869505Y-95232505D01*
X110917124Y-95042029D01*
X110917124Y-94803933D01*
X110869505Y-94613457D01*
X110821886Y-94518219D01*
X110774267Y-94470600D01*
X110679029Y-94422981D01*
X112250457Y-93721181D02*
X112583791Y-93244990D01*
X112821886Y-93721181D02*
X112821886Y-92721181D01*
X112440933Y-92721181D01*
X112345695Y-92768800D01*
X112298076Y-92816419D01*
X112250457Y-92911657D01*
X112250457Y-93054514D01*
X112298076Y-93149752D01*
X112345695Y-93197371D01*
X112440933Y-93244990D01*
X112821886Y-93244990D01*
X111917124Y-92721181D02*
X111298076Y-92721181D01*
X111631410Y-93102133D01*
X111488552Y-93102133D01*
X111393314Y-93149752D01*
X111345695Y-93197371D01*
X111298076Y-93292610D01*
X111298076Y-93530705D01*
X111345695Y-93625943D01*
X111393314Y-93673562D01*
X111488552Y-93721181D01*
X111774267Y-93721181D01*
X111869505Y-93673562D01*
X111917124Y-93625943D01*
X110917124Y-92816419D02*
X110869505Y-92768800D01*
X110774267Y-92721181D01*
X110536171Y-92721181D01*
X110440933Y-92768800D01*
X110393314Y-92816419D01*
X110345695Y-92911657D01*
X110345695Y-93006895D01*
X110393314Y-93149752D01*
X110964743Y-93721181D01*
X110345695Y-93721181D01*
X112199657Y-92019381D02*
X112532991Y-91543190D01*
X112771086Y-92019381D02*
X112771086Y-91019381D01*
X112390133Y-91019381D01*
X112294895Y-91067000D01*
X112247276Y-91114619D01*
X112199657Y-91209857D01*
X112199657Y-91352714D01*
X112247276Y-91447952D01*
X112294895Y-91495571D01*
X112390133Y-91543190D01*
X112771086Y-91543190D01*
X111866324Y-91019381D02*
X111247276Y-91019381D01*
X111580610Y-91400333D01*
X111437752Y-91400333D01*
X111342514Y-91447952D01*
X111294895Y-91495571D01*
X111247276Y-91590810D01*
X111247276Y-91828905D01*
X111294895Y-91924143D01*
X111342514Y-91971762D01*
X111437752Y-92019381D01*
X111723467Y-92019381D01*
X111818705Y-91971762D01*
X111866324Y-91924143D01*
X110390133Y-91352714D02*
X110390133Y-92019381D01*
X110628229Y-90971762D02*
X110866324Y-91686048D01*
X110247276Y-91686048D01*
X89288857Y-71978781D02*
X89622191Y-71502590D01*
X89860286Y-71978781D02*
X89860286Y-70978781D01*
X89479333Y-70978781D01*
X89384095Y-71026400D01*
X89336476Y-71074019D01*
X89288857Y-71169257D01*
X89288857Y-71312114D01*
X89336476Y-71407352D01*
X89384095Y-71454971D01*
X89479333Y-71502590D01*
X89860286Y-71502590D01*
X88955524Y-70978781D02*
X88336476Y-70978781D01*
X88669810Y-71359733D01*
X88526952Y-71359733D01*
X88431714Y-71407352D01*
X88384095Y-71454971D01*
X88336476Y-71550210D01*
X88336476Y-71788305D01*
X88384095Y-71883543D01*
X88431714Y-71931162D01*
X88526952Y-71978781D01*
X88812667Y-71978781D01*
X88907905Y-71931162D01*
X88955524Y-71883543D01*
X87479333Y-70978781D02*
X87669810Y-70978781D01*
X87765048Y-71026400D01*
X87812667Y-71074019D01*
X87907905Y-71216876D01*
X87955524Y-71407352D01*
X87955524Y-71788305D01*
X87907905Y-71883543D01*
X87860286Y-71931162D01*
X87765048Y-71978781D01*
X87574571Y-71978781D01*
X87479333Y-71931162D01*
X87431714Y-71883543D01*
X87384095Y-71788305D01*
X87384095Y-71550210D01*
X87431714Y-71454971D01*
X87479333Y-71407352D01*
X87574571Y-71359733D01*
X87765048Y-71359733D01*
X87860286Y-71407352D01*
X87907905Y-71454971D01*
X87955524Y-71550210D01*
X89288857Y-73655181D02*
X89622191Y-73178990D01*
X89860286Y-73655181D02*
X89860286Y-72655181D01*
X89479333Y-72655181D01*
X89384095Y-72702800D01*
X89336476Y-72750419D01*
X89288857Y-72845657D01*
X89288857Y-72988514D01*
X89336476Y-73083752D01*
X89384095Y-73131371D01*
X89479333Y-73178990D01*
X89860286Y-73178990D01*
X88955524Y-72655181D02*
X88336476Y-72655181D01*
X88669810Y-73036133D01*
X88526952Y-73036133D01*
X88431714Y-73083752D01*
X88384095Y-73131371D01*
X88336476Y-73226610D01*
X88336476Y-73464705D01*
X88384095Y-73559943D01*
X88431714Y-73607562D01*
X88526952Y-73655181D01*
X88812667Y-73655181D01*
X88907905Y-73607562D01*
X88955524Y-73559943D01*
X88003143Y-72655181D02*
X87336476Y-72655181D01*
X87765048Y-73655181D01*
X89288857Y-75331581D02*
X89622191Y-74855390D01*
X89860286Y-75331581D02*
X89860286Y-74331581D01*
X89479333Y-74331581D01*
X89384095Y-74379200D01*
X89336476Y-74426819D01*
X89288857Y-74522057D01*
X89288857Y-74664914D01*
X89336476Y-74760152D01*
X89384095Y-74807771D01*
X89479333Y-74855390D01*
X89860286Y-74855390D01*
X88955524Y-74331581D02*
X88336476Y-74331581D01*
X88669810Y-74712533D01*
X88526952Y-74712533D01*
X88431714Y-74760152D01*
X88384095Y-74807771D01*
X88336476Y-74903010D01*
X88336476Y-75141105D01*
X88384095Y-75236343D01*
X88431714Y-75283962D01*
X88526952Y-75331581D01*
X88812667Y-75331581D01*
X88907905Y-75283962D01*
X88955524Y-75236343D01*
X87765048Y-74760152D02*
X87860286Y-74712533D01*
X87907905Y-74664914D01*
X87955524Y-74569676D01*
X87955524Y-74522057D01*
X87907905Y-74426819D01*
X87860286Y-74379200D01*
X87765048Y-74331581D01*
X87574571Y-74331581D01*
X87479333Y-74379200D01*
X87431714Y-74426819D01*
X87384095Y-74522057D01*
X87384095Y-74569676D01*
X87431714Y-74664914D01*
X87479333Y-74712533D01*
X87574571Y-74760152D01*
X87765048Y-74760152D01*
X87860286Y-74807771D01*
X87907905Y-74855390D01*
X87955524Y-74950629D01*
X87955524Y-75141105D01*
X87907905Y-75236343D01*
X87860286Y-75283962D01*
X87765048Y-75331581D01*
X87574571Y-75331581D01*
X87479333Y-75283962D01*
X87431714Y-75236343D01*
X87384095Y-75141105D01*
X87384095Y-74950629D01*
X87431714Y-74855390D01*
X87479333Y-74807771D01*
X87574571Y-74760152D01*
X89288857Y-92019381D02*
X89622191Y-91543190D01*
X89860286Y-92019381D02*
X89860286Y-91019381D01*
X89479333Y-91019381D01*
X89384095Y-91067000D01*
X89336476Y-91114619D01*
X89288857Y-91209857D01*
X89288857Y-91352714D01*
X89336476Y-91447952D01*
X89384095Y-91495571D01*
X89479333Y-91543190D01*
X89860286Y-91543190D01*
X88955524Y-91019381D02*
X88336476Y-91019381D01*
X88669810Y-91400333D01*
X88526952Y-91400333D01*
X88431714Y-91447952D01*
X88384095Y-91495571D01*
X88336476Y-91590810D01*
X88336476Y-91828905D01*
X88384095Y-91924143D01*
X88431714Y-91971762D01*
X88526952Y-92019381D01*
X88812667Y-92019381D01*
X88907905Y-91971762D01*
X88955524Y-91924143D01*
X87860286Y-92019381D02*
X87669810Y-92019381D01*
X87574571Y-91971762D01*
X87526952Y-91924143D01*
X87431714Y-91781286D01*
X87384095Y-91590810D01*
X87384095Y-91209857D01*
X87431714Y-91114619D01*
X87479333Y-91067000D01*
X87574571Y-91019381D01*
X87765048Y-91019381D01*
X87860286Y-91067000D01*
X87907905Y-91114619D01*
X87955524Y-91209857D01*
X87955524Y-91447952D01*
X87907905Y-91543190D01*
X87860286Y-91590810D01*
X87765048Y-91638429D01*
X87574571Y-91638429D01*
X87479333Y-91590810D01*
X87431714Y-91543190D01*
X87384095Y-91447952D01*
X89288857Y-93695781D02*
X89622191Y-93219590D01*
X89860286Y-93695781D02*
X89860286Y-92695781D01*
X89479333Y-92695781D01*
X89384095Y-92743400D01*
X89336476Y-92791019D01*
X89288857Y-92886257D01*
X89288857Y-93029114D01*
X89336476Y-93124352D01*
X89384095Y-93171971D01*
X89479333Y-93219590D01*
X89860286Y-93219590D01*
X88431714Y-93029114D02*
X88431714Y-93695781D01*
X88669810Y-92648162D02*
X88907905Y-93362448D01*
X88288857Y-93362448D01*
X87717429Y-92695781D02*
X87622190Y-92695781D01*
X87526952Y-92743400D01*
X87479333Y-92791019D01*
X87431714Y-92886257D01*
X87384095Y-93076733D01*
X87384095Y-93314829D01*
X87431714Y-93505305D01*
X87479333Y-93600543D01*
X87526952Y-93648162D01*
X87622190Y-93695781D01*
X87717429Y-93695781D01*
X87812667Y-93648162D01*
X87860286Y-93600543D01*
X87907905Y-93505305D01*
X87955524Y-93314829D01*
X87955524Y-93076733D01*
X87907905Y-92886257D01*
X87860286Y-92791019D01*
X87812667Y-92743400D01*
X87717429Y-92695781D01*
X89288857Y-95372181D02*
X89622191Y-94895990D01*
X89860286Y-95372181D02*
X89860286Y-94372181D01*
X89479333Y-94372181D01*
X89384095Y-94419800D01*
X89336476Y-94467419D01*
X89288857Y-94562657D01*
X89288857Y-94705514D01*
X89336476Y-94800752D01*
X89384095Y-94848371D01*
X89479333Y-94895990D01*
X89860286Y-94895990D01*
X88431714Y-94705514D02*
X88431714Y-95372181D01*
X88669810Y-94324562D02*
X88907905Y-95038848D01*
X88288857Y-95038848D01*
X87384095Y-95372181D02*
X87955524Y-95372181D01*
X87669810Y-95372181D02*
X87669810Y-94372181D01*
X87765048Y-94515038D01*
X87860286Y-94610276D01*
X87955524Y-94657895D01*
M02*
