M48
;DRILL file {KiCad 4.0.1-stable} date Fri 05 Feb 2016 02:13:58 PM CET
;FORMAT={-:-/ absolute / inch / decimal}
FMAT,2
INCH,TZ
T1C0.012
T2C0.015
T3C0.018
T4C0.026
T5C0.027
T6C0.037
T7C0.039
T8C0.040
T9C0.071
T10C0.138
%
G90
G05
M72
T1
X0.2381Y-1.9525
X0.2381Y-1.9955
X0.2381Y-2.039
X0.2441Y-1.163
X0.2441Y-1.2065
X0.2441Y-1.2495
X0.3686Y-1.1405
X0.3686Y-1.2065
X0.3686Y-1.2725
X0.3686Y-1.929
X0.3686Y-1.9955
X0.3686Y-2.0615
X1.45Y-2.1423
X1.5625Y-1.8218
X1.708Y-0.3063
X1.7675Y-1.8668
X1.816Y-0.3063
X2.5375Y-0.8468
X2.6225Y-0.5068
X2.686Y-0.5283
X2.76Y-0.4793
X2.8525Y-0.4793
X2.884Y-0.9193
X2.886Y-0.5623
X2.93Y-0.4793
X2.9921Y-0.7143
X2.9975Y-0.7893
X2.9975Y-0.8543
X3.01Y-0.4793
X3.0171Y-0.7418
X3.0621Y-0.7468
X3.09Y-1.3203
X3.0996Y-0.7468
X3.1425Y-0.8193
X3.1675Y-1.0593
X3.18Y-0.9843
X3.2225Y-1.0593
X3.2325Y-0.9218
X3.2575Y-1.0543
X3.264Y-1.3203
X3.289Y-0.9833
X3.289Y-1.0573
X3.2975Y-1.3968
X3.32Y-1.0543
X3.3275Y-0.7793
X3.3325Y-0.9218
X3.3525Y-0.4493
X3.3525Y-0.4868
X3.3525Y-0.7993
X3.367Y-1.3973
X3.3725Y-1.0543
X3.375Y-0.8193
X3.3875Y-0.4868
X3.3875Y-0.5218
X3.4225Y-0.5218
X3.4271Y-0.5718
X3.4771Y-0.5918
X3.48Y-1.0818
X3.505Y-1.1093
X3.5146Y-0.5918
X3.5546Y-0.5918
X3.555Y-0.6418
X3.59Y-0.6418
X3.605Y-1.0393
X3.625Y-0.6418
X3.6846Y-0.9968
X3.795Y-1.0093
X3.815Y-0.5593
X3.815Y-0.7343
X3.85Y-0.7343
X3.8525Y-0.5593
X4.424Y-0.0243
X4.4775Y-0.5418
X4.5175Y-0.5418
X4.5425Y-1.8418
X4.552Y-0.2703
X4.6812Y-1.8431
X4.866Y-0.2703
X4.87Y-0.5393
X5.0251Y-1.913
X5.5051Y-1.462
X5.6175Y-1.3348
X5.6175Y-1.3858
X5.758Y-1.1443
X5.758Y-1.1803
X5.758Y-1.2163
X5.758Y-1.2523
X5.758Y-1.2903
X5.758Y-1.3263
X5.8506Y-1.463
X5.8506Y-1.5605
X5.8951Y-1.181
X5.9051Y-1.2835
X5.9246Y-1.207
X5.9306Y-1.309
X5.9561Y-1.3345
X5.9856Y-1.2325
X6.034Y-0.2743
X6.1575Y-0.2743
X6.2221Y-1.307
X6.2575Y-0.2743
T2
X2.9975Y-0.9593
T3
X0.061Y-1.085
X0.061Y-1.371
X0.061Y-1.821
X0.539Y-1.821
X0.787Y-1.085
X0.787Y-1.371
X0.787Y-1.819
X1.081Y-1.085
X1.081Y-1.371
X1.081Y-1.821
X1.081Y-2.167
X1.2271Y-0.133
X1.325Y-1.371
X1.356Y-0.0543
X1.361Y-2.1668
X1.481Y-0.709
X1.481Y-1.085
X1.947Y-0.709
X1.947Y-1.085
X2.257Y-0.709
X2.257Y-1.085
X2.339Y-1.211
X2.9001Y-2.097
X2.913Y-0.139
X3.225Y-1.647
X3.265Y-0.387
X3.615Y-2.097
X3.639Y-0.139
X3.639Y-0.387
X3.981Y-2.097
X3.985Y-0.139
X3.985Y-0.387
X3.985Y-0.789
X3.985Y-1.037
X3.985Y-1.473
X4.385Y-0.709
X4.52Y-0.0543
X4.653Y-1.037
X4.681Y-1.605
X5.095Y-0.709
X5.095Y-1.037
X5.095Y-1.605
X5.365Y-0.397
X5.365Y-0.519
X5.365Y-1.037
X5.507Y-0.255
X5.809Y-0.255
X5.809Y-0.519
X5.809Y-1.037
X6.034Y-0.4363
T4
X2.7625Y-0.2518
X2.7625Y-0.3018
X2.8125Y-0.2518
X2.8125Y-0.3018
X2.8625Y-0.2518
X2.8625Y-0.3018
X2.9125Y-0.2518
X2.9125Y-0.3018
X2.9625Y-0.2518
X2.9625Y-0.3018
T5
X0.042Y-0.6023
X0.042Y-0.6843
X0.042Y-0.7963
X0.042Y-0.8803
X0.042Y-0.9603
X0.146Y-0.7563
X0.146Y-0.8403
X0.146Y-0.9203
X0.252Y-0.7963
X0.252Y-0.8803
X0.252Y-0.9603
X0.35Y-0.9203
X0.352Y-0.7563
X0.352Y-0.8403
X0.444Y-0.6043
X0.444Y-0.6843
X0.444Y-0.7963
X0.444Y-0.8803
X0.444Y-0.9603
X0.664Y-0.6023
X0.664Y-0.6843
X0.664Y-0.7963
X0.664Y-0.8803
X0.664Y-0.9603
X0.768Y-0.7563
X0.768Y-0.8403
X0.768Y-0.9203
X0.874Y-0.7963
X0.874Y-0.8803
X0.874Y-0.9603
X0.972Y-0.9203
X0.974Y-0.7563
X0.974Y-0.8403
X1.066Y-0.6043
X1.066Y-0.6843
X1.066Y-0.7963
X1.066Y-0.8803
X1.066Y-0.9603
T6
X0.5097Y-0.18
X0.6081Y-0.18
T7
X1.6102Y0.0506
X1.6102Y-0.5203
X1.7086Y-0.5203
X1.807Y0.0506
X1.807Y-0.5203
X4.6112Y0.0526
X4.6112Y-0.5183
X4.7096Y-0.5183
X4.808Y0.0526
X4.808Y-0.5183
T8
X2.8002Y-1.4743
X2.9002Y-1.4743
X3.5152Y-1.4743
X3.6152Y-1.4743
X5.3077Y-0.0293
X5.3077Y-0.1293
X5.4077Y-0.0293
X5.4077Y-0.1293
X5.5077Y-0.0293
X5.5077Y-0.1293
X5.6077Y-0.0293
X5.6077Y-0.1293
X5.7077Y-0.0293
X5.7077Y-0.1293
X5.8077Y-0.0293
X5.8077Y-0.1293
X5.9077Y-0.0293
X5.9077Y-0.1293
X6.0077Y-0.0293
X6.0077Y-0.1293
X6.1077Y-0.0293
X6.1077Y-0.1293
X6.2077Y-0.0293
X6.2077Y-0.1293
T10
X0.Y0.
X0.0001Y-2.3622
X3.208Y-1.831
X6.417Y0.
X6.417Y-2.3622
T9
X1.4488Y-0.2408G85X1.4488Y-0.2093
G05
X1.9684Y-0.2408G85X1.9684Y-0.2093
G05
X4.4498Y-0.2388G85X4.4498Y-0.2073
G05
X4.9694Y-0.2388G85X4.9694Y-0.2073
G05
T0
M30
