G04 #@! TF.FileFunction,Soldermask,Top*
%FSLAX46Y46*%
G04 Gerber Fmt 4.6, Leading zero omitted, Abs format (unit mm)*
G04 Created by KiCad (PCBNEW (2015-05-18 BZR 5668)-product) date Wed 16 Sep 2015 05:41:14 PM CEST*
%MOMM*%
G01*
G04 APERTURE LIST*
%ADD10C,0.100000*%
%ADD11R,1.000000X0.950000*%
%ADD12R,3.799180X1.800200*%
%ADD13R,1.450000X1.200000*%
%ADD14R,0.950000X1.000000*%
%ADD15C,1.800000*%
%ADD16R,3.000000X3.800000*%
%ADD17R,1.200000X3.050000*%
%ADD18R,1.600000X4.000000*%
%ADD19R,1.250000X1.250000*%
%ADD20C,1.250000*%
%ADD21R,1.000100X1.000100*%
%ADD22R,1.100000X0.700000*%
%ADD23R,0.700000X1.100000*%
%ADD24R,1.800000X2.380000*%
%ADD25R,1.851000X3.248000*%
%ADD26R,6.296000X6.296000*%
%ADD27R,1.700000X0.480000*%
%ADD28R,0.480000X1.700000*%
%ADD29R,1.300000X0.600000*%
%ADD30R,2.300580X5.800700*%
%ADD31R,2.232000X2.232000*%
%ADD32O,2.232000X2.232000*%
%ADD33R,1.200000X1.450000*%
%ADD34R,0.790000X0.650000*%
%ADD35R,0.650000X0.790000*%
%ADD36O,1.800000X1.800000*%
%ADD37R,1.800000X1.800000*%
%ADD38R,0.850000X1.260000*%
%ADD39R,1.927200X1.927200*%
%ADD40O,1.927200X1.927200*%
%ADD41R,2.200000X3.200000*%
%ADD42R,0.500000X1.450000*%
%ADD43C,1.200000*%
%ADD44R,3.200000X3.200000*%
%ADD45C,0.254000*%
G04 APERTURE END LIST*
D10*
D11*
X82308000Y-48577500D03*
X83808000Y-48577500D03*
X100000500Y-48577500D03*
X98500500Y-48577500D03*
D12*
X103080820Y-43942000D03*
X97579180Y-43942000D03*
D13*
X190373000Y-95964500D03*
X190373000Y-97964500D03*
X192532000Y-97964500D03*
X192532000Y-95964500D03*
X205486000Y-97964500D03*
X205486000Y-95964500D03*
X196850000Y-97964500D03*
X196850000Y-95964500D03*
X194691000Y-97964500D03*
X194691000Y-95964500D03*
X199009000Y-97964500D03*
X199009000Y-95964500D03*
X201168000Y-97964500D03*
X201168000Y-95964500D03*
X203327000Y-97964500D03*
X203327000Y-95964500D03*
X188214000Y-97964500D03*
X188214000Y-95964500D03*
X114173000Y-95964500D03*
X114173000Y-97964500D03*
X116332000Y-97964500D03*
X116332000Y-95964500D03*
X129286000Y-97964500D03*
X129286000Y-95964500D03*
X120650000Y-97964500D03*
X120650000Y-95964500D03*
X118491000Y-97964500D03*
X118491000Y-95964500D03*
X122809000Y-97964500D03*
X122809000Y-95964500D03*
X124968000Y-97964500D03*
X124968000Y-95964500D03*
X127127000Y-97964500D03*
X127127000Y-95964500D03*
X112014000Y-97964500D03*
X112014000Y-95964500D03*
D14*
X151384000Y-73545000D03*
X151384000Y-75045000D03*
D11*
X165481000Y-61849000D03*
X166981000Y-61849000D03*
D14*
X153416000Y-55296500D03*
X153416000Y-53796500D03*
X158128400Y-55283800D03*
X158128400Y-53783800D03*
X158115000Y-73100500D03*
X158115000Y-74600500D03*
X141986000Y-63829500D03*
X141986000Y-65329500D03*
X141986000Y-73521000D03*
X141986000Y-72021000D03*
X193802000Y-53353400D03*
X193802000Y-51853400D03*
X117551200Y-53353400D03*
X117551200Y-51853400D03*
X195808600Y-53353400D03*
X195808600Y-51853400D03*
X119557800Y-53353400D03*
X119557800Y-51853400D03*
D15*
X192307200Y-55727600D03*
X192307200Y-41227600D03*
X197307200Y-55727600D03*
X197307200Y-41227600D03*
X194807200Y-55727600D03*
D16*
X188207200Y-48227600D03*
X201407200Y-48227600D03*
D15*
X116081800Y-55778400D03*
X116081800Y-41278400D03*
X121081800Y-55778400D03*
X121081800Y-41278400D03*
X118581800Y-55778400D03*
D16*
X111981800Y-48278400D03*
X125181800Y-48278400D03*
D17*
X210328000Y-93073000D03*
X212328000Y-93073000D03*
D18*
X208078000Y-86698000D03*
X214578000Y-86698000D03*
D17*
X134128000Y-93073000D03*
X136128000Y-93073000D03*
D18*
X131878000Y-86698000D03*
X138378000Y-86698000D03*
D19*
X150431500Y-48958500D03*
D20*
X149161500Y-48958500D03*
X147891500Y-48958500D03*
X146621500Y-48958500D03*
X145351500Y-48958500D03*
X149161500Y-50228500D03*
X147891500Y-50228500D03*
X146621500Y-50228500D03*
X145351500Y-50228500D03*
X150431500Y-50228500D03*
D21*
X209362000Y-97774760D03*
X211262000Y-97774760D03*
X210312000Y-95775780D03*
X133162000Y-97774760D03*
X135062000Y-97774760D03*
X134112000Y-95775780D03*
D22*
X213360000Y-97270000D03*
X213360000Y-95770000D03*
X137160000Y-97270000D03*
X137160000Y-95770000D03*
X171577000Y-68949000D03*
X171577000Y-67449000D03*
X151638000Y-55487000D03*
X151638000Y-53987000D03*
X149606000Y-55487000D03*
X149606000Y-53987000D03*
X147637500Y-55487000D03*
X147637500Y-53987000D03*
X145288000Y-55487000D03*
X145288000Y-53987000D03*
X160718500Y-78791500D03*
X160718500Y-77291500D03*
X187553600Y-43930000D03*
X187553600Y-42430000D03*
X111302800Y-43930000D03*
X111302800Y-42430000D03*
D23*
X190816800Y-51765200D03*
X192316800Y-51765200D03*
X114566000Y-51765200D03*
X116066000Y-51765200D03*
X192316800Y-53492400D03*
X190816800Y-53492400D03*
X116066000Y-53492400D03*
X114566000Y-53492400D03*
D22*
X158940500Y-78791500D03*
X158940500Y-77291500D03*
D23*
X198793800Y-51765200D03*
X197293800Y-51765200D03*
X122543000Y-51765200D03*
X121043000Y-51765200D03*
X197293800Y-53492400D03*
X198793800Y-53492400D03*
X121043000Y-53492400D03*
X122543000Y-53492400D03*
D24*
X138178100Y-64094460D03*
X138173460Y-73299320D03*
D25*
X99631500Y-51498500D03*
D26*
X97345500Y-57848500D03*
D25*
X95059500Y-51498500D03*
D27*
X149792600Y-59410400D03*
X149792600Y-59910400D03*
X149792600Y-60410400D03*
X149792600Y-60910400D03*
X149792600Y-61410400D03*
X149792600Y-61910400D03*
X149792600Y-62410400D03*
X149792600Y-62910400D03*
X149792600Y-63410400D03*
X149792600Y-63910400D03*
X149792600Y-64410400D03*
X149792600Y-64910400D03*
X149792600Y-65410400D03*
X149792600Y-65910400D03*
X149792600Y-66410400D03*
X149792600Y-66910400D03*
X149792600Y-67410400D03*
X149792600Y-67910400D03*
X149792600Y-68410400D03*
X149792600Y-68910400D03*
D28*
X151942600Y-71060400D03*
X152442600Y-71060400D03*
X152942600Y-71060400D03*
X153442600Y-71060400D03*
X153942600Y-71060400D03*
X154442600Y-71060400D03*
X154942600Y-71060400D03*
X155442600Y-71060400D03*
X155942600Y-71060400D03*
X156442600Y-71060400D03*
X156942600Y-71060400D03*
X157442600Y-71060400D03*
X157942600Y-71060400D03*
X158442600Y-71060400D03*
X158942600Y-71060400D03*
X159442600Y-71060400D03*
X159942600Y-71060400D03*
X160442600Y-71060400D03*
X160942600Y-71060400D03*
X161442600Y-71060400D03*
D27*
X163592600Y-68910400D03*
X163592600Y-68410400D03*
X163592600Y-67910400D03*
X163592600Y-67410400D03*
X163592600Y-66910400D03*
X163592600Y-66410400D03*
X163592600Y-65910400D03*
X163592600Y-65410400D03*
X163592600Y-64910400D03*
X163592600Y-64410400D03*
X163592600Y-63910400D03*
X163592600Y-63410400D03*
X163592600Y-62910400D03*
X163592600Y-62410400D03*
X163592600Y-61910400D03*
X163592600Y-61410400D03*
X163592600Y-60910400D03*
X163592600Y-60410400D03*
X163592600Y-59910400D03*
X163592600Y-59410400D03*
D28*
X161442600Y-57260400D03*
X160942600Y-57260400D03*
X160442600Y-57260400D03*
X159942600Y-57260400D03*
X159442600Y-57260400D03*
X158942600Y-57260400D03*
X158442600Y-57260400D03*
X157942600Y-57260400D03*
X157442600Y-57260400D03*
X156942600Y-57260400D03*
X156442600Y-57260400D03*
X155942600Y-57260400D03*
X155442600Y-57260400D03*
X154942600Y-57260400D03*
X154442600Y-57260400D03*
X153942600Y-57260400D03*
X153442600Y-57260400D03*
X152942600Y-57260400D03*
X152442600Y-57260400D03*
X151942600Y-57260400D03*
D29*
X222509200Y-79713800D03*
X222509200Y-79063800D03*
X222509200Y-78413800D03*
X222509200Y-77763800D03*
X222509200Y-77113800D03*
X222509200Y-76463800D03*
X222509200Y-75813800D03*
X222509200Y-75163800D03*
X222509200Y-74513800D03*
X222509200Y-73863800D03*
X222509200Y-73213800D03*
X222509200Y-72563800D03*
X222509200Y-71913800D03*
X222509200Y-71263800D03*
X216809200Y-71263800D03*
X216809200Y-71913800D03*
X216809200Y-72563800D03*
X216809200Y-73213800D03*
X216809200Y-73863800D03*
X216809200Y-74513800D03*
X216809200Y-75163800D03*
X216809200Y-75813800D03*
X216809200Y-76463800D03*
X216809200Y-77113800D03*
X216809200Y-77763800D03*
X216809200Y-78413800D03*
X216809200Y-79063800D03*
X216809200Y-79713800D03*
D30*
X145529300Y-63794640D03*
X145529300Y-73492360D03*
D31*
X167010500Y-80010000D03*
D32*
X164470500Y-80010000D03*
D31*
X148849500Y-80010000D03*
D32*
X146309500Y-80010000D03*
D11*
X95111000Y-48577500D03*
X93611000Y-48577500D03*
D33*
X143303500Y-57467500D03*
X141303500Y-57467500D03*
D14*
X141097000Y-67957000D03*
X141097000Y-69457000D03*
D34*
X139485000Y-55435500D03*
X137375000Y-55435500D03*
D35*
X145338800Y-57695200D03*
X145338800Y-59805200D03*
D34*
X139739000Y-61404500D03*
X137629000Y-61404500D03*
D36*
X88000000Y-45872400D03*
D37*
X90000000Y-45872400D03*
D21*
X169708260Y-69784000D03*
X169708260Y-67884000D03*
X167709280Y-68834000D03*
D23*
X142545500Y-55435500D03*
X141045500Y-55435500D03*
X142545500Y-59499500D03*
X141045500Y-59499500D03*
X141045500Y-61341000D03*
X142545500Y-61341000D03*
D22*
X234124500Y-50280000D03*
X234124500Y-48780000D03*
X231597200Y-50280000D03*
X231597200Y-48780000D03*
X228447600Y-50280000D03*
X228447600Y-48780000D03*
X135953500Y-59892500D03*
X135953500Y-61392500D03*
D25*
X83820000Y-51498500D03*
D26*
X81534000Y-57848500D03*
D25*
X79248000Y-51498500D03*
D38*
X137607000Y-59520000D03*
X138557000Y-59520000D03*
X139507000Y-59520000D03*
X139507000Y-57320000D03*
X137607000Y-57320000D03*
D39*
X210000000Y-45847000D03*
D40*
X210000000Y-43307000D03*
X212540000Y-45847000D03*
X212540000Y-43307000D03*
X215080000Y-45847000D03*
X215080000Y-43307000D03*
X217620000Y-45847000D03*
X217620000Y-43307000D03*
X220160000Y-45847000D03*
X220160000Y-43307000D03*
X222700000Y-45847000D03*
X222700000Y-43307000D03*
X225240000Y-45847000D03*
X225240000Y-43307000D03*
X227780000Y-45847000D03*
X227780000Y-43307000D03*
X230320000Y-45847000D03*
X230320000Y-43307000D03*
X232860000Y-45847000D03*
X232860000Y-43307000D03*
D41*
X185028000Y-88837500D03*
X204608000Y-88837500D03*
D42*
X202068000Y-91162500D03*
X201568000Y-91162500D03*
X201068000Y-91162500D03*
X200568000Y-91162500D03*
X200068000Y-91162500D03*
X199568000Y-91162500D03*
X199068000Y-91162500D03*
X198568000Y-91162500D03*
X198068000Y-91162500D03*
X197568000Y-91162500D03*
X197068000Y-91162500D03*
X196568000Y-91162500D03*
X196068000Y-91162500D03*
X195568000Y-91162500D03*
X195068000Y-91162500D03*
X194568000Y-91162500D03*
X194068000Y-91162500D03*
X193568000Y-91162500D03*
X193068000Y-91162500D03*
X192568000Y-91162500D03*
X192068000Y-91162500D03*
X191568000Y-91162500D03*
X191068000Y-91162500D03*
X190568000Y-91162500D03*
X190068000Y-91162500D03*
X189568000Y-91162500D03*
X189068000Y-91162500D03*
X188568000Y-91162500D03*
X188068000Y-91162500D03*
X187568000Y-91162500D03*
D41*
X108828000Y-88837500D03*
X128408000Y-88837500D03*
D42*
X125868000Y-91162500D03*
X125368000Y-91162500D03*
X124868000Y-91162500D03*
X124368000Y-91162500D03*
X123868000Y-91162500D03*
X123368000Y-91162500D03*
X122868000Y-91162500D03*
X122368000Y-91162500D03*
X121868000Y-91162500D03*
X121368000Y-91162500D03*
X120868000Y-91162500D03*
X120368000Y-91162500D03*
X119868000Y-91162500D03*
X119368000Y-91162500D03*
X118868000Y-91162500D03*
X118368000Y-91162500D03*
X117868000Y-91162500D03*
X117368000Y-91162500D03*
X116868000Y-91162500D03*
X116368000Y-91162500D03*
X115868000Y-91162500D03*
X115368000Y-91162500D03*
X114868000Y-91162500D03*
X114368000Y-91162500D03*
X113868000Y-91162500D03*
X113368000Y-91162500D03*
X112868000Y-91162500D03*
X112368000Y-91162500D03*
X111868000Y-91162500D03*
X111368000Y-91162500D03*
D43*
X78510800Y-97579000D03*
D44*
X78510800Y-97579000D03*
D43*
X156666600Y-49293600D03*
D44*
X156666600Y-49293600D03*
D43*
X225297400Y-97579000D03*
D44*
X225297400Y-97579000D03*
D45*
G36*
X105144000Y-68651692D02*
X105113309Y-68805989D01*
X105032991Y-68926191D01*
X104912789Y-69006509D01*
X104758492Y-69037200D01*
X74173208Y-69037200D01*
X74018911Y-69006509D01*
X73898709Y-68926191D01*
X73818391Y-68805989D01*
X73787700Y-68651692D01*
X73787700Y-54119208D01*
X73818391Y-53964911D01*
X73898709Y-53844709D01*
X74018911Y-53764391D01*
X74173208Y-53733700D01*
X104758492Y-53733700D01*
X104912789Y-53764391D01*
X105032991Y-53844709D01*
X105113309Y-53964911D01*
X105144000Y-54119208D01*
X105144000Y-68651692D01*
X105144000Y-68651692D01*
G37*
X105144000Y-68651692D02*
X105113309Y-68805989D01*
X105032991Y-68926191D01*
X104912789Y-69006509D01*
X104758492Y-69037200D01*
X74173208Y-69037200D01*
X74018911Y-69006509D01*
X73898709Y-68926191D01*
X73818391Y-68805989D01*
X73787700Y-68651692D01*
X73787700Y-54119208D01*
X73818391Y-53964911D01*
X73898709Y-53844709D01*
X74018911Y-53764391D01*
X74173208Y-53733700D01*
X104758492Y-53733700D01*
X104912789Y-53764391D01*
X105032991Y-53844709D01*
X105113309Y-53964911D01*
X105144000Y-54119208D01*
X105144000Y-68651692D01*
M02*
