%FSLAX34Y34*%
G04 Gerber Fmt 3.4, Leading zero omitted, Abs format*
G04 (created by PCBNEW (2014-03-19 BZR 4756)-product) date Ter 03 Jun 2014 10:46:04 BRT*
%MOIN*%
G01*
G70*
G90*
G04 APERTURE LIST*
%ADD10C,0.005906*%
%ADD11R,0.011417X0.049213*%
%ADD12R,0.078740X0.118110*%
%ADD13R,0.025000X0.045000*%
%ADD14R,0.062992X0.062992*%
%ADD15C,0.062992*%
%ADD16R,0.045000X0.025000*%
%ADD17R,0.027000X0.022000*%
%ADD18C,0.133858*%
%ADD19R,0.055000X0.035000*%
%ADD20R,0.035000X0.055000*%
%ADD21R,0.051181X0.027559*%
%ADD22R,0.068000X0.068000*%
%ADD23O,0.068000X0.068000*%
%ADD24R,0.110000X0.110000*%
%ADD25C,0.110000*%
%ADD26R,0.039370X0.112205*%
%ADD27R,0.055118X0.149606*%
%ADD28R,0.068000X0.080000*%
%ADD29O,0.068000X0.080000*%
%ADD30R,0.031500X0.039400*%
%ADD31R,0.059055X0.011024*%
%ADD32R,0.011024X0.059055*%
%ADD33R,0.020000X0.012000*%
%ADD34R,0.083000X0.220000*%
%ADD35R,0.098425X0.098425*%
%ADD36R,0.055118X0.055118*%
%ADD37C,0.177165*%
G04 APERTURE END LIST*
G54D10*
G54D11*
X50669Y-2165D03*
X50472Y-2165D03*
X50275Y-2165D03*
X50078Y-2165D03*
X49881Y-2165D03*
X49685Y-2165D03*
X49488Y-2165D03*
X49291Y-2165D03*
X49094Y-2165D03*
X48897Y-2165D03*
X48700Y-2165D03*
X48503Y-2165D03*
X48307Y-2165D03*
X48110Y-2165D03*
X47913Y-2165D03*
X47716Y-2165D03*
X47519Y-2165D03*
X47322Y-2165D03*
X47125Y-2165D03*
X46929Y-2165D03*
X46732Y-2165D03*
X46535Y-2165D03*
X46338Y-2165D03*
X46141Y-2165D03*
X45944Y-2165D03*
X45748Y-2165D03*
X45551Y-2165D03*
X45354Y-2165D03*
X45157Y-2165D03*
X44960Y-2165D03*
G54D12*
X51275Y-3080D03*
X44354Y-3080D03*
G54D11*
X20669Y-2165D03*
X20472Y-2165D03*
X20275Y-2165D03*
X20078Y-2165D03*
X19881Y-2165D03*
X19685Y-2165D03*
X19488Y-2165D03*
X19291Y-2165D03*
X19094Y-2165D03*
X18897Y-2165D03*
X18700Y-2165D03*
X18503Y-2165D03*
X18307Y-2165D03*
X18110Y-2165D03*
X17913Y-2165D03*
X17716Y-2165D03*
X17519Y-2165D03*
X17322Y-2165D03*
X17125Y-2165D03*
X16929Y-2165D03*
X16732Y-2165D03*
X16535Y-2165D03*
X16338Y-2165D03*
X16141Y-2165D03*
X15944Y-2165D03*
X15748Y-2165D03*
X15551Y-2165D03*
X15354Y-2165D03*
X15157Y-2165D03*
X14960Y-2165D03*
G54D12*
X21275Y-3080D03*
X14354Y-3080D03*
G54D13*
X62278Y-41507D03*
X62878Y-41507D03*
X2760Y-41507D03*
X2160Y-41507D03*
G54D14*
X21988Y-24714D03*
G54D15*
X21988Y-25501D03*
G54D16*
X13397Y-1166D03*
X13397Y-566D03*
X14133Y-1166D03*
X14133Y-566D03*
X14870Y-1166D03*
X14870Y-566D03*
X15606Y-1166D03*
X15606Y-566D03*
X16342Y-1166D03*
X16342Y-566D03*
X17720Y-5680D03*
X17720Y-6280D03*
X18110Y-1166D03*
X18110Y-566D03*
X17098Y-1166D03*
X17098Y-566D03*
X16248Y-6280D03*
X16248Y-5680D03*
X16984Y-5680D03*
X16984Y-6280D03*
X15885Y-41688D03*
X15885Y-42288D03*
X43395Y-1166D03*
X43395Y-566D03*
X44133Y-1166D03*
X44133Y-566D03*
X44872Y-1166D03*
X44872Y-566D03*
X45610Y-1166D03*
X45610Y-566D03*
X46348Y-1166D03*
X46348Y-566D03*
X47716Y-5680D03*
X47716Y-6280D03*
X48110Y-1166D03*
X48110Y-566D03*
X47096Y-1166D03*
X47096Y-566D03*
X46240Y-6284D03*
X46240Y-5684D03*
X46978Y-5684D03*
X46978Y-6284D03*
X49153Y-41688D03*
X49153Y-42288D03*
X17519Y-31264D03*
X17519Y-31864D03*
G54D13*
X18509Y-29744D03*
X19109Y-29744D03*
X16540Y-29744D03*
X15940Y-29744D03*
G54D16*
X47519Y-31264D03*
X47519Y-31864D03*
G54D13*
X48509Y-29763D03*
X49109Y-29763D03*
X46530Y-29744D03*
X45930Y-29744D03*
G54D16*
X24537Y-33853D03*
X24537Y-34453D03*
X24537Y-37583D03*
X24537Y-36983D03*
G54D13*
X28347Y-38385D03*
X27747Y-38385D03*
X29945Y-36348D03*
X29345Y-36348D03*
X36156Y-35206D03*
X36756Y-35206D03*
G54D16*
X36250Y-32652D03*
X36250Y-32052D03*
X31240Y-29906D03*
X31240Y-29306D03*
X31976Y-29906D03*
X31976Y-29306D03*
G54D13*
X28892Y-32893D03*
X28292Y-32893D03*
G54D16*
X33375Y-29906D03*
X33375Y-29306D03*
X33208Y-37249D03*
X33208Y-37849D03*
G54D17*
X29547Y-28763D03*
X29547Y-27803D03*
X25954Y-28757D03*
X25954Y-27797D03*
G54D15*
X18503Y-28807D03*
X18503Y-23098D03*
X16535Y-28807D03*
X16535Y-23098D03*
X17519Y-28807D03*
G54D18*
X20118Y-25854D03*
X14921Y-25854D03*
G54D15*
X48503Y-28807D03*
X48503Y-23098D03*
X46535Y-28807D03*
X46535Y-23098D03*
X47519Y-28807D03*
G54D18*
X50118Y-25854D03*
X44921Y-25854D03*
G54D19*
X17519Y-30493D03*
X17519Y-29743D03*
X47519Y-30493D03*
X47519Y-29743D03*
G54D20*
X28138Y-33641D03*
X28888Y-33641D03*
G54D21*
X18129Y-42122D03*
X18129Y-41688D03*
X18129Y-41255D03*
X16909Y-41255D03*
X16909Y-41688D03*
X16909Y-42122D03*
X46909Y-41255D03*
X46909Y-41688D03*
X46909Y-42122D03*
X48129Y-42122D03*
X48129Y-41688D03*
X48129Y-41255D03*
G54D22*
X29870Y-26242D03*
G54D23*
X28870Y-26242D03*
X29870Y-25242D03*
X28870Y-25242D03*
X29870Y-24242D03*
X28870Y-24242D03*
X29870Y-23242D03*
X28870Y-23242D03*
X29870Y-22242D03*
X28870Y-22242D03*
X29870Y-21242D03*
X28870Y-21242D03*
X29870Y-20242D03*
X28870Y-20242D03*
X29870Y-19242D03*
X28870Y-19242D03*
X29870Y-18242D03*
X28870Y-18242D03*
X29870Y-17242D03*
X28870Y-17242D03*
G54D24*
X26417Y-24724D03*
G54D25*
X24858Y-24724D03*
G54D26*
X10984Y-24348D03*
X10196Y-24348D03*
G54D27*
X11594Y-26858D03*
X9586Y-26858D03*
G54D26*
X40984Y-24348D03*
X40196Y-24348D03*
G54D27*
X41594Y-26858D03*
X39586Y-26858D03*
G54D28*
X31019Y-43228D03*
G54D29*
X32019Y-43228D03*
X33019Y-43228D03*
X34019Y-43228D03*
G54D22*
X17019Y-33501D03*
G54D23*
X18019Y-33501D03*
X17019Y-34501D03*
X18019Y-34501D03*
X17019Y-35501D03*
X18019Y-35501D03*
X17019Y-36501D03*
X18019Y-36501D03*
X17019Y-37501D03*
X18019Y-37501D03*
G54D30*
X29137Y-30127D03*
X28762Y-29261D03*
X29512Y-29261D03*
X26330Y-30129D03*
X25955Y-29263D03*
X26705Y-29263D03*
G54D16*
X28769Y-27977D03*
X28769Y-28577D03*
X28070Y-27977D03*
X28070Y-28577D03*
X26673Y-27977D03*
X26673Y-28577D03*
X27372Y-27977D03*
X27372Y-28577D03*
G54D13*
X5152Y-41507D03*
X5752Y-41507D03*
X5152Y-48952D03*
X5752Y-48952D03*
X59886Y-41507D03*
X59286Y-41507D03*
X59886Y-48952D03*
X59286Y-48952D03*
G54D16*
X20667Y-750D03*
X20667Y-1350D03*
G54D13*
X19050Y-41043D03*
X19650Y-41043D03*
X19050Y-41692D03*
X19650Y-41692D03*
X19050Y-42342D03*
X19650Y-42342D03*
G54D16*
X50669Y-750D03*
X50669Y-1350D03*
G54D13*
X45988Y-41043D03*
X45388Y-41043D03*
X45988Y-41692D03*
X45388Y-41692D03*
X45988Y-42342D03*
X45388Y-42342D03*
X18509Y-30452D03*
X19109Y-30452D03*
X20920Y-28927D03*
X20320Y-28927D03*
X16540Y-30462D03*
X15940Y-30462D03*
X32622Y-42007D03*
X32022Y-42007D03*
X33420Y-42007D03*
X34020Y-42007D03*
X48509Y-30462D03*
X49109Y-30462D03*
X44117Y-28929D03*
X44717Y-28929D03*
X46530Y-30462D03*
X45930Y-30462D03*
X28361Y-34389D03*
X28961Y-34389D03*
G54D16*
X29606Y-39620D03*
X29606Y-39020D03*
G54D13*
X36156Y-36102D03*
X35556Y-36102D03*
G54D16*
X31011Y-18640D03*
X31011Y-19240D03*
G54D13*
X19660Y-34507D03*
X19060Y-34507D03*
X19660Y-33503D03*
X19060Y-33503D03*
X19660Y-35501D03*
X19060Y-35501D03*
X19660Y-36505D03*
X19060Y-36505D03*
G54D31*
X29803Y-31663D03*
X29803Y-31860D03*
X29803Y-32057D03*
X29803Y-32253D03*
X29803Y-32450D03*
X29803Y-32647D03*
X29803Y-32844D03*
X29803Y-33041D03*
X29803Y-33238D03*
X29803Y-33435D03*
X29803Y-33631D03*
X29803Y-33828D03*
X29803Y-34025D03*
X29803Y-34222D03*
X29803Y-34419D03*
X29803Y-34616D03*
X29803Y-34812D03*
X29803Y-35009D03*
X29803Y-35206D03*
X29803Y-35403D03*
G54D32*
X30649Y-36250D03*
X30846Y-36250D03*
X31043Y-36250D03*
X31240Y-36250D03*
X31437Y-36250D03*
X31633Y-36250D03*
X31830Y-36250D03*
X32027Y-36250D03*
X32224Y-36250D03*
X32421Y-36250D03*
X32618Y-36250D03*
X32814Y-36250D03*
X33011Y-36250D03*
X33208Y-36250D03*
X33405Y-36250D03*
X33602Y-36250D03*
X33799Y-36250D03*
X33996Y-36250D03*
X34192Y-36250D03*
X34389Y-36250D03*
G54D31*
X35236Y-35403D03*
X35236Y-35206D03*
X35236Y-35009D03*
X35236Y-34812D03*
X35236Y-34616D03*
X35236Y-34419D03*
X35236Y-34222D03*
X35236Y-34025D03*
X35236Y-33828D03*
X35236Y-33631D03*
X35236Y-33435D03*
X35236Y-33238D03*
X35236Y-33041D03*
X35236Y-32844D03*
X35236Y-32647D03*
X35236Y-32450D03*
X35236Y-32253D03*
X35236Y-32057D03*
X35236Y-31860D03*
X35236Y-31663D03*
G54D32*
X34389Y-30816D03*
X34192Y-30816D03*
X33996Y-30816D03*
X33799Y-30816D03*
X33602Y-30816D03*
X33405Y-30816D03*
X33208Y-30816D03*
X33011Y-30816D03*
X32814Y-30816D03*
X32618Y-30816D03*
X32421Y-30816D03*
X32224Y-30816D03*
X32027Y-30816D03*
X31830Y-30816D03*
X31633Y-30816D03*
X31437Y-30816D03*
X31240Y-30816D03*
X31043Y-30816D03*
X30846Y-30816D03*
X30649Y-30816D03*
G54D30*
X30561Y-39753D03*
X30186Y-38887D03*
X30936Y-38887D03*
G54D33*
X29602Y-37740D03*
X29602Y-37240D03*
X28802Y-37740D03*
X29602Y-37490D03*
X28802Y-37240D03*
G54D34*
X26137Y-37590D03*
X26137Y-33850D03*
G54D20*
X3581Y-41507D03*
X4331Y-41507D03*
X3581Y-48952D03*
X4331Y-48952D03*
X61457Y-41507D03*
X60707Y-41507D03*
X61457Y-48952D03*
X60707Y-48952D03*
G54D16*
X23435Y-23479D03*
X23435Y-24079D03*
G54D13*
X31510Y-22047D03*
X30910Y-22047D03*
X31510Y-22746D03*
X30910Y-22746D03*
X31510Y-24340D03*
X30910Y-24340D03*
X31510Y-25039D03*
X30910Y-25039D03*
X31510Y-25738D03*
X30910Y-25738D03*
X31510Y-23444D03*
X30910Y-23444D03*
X31510Y-16968D03*
X30910Y-16968D03*
X31510Y-17667D03*
X30910Y-17667D03*
X31510Y-16269D03*
X30910Y-16269D03*
G54D35*
X35551Y-38031D03*
G54D36*
X16901Y-39889D03*
G54D19*
X18897Y-1241D03*
X18897Y-491D03*
X48897Y-1241D03*
X48897Y-491D03*
G54D37*
X3480Y-4527D03*
X3480Y-1574D03*
X1511Y-4527D03*
X1511Y-1574D03*
X63527Y-4527D03*
X63527Y-1574D03*
X61559Y-4527D03*
X61559Y-1574D03*
M02*
