%FSLAX34Y34*%
G04 Gerber Fmt 3.4, Leading zero omitted, Abs format*
G04 (created by PCBNEW (2014-03-19 BZR 4756)-product) date Mon 28 Jul 2014 16:59:26 BRT*
%MOIN*%
G01*
G70*
G90*
G04 APERTURE LIST*
%ADD10C,0.006000*%
%ADD11C,0.031496*%
%ADD12C,0.051181*%
%ADD13R,0.062992X0.062992*%
%ADD14C,0.062992*%
%ADD15C,0.133858*%
%ADD16R,0.068000X0.068000*%
%ADD17O,0.068000X0.068000*%
%ADD18R,0.098425X0.098425*%
%ADD19R,0.055118X0.055118*%
%ADD20C,0.177165*%
%ADD21R,0.068000X0.080000*%
%ADD22O,0.068000X0.080000*%
%ADD23R,0.110000X0.110000*%
%ADD24C,0.110000*%
G04 APERTURE END LIST*
G54D10*
G54D11*
X43057Y-846D03*
X43557Y-846D03*
X44057Y-846D03*
X44557Y-846D03*
X45057Y-846D03*
X45557Y-846D03*
X46057Y-846D03*
X46557Y-846D03*
X47057Y-846D03*
X47557Y-846D03*
X48057Y-846D03*
X48557Y-846D03*
X49057Y-846D03*
X49557Y-846D03*
X50057Y-846D03*
X50557Y-846D03*
X51057Y-846D03*
X51557Y-846D03*
X52057Y-846D03*
X52557Y-846D03*
X53057Y-846D03*
X53557Y-846D03*
X35718Y-846D03*
X36210Y-846D03*
X60895Y-846D03*
X60403Y-846D03*
X60895Y-20649D03*
X60403Y-20649D03*
X35718Y-20649D03*
X36210Y-20649D03*
G54D12*
X38661Y-2204D03*
X57952Y-2204D03*
G54D13*
X15275Y-21527D03*
G54D14*
X15275Y-22314D03*
X19291Y-28807D03*
X19291Y-23098D03*
X17322Y-28807D03*
X17322Y-23098D03*
X18307Y-28807D03*
G54D15*
X20905Y-25854D03*
X15708Y-25854D03*
G54D14*
X49291Y-28807D03*
X49291Y-23098D03*
X47322Y-28807D03*
X47322Y-23098D03*
X48307Y-28807D03*
G54D15*
X50905Y-25854D03*
X45708Y-25854D03*
G54D16*
X21671Y-21389D03*
G54D17*
X21671Y-22389D03*
X22671Y-21389D03*
X22671Y-22389D03*
X23671Y-21389D03*
X23671Y-22389D03*
X24671Y-21389D03*
X24671Y-22389D03*
X25671Y-21389D03*
X25671Y-22389D03*
X26671Y-21389D03*
X26671Y-22389D03*
X27671Y-21389D03*
X27671Y-22389D03*
X28671Y-21389D03*
X28671Y-22389D03*
X29671Y-21389D03*
X29671Y-22389D03*
X30671Y-21389D03*
X30671Y-22389D03*
G54D18*
X14527Y-39881D03*
G54D19*
X17688Y-39889D03*
G54D20*
X3480Y-4527D03*
X3480Y-1574D03*
X1511Y-4527D03*
X1511Y-1574D03*
X65102Y-4527D03*
X65102Y-1574D03*
X63133Y-4527D03*
X63133Y-1574D03*
G54D21*
X31807Y-43228D03*
G54D22*
X32807Y-43228D03*
X33807Y-43228D03*
X34807Y-43228D03*
G54D16*
X17807Y-33501D03*
G54D17*
X18807Y-33501D03*
X17807Y-34501D03*
X18807Y-34501D03*
X17807Y-35501D03*
X18807Y-35501D03*
X17807Y-36501D03*
X18807Y-36501D03*
X17807Y-37501D03*
X18807Y-37501D03*
G54D11*
X13057Y-846D03*
X13557Y-846D03*
X14057Y-846D03*
X14557Y-846D03*
X15057Y-846D03*
X15557Y-846D03*
X16057Y-846D03*
X16557Y-846D03*
X17057Y-846D03*
X17557Y-846D03*
X18057Y-846D03*
X18557Y-846D03*
X19057Y-846D03*
X19557Y-846D03*
X20057Y-846D03*
X20557Y-846D03*
X21057Y-846D03*
X21557Y-846D03*
X22057Y-846D03*
X22557Y-846D03*
X23057Y-846D03*
X23557Y-846D03*
X5718Y-846D03*
X6210Y-846D03*
X30895Y-846D03*
X30403Y-846D03*
X30895Y-20649D03*
X30403Y-20649D03*
X5718Y-20649D03*
X6210Y-20649D03*
G54D12*
X8661Y-2204D03*
X27952Y-2204D03*
G54D13*
X9803Y-21496D03*
G54D14*
X9803Y-20708D03*
G54D23*
X19213Y-20728D03*
G54D24*
X17653Y-20728D03*
M02*
