%FSLAX34Y34*%
G04 Gerber Fmt 3.4, Leading zero omitted, Abs format*
G04 (created by PCBNEW (2014-03-19 BZR 4756)-product) date Ter 03 Jun 2014 10:46:04 BRT*
%MOIN*%
G01*
G70*
G90*
G04 APERTURE LIST*
%ADD10C,0.005906*%
%ADD11R,0.062992X0.062992*%
%ADD12C,0.062992*%
%ADD13C,0.133858*%
%ADD14R,0.068000X0.068000*%
%ADD15O,0.068000X0.068000*%
%ADD16R,0.110000X0.110000*%
%ADD17C,0.110000*%
%ADD18R,0.068000X0.080000*%
%ADD19O,0.068000X0.080000*%
%ADD20R,0.098425X0.098425*%
%ADD21R,0.055118X0.055118*%
%ADD22C,0.177165*%
G04 APERTURE END LIST*
G54D10*
G54D11*
X21988Y-24714D03*
G54D12*
X21988Y-25501D03*
X18503Y-28807D03*
X18503Y-23098D03*
X16535Y-28807D03*
X16535Y-23098D03*
X17519Y-28807D03*
G54D13*
X20118Y-25854D03*
X14921Y-25854D03*
G54D12*
X48503Y-28807D03*
X48503Y-23098D03*
X46535Y-28807D03*
X46535Y-23098D03*
X47519Y-28807D03*
G54D13*
X50118Y-25854D03*
X44921Y-25854D03*
G54D14*
X29870Y-26242D03*
G54D15*
X28870Y-26242D03*
X29870Y-25242D03*
X28870Y-25242D03*
X29870Y-24242D03*
X28870Y-24242D03*
X29870Y-23242D03*
X28870Y-23242D03*
X29870Y-22242D03*
X28870Y-22242D03*
X29870Y-21242D03*
X28870Y-21242D03*
X29870Y-20242D03*
X28870Y-20242D03*
X29870Y-19242D03*
X28870Y-19242D03*
X29870Y-18242D03*
X28870Y-18242D03*
X29870Y-17242D03*
X28870Y-17242D03*
G54D16*
X26417Y-24724D03*
G54D17*
X24858Y-24724D03*
G54D18*
X31019Y-43228D03*
G54D19*
X32019Y-43228D03*
X33019Y-43228D03*
X34019Y-43228D03*
G54D14*
X17019Y-33501D03*
G54D15*
X18019Y-33501D03*
X17019Y-34501D03*
X18019Y-34501D03*
X17019Y-35501D03*
X18019Y-35501D03*
X17019Y-36501D03*
X18019Y-36501D03*
X17019Y-37501D03*
X18019Y-37501D03*
G54D20*
X35551Y-38031D03*
G54D21*
X16901Y-39889D03*
G54D22*
X3480Y-4527D03*
X3480Y-1574D03*
X1511Y-4527D03*
X1511Y-1574D03*
X63527Y-4527D03*
X63527Y-1574D03*
X61559Y-4527D03*
X61559Y-1574D03*
M02*
