G04 #@! TF.FileFunction,Soldermask,Top*
%FSLAX46Y46*%
G04 Gerber Fmt 4.6, Leading zero omitted, Abs format (unit mm)*
G04 Created by KiCad (PCBNEW (2014-jul-16 BZR unknown)-product) date Qui 04 Dez 2014 17:46:42 BRST*
%MOMM*%
G01*
G04 APERTURE LIST*
%ADD10C,0.152400*%
%ADD11R,0.635000X1.143000*%
%ADD12R,1.600000X1.600000*%
%ADD13C,1.600000*%
%ADD14R,1.143000X0.635000*%
%ADD15C,4.500000*%
%ADD16R,0.685800X0.609600*%
%ADD17C,3.400000*%
%ADD18R,1.397000X0.889000*%
%ADD19R,0.889000X1.397000*%
%ADD20C,0.800000*%
%ADD21C,1.300000*%
%ADD22R,1.300000X0.700000*%
%ADD23R,1.727200X1.727200*%
%ADD24O,1.727200X1.727200*%
%ADD25R,2.794000X2.794000*%
%ADD26C,2.794000*%
%ADD27R,1.727200X2.032000*%
%ADD28O,1.727200X2.032000*%
%ADD29R,0.800100X1.000760*%
%ADD30R,1.600000X2.200000*%
%ADD31R,2.500000X2.500000*%
%ADD32R,1.400000X1.400000*%
%ADD33R,1.500000X0.280000*%
%ADD34R,0.280000X1.500000*%
%ADD35R,0.508000X0.304800*%
%ADD36R,6.197600X5.791200*%
%ADD37R,2.997200X1.600200*%
%ADD38R,2.108200X5.588000*%
G04 APERTURE END LIST*
D10*
D11*
X157488000Y-112190000D03*
X159012000Y-112190000D03*
X14263000Y-115075000D03*
X15787000Y-115075000D03*
D12*
X38800000Y-54680000D03*
D13*
X38800000Y-56680000D03*
D12*
X24900000Y-54600000D03*
D13*
X24900000Y-52600000D03*
D14*
X21225000Y-54587000D03*
X21225000Y-53063000D03*
D11*
X48637000Y-875000D03*
X47113000Y-875000D03*
X49663000Y-875000D03*
X51187000Y-875000D03*
X52213000Y-875000D03*
X53737000Y-875000D03*
X56287000Y-875000D03*
X54763000Y-875000D03*
X57313000Y-875000D03*
X58837000Y-875000D03*
X124837000Y-875000D03*
X123313000Y-875000D03*
X125863000Y-875000D03*
X127387000Y-875000D03*
X128413000Y-875000D03*
X129937000Y-875000D03*
D14*
X42350000Y-105888000D03*
X42350000Y-107412000D03*
D11*
X132487000Y-875000D03*
X130963000Y-875000D03*
X133513000Y-875000D03*
X135037000Y-875000D03*
D14*
X126850000Y-105888000D03*
X126850000Y-107412000D03*
X46500000Y-79413000D03*
X46500000Y-80937000D03*
D11*
X49013000Y-75550000D03*
X50537000Y-75550000D03*
X44012000Y-75550000D03*
X42488000Y-75550000D03*
D14*
X122700000Y-79413000D03*
X122700000Y-80937000D03*
D11*
X125213000Y-75600000D03*
X126737000Y-75600000D03*
X120187000Y-75550000D03*
X118663000Y-75550000D03*
D14*
X64325000Y-85988000D03*
X64325000Y-87512000D03*
X64325000Y-95462000D03*
X64325000Y-93938000D03*
D11*
X74002000Y-97500000D03*
X72478000Y-97500000D03*
X78062000Y-92325000D03*
X76538000Y-92325000D03*
X93838000Y-89425000D03*
X95362000Y-89425000D03*
D14*
X94075000Y-82937000D03*
X94075000Y-81413000D03*
X81350000Y-75937000D03*
X81350000Y-74413000D03*
X83220000Y-75937000D03*
X83220000Y-74413000D03*
D11*
X75387000Y-83550000D03*
X73863000Y-83550000D03*
D14*
X86775000Y-75962000D03*
X86775000Y-74438000D03*
X86350000Y-94613000D03*
X86350000Y-96137000D03*
D11*
X36337000Y-59550000D03*
X34813000Y-59550000D03*
D15*
X165360000Y-11500000D03*
X165360000Y-4000000D03*
X160360000Y-11500000D03*
X160360000Y-4000000D03*
X8840000Y-11500000D03*
X8840000Y-4000000D03*
X3840000Y-11500000D03*
X3840000Y-4000000D03*
D16*
X74625000Y-72957600D03*
X74625000Y-70722400D03*
X67925000Y-72942600D03*
X67925000Y-70707400D03*
D13*
X49000000Y-73170000D03*
X49000000Y-58670000D03*
X44000000Y-73170000D03*
X44000000Y-58670000D03*
X46500000Y-73170000D03*
D17*
X53100000Y-65670000D03*
X39900000Y-65670000D03*
D13*
X125200000Y-73170000D03*
X125200000Y-58670000D03*
X120200000Y-73170000D03*
X120200000Y-58670000D03*
X122700000Y-73170000D03*
D17*
X129300000Y-65670000D03*
X116100000Y-65670000D03*
D18*
X46500000Y-77452500D03*
X46500000Y-75547500D03*
X122700000Y-77452500D03*
X122700000Y-75547500D03*
D19*
X73472500Y-85450000D03*
X75377500Y-85450000D03*
D20*
X33165000Y-2150000D03*
X34435000Y-2150000D03*
X35705000Y-2150000D03*
X36975000Y-2150000D03*
X38245000Y-2150000D03*
X39515000Y-2150000D03*
X40785000Y-2150000D03*
X42055000Y-2150000D03*
X43325000Y-2150000D03*
X44595000Y-2150000D03*
X45865000Y-2150000D03*
X47135000Y-2150000D03*
X48405000Y-2150000D03*
X49675000Y-2150000D03*
X50945000Y-2150000D03*
X52215000Y-2150000D03*
X53485000Y-2150000D03*
X54755000Y-2150000D03*
X56025000Y-2150000D03*
X57295000Y-2150000D03*
X58565000Y-2150000D03*
X59835000Y-2150000D03*
X14525000Y-2150000D03*
X15775000Y-2150000D03*
X78475000Y-2150000D03*
X77225000Y-2150000D03*
X78475000Y-52450000D03*
X77225000Y-52450000D03*
X14525000Y-52450000D03*
X15775000Y-52450000D03*
D21*
X22000000Y-5600000D03*
X71000000Y-5600000D03*
D20*
X109365000Y-2150000D03*
X110635000Y-2150000D03*
X111905000Y-2150000D03*
X113175000Y-2150000D03*
X114445000Y-2150000D03*
X115715000Y-2150000D03*
X116985000Y-2150000D03*
X118255000Y-2150000D03*
X119525000Y-2150000D03*
X120795000Y-2150000D03*
X122065000Y-2150000D03*
X123335000Y-2150000D03*
X124605000Y-2150000D03*
X125875000Y-2150000D03*
X127145000Y-2150000D03*
X128415000Y-2150000D03*
X129685000Y-2150000D03*
X130955000Y-2150000D03*
X132225000Y-2150000D03*
X133495000Y-2150000D03*
X134765000Y-2150000D03*
X136035000Y-2150000D03*
X90725000Y-2150000D03*
X91975000Y-2150000D03*
X154675000Y-2150000D03*
X153425000Y-2150000D03*
X154675000Y-52450000D03*
X153425000Y-52450000D03*
X90725000Y-52450000D03*
X91975000Y-52450000D03*
D21*
X98200000Y-5600000D03*
X147200000Y-5600000D03*
D22*
X48050000Y-106990000D03*
X48050000Y-105890000D03*
X48050000Y-104790000D03*
X44950000Y-104790000D03*
X44950000Y-105890000D03*
X44950000Y-106990000D03*
X121150000Y-104790000D03*
X121150000Y-105890000D03*
X121150000Y-106990000D03*
X124250000Y-106990000D03*
X124250000Y-105890000D03*
X124250000Y-104790000D03*
D19*
X13002500Y-105430000D03*
X11097500Y-105430000D03*
X13002500Y-124340000D03*
X11097500Y-124340000D03*
X156197500Y-105430000D03*
X158102500Y-105430000D03*
X156197500Y-124340000D03*
X158102500Y-124340000D03*
D23*
X55045000Y-54330000D03*
D24*
X55045000Y-56870000D03*
X57585000Y-54330000D03*
X57585000Y-56870000D03*
X60125000Y-54330000D03*
X60125000Y-56870000D03*
X62665000Y-54330000D03*
X62665000Y-56870000D03*
X65205000Y-54330000D03*
X65205000Y-56870000D03*
X67745000Y-54330000D03*
X67745000Y-56870000D03*
X70285000Y-54330000D03*
X70285000Y-56870000D03*
X72825000Y-54330000D03*
X72825000Y-56870000D03*
X75365000Y-54330000D03*
X75365000Y-56870000D03*
X77905000Y-54330000D03*
X77905000Y-56870000D03*
D25*
X48801200Y-52650000D03*
D26*
X44838800Y-52650000D03*
D27*
X80790000Y-109800000D03*
D28*
X83330000Y-109800000D03*
X85870000Y-109800000D03*
X88410000Y-109800000D03*
D23*
X45230000Y-85095000D03*
D24*
X47770000Y-85095000D03*
X45230000Y-87635000D03*
X47770000Y-87635000D03*
X45230000Y-90175000D03*
X47770000Y-90175000D03*
X45230000Y-92715000D03*
X47770000Y-92715000D03*
X45230000Y-95255000D03*
X47770000Y-95255000D03*
D29*
X73585000Y-76524820D03*
X72632500Y-74325180D03*
X74537500Y-74325180D03*
X68880000Y-76529820D03*
X67927500Y-74330180D03*
X69832500Y-74330180D03*
D14*
X72650000Y-71063000D03*
X72650000Y-72587000D03*
X61665000Y-59338000D03*
X61665000Y-60862000D03*
X69750000Y-71063000D03*
X69750000Y-72587000D03*
X60115000Y-59338000D03*
X60115000Y-60862000D03*
X11100000Y-103772000D03*
X11100000Y-102248000D03*
X11090000Y-122692000D03*
X11090000Y-121168000D03*
X158100000Y-103792000D03*
X158100000Y-102268000D03*
X158100000Y-122692000D03*
X158100000Y-121168000D03*
X67865000Y-60862000D03*
X67865000Y-59338000D03*
X66315000Y-60862000D03*
X66315000Y-59338000D03*
X64765000Y-60862000D03*
X64765000Y-59338000D03*
X63215000Y-60862000D03*
X63215000Y-59338000D03*
D11*
X31638000Y-875000D03*
X33162000Y-875000D03*
X50388000Y-107550000D03*
X51912000Y-107550000D03*
X50388000Y-105900000D03*
X51912000Y-105900000D03*
X50388000Y-104250000D03*
X51912000Y-104250000D03*
X107838000Y-875000D03*
X109362000Y-875000D03*
X118812000Y-104250000D03*
X117288000Y-104250000D03*
X118812000Y-105900000D03*
X117288000Y-105900000D03*
X118812000Y-107550000D03*
X117288000Y-107550000D03*
X49013000Y-77350000D03*
X50537000Y-77350000D03*
X55137000Y-73475000D03*
X53613000Y-73475000D03*
X44012000Y-77375000D03*
X42488000Y-77375000D03*
X81808000Y-106700000D03*
X83332000Y-106700000D03*
X89932000Y-106700000D03*
X88408000Y-106700000D03*
X125213000Y-77375000D03*
X126737000Y-77375000D03*
X114058000Y-73480000D03*
X115582000Y-73480000D03*
X120187000Y-77375000D03*
X118663000Y-77375000D03*
X74038000Y-87350000D03*
X75562000Y-87350000D03*
D14*
X77200000Y-100637000D03*
X77200000Y-99113000D03*
D11*
X93837000Y-91700000D03*
X92313000Y-91700000D03*
X82688000Y-72200000D03*
X84212000Y-72200000D03*
X51937000Y-87650000D03*
X50413000Y-87650000D03*
X51937000Y-85100000D03*
X50413000Y-85100000D03*
X51937000Y-90175000D03*
X50413000Y-90175000D03*
X51937000Y-92725000D03*
X50413000Y-92725000D03*
X61387000Y-875000D03*
X59863000Y-875000D03*
X137587000Y-875000D03*
X136063000Y-875000D03*
D30*
X60250000Y-98200000D03*
X60250000Y-89100000D03*
D31*
X36900000Y-101300000D03*
D32*
X44930000Y-101320000D03*
D33*
X77700000Y-80425000D03*
X77700000Y-80925000D03*
X77700000Y-81425000D03*
X77700000Y-81925000D03*
X77700000Y-82425000D03*
X77700000Y-82925000D03*
X77700000Y-83425000D03*
X77700000Y-83925000D03*
X77700000Y-84425000D03*
X77700000Y-84925000D03*
X77700000Y-85425000D03*
X77700000Y-85925000D03*
X77700000Y-86425000D03*
X77700000Y-86925000D03*
X77700000Y-87425000D03*
X77700000Y-87925000D03*
X77700000Y-88425000D03*
X77700000Y-88925000D03*
X77700000Y-89425000D03*
X77700000Y-89925000D03*
D34*
X79850000Y-92075000D03*
X80350000Y-92075000D03*
X80850000Y-92075000D03*
X81350000Y-92075000D03*
X81850000Y-92075000D03*
X82350000Y-92075000D03*
X82850000Y-92075000D03*
X83350000Y-92075000D03*
X83850000Y-92075000D03*
X84350000Y-92075000D03*
X84850000Y-92075000D03*
X85350000Y-92075000D03*
X85850000Y-92075000D03*
X86350000Y-92075000D03*
X86850000Y-92075000D03*
X87350000Y-92075000D03*
X87850000Y-92075000D03*
X88350000Y-92075000D03*
X88850000Y-92075000D03*
X89350000Y-92075000D03*
D33*
X91500000Y-89925000D03*
X91500000Y-89425000D03*
X91500000Y-88925000D03*
X91500000Y-88425000D03*
X91500000Y-87925000D03*
X91500000Y-87425000D03*
X91500000Y-86925000D03*
X91500000Y-86425000D03*
X91500000Y-85925000D03*
X91500000Y-85425000D03*
X91500000Y-84925000D03*
X91500000Y-84425000D03*
X91500000Y-83925000D03*
X91500000Y-83425000D03*
X91500000Y-82925000D03*
X91500000Y-82425000D03*
X91500000Y-81925000D03*
X91500000Y-81425000D03*
X91500000Y-80925000D03*
X91500000Y-80425000D03*
D34*
X89350000Y-78275000D03*
X88850000Y-78275000D03*
X88350000Y-78275000D03*
X87850000Y-78275000D03*
X87350000Y-78275000D03*
X86850000Y-78275000D03*
X86350000Y-78275000D03*
X85850000Y-78275000D03*
X85350000Y-78275000D03*
X84850000Y-78275000D03*
X84350000Y-78275000D03*
X83850000Y-78275000D03*
X83350000Y-78275000D03*
X82850000Y-78275000D03*
X82350000Y-78275000D03*
X81850000Y-78275000D03*
X81350000Y-78275000D03*
X80850000Y-78275000D03*
X80350000Y-78275000D03*
X79850000Y-78275000D03*
D29*
X79625000Y-100974820D03*
X78672500Y-98775180D03*
X80577500Y-98775180D03*
D35*
X77191000Y-95860000D03*
X77191000Y-94590000D03*
X75159000Y-95860000D03*
X77191000Y-95225000D03*
X75159000Y-94590000D03*
D36*
X24906000Y-61800000D03*
D37*
X32094200Y-64086000D03*
X32094200Y-59514000D03*
D38*
X68390000Y-95479800D03*
X68390000Y-85980200D03*
M02*
