  0
SECTION
  2
HEADER
  9
$ACADVER
  1
AC1015
  9
$ACADMAINTVER
 70
     6
  9
$DWGCODEPAGE
  3
ANSI_1252
  9
$INSBASE
 10
0.0
 20
0.0
 30
0.0
  9
$EXTMIN
 10
0.0
 20
0.0
 30
0.0
  9
$EXTMAX
 10
420.0
 20
297.0
 30
0.0
  9
$LIMMIN
 10
0.0
 20
0.0
  9
$LIMMAX
 10
420.0
 20
297.0
  9
$ORTHOMODE
 70
     0
  9
$REGENMODE
 70
     1
  9
$FILLMODE
 70
     1
  9
$QTEXTMODE
 70
     0
  9
$MIRRTEXT
 70
     1
  9
$LTSCALE
 40
1.0
  9
$ATTMODE
 70
     1
  9
$TEXTSIZE
 40
3.5
  9
$TRACEWID
 40
1.0
  9
$TEXTSTYLE
  7
Standard
  9
$CLAYER
  8
0
  9
$CELTYPE
  6
ByLayer
  9
$CECOLOR
 62
   256
  9
$CELTSCALE
 40
1.0
  9
$DISPSILH
 70
     0
  9
$DIMSCALE
 40
1.0
  9
$DIMASZ
 40
3.0
  9
$DIMEXO
 40
1.0
  9
$DIMDLI
 40
3.75
  9
$DIMRND
 40
0.0
  9
$DIMDLE
 40
0.0
  9
$DIMEXE
 40
2.0
  9
$DIMTP
 40
0.0
  9
$DIMTM
 40
0.0
  9
$DIMTXT
 40
2.5
  9
$DIMCEN
 40
2.5
  9
$DIMTSZ
 40
0.0
  9
$DIMTOL
 70
     0
  9
$DIMLIM
 70
     0
  9
$DIMTIH
 70
     1
  9
$DIMTOH
 70
     1
  9
$DIMSE1
 70
     0
  9
$DIMSE2
 70
     0
  9
$DIMTAD
 70
     1
  9
$DIMZIN
 70
     0
  9
$DIMBLK
  1

  9
$DIMASO
 70
     1
  9
$DIMSHO
 70
     1
  9
$DIMPOST
  1

  9
$DIMAPOST
  1

  9
$DIMALT
 70
     0
  9
$DIMALTD
 70
     3
  9
$DIMALTF
 40
0.0393700787
  9
$DIMLFAC
 40
1.0
  9
$DIMTOFL
 70
     1
  9
$DIMTVP
 40
0.0
  9
$DIMTIX
 70
     0
  9
$DIMSOXD
 70
     0
  9
$DIMSAH
 70
     0
  9
$DIMBLK1
  1

  9
$DIMBLK2
  1

  9
$DIMSTYLE
  2
ISO-25
  9
$DIMCLRD
 70
     0
  9
$DIMCLRE
 70
     0
  9
$DIMCLRT
 70
     0
  9
$DIMTFAC
 40
1.0
  9
$DIMGAP
 40
2.0
  9
$DIMJUST
 70
     0
  9
$DIMSD1
 70
     0
  9
$DIMSD2
 70
     0
  9
$DIMTOLJ
 70
     0
  9
$DIMTZIN
 70
     0
  9
$DIMALTZ
 70
     0
  9
$DIMALTTZ
 70
     0
  9
$DIMUPT
 70
     0
  9
$DIMDEC
 70
     1
  9
$DIMTDEC
 70
     1
  9
$DIMALTU
 70
     2
  9
$DIMALTTD
 70
     3
  9
$DIMTXSTY
  7
Standard
  9
$DIMAUNIT
 70
     0
  9
$DIMADEC
 70
     1
  9
$DIMALTRND
 40
0.0
  9
$DIMAZIN
 70
     0
  9
$DIMDSEP
 70
    44
  9
$DIMATFIT
 70
     3
  9
$DIMFRAC
 70
     0
  9
$DIMLDRBLK
  1

  9
$DIMLUNIT
 70
     2
  9
$DIMLWD
 70
    -2
  9
$DIMLWE
 70
    -2
  9
$DIMTMOVE
 70
     0
  9
$LUNITS
 70
     2
  9
$LUPREC
 70
     1
  9
$SKETCHINC
 40
1.0
  9
$FILLETRAD
 40
10.0
  9
$AUNITS
 70
     0
  9
$AUPREC
 70
     1
  9
$MENU
  1
.
  9
$ELEVATION
 40
0.0
  9
$PELEVATION
 40
0.0
  9
$THICKNESS
 40
0.0
  9
$LIMCHECK
 70
     0
  9
$CHAMFERA
 40
0.0
  9
$CHAMFERB
 40
0.0
  9
$CHAMFERC
 40
0.0
  9
$CHAMFERD
 40
0.0
  9
$SKPOLY
 70
     0
  9
$TDCREATE
 40
2459522.701817547
  9
$TDUCREATE
 40
2459522.66015088
  9
$TDUPDATE
 40
2459522.70181978
  9
$TDUUPDATE
 40
2459522.660153113
  9
$TDINDWG
 40
0.0000000116
  9
$TDUSRTIMER
 40
0.0000000116
  9
$USRTIMER
 70
     1
  9
$ANGBASE
 50
0.0
  9
$ANGDIR
 70
     0
  9
$PDMODE
 70
     0
  9
$PDSIZE
 40
-1.0
  9
$PLINEWID
 40
0.0
  9
$SPLFRAME
 70
     0
  9
$SPLINETYPE
 70
     6
  9
$SPLINESEGS
 70
     8
  9
$HANDSEED
  5
315
  9
$SURFTAB1
 70
     6
  9
$SURFTAB2
 70
     6
  9
$SURFTYPE
 70
     6
  9
$SURFU
 70
     6
  9
$SURFV
 70
     6
  9
$UCSBASE
  2

  9
$UCSNAME
  2

  9
$UCSORG
 10
0.0
 20
0.0
 30
0.0
  9
$UCSXDIR
 10
1.0
 20
0.0
 30
0.0
  9
$UCSYDIR
 10
0.0
 20
1.0
 30
0.0
  9
$UCSORTHOREF
  2

  9
$UCSORTHOVIEW
 70
     0
  9
$UCSORGTOP
 10
0.0
 20
0.0
 30
0.0
  9
$UCSORGBOTTOM
 10
0.0
 20
0.0
 30
0.0
  9
$UCSORGLEFT
 10
0.0
 20
0.0
 30
0.0
  9
$UCSORGRIGHT
 10
0.0
 20
0.0
 30
0.0
  9
$UCSORGFRONT
 10
0.0
 20
0.0
 30
0.0
  9
$UCSORGBACK
 10
0.0
 20
0.0
 30
0.0
  9
$PUCSBASE
  2

  9
$PUCSNAME
  2

  9
$PUCSORG
 10
0.0
 20
0.0
 30
0.0
  9
$PUCSXDIR
 10
1.0
 20
0.0
 30
0.0
  9
$PUCSYDIR
 10
0.0
 20
1.0
 30
0.0
  9
$PUCSORTHOREF
  2

  9
$PUCSORTHOVIEW
 70
     0
  9
$PUCSORGTOP
 10
0.0
 20
0.0
 30
0.0
  9
$PUCSORGBOTTOM
 10
0.0
 20
0.0
 30
0.0
  9
$PUCSORGLEFT
 10
0.0
 20
0.0
 30
0.0
  9
$PUCSORGRIGHT
 10
0.0
 20
0.0
 30
0.0
  9
$PUCSORGFRONT
 10
0.0
 20
0.0
 30
0.0
  9
$PUCSORGBACK
 10
0.0
 20
0.0
 30
0.0
  9
$USERI1
 70
     0
  9
$USERI2
 70
     0
  9
$USERI3
 70
     0
  9
$USERI4
 70
     0
  9
$USERI5
 70
     0
  9
$USERR1
 40
0.0
  9
$USERR2
 40
0.0
  9
$USERR3
 40
0.0
  9
$USERR4
 40
0.0
  9
$USERR5
 40
0.0
  9
$WORLDVIEW
 70
     1
  9
$SHADEDGE
 70
     3
  9
$SHADEDIF
 70
    70
  9
$TILEMODE
 70
     1
  9
$MAXACTVP
 70
    64
  9
$PINSBASE
 10
0.0
 20
0.0
 30
0.0
  9
$PLIMCHECK
 70
     0
  9
$PEXTMIN
 10
1.0000000000E+20
 20
1.0000000000E+20
 30
1.0000000000E+20
  9
$PEXTMAX
 10
-1.0000000000E+20
 20
-1.0000000000E+20
 30
-1.0000000000E+20
  9
$PLIMMIN
 10
0.0
 20
0.0
  9
$PLIMMAX
 10
420.0
 20
297.0
  9
$UNITMODE
 70
     0
  9
$VISRETAIN
 70
     1
  9
$PLINEGEN
 70
     0
  9
$PSLTSCALE
 70
     1
  9
$TREEDEPTH
 70
  3020
  9
$CMLSTYLE
  2
Standard
  9
$CMLJUST
 70
     0
  9
$CMLSCALE
 40
20.0
  9
$PROXYGRAPHICS
 70
     1
  9
$MEASUREMENT
 70
     1
  9
$CELWEIGHT
370
    -1
  9
$ENDCAPS
280
     0
  9
$JOINSTYLE
280
     0
  9
$LWDISPLAY
290
     1
  9
$INSUNITS
 70
     4
  9
$HYPERLINKBASE
  1

  9
$STYLESHEET
  1

  9
$XEDIT
290
     1
  9
$CEPSNTYPE
380
     0
  9
$PSTYLEMODE
290
     1
  9
$FINGERPRINTGUID
  2
{9f3f4bb4-909d-4ca6-9c79-d6ff6b5fb58f}
  9
$VERSIONGUID
  2
{FAEB1C32-E019-11D5-929B-00C0DF256EC4}
  9
$EXTNAMES
290
     1
  9
$PSVPSCALE
 40
0.0
  9
$OLESTARTUP
290
     0
  0
ENDSEC
  0
SECTION
  2
CLASSES
  0
CLASS
  1
ACDBDICTIONARYWDFLT
  2
AcDbDictionaryWithDefault
  3
ObjectDBX Classes
 90
        0
280
     0
281
     0
  0
CLASS
  1
VISUALSTYLE
  2
AcDbVisualStyle
  3
ObjectDBX Classes
 90
     4095
280
     0
281
     0
  0
CLASS
  1
MATERIAL
  2
AcDbMaterial
  3
ObjectDBX Classes
 90
     1153
280
     0
281
     0
  0
CLASS
  1
SCALE
  2
AcDbScale
  3
ObjectDBX Classes
 90
     1153
280
     0
281
     0
  0
CLASS
  1
TABLESTYLE
  2
AcDbTableStyle
  3
ObjectDBX Classes
 90
     4095
280
     0
281
     0
  0
CLASS
  1
MLEADERSTYLE
  2
AcDbMLeaderStyle
  3
ACDB_MLEADERSTYLE_CLASS
 90
     4095
280
     0
281
     0
  0
CLASS
  1
SUN
  2
AcDbSun
  3
SCENEOE
 90
     1153
280
     0
281
     0
  0
CLASS
  1
ACDBPLACEHOLDER
  2
AcDbPlaceHolder
  3
ObjectDBX Classes
 90
        0
280
     0
281
     0
  0
CLASS
  1
LAYOUT
  2
AcDbLayout
  3
ObjectDBX Classes
 90
        0
280
     0
281
     0
  0
ENDSEC
  0
SECTION
  2
TABLES
  0
TABLE
  2
VPORT
  5
8
330
0
100
AcDbSymbolTable
 70
     1
  0
VPORT
  5
29
330
8
100
AcDbSymbolTableRecord
100
AcDbViewportTableRecord
  2
*Active
 70
     0
 10
0.0
 20
0.0
 11
1.0
 21
1.0
 12
210.0
 22
148.5
 13
0.0
 23
0.0
 14
10.0
 24
10.0
 15
10.0
 25
10.0
 16
0.0
 26
0.0
 36
1.0
 17
0.0
 27
0.0
 37
0.0
 40
297.0
 41
1.4141414141
 42
50.0
 43
0.0
 44
0.0
 50
0.0
 51
0.0
 71
     0
 72
  2000
 73
     1
 74
     3
 75
     0
 76
     0
 77
     0
 78
     0
281
     0
 65
     1
110
0.0
120
0.0
130
0.0
111
1.0
121
0.0
131
0.0
112
0.0
122
1.0
132
0.0
 79
     0
146
0.0
  0
ENDTAB
  0
TABLE
  2
LTYPE
  5
5
330
0
100
AcDbSymbolTable
 70
     6
  0
LTYPE
  5
14
330
5
100
AcDbSymbolTableRecord
100
AcDbLinetypeTableRecord
  2
ByBlock
 70
     0
  3

 72
    65
 73
     0
 40
0.0
  0
LTYPE
  5
15
330
5
100
AcDbSymbolTableRecord
100
AcDbLinetypeTableRecord
  2
ByLayer
 70
     0
  3

 72
    65
 73
     0
 40
0.0
  0
LTYPE
  5
16
330
5
100
AcDbSymbolTableRecord
100
AcDbLinetypeTableRecord
  2
Continuous
 70
     0
  3
Solid line
 72
    65
 73
     0
 40
0.0
  0
LTYPE
  5
6E
330
5
100
AcDbSymbolTableRecord
100
AcDbLinetypeTableRecord
  2
HIDDEN
 70
     0
  3
Hidden __ __ __ __ __ __ __ __ __ __ __ __ __ __
 72
    65
 73
     2
 40
1.905
 49
1.27
 74
     0
 49
-0.635
 74
     0
  0
LTYPE
  5
6F
330
5
100
AcDbSymbolTableRecord
100
AcDbLinetypeTableRecord
  2
PHANTOM
 70
     0
  3
Phantom ______  __  __  ______  __  __  ______
 72
    65
 73
     6
 40
12.7
 49
6.35
 74
     0
 49
-1.27
 74
     0
 49
1.27
 74
     0
 49
-1.27
 74
     0
 49
1.27
 74
     0
 49
-1.27
 74
     0
  0
LTYPE
  5
70
330
5
100
AcDbSymbolTableRecord
100
AcDbLinetypeTableRecord
  2
CENTER
 70
     0
  3
Center ____ _ ____ _ ____ _ ____ _ ____ _ ____
 72
    65
 73
     4
 40
10.16
 49
6.35
 74
     0
 49
-1.27
 74
     0
 49
1.27
 74
     0
 49
-1.27
 74
     0
  0
LTYPE
  5
71
330
5
100
AcDbSymbolTableRecord
100
AcDbLinetypeTableRecord
  2
CENTERX2
 70
     0
  3
Center (2x) ________  __  ________  __  _____
 72
    65
 73
     4
 40
20.32
 49
12.7
 74
     0
 49
-2.54
 74
     0
 49
2.54
 74
     0
 49
-2.54
 74
     0
  0
LTYPE
  5
72
330
5
100
AcDbSymbolTableRecord
100
AcDbLinetypeTableRecord
  2
DOT2
 70
     0
  3
Dot (.5x) ........................................
 72
    65
 73
     2
 40
0.635
 49
0.0
 74
     0
 49
-0.635
 74
     0
  0
ENDTAB
  0
TABLE
  2
LAYER
  5
2
330
0
100
AcDbSymbolTable
 70
    11
  0
LAYER
  5
10
330
2
100
AcDbSymbolTableRecord
100
AcDbLayerTableRecord
  2
0
 70
     0
 62
     7
  6
Continuous
370
    -3
390
F
  0
LAYER
  5
73
330
2
100
AcDbSymbolTableRecord
100
AcDbLayerTableRecord
  2
DIM&TEXT
 70
     0
 62
     7
  6
Continuous
370
    -3
390
F
  0
LAYER
  5
74
330
2
100
AcDbSymbolTableRecord
100
AcDbLayerTableRecord
  2
TABLES
 70
     0
 62
     7
  6
Continuous
370
    -3
390
F
  0
LAYER
  5
75
330
2
100
AcDbSymbolTableRecord
100
AcDbLayerTableRecord
  2
FORMAT
 70
     0
 62
     7
  6
Continuous
370
    -3
390
F
  0
LAYER
  5
76
330
2
100
AcDbSymbolTableRecord
100
AcDbLayerTableRecord
  2
ENCLOSURE
 70
     0
 62
     6
  6
Continuous
370
    -3
390
F
  0
LAYER
  5
77
330
2
100
AcDbSymbolTableRecord
100
AcDbLayerTableRecord
  2
JACKS
 70
     0
 62
     1
  6
Continuous
370
    -3
390
F
  0
LAYER
  5
78
330
2
100
AcDbSymbolTableRecord
100
AcDbLayerTableRecord
  2
SODIMM
 70
     0
 62
    30
  6
Continuous
370
    -3
390
F
  0
LAYER
  5
79
330
2
100
AcDbSymbolTableRecord
100
AcDbLayerTableRecord
  2
SOM
 70
     0
 62
     2
  6
Continuous
370
    -3
390
F
  0
LAYER
  5
7A
330
2
100
AcDbSymbolTableRecord
100
AcDbLayerTableRecord
  2
HEATSINK
 70
     0
 62
   190
  6
Continuous
370
    -3
390
F
  0
LAYER
  5
7B
330
2
100
AcDbSymbolTableRecord
100
AcDbLayerTableRecord
  2
HMI_CONNECTOR
 70
     0
 62
   102
  6
Continuous
370
    -3
390
F
  0
LAYER
  5
7C
330
2
100
AcDbSymbolTableRecord
100
AcDbLayerTableRecord
  2
HMI_CONNECTOR_TOP
 70
     0
 62
     5
  6
Continuous
370
    -3
390
F
  0
ENDTAB
  0
TABLE
  2
STYLE
  5
3
330
0
100
AcDbSymbolTable
 70
     2
  0
STYLE
  5
11
330
3
100
AcDbSymbolTableRecord
100
AcDbTextStyleTableRecord
  2
Standard
 70
     0
 40
0.0
 41
1.0
 50
0.0
 71
     0
 42
3.5
  3
txt
  4

  0
STYLE
  5
248
330
3
100
AcDbSymbolTableRecord
100
AcDbTextStyleTableRecord
  2
SLDTEXTSTYLE0
 70
     0
 40
0.0
 41
0.75
 50
0.0
 71
     0
 42
3.5
  3
TXT
  4

  0
ENDTAB
  0
TABLE
  2
VIEW
  5
6
330
0
100
AcDbSymbolTable
 70
     0
  0
ENDTAB
  0
TABLE
  2
UCS
  5
7
330
0
100
AcDbSymbolTable
 70
     0
  0
ENDTAB
  0
TABLE
  2
APPID
  5
9
330
0
100
AcDbSymbolTable
 70
     1
  0
APPID
  5
12
330
9
100
AcDbSymbolTableRecord
100
AcDbRegAppTableRecord
  2
ACAD
 70
     0
  0
ENDTAB
  0
TABLE
  2
DIMSTYLE
  5
A
330
0
100
AcDbSymbolTable
 70
     2
100
AcDbDimStyleTable
  0
DIMSTYLE
105
27
330
A
100
AcDbSymbolTableRecord
100
AcDbDimStyleTableRecord
  2
ISO-25
 70
     0
 41
2.5
 42
0.625
 43
3.75
 44
1.25
 73
     0
 74
     0
 77
     1
 78
     8
140
2.5
141
2.5
143
0.0393700787
147
0.625
171
     3
172
     1
178
     0
271
     2
272
     2
274
     3
278
    44
283
     0
284
     8
340
11
  0
DIMSTYLE
105
255
330
A
100
AcDbSymbolTableRecord
100
AcDbDimStyleTableRecord
  2
SLDDIMSTYLE0
 70
     0
 41
3.0
 44
0.0
 45
0.000000001
146
3.0
147
0.0
173
     1
178
     0
271
     0
272
     0
276
     2
340
11
  0
ENDTAB
  0
TABLE
  2
BLOCK_RECORD
  5
1
330
0
100
AcDbSymbolTable
 70
    20
  0
BLOCK_RECORD
  5
1F
330
1
100
AcDbSymbolTableRecord
100
AcDbBlockTableRecord
  2
*Model_Space
340
22
  0
BLOCK_RECORD
  5
1B
330
1
100
AcDbSymbolTableRecord
100
AcDbBlockTableRecord
  2
*Paper_Space
340
1E
  0
BLOCK_RECORD
  5
23
330
1
100
AcDbSymbolTableRecord
100
AcDbBlockTableRecord
  2
*Paper_Space0
340
26
  0
BLOCK_RECORD
  5
24F
330
1
100
AcDbSymbolTableRecord
100
AcDbBlockTableRecord
  2
SW_NOTE_0
340
0
102
{BLKREFS
331
254
102
}
  0
BLOCK_RECORD
  5
257
330
1
100
AcDbSymbolTableRecord
100
AcDbBlockTableRecord
  2
SW_NOTE_0_1
340
0
102
{BLKREFS
331
25C
102
}
  0
BLOCK_RECORD
  5
25E
330
1
100
AcDbSymbolTableRecord
100
AcDbBlockTableRecord
  2
SW_NOTE_0_2
340
0
102
{BLKREFS
331
263
102
}
  0
BLOCK_RECORD
  5
265
330
1
100
AcDbSymbolTableRecord
100
AcDbBlockTableRecord
  2
SW_NOTE_0_3
340
0
102
{BLKREFS
331
26A
102
}
  0
BLOCK_RECORD
  5
26C
330
1
100
AcDbSymbolTableRecord
100
AcDbBlockTableRecord
  2
SW_NOTE_0_4
340
0
102
{BLKREFS
331
271
102
}
  0
BLOCK_RECORD
  5
273
330
1
100
AcDbSymbolTableRecord
100
AcDbBlockTableRecord
  2
SW_NOTE_0_5
340
0
102
{BLKREFS
331
278
102
}
  0
BLOCK_RECORD
  5
27B
330
1
100
AcDbSymbolTableRecord
100
AcDbBlockTableRecord
  2
SW_NOTE_0_6
340
0
102
{BLKREFS
331
281
102
}
  0
BLOCK_RECORD
  5
284
330
1
100
AcDbSymbolTableRecord
100
AcDbBlockTableRecord
  2
SW_CENTERMARKSYMBOL_0
340
0
102
{BLKREFS
331
28F
102
}
  0
BLOCK_RECORD
  5
290
330
1
100
AcDbSymbolTableRecord
100
AcDbBlockTableRecord
  2
SW_CENTERMARKSYMBOL_1
340
0
102
{BLKREFS
331
29B
102
}
  0
BLOCK_RECORD
  5
29C
330
1
100
AcDbSymbolTableRecord
100
AcDbBlockTableRecord
  2
SW_CENTERMARKSYMBOL_2
340
0
102
{BLKREFS
331
2A7
102
}
  0
BLOCK_RECORD
  5
2A8
330
1
100
AcDbSymbolTableRecord
100
AcDbBlockTableRecord
  2
SW_CENTERMARKSYMBOL_3
340
0
102
{BLKREFS
331
2B3
102
}
  0
BLOCK_RECORD
  5
2B4
330
1
100
AcDbSymbolTableRecord
100
AcDbBlockTableRecord
  2
SW_CENTERMARKSYMBOL_4
340
0
102
{BLKREFS
331
2BF
102
}
  0
BLOCK_RECORD
  5
2C0
330
1
100
AcDbSymbolTableRecord
100
AcDbBlockTableRecord
  2
SW_CENTERMARKSYMBOL_5
340
0
102
{BLKREFS
331
2CB
102
}
  0
BLOCK_RECORD
  5
2CC
330
1
100
AcDbSymbolTableRecord
100
AcDbBlockTableRecord
  2
SW_CENTERMARKSYMBOL_6
340
0
102
{BLKREFS
331
2D7
102
}
  0
BLOCK_RECORD
  5
2D8
330
1
100
AcDbSymbolTableRecord
100
AcDbBlockTableRecord
  2
SW_CENTERMARKSYMBOL_7
340
0
102
{BLKREFS
331
2E3
102
}
  0
BLOCK_RECORD
  5
2E4
330
1
100
AcDbSymbolTableRecord
100
AcDbBlockTableRecord
  2
SW_CENTERMARKSYMBOL_8
340
0
102
{BLKREFS
331
2EF
102
}
  0
BLOCK_RECORD
  5
2F0
330
1
100
AcDbSymbolTableRecord
100
AcDbBlockTableRecord
  2
SW_CENTERMARKSYMBOL_9
340
0
102
{BLKREFS
331
2FB
102
}
  0
BLOCK_RECORD
  5
2FC
330
1
100
AcDbSymbolTableRecord
100
AcDbBlockTableRecord
  2
SW_CENTERMARKSYMBOL_10
340
0
102
{BLKREFS
331
307
102
}
  0
BLOCK_RECORD
  5
308
330
1
100
AcDbSymbolTableRecord
100
AcDbBlockTableRecord
  2
SW_CENTERMARKSYMBOL_11
340
0
102
{BLKREFS
331
313
102
}
  0
ENDTAB
  0
ENDSEC
  0
SECTION
  2
BLOCKS
  0
BLOCK
  5
20
330
1F
100
AcDbEntity
  8
0
100
AcDbBlockBegin
  2
*Model_Space
 70
     0
 10
0.0
 20
0.0
 30
0.0
  3
*Model_Space
  1

  0
ENDBLK
  5
21
330
1F
100
AcDbEntity
  8
0
100
AcDbBlockEnd
  0
BLOCK
  5
1C
330
1B
100
AcDbEntity
 67
     1
  8
0
100
AcDbBlockBegin
  2
*Paper_Space
 70
     0
 10
0.0
 20
0.0
 30
0.0
  3
*Paper_Space
  1

  0
ENDBLK
  5
1D
330
1B
100
AcDbEntity
 67
     1
  8
0
100
AcDbBlockEnd
  0
BLOCK
  5
24
330
23
100
AcDbEntity
  8
0
100
AcDbBlockBegin
  2
*Paper_Space0
 70
     0
 10
0.0
 20
0.0
 30
0.0
  3
*Paper_Space0
  1

  0
ENDBLK
  5
25
330
23
100
AcDbEntity
  8
0
100
AcDbBlockEnd
  0
BLOCK
  5
250
330
24F
100
AcDbEntity
  8
0
100
AcDbBlockBegin
  2
SW_NOTE_0
 70
     0
 10
0.0
 20
0.0
 30
0.0
  3
SW_NOTE_0
  1

  0
LINE
  5
252
330
24F
100
AcDbEntity
  8
SODIMM
 62
     0
100
AcDbLine
 10
-67.052688989
 20
0.0
 30
0.0
 11
0.0
 21
0.0
 31
0.0
  0
MTEXT
  5
253
330
24F
100
AcDbEntity
  8
SODIMM
 62
     0
100
AcDbMText
 10
-67.4331693466
 20
4.6244321042
 30
0.0
 40
3.5
 41
0.0
 71
     1
 72
     1
  1
260P DDR4 5.2 STD Connector
  7
SLDTEXTSTYLE0
 73
     1
 44
1.0
  0
ENDBLK
  5
251
330
24F
100
AcDbEntity
  8
0
100
AcDbBlockEnd
  0
BLOCK
  5
258
330
257
100
AcDbEntity
  8
0
100
AcDbBlockBegin
  2
SW_NOTE_0_1
 70
     0
 10
0.0
 20
0.0
 30
0.0
  3
SW_NOTE_0_1
  1

  0
LINE
  5
25A
330
257
100
AcDbEntity
  8
ENCLOSURE
 62
     0
100
AcDbLine
 10
-29.2818514436
 20
0.0
 30
0.0
 11
0.0
 21
0.0
 31
0.0
  0
MTEXT
  5
25B
330
257
100
AcDbEntity
  8
ENCLOSURE
 62
     0
100
AcDbMText
 10
-29.7148941942
 20
4.5711077618
 30
0.0
 40
3.5
 41
0.0
 71
     1
 72
     1
  1
Screw Bosses
  7
SLDTEXTSTYLE0
 73
     1
 44
1.0
  0
ENDBLK
  5
259
330
257
100
AcDbEntity
  8
0
100
AcDbBlockEnd
  0
BLOCK
  5
25F
330
25E
100
AcDbEntity
  8
0
100
AcDbBlockBegin
  2
SW_NOTE_0_2
 70
     0
 10
0.0
 20
0.0
 30
0.0
  3
SW_NOTE_0_2
  1

  0
LINE
  5
261
330
25E
100
AcDbEntity
  8
JACKS
 62
     0
100
AcDbLine
 10
-12.7346316158
 20
0.0
 30
0.0
 11
0.0
 21
0.0
 31
0.0
  0
MTEXT
  5
262
330
25E
100
AcDbEntity
  8
JACKS
 62
     0
100
AcDbMText
 10
-13.2279423854
 20
4.528313109
 30
0.0
 40
3.5
 41
0.0
 71
     1
 72
     1
  1
Jacks
  7
SLDTEXTSTYLE0
 73
     1
 44
1.0
  0
ENDBLK
  5
260
330
25E
100
AcDbEntity
  8
0
100
AcDbBlockEnd
  0
BLOCK
  5
266
330
265
100
AcDbEntity
  8
0
100
AcDbBlockBegin
  2
SW_NOTE_0_3
 70
     0
 10
0.0
 20
0.0
 30
0.0
  3
SW_NOTE_0_3
  1

  0
LINE
  5
268
330
265
100
AcDbEntity
  8
SOM
 62
     0
100
AcDbLine
 10
35.4438418717
 20
0.0
 30
0.0
 11
0.0
 21
0.0
 31
0.0
  0
MTEXT
  5
269
330
265
100
AcDbEntity
  8
SOM
 62
     0
100
AcDbMText
 10
0.3835506564
 20
4.5828833119
 30
0.0
 40
3.5
 41
0.0
 71
     1
 72
     1
  1
Firefly PX30 SoM
  7
SLDTEXTSTYLE0
 73
     1
 44
1.0
  0
ENDBLK
  5
267
330
265
100
AcDbEntity
  8
0
100
AcDbBlockEnd
  0
BLOCK
  5
26D
330
26C
100
AcDbEntity
  8
0
100
AcDbBlockBegin
  2
SW_NOTE_0_4
 70
     0
 10
0.0
 20
0.0
 30
0.0
  3
SW_NOTE_0_4
  1

  0
LINE
  5
26F
330
26C
100
AcDbEntity
  8
HEATSINK
 62
     0
100
AcDbLine
 10
-30.793661791
 20
0.0
 30
0.0
 11
0.0
 21
0.0
 31
0.0
  0
MTEXT
  5
270
330
26C
100
AcDbEntity
  8
HEATSINK
 62
     0
100
AcDbMText
 10
-31.2825376489
 20
4.5412771734
 30
0.0
 40
3.5
 41
0.0
 71
     1
 72
     1
  1
Foot Switches
  7
SLDTEXTSTYLE0
 73
     1
 44
1.0
  0
ENDBLK
  5
26E
330
26C
100
AcDbEntity
  8
0
100
AcDbBlockEnd
  0
BLOCK
  5
274
330
273
100
AcDbEntity
  8
0
100
AcDbBlockBegin
  2
SW_NOTE_0_5
 70
     0
 10
0.0
 20
0.0
 30
0.0
  3
SW_NOTE_0_5
  1

  0
LINE
  5
276
330
273
100
AcDbEntity
  8
HMI_CONNECTOR
 62
     0
100
AcDbLine
 10
-34.575608167
 20
0.0
 30
0.0
 11
0.0
 21
0.0
 31
0.0
  0
MTEXT
  5
277
330
273
100
AcDbEntity
  8
HMI_CONNECTOR
 62
     0
100
AcDbMText
 10
-34.9982817236
 20
4.5523879793
 30
0.0
 40
3.5
 41
0.0
 71
     1
 72
     1
  1
HMI Connector
  7
SLDTEXTSTYLE0
 73
     1
 44
1.0
  0
ENDBLK
  5
275
330
273
100
AcDbEntity
  8
0
100
AcDbBlockEnd
  0
BLOCK
  5
27C
330
27B
100
AcDbEntity
  8
0
100
AcDbBlockBegin
  2
SW_NOTE_0_6
 70
     0
 10
0.0
 20
0.0
 30
0.0
  3
SW_NOTE_0_6
  1

  0
LINE
  5
27E
330
27B
100
AcDbEntity
  8
HMI_CONNECTOR_TOP
 62
     0
100
AcDbLine
 10
-36.9818551271
 20
0.0
 30
0.0
 11
0.0
 21
0.0
 31
0.0
  0
MTEXT
  5
27F
330
27B
100
AcDbEntity
  8
HMI_CONNECTOR_TOP
 62
     0
100
AcDbMText
 10
-37.4799839465
 20
9.0778112329
 30
0.0
 40
3.5
 41
0.0
 71
     1
 72
     1
  1
Controller Board
  7
SLDTEXTSTYLE0
 73
     1
 44
1.0
  0
MTEXT
  5
280
330
27B
100
AcDbEntity
  8
HMI_CONNECTOR_TOP
 62
     0
100
AcDbMText
 10
-37.4799839465
 20
4.5521167024
 30
0.0
 40
3.5
 41
0.0
 71
     1
 72
     1
  1
HMI Connector
  7
SLDTEXTSTYLE0
 73
     1
 44
1.0
  0
ENDBLK
  5
27D
330
27B
100
AcDbEntity
  8
0
100
AcDbBlockEnd
  0
BLOCK
  5
285
330
284
100
AcDbEntity
  8
0
100
AcDbBlockBegin
  2
SW_CENTERMARKSYMBOL_0
 70
     0
 10
0.0
 20
0.0
 30
0.0
  3
SW_CENTERMARKSYMBOL_0
  1

  0
LINE
  5
287
330
284
100
AcDbEntity
  8
TABLES
 62
     0
100
AcDbLine
 10
0.0
 20
0.0
 30
0.0
 11
0.0
 21
1.0
 31
0.0
  0
LINE
  5
288
330
284
100
AcDbEntity
  8
TABLES
 62
     0
100
AcDbLine
 10
0.0
 20
0.0
 30
0.0
 11
-1.0
 21
0.0
 31
0.0
  0
LINE
  5
289
330
284
100
AcDbEntity
  8
TABLES
 62
     0
100
AcDbLine
 10
0.0
 20
0.0
 30
0.0
 11
0.0
 21
-1.0
 31
0.0
  0
LINE
  5
28A
330
284
100
AcDbEntity
  8
TABLES
 62
     0
100
AcDbLine
 10
0.0
 20
0.0
 30
0.0
 11
1.0
 21
0.0
 31
0.0
  0
LINE
  5
28B
330
284
100
AcDbEntity
  8
TABLES
 62
     0
100
AcDbLine
 10
0.0
 20
2.0
 30
0.0
 11
0.0
 21
2.625
 31
0.0
  0
LINE
  5
28C
330
284
100
AcDbEntity
  8
TABLES
 62
     0
100
AcDbLine
 10
-2.0
 20
0.0
 30
0.0
 11
-2.625
 21
0.0
 31
0.0
  0
LINE
  5
28D
330
284
100
AcDbEntity
  8
TABLES
 62
     0
100
AcDbLine
 10
0.0
 20
-2.0
 30
0.0
 11
0.0
 21
-2.625
 31
0.0
  0
LINE
  5
28E
330
284
100
AcDbEntity
  8
TABLES
 62
     0
100
AcDbLine
 10
2.0
 20
0.0
 30
0.0
 11
2.625
 21
0.0
 31
0.0
  0
ENDBLK
  5
286
330
284
100
AcDbEntity
  8
0
100
AcDbBlockEnd
  0
BLOCK
  5
291
330
290
100
AcDbEntity
  8
0
100
AcDbBlockBegin
  2
SW_CENTERMARKSYMBOL_1
 70
     0
 10
0.0
 20
0.0
 30
0.0
  3
SW_CENTERMARKSYMBOL_1
  1

  0
LINE
  5
293
330
290
100
AcDbEntity
  8
TABLES
 62
     0
100
AcDbLine
 10
0.0
 20
0.0
 30
0.0
 11
0.0
 21
1.0
 31
0.0
  0
LINE
  5
294
330
290
100
AcDbEntity
  8
TABLES
 62
     0
100
AcDbLine
 10
0.0
 20
0.0
 30
0.0
 11
-1.0
 21
0.0
 31
0.0
  0
LINE
  5
295
330
290
100
AcDbEntity
  8
TABLES
 62
     0
100
AcDbLine
 10
0.0
 20
0.0
 30
0.0
 11
0.0
 21
-1.0
 31
0.0
  0
LINE
  5
296
330
290
100
AcDbEntity
  8
TABLES
 62
     0
100
AcDbLine
 10
0.0
 20
0.0
 30
0.0
 11
1.0
 21
0.0
 31
0.0
  0
LINE
  5
297
330
290
100
AcDbEntity
  8
TABLES
 62
     0
100
AcDbLine
 10
0.0
 20
2.0
 30
0.0
 11
0.0
 21
2.625
 31
0.0
  0
LINE
  5
298
330
290
100
AcDbEntity
  8
TABLES
 62
     0
100
AcDbLine
 10
-2.0
 20
0.0
 30
0.0
 11
-2.625
 21
0.0
 31
0.0
  0
LINE
  5
299
330
290
100
AcDbEntity
  8
TABLES
 62
     0
100
AcDbLine
 10
0.0
 20
-2.0
 30
0.0
 11
0.0
 21
-2.625
 31
0.0
  0
LINE
  5
29A
330
290
100
AcDbEntity
  8
TABLES
 62
     0
100
AcDbLine
 10
2.0
 20
0.0
 30
0.0
 11
2.625
 21
0.0
 31
0.0
  0
ENDBLK
  5
292
330
290
100
AcDbEntity
  8
0
100
AcDbBlockEnd
  0
BLOCK
  5
29D
330
29C
100
AcDbEntity
  8
0
100
AcDbBlockBegin
  2
SW_CENTERMARKSYMBOL_2
 70
     0
 10
0.0
 20
0.0
 30
0.0
  3
SW_CENTERMARKSYMBOL_2
  1

  0
LINE
  5
29F
330
29C
100
AcDbEntity
  8
TABLES
 62
     0
100
AcDbLine
 10
0.0
 20
0.0
 30
0.0
 11
0.0
 21
1.0
 31
0.0
  0
LINE
  5
2A0
330
29C
100
AcDbEntity
  8
TABLES
 62
     0
100
AcDbLine
 10
0.0
 20
0.0
 30
0.0
 11
-1.0
 21
0.0
 31
0.0
  0
LINE
  5
2A1
330
29C
100
AcDbEntity
  8
TABLES
 62
     0
100
AcDbLine
 10
0.0
 20
0.0
 30
0.0
 11
0.0
 21
-1.0
 31
0.0
  0
LINE
  5
2A2
330
29C
100
AcDbEntity
  8
TABLES
 62
     0
100
AcDbLine
 10
0.0
 20
0.0
 30
0.0
 11
1.0
 21
0.0
 31
0.0
  0
LINE
  5
2A3
330
29C
100
AcDbEntity
  8
TABLES
 62
     0
100
AcDbLine
 10
0.0
 20
2.0
 30
0.0
 11
0.0
 21
2.625
 31
0.0
  0
LINE
  5
2A4
330
29C
100
AcDbEntity
  8
TABLES
 62
     0
100
AcDbLine
 10
-2.0
 20
0.0
 30
0.0
 11
-2.625
 21
0.0
 31
0.0
  0
LINE
  5
2A5
330
29C
100
AcDbEntity
  8
TABLES
 62
     0
100
AcDbLine
 10
0.0
 20
-2.0
 30
0.0
 11
0.0
 21
-2.625
 31
0.0
  0
LINE
  5
2A6
330
29C
100
AcDbEntity
  8
TABLES
 62
     0
100
AcDbLine
 10
2.0
 20
0.0
 30
0.0
 11
2.625
 21
0.0
 31
0.0
  0
ENDBLK
  5
29E
330
29C
100
AcDbEntity
  8
0
100
AcDbBlockEnd
  0
BLOCK
  5
2A9
330
2A8
100
AcDbEntity
  8
0
100
AcDbBlockBegin
  2
SW_CENTERMARKSYMBOL_3
 70
     0
 10
0.0
 20
0.0
 30
0.0
  3
SW_CENTERMARKSYMBOL_3
  1

  0
LINE
  5
2AB
330
2A8
100
AcDbEntity
  8
TABLES
 62
     0
100
AcDbLine
 10
0.0
 20
0.0
 30
0.0
 11
0.0
 21
1.0
 31
0.0
  0
LINE
  5
2AC
330
2A8
100
AcDbEntity
  8
TABLES
 62
     0
100
AcDbLine
 10
0.0
 20
0.0
 30
0.0
 11
-1.0
 21
0.0
 31
0.0
  0
LINE
  5
2AD
330
2A8
100
AcDbEntity
  8
TABLES
 62
     0
100
AcDbLine
 10
0.0
 20
0.0
 30
0.0
 11
0.0
 21
-1.0
 31
0.0
  0
LINE
  5
2AE
330
2A8
100
AcDbEntity
  8
TABLES
 62
     0
100
AcDbLine
 10
0.0
 20
0.0
 30
0.0
 11
1.0
 21
0.0
 31
0.0
  0
LINE
  5
2AF
330
2A8
100
AcDbEntity
  8
TABLES
 62
     0
100
AcDbLine
 10
0.0
 20
2.0
 30
0.0
 11
0.0
 21
2.625
 31
0.0
  0
LINE
  5
2B0
330
2A8
100
AcDbEntity
  8
TABLES
 62
     0
100
AcDbLine
 10
-2.0
 20
0.0
 30
0.0
 11
-2.625
 21
0.0
 31
0.0
  0
LINE
  5
2B1
330
2A8
100
AcDbEntity
  8
TABLES
 62
     0
100
AcDbLine
 10
0.0
 20
-2.0
 30
0.0
 11
0.0
 21
-2.625
 31
0.0
  0
LINE
  5
2B2
330
2A8
100
AcDbEntity
  8
TABLES
 62
     0
100
AcDbLine
 10
2.0
 20
0.0
 30
0.0
 11
2.625
 21
0.0
 31
0.0
  0
ENDBLK
  5
2AA
330
2A8
100
AcDbEntity
  8
0
100
AcDbBlockEnd
  0
BLOCK
  5
2B5
330
2B4
100
AcDbEntity
  8
0
100
AcDbBlockBegin
  2
SW_CENTERMARKSYMBOL_4
 70
     0
 10
0.0
 20
0.0
 30
0.0
  3
SW_CENTERMARKSYMBOL_4
  1

  0
LINE
  5
2B7
330
2B4
100
AcDbEntity
  8
TABLES
 62
     0
100
AcDbLine
 10
0.0
 20
0.0
 30
0.0
 11
0.0
 21
1.0
 31
0.0
  0
LINE
  5
2B8
330
2B4
100
AcDbEntity
  8
TABLES
 62
     0
100
AcDbLine
 10
0.0
 20
0.0
 30
0.0
 11
-1.0
 21
0.0
 31
0.0
  0
LINE
  5
2B9
330
2B4
100
AcDbEntity
  8
TABLES
 62
     0
100
AcDbLine
 10
0.0
 20
0.0
 30
0.0
 11
0.0
 21
-1.0
 31
0.0
  0
LINE
  5
2BA
330
2B4
100
AcDbEntity
  8
TABLES
 62
     0
100
AcDbLine
 10
0.0
 20
0.0
 30
0.0
 11
1.0
 21
0.0
 31
0.0
  0
LINE
  5
2BB
330
2B4
100
AcDbEntity
  8
TABLES
 62
     0
100
AcDbLine
 10
0.0
 20
2.0
 30
0.0
 11
0.0
 21
2.625
 31
0.0
  0
LINE
  5
2BC
330
2B4
100
AcDbEntity
  8
TABLES
 62
     0
100
AcDbLine
 10
-2.0
 20
0.0
 30
0.0
 11
-2.625
 21
0.0
 31
0.0
  0
LINE
  5
2BD
330
2B4
100
AcDbEntity
  8
TABLES
 62
     0
100
AcDbLine
 10
0.0
 20
-2.0
 30
0.0
 11
0.0
 21
-2.625
 31
0.0
  0
LINE
  5
2BE
330
2B4
100
AcDbEntity
  8
TABLES
 62
     0
100
AcDbLine
 10
2.0
 20
0.0
 30
0.0
 11
2.625
 21
0.0
 31
0.0
  0
ENDBLK
  5
2B6
330
2B4
100
AcDbEntity
  8
0
100
AcDbBlockEnd
  0
BLOCK
  5
2C1
330
2C0
100
AcDbEntity
  8
0
100
AcDbBlockBegin
  2
SW_CENTERMARKSYMBOL_5
 70
     0
 10
0.0
 20
0.0
 30
0.0
  3
SW_CENTERMARKSYMBOL_5
  1

  0
LINE
  5
2C3
330
2C0
100
AcDbEntity
  8
SOM
 62
     0
100
AcDbLine
 10
0.0
 20
0.0
 30
0.0
 11
0.0
 21
1.0
 31
0.0
  0
LINE
  5
2C4
330
2C0
100
AcDbEntity
  8
SOM
 62
     0
100
AcDbLine
 10
0.0
 20
0.0
 30
0.0
 11
-1.0
 21
0.0
 31
0.0
  0
LINE
  5
2C5
330
2C0
100
AcDbEntity
  8
SOM
 62
     0
100
AcDbLine
 10
0.0
 20
0.0
 30
0.0
 11
0.0
 21
-1.0
 31
0.0
  0
LINE
  5
2C6
330
2C0
100
AcDbEntity
  8
SOM
 62
     0
100
AcDbLine
 10
0.0
 20
0.0
 30
0.0
 11
1.0
 21
0.0
 31
0.0
  0
LINE
  5
2C7
330
2C0
100
AcDbEntity
  8
SOM
 62
     0
100
AcDbLine
 10
0.0
 20
2.0
 30
0.0
 11
0.0
 21
2.6
 31
0.0
  0
LINE
  5
2C8
330
2C0
100
AcDbEntity
  8
SOM
 62
     0
100
AcDbLine
 10
-2.0
 20
0.0
 30
0.0
 11
-2.6
 21
0.0
 31
0.0
  0
LINE
  5
2C9
330
2C0
100
AcDbEntity
  8
SOM
 62
     0
100
AcDbLine
 10
0.0
 20
-2.0
 30
0.0
 11
0.0
 21
-2.6
 31
0.0
  0
LINE
  5
2CA
330
2C0
100
AcDbEntity
  8
SOM
 62
     0
100
AcDbLine
 10
2.0
 20
0.0
 30
0.0
 11
2.6
 21
0.0
 31
0.0
  0
ENDBLK
  5
2C2
330
2C0
100
AcDbEntity
  8
0
100
AcDbBlockEnd
  0
BLOCK
  5
2CD
330
2CC
100
AcDbEntity
  8
0
100
AcDbBlockBegin
  2
SW_CENTERMARKSYMBOL_6
 70
     0
 10
0.0
 20
0.0
 30
0.0
  3
SW_CENTERMARKSYMBOL_6
  1

  0
LINE
  5
2CF
330
2CC
100
AcDbEntity
  8
SOM
 62
     0
100
AcDbLine
 10
0.0
 20
0.0
 30
0.0
 11
0.0
 21
1.0
 31
0.0
  0
LINE
  5
2D0
330
2CC
100
AcDbEntity
  8
SOM
 62
     0
100
AcDbLine
 10
0.0
 20
0.0
 30
0.0
 11
-1.0
 21
0.0
 31
0.0
  0
LINE
  5
2D1
330
2CC
100
AcDbEntity
  8
SOM
 62
     0
100
AcDbLine
 10
0.0
 20
0.0
 30
0.0
 11
0.0
 21
-1.0
 31
0.0
  0
LINE
  5
2D2
330
2CC
100
AcDbEntity
  8
SOM
 62
     0
100
AcDbLine
 10
0.0
 20
0.0
 30
0.0
 11
1.0
 21
0.0
 31
0.0
  0
LINE
  5
2D3
330
2CC
100
AcDbEntity
  8
SOM
 62
     0
100
AcDbLine
 10
0.0
 20
2.0
 30
0.0
 11
0.0
 21
2.6
 31
0.0
  0
LINE
  5
2D4
330
2CC
100
AcDbEntity
  8
SOM
 62
     0
100
AcDbLine
 10
-2.0
 20
0.0
 30
0.0
 11
-2.6
 21
0.0
 31
0.0
  0
LINE
  5
2D5
330
2CC
100
AcDbEntity
  8
SOM
 62
     0
100
AcDbLine
 10
0.0
 20
-2.0
 30
0.0
 11
0.0
 21
-2.6
 31
0.0
  0
LINE
  5
2D6
330
2CC
100
AcDbEntity
  8
SOM
 62
     0
100
AcDbLine
 10
2.0
 20
0.0
 30
0.0
 11
2.6
 21
0.0
 31
0.0
  0
ENDBLK
  5
2CE
330
2CC
100
AcDbEntity
  8
0
100
AcDbBlockEnd
  0
BLOCK
  5
2D9
330
2D8
100
AcDbEntity
  8
0
100
AcDbBlockBegin
  2
SW_CENTERMARKSYMBOL_7
 70
     0
 10
0.0
 20
0.0
 30
0.0
  3
SW_CENTERMARKSYMBOL_7
  1

  0
LINE
  5
2DB
330
2D8
100
AcDbEntity
  8
SOM
 62
     0
100
AcDbLine
 10
0.0
 20
0.0
 30
0.0
 11
0.0
 21
1.0
 31
0.0
  0
LINE
  5
2DC
330
2D8
100
AcDbEntity
  8
SOM
 62
     0
100
AcDbLine
 10
0.0
 20
0.0
 30
0.0
 11
-1.0
 21
0.0
 31
0.0
  0
LINE
  5
2DD
330
2D8
100
AcDbEntity
  8
SOM
 62
     0
100
AcDbLine
 10
0.0
 20
0.0
 30
0.0
 11
0.0
 21
-1.0
 31
0.0
  0
LINE
  5
2DE
330
2D8
100
AcDbEntity
  8
SOM
 62
     0
100
AcDbLine
 10
0.0
 20
0.0
 30
0.0
 11
1.0
 21
0.0
 31
0.0
  0
LINE
  5
2DF
330
2D8
100
AcDbEntity
  8
SOM
 62
     0
100
AcDbLine
 10
0.0
 20
2.0
 30
0.0
 11
0.0
 21
2.55
 31
0.0
  0
LINE
  5
2E0
330
2D8
100
AcDbEntity
  8
SOM
 62
     0
100
AcDbLine
 10
-2.0
 20
0.0
 30
0.0
 11
-2.55
 21
0.0
 31
0.0
  0
LINE
  5
2E1
330
2D8
100
AcDbEntity
  8
SOM
 62
     0
100
AcDbLine
 10
0.0
 20
-2.0
 30
0.0
 11
0.0
 21
-2.55
 31
0.0
  0
LINE
  5
2E2
330
2D8
100
AcDbEntity
  8
SOM
 62
     0
100
AcDbLine
 10
2.0
 20
0.0
 30
0.0
 11
2.55
 21
0.0
 31
0.0
  0
ENDBLK
  5
2DA
330
2D8
100
AcDbEntity
  8
0
100
AcDbBlockEnd
  0
BLOCK
  5
2E5
330
2E4
100
AcDbEntity
  8
0
100
AcDbBlockBegin
  2
SW_CENTERMARKSYMBOL_8
 70
     0
 10
0.0
 20
0.0
 30
0.0
  3
SW_CENTERMARKSYMBOL_8
  1

  0
LINE
  5
2E7
330
2E4
100
AcDbEntity
  8
SOM
 62
     0
100
AcDbLine
 10
0.0
 20
0.0
 30
0.0
 11
0.0
 21
1.0
 31
0.0
  0
LINE
  5
2E8
330
2E4
100
AcDbEntity
  8
SOM
 62
     0
100
AcDbLine
 10
0.0
 20
0.0
 30
0.0
 11
-1.0
 21
0.0
 31
0.0
  0
LINE
  5
2E9
330
2E4
100
AcDbEntity
  8
SOM
 62
     0
100
AcDbLine
 10
0.0
 20
0.0
 30
0.0
 11
0.0
 21
-1.0
 31
0.0
  0
LINE
  5
2EA
330
2E4
100
AcDbEntity
  8
SOM
 62
     0
100
AcDbLine
 10
0.0
 20
0.0
 30
0.0
 11
1.0
 21
0.0
 31
0.0
  0
LINE
  5
2EB
330
2E4
100
AcDbEntity
  8
SOM
 62
     0
100
AcDbLine
 10
0.0
 20
2.0
 30
0.0
 11
0.0
 21
2.55
 31
0.0
  0
LINE
  5
2EC
330
2E4
100
AcDbEntity
  8
SOM
 62
     0
100
AcDbLine
 10
-2.0
 20
0.0
 30
0.0
 11
-2.55
 21
0.0
 31
0.0
  0
LINE
  5
2ED
330
2E4
100
AcDbEntity
  8
SOM
 62
     0
100
AcDbLine
 10
0.0
 20
-2.0
 30
0.0
 11
0.0
 21
-2.55
 31
0.0
  0
LINE
  5
2EE
330
2E4
100
AcDbEntity
  8
SOM
 62
     0
100
AcDbLine
 10
2.0
 20
0.0
 30
0.0
 11
2.55
 21
0.0
 31
0.0
  0
ENDBLK
  5
2E6
330
2E4
100
AcDbEntity
  8
0
100
AcDbBlockEnd
  0
BLOCK
  5
2F1
330
2F0
100
AcDbEntity
  8
0
100
AcDbBlockBegin
  2
SW_CENTERMARKSYMBOL_9
 70
     0
 10
0.0
 20
0.0
 30
0.0
  3
SW_CENTERMARKSYMBOL_9
  1

  0
LINE
  5
2F3
330
2F0
100
AcDbEntity
  8
HEATSINK
 62
     0
100
AcDbLine
 10
0.0
 20
0.0
 30
0.0
 11
0.0
 21
1.0
 31
0.0
  0
LINE
  5
2F4
330
2F0
100
AcDbEntity
  8
HEATSINK
 62
     0
100
AcDbLine
 10
0.0
 20
0.0
 30
0.0
 11
-1.0
 21
0.0
 31
0.0
  0
LINE
  5
2F5
330
2F0
100
AcDbEntity
  8
HEATSINK
 62
     0
100
AcDbLine
 10
0.0
 20
0.0
 30
0.0
 11
0.0
 21
-1.0
 31
0.0
  0
LINE
  5
2F6
330
2F0
100
AcDbEntity
  8
HEATSINK
 62
     0
100
AcDbLine
 10
0.0
 20
0.0
 30
0.0
 11
1.0
 21
0.0
 31
0.0
  0
LINE
  5
2F7
330
2F0
100
AcDbEntity
  8
HEATSINK
 62
     0
100
AcDbLine
 10
0.0
 20
2.0
 30
0.0
 11
0.0
 21
2.5
 31
0.0
  0
LINE
  5
2F8
330
2F0
100
AcDbEntity
  8
HEATSINK
 62
     0
100
AcDbLine
 10
-2.0
 20
0.0
 30
0.0
 11
-2.5
 21
0.0
 31
0.0
  0
LINE
  5
2F9
330
2F0
100
AcDbEntity
  8
HEATSINK
 62
     0
100
AcDbLine
 10
0.0
 20
-2.0
 30
0.0
 11
0.0
 21
-2.5
 31
0.0
  0
LINE
  5
2FA
330
2F0
100
AcDbEntity
  8
HEATSINK
 62
     0
100
AcDbLine
 10
2.0
 20
0.0
 30
0.0
 11
2.5
 21
0.0
 31
0.0
  0
ENDBLK
  5
2F2
330
2F0
100
AcDbEntity
  8
0
100
AcDbBlockEnd
  0
BLOCK
  5
2FD
330
2FC
100
AcDbEntity
  8
0
100
AcDbBlockBegin
  2
SW_CENTERMARKSYMBOL_10
 70
     0
 10
0.0
 20
0.0
 30
0.0
  3
SW_CENTERMARKSYMBOL_10
  1

  0
LINE
  5
2FF
330
2FC
100
AcDbEntity
  8
HEATSINK
 62
     0
100
AcDbLine
 10
0.0
 20
0.0
 30
0.0
 11
0.0
 21
1.0
 31
0.0
  0
LINE
  5
300
330
2FC
100
AcDbEntity
  8
HEATSINK
 62
     0
100
AcDbLine
 10
0.0
 20
0.0
 30
0.0
 11
-1.0
 21
0.0
 31
0.0
  0
LINE
  5
301
330
2FC
100
AcDbEntity
  8
HEATSINK
 62
     0
100
AcDbLine
 10
0.0
 20
0.0
 30
0.0
 11
0.0
 21
-1.0
 31
0.0
  0
LINE
  5
302
330
2FC
100
AcDbEntity
  8
HEATSINK
 62
     0
100
AcDbLine
 10
0.0
 20
0.0
 30
0.0
 11
1.0
 21
0.0
 31
0.0
  0
LINE
  5
303
330
2FC
100
AcDbEntity
  8
HEATSINK
 62
     0
100
AcDbLine
 10
0.0
 20
2.0
 30
0.0
 11
0.0
 21
2.5
 31
0.0
  0
LINE
  5
304
330
2FC
100
AcDbEntity
  8
HEATSINK
 62
     0
100
AcDbLine
 10
-2.0
 20
0.0
 30
0.0
 11
-2.5
 21
0.0
 31
0.0
  0
LINE
  5
305
330
2FC
100
AcDbEntity
  8
HEATSINK
 62
     0
100
AcDbLine
 10
0.0
 20
-2.0
 30
0.0
 11
0.0
 21
-2.5
 31
0.0
  0
LINE
  5
306
330
2FC
100
AcDbEntity
  8
HEATSINK
 62
     0
100
AcDbLine
 10
2.0
 20
0.0
 30
0.0
 11
2.5
 21
0.0
 31
0.0
  0
ENDBLK
  5
2FE
330
2FC
100
AcDbEntity
  8
0
100
AcDbBlockEnd
  0
BLOCK
  5
309
330
308
100
AcDbEntity
  8
0
100
AcDbBlockBegin
  2
SW_CENTERMARKSYMBOL_11
 70
     0
 10
0.0
 20
0.0
 30
0.0
  3
SW_CENTERMARKSYMBOL_11
  1

  0
LINE
  5
30B
330
308
100
AcDbEntity
  8
HEATSINK
 62
     0
100
AcDbLine
 10
0.0
 20
0.0
 30
0.0
 11
0.0
 21
1.0
 31
0.0
  0
LINE
  5
30C
330
308
100
AcDbEntity
  8
HEATSINK
 62
     0
100
AcDbLine
 10
0.0
 20
0.0
 30
0.0
 11
-1.0
 21
0.0
 31
0.0
  0
LINE
  5
30D
330
308
100
AcDbEntity
  8
HEATSINK
 62
     0
100
AcDbLine
 10
0.0
 20
0.0
 30
0.0
 11
0.0
 21
-1.0
 31
0.0
  0
LINE
  5
30E
330
308
100
AcDbEntity
  8
HEATSINK
 62
     0
100
AcDbLine
 10
0.0
 20
0.0
 30
0.0
 11
1.0
 21
0.0
 31
0.0
  0
LINE
  5
30F
330
308
100
AcDbEntity
  8
HEATSINK
 62
     0
100
AcDbLine
 10
0.0
 20
2.0
 30
0.0
 11
0.0
 21
2.5
 31
0.0
  0
LINE
  5
310
330
308
100
AcDbEntity
  8
HEATSINK
 62
     0
100
AcDbLine
 10
-2.0
 20
0.0
 30
0.0
 11
-2.5
 21
0.0
 31
0.0
  0
LINE
  5
311
330
308
100
AcDbEntity
  8
HEATSINK
 62
     0
100
AcDbLine
 10
0.0
 20
-2.0
 30
0.0
 11
0.0
 21
-2.5
 31
0.0
  0
LINE
  5
312
330
308
100
AcDbEntity
  8
HEATSINK
 62
     0
100
AcDbLine
 10
2.0
 20
0.0
 30
0.0
 11
2.5
 21
0.0
 31
0.0
  0
ENDBLK
  5
30A
330
308
100
AcDbEntity
  8
0
100
AcDbBlockEnd
  0
ENDSEC
  0
SECTION
  2
ENTITIES
  0
LINE
  5
7D
330
1F
100
AcDbEntity
  8
TABLES
370
    18
100
AcDbLine
 10
281.6099230699
 20
231.5069972282
 30
0.0
 11
281.6099230699
 21
236.0069972282
 31
0.0
  0
LINE
  5
7E
330
1F
100
AcDbEntity
  8
TABLES
370
    18
100
AcDbLine
 10
289.6099230699
 20
225.5069972282
 30
0.0
 11
287.6099230699
 21
225.5069972282
 31
0.0
  0
LINE
  5
7F
330
1F
100
AcDbEntity
  8
TABLES
370
    18
100
AcDbLine
 10
293.6099230699
 20
99.0069972282
 30
0.0
 11
293.6099230699
 21
221.5069972282
 31
0.0
  0
LINE
  5
80
330
1F
100
AcDbEntity
  8
TABLES
370
    18
100
AcDbLine
 10
287.6099230699
 20
97.5069972282
 30
0.0
 11
292.1099230699
 21
97.5069972282
 31
0.0
  0
LINE
  5
81
330
1F
100
AcDbEntity
  8
TABLES
370
    18
100
AcDbLine
 10
281.6099230699
 20
89.5069972282
 30
0.0
 11
281.6099230699
 21
91.5069972282
 31
0.0
  0
LINE
  5
82
330
1F
100
AcDbEntity
  8
TABLES
370
    18
100
AcDbLine
 10
137.6099230699
 20
85.5069972282
 30
0.0
 11
277.6099230699
 21
85.5069972282
 31
0.0
  0
LINE
  5
83
330
1F
100
AcDbEntity
  8
TABLES
370
    18
100
AcDbLine
 10
133.6099230699
 20
91.5069972282
 30
0.0
 11
133.6099230699
 21
89.5069972282
 31
0.0
  0
LINE
  5
84
330
1F
100
AcDbEntity
  8
TABLES
370
    18
100
AcDbLine
 10
123.1099230699
 20
97.5069972282
 30
0.0
 11
127.6099230699
 21
97.5069972282
 31
0.0
  0
LINE
  5
85
330
1F
100
AcDbEntity
  8
TABLES
370
    18
100
AcDbLine
 10
121.6099230699
 20
221.5069972282
 30
0.0
 11
121.6099230699
 21
99.0069972282
 31
0.0
  0
LINE
  5
86
330
1F
100
AcDbEntity
  8
TABLES
370
    18
100
AcDbLine
 10
127.6099230699
 20
225.5069972282
 30
0.0
 11
125.6099230699
 21
225.5069972282
 31
0.0
  0
LINE
  5
87
330
1F
100
AcDbEntity
  8
TABLES
370
    18
100
AcDbLine
 10
279.6099230699
 20
238.0069972282
 30
0.0
 11
135.6099230699
 21
238.0069972282
 31
0.0
  0
LINE
  5
88
330
1F
100
AcDbEntity
  8
TABLES
370
    18
100
AcDbLine
 10
133.6099230699
 20
236.0069972282
 30
0.0
 11
133.6099230699
 21
231.5069972282
 31
0.0
  0
LINE
  5
89
330
1F
100
AcDbEntity
  8
JACKS
370
    18
100
AcDbLine
 10
146.1107411721
 20
238.5069972282
 30
0.0
 11
151.1107411721
 21
238.5069972282
 31
0.0
  0
LINE
  5
8A
330
1F
100
AcDbEntity
  8
JACKS
370
    18
100
AcDbLine
 10
151.1107411721
 20
238.5069972282
 30
0.0
 11
156.1107411721
 21
238.5069972282
 31
0.0
  0
LINE
  5
8B
330
1F
100
AcDbEntity
  8
JACKS
370
    18
100
AcDbLine
 10
156.1107411721
 20
238.5069972282
 30
0.0
 11
156.1107411721
 21
222.7069972282
 31
0.0
  0
LINE
  5
8C
330
1F
100
AcDbEntity
  8
JACKS
370
    18
100
AcDbLine
 10
156.1107411721
 20
222.7069972282
 30
0.0
 11
151.1107411721
 21
222.7069972282
 31
0.0
  0
LINE
  5
8D
330
1F
100
AcDbEntity
  8
JACKS
370
    18
100
AcDbLine
 10
151.1107411721
 20
222.7069972282
 30
0.0
 11
146.1107411721
 21
222.7069972282
 31
0.0
  0
LINE
  5
8E
330
1F
100
AcDbEntity
  8
JACKS
370
    18
100
AcDbLine
 10
146.1107411721
 20
222.7069972282
 30
0.0
 11
146.1107411721
 21
238.5069972282
 31
0.0
  0
LINE
  5
8F
330
1F
100
AcDbEntity
  8
JACKS
370
    18
100
AcDbLine
 10
148.1107411721
 20
238.5069972282
 30
0.0
 11
148.1107411721
 21
241.5069972282
 31
0.0
  0
LINE
  5
90
330
1F
100
AcDbEntity
  8
JACKS
370
    18
100
AcDbLine
 10
148.1107411721
 20
241.5069972282
 30
0.0
 11
151.1107411721
 21
241.5069972282
 31
0.0
  0
LINE
  5
91
330
1F
100
AcDbEntity
  8
JACKS
370
    18
100
AcDbLine
 10
151.1107411721
 20
241.5069972282
 30
0.0
 11
154.1107411721
 21
241.5069972282
 31
0.0
  0
LINE
  5
92
330
1F
100
AcDbEntity
  8
JACKS
370
    18
100
AcDbLine
 10
154.1107411721
 20
241.5069972282
 30
0.0
 11
154.1107411721
 21
238.5069972282
 31
0.0
  0
LINE
  5
93
330
1F
100
AcDbEntity
  8
JACKS
  6
CENTERX2
370
    18
100
AcDbLine
 10
151.1107411721
 20
241.5069972282
 30
0.0
 11
151.1107411721
 21
238.5069972282
 31
0.0
  0
LINE
  5
94
330
1F
100
AcDbEntity
  8
JACKS
  6
CENTERX2
370
    18
100
AcDbLine
 10
151.1107411721
 20
222.7069972282
 30
0.0
 11
151.1107411721
 21
238.5069972282
 31
0.0
  0
LINE
  5
95
330
1F
100
AcDbEntity
  8
JACKS
370
    18
100
AcDbLine
 10
157.1107411719
 20
238.3069972282
 30
0.0
 11
167.1107411719
 21
238.3069972282
 31
0.0
  0
LINE
  5
96
330
1F
100
AcDbEntity
  8
JACKS
370
    18
100
AcDbLine
 10
167.1107411719
 20
238.3069972282
 30
0.0
 11
177.1107411719
 21
238.3069972282
 31
0.0
  0
LINE
  5
97
330
1F
100
AcDbEntity
  8
JACKS
370
    18
100
AcDbLine
 10
177.1107411719
 20
238.3069972282
 30
0.0
 11
177.1107411719
 21
222.5069972282
 31
0.0
  0
LINE
  5
98
330
1F
100
AcDbEntity
  8
JACKS
370
    18
100
AcDbLine
 10
177.1107411719
 20
222.5069972282
 30
0.0
 11
167.1107411719
 21
222.5069972282
 31
0.0
  0
LINE
  5
99
330
1F
100
AcDbEntity
  8
JACKS
370
    18
100
AcDbLine
 10
167.1107411719
 20
222.5069972282
 30
0.0
 11
157.1107411719
 21
222.5069972282
 31
0.0
  0
LINE
  5
9A
330
1F
100
AcDbEntity
  8
JACKS
370
    18
100
AcDbLine
 10
157.1107411719
 20
222.5069972282
 30
0.0
 11
157.1107411719
 21
238.3069972282
 31
0.0
  0
LINE
  5
9B
330
1F
100
AcDbEntity
  8
JACKS
  6
CENTERX2
370
    18
100
AcDbLine
 10
167.1107411719
 20
222.5069972282
 30
0.0
 11
167.1107411719
 21
238.3069972282
 31
0.0
  0
LINE
  5
9C
330
1F
100
AcDbEntity
  8
JACKS
370
    18
100
AcDbLine
 10
178.1107411719
 20
238.3069972282
 30
0.0
 11
188.1107411719
 21
238.3069972282
 31
0.0
  0
LINE
  5
9D
330
1F
100
AcDbEntity
  8
JACKS
370
    18
100
AcDbLine
 10
188.1107411719
 20
238.3069972282
 30
0.0
 11
198.1107411719
 21
238.3069972282
 31
0.0
  0
LINE
  5
9E
330
1F
100
AcDbEntity
  8
JACKS
370
    18
100
AcDbLine
 10
198.1107411719
 20
238.3069972282
 30
0.0
 11
198.1107411719
 21
222.5069972282
 31
0.0
  0
LINE
  5
9F
330
1F
100
AcDbEntity
  8
JACKS
370
    18
100
AcDbLine
 10
198.1107411719
 20
222.5069972282
 30
0.0
 11
188.1107411719
 21
222.5069972282
 31
0.0
  0
LINE
  5
A0
330
1F
100
AcDbEntity
  8
JACKS
370
    18
100
AcDbLine
 10
188.1107411719
 20
222.5069972282
 30
0.0
 11
178.1107411719
 21
222.5069972282
 31
0.0
  0
LINE
  5
A1
330
1F
100
AcDbEntity
  8
JACKS
370
    18
100
AcDbLine
 10
178.1107411719
 20
222.5069972282
 30
0.0
 11
178.1107411719
 21
238.3069972282
 31
0.0
  0
LINE
  5
A2
330
1F
100
AcDbEntity
  8
JACKS
  6
CENTERX2
370
    18
100
AcDbLine
 10
188.1107411719
 20
238.3069972282
 30
0.0
 11
188.1107411719
 21
222.5069972282
 31
0.0
  0
LINE
  5
A3
330
1F
100
AcDbEntity
  8
JACKS
370
    18
100
AcDbLine
 10
213.080823112
 20
241.5069972282
 30
0.0
 11
219.230823112
 21
241.5069972282
 31
0.0
  0
LINE
  5
A4
330
1F
100
AcDbEntity
  8
JACKS
370
    18
100
AcDbLine
 10
219.230823112
 20
241.5069972282
 30
0.0
 11
225.380823112
 21
241.5069972282
 31
0.0
  0
LINE
  5
A5
330
1F
100
AcDbEntity
  8
JACKS
370
    18
100
AcDbLine
 10
225.380823112
 20
241.5069972282
 30
0.0
 11
225.380823112
 21
225.5069972282
 31
0.0
  0
LINE
  5
A6
330
1F
100
AcDbEntity
  8
JACKS
370
    18
100
AcDbLine
 10
225.380823112
 20
225.5069972282
 30
0.0
 11
219.230823112
 21
225.5069972282
 31
0.0
  0
LINE
  5
A7
330
1F
100
AcDbEntity
  8
JACKS
370
    18
100
AcDbLine
 10
219.230823112
 20
225.5069972282
 30
0.0
 11
213.080823112
 21
225.5069972282
 31
0.0
  0
LINE
  5
A8
330
1F
100
AcDbEntity
  8
JACKS
370
    18
100
AcDbLine
 10
213.080823112
 20
225.5069972282
 30
0.0
 11
213.080823112
 21
241.5069972282
 31
0.0
  0
LINE
  5
A9
330
1F
100
AcDbEntity
  8
JACKS
  6
CENTERX2
370
    18
100
AcDbLine
 10
219.230823112
 20
241.5069972282
 30
0.0
 11
219.230823112
 21
225.5069972282
 31
0.0
  0
LINE
  5
AA
330
1F
100
AcDbEntity
  8
JACKS
370
    18
100
AcDbLine
 10
230.3399230796
 20
238.3069972282
 30
0.0
 11
233.2399230796
 21
238.3069972282
 31
0.0
  0
LINE
  5
AB
330
1F
100
AcDbEntity
  8
JACKS
370
    18
100
AcDbLine
 10
233.2399230796
 20
238.3069972282
 30
0.0
 11
236.1399230796
 21
238.3069972282
 31
0.0
  0
LINE
  5
AC
330
1F
100
AcDbEntity
  8
JACKS
370
    18
100
AcDbLine
 10
236.1399230796
 20
238.3069972282
 30
0.0
 11
236.1399230796
 21
218.5069972282
 31
0.0
  0
LINE
  5
AD
330
1F
100
AcDbEntity
  8
JACKS
370
    18
100
AcDbLine
 10
236.1399230796
 20
218.5069972282
 30
0.0
 11
233.2399230796
 21
218.5069972282
 31
0.0
  0
LINE
  5
AE
330
1F
100
AcDbEntity
  8
JACKS
370
    18
100
AcDbLine
 10
233.2399230796
 20
218.5069972282
 30
0.0
 11
230.3399230796
 21
218.5069972282
 31
0.0
  0
LINE
  5
AF
330
1F
100
AcDbEntity
  8
JACKS
370
    18
100
AcDbLine
 10
230.3399230796
 20
218.5069972282
 30
0.0
 11
230.3399230796
 21
238.3069972282
 31
0.0
  0
LINE
  5
B0
330
1F
100
AcDbEntity
  8
JACKS
370
    18
100
AcDbLine
 10
241.6049230733
 20
241.5069972282
 30
0.0
 11
249.3549230733
 21
241.5069972282
 31
0.0
  0
LINE
  5
B1
330
1F
100
AcDbEntity
  8
JACKS
370
    18
100
AcDbLine
 10
249.3549230733
 20
241.5069972282
 30
0.0
 11
257.1049230733
 21
241.5069972282
 31
0.0
  0
LINE
  5
B2
330
1F
100
AcDbEntity
  8
JACKS
370
    18
100
AcDbLine
 10
257.1049230733
 20
241.5069972282
 30
0.0
 11
257.1049230733
 21
223.8069972282
 31
0.0
  0
LINE
  5
B3
330
1F
100
AcDbEntity
  8
JACKS
370
    18
100
AcDbLine
 10
257.1049230733
 20
223.8069972282
 30
0.0
 11
249.3549230733
 21
223.8069972282
 31
0.0
  0
LINE
  5
B4
330
1F
100
AcDbEntity
  8
JACKS
370
    18
100
AcDbLine
 10
249.3549230733
 20
223.8069972282
 30
0.0
 11
241.6049230733
 21
223.8069972282
 31
0.0
  0
LINE
  5
B5
330
1F
100
AcDbEntity
  8
JACKS
370
    18
100
AcDbLine
 10
241.6049230733
 20
223.8069972282
 30
0.0
 11
241.6049230733
 21
241.5069972282
 31
0.0
  0
LINE
  5
B6
330
1F
100
AcDbEntity
  8
JACKS
  6
CENTERX2
370
    18
100
AcDbLine
 10
249.3549230733
 20
241.5069972282
 30
0.0
 11
249.3549230733
 21
223.8069972282
 31
0.0
  0
LINE
  5
B7
330
1F
100
AcDbEntity
  8
JACKS
370
    18
100
AcDbLine
 10
263.6099230513
 20
241.5069972282
 30
0.0
 11
268.1099230513
 21
241.5069972282
 31
0.0
  0
LINE
  5
B8
330
1F
100
AcDbEntity
  8
JACKS
370
    18
100
AcDbLine
 10
268.1099230513
 20
241.5069972282
 30
0.0
 11
272.6099230513
 21
241.5069972282
 31
0.0
  0
LINE
  5
B9
330
1F
100
AcDbEntity
  8
JACKS
370
    18
100
AcDbLine
 10
272.6099230513
 20
241.5069972282
 30
0.0
 11
272.6099230513
 21
227.1069972282
 31
0.0
  0
LINE
  5
BA
330
1F
100
AcDbEntity
  8
JACKS
370
    18
100
AcDbLine
 10
272.6099230513
 20
227.1069972282
 30
0.0
 11
268.1099230513
 21
227.1069972282
 31
0.0
  0
LINE
  5
BB
330
1F
100
AcDbEntity
  8
JACKS
370
    18
100
AcDbLine
 10
268.1099230513
 20
227.1069972282
 30
0.0
 11
263.6099230513
 21
227.1069972282
 31
0.0
  0
LINE
  5
BC
330
1F
100
AcDbEntity
  8
JACKS
370
    18
100
AcDbLine
 10
263.6099230513
 20
227.1069972282
 30
0.0
 11
263.6099230513
 21
241.5069972282
 31
0.0
  0
LINE
  5
BD
330
1F
100
AcDbEntity
  8
JACKS
  6
CENTERX2
370
    18
100
AcDbLine
 10
268.1099230513
 20
241.5069972282
 30
0.0
 11
268.1099230513
 21
227.1069972282
 31
0.0
  0
LINE
  5
BE
330
1F
100
AcDbEntity
  8
JACKS
  6
CENTERX2
370
    18
100
AcDbLine
 10
233.2399230796
 20
218.5069972282
 30
0.0
 11
233.2399230796
 21
238.3069972282
 31
0.0
  0
LINE
  5
BF
330
1F
100
AcDbEntity
  8
JACKS
370
    18
100
AcDbLine
 10
271.1099230699
 20
170.0069972282
 30
0.0
 11
271.1099230699
 21
180.0069972282
 31
0.0
  0
LINE
  5
C0
330
1F
100
AcDbEntity
  8
JACKS
370
    18
100
AcDbLine
 10
271.1099230699
 20
180.0069972282
 30
0.0
 11
291.8099230699
 21
180.0069972282
 31
0.0
  0
LINE
  5
C1
330
1F
100
AcDbEntity
  8
JACKS
370
    18
100
AcDbLine
 10
291.8099230699
 20
180.0069972282
 30
0.0
 11
291.8099230699
 21
170.0069972282
 31
0.0
  0
LINE
  5
C2
330
1F
100
AcDbEntity
  8
JACKS
370
    18
100
AcDbLine
 10
291.8099230699
 20
170.0069972282
 30
0.0
 11
291.8099230699
 21
160.0069972282
 31
0.0
  0
LINE
  5
C3
330
1F
100
AcDbEntity
  8
JACKS
370
    18
100
AcDbLine
 10
291.8099230699
 20
160.0069972282
 30
0.0
 11
271.1099230699
 21
160.0069972282
 31
0.0
  0
LINE
  5
C4
330
1F
100
AcDbEntity
  8
JACKS
370
    18
100
AcDbLine
 10
271.1099230699
 20
160.0069972282
 30
0.0
 11
271.1099230699
 21
170.0069972282
 31
0.0
  0
LINE
  5
C5
330
1F
100
AcDbEntity
  8
JACKS
370
    18
100
AcDbLine
 10
271.1099230699
 20
165.5069972282
 30
0.0
 11
267.8099230699
 21
165.5069972282
 31
0.0
  0
LINE
  5
C6
330
1F
100
AcDbEntity
  8
JACKS
370
    18
100
AcDbLine
 10
267.8099230699
 20
165.5069972282
 30
0.0
 11
267.8099230699
 21
170.0069972282
 31
0.0
  0
LINE
  5
C7
330
1F
100
AcDbEntity
  8
JACKS
370
    18
100
AcDbLine
 10
267.8099230699
 20
170.0069972282
 30
0.0
 11
267.8099230699
 21
174.5069972282
 31
0.0
  0
LINE
  5
C8
330
1F
100
AcDbEntity
  8
JACKS
370
    18
100
AcDbLine
 10
267.8099230699
 20
174.5069972282
 30
0.0
 11
271.1099230699
 21
174.5069972282
 31
0.0
  0
LINE
  5
C9
330
1F
100
AcDbEntity
  8
JACKS
370
    18
100
AcDbLine
 10
291.8099230699
 20
175.4069972282
 30
0.0
 11
295.1099230699
 21
175.4069972282
 31
0.0
  0
LINE
  5
CA
330
1F
100
AcDbEntity
  8
JACKS
370
    18
100
AcDbLine
 10
295.1099230699
 20
175.4069972282
 30
0.0
 11
295.1099230699
 21
170.0069972282
 31
0.0
  0
LINE
  5
CB
330
1F
100
AcDbEntity
  8
JACKS
370
    18
100
AcDbLine
 10
295.1099230699
 20
170.0069972282
 30
0.0
 11
295.1099230699
 21
164.6069972282
 31
0.0
  0
LINE
  5
CC
330
1F
100
AcDbEntity
  8
JACKS
370
    18
100
AcDbLine
 10
295.1099230699
 20
164.6069972282
 30
0.0
 11
291.8099230699
 21
164.6069972282
 31
0.0
  0
LINE
  5
CD
330
1F
100
AcDbEntity
  8
JACKS
  6
CENTERX2
370
    18
100
AcDbLine
 10
267.8099230699
 20
170.0069972282
 30
0.0
 11
271.1099230699
 21
170.0069972282
 31
0.0
  0
LINE
  5
CE
330
1F
100
AcDbEntity
  8
JACKS
  6
CENTERX2
370
    18
100
AcDbLine
 10
291.8099230699
 20
170.0069972282
 30
0.0
 11
295.1099230699
 21
170.0069972282
 31
0.0
  0
LINE
  5
CF
330
1F
100
AcDbEntity
  8
JACKS
370
    18
100
AcDbLine
 10
267.8099230699
 20
146.3069972282
 30
0.0
 11
267.8099230699
 21
141.8069972282
 31
0.0
  0
LINE
  5
D0
330
1F
100
AcDbEntity
  8
JACKS
370
    18
100
AcDbLine
 10
267.8099230699
 20
141.8069972282
 30
0.0
 11
267.8099230699
 21
137.3069972282
 31
0.0
  0
LINE
  5
D1
330
1F
100
AcDbEntity
  8
JACKS
  6
CENTERX2
370
    18
100
AcDbLine
 10
271.1099230699
 20
170.0069972282
 30
0.0
 11
291.8099230699
 21
170.0069972282
 31
0.0
  0
LINE
  5
D2
330
1F
100
AcDbEntity
  8
JACKS
  6
CENTERX2
370
    18
100
AcDbLine
 10
295.1099230699
 20
170.0069972282
 30
0.0
 11
297.6099230699
 21
170.0069972282
 31
0.0
  0
LINE
  5
D3
330
1F
100
AcDbEntity
  8
JACKS
  6
CENTERX2
370
    18
100
AcDbLine
 10
267.8099230699
 20
141.8069972282
 30
0.0
 11
271.1099230699
 21
141.8069972282
 31
0.0
  0
LINE
  5
D4
330
1F
100
AcDbEntity
  8
JACKS
  6
CENTERX2
370
    18
100
AcDbLine
 10
271.1099230699
 20
141.8069972282
 30
0.0
 11
291.8099230699
 21
141.8069972282
 31
0.0
  0
LINE
  5
D5
330
1F
100
AcDbEntity
  8
JACKS
  6
CENTERX2
370
    18
100
AcDbLine
 10
291.8099230699
 20
141.8069972282
 30
0.0
 11
295.1099230699
 21
141.8069972282
 31
0.0
  0
LINE
  5
D6
330
1F
100
AcDbEntity
  8
JACKS
  6
CENTERX2
370
    18
100
AcDbLine
 10
295.1099230699
 20
141.8069972282
 30
0.0
 11
297.6099230699
 21
141.8069972282
 31
0.0
  0
LINE
  5
D7
330
1F
100
AcDbEntity
  8
JACKS
  6
CENTERX2
370
    18
100
AcDbLine
 10
267.8099230699
 20
121.6069972282
 30
0.0
 11
271.1099230699
 21
121.6069972282
 31
0.0
  0
LINE
  5
D8
330
1F
100
AcDbEntity
  8
JACKS
  6
CENTERX2
370
    18
100
AcDbLine
 10
271.1099230699
 20
121.6069972282
 30
0.0
 11
291.8099230699
 21
121.6069972282
 31
0.0
  0
LINE
  5
D9
330
1F
100
AcDbEntity
  8
JACKS
  6
CENTERX2
370
    18
100
AcDbLine
 10
291.8099230699
 20
121.6069972282
 30
0.0
 11
295.1099230699
 21
121.6069972282
 31
0.0
  0
LINE
  5
DA
330
1F
100
AcDbEntity
  8
JACKS
  6
CENTERX2
370
    18
100
AcDbLine
 10
295.1099230699
 20
121.6069972282
 30
0.0
 11
297.6099230699
 21
121.6069972282
 31
0.0
  0
LINE
  5
DB
330
1F
100
AcDbEntity
  8
JACKS
  6
CENTERX2
370
    18
100
AcDbLine
 10
147.4099230699
 20
170.0069972282
 30
0.0
 11
144.1099230699
 21
170.0069972282
 31
0.0
  0
LINE
  5
DC
330
1F
100
AcDbEntity
  8
JACKS
  6
CENTERX2
370
    18
100
AcDbLine
 10
144.1099230699
 20
170.0069972282
 30
0.0
 11
123.4099230699
 21
170.0069972282
 31
0.0
  0
LINE
  5
DD
330
1F
100
AcDbEntity
  8
JACKS
  6
CENTERX2
370
    18
100
AcDbLine
 10
123.4099230699
 20
170.0069972282
 30
0.0
 11
120.1099230699
 21
170.0069972282
 31
0.0
  0
LINE
  5
DE
330
1F
100
AcDbEntity
  8
JACKS
  6
CENTERX2
370
    18
100
AcDbLine
 10
120.1099230699
 20
170.0069972282
 30
0.0
 11
117.6099230699
 21
170.0069972282
 31
0.0
  0
LINE
  5
DF
330
1F
100
AcDbEntity
  8
JACKS
  6
CENTERX2
370
    18
100
AcDbLine
 10
147.4099230699
 20
141.8069972282
 30
0.0
 11
144.1099230699
 21
141.8069972282
 31
0.0
  0
LINE
  5
E0
330
1F
100
AcDbEntity
  8
JACKS
  6
CENTERX2
370
    18
100
AcDbLine
 10
144.1099230699
 20
141.8069972282
 30
0.0
 11
123.4099230699
 21
141.8069972282
 31
0.0
  0
LINE
  5
E1
330
1F
100
AcDbEntity
  8
JACKS
  6
CENTERX2
370
    18
100
AcDbLine
 10
123.4099230699
 20
141.8069972282
 30
0.0
 11
120.1099230699
 21
141.8069972282
 31
0.0
  0
LINE
  5
E2
330
1F
100
AcDbEntity
  8
JACKS
  6
CENTERX2
370
    18
100
AcDbLine
 10
120.1099230699
 20
141.8069972282
 30
0.0
 11
117.6099230699
 21
141.8069972282
 31
0.0
  0
LINE
  5
E3
330
1F
100
AcDbEntity
  8
JACKS
  6
CENTERX2
370
    18
100
AcDbLine
 10
147.4099230699
 20
121.6069972282
 30
0.0
 11
144.1099230699
 21
121.6069972282
 31
0.0
  0
LINE
  5
E4
330
1F
100
AcDbEntity
  8
JACKS
  6
CENTERX2
370
    18
100
AcDbLine
 10
144.1099230699
 20
121.6069972282
 30
0.0
 11
123.4099230699
 21
121.6069972282
 31
0.0
  0
LINE
  5
E5
330
1F
100
AcDbEntity
  8
JACKS
  6
CENTERX2
370
    18
100
AcDbLine
 10
123.4099230699
 20
121.6069972282
 30
0.0
 11
120.1099230699
 21
121.6069972282
 31
0.0
  0
LINE
  5
E6
330
1F
100
AcDbEntity
  8
JACKS
  6
CENTERX2
370
    18
100
AcDbLine
 10
120.1099230699
 20
121.6069972282
 30
0.0
 11
117.6099230699
 21
121.6069972282
 31
0.0
  0
LINE
  5
E7
330
1F
100
AcDbEntity
  8
JACKS
370
    18
100
AcDbLine
 10
271.1099230699
 20
141.8069972282
 30
0.0
 11
271.1099230699
 21
151.8069972282
 31
0.0
  0
LINE
  5
E8
330
1F
100
AcDbEntity
  8
JACKS
370
    18
100
AcDbLine
 10
271.1099230699
 20
151.8069972282
 30
0.0
 11
291.8099230699
 21
151.8069972282
 31
0.0
  0
LINE
  5
E9
330
1F
100
AcDbEntity
  8
JACKS
370
    18
100
AcDbLine
 10
291.8099230699
 20
151.8069972282
 30
0.0
 11
291.8099230699
 21
141.8069972282
 31
0.0
  0
LINE
  5
EA
330
1F
100
AcDbEntity
  8
JACKS
370
    18
100
AcDbLine
 10
291.8099230699
 20
141.8069972282
 30
0.0
 11
291.8099230699
 21
131.8069972282
 31
0.0
  0
LINE
  5
EB
330
1F
100
AcDbEntity
  8
JACKS
370
    18
100
AcDbLine
 10
291.8099230699
 20
131.8069972282
 30
0.0
 11
271.1099230699
 21
131.8069972282
 31
0.0
  0
LINE
  5
EC
330
1F
100
AcDbEntity
  8
JACKS
370
    18
100
AcDbLine
 10
271.1099230699
 20
131.8069972282
 30
0.0
 11
271.1099230699
 21
141.8069972282
 31
0.0
  0
LINE
  5
ED
330
1F
100
AcDbEntity
  8
JACKS
370
    18
100
AcDbLine
 10
271.1099230699
 20
146.3069972282
 30
0.0
 11
267.8099230699
 21
146.3069972282
 31
0.0
  0
LINE
  5
EE
330
1F
100
AcDbEntity
  8
JACKS
370
    18
100
AcDbLine
 10
267.8099230699
 20
137.3069972282
 30
0.0
 11
271.1099230699
 21
137.3069972282
 31
0.0
  0
LINE
  5
EF
330
1F
100
AcDbEntity
  8
JACKS
370
    18
100
AcDbLine
 10
291.8099230699
 20
136.4069972282
 30
0.0
 11
295.1099230699
 21
136.4069972282
 31
0.0
  0
LINE
  5
F0
330
1F
100
AcDbEntity
  8
JACKS
370
    18
100
AcDbLine
 10
295.1099230699
 20
136.4069972282
 30
0.0
 11
295.1099230699
 21
141.8069972282
 31
0.0
  0
LINE
  5
F1
330
1F
100
AcDbEntity
  8
JACKS
370
    18
100
AcDbLine
 10
295.1099230699
 20
141.8069972282
 30
0.0
 11
295.1099230699
 21
147.2069972282
 31
0.0
  0
LINE
  5
F2
330
1F
100
AcDbEntity
  8
JACKS
370
    18
100
AcDbLine
 10
295.1099230699
 20
147.2069972282
 30
0.0
 11
291.8099230699
 21
147.2069972282
 31
0.0
  0
LINE
  5
F3
330
1F
100
AcDbEntity
  8
JACKS
370
    18
100
AcDbLine
 10
271.1099230699
 20
121.6069972282
 30
0.0
 11
271.1099230699
 21
131.6069972282
 31
0.0
  0
LINE
  5
F4
330
1F
100
AcDbEntity
  8
JACKS
370
    18
100
AcDbLine
 10
271.1099230699
 20
131.6069972282
 30
0.0
 11
291.8099230699
 21
131.6069972282
 31
0.0
  0
LINE
  5
F5
330
1F
100
AcDbEntity
  8
JACKS
370
    18
100
AcDbLine
 10
291.8099230699
 20
131.6069972282
 30
0.0
 11
291.8099230699
 21
121.6069972282
 31
0.0
  0
LINE
  5
F6
330
1F
100
AcDbEntity
  8
JACKS
370
    18
100
AcDbLine
 10
291.8099230699
 20
127.0069972282
 30
0.0
 11
295.1099230699
 21
127.0069972282
 31
0.0
  0
LINE
  5
F7
330
1F
100
AcDbEntity
  8
JACKS
370
    18
100
AcDbLine
 10
295.1099230699
 20
127.0069972282
 30
0.0
 11
295.1099230699
 21
121.6069972282
 31
0.0
  0
LINE
  5
F8
330
1F
100
AcDbEntity
  8
JACKS
370
    18
100
AcDbLine
 10
295.1099230699
 20
121.6069972282
 30
0.0
 11
295.1099230699
 21
116.2069972282
 31
0.0
  0
LINE
  5
F9
330
1F
100
AcDbEntity
  8
JACKS
370
    18
100
AcDbLine
 10
295.1099230699
 20
116.2069972282
 30
0.0
 11
291.8099230699
 21
116.2069972282
 31
0.0
  0
LINE
  5
FA
330
1F
100
AcDbEntity
  8
JACKS
370
    18
100
AcDbLine
 10
291.8099230699
 20
121.6069972282
 30
0.0
 11
291.8099230699
 21
111.6069972282
 31
0.0
  0
LINE
  5
FB
330
1F
100
AcDbEntity
  8
JACKS
370
    18
100
AcDbLine
 10
291.8099230699
 20
111.6069972282
 30
0.0
 11
271.1099230699
 21
111.6069972282
 31
0.0
  0
LINE
  5
FC
330
1F
100
AcDbEntity
  8
JACKS
370
    18
100
AcDbLine
 10
271.1099230699
 20
111.6069972282
 30
0.0
 11
271.1099230699
 21
121.6069972282
 31
0.0
  0
LINE
  5
FD
330
1F
100
AcDbEntity
  8
JACKS
370
    18
100
AcDbLine
 10
271.1099230699
 20
117.1069972282
 30
0.0
 11
267.8099230699
 21
117.1069972282
 31
0.0
  0
LINE
  5
FE
330
1F
100
AcDbEntity
  8
JACKS
370
    18
100
AcDbLine
 10
267.8099230699
 20
117.1069972282
 30
0.0
 11
267.8099230699
 21
121.6069972282
 31
0.0
  0
LINE
  5
FF
330
1F
100
AcDbEntity
  8
JACKS
370
    18
100
AcDbLine
 10
267.8099230699
 20
121.6069972282
 30
0.0
 11
267.8099230699
 21
126.1069972282
 31
0.0
  0
LINE
  5
100
330
1F
100
AcDbEntity
  8
JACKS
370
    18
100
AcDbLine
 10
267.8099230699
 20
126.1069972282
 30
0.0
 11
271.1099230699
 21
126.1069972282
 31
0.0
  0
LINE
  5
101
330
1F
100
AcDbEntity
  8
JACKS
370
    18
100
AcDbLine
 10
123.4099230699
 20
121.6069972282
 30
0.0
 11
123.4099230699
 21
131.6069972282
 31
0.0
  0
LINE
  5
102
330
1F
100
AcDbEntity
  8
JACKS
370
    18
100
AcDbLine
 10
123.4099230699
 20
131.6069972282
 30
0.0
 11
144.1099230699
 21
131.6069972282
 31
0.0
  0
LINE
  5
103
330
1F
100
AcDbEntity
  8
JACKS
370
    18
100
AcDbLine
 10
144.1099230699
 20
131.6069972282
 30
0.0
 11
144.1099230699
 21
121.6069972282
 31
0.0
  0
LINE
  5
104
330
1F
100
AcDbEntity
  8
JACKS
370
    18
100
AcDbLine
 10
144.1099230699
 20
121.6069972282
 30
0.0
 11
144.1099230699
 21
111.6069972282
 31
0.0
  0
LINE
  5
105
330
1F
100
AcDbEntity
  8
JACKS
370
    18
100
AcDbLine
 10
144.1099230699
 20
111.6069972282
 30
0.0
 11
123.4099230699
 21
111.6069972282
 31
0.0
  0
LINE
  5
106
330
1F
100
AcDbEntity
  8
JACKS
370
    18
100
AcDbLine
 10
123.4099230699
 20
111.6069972282
 30
0.0
 11
123.4099230699
 21
121.6069972282
 31
0.0
  0
LINE
  5
107
330
1F
100
AcDbEntity
  8
JACKS
370
    18
100
AcDbLine
 10
144.1099230699
 20
126.1069972282
 30
0.0
 11
147.4099230699
 21
126.1069972282
 31
0.0
  0
LINE
  5
108
330
1F
100
AcDbEntity
  8
JACKS
370
    18
100
AcDbLine
 10
147.4099230699
 20
126.1069972282
 30
0.0
 11
147.4099230699
 21
121.6069972282
 31
0.0
  0
LINE
  5
109
330
1F
100
AcDbEntity
  8
JACKS
370
    18
100
AcDbLine
 10
147.4099230699
 20
121.6069972282
 30
0.0
 11
147.4099230699
 21
117.1069972282
 31
0.0
  0
LINE
  5
10A
330
1F
100
AcDbEntity
  8
JACKS
370
    18
100
AcDbLine
 10
147.4099230699
 20
117.1069972282
 30
0.0
 11
144.1099230699
 21
117.1069972282
 31
0.0
  0
LINE
  5
10B
330
1F
100
AcDbEntity
  8
JACKS
370
    18
100
AcDbLine
 10
123.4099230699
 20
116.2069972282
 30
0.0
 11
120.1099230699
 21
116.2069972282
 31
0.0
  0
LINE
  5
10C
330
1F
100
AcDbEntity
  8
JACKS
370
    18
100
AcDbLine
 10
120.1099230699
 20
116.2069972282
 30
0.0
 11
120.1099230699
 21
121.6069972282
 31
0.0
  0
LINE
  5
10D
330
1F
100
AcDbEntity
  8
JACKS
370
    18
100
AcDbLine
 10
120.1099230699
 20
121.6069972282
 30
0.0
 11
120.1099230699
 21
127.0069972282
 31
0.0
  0
LINE
  5
10E
330
1F
100
AcDbEntity
  8
JACKS
370
    18
100
AcDbLine
 10
120.1099230699
 20
127.0069972282
 30
0.0
 11
123.4099230699
 21
127.0069972282
 31
0.0
  0
LINE
  5
10F
330
1F
100
AcDbEntity
  8
JACKS
370
    18
100
AcDbLine
 10
123.4099230699
 20
141.8069972282
 30
0.0
 11
123.4099230699
 21
151.8069972282
 31
0.0
  0
LINE
  5
110
330
1F
100
AcDbEntity
  8
JACKS
370
    18
100
AcDbLine
 10
123.4099230699
 20
151.8069972282
 30
0.0
 11
144.1099230699
 21
151.8069972282
 31
0.0
  0
LINE
  5
111
330
1F
100
AcDbEntity
  8
JACKS
370
    18
100
AcDbLine
 10
144.1099230699
 20
151.8069972282
 30
0.0
 11
144.1099230699
 21
141.8069972282
 31
0.0
  0
LINE
  5
112
330
1F
100
AcDbEntity
  8
JACKS
370
    18
100
AcDbLine
 10
144.1099230699
 20
141.8069972282
 30
0.0
 11
144.1099230699
 21
131.8069972282
 31
0.0
  0
LINE
  5
113
330
1F
100
AcDbEntity
  8
JACKS
370
    18
100
AcDbLine
 10
144.1099230699
 20
131.8069972282
 30
0.0
 11
123.4099230699
 21
131.8069972282
 31
0.0
  0
LINE
  5
114
330
1F
100
AcDbEntity
  8
JACKS
370
    18
100
AcDbLine
 10
123.4099230699
 20
131.8069972282
 30
0.0
 11
123.4099230699
 21
141.8069972282
 31
0.0
  0
LINE
  5
115
330
1F
100
AcDbEntity
  8
JACKS
370
    18
100
AcDbLine
 10
123.4099230699
 20
136.4069972282
 30
0.0
 11
120.1099230699
 21
136.4069972282
 31
0.0
  0
LINE
  5
116
330
1F
100
AcDbEntity
  8
JACKS
370
    18
100
AcDbLine
 10
120.1099230699
 20
136.4069972282
 30
0.0
 11
120.1099230699
 21
141.8069972282
 31
0.0
  0
LINE
  5
117
330
1F
100
AcDbEntity
  8
JACKS
370
    18
100
AcDbLine
 10
120.1099230699
 20
141.8069972282
 30
0.0
 11
120.1099230699
 21
147.2069972282
 31
0.0
  0
LINE
  5
118
330
1F
100
AcDbEntity
  8
JACKS
370
    18
100
AcDbLine
 10
120.1099230699
 20
147.2069972282
 30
0.0
 11
123.4099230699
 21
147.2069972282
 31
0.0
  0
LINE
  5
119
330
1F
100
AcDbEntity
  8
JACKS
370
    18
100
AcDbLine
 10
144.1099230699
 20
146.3069972282
 30
0.0
 11
147.4099230699
 21
146.3069972282
 31
0.0
  0
LINE
  5
11A
330
1F
100
AcDbEntity
  8
JACKS
370
    18
100
AcDbLine
 10
147.4099230699
 20
146.3069972282
 30
0.0
 11
147.4099230699
 21
141.8069972282
 31
0.0
  0
LINE
  5
11B
330
1F
100
AcDbEntity
  8
JACKS
370
    18
100
AcDbLine
 10
147.4099230699
 20
141.8069972282
 30
0.0
 11
147.4099230699
 21
137.3069972282
 31
0.0
  0
LINE
  5
11C
330
1F
100
AcDbEntity
  8
JACKS
370
    18
100
AcDbLine
 10
147.4099230699
 20
137.3069972282
 30
0.0
 11
144.1099230699
 21
137.3069972282
 31
0.0
  0
LINE
  5
11D
330
1F
100
AcDbEntity
  8
JACKS
370
    18
100
AcDbLine
 10
123.4099230699
 20
170.0069972282
 30
0.0
 11
123.4099230699
 21
180.0069972282
 31
0.0
  0
LINE
  5
11E
330
1F
100
AcDbEntity
  8
JACKS
370
    18
100
AcDbLine
 10
123.4099230699
 20
180.0069972282
 30
0.0
 11
144.1099230699
 21
180.0069972282
 31
0.0
  0
LINE
  5
11F
330
1F
100
AcDbEntity
  8
JACKS
370
    18
100
AcDbLine
 10
144.1099230699
 20
180.0069972282
 30
0.0
 11
144.1099230699
 21
170.0069972282
 31
0.0
  0
LINE
  5
120
330
1F
100
AcDbEntity
  8
JACKS
370
    18
100
AcDbLine
 10
144.1099230699
 20
170.0069972282
 30
0.0
 11
144.1099230699
 21
160.0069972282
 31
0.0
  0
LINE
  5
121
330
1F
100
AcDbEntity
  8
JACKS
370
    18
100
AcDbLine
 10
144.1099230699
 20
160.0069972282
 30
0.0
 11
123.4099230699
 21
160.0069972282
 31
0.0
  0
LINE
  5
122
330
1F
100
AcDbEntity
  8
JACKS
370
    18
100
AcDbLine
 10
123.4099230699
 20
160.0069972282
 30
0.0
 11
123.4099230699
 21
170.0069972282
 31
0.0
  0
LINE
  5
123
330
1F
100
AcDbEntity
  8
JACKS
370
    18
100
AcDbLine
 10
123.4099230699
 20
164.6069972282
 30
0.0
 11
120.1099230699
 21
164.6069972282
 31
0.0
  0
LINE
  5
124
330
1F
100
AcDbEntity
  8
JACKS
370
    18
100
AcDbLine
 10
120.1099230699
 20
164.6069972282
 30
0.0
 11
120.1099230699
 21
170.0069972282
 31
0.0
  0
LINE
  5
125
330
1F
100
AcDbEntity
  8
JACKS
370
    18
100
AcDbLine
 10
120.1099230699
 20
170.0069972282
 30
0.0
 11
120.1099230699
 21
175.4069972282
 31
0.0
  0
LINE
  5
126
330
1F
100
AcDbEntity
  8
JACKS
370
    18
100
AcDbLine
 10
120.1099230699
 20
175.4069972282
 30
0.0
 11
123.4099230699
 21
175.4069972282
 31
0.0
  0
LINE
  5
127
330
1F
100
AcDbEntity
  8
JACKS
370
    18
100
AcDbLine
 10
144.1099230699
 20
174.5069972282
 30
0.0
 11
147.4099230699
 21
174.5069972282
 31
0.0
  0
LINE
  5
128
330
1F
100
AcDbEntity
  8
JACKS
370
    18
100
AcDbLine
 10
147.4099230699
 20
174.5069972282
 30
0.0
 11
147.4099230699
 21
170.0069972282
 31
0.0
  0
LINE
  5
129
330
1F
100
AcDbEntity
  8
JACKS
370
    18
100
AcDbLine
 10
147.4099230699
 20
170.0069972282
 30
0.0
 11
147.4099230699
 21
165.5069972282
 31
0.0
  0
LINE
  5
12A
330
1F
100
AcDbEntity
  8
JACKS
370
    18
100
AcDbLine
 10
147.4099230699
 20
165.5069972282
 30
0.0
 11
144.1099230699
 21
165.5069972282
 31
0.0
  0
LINE
  5
12B
330
1F
100
AcDbEntity
  8
SODIMM
370
    18
100
AcDbLine
 10
174.8099230699
 20
178.4969972282
 30
0.0
 11
174.8099230699
 21
204.1969972282
 31
0.0
  0
LINE
  5
12C
330
1F
100
AcDbEntity
  8
SODIMM
370
    18
100
AcDbLine
 10
174.8099230699
 20
204.1969972282
 30
0.0
 11
175.6099230699
 21
204.1969972282
 31
0.0
  0
LINE
  5
12D
330
1F
100
AcDbEntity
  8
SODIMM
370
    18
100
AcDbLine
 10
175.6099230699
 20
204.1969972282
 30
0.0
 11
175.6099230699
 21
203.0469972282
 31
0.0
  0
LINE
  5
12E
330
1F
100
AcDbEntity
  8
SODIMM
370
    18
100
AcDbLine
 10
175.6099230699
 20
203.0469972282
 30
0.0
 11
245.6099230699
 21
203.0469972282
 31
0.0
  0
LINE
  5
12F
330
1F
100
AcDbEntity
  8
SODIMM
370
    18
100
AcDbLine
 10
245.6099230699
 20
203.0469972282
 30
0.0
 11
245.6099230699
 21
204.1969972282
 31
0.0
  0
LINE
  5
130
330
1F
100
AcDbEntity
  8
SODIMM
370
    18
100
AcDbLine
 10
245.6099230699
 20
204.1969972282
 30
0.0
 11
246.4099230699
 21
204.1969972282
 31
0.0
  0
LINE
  5
131
330
1F
100
AcDbEntity
  8
SODIMM
370
    18
100
AcDbLine
 10
246.4099230699
 20
204.1969972282
 30
0.0
 11
246.4099230699
 21
178.4969972282
 31
0.0
  0
LINE
  5
132
330
1F
100
AcDbEntity
  8
SODIMM
370
    18
100
AcDbLine
 10
246.4099230699
 20
178.4969972282
 30
0.0
 11
245.6099230699
 21
178.4969972282
 31
0.0
  0
LINE
  5
133
330
1F
100
AcDbEntity
  8
SODIMM
370
    18
100
AcDbLine
 10
245.6099230699
 20
178.4969972282
 30
0.0
 11
245.6099230699
 21
185.9269972282
 31
0.0
  0
LINE
  5
134
330
1F
100
AcDbEntity
  8
SODIMM
370
    18
100
AcDbLine
 10
245.6099230699
 20
185.9269972282
 30
0.0
 11
243.4599230699
 21
185.9269972282
 31
0.0
  0
LINE
  5
135
330
1F
100
AcDbEntity
  8
SODIMM
370
    18
100
AcDbLine
 10
243.4599230699
 20
185.9269972282
 30
0.0
 11
243.4599230699
 21
188.9269972282
 31
0.0
  0
LINE
  5
136
330
1F
100
AcDbEntity
  8
SODIMM
370
    18
100
AcDbLine
 10
243.4599230699
 20
188.9269972282
 30
0.0
 11
245.6099230699
 21
188.9269972282
 31
0.0
  0
LINE
  5
137
330
1F
100
AcDbEntity
  8
SODIMM
370
    18
100
AcDbLine
 10
245.6099230699
 20
188.9269972282
 30
0.0
 11
245.6099230699
 21
197.6469972282
 31
0.0
  0
LINE
  5
138
330
1F
100
AcDbEntity
  8
SODIMM
370
    18
100
AcDbLine
 10
245.6099230699
 20
197.6469972282
 30
0.0
 11
175.6099230699
 21
197.6469972282
 31
0.0
  0
LINE
  5
139
330
1F
100
AcDbEntity
  8
SODIMM
370
    18
100
AcDbLine
 10
175.6099230699
 20
197.6469972282
 30
0.0
 11
175.6099230699
 21
188.9269972282
 31
0.0
  0
LINE
  5
13A
330
1F
100
AcDbEntity
  8
SODIMM
370
    18
100
AcDbLine
 10
175.6099230699
 20
178.4969972282
 30
0.0
 11
174.8099230699
 21
178.4969972282
 31
0.0
  0
LINE
  5
13B
330
1F
100
AcDbEntity
  8
SODIMM
370
    18
100
AcDbLine
 10
174.8099230699
 20
200.3469972282
 30
0.0
 11
173.9599230699
 21
200.3469972282
 31
0.0
  0
LINE
  5
13C
330
1F
100
AcDbEntity
  8
SODIMM
370
    18
100
AcDbLine
 10
173.9599230699
 20
200.3469972282
 30
0.0
 11
173.9599230699
 21
191.4969972282
 31
0.0
  0
LINE
  5
13D
330
1F
100
AcDbEntity
  8
SODIMM
370
    18
100
AcDbLine
 10
173.9599230699
 20
191.4969972282
 30
0.0
 11
174.8099230699
 21
191.4969972282
 31
0.0
  0
LINE
  5
13E
330
1F
100
AcDbEntity
  8
SODIMM
370
    18
100
AcDbLine
 10
246.4099230699
 20
200.3469972282
 30
0.0
 11
247.2599230699
 21
200.3469972282
 31
0.0
  0
LINE
  5
13F
330
1F
100
AcDbEntity
  8
SODIMM
370
    18
100
AcDbLine
 10
247.2599230699
 20
200.3469972282
 30
0.0
 11
247.2599230699
 21
191.4969972282
 31
0.0
  0
LINE
  5
140
330
1F
100
AcDbEntity
  8
SODIMM
370
    18
100
AcDbLine
 10
247.2599230699
 20
191.4969972282
 30
0.0
 11
246.4099230699
 21
191.4969972282
 31
0.0
  0
LINE
  5
141
330
1F
100
AcDbEntity
  8
SODIMM
370
    18
100
AcDbLine
 10
245.6099230699
 20
191.4969972282
 30
0.0
 11
245.00992307
 21
191.4969972282
 31
0.0
  0
LINE
  5
142
330
1F
100
AcDbEntity
  8
SODIMM
370
    18
100
AcDbLine
 10
245.00992307
 20
191.4969972282
 30
0.0
 11
245.00992307
 21
195.7969972282
 31
0.0
  0
LINE
  5
143
330
1F
100
AcDbEntity
  8
SODIMM
370
    18
100
AcDbLine
 10
245.00992307
 20
195.7969972282
 30
0.0
 11
176.2099230699
 21
195.7969972282
 31
0.0
  0
LINE
  5
144
330
1F
100
AcDbEntity
  8
SODIMM
370
    18
100
AcDbLine
 10
176.2099230699
 20
195.7969972282
 30
0.0
 11
176.2099230699
 21
191.4969972282
 31
0.0
  0
LINE
  5
145
330
1F
100
AcDbEntity
  8
SODIMM
370
    18
100
AcDbLine
 10
176.2099230699
 20
191.4969972282
 30
0.0
 11
175.6099230699
 21
191.4969972282
 31
0.0
  0
LINE
  5
146
330
1F
100
AcDbEntity
  8
SODIMM
370
    18
100
AcDbLine
 10
177.4099230699
 20
203.0469972282
 30
0.0
 11
177.4099230699
 21
203.6269972282
 31
0.0
  0
LINE
  5
147
330
1F
100
AcDbEntity
  8
SODIMM
370
    18
100
AcDbLine
 10
177.4099230699
 20
203.6269972282
 30
0.0
 11
177.4849230699
 21
203.6269972282
 31
0.0
  0
LINE
  5
148
330
1F
100
AcDbEntity
  8
SODIMM
370
    18
100
AcDbLine
 10
177.4849230699
 20
203.6269972282
 30
0.0
 11
177.5599230699
 21
203.6269972282
 31
0.0
  0
LINE
  5
149
330
1F
100
AcDbEntity
  8
SODIMM
370
    18
100
AcDbLine
 10
177.5599230699
 20
203.6269972282
 30
0.0
 11
177.5599230699
 21
203.0469972282
 31
0.0
  0
LINE
  5
14A
330
1F
100
AcDbEntity
  8
SODIMM
370
    18
100
AcDbLine
 10
177.9099230699
 20
203.0469972282
 30
0.0
 11
177.9099230699
 21
203.6269972282
 31
0.0
  0
LINE
  5
14B
330
1F
100
AcDbEntity
  8
SODIMM
370
    18
100
AcDbLine
 10
177.9099230699
 20
203.6269972282
 30
0.0
 11
177.9849230699
 21
203.6269972282
 31
0.0
  0
LINE
  5
14C
330
1F
100
AcDbEntity
  8
SODIMM
370
    18
100
AcDbLine
 10
177.9849230699
 20
203.6269972282
 30
0.0
 11
178.0599230699
 21
203.6269972282
 31
0.0
  0
LINE
  5
14D
330
1F
100
AcDbEntity
  8
SODIMM
370
    18
100
AcDbLine
 10
178.0599230699
 20
203.6269972282
 30
0.0
 11
178.0599230699
 21
203.0469972282
 31
0.0
  0
LINE
  5
14E
330
1F
100
AcDbEntity
  8
SODIMM
370
    18
100
AcDbLine
 10
205.4099230699
 20
203.0469972282
 30
0.0
 11
205.4099230699
 21
203.6269972282
 31
0.0
  0
LINE
  5
14F
330
1F
100
AcDbEntity
  8
SODIMM
370
    18
100
AcDbLine
 10
205.4099230699
 20
203.6269972282
 30
0.0
 11
205.4849230699
 21
203.6269972282
 31
0.0
  0
LINE
  5
150
330
1F
100
AcDbEntity
  8
SODIMM
370
    18
100
AcDbLine
 10
205.4849230699
 20
203.6269972282
 30
0.0
 11
205.5599230699
 21
203.6269972282
 31
0.0
  0
LINE
  5
151
330
1F
100
AcDbEntity
  8
SODIMM
370
    18
100
AcDbLine
 10
205.5599230699
 20
203.6269972282
 30
0.0
 11
205.5599230699
 21
203.0469972282
 31
0.0
  0
LINE
  5
152
330
1F
100
AcDbEntity
  8
SODIMM
370
    18
100
AcDbLine
 10
205.9099230699
 20
203.0469972282
 30
0.0
 11
205.9099230699
 21
203.6269972282
 31
0.0
  0
LINE
  5
153
330
1F
100
AcDbEntity
  8
SODIMM
370
    18
100
AcDbLine
 10
205.9099230699
 20
203.6269972282
 30
0.0
 11
205.9849230699
 21
203.6269972282
 31
0.0
  0
LINE
  5
154
330
1F
100
AcDbEntity
  8
SODIMM
370
    18
100
AcDbLine
 10
205.9849230699
 20
203.6269972282
 30
0.0
 11
206.0599230699
 21
203.6269972282
 31
0.0
  0
LINE
  5
155
330
1F
100
AcDbEntity
  8
SODIMM
370
    18
100
AcDbLine
 10
206.0599230699
 20
203.6269972282
 30
0.0
 11
206.0599230699
 21
203.0469972282
 31
0.0
  0
LINE
  5
156
330
1F
100
AcDbEntity
  8
SODIMM
370
    18
100
AcDbLine
 10
208.40992307
 20
203.0469972282
 30
0.0
 11
208.40992307
 21
203.6269972282
 31
0.0
  0
LINE
  5
157
330
1F
100
AcDbEntity
  8
SODIMM
370
    18
100
AcDbLine
 10
208.40992307
 20
203.6269972282
 30
0.0
 11
208.4849230699
 21
203.6269972282
 31
0.0
  0
LINE
  5
158
330
1F
100
AcDbEntity
  8
SODIMM
370
    18
100
AcDbLine
 10
208.4849230699
 20
203.6269972282
 30
0.0
 11
208.5599230699
 21
203.6269972282
 31
0.0
  0
LINE
  5
159
330
1F
100
AcDbEntity
  8
SODIMM
370
    18
100
AcDbLine
 10
208.5599230699
 20
203.6269972282
 30
0.0
 11
208.5599230699
 21
203.0469972282
 31
0.0
  0
LINE
  5
15A
330
1F
100
AcDbEntity
  8
SODIMM
370
    18
100
AcDbLine
 10
208.90992307
 20
203.0469972282
 30
0.0
 11
208.90992307
 21
203.6269972282
 31
0.0
  0
LINE
  5
15B
330
1F
100
AcDbEntity
  8
SODIMM
370
    18
100
AcDbLine
 10
208.90992307
 20
203.6269972282
 30
0.0
 11
208.9849230699
 21
203.6269972282
 31
0.0
  0
LINE
  5
15C
330
1F
100
AcDbEntity
  8
SODIMM
370
    18
100
AcDbLine
 10
208.9849230699
 20
203.6269972282
 30
0.0
 11
209.0599230699
 21
203.6269972282
 31
0.0
  0
LINE
  5
15D
330
1F
100
AcDbEntity
  8
SODIMM
370
    18
100
AcDbLine
 10
209.0599230699
 20
203.6269972282
 30
0.0
 11
209.0599230699
 21
203.0469972282
 31
0.0
  0
LINE
  5
15E
330
1F
100
AcDbEntity
  8
SODIMM
370
    18
100
AcDbLine
 10
243.4099230699
 20
203.0469972282
 30
0.0
 11
243.4099230699
 21
203.6269972282
 31
0.0
  0
LINE
  5
15F
330
1F
100
AcDbEntity
  8
SODIMM
370
    18
100
AcDbLine
 10
243.4099230699
 20
203.6269972282
 30
0.0
 11
243.4849230699
 21
203.6269972282
 31
0.0
  0
LINE
  5
160
330
1F
100
AcDbEntity
  8
SODIMM
370
    18
100
AcDbLine
 10
243.4849230699
 20
203.6269972282
 30
0.0
 11
243.5599230699
 21
203.6269972282
 31
0.0
  0
LINE
  5
161
330
1F
100
AcDbEntity
  8
SODIMM
370
    18
100
AcDbLine
 10
243.5599230699
 20
203.6269972282
 30
0.0
 11
243.5599230699
 21
203.0469972282
 31
0.0
  0
LINE
  5
162
330
1F
100
AcDbEntity
  8
SODIMM
370
    18
100
AcDbLine
 10
243.9099230699
 20
203.0469972282
 30
0.0
 11
243.9099230699
 21
203.6269972282
 31
0.0
  0
LINE
  5
163
330
1F
100
AcDbEntity
  8
SODIMM
370
    18
100
AcDbLine
 10
243.9099230699
 20
203.6269972282
 30
0.0
 11
243.9849230699
 21
203.6269972282
 31
0.0
  0
LINE
  5
164
330
1F
100
AcDbEntity
  8
SODIMM
370
    18
100
AcDbLine
 10
243.9849230699
 20
203.6269972282
 30
0.0
 11
244.0599230699
 21
203.6269972282
 31
0.0
  0
LINE
  5
165
330
1F
100
AcDbEntity
  8
SODIMM
370
    18
100
AcDbLine
 10
244.0599230699
 20
203.6269972282
 30
0.0
 11
244.0599230699
 21
203.0469972282
 31
0.0
  0
LINE
  5
166
330
1F
100
AcDbEntity
  8
SODIMM
370
    18
100
AcDbLine
 10
243.8099230699
 20
195.7969972282
 30
0.0
 11
243.8099230699
 21
195.2269972282
 31
0.0
  0
LINE
  5
167
330
1F
100
AcDbEntity
  8
SODIMM
370
    18
100
AcDbLine
 10
243.8099230699
 20
195.2269972282
 30
0.0
 11
243.7349230699
 21
195.2269972282
 31
0.0
  0
LINE
  5
168
330
1F
100
AcDbEntity
  8
SODIMM
370
    18
100
AcDbLine
 10
243.7349230699
 20
195.2269972282
 30
0.0
 11
243.6599230699
 21
195.2269972282
 31
0.0
  0
LINE
  5
169
330
1F
100
AcDbEntity
  8
SODIMM
370
    18
100
AcDbLine
 10
243.6599230699
 20
195.2269972282
 30
0.0
 11
243.6599230699
 21
195.7969972282
 31
0.0
  0
LINE
  5
16A
330
1F
100
AcDbEntity
  8
SODIMM
370
    18
100
AcDbLine
 10
243.3099230699
 20
195.7969972282
 30
0.0
 11
243.3099230699
 21
195.2269972282
 31
0.0
  0
LINE
  5
16B
330
1F
100
AcDbEntity
  8
SODIMM
370
    18
100
AcDbLine
 10
243.3099230699
 20
195.2269972282
 30
0.0
 11
243.2349230699
 21
195.2269972282
 31
0.0
  0
LINE
  5
16C
330
1F
100
AcDbEntity
  8
SODIMM
370
    18
100
AcDbLine
 10
243.2349230699
 20
195.2269972282
 30
0.0
 11
243.1599230699
 21
195.2269972282
 31
0.0
  0
LINE
  5
16D
330
1F
100
AcDbEntity
  8
SODIMM
370
    18
100
AcDbLine
 10
243.1599230699
 20
195.2269972282
 30
0.0
 11
243.1599230699
 21
195.7969972282
 31
0.0
  0
LINE
  5
16E
330
1F
100
AcDbEntity
  8
SODIMM
370
    18
100
AcDbLine
 10
208.8099230699
 20
195.7969972282
 30
0.0
 11
208.8099230699
 21
195.2269972282
 31
0.0
  0
LINE
  5
16F
330
1F
100
AcDbEntity
  8
SODIMM
370
    18
100
AcDbLine
 10
208.8099230699
 20
195.2269972282
 30
0.0
 11
208.7349230699
 21
195.2269972282
 31
0.0
  0
LINE
  5
170
330
1F
100
AcDbEntity
  8
SODIMM
370
    18
100
AcDbLine
 10
208.7349230699
 20
195.2269972282
 30
0.0
 11
208.65992307
 21
195.2269972282
 31
0.0
  0
LINE
  5
171
330
1F
100
AcDbEntity
  8
SODIMM
370
    18
100
AcDbLine
 10
208.65992307
 20
195.2269972282
 30
0.0
 11
208.65992307
 21
195.7969972282
 31
0.0
  0
LINE
  5
172
330
1F
100
AcDbEntity
  8
SODIMM
370
    18
100
AcDbLine
 10
208.3099230699
 20
195.7969972282
 30
0.0
 11
208.3099230699
 21
195.2269972282
 31
0.0
  0
LINE
  5
173
330
1F
100
AcDbEntity
  8
SODIMM
370
    18
100
AcDbLine
 10
208.3099230699
 20
195.2269972282
 30
0.0
 11
208.2349230699
 21
195.2269972282
 31
0.0
  0
LINE
  5
174
330
1F
100
AcDbEntity
  8
SODIMM
370
    18
100
AcDbLine
 10
208.2349230699
 20
195.2269972282
 30
0.0
 11
208.15992307
 21
195.2269972282
 31
0.0
  0
LINE
  5
175
330
1F
100
AcDbEntity
  8
SODIMM
370
    18
100
AcDbLine
 10
208.15992307
 20
195.2269972282
 30
0.0
 11
208.15992307
 21
195.7969972282
 31
0.0
  0
LINE
  5
176
330
1F
100
AcDbEntity
  8
SODIMM
370
    18
100
AcDbLine
 10
205.8099230699
 20
195.7969972282
 30
0.0
 11
205.8099230699
 21
195.2269972282
 31
0.0
  0
LINE
  5
177
330
1F
100
AcDbEntity
  8
SODIMM
370
    18
100
AcDbLine
 10
205.8099230699
 20
195.2269972282
 30
0.0
 11
205.7349230699
 21
195.2269972282
 31
0.0
  0
LINE
  5
178
330
1F
100
AcDbEntity
  8
SODIMM
370
    18
100
AcDbLine
 10
205.7349230699
 20
195.2269972282
 30
0.0
 11
205.6599230699
 21
195.2269972282
 31
0.0
  0
LINE
  5
179
330
1F
100
AcDbEntity
  8
SODIMM
370
    18
100
AcDbLine
 10
205.6599230699
 20
195.2269972282
 30
0.0
 11
205.6599230699
 21
195.7969972282
 31
0.0
  0
LINE
  5
17A
330
1F
100
AcDbEntity
  8
SODIMM
370
    18
100
AcDbLine
 10
205.3099230699
 20
195.7969972282
 30
0.0
 11
205.3099230699
 21
195.2269972282
 31
0.0
  0
LINE
  5
17B
330
1F
100
AcDbEntity
  8
SODIMM
370
    18
100
AcDbLine
 10
205.3099230699
 20
195.2269972282
 30
0.0
 11
205.2349230699
 21
195.2269972282
 31
0.0
  0
LINE
  5
17C
330
1F
100
AcDbEntity
  8
SODIMM
370
    18
100
AcDbLine
 10
205.2349230699
 20
195.2269972282
 30
0.0
 11
205.1599230699
 21
195.2269972282
 31
0.0
  0
LINE
  5
17D
330
1F
100
AcDbEntity
  8
SODIMM
370
    18
100
AcDbLine
 10
205.1599230699
 20
195.2269972282
 30
0.0
 11
205.1599230699
 21
195.7969972282
 31
0.0
  0
LINE
  5
17E
330
1F
100
AcDbEntity
  8
SODIMM
370
    18
100
AcDbLine
 10
177.8099230699
 20
195.7969972282
 30
0.0
 11
177.8099230699
 21
195.2269972282
 31
0.0
  0
LINE
  5
17F
330
1F
100
AcDbEntity
  8
SODIMM
370
    18
100
AcDbLine
 10
177.8099230699
 20
195.2269972282
 30
0.0
 11
177.7349230699
 21
195.2269972282
 31
0.0
  0
LINE
  5
180
330
1F
100
AcDbEntity
  8
SODIMM
370
    18
100
AcDbLine
 10
177.7349230699
 20
195.2269972282
 30
0.0
 11
177.6599230699
 21
195.2269972282
 31
0.0
  0
LINE
  5
181
330
1F
100
AcDbEntity
  8
SODIMM
370
    18
100
AcDbLine
 10
177.6599230699
 20
195.2269972282
 30
0.0
 11
177.6599230699
 21
195.7969972282
 31
0.0
  0
LINE
  5
182
330
1F
100
AcDbEntity
  8
SODIMM
370
    18
100
AcDbLine
 10
177.3099230699
 20
195.7969972282
 30
0.0
 11
177.3099230699
 21
195.2269972282
 31
0.0
  0
LINE
  5
183
330
1F
100
AcDbEntity
  8
SODIMM
370
    18
100
AcDbLine
 10
177.3099230699
 20
195.2269972282
 30
0.0
 11
177.2349230699
 21
195.2269972282
 31
0.0
  0
LINE
  5
184
330
1F
100
AcDbEntity
  8
SODIMM
370
    18
100
AcDbLine
 10
177.2349230699
 20
195.2269972282
 30
0.0
 11
177.1599230699
 21
195.2269972282
 31
0.0
  0
LINE
  5
185
330
1F
100
AcDbEntity
  8
SODIMM
370
    18
100
AcDbLine
 10
177.1599230699
 20
195.2269972282
 30
0.0
 11
177.1599230699
 21
195.7969972282
 31
0.0
  0
LINE
  5
186
330
1F
100
AcDbEntity
  8
SODIMM
370
    18
100
AcDbLine
 10
207.5799230699
 20
196.2669972282
 30
0.0
 11
207.5799230699
 21
197.6469972282
 31
0.0
  0
LINE
  5
187
330
1F
100
AcDbEntity
  8
SODIMM
370
    18
100
AcDbLine
 10
206.6399230699
 20
196.2669972282
 30
0.0
 11
206.6399230699
 21
197.6469972282
 31
0.0
  0
LINE
  5
188
330
1F
100
AcDbEntity
  8
SODIMM
370
    18
100
AcDbLine
 10
175.6099230699
 20
188.9269972282
 30
0.0
 11
177.75992307
 21
188.9269972282
 31
0.0
  0
LINE
  5
189
330
1F
100
AcDbEntity
  8
SODIMM
370
    18
100
AcDbLine
 10
177.75992307
 20
188.9269972282
 30
0.0
 11
177.75992307
 21
185.9269972282
 31
0.0
  0
LINE
  5
18A
330
1F
100
AcDbEntity
  8
SODIMM
370
    18
100
AcDbLine
 10
177.75992307
 20
185.9269972282
 30
0.0
 11
175.6099230699
 21
185.9269972282
 31
0.0
  0
LINE
  5
18B
330
1F
100
AcDbEntity
  8
SODIMM
370
    18
100
AcDbLine
 10
175.6099230699
 20
185.9269972282
 30
0.0
 11
175.6099230699
 21
178.4969972282
 31
0.0
  0
LINE
  5
18C
330
1F
100
AcDbEntity
  8
SOM
370
    18
100
AcDbLine
 10
175.8099230699
 20
198.9069972282
 30
0.0
 11
176.4099230699
 21
199.5069972282
 31
0.0
  0
LINE
  5
18D
330
1F
100
AcDbEntity
  8
SOM
370
    18
100
AcDbLine
 10
176.4099230699
 20
199.5069972282
 30
0.0
 11
206.3599230699
 21
199.5069972282
 31
0.0
  0
LINE
  5
18E
330
1F
100
AcDbEntity
  8
SOM
370
    18
100
AcDbLine
 10
206.3599230699
 20
199.5069972282
 30
0.0
 11
206.6099230699
 21
199.2569972282
 31
0.0
  0
LINE
  5
18F
330
1F
100
AcDbEntity
  8
SOM
370
    18
100
AcDbLine
 10
206.6099230699
 20
199.2569972282
 30
0.0
 11
206.6099230699
 21
196.0069972282
 31
0.0
  0
LINE
  5
190
330
1F
100
AcDbEntity
  8
SOM
370
    18
100
AcDbLine
 10
207.6099230699
 20
196.0069972282
 30
0.0
 11
207.6099230699
 21
199.2569972282
 31
0.0
  0
LINE
  5
191
330
1F
100
AcDbEntity
  8
SOM
370
    18
100
AcDbLine
 10
207.6099230699
 20
199.2569972282
 30
0.0
 11
207.8599230699
 21
199.5069972282
 31
0.0
  0
LINE
  5
192
330
1F
100
AcDbEntity
  8
SOM
370
    18
100
AcDbLine
 10
207.8599230699
 20
199.5069972282
 30
0.0
 11
244.8099230699
 21
199.5069972282
 31
0.0
  0
LINE
  5
193
330
1F
100
AcDbEntity
  8
SOM
370
    18
100
AcDbLine
 10
244.8099230699
 20
199.5069972282
 30
0.0
 11
245.4099230699
 21
198.9069972282
 31
0.0
  0
LINE
  5
194
330
1F
100
AcDbEntity
  8
SOM
370
    18
100
AcDbLine
 10
245.4099230699
 20
198.9069972282
 30
0.0
 11
245.4099230699
 21
181.5069972282
 31
0.0
  0
LINE
  5
195
330
1F
100
AcDbEntity
  8
SOM
370
    18
100
AcDbLine
 10
245.4099230699
 20
181.5069972282
 30
0.0
 11
244.3099230699
 21
181.5069972282
 31
0.0
  0
LINE
  5
196
330
1F
100
AcDbEntity
  8
SOM
370
    18
100
AcDbLine
 10
243.6599230699
 20
180.8569972282
 30
0.0
 11
243.6599230699
 21
178.1569972282
 31
0.0
  0
LINE
  5
197
330
1F
100
AcDbEntity
  8
SOM
370
    18
100
AcDbLine
 10
244.3099230699
 20
177.5069972282
 30
0.0
 11
245.4099230699
 21
177.5069972282
 31
0.0
  0
LINE
  5
198
330
1F
100
AcDbEntity
  8
SOM
370
    18
100
AcDbLine
 10
245.4099230699
 20
177.5069972282
 30
0.0
 11
245.4099230699
 21
144.5069972282
 31
0.0
  0
LINE
  5
199
330
1F
100
AcDbEntity
  8
SOM
370
    18
100
AcDbLine
 10
245.4099230699
 20
144.5069972282
 30
0.0
 11
175.8099230699
 21
144.5069972282
 31
0.0
  0
LINE
  5
19A
330
1F
100
AcDbEntity
  8
SOM
370
    18
100
AcDbLine
 10
175.8099230699
 20
144.5069972282
 30
0.0
 11
175.8099230699
 21
177.5069972282
 31
0.0
  0
LINE
  5
19B
330
1F
100
AcDbEntity
  8
SOM
370
    18
100
AcDbLine
 10
175.8099230699
 20
177.5069972282
 30
0.0
 11
176.9099230699
 21
177.5069972282
 31
0.0
  0
LINE
  5
19C
330
1F
100
AcDbEntity
  8
SOM
370
    18
100
AcDbLine
 10
177.5599230699
 20
178.1569972282
 30
0.0
 11
177.5599230699
 21
180.8569972282
 31
0.0
  0
LINE
  5
19D
330
1F
100
AcDbEntity
  8
SOM
370
    18
100
AcDbLine
 10
176.9099230699
 20
181.5069972282
 30
0.0
 11
175.8099230699
 21
181.5069972282
 31
0.0
  0
LINE
  5
19E
330
1F
100
AcDbEntity
  8
SOM
370
    18
100
AcDbLine
 10
175.8099230699
 20
181.5069972282
 30
0.0
 11
175.8099230699
 21
198.9069972282
 31
0.0
  0
LINE
  5
19F
330
1F
100
AcDbEntity
  8
HEATSINK
370
    18
100
AcDbLine
 10
123.1099230699
 20
192.9389632374
 30
0.0
 11
172.6099230699
 21
192.9389632374
 31
0.0
  0
LINE
  5
1A0
330
1F
100
AcDbEntity
  8
HEATSINK
370
    18
100
AcDbLine
 10
123.1099230699
 20
180.9389632374
 30
0.0
 11
172.6099230699
 21
180.9389632374
 31
0.0
  0
LINE
  5
1A1
330
1F
100
AcDbEntity
  8
HEATSINK
370
    18
100
AcDbLine
 10
121.1099230699
 20
190.9389632374
 30
0.0
 11
121.1099230699
 21
182.9389632374
 31
0.0
  0
LINE
  5
1A2
330
1F
100
AcDbEntity
  8
HEATSINK
370
    18
100
AcDbLine
 10
174.6099230699
 20
194.9389632374
 30
0.0
 11
174.6099230699
 21
198.7069972282
 31
0.0
  0
LINE
  5
1A3
330
1F
100
AcDbEntity
  8
HEATSINK
370
    18
100
AcDbLine
 10
174.6099230699
 20
178.9389632374
 30
0.0
 11
174.6099230699
 21
145.3069972282
 31
0.0
  0
LINE
  5
1A4
330
1F
100
AcDbEntity
  8
HEATSINK
370
    18
100
AcDbLine
 10
176.6099230699
 20
143.3069972282
 30
0.0
 11
199.6099230699
 21
143.3069972282
 31
0.0
  0
LINE
  5
1A5
330
1F
100
AcDbEntity
  8
HEATSINK
370
    18
100
AcDbLine
 10
215.6099230699
 20
143.3069972282
 30
0.0
 11
244.6099230699
 21
143.3069972282
 31
0.0
  0
LINE
  5
1A6
330
1F
100
AcDbEntity
  8
HEATSINK
370
    18
100
AcDbLine
 10
201.6099230699
 20
141.3069972282
 30
0.0
 11
201.6099230699
 21
87.0069972282
 31
0.0
  0
LINE
  5
1A7
330
1F
100
AcDbEntity
  8
HEATSINK
370
    18
100
AcDbLine
 10
213.6099230699
 20
87.0069972282
 30
0.0
 11
213.6099230699
 21
141.3069972282
 31
0.0
  0
LINE
  5
1A8
330
1F
100
AcDbEntity
  8
HEATSINK
370
    18
100
AcDbLine
 10
203.6099230699
 20
85.0069972282
 30
0.0
 11
211.6099230699
 21
85.0069972282
 31
0.0
  0
LINE
  5
1A9
330
1F
100
AcDbEntity
  8
TABLES
  6
HIDDEN
370
    18
100
AcDbLine
 10
127.6099230699
 20
97.5069972282
 30
0.0
 11
287.6099230699
 21
97.5069972282
 31
0.0
  0
LINE
  5
1AA
330
1F
100
AcDbEntity
  8
HEATSINK
370
    18
100
AcDbLine
 10
246.6099230699
 20
198.7069972282
 30
0.0
 11
246.6099230699
 21
194.9389632374
 31
0.0
  0
LINE
  5
1AB
330
1F
100
AcDbEntity
  8
HEATSINK
370
    18
100
AcDbLine
 10
248.6099230699
 20
192.9389632374
 30
0.0
 11
292.1099230699
 21
192.9389632374
 31
0.0
  0
LINE
  5
1AC
330
1F
100
AcDbEntity
  8
HEATSINK
370
    18
100
AcDbLine
 10
294.1099230699
 20
190.9389632374
 30
0.0
 11
294.1099230699
 21
182.9389632374
 31
0.0
  0
LINE
  5
1AD
330
1F
100
AcDbEntity
  8
HEATSINK
370
    18
100
AcDbLine
 10
292.1099230699
 20
180.9389632374
 30
0.0
 11
248.6099230699
 21
180.9389632374
 31
0.0
  0
LINE
  5
1AE
330
1F
100
AcDbEntity
  8
HEATSINK
370
    18
100
AcDbLine
 10
246.6099230699
 20
178.9389632374
 30
0.0
 11
246.6099230699
 21
145.3069972282
 31
0.0
  0
LINE
  5
1AF
330
1F
100
AcDbEntity
  8
HEATSINK
  6
HIDDEN
370
    18
100
AcDbLine
 10
145.3475071803
 20
180.8799150742
 30
0.0
 11
173.0923191388
 21
173.9843353043
 31
0.0
  0
LINE
  5
1B0
330
1F
100
AcDbEntity
  8
HEATSINK
  6
HIDDEN
370
    18
100
AcDbLine
 10
145.3475071803
 20
192.9980114006
 30
0.0
 11
176.1275270011
 21
200.647949065
 31
0.0
  0
LINE
  5
1B1
330
1F
100
AcDbEntity
  8
HEATSINK
  6
HIDDEN
370
    18
100
AcDbLine
 10
248.0142571291
 20
174.0452970429
 30
0.0
 11
269.8190051369
 21
180.848199233
 31
0.0
  0
LINE
  5
1B2
330
1F
100
AcDbEntity
  8
HEATSINK
  6
HIDDEN
370
    18
100
AcDbLine
 10
191.0429900871
 20
141.8582719399
 30
0.0
 11
201.5324464618
 21
105.2771902705
 31
0.0
  0
LINE
  5
1B3
330
1F
100
AcDbEntity
  8
HEATSINK
  6
HIDDEN
370
    18
100
AcDbLine
 10
213.6873996781
 20
105.2771902705
 30
0.0
 11
224.1768560528
 21
141.8582719399
 31
0.0
  0
LINE
  5
1B4
330
1F
100
AcDbEntity
  8
HEATSINK
  6
HIDDEN
370
    18
100
AcDbLine
 10
245.1991049185
 20
200.6182441378
 30
0.0
 11
269.8220169333
 21
193.0277163278
 31
0.0
  0
LINE
  5
1B5
330
1F
100
AcDbEntity
  8
HEATSINK
370
    18
100
AcDbLine
 10
244.6099230699
 20
200.7069972282
 30
0.0
 11
176.6099230699
 21
200.7069972282
 31
0.0
  0
LINE
  5
1B6
330
1F
100
AcDbEntity
  8
HMI_CONNECTOR
  6
CENTER
370
    18
100
AcDbLine
 10
143.6099230699
 20
238.0069972282
 30
0.0
 11
143.6099230699
 21
203.5069972282
 31
0.0
  0
LINE
  5
1B7
330
1F
100
AcDbEntity
  8
HMI_CONNECTOR
  6
CENTERX2
370
    18
100
AcDbLine
 10
143.6099230699
 20
203.5069972282
 30
0.0
 11
143.6099230699
 21
85.5069972282
 31
0.0
  0
LINE
  5
1B8
330
1F
100
AcDbEntity
  8
HMI_CONNECTOR
370
    18
100
AcDbLine
 10
127.1099230699
 20
208.0069972282
 30
0.0
 11
160.1099230699
 21
208.0069972282
 31
0.0
  0
LINE
  5
1B9
330
1F
100
AcDbEntity
  8
HMI_CONNECTOR
370
    18
100
AcDbLine
 10
160.1099230699
 20
208.0069972282
 30
0.0
 11
160.1099230699
 21
199.0069972282
 31
0.0
  0
LINE
  5
1BA
330
1F
100
AcDbEntity
  8
HMI_CONNECTOR
370
    18
100
AcDbLine
 10
160.1099230699
 20
199.0069972282
 30
0.0
 11
127.1099230699
 21
199.0069972282
 31
0.0
  0
LINE
  5
1BB
330
1F
100
AcDbEntity
  8
HMI_CONNECTOR
370
    18
100
AcDbLine
 10
127.1099230699
 20
199.0069972282
 30
0.0
 11
127.1099230699
 21
208.0069972282
 31
0.0
  0
LINE
  5
1BC
330
1F
100
AcDbEntity
  8
HMI_CONNECTOR
370
    18
100
AcDbLine
 10
128.5599230699
 20
206.5069972282
 30
0.0
 11
158.6599230699
 21
206.5069972282
 31
0.0
  0
LINE
  5
1BD
330
1F
100
AcDbEntity
  8
HMI_CONNECTOR
370
    18
100
AcDbLine
 10
158.6599230699
 20
206.5069972282
 30
0.0
 11
158.6599230699
 21
200.5069972282
 31
0.0
  0
LINE
  5
1BE
330
1F
100
AcDbEntity
  8
HMI_CONNECTOR
370
    18
100
AcDbLine
 10
158.6599230699
 20
200.5069972282
 30
0.0
 11
128.5599230699
 21
200.5069972282
 31
0.0
  0
LINE
  5
1BF
330
1F
100
AcDbEntity
  8
HMI_CONNECTOR
370
    18
100
AcDbLine
 10
128.5599230699
 20
200.5069972282
 30
0.0
 11
128.5599230699
 21
206.5069972282
 31
0.0
  0
LINE
  5
1C0
330
1F
100
AcDbEntity
  8
HMI_CONNECTOR
370
    18
100
AcDbLine
 10
132.1799230699
 20
204.7769972282
 30
0.0
 11
132.1799230699
 21
202.2369972282
 31
0.0
  0
LINE
  5
1C1
330
1F
100
AcDbEntity
  8
HMI_CONNECTOR
370
    18
100
AcDbLine
 10
132.1799230699
 20
202.2369972282
 30
0.0
 11
134.7199230699
 21
202.2369972282
 31
0.0
  0
LINE
  5
1C2
330
1F
100
AcDbEntity
  8
HMI_CONNECTOR
370
    18
100
AcDbLine
 10
134.7199230699
 20
202.2369972282
 30
0.0
 11
137.2599230699
 21
202.2369972282
 31
0.0
  0
LINE
  5
1C3
330
1F
100
AcDbEntity
  8
HMI_CONNECTOR
370
    18
100
AcDbLine
 10
137.2599230699
 20
202.2369972282
 30
0.0
 11
139.7999230699
 21
202.2369972282
 31
0.0
  0
LINE
  5
1C4
330
1F
100
AcDbEntity
  8
HMI_CONNECTOR
370
    18
100
AcDbLine
 10
139.7999230699
 20
202.2369972282
 30
0.0
 11
142.3399230699
 21
202.2369972282
 31
0.0
  0
LINE
  5
1C5
330
1F
100
AcDbEntity
  8
HMI_CONNECTOR
370
    18
100
AcDbLine
 10
142.3399230699
 20
202.2369972282
 30
0.0
 11
144.8799230699
 21
202.2369972282
 31
0.0
  0
LINE
  5
1C6
330
1F
100
AcDbEntity
  8
HMI_CONNECTOR
370
    18
100
AcDbLine
 10
144.8799230699
 20
202.2369972282
 30
0.0
 11
147.4199230699
 21
202.2369972282
 31
0.0
  0
LINE
  5
1C7
330
1F
100
AcDbEntity
  8
HMI_CONNECTOR
370
    18
100
AcDbLine
 10
147.4199230699
 20
202.2369972282
 30
0.0
 11
149.9599230699
 21
202.2369972282
 31
0.0
  0
LINE
  5
1C8
330
1F
100
AcDbEntity
  8
HMI_CONNECTOR
370
    18
100
AcDbLine
 10
149.9599230699
 20
202.2369972282
 30
0.0
 11
152.4999230699
 21
202.2369972282
 31
0.0
  0
LINE
  5
1C9
330
1F
100
AcDbEntity
  8
HMI_CONNECTOR
370
    18
100
AcDbLine
 10
152.4999230699
 20
202.2369972282
 30
0.0
 11
155.0399230699
 21
202.2369972282
 31
0.0
  0
LINE
  5
1CA
330
1F
100
AcDbEntity
  8
HMI_CONNECTOR
370
    18
100
AcDbLine
 10
155.0399230699
 20
202.2369972282
 30
0.0
 11
155.0399230699
 21
204.7769972282
 31
0.0
  0
LINE
  5
1CB
330
1F
100
AcDbEntity
  8
HMI_CONNECTOR
370
    18
100
AcDbLine
 10
155.0399230699
 20
204.7769972282
 30
0.0
 11
152.4999230699
 21
204.7769972282
 31
0.0
  0
LINE
  5
1CC
330
1F
100
AcDbEntity
  8
HMI_CONNECTOR
370
    18
100
AcDbLine
 10
152.4999230699
 20
204.7769972282
 30
0.0
 11
149.9599230699
 21
204.7769972282
 31
0.0
  0
LINE
  5
1CD
330
1F
100
AcDbEntity
  8
HMI_CONNECTOR
370
    18
100
AcDbLine
 10
149.9599230699
 20
204.7769972282
 30
0.0
 11
147.4199230699
 21
204.7769972282
 31
0.0
  0
LINE
  5
1CE
330
1F
100
AcDbEntity
  8
HMI_CONNECTOR
370
    18
100
AcDbLine
 10
147.4199230699
 20
204.7769972282
 30
0.0
 11
144.8799230699
 21
204.7769972282
 31
0.0
  0
LINE
  5
1CF
330
1F
100
AcDbEntity
  8
HMI_CONNECTOR
370
    18
100
AcDbLine
 10
144.8799230699
 20
204.7769972282
 30
0.0
 11
142.3399230699
 21
204.7769972282
 31
0.0
  0
LINE
  5
1D0
330
1F
100
AcDbEntity
  8
HMI_CONNECTOR
370
    18
100
AcDbLine
 10
142.3399230699
 20
204.7769972282
 30
0.0
 11
139.7999230699
 21
204.7769972282
 31
0.0
  0
LINE
  5
1D1
330
1F
100
AcDbEntity
  8
HMI_CONNECTOR
370
    18
100
AcDbLine
 10
139.7999230699
 20
204.7769972282
 30
0.0
 11
137.2599230699
 21
204.7769972282
 31
0.0
  0
LINE
  5
1D2
330
1F
100
AcDbEntity
  8
HMI_CONNECTOR
370
    18
100
AcDbLine
 10
137.2599230699
 20
204.7769972282
 30
0.0
 11
134.7199230699
 21
204.7769972282
 31
0.0
  0
LINE
  5
1D3
330
1F
100
AcDbEntity
  8
HMI_CONNECTOR
370
    18
100
AcDbLine
 10
134.7199230699
 20
204.7769972282
 30
0.0
 11
132.1799230699
 21
204.7769972282
 31
0.0
  0
LINE
  5
1D4
330
1F
100
AcDbEntity
  8
HMI_CONNECTOR
370
    18
100
AcDbLine
 10
134.7199230699
 20
204.7769972282
 30
0.0
 11
134.7199230699
 21
202.2369972282
 31
0.0
  0
LINE
  5
1D5
330
1F
100
AcDbEntity
  8
HMI_CONNECTOR
370
    18
100
AcDbLine
 10
137.2599230699
 20
202.2369972282
 30
0.0
 11
137.2599230699
 21
204.7769972282
 31
0.0
  0
LINE
  5
1D6
330
1F
100
AcDbEntity
  8
HMI_CONNECTOR
370
    18
100
AcDbLine
 10
139.7999230699
 20
204.7769972282
 30
0.0
 11
139.7999230699
 21
202.2369972282
 31
0.0
  0
LINE
  5
1D7
330
1F
100
AcDbEntity
  8
HMI_CONNECTOR
370
    18
100
AcDbLine
 10
142.3399230699
 20
202.2369972282
 30
0.0
 11
142.3399230699
 21
204.7769972282
 31
0.0
  0
LINE
  5
1D8
330
1F
100
AcDbEntity
  8
HMI_CONNECTOR
370
    18
100
AcDbLine
 10
144.8799230699
 20
204.7769972282
 30
0.0
 11
144.8799230699
 21
202.2369972282
 31
0.0
  0
LINE
  5
1D9
330
1F
100
AcDbEntity
  8
HMI_CONNECTOR
370
    18
100
AcDbLine
 10
147.4199230699
 20
202.2369972282
 30
0.0
 11
147.4199230699
 21
204.7769972282
 31
0.0
  0
LINE
  5
1DA
330
1F
100
AcDbEntity
  8
HMI_CONNECTOR
370
    18
100
AcDbLine
 10
149.9599230699
 20
204.7769972282
 30
0.0
 11
149.9599230699
 21
202.2369972282
 31
0.0
  0
LINE
  5
1DB
330
1F
100
AcDbEntity
  8
HMI_CONNECTOR
370
    18
100
AcDbLine
 10
152.4999230699
 20
202.2369972282
 30
0.0
 11
152.4999230699
 21
204.7769972282
 31
0.0
  0
LINE
  5
1DC
330
1F
100
AcDbEntity
  8
HMI_CONNECTOR_TOP
370
    18
100
AcDbLine
 10
127.1099230699
 20
159.5069972282
 30
0.0
 11
160.1099230699
 21
159.5069972282
 31
0.0
  0
LINE
  5
1DD
330
1F
100
AcDbEntity
  8
HMI_CONNECTOR_TOP
370
    18
100
AcDbLine
 10
160.1099230699
 20
159.5069972282
 30
0.0
 11
160.1099230699
 21
150.5069972282
 31
0.0
  0
LINE
  5
1DE
330
1F
100
AcDbEntity
  8
HMI_CONNECTOR_TOP
370
    18
100
AcDbLine
 10
160.1099230699
 20
150.5069972282
 30
0.0
 11
127.1099230699
 21
150.5069972282
 31
0.0
  0
LINE
  5
1DF
330
1F
100
AcDbEntity
  8
HMI_CONNECTOR_TOP
370
    18
100
AcDbLine
 10
127.1099230699
 20
150.5069972282
 30
0.0
 11
127.1099230699
 21
159.5069972282
 31
0.0
  0
LINE
  5
1E0
330
1F
100
AcDbEntity
  8
HMI_CONNECTOR_TOP
370
    18
100
AcDbLine
 10
128.5599230699
 20
158.0069972282
 30
0.0
 11
158.6599230699
 21
158.0069972282
 31
0.0
  0
LINE
  5
1E1
330
1F
100
AcDbEntity
  8
HMI_CONNECTOR_TOP
370
    18
100
AcDbLine
 10
158.6599230699
 20
158.0069972282
 30
0.0
 11
158.6599230699
 21
152.0069972282
 31
0.0
  0
LINE
  5
1E2
330
1F
100
AcDbEntity
  8
HMI_CONNECTOR_TOP
370
    18
100
AcDbLine
 10
158.6599230699
 20
152.0069972282
 30
0.0
 11
128.5599230699
 21
152.0069972282
 31
0.0
  0
LINE
  5
1E3
330
1F
100
AcDbEntity
  8
HMI_CONNECTOR_TOP
370
    18
100
AcDbLine
 10
128.5599230699
 20
152.0069972282
 30
0.0
 11
128.5599230699
 21
158.0069972282
 31
0.0
  0
LINE
  5
1E4
330
1F
100
AcDbEntity
  8
HMI_CONNECTOR_TOP
370
    18
100
AcDbLine
 10
132.1799230699
 20
156.2769972282
 30
0.0
 11
134.7199230699
 21
156.2769972282
 31
0.0
  0
LINE
  5
1E5
330
1F
100
AcDbEntity
  8
HMI_CONNECTOR_TOP
370
    18
100
AcDbLine
 10
134.7199230699
 20
156.2769972282
 30
0.0
 11
134.7199230699
 21
153.7369972282
 31
0.0
  0
LINE
  5
1E6
330
1F
100
AcDbEntity
  8
HMI_CONNECTOR_TOP
370
    18
100
AcDbLine
 10
134.7199230699
 20
153.7369972282
 30
0.0
 11
137.2599230699
 21
153.7369972282
 31
0.0
  0
LINE
  5
1E7
330
1F
100
AcDbEntity
  8
HMI_CONNECTOR_TOP
370
    18
100
AcDbLine
 10
137.2599230699
 20
153.7369972282
 30
0.0
 11
137.2599230699
 21
156.2769972282
 31
0.0
  0
LINE
  5
1E8
330
1F
100
AcDbEntity
  8
HMI_CONNECTOR_TOP
370
    18
100
AcDbLine
 10
137.2599230699
 20
156.2769972282
 30
0.0
 11
139.7999230699
 21
156.2769972282
 31
0.0
  0
LINE
  5
1E9
330
1F
100
AcDbEntity
  8
HMI_CONNECTOR_TOP
370
    18
100
AcDbLine
 10
139.7999230699
 20
156.2769972282
 30
0.0
 11
139.7999230699
 21
153.7369972282
 31
0.0
  0
LINE
  5
1EA
330
1F
100
AcDbEntity
  8
HMI_CONNECTOR_TOP
370
    18
100
AcDbLine
 10
139.7999230699
 20
153.7369972282
 30
0.0
 11
142.3399230699
 21
153.7369972282
 31
0.0
  0
LINE
  5
1EB
330
1F
100
AcDbEntity
  8
HMI_CONNECTOR_TOP
370
    18
100
AcDbLine
 10
142.3399230699
 20
153.7369972282
 30
0.0
 11
142.3399230699
 21
156.2769972282
 31
0.0
  0
LINE
  5
1EC
330
1F
100
AcDbEntity
  8
HMI_CONNECTOR_TOP
370
    18
100
AcDbLine
 10
142.3399230699
 20
156.2769972282
 30
0.0
 11
144.8799230699
 21
156.2769972282
 31
0.0
  0
LINE
  5
1ED
330
1F
100
AcDbEntity
  8
HMI_CONNECTOR_TOP
370
    18
100
AcDbLine
 10
144.8799230699
 20
156.2769972282
 30
0.0
 11
144.8799230699
 21
153.7369972282
 31
0.0
  0
LINE
  5
1EE
330
1F
100
AcDbEntity
  8
HMI_CONNECTOR_TOP
370
    18
100
AcDbLine
 10
144.8799230699
 20
153.7369972282
 30
0.0
 11
147.4199230699
 21
153.7369972282
 31
0.0
  0
LINE
  5
1EF
330
1F
100
AcDbEntity
  8
HMI_CONNECTOR_TOP
370
    18
100
AcDbLine
 10
147.4199230699
 20
153.7369972282
 30
0.0
 11
147.4199230699
 21
156.2769972282
 31
0.0
  0
LINE
  5
1F0
330
1F
100
AcDbEntity
  8
HMI_CONNECTOR_TOP
370
    18
100
AcDbLine
 10
147.4199230699
 20
156.2769972282
 30
0.0
 11
149.9599230699
 21
156.2769972282
 31
0.0
  0
LINE
  5
1F1
330
1F
100
AcDbEntity
  8
HMI_CONNECTOR_TOP
370
    18
100
AcDbLine
 10
149.9599230699
 20
156.2769972282
 30
0.0
 11
149.9599230699
 21
153.7369972282
 31
0.0
  0
LINE
  5
1F2
330
1F
100
AcDbEntity
  8
HMI_CONNECTOR_TOP
370
    18
100
AcDbLine
 10
149.9599230699
 20
153.7369972282
 30
0.0
 11
152.4999230699
 21
153.7369972282
 31
0.0
  0
LINE
  5
1F3
330
1F
100
AcDbEntity
  8
HMI_CONNECTOR_TOP
370
    18
100
AcDbLine
 10
152.4999230699
 20
153.7369972282
 30
0.0
 11
152.4999230699
 21
156.2769972282
 31
0.0
  0
LINE
  5
1F4
330
1F
100
AcDbEntity
  8
HMI_CONNECTOR_TOP
370
    18
100
AcDbLine
 10
152.4999230699
 20
156.2769972282
 30
0.0
 11
155.0399230699
 21
156.2769972282
 31
0.0
  0
LINE
  5
1F5
330
1F
100
AcDbEntity
  8
HMI_CONNECTOR_TOP
370
    18
100
AcDbLine
 10
155.0399230699
 20
156.2769972282
 30
0.0
 11
155.0399230699
 21
153.7369972282
 31
0.0
  0
LINE
  5
1F6
330
1F
100
AcDbEntity
  8
HMI_CONNECTOR_TOP
370
    18
100
AcDbLine
 10
155.0399230699
 20
153.7369972282
 30
0.0
 11
152.4999230699
 21
153.7369972282
 31
0.0
  0
LINE
  5
1F7
330
1F
100
AcDbEntity
  8
HMI_CONNECTOR_TOP
370
    18
100
AcDbLine
 10
152.4999230699
 20
156.2769972282
 30
0.0
 11
149.9599230699
 21
156.2769972282
 31
0.0
  0
LINE
  5
1F8
330
1F
100
AcDbEntity
  8
HMI_CONNECTOR_TOP
370
    18
100
AcDbLine
 10
147.4199230699
 20
156.2769972282
 30
0.0
 11
144.8799230699
 21
156.2769972282
 31
0.0
  0
LINE
  5
1F9
330
1F
100
AcDbEntity
  8
HMI_CONNECTOR_TOP
370
    18
100
AcDbLine
 10
142.3399230699
 20
156.2769972282
 30
0.0
 11
139.7999230699
 21
156.2769972282
 31
0.0
  0
LINE
  5
1FA
330
1F
100
AcDbEntity
  8
HMI_CONNECTOR_TOP
370
    18
100
AcDbLine
 10
137.2599230699
 20
156.2769972282
 30
0.0
 11
134.7199230699
 21
156.2769972282
 31
0.0
  0
LINE
  5
1FB
330
1F
100
AcDbEntity
  8
HMI_CONNECTOR_TOP
370
    18
100
AcDbLine
 10
132.1799230699
 20
156.2769972282
 30
0.0
 11
132.1799230699
 21
153.7369972282
 31
0.0
  0
LINE
  5
1FC
330
1F
100
AcDbEntity
  8
HMI_CONNECTOR_TOP
370
    18
100
AcDbLine
 10
132.1799230699
 20
153.7369972282
 30
0.0
 11
134.7199230699
 21
153.7369972282
 31
0.0
  0
LINE
  5
1FD
330
1F
100
AcDbEntity
  8
HMI_CONNECTOR_TOP
370
    18
100
AcDbLine
 10
137.2599230699
 20
153.7369972282
 30
0.0
 11
139.7999230699
 21
153.7369972282
 31
0.0
  0
LINE
  5
1FE
330
1F
100
AcDbEntity
  8
HMI_CONNECTOR_TOP
370
    18
100
AcDbLine
 10
142.3399230699
 20
153.7369972282
 30
0.0
 11
144.8799230699
 21
153.7369972282
 31
0.0
  0
LINE
  5
1FF
330
1F
100
AcDbEntity
  8
HMI_CONNECTOR_TOP
370
    18
100
AcDbLine
 10
147.4199230699
 20
153.7369972282
 30
0.0
 11
149.9599230699
 21
153.7369972282
 31
0.0
  0
ARC
  5
200
330
1F
100
AcDbEntity
  8
TABLES
370
    18
100
AcDbCircle
 10
279.6099230699
 20
236.0069972282
 30
0.0
 40
2.0
100
AcDbArc
 50
0.0
 51
90.0
  0
ARC
  5
201
330
1F
100
AcDbEntity
  8
TABLES
370
    18
100
AcDbCircle
 10
287.6099230699
 20
231.5069972282
 30
0.0
 40
6.000000000000057
100
AcDbArc
 50
180.0
 51
270.0
  0
ARC
  5
202
330
1F
100
AcDbEntity
  8
TABLES
370
    18
100
AcDbCircle
 10
289.6099230699
 20
221.5069972282
 30
0.0
 40
4.0
100
AcDbArc
 50
0.0
 51
90.0
  0
ARC
  5
203
330
1F
100
AcDbEntity
  8
TABLES
370
    18
100
AcDbCircle
 10
292.1099230699
 20
99.0069972282
 30
0.0
 40
1.500000000000057
100
AcDbArc
 50
270.0
 51
0.0
  0
ARC
  5
204
330
1F
100
AcDbEntity
  8
TABLES
370
    18
100
AcDbCircle
 10
287.6099230699
 20
91.5069972282
 30
0.0
 40
6.000000000000057
100
AcDbArc
 50
90.0
 51
180.0
  0
ARC
  5
205
330
1F
100
AcDbEntity
  8
TABLES
370
    18
100
AcDbCircle
 10
277.6099230699
 20
89.5069972282
 30
0.0
 40
4.0
100
AcDbArc
 50
270.0
 51
0.0
  0
ARC
  5
206
330
1F
100
AcDbEntity
  8
TABLES
370
    18
100
AcDbCircle
 10
137.6099230699
 20
89.5069972282
 30
0.0
 40
4.0
100
AcDbArc
 50
180.0
 51
270.0
  0
ARC
  5
207
330
1F
100
AcDbEntity
  8
TABLES
370
    18
100
AcDbCircle
 10
127.6099230699
 20
91.5069972282
 30
0.0
 40
5.999999999999972
100
AcDbArc
 50
0.0
 51
90.0
  0
ARC
  5
208
330
1F
100
AcDbEntity
  8
TABLES
370
    18
100
AcDbCircle
 10
123.1099230699
 20
99.0069972282
 30
0.0
 40
1.500000000000028
100
AcDbArc
 50
180.0
 51
270.0
  0
ARC
  5
209
330
1F
100
AcDbEntity
  8
TABLES
370
    18
100
AcDbCircle
 10
125.6099230699
 20
221.5069972282
 30
0.0
 40
4.0
100
AcDbArc
 50
90.0
 51
180.0
  0
ARC
  5
20A
330
1F
100
AcDbEntity
  8
TABLES
370
    18
100
AcDbCircle
 10
127.6099230699
 20
231.5069972282
 30
0.0
 40
6.0
100
AcDbArc
 50
270.0
 51
0.0
  0
ARC
  5
20B
330
1F
100
AcDbEntity
  8
TABLES
370
    18
100
AcDbCircle
 10
135.6099230699
 20
236.0069972282
 30
0.0
 40
2.0
100
AcDbArc
 50
90.0
 51
180.0
  0
ARC
  5
20C
330
1F
100
AcDbEntity
  8
ENCLOSURE
370
    18
100
AcDbCircle
 10
145.550894578
 20
233.5069972282
 30
0.0
 40
5.000000000000008
100
AcDbArc
 50
115.8419327632
 51
173.2436729694
  0
ARC
  5
20D
330
1F
100
AcDbEntity
  8
ENCLOSURE
370
    18
100
AcDbCircle
 10
137.1099230699
 20
234.5069972282
 30
0.0
 40
3.50000000000001
100
AcDbArc
 50
275.4003783849
 51
353.2436729694
  0
ARC
  5
20E
330
1F
100
AcDbEntity
  8
ENCLOSURE
370
    18
100
AcDbCircle
 10
138.3804740589
 20
221.0669190966
 30
0.0
 40
9.999999999999995
100
AcDbArc
 50
95.4003783849
 51
120.3290512377
  0
ARC
  5
20F
330
1F
100
AcDbEntity
  8
ENCLOSURE
370
    18
100
AcDbCircle
 10
276.839372081
 20
221.0669190966
 30
0.0
 40
10.00000000000001
100
AcDbArc
 50
59.6709487623
 51
84.5996216151
  0
ARC
  5
210
330
1F
100
AcDbEntity
  8
ENCLOSURE
370
    18
100
AcDbCircle
 10
278.1099230699
 20
234.5069972282
 30
0.0
 40
3.500000000000004
100
AcDbArc
 50
186.7563270306
 51
264.5996216151
  0
ARC
  5
211
330
1F
100
AcDbEntity
  8
ENCLOSURE
370
    18
100
AcDbCircle
 10
269.6689515619
 20
233.5069972282
 30
0.0
 40
5.00000000000004
100
AcDbArc
 50
6.7563270306
 51
64.1580672368
  0
ARC
  5
212
330
1F
100
AcDbEntity
  8
ENCLOSURE
370
    18
100
AcDbCircle
 10
276.6290645469
 20
101.725644208
 30
0.0
 40
10.0
100
AcDbArc
 50
332.622712886
 51
356.9485251369
  0
ARC
  5
213
330
1F
100
AcDbEntity
  8
ENCLOSURE
370
    18
100
AcDbCircle
 10
290.1099230699
 20
101.0069972282
 30
0.0
 40
3.500000000000004
100
AcDbArc
 50
93.3722866834
 51
176.9485251369
  0
ARC
  5
214
330
1F
100
AcDbEntity
  8
ENCLOSURE
370
    18
100
AcDbCircle
 10
289.6099230699
 20
109.4922786025
 30
0.0
 40
5.000000000000028
100
AcDbArc
 50
273.3722866834
 51
323.1301023542
  0
ARC
  5
215
330
1F
100
AcDbEntity
  8
ENCLOSURE
370
    18
100
AcDbCircle
 10
138.590781593
 20
101.725644208
 30
0.0
 40
10.00000000000001
100
AcDbArc
 50
183.0514748631
 51
207.377287114
  0
ARC
  5
216
330
1F
100
AcDbEntity
  8
ENCLOSURE
370
    18
100
AcDbCircle
 10
125.1099230699
 20
101.0069972282
 30
0.0
 40
3.499999999999999
100
AcDbArc
 50
3.0514748631
 51
86.6277133166
  0
ARC
  5
217
330
1F
100
AcDbEntity
  8
ENCLOSURE
370
    18
100
AcDbCircle
 10
125.6099230699
 20
109.4922786025
 30
0.0
 40
5.000000000000012
100
AcDbArc
 50
216.8698976458
 51
266.6277133166
  0
CIRCLE
  5
218
330
1F
100
AcDbEntity
  8
TABLES
370
    18
100
AcDbCircle
 10
125.1099230699
 20
101.0069972282
 30
0.0
 40
1.624999999999973
  0
CIRCLE
  5
219
330
1F
100
AcDbEntity
  8
TABLES
370
    18
100
AcDbCircle
 10
137.1099230699
 20
234.5069972282
 30
0.0
 40
1.624999999999965
  0
CIRCLE
  5
21A
330
1F
100
AcDbEntity
  8
TABLES
370
    18
100
AcDbCircle
 10
278.1099230699
 20
234.5069972282
 30
0.0
 40
1.625000000000046
  0
CIRCLE
  5
21B
330
1F
100
AcDbEntity
  8
TABLES
370
    18
100
AcDbCircle
 10
207.6099230699
 20
234.5069972282
 30
0.0
 40
1.625000000000019
  0
CIRCLE
  5
21C
330
1F
100
AcDbEntity
  8
TABLES
370
    18
100
AcDbCircle
 10
290.1099230699
 20
101.0069972282
 30
0.0
 40
1.625
  0
ARC
  5
21D
330
1F
100
AcDbEntity
  8
SODIMM
370
    18
100
AcDbCircle
 10
207.1099230699
 20
196.2669972282
 30
0.0
 40
0.4699999999999989
100
AcDbArc
 50
180.0
 51
0.0
  0
CIRCLE
  5
21E
330
1F
100
AcDbEntity
  8
SODIMM
370
    18
100
AcDbCircle
 10
176.2099230699
 20
199.4269972282
 30
0.0
 40
0.4499999999997558
  0
CIRCLE
  5
21F
330
1F
100
AcDbEntity
  8
SODIMM
370
    18
100
AcDbCircle
 10
245.00992307
 20
199.4269972282
 30
0.0
 40
0.7250000000006415
  0
ARC
  5
220
330
1F
100
AcDbEntity
  8
SOM
370
    18
100
AcDbCircle
 10
176.9099230699
 20
178.1569972282
 30
0.0
 40
0.6500000000000341
100
AcDbArc
 50
270.0
 51
0.0
  0
ARC
  5
221
330
1F
100
AcDbEntity
  8
SOM
370
    18
100
AcDbCircle
 10
176.9099230699
 20
180.8569972282
 30
0.0
 40
0.6500000000000057
100
AcDbArc
 50
0.0
 51
90.0
  0
CIRCLE
  5
222
330
1F
100
AcDbEntity
  8
SOM
370
    18
100
AcDbCircle
 10
177.8099230699
 20
193.5069972282
 30
0.0
 40
0.9999999999999621
  0
ARC
  5
223
330
1F
100
AcDbEntity
  8
SOM
370
    18
100
AcDbCircle
 10
244.3099230699
 20
178.1569972282
 30
0.0
 40
0.6500000000000341
100
AcDbArc
 50
180.0
 51
270.0
  0
ARC
  5
224
330
1F
100
AcDbEntity
  8
SOM
370
    18
100
AcDbCircle
 10
244.3099230699
 20
180.8569972282
 30
0.0
 40
0.6500000000000057
100
AcDbArc
 50
90.0
 51
180.0
  0
CIRCLE
  5
225
330
1F
100
AcDbEntity
  8
SOM
370
    18
100
AcDbCircle
 10
243.4099230699
 20
193.5069972282
 30
0.0
 40
0.9999999999999704
  0
CIRCLE
  5
226
330
1F
100
AcDbEntity
  8
SOM
370
    18
100
AcDbCircle
 10
178.8099230699
 20
154.5069972282
 30
0.0
 40
1.600000000000005
  0
CIRCLE
  5
227
330
1F
100
AcDbEntity
  8
SOM
370
    18
100
AcDbCircle
 10
242.4099230699
 20
154.5069972282
 30
0.0
 40
1.600000000000005
  0
CIRCLE
  5
228
330
1F
100
AcDbEntity
  8
SOM
370
    18
100
AcDbCircle
 10
242.4099230699
 20
172.1069972282
 30
0.0
 40
1.550000000000005
  0
CIRCLE
  5
229
330
1F
100
AcDbEntity
  8
SOM
370
    18
100
AcDbCircle
 10
194.3099230699
 20
172.1069972282
 30
0.0
 40
1.549999999999978
  0
ARC
  5
22A
330
1F
100
AcDbEntity
  8
SOM
370
    18
100
AcDbCircle
 10
207.1099230699
 20
196.0069972282
 30
0.0
 40
0.5
100
AcDbArc
 50
180.0
 51
0.0
  0
ARC
  5
22B
330
1F
100
AcDbEntity
  8
HEATSINK
370
    18
100
AcDbCircle
 10
123.1099230699
 20
182.9389632374
 30
0.0
 40
2.000000000000014
100
AcDbArc
 50
180.0
 51
270.0
  0
ARC
  5
22C
330
1F
100
AcDbEntity
  8
HEATSINK
370
    18
100
AcDbCircle
 10
123.1099230699
 20
190.9389632374
 30
0.0
 40
2.000000000000014
100
AcDbArc
 50
90.0
 51
180.0
  0
ARC
  5
22D
330
1F
100
AcDbEntity
  8
HEATSINK
370
    18
100
AcDbCircle
 10
292.1099230699
 20
190.9389632374
 30
0.0
 40
2.0
100
AcDbArc
 50
0.0
 51
90.0
  0
ARC
  5
22E
330
1F
100
AcDbEntity
  8
HEATSINK
370
    18
100
AcDbCircle
 10
244.6099230699
 20
145.3069972282
 30
0.0
 40
2.0
100
AcDbArc
 50
270.0
 51
0.0
  0
ARC
  5
22F
330
1F
100
AcDbEntity
  8
HEATSINK
370
    18
100
AcDbCircle
 10
176.6099230699
 20
145.3069972282
 30
0.0
 40
2.0
100
AcDbArc
 50
180.0
 51
270.0
  0
ARC
  5
230
330
1F
100
AcDbEntity
  8
HEATSINK
370
    18
100
AcDbCircle
 10
244.6099230699
 20
198.7069972282
 30
0.0
 40
2.0
100
AcDbArc
 50
0.0
 51
90.0
  0
ARC
  5
231
330
1F
100
AcDbEntity
  8
HEATSINK
370
    18
100
AcDbCircle
 10
199.6099230699
 20
141.3069972282
 30
0.0
 40
2.0
100
AcDbArc
 50
0.0
 51
90.0
  0
ARC
  5
232
330
1F
100
AcDbEntity
  8
HEATSINK
370
    18
100
AcDbCircle
 10
172.6099230699
 20
178.9389632374
 30
0.0
 40
2.0
100
AcDbArc
 50
0.0
 51
90.0
  0
ARC
  5
233
330
1F
100
AcDbEntity
  8
HEATSINK
370
    18
100
AcDbCircle
 10
172.6099230699
 20
194.9389632374
 30
0.0
 40
2.0
100
AcDbArc
 50
270.0
 51
0.0
  0
ARC
  5
234
330
1F
100
AcDbEntity
  8
HEATSINK
370
    18
100
AcDbCircle
 10
203.6099230699
 20
87.0069972282
 30
0.0
 40
2.0
100
AcDbArc
 50
180.0
 51
270.0
  0
ARC
  5
235
330
1F
100
AcDbEntity
  8
HEATSINK
370
    18
100
AcDbCircle
 10
211.6099230699
 20
87.0069972282
 30
0.0
 40
2.0
100
AcDbArc
 50
270.0
 51
0.0
  0
ARC
  5
236
330
1F
100
AcDbEntity
  8
HEATSINK
370
    18
100
AcDbCircle
 10
292.1099230699
 20
182.9389632374
 30
0.0
 40
2.0
100
AcDbArc
 50
270.0
 51
0.0
  0
ARC
  5
237
330
1F
100
AcDbEntity
  8
HEATSINK
370
    18
100
AcDbCircle
 10
248.6099230699
 20
178.9389632374
 30
0.0
 40
2.0
100
AcDbArc
 50
90.0
 51
180.0
  0
ARC
  5
238
330
1F
100
AcDbEntity
  8
HEATSINK
370
    18
100
AcDbCircle
 10
248.6099230699
 20
194.9389632374
 30
0.0
 40
2.0
100
AcDbArc
 50
180.0
 51
270.0
  0
ARC
  5
239
330
1F
100
AcDbEntity
  8
HEATSINK
370
    18
100
AcDbCircle
 10
215.6099230699
 20
141.3069972282
 30
0.0
 40
2.0
100
AcDbArc
 50
90.0
 51
180.0
  0
ARC
  5
23A
330
1F
100
AcDbEntity
  8
HEATSINK
  6
CENTERX2
370
    18
100
AcDbCircle
 10
189.1204666952
 20
141.3069972282
 30
0.0
 40
1.999999999999972
100
AcDbArc
 50
16.0
 51
90.0
  0
ARC
  5
23B
330
1F
100
AcDbEntity
  8
HEATSINK
  6
CENTERX2
370
    18
100
AcDbCircle
 10
172.6099230699
 20
172.0433834675
 30
0.0
 40
2.000000000000011
100
AcDbArc
 50
0.0
 51
76.0427398948
  0
ARC
  5
23C
330
1F
100
AcDbEntity
  8
HEATSINK
  6
CENTERX2
370
    18
100
AcDbCircle
 10
144.8651111114
 20
194.9389632374
 30
0.0
 40
2.000000000000011
100
AcDbArc
 50
270.0
 51
283.9572601052
  0
ARC
  5
23D
330
1F
100
AcDbEntity
  8
HEATSINK
  6
CENTERX2
370
    18
100
AcDbCircle
 10
144.8651111114
 20
178.9389632374
 30
0.0
 40
2.000000000000011
100
AcDbArc
 50
76.0427398948
 51
90.0
  0
ARC
  5
23E
330
1F
100
AcDbEntity
  8
HEATSINK
  6
CENTERX2
370
    18
100
AcDbCircle
 10
270.4111987819
 20
194.9389632374
 30
0.0
 40
2.000000000000007
100
AcDbArc
 50
252.86699097
 51
270.0
  0
ARC
  5
23F
330
1F
100
AcDbEntity
  8
HEATSINK
  6
CENTERX2
370
    18
100
AcDbCircle
 10
270.4146710777
 20
178.9389632374
 30
0.0
 40
2.00000000000003
100
AcDbArc
 50
90.0
 51
107.3274926961
  0
ARC
  5
240
330
1F
100
AcDbEntity
  8
HEATSINK
  6
CENTERX2
370
    18
100
AcDbCircle
 10
248.6099230699
 20
172.1360610473
 30
0.0
 40
2.0
100
AcDbArc
 50
107.3274926961
 51
180.0
  0
ARC
  5
241
330
1F
100
AcDbEntity
  8
HEATSINK
  6
CENTERX2
370
    18
100
AcDbCircle
 10
226.0993794447
 20
141.3069972282
 30
0.0
 40
2.0
100
AcDbArc
 50
90.0
 51
164.0
  0
ARC
  5
242
330
1F
100
AcDbEntity
  8
HEATSINK
  6
CENTERX2
370
    18
100
AcDbCircle
 10
215.6099230699
 20
104.7259155588
 30
0.0
 40
2.000000000000022
100
AcDbArc
 50
164.0
 51
180.0
  0
ARC
  5
243
330
1F
100
AcDbEntity
  8
HEATSINK
  6
CENTERX2
370
    18
100
AcDbCircle
 10
199.6099230699
 20
104.7259155588
 30
0.0
 40
2.000000000000026
100
AcDbArc
 50
0.0
 51
16.0
  0
ARC
  5
244
330
1F
100
AcDbEntity
  8
HEATSINK
370
    18
100
AcDbCircle
 10
176.6099230699
 20
198.7069972282
 30
0.0
 40
2.0
100
AcDbArc
 50
90.0
 51
180.0
  0
CIRCLE
  5
245
330
1F
100
AcDbEntity
  8
HEATSINK
370
    18
100
AcDbCircle
 10
289.4599230804
 20
186.9389632374
 30
0.0
 40
1.499999999999987
  0
CIRCLE
  5
246
330
1F
100
AcDbEntity
  8
HEATSINK
370
    18
100
AcDbCircle
 10
207.6099230699
 20
94.4323539345
 30
0.0
 40
1.500000000000037
  0
CIRCLE
  5
247
330
1F
100
AcDbEntity
  8
HEATSINK
370
    18
100
AcDbCircle
 10
125.7599230595
 20
186.9389632374
 30
0.0
 40
1.500000000000001
  0
MTEXT
  5
249
330
1F
100
AcDbEntity
  8
TABLES
100
AcDbMText
 10
121.3426409884
 20
79.5608256761
 30
0.0
 40
3.5
 41
0.0
 71
     1
 72
     1
  1
Cut Layer
  7
SLDTEXTSTYLE0
 73
     1
 44
1.0
  0
MTEXT
  5
24A
330
1F
100
AcDbEntity
  8
HEATSINK
100
AcDbMText
 10
121.3426409884
 20
68.6955555684
 30
0.0
 40
3.5
 41
0.0
 71
     1
 72
     1
  1
Heatsink [5.41mm clearance]
  7
SLDTEXTSTYLE0
 73
     1
 44
1.0
  0
MTEXT
  5
24B
330
1F
100
AcDbEntity
  8
ENCLOSURE
100
AcDbMText
 10
121.3426409884
 20
62.842524449
 30
0.0
 40
3.5
 41
0.0
 71
     1
 72
     1
  1
Enclosure [0mm clearance]
  7
SLDTEXTSTYLE0
 73
     1
 44
1.0
  0
MTEXT
  5
24C
330
1F
100
AcDbEntity
  8
JACKS
100
AcDbMText
 10
121.3426409884
 20
74.238931177
 30
0.0
 40
3.5
 41
0.0
 71
     1
 72
     1
  1
Jacks
  7
SLDTEXTSTYLE0
 73
     1
 44
1.0
  0
MTEXT
  5
24D
330
1F
100
AcDbEntity
  8
SOM
100
AcDbMText
 10
121.3426409884
 20
56.4622574654
 30
0.0
 40
3.5
 41
0.0
 71
     1
 72
     1
  1
Firefly PX30 SoM
  7
SLDTEXTSTYLE0
 73
     1
 44
1.0
  0
MTEXT
  5
24E
330
1F
100
AcDbEntity
  8
SODIMM
100
AcDbMText
 10
121.3426409884
 20
50.6706363063
 30
0.0
 40
3.5
 41
0.0
 71
     1
 72
     1
  1
260P DDR4 5.2 STD Connector
  7
SLDTEXTSTYLE0
 73
     1
 44
1.0
  0
INSERT
  5
254
102
{ACAD_REACTORS
330
256
102
}
330
1F
100
AcDbEntity
  8
SODIMM
100
AcDbBlockReference
  2
SW_NOTE_0
 10
109.5694957117
 20
219.3638612919
 30
0.0
  0
LEADER
  5
256
330
1F
100
AcDbEntity
  8
SODIMM
100
AcDbLeader
  3
SLDDIMSTYLE0
 73
     2
 76
     2
 10
174.8099230699
 20
204.1969972282
 30
0.0
 10
109.5694957117
 20
219.3638612919
 30
0.0
340
254
  0
INSERT
  5
25C
330
1F
100
AcDbEntity
  8
ENCLOSURE
100
AcDbBlockReference
  2
SW_NOTE_0_1
 10
98.3292704112
 20
245.6543774984
 30
0.0
  0
LEADER
  5
25D
330
1F
100
AcDbEntity
  8
ENCLOSURE
100
AcDbLeader
  3
SLDDIMSTYLE0
 76
     2
 10
135.5598824281
 20
230.6608892264
 30
0.0
 10
98.3292704112
 20
245.6543774984
 30
0.0
  0
INSERT
  5
263
330
1F
100
AcDbEntity
  8
JACKS
100
AcDbBlockReference
  2
SW_NOTE_0_2
 10
196.9081010036
 20
258.4995155536
 30
0.0
  0
LEADER
  5
264
330
1F
100
AcDbEntity
  8
JACKS
100
AcDbLeader
  3
SLDDIMSTYLE0
 76
     2
 10
213.080823112
 20
241.5069972282
 30
0.0
 10
196.9081010036
 20
258.4995155536
 30
0.0
  0
INSERT
  5
26A
330
1F
100
AcDbEntity
  8
SOM
100
AcDbBlockReference
  2
SW_NOTE_0_3
 10
305.0222088836
 20
200.6363702955
 30
0.0
  0
LEADER
  5
26B
330
1F
100
AcDbEntity
  8
SOM
100
AcDbLeader
  3
SLDDIMSTYLE0
 76
     2
 10
245.4099230699
 20
177.5069972282
 30
0.0
 10
305.0222088836
 20
200.6363702955
 30
0.0
  0
INSERT
  5
271
102
{ACAD_REACTORS
330
272
102
}
330
1F
100
AcDbEntity
  8
HEATSINK
100
AcDbBlockReference
  2
SW_NOTE_0_4
 10
92.2780555485
 20
187.070944125
 30
0.0
  0
LEADER
  5
272
330
1F
100
AcDbEntity
  8
HEATSINK
100
AcDbLeader
  3
SLDDIMSTYLE0
 73
     2
 76
     2
 10
121.1099230699
 20
190.9389632374
 30
0.0
 10
92.2780555485
 20
187.070944125
 30
0.0
340
271
  0
INSERT
  5
278
102
{ACAD_REACTORS
330
279
102
}
330
1F
100
AcDbEntity
  8
HMI_CONNECTOR
100
AcDbBlockReference
  2
SW_NOTE_0_5
 10
96.7802900397
 20
205.6783871022
 30
0.0
  0
LEADER
  5
279
330
1F
100
AcDbEntity
  8
HMI_CONNECTOR
100
AcDbLeader
  3
SLDDIMSTYLE0
 73
     2
 76
     2
 10
127.1099230699
 20
201.8521736746
 30
0.0
 10
96.7802900397
 20
205.6783871022
 30
0.0
340
278
  0
MTEXT
  5
27A
330
1F
100
AcDbEntity
  8
HMI_CONNECTOR
100
AcDbMText
 10
121.3426409884
 20
44.5910683386
 30
0.0
 40
3.5
 41
0.0
 71
     1
 72
     1
  1
HMI Connector
  7
SLDTEXTSTYLE0
 73
     1
 44
1.0
  0
INSERT
  5
281
102
{ACAD_REACTORS
330
282
102
}
330
1F
100
AcDbEntity
  8
HMI_CONNECTOR_TOP
100
AcDbBlockReference
  2
SW_NOTE_0_6
 10
98.7063449231
 20
149.5320443124
 30
0.0
  0
LEADER
  5
282
330
1F
100
AcDbEntity
  8
HMI_CONNECTOR_TOP
100
AcDbLeader
  3
SLDDIMSTYLE0
 73
     2
 76
     2
 10
127.1099230699
 20
155.2399837919
 30
0.0
 10
98.7063449231
 20
149.5320443124
 30
0.0
340
281
  0
MTEXT
  5
283
330
1F
100
AcDbEntity
  8
HMI_CONNECTOR_TOP
100
AcDbMText
 10
121.3426409884
 20
38.7709299587
 30
0.0
 40
3.5
 41
0.0
 71
     1
 72
     1
  1
Controller Board HMI Connector
  7
SLDTEXTSTYLE0
 73
     1
 44
1.0
  0
INSERT
  5
28F
330
1F
100
AcDbEntity
  8
TABLES
100
AcDbBlockReference
  2
SW_CENTERMARKSYMBOL_0
 10
137.1099230699
 20
234.5069972282
 30
0.0
  0
INSERT
  5
29B
330
1F
100
AcDbEntity
  8
TABLES
100
AcDbBlockReference
  2
SW_CENTERMARKSYMBOL_1
 10
207.6099230699
 20
234.5069972282
 30
0.0
  0
INSERT
  5
2A7
330
1F
100
AcDbEntity
  8
TABLES
100
AcDbBlockReference
  2
SW_CENTERMARKSYMBOL_2
 10
278.1099230699
 20
234.5069972282
 30
0.0
  0
INSERT
  5
2B3
330
1F
100
AcDbEntity
  8
TABLES
100
AcDbBlockReference
  2
SW_CENTERMARKSYMBOL_3
 10
290.1099230699
 20
101.0069972282
 30
0.0
  0
INSERT
  5
2BF
330
1F
100
AcDbEntity
  8
TABLES
100
AcDbBlockReference
  2
SW_CENTERMARKSYMBOL_4
 10
125.1099230699
 20
101.0069972282
 30
0.0
  0
INSERT
  5
2CB
330
1F
100
AcDbEntity
  8
SOM
100
AcDbBlockReference
  2
SW_CENTERMARKSYMBOL_5
 10
178.8099230699
 20
154.5069972282
 30
0.0
  0
INSERT
  5
2D7
330
1F
100
AcDbEntity
  8
SOM
100
AcDbBlockReference
  2
SW_CENTERMARKSYMBOL_6
 10
242.4099230699
 20
154.5069972282
 30
0.0
  0
INSERT
  5
2E3
330
1F
100
AcDbEntity
  8
SOM
100
AcDbBlockReference
  2
SW_CENTERMARKSYMBOL_7
 10
194.3099230699
 20
172.1069972282
 30
0.0
  0
INSERT
  5
2EF
330
1F
100
AcDbEntity
  8
SOM
100
AcDbBlockReference
  2
SW_CENTERMARKSYMBOL_8
 10
242.4099230699
 20
172.1069972282
 30
0.0
  0
INSERT
  5
2FB
330
1F
100
AcDbEntity
  8
HEATSINK
100
AcDbBlockReference
  2
SW_CENTERMARKSYMBOL_9
 10
125.7599230595
 20
186.9389632374
 30
0.0
  0
INSERT
  5
307
330
1F
100
AcDbEntity
  8
HEATSINK
100
AcDbBlockReference
  2
SW_CENTERMARKSYMBOL_10
 10
207.6099230699
 20
94.4323539345
 30
0.0
  0
INSERT
  5
313
330
1F
100
AcDbEntity
  8
HEATSINK
100
AcDbBlockReference
  2
SW_CENTERMARKSYMBOL_11
 10
289.4599230804
 20
186.9389632374
 30
0.0
  0
ENDSEC
  0
SECTION
  2
OBJECTS
  0
DICTIONARY
  5
C
330
0
100
AcDbDictionary
281
     1
  3
ACAD_GROUP
350
D
  3
ACAD_LAYOUT
350
1A
  3
ACAD_MLINESTYLE
350
17
  3
ACAD_PLOTSETTINGS
350
19
  3
ACAD_PLOTSTYLENAME
350
E
  3
ACAD_SCALELIST
350
47
  3
DWGPROPS
350
314
  0
DICTIONARY
  5
D
102
{ACAD_REACTORS
330
C
102
}
330
C
100
AcDbDictionary
281
     1
  0
DICTIONARY
  5
1A
102
{ACAD_REACTORS
330
C
102
}
330
C
100
AcDbDictionary
281
     1
  3
Layout1
350
1E
  3
Layout2
350
26
  3
Model
350
22
  0
DICTIONARY
  5
17
102
{ACAD_REACTORS
330
C
102
}
330
C
100
AcDbDictionary
281
     1
  3
Standard
350
18
  0
DICTIONARY
  5
19
102
{ACAD_REACTORS
330
C
102
}
330
C
100
AcDbDictionary
281
     1
  0
ACDBDICTIONARYWDFLT
  5
E
102
{ACAD_REACTORS
330
C
102
}
330
C
100
AcDbDictionary
281
     1
  3
Normal
350
F
100
AcDbDictionaryWithDefault
340
F
  0
DICTIONARY
  5
47
102
{ACAD_REACTORS
330
C
102
}
330
C
100
AcDbDictionary
281
     1
  3
A0
350
48
  3
A1
350
49
  3
A2
350
4A
  3
A3
350
4B
  3
A4
350
4C
  3
A5
350
4D
  3
A6
350
4E
  3
A7
350
4F
  3
A8
350
50
  3
A9
350
51
  3
B0
350
52
  3
B1
350
53
  3
B2
350
54
  3
B3
350
55
  3
B4
350
56
  3
B5
350
57
  3
B6
350
58
  3
B7
350
59
  3
B8
350
5A
  3
B9
350
5B
  3
C0
350
5C
  3
C1
350
5D
  3
C2
350
5E
  3
C3
350
5F
  3
C4
350
60
  3
C5
350
61
  3
C6
350
62
  3
C7
350
63
  3
C8
350
64
  3
C9
350
65
  3
D0
350
66
  3
D1
350
67
  3
D2
350
68
  0
XRECORD
  5
314
102
{ACAD_REACTORS
330
C
102
}
330
C
100
AcDbXrecord
280
     1
  1
DWGPROPS COOKIE
  2

  3

  4

  6

  7

  8
James
  9

300
=
301
=
302
=
303
=
304
=
305
=
306
=
307
=
308
=
309
=
 40
0.0
 41
2459522.66015088
 42
2459522.660153113
  1

 90
        0
  0
LAYOUT
  5
1E
102
{ACAD_REACTORS
330
1A
102
}
330
1A
100
AcDbPlotSettings
  1

  2
none_device
  4

  6

 40
0.0
 41
0.0
 42
0.0
 43
0.0
 44
0.0
 45
0.0
 46
0.0
 47
0.0
 48
0.0
 49
0.0
140
0.0
141
0.0
142
1.0
143
1.0
 70
   688
 72
     1
 73
     0
 74
     5
  7

 75
    16
147
1.0
148
0.0
149
0.0
100
AcDbLayout
  1
Layout1
 70
     1
 71
     1
 10
0.0
 20
0.0
 11
420.0
 21
297.0
 12
0.0
 22
0.0
 32
0.0
 14
1.0000000000E+20
 24
1.0000000000E+20
 34
1.0000000000E+20
 15
-1.0000000000E+20
 25
-1.0000000000E+20
 35
-1.0000000000E+20
146
0.0
 13
0.0
 23
0.0
 33
0.0
 16
1.0
 26
0.0
 36
0.0
 17
0.0
 27
1.0
 37
0.0
 76
     0
330
1B
  0
LAYOUT
  5
26
102
{ACAD_REACTORS
330
1A
102
}
330
1A
100
AcDbPlotSettings
  1

  2
none_device
  4

  6

 40
0.0
 41
0.0
 42
0.0
 43
0.0
 44
0.0
 45
0.0
 46
0.0
 47
0.0
 48
0.0
 49
0.0
140
0.0
141
0.0
142
1.0
143
1.0
 70
   688
 72
     1
 73
     0
 74
     5
  7

 75
    16
147
1.0
148
0.0
149
0.0
100
AcDbLayout
  1
Layout2
 70
     1
 71
     2
 10
0.0
 20
0.0
 11
0.0
 21
0.0
 12
0.0
 22
0.0
 32
0.0
 14
0.0
 24
0.0
 34
0.0
 15
0.0
 25
0.0
 35
0.0
146
0.0
 13
0.0
 23
0.0
 33
0.0
 16
1.0
 26
0.0
 36
0.0
 17
0.0
 27
1.0
 37
0.0
 76
     0
330
23
  0
LAYOUT
  5
22
102
{ACAD_REACTORS
330
1A
102
}
330
1A
100
AcDbPlotSettings
  1

  2
none_device
  4
Letter_(8.50_x_11.00_Inches)
  6

 40
6.35
 41
6.35
 42
6.35000508
 43
6.35000508
 44
215.9
 45
279.4
 46
0.0
 47
0.0
 48
0.0
 49
0.0
140
0.0
141
0.0
142
1.0
143
1.0
 70
  1712
 72
     1
 73
     0
 74
     0
  7

 75
     0
147
1.0
148
0.0
149
0.0
100
AcDbLayout
  1
Model
 70
     1
 71
     0
 10
0.0
 20
0.0
 11
420.0
 21
297.0
 12
0.0
 22
0.0
 32
0.0
 14
0.0
 24
0.0
 34
0.0
 15
420.0
 25
297.0
 35
0.0
146
0.0
 13
0.0
 23
0.0
 33
0.0
 16
1.0
 26
0.0
 36
0.0
 17
0.0
 27
1.0
 37
0.0
 76
     0
330
1F
331
29
  0
MLINESTYLE
  5
18
102
{ACAD_REACTORS
330
17
102
}
330
17
100
AcDbMlineStyle
  2
Standard
 70
     0
  3

 62
   256
 51
90.0
 52
90.0
 71
     2
 49
0.5
 62
   256
  6
BYLAYER
 49
-0.5
 62
   256
  6
BYLAYER
  0
ACDBPLACEHOLDER
  5
F
102
{ACAD_REACTORS
330
E
102
}
330
E
  0
SCALE
  5
48
102
{ACAD_REACTORS
330
47
102
}
330
47
100
AcDbScale
 70
     0
300
1:1
140
1.0
141
1.0
290
     1
  0
SCALE
  5
49
102
{ACAD_REACTORS
330
47
102
}
330
47
100
AcDbScale
 70
     0
300
1:2
140
1.0
141
2.0
290
     0
  0
SCALE
  5
4A
102
{ACAD_REACTORS
330
47
102
}
330
47
100
AcDbScale
 70
     0
300
1:4
140
1.0
141
4.0
290
     0
  0
SCALE
  5
4B
102
{ACAD_REACTORS
330
47
102
}
330
47
100
AcDbScale
 70
     0
300
1:5
140
1.0
141
5.0
290
     0
  0
SCALE
  5
4C
102
{ACAD_REACTORS
330
47
102
}
330
47
100
AcDbScale
 70
     0
300
1:8
140
1.0
141
8.0
290
     0
  0
SCALE
  5
4D
102
{ACAD_REACTORS
330
47
102
}
330
47
100
AcDbScale
 70
     0
300
1:10
140
1.0
141
10.0
290
     0
  0
SCALE
  5
4E
102
{ACAD_REACTORS
330
47
102
}
330
47
100
AcDbScale
 70
     0
300
1:16
140
1.0
141
16.0
290
     0
  0
SCALE
  5
4F
102
{ACAD_REACTORS
330
47
102
}
330
47
100
AcDbScale
 70
     0
300
1:20
140
1.0
141
20.0
290
     0
  0
SCALE
  5
50
102
{ACAD_REACTORS
330
47
102
}
330
47
100
AcDbScale
 70
     0
300
1:30
140
1.0
141
30.0
290
     0
  0
SCALE
  5
51
102
{ACAD_REACTORS
330
47
102
}
330
47
100
AcDbScale
 70
     0
300
1:40
140
1.0
141
40.0
290
     0
  0
SCALE
  5
52
102
{ACAD_REACTORS
330
47
102
}
330
47
100
AcDbScale
 70
     0
300
1:50
140
1.0
141
50.0
290
     0
  0
SCALE
  5
53
102
{ACAD_REACTORS
330
47
102
}
330
47
100
AcDbScale
 70
     0
300
1:100
140
1.0
141
100.0
290
     0
  0
SCALE
  5
54
102
{ACAD_REACTORS
330
47
102
}
330
47
100
AcDbScale
 70
     0
300
2:1
140
2.0
141
1.0
290
     0
  0
SCALE
  5
55
102
{ACAD_REACTORS
330
47
102
}
330
47
100
AcDbScale
 70
     0
300
4:1
140
4.0
141
1.0
290
     0
  0
SCALE
  5
56
102
{ACAD_REACTORS
330
47
102
}
330
47
100
AcDbScale
 70
     0
300
8:1
140
8.0
141
1.0
290
     0
  0
SCALE
  5
57
102
{ACAD_REACTORS
330
47
102
}
330
47
100
AcDbScale
 70
     0
300
10:1
140
10.0
141
1.0
290
     0
  0
SCALE
  5
58
102
{ACAD_REACTORS
330
47
102
}
330
47
100
AcDbScale
 70
     0
300
100:1
140
100.0
141
1.0
290
     0
  0
SCALE
  5
59
102
{ACAD_REACTORS
330
47
102
}
330
47
100
AcDbScale
 70
     0
300
1/128" = 1'-0"
140
0.0078125
141
12.0
290
     0
  0
SCALE
  5
5A
102
{ACAD_REACTORS
330
47
102
}
330
47
100
AcDbScale
 70
     0
300
1/64" = 1'-0"
140
0.015625
141
12.0
290
     0
  0
SCALE
  5
5B
102
{ACAD_REACTORS
330
47
102
}
330
47
100
AcDbScale
 70
     0
300
1/32" = 1'-0"
140
0.03125
141
12.0
290
     0
  0
SCALE
  5
5C
102
{ACAD_REACTORS
330
47
102
}
330
47
100
AcDbScale
 70
     0
300
1/16" = 1'-0"
140
0.0625
141
12.0
290
     0
  0
SCALE
  5
5D
102
{ACAD_REACTORS
330
47
102
}
330
47
100
AcDbScale
 70
     0
300
3/32" = 1'-0"
140
0.09375
141
12.0
290
     0
  0
SCALE
  5
5E
102
{ACAD_REACTORS
330
47
102
}
330
47
100
AcDbScale
 70
     0
300
1/8" = 1'-0"
140
0.125
141
12.0
290
     0
  0
SCALE
  5
5F
102
{ACAD_REACTORS
330
47
102
}
330
47
100
AcDbScale
 70
     0
300
3/16" = 1'-0"
140
0.1875
141
12.0
290
     0
  0
SCALE
  5
60
102
{ACAD_REACTORS
330
47
102
}
330
47
100
AcDbScale
 70
     0
300
1/4" = 1'-0"
140
0.25
141
12.0
290
     0
  0
SCALE
  5
61
102
{ACAD_REACTORS
330
47
102
}
330
47
100
AcDbScale
 70
     0
300
3/8" = 1'-0"
140
0.375
141
12.0
290
     0
  0
SCALE
  5
62
102
{ACAD_REACTORS
330
47
102
}
330
47
100
AcDbScale
 70
     0
300
1/2" = 1'-0"
140
0.5
141
12.0
290
     0
  0
SCALE
  5
63
102
{ACAD_REACTORS
330
47
102
}
330
47
100
AcDbScale
 70
     0
300
3/4" = 1'-0"
140
0.75
141
12.0
290
     0
  0
SCALE
  5
64
102
{ACAD_REACTORS
330
47
102
}
330
47
100
AcDbScale
 70
     0
300
1" = 1'-0"
140
1.0
141
12.0
290
     0
  0
SCALE
  5
65
102
{ACAD_REACTORS
330
47
102
}
330
47
100
AcDbScale
 70
     0
300
1-1/2" = 1'-0"
140
1.5
141
12.0
290
     0
  0
SCALE
  5
66
102
{ACAD_REACTORS
330
47
102
}
330
47
100
AcDbScale
 70
     0
300
3" = 1'-0"
140
3.0
141
12.0
290
     0
  0
SCALE
  5
67
102
{ACAD_REACTORS
330
47
102
}
330
47
100
AcDbScale
 70
     0
300
6" = 1'-0"
140
6.0
141
12.0
290
     0
  0
SCALE
  5
68
102
{ACAD_REACTORS
330
47
102
}
330
47
100
AcDbScale
 70
     0
300
1'-0" = 1'-0"
140
12.0
141
12.0
290
     0
  0
ENDSEC
  0
EOF
