M48
;DRILL file {pcbnew (2014-jul-16 BZR unknown)-product} date Sex 05 Dez 2014 13:25:22 BRST
;FORMAT={-:-/ absolute / inch / decimal}
FMAT,2
INCH,TZ
T1C0.008
T2C0.012
T3C0.018
T4C0.020
T5C0.024
T6C0.024
T7C0.025
T8C0.028
T9C0.030
T10C0.031
T11C0.032
T12C0.035
T13C0.035
T14C0.036
T15C0.039
T16C0.040
T17C0.047
T18C0.050
T19C0.051
T20C0.053
T21C0.059
T22C0.063
T23C0.071
T24C0.087
T25C0.138
%
G90
G05
M72
T1
X5.3031Y-6.2085
X5.3031Y-6.2085
X5.3031Y-6.2085
X5.3031Y-6.2085
X5.3031Y-6.2085
X5.3031Y-6.2085
X5.3031Y-6.2085
X5.3031Y-6.2085
X5.3031Y-6.2085
X5.3031Y-6.2085
X5.3031Y-6.2085
X5.3031Y-6.2085
X5.3031Y-6.2085
X5.3031Y-6.2085
X5.3031Y-6.2085
X5.3031Y-6.2085
T2
X1.9449Y-4.6311
X1.9957Y-4.6311
X2.1213Y-2.4031
X2.1213Y-2.7031
X2.1213Y-3.0031
X2.1213Y-3.6031
X2.1213Y-4.2031
X2.1213Y-5.0031
X2.1213Y-5.9031
X2.4213Y-2.4031
X2.4213Y-2.7031
X2.4213Y-3.0031
X2.4213Y-3.6031
X2.4213Y-3.9031
X2.4213Y-4.2031
X2.4213Y-4.7031
X2.4213Y-5.0031
X2.4213Y-5.6031
X2.4213Y-5.9031
X2.7213Y-2.4031
X2.7213Y-4.2031
X2.7213Y-5.0031
X2.7213Y-5.9031
X2.7854Y-5.46
X2.8165Y-5.4295
X2.8213Y-1.8031
X2.8783Y-5.5354
X2.8996Y-5.5126
X2.9713Y-3.9031
X2.9713Y-4.6031
X3.0213Y-2.4031
X3.0213Y-2.7031
X3.0213Y-3.0031
X3.0213Y-4.2031
X3.0213Y-5.1031
X3.0213Y-5.9781
X3.0713Y-5.3281
X3.1213Y-4.8031
X3.1213Y-5.5031
X3.2213Y-1.8031
X3.2213Y-4.2031
X3.2756Y-4.3768
X3.3213Y-2.1031
X3.3213Y-2.4031
X3.3213Y-2.7031
X3.3213Y-3.0031
X3.4213Y-4.7031
X3.4213Y-5.5031
X3.4213Y-6.0031
X3.4963Y-5.0031
X3.5213Y-3.8031
X3.5413Y-1.6031
X3.5441Y-4.2949
X3.5713Y-2.2031
X3.6004Y-4.2386
X3.6213Y-5.1781
X3.6463Y-5.9281
X3.6757Y-0.9149
X3.6763Y-1.2131
X3.6963Y-5.5781
X3.7213Y-4.3031
X3.7213Y-4.6031
X3.7213Y-6.2031
X3.7363Y-1.9781
X3.7665Y-3.5953
X3.7665Y-3.685
X3.778Y-5.3366
X3.7996Y-3.5953
X3.7996Y-3.685
X3.8007Y-1.7399
X3.8213Y-2.6531
X3.8257Y-0.9149
X3.8614Y-5.3366
X3.9007Y-1.2149
X3.9213Y-3.8031
X3.9213Y-3.8931
X3.9213Y-4.2031
X3.9213Y-4.9531
X3.9213Y-5.6031
X3.9229Y-4.0016
X3.9229Y-4.1215
X3.9713Y-5.8781
X3.9816Y-3.9014
X3.9816Y-3.9514
X3.9816Y-4.0014
X3.9816Y-4.0514
X3.9816Y-4.1014
X3.9858Y-3.5949
X3.9862Y-3.6846
X4.0122Y-3.6957
X4.0213Y-3.8031
X4.0213Y-6.2031
X4.0257Y-1.5649
X4.0316Y-3.9014
X4.0316Y-3.9514
X4.0316Y-4.0014
X4.0316Y-4.0514
X4.0316Y-4.1014
X4.0413Y-4.2031
X4.0713Y-2.8531
X4.0744Y-3.6335
X4.0757Y-1.2149
X4.0816Y-3.9014
X4.0816Y-3.9514
X4.0816Y-4.0014
X4.0816Y-4.0514
X4.0816Y-4.1014
X4.0963Y-2.6531
X4.1213Y-3.8031
X4.1213Y-4.2031
X4.1316Y-3.9014
X4.1316Y-3.9514
X4.1316Y-4.0014
X4.1316Y-4.0514
X4.1316Y-4.1014
X4.1463Y-3.2781
X4.1757Y-2.1149
X4.1757Y-2.2149
X4.1757Y-2.4149
X4.1757Y-2.4899
X4.176Y-2.315
X4.1816Y-3.9014
X4.1816Y-3.9514
X4.1816Y-4.0014
X4.1816Y-4.0514
X4.1816Y-4.1014
X4.1963Y-4.2031
X4.2213Y-5.6781
X4.2413Y-4.0031
X4.2757Y-2.1149
X4.2757Y-2.4899
X4.2758Y-2.2149
X4.2758Y-2.2649
X4.2758Y-2.3149
X4.2758Y-2.3649
X4.2758Y-2.4149
X4.3113Y-4.6481
X4.3213Y-3.8031
X4.3213Y-6.2031
X4.3258Y-2.2149
X4.3258Y-2.2649
X4.3258Y-2.3149
X4.3258Y-2.3649
X4.3258Y-2.4149
X4.3463Y-2.7031
X4.3463Y-2.8531
X4.3463Y-3.4781
X4.3757Y-1.0399
X4.3757Y-2.4899
X4.3758Y-2.2149
X4.3758Y-2.2649
X4.3758Y-2.3149
X4.3758Y-2.3649
X4.3758Y-2.4149
X4.376Y-2.115
X4.3963Y-4.0881
X4.4113Y-4.4681
X4.4257Y-1.8649
X4.4258Y-2.2149
X4.4258Y-2.2649
X4.4258Y-2.3149
X4.4258Y-2.3649
X4.4258Y-2.4149
X4.4713Y-5.4531
X4.4713Y-5.6781
X4.4757Y-2.1149
X4.4757Y-2.4899
X4.4758Y-2.2149
X4.4758Y-2.2649
X4.4758Y-2.3149
X4.4758Y-2.3649
X4.4758Y-2.4149
X4.5507Y-2.1149
X4.5507Y-2.2149
X4.5507Y-2.3149
X4.5507Y-2.4149
X4.5507Y-2.4899
X4.5513Y-4.6131
X4.5713Y-2.7031
X4.5713Y-2.8531
X4.5713Y-5.9281
X4.6007Y-1.6899
X4.6091Y-2.7465
X4.6213Y-6.2031
X4.6567Y-2.7941
X4.663Y-4.6417
X4.663Y-4.6701
X4.6748Y-2.8846
X4.7549Y-3.483
X4.7549Y-3.533
X4.7549Y-3.583
X4.7549Y-3.633
X4.7549Y-3.683
X4.7693Y-4.6417
X4.7693Y-4.6701
X4.7713Y-5.4531
X4.7757Y-1.0399
X4.7757Y-1.8649
X4.7757Y-2.1149
X4.7757Y-2.3149
X4.7757Y-2.5149
X4.8049Y-3.483
X4.8049Y-3.533
X4.8049Y-3.583
X4.8049Y-3.633
X4.8049Y-3.683
X4.8213Y-5.6531
X4.8549Y-3.483
X4.8549Y-3.533
X4.8549Y-3.633
X4.8549Y-3.683
X4.8549Y-3.5831
X4.8963Y-5.8281
X4.9016Y-4.3823
X4.9049Y-3.483
X4.9049Y-3.533
X4.9049Y-3.583
X4.9049Y-3.633
X4.9049Y-3.683
X4.9213Y-6.2031
X4.9488Y-4.3823
X4.9513Y-5.2831
X4.9524Y-2.6874
X4.9549Y-3.483
X4.9549Y-3.533
X4.9549Y-3.583
X4.9549Y-3.633
X4.9549Y-3.683
X4.9717Y-3.9937
X4.9744Y-2.6654
X4.9757Y-2.3149
X4.9763Y-2.1131
X4.9917Y-3.9736
X5.0118Y-3.9539
X5.0248Y-4.0469
X5.0268Y-2.7492
X5.0421Y-4.2043
X5.0449Y-4.0268
X5.0488Y-2.7268
X5.065Y-4.0071
X5.0874Y-4.7685
X5.1213Y-5.4531
X5.1287Y-3.1626
X5.1287Y-3.1909
X5.1299Y-3.6925
X5.1299Y-3.7165
X5.1299Y-3.7409
X5.1299Y-3.765
X5.1303Y-3.2165
X5.1303Y-3.2409
X5.1303Y-3.2654
X5.1303Y-3.2898
X5.1382Y-4.861
X5.1394Y-4.7701
X5.2012Y-4.7693
X5.2028Y-3.2165
X5.2028Y-3.2409
X5.2028Y-3.2654
X5.2028Y-3.2898
X5.2028Y-3.7823
X5.2035Y-3.1906
X5.2051Y-3.1626
X5.2193Y-3.8
X5.2213Y-6.2031
X5.2257Y-2.3649
X5.2263Y-5.2831
X5.2394Y-4.2043
X5.2433Y-3.8
X5.2507Y-2.7149
X5.252Y-2.9252
X5.272Y-3.3225
X5.272Y-3.6169
X5.2728Y-2.9063
X5.2925Y-2.8862
X5.3052Y-3.3225
X5.3126Y-2.8665
X5.3213Y-3.1031
X5.3213Y-6.0031
X5.3257Y-1.9649
X5.3276Y-3.0008
X5.3469Y-2.9803
X5.3567Y-3.6169
X5.3669Y-2.9606
X5.3866Y-2.9406
X5.4757Y-2.4649
X5.4811Y-3.9709
X5.5213Y-4.3031
X5.5213Y-5.7031
X5.5213Y-6.2031
X5.5463Y-3.4781
X5.5672Y-1.8009
X5.5673Y-1.7526
X5.5673Y-1.7768
X5.5757Y-2.9149
X5.6213Y-4.1031
X5.6213Y-4.9031
X5.6213Y-5.1031
X5.6988Y-1.7283
X5.6989Y-1.7526
X5.7007Y-1.0649
X5.703Y-1.8009
X5.7213Y-4.2031
X5.7213Y-5.6031
X5.7213Y-5.9031
X5.7372Y-1.7768
X5.7669Y-3.7866
X5.7669Y-3.8596
X5.8213Y-4.7031
X5.8213Y-6.2031
X5.9257Y-0.8649
X5.9507Y-2.3149
X5.9507Y-2.8149
X5.9662Y-6.2299
X5.9848Y-4.4254
X6.0213Y-4.2031
X6.035Y-1.5122
X6.0518Y-4.4754
X6.0518Y-4.5446
X6.0657Y-1.4819
X6.0858Y-3.7866
X6.0858Y-3.8596
X6.086Y-4.4753
X6.086Y-4.5448
X6.1083Y-5.986
X6.1087Y-6.0639
X6.1213Y-5.2031
X6.1213Y-6.2031
X6.1507Y-1.0649
X6.1666Y-6.2299
X6.2213Y-4.6031
X6.2213Y-4.9031
X6.2213Y-5.5031
X6.2213Y-5.8031
X6.3213Y-4.2031
X6.3213Y-6.2031
X6.4039Y-3.8596
X6.4201Y-3.7866
X6.4213Y-5.0031
X6.4213Y-5.9031
X6.4507Y-2.3149
X6.4507Y-2.8149
X6.4507Y-3.3149
X6.5213Y-4.7031
X6.5213Y-5.6031
X6.539Y-1.9016
X6.5963Y-4.8031
X6.5963Y-5.7031
X6.6007Y-1.0899
X6.6007Y-1.2649
X6.6008Y-1.9634
X6.6213Y-4.2031
X6.6213Y-5.0031
X6.6213Y-5.2031
X6.6213Y-5.9031
X6.6213Y-6.1031
X6.7213Y-5.4031
X6.7228Y-3.7866
X6.7228Y-3.8596
X6.7757Y-1.3399
X6.8055Y-1.5059
X6.8303Y-1.4823
X6.8787Y-1.5067
X6.9035Y-1.4823
X6.9213Y-5.0031
X6.9213Y-5.9031
X6.9507Y-2.8149
X6.9507Y-3.3149
X6.9663Y-0.9481
X6.9713Y-4.6031
X7.0213Y-4.2031
X7.0213Y-5.4031
X7.0429Y-3.7866
X7.0429Y-3.8596
X7.1213Y-4.4031
X7.1213Y-5.0031
X7.1213Y-5.9031
X7.2713Y-4.6031
X7.3213Y-4.2031
X7.3213Y-5.0031
X7.3213Y-5.4031
X7.3213Y-5.9031
X7.3622Y-3.7866
X7.3622Y-3.8596
X7.3926Y-1.7311
X7.4007Y-0.8899
X7.4098Y-1.9744
X7.4334Y-1.5492
X7.4507Y-2.3149
X7.4507Y-2.8149
X7.4507Y-3.3149
X7.4795Y-1.4988
X7.4967Y-1.5501
X7.5164Y-1.5291
X7.5213Y-4.4031
X7.5213Y-4.6031
X7.5484Y-1.4299
X7.5724Y-1.9744
X7.6213Y-4.2031
X7.6213Y-5.4031
X7.6803Y-3.7866
X7.6803Y-3.8596
X7.7084Y-1.5869
X7.7507Y-0.8899
X7.7507Y-1.1649
X7.7713Y-4.6031
X7.8213Y-4.4031
X7.8213Y-5.1031
X7.8213Y-5.9031
X7.9114Y-1.7731
X7.9213Y-4.2031
X7.9507Y-2.3149
X7.9507Y-2.8149
X7.9507Y-3.3149
X7.9969Y-6.3559
X7.9996Y-3.7866
X7.9996Y-3.8596
X8.Y-5.4406
X8.Y-5.4689
X8.0165Y-6.3358
X8.0213Y-4.6031
X8.0933Y-5.4406
X8.0937Y-5.4689
X8.1213Y-4.4031
X8.2213Y-4.2031
X8.2213Y-5.1031
X8.2213Y-5.9031
X8.2365Y-2.1735
X8.2369Y-2.233
X8.4213Y-4.4031
X8.4213Y-5.1031
X8.4213Y-5.9031
X8.4507Y-1.3149
X8.4507Y-1.8149
X8.4507Y-2.3149
X8.4507Y-2.8149
X8.4507Y-3.3149
X8.4507Y-3.8149
X8.5213Y-4.0031
T3
X5.2098Y-1.5906
X5.2098Y-1.6299
X5.2098Y-3.7165
X5.2098Y-3.7559
X5.2492Y-1.5906
X5.2492Y-1.6299
X5.2492Y-3.7165
X5.2492Y-3.7559
X5.2886Y-1.5906
X5.2886Y-1.6299
X5.2886Y-3.7165
X5.2886Y-3.7559
X5.328Y-1.5906
X5.328Y-1.6299
X5.328Y-3.7165
X5.328Y-3.7559
X5.3673Y-1.5906
X5.3673Y-1.6299
X5.3673Y-3.7165
X5.3673Y-3.7559
X5.4067Y-1.5906
X5.4067Y-1.6299
X5.4067Y-3.7165
X5.4067Y-3.7559
X5.4461Y-1.5906
X5.4461Y-1.6299
X5.4461Y-3.7165
X5.4461Y-3.7559
X5.4854Y-1.5906
X5.4854Y-1.6299
X5.4854Y-3.7165
X5.4854Y-3.7559
X5.5248Y-1.5906
X5.5248Y-1.6299
X5.5248Y-3.7165
X5.5248Y-3.7559
X5.5642Y-1.5906
X5.5642Y-1.6299
X5.5642Y-3.7165
X5.5642Y-3.7559
X5.6035Y-1.5906
X5.6035Y-1.6299
X5.6035Y-3.7165
X5.6035Y-3.7559
X5.6429Y-1.5906
X5.6429Y-1.6299
X5.6429Y-3.7165
X5.6429Y-3.7559
X5.6823Y-1.5906
X5.6823Y-1.6299
X5.6823Y-3.7165
X5.6823Y-3.7559
X5.7217Y-1.5906
X5.7217Y-1.6299
X5.7217Y-3.7165
X5.7217Y-3.7559
X5.761Y-1.5906
X5.761Y-1.6299
X5.761Y-3.7165
X5.761Y-3.7559
X5.8004Y-1.5906
X5.8004Y-1.6299
X5.8004Y-3.7165
X5.8004Y-3.7559
X5.8398Y-1.5906
X5.8398Y-1.6299
X5.8398Y-3.7165
X5.8398Y-3.7559
X5.8791Y-1.5906
X5.8791Y-1.6299
X5.8791Y-3.7165
X5.8791Y-3.7559
X5.9185Y-1.5906
X5.9185Y-1.6299
X5.9185Y-3.7165
X5.9185Y-3.7559
X5.9579Y-1.5906
X5.9579Y-1.6299
X5.9579Y-3.7165
X5.9579Y-3.7559
X5.9972Y-1.5906
X5.9972Y-1.6299
X5.9972Y-3.7165
X5.9972Y-3.7559
X6.0366Y-1.5906
X6.0366Y-1.6299
X6.0366Y-3.7165
X6.0366Y-3.7559
X6.076Y-1.5906
X6.076Y-1.6299
X6.076Y-3.7165
X6.076Y-3.7559
X6.1154Y-1.5906
X6.1154Y-1.6299
X6.1154Y-3.7165
X6.1154Y-3.7559
X6.1547Y-1.5906
X6.1547Y-1.6299
X6.1547Y-3.7165
X6.1547Y-3.7559
X6.1941Y-1.5906
X6.1941Y-1.6299
X6.1941Y-3.7165
X6.1941Y-3.7559
X6.2335Y-1.5906
X6.2335Y-1.6299
X6.2335Y-3.7165
X6.2335Y-3.7559
X6.2728Y-1.5906
X6.2728Y-1.6299
X6.2728Y-3.7165
X6.2728Y-3.7559
X6.3122Y-1.5906
X6.3122Y-1.6299
X6.3122Y-3.7165
X6.3122Y-3.7559
X6.3516Y-1.5906
X6.3516Y-1.6299
X6.3516Y-3.7165
X6.3516Y-3.7559
X6.4303Y-1.5906
X6.4303Y-1.6299
X6.4303Y-3.7165
X6.4303Y-3.7559
X6.4697Y-1.5906
X6.4697Y-1.6299
X6.4697Y-3.7165
X6.4697Y-3.7559
X6.5091Y-1.5906
X6.5091Y-1.6299
X6.5091Y-3.7165
X6.5091Y-3.7559
X6.5484Y-1.5906
X6.5484Y-1.6299
X6.5484Y-3.7165
X6.5484Y-3.7559
X6.5878Y-1.5906
X6.5878Y-1.6299
X6.5878Y-3.7165
X6.5878Y-3.7559
X6.6272Y-1.5906
X6.6272Y-1.6299
X6.6272Y-3.7165
X6.6272Y-3.7559
X6.6665Y-1.5906
X6.6665Y-1.6299
X6.6665Y-3.7165
X6.6665Y-3.7559
X6.7059Y-1.5906
X6.7059Y-1.6299
X6.7059Y-3.7165
X6.7059Y-3.7559
X6.7453Y-1.5906
X6.7453Y-1.6299
X6.7453Y-3.7165
X6.7453Y-3.7559
X6.7846Y-1.5906
X6.7846Y-1.6299
X6.7846Y-3.7165
X6.7846Y-3.7559
X6.824Y-1.5906
X6.824Y-1.6299
X6.824Y-3.7165
X6.824Y-3.7559
X6.8634Y-1.5906
X6.8634Y-1.6299
X6.8634Y-3.7165
X6.8634Y-3.7559
X6.9028Y-1.5906
X6.9028Y-1.6299
X6.9028Y-3.7165
X6.9028Y-3.7559
X6.9421Y-1.5906
X6.9421Y-1.6299
X6.9421Y-3.7165
X6.9421Y-3.7559
X6.9815Y-1.5906
X6.9815Y-1.6299
X6.9815Y-3.7165
X6.9815Y-3.7559
X7.0209Y-1.5906
X7.0209Y-1.6299
X7.0209Y-3.7165
X7.0209Y-3.7559
X7.0602Y-1.5906
X7.0602Y-1.6299
X7.0602Y-3.7165
X7.0602Y-3.7559
X7.0996Y-1.5906
X7.0996Y-1.6299
X7.0996Y-3.7165
X7.0996Y-3.7559
X7.139Y-1.5906
X7.139Y-1.6299
X7.139Y-3.7165
X7.139Y-3.7559
X7.1783Y-1.5906
X7.1783Y-1.6299
X7.1783Y-3.7165
X7.1783Y-3.7559
X7.2177Y-1.5906
X7.2177Y-1.6299
X7.2177Y-3.7165
X7.2177Y-3.7559
X7.2571Y-1.5906
X7.2571Y-1.6299
X7.2571Y-3.7165
X7.2571Y-3.7559
X7.2965Y-1.5906
X7.2965Y-1.6299
X7.2965Y-3.7165
X7.2965Y-3.7559
X7.3358Y-1.5906
X7.3358Y-1.6299
X7.3358Y-3.7165
X7.3358Y-3.7559
X7.3752Y-1.5906
X7.3752Y-1.6299
X7.3752Y-3.7165
X7.3752Y-3.7559
X7.4146Y-1.5906
X7.4146Y-1.6299
X7.4146Y-3.7165
X7.4146Y-3.7559
X7.4539Y-1.5906
X7.4539Y-1.6299
X7.4539Y-3.7165
X7.4539Y-3.7559
X7.4933Y-1.5906
X7.4933Y-1.6299
X7.4933Y-3.7165
X7.4933Y-3.7559
X7.5327Y-1.5906
X7.5327Y-1.6299
X7.5327Y-3.7165
X7.5327Y-3.7559
X7.572Y-1.5906
X7.572Y-1.6299
X7.572Y-3.7165
X7.572Y-3.7559
T4
X3.3413Y-3.6402
X4.2634Y-4.7713
X5.6961Y-5.3579
X5.7906Y-5.3579
X5.8957Y-4.4744
X6.1181Y-4.4358
T5
X5.8693Y-4.5738
X5.9193Y-4.5738
X5.9209Y-5.5021
X5.9665Y-5.9758
X5.9665Y-6.0258
X5.9665Y-6.0758
X5.9693Y-4.5738
X5.9709Y-5.5021
X6.0209Y-5.5021
X6.0276Y-5.0102
X6.0276Y-5.0602
X6.0276Y-5.1102
X6.1661Y-5.9758
X6.1661Y-6.0258
X6.1661Y-6.0758
X6.2264Y-5.0102
X6.2264Y-5.0602
X6.2264Y-5.1102
X6.8543Y-4.6681
X6.8543Y-4.7181
X6.8543Y-4.7681
X6.8559Y-5.5726
X6.8559Y-5.6226
X6.8559Y-5.6726
X7.0551Y-4.6681
X7.0551Y-4.7181
X7.0551Y-4.7681
X7.0575Y-5.5726
X7.0575Y-5.6226
X7.0575Y-5.6726
T6
X5.6659Y-4.0533
X5.6659Y-4.3368
X5.9848Y-4.0533
X5.9848Y-4.3368
X6.3037Y-4.0533
X6.3037Y-4.3368
X6.6226Y-4.0533
X6.6226Y-4.3368
X6.9425Y-4.0533
X6.9425Y-4.3368
X7.2614Y-4.0533
X7.2614Y-4.3368
X7.5803Y-4.0533
X7.5803Y-4.3368
X7.8992Y-4.0533
X7.8992Y-4.3368
T7
X3.3091Y-4.2941
X3.3413Y-3.7724
X3.3976Y-1.4173
X3.5118Y-1.3976
X3.5364Y-5.2815
X3.5492Y-1.752
X3.5575Y-4.0067
X3.6752Y-1.6161
X3.6878Y-3.1457
X3.824Y-3.2799
X3.9583Y-3.4142
X4.0079Y-2.5063
X4.0138Y-1.4941
X4.0299Y-5.4921
X4.0492Y-1.3976
X4.0925Y-2.0331
X4.0969Y-3.5484
X4.4793Y-3.4931
X4.4988Y-4.3331
X4.5723Y-3.4271
X4.5723Y-3.5581
X4.5988Y-4.4701
X4.7161Y-3.8894
X4.7437Y-4.7551
X4.7874Y-3.9929
X4.8232Y-5.9094
X4.8406Y-4.5039
X4.874Y-2.0134
X4.8744Y-1.5626
X4.9386Y-4.0071
X5.0055Y-3.8925
X5.0413Y-4.3661
X5.0967Y-4.5829
X5.1102Y-3.8409
X5.1244Y-1.4063
X5.1787Y-3.9094
X5.25Y-1.4366
X5.326Y-5.3016
X5.3941Y-1.8303
X5.4248Y-5.2654
X5.4764Y-4.7563
X5.4764Y-4.9213
X5.4976Y-3.9043
X5.5287Y-5.2654
X5.5862Y-3.8157
X5.6988Y-5.2945
X5.7122Y-3.8154
X5.7205Y-3.9941
X5.7858Y-4.1169
X5.7882Y-5.2945
X5.8644Y-4.1169
X5.9346Y-6.1387
X5.9978Y-6.1387
X6.0394Y-3.9941
X6.1053Y-4.1169
X6.1349Y-6.1387
X6.1835Y-4.1169
X6.1886Y-3.9866
X6.1969Y-3.9118
X6.1983Y-6.1387
X6.2138Y-3.8594
X6.3543Y-1.0118
X6.3583Y-3.9941
X6.4242Y-4.1169
X6.4681Y-0.987
X6.4717Y-1.8764
X6.4744Y-4.8553
X6.4744Y-5.774
X6.5024Y-4.1169
X6.5858Y-0.8799
X6.6157Y-1.3799
X6.6425Y-1.8209
X6.6772Y-3.9941
X6.7431Y-4.1169
X6.8213Y-4.1169
X6.8223Y-4.5997
X6.826Y-5.5028
X6.8791Y-1.1697
X6.9075Y-1.2736
X6.9961Y-3.9941
X7.063Y-4.1169
X7.1413Y-4.1169
X7.1732Y-1.4425
X7.2362Y-1.2413
X7.315Y-3.9941
X7.3394Y-1.1528
X7.3819Y-4.1169
X7.3992Y-1.0472
X7.4453Y-1.1992
X7.4602Y-4.1169
X7.4677Y-3.9866
X7.4736Y-3.9118
X7.6327Y-1.7091
X7.6339Y-3.9941
X7.688Y-1.6736
X7.7008Y-4.1169
X7.7791Y-4.1169
X7.8652Y-1.3563
X7.9337Y-1.0232
X7.9528Y-3.9941
X7.9872Y-1.6791
X8.0197Y-4.1169
X8.098Y-4.1169
X8.1224Y-1.3091
X8.1276Y-3.8594
X8.2018Y-1.5965
X8.2018Y-1.7264
T8
X2.9783Y-4.0756
X2.9783Y-4.3315
X3.0571Y-4.0756
X3.0571Y-4.3315
X3.2618Y-3.8374
X3.2697Y-5.3484
X3.2756Y-4.4594
X3.2756Y-4.5382
X3.2795Y-6.1831
X3.3012Y-1.2244
X3.3012Y-1.3031
X3.3406Y-3.8374
X3.3484Y-5.3484
X3.3583Y-6.1831
X3.4311Y-4.1839
X3.4311Y-4.4024
X3.5098Y-4.1839
X3.5098Y-4.4024
X3.5815Y-2.5165
X3.5815Y-2.5953
X3.8528Y-2.4047
X3.8917Y-2.1457
X3.8917Y-2.2244
X3.9315Y-2.4047
X4.1717Y-4.4665
X4.1909Y-5.9193
X4.1909Y-5.998
X4.2504Y-4.4665
X4.4157Y-4.9209
X4.4157Y-4.9996
X4.498Y-5.2657
X4.572Y-3.7882
X4.572Y-3.8669
X4.5768Y-5.2657
X4.7224Y-5.2657
X4.7815Y-6.0669
X4.7815Y-6.1457
X4.8012Y-5.2657
X4.8213Y-3.8276
X4.9Y-3.8276
X5.0189Y-1.5898
X5.0189Y-1.6685
X5.0189Y-1.8961
X5.0189Y-1.9748
X5.1941Y-4.5449
X5.1941Y-4.6236
X5.3031Y-4.928
X5.3031Y-5.1476
X5.3819Y-4.928
X5.3819Y-5.1476
X5.8406Y-4.8484
X5.8425Y-5.7069
X5.9193Y-4.8484
X5.9213Y-5.7069
X7.1949Y-4.7181
X7.1965Y-5.6226
X7.235Y-1.2961
X7.235Y-1.3748
X7.2736Y-4.7181
X7.2752Y-5.6226
X7.4154Y-1.335
X7.4941Y-1.335
X7.9498Y-1.8327
X7.9498Y-1.9114
X8.0738Y-1.4508
X8.1526Y-1.4508
T9
X2.1673Y-2.126
X2.561Y-2.126
X2.5886Y-1.4843
X2.7992Y-3.2585
X2.7992Y-3.6522
X2.9823Y-1.4843
X3.2028Y-4.0146
X3.3894Y-4.9933
X3.3996Y-4.0146
X3.5862Y-4.9933
X3.622Y-5.7815
X3.6835Y-5.4724
X3.6835Y-5.6693
X3.6988Y-4.8425
X3.6988Y-5.0394
X3.8122Y-4.9496
X3.8189Y-5.7815
X3.9709Y-5.7748
X3.9709Y-5.9717
X4.0091Y-4.9496
X4.2768Y-4.0882
X4.2768Y-4.285
X4.5061Y-4.7955
X4.5581Y-5.6122
X4.5581Y-5.8091
X4.5848Y-4.9077
X4.5848Y-5.1045
X4.6762Y-5.6122
X4.6762Y-5.8091
X4.703Y-4.7955
X4.703Y-4.9077
X4.703Y-5.1045
X4.8211Y-4.9077
X4.8211Y-5.1045
X4.939Y-4.963
X4.939Y-5.1598
X5.0167Y-5.6811
X5.0571Y-4.963
X5.0571Y-5.1598
X5.0817Y-5.7933
X5.0817Y-5.9902
X5.1754Y-4.963
X5.1754Y-5.1598
X5.1998Y-5.7933
X5.1998Y-5.9902
X5.2136Y-5.6811
X5.326Y-5.4508
X5.326Y-5.6476
X5.363Y-4.4862
X5.363Y-4.6831
X5.5463Y-5.9035
X5.5463Y-6.1004
X5.8374Y-5.8714
X5.8374Y-6.0683
X5.8409Y-5.0106
X5.8409Y-5.2075
X6.1516Y-4.564
X6.1535Y-5.4736
X6.3484Y-4.564
X6.3504Y-5.4736
X6.4803Y-4.5659
X6.4823Y-5.4819
X6.4902Y-4.9547
X6.4921Y-5.8706
X6.6772Y-4.5659
X6.6791Y-5.4819
X6.687Y-4.9547
X6.689Y-5.8706
X7.2858Y-5.2717
X7.2858Y-6.1765
X7.4827Y-5.2717
X7.4827Y-6.1765
X7.5315Y-4.8484
X7.5315Y-5.0453
X7.5335Y-5.7643
X7.5335Y-5.9612
X8.2323Y-4.0967
X8.2323Y-4.2935
T10
X2.7618Y-2.126
X2.8189Y-3.9083
X2.8189Y-4.4988
X2.9587Y-2.126
X3.126Y-3.9083
X3.126Y-4.4988
X3.2386Y-5.5264
X3.2386Y-5.6406
X3.2598Y-5.7343
X3.2598Y-6.0413
X3.2791Y-4.8965
X3.2791Y-5.2035
X3.4311Y-4.5453
X3.4311Y-4.8524
X3.5079Y-5.9268
X3.5079Y-6.0409
X3.5449Y-4.5449
X3.5449Y-4.852
X3.5457Y-5.5264
X3.5457Y-5.6406
X3.812Y-4.5049
X3.812Y-4.812
X3.815Y-5.9268
X3.815Y-6.0409
X3.9262Y-4.5049
X3.9262Y-4.812
X4.2854Y-5.5039
X4.2854Y-5.811
X4.3327Y-6.0335
X4.3327Y-6.1476
X4.3907Y-5.9193
X4.3996Y-5.502
X4.3996Y-5.8091
X4.6398Y-6.0335
X4.6398Y-6.1476
X4.6978Y-5.9193
X4.9114Y-5.4508
X4.9114Y-5.565
X4.9301Y-6.1004
X5.2185Y-5.4508
X5.2185Y-5.565
X5.2372Y-6.1004
X5.3159Y-5.7933
X5.3159Y-6.1004
X5.4301Y-5.7933
X5.4301Y-6.1004
X5.7683Y-4.0415
X5.7683Y-4.3486
X5.8825Y-4.0415
X5.8825Y-4.3486
X6.0433Y-4.7195
X6.0433Y-4.8337
X6.0453Y-5.6291
X6.0453Y-5.7502
X6.0872Y-4.0415
X6.0872Y-4.3486
X6.2014Y-4.0415
X6.2014Y-4.3486
X6.3504Y-4.7195
X6.3504Y-4.8337
X6.3524Y-5.6291
X6.3524Y-5.7502
X6.3547Y-4.9154
X6.3547Y-5.2224
X6.3547Y-5.8317
X6.3547Y-6.1387
X6.4061Y-4.0415
X6.4061Y-4.3486
X6.4508Y-5.1102
X6.4508Y-5.2244
X6.4528Y-6.0261
X6.4528Y-6.1403
X6.5203Y-4.0415
X6.5203Y-4.3486
X6.725Y-4.0415
X6.725Y-4.3486
X6.7579Y-5.1102
X6.7579Y-5.2244
X6.7598Y-6.0261
X6.7598Y-6.1403
X6.8392Y-4.0415
X6.8392Y-4.3486
X6.8543Y-4.8953
X6.8543Y-5.2024
X6.8563Y-5.7998
X6.8563Y-6.1069
X7.0449Y-4.0415
X7.0449Y-4.3486
X7.0551Y-4.8953
X7.0551Y-5.2024
X7.0575Y-5.7998
X7.0575Y-6.1069
X7.1591Y-4.0415
X7.1591Y-4.3486
X7.1945Y-4.8953
X7.1945Y-5.2024
X7.1945Y-5.7998
X7.1945Y-6.1069
X7.3638Y-4.0415
X7.3638Y-4.3486
X7.3756Y-4.7181
X7.376Y-4.8484
X7.376Y-5.1555
X7.378Y-5.6226
X7.378Y-5.7643
X7.378Y-6.0714
X7.478Y-4.0415
X7.478Y-4.3486
X7.6827Y-4.0415
X7.6827Y-4.3486
X7.6827Y-4.7181
X7.685Y-5.6226
X7.7969Y-4.0415
X7.7969Y-4.3486
X8.0016Y-4.0415
X8.0016Y-4.3486
X8.1157Y-4.0415
X8.1157Y-4.3486
T11
X2.2736Y-1.7518
X2.2736Y-1.9018
X4.1459Y-5.2831
X4.2959Y-5.2831
X5.5635Y-5.3574
X5.5635Y-5.5074
X5.5921Y-4.4754
X5.5921Y-4.6254
T12
X4.4594Y-3.674
X5.4315Y-1.8945
X5.8295Y-1.9535
X7.6327Y-1.8327
T13
X3.6201Y-1.0122
X3.6602Y-1.0822
X3.7004Y-1.0122
X3.7406Y-1.0822
X3.7807Y-1.0122
X3.8209Y-1.0822
X3.861Y-1.0122
X3.9012Y-1.0822
T14
X7.7589Y-1.2583
X7.7589Y-1.337
X7.7589Y-1.4157
X7.7589Y-1.4945
T15
X2.1634Y-3.2585
X2.4587Y-3.2585
X3.1134Y-3.2579
X3.4087Y-3.2579
X4.2811Y-2.6831
T16
X4.0884Y-2.9421
X4.0884Y-3.0421
X4.1884Y-2.9421
X4.1884Y-3.0421
X4.2884Y-2.9421
X4.2884Y-3.0421
X4.3884Y-2.9421
X4.3884Y-3.0421
X4.4884Y-2.9421
X4.4884Y-3.0421
X4.5884Y-2.9421
X4.5884Y-3.0421
X4.6884Y-2.9421
X4.6884Y-3.0421
X4.7884Y-2.9421
X4.7884Y-3.0421
X4.8884Y-2.9421
X4.8884Y-3.0421
X4.9884Y-2.9421
X4.9884Y-3.0421
X8.3713Y-1.4031
X8.3713Y-1.5031
X8.3713Y-1.6031
X8.3713Y-1.7031
X8.3713Y-1.8031
X8.3713Y-1.9031
X8.3713Y-2.0031
X8.3713Y-2.1031
X8.3713Y-2.2031
X8.3713Y-2.3031
T17
X2.6417Y-2.786
X2.6417Y-2.9829
X2.7992Y-2.786
X2.7992Y-2.9829
T18
X3.4732Y-3.522
X3.7799Y-3.8303
X4.1528Y-4.8425
X4.2945Y-5.0236
X5.1252Y-1.6689
X5.1256Y-1.8945
T19
X4.2776Y-1.2559
X4.376Y-0.8622
X4.376Y-1.3543
X4.5728Y-1.2559
X4.7697Y-0.8622
X4.7697Y-1.3543
X4.8681Y-1.2559
X5.6358Y-1.2559
X5.7343Y-0.8622
X5.7343Y-1.3543
X5.9311Y-1.2559
X6.128Y-0.8622
X6.128Y-1.3543
X6.2264Y-1.2559
T20
X7.6518Y-1.2295
X7.6518Y-1.5051
X7.8659Y-1.2295
X7.8659Y-1.5051
T21
X2.085Y-3.8837
X2.085Y-4.5226
X2.085Y-4.7183
X2.085Y-5.3573
X2.085Y-5.553
X2.085Y-6.1919
X2.335Y-3.8837
X2.335Y-4.5226
X2.335Y-4.7183
X2.335Y-5.3573
X2.335Y-5.553
X2.335Y-6.1919
X2.585Y-3.8837
X2.585Y-4.5226
X2.585Y-4.7183
X2.585Y-5.3573
X2.585Y-5.553
X2.585Y-6.1919
X7.9189Y-4.7183
X7.9189Y-5.3573
X7.9189Y-5.553
X7.9189Y-6.1919
X8.1689Y-4.7183
X8.1689Y-5.3573
X8.1689Y-5.553
X8.1689Y-6.1919
X8.4189Y-4.7183
X8.4189Y-5.3573
X8.4189Y-5.553
X8.4189Y-6.1919
T22
X3.4406Y-1.0472
X4.0807Y-1.0472
T23
X3.6868Y-2.876
X3.8428Y-2.876
T24
X2.2508Y-1.4343
X8.5102Y-4.1953
T25
X2.1201Y-0.9636
X2.1201Y-1.1604
X2.4154Y-0.9636
X2.4154Y-1.1604
X5.1043Y-0.9638
X5.1043Y-1.1606
X5.3996Y-0.9638
X5.3996Y-1.1606
X8.0886Y-0.9636
X8.0886Y-1.1604
X8.3839Y-0.9636
X8.3839Y-1.1604
T17
X2.7992Y-1.2303G85X2.7992Y-1.1398
G05
X2.939Y-1.0669G85X3.0295Y-1.0669
G05
X2.9291Y-1.3031G85X3.0394Y-1.3031
G05
T0
M30
