M48
; DRILL file {KiCad 5.1.4-e60b266~84~ubuntu18.04.1} date Thu 19 Dec 2019 12:31:42 PM CET
; FORMAT={-:-/ absolute / metric / decimal}
; #@! TF.CreationDate,2019-12-19T12:31:42+01:00
; #@! TF.GenerationSoftware,Kicad,Pcbnew,5.1.4-e60b266~84~ubuntu18.04.1
; #@! TF.FileFunction,Plated,1,2,PTH
FMAT,2
METRIC
T1C0.300
T2C0.375
T3C0.450
T4C0.890
T5C0.920
T6C1.000
T7C1.001
T8C1.016
T9C1.020
T10C1.200
T11C1.300
T12C1.350
T13C1.500
T14C1.570
T15C2.330
T16C3.500
T17C3.700
%
G90
G05
T1
X-13.084Y-45.522
X-12.068Y-45.522
X-7.59Y-44.252
X-1.654Y-51.364
X2.664Y-49.967
X4.061Y-47.427
X4.392Y-26.421
X4.392Y-30.081
X5.204Y-50.569
X6.855Y-47.427
X7.998Y-43.617
X9.522Y-22.789
X10.03Y-45.268
X10.34Y-104.76
X10.792Y-46.03
X11.189Y-24.811
X11.189Y-30.066
X11.427Y-55.936
X11.808Y-52.253
X14.178Y-105.062
X15.999Y-15.804
X16.767Y-95.103
X16.767Y-99.205
X18.712Y-104.447
X21.057Y-64.234
X21.839Y-62.354
X23.414Y-60.881
X23.414Y-62.332
X24.31Y-79.037
X24.989Y-64.234
X27.843Y-84.219
X30.838Y-87.259
X30.843Y-85.728
X30.843Y-86.497
X33.571Y-85.73
X33.574Y-86.495
X33.574Y-87.259
X36.025Y-81.341
X48.638Y-43.49
X48.892Y-44.252
X54.48Y-37.648
X54.988Y-38.156
X60.576Y-32.822
X62.354Y-33.584
X62.436Y-37.784
X62.436Y-40.834
X68.572Y-40.439
X68.575Y-43.97
X69.431Y-40.44
X69.433Y-43.97
X71.263Y-84.04
X71.326Y-43.914
X71.933Y-82.837
X72.26Y-42.982
X72.431Y-44.105
X72.433Y-84.14
X73.431Y-82.837
X73.436Y-42.857
X73.934Y-44.112
X75.433Y-82.837
X75.438Y-42.842
X75.562Y-37.648
X75.933Y-84.14
X76.02Y-13.17
X76.324Y-38.664
X76.441Y-44.125
X76.937Y-42.845
X77.086Y-39.426
X77.594Y-38.664
X77.935Y-82.837
X78.435Y-84.138
X78.93Y-44.133
X79.436Y-42.84
X80.439Y-42.84
X80.442Y-44.107
X80.833Y-80.625
X82.941Y-42.842
X83.05Y-14.224
X86.931Y-115.471
X89.411Y-116.846
X89.535Y-118.854
X90.294Y-46.792
X91.305Y-118.234
X91.31Y-46.792
X91.793Y-102.69
X92.88Y-115.471
X93.124Y-119.156
X94.0Y-120.31
X94.143Y-112.296
X98.839Y-120.35
X99.634Y-120.287
X99.695Y-118.138
X99.804Y-118.971
X100.767Y-112.225
X102.443Y-113.505
X102.974Y-119.911
X103.007Y-118.341
X107.099Y-18.357
X107.917Y-122.979
X108.646Y-110.797
X109.662Y-70.16
X111.318Y-113.279
X113.038Y-19.515
X113.472Y-60.762
X113.759Y-76.764
X115.123Y-76.827
X115.651Y-20.069
X115.961Y-24.115
X117.173Y-65.215
X117.536Y-21.305
X118.276Y-69.471
X122.103Y-65.103
X123.505Y-62.667
X124.076Y-22.154
X125.092Y-38.156
X125.359Y-119.639
X126.426Y-58.476
X126.489Y-70.858
X128.971Y-64.228
X129.486Y-65.892
X149.984Y-51.11
X149.984Y-52.634
T2
X10.251Y-84.066
X10.864Y-67.229
X12.61Y-55.43
X14.013Y-113.975
X14.044Y-93.284
X14.186Y-84.366
X15.116Y-50.338
X15.745Y-94.976
X15.745Y-99.205
X17.541Y-55.418
X18.651Y-83.784
X19.53Y-18.224
X21.059Y-67.892
X23.619Y-49.512
X24.366Y-70.642
X24.458Y-55.593
X24.458Y-58.788
X24.681Y-60.747
X24.696Y-67.879
X25.989Y-55.811
X28.031Y-69.67
X28.095Y-60.749
X34.611Y-77.07
X36.264Y-20.13
X37.511Y-4.351
X40.98Y-17.142
X47.816Y-23.757
X52.652Y-108.483
X52.662Y-122.867
X57.622Y-120.406
X58.544Y-105.11
X63.139Y-28.859
X64.386Y-34.6
X66.37Y-36.119
X67.399Y-127.185
X69.032Y-35.466
X69.271Y-115.4
X70.739Y-38.669
X72.398Y-106.848
X72.461Y-121.229
X73.942Y-116.507
X74.244Y-120.437
X89.045Y-46.876
X89.634Y-120.706
X90.193Y-108.633
X91.537Y-124.818
X93.091Y-120.706
X93.35Y-114.701
X95.41Y-116.87
X96.215Y-124.818
X96.444Y-116.865
X97.244Y-20.079
X97.465Y-116.865
X100.919Y-124.818
X100.993Y-17.808
X101.29Y-119.116
X101.633Y-115.484
X102.835Y-115.768
X106.015Y-110.142
X106.401Y-113.685
X108.651Y-114.209
X110.526Y-101.122
X111.768Y-103.868
X112.652Y-94.348
X112.977Y-108.153
X114.051Y-114.295
X117.218Y-97.262
X117.871Y-59.497
X119.842Y-116.378
X120.947Y-67.927
X121.663Y-80.396
X121.879Y-86.629
X121.897Y-71.844
X122.497Y-108.156
X122.497Y-115.092
X123.794Y-55.834
X124.015Y-97.272
X125.359Y-104.277
X127.66Y-121.371
X127.859Y-63.508
X129.167Y-69.2
X129.286Y-124.292
X129.319Y-96.939
X130.879Y-110.686
X130.914Y-114.48
X132.784Y-121.681
X132.784Y-125.339
X134.579Y-79.644
X142.121Y-104.788
X142.474Y-84.582
T3
X58.74Y-127.825
X58.743Y-130.813
X104.445Y-93.447
X104.45Y-90.063
X125.557Y-130.8
X125.56Y-127.818
T4
X105.437Y-8.065
X107.727Y-8.065
X108.737Y-1.465
X109.757Y-3.245
X110.777Y-1.465
X111.797Y-3.245
X112.817Y-1.465
X113.837Y-3.245
X114.857Y-1.465
X115.877Y-3.245
X116.867Y-8.065
X119.157Y-8.065
T5
X80.886Y-5.95
X80.886Y-7.95
X83.386Y-5.95
X83.386Y-7.95
X96.136Y-8.59
X96.136Y-10.59
X96.136Y-12.59
X96.136Y-14.59
T6
X127.523Y-19.977
X130.023Y-19.977
X-8.738Y-23.264
X-8.738Y-25.804
X-8.738Y-28.344
T7
X121.06Y-28.25
X121.06Y-30.79
X121.06Y-33.33
T8
X-5.71Y-35.009
X-5.71Y-37.549
X-3.17Y-35.009
X-3.17Y-37.549
X-0.63Y-35.009
X-0.63Y-37.549
X1.91Y-35.009
X1.91Y-37.549
X4.45Y-35.009
X4.45Y-37.549
X6.99Y-35.009
X6.99Y-37.549
X9.53Y-35.009
X9.53Y-37.549
X12.07Y-35.009
X12.07Y-37.549
X14.61Y-35.009
X14.61Y-37.549
X17.15Y-35.009
X17.15Y-37.549
T10
X144.396Y-17.582
X149.396Y-17.582
X144.396Y-31.806
X149.396Y-31.806
T11
X22.511Y-8.512
X25.011Y-11.012
X27.511Y1.488
X30.011Y-8.512
X32.511Y1.488
X35.011Y-11.012
X37.511Y-8.512
X43.515Y-8.512
X46.015Y-11.012
X48.515Y1.488
X51.015Y-8.512
X53.515Y1.488
X56.015Y-11.012
X58.515Y-8.512
T12
X93.416Y-7.86
X93.416Y-14.86
X98.856Y-7.86
X98.856Y-14.86
T13
X138.455Y-56.388
X138.455Y-72.618
X144.805Y-56.388
X144.805Y-72.618
X151.155Y-56.388
X151.155Y-72.618
X-10.147Y-104.788
X-10.147Y-121.018
X-3.797Y-104.788
X-3.797Y-121.018
X2.553Y-104.788
X2.553Y-121.018
X-10.147Y-56.388
X-10.147Y-72.618
X-3.797Y-56.388
X-3.797Y-72.618
X2.553Y-56.388
X2.553Y-72.618
X-10.147Y-84.595
X-10.147Y-100.825
X-3.797Y-84.595
X-3.797Y-100.825
X2.553Y-84.595
X2.553Y-100.825
X138.455Y-104.788
X138.455Y-121.018
X144.805Y-104.788
X144.805Y-121.018
X151.155Y-104.788
X151.155Y-121.018
X138.455Y-84.582
X138.455Y-100.812
X144.805Y-84.582
X144.805Y-100.812
X151.155Y-84.582
X151.155Y-100.812
T14
X104.167Y-2.355
X120.427Y-2.355
T15
X76.116Y-3.24
X88.156Y-3.24
T16
X70.5Y0.0
X70.5Y-133.502
X-11.999Y-133.5
X152.999Y-133.502
X0.0Y0.0
X141.011Y-0.015
T17
X107.439Y-64.318
X39.494Y-64.318
T6
G00X126.308Y-2.716
M15
G01X126.308Y-4.716
M16
G05
G00X132.008Y-0.716
M15
G01X130.008Y-0.716
M16
G05
G00X132.008Y-6.716
M15
G01X130.008Y-6.716
M16
G05
T9
G00X8.803Y-8.7
M15
G01X8.803Y-10.22
M16
G05
G00X14.763Y1.74
M15
G01X13.243Y1.74
M16
G05
G00X14.763Y-11.96
M15
G01X13.243Y-11.96
M16
G05
T0
M30
