M48
; DRILL file {KiCad 6.0.1-79c1e3a40b~116~ubuntu20.04.1} date Thu 27 Jan 2022 04:10:46 PM CET
; FORMAT={-:-/ absolute / inch / decimal}
; #@! TF.CreationDate,2022-01-27T16:10:46+01:00
; #@! TF.GenerationSoftware,Kicad,Pcbnew,6.0.1-79c1e3a40b~116~ubuntu20.04.1
; #@! TF.FileFunction,Plated,1,4,PTH
FMAT,2
INCH
; #@! TA.AperFunction,Plated,PTH,ViaDrill
T1C0.0118
; #@! TA.AperFunction,Plated,PTH,ViaDrill
T2C0.0148
; #@! TA.AperFunction,Plated,PTH,ViaDrill
T3C0.0157
; #@! TA.AperFunction,Plated,PTH,ViaDrill
T4C0.0177
; #@! TA.AperFunction,Plated,PTH,ViaDrill
T5C0.0266
; #@! TA.AperFunction,Plated,PTH,ComponentDrill
T6C0.0362
; #@! TA.AperFunction,Plated,PTH,ComponentDrill
T7C0.0378
; #@! TA.AperFunction,Plated,PTH,ComponentDrill
T8C0.0394
; #@! TA.AperFunction,Plated,PTH,ComponentDrill
T9C0.0402
; #@! TA.AperFunction,Plated,PTH,ComponentDrill
T10C0.0512
; #@! TA.AperFunction,Plated,PTH,ComponentDrill
T11C0.0531
; #@! TA.AperFunction,Plated,PTH,ComponentDrill
T12C0.0591
; #@! TA.AperFunction,Plated,PTH,ComponentDrill
T13C0.0917
; #@! TA.AperFunction,Plated,PTH,ComponentDrill
T14C0.1260
%
G90
G05
T1
X-0.5151Y-1.7922
X-0.4751Y-1.7922
X-0.2991Y-1.9135
X-0.2669Y-1.7604
X-0.2646Y-1.7967
X-0.2401Y-1.9131
X-0.2192Y-1.8875
X-0.0651Y-2.0222
X-0.0581Y-1.8692
X0.1049Y-1.9672
X0.2049Y-1.9909
X0.2729Y-1.5902
X0.3109Y-1.4682
X0.3304Y-1.9272
X0.3441Y-2.4979
X0.3749Y-2.5822
X0.3799Y-0.8272
X0.395Y-2.4623
X0.4029Y-2.5568
X0.4499Y-2.2022
X0.4649Y-2.0572
X0.4849Y-2.5022
X0.5288Y-2.6198
X0.5316Y-2.4544
X0.5582Y-4.1363
X0.5741Y-2.4029
X0.613Y-2.5143
X0.6152Y-2.4849
X0.6155Y-2.3954
X0.6249Y-0.7797
X0.7103Y-2.5576
X0.712Y-2.3795
X0.7124Y-2.7697
X0.7367Y-4.1121
X0.9229Y-0.8292
X1.1349Y-1.1946
X1.1799Y-1.1709
X1.1949Y-2.3222
X1.1949Y-2.3922
X1.2141Y-3.4354
X1.2143Y-3.3751
X1.2143Y-3.4054
X1.2689Y-1.5802
X1.3049Y-1.1212
X1.3217Y-3.3752
X1.3218Y-3.4354
X1.3255Y-1.5558
X1.3539Y-1.1062
X1.3729Y-1.1392
X1.387Y-3.4038
X1.3962Y-1.1097
X1.4183Y-3.2024
X1.4199Y-1.1647
X1.4309Y-1.4362
X1.4505Y-1.2162
X1.5371Y-3.2692
X1.5399Y-2.5642
X1.5449Y-1.4802
X1.5479Y-2.9972
X1.6134Y-2.249
X1.6154Y-2.0747
X1.6416Y-2.2669
X1.6449Y-2.074
X1.6485Y-2.0391
X1.6691Y-2.2848
X1.7089Y-2.0267
X1.7225Y-2.3405
X1.7259Y-2.3852
X1.7364Y-1.2817
X1.8234Y-2.0207
X1.8579Y-1.3322
X1.8589Y-1.4193
X1.8874Y-1.3339
X1.8916Y-1.4195
X1.9169Y-1.3332
X1.9211Y-1.4193
X1.9409Y-2.0862
X1.9464Y-1.3339
X1.9507Y-1.4193
X1.9559Y-1.7032
X1.9604Y-1.4502
X1.9734Y-1.6072
X1.9779Y-1.3339
X1.9802Y-1.4193
X1.9847Y-1.3035
X1.9882Y-1.2734
X1.9883Y-2.1393
X2.0286Y-1.4739
X2.0549Y-2.3762
X2.0624Y-1.4772
X2.1029Y-1.6607
X2.1079Y-1.6072
X2.1184Y-1.4712
X2.1309Y-4.4592
X2.1616Y-1.754
X2.1819Y-4.8522
X2.1839Y-4.5592
X2.1854Y-1.6947
X2.2039Y-4.0772
X2.2239Y-1.6072
X2.2264Y-1.4842
X2.2301Y-1.754
X2.2609Y-2.1692
X2.2729Y-3.9792
X2.2749Y-4.3357
X2.2844Y-1.6062
X2.2929Y-4.4817
X2.3169Y-1.4597
X2.3384Y-4.7692
X2.4509Y-1.9822
X2.5534Y-4.0602
X2.5949Y-4.4907
X2.6139Y-2.3062
X2.6579Y-4.2912
X2.6909Y-1.9992
X2.7129Y-4.4117
X2.7259Y-4.0072
X2.7309Y-1.1442
X2.7769Y-1.1032
X2.8549Y-2.3952
X2.8649Y-2.0522
X2.9549Y-1.1622
X2.9799Y-1.1212
X2.9929Y-0.5185
X3.0199Y-1.0932
X3.0228Y-1.8351
X3.0241Y-1.9074
X3.0299Y-4.8545
X3.0349Y-1.3339
X3.0439Y-0.9726
X3.0749Y-1.3307
X3.1069Y-1.0032
X3.1279Y-2.0292
X3.1608Y-1.4598
X3.1679Y-1.4193
X3.1779Y-2.3682
X3.179Y-1.7193
X3.1944Y-2.0477
X3.2005Y-1.6978
X3.2214Y-1.6769
X3.2389Y-2.1822
X3.2422Y-1.6561
X3.2697Y-0.56
X3.3009Y-2.1402
X3.3029Y-2.1002
X3.3669Y-2.1892
X3.3724Y-1.5955
X3.3798Y-4.5429
X3.4193Y-4.5461
X3.4374Y-4.6786
X3.4446Y-4.5274
X3.4465Y-4.4758
X3.4719Y-0.5102
X3.5099Y-4.6562
X3.5201Y-4.6002
X3.549Y-4.7361
X3.657Y-4.5458
X3.6663Y-4.6912
X3.6799Y-4.4402
X3.6839Y-4.5275
X3.6889Y-1.4902
X3.7008Y-4.7366
X3.7184Y-1.4891
X3.7239Y-5.1912
X3.7461Y-4.4504
X3.7479Y-1.4879
X3.8049Y-1.5955
X3.8159Y-4.0415
X3.8375Y-1.5968
X3.8721Y-1.5959
X3.8849Y-1.8152
X3.8913Y-4.7382
X3.9026Y-1.5989
X3.9129Y-1.1362
X3.9226Y-4.7357
X3.925Y-4.6511
X3.9259Y-1.7412
X3.9293Y-4.6839
X3.9329Y-1.1612
X3.9349Y-1.7732
X3.9529Y-4.5612
X3.9602Y-1.124
X3.9635Y-2.0267
X3.9839Y-1.1445
X3.9867Y-2.045
X4.0059Y-1.7702
X4.0094Y-2.0657
X4.0172Y-2.0967
X4.0349Y-4.7232
X4.0386Y-2.1337
X4.0386Y-2.1632
X4.0386Y-2.1928
X4.0386Y-2.2223
X4.0449Y-4.2922
X4.0809Y-1.7552
X4.0841Y-4.4222
X4.1049Y-1.9012
X4.1935Y-4.3522
X4.2284Y-2.2407
X4.2709Y-2.7182
X4.2774Y-4.3621
X4.2797Y-2.2584
X4.3164Y-2.295
X4.3234Y-2.247
X4.3349Y-3.6822
X4.3599Y-1.7942
X4.3599Y-1.8932
X4.3849Y-3.1027
X4.4107Y-2.7221
X4.4459Y-4.2552
X4.4519Y-4.0882
X4.4699Y-2.3912
X4.5249Y-2.7221
X4.6104Y-2.7257
X4.6419Y-2.3612
X4.644Y-2.588
X4.7679Y-2.7257
X4.8989Y-2.3599
X4.9059Y-4.1692
X4.9154Y-2.5057
X4.9186Y-2.6257
X4.9354Y-4.7102
X4.947Y-2.3686
X4.9678Y-2.4387
X4.978Y-2.6607
X4.9875Y-2.5765
X5.0052Y-2.3205
X5.0055Y-2.2606
X5.0269Y-2.9209
X5.0367Y-2.4485
X5.0466Y-2.5961
X5.0668Y-2.349
X5.0761Y-2.3993
X5.0761Y-2.6946
X5.0859Y-2.6257
X5.1843Y-2.5232
X5.1843Y-2.5863
X5.2139Y-2.5231
X5.2139Y-2.5705
X5.2149Y-3.7322
X5.2249Y-3.7622
X5.2549Y-1.9922
X5.3639Y-1.8552
X5.3949Y-3.7622
X5.4158Y-3.7413
T2
X0.4965Y-2.1823
X0.5517Y-4.4872
X0.5529Y-3.6726
X0.5585Y-3.3215
X0.5951Y-1.9818
X0.6169Y-3.6432
X0.6189Y-4.0292
X0.6609Y-3.6402
X0.6906Y-2.1818
X0.7343Y-3.2986
X0.7429Y-3.9872
X0.7609Y-1.2392
X0.7769Y-1.6882
X0.8849Y-4.5282
X0.9299Y-1.9493
X1.0232Y-2.1973
X1.0979Y-1.6882
X1.1521Y-1.2221
X1.1857Y-2.7812
X1.3149Y-1.1882
X1.3279Y-1.4812
X1.33Y-2.7429
X1.3325Y-2.3917
X1.4277Y-0.7925
X1.6134Y-0.6749
X1.8719Y-2.1132
X1.8825Y-0.9353
X2.8659Y-1.9472
X3.5509Y-4.2769
X3.6038Y-4.9141
X3.788Y-4.9141
X3.8184Y-0.7941
X3.9732Y-4.9141
X4.0486Y-4.5578
X4.4351Y-3.7145
X4.4902Y-4.4998
X4.6149Y-3.8292
X4.7182Y-4.5818
X4.8825Y-3.8296
X5.026Y-4.7784
X5.09Y-4.8934
X5.1527Y-4.3577
X5.1541Y-4.5071
X5.2277Y-4.7906
X5.2277Y-4.9346
X5.2984Y-3.1356
X5.5953Y-4.1255
T3
X-0.0741Y-1.6882
X0.0729Y-1.6902
X0.2339Y-1.6912
X0.3609Y-1.6892
X0.3919Y-1.5832
X0.4269Y-1.6932
X0.4719Y-1.5842
T4
X-0.5751Y-3.7972
X-0.5701Y-1.2022
X-0.5701Y-2.0572
X-0.5701Y-2.5172
X-0.5701Y-3.1172
X-0.5651Y-1.7222
X-0.5601Y-4.4322
X-0.5551Y-0.6122
X-0.5451Y-4.9772
X-0.4751Y-3.0022
X-0.4601Y-2.7472
X-0.4101Y-3.6672
X-0.3921Y-3.4877
X-0.3351Y-3.1122
X-0.2351Y-3.0222
X-0.2301Y-0.3722
X-0.2201Y-4.2322
X-0.2151Y-4.5772
X-0.1016Y-0.1792
X0.0149Y-5.3272
X0.1049Y-4.5022
X0.1999Y-2.6072
X0.2049Y-3.5972
X0.3299Y-2.3022
X0.3499Y-3.4172
X0.3749Y-4.0172
X0.4249Y-3.1822
X0.441Y-2.3641
X0.4799Y-1.9072
X0.5999Y-4.4422
X0.7399Y-5.3372
X0.8129Y-3.1102
X0.8299Y-4.9772
X0.8449Y0.0978
X0.8849Y-4.4222
X0.8999Y-3.9122
X0.9399Y-4.2222
X1.0859Y-3.3252
X1.1393Y-3.9792
X1.1549Y-2.9522
X1.1799Y-5.0586
X1.1949Y-2.5722
X1.2699Y-2.2172
X1.3099Y-2.9172
X1.3199Y-5.3222
X1.3349Y-4.6125
X1.3999Y-4.7322
X1.4049Y-1.9572
X1.4189Y-3.2782
X1.4299Y-3.9872
X1.5399Y-2.3372
X1.5831Y-3.499
X1.5899Y-4.5522
X1.5899Y-4.8322
X1.5999Y0.0928
X1.6049Y-4.2972
X1.6099Y-5.0586
X1.7304Y-1.8957
X1.7399Y-1.4512
X1.7504Y-1.7442
X1.7749Y-5.3372
X1.8224Y-1.328
X1.8229Y-1.4252
X1.8349Y-3.5901
X1.8794Y-1.9197
X1.9598Y-1.4856
X1.9614Y-1.7732
X2.0299Y-1.9177
X2.0599Y-4.8922
X2.1049Y-5.0586
X2.2249Y-3.5901
X2.2409Y-1.1542
X2.2669Y-1.4762
X2.2899Y-4.9801
X2.3344Y-4.9801
X2.3354Y-5.0586
X2.3389Y-1.1572
X2.3649Y-1.4792
X2.4229Y-4.3377
X2.4229Y-4.7677
X2.4449Y-4.9313
X2.4749Y0.0928
X2.5129Y-4.8077
X2.5149Y-1.9022
X2.5179Y-1.4762
X2.5399Y-5.3322
X2.5729Y-4.3577
X2.6869Y-1.1522
X2.7289Y-1.4252
X2.8549Y-1.8422
X2.8649Y-4.6972
X2.8999Y-4.3197
X2.9599Y-4.9322
X2.9939Y-1.4802
X3.0549Y-5.0401
X3.0809Y-1.2802
X3.2149Y-5.3372
X3.2405Y-1.3216
X3.3179Y-1.4772
X3.3376Y-1.4252
X3.3579Y-1.2832
X3.3607Y-4.7514
X3.3789Y-1.4252
X3.4049Y-2.1472
X3.4149Y-0.5522
X3.4225Y-4.2103
X3.4669Y-1.4822
X3.4949Y-4.0172
X3.5149Y-0.8022
X3.5229Y-1.7242
X3.5649Y0.0778
X3.5749Y-0.4222
X3.5749Y-1.2792
X3.6049Y-5.0022
X3.6249Y-2.3222
X3.6429Y-1.4822
X3.6799Y-3.8322
X3.7599Y-2.5222
X3.7599Y-2.8222
X3.7599Y-3.2572
X3.7626Y-3.6422
X3.7919Y-1.2812
X3.7949Y-5.0022
X3.8199Y-1.4702
X3.9609Y-4.3892
X3.9749Y-3.3522
X3.9899Y-4.1722
X3.9949Y-5.0022
X4.0112Y-1.4853
X4.1162Y-4.3119
X4.1689Y-4.4651
X4.1795Y-4.5741
X4.2099Y-2.1722
X4.2229Y-1.5522
X4.2279Y-1.1672
X4.2281Y-4.4532
X4.2311Y-4.5232
X4.2579Y-4.8352
X4.2699Y-4.5009
X4.3249Y-1.9572
X4.3662Y-3.8387
X4.3849Y0.1028
X4.5849Y-2.0072
X4.6799Y-5.3222
X4.7179Y-3.0892
X4.7229Y-3.4962
X4.7499Y-2.2722
X4.7751Y-2.3474
X4.8297Y-2.9148
X4.8399Y-2.6402
X4.8599Y0.0978
X4.8694Y-2.9284
X4.9432Y-5.1496
X4.9433Y-5.0322
X4.9799Y-2.9342
X5.0049Y-2.0272
X5.0399Y-3.8602
X5.0859Y-2.0652
X5.1209Y-2.1562
X5.1359Y-2.0202
X5.2099Y-5.3172
X5.2299Y-4.3722
X5.2849Y-2.6472
X5.3549Y-3.6722
X5.3574Y-4.1972
X5.4499Y-3.1572
X5.4524Y-0.1697
X5.5299Y-5.0622
X5.6909Y-1.8252
X5.7799Y-5.3122
X5.7849Y-3.8822
X5.8399Y-4.7622
X5.9349Y-2.1252
X5.9419Y-2.0802
X5.9649Y-2.5172
X5.9749Y-3.1072
X6.0649Y-0.4272
T5
X0.6559Y-1.3202
X0.6569Y-1.2542
X0.6579Y-1.3972
X1.5924Y-1.4547
X1.5999Y-0.9472
X1.6174Y-1.2922
X1.6449Y-0.1647
X3.4624Y-0.2997
X3.7234Y-5.3442
X3.7949Y-4.6722
X4.1589Y-0.9862
X4.1929Y-3.3662
X4.2289Y-0.9862
X4.2949Y-0.9872
X4.3149Y-1.2497
X4.5199Y-0.6592
X4.5299Y-1.5472
X4.7359Y-1.1932
X4.8189Y-0.6802
X5.1649Y-1.2422
X5.7929Y-0.3902
X5.8624Y-0.8557
T6
X3.1797Y-0.2319
X3.1797Y-0.3106
X3.2781Y-0.2319
X3.2781Y-0.3106
X3.7804Y-0.3443
X3.7804Y-0.423
X3.7804Y-0.5017
X3.7804Y-0.5805
T7
X4.24Y-0.3756
X4.29Y-0.2756
X4.34Y-0.3756
X4.39Y-0.2756
X4.44Y-0.3756
X4.49Y-0.2756
X4.54Y-0.3756
X4.59Y-0.2756
T8
X0.6737Y-0.6583
X0.7737Y-0.6583
X0.8737Y-0.6583
X2.5691Y-1.74
X2.7175Y-1.7386
T10
X0.8816Y-0.3433
X0.98Y-0.4417
X1.0785Y0.0504
X1.1769Y-0.3433
X1.2753Y0.0504
X1.3737Y-0.4417
X1.4722Y-0.3433
X1.7084Y-0.3433
X1.8068Y-0.4417
X1.9052Y0.0504
X2.0037Y-0.3433
X2.1021Y0.0504
X2.2005Y-0.4417
X2.2989Y-0.3433
T11
X3.6733Y-0.3155
X3.6733Y-0.5911
X3.8875Y-0.3155
X3.8875Y-0.5911
T12
X-0.3861Y-2.221
X-0.3861Y-2.86
X-0.3861Y-3.3313
X-0.3861Y-3.9702
X-0.3861Y-4.1265
X-0.3861Y-4.7655
X-0.1361Y-2.221
X-0.1361Y-2.86
X-0.1361Y-3.3313
X-0.1361Y-3.9702
X-0.1361Y-4.1265
X-0.1361Y-4.7655
X0.1139Y-2.221
X0.1139Y-2.86
X0.1139Y-3.3313
X0.1139Y-3.9702
X0.1139Y-4.1265
X0.1139Y-4.7655
X5.4288Y-2.2202
X5.4288Y-2.8592
X5.4288Y-3.3305
X5.4288Y-3.9695
X5.4288Y-4.1258
X5.4288Y-4.7647
X5.6788Y-2.2202
X5.6788Y-2.8592
X5.6788Y-3.3305
X5.6788Y-3.9695
X5.6788Y-4.1258
X5.6788Y-4.7647
X5.9288Y-2.2202
X5.9288Y-2.8592
X5.9288Y-3.3305
X5.9288Y-3.9695
X5.9288Y-4.1258
X5.9288Y-4.7647
T13
X2.9919Y-0.1252
X3.4659Y-0.1252
T14
X1.6375Y-3.1504
X4.1437Y-3.1485
T8
G00X4.9682Y-0.0921
M15
G01X4.9682Y-0.1708
M16
G05
G00X5.1926Y-0.0134
M15
G01X5.1139Y-0.0134
M16
G05
G00X5.1926Y-0.2496
M15
G01X5.1139Y-0.2496
M16
G05
T9
G00X0.3422Y-0.3449
M15
G01X0.3422Y-0.4047
M16
G05
G00X0.5769Y0.0662
M15
G01X0.517Y0.0662
M16
G05
G00X0.5769Y-0.4732
M15
G01X0.517Y-0.4732
M16
G05
T0
M30
