G04 #@! TF.GenerationSoftware,KiCad,Pcbnew,6.0.1-79c1e3a40b~116~ubuntu20.04.1*
G04 #@! TF.CreationDate,2022-01-27T16:10:42+01:00*
G04 #@! TF.ProjectId,bottom-board,626f7474-6f6d-42d6-926f-6172642e6b69,2.1*
G04 #@! TF.SameCoordinates,PX48111b4PY15fd6c8*
G04 #@! TF.FileFunction,Paste,Top*
G04 #@! TF.FilePolarity,Positive*
%FSLAX46Y46*%
G04 Gerber Fmt 4.6, Leading zero omitted, Abs format (unit mm)*
G04 Created by KiCad (PCBNEW 6.0.1-79c1e3a40b~116~ubuntu20.04.1) date 2022-01-27 16:10:42*
%MOMM*%
%LPD*%
G01*
G04 APERTURE LIST*
G04 Aperture macros list*
%AMRoundRect*
0 Rectangle with rounded corners*
0 $1 Rounding radius*
0 $2 $3 $4 $5 $6 $7 $8 $9 X,Y pos of 4 corners*
0 Add a 4 corners polygon primitive as box body*
4,1,4,$2,$3,$4,$5,$6,$7,$8,$9,$2,$3,0*
0 Add four circle primitives for the rounded corners*
1,1,$1+$1,$2,$3*
1,1,$1+$1,$4,$5*
1,1,$1+$1,$6,$7*
1,1,$1+$1,$8,$9*
0 Add four rect primitives between the rounded corners*
20,1,$1+$1,$2,$3,$4,$5,0*
20,1,$1+$1,$4,$5,$6,$7,0*
20,1,$1+$1,$6,$7,$8,$9,0*
20,1,$1+$1,$8,$9,$2,$3,0*%
G04 Aperture macros list end*
%ADD10C,0.100000*%
%ADD11C,0.150000*%
%ADD12C,0.300000*%
%ADD13C,0.400000*%
%ADD14RoundRect,0.147000X0.150000X-0.825000X0.150000X0.825000X-0.150000X0.825000X-0.150000X-0.825000X0*%
%ADD15RoundRect,0.247000X0.475000X-0.250000X0.475000X0.250000X-0.475000X0.250000X-0.475000X-0.250000X0*%
%ADD16RoundRect,0.222000X-0.250000X0.225000X-0.250000X-0.225000X0.250000X-0.225000X0.250000X0.225000X0*%
%ADD17C,0.994000*%
%ADD18RoundRect,0.296000X0.851000X2.501000X-0.851000X2.501000X-0.851000X-2.501000X0.851000X-2.501000X0*%
%ADD19R,2.894000X5.394000*%
%ADD20RoundRect,0.215750X0.218750X0.256250X-0.218750X0.256250X-0.218750X-0.256250X0.218750X-0.256250X0*%
%ADD21RoundRect,0.215750X-0.256250X0.218750X-0.256250X-0.218750X0.256250X-0.218750X0.256250X0.218750X0*%
%ADD22RoundRect,0.215750X0.256250X-0.218750X0.256250X0.218750X-0.256250X0.218750X-0.256250X-0.218750X0*%
%ADD23R,1.394000X1.194000*%
%ADD24R,1.394000X0.994000*%
%ADD25RoundRect,0.215750X-0.218750X-0.256250X0.218750X-0.256250X0.218750X0.256250X-0.218750X0.256250X0*%
%ADD26RoundRect,0.247000X0.250000X0.475000X-0.250000X0.475000X-0.250000X-0.475000X0.250000X-0.475000X0*%
%ADD27R,1.494000X0.594000*%
%ADD28R,0.594000X0.444000*%
%ADD29R,0.794000X0.894000*%
%ADD30R,2.194000X0.994000*%
%ADD31R,0.594000X1.544000*%
%ADD32R,2.594000X1.594000*%
%ADD33RoundRect,0.247000X-1.075000X0.375000X-1.075000X-0.375000X1.075000X-0.375000X1.075000X0.375000X0*%
%ADD34R,0.894000X0.794000*%
%ADD35R,2.994000X1.594000*%
%ADD36RoundRect,0.247000X-0.475000X0.250000X-0.475000X-0.250000X0.475000X-0.250000X0.475000X0.250000X0*%
%ADD37RoundRect,0.240750X-0.243750X-0.456250X0.243750X-0.456250X0.243750X0.456250X-0.243750X0.456250X0*%
%ADD38R,1.094000X1.094000*%
%ADD39R,0.444000X0.594000*%
%ADD40RoundRect,0.247000X-0.250000X-0.475000X0.250000X-0.475000X0.250000X0.475000X-0.250000X0.475000X0*%
%ADD41R,3.494000X1.594000*%
%ADD42R,1.544000X0.594000*%
%ADD43RoundRect,0.207500X-0.207500X-0.207500X0.207500X-0.207500X0.207500X0.207500X-0.207500X0.207500X0*%
%ADD44RoundRect,0.059500X-0.375000X-0.062500X0.375000X-0.062500X0.375000X0.062500X-0.375000X0.062500X0*%
%ADD45RoundRect,0.059500X-0.062500X-0.375000X0.062500X-0.375000X0.062500X0.375000X-0.062500X0.375000X0*%
%ADD46R,1.994000X1.794000*%
%ADD47RoundRect,0.240750X-0.456250X0.243750X-0.456250X-0.243750X0.456250X-0.243750X0.456250X0.243750X0*%
%ADD48RoundRect,0.240750X0.456250X-0.243750X0.456250X0.243750X-0.456250X0.243750X-0.456250X-0.243750X0*%
%ADD49R,1.594000X2.594000*%
%ADD50RoundRect,0.247000X1.075000X-0.375000X1.075000X0.375000X-1.075000X0.375000X-1.075000X-0.375000X0*%
%ADD51R,0.294000X1.394000*%
%ADD52R,1.774000X1.994000*%
%ADD53RoundRect,0.247000X0.550000X-1.050000X0.550000X1.050000X-0.550000X1.050000X-0.550000X-1.050000X0*%
%ADD54R,1.994000X1.494000*%
%ADD55R,1.994000X3.794000*%
%ADD56R,1.094000X0.394000*%
%ADD57R,0.444000X1.444000*%
%ADD58R,1.494000X0.444000*%
%ADD59RoundRect,0.247000X0.550000X-1.250000X0.550000X1.250000X-0.550000X1.250000X-0.550000X-1.250000X0*%
%ADD60RoundRect,0.247000X-0.550000X1.050000X-0.550000X-1.050000X0.550000X-1.050000X0.550000X1.050000X0*%
%ADD61RoundRect,0.197000X0.200000X0.275000X-0.200000X0.275000X-0.200000X-0.275000X0.200000X-0.275000X0*%
%ADD62RoundRect,0.247000X1.250000X0.550000X-1.250000X0.550000X-1.250000X-0.550000X1.250000X-0.550000X0*%
%ADD63RoundRect,0.247000X1.000000X-1.950000X1.000000X1.950000X-1.000000X1.950000X-1.000000X-1.950000X0*%
%ADD64RoundRect,0.222000X-0.225000X-0.250000X0.225000X-0.250000X0.225000X0.250000X-0.225000X0.250000X0*%
%ADD65RoundRect,0.222000X0.225000X0.250000X-0.225000X0.250000X-0.225000X-0.250000X0.225000X-0.250000X0*%
%ADD66RoundRect,0.222000X0.250000X-0.225000X0.250000X0.225000X-0.250000X0.225000X-0.250000X-0.225000X0*%
%ADD67RoundRect,0.247000X0.550000X-1.500000X0.550000X1.500000X-0.550000X1.500000X-0.550000X-1.500000X0*%
%ADD68RoundRect,0.247000X1.500000X0.550000X-1.500000X0.550000X-1.500000X-0.550000X1.500000X-0.550000X0*%
%ADD69R,2.694000X1.494000*%
%ADD70RoundRect,0.197000X-0.200000X-0.275000X0.200000X-0.275000X0.200000X0.275000X-0.200000X0.275000X0*%
%ADD71R,0.294000X1.744000*%
%ADD72R,3.494000X4.594000*%
%ADD73R,6.594000X1.494000*%
%ADD74RoundRect,0.197000X-0.275000X0.200000X-0.275000X-0.200000X0.275000X-0.200000X0.275000X0.200000X0*%
%ADD75RoundRect,0.197000X0.275000X-0.200000X0.275000X0.200000X-0.275000X0.200000X-0.275000X-0.200000X0*%
%ADD76R,1.054000X0.644000*%
%ADD77RoundRect,0.240750X0.243750X0.456250X-0.243750X0.456250X-0.243750X-0.456250X0.243750X-0.456250X0*%
%ADD78R,0.294000X0.794000*%
%ADD79R,3.169000X1.264000*%
%ADD80R,4.550000X5.250000*%
%ADD81R,4.594000X1.094000*%
%ADD82R,3.050000X2.750000*%
%ADD83R,2.194000X1.194000*%
%ADD84RoundRect,0.092250X-0.095250X-0.508000X0.095250X-0.508000X0.095250X0.508000X-0.095250X0.508000X0*%
%ADD85RoundRect,0.470471X-0.473471X-2.885679X0.473471X-2.885679X0.473471X2.885679X-0.473471X2.885679X0*%
%ADD86RoundRect,0.017500X-0.184500X0.764500X-0.184500X-0.764500X0.184500X-0.764500X0.184500X0.764500X0*%
G04 APERTURE END LIST*
D10*
D11*
X101434660Y-142949080D02*
X101434660Y-174949080D01*
X209434660Y-174949080D01*
X209434660Y-142949080D01*
X101434660Y-142949080D01*
D10*
D11*
X-65567540Y13058120D02*
X-65567540Y-176949080D01*
X211434660Y-176949080D01*
X211434660Y13058120D01*
X-65567540Y13058120D01*
D10*
D11*
X-63567540Y11058120D02*
X-63567540Y-174949080D01*
X209434660Y-174949080D01*
X209434660Y11058120D01*
X-63567540Y11058120D01*
D10*
D11*
X-15567540Y11058120D02*
X-15567540Y13058120D01*
D10*
D11*
X34432460Y11058120D02*
X34432460Y13058120D01*
D10*
D11*
X84432460Y11058120D02*
X84432460Y13058120D01*
D10*
D11*
X134432460Y11058120D02*
X134432460Y13058120D01*
D10*
D11*
X184432460Y11058120D02*
X184432460Y13058120D01*
D10*
D11*
X-39502064Y11470025D02*
X-40244921Y11470025D01*
X-39873493Y11470025D02*
X-39873493Y12770025D01*
X-39997302Y12584311D01*
X-40121112Y12460501D01*
X-40244921Y12398597D01*
D10*
D11*
X9755079Y12646216D02*
X9816983Y12708120D01*
X9940793Y12770025D01*
X10250317Y12770025D01*
X10374126Y12708120D01*
X10436031Y12646216D01*
X10497936Y12522406D01*
X10497936Y12398597D01*
X10436031Y12212882D01*
X9693174Y11470025D01*
X10497936Y11470025D01*
D10*
D11*
X59693174Y12770025D02*
X60497936Y12770025D01*
X60064602Y12274787D01*
X60250317Y12274787D01*
X60374126Y12212882D01*
X60436031Y12150978D01*
X60497936Y12027168D01*
X60497936Y11717644D01*
X60436031Y11593835D01*
X60374126Y11531930D01*
X60250317Y11470025D01*
X59878888Y11470025D01*
X59755079Y11531930D01*
X59693174Y11593835D01*
D10*
D11*
X110374126Y12336692D02*
X110374126Y11470025D01*
X110064602Y12831930D02*
X109755079Y11903359D01*
X110559840Y11903359D01*
D10*
D11*
X160436031Y12770025D02*
X159816983Y12770025D01*
X159755079Y12150978D01*
X159816983Y12212882D01*
X159940793Y12274787D01*
X160250317Y12274787D01*
X160374126Y12212882D01*
X160436031Y12150978D01*
X160497936Y12027168D01*
X160497936Y11717644D01*
X160436031Y11593835D01*
X160374126Y11531930D01*
X160250317Y11470025D01*
X159940793Y11470025D01*
X159816983Y11531930D01*
X159755079Y11593835D01*
D10*
D11*
X210374126Y12770025D02*
X210126507Y12770025D01*
X210002698Y12708120D01*
X209940793Y12646216D01*
X209816983Y12460501D01*
X209755079Y12212882D01*
X209755079Y11717644D01*
X209816983Y11593835D01*
X209878888Y11531930D01*
X210002698Y11470025D01*
X210250317Y11470025D01*
X210374126Y11531930D01*
X210436031Y11593835D01*
X210497936Y11717644D01*
X210497936Y12027168D01*
X210436031Y12150978D01*
X210374126Y12212882D01*
X210250317Y12274787D01*
X210002698Y12274787D01*
X209878888Y12212882D01*
X209816983Y12150978D01*
X209755079Y12027168D01*
D10*
D11*
X-15567540Y-174949080D02*
X-15567540Y-176949080D01*
D10*
D11*
X34432460Y-174949080D02*
X34432460Y-176949080D01*
D10*
D11*
X84432460Y-174949080D02*
X84432460Y-176949080D01*
D10*
D11*
X134432460Y-174949080D02*
X134432460Y-176949080D01*
D10*
D11*
X184432460Y-174949080D02*
X184432460Y-176949080D01*
D10*
D11*
X-39502064Y-176537175D02*
X-40244921Y-176537175D01*
X-39873493Y-176537175D02*
X-39873493Y-175237175D01*
X-39997302Y-175422889D01*
X-40121112Y-175546699D01*
X-40244921Y-175608603D01*
D10*
D11*
X9755079Y-175360984D02*
X9816983Y-175299080D01*
X9940793Y-175237175D01*
X10250317Y-175237175D01*
X10374126Y-175299080D01*
X10436031Y-175360984D01*
X10497936Y-175484794D01*
X10497936Y-175608603D01*
X10436031Y-175794318D01*
X9693174Y-176537175D01*
X10497936Y-176537175D01*
D10*
D11*
X59693174Y-175237175D02*
X60497936Y-175237175D01*
X60064602Y-175732413D01*
X60250317Y-175732413D01*
X60374126Y-175794318D01*
X60436031Y-175856222D01*
X60497936Y-175980032D01*
X60497936Y-176289556D01*
X60436031Y-176413365D01*
X60374126Y-176475270D01*
X60250317Y-176537175D01*
X59878888Y-176537175D01*
X59755079Y-176475270D01*
X59693174Y-176413365D01*
D10*
D11*
X110374126Y-175670508D02*
X110374126Y-176537175D01*
X110064602Y-175175270D02*
X109755079Y-176103841D01*
X110559840Y-176103841D01*
D10*
D11*
X160436031Y-175237175D02*
X159816983Y-175237175D01*
X159755079Y-175856222D01*
X159816983Y-175794318D01*
X159940793Y-175732413D01*
X160250317Y-175732413D01*
X160374126Y-175794318D01*
X160436031Y-175856222D01*
X160497936Y-175980032D01*
X160497936Y-176289556D01*
X160436031Y-176413365D01*
X160374126Y-176475270D01*
X160250317Y-176537175D01*
X159940793Y-176537175D01*
X159816983Y-176475270D01*
X159755079Y-176413365D01*
D10*
D11*
X210374126Y-175237175D02*
X210126507Y-175237175D01*
X210002698Y-175299080D01*
X209940793Y-175360984D01*
X209816983Y-175546699D01*
X209755079Y-175794318D01*
X209755079Y-176289556D01*
X209816983Y-176413365D01*
X209878888Y-176475270D01*
X210002698Y-176537175D01*
X210250317Y-176537175D01*
X210374126Y-176475270D01*
X210436031Y-176413365D01*
X210497936Y-176289556D01*
X210497936Y-175980032D01*
X210436031Y-175856222D01*
X210374126Y-175794318D01*
X210250317Y-175732413D01*
X210002698Y-175732413D01*
X209878888Y-175794318D01*
X209816983Y-175856222D01*
X209755079Y-175980032D01*
D10*
D11*
X-65567540Y-36941880D02*
X-63567540Y-36941880D01*
D10*
D11*
X-65567540Y-86941880D02*
X-63567540Y-86941880D01*
D10*
D11*
X-65567540Y-136941880D02*
X-63567540Y-136941880D01*
D10*
D11*
X-64877064Y-12158546D02*
X-64258017Y-12158546D01*
X-65000874Y-12529975D02*
X-64567540Y-11229975D01*
X-64134207Y-12529975D01*
D10*
D11*
X-64474683Y-61849022D02*
X-64288969Y-61910927D01*
X-64227064Y-61972832D01*
X-64165160Y-62096641D01*
X-64165160Y-62282356D01*
X-64227064Y-62406165D01*
X-64288969Y-62468070D01*
X-64412779Y-62529975D01*
X-64908017Y-62529975D01*
X-64908017Y-61229975D01*
X-64474683Y-61229975D01*
X-64350874Y-61291880D01*
X-64288969Y-61353784D01*
X-64227064Y-61477594D01*
X-64227064Y-61601403D01*
X-64288969Y-61725213D01*
X-64350874Y-61787118D01*
X-64474683Y-61849022D01*
X-64908017Y-61849022D01*
D10*
D11*
X-64165160Y-112406165D02*
X-64227064Y-112468070D01*
X-64412779Y-112529975D01*
X-64536588Y-112529975D01*
X-64722302Y-112468070D01*
X-64846112Y-112344260D01*
X-64908017Y-112220451D01*
X-64969921Y-111972832D01*
X-64969921Y-111787118D01*
X-64908017Y-111539499D01*
X-64846112Y-111415689D01*
X-64722302Y-111291880D01*
X-64536588Y-111229975D01*
X-64412779Y-111229975D01*
X-64227064Y-111291880D01*
X-64165160Y-111353784D01*
D10*
D11*
X-64908017Y-162529975D02*
X-64908017Y-161229975D01*
X-64598493Y-161229975D01*
X-64412779Y-161291880D01*
X-64288969Y-161415689D01*
X-64227064Y-161539499D01*
X-64165160Y-161787118D01*
X-64165160Y-161972832D01*
X-64227064Y-162220451D01*
X-64288969Y-162344260D01*
X-64412779Y-162468070D01*
X-64598493Y-162529975D01*
X-64908017Y-162529975D01*
D10*
D11*
X211434660Y-36941880D02*
X209434660Y-36941880D01*
D10*
D11*
X211434660Y-86941880D02*
X209434660Y-86941880D01*
D10*
D11*
X211434660Y-136941880D02*
X209434660Y-136941880D01*
D10*
D11*
X210125136Y-12158546D02*
X210744183Y-12158546D01*
X210001326Y-12529975D02*
X210434660Y-11229975D01*
X210867993Y-12529975D01*
D10*
D11*
X210527517Y-61849022D02*
X210713231Y-61910927D01*
X210775136Y-61972832D01*
X210837040Y-62096641D01*
X210837040Y-62282356D01*
X210775136Y-62406165D01*
X210713231Y-62468070D01*
X210589421Y-62529975D01*
X210094183Y-62529975D01*
X210094183Y-61229975D01*
X210527517Y-61229975D01*
X210651326Y-61291880D01*
X210713231Y-61353784D01*
X210775136Y-61477594D01*
X210775136Y-61601403D01*
X210713231Y-61725213D01*
X210651326Y-61787118D01*
X210527517Y-61849022D01*
X210094183Y-61849022D01*
D10*
D11*
X210837040Y-112406165D02*
X210775136Y-112468070D01*
X210589421Y-112529975D01*
X210465612Y-112529975D01*
X210279898Y-112468070D01*
X210156088Y-112344260D01*
X210094183Y-112220451D01*
X210032279Y-111972832D01*
X210032279Y-111787118D01*
X210094183Y-111539499D01*
X210156088Y-111415689D01*
X210279898Y-111291880D01*
X210465612Y-111229975D01*
X210589421Y-111229975D01*
X210775136Y-111291880D01*
X210837040Y-111353784D01*
D10*
D11*
X210094183Y-162529975D02*
X210094183Y-161229975D01*
X210403707Y-161229975D01*
X210589421Y-161291880D01*
X210713231Y-161415689D01*
X210775136Y-161539499D01*
X210837040Y-161787118D01*
X210837040Y-161972832D01*
X210775136Y-162220451D01*
X210713231Y-162344260D01*
X210589421Y-162468070D01*
X210403707Y-162529975D01*
X210094183Y-162529975D01*
D10*
D11*
X124866802Y-170727651D02*
X124866802Y-169227651D01*
X125223945Y-169227651D01*
X125438231Y-169299080D01*
X125581088Y-169441937D01*
X125652517Y-169584794D01*
X125723945Y-169870508D01*
X125723945Y-170084794D01*
X125652517Y-170370508D01*
X125581088Y-170513365D01*
X125438231Y-170656222D01*
X125223945Y-170727651D01*
X124866802Y-170727651D01*
X127009660Y-170727651D02*
X127009660Y-169941937D01*
X126938231Y-169799080D01*
X126795374Y-169727651D01*
X126509660Y-169727651D01*
X126366802Y-169799080D01*
X127009660Y-170656222D02*
X126866802Y-170727651D01*
X126509660Y-170727651D01*
X126366802Y-170656222D01*
X126295374Y-170513365D01*
X126295374Y-170370508D01*
X126366802Y-170227651D01*
X126509660Y-170156222D01*
X126866802Y-170156222D01*
X127009660Y-170084794D01*
X127509660Y-169727651D02*
X128081088Y-169727651D01*
X127723945Y-169227651D02*
X127723945Y-170513365D01*
X127795374Y-170656222D01*
X127938231Y-170727651D01*
X128081088Y-170727651D01*
X129152517Y-170656222D02*
X129009660Y-170727651D01*
X128723945Y-170727651D01*
X128581088Y-170656222D01*
X128509660Y-170513365D01*
X128509660Y-169941937D01*
X128581088Y-169799080D01*
X128723945Y-169727651D01*
X129009660Y-169727651D01*
X129152517Y-169799080D01*
X129223945Y-169941937D01*
X129223945Y-170084794D01*
X128509660Y-170227651D01*
X129866802Y-170584794D02*
X129938231Y-170656222D01*
X129866802Y-170727651D01*
X129795374Y-170656222D01*
X129866802Y-170584794D01*
X129866802Y-170727651D01*
X129866802Y-169799080D02*
X129938231Y-169870508D01*
X129866802Y-169941937D01*
X129795374Y-169870508D01*
X129866802Y-169799080D01*
X129866802Y-169941937D01*
X131652517Y-169370508D02*
X131723945Y-169299080D01*
X131866802Y-169227651D01*
X132223945Y-169227651D01*
X132366802Y-169299080D01*
X132438231Y-169370508D01*
X132509660Y-169513365D01*
X132509660Y-169656222D01*
X132438231Y-169870508D01*
X131581088Y-170727651D01*
X132509660Y-170727651D01*
X133438231Y-169227651D02*
X133581088Y-169227651D01*
X133723945Y-169299080D01*
X133795374Y-169370508D01*
X133866802Y-169513365D01*
X133938231Y-169799080D01*
X133938231Y-170156222D01*
X133866802Y-170441937D01*
X133795374Y-170584794D01*
X133723945Y-170656222D01*
X133581088Y-170727651D01*
X133438231Y-170727651D01*
X133295374Y-170656222D01*
X133223945Y-170584794D01*
X133152517Y-170441937D01*
X133081088Y-170156222D01*
X133081088Y-169799080D01*
X133152517Y-169513365D01*
X133223945Y-169370508D01*
X133295374Y-169299080D01*
X133438231Y-169227651D01*
X134509660Y-169370508D02*
X134581088Y-169299080D01*
X134723945Y-169227651D01*
X135081088Y-169227651D01*
X135223945Y-169299080D01*
X135295374Y-169370508D01*
X135366802Y-169513365D01*
X135366802Y-169656222D01*
X135295374Y-169870508D01*
X134438231Y-170727651D01*
X135366802Y-170727651D01*
X136295374Y-169227651D02*
X136438231Y-169227651D01*
X136581088Y-169299080D01*
X136652517Y-169370508D01*
X136723945Y-169513365D01*
X136795374Y-169799080D01*
X136795374Y-170156222D01*
X136723945Y-170441937D01*
X136652517Y-170584794D01*
X136581088Y-170656222D01*
X136438231Y-170727651D01*
X136295374Y-170727651D01*
X136152517Y-170656222D01*
X136081088Y-170584794D01*
X136009660Y-170441937D01*
X135938231Y-170156222D01*
X135938231Y-169799080D01*
X136009660Y-169513365D01*
X136081088Y-169370508D01*
X136152517Y-169299080D01*
X136295374Y-169227651D01*
X137438231Y-170156222D02*
X138581088Y-170156222D01*
X139581088Y-169227651D02*
X139723945Y-169227651D01*
X139866802Y-169299080D01*
X139938231Y-169370508D01*
X140009660Y-169513365D01*
X140081088Y-169799080D01*
X140081088Y-170156222D01*
X140009660Y-170441937D01*
X139938231Y-170584794D01*
X139866802Y-170656222D01*
X139723945Y-170727651D01*
X139581088Y-170727651D01*
X139438231Y-170656222D01*
X139366802Y-170584794D01*
X139295374Y-170441937D01*
X139223945Y-170156222D01*
X139223945Y-169799080D01*
X139295374Y-169513365D01*
X139366802Y-169370508D01*
X139438231Y-169299080D01*
X139581088Y-169227651D01*
X140652517Y-169370508D02*
X140723945Y-169299080D01*
X140866802Y-169227651D01*
X141223945Y-169227651D01*
X141366802Y-169299080D01*
X141438231Y-169370508D01*
X141509660Y-169513365D01*
X141509660Y-169656222D01*
X141438231Y-169870508D01*
X140581088Y-170727651D01*
X141509660Y-170727651D01*
X142152517Y-170156222D02*
X143295374Y-170156222D01*
X144795374Y-170727651D02*
X143938231Y-170727651D01*
X144366802Y-170727651D02*
X144366802Y-169227651D01*
X144223945Y-169441937D01*
X144081088Y-169584794D01*
X143938231Y-169656222D01*
X145509660Y-170727651D02*
X145795374Y-170727651D01*
X145938231Y-170656222D01*
X146009660Y-170584794D01*
X146152517Y-170370508D01*
X146223945Y-170084794D01*
X146223945Y-169513365D01*
X146152517Y-169370508D01*
X146081088Y-169299080D01*
X145938231Y-169227651D01*
X145652517Y-169227651D01*
X145509660Y-169299080D01*
X145438231Y-169370508D01*
X145366802Y-169513365D01*
X145366802Y-169870508D01*
X145438231Y-170013365D01*
X145509660Y-170084794D01*
X145652517Y-170156222D01*
X145938231Y-170156222D01*
X146081088Y-170084794D01*
X146152517Y-170013365D01*
X146223945Y-169870508D01*
D10*
D11*
X101434660Y-171449080D02*
X209434660Y-171449080D01*
D10*
D11*
X102866802Y-173527651D02*
X102866802Y-172027651D01*
X103723945Y-173527651D02*
X103081088Y-172670508D01*
X103723945Y-172027651D02*
X102866802Y-172884794D01*
X104366802Y-173527651D02*
X104366802Y-172527651D01*
X104366802Y-172027651D02*
X104295374Y-172099080D01*
X104366802Y-172170508D01*
X104438231Y-172099080D01*
X104366802Y-172027651D01*
X104366802Y-172170508D01*
X105938231Y-173384794D02*
X105866802Y-173456222D01*
X105652517Y-173527651D01*
X105509660Y-173527651D01*
X105295374Y-173456222D01*
X105152517Y-173313365D01*
X105081088Y-173170508D01*
X105009660Y-172884794D01*
X105009660Y-172670508D01*
X105081088Y-172384794D01*
X105152517Y-172241937D01*
X105295374Y-172099080D01*
X105509660Y-172027651D01*
X105652517Y-172027651D01*
X105866802Y-172099080D01*
X105938231Y-172170508D01*
X107223945Y-173527651D02*
X107223945Y-172741937D01*
X107152517Y-172599080D01*
X107009660Y-172527651D01*
X106723945Y-172527651D01*
X106581088Y-172599080D01*
X107223945Y-173456222D02*
X107081088Y-173527651D01*
X106723945Y-173527651D01*
X106581088Y-173456222D01*
X106509660Y-173313365D01*
X106509660Y-173170508D01*
X106581088Y-173027651D01*
X106723945Y-172956222D01*
X107081088Y-172956222D01*
X107223945Y-172884794D01*
X108581088Y-173527651D02*
X108581088Y-172027651D01*
X108581088Y-173456222D02*
X108438231Y-173527651D01*
X108152517Y-173527651D01*
X108009660Y-173456222D01*
X107938231Y-173384794D01*
X107866802Y-173241937D01*
X107866802Y-172813365D01*
X107938231Y-172670508D01*
X108009660Y-172599080D01*
X108152517Y-172527651D01*
X108438231Y-172527651D01*
X108581088Y-172599080D01*
X110438231Y-172741937D02*
X110938231Y-172741937D01*
X111152517Y-173527651D02*
X110438231Y-173527651D01*
X110438231Y-172027651D01*
X111152517Y-172027651D01*
X111795374Y-173384794D02*
X111866802Y-173456222D01*
X111795374Y-173527651D01*
X111723945Y-173456222D01*
X111795374Y-173384794D01*
X111795374Y-173527651D01*
X112509660Y-173527651D02*
X112509660Y-172027651D01*
X112866802Y-172027651D01*
X113081088Y-172099080D01*
X113223945Y-172241937D01*
X113295374Y-172384794D01*
X113366802Y-172670508D01*
X113366802Y-172884794D01*
X113295374Y-173170508D01*
X113223945Y-173313365D01*
X113081088Y-173456222D01*
X112866802Y-173527651D01*
X112509660Y-173527651D01*
X114009660Y-173384794D02*
X114081088Y-173456222D01*
X114009660Y-173527651D01*
X113938231Y-173456222D01*
X114009660Y-173384794D01*
X114009660Y-173527651D01*
X114652517Y-173099080D02*
X115366802Y-173099080D01*
X114509660Y-173527651D02*
X115009660Y-172027651D01*
X115509660Y-173527651D01*
X116009660Y-173384794D02*
X116081088Y-173456222D01*
X116009660Y-173527651D01*
X115938231Y-173456222D01*
X116009660Y-173384794D01*
X116009660Y-173527651D01*
X119009660Y-173527651D02*
X119009660Y-172027651D01*
X119152517Y-172956222D02*
X119581088Y-173527651D01*
X119581088Y-172527651D02*
X119009660Y-173099080D01*
X120223945Y-173527651D02*
X120223945Y-172527651D01*
X120223945Y-172027651D02*
X120152517Y-172099080D01*
X120223945Y-172170508D01*
X120295374Y-172099080D01*
X120223945Y-172027651D01*
X120223945Y-172170508D01*
X121581088Y-173456222D02*
X121438231Y-173527651D01*
X121152517Y-173527651D01*
X121009660Y-173456222D01*
X120938231Y-173384794D01*
X120866802Y-173241937D01*
X120866802Y-172813365D01*
X120938231Y-172670508D01*
X121009660Y-172599080D01*
X121152517Y-172527651D01*
X121438231Y-172527651D01*
X121581088Y-172599080D01*
X122866802Y-173527651D02*
X122866802Y-172741937D01*
X122795374Y-172599080D01*
X122652517Y-172527651D01*
X122366802Y-172527651D01*
X122223945Y-172599080D01*
X122866802Y-173456222D02*
X122723945Y-173527651D01*
X122366802Y-173527651D01*
X122223945Y-173456222D01*
X122152517Y-173313365D01*
X122152517Y-173170508D01*
X122223945Y-173027651D01*
X122366802Y-172956222D01*
X122723945Y-172956222D01*
X122866802Y-172884794D01*
X124223945Y-173527651D02*
X124223945Y-172027651D01*
X124223945Y-173456222D02*
X124081088Y-173527651D01*
X123795374Y-173527651D01*
X123652517Y-173456222D01*
X123581088Y-173384794D01*
X123509660Y-173241937D01*
X123509660Y-172813365D01*
X123581088Y-172670508D01*
X123652517Y-172599080D01*
X123795374Y-172527651D01*
X124081088Y-172527651D01*
X124223945Y-172599080D01*
X126723945Y-172027651D02*
X126438231Y-172027651D01*
X126295374Y-172099080D01*
X126223945Y-172170508D01*
X126081088Y-172384794D01*
X126009660Y-172670508D01*
X126009660Y-173241937D01*
X126081088Y-173384794D01*
X126152517Y-173456222D01*
X126295374Y-173527651D01*
X126581088Y-173527651D01*
X126723945Y-173456222D01*
X126795374Y-173384794D01*
X126866802Y-173241937D01*
X126866802Y-172884794D01*
X126795374Y-172741937D01*
X126723945Y-172670508D01*
X126581088Y-172599080D01*
X126295374Y-172599080D01*
X126152517Y-172670508D01*
X126081088Y-172741937D01*
X126009660Y-172884794D01*
X127509660Y-173384794D02*
X127581088Y-173456222D01*
X127509660Y-173527651D01*
X127438231Y-173456222D01*
X127509660Y-173384794D01*
X127509660Y-173527651D01*
X128509660Y-172027651D02*
X128652517Y-172027651D01*
X128795374Y-172099080D01*
X128866802Y-172170508D01*
X128938231Y-172313365D01*
X129009660Y-172599080D01*
X129009660Y-172956222D01*
X128938231Y-173241937D01*
X128866802Y-173384794D01*
X128795374Y-173456222D01*
X128652517Y-173527651D01*
X128509660Y-173527651D01*
X128366802Y-173456222D01*
X128295374Y-173384794D01*
X128223945Y-173241937D01*
X128152517Y-172956222D01*
X128152517Y-172599080D01*
X128223945Y-172313365D01*
X128295374Y-172170508D01*
X128366802Y-172099080D01*
X128509660Y-172027651D01*
X129652517Y-173384794D02*
X129723945Y-173456222D01*
X129652517Y-173527651D01*
X129581088Y-173456222D01*
X129652517Y-173384794D01*
X129652517Y-173527651D01*
X131152517Y-173527651D02*
X130295374Y-173527651D01*
X130723945Y-173527651D02*
X130723945Y-172027651D01*
X130581088Y-172241937D01*
X130438231Y-172384794D01*
X130295374Y-172456222D01*
X131795374Y-172956222D02*
X132938231Y-172956222D01*
X133509660Y-172027651D02*
X134509660Y-172027651D01*
X133866802Y-173527651D01*
X135152517Y-173527651D02*
X135438231Y-173527651D01*
X135581088Y-173456222D01*
X135652517Y-173384794D01*
X135795374Y-173170508D01*
X135866802Y-172884794D01*
X135866802Y-172313365D01*
X135795374Y-172170508D01*
X135723945Y-172099080D01*
X135581088Y-172027651D01*
X135295374Y-172027651D01*
X135152517Y-172099080D01*
X135081088Y-172170508D01*
X135009660Y-172313365D01*
X135009660Y-172670508D01*
X135081088Y-172813365D01*
X135152517Y-172884794D01*
X135295374Y-172956222D01*
X135581088Y-172956222D01*
X135723945Y-172884794D01*
X135795374Y-172813365D01*
X135866802Y-172670508D01*
X137152517Y-173456222D02*
X137009660Y-173527651D01*
X136723945Y-173527651D01*
X136581088Y-173456222D01*
X136509660Y-173384794D01*
X136438231Y-173241937D01*
X136438231Y-172813365D01*
X136509660Y-172670508D01*
X136581088Y-172599080D01*
X136723945Y-172527651D01*
X137009660Y-172527651D01*
X137152517Y-172599080D01*
X138581088Y-173527651D02*
X137723945Y-173527651D01*
X138152517Y-173527651D02*
X138152517Y-172027651D01*
X138009660Y-172241937D01*
X137866802Y-172384794D01*
X137723945Y-172456222D01*
X139795374Y-173456222D02*
X139652517Y-173527651D01*
X139366802Y-173527651D01*
X139223945Y-173456222D01*
X139152517Y-173313365D01*
X139152517Y-172741937D01*
X139223945Y-172599080D01*
X139366802Y-172527651D01*
X139652517Y-172527651D01*
X139795374Y-172599080D01*
X139866802Y-172741937D01*
X139866802Y-172884794D01*
X139152517Y-173027651D01*
X140366802Y-172027651D02*
X141295374Y-172027651D01*
X140795374Y-172599080D01*
X141009660Y-172599080D01*
X141152517Y-172670508D01*
X141223945Y-172741937D01*
X141295374Y-172884794D01*
X141295374Y-173241937D01*
X141223945Y-173384794D01*
X141152517Y-173456222D01*
X141009660Y-173527651D01*
X140581088Y-173527651D01*
X140438231Y-173456222D01*
X140366802Y-173384794D01*
X142581088Y-173527651D02*
X142581088Y-172741937D01*
X142509660Y-172599080D01*
X142366802Y-172527651D01*
X142081088Y-172527651D01*
X141938231Y-172599080D01*
X142581088Y-173456222D02*
X142438231Y-173527651D01*
X142081088Y-173527651D01*
X141938231Y-173456222D01*
X141866802Y-173313365D01*
X141866802Y-173170508D01*
X141938231Y-173027651D01*
X142081088Y-172956222D01*
X142438231Y-172956222D01*
X142581088Y-172884794D01*
X143938231Y-172527651D02*
X143938231Y-173527651D01*
X143581088Y-171956222D02*
X143223945Y-173027651D01*
X144152517Y-173027651D01*
X145009660Y-172027651D02*
X145152517Y-172027651D01*
X145295374Y-172099080D01*
X145366802Y-172170508D01*
X145438231Y-172313365D01*
X145509660Y-172599080D01*
X145509660Y-172956222D01*
X145438231Y-173241937D01*
X145366802Y-173384794D01*
X145295374Y-173456222D01*
X145152517Y-173527651D01*
X145009660Y-173527651D01*
X144866802Y-173456222D01*
X144795374Y-173384794D01*
X144723945Y-173241937D01*
X144652517Y-172956222D01*
X144652517Y-172599080D01*
X144723945Y-172313365D01*
X144795374Y-172170508D01*
X144866802Y-172099080D01*
X145009660Y-172027651D01*
X146152517Y-173527651D02*
X146152517Y-172027651D01*
X146152517Y-172599080D02*
X146295374Y-172527651D01*
X146581088Y-172527651D01*
X146723945Y-172599080D01*
X146795374Y-172670508D01*
X146866802Y-172813365D01*
X146866802Y-173241937D01*
X146795374Y-173384794D01*
X146723945Y-173456222D01*
X146581088Y-173527651D01*
X146295374Y-173527651D01*
X146152517Y-173456222D01*
X147295374Y-172956222D02*
X147366802Y-172884794D01*
X147509660Y-172813365D01*
X147795374Y-172956222D01*
X147938231Y-172884794D01*
X148009660Y-172813365D01*
X149366802Y-173527651D02*
X148509660Y-173527651D01*
X148938231Y-173527651D02*
X148938231Y-172027651D01*
X148795374Y-172241937D01*
X148652517Y-172384794D01*
X148509660Y-172456222D01*
X150795374Y-173527651D02*
X149938231Y-173527651D01*
X150366802Y-173527651D02*
X150366802Y-172027651D01*
X150223945Y-172241937D01*
X150081088Y-172384794D01*
X149938231Y-172456222D01*
X152081088Y-172027651D02*
X151795374Y-172027651D01*
X151652517Y-172099080D01*
X151581088Y-172170508D01*
X151438231Y-172384794D01*
X151366802Y-172670508D01*
X151366802Y-173241937D01*
X151438231Y-173384794D01*
X151509659Y-173456222D01*
X151652517Y-173527651D01*
X151938231Y-173527651D01*
X152081088Y-173456222D01*
X152152517Y-173384794D01*
X152223945Y-173241937D01*
X152223945Y-172884794D01*
X152152517Y-172741937D01*
X152081088Y-172670508D01*
X151938231Y-172599080D01*
X151652517Y-172599080D01*
X151509659Y-172670508D01*
X151438231Y-172741937D01*
X151366802Y-172884794D01*
X152652517Y-172956222D02*
X152723945Y-172884794D01*
X152866802Y-172813365D01*
X153152517Y-172956222D01*
X153295374Y-172884794D01*
X153366802Y-172813365D01*
X154581088Y-172527651D02*
X154581088Y-173527651D01*
X153938231Y-172527651D02*
X153938231Y-173313365D01*
X154009659Y-173456222D01*
X154152517Y-173527651D01*
X154366802Y-173527651D01*
X154509659Y-173456222D01*
X154581088Y-173384794D01*
X155295374Y-173527651D02*
X155295374Y-172027651D01*
X155295374Y-172599080D02*
X155438231Y-172527651D01*
X155723945Y-172527651D01*
X155866802Y-172599080D01*
X155938231Y-172670508D01*
X156009660Y-172813365D01*
X156009660Y-173241937D01*
X155938231Y-173384794D01*
X155866802Y-173456222D01*
X155723945Y-173527651D01*
X155438231Y-173527651D01*
X155295374Y-173456222D01*
X157295374Y-172527651D02*
X157295374Y-173527651D01*
X156652517Y-172527651D02*
X156652517Y-173313365D01*
X156723945Y-173456222D01*
X156866802Y-173527651D01*
X157081088Y-173527651D01*
X157223945Y-173456222D01*
X157295374Y-173384794D01*
X158009660Y-172527651D02*
X158009660Y-173527651D01*
X158009660Y-172670508D02*
X158081088Y-172599080D01*
X158223945Y-172527651D01*
X158438231Y-172527651D01*
X158581088Y-172599080D01*
X158652517Y-172741937D01*
X158652517Y-173527651D01*
X159152517Y-172527651D02*
X159723945Y-172527651D01*
X159366802Y-172027651D02*
X159366802Y-173313365D01*
X159438231Y-173456222D01*
X159581088Y-173527651D01*
X159723945Y-173527651D01*
X160866802Y-172527651D02*
X160866802Y-173527651D01*
X160223945Y-172527651D02*
X160223945Y-173313365D01*
X160295374Y-173456222D01*
X160438231Y-173527651D01*
X160652517Y-173527651D01*
X160795374Y-173456222D01*
X160866802Y-173384794D01*
X161509660Y-172170508D02*
X161581088Y-172099080D01*
X161723945Y-172027651D01*
X162081088Y-172027651D01*
X162223945Y-172099080D01*
X162295374Y-172170508D01*
X162366802Y-172313365D01*
X162366802Y-172456222D01*
X162295374Y-172670508D01*
X161438231Y-173527651D01*
X162366802Y-173527651D01*
X163295374Y-172027651D02*
X163438231Y-172027651D01*
X163581088Y-172099080D01*
X163652517Y-172170508D01*
X163723945Y-172313365D01*
X163795374Y-172599080D01*
X163795374Y-172956222D01*
X163723945Y-173241937D01*
X163652517Y-173384794D01*
X163581088Y-173456222D01*
X163438231Y-173527651D01*
X163295374Y-173527651D01*
X163152517Y-173456222D01*
X163081088Y-173384794D01*
X163009660Y-173241937D01*
X162938231Y-172956222D01*
X162938231Y-172599080D01*
X163009660Y-172313365D01*
X163081088Y-172170508D01*
X163152517Y-172099080D01*
X163295374Y-172027651D01*
X164438231Y-173384794D02*
X164509659Y-173456222D01*
X164438231Y-173527651D01*
X164366802Y-173456222D01*
X164438231Y-173384794D01*
X164438231Y-173527651D01*
X165438231Y-172027651D02*
X165581088Y-172027651D01*
X165723945Y-172099080D01*
X165795374Y-172170508D01*
X165866802Y-172313365D01*
X165938231Y-172599080D01*
X165938231Y-172956222D01*
X165866802Y-173241937D01*
X165795374Y-173384794D01*
X165723945Y-173456222D01*
X165581088Y-173527651D01*
X165438231Y-173527651D01*
X165295374Y-173456222D01*
X165223945Y-173384794D01*
X165152517Y-173241937D01*
X165081088Y-172956222D01*
X165081088Y-172599080D01*
X165152517Y-172313365D01*
X165223945Y-172170508D01*
X165295374Y-172099080D01*
X165438231Y-172027651D01*
X167223945Y-172527651D02*
X167223945Y-173527651D01*
X166866802Y-171956222D02*
X166509659Y-173027651D01*
X167438231Y-173027651D01*
X168009659Y-173384794D02*
X168081088Y-173456222D01*
X168009659Y-173527651D01*
X167938231Y-173456222D01*
X168009659Y-173384794D01*
X168009659Y-173527651D01*
X169509659Y-173527651D02*
X168652517Y-173527651D01*
X169081088Y-173527651D02*
X169081088Y-172027651D01*
X168938231Y-172241937D01*
X168795374Y-172384794D01*
X168652517Y-172456222D01*
D10*
D11*
X101434660Y-168449080D02*
X209434660Y-168449080D01*
D10*
D12*
X188843945Y-170727651D02*
X188343945Y-170013365D01*
X187986802Y-170727651D02*
X187986802Y-169227651D01*
X188558231Y-169227651D01*
X188701088Y-169299080D01*
X188772517Y-169370508D01*
X188843945Y-169513365D01*
X188843945Y-169727651D01*
X188772517Y-169870508D01*
X188701088Y-169941937D01*
X188558231Y-170013365D01*
X187986802Y-170013365D01*
X190058231Y-170656222D02*
X189915374Y-170727651D01*
X189629660Y-170727651D01*
X189486802Y-170656222D01*
X189415374Y-170513365D01*
X189415374Y-169941937D01*
X189486802Y-169799080D01*
X189629660Y-169727651D01*
X189915374Y-169727651D01*
X190058231Y-169799080D01*
X190129660Y-169941937D01*
X190129660Y-170084794D01*
X189415374Y-170227651D01*
X190629660Y-169727651D02*
X190986802Y-170727651D01*
X191343945Y-169727651D01*
X191915374Y-170584794D02*
X191986802Y-170656222D01*
X191915374Y-170727651D01*
X191843945Y-170656222D01*
X191915374Y-170584794D01*
X191915374Y-170727651D01*
X191915374Y-169799080D02*
X191986802Y-169870508D01*
X191915374Y-169941937D01*
X191843945Y-169870508D01*
X191915374Y-169799080D01*
X191915374Y-169941937D01*
X193701088Y-169370508D02*
X193772517Y-169299080D01*
X193915374Y-169227651D01*
X194272517Y-169227651D01*
X194415374Y-169299080D01*
X194486802Y-169370508D01*
X194558231Y-169513365D01*
X194558231Y-169656222D01*
X194486802Y-169870508D01*
X193629660Y-170727651D01*
X194558231Y-170727651D01*
X195201088Y-170584794D02*
X195272517Y-170656222D01*
X195201088Y-170727651D01*
X195129660Y-170656222D01*
X195201088Y-170584794D01*
X195201088Y-170727651D01*
X196701088Y-170727651D02*
X195843945Y-170727651D01*
X196272517Y-170727651D02*
X196272517Y-169227651D01*
X196129660Y-169441937D01*
X195986802Y-169584794D01*
X195843945Y-169656222D01*
D10*
D11*
X102795374Y-170656222D02*
X103009660Y-170727651D01*
X103366802Y-170727651D01*
X103509660Y-170656222D01*
X103581088Y-170584794D01*
X103652517Y-170441937D01*
X103652517Y-170299080D01*
X103581088Y-170156222D01*
X103509660Y-170084794D01*
X103366802Y-170013365D01*
X103081088Y-169941937D01*
X102938231Y-169870508D01*
X102866802Y-169799080D01*
X102795374Y-169656222D01*
X102795374Y-169513365D01*
X102866802Y-169370508D01*
X102938231Y-169299080D01*
X103081088Y-169227651D01*
X103438231Y-169227651D01*
X103652517Y-169299080D01*
X104295374Y-170727651D02*
X104295374Y-169727651D01*
X104295374Y-169227651D02*
X104223945Y-169299080D01*
X104295374Y-169370508D01*
X104366802Y-169299080D01*
X104295374Y-169227651D01*
X104295374Y-169370508D01*
X104866802Y-169727651D02*
X105652517Y-169727651D01*
X104866802Y-170727651D01*
X105652517Y-170727651D01*
X106795374Y-170656222D02*
X106652517Y-170727651D01*
X106366802Y-170727651D01*
X106223945Y-170656222D01*
X106152517Y-170513365D01*
X106152517Y-169941937D01*
X106223945Y-169799080D01*
X106366802Y-169727651D01*
X106652517Y-169727651D01*
X106795374Y-169799080D01*
X106866802Y-169941937D01*
X106866802Y-170084794D01*
X106152517Y-170227651D01*
X107509660Y-170584794D02*
X107581088Y-170656222D01*
X107509660Y-170727651D01*
X107438231Y-170656222D01*
X107509660Y-170584794D01*
X107509660Y-170727651D01*
X107509660Y-169799080D02*
X107581088Y-169870508D01*
X107509660Y-169941937D01*
X107438231Y-169870508D01*
X107509660Y-169799080D01*
X107509660Y-169941937D01*
X109295374Y-170299080D02*
X110009660Y-170299080D01*
X109152517Y-170727651D02*
X109652517Y-169227651D01*
X110152517Y-170727651D01*
X111295374Y-169727651D02*
X111295374Y-170727651D01*
X110938231Y-169156222D02*
X110581088Y-170227651D01*
X111509660Y-170227651D01*
D10*
D11*
X187866802Y-173527651D02*
X187866802Y-172027651D01*
X189223945Y-173527651D02*
X189223945Y-172027651D01*
X189223945Y-173456222D02*
X189081088Y-173527651D01*
X188795374Y-173527651D01*
X188652517Y-173456222D01*
X188581088Y-173384794D01*
X188509660Y-173241937D01*
X188509660Y-172813365D01*
X188581088Y-172670508D01*
X188652517Y-172599080D01*
X188795374Y-172527651D01*
X189081088Y-172527651D01*
X189223945Y-172599080D01*
X189938231Y-173384794D02*
X190009660Y-173456222D01*
X189938231Y-173527651D01*
X189866802Y-173456222D01*
X189938231Y-173384794D01*
X189938231Y-173527651D01*
X189938231Y-172599080D02*
X190009660Y-172670508D01*
X189938231Y-172741937D01*
X189866802Y-172670508D01*
X189938231Y-172599080D01*
X189938231Y-172741937D01*
X192581088Y-173527651D02*
X191723945Y-173527651D01*
X192152517Y-173527651D02*
X192152517Y-172027651D01*
X192009660Y-172241937D01*
X191866802Y-172384794D01*
X191723945Y-172456222D01*
X194295374Y-171956222D02*
X193009660Y-173884794D01*
X195581088Y-173527651D02*
X194723945Y-173527651D01*
X195152517Y-173527651D02*
X195152517Y-172027651D01*
X195009660Y-172241937D01*
X194866802Y-172384794D01*
X194723945Y-172456222D01*
D10*
D11*
X101434660Y-164449080D02*
X209434660Y-164449080D01*
D10*
D13*
X103147040Y-165153841D02*
X104289898Y-165153841D01*
X103468469Y-167153841D02*
X103718469Y-165153841D01*
X104706564Y-167153841D02*
X104873231Y-165820508D01*
X104956564Y-165153841D02*
X104849421Y-165249080D01*
X104932755Y-165344318D01*
X105039898Y-165249080D01*
X104956564Y-165153841D01*
X104932755Y-165344318D01*
X105539898Y-165820508D02*
X106301802Y-165820508D01*
X105908945Y-165153841D02*
X105694660Y-166868127D01*
X105766088Y-167058603D01*
X105944660Y-167153841D01*
X106135136Y-167153841D01*
X107087517Y-167153841D02*
X106908945Y-167058603D01*
X106837517Y-166868127D01*
X107051802Y-165153841D01*
X108623231Y-167058603D02*
X108420850Y-167153841D01*
X108039898Y-167153841D01*
X107861326Y-167058603D01*
X107789898Y-166868127D01*
X107885136Y-166106222D01*
X108004183Y-165915746D01*
X108206564Y-165820508D01*
X108587517Y-165820508D01*
X108766088Y-165915746D01*
X108837517Y-166106222D01*
X108813707Y-166296699D01*
X107837517Y-166487175D01*
X109587517Y-166963365D02*
X109670850Y-167058603D01*
X109563707Y-167153841D01*
X109480374Y-167058603D01*
X109587517Y-166963365D01*
X109563707Y-167153841D01*
X109718469Y-165915746D02*
X109801802Y-166010984D01*
X109694660Y-166106222D01*
X109611326Y-166010984D01*
X109718469Y-165915746D01*
X109694660Y-166106222D01*
X112039898Y-167153841D02*
X112289898Y-165153841D01*
X112777993Y-166582413D01*
X113623231Y-165153841D01*
X113373231Y-167153841D01*
X114956564Y-165153841D02*
X115337517Y-165153841D01*
X115516088Y-165249080D01*
X115682755Y-165439556D01*
X115730374Y-165820508D01*
X115647040Y-166487175D01*
X115504183Y-166868127D01*
X115289898Y-167058603D01*
X115087517Y-167153841D01*
X114706564Y-167153841D01*
X114527993Y-167058603D01*
X114361326Y-166868127D01*
X114313707Y-166487175D01*
X114397040Y-165820508D01*
X114539898Y-165439556D01*
X114754183Y-165249080D01*
X114956564Y-165153841D01*
X116420850Y-167153841D02*
X116670850Y-165153841D01*
X117147040Y-165153841D01*
X117420850Y-165249080D01*
X117587517Y-165439556D01*
X117658945Y-165630032D01*
X117706564Y-166010984D01*
X117670850Y-166296699D01*
X117527993Y-166677651D01*
X117408945Y-166868127D01*
X117194660Y-167058603D01*
X116897040Y-167153841D01*
X116420850Y-167153841D01*
X119944660Y-167153841D02*
X120194660Y-165153841D01*
X120670850Y-165153841D01*
X120944660Y-165249080D01*
X121111326Y-165439556D01*
X121182755Y-165630032D01*
X121230374Y-166010984D01*
X121194660Y-166296699D01*
X121051802Y-166677651D01*
X120932755Y-166868127D01*
X120718469Y-167058603D01*
X120420850Y-167153841D01*
X119944660Y-167153841D01*
X122968469Y-165820508D02*
X122801802Y-167153841D01*
X122111326Y-165820508D02*
X121980374Y-166868127D01*
X122051802Y-167058603D01*
X122230374Y-167153841D01*
X122516088Y-167153841D01*
X122718469Y-167058603D01*
X122825612Y-166963365D01*
X124039898Y-167153841D02*
X123861326Y-167058603D01*
X123777993Y-166963365D01*
X123706564Y-166772889D01*
X123777993Y-166201460D01*
X123897040Y-166010984D01*
X124004183Y-165915746D01*
X124206564Y-165820508D01*
X124492279Y-165820508D01*
X124670850Y-165915746D01*
X124754183Y-166010984D01*
X124825612Y-166201460D01*
X124754183Y-166772889D01*
X124635136Y-166963365D01*
X124527993Y-167058603D01*
X124325612Y-167153841D01*
X124039898Y-167153841D01*
X125623231Y-165153841D02*
X126706564Y-167153841D01*
X126956564Y-165153841D02*
X125373231Y-167153841D01*
X129087517Y-166391937D02*
X130611326Y-166391937D01*
X132992279Y-167153841D02*
X133242279Y-165153841D01*
X133147040Y-165915746D02*
X133349421Y-165820508D01*
X133730374Y-165820508D01*
X133908945Y-165915746D01*
X133992279Y-166010984D01*
X134063707Y-166201460D01*
X133992279Y-166772889D01*
X133873231Y-166963365D01*
X133766088Y-167058603D01*
X133563707Y-167153841D01*
X133182755Y-167153841D01*
X133004183Y-167058603D01*
X135087517Y-167153841D02*
X134908945Y-167058603D01*
X134825612Y-166963365D01*
X134754183Y-166772889D01*
X134825612Y-166201460D01*
X134944660Y-166010984D01*
X135051802Y-165915746D01*
X135254183Y-165820508D01*
X135539898Y-165820508D01*
X135718469Y-165915746D01*
X135801802Y-166010984D01*
X135873231Y-166201460D01*
X135801802Y-166772889D01*
X135682755Y-166963365D01*
X135575612Y-167058603D01*
X135373231Y-167153841D01*
X135087517Y-167153841D01*
X136492279Y-165820508D02*
X137254183Y-165820508D01*
X136861326Y-165153841D02*
X136647040Y-166868127D01*
X136718469Y-167058603D01*
X136897040Y-167153841D01*
X137087517Y-167153841D01*
X137635136Y-165820508D02*
X138397040Y-165820508D01*
X138004183Y-165153841D02*
X137789898Y-166868127D01*
X137861326Y-167058603D01*
X138039898Y-167153841D01*
X138230374Y-167153841D01*
X139182755Y-167153841D02*
X139004183Y-167058603D01*
X138920850Y-166963365D01*
X138849421Y-166772889D01*
X138920850Y-166201460D01*
X139039898Y-166010984D01*
X139147040Y-165915746D01*
X139349421Y-165820508D01*
X139635136Y-165820508D01*
X139813707Y-165915746D01*
X139897040Y-166010984D01*
X139968469Y-166201460D01*
X139897040Y-166772889D01*
X139777993Y-166963365D01*
X139670850Y-167058603D01*
X139468469Y-167153841D01*
X139182755Y-167153841D01*
X140706564Y-167153841D02*
X140873231Y-165820508D01*
X140849421Y-166010984D02*
X140956564Y-165915746D01*
X141158945Y-165820508D01*
X141444660Y-165820508D01*
X141623231Y-165915746D01*
X141694660Y-166106222D01*
X141563707Y-167153841D01*
X141694660Y-166106222D02*
X141813707Y-165915746D01*
X142016088Y-165820508D01*
X142301802Y-165820508D01*
X142480374Y-165915746D01*
X142551802Y-166106222D01*
X142420850Y-167153841D01*
X143373231Y-167153841D02*
X143623231Y-165153841D01*
X143527993Y-165915746D02*
X143730374Y-165820508D01*
X144111326Y-165820508D01*
X144289898Y-165915746D01*
X144373231Y-166010984D01*
X144444660Y-166201460D01*
X144373231Y-166772889D01*
X144254183Y-166963365D01*
X144147040Y-167058603D01*
X143944660Y-167153841D01*
X143563707Y-167153841D01*
X143385136Y-167058603D01*
X145468469Y-167153841D02*
X145289898Y-167058603D01*
X145206564Y-166963365D01*
X145135136Y-166772889D01*
X145206564Y-166201460D01*
X145325612Y-166010984D01*
X145432755Y-165915746D01*
X145635136Y-165820508D01*
X145920850Y-165820508D01*
X146099421Y-165915746D01*
X146182755Y-166010984D01*
X146254183Y-166201460D01*
X146182755Y-166772889D01*
X146063707Y-166963365D01*
X145956564Y-167058603D01*
X145754183Y-167153841D01*
X145468469Y-167153841D01*
X147849421Y-167153841D02*
X147980374Y-166106222D01*
X147908945Y-165915746D01*
X147730374Y-165820508D01*
X147349421Y-165820508D01*
X147147040Y-165915746D01*
X147861326Y-167058603D02*
X147658945Y-167153841D01*
X147182755Y-167153841D01*
X147004183Y-167058603D01*
X146932755Y-166868127D01*
X146956564Y-166677651D01*
X147075612Y-166487175D01*
X147277993Y-166391937D01*
X147754183Y-166391937D01*
X147956564Y-166296699D01*
X148801802Y-167153841D02*
X148968469Y-165820508D01*
X148920850Y-166201460D02*
X149039898Y-166010984D01*
X149147040Y-165915746D01*
X149349421Y-165820508D01*
X149539898Y-165820508D01*
X150897040Y-167153841D02*
X151147040Y-165153841D01*
X150908945Y-167058603D02*
X150706564Y-167153841D01*
X150325612Y-167153841D01*
X150147040Y-167058603D01*
X150063707Y-166963365D01*
X149992279Y-166772889D01*
X150063707Y-166201460D01*
X150182755Y-166010984D01*
X150289898Y-165915746D01*
X150492279Y-165820508D01*
X150873231Y-165820508D01*
X151051802Y-165915746D01*
D10*
D11*
X103366802Y-162541937D02*
X102866802Y-162541937D01*
X102866802Y-163327651D02*
X102866802Y-161827651D01*
X103581088Y-161827651D01*
X104152517Y-163327651D02*
X104152517Y-162327651D01*
X104152517Y-161827651D02*
X104081088Y-161899080D01*
X104152517Y-161970508D01*
X104223945Y-161899080D01*
X104152517Y-161827651D01*
X104152517Y-161970508D01*
X105081088Y-163327651D02*
X104938231Y-163256222D01*
X104866802Y-163113365D01*
X104866802Y-161827651D01*
X106223945Y-163256222D02*
X106081088Y-163327651D01*
X105795374Y-163327651D01*
X105652517Y-163256222D01*
X105581088Y-163113365D01*
X105581088Y-162541937D01*
X105652517Y-162399080D01*
X105795374Y-162327651D01*
X106081088Y-162327651D01*
X106223945Y-162399080D01*
X106295374Y-162541937D01*
X106295374Y-162684794D01*
X105581088Y-162827651D01*
X106938231Y-163184794D02*
X107009660Y-163256222D01*
X106938231Y-163327651D01*
X106866802Y-163256222D01*
X106938231Y-163184794D01*
X106938231Y-163327651D01*
X106938231Y-162399080D02*
X107009660Y-162470508D01*
X106938231Y-162541937D01*
X106866802Y-162470508D01*
X106938231Y-162399080D01*
X106938231Y-162541937D01*
X108795374Y-163327651D02*
X108795374Y-161827651D01*
X108795374Y-162399080D02*
X108938231Y-162327651D01*
X109223945Y-162327651D01*
X109366802Y-162399080D01*
X109438231Y-162470508D01*
X109509660Y-162613365D01*
X109509660Y-163041937D01*
X109438231Y-163184794D01*
X109366802Y-163256222D01*
X109223945Y-163327651D01*
X108938231Y-163327651D01*
X108795374Y-163256222D01*
X110366802Y-163327651D02*
X110223945Y-163256222D01*
X110152517Y-163184794D01*
X110081088Y-163041937D01*
X110081088Y-162613365D01*
X110152517Y-162470508D01*
X110223945Y-162399080D01*
X110366802Y-162327651D01*
X110581088Y-162327651D01*
X110723945Y-162399080D01*
X110795374Y-162470508D01*
X110866802Y-162613365D01*
X110866802Y-163041937D01*
X110795374Y-163184794D01*
X110723945Y-163256222D01*
X110581088Y-163327651D01*
X110366802Y-163327651D01*
X111295374Y-162327651D02*
X111866802Y-162327651D01*
X111509660Y-161827651D02*
X111509660Y-163113365D01*
X111581088Y-163256222D01*
X111723945Y-163327651D01*
X111866802Y-163327651D01*
X112152517Y-162327651D02*
X112723945Y-162327651D01*
X112366802Y-161827651D02*
X112366802Y-163113365D01*
X112438231Y-163256222D01*
X112581088Y-163327651D01*
X112723945Y-163327651D01*
X113438231Y-163327651D02*
X113295374Y-163256222D01*
X113223945Y-163184794D01*
X113152517Y-163041937D01*
X113152517Y-162613365D01*
X113223945Y-162470508D01*
X113295374Y-162399080D01*
X113438231Y-162327651D01*
X113652517Y-162327651D01*
X113795374Y-162399080D01*
X113866802Y-162470508D01*
X113938231Y-162613365D01*
X113938231Y-163041937D01*
X113866802Y-163184794D01*
X113795374Y-163256222D01*
X113652517Y-163327651D01*
X113438231Y-163327651D01*
X114581088Y-163327651D02*
X114581088Y-162327651D01*
X114581088Y-162470508D02*
X114652517Y-162399080D01*
X114795374Y-162327651D01*
X115009660Y-162327651D01*
X115152517Y-162399080D01*
X115223945Y-162541937D01*
X115223945Y-163327651D01*
X115223945Y-162541937D02*
X115295374Y-162399080D01*
X115438231Y-162327651D01*
X115652517Y-162327651D01*
X115795374Y-162399080D01*
X115866802Y-162541937D01*
X115866802Y-163327651D01*
X116581088Y-162756222D02*
X117723945Y-162756222D01*
X118438231Y-163327651D02*
X118438231Y-161827651D01*
X118438231Y-162399080D02*
X118581088Y-162327651D01*
X118866802Y-162327651D01*
X119009660Y-162399080D01*
X119081088Y-162470508D01*
X119152517Y-162613365D01*
X119152517Y-163041937D01*
X119081088Y-163184794D01*
X119009660Y-163256222D01*
X118866802Y-163327651D01*
X118581088Y-163327651D01*
X118438231Y-163256222D01*
X120009660Y-163327651D02*
X119866802Y-163256222D01*
X119795374Y-163184794D01*
X119723945Y-163041937D01*
X119723945Y-162613365D01*
X119795374Y-162470508D01*
X119866802Y-162399080D01*
X120009660Y-162327651D01*
X120223945Y-162327651D01*
X120366802Y-162399080D01*
X120438231Y-162470508D01*
X120509660Y-162613365D01*
X120509660Y-163041937D01*
X120438231Y-163184794D01*
X120366802Y-163256222D01*
X120223945Y-163327651D01*
X120009660Y-163327651D01*
X121795374Y-163327651D02*
X121795374Y-162541937D01*
X121723945Y-162399080D01*
X121581088Y-162327651D01*
X121295374Y-162327651D01*
X121152517Y-162399080D01*
X121795374Y-163256222D02*
X121652517Y-163327651D01*
X121295374Y-163327651D01*
X121152517Y-163256222D01*
X121081088Y-163113365D01*
X121081088Y-162970508D01*
X121152517Y-162827651D01*
X121295374Y-162756222D01*
X121652517Y-162756222D01*
X121795374Y-162684794D01*
X122509660Y-163327651D02*
X122509660Y-162327651D01*
X122509660Y-162613365D02*
X122581088Y-162470508D01*
X122652517Y-162399080D01*
X122795374Y-162327651D01*
X122938231Y-162327651D01*
X124081088Y-163327651D02*
X124081088Y-161827651D01*
X124081088Y-163256222D02*
X123938231Y-163327651D01*
X123652517Y-163327651D01*
X123509660Y-163256222D01*
X123438231Y-163184794D01*
X123366802Y-163041937D01*
X123366802Y-162613365D01*
X123438231Y-162470508D01*
X123509660Y-162399080D01*
X123652517Y-162327651D01*
X123938231Y-162327651D01*
X124081088Y-162399080D01*
X124795374Y-163184794D02*
X124866802Y-163256222D01*
X124795374Y-163327651D01*
X124723945Y-163256222D01*
X124795374Y-163184794D01*
X124795374Y-163327651D01*
X125509660Y-163327651D02*
X125509660Y-161827651D01*
X125652517Y-162756222D02*
X126081088Y-163327651D01*
X126081088Y-162327651D02*
X125509660Y-162899080D01*
X126723945Y-163327651D02*
X126723945Y-162327651D01*
X126723945Y-161827651D02*
X126652517Y-161899080D01*
X126723945Y-161970508D01*
X126795374Y-161899080D01*
X126723945Y-161827651D01*
X126723945Y-161970508D01*
X128081088Y-163256222D02*
X127938231Y-163327651D01*
X127652517Y-163327651D01*
X127509660Y-163256222D01*
X127438231Y-163184794D01*
X127366802Y-163041937D01*
X127366802Y-162613365D01*
X127438231Y-162470508D01*
X127509660Y-162399080D01*
X127652517Y-162327651D01*
X127938231Y-162327651D01*
X128081088Y-162399080D01*
X129366802Y-163327651D02*
X129366802Y-162541937D01*
X129295374Y-162399080D01*
X129152517Y-162327651D01*
X128866802Y-162327651D01*
X128723945Y-162399080D01*
X129366802Y-163256222D02*
X129223945Y-163327651D01*
X128866802Y-163327651D01*
X128723945Y-163256222D01*
X128652517Y-163113365D01*
X128652517Y-162970508D01*
X128723945Y-162827651D01*
X128866802Y-162756222D01*
X129223945Y-162756222D01*
X129366802Y-162684794D01*
X130723945Y-163327651D02*
X130723945Y-161827651D01*
X130723945Y-163256222D02*
X130581088Y-163327651D01*
X130295374Y-163327651D01*
X130152517Y-163256222D01*
X130081088Y-163184794D01*
X130009660Y-163041937D01*
X130009660Y-162613365D01*
X130081088Y-162470508D01*
X130152517Y-162399080D01*
X130295374Y-162327651D01*
X130581088Y-162327651D01*
X130723945Y-162399080D01*
X131081088Y-163470508D02*
X132223945Y-163470508D01*
X132581088Y-162327651D02*
X132581088Y-163827651D01*
X132581088Y-162399080D02*
X132723945Y-162327651D01*
X133009660Y-162327651D01*
X133152517Y-162399080D01*
X133223945Y-162470508D01*
X133295374Y-162613365D01*
X133295374Y-163041937D01*
X133223945Y-163184794D01*
X133152517Y-163256222D01*
X133009660Y-163327651D01*
X132723945Y-163327651D01*
X132581088Y-163256222D01*
X134581088Y-163256222D02*
X134438231Y-163327651D01*
X134152517Y-163327651D01*
X134009660Y-163256222D01*
X133938231Y-163184794D01*
X133866802Y-163041937D01*
X133866802Y-162613365D01*
X133938231Y-162470508D01*
X134009660Y-162399080D01*
X134152517Y-162327651D01*
X134438231Y-162327651D01*
X134581088Y-162399080D01*
X135223945Y-163327651D02*
X135223945Y-161827651D01*
X135223945Y-162399080D02*
X135366802Y-162327651D01*
X135652517Y-162327651D01*
X135795374Y-162399080D01*
X135866802Y-162470508D01*
X135938231Y-162613365D01*
X135938231Y-163041937D01*
X135866802Y-163184794D01*
X135795374Y-163256222D01*
X135652517Y-163327651D01*
X135366802Y-163327651D01*
X135223945Y-163256222D01*
D10*
D11*
X101434660Y-158449080D02*
X209434660Y-158449080D01*
D10*
D11*
X102795374Y-160556222D02*
X103009660Y-160627651D01*
X103366802Y-160627651D01*
X103509660Y-160556222D01*
X103581088Y-160484794D01*
X103652517Y-160341937D01*
X103652517Y-160199080D01*
X103581088Y-160056222D01*
X103509660Y-159984794D01*
X103366802Y-159913365D01*
X103081088Y-159841937D01*
X102938231Y-159770508D01*
X102866802Y-159699080D01*
X102795374Y-159556222D01*
X102795374Y-159413365D01*
X102866802Y-159270508D01*
X102938231Y-159199080D01*
X103081088Y-159127651D01*
X103438231Y-159127651D01*
X103652517Y-159199080D01*
X104295374Y-160627651D02*
X104295374Y-159127651D01*
X104938231Y-160627651D02*
X104938231Y-159841937D01*
X104866802Y-159699080D01*
X104723945Y-159627651D01*
X104509660Y-159627651D01*
X104366802Y-159699080D01*
X104295374Y-159770508D01*
X106223945Y-160556222D02*
X106081088Y-160627651D01*
X105795374Y-160627651D01*
X105652517Y-160556222D01*
X105581088Y-160413365D01*
X105581088Y-159841937D01*
X105652517Y-159699080D01*
X105795374Y-159627651D01*
X106081088Y-159627651D01*
X106223945Y-159699080D01*
X106295374Y-159841937D01*
X106295374Y-159984794D01*
X105581088Y-160127651D01*
X107509660Y-160556222D02*
X107366802Y-160627651D01*
X107081088Y-160627651D01*
X106938231Y-160556222D01*
X106866802Y-160413365D01*
X106866802Y-159841937D01*
X106938231Y-159699080D01*
X107081088Y-159627651D01*
X107366802Y-159627651D01*
X107509660Y-159699080D01*
X107581088Y-159841937D01*
X107581088Y-159984794D01*
X106866802Y-160127651D01*
X108009660Y-159627651D02*
X108581088Y-159627651D01*
X108223945Y-159127651D02*
X108223945Y-160413365D01*
X108295374Y-160556222D01*
X108438231Y-160627651D01*
X108581088Y-160627651D01*
X109081088Y-160484794D02*
X109152517Y-160556222D01*
X109081088Y-160627651D01*
X109009660Y-160556222D01*
X109081088Y-160484794D01*
X109081088Y-160627651D01*
X109081088Y-159699080D02*
X109152517Y-159770508D01*
X109081088Y-159841937D01*
X109009660Y-159770508D01*
X109081088Y-159699080D01*
X109081088Y-159841937D01*
D10*
D12*
X102986802Y-157627651D02*
X102986802Y-156127651D01*
X103486802Y-157199080D01*
X103986802Y-156127651D01*
X103986802Y-157627651D01*
X104986802Y-156127651D02*
X105272517Y-156127651D01*
X105415374Y-156199080D01*
X105558231Y-156341937D01*
X105629660Y-156627651D01*
X105629660Y-157127651D01*
X105558231Y-157413365D01*
X105415374Y-157556222D01*
X105272517Y-157627651D01*
X104986802Y-157627651D01*
X104843945Y-157556222D01*
X104701088Y-157413365D01*
X104629660Y-157127651D01*
X104629660Y-156627651D01*
X104701088Y-156341937D01*
X104843945Y-156199080D01*
X104986802Y-156127651D01*
X106272517Y-157627651D02*
X106272517Y-156127651D01*
X106629660Y-156127651D01*
X106843945Y-156199080D01*
X106986802Y-156341937D01*
X107058231Y-156484794D01*
X107129660Y-156770508D01*
X107129660Y-156984794D01*
X107058231Y-157270508D01*
X106986802Y-157413365D01*
X106843945Y-157556222D01*
X106629660Y-157627651D01*
X106272517Y-157627651D01*
X108915374Y-157627651D02*
X108915374Y-156127651D01*
X109272517Y-156127651D01*
X109486802Y-156199080D01*
X109629660Y-156341937D01*
X109701088Y-156484794D01*
X109772517Y-156770508D01*
X109772517Y-156984794D01*
X109701088Y-157270508D01*
X109629660Y-157413365D01*
X109486802Y-157556222D01*
X109272517Y-157627651D01*
X108915374Y-157627651D01*
X110986802Y-157556222D02*
X110843945Y-157627651D01*
X110558231Y-157627651D01*
X110415374Y-157556222D01*
X110343945Y-157413365D01*
X110343945Y-156841937D01*
X110415374Y-156699080D01*
X110558231Y-156627651D01*
X110843945Y-156627651D01*
X110986802Y-156699080D01*
X111058231Y-156841937D01*
X111058231Y-156984794D01*
X110343945Y-157127651D01*
X111558231Y-156627651D02*
X111915374Y-157627651D01*
X112272517Y-156627651D01*
X112843945Y-157627651D02*
X112843945Y-156627651D01*
X112843945Y-156127651D02*
X112772517Y-156199080D01*
X112843945Y-156270508D01*
X112915374Y-156199080D01*
X112843945Y-156127651D01*
X112843945Y-156270508D01*
X114201088Y-157556222D02*
X114058231Y-157627651D01*
X113772517Y-157627651D01*
X113629660Y-157556222D01*
X113558231Y-157484794D01*
X113486802Y-157341937D01*
X113486802Y-156913365D01*
X113558231Y-156770508D01*
X113629660Y-156699080D01*
X113772517Y-156627651D01*
X114058231Y-156627651D01*
X114201088Y-156699080D01*
X115415374Y-157556222D02*
X115272517Y-157627651D01*
X114986802Y-157627651D01*
X114843945Y-157556222D01*
X114772517Y-157413365D01*
X114772517Y-156841937D01*
X114843945Y-156699080D01*
X114986802Y-156627651D01*
X115272517Y-156627651D01*
X115415374Y-156699080D01*
X115486802Y-156841937D01*
X115486802Y-156984794D01*
X114772517Y-157127651D01*
X116058231Y-157556222D02*
X116201088Y-157627651D01*
X116486802Y-157627651D01*
X116629660Y-157556222D01*
X116701088Y-157413365D01*
X116701088Y-157341937D01*
X116629660Y-157199080D01*
X116486802Y-157127651D01*
X116272517Y-157127651D01*
X116129660Y-157056222D01*
X116058231Y-156913365D01*
X116058231Y-156841937D01*
X116129660Y-156699080D01*
X116272517Y-156627651D01*
X116486802Y-156627651D01*
X116629660Y-156699080D01*
X119272517Y-156199080D02*
X119129660Y-156127651D01*
X118915374Y-156127651D01*
X118701088Y-156199080D01*
X118558231Y-156341937D01*
X118486802Y-156484794D01*
X118415374Y-156770508D01*
X118415374Y-156984794D01*
X118486802Y-157270508D01*
X118558231Y-157413365D01*
X118701088Y-157556222D01*
X118915374Y-157627651D01*
X119058231Y-157627651D01*
X119272517Y-157556222D01*
X119343945Y-157484794D01*
X119343945Y-156984794D01*
X119058231Y-156984794D01*
X119986802Y-157627651D02*
X119986802Y-156627651D01*
X119986802Y-156770508D02*
X120058231Y-156699080D01*
X120201088Y-156627651D01*
X120415374Y-156627651D01*
X120558231Y-156699080D01*
X120629660Y-156841937D01*
X120629660Y-157627651D01*
X120629660Y-156841937D02*
X120701088Y-156699080D01*
X120843945Y-156627651D01*
X121058231Y-156627651D01*
X121201088Y-156699080D01*
X121272517Y-156841937D01*
X121272517Y-157627651D01*
X121986802Y-157627651D02*
X121986802Y-156127651D01*
X121986802Y-156699080D02*
X122129660Y-156627651D01*
X122415374Y-156627651D01*
X122558231Y-156699080D01*
X122629660Y-156770508D01*
X122701088Y-156913365D01*
X122701088Y-157341937D01*
X122629660Y-157484794D01*
X122558231Y-157556222D01*
X122415374Y-157627651D01*
X122129660Y-157627651D01*
X121986802Y-157556222D01*
X123343945Y-157627651D02*
X123343945Y-156127651D01*
X123343945Y-156841937D02*
X124201088Y-156841937D01*
X124201088Y-157627651D02*
X124201088Y-156127651D01*
D10*
D11*
D10*
D11*
D10*
D11*
D10*
D11*
D10*
D11*
X121434660Y-168449080D02*
X121434660Y-171449080D01*
D10*
D11*
X185434660Y-168449080D02*
X185434660Y-174949080D01*
D14*
X100707460Y-104226880D03*
X101977460Y-104226880D03*
X103247460Y-104226880D03*
X104517460Y-104226880D03*
X104517460Y-99276880D03*
X103247460Y-99276880D03*
X101977460Y-99276880D03*
X100707460Y-99276880D03*
D15*
X101232460Y-97161880D03*
X101232460Y-95261880D03*
D16*
X103092460Y-94076880D03*
X103092460Y-95626880D03*
D17*
X-5095240Y-133367780D03*
X141742160Y-133596380D03*
X70492620Y-9006840D03*
D18*
X137898360Y-11892280D03*
X130498360Y-11892280D03*
D19*
X142718660Y-21861780D03*
X133018660Y-21861780D03*
D20*
X117452240Y-117137180D03*
X115877240Y-117137180D03*
D21*
X114206020Y-117126920D03*
X114206020Y-118701920D03*
D22*
X115465860Y-107904280D03*
X115465860Y-106329280D03*
D21*
X117152420Y-104563980D03*
X117152420Y-106138980D03*
D20*
X115587880Y-104571800D03*
X114012880Y-104571800D03*
D22*
X118732300Y-106133900D03*
X118732300Y-104558900D03*
D20*
X92910760Y-49662080D03*
X91335760Y-49662080D03*
X92910860Y-51236880D03*
X91335860Y-51236880D03*
D23*
X83362980Y-13157580D03*
D24*
X83362980Y-11437580D03*
X81162980Y-11437580D03*
X81162980Y-13337580D03*
D22*
X89253060Y-15283380D03*
X89253060Y-13708380D03*
D25*
X31297220Y-62384940D03*
X32872220Y-62384940D03*
D22*
X35182460Y-64229380D03*
X35182460Y-62654380D03*
D26*
X32752780Y-70642480D03*
X30852780Y-70642480D03*
X33075960Y-60596780D03*
X31175960Y-60596780D03*
D21*
X19113580Y-65787680D03*
X19113580Y-67362680D03*
D25*
X12610156Y-56250840D03*
X14185156Y-56250840D03*
X12610156Y-54599840D03*
X14185156Y-54599840D03*
D15*
X23797260Y-58272720D03*
X23797260Y-56372720D03*
D21*
X25613360Y-56761280D03*
X25613360Y-58336280D03*
D20*
X14185156Y-57896760D03*
X12610156Y-57896760D03*
D25*
X11032460Y-66541880D03*
X12607460Y-66541880D03*
D27*
X21723756Y-57958030D03*
X21723756Y-56688030D03*
X21723756Y-55418030D03*
X21723756Y-54148030D03*
X21723756Y-52878030D03*
X21723756Y-51608030D03*
X21723756Y-50338030D03*
X16323756Y-50338030D03*
X16323756Y-51608030D03*
X16323756Y-52878030D03*
X16323756Y-54148030D03*
X16323756Y-55418030D03*
X16323756Y-56688030D03*
X16323756Y-57958030D03*
D22*
X115877340Y-120276820D03*
X115877340Y-118701820D03*
D21*
X114200940Y-120276620D03*
X114200940Y-121851620D03*
X120312180Y-104558900D03*
X120312180Y-106133900D03*
X13263880Y-84363360D03*
X13263880Y-85938360D03*
D20*
X21394420Y-82153760D03*
X19819420Y-82153760D03*
D28*
X15772420Y-85740240D03*
X17872420Y-85740240D03*
D29*
X21391920Y-83782660D03*
X19491920Y-83782660D03*
X20441920Y-85782660D03*
D30*
X12451580Y-108894880D03*
X12451580Y-113974880D03*
X12451580Y-116514880D03*
X12451580Y-119054880D03*
X20451580Y-119054880D03*
X20451580Y-116514880D03*
X20451580Y-113974880D03*
X20451580Y-108894880D03*
D20*
X21407120Y-102961440D03*
X19832120Y-102961440D03*
D28*
X15757180Y-106405680D03*
X17857180Y-106405680D03*
D29*
X21407160Y-104448100D03*
X19507160Y-104448100D03*
X20457160Y-106448100D03*
D21*
X13263880Y-105056740D03*
X13263880Y-106631740D03*
D22*
X82064860Y-49509680D03*
X82064860Y-47934680D03*
D31*
X116029740Y-115128020D03*
X117299740Y-115128020D03*
X118569740Y-115128020D03*
X119839740Y-115128020D03*
X119839740Y-109728020D03*
X118569740Y-109728020D03*
X117299740Y-109728020D03*
X116029740Y-109728020D03*
D32*
X110717740Y-106138980D03*
X107117740Y-106138980D03*
D29*
X108651000Y-111660180D03*
X110551000Y-111660180D03*
X109601000Y-109660180D03*
D32*
X111762460Y-118741880D03*
X108162460Y-118741880D03*
D33*
X125359160Y-113522300D03*
X125359160Y-116322300D03*
D25*
X128247040Y-116321840D03*
X129822040Y-116321840D03*
X128247040Y-106766360D03*
X129822040Y-106766360D03*
D34*
X129971040Y-110685620D03*
X129971040Y-108785620D03*
X127971040Y-109735620D03*
D21*
X67891660Y-117010080D03*
X67891660Y-118585080D03*
D20*
X69466660Y-115257580D03*
X67891660Y-115257580D03*
D22*
X69669660Y-118559580D03*
X69669660Y-116984580D03*
D32*
X83394960Y-118546880D03*
X79794960Y-118546880D03*
D25*
X35104680Y-68884800D03*
X36679680Y-68884800D03*
D22*
X105534460Y-109580880D03*
X105534460Y-108005880D03*
D15*
X101572060Y-109540080D03*
X101572060Y-107640080D03*
D22*
X90535760Y-124020680D03*
X90535760Y-122445680D03*
D20*
X102171600Y-116443760D03*
X100596600Y-116443760D03*
D22*
X100909120Y-123886060D03*
X100909120Y-122311060D03*
D35*
X103514800Y-124157740D03*
X107914800Y-124157740D03*
D36*
X91056460Y-11805880D03*
X91056460Y-13705880D03*
D37*
X121282460Y-4627880D03*
X123157460Y-4627880D03*
D21*
X82115660Y-51236780D03*
X82115660Y-52811780D03*
X94231460Y-122534580D03*
X94231460Y-124109580D03*
D38*
X143573960Y-6520180D03*
X140773960Y-6520180D03*
X141192460Y-13341880D03*
X141192460Y-10541880D03*
D39*
X46583600Y-15682940D03*
X46583600Y-13582940D03*
D29*
X34363620Y-19173700D03*
X36263620Y-19173700D03*
X35313620Y-17173700D03*
D22*
X79214980Y-13960040D03*
X79214980Y-12385040D03*
D20*
X77594560Y-13959840D03*
X76019560Y-13959840D03*
D21*
X86738460Y-15752880D03*
X86738460Y-17327880D03*
X44686220Y-14109500D03*
X44686220Y-15684500D03*
X74952860Y-58069280D03*
X74952860Y-59644280D03*
X77645260Y-58044080D03*
X77645260Y-59619080D03*
X80363060Y-48734980D03*
X80363060Y-50309980D03*
D20*
X92885460Y-46410880D03*
X91310460Y-46410880D03*
D25*
X9725460Y-18216880D03*
X11300460Y-18216880D03*
X7490460Y-20121880D03*
X9065460Y-20121880D03*
D22*
X119032020Y-120276820D03*
X119032020Y-118701820D03*
D34*
X103518460Y-111373880D03*
X103518460Y-113273880D03*
X105518460Y-112323880D03*
D27*
X84089260Y-44912280D03*
X84089260Y-46182280D03*
X84089260Y-47452280D03*
X84089260Y-48722280D03*
X84089260Y-49992280D03*
X84089260Y-51262280D03*
X84089260Y-52532280D03*
X89489260Y-52532280D03*
X89489260Y-51262280D03*
X89489260Y-49992280D03*
X89489260Y-48722280D03*
X89489260Y-47452280D03*
X89489260Y-46182280D03*
X89489260Y-44912280D03*
D40*
X101394260Y-119486680D03*
X103294260Y-119486680D03*
D34*
X129951480Y-114317860D03*
X129951480Y-112417860D03*
X127951480Y-113367860D03*
D20*
X77594560Y-12385040D03*
X76019560Y-12385040D03*
D23*
X96988080Y-19099200D03*
D24*
X96988080Y-17379200D03*
X94788080Y-17379200D03*
X94788080Y-19279200D03*
D21*
X94536260Y-46436080D03*
X94536260Y-48011080D03*
D29*
X110551000Y-113272060D03*
X108651000Y-113272060D03*
X109601000Y-115272060D03*
D41*
X27332460Y-63941880D03*
X21932460Y-63941880D03*
D39*
X60391040Y-19749480D03*
X60391040Y-17649480D03*
D20*
X118727320Y-107723940D03*
X117152320Y-107723940D03*
D25*
X11046460Y-20185380D03*
X12621460Y-20185380D03*
X17053460Y-19740880D03*
X18628460Y-19740880D03*
D34*
X40039800Y-19042420D03*
X40039800Y-17142420D03*
X38039800Y-18092420D03*
D36*
X92351860Y-122394980D03*
X92351860Y-124294980D03*
D21*
X95793560Y-122521880D03*
X95793560Y-124096880D03*
D22*
X97330260Y-124096880D03*
X97330260Y-122521880D03*
D36*
X99108260Y-122537180D03*
X99108260Y-124437180D03*
D42*
X66019660Y-118432580D03*
X66019660Y-117162580D03*
X66019660Y-115892580D03*
X66019660Y-114622580D03*
X60619660Y-114622580D03*
X60619660Y-115892580D03*
X60619660Y-117162580D03*
X60619660Y-118432580D03*
D43*
X96438720Y-118936800D03*
X96438720Y-116876800D03*
X97468720Y-116876800D03*
X95408720Y-118936800D03*
X96438720Y-117906800D03*
X97468720Y-118936800D03*
X95408720Y-117906800D03*
X95408720Y-116876800D03*
X97468720Y-117906800D03*
D44*
X94001220Y-116156800D03*
X94001220Y-116656800D03*
X94001220Y-117156800D03*
X94001220Y-117656800D03*
X94001220Y-118156800D03*
X94001220Y-118656800D03*
X94001220Y-119156800D03*
X94001220Y-119656800D03*
D45*
X94688720Y-120344300D03*
X95188720Y-120344300D03*
X95688720Y-120344300D03*
X96188720Y-120344300D03*
X96688720Y-120344300D03*
X97188720Y-120344300D03*
X97688720Y-120344300D03*
X98188720Y-120344300D03*
D44*
X98876220Y-119656800D03*
X98876220Y-119156800D03*
X98876220Y-118656800D03*
X98876220Y-118156800D03*
X98876220Y-117656800D03*
X98876220Y-117156800D03*
X98876220Y-116656800D03*
X98876220Y-116156800D03*
D45*
X98188720Y-115469300D03*
X97688720Y-115469300D03*
X97188720Y-115469300D03*
X96688720Y-115469300D03*
X96188720Y-115469300D03*
X95688720Y-115469300D03*
X95188720Y-115469300D03*
X94688720Y-115469300D03*
D21*
X96365060Y-111002980D03*
X96365060Y-112577980D03*
D15*
X94510860Y-113959680D03*
X94510860Y-112059680D03*
D25*
X90075920Y-116878100D03*
X91650920Y-116878100D03*
D22*
X90139520Y-115204340D03*
X90139520Y-113629340D03*
D25*
X90169800Y-112074960D03*
X91744800Y-112074960D03*
D20*
X95907960Y-102671880D03*
X94332960Y-102671880D03*
D22*
X88519000Y-115204340D03*
X88519000Y-113629340D03*
D20*
X88110260Y-116768880D03*
X86535260Y-116768880D03*
D22*
X91744800Y-115204340D03*
X91744800Y-113629340D03*
D46*
X90195654Y-104907482D03*
X90195654Y-109987482D03*
X94195654Y-109987482D03*
X94195654Y-104907482D03*
D22*
X100530660Y-47528680D03*
X100530660Y-45953680D03*
X104086660Y-43591580D03*
X104086660Y-42016580D03*
X102511860Y-44226580D03*
X102511860Y-42651580D03*
X102334060Y-47528680D03*
X102334060Y-45953680D03*
D21*
X103934260Y-116159280D03*
X103934260Y-117734280D03*
D47*
X56771540Y-118892080D03*
X56771540Y-120767080D03*
D48*
X11432540Y-85941140D03*
X11432540Y-84066140D03*
X11432540Y-106631740D03*
X11432540Y-104756740D03*
D39*
X124805440Y-123325600D03*
X124805440Y-121225600D03*
D28*
X119900120Y-126238000D03*
X117800120Y-126238000D03*
D21*
X124576840Y-101414480D03*
X124576840Y-102989480D03*
D22*
X119888000Y-99161700D03*
X119888000Y-97586700D03*
X116456460Y-124287380D03*
X116456460Y-122712380D03*
X124287280Y-126540360D03*
X124287280Y-124965360D03*
D20*
X21207460Y-59541880D03*
X19632460Y-59541880D03*
D49*
X22730460Y-77801880D03*
X22730460Y-74201880D03*
X27810460Y-77547880D03*
X27810460Y-73947880D03*
D47*
X114040920Y-111477820D03*
X114040920Y-113352820D03*
D34*
X123104400Y-95364260D03*
X123104400Y-97264260D03*
X125104400Y-96314260D03*
D29*
X120944600Y-102988620D03*
X122844600Y-102988620D03*
X121894600Y-100988620D03*
D28*
X118298940Y-99161600D03*
X116198940Y-99161600D03*
D34*
X116307360Y-95361720D03*
X116307360Y-97261720D03*
X118307360Y-96311720D03*
D22*
X121429780Y-99164340D03*
X121429780Y-97589340D03*
D34*
X111392460Y-124327880D03*
X111392460Y-126227880D03*
X113392460Y-125277880D03*
X121031760Y-120276580D03*
X121031760Y-122176580D03*
X123031760Y-121226580D03*
D22*
X124572520Y-119639180D03*
X124572520Y-118064180D03*
X126152400Y-119639180D03*
X126152400Y-118064180D03*
D21*
X119250460Y-101394060D03*
X119250460Y-102969060D03*
D22*
X58607960Y-120467320D03*
X58607960Y-118892320D03*
D21*
X123780040Y-105181200D03*
X123780040Y-106756200D03*
X125359920Y-105181200D03*
X125359920Y-106756200D03*
D50*
X125359160Y-111303260D03*
X125359160Y-108503260D03*
D21*
X121592340Y-108155640D03*
X121592340Y-109730640D03*
D22*
X121592340Y-115092680D03*
X121592340Y-113517680D03*
D25*
X15944960Y-68127880D03*
X17519960Y-68127880D03*
D41*
X17810460Y-73969880D03*
X12410460Y-73969880D03*
D22*
X122575320Y-126540360D03*
X122575320Y-124965360D03*
D34*
X128576580Y-123266240D03*
X128576580Y-121366240D03*
X126576580Y-122316240D03*
D30*
X12441420Y-88204040D03*
X12441420Y-93284040D03*
X12441420Y-95824040D03*
X12441420Y-98364040D03*
X20441420Y-98364040D03*
X20441420Y-95824040D03*
X20441420Y-93284040D03*
X20441420Y-88204040D03*
D34*
X128574040Y-126906060D03*
X128574040Y-125006060D03*
X126574040Y-125956060D03*
D21*
X113936780Y-108153000D03*
X113936780Y-109728000D03*
D29*
X113982460Y-102981000D03*
X115882460Y-102981000D03*
X114932460Y-100981000D03*
D22*
X126710440Y-96941840D03*
X126710440Y-95366840D03*
D51*
X31300620Y-68633700D03*
X31800620Y-68633700D03*
X32300620Y-68633700D03*
X32800620Y-68633700D03*
X33300620Y-68633700D03*
X33300620Y-64233700D03*
X32800620Y-64233700D03*
X32300620Y-64233700D03*
X31800620Y-64233700D03*
X31300620Y-64233700D03*
D25*
X15565020Y-48615600D03*
X17140020Y-48615600D03*
D20*
X92910860Y-48061880D03*
X91335860Y-48061880D03*
D22*
X104264460Y-47554080D03*
X104264460Y-45979080D03*
X117980460Y-124287380D03*
X117980460Y-122712380D03*
D21*
X117452140Y-118701820D03*
X117452140Y-120276820D03*
D22*
X128323340Y-96939200D03*
X128323340Y-95364200D03*
D25*
X112651440Y-95359220D03*
X114226440Y-95359220D03*
D21*
X131792980Y-121683580D03*
X131792980Y-123258580D03*
D28*
X125106140Y-99161600D03*
X123006140Y-99161600D03*
D25*
X30416400Y-13797280D03*
X31991400Y-13797280D03*
D21*
X36962080Y-13797180D03*
X36962080Y-15372180D03*
X35328860Y-13797180D03*
X35328860Y-15372180D03*
X33637220Y-13797280D03*
X33637220Y-15372280D03*
X130159760Y-121683680D03*
X130159760Y-123258680D03*
X130162300Y-125338740D03*
X130162300Y-126913740D03*
X131792980Y-125338640D03*
X131792980Y-126913640D03*
D52*
X57061100Y-14226580D03*
X54521100Y-14226580D03*
X51981100Y-14226580D03*
X49441100Y-14226580D03*
X49441100Y-23756580D03*
X51981100Y-23756580D03*
X54521100Y-23756580D03*
X57061100Y-23756580D03*
D20*
X3426460Y-9326880D03*
X1851460Y-9326880D03*
X22209960Y-19740880D03*
X20634960Y-19740880D03*
D22*
X94198440Y-108447940D03*
X94198440Y-106872940D03*
D53*
X32636460Y-94841880D03*
X32636460Y-91241880D03*
X27556460Y-94841880D03*
X27556460Y-91241880D03*
D29*
X27640320Y-80169000D03*
X25740320Y-80169000D03*
X26690320Y-82169000D03*
X31462980Y-80185260D03*
X29562980Y-80185260D03*
X30512980Y-82185260D03*
D20*
X26698140Y-83853020D03*
X25123140Y-83853020D03*
D25*
X28546960Y-83875880D03*
X30121960Y-83875880D03*
D22*
X19428460Y-78770880D03*
X19428460Y-77195880D03*
D20*
X34876940Y-81320640D03*
X33301940Y-81320640D03*
X14183460Y-52887880D03*
X12608460Y-52887880D03*
D47*
X133093460Y-75523880D03*
X133093460Y-77398880D03*
D36*
X132966460Y-79242880D03*
X132966460Y-81142880D03*
D54*
X130528460Y-80714880D03*
D55*
X124228460Y-78414880D03*
D54*
X130528460Y-78414880D03*
X130528460Y-76114880D03*
X118747940Y-87351900D03*
D55*
X112447940Y-85051900D03*
D54*
X118747940Y-85051900D03*
X118747940Y-82751900D03*
D21*
X125742460Y-68254380D03*
X125742460Y-69829380D03*
X126529460Y-72092380D03*
X126529460Y-73667380D03*
D22*
X129079460Y-58992380D03*
X129079460Y-57417380D03*
X129015960Y-55817380D03*
X129015960Y-54242380D03*
D21*
X8379460Y-50195380D03*
X8379460Y-51770380D03*
D25*
X-1018540Y-51363880D03*
X556460Y-51363880D03*
D21*
X10792460Y-52989380D03*
X10792460Y-54564380D03*
D25*
X-1907540Y-53395880D03*
X-332540Y-53395880D03*
D56*
X6592460Y-52465880D03*
X6592460Y-51815880D03*
X6592460Y-51165880D03*
X6592460Y-50515880D03*
X2292460Y-50515880D03*
X2292460Y-51165880D03*
X2292460Y-51815880D03*
X2292460Y-52465880D03*
D29*
X126387100Y-53202920D03*
X124487100Y-53202920D03*
X125437100Y-55202920D03*
X122732460Y-73691880D03*
X124632460Y-73691880D03*
X123682460Y-71691880D03*
D21*
X116941600Y-59494320D03*
X116941600Y-61069320D03*
D57*
X119200020Y-66502640D03*
X119850020Y-66502640D03*
X120500020Y-66502640D03*
X121150020Y-66502640D03*
X121150020Y-62102640D03*
X120500020Y-62102640D03*
X119850020Y-62102640D03*
X119200020Y-62102640D03*
D26*
X120009960Y-68864480D03*
X118109960Y-68864480D03*
D42*
X111772720Y-62674500D03*
X111772720Y-63944500D03*
X111772720Y-65214500D03*
X111772720Y-66484500D03*
X117172720Y-66484500D03*
X117172720Y-65214500D03*
X117172720Y-63944500D03*
X117172720Y-62674500D03*
D22*
X123432460Y-69449380D03*
X123432460Y-67874380D03*
D20*
X111236960Y-69143880D03*
X109661960Y-69143880D03*
X125407460Y-56941880D03*
X123832460Y-56941880D03*
D25*
X111414460Y-59745880D03*
X112989460Y-59745880D03*
X118526560Y-70718680D03*
X120101560Y-70718680D03*
X116684860Y-78821280D03*
X118259860Y-78821280D03*
X116697560Y-77055980D03*
X118272560Y-77055980D03*
D20*
X83258760Y-17035780D03*
X81683760Y-17035780D03*
D39*
X116932460Y-74241880D03*
X116932460Y-72141880D03*
X119182460Y-74191880D03*
X119182460Y-72091880D03*
D21*
X121682460Y-76904380D03*
X121682460Y-78479380D03*
D58*
X11232460Y-60416880D03*
X11232460Y-61066880D03*
X11232460Y-61716880D03*
X11232460Y-62366880D03*
X11232460Y-63016880D03*
X11232460Y-63666880D03*
X11232460Y-64316880D03*
X11232460Y-64966880D03*
X17132460Y-64966880D03*
X17132460Y-64316880D03*
X17132460Y-63666880D03*
X17132460Y-63016880D03*
X17132460Y-62366880D03*
X17132460Y-61716880D03*
X17132460Y-61066880D03*
X17132460Y-60416880D03*
X123732460Y-61416880D03*
X123732460Y-62066880D03*
X123732460Y-62716880D03*
X123732460Y-63366880D03*
X123732460Y-64016880D03*
X123732460Y-64666880D03*
X123732460Y-65316880D03*
X123732460Y-65966880D03*
X129632460Y-65966880D03*
X129632460Y-65316880D03*
X129632460Y-64666880D03*
X129632460Y-64016880D03*
X129632460Y-63366880D03*
X129632460Y-62716880D03*
X129632460Y-62066880D03*
X129632460Y-61416880D03*
D20*
X32001560Y-35742880D03*
X30426560Y-35742880D03*
D59*
X108382460Y-98775880D03*
X108382460Y-94375880D03*
D60*
X125092460Y-85631880D03*
X125092460Y-89231880D03*
D61*
X88516460Y-122229880D03*
X86866460Y-122229880D03*
D62*
X83921960Y-124261880D03*
X79521960Y-124261880D03*
D63*
X124698760Y-26188780D03*
X124698760Y-17788780D03*
D64*
X136953960Y-5707380D03*
X138503960Y-5707380D03*
D63*
X112582460Y-25121880D03*
X112582460Y-16721880D03*
D65*
X147241560Y-16515080D03*
X145691560Y-16515080D03*
D16*
X132422460Y-29561880D03*
X132422460Y-31111880D03*
D66*
X48892460Y-47490980D03*
X48892460Y-45940980D03*
D36*
X47012860Y-45864780D03*
X47012860Y-47764780D03*
D66*
X139062460Y-46500080D03*
X139062460Y-44950080D03*
D16*
X121282460Y-86402880D03*
X121282460Y-87952880D03*
D64*
X132697460Y-40571880D03*
X134247460Y-40571880D03*
D63*
X117574060Y-36572680D03*
X117574060Y-29172680D03*
D65*
X67858940Y-41366440D03*
X66308940Y-41366440D03*
D64*
X133474460Y-124261880D03*
X135024460Y-124261880D03*
D66*
X129918460Y-96855880D03*
X129918460Y-95305880D03*
D16*
X119504460Y-122737880D03*
X119504460Y-124287880D03*
X114932460Y-123473880D03*
X114932460Y-125023880D03*
D66*
X117472460Y-102951880D03*
X117472460Y-101401880D03*
D16*
X133982460Y-125759880D03*
X133982460Y-127309880D03*
D64*
X19936460Y-70921880D03*
X21486460Y-70921880D03*
X19936460Y-69143880D03*
X21486460Y-69143880D03*
D65*
X64132460Y-2087880D03*
X62582460Y-2087880D03*
D64*
X101190460Y-5643880D03*
X102740460Y-5643880D03*
D16*
X59560460Y-22127880D03*
X59560460Y-23677880D03*
D66*
X44917360Y-47059180D03*
X44917360Y-45509180D03*
D36*
X43075860Y-45285580D03*
X43075860Y-47185580D03*
D66*
X44942760Y-43325380D03*
X44942760Y-41775380D03*
D36*
X43088560Y-41653380D03*
X43088560Y-43553380D03*
D64*
X45170760Y-29100780D03*
X46720760Y-29100780D03*
D26*
X46936660Y-27233880D03*
X45036660Y-27233880D03*
D66*
X53210460Y-47478280D03*
X53210460Y-45928280D03*
D36*
X51305460Y-45816480D03*
X51305460Y-47716480D03*
D66*
X50581560Y-44048680D03*
X50581560Y-42498680D03*
D36*
X48740060Y-42308780D03*
X48740060Y-44208780D03*
D67*
X150759160Y-24002980D03*
X150759160Y-18602980D03*
D66*
X67929760Y-113809780D03*
X67929760Y-112259780D03*
D65*
X58265660Y-112971580D03*
X56715660Y-112971580D03*
X54709660Y-122877580D03*
X53159660Y-122877580D03*
X56741660Y-100017580D03*
X55191660Y-100017580D03*
X53439660Y-112463580D03*
X51889660Y-112463580D03*
D68*
X48747660Y-121861580D03*
X43347660Y-121861580D03*
X48747660Y-99763580D03*
X43347660Y-99763580D03*
X48747660Y-114495580D03*
X43347660Y-114495580D03*
D69*
X132699760Y-33393680D03*
X132699760Y-38193680D03*
D34*
X65859660Y-120215580D03*
X65859660Y-122115580D03*
X67859660Y-121165580D03*
X55207660Y-115323580D03*
X55207660Y-117223580D03*
X57207660Y-116273580D03*
D29*
X39611260Y-15483080D03*
X41511260Y-15483080D03*
X40561260Y-13483080D03*
D70*
X100454460Y-114863880D03*
X102104460Y-114863880D03*
D71*
X106777460Y-31001880D03*
X106527460Y-39201880D03*
X106277460Y-31001880D03*
X106027460Y-39201880D03*
X105777460Y-31001880D03*
X105527460Y-39201880D03*
X105277460Y-31001880D03*
X105027460Y-39201880D03*
X104777460Y-31001880D03*
X104527460Y-39201880D03*
X104277460Y-31001880D03*
X104027460Y-39201880D03*
X103777460Y-31001880D03*
X103527460Y-39201880D03*
X103277460Y-31001880D03*
X103027460Y-39201880D03*
X102777460Y-31001880D03*
X102527460Y-39201880D03*
X102277460Y-31001880D03*
X102027460Y-39201880D03*
X101777460Y-31001880D03*
X101527460Y-39201880D03*
X101277460Y-31001880D03*
X101027460Y-39201880D03*
X100777460Y-31001880D03*
X100527460Y-39201880D03*
X100277460Y-31001880D03*
X100027460Y-39201880D03*
X99777460Y-31001880D03*
X99527460Y-39201880D03*
X99277460Y-31001880D03*
X99027460Y-39201880D03*
X98777460Y-31001880D03*
X98527460Y-39201880D03*
X98277460Y-31001880D03*
X98027460Y-39201880D03*
X97777460Y-31001880D03*
X97527460Y-39201880D03*
X97277460Y-31001880D03*
X97027460Y-39201880D03*
X96777460Y-31001880D03*
X96527460Y-39201880D03*
X96277460Y-31001880D03*
X96027460Y-39201880D03*
X95777460Y-31001880D03*
X95527460Y-39201880D03*
X95277460Y-31001880D03*
X95027460Y-39201880D03*
X94777460Y-31001880D03*
X94527460Y-39201880D03*
X94277460Y-31001880D03*
X94027460Y-39201880D03*
X93777460Y-31001880D03*
X93527460Y-39201880D03*
X93277460Y-31001880D03*
X93027460Y-39201880D03*
X92777460Y-31001880D03*
X92527460Y-39201880D03*
X92277460Y-31001880D03*
X92027460Y-39201880D03*
X91777460Y-31001880D03*
X91527460Y-39201880D03*
X91277460Y-31001880D03*
X91027460Y-39201880D03*
X90777460Y-31001880D03*
X90527460Y-39201880D03*
X90277460Y-31001880D03*
X90027460Y-39201880D03*
X89777460Y-31001880D03*
X89527460Y-39201880D03*
X89277460Y-31001880D03*
X89027460Y-39201880D03*
X88777460Y-31001880D03*
X88527460Y-39201880D03*
X88277460Y-31001880D03*
X88027460Y-39201880D03*
X87777460Y-31001880D03*
X87527460Y-39201880D03*
X87277460Y-31001880D03*
X87027460Y-39201880D03*
X86777460Y-31001880D03*
X86527460Y-39201880D03*
X86277460Y-31001880D03*
X86027460Y-39201880D03*
X85777460Y-31001880D03*
X85527460Y-39201880D03*
X85277460Y-31001880D03*
X85027460Y-39201880D03*
X84777460Y-31001880D03*
X84527460Y-39201880D03*
X84277460Y-31001880D03*
X84027460Y-39201880D03*
X83777460Y-31001880D03*
X83527460Y-39201880D03*
X83277460Y-31001880D03*
X83027460Y-39201880D03*
X82777460Y-31001880D03*
X82527460Y-39201880D03*
X82277460Y-31001880D03*
X82027460Y-39201880D03*
X81777460Y-31001880D03*
X81527460Y-39201880D03*
X81277460Y-31001880D03*
X81027460Y-39201880D03*
X80777460Y-31001880D03*
X80527460Y-39201880D03*
X80277460Y-31001880D03*
X80027460Y-39201880D03*
X79777460Y-31001880D03*
X79527460Y-39201880D03*
X79277460Y-31001880D03*
X79027460Y-39201880D03*
X78777460Y-31001880D03*
X78527460Y-39201880D03*
X78277460Y-31001880D03*
X78027460Y-39201880D03*
X77777460Y-31001880D03*
X77527460Y-39201880D03*
X77277460Y-31001880D03*
X77027460Y-39201880D03*
X76777460Y-31001880D03*
X76527460Y-39201880D03*
X76277460Y-31001880D03*
X76027460Y-39201880D03*
X75777460Y-31001880D03*
X75527460Y-39201880D03*
X75277460Y-31001880D03*
X75027460Y-39201880D03*
X74777460Y-31001880D03*
X74527460Y-39201880D03*
X74277460Y-31001880D03*
X74027460Y-39201880D03*
X73777460Y-31001880D03*
X73527460Y-39201880D03*
X73277460Y-31001880D03*
X73027460Y-39201880D03*
X72777460Y-31001880D03*
X72527460Y-39201880D03*
X72277460Y-31001880D03*
X72027460Y-39201880D03*
X71777460Y-31001880D03*
X71527460Y-39201880D03*
X71277460Y-31001880D03*
X71027460Y-39201880D03*
X68777460Y-31001880D03*
X68527460Y-39201880D03*
X68277460Y-31001880D03*
X68027460Y-39201880D03*
X67777460Y-31001880D03*
X67527460Y-39201880D03*
X67277460Y-31001880D03*
X67027460Y-39201880D03*
X66777460Y-31001880D03*
X66527460Y-39201880D03*
X66277460Y-31001880D03*
X66027460Y-39201880D03*
X65777460Y-31001880D03*
X65527460Y-39201880D03*
X65277460Y-31001880D03*
X65027460Y-39201880D03*
X64777460Y-31001880D03*
X64527460Y-39201880D03*
X64277460Y-31001880D03*
X64027460Y-39201880D03*
X63777460Y-31001880D03*
X63527460Y-39201880D03*
X63277460Y-31001880D03*
X63027460Y-39201880D03*
X62777460Y-31001880D03*
X62527460Y-39201880D03*
X62277460Y-31001880D03*
X62027460Y-39201880D03*
X61777460Y-31001880D03*
X61527460Y-39201880D03*
X61277460Y-31001880D03*
X61027460Y-39201880D03*
X60777460Y-31001880D03*
X60527460Y-39201880D03*
X60277460Y-31001880D03*
X60027460Y-39201880D03*
X59777460Y-31001880D03*
X59527460Y-39201880D03*
X59277460Y-31001880D03*
X59027460Y-39201880D03*
X58777460Y-31001880D03*
X58527460Y-39201880D03*
X58277460Y-31001880D03*
X58027460Y-39201880D03*
X57777460Y-31001880D03*
X57527460Y-39201880D03*
X57277460Y-31001880D03*
X57027460Y-39201880D03*
X56777460Y-31001880D03*
X56527460Y-39201880D03*
X56277460Y-31001880D03*
X56027460Y-39201880D03*
X55777460Y-31001880D03*
X55527460Y-39201880D03*
X55277460Y-31001880D03*
X55027460Y-39201880D03*
X54777460Y-31001880D03*
X54527460Y-39201880D03*
X54277460Y-31001880D03*
X54027460Y-39201880D03*
X53777460Y-31001880D03*
X53527460Y-39201880D03*
X53277460Y-31001880D03*
X53027460Y-39201880D03*
X52777460Y-31001880D03*
X52527460Y-39201880D03*
X52277460Y-31001880D03*
X52027460Y-39201880D03*
X51777460Y-31001880D03*
X51527460Y-39201880D03*
X51277460Y-31001880D03*
X51027460Y-39201880D03*
X50777460Y-31001880D03*
X50527460Y-39201880D03*
X50277460Y-31001880D03*
X50027460Y-39201880D03*
X49777460Y-31001880D03*
X49527460Y-39201880D03*
X49277460Y-31001880D03*
X49027460Y-39201880D03*
X48777460Y-31001880D03*
X48527460Y-39201880D03*
X48277460Y-31001880D03*
X48027460Y-39201880D03*
X47777460Y-31001880D03*
X47527460Y-39201880D03*
X47277460Y-31001880D03*
X47027460Y-39201880D03*
X46777460Y-31001880D03*
X46527460Y-39201880D03*
X46277460Y-31001880D03*
X46027460Y-39201880D03*
X45777460Y-31001880D03*
X45527460Y-39201880D03*
X45277460Y-31001880D03*
X45027460Y-39201880D03*
X44777460Y-31001880D03*
X44527460Y-39201880D03*
X44277460Y-31001880D03*
X44027460Y-39201880D03*
X43777460Y-31001880D03*
X43527460Y-39201880D03*
X43277460Y-31001880D03*
X43027460Y-39201880D03*
X42777460Y-31001880D03*
X42527460Y-39201880D03*
X42277460Y-31001880D03*
X42027460Y-39201880D03*
X41777460Y-31001880D03*
X41527460Y-39201880D03*
X41277460Y-31001880D03*
X41027460Y-39201880D03*
X40777460Y-31001880D03*
X40527460Y-39201880D03*
X40277460Y-31001880D03*
X40027460Y-39201880D03*
D72*
X107202460Y-47101880D03*
X39602460Y-47101880D03*
D73*
X126235460Y-30053280D03*
X126235460Y-38943280D03*
D61*
X128902460Y-93019880D03*
X127252460Y-93019880D03*
D74*
X137259060Y-51314080D03*
X137259060Y-52964080D03*
D61*
X121916460Y-93527880D03*
X120266460Y-93527880D03*
D74*
X137259060Y-48012080D03*
X137259060Y-49662080D03*
X135227060Y-48012080D03*
X135227060Y-49662080D03*
D70*
X127252460Y-90987880D03*
X128902460Y-90987880D03*
X114044460Y-91495880D03*
X115694460Y-91495880D03*
D74*
X112392460Y-98607880D03*
X112392460Y-100257880D03*
X112392460Y-101783880D03*
X112392460Y-103433880D03*
D70*
X-11114540Y-81081880D03*
X-9464540Y-81081880D03*
D75*
X-9019540Y-77779880D03*
X-9019540Y-76129880D03*
D61*
X-9401540Y-79303880D03*
X-11051540Y-79303880D03*
D74*
X-10797540Y-76255880D03*
X-10797540Y-77905880D03*
D70*
X33272460Y-83367880D03*
X34922460Y-83367880D03*
D75*
X24000460Y-82223880D03*
X24000460Y-80573880D03*
D70*
X62608460Y-4373880D03*
X64258460Y-4373880D03*
D61*
X102866460Y-3611880D03*
X101216460Y-3611880D03*
D74*
X133449060Y-52176680D03*
X133449060Y-53826680D03*
D75*
X131823460Y-53827680D03*
X131823460Y-52177680D03*
D70*
X-4053340Y-49331880D03*
X-2403340Y-49331880D03*
D61*
X-2531340Y-47553880D03*
X-4181340Y-47553880D03*
D75*
X71193660Y-116145580D03*
X71193660Y-114495580D03*
D61*
X64207660Y-120083580D03*
X62557660Y-120083580D03*
X63191660Y-112971580D03*
X61541660Y-112971580D03*
D74*
X58747660Y-115639580D03*
X58747660Y-117289580D03*
D61*
X58365660Y-111193580D03*
X56715660Y-111193580D03*
X56841660Y-101795580D03*
X55191660Y-101795580D03*
X53539660Y-114241580D03*
X51889660Y-114241580D03*
X53488860Y-110863380D03*
X51838860Y-110863380D03*
X52917360Y-119385080D03*
X51267360Y-119385080D03*
D74*
X53413660Y-101669580D03*
X53413660Y-103319580D03*
X51635660Y-115893580D03*
X51635660Y-117543580D03*
D61*
X13966460Y-68381880D03*
X12316460Y-68381880D03*
X17268460Y-66349880D03*
X15618460Y-66349880D03*
D76*
X90886460Y-19293880D03*
X90886460Y-18343880D03*
X90886460Y-17393880D03*
X88686460Y-17393880D03*
X88686460Y-19293880D03*
D16*
X134122460Y-29576880D03*
X134122460Y-31126880D03*
D65*
X42276360Y-28973780D03*
X40726360Y-28973780D03*
D40*
X40612060Y-27119580D03*
X42512060Y-27119580D03*
D64*
X46745860Y-52887880D03*
X48295860Y-52887880D03*
D68*
X48747660Y-107129580D03*
X43347660Y-107129580D03*
D70*
X69423780Y-41386760D03*
X71073780Y-41386760D03*
D75*
X50797460Y-51896280D03*
X50797460Y-50246280D03*
X49159160Y-51032680D03*
X49159160Y-49382680D03*
D74*
X135227060Y-51440080D03*
X135227060Y-53090080D03*
D76*
X45009160Y-52311380D03*
X45009160Y-51361380D03*
X45009160Y-50411380D03*
X42809160Y-50411380D03*
X42809160Y-52311380D03*
D64*
X112646460Y-93019880D03*
X114196460Y-93019880D03*
D75*
X71447660Y-104715580D03*
X71447660Y-103065580D03*
D61*
X66493660Y-101033580D03*
X64843660Y-101033580D03*
D74*
X58747660Y-104081580D03*
X58747660Y-105731580D03*
D61*
X63191660Y-101033580D03*
X61541660Y-101033580D03*
X64715660Y-108653580D03*
X63065660Y-108653580D03*
D34*
X54953660Y-103639580D03*
X54953660Y-105539580D03*
X56953660Y-104589580D03*
X66637660Y-108719580D03*
X66637660Y-110619580D03*
X68637660Y-109669580D03*
D66*
X68145660Y-102049580D03*
X68145660Y-100499580D03*
D20*
X69720660Y-103827580D03*
X68145660Y-103827580D03*
D77*
X58788300Y-107523280D03*
X56913300Y-107523280D03*
D25*
X56969660Y-109415580D03*
X58544660Y-109415580D03*
D21*
X68145660Y-105351580D03*
X68145660Y-106926580D03*
D32*
X83521960Y-113657380D03*
X79921960Y-113657380D03*
D42*
X66019660Y-106748580D03*
X66019660Y-105478580D03*
X66019660Y-104208580D03*
X66019660Y-102938580D03*
X60619660Y-102938580D03*
X60619660Y-104208580D03*
X60619660Y-105478580D03*
X60619660Y-106748580D03*
D22*
X69923660Y-106926580D03*
X69923660Y-105351580D03*
D78*
X25131460Y-50893380D03*
X24631460Y-50893380D03*
X24131460Y-50893380D03*
X23631460Y-50893380D03*
X23631460Y-53993380D03*
X24131460Y-53993380D03*
X24631460Y-53993380D03*
X25131460Y-53993380D03*
D26*
X92044560Y-118864380D03*
X90144560Y-118864380D03*
D25*
X90553440Y-120705880D03*
X92128440Y-120705880D03*
D79*
X4378960Y-19740880D03*
X4378960Y-17200880D03*
X4378960Y-14660880D03*
X4378960Y-12120880D03*
X-8702040Y-12120880D03*
X-8702040Y-14660880D03*
X-8702040Y-17200880D03*
X-8702040Y-19740880D03*
D40*
X81340960Y-15232380D03*
X83240960Y-15232380D03*
D25*
X121028460Y-2849880D03*
X122603460Y-2849880D03*
D53*
X145082460Y-12901880D03*
X145082460Y-9301880D03*
D66*
X126108460Y-102951880D03*
X126108460Y-101401880D03*
D25*
X112651440Y-97030540D03*
X114226440Y-97030540D03*
D61*
X54809660Y-120845580D03*
X53159660Y-120845580D03*
X66367660Y-112971580D03*
X64717660Y-112971580D03*
D70*
X113206260Y-77043280D03*
X114856260Y-77043280D03*
X112354360Y-78833980D03*
X114004360Y-78833980D03*
D80*
X149155060Y-31685180D03*
X144305060Y-37235180D03*
X144305060Y-31685180D03*
X149155060Y-37235180D03*
D81*
X137580060Y-31060180D03*
X137580060Y-32760180D03*
X137580060Y-34460180D03*
X137580060Y-36160180D03*
X137580060Y-37860180D03*
D40*
X48981360Y-27144980D03*
X50881360Y-27144980D03*
D65*
X50530760Y-28948380D03*
X48980760Y-28948380D03*
D61*
X103022460Y-97171880D03*
X104672460Y-97171880D03*
D70*
X15580860Y-121467880D03*
X17230860Y-121467880D03*
X15466060Y-100944680D03*
X17116060Y-100944680D03*
X16050260Y-115422680D03*
X17700260Y-115422680D03*
D82*
X150203460Y-46513480D03*
X146853460Y-43463480D03*
X146853460Y-46513480D03*
X150203460Y-43463480D03*
D83*
X142228460Y-42708480D03*
X142228460Y-44988480D03*
X142228460Y-47268480D03*
D84*
X-6073140Y-41813480D03*
X-5082540Y-41813480D03*
X-4066540Y-41813480D03*
X-3075940Y-41813480D03*
X-2059940Y-41813480D03*
X-1069340Y-41813480D03*
X-78740Y-41813480D03*
X911860Y-41813480D03*
X1927860Y-41813480D03*
X2918460Y-41813480D03*
X3909060Y-41813480D03*
X4925060Y-41813480D03*
X5915660Y-41813480D03*
X6906260Y-41813480D03*
X7922260Y-41813480D03*
X8912860Y-41813480D03*
X9903460Y-41813480D03*
X10919460Y-41813480D03*
X11910060Y-41813480D03*
X12900660Y-41813480D03*
X13916660Y-41813480D03*
X14907260Y-41813480D03*
X15923260Y-41813480D03*
X16913860Y-41813480D03*
D85*
X19809460Y-38689280D03*
X-8975882Y-38695630D03*
D75*
X71473060Y-59668680D03*
X71473060Y-58018680D03*
D86*
X77766460Y-49891880D03*
X77116460Y-49891880D03*
X76466460Y-49891880D03*
X75816460Y-49891880D03*
X75166460Y-49891880D03*
X74516460Y-49891880D03*
X73866460Y-49891880D03*
X73866460Y-55631880D03*
X74516460Y-55631880D03*
X75166460Y-55631880D03*
X75816460Y-55631880D03*
X76466460Y-55631880D03*
X77116460Y-55631880D03*
X77766460Y-55631880D03*
D70*
X15543260Y-95813880D03*
X17193260Y-95813880D03*
D64*
X79549660Y-55758080D03*
X81099660Y-55758080D03*
D75*
X73149460Y-59668680D03*
X73149460Y-58018680D03*
D64*
X72565260Y-47934880D03*
X74115260Y-47934880D03*
D61*
X110442460Y-122031880D03*
X112092460Y-122031880D03*
M02*
