M48
;DRILL file {Pcbnew (2013-07-07 BZR 4022)-stable} date 14/05/2014 09:54:40
;FORMAT={-:-/ absolute / inch / decimal}
FMAT,2
INCH,TZ
T1C0.008
T2C0.012
T3C0.015
T4C0.024
T5C0.024
T6C0.025
T7C0.028
T8C0.030
T9C0.031
T10C0.032
T11C0.037
T12C0.039
T13C0.040
T14C0.045
T15C0.047
T16C0.059
T17C0.071
T18C0.094
%
G90
G05
M72
T1
X0.016Y5.043
X0.0597Y4.9997
X0.065Y5.084
X0.118Y4.9665
X0.119Y5.0295
X0.218Y4.9665
X0.218Y5.0295
X0.318Y4.9665
X0.318Y5.0295
X0.418Y4.9665
X0.418Y5.03
X0.492Y4.9665
X0.518Y5.0295
X0.554Y4.904
X0.599Y4.949
X0.66Y5.849
X0.706Y5.805
X0.7192Y5.9078
X0.7598Y5.8592
X0.7945Y5.9835
X0.821Y5.9205
X0.92Y5.9205
X0.92Y5.9835
X1.02Y5.9205
X1.02Y5.9835
X1.12Y5.9205
X1.12Y5.9835
X1.22Y5.9205
X1.22Y5.9835
X1.32Y5.9205
X1.32Y5.9835
X1.42Y5.9205
X1.42Y5.9835
X1.519Y5.9205
X1.52Y5.9835
X1.62Y5.9205
X1.62Y5.9835
X1.717Y5.9205
X1.72Y5.9835
X1.819Y5.9205
X1.82Y5.9835
X1.92Y5.9205
X1.92Y5.9835
X2.02Y5.9205
X2.02Y5.9835
X2.12Y5.9205
X2.12Y5.9835
X2.219Y5.9205
X2.22Y5.9835
X2.32Y5.9205
X2.32Y5.9835
X2.42Y5.9205
X2.42Y5.9835
X2.52Y5.9205
X2.52Y5.9835
X2.62Y5.9205
X2.62Y5.9835
X2.72Y5.9205
X2.72Y5.9835
X2.749Y4.507
X2.806Y3.163
X2.82Y5.9205
X2.82Y5.9835
X2.848Y3.2685
X2.85Y3.163
X2.855Y4.507
X2.879Y3.2385
X2.885Y3.163
X2.885Y4.443
X2.92Y5.9205
X2.92Y5.9835
X2.9251Y3.3455
X2.929Y3.163
X2.9343Y3.2297
X2.9429Y3.3025
X2.9555Y4.4434
X2.9555Y4.5064
X2.9665Y3.201
X2.9861Y3.2815
X3.0039Y3.2385
X3.02Y5.9205
X3.02Y5.9835
X3.0555Y4.4434
X3.0555Y4.5064
X3.059Y5.634
X3.1035Y3.3025
X3.104Y3.2385
X3.104Y3.2815
X3.1055Y3.3455
X3.12Y5.9205
X3.12Y5.9835
X3.13Y5.698
X3.1555Y4.5064
X3.1905Y5.634
X3.2025Y3.3025
X3.2035Y3.3455
X3.204Y3.2385
X3.204Y3.2815
X3.2155Y5.698
X3.22Y5.9205
X3.22Y5.9835
X3.261Y5.563
X3.298Y3.3455
X3.304Y3.2385
X3.304Y3.2815
X3.305Y3.3025
X3.3053Y5.6083
X3.32Y5.9205
X3.32Y5.9835
X3.3272Y5.4972
X3.3278Y3.3602
X3.3302Y4.3142
X3.3607Y3.3323
X3.367Y4.274
X3.376Y3.3125
X3.3763Y5.5373
X3.3785Y4.355
X3.3908Y3.4232
X3.3977Y5.4267
X3.4055Y3.281
X3.42Y5.9205
X3.42Y5.9835
X3.424Y3.3955
X3.431Y4.274
X3.442Y3.3785
X3.4463Y5.4673
X3.4585Y3.491
X3.464Y4.274
X3.464Y5.26
X3.4642Y5.3602
X3.4645Y4.3785
X3.4645Y4.481
X3.4645Y4.5865
X3.4645Y4.753
X3.4645Y4.853
X3.4645Y4.953
X3.4645Y5.053
X3.4645Y5.153
X3.468Y3.3435
X3.4865Y3.458
X3.5048Y3.4412
X3.519Y5.9205
X3.52Y5.9835
X3.5275Y4.3785
X3.5275Y4.481
X3.5275Y4.5865
X3.5275Y4.753
X3.5275Y4.853
X3.5275Y4.953
X3.5275Y5.053
X3.5275Y5.153
X3.5275Y5.259
X3.5275Y5.385
X3.528Y4.274
X3.5342Y3.4098
X3.555Y3.5874
X3.555Y3.684
X3.555Y3.845
X3.555Y4.085
X3.555Y4.185
X3.555Y4.385
X3.5555Y3.7845
X3.5555Y4.285
X3.587Y3.5235
X3.5985Y3.5701
X3.5985Y3.684
X3.5985Y3.784
X3.5985Y4.185
X3.5985Y4.285
X3.5985Y4.3781
X3.599Y3.845
X3.599Y4.085
X3.6142Y3.4898
X3.6185Y3.684
X3.619Y3.584
X3.619Y3.784
X3.619Y3.845
X3.62Y5.9835
X3.621Y5.9205
X3.6346Y4.475
X3.643Y4.085
X3.643Y4.185
X3.643Y4.285
X3.643Y4.3618
X3.6524Y4.432
X3.6625Y3.584
X3.6625Y3.684
X3.6625Y3.784
X3.663Y3.845
X3.72Y5.9205
X3.72Y5.9835
X3.82Y5.9205
X3.82Y5.9835
X3.886Y4.389
X3.886Y4.432
X3.886Y4.475
X3.92Y5.9205
X3.92Y5.9835
X3.948Y4.475
X3.9664Y4.432
X3.9782Y5.8992
X3.986Y4.389
X3.991Y4.518
X4.0203Y5.9463
X4.022Y4.487
X4.0382Y5.8392
X4.0462Y4.4338
X4.0913Y5.8753
X4.1Y4.487
X4.1107Y5.7667
X4.1608Y5.8058
X4.2198Y5.6576
X4.24Y5.4595
X4.24Y5.537
X4.24Y5.637
X4.2455Y5.721
X4.2862Y5.4132
X4.3035Y5.537
X4.304Y5.4845
X4.304Y5.637
X4.3325Y5.1985
X4.3325Y5.274
X4.3325Y5.367
X4.35Y5.657
X4.35Y5.721
X4.3513Y5.4373
X4.392Y5.139
X4.3955Y5.225
X4.3955Y5.304
X4.3955Y5.393
X4.454Y5.167
T2
X2.394Y4.3365
X2.461Y4.3365
X4.1366Y0.1665
X4.1366Y0.3155
X4.1366Y0.4665
X4.1925Y0.235
X4.1925Y0.275
X4.1925Y0.315
X4.1925Y0.355
X4.1925Y0.395
X4.2325Y0.235
X4.2325Y0.275
X4.2325Y0.315
X4.2325Y0.355
X4.2325Y0.395
X4.2725Y0.1645
X4.2725Y0.235
X4.2725Y0.275
X4.2725Y0.315
X4.2725Y0.355
X4.2725Y0.395
X4.274Y0.4645
X4.3125Y0.235
X4.3125Y0.275
X4.3125Y0.315
X4.3125Y0.355
X4.3125Y0.395
X4.3525Y0.235
X4.3525Y0.275
X4.3525Y0.315
X4.3525Y0.355
X4.3525Y0.395
X4.4116Y0.1665
X4.4116Y0.3155
X4.4116Y0.4665
X4.4366Y0.9615
X4.4366Y1.0615
X4.5366Y0.9615
X4.5366Y1.0615
X4.5366Y1.3615
X4.5366Y1.4615
X4.6366Y0.9615
X4.6366Y1.3615
X4.6366Y1.4615
X4.7366Y1.1615
X4.7366Y1.2615
X4.7366Y1.3615
X4.7366Y1.4615
X4.7866Y0.9615
X4.8065Y1.2815
X4.8065Y1.3215
X4.8065Y1.3615
X4.8065Y1.4015
X4.8065Y1.4415
X4.8398Y3.7174
X4.8398Y3.7974
X4.8398Y3.8774
X4.8398Y3.9574
X4.8398Y4.0374
X4.8465Y1.2815
X4.8465Y1.3215
X4.8465Y1.4015
X4.8465Y1.4415
X4.8466Y1.3615
X4.8798Y3.8774
X4.8865Y1.2815
X4.8865Y1.3215
X4.8865Y1.4015
X4.8865Y1.4415
X4.8866Y0.9615
X4.8866Y1.0615
X4.8866Y1.1615
X4.8866Y1.3615
X4.8866Y1.4965
X4.9195Y3.7975
X4.9195Y3.8375
X4.9195Y3.8775
X4.9195Y3.9175
X4.9195Y3.9575
X4.9198Y3.7174
X4.9198Y4.0374
X4.9265Y1.2815
X4.9265Y1.3215
X4.9265Y1.4015
X4.9265Y1.4415
X4.9266Y1.3615
X4.9595Y3.7975
X4.9595Y3.8375
X4.9595Y3.8775
X4.9595Y3.9175
X4.9595Y3.9575
X4.9665Y1.2815
X4.9665Y1.3215
X4.9665Y1.3615
X4.9665Y1.4015
X4.9665Y1.4415
X4.9866Y1.1615
X4.9995Y3.7975
X4.9995Y3.8375
X4.9995Y3.9175
X4.9995Y3.9575
X4.9998Y3.7174
X4.9998Y4.0374
X4.9998Y3.8774
X5.0395Y3.7975
X5.0395Y3.8375
X5.0395Y3.8775
X5.0395Y3.9175
X5.0395Y3.9575
X5.0795Y3.7975
X5.0795Y3.8375
X5.0795Y3.8775
X5.0795Y3.9175
X5.0795Y3.9575
X5.0798Y3.7174
X5.0798Y4.0374
X5.0865Y1.3615
X5.0866Y0.9615
X5.0866Y1.1615
X5.0866Y1.2615
X5.0866Y1.4615
X5.1598Y3.7174
X5.1598Y3.7974
X5.1598Y3.8774
X5.1598Y3.9574
X5.1598Y4.0374
X5.1866Y1.1615
X5.1866Y1.2615
X5.1866Y1.3615
X5.1866Y1.4615
X5.1866Y1.5615
X5.2866Y1.3615
X5.2866Y1.4615
T3
X0.153Y1.4907
X0.2322Y1.4907
X0.384Y1.4907
X0.4048Y1.2895
X0.475Y1.2895
X0.837Y1.3195
X0.837Y1.4425
X0.8481Y0.0514
X0.86Y0.6605
X0.887Y1.8565
X0.8915Y0.524
X0.892Y0.7735
X0.912Y1.8785
X0.9255Y1.7655
X0.938Y1.8565
X0.9545Y1.6615
X0.9545Y1.723
X0.984Y1.5455
X0.985Y1.6475
X0.986Y1.698
X1.012Y1.8065
X1.023Y1.7315
X1.088Y0.4975
X1.113Y4.043
X1.1132Y3.9567
X1.1132Y4.0001
X1.117Y1.3195
X1.117Y1.4495
X1.122Y0.4975
X1.127Y1.2125
X1.131Y1.799
X1.192Y0.5675
X1.212Y0.6035
X1.2195Y1.3195
X1.2497Y0.0514
X1.269Y0.554
X1.307Y1.23
X1.307Y1.304
X1.3115Y1.7475
X1.335Y1.724
X1.348Y0.3845
X1.3585Y1.7
X1.3835Y1.6755
X1.403Y0.384
X1.408Y1.6505
X1.4305Y1.6255
X1.4835Y0.9345
X1.484Y0.7835
X1.5064Y2.0195
X1.533Y0.884
X1.6175Y0.789
X1.7125Y0.9181
X1.7125Y1.0289
X1.781Y2.0195
X1.922Y0.797
X1.922Y0.879
X2.0726Y0.7007
X2.0728Y0.7839
X2.279Y5.716
X2.423Y5.616
X2.638Y2.225
X2.668Y1.5795
X2.67Y0.7975
X2.67Y0.8963
X2.67Y1.1535
X2.7031Y1.1534
X2.7031Y1.5794
X2.7316Y1.2255
X2.7362Y1.5793
X2.7488Y0.7974
X2.7488Y0.8961
X2.749Y3.157
X2.7679Y1.2254
X2.7693Y1.5793
X2.8024Y1.5791
X2.8043Y1.2253
X2.8296Y0.7975
X2.8298Y0.8961
X2.837Y2.225
X2.852Y4.059
X2.896Y4.016
X2.986Y2.882
X2.986Y2.971
X2.992Y4.016
X3.025Y2.882
X3.025Y2.971
X3.088Y4.016
X3.122Y4.399
X3.184Y4.016
X3.192Y4.401
X3.216Y4.378
X3.2415Y4.3565
X3.26Y4.537
X3.265Y4.333
X3.287Y4.496
X3.2875Y4.3085
X3.296Y4.636
X3.311Y4.473
X3.334Y4.449
X3.334Y4.708
X3.3476Y0.5369
X3.3575Y4.4255
X3.38Y4.401
X3.424Y0.4611
X3.576Y4.636
X3.712Y4.337
X3.712Y4.527
X3.811Y4.342
X3.811Y4.527
X3.887Y1.8645
X3.9155Y1.8815
X3.9445Y1.864
X4.013Y1.7435
X4.015Y1.805
X4.04Y4.118
X4.04Y4.16
X4.1132Y3.9567
X4.1132Y3.9999
X4.1132Y4.0433
X4.13Y1.8025
X4.159Y1.5445
X4.352Y5.
X4.397Y5.109
X4.532Y5.001
X4.628Y5.109
X5.458Y4.984
X5.475Y5.887
T4
X0.5017Y2.1499
X0.5804Y2.1499
X1.28Y5.3486
X1.28Y5.4274
X1.2835Y4.6986
X1.2835Y4.7774
X2.03Y4.9746
X2.03Y5.0534
X2.1609Y0.1321
X2.2397Y0.1321
X2.703Y4.3961
X2.703Y4.4749
X2.9086Y5.666
X2.968Y0.3756
X2.968Y0.4544
X2.9874Y5.666
X2.9916Y4.858
X3.0704Y4.858
X3.5056Y2.1538
X3.5843Y2.1538
X3.7486Y0.729
X3.78Y5.1406
X3.78Y5.2194
X3.8274Y0.729
X3.9989Y0.3406
X3.9989Y0.4194
X4.092Y5.1406
X4.092Y5.2194
X4.1724Y2.9488
X4.2512Y2.9488
X4.588Y1.2037
X4.588Y1.2825
T5
X1.5128Y3.8348
X1.5128Y4.1347
X1.81Y3.836
X1.81Y4.136
X2.11Y3.836
X2.11Y4.136
X2.408Y3.838
X2.408Y4.138
T6
X0.031Y5.073
X0.3972Y2.2559
X0.3986Y2.1663
X0.403Y0.483
X0.497Y0.4825
X0.533Y1.061
X0.534Y0.7995
X0.5872Y1.2411
X0.7225Y1.595
X0.7408Y1.2417
X0.79Y0.8845
X0.7985Y1.0355
X0.859Y1.194
X0.937Y2.7185
X0.969Y4.905
X0.97Y5.065
X0.9705Y0.6605
X0.986Y0.4975
X0.9915Y0.9285
X1.044Y0.4975
X1.068Y1.005
X1.109Y2.8755
X1.1385Y0.7795
X1.153Y2.7095
X1.17Y1.5365
X1.198Y1.135
X1.216Y1.0875
X1.245Y0.675
X1.3518Y3.9565
X1.378Y4.9245
X1.378Y5.074
X1.405Y5.214
X1.4086Y2.9983
X1.409Y2.876
X1.414Y3.9575
X1.421Y0.878
X1.429Y0.9955
X1.534Y5.356
X1.5475Y1.8
X1.574Y3.757
X1.757Y4.576
X1.77Y5.294
X1.868Y2.1043
X1.868Y2.178
X1.871Y4.371
X1.875Y3.756
X1.875Y5.638
X1.885Y0.422
X1.925Y3.89
X1.958Y5.215
X1.958Y5.315
X2.017Y4.371
X2.059Y5.589
X2.085Y0.3475
X2.11Y5.49
X2.1705Y3.7515
X2.196Y2.1155
X2.218Y5.816
X2.221Y3.89
X2.269Y5.386
X2.269Y5.49
X2.335Y0.36
X2.3555Y0.1575
X2.47Y3.75
X2.513Y5.182
X2.52Y3.89
X2.553Y5.515
X2.573Y0.4705
X2.628Y2.178
X2.633Y2.334
X2.715Y3.759
X2.803Y2.334
X2.842Y2.177
X2.844Y4.302
X2.857Y3.759
X2.923Y4.912
X2.999Y3.759
X3.085Y5.816
X3.141Y3.759
X3.229Y3.772
X3.348Y3.96
X3.416Y3.8295
X3.4735Y1.188
X3.488Y3.96
X3.561Y5.649
X3.613Y4.708
X3.641Y5.562
X3.67Y5.649
X3.703Y1.1135
X3.723Y1.5943
X3.7955Y4.1785
X3.8492Y3.1513
X3.858Y5.623
X3.91Y4.783
X3.9158Y3.0393
X3.935Y4.164
X3.9402Y2.8937
X3.942Y2.7175
X3.9491Y0.5765
X4.0798Y3.0393
X4.081Y3.822
X4.1266Y0.599
X4.157Y2.7115
X4.1841Y0.514
X4.231Y3.9587
X4.2416Y0.599
X4.272Y5.618
X4.318Y4.73
X4.502Y2.0077
X4.5575Y1.805
X4.7864Y2.0081
X4.8692Y2.0937
X4.8694Y2.1747
X5.165Y2.701
X5.194Y2.1205
X5.265Y2.541
X5.265Y2.621
X5.265Y2.701
X5.265Y2.781
X5.265Y2.861
X5.365Y2.701
X5.445Y2.701
T7
X1.8442Y0.961
X1.8442Y1.0397
X1.8442Y3.0397
X1.8442Y3.1184
X1.9229Y0.961
X1.9229Y1.0397
X1.9229Y3.0397
X1.9229Y3.1184
X2.0017Y0.961
X2.0017Y1.0397
X2.0017Y3.0397
X2.0017Y3.1184
X2.0804Y0.961
X2.0804Y1.0397
X2.0804Y3.0397
X2.0804Y3.1184
X2.1591Y0.961
X2.1591Y1.0397
X2.1591Y3.0397
X2.1591Y3.1184
X2.2379Y0.961
X2.2379Y1.0397
X2.2379Y3.0397
X2.2379Y3.1184
X2.3166Y0.961
X2.3166Y1.0397
X2.3166Y3.0397
X2.3166Y3.1184
X2.3954Y0.961
X2.3954Y1.0397
X2.3954Y3.0397
X2.3954Y3.1184
X2.4741Y0.961
X2.4741Y1.0397
X2.4741Y3.0397
X2.4741Y3.1184
X2.5528Y0.961
X2.5528Y1.0397
X2.5528Y3.0397
X2.5528Y3.1184
X2.6316Y0.961
X2.6316Y1.0397
X2.6316Y3.0397
X2.6316Y3.1184
X2.7103Y0.961
X2.7103Y1.0397
X2.7103Y3.0397
X2.7103Y3.1184
X2.7891Y0.961
X2.7891Y1.0397
X2.7891Y3.0397
X2.7891Y3.1184
X2.8678Y0.961
X2.8678Y1.0397
X2.8678Y3.0397
X2.8678Y3.1184
X2.9466Y0.961
X2.9466Y1.0397
X2.9466Y3.0397
X2.9466Y3.1184
X2.9631Y4.56
X3.0253Y0.961
X3.0253Y1.0397
X3.0253Y3.0397
X3.0253Y3.1184
X3.0381Y5.393
X3.1009Y4.56
X3.104Y0.961
X3.104Y1.0397
X3.104Y3.0397
X3.104Y3.1184
X3.1759Y5.393
X3.1828Y0.961
X3.1828Y1.0397
X3.1828Y3.0397
X3.1828Y3.1184
X3.2615Y0.961
X3.2615Y1.0397
X3.2615Y3.0397
X3.2615Y3.1184
X3.3403Y0.961
X3.3403Y1.0397
X3.3403Y3.0397
X3.3403Y3.1184
X3.419Y0.961
X3.419Y1.0397
X3.419Y3.0397
X3.419Y3.1184
X3.4977Y0.961
X3.4977Y1.0397
X3.4977Y3.0397
X3.4977Y3.1184
X3.5765Y0.961
X3.5765Y1.0397
X3.5765Y3.0397
X3.5765Y3.1184
X3.6552Y0.961
X3.6552Y1.0397
X3.6552Y3.0397
X3.6552Y3.1184
X4.0921Y4.194
X4.2299Y4.194
X4.3961Y3.863
X4.4301Y4.194
X4.4366Y0.8955
X4.5339Y3.863
X4.5679Y4.194
X4.584Y0.4356
X4.584Y0.5734
X4.6334Y0.8955
X4.8247Y0.844
X5.3358Y1.0896
X5.3358Y1.6802
X5.3659Y3.178
X5.3659Y3.7685
X5.4153Y0.844
T8
X4.386Y5.5159
X4.386Y5.6025
X4.386Y5.6891
X4.386Y5.8151
X4.387Y4.6444
X4.387Y4.731
X4.387Y4.8176
X4.387Y4.9436
X4.586Y5.5159
X4.586Y5.6025
X4.586Y5.6891
X4.586Y5.8151
X4.587Y4.6444
X4.587Y4.731
X4.587Y4.8176
X4.587Y4.9436
X4.9075Y0.844
X5.3012Y0.844
X5.3358Y1.1724
X5.3358Y1.5661
X5.3659Y3.262
X5.3659Y3.6557
T9
X1.371Y4.476
X1.421Y4.426
X1.421Y4.526
X1.551Y4.476
X1.601Y4.426
X1.601Y4.526
X2.0085Y4.256
X2.0585Y4.306
X2.1085Y4.256
X2.305Y4.4005
X2.355Y4.3505
X2.355Y4.4505
X2.4775Y4.4005
X2.5275Y4.3505
X2.5275Y4.4505
T10
X0.853Y5.436
X0.8535Y4.7835
X0.854Y4.676
X0.854Y5.338
X0.98Y5.24
X0.9835Y4.4185
X0.9835Y4.531
X1.092Y5.544
X1.092Y5.642
X1.153Y5.436
X1.1535Y4.7835
X1.154Y4.676
X1.154Y5.338
X1.211Y4.306
X1.28Y5.24
X1.2835Y4.4185
X1.2835Y4.531
X1.392Y5.544
X1.392Y5.642
X1.46Y5.71
X1.511Y4.306
X1.557Y4.679
X1.6085Y4.306
X1.6127Y3.8348
X1.6127Y4.1347
X1.6585Y4.6785
X1.7107Y3.8348
X1.7107Y4.1347
X1.758Y5.522
X1.76Y5.71
X1.76Y5.782
X1.842Y5.034
X1.842Y5.334
X1.9085Y4.306
X1.912Y3.835
X1.912Y4.135
X1.9585Y4.6785
X2.01Y3.835
X2.01Y4.135
X2.04Y5.189
X2.058Y5.522
X2.06Y5.782
X2.091Y4.391
X2.091Y4.691
X2.138Y5.097
X2.138Y5.195
X2.138Y5.293
X2.14Y4.835
X2.14Y4.933
X2.2035Y4.391
X2.2035Y4.691
X2.21Y3.836
X2.21Y4.136
X2.283Y4.2455
X2.3075Y3.837
X2.3075Y4.137
X2.438Y5.097
X2.438Y5.195
X2.438Y5.293
X2.44Y4.835
X2.44Y4.933
X2.468Y5.666
X2.508Y3.838
X2.508Y4.138
X2.509Y4.919
X2.509Y5.244
X2.583Y4.2455
X2.606Y3.838
X2.606Y4.138
X2.768Y5.666
X2.809Y4.919
X2.809Y5.244
X2.881Y5.088
X2.881Y5.186
X3.181Y5.088
X3.181Y5.186
X3.183Y4.708
X3.183Y5.008
X3.324Y3.5295
X3.324Y3.8295
X3.566Y5.796
X3.704Y4.732
X3.704Y5.032
X3.796Y4.732
X3.796Y5.032
X3.866Y0.1555
X3.866Y5.796
X3.936Y5.03
X3.936Y5.33
X3.936Y5.4
X3.936Y5.7
X4.042Y4.73
X4.042Y5.03
X4.142Y4.73
X4.142Y5.03
X4.248Y5.03
X4.248Y5.33
X4.2865Y1.0175
X4.466Y4.426
X5.0977Y0.0748
X5.1316Y1.084
T11
X0.5017Y0.0751
X0.5017Y1.9255
X0.5804Y1.9255
X0.6591Y1.9255
X0.7379Y1.9255
X0.798Y0.2045
X0.798Y0.3045
X0.8166Y1.9255
X0.8954Y1.9255
X0.898Y0.2045
X0.898Y0.3045
X0.9741Y1.9255
X0.998Y0.2045
X0.998Y0.3045
X1.0528Y1.9255
X1.098Y0.2045
X1.098Y0.3045
X1.1316Y1.9255
X1.198Y0.2045
X1.198Y0.3045
X1.2103Y1.9255
X1.2891Y1.9255
X1.298Y0.2045
X1.298Y0.3045
X1.3678Y1.9255
X1.398Y0.2045
X1.398Y0.3045
X1.4466Y1.9255
X1.498Y0.2045
X1.498Y0.3045
X1.5253Y1.9255
X1.598Y0.2045
X1.598Y0.3045
X1.604Y1.9255
X1.6828Y1.9255
X1.698Y0.2045
X1.698Y0.3045
X1.7615Y1.9255
X1.8403Y1.9255
X1.919Y1.9255
X1.9977Y0.0751
X1.9977Y1.9255
X3.5017Y0.0751
X3.5017Y1.9255
X3.5804Y1.9255
X3.6591Y1.9255
X3.7379Y1.9255
X3.8166Y1.9255
X3.8954Y1.9255
X3.9741Y1.9255
X4.0528Y1.9255
X4.1316Y1.9255
X4.2103Y1.9255
X4.2891Y1.9255
X4.294Y3.2184
X4.294Y3.5136
X4.3678Y1.9255
X4.4466Y1.9255
X4.5253Y1.9255
X4.604Y1.9255
X4.6828Y1.9255
X4.7615Y1.9255
X4.8403Y1.9255
X4.919Y1.9255
X4.938Y3.2184
X4.938Y3.5136
X4.9977Y0.0751
X4.9977Y1.9255
T12
X1.1514Y2.2068
X1.1514Y2.7777
X1.2498Y2.7777
X1.3482Y2.2068
X1.3482Y2.7777
X4.1514Y2.2068
X4.1514Y2.7777
X4.2498Y2.7777
X4.3482Y2.2068
X4.3482Y2.7777
T13
X0.13Y3.45
X0.13Y3.55
X0.13Y3.65
X0.13Y3.75
X2.4Y0.1075
X2.4Y0.2075
X2.5Y0.1075
X2.5Y0.2075
X2.6Y0.1075
X2.6Y0.2075
X2.7Y0.1075
X2.7Y0.2075
X2.8Y0.1075
X2.8Y0.2075
X2.9Y0.1075
X2.9Y0.2075
X3.Y0.1075
X3.Y0.2075
X3.1Y0.1075
X3.1Y0.2075
X3.1475Y0.47
X3.1475Y0.57
X3.1475Y0.67
X3.1475Y0.77
X3.2475Y0.47
X3.2475Y0.57
X3.2475Y0.67
X3.2475Y0.77
X3.297Y4.124
X3.297Y4.224
X3.397Y4.124
X3.397Y4.224
X3.497Y4.124
X3.497Y4.224
X3.942Y4.536
X3.942Y4.636
X4.042Y4.536
X4.042Y4.636
X4.142Y4.536
X4.142Y4.636
X4.242Y4.536
X4.242Y4.636
T14
X1.4449Y0.4225
X1.4449Y0.6785
X1.6221Y0.4225
X1.6221Y0.6785
T15
X5.1666Y2.6223
X5.1666Y2.7797
X5.3634Y2.6223
X5.3634Y2.7797
T16
X0.1297Y4.2333
X0.1297Y4.8723
X0.1297Y5.1333
X0.1297Y5.7723
X0.3797Y4.2333
X0.3797Y4.8723
X0.3797Y5.1333
X0.3797Y5.7723
X0.6297Y4.8723
X0.6297Y5.7723
X0.6312Y4.2333
X0.6312Y5.1333
X4.8382Y4.9198
X4.8382Y5.8198
X4.8397Y4.2808
X4.8397Y5.1808
X5.0897Y4.2808
X5.0897Y4.9198
X5.0897Y5.1808
X5.0897Y5.8198
X5.3397Y4.2808
X5.3397Y4.9198
X5.3397Y5.1808
X5.3397Y5.8198
T17
X5.2418Y0.2247
X5.3977Y0.2247
T18
X0.9899Y2.4825
X1.5095Y2.4825
X3.9899Y2.4825
X4.5095Y2.4825
T0
M30
