G04 (created by PCBNEW (2013-07-07 BZR 4022)-stable) date 14/05/2014 09:54:23*
%MOIN*%
G04 Gerber Fmt 3.4, Leading zero omitted, Abs format*
%FSLAX34Y34*%
G01*
G70*
G90*
G04 APERTURE LIST*
%ADD10C,0.00590551*%
%ADD11C,0.0472441*%
%ADD12R,0.0472441X0.0472441*%
%ADD13C,0.012*%
%ADD14R,0.055X0.055*%
%ADD15R,0.019685X0.0275591*%
%ADD16R,0.0551X0.0236*%
%ADD17R,0.025X0.045*%
%ADD18C,0.055*%
%ADD19R,0.045X0.025*%
%ADD20R,0.02X0.045*%
%ADD21R,0.045X0.02*%
%ADD22R,0.0236X0.0551*%
%ADD23R,0.0394X0.0315*%
%ADD24C,0.0551181*%
%ADD25R,0.056X0.056*%
%ADD26C,0.056*%
%ADD27R,0.0787402X0.212598*%
%ADD28R,0.055X0.035*%
%ADD29R,0.035X0.055*%
%ADD30R,0.06X0.06*%
%ADD31C,0.06*%
%ADD32R,0.11X0.11*%
%ADD33C,0.11*%
%ADD34R,0.0866X0.063*%
%ADD35R,0.063X0.0866*%
%ADD36R,0.0709X0.0866*%
%ADD37R,0.0551181X0.0551181*%
%ADD38C,0.0570866*%
%ADD39R,0.0570866X0.0570866*%
%ADD40R,0.0511811X0.0511811*%
%ADD41R,0.0165X0.0579*%
%ADD42R,0.012X0.02*%
%ADD43R,0.0110236X0.0590551*%
%ADD44R,0.0590551X0.0110236*%
%ADD45C,0.0629921*%
%ADD46C,0.133858*%
%ADD47C,0.12*%
%ADD48R,0.0452756X0.0452756*%
%ADD49C,0.0452756*%
%ADD50R,0.228X0.244*%
%ADD51R,0.063X0.118*%
%ADD52R,0.244X0.228*%
%ADD53R,0.118X0.063*%
%ADD54R,0.027X0.024*%
%ADD55R,0.22X0.083*%
%ADD56C,0.07*%
%ADD57R,0.0315X0.0394*%
%ADD58C,0.0511811*%
%ADD59R,0.0531496X0.0531496*%
%ADD60C,0.0866142*%
%ADD61R,0.0669291X0.0669291*%
%ADD62C,0.0669291*%
%ADD63C,0.035*%
%ADD64C,0.025*%
%ADD65C,0.04*%
%ADD66C,0.02*%
%ADD67C,0.02*%
%ADD68C,0.025*%
%ADD69C,0.06*%
%ADD70C,0.015*%
%ADD71C,0.04*%
%ADD72C,0.012*%
%ADD73C,0.01*%
%ADD74C,0.05*%
%ADD75C,0.03*%
%ADD76C,0.07*%
%ADD77C,0.1*%
%ADD78C,0.08*%
%ADD79C,0.09*%
%ADD80C,0.008*%
%ADD81C,0.035*%
G04 APERTURE END LIST*
G54D10*
G54D11*
X27030Y-43961D03*
G54D12*
X27030Y-44748D03*
G54D13*
X27490Y-45070D03*
G54D14*
X44660Y-44260D03*
G54D15*
X32824Y-39185D03*
X33335Y-39185D03*
X33080Y-39894D03*
X34224Y-39165D03*
X34735Y-39165D03*
X34480Y-39874D03*
G54D16*
X27630Y-50060D03*
X25530Y-50060D03*
X27630Y-50560D03*
X27630Y-51060D03*
X27630Y-51560D03*
X25530Y-50560D03*
X25530Y-51060D03*
X25530Y-51560D03*
G54D17*
X28090Y-48170D03*
X27490Y-48170D03*
X30610Y-50060D03*
X30010Y-50060D03*
X26882Y-53186D03*
X26282Y-53186D03*
X10130Y-50660D03*
X10730Y-50660D03*
X10130Y-49050D03*
X10730Y-49050D03*
X22600Y-50150D03*
X23200Y-50150D03*
X29220Y-49660D03*
X28620Y-49660D03*
G54D18*
X25090Y-52440D03*
X28090Y-52440D03*
X21380Y-52930D03*
X24380Y-52930D03*
X31810Y-51860D03*
X28810Y-51860D03*
X31830Y-47080D03*
X31830Y-50080D03*
X21400Y-49330D03*
X24400Y-49330D03*
X25090Y-49190D03*
X28090Y-49190D03*
X21380Y-51950D03*
X24380Y-51950D03*
X31810Y-50880D03*
X28810Y-50880D03*
X21380Y-50970D03*
X24380Y-50970D03*
X24400Y-48350D03*
X21400Y-48350D03*
G54D11*
X29916Y-48580D03*
G54D12*
X30703Y-48580D03*
G54D11*
X20300Y-49746D03*
G54D12*
X20300Y-50533D03*
G54D18*
X9800Y-52400D03*
X12800Y-52400D03*
G54D11*
X12800Y-54273D03*
G54D12*
X12800Y-53486D03*
G54D18*
X11530Y-54360D03*
X8530Y-54360D03*
X11540Y-53380D03*
X8540Y-53380D03*
X17580Y-55220D03*
X20580Y-55220D03*
X13920Y-56420D03*
X10920Y-56420D03*
X17600Y-57820D03*
X20600Y-57820D03*
X17600Y-57100D03*
X14600Y-57100D03*
X18420Y-53340D03*
X18420Y-50340D03*
X13920Y-55440D03*
X10920Y-55440D03*
G54D17*
X15820Y-57920D03*
X16420Y-57920D03*
X25090Y-55150D03*
X24490Y-55150D03*
X18320Y-56380D03*
X17720Y-56380D03*
G54D19*
X13520Y-52140D03*
X13520Y-51540D03*
G54D20*
X14340Y-52940D03*
X14840Y-52940D03*
X15340Y-52940D03*
X15840Y-52940D03*
X16340Y-52940D03*
X16840Y-52940D03*
X17340Y-52940D03*
X17340Y-50840D03*
X16840Y-50840D03*
X16340Y-50840D03*
X15840Y-50840D03*
X15340Y-50840D03*
X14840Y-50840D03*
X14340Y-50840D03*
G54D21*
X21620Y-55160D03*
X21620Y-55660D03*
X21620Y-56160D03*
X21620Y-56660D03*
X21620Y-57160D03*
X21620Y-57660D03*
X21620Y-58160D03*
X23720Y-58160D03*
X23720Y-57660D03*
X23720Y-57160D03*
X23720Y-56660D03*
X23720Y-56160D03*
X23720Y-55660D03*
X23720Y-55160D03*
G54D22*
X16850Y-56270D03*
X16850Y-54170D03*
X16350Y-56270D03*
X15850Y-56270D03*
X15350Y-56270D03*
X16350Y-54170D03*
X15850Y-54170D03*
X15350Y-54170D03*
G54D19*
X18100Y-37460D03*
X18100Y-36860D03*
X24080Y-37470D03*
X24080Y-36870D03*
X21100Y-37460D03*
X21100Y-36860D03*
X15130Y-37470D03*
X15130Y-36870D03*
G54D23*
X16608Y-36795D03*
X15742Y-37170D03*
X15742Y-36420D03*
X19613Y-36775D03*
X18747Y-37150D03*
X18747Y-36400D03*
X22573Y-36775D03*
X21707Y-37150D03*
X21707Y-36400D03*
X25563Y-36775D03*
X24697Y-37150D03*
X24697Y-36400D03*
G54D24*
X25275Y-44505D03*
X24775Y-44005D03*
X25275Y-43505D03*
X21085Y-42560D03*
X20585Y-43060D03*
X20085Y-42560D03*
X23550Y-44505D03*
X23050Y-44005D03*
X23550Y-43505D03*
X16010Y-45260D03*
X15510Y-44760D03*
X16010Y-44260D03*
X14210Y-45260D03*
X13710Y-44760D03*
X14210Y-44260D03*
G54D16*
X19135Y-44260D03*
X17035Y-44260D03*
X19135Y-44760D03*
X19135Y-45260D03*
X19135Y-45760D03*
X17035Y-44760D03*
X17035Y-45260D03*
X17035Y-45760D03*
G54D17*
X19735Y-43710D03*
X19135Y-43710D03*
G54D19*
X28440Y-43410D03*
X28440Y-44010D03*
X19935Y-45310D03*
X19935Y-44710D03*
G54D18*
X23075Y-38370D03*
X23075Y-41370D03*
X25830Y-42455D03*
X22830Y-42455D03*
X17107Y-38347D03*
X17107Y-41347D03*
X20910Y-43910D03*
X20910Y-46910D03*
X19585Y-46785D03*
X16585Y-46785D03*
X26060Y-38380D03*
X26060Y-41380D03*
X16127Y-38347D03*
X16127Y-41347D03*
X22100Y-38360D03*
X22100Y-41360D03*
X20100Y-38350D03*
X20100Y-41350D03*
X19120Y-38350D03*
X19120Y-41350D03*
X25080Y-38380D03*
X25080Y-41380D03*
X9835Y-45310D03*
X12835Y-45310D03*
X22035Y-46910D03*
X22035Y-43910D03*
X11535Y-47835D03*
X8535Y-47835D03*
X11540Y-46760D03*
X8540Y-46760D03*
X9835Y-44185D03*
X12835Y-44185D03*
X12110Y-43060D03*
X15110Y-43060D03*
X16085Y-43060D03*
X19085Y-43060D03*
G54D25*
X18100Y-38360D03*
G54D26*
X18100Y-41360D03*
G54D25*
X21100Y-38360D03*
G54D26*
X21100Y-41360D03*
G54D25*
X24080Y-38380D03*
G54D26*
X24080Y-41380D03*
G54D25*
X15127Y-38347D03*
G54D26*
X15127Y-41347D03*
G54D11*
X12835Y-47773D03*
G54D12*
X12835Y-46986D03*
G54D24*
X19189Y-19254D03*
X19977Y-19254D03*
X5016Y-751D03*
X16040Y-19254D03*
X16827Y-19254D03*
X17615Y-19254D03*
X12890Y-19254D03*
X13678Y-19254D03*
X14465Y-19254D03*
X10528Y-19254D03*
X11315Y-19254D03*
X12103Y-19254D03*
X7378Y-19254D03*
X8166Y-19254D03*
X8953Y-19254D03*
X5016Y-19254D03*
X5804Y-19254D03*
X19977Y-751D03*
X15252Y-19254D03*
X18402Y-19254D03*
X6591Y-19254D03*
X9741Y-19254D03*
G54D27*
X54111Y-5829D03*
X51512Y-5829D03*
G54D28*
X28296Y-6839D03*
X28296Y-7589D03*
G54D29*
X44405Y-12025D03*
X43655Y-12025D03*
G54D28*
X9860Y-5340D03*
X9860Y-6090D03*
X45680Y-44125D03*
X45680Y-44875D03*
X42500Y-26100D03*
X42500Y-26850D03*
X12495Y-26044D03*
X12495Y-26794D03*
G54D29*
X37795Y-4340D03*
X37045Y-4340D03*
X20770Y-19260D03*
X21520Y-19260D03*
G54D28*
X8100Y-4850D03*
X8100Y-4100D03*
X24898Y-3128D03*
X24898Y-3878D03*
X24111Y-3878D03*
X24111Y-3128D03*
G54D29*
X50810Y-19255D03*
X51560Y-19255D03*
G54D19*
X8920Y-4645D03*
X8920Y-4045D03*
X13795Y-10550D03*
X13795Y-9950D03*
G54D17*
X6320Y-10545D03*
X5720Y-10545D03*
X20055Y-4260D03*
X19455Y-4260D03*
X29307Y-6836D03*
X29907Y-6836D03*
G54D19*
X7275Y-4650D03*
X7275Y-4050D03*
X10680Y-6015D03*
X10680Y-5415D03*
X11170Y-13515D03*
X11170Y-14115D03*
X13800Y-9170D03*
X13800Y-8570D03*
G54D17*
X13375Y-13210D03*
X13975Y-13210D03*
X13385Y-12100D03*
X13985Y-12100D03*
X16825Y-9180D03*
X16225Y-9180D03*
X16820Y-10295D03*
X16220Y-10295D03*
G54D19*
X3940Y-12565D03*
X3940Y-11965D03*
X4850Y-12565D03*
X4850Y-11965D03*
X13605Y-5175D03*
X13605Y-4575D03*
X9860Y-4635D03*
X9860Y-4035D03*
G54D17*
X21880Y-6135D03*
X22480Y-6135D03*
G54D19*
X37490Y-40400D03*
X37490Y-39800D03*
X38920Y-40400D03*
X38920Y-39800D03*
G54D17*
X43860Y-50420D03*
X43260Y-50420D03*
X42620Y-58070D03*
X43220Y-58070D03*
G54D19*
X37964Y-31515D03*
X37964Y-30915D03*
G54D17*
X35340Y-11405D03*
X34740Y-11405D03*
X31530Y-3680D03*
X30930Y-3680D03*
G54D19*
X20850Y-2509D03*
X20850Y-3109D03*
G54D17*
X47490Y-40620D03*
X48090Y-40620D03*
G54D19*
X39988Y-5173D03*
X39988Y-5773D03*
X44420Y-12765D03*
X44420Y-13365D03*
G54D17*
X22470Y-6805D03*
X23070Y-6805D03*
X22470Y-5465D03*
X23070Y-5465D03*
X15135Y-12095D03*
X14535Y-12095D03*
X14535Y-12780D03*
X15135Y-12780D03*
X34120Y-8490D03*
X33520Y-8490D03*
X33520Y-7700D03*
X34120Y-7700D03*
X6295Y-7995D03*
X5695Y-7995D03*
G54D19*
X23160Y-3965D03*
X23160Y-4565D03*
X47040Y-17745D03*
X47040Y-18345D03*
X11515Y-23345D03*
X11515Y-22745D03*
X1428Y-14575D03*
X1428Y-13975D03*
X2322Y-14573D03*
X2322Y-13973D03*
G54D17*
X10650Y-40655D03*
X10050Y-40655D03*
X10650Y-40000D03*
X10050Y-40000D03*
X10650Y-39350D03*
X10050Y-39350D03*
X40640Y-40090D03*
X40040Y-40090D03*
X40640Y-39440D03*
X40040Y-39440D03*
X40640Y-38790D03*
X40040Y-38790D03*
X49790Y-21210D03*
X49190Y-21210D03*
X49190Y-20395D03*
X49790Y-20395D03*
X35749Y-20042D03*
X35149Y-20042D03*
X36291Y-20042D03*
X36891Y-20042D03*
X38033Y-20042D03*
X37433Y-20042D03*
X45448Y-20079D03*
X46048Y-20079D03*
X47432Y-20081D03*
X46832Y-20081D03*
X40450Y-18155D03*
X41050Y-18155D03*
X44510Y-18160D03*
X45110Y-18160D03*
X19795Y-21155D03*
X19195Y-21155D03*
X19185Y-20350D03*
X19785Y-20350D03*
X5710Y-20003D03*
X5110Y-20003D03*
X6252Y-20003D03*
X6852Y-20003D03*
X7993Y-20003D03*
X7393Y-20003D03*
G54D19*
X16900Y-17700D03*
X16900Y-18300D03*
G54D17*
X17428Y-20195D03*
X16828Y-20195D03*
X15446Y-20195D03*
X16046Y-20195D03*
X14440Y-18152D03*
X15040Y-18152D03*
X10420Y-18115D03*
X11020Y-18115D03*
G54D19*
X9853Y-27778D03*
X9853Y-27178D03*
G54D17*
X3000Y-4825D03*
X3600Y-4825D03*
X5950Y-4825D03*
X5350Y-4825D03*
G54D19*
X7969Y-529D03*
X7969Y-1129D03*
X8992Y-529D03*
X8992Y-1129D03*
X11985Y-529D03*
X11985Y-1129D03*
X12969Y-529D03*
X12969Y-1129D03*
X10961Y-529D03*
X10961Y-1129D03*
X13992Y-529D03*
X13992Y-1129D03*
X14977Y-529D03*
X14977Y-1129D03*
X15961Y-529D03*
X15961Y-1129D03*
X41570Y-26135D03*
X41570Y-26735D03*
X40600Y-28345D03*
X40600Y-28945D03*
X40600Y-27765D03*
X40600Y-27165D03*
X39870Y-28345D03*
X39870Y-28945D03*
X9853Y-28220D03*
X9853Y-28820D03*
X10601Y-27778D03*
X10601Y-27178D03*
X10601Y-28220D03*
X10601Y-28820D03*
X11530Y-26115D03*
X11530Y-26715D03*
X41521Y-23345D03*
X41521Y-22745D03*
X39860Y-27775D03*
X39860Y-27175D03*
G54D14*
X50977Y-748D03*
X51316Y-10840D03*
X38660Y-1555D03*
X42865Y-10175D03*
G54D30*
X31000Y-1075D03*
G54D31*
X31000Y-2075D03*
X30000Y-1075D03*
X30000Y-2075D03*
X29000Y-1075D03*
X29000Y-2075D03*
X28000Y-1075D03*
X28000Y-2075D03*
X27000Y-1075D03*
X27000Y-2075D03*
X26000Y-1075D03*
X26000Y-2075D03*
X25000Y-1075D03*
X25000Y-2075D03*
X24000Y-1075D03*
X24000Y-2075D03*
G54D30*
X31475Y-4700D03*
G54D31*
X32475Y-4700D03*
X31475Y-5700D03*
X32475Y-5700D03*
X31475Y-6700D03*
X32475Y-6700D03*
X31475Y-7700D03*
X32475Y-7700D03*
X15980Y-2045D03*
X14980Y-2045D03*
X15980Y-3045D03*
X14980Y-3045D03*
X12980Y-2045D03*
X11980Y-2045D03*
X12980Y-3045D03*
X11980Y-3045D03*
X9980Y-2045D03*
X8980Y-2045D03*
X9980Y-3045D03*
X8980Y-3045D03*
G54D30*
X16980Y-2045D03*
G54D31*
X13980Y-2045D03*
X16980Y-3045D03*
X13980Y-3045D03*
X10980Y-2045D03*
X7980Y-2045D03*
X10980Y-3045D03*
X7980Y-3045D03*
G54D32*
X52418Y-2247D03*
G54D33*
X53977Y-2247D03*
G54D34*
X42780Y-48032D03*
X42780Y-49528D03*
G54D35*
X41722Y-59190D03*
X43218Y-59190D03*
G54D36*
X49850Y-5735D03*
X48270Y-5735D03*
G54D24*
X43961Y-38630D03*
G54D37*
X45338Y-38630D03*
G54D24*
X45840Y-4356D03*
G54D37*
X45840Y-5733D03*
G54D11*
X38273Y-7290D03*
G54D12*
X37486Y-7290D03*
G54D11*
X22396Y-1321D03*
G54D12*
X21609Y-1321D03*
G54D11*
X29680Y-4543D03*
G54D12*
X29680Y-3756D03*
G54D11*
X35056Y-21538D03*
G54D12*
X35843Y-21538D03*
G54D11*
X42511Y-29488D03*
G54D12*
X41724Y-29488D03*
G54D11*
X5016Y-21499D03*
G54D12*
X5804Y-21499D03*
G54D11*
X45880Y-12824D03*
G54D12*
X45880Y-12037D03*
G54D11*
X39988Y-3406D03*
G54D12*
X39988Y-4193D03*
G54D38*
X44365Y-8955D03*
G54D39*
X46334Y-8955D03*
G54D40*
X53659Y-31779D03*
X53659Y-37685D03*
X48247Y-8440D03*
X54152Y-8440D03*
X53358Y-10896D03*
X53358Y-16801D03*
G54D41*
X42873Y-15953D03*
X42617Y-15953D03*
X42361Y-15953D03*
X42105Y-15953D03*
X43637Y-18155D03*
X43641Y-15953D03*
X43385Y-15953D03*
X43129Y-15953D03*
X41849Y-18157D03*
X42105Y-18157D03*
X42361Y-18157D03*
X42617Y-18157D03*
X42873Y-18157D03*
X43129Y-18157D03*
X41849Y-15953D03*
X43385Y-18155D03*
X43897Y-15953D03*
X41593Y-15953D03*
X41593Y-18157D03*
X43897Y-18157D03*
X38878Y-15943D03*
X38622Y-15943D03*
X38366Y-15943D03*
X38110Y-15943D03*
X39642Y-18145D03*
X39646Y-15943D03*
X39390Y-15943D03*
X39134Y-15943D03*
X37854Y-18147D03*
X38110Y-18147D03*
X38366Y-18147D03*
X38622Y-18147D03*
X38878Y-18147D03*
X39134Y-18147D03*
X37854Y-15943D03*
X39390Y-18145D03*
X39902Y-15943D03*
X37598Y-15943D03*
X37598Y-18147D03*
X39902Y-18147D03*
G54D42*
X12943Y-5232D03*
X12443Y-5232D03*
X12943Y-6032D03*
X12693Y-5232D03*
X12443Y-6032D03*
G54D19*
X8370Y-13505D03*
X8370Y-14105D03*
G54D43*
X11867Y-7148D03*
X11670Y-7148D03*
X11473Y-7148D03*
X11276Y-7148D03*
X11080Y-7148D03*
X10883Y-7148D03*
X10686Y-7148D03*
X10489Y-7148D03*
X10292Y-7148D03*
X10095Y-7148D03*
X9899Y-7148D03*
X9702Y-7148D03*
X9505Y-7148D03*
X9308Y-7148D03*
X9111Y-7148D03*
X8914Y-7148D03*
X8717Y-7148D03*
X8521Y-7148D03*
X8324Y-7148D03*
X8127Y-7148D03*
G54D44*
X7280Y-7994D03*
X7280Y-8191D03*
X7280Y-8388D03*
X7280Y-8585D03*
X7280Y-8782D03*
X7280Y-8979D03*
X7280Y-9176D03*
X7280Y-9372D03*
X7280Y-9569D03*
X7280Y-9766D03*
X7280Y-9963D03*
X7280Y-10160D03*
X7280Y-10357D03*
X7280Y-10554D03*
X7280Y-10750D03*
X7280Y-10947D03*
X7280Y-11144D03*
X7280Y-11341D03*
X7280Y-11538D03*
X7280Y-11735D03*
G54D43*
X8127Y-12581D03*
X8324Y-12581D03*
X8521Y-12581D03*
X8717Y-12581D03*
X8914Y-12581D03*
X9111Y-12581D03*
X9308Y-12581D03*
X9505Y-12581D03*
X9702Y-12581D03*
X9899Y-12581D03*
X10095Y-12581D03*
X10292Y-12581D03*
X10489Y-12581D03*
X10686Y-12581D03*
X10883Y-12581D03*
X11080Y-12581D03*
X11276Y-12581D03*
X11473Y-12581D03*
X11670Y-12581D03*
X11867Y-12581D03*
G54D44*
X12713Y-11735D03*
X12713Y-11538D03*
X12713Y-11341D03*
X12713Y-11144D03*
X12713Y-10947D03*
X12713Y-10750D03*
X12713Y-10554D03*
X12713Y-10357D03*
X12713Y-10160D03*
X12713Y-9963D03*
X12713Y-9766D03*
X12713Y-9569D03*
X12713Y-9372D03*
X12713Y-9176D03*
X12713Y-8979D03*
X12713Y-8782D03*
X12713Y-8585D03*
X12713Y-8388D03*
X12713Y-8191D03*
X12713Y-7994D03*
G54D45*
X11513Y-27776D03*
X11513Y-22067D03*
X13482Y-27776D03*
X13482Y-22067D03*
X12497Y-27776D03*
G54D46*
X9898Y-24825D03*
X15095Y-24825D03*
G54D45*
X41513Y-27776D03*
X41513Y-22067D03*
X43482Y-27776D03*
X43482Y-22067D03*
X42497Y-27776D03*
G54D46*
X39898Y-24825D03*
X45095Y-24825D03*
G54D47*
X3797Y-42333D03*
X1297Y-42333D03*
X6312Y-42333D03*
X3797Y-48723D03*
X1297Y-48723D03*
X6297Y-48723D03*
X3797Y-51333D03*
X1297Y-51333D03*
X6312Y-51333D03*
X3797Y-57723D03*
X1297Y-57723D03*
X6297Y-57723D03*
X50897Y-49198D03*
X53397Y-49198D03*
X48382Y-49198D03*
X50897Y-42808D03*
X53397Y-42808D03*
X48397Y-42808D03*
X50897Y-58198D03*
X53397Y-58198D03*
X48382Y-58198D03*
X50897Y-51808D03*
X53397Y-51808D03*
X48397Y-51808D03*
G54D24*
X49189Y-19254D03*
X49977Y-19254D03*
X35016Y-751D03*
X46040Y-19254D03*
X46827Y-19254D03*
X47615Y-19254D03*
X42890Y-19254D03*
X43678Y-19254D03*
X44465Y-19254D03*
X40528Y-19254D03*
X41315Y-19254D03*
X42103Y-19254D03*
X37378Y-19254D03*
X38166Y-19254D03*
X38953Y-19254D03*
X35016Y-19254D03*
X35804Y-19254D03*
X49977Y-751D03*
X45252Y-19254D03*
X48402Y-19254D03*
X36591Y-19254D03*
X39741Y-19254D03*
G54D48*
X18441Y-10397D03*
G54D49*
X18441Y-9609D03*
X19229Y-10397D03*
X19229Y-9609D03*
X20016Y-10397D03*
X20016Y-9609D03*
X20804Y-10397D03*
X20804Y-9609D03*
X21591Y-10397D03*
X21591Y-9609D03*
X22378Y-10397D03*
X22378Y-9609D03*
X23166Y-10397D03*
X23166Y-9609D03*
X23953Y-10397D03*
X23953Y-9609D03*
X24741Y-10397D03*
X24741Y-9609D03*
X25528Y-10397D03*
X25528Y-9609D03*
X26315Y-10397D03*
X26315Y-9609D03*
X27103Y-10397D03*
X27103Y-9609D03*
X27890Y-10397D03*
X27890Y-9609D03*
X28678Y-10397D03*
X28678Y-9609D03*
X29465Y-10397D03*
X29465Y-9609D03*
X30252Y-10397D03*
X30252Y-9609D03*
X31040Y-10397D03*
X31040Y-9609D03*
X31827Y-10397D03*
X31827Y-9609D03*
X32615Y-10397D03*
X32615Y-9609D03*
X33402Y-10397D03*
X33402Y-9609D03*
X34189Y-10397D03*
X34189Y-9609D03*
X34977Y-10397D03*
X34977Y-9609D03*
X35764Y-10397D03*
X35764Y-9609D03*
X36552Y-10397D03*
X36552Y-9609D03*
G54D48*
X36552Y-30397D03*
G54D49*
X36552Y-31184D03*
X35764Y-30397D03*
X35764Y-31184D03*
X34977Y-30397D03*
X34977Y-31184D03*
X34189Y-30397D03*
X34189Y-31184D03*
X33402Y-30397D03*
X33402Y-31184D03*
X32615Y-30397D03*
X32615Y-31184D03*
X31827Y-30397D03*
X31827Y-31184D03*
X31040Y-30397D03*
X31040Y-31184D03*
X30252Y-30397D03*
X30252Y-31184D03*
X29465Y-30397D03*
X29465Y-31184D03*
X28678Y-30397D03*
X28678Y-31184D03*
X27890Y-30397D03*
X27890Y-31184D03*
X27103Y-30397D03*
X27103Y-31184D03*
X26315Y-30397D03*
X26315Y-31184D03*
X25528Y-30397D03*
X25528Y-31184D03*
X24741Y-30397D03*
X24741Y-31184D03*
X23953Y-30397D03*
X23953Y-31184D03*
X23166Y-30397D03*
X23166Y-31184D03*
X22378Y-30397D03*
X22378Y-31184D03*
X21591Y-30397D03*
X21591Y-31184D03*
X20804Y-30397D03*
X20804Y-31184D03*
X20016Y-30397D03*
X20016Y-31184D03*
X19229Y-30397D03*
X19229Y-31184D03*
X18441Y-30397D03*
X18441Y-31184D03*
G54D50*
X48866Y-13615D03*
G54D51*
X49766Y-10785D03*
X47966Y-10785D03*
G54D50*
X42740Y-3155D03*
G54D51*
X41840Y-5985D03*
X43640Y-5985D03*
G54D52*
X49998Y-38774D03*
G54D53*
X47168Y-37874D03*
X47168Y-39674D03*
G54D41*
X8868Y-15953D03*
X8612Y-15953D03*
X8356Y-15953D03*
X8100Y-15953D03*
X9632Y-18155D03*
X9636Y-15953D03*
X9380Y-15953D03*
X9124Y-15953D03*
X7844Y-18157D03*
X8100Y-18157D03*
X8356Y-18157D03*
X8612Y-18157D03*
X8868Y-18157D03*
X9124Y-18157D03*
X7844Y-15953D03*
X9380Y-18155D03*
X9892Y-15953D03*
X7588Y-15953D03*
X7588Y-18157D03*
X9892Y-18157D03*
X12880Y-15948D03*
X12624Y-15948D03*
X12368Y-15948D03*
X12112Y-15948D03*
X13644Y-18150D03*
X13648Y-15948D03*
X13392Y-15948D03*
X13136Y-15948D03*
X11856Y-18152D03*
X12112Y-18152D03*
X12368Y-18152D03*
X12624Y-18152D03*
X12880Y-18152D03*
X13136Y-18152D03*
X11856Y-15948D03*
X13392Y-18150D03*
X13904Y-15948D03*
X11600Y-15948D03*
X11600Y-18152D03*
X13904Y-18152D03*
G54D23*
X14952Y-8240D03*
X15818Y-7865D03*
X15818Y-8615D03*
G54D17*
X18395Y-7975D03*
X17795Y-7975D03*
G54D19*
X17225Y-7950D03*
X17225Y-8550D03*
G54D54*
X16495Y-7830D03*
X16495Y-8710D03*
G54D55*
X2630Y-6225D03*
X6370Y-6225D03*
G54D29*
X17775Y-4430D03*
X17025Y-4430D03*
G54D22*
X23770Y-4705D03*
X23770Y-6805D03*
X24270Y-4705D03*
X24770Y-4705D03*
X25270Y-4705D03*
X24270Y-6805D03*
X24770Y-6805D03*
X25270Y-6805D03*
G54D28*
X22380Y-3820D03*
X22380Y-4570D03*
X21560Y-3815D03*
X21560Y-4565D03*
G54D17*
X20730Y-6135D03*
X21330Y-6135D03*
X23070Y-7515D03*
X22470Y-7515D03*
X21290Y-5465D03*
X21890Y-5465D03*
G54D19*
X7720Y-14105D03*
X7720Y-13505D03*
G54D30*
X1300Y-34500D03*
G54D31*
X1300Y-35500D03*
X1300Y-36500D03*
X1300Y-37500D03*
G54D28*
X26700Y-7590D03*
X26700Y-6840D03*
G54D23*
X19293Y-4955D03*
X18427Y-5330D03*
X18427Y-4580D03*
G54D56*
X14449Y-4225D03*
X16221Y-4225D03*
X14449Y-6785D03*
X16221Y-6785D03*
G54D17*
X13543Y-40104D03*
X14143Y-40104D03*
G54D19*
X40350Y-37620D03*
X40350Y-38220D03*
G54D23*
X39783Y-41330D03*
X38917Y-41705D03*
X38917Y-40955D03*
X38363Y-41330D03*
X37497Y-41705D03*
X37497Y-40955D03*
G54D57*
X21170Y-20287D03*
X21545Y-21153D03*
X20795Y-21153D03*
X51150Y-20342D03*
X51525Y-21208D03*
X50775Y-21208D03*
G54D28*
X27488Y-7590D03*
X27488Y-6840D03*
G54D23*
X32273Y-36800D03*
X31407Y-37175D03*
X31407Y-36425D03*
X30853Y-36800D03*
X29987Y-37175D03*
X29987Y-36425D03*
X29433Y-36800D03*
X28567Y-37175D03*
X28567Y-36425D03*
X28013Y-36780D03*
X27147Y-37155D03*
X27147Y-36405D03*
G54D19*
X30850Y-57780D03*
X30850Y-57180D03*
G54D18*
X27680Y-56660D03*
X24680Y-56660D03*
G54D11*
X29086Y-56660D03*
G54D12*
X29873Y-56660D03*
G54D19*
X29920Y-39220D03*
X29920Y-39820D03*
X28960Y-39220D03*
X28960Y-39820D03*
X30880Y-39220D03*
X30880Y-39820D03*
X31840Y-39220D03*
X31840Y-39820D03*
G54D22*
X37910Y-57130D03*
X37910Y-55030D03*
X37410Y-57130D03*
X36910Y-57130D03*
X36410Y-57130D03*
X37410Y-55030D03*
X36910Y-55030D03*
X36410Y-55030D03*
G54D18*
X39360Y-54000D03*
X39360Y-57000D03*
X37960Y-50320D03*
X37960Y-47320D03*
X39360Y-50300D03*
X39360Y-53300D03*
X40420Y-47300D03*
X40420Y-50300D03*
X38660Y-57960D03*
X35660Y-57960D03*
X37040Y-50320D03*
X37040Y-47320D03*
X42480Y-50300D03*
X42480Y-53300D03*
X41420Y-47300D03*
X41420Y-50300D03*
G54D19*
X38580Y-56660D03*
X38580Y-57260D03*
G54D17*
X39100Y-47300D03*
X39700Y-47300D03*
X42740Y-47300D03*
X42140Y-47300D03*
G54D11*
X37800Y-51406D03*
G54D12*
X37800Y-52193D03*
G54D11*
X40920Y-51406D03*
G54D12*
X40920Y-52193D03*
G54D30*
X39420Y-46360D03*
G54D31*
X39420Y-45360D03*
X40420Y-46360D03*
X40420Y-45360D03*
X41420Y-46360D03*
X41420Y-45360D03*
X42420Y-46360D03*
X42420Y-45360D03*
G54D30*
X32970Y-42240D03*
G54D31*
X32970Y-41240D03*
X33970Y-42240D03*
X33970Y-41240D03*
X34970Y-42240D03*
X34970Y-41240D03*
G54D13*
X28060Y-31630D03*
X28500Y-31630D03*
X28850Y-31630D03*
X29290Y-31630D03*
X35550Y-38450D03*
X35990Y-38450D03*
X36190Y-38450D03*
X36630Y-38450D03*
X36430Y-40850D03*
X35990Y-40850D03*
X35550Y-40850D03*
X35280Y-42740D03*
X34640Y-42740D03*
X34310Y-42740D03*
X33670Y-42740D03*
X40220Y-44870D03*
X39910Y-45180D03*
X41000Y-44870D03*
X30590Y-56340D03*
X31300Y-56980D03*
X28850Y-44430D03*
X7060Y-58050D03*
X6600Y-58490D03*
X43500Y-57210D03*
X43500Y-56570D03*
X5990Y-49490D03*
X5540Y-49040D03*
X160Y-50430D03*
X650Y-50840D03*
X42400Y-56370D03*
X43040Y-56370D03*
X44540Y-51670D03*
X43920Y-51390D03*
G54D14*
X15570Y-46790D03*
X20400Y-51890D03*
G54D18*
X33240Y-38295D03*
X33240Y-35295D03*
G54D17*
X32520Y-38290D03*
X31920Y-38290D03*
G54D58*
X45870Y-46443D03*
X45870Y-48176D03*
X43870Y-47310D03*
X43870Y-48176D03*
X43870Y-46443D03*
X45870Y-47310D03*
X43870Y-49436D03*
G54D40*
X45870Y-49436D03*
G54D58*
X45860Y-55158D03*
X45860Y-56891D03*
X43860Y-56025D03*
X43860Y-56891D03*
X43860Y-55158D03*
X45860Y-56025D03*
X43860Y-58151D03*
G54D40*
X45860Y-58151D03*
G54D59*
X53358Y-11724D03*
X53358Y-15661D03*
X49074Y-8440D03*
X53011Y-8440D03*
X53659Y-32619D03*
X53659Y-36556D03*
G54D17*
X30800Y-35725D03*
X31400Y-35725D03*
X29375Y-35725D03*
X29975Y-35725D03*
X27950Y-35725D03*
X28550Y-35725D03*
X26550Y-35725D03*
X27150Y-35725D03*
X24100Y-35725D03*
X24700Y-35725D03*
X21100Y-35725D03*
X21700Y-35725D03*
X19275Y-35725D03*
X18675Y-35725D03*
X16300Y-35725D03*
X15700Y-35725D03*
G54D60*
X51665Y-26222D03*
X53634Y-26222D03*
X53634Y-27797D03*
X51665Y-27797D03*
G54D24*
X44301Y-41940D03*
G54D37*
X45678Y-41940D03*
G54D24*
X40921Y-41940D03*
G54D37*
X42298Y-41940D03*
G54D24*
X31008Y-45600D03*
G54D37*
X29631Y-45600D03*
G54D24*
X30381Y-53930D03*
G54D37*
X31758Y-53930D03*
G54D61*
X42940Y-32183D03*
G54D62*
X42940Y-35136D03*
G54D61*
X49380Y-32183D03*
G54D62*
X49380Y-35136D03*
G54D63*
X42310Y-39587D03*
X26330Y-23340D03*
X28030Y-23340D03*
X14090Y-28760D03*
X14086Y-29983D03*
X13518Y-39565D03*
X3986Y-21663D03*
X3972Y-22559D03*
X5872Y-12411D03*
X7408Y-12417D03*
G54D64*
X20728Y-7839D03*
X20726Y-7007D03*
X33476Y-5369D03*
X34240Y-4611D03*
X3840Y-14907D03*
X2322Y-14907D03*
X1530Y-14907D03*
X4750Y-12895D03*
X4048Y-12895D03*
G54D63*
X9915Y-9285D03*
X10680Y-10050D03*
X11980Y-11350D03*
G54D64*
X12195Y-13195D03*
X11170Y-13195D03*
X13070Y-13040D03*
X13070Y-12300D03*
G54D63*
X11385Y-7795D03*
X12450Y-6750D03*
G54D64*
X8914Y-5240D03*
G54D63*
X9860Y-4975D03*
G54D64*
X8370Y-13195D03*
X17125Y-9181D03*
X17125Y-10289D03*
G54D63*
X39158Y-30393D03*
X40798Y-30393D03*
X28420Y-21770D03*
X18680Y-21780D03*
X18680Y-21043D03*
X26280Y-21780D03*
X23555Y-1575D03*
G54D64*
X9840Y-15455D03*
G54D63*
X48692Y-20937D03*
X48694Y-21747D03*
G54D64*
X40130Y-17435D03*
X10120Y-18065D03*
X40150Y-18050D03*
G54D63*
X37030Y-11135D03*
G54D65*
X33340Y-47080D03*
G54D63*
X36130Y-47080D03*
G54D65*
X38110Y-45270D03*
X38110Y-43420D03*
G54D64*
X28520Y-40590D03*
X32870Y-44960D03*
X31920Y-44010D03*
G54D63*
X20590Y-55890D03*
X21100Y-54900D03*
X22690Y-54900D03*
X13780Y-49244D03*
X13780Y-50740D03*
G54D64*
X45320Y-50010D03*
X43520Y-50000D03*
X31840Y-40160D03*
X30880Y-40160D03*
X29920Y-40160D03*
X28960Y-40160D03*
G54D63*
X22690Y-53860D03*
X19580Y-52150D03*
X19580Y-53150D03*
X53650Y-27010D03*
X52650Y-27010D03*
X54450Y-27010D03*
X52650Y-27810D03*
X52650Y-28610D03*
X52650Y-26210D03*
X52650Y-25410D03*
X51650Y-27010D03*
G54D13*
X35275Y-52590D03*
X34640Y-52600D03*
X35275Y-53850D03*
X34642Y-53602D03*
X34462Y-54672D03*
X33977Y-54267D03*
X33272Y-54972D03*
X33762Y-55372D03*
X33052Y-56082D03*
X32610Y-55630D03*
X32155Y-56980D03*
X31904Y-56340D03*
G54D63*
X30850Y-58160D03*
G54D13*
X35275Y-51530D03*
X35275Y-50530D03*
X35275Y-49530D03*
X35275Y-48530D03*
X35275Y-47530D03*
X35275Y-44810D03*
X35275Y-45865D03*
X35275Y-43785D03*
X34644Y-43785D03*
X34644Y-45865D03*
X34644Y-44810D03*
X34644Y-47530D03*
X34644Y-48530D03*
X34644Y-49530D03*
X34644Y-50530D03*
X34644Y-51530D03*
G54D63*
X28440Y-43020D03*
G54D13*
X33785Y-43550D03*
X31555Y-45063D03*
X30555Y-45063D03*
X29555Y-45063D03*
X28550Y-45070D03*
X29555Y-44433D03*
X30555Y-44433D03*
X33302Y-43142D03*
G54D63*
X25130Y-51820D03*
X39350Y-41640D03*
X40810Y-38220D03*
X39401Y-28937D03*
G54D66*
X48398Y-39574D03*
X49198Y-40374D03*
X50798Y-40374D03*
X51598Y-39574D03*
X51598Y-37974D03*
X50798Y-37174D03*
X49198Y-37174D03*
X48398Y-37974D03*
X48398Y-38774D03*
X48398Y-37174D03*
X49998Y-37174D03*
X51598Y-37174D03*
X51598Y-38774D03*
X51598Y-40374D03*
X49998Y-40374D03*
X48398Y-40374D03*
X48798Y-38774D03*
X48866Y-14965D03*
X44366Y-9615D03*
X45366Y-9615D03*
X51866Y-11615D03*
X50866Y-9615D03*
X51866Y-14615D03*
X51866Y-15615D03*
X50866Y-14615D03*
X52866Y-14615D03*
X51866Y-13615D03*
X51866Y-12615D03*
X52866Y-13615D03*
X50865Y-13615D03*
X50866Y-11615D03*
X48866Y-11615D03*
X49866Y-11615D03*
X50866Y-12615D03*
X45366Y-10615D03*
X44366Y-10615D03*
X47866Y-9615D03*
X48866Y-10615D03*
X48866Y-9615D03*
X46366Y-9615D03*
X46366Y-14615D03*
X45366Y-13615D03*
X47366Y-13615D03*
X46366Y-13615D03*
X45366Y-14615D03*
X49266Y-13615D03*
X48466Y-13615D03*
X48866Y-13615D03*
X49665Y-14015D03*
X49265Y-14415D03*
X48465Y-14415D03*
X48065Y-14015D03*
X49665Y-12815D03*
X49665Y-13215D03*
X49265Y-13215D03*
X49265Y-12815D03*
X48465Y-12815D03*
X48065Y-13215D03*
X48065Y-12815D03*
X48465Y-13215D03*
X48065Y-14415D03*
X48465Y-14015D03*
X49665Y-14415D03*
X49265Y-14015D03*
X48865Y-14415D03*
X48865Y-14015D03*
X48865Y-12815D03*
X48865Y-13215D03*
X48065Y-13615D03*
X49665Y-13615D03*
X47366Y-11615D03*
X47366Y-14615D03*
X47366Y-12615D03*
G54D63*
X39491Y-5765D03*
X41841Y-5140D03*
X42416Y-5990D03*
X41266Y-5990D03*
G54D66*
X50795Y-39575D03*
X50395Y-39575D03*
X49995Y-39575D03*
X49595Y-39575D03*
X49195Y-39575D03*
X49195Y-39175D03*
X49595Y-39175D03*
X49995Y-39175D03*
X50395Y-39175D03*
X50795Y-39175D03*
X50795Y-37975D03*
X50795Y-38375D03*
X50395Y-38375D03*
X50395Y-37975D03*
X49995Y-37975D03*
X49995Y-38375D03*
X49595Y-38375D03*
X49595Y-37975D03*
X49195Y-37975D03*
X49195Y-38375D03*
X49195Y-38775D03*
X49595Y-38775D03*
X50795Y-38775D03*
X50395Y-38775D03*
G54D63*
X34880Y-39600D03*
X33480Y-39600D03*
X32290Y-37720D03*
X8590Y-11940D03*
G54D13*
X43955Y-52250D03*
X43324Y-51985D03*
X43324Y-52740D03*
X43955Y-53040D03*
X43955Y-53930D03*
X43512Y-54372D03*
X42862Y-54132D03*
X43324Y-53669D03*
X43040Y-54845D03*
X42400Y-54594D03*
X43035Y-55370D03*
X42400Y-55370D03*
X20200Y-59204D03*
X7597Y-58592D03*
X10200Y-59204D03*
X11200Y-59204D03*
X12200Y-59204D03*
X13200Y-59204D03*
X14200Y-59204D03*
X15190Y-59204D03*
X16200Y-59204D03*
X17170Y-59204D03*
X18190Y-59204D03*
X19200Y-59204D03*
X21200Y-59204D03*
X22190Y-59204D03*
X23200Y-59204D03*
X24200Y-59204D03*
X25200Y-59204D03*
X26200Y-59204D03*
X27200Y-59204D03*
X28200Y-59204D03*
X29200Y-59204D03*
X30200Y-59204D03*
X31200Y-59204D03*
X32200Y-59204D03*
X33200Y-59204D03*
X34200Y-59204D03*
X35190Y-59204D03*
X36210Y-59204D03*
X37200Y-59204D03*
X38200Y-59204D03*
X39200Y-59204D03*
X39782Y-58992D03*
X40382Y-58392D03*
X41107Y-57667D03*
X42198Y-56576D03*
X9200Y-59204D03*
X8210Y-59204D03*
X7192Y-59077D03*
X42455Y-57210D03*
X7945Y-59835D03*
X9200Y-59835D03*
X10200Y-59835D03*
X11200Y-59835D03*
X12200Y-59835D03*
X13200Y-59835D03*
X14200Y-59835D03*
X15200Y-59835D03*
X16200Y-59835D03*
X17200Y-59835D03*
X18200Y-59835D03*
X19200Y-59835D03*
X20200Y-59835D03*
X21200Y-59835D03*
X22200Y-59835D03*
X23200Y-59835D03*
X24200Y-59835D03*
X25200Y-59835D03*
X26200Y-59835D03*
X27200Y-59835D03*
X28200Y-59835D03*
X29200Y-59835D03*
X30200Y-59835D03*
X31200Y-59835D03*
X32200Y-59835D03*
X33200Y-59835D03*
X34200Y-59835D03*
X35200Y-59835D03*
X36200Y-59835D03*
X37200Y-59835D03*
X38200Y-59835D03*
X39200Y-59835D03*
X40202Y-59462D03*
X40912Y-58752D03*
X41607Y-58057D03*
X4180Y-50300D03*
X597Y-49997D03*
X1190Y-50295D03*
X1180Y-49664D03*
X2180Y-50295D03*
X2180Y-49664D03*
X3180Y-50295D03*
X3180Y-49664D03*
X4180Y-49664D03*
X5180Y-50295D03*
X4919Y-49664D03*
G54D63*
X36410Y-55620D03*
X38580Y-56230D03*
X18750Y-56380D03*
G54D13*
X40462Y-44337D03*
X36430Y-41850D03*
X36430Y-42850D03*
X36430Y-43617D03*
X38860Y-43889D03*
X39860Y-43889D03*
X39480Y-44750D03*
X35550Y-43850D03*
X36345Y-44750D03*
X38860Y-44750D03*
X39664Y-44319D03*
X35985Y-41850D03*
X35985Y-42850D03*
X35985Y-43780D03*
X36524Y-44319D03*
X38860Y-44319D03*
X35554Y-42850D03*
X35550Y-41850D03*
X35985Y-37840D03*
X35985Y-36840D03*
X35985Y-35700D03*
X34864Y-34580D03*
X34239Y-33955D03*
X33607Y-33322D03*
X33050Y-33024D03*
X32025Y-33024D03*
X31035Y-33024D03*
X29429Y-33024D03*
X28789Y-32385D03*
X32980Y-33455D03*
X32035Y-33455D03*
X31055Y-33455D03*
X29250Y-33455D03*
X28480Y-32684D03*
X33277Y-33602D03*
X33907Y-34232D03*
X34585Y-34909D03*
X35550Y-35874D03*
X35550Y-36840D03*
X35554Y-37845D03*
X36190Y-37840D03*
X36625Y-37840D03*
X29664Y-32010D03*
X30039Y-32384D03*
X31040Y-32384D03*
X32040Y-32384D03*
X33040Y-32384D03*
X34054Y-32810D03*
X35342Y-34097D03*
X34679Y-33435D03*
X36142Y-34897D03*
X36625Y-35840D03*
X36625Y-36840D03*
X36185Y-36840D03*
X36190Y-35840D03*
X35870Y-35234D03*
X35047Y-34412D03*
X34420Y-33784D03*
X33760Y-33124D03*
X33040Y-32815D03*
X32040Y-32815D03*
X31040Y-32815D03*
X29342Y-32297D03*
X29860Y-32815D03*
G54D63*
X37955Y-41785D03*
X39100Y-47830D03*
X29230Y-49120D03*
X43180Y-47300D03*
X9700Y-50650D03*
X27150Y-37590D03*
X28570Y-37590D03*
X31410Y-37590D03*
X29990Y-37590D03*
X9690Y-49050D03*
X20170Y-43710D03*
X25530Y-55150D03*
X14050Y-52140D03*
X15340Y-53560D03*
X17700Y-52940D03*
X22180Y-58160D03*
X17570Y-45760D03*
X24700Y-37500D03*
X18750Y-37560D03*
X21705Y-37515D03*
X15740Y-37570D03*
X14140Y-39575D03*
X39420Y-27175D03*
G54D64*
X12496Y-514D03*
G54D66*
X49998Y-38774D03*
G54D63*
X38492Y-31513D03*
X47864Y-20081D03*
X45020Y-20077D03*
G54D64*
X17810Y-20195D03*
X15064Y-20195D03*
G54D63*
X37230Y-15943D03*
X11090Y-28755D03*
X9370Y-27185D03*
X11530Y-27095D03*
X41570Y-27115D03*
X51940Y-21205D03*
X21960Y-21155D03*
X18850Y-4220D03*
X12160Y-10875D03*
X14290Y-9955D03*
X7900Y-8845D03*
G54D64*
X41590Y-15445D03*
X41300Y-18025D03*
G54D63*
X15475Y-18000D03*
X45575Y-18050D03*
X7225Y-15950D03*
X23350Y-3600D03*
G54D64*
X12690Y-5540D03*
G54D63*
X14210Y-8780D03*
X5330Y-10610D03*
X4970Y-4825D03*
X4030Y-4830D03*
X20850Y-3475D03*
X5340Y-7995D03*
X10440Y-4975D03*
X9705Y-6605D03*
X7985Y-10355D03*
G54D64*
X16175Y-7890D03*
G54D63*
X11700Y-15365D03*
X34735Y-11880D03*
X25730Y-4705D03*
G54D64*
X11270Y-12125D03*
X11310Y-17990D03*
X8481Y-514D03*
X8370Y-14425D03*
X11170Y-14495D03*
X26380Y-22250D03*
X28370Y-22250D03*
X54750Y-58870D03*
X40400Y-41180D03*
X46280Y-51090D03*
X40400Y-41600D03*
X54580Y-49840D03*
X43970Y-51090D03*
X27316Y-12255D03*
X27362Y-15793D03*
X27679Y-12254D03*
X27693Y-15793D03*
X28043Y-12253D03*
X28024Y-15791D03*
X27490Y-31570D03*
G54D63*
X42720Y-56180D03*
X310Y-50730D03*
G54D64*
X9120Y-18785D03*
X9380Y-18565D03*
X8870Y-18565D03*
X39155Y-18815D03*
X39445Y-18640D03*
X38870Y-18645D03*
X14080Y-16505D03*
X9545Y-16615D03*
X14305Y-16255D03*
X9850Y-16475D03*
X9545Y-17230D03*
X13585Y-17000D03*
X13115Y-17475D03*
X9255Y-17655D03*
X9860Y-16980D03*
X13835Y-16755D03*
X10230Y-17315D03*
X13350Y-17240D03*
X28298Y-8961D03*
X28296Y-7975D03*
G54D63*
X34160Y-38295D03*
G54D66*
X41366Y-4665D03*
X42740Y-4645D03*
X41366Y-1665D03*
X41366Y-3155D03*
X44116Y-1665D03*
X44116Y-4665D03*
X44116Y-3155D03*
X42725Y-1645D03*
X43125Y-3950D03*
X43525Y-3550D03*
X42325Y-3950D03*
X41925Y-3550D03*
X42325Y-2350D03*
X41925Y-2750D03*
X43525Y-2750D03*
X43125Y-2350D03*
X43525Y-2350D03*
X43125Y-2750D03*
X41925Y-2350D03*
X42325Y-2750D03*
X41925Y-3950D03*
X42325Y-3550D03*
X43525Y-3950D03*
X43125Y-3550D03*
X42725Y-3950D03*
X42725Y-3550D03*
X43525Y-3150D03*
X43125Y-3150D03*
X42725Y-2350D03*
X42725Y-2750D03*
X41925Y-3150D03*
X42325Y-3150D03*
X42725Y-3150D03*
G54D64*
X24230Y-56160D03*
X22790Y-57160D03*
X32875Y-43085D03*
X33800Y-44010D03*
X32160Y-43780D03*
X33110Y-44730D03*
X33340Y-44490D03*
X32415Y-43565D03*
X33575Y-44255D03*
X32650Y-43330D03*
X11132Y-39567D03*
X11132Y-40001D03*
X11130Y-40430D03*
X41132Y-40433D03*
X41132Y-39567D03*
X41132Y-39999D03*
X8920Y-7735D03*
X8600Y-6605D03*
X12120Y-6035D03*
X10880Y-4975D03*
X14840Y-7835D03*
X19220Y-8790D03*
X19220Y-7970D03*
X14835Y-9345D03*
X15330Y-8840D03*
X26680Y-15795D03*
X26700Y-11535D03*
X26700Y-8963D03*
X26700Y-7975D03*
X29860Y-28820D03*
X29860Y-29710D03*
X14030Y-3840D03*
X11220Y-4975D03*
X11920Y-5675D03*
X13480Y-3845D03*
X27488Y-7974D03*
X27488Y-8961D03*
X30250Y-29710D03*
X30250Y-28820D03*
X27031Y-11534D03*
X27031Y-15794D03*
G54D63*
X18710Y-43710D03*
G54D65*
X37120Y-43370D03*
X37120Y-45270D03*
G54D63*
X36700Y-56490D03*
X35610Y-56490D03*
G54D65*
X32600Y-45370D03*
X31220Y-43990D03*
X32960Y-46360D03*
X35760Y-46360D03*
G54D63*
X19250Y-38900D03*
X22210Y-38900D03*
X25200Y-38900D03*
G54D66*
X24610Y-43365D03*
X23940Y-43365D03*
G54D67*
X40350Y-37620D02*
X40770Y-37620D01*
X42310Y-39160D02*
X42310Y-39587D01*
X40770Y-37620D02*
X42310Y-39160D01*
G54D68*
X40250Y-30052D02*
X40250Y-37520D01*
X40250Y-30052D02*
X41674Y-28628D01*
X43485Y-28628D02*
X41674Y-28628D01*
X43141Y-26100D02*
X44094Y-27053D01*
X44094Y-27053D02*
X44094Y-28018D01*
X44094Y-28018D02*
X43485Y-28628D01*
X42500Y-26100D02*
X43141Y-26100D01*
X40250Y-37520D02*
X40350Y-37620D01*
X42310Y-39587D02*
X42295Y-39587D01*
G54D69*
X37045Y-4340D02*
X34700Y-4340D01*
X34553Y-4193D02*
X32265Y-1905D01*
X32265Y-895D02*
X32265Y-1905D01*
X31755Y-385D02*
X32265Y-895D01*
X31755Y-385D02*
X29971Y-385D01*
X34700Y-4340D02*
X34553Y-4193D01*
G54D68*
X26330Y-23340D02*
X11520Y-23340D01*
X41521Y-23345D02*
X28035Y-23345D01*
X28035Y-23345D02*
X28030Y-23340D01*
X11520Y-23340D02*
X11515Y-23345D01*
X14090Y-28760D02*
X14090Y-27163D01*
X12495Y-26044D02*
X12971Y-26044D01*
X14086Y-29983D02*
X14086Y-38997D01*
X14086Y-38997D02*
X13518Y-39565D01*
X14090Y-27163D02*
X12971Y-26044D01*
X13543Y-40104D02*
X13543Y-39590D01*
X13543Y-39590D02*
X13518Y-39565D01*
G54D70*
X29907Y-6836D02*
X30339Y-6836D01*
X30339Y-6836D02*
X31475Y-5700D01*
G54D69*
X30000Y-1075D02*
X30000Y-414D01*
X30000Y-414D02*
X29971Y-385D01*
X29971Y-385D02*
X22110Y-385D01*
X22110Y-385D02*
X21609Y-885D01*
X21609Y-1321D02*
X21609Y-885D01*
G54D68*
X13543Y-39590D02*
X13518Y-39565D01*
X3840Y-21517D02*
X3986Y-21663D01*
X3840Y-14907D02*
X3840Y-21517D01*
X4758Y-23345D02*
X11515Y-23345D01*
X3972Y-22559D02*
X4758Y-23345D01*
X4750Y-12895D02*
X5388Y-12895D01*
G54D71*
X7408Y-12417D02*
X7999Y-11826D01*
G54D68*
X5388Y-12895D02*
X5872Y-12411D01*
G54D72*
X8324Y-12581D02*
X8324Y-12151D01*
X8324Y-12151D02*
X7999Y-11826D01*
X7280Y-10554D02*
X7731Y-10554D01*
X8086Y-10909D02*
X8276Y-10909D01*
X7731Y-10554D02*
X8086Y-10909D01*
G54D71*
X8276Y-10909D02*
X8276Y-11549D01*
X8276Y-11549D02*
X7999Y-11826D01*
X9915Y-9285D02*
X9900Y-9285D01*
X9900Y-9285D02*
X8276Y-10909D01*
G54D70*
X23070Y-7815D02*
X22908Y-7977D01*
X22908Y-7977D02*
X20866Y-7977D01*
X20866Y-7977D02*
X20728Y-7839D01*
X23070Y-7515D02*
X23070Y-7815D01*
X20730Y-7003D02*
X20730Y-6135D01*
X20726Y-7007D02*
X20730Y-7003D01*
G54D67*
X32475Y-5700D02*
X33135Y-5700D01*
X33135Y-5700D02*
X33466Y-5369D01*
X33466Y-5369D02*
X33476Y-5369D01*
X34240Y-4611D02*
X34600Y-4251D01*
X34600Y-4251D02*
X34600Y-4193D01*
G54D70*
X4750Y-12895D02*
X4750Y-12665D01*
X4750Y-12665D02*
X4850Y-12565D01*
G54D68*
X4048Y-12895D02*
X4048Y-14699D01*
X4048Y-14699D02*
X3840Y-14907D01*
G54D70*
X2322Y-14573D02*
X2322Y-14907D01*
X1428Y-14805D02*
X1428Y-14575D01*
X1428Y-14805D02*
X1530Y-14907D01*
X4755Y-12890D02*
X4750Y-12895D01*
X6320Y-10545D02*
X6320Y-10750D01*
X3940Y-12787D02*
X3940Y-12565D01*
X4048Y-12895D02*
X3940Y-12787D01*
G54D68*
X11515Y-23345D02*
X11515Y-26100D01*
G54D67*
X11515Y-26100D02*
X11530Y-26115D01*
G54D68*
X11530Y-26115D02*
X12424Y-26115D01*
G54D67*
X12424Y-26115D02*
X12495Y-26044D01*
G54D68*
X41570Y-26135D02*
X42465Y-26135D01*
G54D67*
X42465Y-26135D02*
X42500Y-26100D01*
G54D68*
X41521Y-23345D02*
X41521Y-26086D01*
G54D67*
X41521Y-26086D02*
X41570Y-26135D01*
X20055Y-4260D02*
X20055Y-4370D01*
X20055Y-4370D02*
X20440Y-4755D01*
G54D70*
X19293Y-4955D02*
X19400Y-4955D01*
X19400Y-4955D02*
X19820Y-5375D01*
G54D72*
X12713Y-10554D02*
X11950Y-10554D01*
X11950Y-10554D02*
X11567Y-10937D01*
X13795Y-10550D02*
X13882Y-10550D01*
X13882Y-10550D02*
X14090Y-10757D01*
G54D70*
X17775Y-4430D02*
X17775Y-3885D01*
X17775Y-3885D02*
X17785Y-3875D01*
X18010Y-3875D02*
X17785Y-3875D01*
X17785Y-3875D02*
X17545Y-3875D01*
X18010Y-3875D02*
X19920Y-3875D01*
X19920Y-3875D02*
X20055Y-4010D01*
X20055Y-4260D02*
X20055Y-4010D01*
X16909Y-529D02*
X15961Y-529D01*
X17440Y-1060D02*
X16909Y-529D01*
X17440Y-3770D02*
X17440Y-1060D01*
X17545Y-3875D02*
X17440Y-3770D01*
G54D73*
X12943Y-6032D02*
X12943Y-6158D01*
X12943Y-6158D02*
X13195Y-6410D01*
G54D68*
X9860Y-4975D02*
X9860Y-5340D01*
G54D70*
X8914Y-5240D02*
X8914Y-4650D01*
X8914Y-4650D02*
X8920Y-4645D01*
G54D72*
X13605Y-5175D02*
X13605Y-5625D01*
X13605Y-5625D02*
X13865Y-5885D01*
X12713Y-8585D02*
X12144Y-8585D01*
X12144Y-8585D02*
X10680Y-10050D01*
X12713Y-8585D02*
X13085Y-8585D01*
X13670Y-9170D02*
X13800Y-9170D01*
X13085Y-8585D02*
X13670Y-9170D01*
G54D71*
X10680Y-10050D02*
X11567Y-10937D01*
X11567Y-10937D02*
X11622Y-10992D01*
X11622Y-10992D02*
X11980Y-11350D01*
G54D67*
X13375Y-13210D02*
X13240Y-13210D01*
X13240Y-13210D02*
X13070Y-13040D01*
X12195Y-13195D02*
X12915Y-13195D01*
X12915Y-13195D02*
X13070Y-13040D01*
X13385Y-12100D02*
X13270Y-12100D01*
X13070Y-12300D02*
X13270Y-12100D01*
G54D72*
X7280Y-7994D02*
X7649Y-7994D01*
G54D68*
X8125Y-8530D02*
X7850Y-8255D01*
X8125Y-8530D02*
X8170Y-8530D01*
G54D72*
X7850Y-8195D02*
X7850Y-8255D01*
X7649Y-7994D02*
X7850Y-8195D01*
G54D68*
X8155Y-8530D02*
X8170Y-8530D01*
X8170Y-8530D02*
X10670Y-8530D01*
G54D72*
X7280Y-7994D02*
X6295Y-7994D01*
X6295Y-7994D02*
X6295Y-7995D01*
X7280Y-10554D02*
X6329Y-10554D01*
X6329Y-10554D02*
X6320Y-10545D01*
G54D71*
X11385Y-7815D02*
X10670Y-8530D01*
X11385Y-7795D02*
X11385Y-7815D01*
X10670Y-8530D02*
X9915Y-9285D01*
G54D74*
X12855Y-6750D02*
X12450Y-6750D01*
X12855Y-6750D02*
X13195Y-6410D01*
X13195Y-6410D02*
X13340Y-6265D01*
G54D67*
X9860Y-4635D02*
X9860Y-4975D01*
G54D72*
X12713Y-10554D02*
X13790Y-10554D01*
X13790Y-10554D02*
X13795Y-10550D01*
G54D74*
X17625Y-5885D02*
X14455Y-5885D01*
X14455Y-5885D02*
X13865Y-5885D01*
X13865Y-5885D02*
X13720Y-5885D01*
X13720Y-5885D02*
X13340Y-6265D01*
G54D70*
X20970Y-5465D02*
X20970Y-5460D01*
X20465Y-4955D02*
X20240Y-4955D01*
X20970Y-5460D02*
X20465Y-4955D01*
X17775Y-5735D02*
X17625Y-5885D01*
G54D74*
X21560Y-3815D02*
X21380Y-3815D01*
X21380Y-3815D02*
X20550Y-4645D01*
X20550Y-4645D02*
X20440Y-4755D01*
X20440Y-4755D02*
X20070Y-5125D01*
X20070Y-5125D02*
X20240Y-4955D01*
X20240Y-4955D02*
X20017Y-5177D01*
X20017Y-5177D02*
X19820Y-5375D01*
X19820Y-5375D02*
X19310Y-5885D01*
X19310Y-5885D02*
X17625Y-5885D01*
G54D67*
X20850Y-2509D02*
X21423Y-2509D01*
X21423Y-2509D02*
X21609Y-2695D01*
G54D70*
X21609Y-1321D02*
X21366Y-1321D01*
G54D69*
X21609Y-1321D02*
X21609Y-2695D01*
X21609Y-2695D02*
X21609Y-3765D01*
X21609Y-3765D02*
X21560Y-3815D01*
G54D67*
X15961Y-529D02*
X15961Y-516D01*
G54D75*
X31475Y-5700D02*
X32475Y-5700D01*
G54D73*
X8914Y-7148D02*
X8914Y-5240D01*
G54D67*
X13360Y-13195D02*
X13375Y-13210D01*
G54D70*
X16054Y-529D02*
X15961Y-529D01*
X20730Y-6135D02*
X20730Y-5705D01*
X20970Y-5465D02*
X21290Y-5465D01*
X20730Y-5705D02*
X20970Y-5465D01*
X10961Y-529D02*
X11124Y-529D01*
X13885Y-529D02*
X13992Y-529D01*
X13590Y-825D02*
X13885Y-529D01*
X11420Y-825D02*
X13590Y-825D01*
X11124Y-529D02*
X11420Y-825D01*
X14977Y-529D02*
X13992Y-529D01*
X15961Y-529D02*
X14977Y-529D01*
G54D72*
X11080Y-12581D02*
X11080Y-13105D01*
X11080Y-13105D02*
X11170Y-13195D01*
G54D67*
X11170Y-13195D02*
X11170Y-13515D01*
G54D72*
X8324Y-12581D02*
X8324Y-13149D01*
G54D67*
X8370Y-13195D02*
X8370Y-13505D01*
G54D72*
X8324Y-13149D02*
X8370Y-13195D01*
G54D73*
X7720Y-14105D02*
X7740Y-14105D01*
X8340Y-13505D02*
X8370Y-13505D01*
X7740Y-14105D02*
X8340Y-13505D01*
G54D72*
X14090Y-10757D02*
X16887Y-10757D01*
G54D67*
X17124Y-9180D02*
X16825Y-9180D01*
G54D72*
X17125Y-10520D02*
X17125Y-10289D01*
X16887Y-10757D02*
X17125Y-10520D01*
G54D67*
X17125Y-9181D02*
X17124Y-9180D01*
X17119Y-10295D02*
X17125Y-10289D01*
X16820Y-10295D02*
X17119Y-10295D01*
X31530Y-3680D02*
X31530Y-3000D01*
X31530Y-3000D02*
X31670Y-2860D01*
G54D69*
X30000Y-2860D02*
X31670Y-2860D01*
X31670Y-2860D02*
X31745Y-2860D01*
X36170Y-7285D02*
X37481Y-7285D01*
X37481Y-7285D02*
X37486Y-7290D01*
X31745Y-2860D02*
X36170Y-7285D01*
X30000Y-2075D02*
X30000Y-2860D01*
X29680Y-3180D02*
X29680Y-3756D01*
X30000Y-2860D02*
X29680Y-3180D01*
X37964Y-30397D02*
X39154Y-30397D01*
X40798Y-30393D02*
X41724Y-30393D01*
X39154Y-30397D02*
X39158Y-30393D01*
G54D68*
X37964Y-30915D02*
X37964Y-30397D01*
G54D69*
X36552Y-30397D02*
X37964Y-30397D01*
X37486Y-7290D02*
X37486Y-10678D01*
X37486Y-10678D02*
X37186Y-10978D01*
X37186Y-10978D02*
X37030Y-11135D01*
X41724Y-29488D02*
X41724Y-30393D01*
X41724Y-30393D02*
X43942Y-30393D01*
X52592Y-21502D02*
X52592Y-21742D01*
X43942Y-30393D02*
X52592Y-21742D01*
G54D76*
X42765Y-11135D02*
X42765Y-11154D01*
G54D69*
X37030Y-11135D02*
X37090Y-11135D01*
X37200Y-11135D02*
X37090Y-11135D01*
G54D76*
X37200Y-11135D02*
X42765Y-11135D01*
G54D69*
X43386Y-11756D02*
X43655Y-12025D01*
G54D76*
X42765Y-11154D02*
X43386Y-11775D01*
X43386Y-11775D02*
X43386Y-11756D01*
G54D67*
X35749Y-20042D02*
X36291Y-20042D01*
X5710Y-20003D02*
X6252Y-20003D01*
X6252Y-20003D02*
X6252Y-21034D01*
X6252Y-21034D02*
X6260Y-21043D01*
G54D75*
X18680Y-21043D02*
X6260Y-21043D01*
X6260Y-21043D02*
X5804Y-21499D01*
G54D67*
X35749Y-20042D02*
X35749Y-20859D01*
X35749Y-20859D02*
X35843Y-20953D01*
G54D75*
X35843Y-21538D02*
X35843Y-20953D01*
X35843Y-20953D02*
X35843Y-20937D01*
X35843Y-20937D02*
X35806Y-20900D01*
X35806Y-20900D02*
X35790Y-20900D01*
X35790Y-20900D02*
X35790Y-20937D01*
G54D71*
X28420Y-21770D02*
X29253Y-20937D01*
X29253Y-20937D02*
X35790Y-20937D01*
X18680Y-21780D02*
X26280Y-21780D01*
X35790Y-20937D02*
X36163Y-20937D01*
X36163Y-20937D02*
X48692Y-20937D01*
G54D67*
X23323Y-1806D02*
X23555Y-1575D01*
X23323Y-2994D02*
X23323Y-1806D01*
X22498Y-3820D02*
X23323Y-2994D01*
X22380Y-3820D02*
X22498Y-3820D01*
G54D70*
X9892Y-15953D02*
X9892Y-15507D01*
X9892Y-15507D02*
X9840Y-15455D01*
X9839Y-15455D02*
X9839Y-15455D01*
X9840Y-15455D02*
X9839Y-15455D01*
G54D71*
X48694Y-21747D02*
X49320Y-21747D01*
X52348Y-21747D02*
X52592Y-21502D01*
X49320Y-21747D02*
X52348Y-21747D01*
G54D69*
X43655Y-12025D02*
X43655Y-14278D01*
X52592Y-17957D02*
X52592Y-21502D01*
X50556Y-15921D02*
X52592Y-17957D01*
X45298Y-15921D02*
X50556Y-15921D01*
X43655Y-14278D02*
X45298Y-15921D01*
G54D67*
X48692Y-20937D02*
X48692Y-20893D01*
X48692Y-20893D02*
X49190Y-20395D01*
G54D75*
X48690Y-20935D02*
X48692Y-20937D01*
G54D67*
X18680Y-21043D02*
X18680Y-20679D01*
X19009Y-20350D02*
X19185Y-20350D01*
X18680Y-20679D02*
X19009Y-20350D01*
G54D75*
X18678Y-21041D02*
X18680Y-21043D01*
G54D72*
X39902Y-15943D02*
X39902Y-17207D01*
X39902Y-17207D02*
X40130Y-17435D01*
G54D70*
X44510Y-18160D02*
X43900Y-18160D01*
X43900Y-18160D02*
X43897Y-18157D01*
X10120Y-18065D02*
X10370Y-18065D01*
X10370Y-18065D02*
X10420Y-18115D01*
X10120Y-18065D02*
X9984Y-18065D01*
X9984Y-18065D02*
X9892Y-18157D01*
X49189Y-19254D02*
X49189Y-19054D01*
X47360Y-17745D02*
X47040Y-17745D01*
X47460Y-17845D02*
X47360Y-17745D01*
X47460Y-18705D02*
X47460Y-17845D01*
X47570Y-18815D02*
X47460Y-18705D01*
X48950Y-18815D02*
X47570Y-18815D01*
X49189Y-19054D02*
X48950Y-18815D01*
X19189Y-19254D02*
X19189Y-19139D01*
X17225Y-17700D02*
X16900Y-17700D01*
X17400Y-17875D02*
X17225Y-17700D01*
X17400Y-18645D02*
X17400Y-17875D01*
X17570Y-18815D02*
X17400Y-18645D01*
X18865Y-18815D02*
X17570Y-18815D01*
X19189Y-19139D02*
X18865Y-18815D01*
X14440Y-18152D02*
X14440Y-17909D01*
X16850Y-17650D02*
X16900Y-17700D01*
X14700Y-17650D02*
X16850Y-17650D01*
X14440Y-17909D02*
X14700Y-17650D01*
X44510Y-18160D02*
X44510Y-17915D01*
X44510Y-17915D02*
X44725Y-17700D01*
X44725Y-17700D02*
X46995Y-17700D01*
X46995Y-17700D02*
X47040Y-17745D01*
X40150Y-18050D02*
X39999Y-18050D01*
X40450Y-18155D02*
X40345Y-18050D01*
X40150Y-18050D02*
X40345Y-18050D01*
X39999Y-18050D02*
X39902Y-18147D01*
X44507Y-18157D02*
X44510Y-18160D01*
X40442Y-18147D02*
X40450Y-18155D01*
G54D67*
X19189Y-19254D02*
X19189Y-20345D01*
X19189Y-20345D02*
X19185Y-20350D01*
X49189Y-19254D02*
X49189Y-20394D01*
X49189Y-20394D02*
X49190Y-20395D01*
X35749Y-20042D02*
X35749Y-19309D01*
X35749Y-19309D02*
X35804Y-19254D01*
X35749Y-21444D02*
X35843Y-21538D01*
X35340Y-11405D02*
X35340Y-10759D01*
X35340Y-10759D02*
X34977Y-10397D01*
X5710Y-20003D02*
X5710Y-19348D01*
X5710Y-19348D02*
X5804Y-19254D01*
G54D70*
X9892Y-18157D02*
X9900Y-17990D01*
X10405Y-17990D02*
X10420Y-18115D01*
X13904Y-18152D02*
X14440Y-18152D01*
X14440Y-18152D02*
X14440Y-18152D01*
G54D71*
X22690Y-53860D02*
X28210Y-53860D01*
X28938Y-53131D02*
X31758Y-53131D01*
X28210Y-53860D02*
X28938Y-53131D01*
G54D74*
X33340Y-47080D02*
X33340Y-51550D01*
X33340Y-51550D02*
X31758Y-53131D01*
X31758Y-53131D02*
X31758Y-53930D01*
X38110Y-43420D02*
X42750Y-43420D01*
X42750Y-43420D02*
X44205Y-44875D01*
X44205Y-44875D02*
X45680Y-44875D01*
X38110Y-45280D02*
X36310Y-47080D01*
X36310Y-47080D02*
X36130Y-47080D01*
X38110Y-45270D02*
X38110Y-45280D01*
G54D75*
X45340Y-48904D02*
X45340Y-46050D01*
X45340Y-46050D02*
X45680Y-45710D01*
X45680Y-45710D02*
X45680Y-44875D01*
X45868Y-49951D02*
X45868Y-49433D01*
X45340Y-48904D02*
X45868Y-49433D01*
G54D67*
X43220Y-58070D02*
X43220Y-59188D01*
X43220Y-59188D02*
X43218Y-59190D01*
X43220Y-58070D02*
X43220Y-58160D01*
X43928Y-57451D02*
X45160Y-57451D01*
X43220Y-58160D02*
X43928Y-57451D01*
X33440Y-45530D02*
X33440Y-46980D01*
X33440Y-46980D02*
X33340Y-47080D01*
X28520Y-40590D02*
X28520Y-40610D01*
X33440Y-45530D02*
X32870Y-44960D01*
X28520Y-40610D02*
X31920Y-44010D01*
X17730Y-55890D02*
X17730Y-56370D01*
X17730Y-56370D02*
X17720Y-56380D01*
X20590Y-55890D02*
X17730Y-55890D01*
X17730Y-55890D02*
X16930Y-55890D01*
X21100Y-54900D02*
X21200Y-54800D01*
X21200Y-54800D02*
X22590Y-54800D01*
X22690Y-54900D02*
X22590Y-54800D01*
X16850Y-55970D02*
X16850Y-56270D01*
X16930Y-55890D02*
X16850Y-55970D01*
X23720Y-55160D02*
X22950Y-55160D01*
X22950Y-55160D02*
X22690Y-54900D01*
G54D71*
X19024Y-49244D02*
X13780Y-49244D01*
G54D67*
X45320Y-50010D02*
X45810Y-50010D01*
X43260Y-50008D02*
X43512Y-50008D01*
X43512Y-50008D02*
X43520Y-50000D01*
X45810Y-50010D02*
X45868Y-49951D01*
G54D74*
X33340Y-47080D02*
X31830Y-47080D01*
G54D68*
X43260Y-50420D02*
X43260Y-50008D01*
X43260Y-50008D02*
X42780Y-49528D01*
G54D67*
X31840Y-39820D02*
X31840Y-40160D01*
X30880Y-40160D02*
X30880Y-39820D01*
X29920Y-40160D02*
X29920Y-39820D01*
X28960Y-40160D02*
X28960Y-39820D01*
X13520Y-51540D02*
X13520Y-51000D01*
X13520Y-51000D02*
X13780Y-50740D01*
X13780Y-50740D02*
X14240Y-50740D01*
X14240Y-50740D02*
X14340Y-50840D01*
X23720Y-55160D02*
X24480Y-55160D01*
X24480Y-55160D02*
X24490Y-55150D01*
G54D75*
X45868Y-49951D02*
X45868Y-50816D01*
X45868Y-54225D02*
X45160Y-54934D01*
X45160Y-54934D02*
X45160Y-57451D01*
X45160Y-57451D02*
X45860Y-58151D01*
X45868Y-50816D02*
X45868Y-54225D01*
G54D71*
X19580Y-53150D02*
X19940Y-53150D01*
X19940Y-53150D02*
X20650Y-53860D01*
X20650Y-53860D02*
X22500Y-53860D01*
X22500Y-53860D02*
X22690Y-53860D01*
X19580Y-52150D02*
X19580Y-49800D01*
X19580Y-49800D02*
X19024Y-49244D01*
G54D77*
X52418Y-2247D02*
X52418Y-3251D01*
X54111Y-4943D02*
X54111Y-5829D01*
X52418Y-3251D02*
X54111Y-4943D01*
G54D67*
X30930Y-3680D02*
X30930Y-4155D01*
X30930Y-4155D02*
X31475Y-4700D01*
G54D71*
X53634Y-27797D02*
X53622Y-27797D01*
X53622Y-27797D02*
X52980Y-28440D01*
X53634Y-27797D02*
X53647Y-27797D01*
X53647Y-27797D02*
X54240Y-28390D01*
X53634Y-27797D02*
X53634Y-27795D01*
X53634Y-27795D02*
X54160Y-27270D01*
X53634Y-27797D02*
X53617Y-27797D01*
X53617Y-27797D02*
X52990Y-27170D01*
X51665Y-26222D02*
X51665Y-26245D01*
X51665Y-26245D02*
X52260Y-26840D01*
X51665Y-26222D02*
X51665Y-26234D01*
X51665Y-26234D02*
X50970Y-26930D01*
X51665Y-26222D02*
X51677Y-26222D01*
X51677Y-26222D02*
X52340Y-25560D01*
X51665Y-26222D02*
X51665Y-26205D01*
X51665Y-26205D02*
X51060Y-25600D01*
G54D72*
X54450Y-27010D02*
X53650Y-27010D01*
X53650Y-27010D02*
X52650Y-27010D01*
X52650Y-28610D02*
X52650Y-27810D01*
X52650Y-27810D02*
X52650Y-27010D01*
X52650Y-25410D02*
X52650Y-26210D01*
X52650Y-26210D02*
X52650Y-27010D01*
X52650Y-27010D02*
X51650Y-27010D01*
X53437Y-27797D02*
X52650Y-27010D01*
X53437Y-27797D02*
X53634Y-27797D01*
X34640Y-53600D02*
X34642Y-53602D01*
X34640Y-53600D02*
X34640Y-53604D01*
X32610Y-55630D02*
X32612Y-55632D01*
G54D68*
X30850Y-57780D02*
X30850Y-58160D01*
G54D72*
X35275Y-51530D02*
X35275Y-52590D01*
X35275Y-52590D02*
X35275Y-53850D01*
X35275Y-53850D02*
X35275Y-53860D01*
X35275Y-51530D02*
X35275Y-50530D01*
X35275Y-50530D02*
X35275Y-49530D01*
X35280Y-42740D02*
X35275Y-42740D01*
X35275Y-49530D02*
X35275Y-48530D01*
X35275Y-48530D02*
X35275Y-47530D01*
X35275Y-47530D02*
X35275Y-45865D01*
X35275Y-45865D02*
X35275Y-44810D01*
X35275Y-44810D02*
X35275Y-43785D01*
X35275Y-43785D02*
X35275Y-42740D01*
X32155Y-56980D02*
X31300Y-56980D01*
X35275Y-53860D02*
X34462Y-54672D01*
X34462Y-54672D02*
X33762Y-55372D01*
X33762Y-55372D02*
X33052Y-56082D01*
X33052Y-56082D02*
X32155Y-56980D01*
X30590Y-56340D02*
X31904Y-56340D01*
X34644Y-43785D02*
X34644Y-42744D01*
X34644Y-44810D02*
X34644Y-43785D01*
X34644Y-45865D02*
X34644Y-44810D01*
X34644Y-47530D02*
X34644Y-45865D01*
X34644Y-42744D02*
X34640Y-42740D01*
X34644Y-48530D02*
X34644Y-47530D01*
X34644Y-49530D02*
X34644Y-48530D01*
X34644Y-50530D02*
X34644Y-49530D01*
X34644Y-51530D02*
X34644Y-50530D01*
X34640Y-51534D02*
X34644Y-51530D01*
X34640Y-53604D02*
X34640Y-53600D01*
X34640Y-53600D02*
X34640Y-52600D01*
X34640Y-52600D02*
X34640Y-51534D01*
X31904Y-56340D02*
X32612Y-55632D01*
X32612Y-55632D02*
X33272Y-54972D01*
X33272Y-54972D02*
X33977Y-54267D01*
X33977Y-54267D02*
X34640Y-53604D01*
G54D68*
X28440Y-43410D02*
X28440Y-43020D01*
G54D72*
X27490Y-45070D02*
X28550Y-45070D01*
X29555Y-45063D02*
X28556Y-45063D01*
X33785Y-43550D02*
X32271Y-45063D01*
X34310Y-43025D02*
X33785Y-43550D01*
X31555Y-45063D02*
X30555Y-45063D01*
X32271Y-45063D02*
X31555Y-45063D01*
X34310Y-43025D02*
X34310Y-42740D01*
X30555Y-45063D02*
X29555Y-45063D01*
X28556Y-45063D02*
X28550Y-45070D01*
X29555Y-44433D02*
X28853Y-44433D01*
X33670Y-42740D02*
X33670Y-42774D01*
X32010Y-44433D02*
X31630Y-44433D01*
X31630Y-44433D02*
X31555Y-44433D01*
X31555Y-44433D02*
X30555Y-44433D01*
X30555Y-44433D02*
X29555Y-44433D01*
X33670Y-42774D02*
X33302Y-43142D01*
X33302Y-43142D02*
X33254Y-43189D01*
X33254Y-43189D02*
X32010Y-44433D01*
X28853Y-44433D02*
X28850Y-44430D01*
G54D68*
X25530Y-51560D02*
X25390Y-51560D01*
X25390Y-51560D02*
X25130Y-51820D01*
G54D67*
X38917Y-41705D02*
X39285Y-41705D01*
X39285Y-41705D02*
X39350Y-41640D01*
X40350Y-38220D02*
X40810Y-38220D01*
G54D68*
X39870Y-28945D02*
X39409Y-28945D01*
X39409Y-28945D02*
X39401Y-28937D01*
G54D72*
X48398Y-39574D02*
X48398Y-38774D01*
X48398Y-40374D02*
X49198Y-40374D01*
X49998Y-40374D02*
X50798Y-40374D01*
X51598Y-40374D02*
X51598Y-39574D01*
X51598Y-38774D02*
X51598Y-37974D01*
X51598Y-37174D02*
X50798Y-37174D01*
X49998Y-37174D02*
X49198Y-37174D01*
X48398Y-37174D02*
X48398Y-37974D01*
X48398Y-38774D02*
X48398Y-38774D01*
X49998Y-38774D02*
X48398Y-38774D01*
X48398Y-37974D02*
X48398Y-38774D01*
X49198Y-37174D02*
X48398Y-37174D01*
X50798Y-37174D02*
X49998Y-37174D01*
X51598Y-37974D02*
X51598Y-37174D01*
X51598Y-39574D02*
X51598Y-38774D01*
X50798Y-40374D02*
X51598Y-40374D01*
X49198Y-40374D02*
X49998Y-40374D01*
X48398Y-39574D02*
X48398Y-40374D01*
X49998Y-38774D02*
X48798Y-38774D01*
X48798Y-38774D02*
X48798Y-38774D01*
G54D78*
X49998Y-38774D02*
X49998Y-40198D01*
X49998Y-40198D02*
X49998Y-40199D01*
X49998Y-38774D02*
X48373Y-38774D01*
X48373Y-38774D02*
X48373Y-38774D01*
X49998Y-38774D02*
X49998Y-37324D01*
X49998Y-37324D02*
X49998Y-37324D01*
X49998Y-38774D02*
X51622Y-38774D01*
X51622Y-38774D02*
X51623Y-38774D01*
G54D79*
X48866Y-13615D02*
X48866Y-14965D01*
G54D72*
X44366Y-9615D02*
X45366Y-9615D01*
X51866Y-11615D02*
X51866Y-10115D01*
X51366Y-9615D02*
X50866Y-9615D01*
X51866Y-10115D02*
X51366Y-9615D01*
X51866Y-14615D02*
X51866Y-15615D01*
X50866Y-14615D02*
X50866Y-13616D01*
X51866Y-14615D02*
X52866Y-14615D01*
X52866Y-13615D02*
X51866Y-13615D01*
X51866Y-12615D02*
X51866Y-13615D01*
X52866Y-14615D02*
X52866Y-13615D01*
X50866Y-14615D02*
X51866Y-14615D01*
X50866Y-13616D02*
X50865Y-13615D01*
X50866Y-12615D02*
X51866Y-12615D01*
X51866Y-11615D02*
X50866Y-11615D01*
X49866Y-11615D02*
X48866Y-11615D01*
X50866Y-11615D02*
X49866Y-11615D01*
X51866Y-12615D02*
X51866Y-11615D01*
X44366Y-10615D02*
X45366Y-10615D01*
X45366Y-10615D02*
X45366Y-9615D01*
X46366Y-9615D02*
X47866Y-9615D01*
X48866Y-9615D02*
X48866Y-10615D01*
X48866Y-10615D02*
X48866Y-11615D01*
X47866Y-9615D02*
X48866Y-9615D01*
X45366Y-9615D02*
X46366Y-9615D01*
X46366Y-13615D02*
X46366Y-14615D01*
X45366Y-14615D02*
X45366Y-13615D01*
X47366Y-13615D02*
X46366Y-13615D01*
X45366Y-13615D02*
X46366Y-13615D01*
X46366Y-14615D02*
X45366Y-14615D01*
G54D79*
X50865Y-13615D02*
X50665Y-13615D01*
G54D69*
X50665Y-13615D02*
X50685Y-13595D01*
G54D72*
X48866Y-13615D02*
X49266Y-13615D01*
X48866Y-13615D02*
X48466Y-13615D01*
G54D79*
X48866Y-13615D02*
X46866Y-13615D01*
G54D72*
X48866Y-13615D02*
X48865Y-13615D01*
X48866Y-13615D02*
X48465Y-13615D01*
X48866Y-13615D02*
X49265Y-13615D01*
X49265Y-13615D02*
X49665Y-14015D01*
X48866Y-13615D02*
X48866Y-14016D01*
X48866Y-14016D02*
X49265Y-14415D01*
X48866Y-13615D02*
X48866Y-14014D01*
X48866Y-14014D02*
X48465Y-14415D01*
X48465Y-13615D02*
X48065Y-14015D01*
X48866Y-13615D02*
X48866Y-13614D01*
X48866Y-13614D02*
X49665Y-12815D01*
X49265Y-13615D02*
X49665Y-13215D01*
X48866Y-13614D02*
X49265Y-13215D01*
X48866Y-13615D02*
X48866Y-13214D01*
X48866Y-13214D02*
X49265Y-12815D01*
X48866Y-13615D02*
X48866Y-13216D01*
X48866Y-13216D02*
X48465Y-12815D01*
X48465Y-13615D02*
X48065Y-13215D01*
X48865Y-13615D02*
X48065Y-12815D01*
X48865Y-13615D02*
X48465Y-13215D01*
X48866Y-13616D02*
X49665Y-14415D01*
X48866Y-13615D02*
X48866Y-14414D01*
X48866Y-14414D02*
X48865Y-14415D01*
X48866Y-14014D02*
X48865Y-14015D01*
X48866Y-13615D02*
X48866Y-12816D01*
X48866Y-12816D02*
X48865Y-12815D01*
X48866Y-13216D02*
X48865Y-13215D01*
X48866Y-13615D02*
X48065Y-13615D01*
X48866Y-13615D02*
X49665Y-13615D01*
G54D79*
X48866Y-13615D02*
X50865Y-13615D01*
X48866Y-13615D02*
X48866Y-11769D01*
G54D69*
X48866Y-11769D02*
X48875Y-11760D01*
G54D72*
X48866Y-11615D02*
X47366Y-11615D01*
X47366Y-12615D02*
X47366Y-13615D01*
X47366Y-13615D02*
X47366Y-14615D01*
X47366Y-11615D02*
X47366Y-12615D01*
G54D68*
X39988Y-5773D02*
X39499Y-5773D01*
X39499Y-5773D02*
X39491Y-5765D01*
G54D74*
X41840Y-5985D02*
X41840Y-5141D01*
X41840Y-5141D02*
X41841Y-5140D01*
X41840Y-5985D02*
X42411Y-5985D01*
X42411Y-5985D02*
X42416Y-5990D01*
X41840Y-5985D02*
X41271Y-5985D01*
X41271Y-5985D02*
X41266Y-5990D01*
G54D72*
X49998Y-38774D02*
X49998Y-38778D01*
X49998Y-38778D02*
X50795Y-39575D01*
X49998Y-38774D02*
X49998Y-39178D01*
X49998Y-39178D02*
X50395Y-39575D01*
X49998Y-38774D02*
X49998Y-39571D01*
X49998Y-39571D02*
X49995Y-39575D01*
X49998Y-38774D02*
X49998Y-39171D01*
X49998Y-39171D02*
X49595Y-39575D01*
X49998Y-38774D02*
X49995Y-38774D01*
X49995Y-38774D02*
X49195Y-39575D01*
X49998Y-38774D02*
X49595Y-38774D01*
X49595Y-38774D02*
X49195Y-39175D01*
X49995Y-38774D02*
X49595Y-39175D01*
X49998Y-39171D02*
X49995Y-39175D01*
X49998Y-38778D02*
X50395Y-39175D01*
X49998Y-38774D02*
X50394Y-38774D01*
X50394Y-38774D02*
X50795Y-39175D01*
X49998Y-38774D02*
X49998Y-38771D01*
X49998Y-38771D02*
X50795Y-37975D01*
X49998Y-38774D02*
X50395Y-38774D01*
X50395Y-38774D02*
X50795Y-38375D01*
X49998Y-38771D02*
X50395Y-38375D01*
X49998Y-38774D02*
X49998Y-38371D01*
X49998Y-38371D02*
X50395Y-37975D01*
X49998Y-38774D02*
X49998Y-37978D01*
X49998Y-37978D02*
X49995Y-37975D01*
X49998Y-38774D02*
X49998Y-38378D01*
X49998Y-38378D02*
X49995Y-38375D01*
X49998Y-38774D02*
X49994Y-38774D01*
X49994Y-38774D02*
X49595Y-38375D01*
X49998Y-38378D02*
X49595Y-37975D01*
X49994Y-38774D02*
X49195Y-37975D01*
X49998Y-38774D02*
X49594Y-38774D01*
X49594Y-38774D02*
X49195Y-38375D01*
X49998Y-38774D02*
X49195Y-38774D01*
X49195Y-38774D02*
X49195Y-38775D01*
X49595Y-38774D02*
X49595Y-38775D01*
X49998Y-38774D02*
X50794Y-38774D01*
X50794Y-38774D02*
X50795Y-38775D01*
X50394Y-38774D02*
X50395Y-38775D01*
G54D67*
X3600Y-4825D02*
X4025Y-4825D01*
G54D70*
X34735Y-39165D02*
X34735Y-39455D01*
X34735Y-39455D02*
X34880Y-39600D01*
X33335Y-39185D02*
X33335Y-39455D01*
X33335Y-39455D02*
X33480Y-39600D01*
G54D67*
X31920Y-38290D02*
X31920Y-38090D01*
X31920Y-38090D02*
X32290Y-37720D01*
G54D73*
X8521Y-12581D02*
X8521Y-12008D01*
X8521Y-12008D02*
X8590Y-11940D01*
G54D72*
X43952Y-53932D02*
X43955Y-53930D01*
X43040Y-55370D02*
X43035Y-55370D01*
X44540Y-51670D02*
X44535Y-51670D01*
X43040Y-54845D02*
X43040Y-55370D01*
X43040Y-55370D02*
X43040Y-56370D01*
X43952Y-53932D02*
X43512Y-54372D01*
X43512Y-54372D02*
X43040Y-54845D01*
X43955Y-52250D02*
X43955Y-53040D01*
X43955Y-53040D02*
X43955Y-53930D01*
X44535Y-51670D02*
X43955Y-52250D01*
X42400Y-56370D02*
X42400Y-55370D01*
X42400Y-55370D02*
X42400Y-54594D01*
X43324Y-51985D02*
X43920Y-51390D01*
X43324Y-53669D02*
X43324Y-52740D01*
X43324Y-52740D02*
X43324Y-51985D01*
X42400Y-54594D02*
X42862Y-54132D01*
X42862Y-54132D02*
X43324Y-53669D01*
X8220Y-59204D02*
X8210Y-59204D01*
X7060Y-58050D02*
X7060Y-58054D01*
X43500Y-56576D02*
X43500Y-56570D01*
X42198Y-56576D02*
X43500Y-56576D01*
X39569Y-59204D02*
X39782Y-58992D01*
X39782Y-58992D02*
X40382Y-58392D01*
X40382Y-58392D02*
X41107Y-57667D01*
X41107Y-57667D02*
X42198Y-56576D01*
X8220Y-59204D02*
X9200Y-59204D01*
X9200Y-59204D02*
X10200Y-59204D01*
X10200Y-59204D02*
X11200Y-59204D01*
X11200Y-59204D02*
X12200Y-59204D01*
X12200Y-59204D02*
X13200Y-59204D01*
X13200Y-59204D02*
X14200Y-59204D01*
X14200Y-59204D02*
X15190Y-59204D01*
X15190Y-59204D02*
X16200Y-59204D01*
X16200Y-59204D02*
X17170Y-59204D01*
X17170Y-59204D02*
X18190Y-59204D01*
X18190Y-59204D02*
X19200Y-59204D01*
X19200Y-59204D02*
X20200Y-59204D01*
X20200Y-59204D02*
X21200Y-59204D01*
X21200Y-59204D02*
X22190Y-59204D01*
X22190Y-59204D02*
X23200Y-59204D01*
X23200Y-59204D02*
X24200Y-59204D01*
X24200Y-59204D02*
X25200Y-59204D01*
X25200Y-59204D02*
X26200Y-59204D01*
X26200Y-59204D02*
X27200Y-59204D01*
X27200Y-59204D02*
X28200Y-59204D01*
X28200Y-59204D02*
X29200Y-59204D01*
X29200Y-59204D02*
X30200Y-59204D01*
X30200Y-59204D02*
X31200Y-59204D01*
X31200Y-59204D02*
X32200Y-59204D01*
X32200Y-59204D02*
X33200Y-59204D01*
X33200Y-59204D02*
X34200Y-59204D01*
X34200Y-59204D02*
X35190Y-59204D01*
X35190Y-59204D02*
X36210Y-59204D01*
X36210Y-59204D02*
X37200Y-59204D01*
X37200Y-59204D02*
X38200Y-59204D01*
X38200Y-59204D02*
X39200Y-59204D01*
X39200Y-59204D02*
X39569Y-59204D01*
X7060Y-58054D02*
X7597Y-58592D01*
X7597Y-58592D02*
X8210Y-59204D01*
X7190Y-59080D02*
X7192Y-59077D01*
X40202Y-59462D02*
X39830Y-59835D01*
X40912Y-58752D02*
X40202Y-59462D01*
X41607Y-58057D02*
X40912Y-58752D01*
X42455Y-57210D02*
X41607Y-58057D01*
X9200Y-59835D02*
X7945Y-59835D01*
X10200Y-59835D02*
X9200Y-59835D01*
X11200Y-59835D02*
X10200Y-59835D01*
X12200Y-59835D02*
X11200Y-59835D01*
X13200Y-59835D02*
X12200Y-59835D01*
X14200Y-59835D02*
X13200Y-59835D01*
X15200Y-59835D02*
X14200Y-59835D01*
X16200Y-59835D02*
X15200Y-59835D01*
X17200Y-59835D02*
X16200Y-59835D01*
X18200Y-59835D02*
X17200Y-59835D01*
X19200Y-59835D02*
X18200Y-59835D01*
X20200Y-59835D02*
X19200Y-59835D01*
X21200Y-59835D02*
X20200Y-59835D01*
X22200Y-59835D02*
X21200Y-59835D01*
X23200Y-59835D02*
X22200Y-59835D01*
X24200Y-59835D02*
X23200Y-59835D01*
X25200Y-59835D02*
X24200Y-59835D01*
X26200Y-59835D02*
X25200Y-59835D01*
X27200Y-59835D02*
X26200Y-59835D01*
X28200Y-59835D02*
X27200Y-59835D01*
X29200Y-59835D02*
X28200Y-59835D01*
X30200Y-59835D02*
X29200Y-59835D01*
X31200Y-59835D02*
X30200Y-59835D01*
X32200Y-59835D02*
X31200Y-59835D01*
X33200Y-59835D02*
X32200Y-59835D01*
X34200Y-59835D02*
X33200Y-59835D01*
X35200Y-59835D02*
X34200Y-59835D01*
X36200Y-59835D02*
X35200Y-59835D01*
X37200Y-59835D02*
X36200Y-59835D01*
X38200Y-59835D02*
X37200Y-59835D01*
X39200Y-59835D02*
X38200Y-59835D01*
X39830Y-59835D02*
X39200Y-59835D01*
X7945Y-59835D02*
X7190Y-59080D01*
X43500Y-57210D02*
X42455Y-57210D01*
X4180Y-50300D02*
X4180Y-50295D01*
X5180Y-50295D02*
X5180Y-50295D01*
X5985Y-49490D02*
X5180Y-50295D01*
X5180Y-50295D02*
X4180Y-50295D01*
X5990Y-49490D02*
X5985Y-49490D01*
X647Y-50837D02*
X650Y-50840D01*
X1190Y-50295D02*
X647Y-50837D01*
X4180Y-50295D02*
X3180Y-50295D01*
X3180Y-50295D02*
X2180Y-50295D01*
X2180Y-50295D02*
X1190Y-50295D01*
X160Y-50430D02*
X164Y-50430D01*
X5540Y-49044D02*
X5540Y-49040D01*
X4919Y-49664D02*
X5540Y-49044D01*
X929Y-49664D02*
X1180Y-49664D01*
X1180Y-49664D02*
X2180Y-49664D01*
X2180Y-49664D02*
X3180Y-49664D01*
X3180Y-49664D02*
X4180Y-49664D01*
X4180Y-49664D02*
X4919Y-49664D01*
X164Y-50430D02*
X597Y-49997D01*
X597Y-49997D02*
X929Y-49664D01*
X7190Y-59080D02*
X6600Y-58490D01*
G54D68*
X36410Y-55030D02*
X36410Y-55620D01*
X38580Y-56660D02*
X38580Y-56230D01*
X18320Y-56380D02*
X18750Y-56380D01*
G54D72*
X36430Y-43617D02*
X36702Y-43889D01*
X39860Y-43889D02*
X40014Y-43889D01*
X38860Y-43889D02*
X39860Y-43889D01*
X36720Y-43889D02*
X38860Y-43889D01*
X36702Y-43889D02*
X36720Y-43889D01*
X40462Y-44337D02*
X40997Y-44872D01*
X40014Y-43889D02*
X40462Y-44337D01*
X40997Y-44872D02*
X41000Y-44870D01*
X36430Y-42850D02*
X36430Y-43617D01*
X36430Y-41850D02*
X36430Y-42850D01*
X36430Y-40850D02*
X36430Y-41850D01*
X35550Y-43954D02*
X36345Y-44750D01*
X38860Y-44750D02*
X39480Y-44750D01*
X36360Y-44750D02*
X38860Y-44750D01*
X39480Y-44750D02*
X39910Y-45180D01*
X35550Y-43850D02*
X35550Y-43954D01*
X35550Y-42850D02*
X35550Y-43850D01*
X36360Y-44750D02*
X36345Y-44750D01*
X40214Y-44870D02*
X39664Y-44319D01*
X38860Y-44319D02*
X36524Y-44319D01*
X39664Y-44319D02*
X38860Y-44319D01*
X36524Y-44319D02*
X35985Y-43780D01*
X35985Y-41850D02*
X35985Y-40850D01*
X35985Y-42850D02*
X35985Y-41850D01*
X35985Y-43770D02*
X35985Y-42850D01*
X35985Y-40850D02*
X35990Y-40850D01*
X40220Y-44870D02*
X40214Y-44870D01*
X35985Y-43770D02*
X35985Y-43780D01*
X35550Y-42850D02*
X35554Y-42850D01*
X35550Y-40850D02*
X35550Y-41850D01*
X35550Y-41850D02*
X35550Y-42850D01*
X33050Y-33024D02*
X33309Y-33024D01*
X28789Y-32385D02*
X29429Y-33024D01*
X28500Y-32095D02*
X28789Y-32385D01*
X32025Y-33024D02*
X33050Y-33024D01*
X31035Y-33024D02*
X32025Y-33024D01*
X29430Y-33024D02*
X31035Y-33024D01*
X34864Y-34580D02*
X35985Y-35700D01*
X34239Y-33955D02*
X34864Y-34580D01*
X33607Y-33322D02*
X34239Y-33955D01*
X33309Y-33024D02*
X33607Y-33322D01*
X35985Y-37840D02*
X35985Y-38450D01*
X35985Y-36840D02*
X35985Y-37840D01*
X35985Y-35700D02*
X35985Y-36840D01*
X35985Y-38450D02*
X35990Y-38450D01*
X28500Y-31630D02*
X28500Y-32095D01*
X29430Y-33024D02*
X29429Y-33024D01*
X35550Y-37845D02*
X35554Y-37845D01*
X29664Y-32010D02*
X30039Y-32384D01*
X29290Y-31635D02*
X29664Y-32010D01*
X33040Y-32384D02*
X33629Y-32384D01*
X32040Y-32384D02*
X33040Y-32384D01*
X31040Y-32384D02*
X32040Y-32384D01*
X30050Y-32384D02*
X31040Y-32384D01*
X36142Y-34897D02*
X36625Y-35380D01*
X35342Y-34097D02*
X36142Y-34897D01*
X34679Y-33435D02*
X35342Y-34097D01*
X34054Y-32810D02*
X34679Y-33435D01*
X33629Y-32384D02*
X34054Y-32810D01*
X36625Y-37840D02*
X36625Y-38450D01*
X36625Y-36840D02*
X36625Y-37840D01*
X36625Y-35860D02*
X36625Y-36840D01*
X36625Y-35840D02*
X36625Y-35860D01*
X36625Y-35380D02*
X36625Y-35840D01*
X36625Y-38450D02*
X36630Y-38450D01*
X29290Y-31630D02*
X29290Y-31635D01*
X30050Y-32384D02*
X30039Y-32384D01*
X36185Y-36840D02*
X36190Y-36840D01*
X35870Y-35234D02*
X35047Y-34412D01*
X28854Y-31630D02*
X28850Y-31630D01*
X28854Y-31809D02*
X28854Y-31630D01*
X29860Y-32815D02*
X29342Y-32297D01*
X29342Y-32297D02*
X28854Y-31809D01*
X33450Y-32815D02*
X33040Y-32815D01*
X33040Y-32815D02*
X32040Y-32815D01*
X32040Y-32815D02*
X31040Y-32815D01*
X31040Y-32815D02*
X29860Y-32815D01*
X35047Y-34412D02*
X34420Y-33784D01*
X34420Y-33784D02*
X33760Y-33124D01*
X33760Y-33124D02*
X33450Y-32815D01*
X35550Y-38450D02*
X35550Y-37845D01*
X35550Y-37845D02*
X35550Y-36840D01*
X35550Y-36840D02*
X35550Y-35874D01*
X28064Y-31630D02*
X28060Y-31630D01*
X28064Y-32269D02*
X28064Y-31630D01*
X29250Y-33455D02*
X28480Y-32684D01*
X28480Y-32684D02*
X28064Y-32269D01*
X33130Y-33455D02*
X32980Y-33455D01*
X32980Y-33455D02*
X32035Y-33455D01*
X32035Y-33455D02*
X31055Y-33455D01*
X31055Y-33455D02*
X29250Y-33455D01*
X35550Y-35874D02*
X34585Y-34909D01*
X34585Y-34909D02*
X33907Y-34232D01*
X33907Y-34232D02*
X33277Y-33602D01*
X33277Y-33602D02*
X33130Y-33455D01*
X36190Y-38450D02*
X36190Y-37840D01*
X36190Y-37840D02*
X36190Y-36840D01*
X36190Y-36840D02*
X36190Y-35840D01*
X36190Y-35840D02*
X36190Y-35554D01*
X36190Y-35554D02*
X35870Y-35234D01*
X28850Y-44423D02*
X28850Y-44430D01*
G54D67*
X37497Y-41705D02*
X37875Y-41705D01*
X37875Y-41705D02*
X37955Y-41785D01*
G54D68*
X39100Y-47300D02*
X39100Y-47830D01*
G54D67*
X29220Y-49660D02*
X29220Y-49130D01*
X29220Y-49130D02*
X29230Y-49120D01*
G54D68*
X42740Y-47300D02*
X43180Y-47300D01*
X10130Y-50660D02*
X9710Y-50660D01*
X9710Y-50660D02*
X9700Y-50650D01*
X27147Y-37155D02*
X27147Y-37587D01*
X27147Y-37587D02*
X27150Y-37590D01*
X28567Y-37175D02*
X28567Y-37587D01*
X28567Y-37587D02*
X28570Y-37590D01*
X31407Y-37175D02*
X31407Y-37587D01*
X31407Y-37587D02*
X31410Y-37590D01*
X29987Y-37175D02*
X29987Y-37587D01*
X29987Y-37587D02*
X29990Y-37590D01*
G54D67*
X24080Y-36870D02*
X24417Y-36870D01*
X24417Y-36870D02*
X24697Y-37150D01*
X21100Y-36860D02*
X21417Y-36860D01*
X21417Y-36860D02*
X21707Y-37150D01*
X18100Y-36860D02*
X18457Y-36860D01*
X18457Y-36860D02*
X18747Y-37150D01*
X15130Y-36870D02*
X15442Y-36870D01*
X15442Y-36870D02*
X15742Y-37170D01*
G54D68*
X10130Y-49050D02*
X9690Y-49050D01*
X19735Y-43710D02*
X20170Y-43710D01*
X25090Y-55150D02*
X25530Y-55150D01*
X13520Y-52140D02*
X14050Y-52140D01*
G54D67*
X15350Y-53570D02*
X15340Y-53560D01*
X15350Y-54170D02*
X15350Y-53570D01*
X17340Y-52940D02*
X17700Y-52940D01*
X21620Y-58160D02*
X22180Y-58160D01*
X17035Y-45760D02*
X17570Y-45760D01*
X24697Y-37150D02*
X24697Y-37497D01*
X24697Y-37497D02*
X24700Y-37500D01*
X18747Y-37150D02*
X18747Y-37557D01*
X18747Y-37557D02*
X18750Y-37560D01*
X21707Y-37150D02*
X21707Y-37513D01*
X21707Y-37513D02*
X21705Y-37515D01*
X15742Y-37170D02*
X15742Y-37568D01*
X15742Y-37568D02*
X15740Y-37570D01*
G54D68*
X14143Y-40104D02*
X14143Y-39578D01*
X14143Y-39578D02*
X14140Y-39575D01*
G54D70*
X39860Y-27175D02*
X39420Y-27175D01*
X12496Y-514D02*
X12000Y-514D01*
X12000Y-514D02*
X11985Y-529D01*
G54D68*
X37964Y-31515D02*
X38490Y-31515D01*
X38490Y-31515D02*
X38492Y-31513D01*
G54D75*
X44420Y-13365D02*
X45339Y-13365D01*
X45339Y-13365D02*
X45880Y-12824D01*
G54D67*
X47432Y-20081D02*
X47864Y-20081D01*
X45448Y-20079D02*
X45022Y-20079D01*
X45022Y-20079D02*
X45020Y-20077D01*
X17428Y-20195D02*
X17810Y-20195D01*
X15446Y-20195D02*
X15064Y-20195D01*
G54D70*
X37598Y-15943D02*
X37230Y-15943D01*
G54D67*
X10601Y-28820D02*
X11024Y-28820D01*
X11024Y-28820D02*
X11090Y-28755D01*
X9853Y-27178D02*
X9376Y-27178D01*
X9376Y-27178D02*
X9370Y-27185D01*
G54D70*
X9853Y-27178D02*
X10601Y-27178D01*
X9853Y-28820D02*
X10601Y-28820D01*
G54D73*
X9848Y-27173D02*
X9853Y-27178D01*
G54D80*
X9853Y-27178D02*
X9853Y-27102D01*
G54D67*
X11530Y-26715D02*
X11530Y-27095D01*
X41570Y-26735D02*
X41570Y-27115D01*
G54D70*
X39870Y-28945D02*
X40600Y-28945D01*
X39860Y-27175D02*
X40590Y-27175D01*
X40590Y-27175D02*
X40600Y-27165D01*
G54D67*
X51525Y-21208D02*
X51937Y-21208D01*
X51937Y-21208D02*
X51940Y-21205D01*
X21545Y-21153D02*
X21958Y-21153D01*
X21958Y-21153D02*
X21960Y-21155D01*
X18850Y-4220D02*
X19415Y-4220D01*
X18565Y-4220D02*
X18427Y-4358D01*
X18427Y-4580D02*
X18427Y-4358D01*
X18850Y-4220D02*
X18565Y-4220D01*
X19415Y-4220D02*
X19455Y-4260D01*
G54D73*
X12713Y-10750D02*
X12284Y-10750D01*
X12284Y-10750D02*
X12160Y-10875D01*
G54D70*
X13795Y-9950D02*
X14285Y-9950D01*
X14285Y-9950D02*
X14290Y-9955D01*
G54D73*
X7280Y-8585D02*
X7640Y-8585D01*
X7640Y-8585D02*
X7900Y-8845D01*
G54D72*
X41593Y-15953D02*
X41593Y-15448D01*
X41593Y-15448D02*
X41590Y-15445D01*
G54D70*
X41050Y-18155D02*
X41170Y-18155D01*
X41170Y-18155D02*
X41300Y-18025D01*
G54D67*
X35149Y-20042D02*
X35149Y-19388D01*
X35149Y-19388D02*
X35016Y-19254D01*
X5110Y-20003D02*
X5110Y-19348D01*
X5110Y-19348D02*
X5016Y-19254D01*
G54D70*
X15040Y-18152D02*
X15322Y-18152D01*
X15322Y-18152D02*
X15475Y-18000D01*
X45110Y-18160D02*
X45465Y-18160D01*
X45465Y-18160D02*
X45575Y-18050D01*
X7588Y-15953D02*
X7228Y-15953D01*
X7228Y-15953D02*
X7225Y-15950D01*
X23160Y-3965D02*
X23160Y-3790D01*
X23160Y-3790D02*
X23350Y-3600D01*
G54D73*
X12693Y-5232D02*
X12693Y-5536D01*
X12693Y-5536D02*
X12690Y-5540D01*
G54D68*
X8100Y-4100D02*
X8100Y-3165D01*
X8100Y-3165D02*
X7980Y-3045D01*
G54D70*
X7275Y-4050D02*
X8050Y-4050D01*
X8050Y-4050D02*
X8100Y-4100D01*
G54D69*
X13980Y-3045D02*
X14980Y-3045D01*
G54D70*
X13800Y-8570D02*
X14000Y-8570D01*
X14000Y-8570D02*
X14210Y-8780D01*
G54D73*
X12713Y-8388D02*
X13303Y-8388D01*
X13485Y-8570D02*
X13800Y-8570D01*
X13303Y-8388D02*
X13485Y-8570D01*
G54D67*
X5720Y-10545D02*
X5395Y-10545D01*
X5395Y-10545D02*
X5330Y-10610D01*
X5350Y-4825D02*
X4970Y-4825D01*
X4025Y-4825D02*
X4030Y-4830D01*
X20850Y-3109D02*
X20850Y-3475D01*
G54D73*
X12443Y-5232D02*
X12693Y-5232D01*
G54D70*
X5695Y-7995D02*
X5340Y-7995D01*
X8100Y-3165D02*
X7980Y-3045D01*
G54D67*
X10680Y-5415D02*
X10680Y-5215D01*
X10680Y-5215D02*
X10440Y-4975D01*
G54D73*
X10292Y-7148D02*
X10292Y-7547D01*
X9702Y-7552D02*
X9702Y-7148D01*
X9785Y-7635D02*
X9702Y-7552D01*
X10205Y-7635D02*
X9785Y-7635D01*
X10292Y-7547D02*
X10205Y-7635D01*
G54D72*
X9702Y-7148D02*
X9702Y-6607D01*
X9702Y-6607D02*
X9705Y-6605D01*
G54D73*
X7280Y-10357D02*
X7982Y-10357D01*
X7982Y-10357D02*
X7985Y-10355D01*
G54D72*
X16170Y-7830D02*
X16170Y-7885D01*
X16170Y-7885D02*
X16175Y-7890D01*
X16495Y-7830D02*
X17105Y-7830D01*
X17105Y-7830D02*
X17225Y-7950D01*
X16495Y-7830D02*
X16170Y-7830D01*
X16170Y-7830D02*
X15853Y-7830D01*
X15853Y-7830D02*
X15818Y-7865D01*
G54D70*
X11600Y-15948D02*
X11600Y-15464D01*
X11600Y-15464D02*
X11700Y-15365D01*
G54D67*
X34740Y-11405D02*
X34740Y-11875D01*
X34740Y-11875D02*
X34735Y-11880D01*
X25270Y-4705D02*
X25730Y-4705D01*
G54D73*
X11276Y-12581D02*
X11276Y-12131D01*
X11276Y-12131D02*
X11270Y-12125D01*
G54D70*
X11020Y-18115D02*
X11020Y-18075D01*
X11105Y-17990D02*
X11020Y-18115D01*
X11020Y-18075D02*
X11105Y-17990D01*
X11310Y-17990D02*
X11030Y-17990D01*
X11030Y-17990D02*
X11020Y-18115D01*
X12969Y-529D02*
X12511Y-529D01*
X12481Y-529D02*
X12496Y-514D01*
X12511Y-529D02*
X12496Y-514D01*
X8992Y-529D02*
X8496Y-529D01*
X8466Y-529D02*
X8481Y-514D01*
X8466Y-529D02*
X7969Y-529D01*
X8496Y-529D02*
X8481Y-514D01*
G54D67*
X8370Y-14105D02*
X8370Y-14425D01*
X11170Y-14115D02*
X11170Y-14495D01*
G54D70*
X16480Y-4375D02*
X16480Y-4221D01*
X16480Y-4215D02*
X16480Y-4221D01*
G54D81*
X37040Y-47320D02*
X37040Y-47190D01*
X38870Y-45360D02*
X39420Y-45360D01*
X37040Y-47190D02*
X38870Y-45360D01*
G54D68*
X41420Y-47300D02*
X42140Y-47300D01*
G54D81*
X41420Y-47300D02*
X41420Y-46360D01*
X37960Y-47320D02*
X37960Y-47350D01*
X38950Y-46360D02*
X39420Y-46360D01*
X37960Y-47350D02*
X38950Y-46360D01*
G54D68*
X39700Y-47300D02*
X40420Y-47300D01*
G54D81*
X40420Y-47300D02*
X40420Y-46360D01*
G54D70*
X21915Y-30790D02*
X24190Y-30790D01*
X21591Y-30466D02*
X21915Y-30790D01*
X21591Y-30397D02*
X21591Y-30466D01*
X32398Y-34453D02*
X33240Y-35295D01*
X27463Y-34453D02*
X32398Y-34453D01*
X24346Y-31336D02*
X27463Y-34453D01*
X24346Y-30946D02*
X24346Y-31336D01*
X24190Y-30790D02*
X24346Y-30946D01*
G54D73*
X4485Y-11963D02*
X4485Y-21791D01*
X18909Y-21440D02*
X19195Y-21155D01*
X10519Y-21440D02*
X18909Y-21440D01*
X9704Y-22256D02*
X10519Y-21440D01*
X4950Y-22256D02*
X9704Y-22256D01*
X4485Y-21791D02*
X4950Y-22256D01*
X4485Y-11963D02*
X4848Y-11963D01*
X4848Y-11963D02*
X4850Y-11965D01*
X7280Y-10160D02*
X5339Y-10160D01*
X4485Y-11015D02*
X4485Y-11963D01*
X5339Y-10160D02*
X4485Y-11015D01*
X19185Y-21145D02*
X19195Y-21155D01*
G54D70*
X28370Y-22250D02*
X39830Y-22250D01*
G54D73*
X17851Y-21621D02*
X18480Y-22250D01*
X18480Y-22250D02*
X26380Y-22250D01*
X9778Y-22436D02*
X10594Y-21621D01*
X4304Y-11955D02*
X4304Y-21964D01*
X4304Y-21964D02*
X4776Y-22436D01*
X4776Y-22436D02*
X9778Y-22436D01*
X10594Y-21621D02*
X17851Y-21621D01*
G54D70*
X49070Y-21330D02*
X49190Y-21210D01*
X40750Y-21330D02*
X49070Y-21330D01*
X39830Y-22250D02*
X40750Y-21330D01*
G54D73*
X3940Y-11965D02*
X4294Y-11965D01*
X4294Y-11965D02*
X4304Y-11955D01*
X4299Y-11960D02*
X4304Y-11955D01*
X7280Y-9963D02*
X5281Y-9963D01*
X5281Y-9963D02*
X4304Y-10940D01*
X4304Y-10940D02*
X4304Y-11955D01*
G54D75*
X20400Y-51890D02*
X20400Y-52620D01*
X20400Y-52620D02*
X20460Y-52680D01*
G54D81*
X19040Y-52680D02*
X20460Y-52680D01*
X20460Y-52680D02*
X21130Y-52680D01*
X21130Y-52680D02*
X21380Y-52930D01*
G54D68*
X10730Y-50660D02*
X11200Y-50660D01*
X11200Y-50660D02*
X11370Y-50830D01*
G54D81*
X19040Y-52720D02*
X19040Y-52680D01*
X19040Y-52680D02*
X19040Y-52580D01*
X19040Y-52580D02*
X19040Y-50010D01*
X12500Y-49700D02*
X11370Y-50830D01*
X11370Y-50830D02*
X9800Y-52400D01*
X18730Y-49700D02*
X12500Y-49700D01*
X19040Y-50010D02*
X18730Y-49700D01*
X9800Y-52400D02*
X9800Y-54320D01*
X9800Y-54320D02*
X10920Y-55440D01*
X19040Y-52720D02*
X18420Y-53340D01*
X10920Y-56420D02*
X10920Y-55440D01*
G54D75*
X15570Y-46790D02*
X16580Y-46790D01*
X16580Y-46790D02*
X16585Y-46785D01*
G54D81*
X16585Y-48480D02*
X20550Y-48480D01*
X20550Y-48480D02*
X21400Y-49330D01*
X16585Y-46785D02*
X16585Y-48480D01*
X16585Y-48480D02*
X16580Y-48480D01*
G54D68*
X10730Y-49050D02*
X10730Y-48890D01*
X10730Y-48890D02*
X11140Y-48480D01*
G54D81*
X9835Y-47175D02*
X9835Y-45310D01*
X11140Y-48480D02*
X9835Y-47175D01*
X16580Y-48480D02*
X11140Y-48480D01*
X12110Y-43060D02*
X10960Y-43060D01*
X10960Y-43060D02*
X9835Y-44185D01*
X9835Y-45310D02*
X9835Y-44185D01*
G54D67*
X16850Y-54170D02*
X16850Y-54490D01*
X19960Y-54600D02*
X20580Y-55220D01*
X16960Y-54600D02*
X19960Y-54600D01*
X16850Y-54490D02*
X16960Y-54600D01*
X21620Y-55660D02*
X21020Y-55660D01*
X21020Y-55660D02*
X20580Y-55220D01*
X23240Y-57160D02*
X22240Y-56160D01*
X22240Y-56160D02*
X21620Y-56160D01*
X23720Y-57160D02*
X23240Y-57160D01*
X21620Y-56160D02*
X21620Y-55660D01*
G54D70*
X29975Y-35725D02*
X29975Y-36413D01*
X29975Y-36413D02*
X29987Y-36425D01*
G54D72*
X42620Y-58070D02*
X42620Y-58292D01*
X42620Y-58292D02*
X41722Y-59190D01*
X43860Y-58151D02*
X43860Y-59820D01*
X41722Y-59190D02*
X41722Y-59482D01*
G54D70*
X40250Y-41330D02*
X39783Y-41330D01*
G54D72*
X41722Y-59482D02*
X42070Y-59830D01*
X43850Y-59830D02*
X53790Y-59830D01*
X43860Y-59820D02*
X43850Y-59830D01*
G54D70*
X40250Y-41330D02*
X40400Y-41180D01*
G54D72*
X42070Y-59830D02*
X43850Y-59830D01*
X53790Y-59830D02*
X54750Y-58870D01*
G54D70*
X38920Y-39800D02*
X38920Y-33552D01*
X38920Y-33552D02*
X36552Y-31184D01*
G54D72*
X46840Y-50530D02*
X46280Y-51090D01*
G54D70*
X38363Y-41823D02*
X38620Y-42080D01*
X38620Y-42080D02*
X39920Y-42080D01*
X39920Y-42080D02*
X40400Y-41600D01*
X38363Y-41330D02*
X38363Y-41823D01*
G54D72*
X54580Y-49840D02*
X53890Y-50530D01*
X53890Y-50530D02*
X46840Y-50530D01*
X43860Y-50980D02*
X43860Y-50420D01*
X43970Y-51090D02*
X43860Y-50980D01*
G54D68*
X43860Y-50420D02*
X43860Y-49442D01*
X43860Y-49442D02*
X43868Y-49433D01*
X43868Y-49433D02*
X43868Y-49168D01*
X42780Y-48080D02*
X42780Y-48032D01*
X43868Y-49168D02*
X42780Y-48080D01*
G54D70*
X37490Y-39800D02*
X37490Y-32909D01*
X37490Y-32909D02*
X35764Y-31184D01*
X13482Y-27776D02*
X13482Y-27937D01*
X10651Y-28270D02*
X10601Y-28220D01*
X13150Y-28270D02*
X10651Y-28270D01*
X13482Y-27937D02*
X13150Y-28270D01*
X9853Y-28220D02*
X10601Y-28220D01*
G54D73*
X9853Y-28220D02*
X8655Y-28220D01*
X3221Y-22786D02*
X3221Y-10853D01*
X7280Y-9372D02*
X4702Y-9372D01*
X4702Y-9372D02*
X3220Y-10854D01*
X8655Y-28220D02*
X3221Y-22786D01*
X3221Y-10853D02*
X3220Y-10854D01*
X8513Y-27773D02*
X9848Y-27773D01*
X3401Y-10958D02*
X3401Y-22661D01*
X3401Y-22661D02*
X8513Y-27773D01*
X4790Y-9569D02*
X3401Y-10958D01*
X7280Y-9569D02*
X4790Y-9569D01*
X9848Y-27773D02*
X9853Y-27778D01*
G54D70*
X10601Y-27778D02*
X9853Y-27778D01*
X11513Y-27776D02*
X10603Y-27776D01*
X10603Y-27776D02*
X10601Y-27778D01*
G54D73*
X4613Y-22744D02*
X11514Y-22744D01*
X3583Y-21713D02*
X4613Y-22744D01*
X3583Y-11047D02*
X3583Y-21713D01*
X4863Y-9766D02*
X3583Y-11047D01*
X7280Y-9766D02*
X4863Y-9766D01*
X11514Y-22744D02*
X11515Y-22745D01*
G54D70*
X11513Y-22067D02*
X11513Y-22743D01*
X11513Y-22743D02*
X11515Y-22745D01*
X27362Y-15793D02*
X27362Y-25322D01*
G54D73*
X27309Y-12255D02*
X27234Y-12179D01*
X27234Y-12179D02*
X15815Y-12179D01*
X15815Y-12179D02*
X15174Y-11538D01*
X12713Y-11538D02*
X15174Y-11538D01*
X27316Y-12255D02*
X27309Y-12255D01*
G54D70*
X30385Y-28345D02*
X39870Y-28345D01*
X27362Y-25322D02*
X30385Y-28345D01*
X39795Y-28345D02*
X39870Y-28345D01*
X40600Y-28345D02*
X42913Y-28345D01*
X42913Y-28345D02*
X43482Y-27776D01*
X39870Y-28345D02*
X40600Y-28345D01*
X27693Y-15793D02*
X27693Y-25043D01*
G54D73*
X15231Y-11341D02*
X15889Y-11999D01*
X15889Y-11999D02*
X27424Y-11999D01*
X27424Y-11999D02*
X27679Y-12254D01*
X12713Y-11341D02*
X15231Y-11341D01*
G54D70*
X30425Y-27775D02*
X39860Y-27775D01*
X27693Y-25043D02*
X30425Y-27775D01*
X39857Y-27772D02*
X39860Y-27775D01*
X40600Y-27765D02*
X41501Y-27765D01*
X41501Y-27765D02*
X41513Y-27776D01*
X39860Y-27775D02*
X40590Y-27775D01*
X40590Y-27775D02*
X40600Y-27765D01*
X28024Y-15791D02*
X28024Y-22334D01*
G54D73*
X15289Y-11144D02*
X15964Y-11818D01*
X15964Y-11818D02*
X27608Y-11818D01*
X27608Y-11818D02*
X28043Y-12253D01*
X12713Y-11144D02*
X15289Y-11144D01*
G54D70*
X28435Y-22745D02*
X41521Y-22745D01*
X28024Y-22334D02*
X28435Y-22745D01*
X41521Y-22745D02*
X41521Y-22075D01*
X41521Y-22075D02*
X41513Y-22067D01*
X41511Y-22735D02*
X41521Y-22745D01*
X34970Y-41240D02*
X34970Y-40865D01*
X34970Y-40865D02*
X35340Y-40495D01*
X35340Y-40495D02*
X35340Y-38690D01*
X35340Y-38690D02*
X34905Y-38255D01*
X34905Y-38255D02*
X34905Y-35735D01*
X34905Y-35735D02*
X32930Y-33760D01*
X27490Y-31570D02*
X27490Y-32570D01*
X32930Y-33760D02*
X28680Y-33760D01*
X27490Y-32570D02*
X28680Y-33760D01*
X33970Y-41330D02*
X33970Y-41185D01*
X27497Y-30790D02*
X27890Y-30397D01*
X26890Y-30790D02*
X27497Y-30790D01*
X26710Y-30970D02*
X26890Y-30790D01*
X26710Y-32300D02*
X26710Y-30970D01*
X28510Y-34100D02*
X26710Y-32300D01*
X32895Y-34100D02*
X28510Y-34100D01*
X33815Y-35020D02*
X32895Y-34100D01*
X33815Y-41030D02*
X33815Y-35020D01*
G54D73*
X1428Y-13975D02*
X1779Y-13975D01*
X1779Y-13975D02*
X1785Y-13981D01*
X7280Y-8191D02*
X6880Y-8191D01*
X1785Y-35014D02*
X1300Y-35500D01*
X1785Y-11017D02*
X1785Y-13981D01*
X1785Y-13981D02*
X1785Y-35014D01*
X4380Y-8422D02*
X1785Y-11017D01*
X6650Y-8422D02*
X4380Y-8422D01*
X6880Y-8191D02*
X6650Y-8422D01*
X2322Y-13973D02*
X1996Y-13973D01*
X1996Y-13973D02*
X1966Y-13943D01*
X7280Y-8388D02*
X6938Y-8388D01*
X1966Y-36834D02*
X1300Y-37500D01*
X1966Y-11091D02*
X1966Y-13943D01*
X1966Y-13943D02*
X1966Y-36834D01*
X4455Y-8602D02*
X1966Y-11091D01*
X6724Y-8602D02*
X4455Y-8602D01*
X6938Y-8388D02*
X6724Y-8602D01*
G54D70*
X36435Y-44535D02*
X39575Y-44535D01*
X28280Y-32180D02*
X29340Y-33240D01*
X29340Y-33240D02*
X33220Y-33240D01*
X33220Y-33240D02*
X35770Y-35790D01*
X35770Y-35790D02*
X35770Y-43870D01*
X35770Y-43870D02*
X36435Y-44535D01*
X19229Y-30397D02*
X19229Y-30180D01*
X27980Y-29930D02*
X28280Y-30230D01*
X19480Y-29930D02*
X27980Y-29930D01*
X19229Y-30180D02*
X19480Y-29930D01*
X28280Y-30230D02*
X28280Y-32180D01*
X40400Y-45360D02*
X40420Y-45360D01*
X39575Y-44535D02*
X40400Y-45360D01*
X39924Y-44104D02*
X36613Y-44104D01*
X39924Y-44104D02*
X41180Y-45360D01*
X41420Y-45360D02*
X41180Y-45360D01*
X29070Y-30140D02*
X29070Y-31720D01*
X18441Y-30168D02*
X18910Y-29699D01*
X18910Y-29699D02*
X28629Y-29699D01*
X28629Y-29699D02*
X29070Y-30140D01*
X18441Y-30168D02*
X18441Y-30397D01*
X33540Y-32600D02*
X36410Y-35470D01*
X29950Y-32600D02*
X33540Y-32600D01*
X29070Y-31720D02*
X29950Y-32600D01*
X36410Y-40435D02*
X36410Y-35470D01*
X36210Y-40635D02*
X36410Y-40435D01*
X36210Y-43701D02*
X36210Y-40635D01*
X36613Y-44104D02*
X36210Y-43701D01*
G54D69*
X6297Y-57723D02*
X6297Y-56593D01*
X6297Y-56593D02*
X8530Y-54360D01*
G54D81*
X6297Y-57723D02*
X6297Y-57737D01*
X42328Y-56891D02*
X43860Y-56891D01*
X39700Y-59520D02*
X42328Y-56891D01*
X8080Y-59520D02*
X39700Y-59520D01*
X6297Y-57737D02*
X8080Y-59520D01*
G54D68*
X30850Y-57180D02*
X30850Y-56680D01*
X30850Y-56680D02*
X30830Y-56660D01*
G54D81*
X29873Y-56660D02*
X30830Y-56660D01*
X30830Y-56660D02*
X32030Y-56660D01*
X34960Y-53730D02*
X34960Y-42250D01*
X32030Y-56660D02*
X34960Y-53730D01*
X34960Y-42250D02*
X34970Y-42240D01*
G54D70*
X34815Y-42240D02*
X34470Y-41895D01*
X34970Y-42240D02*
X34815Y-42240D01*
G54D81*
X34960Y-42250D02*
X34970Y-42240D01*
G54D70*
X34470Y-41895D02*
X34470Y-39884D01*
X34470Y-39884D02*
X34480Y-39874D01*
G54D67*
X23720Y-57660D02*
X24000Y-57660D01*
X24680Y-56980D02*
X24680Y-56660D01*
X24000Y-57660D02*
X24680Y-56980D01*
X23720Y-56660D02*
X24680Y-56660D01*
X23280Y-56660D02*
X21780Y-55160D01*
X21780Y-55160D02*
X21620Y-55160D01*
X23720Y-56660D02*
X23280Y-56660D01*
G54D81*
X42720Y-54720D02*
X42720Y-56180D01*
G54D75*
X44420Y-51340D02*
X43640Y-52120D01*
G54D81*
X43640Y-52120D02*
X43640Y-53800D01*
X43640Y-53800D02*
X42720Y-54720D01*
G54D75*
X44013Y-48173D02*
X44420Y-48580D01*
X43868Y-48173D02*
X44013Y-48173D01*
X44420Y-48580D02*
X44420Y-51340D01*
G54D81*
X6297Y-48733D02*
X6297Y-48723D01*
X1060Y-49980D02*
X310Y-50730D01*
X5050Y-49980D02*
X1060Y-49980D01*
X6297Y-48733D02*
X5050Y-49980D01*
G54D69*
X6297Y-48723D02*
X7647Y-48723D01*
X7647Y-48723D02*
X8535Y-47835D01*
G54D75*
X43868Y-48173D02*
X43861Y-48173D01*
G54D68*
X28440Y-44010D02*
X28440Y-44748D01*
G54D70*
X33472Y-41807D02*
X33472Y-40286D01*
X33970Y-42240D02*
X33905Y-42240D01*
X33905Y-42240D02*
X33472Y-41807D01*
X33472Y-41807D02*
X33470Y-41805D01*
G54D81*
X33990Y-42900D02*
X33990Y-42260D01*
X32141Y-44748D02*
X33990Y-42900D01*
X28078Y-44748D02*
X28440Y-44748D01*
X28440Y-44748D02*
X32141Y-44748D01*
X33990Y-42260D02*
X33970Y-42240D01*
X27030Y-44748D02*
X28078Y-44748D01*
G54D70*
X33472Y-40286D02*
X33080Y-39894D01*
X15700Y-35725D02*
X15700Y-36378D01*
X15700Y-36378D02*
X15742Y-36420D01*
X18675Y-35725D02*
X18675Y-36328D01*
X18675Y-36328D02*
X18747Y-36400D01*
X21700Y-35725D02*
X21700Y-36393D01*
X21700Y-36393D02*
X21707Y-36400D01*
X24700Y-35725D02*
X24700Y-36397D01*
X24700Y-36397D02*
X24697Y-36400D01*
G54D80*
X11446Y-18681D02*
X10531Y-18681D01*
X11600Y-18527D02*
X11446Y-18681D01*
X11600Y-18152D02*
X11600Y-18527D01*
X9957Y-19254D02*
X9741Y-19254D01*
X10531Y-18681D02*
X9957Y-19254D01*
X11856Y-18152D02*
X11856Y-18497D01*
X10941Y-18841D02*
X10528Y-19254D01*
X11512Y-18841D02*
X10941Y-18841D01*
X11856Y-18497D02*
X11512Y-18841D01*
X12112Y-18152D02*
X12112Y-18654D01*
X11512Y-19254D02*
X11315Y-19254D01*
X12112Y-18654D02*
X11512Y-19254D01*
X12368Y-18152D02*
X12368Y-18989D01*
X12368Y-18989D02*
X12103Y-19254D01*
X12624Y-18152D02*
X12624Y-18989D01*
X12624Y-18989D02*
X12890Y-19254D01*
X12880Y-18152D02*
X12880Y-18674D01*
X13461Y-19254D02*
X13678Y-19254D01*
X12880Y-18674D02*
X13461Y-19254D01*
X13136Y-18152D02*
X13136Y-18516D01*
X14052Y-18841D02*
X14465Y-19254D01*
X13461Y-18841D02*
X14052Y-18841D01*
X13136Y-18516D02*
X13461Y-18841D01*
X13540Y-18681D02*
X14462Y-18681D01*
X13392Y-18534D02*
X13540Y-18681D01*
X13392Y-18150D02*
X13392Y-18534D01*
X15036Y-19254D02*
X15252Y-19254D01*
X14462Y-18681D02*
X15036Y-19254D01*
G54D67*
X16046Y-20195D02*
X16046Y-19260D01*
X16046Y-19260D02*
X16040Y-19254D01*
G54D80*
X9124Y-18781D02*
X9120Y-18785D01*
X9124Y-18157D02*
X9124Y-18781D01*
G54D67*
X16828Y-20195D02*
X16828Y-19255D01*
X16828Y-19255D02*
X16827Y-19254D01*
G54D80*
X9380Y-18155D02*
X9380Y-18565D01*
X8612Y-18157D02*
X8612Y-18913D01*
X8612Y-18913D02*
X8953Y-19254D01*
X8100Y-18157D02*
X8100Y-18445D01*
X7378Y-19166D02*
X7378Y-19254D01*
X8100Y-18445D02*
X7378Y-19166D01*
G54D72*
X16900Y-18300D02*
X16900Y-18539D01*
X16900Y-18539D02*
X17615Y-19254D01*
G54D80*
X8868Y-18157D02*
X8868Y-18563D01*
X8868Y-18563D02*
X8870Y-18565D01*
X8356Y-18157D02*
X8356Y-19065D01*
X8356Y-19065D02*
X8166Y-19254D01*
X41593Y-18157D02*
X41593Y-18512D01*
X39950Y-19254D02*
X39741Y-19254D01*
X40510Y-18694D02*
X39950Y-19254D01*
X41410Y-18694D02*
X40510Y-18694D01*
X41593Y-18512D02*
X41410Y-18694D01*
X41849Y-18157D02*
X41849Y-18611D01*
X40928Y-18855D02*
X40528Y-19254D01*
X41605Y-18855D02*
X40928Y-18855D01*
X41849Y-18611D02*
X41605Y-18855D01*
X42105Y-18157D02*
X42105Y-18650D01*
X41500Y-19254D02*
X41315Y-19254D01*
X42105Y-18650D02*
X41500Y-19254D01*
X42361Y-18157D02*
X42361Y-18997D01*
X42361Y-18997D02*
X42103Y-19254D01*
X42617Y-18157D02*
X42617Y-18981D01*
X42617Y-18981D02*
X42890Y-19254D01*
X42873Y-18157D02*
X42873Y-18673D01*
X43454Y-19254D02*
X43678Y-19254D01*
X42873Y-18673D02*
X43454Y-19254D01*
X43129Y-18157D02*
X43129Y-18702D01*
X44065Y-18855D02*
X44465Y-19254D01*
X43281Y-18855D02*
X44065Y-18855D01*
X43129Y-18702D02*
X43281Y-18855D01*
X43385Y-18155D02*
X43385Y-18524D01*
X44682Y-18685D02*
X45252Y-19254D01*
X43545Y-18685D02*
X44682Y-18685D01*
X43385Y-18524D02*
X43545Y-18685D01*
G54D67*
X46048Y-20079D02*
X46048Y-19262D01*
X46048Y-19262D02*
X46040Y-19254D01*
G54D80*
X39134Y-18794D02*
X39155Y-18815D01*
X39134Y-18147D02*
X39134Y-18794D01*
G54D67*
X46832Y-20081D02*
X46832Y-19259D01*
X46832Y-19259D02*
X46827Y-19254D01*
G54D80*
X39390Y-18145D02*
X39390Y-18585D01*
X39390Y-18585D02*
X39445Y-18640D01*
X38622Y-18147D02*
X38622Y-18923D01*
X38622Y-18923D02*
X38953Y-19254D01*
X38110Y-18147D02*
X38110Y-18523D01*
X38110Y-18523D02*
X37378Y-19254D01*
G54D70*
X47040Y-18345D02*
X47040Y-18679D01*
X47040Y-18679D02*
X47615Y-19254D01*
G54D80*
X38878Y-18147D02*
X38878Y-18637D01*
X38878Y-18637D02*
X38870Y-18645D01*
X38366Y-18147D02*
X38366Y-19055D01*
X38366Y-19055D02*
X38166Y-19254D01*
X11867Y-12581D02*
X11867Y-13222D01*
X11867Y-13222D02*
X13067Y-14422D01*
X41849Y-15953D02*
X41849Y-15333D01*
X11856Y-15633D02*
X13067Y-14422D01*
X13067Y-14422D02*
X13075Y-14414D01*
X13075Y-14414D02*
X14247Y-14414D01*
X14247Y-14414D02*
X15372Y-13289D01*
X11856Y-15633D02*
X11856Y-15948D01*
X39805Y-13289D02*
X15372Y-13289D01*
X41849Y-15333D02*
X39805Y-13289D01*
X11867Y-15937D02*
X11856Y-15948D01*
X42005Y-16404D02*
X41449Y-16404D01*
X42005Y-16404D02*
X42105Y-16305D01*
X42105Y-15953D02*
X42105Y-16305D01*
X41340Y-15241D02*
X39548Y-13449D01*
X41340Y-16295D02*
X41340Y-15241D01*
X41449Y-16404D02*
X41340Y-16295D01*
X39548Y-13449D02*
X39545Y-13449D01*
X12112Y-15948D02*
X12112Y-15647D01*
X15438Y-13449D02*
X39545Y-13449D01*
X39545Y-13449D02*
X39548Y-13449D01*
X14313Y-14574D02*
X15438Y-13449D01*
X13185Y-14574D02*
X14313Y-14574D01*
X12112Y-15647D02*
X13185Y-14574D01*
X12112Y-15948D02*
X12112Y-16282D01*
X11670Y-12965D02*
X11670Y-12581D01*
X11707Y-13002D02*
X11670Y-12965D01*
X11707Y-14705D02*
X11707Y-13002D01*
X11390Y-15022D02*
X11707Y-14705D01*
X11390Y-16295D02*
X11390Y-15022D01*
X11460Y-16365D02*
X11390Y-16295D01*
X12030Y-16365D02*
X11460Y-16365D01*
X12112Y-16282D02*
X12030Y-16365D01*
X42100Y-16564D02*
X41364Y-16564D01*
X12368Y-15656D02*
X13290Y-14734D01*
X13290Y-14734D02*
X14379Y-14734D01*
X14379Y-14734D02*
X15504Y-13609D01*
X15504Y-13609D02*
X39482Y-13609D01*
X42100Y-16564D02*
X42361Y-16304D01*
X42361Y-15953D02*
X42361Y-16304D01*
X12368Y-15656D02*
X12368Y-15948D01*
X41170Y-15297D02*
X39482Y-13609D01*
X41170Y-16370D02*
X41170Y-15297D01*
X41364Y-16564D02*
X41170Y-16370D01*
X11229Y-16381D02*
X11229Y-14956D01*
X12368Y-15948D02*
X12368Y-16276D01*
X12119Y-16525D02*
X12368Y-16276D01*
X11373Y-16525D02*
X12119Y-16525D01*
X11229Y-16381D02*
X11373Y-16525D01*
X11473Y-12998D02*
X11473Y-12581D01*
X11547Y-13072D02*
X11473Y-12998D01*
X11547Y-14638D02*
X11547Y-13072D01*
X11229Y-14956D02*
X11547Y-14638D01*
X42195Y-16724D02*
X41215Y-16724D01*
X12624Y-15650D02*
X13380Y-14894D01*
X13380Y-14894D02*
X14445Y-14894D01*
X14445Y-14894D02*
X15570Y-13769D01*
X15570Y-13769D02*
X39416Y-13769D01*
X39416Y-13769D02*
X41000Y-15353D01*
X41000Y-15353D02*
X41000Y-16509D01*
X42195Y-16724D02*
X42617Y-16303D01*
X42617Y-15953D02*
X42617Y-16303D01*
X12624Y-15650D02*
X12624Y-15948D01*
X41215Y-16724D02*
X41000Y-16509D01*
X12186Y-16685D02*
X11307Y-16685D01*
X12624Y-16246D02*
X12186Y-16685D01*
X10809Y-13085D02*
X10883Y-13011D01*
X10883Y-12581D02*
X10883Y-13011D01*
X12624Y-16246D02*
X12624Y-15948D01*
X10809Y-14694D02*
X10809Y-13085D01*
X11069Y-14954D02*
X10809Y-14694D01*
X11069Y-16447D02*
X11069Y-14954D01*
X11307Y-16685D02*
X11069Y-16447D01*
X42300Y-16884D02*
X41109Y-16884D01*
X12880Y-15659D02*
X13485Y-15054D01*
X13485Y-15054D02*
X14512Y-15054D01*
X14512Y-15054D02*
X15637Y-13929D01*
X15637Y-13929D02*
X39350Y-13929D01*
X39350Y-13929D02*
X40835Y-15414D01*
X40835Y-15414D02*
X40835Y-16610D01*
X42300Y-16884D02*
X42873Y-16312D01*
X42873Y-15953D02*
X42873Y-16312D01*
X12880Y-15659D02*
X12880Y-15948D01*
X41109Y-16884D02*
X40835Y-16610D01*
X12269Y-16845D02*
X11241Y-16845D01*
X12269Y-16845D02*
X12880Y-16234D01*
X12880Y-15948D02*
X12880Y-16234D01*
X10686Y-12978D02*
X10686Y-12581D01*
X10686Y-12978D02*
X10649Y-13015D01*
X10649Y-14760D02*
X10649Y-13015D01*
X10909Y-15021D02*
X10649Y-14760D01*
X10909Y-16513D02*
X10909Y-15021D01*
X11241Y-16845D02*
X10909Y-16513D01*
X42390Y-17044D02*
X41009Y-17044D01*
X13136Y-15648D02*
X13570Y-15214D01*
X13570Y-15214D02*
X14578Y-15214D01*
X14578Y-15214D02*
X15703Y-14089D01*
X15703Y-14089D02*
X39283Y-14089D01*
X39283Y-14089D02*
X40660Y-15466D01*
X40660Y-15466D02*
X40660Y-16695D01*
X42390Y-17044D02*
X43129Y-16306D01*
X43129Y-15953D02*
X43129Y-16306D01*
X13136Y-15648D02*
X13136Y-15948D01*
X41009Y-17044D02*
X40660Y-16695D01*
X12369Y-17005D02*
X11174Y-17005D01*
X12369Y-17005D02*
X13136Y-16238D01*
X13136Y-15948D02*
X13136Y-16238D01*
X10489Y-14827D02*
X10489Y-12581D01*
X10749Y-15087D02*
X10489Y-14827D01*
X10749Y-16580D02*
X10749Y-15087D01*
X11174Y-17005D02*
X10749Y-16580D01*
X42495Y-17204D02*
X40869Y-17204D01*
X13392Y-15662D02*
X13680Y-15374D01*
X13680Y-15374D02*
X14644Y-15374D01*
X14644Y-15374D02*
X15769Y-14249D01*
X15769Y-14249D02*
X39217Y-14249D01*
X39217Y-14249D02*
X40495Y-15527D01*
X40495Y-15527D02*
X40495Y-16830D01*
X43385Y-15953D02*
X43385Y-16315D01*
X42495Y-17204D02*
X43385Y-16315D01*
X40495Y-16830D02*
X40869Y-17204D01*
X13392Y-15662D02*
X13392Y-15948D01*
X12466Y-17165D02*
X11108Y-17165D01*
X12466Y-17165D02*
X13392Y-16238D01*
X13392Y-15948D02*
X13392Y-16238D01*
X10292Y-14856D02*
X10292Y-12581D01*
X10589Y-15153D02*
X10292Y-14856D01*
X10589Y-16646D02*
X10589Y-15153D01*
X11108Y-17165D02*
X10589Y-16646D01*
X40729Y-17364D02*
X42563Y-17364D01*
X13648Y-15661D02*
X13775Y-15535D01*
X13775Y-15535D02*
X14711Y-15535D01*
X14711Y-15535D02*
X15836Y-14409D01*
X15836Y-14409D02*
X39151Y-14409D01*
X39151Y-14409D02*
X40335Y-15593D01*
X40335Y-15593D02*
X40335Y-16970D01*
X40335Y-16970D02*
X40729Y-17364D01*
X42563Y-17364D02*
X43641Y-16287D01*
X43641Y-15953D02*
X43641Y-16287D01*
X13648Y-15661D02*
X13648Y-15948D01*
X12559Y-17325D02*
X11042Y-17325D01*
X12559Y-17325D02*
X13648Y-16236D01*
X13648Y-15948D02*
X13648Y-16236D01*
X10095Y-14885D02*
X10095Y-12581D01*
X10429Y-15220D02*
X10095Y-14885D01*
X10429Y-16712D02*
X10429Y-15220D01*
X11042Y-17325D02*
X10429Y-16712D01*
X7693Y-14845D02*
X8973Y-14845D01*
X6956Y-11538D02*
X6860Y-11635D01*
X6860Y-11635D02*
X6860Y-14011D01*
X6860Y-14011D02*
X7693Y-14845D01*
X7280Y-11538D02*
X6956Y-11538D01*
X9380Y-15251D02*
X9380Y-15953D01*
X8973Y-14845D02*
X9380Y-15251D01*
X14080Y-16505D02*
X14422Y-16505D01*
X38644Y-14889D02*
X39390Y-15635D01*
X39390Y-15943D02*
X39390Y-15635D01*
X9380Y-16450D02*
X9380Y-15953D01*
X9380Y-16450D02*
X9545Y-16615D01*
X16037Y-14889D02*
X38644Y-14889D01*
X14422Y-16505D02*
X16037Y-14889D01*
X7760Y-14685D02*
X9040Y-14685D01*
X7760Y-14685D02*
X7020Y-13945D01*
X7020Y-13945D02*
X7020Y-11996D01*
X7280Y-11735D02*
X7020Y-11996D01*
X9591Y-15908D02*
X9636Y-15953D01*
X9591Y-15236D02*
X9591Y-15908D01*
X9040Y-14685D02*
X9591Y-15236D01*
X14305Y-16255D02*
X14446Y-16255D01*
X38759Y-14729D02*
X39646Y-15616D01*
X39646Y-15943D02*
X39646Y-15616D01*
X9636Y-16261D02*
X9850Y-16475D01*
X9636Y-16261D02*
X9636Y-15953D01*
X15971Y-14729D02*
X38759Y-14729D01*
X14446Y-16255D02*
X15971Y-14729D01*
X9111Y-12581D02*
X9111Y-14127D01*
X10269Y-15286D02*
X10269Y-16778D01*
X10269Y-16778D02*
X10976Y-17485D01*
X10976Y-17485D02*
X12749Y-17485D01*
X13904Y-16315D02*
X13904Y-15948D01*
X13904Y-16330D02*
X13904Y-16315D01*
X12749Y-17485D02*
X13904Y-16330D01*
X9111Y-14127D02*
X10269Y-15286D01*
X40589Y-17524D02*
X42650Y-17524D01*
X14524Y-15948D02*
X15902Y-14569D01*
X15902Y-14569D02*
X39084Y-14569D01*
X39084Y-14569D02*
X40170Y-15655D01*
X40170Y-17105D02*
X40589Y-17524D01*
X42650Y-17524D02*
X43897Y-16278D01*
X43897Y-15953D02*
X43897Y-16278D01*
X40170Y-15655D02*
X40170Y-17105D01*
X14524Y-15948D02*
X13904Y-15948D01*
X13585Y-17000D02*
X13680Y-17000D01*
X38459Y-15209D02*
X38878Y-15628D01*
X38878Y-15628D02*
X38878Y-15943D01*
X16170Y-15209D02*
X38459Y-15209D01*
X14370Y-17010D02*
X16170Y-15209D01*
X13690Y-17010D02*
X14370Y-17010D01*
X13680Y-17000D02*
X13690Y-17010D01*
X13585Y-17000D02*
X13665Y-17000D01*
X13665Y-17000D02*
X13670Y-17005D01*
X8868Y-16553D02*
X9545Y-17230D01*
X8868Y-15953D02*
X8868Y-16553D01*
X13585Y-17000D02*
X13585Y-17005D01*
X8868Y-15953D02*
X8868Y-15293D01*
X8740Y-15165D02*
X8868Y-15293D01*
X6897Y-11144D02*
X7280Y-11144D01*
X6539Y-14143D02*
X7561Y-15165D01*
X6539Y-11502D02*
X6539Y-14143D01*
X6897Y-11144D02*
X6539Y-11502D01*
X7561Y-15165D02*
X8740Y-15165D01*
X13115Y-17475D02*
X13155Y-17475D01*
X16325Y-15530D02*
X38270Y-15530D01*
X38270Y-15530D02*
X38366Y-15626D01*
X38366Y-15626D02*
X38366Y-15943D01*
X14365Y-17490D02*
X16325Y-15530D01*
X13170Y-17490D02*
X14365Y-17490D01*
X13155Y-17475D02*
X13170Y-17490D01*
X13115Y-17489D02*
X13120Y-17495D01*
X13115Y-17475D02*
X13115Y-17489D01*
X8356Y-15953D02*
X8356Y-16741D01*
X13115Y-17475D02*
X13115Y-17460D01*
X9255Y-17640D02*
X9255Y-17655D01*
X8356Y-16741D02*
X9255Y-17640D01*
X8356Y-15953D02*
X8356Y-15601D01*
X6839Y-10750D02*
X6219Y-11369D01*
X6219Y-11369D02*
X6219Y-14276D01*
X6219Y-14276D02*
X7428Y-15485D01*
X7428Y-15485D02*
X8240Y-15485D01*
X8240Y-15485D02*
X8356Y-15601D01*
X6839Y-10750D02*
X7280Y-10750D01*
X13835Y-16755D02*
X14398Y-16755D01*
X38554Y-15049D02*
X39134Y-15629D01*
X39134Y-15943D02*
X39134Y-15629D01*
X9124Y-16559D02*
X9124Y-15953D01*
X9545Y-16980D02*
X9860Y-16980D01*
X9124Y-16559D02*
X9545Y-16980D01*
X16103Y-15049D02*
X38554Y-15049D01*
X14398Y-16755D02*
X16103Y-15049D01*
X9123Y-15221D02*
X9123Y-15952D01*
X9123Y-15952D02*
X9124Y-15953D01*
X7627Y-15005D02*
X8907Y-15005D01*
X6927Y-11341D02*
X6699Y-11568D01*
X6699Y-11568D02*
X6699Y-14077D01*
X6699Y-14077D02*
X7627Y-15005D01*
X7280Y-11341D02*
X6927Y-11341D01*
X8907Y-15005D02*
X9123Y-15221D01*
X9123Y-15221D02*
X9124Y-15221D01*
X13350Y-17240D02*
X13425Y-17240D01*
X14360Y-17250D02*
X16240Y-15369D01*
X13435Y-17250D02*
X14360Y-17250D01*
X13425Y-17240D02*
X13435Y-17250D01*
X13360Y-17240D02*
X13370Y-17250D01*
X8612Y-16647D02*
X9445Y-17480D01*
X9445Y-17480D02*
X10065Y-17480D01*
X10065Y-17480D02*
X10230Y-17315D01*
X8612Y-15953D02*
X8612Y-16647D01*
X13350Y-17240D02*
X13360Y-17240D01*
X38622Y-15627D02*
X38622Y-15943D01*
X16240Y-15369D02*
X38364Y-15369D01*
X38364Y-15369D02*
X38622Y-15627D01*
X8612Y-15953D02*
X8612Y-15487D01*
X8450Y-15325D02*
X8612Y-15487D01*
X6868Y-10947D02*
X7280Y-10947D01*
X6379Y-14210D02*
X7494Y-15325D01*
X6379Y-11436D02*
X6379Y-14210D01*
X6868Y-10947D02*
X6379Y-11436D01*
X7494Y-15325D02*
X8450Y-15325D01*
G54D73*
X10050Y-40655D02*
X9774Y-40655D01*
X1174Y-38925D02*
X8044Y-38925D01*
X8521Y-7521D02*
X8429Y-7612D01*
X8429Y-7612D02*
X8052Y-7612D01*
X8052Y-7612D02*
X7684Y-7245D01*
X7684Y-7245D02*
X4794Y-7245D01*
X4794Y-7245D02*
X489Y-11549D01*
X489Y-11549D02*
X489Y-38240D01*
X489Y-38240D02*
X1174Y-38925D01*
X8521Y-7521D02*
X8521Y-7148D01*
X9774Y-40655D02*
X8044Y-38925D01*
X1279Y-38745D02*
X8526Y-38745D01*
X8717Y-7579D02*
X8472Y-7824D01*
X8472Y-7824D02*
X8009Y-7824D01*
X8009Y-7824D02*
X7610Y-7425D01*
X7610Y-7425D02*
X4868Y-7425D01*
X4868Y-7425D02*
X669Y-11623D01*
X669Y-11623D02*
X669Y-38135D01*
X669Y-38135D02*
X1279Y-38745D01*
X8717Y-7148D02*
X8717Y-7579D01*
X9781Y-40000D02*
X10050Y-40000D01*
X8526Y-38745D02*
X9781Y-40000D01*
X1364Y-38565D02*
X8965Y-38565D01*
X10883Y-7613D02*
X10492Y-8005D01*
X10492Y-8005D02*
X7935Y-8005D01*
X7935Y-8005D02*
X7535Y-7605D01*
X7535Y-7605D02*
X4943Y-7605D01*
X4943Y-7605D02*
X850Y-11698D01*
X850Y-11698D02*
X850Y-38051D01*
X850Y-38051D02*
X1364Y-38565D01*
X10883Y-7148D02*
X10883Y-7613D01*
X9750Y-39350D02*
X10050Y-39350D01*
X8965Y-38565D02*
X9750Y-39350D01*
X8560Y-29445D02*
X38966Y-29445D01*
X4529Y-8782D02*
X2680Y-10631D01*
X2680Y-10631D02*
X2680Y-23565D01*
X2680Y-23565D02*
X8560Y-29445D01*
X7280Y-8782D02*
X4529Y-8782D01*
X39599Y-39649D02*
X40040Y-40090D01*
X39599Y-30078D02*
X39599Y-39649D01*
X38966Y-29445D02*
X39599Y-30078D01*
X8635Y-29265D02*
X39041Y-29265D01*
X4587Y-8979D02*
X2860Y-10705D01*
X2860Y-10705D02*
X2860Y-23490D01*
X2860Y-23490D02*
X8635Y-29265D01*
X7280Y-8979D02*
X4587Y-8979D01*
X39780Y-39180D02*
X40040Y-39440D01*
X39780Y-30003D02*
X39780Y-39180D01*
X39041Y-29265D02*
X39780Y-30003D01*
X39972Y-29941D02*
X39972Y-38722D01*
X39116Y-29085D02*
X39972Y-29941D01*
X4645Y-9176D02*
X3040Y-10780D01*
X3040Y-10780D02*
X3040Y-23415D01*
X3040Y-23415D02*
X8710Y-29085D01*
X7280Y-9176D02*
X4645Y-9176D01*
X8710Y-29085D02*
X39116Y-29085D01*
X39972Y-38722D02*
X40040Y-38790D01*
G54D67*
X15840Y-52940D02*
X15840Y-54160D01*
X15840Y-54160D02*
X15850Y-54170D01*
X15840Y-52940D02*
X15840Y-52670D01*
X14340Y-52630D02*
X14340Y-52940D01*
X14530Y-52440D02*
X14340Y-52630D01*
X15610Y-52440D02*
X14530Y-52440D01*
X15840Y-52670D02*
X15610Y-52440D01*
X14340Y-52940D02*
X12880Y-52940D01*
X12880Y-52940D02*
X12800Y-53020D01*
G54D74*
X12800Y-53486D02*
X12800Y-53020D01*
X12800Y-53020D02*
X12800Y-52400D01*
G54D67*
X16600Y-50320D02*
X16840Y-50560D01*
X16840Y-50560D02*
X16840Y-50840D01*
X12800Y-52400D02*
X12800Y-51000D01*
X13480Y-50320D02*
X12800Y-51000D01*
X16340Y-50320D02*
X16600Y-50320D01*
X13480Y-50320D02*
X16340Y-50320D01*
X16340Y-50840D02*
X16340Y-50320D01*
G54D70*
X28550Y-35725D02*
X28550Y-36408D01*
X28550Y-36408D02*
X28567Y-36425D01*
G54D67*
X21620Y-56660D02*
X21260Y-56660D01*
X20600Y-57320D02*
X20600Y-57820D01*
X21260Y-56660D02*
X20600Y-57320D01*
X23720Y-58160D02*
X22960Y-58160D01*
X19100Y-58600D02*
X17600Y-57100D01*
X22520Y-58600D02*
X19100Y-58600D01*
X22960Y-58160D02*
X22520Y-58600D01*
X16350Y-56750D02*
X16700Y-57100D01*
X16700Y-57100D02*
X17600Y-57100D01*
X16350Y-56270D02*
X16350Y-56750D01*
X16420Y-57380D02*
X16700Y-57100D01*
X16420Y-57920D02*
X16420Y-57380D01*
G54D70*
X31400Y-35725D02*
X31400Y-36418D01*
X31400Y-36418D02*
X31407Y-36425D01*
X27150Y-35625D02*
X27150Y-36402D01*
X27150Y-36402D02*
X27147Y-36405D01*
G54D73*
X12713Y-10947D02*
X19205Y-10947D01*
G54D70*
X28296Y-7975D02*
X28296Y-7589D01*
G54D73*
X28042Y-8705D02*
X28298Y-8961D01*
X20313Y-8705D02*
X28042Y-8705D01*
X19624Y-9395D02*
X20313Y-8705D01*
X19624Y-10529D02*
X19624Y-9395D01*
X19205Y-10947D02*
X19624Y-10529D01*
G54D80*
X8127Y-12581D02*
X8127Y-12937D01*
X7720Y-13345D02*
X7720Y-13505D01*
X8127Y-12937D02*
X7720Y-13345D01*
G54D70*
X10680Y-6015D02*
X9935Y-6015D01*
X9935Y-6015D02*
X9860Y-6090D01*
G54D72*
X10095Y-7148D02*
X10095Y-6325D01*
X10095Y-6325D02*
X10100Y-6330D01*
X10489Y-7148D02*
X10489Y-6719D01*
X10489Y-6719D02*
X10100Y-6330D01*
X10100Y-6330D02*
X9860Y-6090D01*
G54D70*
X5950Y-4825D02*
X5950Y-5805D01*
X5950Y-5805D02*
X6370Y-6225D01*
G54D73*
X8324Y-7148D02*
X8324Y-6799D01*
X6720Y-6575D02*
X6370Y-6225D01*
X8100Y-6575D02*
X6720Y-6575D01*
X8324Y-6799D02*
X8100Y-6575D01*
G54D70*
X3000Y-4825D02*
X3000Y-5855D01*
X3000Y-5855D02*
X2630Y-6225D01*
G54D73*
X2630Y-6225D02*
X2630Y-6694D01*
X8003Y-7025D02*
X8127Y-7148D01*
X2960Y-7025D02*
X8003Y-7025D01*
X2630Y-6694D02*
X2960Y-7025D01*
G54D70*
X11985Y-1129D02*
X11985Y-2039D01*
G54D68*
X11985Y-2039D02*
X11980Y-2045D01*
G54D67*
X17025Y-4430D02*
X17025Y-3090D01*
X17025Y-3090D02*
X16980Y-3045D01*
X16980Y-2045D02*
X16980Y-3045D01*
G54D70*
X8992Y-1129D02*
X8992Y-2032D01*
X8992Y-2032D02*
X8980Y-2045D01*
X19795Y-21155D02*
X20793Y-21155D01*
X20793Y-21155D02*
X20795Y-21153D01*
X7969Y-1129D02*
X7969Y-2034D01*
X7969Y-2034D02*
X7980Y-2045D01*
X23070Y-5465D02*
X24200Y-5465D01*
X24200Y-5465D02*
X25270Y-6535D01*
X25270Y-6535D02*
X25270Y-6805D01*
X32475Y-7700D02*
X33520Y-7700D01*
X23160Y-4565D02*
X23630Y-4565D01*
X23630Y-4565D02*
X23770Y-4705D01*
X22380Y-4570D02*
X23155Y-4570D01*
X23155Y-4570D02*
X23160Y-4565D01*
X21560Y-4565D02*
X22375Y-4565D01*
X22375Y-4565D02*
X22380Y-4570D01*
X23070Y-6805D02*
X23770Y-6805D01*
X24770Y-4705D02*
X24770Y-4006D01*
X24770Y-4006D02*
X24898Y-3878D01*
X24270Y-4705D02*
X24270Y-4037D01*
X24270Y-4037D02*
X24111Y-3878D01*
X24270Y-6135D02*
X22480Y-6135D01*
X24270Y-6805D02*
X24270Y-6135D01*
X24270Y-6135D02*
X24280Y-6135D01*
X24280Y-6135D02*
X24510Y-6135D01*
X24770Y-6395D02*
X24770Y-6805D01*
X24510Y-6135D02*
X24770Y-6395D01*
X33520Y-8490D02*
X32405Y-8490D01*
X31980Y-7195D02*
X32475Y-6700D01*
X31980Y-8065D02*
X31980Y-7195D01*
X32405Y-8490D02*
X31980Y-8065D01*
X25000Y-1075D02*
X25210Y-1075D01*
X25210Y-1075D02*
X25706Y-1571D01*
X27488Y-5125D02*
X27488Y-6840D01*
X26504Y-4141D02*
X27488Y-5125D01*
X26504Y-1827D02*
X26504Y-4141D01*
X26248Y-1571D02*
X26504Y-1827D01*
X25706Y-1571D02*
X26248Y-1571D01*
X24500Y-1575D02*
X25250Y-1575D01*
X25250Y-1575D02*
X25500Y-1825D01*
X24500Y-1575D02*
X24000Y-1075D01*
X25500Y-3890D02*
X25500Y-1825D01*
X26700Y-6840D02*
X26700Y-5090D01*
X26700Y-5090D02*
X25500Y-3890D01*
X20804Y-31184D02*
X20804Y-34004D01*
X22525Y-35725D02*
X24100Y-35725D01*
X20804Y-34004D02*
X22525Y-35725D01*
X20016Y-31184D02*
X20016Y-35041D01*
X20700Y-35725D02*
X21100Y-35725D01*
X20016Y-35041D02*
X20700Y-35725D01*
X19275Y-35725D02*
X19275Y-31230D01*
X19275Y-31230D02*
X19229Y-31184D01*
X18441Y-31184D02*
X18441Y-34983D01*
X17700Y-35725D02*
X16300Y-35725D01*
X18441Y-34983D02*
X17700Y-35725D01*
X30800Y-35725D02*
X30800Y-35125D01*
X23953Y-31653D02*
X23953Y-31184D01*
X27125Y-34825D02*
X23953Y-31653D01*
X30500Y-34825D02*
X27125Y-34825D01*
X30800Y-35125D02*
X30500Y-34825D01*
X23166Y-31184D02*
X23166Y-31616D01*
X29375Y-35400D02*
X29375Y-35725D01*
X29030Y-35055D02*
X29375Y-35400D01*
X26605Y-35055D02*
X29030Y-35055D01*
X23166Y-31616D02*
X26605Y-35055D01*
X27950Y-35725D02*
X27950Y-35485D01*
X22378Y-31478D02*
X22378Y-31184D01*
X26210Y-35310D02*
X22378Y-31478D01*
X27775Y-35310D02*
X26210Y-35310D01*
X27950Y-35485D02*
X27775Y-35310D01*
X26550Y-35725D02*
X25900Y-35725D01*
X21591Y-31416D02*
X21591Y-31184D01*
X25900Y-35725D02*
X21591Y-31416D01*
X34224Y-39165D02*
X34224Y-38474D01*
X34224Y-38474D02*
X34045Y-38295D01*
X34045Y-38295D02*
X34160Y-38295D01*
X33240Y-38769D02*
X32824Y-39185D01*
X33240Y-38295D02*
X33240Y-38769D01*
G54D67*
X33240Y-38295D02*
X32525Y-38295D01*
X32525Y-38295D02*
X32520Y-38290D01*
G54D79*
X42740Y-3155D02*
X41005Y-3155D01*
X41005Y-3155D02*
X41000Y-3150D01*
G54D72*
X41366Y-4665D02*
X42720Y-4665D01*
X41366Y-3155D02*
X41366Y-4665D01*
X42720Y-4665D02*
X42740Y-4645D01*
X41366Y-1665D02*
X41366Y-3155D01*
X42740Y-1665D02*
X41366Y-1665D01*
X44116Y-1665D02*
X42740Y-1665D01*
X44116Y-3155D02*
X44116Y-1665D01*
X42740Y-1665D02*
X42740Y-1645D01*
X44116Y-4665D02*
X44116Y-3155D01*
X42740Y-4645D02*
X44096Y-4645D01*
X44096Y-4645D02*
X44116Y-4665D01*
X42740Y-4645D02*
X42725Y-4645D01*
X42740Y-1645D02*
X42740Y-1645D01*
X42740Y-1645D02*
X42725Y-1645D01*
X44225Y-3155D02*
X44225Y-3145D01*
X42740Y-3155D02*
X42740Y-3565D01*
X42740Y-3565D02*
X43125Y-3950D01*
X42740Y-3155D02*
X43130Y-3155D01*
X43130Y-3155D02*
X43525Y-3550D01*
X42740Y-3155D02*
X42740Y-3535D01*
X42740Y-3535D02*
X42325Y-3950D01*
X42740Y-3155D02*
X42320Y-3155D01*
X42320Y-3155D02*
X41925Y-3550D01*
X42740Y-3155D02*
X42740Y-2765D01*
X42740Y-2765D02*
X42325Y-2350D01*
X42740Y-3155D02*
X42330Y-3155D01*
X42330Y-3155D02*
X41925Y-2750D01*
X42740Y-3155D02*
X43120Y-3155D01*
X43120Y-3155D02*
X43525Y-2750D01*
X42740Y-3155D02*
X42740Y-2735D01*
X42740Y-2735D02*
X43125Y-2350D01*
X42740Y-3155D02*
X42740Y-3135D01*
X42740Y-3135D02*
X43525Y-2350D01*
X42740Y-3135D02*
X43125Y-2750D01*
X42740Y-3155D02*
X42730Y-3155D01*
X42730Y-3155D02*
X41925Y-2350D01*
X42730Y-3155D02*
X42325Y-2750D01*
X42740Y-3155D02*
X42720Y-3155D01*
X42720Y-3155D02*
X41925Y-3950D01*
X42720Y-3155D02*
X42325Y-3550D01*
X42740Y-3155D02*
X42740Y-3165D01*
X42740Y-3165D02*
X43525Y-3950D01*
X42740Y-3165D02*
X43125Y-3550D01*
X42740Y-3155D02*
X42740Y-3935D01*
X42740Y-3935D02*
X42725Y-3950D01*
X42740Y-3535D02*
X42725Y-3550D01*
X42740Y-3155D02*
X43520Y-3155D01*
X43520Y-3155D02*
X43525Y-3150D01*
X43120Y-3155D02*
X43125Y-3150D01*
X42740Y-3155D02*
X42740Y-2365D01*
X42740Y-2365D02*
X42725Y-2350D01*
X42740Y-2765D02*
X42725Y-2750D01*
X42740Y-3155D02*
X41930Y-3155D01*
X41930Y-3155D02*
X41925Y-3150D01*
X42330Y-3155D02*
X42325Y-3150D01*
X42730Y-3155D02*
X42725Y-3150D01*
G54D79*
X42740Y-3155D02*
X42740Y-4645D01*
X42740Y-4645D02*
X42740Y-4945D01*
G54D69*
X42740Y-4945D02*
X42730Y-4955D01*
G54D68*
X37795Y-4340D02*
X37795Y-5035D01*
X37795Y-5035D02*
X37790Y-5040D01*
X37795Y-4340D02*
X37795Y-3675D01*
X37795Y-3675D02*
X37800Y-3670D01*
G54D75*
X37795Y-4340D02*
X38330Y-4340D01*
G54D79*
X42740Y-3155D02*
X44225Y-3155D01*
X44225Y-3155D02*
X44420Y-3155D01*
G54D69*
X44420Y-3155D02*
X44430Y-3165D01*
G54D79*
X42740Y-3155D02*
X42740Y-1645D01*
X42740Y-1645D02*
X42740Y-1335D01*
G54D69*
X42740Y-1335D02*
X42730Y-1325D01*
G54D79*
X49850Y-5735D02*
X51417Y-5735D01*
G54D78*
X51417Y-5735D02*
X51512Y-5829D01*
X45678Y-41940D02*
X45678Y-44123D01*
X45678Y-44123D02*
X45680Y-44125D01*
X45681Y-40368D02*
X45681Y-41937D01*
X46375Y-39674D02*
X45681Y-40368D01*
X47168Y-39674D02*
X46375Y-39674D01*
X45681Y-41937D02*
X45678Y-41940D01*
G54D75*
X45680Y-44125D02*
X44795Y-44125D01*
X44795Y-44125D02*
X44660Y-44260D01*
G54D67*
X47168Y-39674D02*
X47274Y-39674D01*
X47490Y-39890D02*
X47490Y-40620D01*
X47274Y-39674D02*
X47490Y-39890D01*
G54D76*
X47966Y-10785D02*
X47132Y-10785D01*
X47132Y-10785D02*
X45880Y-12037D01*
X45880Y-12037D02*
X44417Y-12037D01*
X44417Y-12037D02*
X44405Y-12025D01*
G54D75*
X44405Y-12025D02*
X44405Y-11370D01*
X44405Y-11370D02*
X43210Y-10175D01*
X43210Y-10175D02*
X42865Y-10175D01*
X44420Y-12765D02*
X44420Y-12040D01*
X44420Y-12040D02*
X44405Y-12025D01*
X22830Y-42455D02*
X21190Y-42455D01*
X21190Y-42455D02*
X21085Y-42560D01*
X24275Y-43505D02*
X24275Y-42960D01*
X24775Y-44005D02*
X24275Y-43505D01*
X23770Y-42455D02*
X22830Y-42455D01*
X24275Y-42960D02*
X23770Y-42455D01*
G54D81*
X15110Y-43060D02*
X15110Y-44360D01*
X15110Y-44360D02*
X15510Y-44760D01*
X13710Y-44760D02*
X13410Y-44760D01*
X13410Y-44760D02*
X12835Y-44185D01*
G54D74*
X11530Y-54360D02*
X12713Y-54360D01*
X12713Y-54360D02*
X12800Y-54273D01*
X11530Y-54360D02*
X11530Y-53390D01*
X11530Y-53390D02*
X11540Y-53380D01*
G54D68*
X22035Y-43910D02*
X22035Y-44159D01*
X23477Y-44577D02*
X23550Y-44505D01*
X22452Y-44577D02*
X23477Y-44577D01*
X22035Y-44159D02*
X22452Y-44577D01*
G54D67*
X25563Y-36775D02*
X25563Y-41380D01*
X25563Y-41380D02*
X25570Y-41380D01*
X25080Y-41380D02*
X25570Y-41380D01*
X25570Y-41380D02*
X26060Y-41380D01*
G54D71*
X27680Y-56660D02*
X29113Y-56660D01*
X29113Y-56660D02*
X29120Y-56653D01*
G54D67*
X14840Y-52940D02*
X14840Y-54520D01*
X14840Y-54520D02*
X13920Y-55440D01*
X14840Y-52940D02*
X15340Y-52940D01*
X16940Y-55220D02*
X16350Y-54630D01*
X16350Y-54630D02*
X16350Y-54170D01*
X17580Y-55220D02*
X16940Y-55220D01*
X15350Y-56270D02*
X14070Y-56270D01*
X14070Y-56270D02*
X13920Y-56420D01*
X16020Y-58360D02*
X17060Y-58360D01*
X15850Y-56730D02*
X15480Y-57100D01*
X15480Y-57100D02*
X14600Y-57100D01*
X15850Y-56270D02*
X15850Y-56730D01*
X15820Y-57440D02*
X15480Y-57100D01*
X15820Y-57920D02*
X15820Y-57440D01*
X15820Y-58160D02*
X16020Y-58360D01*
X17060Y-58360D02*
X17600Y-57820D01*
X15820Y-57920D02*
X15820Y-58160D01*
X27090Y-51940D02*
X27090Y-51230D01*
X27610Y-52440D02*
X27590Y-52440D01*
X27090Y-51940D02*
X27590Y-52440D01*
X27260Y-51060D02*
X27630Y-51060D01*
X27090Y-51230D02*
X27260Y-51060D01*
X27610Y-52440D02*
X28090Y-52440D01*
X26882Y-53167D02*
X27610Y-52440D01*
X26882Y-53186D02*
X26882Y-53167D01*
G54D74*
X11540Y-46760D02*
X11540Y-47830D01*
X11540Y-47830D02*
X11535Y-47835D01*
X11535Y-47835D02*
X12773Y-47835D01*
X12773Y-47835D02*
X12835Y-47773D01*
X12835Y-46986D02*
X12835Y-45310D01*
G54D68*
X17035Y-45260D02*
X16010Y-45260D01*
G54D75*
X14210Y-45260D02*
X14260Y-45260D01*
X15975Y-45295D02*
X16010Y-45260D01*
G54D81*
X14295Y-45295D02*
X15975Y-45295D01*
G54D75*
X14260Y-45260D02*
X14295Y-45295D01*
G54D81*
X14210Y-45260D02*
X14235Y-45260D01*
X14235Y-45260D02*
X14285Y-45310D01*
X12835Y-45310D02*
X14160Y-45310D01*
X14160Y-45310D02*
X14210Y-45260D01*
G54D67*
X17035Y-44760D02*
X16770Y-44760D01*
X16520Y-43495D02*
X16085Y-43060D01*
X16520Y-44510D02*
X16520Y-43495D01*
X16770Y-44760D02*
X16520Y-44510D01*
G54D68*
X30610Y-50060D02*
X31810Y-50060D01*
X31810Y-50060D02*
X31830Y-50080D01*
X31810Y-50880D02*
X31810Y-50100D01*
X31810Y-50100D02*
X31830Y-50080D01*
X31810Y-50880D02*
X31810Y-51860D01*
G54D67*
X30610Y-48673D02*
X30703Y-48580D01*
X30610Y-50060D02*
X30610Y-48673D01*
X27630Y-51560D02*
X28510Y-51560D01*
X28510Y-51560D02*
X28810Y-51860D01*
X27630Y-50560D02*
X28320Y-50560D01*
X29810Y-50260D02*
X30010Y-50060D01*
X28620Y-50260D02*
X29810Y-50260D01*
X28320Y-50560D02*
X28620Y-50260D01*
X25090Y-52440D02*
X25360Y-52440D01*
X27240Y-50560D02*
X27630Y-50560D01*
X25360Y-52440D02*
X27240Y-50560D01*
G54D81*
X24380Y-52930D02*
X24600Y-52930D01*
X24600Y-52930D02*
X25090Y-52440D01*
G54D67*
X25390Y-52440D02*
X25090Y-52440D01*
X26136Y-53186D02*
X25390Y-52440D01*
X26282Y-53186D02*
X26136Y-53186D01*
G54D71*
X27030Y-43961D02*
X27030Y-43655D01*
X27030Y-43655D02*
X25830Y-42455D01*
G54D67*
X16608Y-36795D02*
X16608Y-41287D01*
X16608Y-41287D02*
X16547Y-41347D01*
X16127Y-41347D02*
X16547Y-41347D01*
X16547Y-41347D02*
X17107Y-41347D01*
X22573Y-36775D02*
X22573Y-41360D01*
X22573Y-41360D02*
X22570Y-41360D01*
X22100Y-41360D02*
X22570Y-41360D01*
X22570Y-41360D02*
X23065Y-41360D01*
X23065Y-41360D02*
X23075Y-41370D01*
G54D68*
X20910Y-43910D02*
X20910Y-44215D01*
X24612Y-45167D02*
X25275Y-44505D01*
X21862Y-45167D02*
X24612Y-45167D01*
X20910Y-44215D02*
X21862Y-45167D01*
X19560Y-44760D02*
X20060Y-44760D01*
X20060Y-44760D02*
X20910Y-43910D01*
X19135Y-44760D02*
X19560Y-44760D01*
X19560Y-44760D02*
X19585Y-44760D01*
X19585Y-44760D02*
X19885Y-44760D01*
X19885Y-44760D02*
X19935Y-44710D01*
X23050Y-44005D02*
X23041Y-44005D01*
X20586Y-43061D02*
X20585Y-43060D01*
X22098Y-43061D02*
X20586Y-43061D01*
X23041Y-44005D02*
X22098Y-43061D01*
X19085Y-43060D02*
X17785Y-43060D01*
X17035Y-43810D02*
X17035Y-44260D01*
X17785Y-43060D02*
X17035Y-43810D01*
G54D75*
X20585Y-43060D02*
X20485Y-43060D01*
X19110Y-43085D02*
X19085Y-43060D01*
X20460Y-43085D02*
X19110Y-43085D01*
X20485Y-43060D02*
X20460Y-43085D01*
G54D67*
X19135Y-45760D02*
X19135Y-46335D01*
X19135Y-46335D02*
X19585Y-46785D01*
G54D68*
X20910Y-46910D02*
X22035Y-46910D01*
X20910Y-46910D02*
X20910Y-46135D01*
X20035Y-45260D02*
X20910Y-46135D01*
X20035Y-45260D02*
X19535Y-45260D01*
X19135Y-45260D02*
X19535Y-45260D01*
X19535Y-45260D02*
X19885Y-45260D01*
X19885Y-45260D02*
X19935Y-45310D01*
G54D67*
X19613Y-36775D02*
X19613Y-41337D01*
X19613Y-41337D02*
X19600Y-41350D01*
X19120Y-41350D02*
X19600Y-41350D01*
X19600Y-41350D02*
X20100Y-41350D01*
G54D68*
X24080Y-37470D02*
X24080Y-38380D01*
G54D75*
X25080Y-38380D02*
X24080Y-38380D01*
G54D68*
X21100Y-37460D02*
X21100Y-38360D01*
G54D75*
X21100Y-38360D02*
X22100Y-38360D01*
G54D68*
X18100Y-37460D02*
X18100Y-38360D01*
G54D75*
X18100Y-38360D02*
X19110Y-38360D01*
G54D67*
X19110Y-38360D02*
X19120Y-38350D01*
G54D68*
X15127Y-38347D02*
X15127Y-37472D01*
X15127Y-37472D02*
X15130Y-37470D01*
G54D75*
X15127Y-38347D02*
X16127Y-38347D01*
G54D72*
X31787Y-55671D02*
X25961Y-55671D01*
X24270Y-56160D02*
X24569Y-55860D01*
G54D70*
X21620Y-57160D02*
X22790Y-57160D01*
G54D72*
X24230Y-56160D02*
X24270Y-56160D01*
X34370Y-53088D02*
X34370Y-44580D01*
X31787Y-55671D02*
X34370Y-53088D01*
X34370Y-44580D02*
X33800Y-44010D01*
G54D70*
X31360Y-41570D02*
X31360Y-39240D01*
X31360Y-41570D02*
X32875Y-43085D01*
G54D72*
X25772Y-55860D02*
X24569Y-55860D01*
X25961Y-55671D02*
X25772Y-55860D01*
G54D70*
X31840Y-39220D02*
X31380Y-39220D01*
X31380Y-39220D02*
X31360Y-39240D01*
X32273Y-36800D02*
X32273Y-37207D01*
X31360Y-38120D02*
X31360Y-39240D01*
X32273Y-37207D02*
X31360Y-38120D01*
G54D67*
X21620Y-57160D02*
X21620Y-57660D01*
X17340Y-50840D02*
X17340Y-51320D01*
X15840Y-50840D02*
X15840Y-51040D01*
X18420Y-50520D02*
X18420Y-50340D01*
X17620Y-51320D02*
X18420Y-50520D01*
X16120Y-51320D02*
X17340Y-51320D01*
X17340Y-51320D02*
X17620Y-51320D01*
X15840Y-51040D02*
X16120Y-51320D01*
G54D72*
X20440Y-54300D02*
X25532Y-54300D01*
G54D70*
X28540Y-40160D02*
X32160Y-43780D01*
G54D72*
X19990Y-53850D02*
X17680Y-53850D01*
X20440Y-54300D02*
X19990Y-53850D01*
X16840Y-52940D02*
X16840Y-53010D01*
X17680Y-53850D02*
X16840Y-53010D01*
X33770Y-45390D02*
X33110Y-44730D01*
G54D70*
X28540Y-40160D02*
X28540Y-39220D01*
G54D72*
X33770Y-52840D02*
X33770Y-45390D01*
X31540Y-55070D02*
X33770Y-52840D01*
X26302Y-55070D02*
X31540Y-55070D01*
X25532Y-54300D02*
X26302Y-55070D01*
G54D70*
X28960Y-39220D02*
X28540Y-39220D01*
X28540Y-39220D02*
X28560Y-39220D01*
X28013Y-37613D02*
X28540Y-38140D01*
X28540Y-38140D02*
X28540Y-39240D01*
X28013Y-36780D02*
X28013Y-37613D01*
X28560Y-39220D02*
X28540Y-39240D01*
X16840Y-52940D02*
X16840Y-52540D01*
X16840Y-52540D02*
X15340Y-51040D01*
X15340Y-51040D02*
X15340Y-50840D01*
G54D72*
X33970Y-45120D02*
X33970Y-52922D01*
X31622Y-55270D02*
X26220Y-55270D01*
X26220Y-55270D02*
X25450Y-54500D01*
X25450Y-54500D02*
X20357Y-54500D01*
G54D70*
X29433Y-39220D02*
X29433Y-40583D01*
G54D72*
X33970Y-45120D02*
X33340Y-44490D01*
X16340Y-52970D02*
X16340Y-52940D01*
X19907Y-54050D02*
X20357Y-54500D01*
X17420Y-54050D02*
X19907Y-54050D01*
X16340Y-52970D02*
X17420Y-54050D01*
G54D70*
X29433Y-40583D02*
X32415Y-43565D01*
G54D72*
X33970Y-52922D02*
X31622Y-55270D01*
G54D70*
X29920Y-39220D02*
X29433Y-39220D01*
X29433Y-36800D02*
X29433Y-39220D01*
X16340Y-52940D02*
X16340Y-52630D01*
X14840Y-51130D02*
X14840Y-50840D01*
X16340Y-52630D02*
X14840Y-51130D01*
G54D72*
X23720Y-55660D02*
X25630Y-55660D01*
X31705Y-55470D02*
X34170Y-53005D01*
X34170Y-44850D02*
X33575Y-44255D01*
X34170Y-53005D02*
X34170Y-44850D01*
X25819Y-55470D02*
X31705Y-55470D01*
X25630Y-55660D02*
X25819Y-55470D01*
G54D70*
X30400Y-39220D02*
X30400Y-41080D01*
X30400Y-41080D02*
X32650Y-43330D01*
G54D67*
X23720Y-56160D02*
X23720Y-55660D01*
G54D70*
X30880Y-39220D02*
X30400Y-39220D01*
X30400Y-39220D02*
X30400Y-39200D01*
X30853Y-37667D02*
X30400Y-38120D01*
X30853Y-37667D02*
X30853Y-36800D01*
X30400Y-38120D02*
X30400Y-39200D01*
G54D68*
X22600Y-50150D02*
X22050Y-50150D01*
X22050Y-50150D02*
X22020Y-50180D01*
G54D81*
X21400Y-48350D02*
X21530Y-48350D01*
X21380Y-50820D02*
X21380Y-50970D01*
X22020Y-50180D02*
X21380Y-50820D01*
X22020Y-48840D02*
X22020Y-50180D01*
X21530Y-48350D02*
X22020Y-48840D01*
X20736Y-50970D02*
X20300Y-50533D01*
X21380Y-50970D02*
X20736Y-50970D01*
X21380Y-51950D02*
X21380Y-50970D01*
G54D67*
X28090Y-48170D02*
X28090Y-49190D01*
X25530Y-50560D02*
X26100Y-50560D01*
X27470Y-49190D02*
X28090Y-49190D01*
X26100Y-50560D02*
X27470Y-49190D01*
X24380Y-51950D02*
X24380Y-51790D01*
X25110Y-51060D02*
X25530Y-51060D01*
X24380Y-51790D02*
X25110Y-51060D01*
G54D68*
X25530Y-50060D02*
X25530Y-49630D01*
X25530Y-49630D02*
X25090Y-49190D01*
X27490Y-48170D02*
X26110Y-48170D01*
X26110Y-48170D02*
X25090Y-49190D01*
G54D67*
X25530Y-50060D02*
X23290Y-50060D01*
X23290Y-50060D02*
X23200Y-50150D01*
G54D74*
X24400Y-49330D02*
X24950Y-49330D01*
X24950Y-49330D02*
X25090Y-49190D01*
G54D67*
X36410Y-57130D02*
X36410Y-56850D01*
X36390Y-50970D02*
X37040Y-50320D01*
X36390Y-54280D02*
X36390Y-50970D01*
X36000Y-54670D02*
X36390Y-54280D01*
X36000Y-56440D02*
X36000Y-54670D01*
X36410Y-56850D02*
X36000Y-56440D01*
G54D75*
X40920Y-52193D02*
X40920Y-56330D01*
X39290Y-57960D02*
X38660Y-57960D01*
X40920Y-56330D02*
X39290Y-57960D01*
G54D67*
X37410Y-57130D02*
X37410Y-57470D01*
X37900Y-57960D02*
X38660Y-57960D01*
X37410Y-57470D02*
X37900Y-57960D01*
X36910Y-57130D02*
X36910Y-57390D01*
X36340Y-57960D02*
X35660Y-57960D01*
X36910Y-57390D02*
X36340Y-57960D01*
X36910Y-55030D02*
X36910Y-51370D01*
X36910Y-51370D02*
X37960Y-50320D01*
G54D81*
X37800Y-51406D02*
X38253Y-51406D01*
X38253Y-51406D02*
X39360Y-50300D01*
X40420Y-50300D02*
X39360Y-50300D01*
X41420Y-50300D02*
X41420Y-50906D01*
X41420Y-50906D02*
X40920Y-51406D01*
X41420Y-50300D02*
X42480Y-50300D01*
G54D67*
X37490Y-40400D02*
X37490Y-40948D01*
X37490Y-40948D02*
X37497Y-40955D01*
X38920Y-40400D02*
X38920Y-40952D01*
X38920Y-40952D02*
X38917Y-40955D01*
X37410Y-55030D02*
X37410Y-55440D01*
X39360Y-56290D02*
X39360Y-57000D01*
X38770Y-55700D02*
X39360Y-56290D01*
X37670Y-55700D02*
X38770Y-55700D01*
X37410Y-55440D02*
X37670Y-55700D01*
G54D71*
X37800Y-52193D02*
X37800Y-52690D01*
X39110Y-54000D02*
X39360Y-54000D01*
X37800Y-52690D02*
X39110Y-54000D01*
G54D67*
X37910Y-55030D02*
X38330Y-55030D01*
X38330Y-55030D02*
X39360Y-54000D01*
X42500Y-26850D02*
X42500Y-27774D01*
X42500Y-27774D02*
X42497Y-27776D01*
X12495Y-26794D02*
X12495Y-27773D01*
X12495Y-27773D02*
X12497Y-27776D01*
G54D70*
X49790Y-21210D02*
X50773Y-21210D01*
X50773Y-21210D02*
X50775Y-21208D01*
G54D67*
X6852Y-20003D02*
X6852Y-19515D01*
X6852Y-19515D02*
X6591Y-19254D01*
X6852Y-20003D02*
X7393Y-20003D01*
X36891Y-20042D02*
X37433Y-20042D01*
X36891Y-20042D02*
X36891Y-19554D01*
X36891Y-19554D02*
X36591Y-19254D01*
X20770Y-19260D02*
X19982Y-19260D01*
X19982Y-19260D02*
X19977Y-19254D01*
X21520Y-19260D02*
X21520Y-19937D01*
X21520Y-19937D02*
X21170Y-20287D01*
X19785Y-20350D02*
X21107Y-20350D01*
X21107Y-20350D02*
X21170Y-20287D01*
X38033Y-20042D02*
X44379Y-20042D01*
X48402Y-20104D02*
X48402Y-19254D01*
X48016Y-20491D02*
X48402Y-20104D01*
X44828Y-20491D02*
X48016Y-20491D01*
X44379Y-20042D02*
X44828Y-20491D01*
X49977Y-19254D02*
X50809Y-19254D01*
X50809Y-19254D02*
X50810Y-19255D01*
X51560Y-19255D02*
X51560Y-19932D01*
X51560Y-19932D02*
X51150Y-20342D01*
X49790Y-20395D02*
X51097Y-20395D01*
X51097Y-20395D02*
X51150Y-20342D01*
G54D70*
X10650Y-39350D02*
X10915Y-39350D01*
X10915Y-39350D02*
X11132Y-39567D01*
X11132Y-40001D02*
X10651Y-40001D01*
X10651Y-40001D02*
X10650Y-40000D01*
X10650Y-40655D02*
X10905Y-40655D01*
X10905Y-40655D02*
X11130Y-40430D01*
X40640Y-40090D02*
X40789Y-40090D01*
X40789Y-40090D02*
X41132Y-40433D01*
X41132Y-39567D02*
X41132Y-39062D01*
X40860Y-38790D02*
X40640Y-38790D01*
X41132Y-39062D02*
X40860Y-38790D01*
X40640Y-39440D02*
X40640Y-39480D01*
X41132Y-39972D02*
X41132Y-39999D01*
X40640Y-39480D02*
X41132Y-39972D01*
G54D67*
X7993Y-20003D02*
X14275Y-20003D01*
X18402Y-20222D02*
X18015Y-20610D01*
X18015Y-20610D02*
X14882Y-20610D01*
X14882Y-20610D02*
X14275Y-20003D01*
X18402Y-20222D02*
X18402Y-19254D01*
G54D70*
X28296Y-6839D02*
X29304Y-6839D01*
X29304Y-6839D02*
X29307Y-6836D01*
G54D72*
X8100Y-4850D02*
X8100Y-6105D01*
X8100Y-6105D02*
X8600Y-6605D01*
G54D73*
X10686Y-7508D02*
X10379Y-7815D01*
X10379Y-7815D02*
X9000Y-7815D01*
X9000Y-7815D02*
X8920Y-7735D01*
X10686Y-7508D02*
X10686Y-7148D01*
G54D70*
X8100Y-4850D02*
X8100Y-4830D01*
X8885Y-4045D02*
X8920Y-4045D01*
X8100Y-4830D02*
X8885Y-4045D01*
X8100Y-4850D02*
X7475Y-4850D01*
X7475Y-4850D02*
X7275Y-4650D01*
G54D80*
X20878Y-7264D02*
X12470Y-7264D01*
X21330Y-6135D02*
X21330Y-6813D01*
X20878Y-7264D02*
X21330Y-6813D01*
X8717Y-12252D02*
X9148Y-11821D01*
X9148Y-11821D02*
X9148Y-10586D01*
X8717Y-12252D02*
X8717Y-12581D01*
X12470Y-7264D02*
X9148Y-10586D01*
G54D70*
X21330Y-6135D02*
X21880Y-6135D01*
G54D80*
X21880Y-6225D02*
X21880Y-6135D01*
G54D75*
X42420Y-45360D02*
X43760Y-45360D01*
X44860Y-46460D02*
X43760Y-45360D01*
X43860Y-55180D02*
X43860Y-55158D01*
X43860Y-55180D02*
X44860Y-54180D01*
X44860Y-54180D02*
X44860Y-46460D01*
X42420Y-46360D02*
X43787Y-46360D01*
G54D81*
X43787Y-46360D02*
X43868Y-46441D01*
G54D73*
X9308Y-7148D02*
X9308Y-4301D01*
X9575Y-4035D02*
X9860Y-4035D01*
X9308Y-4301D02*
X9575Y-4035D01*
X9860Y-4035D02*
X10480Y-4035D01*
X9980Y-2045D02*
X9980Y-2055D01*
X9980Y-2055D02*
X10480Y-2555D01*
X10480Y-2555D02*
X10480Y-4035D01*
X10480Y-4035D02*
X10480Y-4575D01*
X10480Y-4575D02*
X10880Y-4975D01*
X12122Y-6032D02*
X12443Y-6032D01*
G54D80*
X12122Y-6032D02*
X12120Y-6035D01*
G54D72*
X13605Y-4575D02*
X14099Y-4575D01*
X14099Y-4575D02*
X14449Y-4225D01*
X18427Y-5330D02*
X15554Y-5330D01*
X15554Y-5330D02*
X14449Y-4225D01*
X12943Y-5232D02*
X12943Y-4921D01*
X13290Y-4575D02*
X13605Y-4575D01*
X12943Y-4921D02*
X13290Y-4575D01*
X14840Y-7835D02*
X14840Y-8128D01*
X14840Y-8128D02*
X14952Y-8240D01*
G54D73*
X18395Y-7975D02*
X19215Y-7975D01*
X19229Y-8799D02*
X19229Y-9609D01*
X19220Y-8790D02*
X19229Y-8799D01*
X19215Y-7975D02*
X19220Y-7970D01*
X12713Y-9569D02*
X14610Y-9569D01*
X14610Y-9569D02*
X14835Y-9345D01*
X15330Y-8840D02*
X15555Y-8615D01*
X15555Y-8615D02*
X15818Y-8615D01*
G54D72*
X16495Y-8710D02*
X17065Y-8710D01*
X17065Y-8710D02*
X17225Y-8550D01*
X17225Y-8550D02*
X17440Y-8550D01*
X17440Y-8550D02*
X17795Y-8195D01*
X17795Y-8195D02*
X17795Y-7975D01*
X16495Y-8710D02*
X15913Y-8710D01*
X15913Y-8710D02*
X15818Y-8615D01*
G54D70*
X24898Y-3128D02*
X24898Y-2176D01*
X24898Y-2176D02*
X25000Y-2075D01*
X24111Y-3128D02*
X24111Y-2186D01*
X24111Y-2186D02*
X24000Y-2075D01*
X22470Y-7515D02*
X22470Y-6805D01*
G54D80*
X12603Y-7585D02*
X21690Y-7585D01*
X9505Y-12581D02*
X9505Y-10682D01*
X9505Y-10682D02*
X12603Y-7585D01*
X21690Y-7585D02*
X22470Y-6805D01*
G54D70*
X26680Y-15795D02*
X26680Y-25640D01*
X26700Y-8963D02*
X26700Y-11535D01*
X26700Y-7590D02*
X26700Y-7975D01*
X26680Y-25640D02*
X29860Y-28820D01*
X30252Y-31184D02*
X30244Y-31184D01*
X29860Y-30800D02*
X29860Y-29710D01*
X30244Y-31184D02*
X29860Y-30800D01*
X29860Y-28800D02*
X29860Y-28820D01*
X36552Y-10397D02*
X36543Y-10397D01*
X15144Y-12770D02*
X15135Y-12780D01*
X35230Y-12770D02*
X15144Y-12770D01*
X36180Y-11820D02*
X35230Y-12770D01*
X36180Y-10760D02*
X36180Y-11820D01*
X36543Y-10397D02*
X36180Y-10760D01*
X15135Y-12750D02*
X15135Y-12815D01*
X34120Y-7700D02*
X34642Y-7700D01*
X34642Y-7700D02*
X36552Y-9609D01*
G54D73*
X15300Y-9180D02*
X16225Y-9180D01*
G54D70*
X16225Y-9180D02*
X16225Y-9490D01*
X16225Y-9490D02*
X16310Y-9575D01*
G54D73*
X12713Y-7994D02*
X14114Y-7994D01*
G54D70*
X29905Y-8270D02*
X31475Y-6700D01*
X18735Y-8270D02*
X29905Y-8270D01*
X17430Y-9575D02*
X18735Y-8270D01*
G54D73*
X14114Y-7994D02*
X15300Y-9180D01*
G54D70*
X16310Y-9575D02*
X17430Y-9575D01*
X13985Y-12100D02*
X14530Y-12100D01*
X14530Y-12100D02*
X14535Y-12095D01*
G54D73*
X12804Y-12560D02*
X13865Y-12560D01*
X9702Y-12581D02*
X9702Y-12128D01*
X10150Y-11679D02*
X11924Y-11679D01*
X9702Y-12128D02*
X10150Y-11679D01*
X12804Y-12560D02*
X11924Y-11679D01*
X13985Y-12440D02*
X13985Y-12100D01*
X13865Y-12560D02*
X13985Y-12440D01*
G54D80*
X8914Y-12581D02*
X8914Y-14157D01*
X10860Y-17595D02*
X10860Y-17740D01*
X10106Y-16841D02*
X10860Y-17595D01*
X10106Y-16841D02*
X10106Y-15348D01*
X8914Y-14157D02*
X10106Y-15348D01*
X10110Y-17740D02*
X9687Y-17740D01*
X9632Y-17795D02*
X9632Y-18155D01*
X9687Y-17740D02*
X9632Y-17795D01*
X10109Y-17740D02*
X10110Y-17740D01*
X11004Y-17740D02*
X10860Y-17740D01*
X13644Y-18150D02*
X13644Y-17800D01*
X13644Y-17800D02*
X13584Y-17740D01*
X13584Y-17740D02*
X11004Y-17740D01*
X10860Y-17740D02*
X10110Y-17740D01*
X44115Y-17195D02*
X44115Y-15610D01*
X43637Y-17673D02*
X44115Y-17195D01*
X43970Y-15465D02*
X42225Y-15465D01*
X14745Y-11735D02*
X14835Y-11825D01*
X14835Y-11825D02*
X14835Y-13027D01*
X14835Y-13027D02*
X14937Y-13129D01*
X14937Y-13129D02*
X39889Y-13129D01*
X12713Y-11735D02*
X14745Y-11735D01*
X44115Y-15610D02*
X43970Y-15465D01*
X42225Y-15465D02*
X39889Y-13129D01*
X43637Y-17673D02*
X43637Y-17713D01*
X39800Y-17685D02*
X43609Y-17685D01*
X39642Y-18145D02*
X39642Y-17843D01*
X39642Y-17843D02*
X39800Y-17685D01*
X43609Y-17685D02*
X43637Y-17713D01*
X43637Y-18155D02*
X43637Y-17713D01*
G54D70*
X12969Y-1129D02*
X12969Y-2034D01*
G54D68*
X12969Y-2034D02*
X12980Y-2045D01*
G54D80*
X11080Y-7148D02*
X11080Y-5474D01*
X12520Y-2505D02*
X12980Y-2045D01*
X12520Y-4035D02*
X12520Y-2505D01*
X11080Y-5474D02*
X12520Y-4035D01*
X13142Y-4095D02*
X13775Y-4095D01*
X11670Y-5566D02*
X13142Y-4095D01*
X11670Y-5566D02*
X11670Y-7148D01*
X13775Y-4095D02*
X14030Y-3840D01*
G54D70*
X14977Y-1129D02*
X14977Y-2042D01*
G54D68*
X14977Y-2042D02*
X14980Y-2045D01*
G54D70*
X10961Y-1129D02*
X10961Y-2026D01*
G54D68*
X10961Y-2026D02*
X10980Y-2045D01*
G54D80*
X11867Y-7148D02*
X11867Y-6035D01*
X11867Y-6035D02*
X11867Y-5727D01*
X11470Y-2535D02*
X10980Y-2045D01*
X11470Y-4725D02*
X11470Y-2535D01*
X11220Y-4975D02*
X11470Y-4725D01*
X11867Y-5727D02*
X11920Y-5675D01*
G54D70*
X13992Y-1129D02*
X13992Y-2032D01*
G54D68*
X13992Y-2032D02*
X13980Y-2045D01*
G54D80*
X11473Y-7148D02*
X11473Y-5537D01*
X13166Y-3845D02*
X13480Y-3845D01*
X11473Y-5537D02*
X13166Y-3845D01*
G54D70*
X21890Y-5465D02*
X22470Y-5465D01*
G54D80*
X12536Y-7424D02*
X21134Y-7424D01*
X9308Y-10653D02*
X12536Y-7424D01*
X9308Y-12581D02*
X9308Y-10653D01*
X22470Y-5565D02*
X22470Y-5465D01*
X22170Y-5865D02*
X22470Y-5565D01*
X22170Y-6389D02*
X22170Y-5865D01*
X21134Y-7424D02*
X22170Y-6389D01*
G54D70*
X27488Y-11077D02*
X27031Y-11534D01*
X27488Y-7974D02*
X27488Y-7590D01*
X27488Y-8961D02*
X27488Y-11077D01*
X27031Y-15794D02*
X27031Y-25571D01*
X30252Y-29712D02*
X30250Y-29710D01*
X30252Y-30397D02*
X30252Y-29712D01*
X30250Y-28790D02*
X30250Y-28820D01*
X27031Y-25571D02*
X30250Y-28790D01*
X35135Y-12540D02*
X15615Y-12540D01*
X35135Y-12540D02*
X35764Y-11910D01*
X35764Y-10397D02*
X35764Y-11910D01*
X15170Y-12095D02*
X15135Y-12095D01*
X15615Y-12540D02*
X15170Y-12095D01*
X15200Y-12180D02*
X15135Y-12115D01*
X34120Y-8490D02*
X34645Y-8490D01*
X34645Y-8490D02*
X35764Y-9609D01*
X16220Y-10295D02*
X16220Y-9990D01*
X16220Y-9990D02*
X16315Y-9895D01*
G54D73*
X16160Y-10295D02*
X16220Y-10295D01*
X14057Y-8191D02*
X16160Y-10295D01*
G54D70*
X16315Y-9895D02*
X17435Y-9895D01*
X18830Y-8500D02*
X30674Y-8500D01*
X17435Y-9895D02*
X18830Y-8500D01*
X30674Y-8500D02*
X31475Y-7700D01*
G54D73*
X12713Y-8191D02*
X14057Y-8191D01*
G54D70*
X13975Y-13210D02*
X14240Y-13210D01*
X14535Y-12915D02*
X14535Y-12780D01*
X14240Y-13210D02*
X14535Y-12915D01*
G54D73*
X12740Y-12780D02*
X11820Y-11860D01*
X9899Y-12195D02*
X10235Y-11860D01*
X10235Y-11860D02*
X11820Y-11860D01*
X9899Y-12581D02*
X9899Y-12195D01*
X12740Y-12780D02*
X14535Y-12780D01*
G54D79*
X54350Y-13520D02*
X54350Y-25506D01*
X53358Y-12528D02*
X54350Y-13520D01*
X53358Y-11724D02*
X53358Y-12528D01*
X54350Y-25506D02*
X53634Y-26222D01*
G54D75*
X49766Y-10785D02*
X51261Y-10785D01*
X51261Y-10785D02*
X51316Y-10840D01*
G54D76*
X49766Y-10785D02*
X49766Y-8545D01*
X49766Y-8545D02*
X49660Y-8440D01*
G54D69*
X49766Y-8545D02*
X49660Y-8440D01*
G54D79*
X53358Y-10896D02*
X53358Y-11724D01*
X49074Y-8440D02*
X49660Y-8440D01*
X49660Y-8440D02*
X51239Y-8440D01*
X51239Y-8440D02*
X53358Y-10558D01*
X53358Y-10558D02*
X53358Y-10896D01*
X48247Y-8440D02*
X49074Y-8440D01*
X48247Y-8440D02*
X46849Y-8440D01*
X46849Y-8440D02*
X46334Y-8955D01*
X53358Y-10896D02*
X53358Y-10913D01*
X53358Y-10896D02*
X53341Y-10896D01*
X48247Y-8440D02*
X48247Y-5757D01*
G54D78*
X48247Y-5757D02*
X48270Y-5735D01*
G54D75*
X48430Y-5575D02*
X48270Y-5735D01*
G54D78*
X45840Y-5733D02*
X43891Y-5733D01*
X43891Y-5733D02*
X43640Y-5985D01*
X48245Y-5759D02*
X48270Y-5735D01*
G54D79*
X48270Y-5735D02*
X45841Y-5735D01*
G54D78*
X45841Y-5735D02*
X45840Y-5733D01*
X47168Y-37874D02*
X46094Y-37874D01*
X46094Y-37874D02*
X45338Y-38630D01*
X42298Y-41940D02*
X42298Y-41670D01*
X42298Y-41670D02*
X45338Y-38630D01*
G54D74*
X29631Y-45600D02*
X29631Y-46301D01*
X29631Y-46301D02*
X29690Y-46360D01*
X28580Y-46360D02*
X25700Y-46360D01*
X25700Y-46360D02*
X24400Y-47660D01*
G54D79*
X51665Y-27797D02*
X50712Y-27797D01*
X47230Y-31280D02*
X47230Y-32183D01*
X50712Y-27797D02*
X47230Y-31280D01*
G54D71*
X24400Y-48350D02*
X24400Y-47660D01*
X24400Y-47660D02*
X24510Y-47550D01*
X18440Y-44020D02*
X18440Y-46630D01*
X18710Y-43750D02*
X18440Y-44020D01*
G54D68*
X19135Y-43710D02*
X18710Y-43710D01*
G54D71*
X18710Y-43710D02*
X18710Y-43750D01*
X18440Y-46630D02*
X19360Y-47550D01*
X19360Y-47550D02*
X24510Y-47550D01*
G54D79*
X47530Y-32183D02*
X47230Y-32183D01*
X47230Y-32183D02*
X42940Y-32183D01*
X49380Y-32183D02*
X47530Y-32183D01*
X47530Y-32183D02*
X47231Y-32183D01*
X47231Y-32183D02*
X47230Y-32185D01*
X49380Y-32183D02*
X53659Y-32183D01*
X53659Y-32183D02*
X53659Y-31779D01*
X53659Y-31779D02*
X53659Y-32619D01*
G54D68*
X27630Y-50060D02*
X28220Y-50060D01*
X28220Y-50060D02*
X28620Y-49660D01*
G54D79*
X47230Y-32185D02*
X47230Y-37812D01*
X47230Y-37812D02*
X47168Y-37874D01*
G54D69*
X37810Y-42680D02*
X41558Y-42680D01*
X37110Y-45270D02*
X36020Y-46360D01*
X35760Y-46360D02*
X36020Y-46360D01*
X37120Y-45270D02*
X37110Y-45270D01*
X37810Y-42680D02*
X37120Y-43370D01*
X41558Y-42680D02*
X42298Y-41940D01*
G54D67*
X37910Y-57130D02*
X37910Y-56810D01*
G54D68*
X35760Y-46540D02*
X35610Y-46690D01*
X35610Y-46690D02*
X35610Y-56490D01*
X35760Y-46540D02*
X35760Y-46360D01*
G54D67*
X37590Y-56490D02*
X36700Y-56490D01*
X37910Y-56810D02*
X37590Y-56490D01*
X38580Y-57260D02*
X38040Y-57260D01*
X38040Y-57260D02*
X37910Y-57130D01*
G54D71*
X26060Y-38380D02*
X26060Y-38830D01*
X32960Y-45730D02*
X32600Y-45370D01*
X32960Y-45730D02*
X32960Y-46360D01*
X26060Y-38830D02*
X31220Y-43990D01*
G54D74*
X28540Y-46360D02*
X28580Y-46360D01*
X28580Y-46360D02*
X29690Y-46360D01*
X29690Y-46360D02*
X32960Y-46360D01*
G54D67*
X28620Y-49660D02*
X28620Y-46440D01*
X28620Y-46440D02*
X28540Y-46360D01*
X17127Y-38347D02*
X17680Y-38900D01*
X17680Y-38900D02*
X19250Y-38900D01*
X17107Y-38347D02*
X17127Y-38347D01*
X22210Y-38900D02*
X20650Y-38900D01*
X20650Y-38900D02*
X20100Y-38350D01*
X25200Y-38900D02*
X23605Y-38900D01*
X23605Y-38900D02*
X23075Y-38370D01*
G54D68*
X19135Y-44260D02*
X19135Y-43710D01*
G54D67*
X14210Y-44260D02*
X14210Y-42265D01*
X14210Y-42265D02*
X15127Y-41347D01*
X16010Y-44260D02*
X16010Y-44110D01*
X17400Y-42060D02*
X18100Y-41360D01*
X16340Y-42060D02*
X17400Y-42060D01*
X15600Y-42800D02*
X16340Y-42060D01*
X15600Y-43700D02*
X15600Y-42800D01*
X16010Y-44110D02*
X15600Y-43700D01*
X20085Y-42560D02*
X20085Y-42375D01*
X20085Y-42375D02*
X21100Y-41360D01*
X24610Y-43365D02*
X24610Y-41910D01*
X24610Y-41910D02*
X24080Y-41380D01*
X24610Y-43365D02*
X25135Y-43365D01*
X23550Y-43505D02*
X23690Y-43365D01*
X23940Y-43365D02*
X23690Y-43365D01*
X25135Y-43365D02*
X25275Y-43505D01*
G54D70*
X15961Y-1129D02*
X15961Y-2026D01*
G54D68*
X15961Y-2026D02*
X15980Y-2045D01*
G54D80*
X11276Y-7148D02*
X11276Y-5508D01*
X15485Y-2540D02*
X15980Y-2045D01*
X15485Y-3385D02*
X15485Y-2540D01*
X15285Y-3585D02*
X15485Y-3385D01*
X13200Y-3585D02*
X15285Y-3585D01*
X11276Y-5508D02*
X13200Y-3585D01*
G54D10*
G36*
X53700Y-17655D02*
X53298Y-17655D01*
X53298Y-17237D01*
X53298Y-16861D01*
X53298Y-16741D01*
X53298Y-16365D01*
X53298Y-16107D01*
X53298Y-15721D01*
X53298Y-15601D01*
X53298Y-15215D01*
X53238Y-15155D01*
X53139Y-15155D01*
X53044Y-15155D01*
X52956Y-15192D01*
X52888Y-15259D01*
X52852Y-15348D01*
X52852Y-15541D01*
X52912Y-15601D01*
X53298Y-15601D01*
X53298Y-15721D01*
X52912Y-15721D01*
X52852Y-15781D01*
X52852Y-15974D01*
X52888Y-16062D01*
X52956Y-16130D01*
X53044Y-16167D01*
X53139Y-16167D01*
X53238Y-16167D01*
X53298Y-16107D01*
X53298Y-16365D01*
X53238Y-16305D01*
X53149Y-16305D01*
X53054Y-16305D01*
X52965Y-16342D01*
X52898Y-16410D01*
X52862Y-16498D01*
X52862Y-16681D01*
X52922Y-16741D01*
X53298Y-16741D01*
X53298Y-16861D01*
X52922Y-16861D01*
X52862Y-16921D01*
X52862Y-17105D01*
X52898Y-17193D01*
X52965Y-17261D01*
X53054Y-17297D01*
X53149Y-17297D01*
X53238Y-17297D01*
X53298Y-17237D01*
X53298Y-17655D01*
X52980Y-17655D01*
X52946Y-17603D01*
X52946Y-17603D01*
X50910Y-15567D01*
X50747Y-15459D01*
X50556Y-15420D01*
X50556Y-15421D01*
X50246Y-15421D01*
X50246Y-14787D01*
X50246Y-12442D01*
X50245Y-12347D01*
X50209Y-12258D01*
X50141Y-12191D01*
X50053Y-12154D01*
X48986Y-12155D01*
X48926Y-12215D01*
X48926Y-13555D01*
X50186Y-13555D01*
X50246Y-13495D01*
X50246Y-12442D01*
X50246Y-14787D01*
X50246Y-13735D01*
X50186Y-13675D01*
X48926Y-13675D01*
X48926Y-15015D01*
X48986Y-15075D01*
X50053Y-15075D01*
X50141Y-15038D01*
X50209Y-14971D01*
X50245Y-14882D01*
X50246Y-14787D01*
X50246Y-15421D01*
X48806Y-15421D01*
X48806Y-15015D01*
X48806Y-13675D01*
X48806Y-13555D01*
X48806Y-12215D01*
X48746Y-12155D01*
X47678Y-12154D01*
X47590Y-12191D01*
X47522Y-12258D01*
X47486Y-12347D01*
X47485Y-12442D01*
X47486Y-13495D01*
X47546Y-13555D01*
X48806Y-13555D01*
X48806Y-13675D01*
X47546Y-13675D01*
X47486Y-13735D01*
X47485Y-14787D01*
X47486Y-14882D01*
X47522Y-14971D01*
X47590Y-15038D01*
X47678Y-15075D01*
X48746Y-15075D01*
X48806Y-15015D01*
X48806Y-15421D01*
X46362Y-15421D01*
X46362Y-12878D01*
X46346Y-12690D01*
X46305Y-12590D01*
X46220Y-12569D01*
X45964Y-12824D01*
X46220Y-13080D01*
X46305Y-13059D01*
X46362Y-12878D01*
X46362Y-15421D01*
X46135Y-15421D01*
X46135Y-13165D01*
X45880Y-12909D01*
X45624Y-13165D01*
X45645Y-13249D01*
X45825Y-13307D01*
X46014Y-13291D01*
X46114Y-13249D01*
X46135Y-13165D01*
X46135Y-15421D01*
X45505Y-15421D01*
X44885Y-14800D01*
X44885Y-13537D01*
X44885Y-13485D01*
X44825Y-13425D01*
X44480Y-13425D01*
X44480Y-13670D01*
X44540Y-13730D01*
X44597Y-13730D01*
X44692Y-13729D01*
X44781Y-13693D01*
X44848Y-13625D01*
X44885Y-13537D01*
X44885Y-14800D01*
X44155Y-14070D01*
X44155Y-13729D01*
X44242Y-13730D01*
X44300Y-13730D01*
X44360Y-13670D01*
X44360Y-13425D01*
X44352Y-13425D01*
X44352Y-13305D01*
X44360Y-13305D01*
X44360Y-13297D01*
X44480Y-13297D01*
X44480Y-13305D01*
X44825Y-13305D01*
X44885Y-13245D01*
X44885Y-13192D01*
X44848Y-13104D01*
X44781Y-13036D01*
X44814Y-13003D01*
X44844Y-12929D01*
X44845Y-12850D01*
X44845Y-12600D01*
X44839Y-12587D01*
X45466Y-12587D01*
X45454Y-12590D01*
X45397Y-12770D01*
X45413Y-12959D01*
X45454Y-13059D01*
X45539Y-13080D01*
X45795Y-12824D01*
X45789Y-12819D01*
X45874Y-12734D01*
X45880Y-12739D01*
X46070Y-12549D01*
X46090Y-12545D01*
X46268Y-12426D01*
X47360Y-11335D01*
X47450Y-11335D01*
X47450Y-11414D01*
X47481Y-11488D01*
X47537Y-11544D01*
X47611Y-11574D01*
X47690Y-11575D01*
X48320Y-11575D01*
X48394Y-11544D01*
X48450Y-11488D01*
X48480Y-11414D01*
X48481Y-11335D01*
X48481Y-10960D01*
X48516Y-10785D01*
X48481Y-10609D01*
X48481Y-10155D01*
X48450Y-10081D01*
X48394Y-10025D01*
X48320Y-9995D01*
X48241Y-9994D01*
X47611Y-9994D01*
X47537Y-10025D01*
X47481Y-10081D01*
X47451Y-10155D01*
X47450Y-10234D01*
X47450Y-10235D01*
X47132Y-10235D01*
X46921Y-10276D01*
X46743Y-10396D01*
X45652Y-11487D01*
X44755Y-11487D01*
X44755Y-11370D01*
X44728Y-11236D01*
X44652Y-11122D01*
X43991Y-10461D01*
X43990Y-9395D01*
X44093Y-9395D01*
X44101Y-9420D01*
X44299Y-9486D01*
X44508Y-9471D01*
X44630Y-9420D01*
X44637Y-9395D01*
X45862Y-9395D01*
X45874Y-9414D01*
X46085Y-9555D01*
X46334Y-9605D01*
X46582Y-9555D01*
X46793Y-9414D01*
X46812Y-9396D01*
X49216Y-9397D01*
X49216Y-10785D01*
X49250Y-10960D01*
X49250Y-11414D01*
X49281Y-11488D01*
X49337Y-11544D01*
X49411Y-11574D01*
X49490Y-11575D01*
X50120Y-11575D01*
X50194Y-11544D01*
X50250Y-11488D01*
X50280Y-11414D01*
X50281Y-11335D01*
X50281Y-11135D01*
X50840Y-11135D01*
X50840Y-11154D01*
X50871Y-11228D01*
X50927Y-11284D01*
X51001Y-11314D01*
X51080Y-11315D01*
X51630Y-11315D01*
X51704Y-11284D01*
X51760Y-11228D01*
X51790Y-11154D01*
X51791Y-11075D01*
X51791Y-10525D01*
X51760Y-10451D01*
X51704Y-10395D01*
X51630Y-10365D01*
X51551Y-10364D01*
X51001Y-10364D01*
X50927Y-10395D01*
X50888Y-10435D01*
X50316Y-10435D01*
X50316Y-9398D01*
X51278Y-9398D01*
X52705Y-10825D01*
X52691Y-10896D01*
X52708Y-10980D01*
X52708Y-11724D01*
X52708Y-12528D01*
X52757Y-12776D01*
X52898Y-12987D01*
X53700Y-13789D01*
X53700Y-15167D01*
X53671Y-15155D01*
X53576Y-15155D01*
X53478Y-15155D01*
X53418Y-15215D01*
X53418Y-15601D01*
X53425Y-15601D01*
X53425Y-15721D01*
X53418Y-15721D01*
X53418Y-16107D01*
X53478Y-16167D01*
X53576Y-16167D01*
X53671Y-16167D01*
X53700Y-16155D01*
X53700Y-16321D01*
X53661Y-16305D01*
X53566Y-16305D01*
X53478Y-16305D01*
X53418Y-16365D01*
X53418Y-16741D01*
X53425Y-16741D01*
X53425Y-16861D01*
X53418Y-16861D01*
X53418Y-17237D01*
X53478Y-17297D01*
X53566Y-17297D01*
X53661Y-17297D01*
X53700Y-17281D01*
X53700Y-17655D01*
X53700Y-17655D01*
G37*
G54D80*
X53700Y-17655D02*
X53298Y-17655D01*
X53298Y-17237D01*
X53298Y-16861D01*
X53298Y-16741D01*
X53298Y-16365D01*
X53298Y-16107D01*
X53298Y-15721D01*
X53298Y-15601D01*
X53298Y-15215D01*
X53238Y-15155D01*
X53139Y-15155D01*
X53044Y-15155D01*
X52956Y-15192D01*
X52888Y-15259D01*
X52852Y-15348D01*
X52852Y-15541D01*
X52912Y-15601D01*
X53298Y-15601D01*
X53298Y-15721D01*
X52912Y-15721D01*
X52852Y-15781D01*
X52852Y-15974D01*
X52888Y-16062D01*
X52956Y-16130D01*
X53044Y-16167D01*
X53139Y-16167D01*
X53238Y-16167D01*
X53298Y-16107D01*
X53298Y-16365D01*
X53238Y-16305D01*
X53149Y-16305D01*
X53054Y-16305D01*
X52965Y-16342D01*
X52898Y-16410D01*
X52862Y-16498D01*
X52862Y-16681D01*
X52922Y-16741D01*
X53298Y-16741D01*
X53298Y-16861D01*
X52922Y-16861D01*
X52862Y-16921D01*
X52862Y-17105D01*
X52898Y-17193D01*
X52965Y-17261D01*
X53054Y-17297D01*
X53149Y-17297D01*
X53238Y-17297D01*
X53298Y-17237D01*
X53298Y-17655D01*
X52980Y-17655D01*
X52946Y-17603D01*
X52946Y-17603D01*
X50910Y-15567D01*
X50747Y-15459D01*
X50556Y-15420D01*
X50556Y-15421D01*
X50246Y-15421D01*
X50246Y-14787D01*
X50246Y-12442D01*
X50245Y-12347D01*
X50209Y-12258D01*
X50141Y-12191D01*
X50053Y-12154D01*
X48986Y-12155D01*
X48926Y-12215D01*
X48926Y-13555D01*
X50186Y-13555D01*
X50246Y-13495D01*
X50246Y-12442D01*
X50246Y-14787D01*
X50246Y-13735D01*
X50186Y-13675D01*
X48926Y-13675D01*
X48926Y-15015D01*
X48986Y-15075D01*
X50053Y-15075D01*
X50141Y-15038D01*
X50209Y-14971D01*
X50245Y-14882D01*
X50246Y-14787D01*
X50246Y-15421D01*
X48806Y-15421D01*
X48806Y-15015D01*
X48806Y-13675D01*
X48806Y-13555D01*
X48806Y-12215D01*
X48746Y-12155D01*
X47678Y-12154D01*
X47590Y-12191D01*
X47522Y-12258D01*
X47486Y-12347D01*
X47485Y-12442D01*
X47486Y-13495D01*
X47546Y-13555D01*
X48806Y-13555D01*
X48806Y-13675D01*
X47546Y-13675D01*
X47486Y-13735D01*
X47485Y-14787D01*
X47486Y-14882D01*
X47522Y-14971D01*
X47590Y-15038D01*
X47678Y-15075D01*
X48746Y-15075D01*
X48806Y-15015D01*
X48806Y-15421D01*
X46362Y-15421D01*
X46362Y-12878D01*
X46346Y-12690D01*
X46305Y-12590D01*
X46220Y-12569D01*
X45964Y-12824D01*
X46220Y-13080D01*
X46305Y-13059D01*
X46362Y-12878D01*
X46362Y-15421D01*
X46135Y-15421D01*
X46135Y-13165D01*
X45880Y-12909D01*
X45624Y-13165D01*
X45645Y-13249D01*
X45825Y-13307D01*
X46014Y-13291D01*
X46114Y-13249D01*
X46135Y-13165D01*
X46135Y-15421D01*
X45505Y-15421D01*
X44885Y-14800D01*
X44885Y-13537D01*
X44885Y-13485D01*
X44825Y-13425D01*
X44480Y-13425D01*
X44480Y-13670D01*
X44540Y-13730D01*
X44597Y-13730D01*
X44692Y-13729D01*
X44781Y-13693D01*
X44848Y-13625D01*
X44885Y-13537D01*
X44885Y-14800D01*
X44155Y-14070D01*
X44155Y-13729D01*
X44242Y-13730D01*
X44300Y-13730D01*
X44360Y-13670D01*
X44360Y-13425D01*
X44352Y-13425D01*
X44352Y-13305D01*
X44360Y-13305D01*
X44360Y-13297D01*
X44480Y-13297D01*
X44480Y-13305D01*
X44825Y-13305D01*
X44885Y-13245D01*
X44885Y-13192D01*
X44848Y-13104D01*
X44781Y-13036D01*
X44814Y-13003D01*
X44844Y-12929D01*
X44845Y-12850D01*
X44845Y-12600D01*
X44839Y-12587D01*
X45466Y-12587D01*
X45454Y-12590D01*
X45397Y-12770D01*
X45413Y-12959D01*
X45454Y-13059D01*
X45539Y-13080D01*
X45795Y-12824D01*
X45789Y-12819D01*
X45874Y-12734D01*
X45880Y-12739D01*
X46070Y-12549D01*
X46090Y-12545D01*
X46268Y-12426D01*
X47360Y-11335D01*
X47450Y-11335D01*
X47450Y-11414D01*
X47481Y-11488D01*
X47537Y-11544D01*
X47611Y-11574D01*
X47690Y-11575D01*
X48320Y-11575D01*
X48394Y-11544D01*
X48450Y-11488D01*
X48480Y-11414D01*
X48481Y-11335D01*
X48481Y-10960D01*
X48516Y-10785D01*
X48481Y-10609D01*
X48481Y-10155D01*
X48450Y-10081D01*
X48394Y-10025D01*
X48320Y-9995D01*
X48241Y-9994D01*
X47611Y-9994D01*
X47537Y-10025D01*
X47481Y-10081D01*
X47451Y-10155D01*
X47450Y-10234D01*
X47450Y-10235D01*
X47132Y-10235D01*
X46921Y-10276D01*
X46743Y-10396D01*
X45652Y-11487D01*
X44755Y-11487D01*
X44755Y-11370D01*
X44728Y-11236D01*
X44652Y-11122D01*
X43991Y-10461D01*
X43990Y-9395D01*
X44093Y-9395D01*
X44101Y-9420D01*
X44299Y-9486D01*
X44508Y-9471D01*
X44630Y-9420D01*
X44637Y-9395D01*
X45862Y-9395D01*
X45874Y-9414D01*
X46085Y-9555D01*
X46334Y-9605D01*
X46582Y-9555D01*
X46793Y-9414D01*
X46812Y-9396D01*
X49216Y-9397D01*
X49216Y-10785D01*
X49250Y-10960D01*
X49250Y-11414D01*
X49281Y-11488D01*
X49337Y-11544D01*
X49411Y-11574D01*
X49490Y-11575D01*
X50120Y-11575D01*
X50194Y-11544D01*
X50250Y-11488D01*
X50280Y-11414D01*
X50281Y-11335D01*
X50281Y-11135D01*
X50840Y-11135D01*
X50840Y-11154D01*
X50871Y-11228D01*
X50927Y-11284D01*
X51001Y-11314D01*
X51080Y-11315D01*
X51630Y-11315D01*
X51704Y-11284D01*
X51760Y-11228D01*
X51790Y-11154D01*
X51791Y-11075D01*
X51791Y-10525D01*
X51760Y-10451D01*
X51704Y-10395D01*
X51630Y-10365D01*
X51551Y-10364D01*
X51001Y-10364D01*
X50927Y-10395D01*
X50888Y-10435D01*
X50316Y-10435D01*
X50316Y-9398D01*
X51278Y-9398D01*
X52705Y-10825D01*
X52691Y-10896D01*
X52708Y-10980D01*
X52708Y-11724D01*
X52708Y-12528D01*
X52757Y-12776D01*
X52898Y-12987D01*
X53700Y-13789D01*
X53700Y-15167D01*
X53671Y-15155D01*
X53576Y-15155D01*
X53478Y-15155D01*
X53418Y-15215D01*
X53418Y-15601D01*
X53425Y-15601D01*
X53425Y-15721D01*
X53418Y-15721D01*
X53418Y-16107D01*
X53478Y-16167D01*
X53576Y-16167D01*
X53671Y-16167D01*
X53700Y-16155D01*
X53700Y-16321D01*
X53661Y-16305D01*
X53566Y-16305D01*
X53478Y-16305D01*
X53418Y-16365D01*
X53418Y-16741D01*
X53425Y-16741D01*
X53425Y-16861D01*
X53418Y-16861D01*
X53418Y-17237D01*
X53478Y-17297D01*
X53566Y-17297D01*
X53661Y-17297D01*
X53700Y-17281D01*
X53700Y-17655D01*
G54D10*
G36*
X47559Y-239D02*
X47559Y-1109D01*
X47516Y-1117D01*
X47438Y-1169D01*
X47386Y-1247D01*
X47368Y-1339D01*
X47368Y-3701D01*
X47386Y-3792D01*
X47438Y-3870D01*
X47516Y-3922D01*
X47556Y-3930D01*
X47555Y-5085D01*
X46315Y-5085D01*
X46315Y-4261D01*
X46243Y-4086D01*
X46109Y-3953D01*
X45935Y-3880D01*
X45745Y-3880D01*
X45570Y-3952D01*
X45437Y-4086D01*
X45364Y-4261D01*
X45364Y-4450D01*
X45436Y-4625D01*
X45570Y-4758D01*
X45744Y-4831D01*
X45934Y-4831D01*
X46109Y-4759D01*
X46242Y-4625D01*
X46315Y-4451D01*
X46315Y-4261D01*
X46315Y-5085D01*
X45841Y-5085D01*
X45594Y-5133D01*
X44120Y-5133D01*
X44120Y-4327D01*
X44120Y-1982D01*
X44119Y-1887D01*
X44083Y-1798D01*
X44015Y-1731D01*
X43927Y-1694D01*
X42860Y-1695D01*
X42800Y-1755D01*
X42800Y-3095D01*
X44060Y-3095D01*
X44120Y-3035D01*
X44120Y-1982D01*
X44120Y-4327D01*
X44120Y-3275D01*
X44060Y-3215D01*
X42800Y-3215D01*
X42800Y-4555D01*
X42860Y-4615D01*
X43927Y-4615D01*
X44015Y-4578D01*
X44083Y-4511D01*
X44119Y-4422D01*
X44120Y-4327D01*
X44120Y-5133D01*
X43891Y-5133D01*
X43661Y-5179D01*
X43638Y-5194D01*
X43285Y-5194D01*
X43211Y-5225D01*
X43155Y-5281D01*
X43125Y-5355D01*
X43124Y-5434D01*
X43124Y-5696D01*
X43085Y-5755D01*
X43040Y-5985D01*
X43085Y-6214D01*
X43124Y-6273D01*
X43124Y-6614D01*
X43155Y-6688D01*
X43211Y-6744D01*
X43285Y-6774D01*
X43364Y-6775D01*
X43994Y-6775D01*
X44068Y-6744D01*
X44124Y-6688D01*
X44154Y-6614D01*
X44155Y-6535D01*
X44155Y-6333D01*
X45589Y-6333D01*
X45592Y-6335D01*
X45841Y-6385D01*
X47337Y-6385D01*
X47150Y-6582D01*
X46752Y-7009D01*
X42866Y-7007D01*
X42866Y-5990D01*
X42831Y-5817D01*
X42734Y-5671D01*
X42729Y-5666D01*
X42680Y-5633D01*
X42680Y-4555D01*
X42680Y-3215D01*
X42680Y-3095D01*
X42680Y-1755D01*
X42620Y-1695D01*
X41552Y-1694D01*
X41464Y-1731D01*
X41396Y-1798D01*
X41360Y-1887D01*
X41359Y-1982D01*
X41360Y-3035D01*
X41420Y-3095D01*
X42680Y-3095D01*
X42680Y-3215D01*
X41420Y-3215D01*
X41360Y-3275D01*
X41359Y-4327D01*
X41360Y-4422D01*
X41396Y-4511D01*
X41464Y-4578D01*
X41552Y-4615D01*
X42620Y-4615D01*
X42680Y-4555D01*
X42680Y-5633D01*
X42583Y-5569D01*
X42411Y-5535D01*
X42355Y-5535D01*
X42355Y-5355D01*
X42324Y-5281D01*
X42290Y-5247D01*
X42290Y-5145D01*
X42291Y-5140D01*
X42256Y-4967D01*
X42159Y-4821D01*
X42013Y-4724D01*
X41841Y-4690D01*
X41668Y-4724D01*
X41522Y-4821D01*
X41521Y-4822D01*
X41424Y-4968D01*
X41390Y-5141D01*
X41390Y-5247D01*
X41355Y-5281D01*
X41325Y-5355D01*
X41324Y-5434D01*
X41324Y-5535D01*
X41271Y-5535D01*
X41098Y-5569D01*
X40952Y-5666D01*
X40947Y-5671D01*
X40850Y-5817D01*
X40816Y-5990D01*
X40850Y-6162D01*
X40947Y-6308D01*
X41093Y-6405D01*
X41266Y-6440D01*
X41291Y-6435D01*
X41324Y-6435D01*
X41324Y-6614D01*
X41355Y-6688D01*
X41411Y-6744D01*
X41485Y-6774D01*
X41564Y-6775D01*
X42194Y-6775D01*
X42268Y-6744D01*
X42324Y-6688D01*
X42354Y-6614D01*
X42355Y-6535D01*
X42355Y-6435D01*
X42390Y-6435D01*
X42416Y-6440D01*
X42588Y-6405D01*
X42734Y-6308D01*
X42831Y-6162D01*
X42866Y-5990D01*
X42866Y-7007D01*
X40465Y-7005D01*
X40465Y-4382D01*
X40465Y-4005D01*
X40464Y-3909D01*
X40428Y-3821D01*
X40360Y-3753D01*
X40288Y-3723D01*
X40358Y-3653D01*
X40424Y-3493D01*
X40425Y-3319D01*
X40358Y-3159D01*
X40236Y-3036D01*
X40075Y-2970D01*
X39902Y-2970D01*
X39741Y-3036D01*
X39619Y-3158D01*
X39552Y-3319D01*
X39552Y-3492D01*
X39618Y-3653D01*
X39689Y-3723D01*
X39616Y-3753D01*
X39549Y-3821D01*
X39512Y-3909D01*
X39512Y-4005D01*
X39512Y-4073D01*
X39572Y-4133D01*
X39928Y-4133D01*
X39928Y-4125D01*
X40048Y-4125D01*
X40048Y-4133D01*
X40404Y-4133D01*
X40464Y-4073D01*
X40465Y-4005D01*
X40465Y-4382D01*
X40464Y-4313D01*
X40404Y-4253D01*
X40048Y-4253D01*
X40048Y-4609D01*
X40108Y-4669D01*
X40272Y-4670D01*
X40360Y-4633D01*
X40428Y-4566D01*
X40464Y-4477D01*
X40465Y-4382D01*
X40465Y-7005D01*
X40453Y-7005D01*
X40453Y-5345D01*
X40453Y-5000D01*
X40417Y-4912D01*
X40349Y-4844D01*
X40261Y-4808D01*
X40166Y-4808D01*
X40108Y-4808D01*
X40048Y-4868D01*
X40048Y-5113D01*
X40393Y-5113D01*
X40453Y-5053D01*
X40453Y-5000D01*
X40453Y-5345D01*
X40453Y-5293D01*
X40393Y-5233D01*
X40048Y-5233D01*
X40048Y-5241D01*
X39928Y-5241D01*
X39928Y-5233D01*
X39928Y-5113D01*
X39928Y-4868D01*
X39928Y-4609D01*
X39928Y-4253D01*
X39572Y-4253D01*
X39512Y-4313D01*
X39512Y-4382D01*
X39512Y-4477D01*
X39549Y-4566D01*
X39616Y-4633D01*
X39705Y-4670D01*
X39868Y-4669D01*
X39928Y-4609D01*
X39928Y-4868D01*
X39868Y-4808D01*
X39811Y-4808D01*
X39715Y-4808D01*
X39627Y-4844D01*
X39560Y-4912D01*
X39523Y-5000D01*
X39523Y-5053D01*
X39583Y-5113D01*
X39928Y-5113D01*
X39928Y-5233D01*
X39583Y-5233D01*
X39523Y-5293D01*
X39523Y-5345D01*
X39542Y-5390D01*
X39416Y-5389D01*
X39278Y-5446D01*
X39175Y-5550D01*
X39175Y-1782D01*
X39175Y-1327D01*
X39174Y-1232D01*
X39138Y-1143D01*
X39070Y-1076D01*
X38982Y-1039D01*
X38780Y-1040D01*
X38720Y-1100D01*
X38720Y-1495D01*
X39115Y-1495D01*
X39175Y-1435D01*
X39175Y-1327D01*
X39175Y-1782D01*
X39175Y-1675D01*
X39115Y-1615D01*
X38720Y-1615D01*
X38720Y-2010D01*
X38780Y-2070D01*
X38982Y-2070D01*
X39070Y-2033D01*
X39138Y-1966D01*
X39174Y-1877D01*
X39175Y-1782D01*
X39175Y-5550D01*
X39173Y-5552D01*
X39116Y-5690D01*
X39115Y-5839D01*
X39172Y-5977D01*
X39278Y-6082D01*
X39416Y-6139D01*
X39565Y-6140D01*
X39666Y-6098D01*
X39763Y-6098D01*
X39803Y-6098D01*
X40253Y-6098D01*
X40326Y-6067D01*
X40383Y-6011D01*
X40413Y-5938D01*
X40413Y-5858D01*
X40413Y-5608D01*
X40383Y-5535D01*
X40349Y-5501D01*
X40417Y-5434D01*
X40453Y-5345D01*
X40453Y-7005D01*
X38953Y-7005D01*
X38600Y-6740D01*
X38600Y-2010D01*
X38600Y-1615D01*
X38600Y-1495D01*
X38600Y-1100D01*
X38540Y-1040D01*
X38337Y-1039D01*
X38249Y-1076D01*
X38181Y-1143D01*
X38145Y-1232D01*
X38144Y-1327D01*
X38145Y-1435D01*
X38205Y-1495D01*
X38600Y-1495D01*
X38600Y-1615D01*
X38205Y-1615D01*
X38145Y-1675D01*
X38144Y-1782D01*
X38145Y-1877D01*
X38181Y-1966D01*
X38249Y-2033D01*
X38337Y-2070D01*
X38540Y-2070D01*
X38600Y-2010D01*
X38600Y-6740D01*
X38210Y-6447D01*
X38210Y-4567D01*
X38210Y-4112D01*
X38209Y-4017D01*
X38173Y-3928D01*
X38105Y-3861D01*
X38017Y-3824D01*
X37915Y-3825D01*
X37855Y-3885D01*
X37855Y-4280D01*
X38150Y-4280D01*
X38210Y-4220D01*
X38210Y-4112D01*
X38210Y-4567D01*
X38210Y-4460D01*
X38150Y-4400D01*
X37855Y-4400D01*
X37855Y-4795D01*
X37915Y-4855D01*
X38017Y-4855D01*
X38105Y-4818D01*
X38173Y-4751D01*
X38209Y-4662D01*
X38210Y-4567D01*
X38210Y-6447D01*
X38082Y-6351D01*
X37400Y-5927D01*
X37400Y-4711D01*
X37416Y-4751D01*
X37484Y-4818D01*
X37572Y-4855D01*
X37675Y-4855D01*
X37735Y-4795D01*
X37735Y-4400D01*
X37727Y-4400D01*
X37727Y-4280D01*
X37735Y-4280D01*
X37735Y-3885D01*
X37675Y-3825D01*
X37572Y-3824D01*
X37550Y-3833D01*
X37578Y-3792D01*
X37596Y-3701D01*
X37596Y-1339D01*
X37578Y-1247D01*
X37526Y-1169D01*
X37448Y-1117D01*
X37400Y-1108D01*
X37400Y-239D01*
X47559Y-239D01*
X47559Y-239D01*
G37*
G54D80*
X47559Y-239D02*
X47559Y-1109D01*
X47516Y-1117D01*
X47438Y-1169D01*
X47386Y-1247D01*
X47368Y-1339D01*
X47368Y-3701D01*
X47386Y-3792D01*
X47438Y-3870D01*
X47516Y-3922D01*
X47556Y-3930D01*
X47555Y-5085D01*
X46315Y-5085D01*
X46315Y-4261D01*
X46243Y-4086D01*
X46109Y-3953D01*
X45935Y-3880D01*
X45745Y-3880D01*
X45570Y-3952D01*
X45437Y-4086D01*
X45364Y-4261D01*
X45364Y-4450D01*
X45436Y-4625D01*
X45570Y-4758D01*
X45744Y-4831D01*
X45934Y-4831D01*
X46109Y-4759D01*
X46242Y-4625D01*
X46315Y-4451D01*
X46315Y-4261D01*
X46315Y-5085D01*
X45841Y-5085D01*
X45594Y-5133D01*
X44120Y-5133D01*
X44120Y-4327D01*
X44120Y-1982D01*
X44119Y-1887D01*
X44083Y-1798D01*
X44015Y-1731D01*
X43927Y-1694D01*
X42860Y-1695D01*
X42800Y-1755D01*
X42800Y-3095D01*
X44060Y-3095D01*
X44120Y-3035D01*
X44120Y-1982D01*
X44120Y-4327D01*
X44120Y-3275D01*
X44060Y-3215D01*
X42800Y-3215D01*
X42800Y-4555D01*
X42860Y-4615D01*
X43927Y-4615D01*
X44015Y-4578D01*
X44083Y-4511D01*
X44119Y-4422D01*
X44120Y-4327D01*
X44120Y-5133D01*
X43891Y-5133D01*
X43661Y-5179D01*
X43638Y-5194D01*
X43285Y-5194D01*
X43211Y-5225D01*
X43155Y-5281D01*
X43125Y-5355D01*
X43124Y-5434D01*
X43124Y-5696D01*
X43085Y-5755D01*
X43040Y-5985D01*
X43085Y-6214D01*
X43124Y-6273D01*
X43124Y-6614D01*
X43155Y-6688D01*
X43211Y-6744D01*
X43285Y-6774D01*
X43364Y-6775D01*
X43994Y-6775D01*
X44068Y-6744D01*
X44124Y-6688D01*
X44154Y-6614D01*
X44155Y-6535D01*
X44155Y-6333D01*
X45589Y-6333D01*
X45592Y-6335D01*
X45841Y-6385D01*
X47337Y-6385D01*
X47150Y-6582D01*
X46752Y-7009D01*
X42866Y-7007D01*
X42866Y-5990D01*
X42831Y-5817D01*
X42734Y-5671D01*
X42729Y-5666D01*
X42680Y-5633D01*
X42680Y-4555D01*
X42680Y-3215D01*
X42680Y-3095D01*
X42680Y-1755D01*
X42620Y-1695D01*
X41552Y-1694D01*
X41464Y-1731D01*
X41396Y-1798D01*
X41360Y-1887D01*
X41359Y-1982D01*
X41360Y-3035D01*
X41420Y-3095D01*
X42680Y-3095D01*
X42680Y-3215D01*
X41420Y-3215D01*
X41360Y-3275D01*
X41359Y-4327D01*
X41360Y-4422D01*
X41396Y-4511D01*
X41464Y-4578D01*
X41552Y-4615D01*
X42620Y-4615D01*
X42680Y-4555D01*
X42680Y-5633D01*
X42583Y-5569D01*
X42411Y-5535D01*
X42355Y-5535D01*
X42355Y-5355D01*
X42324Y-5281D01*
X42290Y-5247D01*
X42290Y-5145D01*
X42291Y-5140D01*
X42256Y-4967D01*
X42159Y-4821D01*
X42013Y-4724D01*
X41841Y-4690D01*
X41668Y-4724D01*
X41522Y-4821D01*
X41521Y-4822D01*
X41424Y-4968D01*
X41390Y-5141D01*
X41390Y-5247D01*
X41355Y-5281D01*
X41325Y-5355D01*
X41324Y-5434D01*
X41324Y-5535D01*
X41271Y-5535D01*
X41098Y-5569D01*
X40952Y-5666D01*
X40947Y-5671D01*
X40850Y-5817D01*
X40816Y-5990D01*
X40850Y-6162D01*
X40947Y-6308D01*
X41093Y-6405D01*
X41266Y-6440D01*
X41291Y-6435D01*
X41324Y-6435D01*
X41324Y-6614D01*
X41355Y-6688D01*
X41411Y-6744D01*
X41485Y-6774D01*
X41564Y-6775D01*
X42194Y-6775D01*
X42268Y-6744D01*
X42324Y-6688D01*
X42354Y-6614D01*
X42355Y-6535D01*
X42355Y-6435D01*
X42390Y-6435D01*
X42416Y-6440D01*
X42588Y-6405D01*
X42734Y-6308D01*
X42831Y-6162D01*
X42866Y-5990D01*
X42866Y-7007D01*
X40465Y-7005D01*
X40465Y-4382D01*
X40465Y-4005D01*
X40464Y-3909D01*
X40428Y-3821D01*
X40360Y-3753D01*
X40288Y-3723D01*
X40358Y-3653D01*
X40424Y-3493D01*
X40425Y-3319D01*
X40358Y-3159D01*
X40236Y-3036D01*
X40075Y-2970D01*
X39902Y-2970D01*
X39741Y-3036D01*
X39619Y-3158D01*
X39552Y-3319D01*
X39552Y-3492D01*
X39618Y-3653D01*
X39689Y-3723D01*
X39616Y-3753D01*
X39549Y-3821D01*
X39512Y-3909D01*
X39512Y-4005D01*
X39512Y-4073D01*
X39572Y-4133D01*
X39928Y-4133D01*
X39928Y-4125D01*
X40048Y-4125D01*
X40048Y-4133D01*
X40404Y-4133D01*
X40464Y-4073D01*
X40465Y-4005D01*
X40465Y-4382D01*
X40464Y-4313D01*
X40404Y-4253D01*
X40048Y-4253D01*
X40048Y-4609D01*
X40108Y-4669D01*
X40272Y-4670D01*
X40360Y-4633D01*
X40428Y-4566D01*
X40464Y-4477D01*
X40465Y-4382D01*
X40465Y-7005D01*
X40453Y-7005D01*
X40453Y-5345D01*
X40453Y-5000D01*
X40417Y-4912D01*
X40349Y-4844D01*
X40261Y-4808D01*
X40166Y-4808D01*
X40108Y-4808D01*
X40048Y-4868D01*
X40048Y-5113D01*
X40393Y-5113D01*
X40453Y-5053D01*
X40453Y-5000D01*
X40453Y-5345D01*
X40453Y-5293D01*
X40393Y-5233D01*
X40048Y-5233D01*
X40048Y-5241D01*
X39928Y-5241D01*
X39928Y-5233D01*
X39928Y-5113D01*
X39928Y-4868D01*
X39928Y-4609D01*
X39928Y-4253D01*
X39572Y-4253D01*
X39512Y-4313D01*
X39512Y-4382D01*
X39512Y-4477D01*
X39549Y-4566D01*
X39616Y-4633D01*
X39705Y-4670D01*
X39868Y-4669D01*
X39928Y-4609D01*
X39928Y-4868D01*
X39868Y-4808D01*
X39811Y-4808D01*
X39715Y-4808D01*
X39627Y-4844D01*
X39560Y-4912D01*
X39523Y-5000D01*
X39523Y-5053D01*
X39583Y-5113D01*
X39928Y-5113D01*
X39928Y-5233D01*
X39583Y-5233D01*
X39523Y-5293D01*
X39523Y-5345D01*
X39542Y-5390D01*
X39416Y-5389D01*
X39278Y-5446D01*
X39175Y-5550D01*
X39175Y-1782D01*
X39175Y-1327D01*
X39174Y-1232D01*
X39138Y-1143D01*
X39070Y-1076D01*
X38982Y-1039D01*
X38780Y-1040D01*
X38720Y-1100D01*
X38720Y-1495D01*
X39115Y-1495D01*
X39175Y-1435D01*
X39175Y-1327D01*
X39175Y-1782D01*
X39175Y-1675D01*
X39115Y-1615D01*
X38720Y-1615D01*
X38720Y-2010D01*
X38780Y-2070D01*
X38982Y-2070D01*
X39070Y-2033D01*
X39138Y-1966D01*
X39174Y-1877D01*
X39175Y-1782D01*
X39175Y-5550D01*
X39173Y-5552D01*
X39116Y-5690D01*
X39115Y-5839D01*
X39172Y-5977D01*
X39278Y-6082D01*
X39416Y-6139D01*
X39565Y-6140D01*
X39666Y-6098D01*
X39763Y-6098D01*
X39803Y-6098D01*
X40253Y-6098D01*
X40326Y-6067D01*
X40383Y-6011D01*
X40413Y-5938D01*
X40413Y-5858D01*
X40413Y-5608D01*
X40383Y-5535D01*
X40349Y-5501D01*
X40417Y-5434D01*
X40453Y-5345D01*
X40453Y-7005D01*
X38953Y-7005D01*
X38600Y-6740D01*
X38600Y-2010D01*
X38600Y-1615D01*
X38600Y-1495D01*
X38600Y-1100D01*
X38540Y-1040D01*
X38337Y-1039D01*
X38249Y-1076D01*
X38181Y-1143D01*
X38145Y-1232D01*
X38144Y-1327D01*
X38145Y-1435D01*
X38205Y-1495D01*
X38600Y-1495D01*
X38600Y-1615D01*
X38205Y-1615D01*
X38145Y-1675D01*
X38144Y-1782D01*
X38145Y-1877D01*
X38181Y-1966D01*
X38249Y-2033D01*
X38337Y-2070D01*
X38540Y-2070D01*
X38600Y-2010D01*
X38600Y-6740D01*
X38210Y-6447D01*
X38210Y-4567D01*
X38210Y-4112D01*
X38209Y-4017D01*
X38173Y-3928D01*
X38105Y-3861D01*
X38017Y-3824D01*
X37915Y-3825D01*
X37855Y-3885D01*
X37855Y-4280D01*
X38150Y-4280D01*
X38210Y-4220D01*
X38210Y-4112D01*
X38210Y-4567D01*
X38210Y-4460D01*
X38150Y-4400D01*
X37855Y-4400D01*
X37855Y-4795D01*
X37915Y-4855D01*
X38017Y-4855D01*
X38105Y-4818D01*
X38173Y-4751D01*
X38209Y-4662D01*
X38210Y-4567D01*
X38210Y-6447D01*
X38082Y-6351D01*
X37400Y-5927D01*
X37400Y-4711D01*
X37416Y-4751D01*
X37484Y-4818D01*
X37572Y-4855D01*
X37675Y-4855D01*
X37735Y-4795D01*
X37735Y-4400D01*
X37727Y-4400D01*
X37727Y-4280D01*
X37735Y-4280D01*
X37735Y-3885D01*
X37675Y-3825D01*
X37572Y-3824D01*
X37550Y-3833D01*
X37578Y-3792D01*
X37596Y-3701D01*
X37596Y-1339D01*
X37578Y-1247D01*
X37526Y-1169D01*
X37448Y-1117D01*
X37400Y-1108D01*
X37400Y-239D01*
X47559Y-239D01*
G54D10*
G36*
X52460Y-40959D02*
X51458Y-40959D01*
X51458Y-39961D01*
X51458Y-37586D01*
X51422Y-37498D01*
X51354Y-37430D01*
X51266Y-37394D01*
X51170Y-37394D01*
X50118Y-37394D01*
X50058Y-37454D01*
X50058Y-38714D01*
X51398Y-38714D01*
X51458Y-38654D01*
X51458Y-37586D01*
X51458Y-39961D01*
X51458Y-38894D01*
X51398Y-38834D01*
X50058Y-38834D01*
X50058Y-40094D01*
X50118Y-40154D01*
X51170Y-40154D01*
X51266Y-40154D01*
X51354Y-40117D01*
X51422Y-40049D01*
X51458Y-39961D01*
X51458Y-40959D01*
X49938Y-40959D01*
X49938Y-40094D01*
X49938Y-38834D01*
X49938Y-38714D01*
X49938Y-37454D01*
X49878Y-37394D01*
X48825Y-37394D01*
X48730Y-37394D01*
X48642Y-37430D01*
X48574Y-37498D01*
X48538Y-37586D01*
X48538Y-38654D01*
X48598Y-38714D01*
X49938Y-38714D01*
X49938Y-38834D01*
X48598Y-38834D01*
X48538Y-38894D01*
X48538Y-39961D01*
X48574Y-40049D01*
X48642Y-40117D01*
X48730Y-40154D01*
X48825Y-40154D01*
X49878Y-40154D01*
X49938Y-40094D01*
X49938Y-40959D01*
X48427Y-40959D01*
X48454Y-40892D01*
X48455Y-40797D01*
X48455Y-40442D01*
X48454Y-40347D01*
X48418Y-40258D01*
X48350Y-40191D01*
X48262Y-40154D01*
X48210Y-40155D01*
X48150Y-40215D01*
X48150Y-40560D01*
X48395Y-40560D01*
X48455Y-40500D01*
X48455Y-40442D01*
X48455Y-40797D01*
X48455Y-40740D01*
X48395Y-40680D01*
X48150Y-40680D01*
X48150Y-40687D01*
X48030Y-40687D01*
X48030Y-40680D01*
X48022Y-40680D01*
X48022Y-40560D01*
X48030Y-40560D01*
X48030Y-40215D01*
X47988Y-40173D01*
X47988Y-36839D01*
X52460Y-36839D01*
X52460Y-39566D01*
X52425Y-39651D01*
X52425Y-39652D01*
X52380Y-39876D01*
X52380Y-39877D01*
X52380Y-39877D01*
X52380Y-39923D01*
X52380Y-39970D01*
X52380Y-39970D01*
X52380Y-39970D01*
X52425Y-40195D01*
X52425Y-40196D01*
X52460Y-40280D01*
X52460Y-40959D01*
X52460Y-40959D01*
G37*
G54D80*
X52460Y-40959D02*
X51458Y-40959D01*
X51458Y-39961D01*
X51458Y-37586D01*
X51422Y-37498D01*
X51354Y-37430D01*
X51266Y-37394D01*
X51170Y-37394D01*
X50118Y-37394D01*
X50058Y-37454D01*
X50058Y-38714D01*
X51398Y-38714D01*
X51458Y-38654D01*
X51458Y-37586D01*
X51458Y-39961D01*
X51458Y-38894D01*
X51398Y-38834D01*
X50058Y-38834D01*
X50058Y-40094D01*
X50118Y-40154D01*
X51170Y-40154D01*
X51266Y-40154D01*
X51354Y-40117D01*
X51422Y-40049D01*
X51458Y-39961D01*
X51458Y-40959D01*
X49938Y-40959D01*
X49938Y-40094D01*
X49938Y-38834D01*
X49938Y-38714D01*
X49938Y-37454D01*
X49878Y-37394D01*
X48825Y-37394D01*
X48730Y-37394D01*
X48642Y-37430D01*
X48574Y-37498D01*
X48538Y-37586D01*
X48538Y-38654D01*
X48598Y-38714D01*
X49938Y-38714D01*
X49938Y-38834D01*
X48598Y-38834D01*
X48538Y-38894D01*
X48538Y-39961D01*
X48574Y-40049D01*
X48642Y-40117D01*
X48730Y-40154D01*
X48825Y-40154D01*
X49878Y-40154D01*
X49938Y-40094D01*
X49938Y-40959D01*
X48427Y-40959D01*
X48454Y-40892D01*
X48455Y-40797D01*
X48455Y-40442D01*
X48454Y-40347D01*
X48418Y-40258D01*
X48350Y-40191D01*
X48262Y-40154D01*
X48210Y-40155D01*
X48150Y-40215D01*
X48150Y-40560D01*
X48395Y-40560D01*
X48455Y-40500D01*
X48455Y-40442D01*
X48455Y-40797D01*
X48455Y-40740D01*
X48395Y-40680D01*
X48150Y-40680D01*
X48150Y-40687D01*
X48030Y-40687D01*
X48030Y-40680D01*
X48022Y-40680D01*
X48022Y-40560D01*
X48030Y-40560D01*
X48030Y-40215D01*
X47988Y-40173D01*
X47988Y-36839D01*
X52460Y-36839D01*
X52460Y-39566D01*
X52425Y-39651D01*
X52425Y-39652D01*
X52380Y-39876D01*
X52380Y-39877D01*
X52380Y-39877D01*
X52380Y-39923D01*
X52380Y-39970D01*
X52380Y-39970D01*
X52380Y-39970D01*
X52425Y-40195D01*
X52425Y-40196D01*
X52460Y-40280D01*
X52460Y-40959D01*
G54D10*
G36*
X54737Y-26038D02*
X54730Y-29090D01*
X54312Y-29090D01*
X54312Y-27898D01*
X54300Y-27631D01*
X54222Y-27444D01*
X54117Y-27399D01*
X54032Y-27483D01*
X54032Y-27314D01*
X53987Y-27209D01*
X53735Y-27118D01*
X53468Y-27131D01*
X53280Y-27209D01*
X53235Y-27314D01*
X53634Y-27712D01*
X54032Y-27314D01*
X54032Y-27483D01*
X53719Y-27797D01*
X54117Y-28195D01*
X54222Y-28150D01*
X54312Y-27898D01*
X54312Y-29090D01*
X54032Y-29090D01*
X54032Y-28280D01*
X53634Y-27882D01*
X53549Y-27967D01*
X53549Y-27797D01*
X53151Y-27399D01*
X53045Y-27444D01*
X52955Y-27696D01*
X52968Y-27963D01*
X53045Y-28150D01*
X53151Y-28195D01*
X53549Y-27797D01*
X53549Y-27967D01*
X53235Y-28280D01*
X53280Y-28385D01*
X53533Y-28476D01*
X53800Y-28463D01*
X53987Y-28385D01*
X54032Y-28280D01*
X54032Y-29090D01*
X52344Y-29090D01*
X52344Y-26323D01*
X52331Y-26056D01*
X52254Y-25869D01*
X52148Y-25824D01*
X52064Y-25909D01*
X52064Y-25739D01*
X52019Y-25634D01*
X51766Y-25543D01*
X51499Y-25556D01*
X51312Y-25634D01*
X51267Y-25739D01*
X51665Y-26137D01*
X52064Y-25739D01*
X52064Y-25909D01*
X51750Y-26222D01*
X52148Y-26620D01*
X52254Y-26575D01*
X52344Y-26323D01*
X52344Y-29090D01*
X50580Y-29090D01*
X50580Y-28849D01*
X50981Y-28447D01*
X51665Y-28447D01*
X51750Y-28430D01*
X51791Y-28430D01*
X51829Y-28414D01*
X51914Y-28397D01*
X51986Y-28349D01*
X52023Y-28334D01*
X52052Y-28305D01*
X52125Y-28257D01*
X52173Y-28185D01*
X52202Y-28156D01*
X52217Y-28118D01*
X52266Y-28046D01*
X52283Y-27961D01*
X52298Y-27923D01*
X52298Y-27882D01*
X52315Y-27797D01*
X52298Y-27712D01*
X52298Y-27672D01*
X52283Y-27634D01*
X52266Y-27548D01*
X52218Y-27476D01*
X52202Y-27439D01*
X52173Y-27410D01*
X52125Y-27337D01*
X52064Y-27296D01*
X52064Y-26705D01*
X51665Y-26307D01*
X51580Y-26392D01*
X51580Y-26222D01*
X51182Y-25824D01*
X51077Y-25869D01*
X50987Y-26121D01*
X50999Y-26388D01*
X51077Y-26575D01*
X51182Y-26620D01*
X51580Y-26222D01*
X51580Y-26392D01*
X51267Y-26705D01*
X51312Y-26810D01*
X51564Y-26901D01*
X51831Y-26888D01*
X52019Y-26810D01*
X52064Y-26705D01*
X52064Y-27296D01*
X52053Y-27289D01*
X52024Y-27261D01*
X51986Y-27245D01*
X51914Y-27196D01*
X51829Y-27180D01*
X51792Y-27164D01*
X51751Y-27164D01*
X51665Y-27147D01*
X50712Y-27147D01*
X50580Y-27173D01*
X50580Y-24940D01*
X53700Y-24940D01*
X53700Y-25237D01*
X53174Y-25762D01*
X53126Y-25834D01*
X53097Y-25863D01*
X53082Y-25901D01*
X53033Y-25973D01*
X53016Y-26058D01*
X53001Y-26096D01*
X53001Y-26137D01*
X52984Y-26222D01*
X53001Y-26307D01*
X53001Y-26347D01*
X53016Y-26385D01*
X53033Y-26471D01*
X53081Y-26543D01*
X53097Y-26580D01*
X53126Y-26609D01*
X53174Y-26682D01*
X53246Y-26730D01*
X53275Y-26758D01*
X53313Y-26774D01*
X53385Y-26823D01*
X53470Y-26839D01*
X53507Y-26855D01*
X53548Y-26855D01*
X53634Y-26872D01*
X53718Y-26855D01*
X53759Y-26855D01*
X53797Y-26840D01*
X53882Y-26823D01*
X53954Y-26775D01*
X53992Y-26759D01*
X54021Y-26730D01*
X54093Y-26682D01*
X54737Y-26038D01*
X54737Y-26038D01*
G37*
G54D80*
X54737Y-26038D02*
X54730Y-29090D01*
X54312Y-29090D01*
X54312Y-27898D01*
X54300Y-27631D01*
X54222Y-27444D01*
X54117Y-27399D01*
X54032Y-27483D01*
X54032Y-27314D01*
X53987Y-27209D01*
X53735Y-27118D01*
X53468Y-27131D01*
X53280Y-27209D01*
X53235Y-27314D01*
X53634Y-27712D01*
X54032Y-27314D01*
X54032Y-27483D01*
X53719Y-27797D01*
X54117Y-28195D01*
X54222Y-28150D01*
X54312Y-27898D01*
X54312Y-29090D01*
X54032Y-29090D01*
X54032Y-28280D01*
X53634Y-27882D01*
X53549Y-27967D01*
X53549Y-27797D01*
X53151Y-27399D01*
X53045Y-27444D01*
X52955Y-27696D01*
X52968Y-27963D01*
X53045Y-28150D01*
X53151Y-28195D01*
X53549Y-27797D01*
X53549Y-27967D01*
X53235Y-28280D01*
X53280Y-28385D01*
X53533Y-28476D01*
X53800Y-28463D01*
X53987Y-28385D01*
X54032Y-28280D01*
X54032Y-29090D01*
X52344Y-29090D01*
X52344Y-26323D01*
X52331Y-26056D01*
X52254Y-25869D01*
X52148Y-25824D01*
X52064Y-25909D01*
X52064Y-25739D01*
X52019Y-25634D01*
X51766Y-25543D01*
X51499Y-25556D01*
X51312Y-25634D01*
X51267Y-25739D01*
X51665Y-26137D01*
X52064Y-25739D01*
X52064Y-25909D01*
X51750Y-26222D01*
X52148Y-26620D01*
X52254Y-26575D01*
X52344Y-26323D01*
X52344Y-29090D01*
X50580Y-29090D01*
X50580Y-28849D01*
X50981Y-28447D01*
X51665Y-28447D01*
X51750Y-28430D01*
X51791Y-28430D01*
X51829Y-28414D01*
X51914Y-28397D01*
X51986Y-28349D01*
X52023Y-28334D01*
X52052Y-28305D01*
X52125Y-28257D01*
X52173Y-28185D01*
X52202Y-28156D01*
X52217Y-28118D01*
X52266Y-28046D01*
X52283Y-27961D01*
X52298Y-27923D01*
X52298Y-27882D01*
X52315Y-27797D01*
X52298Y-27712D01*
X52298Y-27672D01*
X52283Y-27634D01*
X52266Y-27548D01*
X52218Y-27476D01*
X52202Y-27439D01*
X52173Y-27410D01*
X52125Y-27337D01*
X52064Y-27296D01*
X52064Y-26705D01*
X51665Y-26307D01*
X51580Y-26392D01*
X51580Y-26222D01*
X51182Y-25824D01*
X51077Y-25869D01*
X50987Y-26121D01*
X50999Y-26388D01*
X51077Y-26575D01*
X51182Y-26620D01*
X51580Y-26222D01*
X51580Y-26392D01*
X51267Y-26705D01*
X51312Y-26810D01*
X51564Y-26901D01*
X51831Y-26888D01*
X52019Y-26810D01*
X52064Y-26705D01*
X52064Y-27296D01*
X52053Y-27289D01*
X52024Y-27261D01*
X51986Y-27245D01*
X51914Y-27196D01*
X51829Y-27180D01*
X51792Y-27164D01*
X51751Y-27164D01*
X51665Y-27147D01*
X50712Y-27147D01*
X50580Y-27173D01*
X50580Y-24940D01*
X53700Y-24940D01*
X53700Y-25237D01*
X53174Y-25762D01*
X53126Y-25834D01*
X53097Y-25863D01*
X53082Y-25901D01*
X53033Y-25973D01*
X53016Y-26058D01*
X53001Y-26096D01*
X53001Y-26137D01*
X52984Y-26222D01*
X53001Y-26307D01*
X53001Y-26347D01*
X53016Y-26385D01*
X53033Y-26471D01*
X53081Y-26543D01*
X53097Y-26580D01*
X53126Y-26609D01*
X53174Y-26682D01*
X53246Y-26730D01*
X53275Y-26758D01*
X53313Y-26774D01*
X53385Y-26823D01*
X53470Y-26839D01*
X53507Y-26855D01*
X53548Y-26855D01*
X53634Y-26872D01*
X53718Y-26855D01*
X53759Y-26855D01*
X53797Y-26840D01*
X53882Y-26823D01*
X53954Y-26775D01*
X53992Y-26759D01*
X54021Y-26730D01*
X54093Y-26682D01*
X54737Y-26038D01*
M02*
