G04 (created by PCBNEW (2013-07-07 BZR 4022)-stable) date 14/05/2014 09:54:23*
%MOIN*%
G04 Gerber Fmt 3.4, Leading zero omitted, Abs format*
%FSLAX34Y34*%
G01*
G70*
G90*
G04 APERTURE LIST*
%ADD10C,0.00590551*%
%ADD11C,0.00787402*%
%ADD12C,0.01*%
%ADD13C,0.006*%
G04 APERTURE END LIST*
G54D10*
G54D11*
X1670Y-19845D02*
X23323Y-19845D01*
X23323Y-160D02*
X1670Y-160D01*
X7378Y-16302D02*
X7378Y-18664D01*
X4622Y-16302D02*
X7378Y-16302D01*
X4622Y-18664D02*
X4622Y-16302D01*
X7378Y-18664D02*
X4622Y-18664D01*
X7378Y-3703D02*
X4622Y-3703D01*
X4622Y-3703D02*
X4622Y-1341D01*
X4622Y-1341D02*
X7378Y-1341D01*
X7378Y-1341D02*
X7378Y-3703D01*
X20371Y-1341D02*
X20371Y-3703D01*
X17615Y-1341D02*
X20371Y-1341D01*
X17615Y-3703D02*
X17615Y-1341D01*
X20371Y-3703D02*
X17615Y-3703D01*
X20371Y-18664D02*
X17615Y-18664D01*
X17615Y-18664D02*
X17615Y-16302D01*
X17615Y-16302D02*
X20371Y-16302D01*
X20371Y-16302D02*
X20371Y-18664D01*
X3343Y-18861D02*
G75*
G03X3343Y-18861I-492J0D01*
G74*
G01*
X22634Y-18861D02*
G75*
G03X22634Y-18861I-492J0D01*
G74*
G01*
X3343Y-1144D02*
G75*
G03X3343Y-1144I-492J0D01*
G74*
G01*
X22634Y-1144D02*
G75*
G03X22634Y-1144I-492J0D01*
G74*
G01*
X1670Y-160D02*
X1670Y-19845D01*
X23323Y-19845D02*
X23323Y-160D01*
X11374Y-40708D02*
X11374Y-39330D01*
X13225Y-40708D02*
X11374Y-40708D01*
X13225Y-40708D02*
X13225Y-39330D01*
X11374Y-39330D02*
X13225Y-39330D01*
G54D12*
X13044Y-39045D02*
G75*
G02X13044Y-39045I0J-88D01*
G74*
G01*
G54D11*
X41374Y-40708D02*
X41374Y-39330D01*
X43225Y-40708D02*
X41374Y-40708D01*
X43225Y-40708D02*
X43225Y-39330D01*
X41374Y-39330D02*
X43225Y-39330D01*
G54D12*
X43044Y-39045D02*
G75*
G02X43044Y-39045I0J-88D01*
G74*
G01*
G54D11*
X11119Y-22069D02*
X9898Y-22069D01*
X9898Y-22069D02*
X9898Y-24037D01*
X13087Y-22069D02*
X11945Y-22069D01*
X15095Y-24077D02*
X15095Y-22069D01*
X15095Y-22069D02*
X13914Y-22069D01*
X9898Y-25573D02*
X9898Y-27778D01*
X9898Y-27778D02*
X11079Y-27778D01*
X15095Y-25573D02*
X15095Y-27778D01*
X15095Y-27778D02*
X13914Y-27778D01*
X12890Y-27778D02*
X13087Y-27778D01*
X11906Y-27778D02*
X12103Y-27778D01*
X41119Y-22069D02*
X39898Y-22069D01*
X39898Y-22069D02*
X39898Y-24037D01*
X43087Y-22069D02*
X41945Y-22069D01*
X45095Y-24077D02*
X45095Y-22069D01*
X45095Y-22069D02*
X43914Y-22069D01*
X39898Y-25573D02*
X39898Y-27778D01*
X39898Y-27778D02*
X41079Y-27778D01*
X45095Y-25573D02*
X45095Y-27778D01*
X45095Y-27778D02*
X43914Y-27778D01*
X42890Y-27778D02*
X43087Y-27778D01*
X41906Y-27778D02*
X42103Y-27778D01*
X31670Y-19845D02*
X53323Y-19845D01*
X53323Y-160D02*
X31670Y-160D01*
X37378Y-16302D02*
X37378Y-18664D01*
X34622Y-16302D02*
X37378Y-16302D01*
X34622Y-18664D02*
X34622Y-16302D01*
X37378Y-18664D02*
X34622Y-18664D01*
X37378Y-3703D02*
X34622Y-3703D01*
X34622Y-3703D02*
X34622Y-1341D01*
X34622Y-1341D02*
X37378Y-1341D01*
X37378Y-1341D02*
X37378Y-3703D01*
X50371Y-1341D02*
X50371Y-3703D01*
X47615Y-1341D02*
X50371Y-1341D01*
X47615Y-3703D02*
X47615Y-1341D01*
X50371Y-3703D02*
X47615Y-3703D01*
X50371Y-18664D02*
X47615Y-18664D01*
X47615Y-18664D02*
X47615Y-16302D01*
X47615Y-16302D02*
X50371Y-16302D01*
X50371Y-16302D02*
X50371Y-18664D01*
X33343Y-18861D02*
G75*
G03X33343Y-18861I-492J0D01*
G74*
G01*
X52634Y-18861D02*
G75*
G03X52634Y-18861I-492J0D01*
G74*
G01*
X33343Y-1144D02*
G75*
G03X33343Y-1144I-492J0D01*
G74*
G01*
X52634Y-1144D02*
G75*
G03X52634Y-1144I-492J0D01*
G74*
G01*
X31670Y-160D02*
X31670Y-19845D01*
X53323Y-19845D02*
X53323Y-160D01*
G54D13*
X12787Y-20262D02*
X12930Y-20262D01*
X12930Y-19962D01*
X12516Y-20233D02*
X12530Y-20247D01*
X12573Y-20262D01*
X12602Y-20262D01*
X12645Y-20247D01*
X12673Y-20219D01*
X12687Y-20190D01*
X12702Y-20133D01*
X12702Y-20090D01*
X12687Y-20033D01*
X12673Y-20005D01*
X12645Y-19976D01*
X12602Y-19962D01*
X12573Y-19962D01*
X12530Y-19976D01*
X12516Y-19990D01*
X12387Y-20262D02*
X12387Y-19962D01*
X12316Y-19962D01*
X12273Y-19976D01*
X12245Y-20005D01*
X12230Y-20033D01*
X12216Y-20090D01*
X12216Y-20133D01*
X12230Y-20190D01*
X12245Y-20219D01*
X12273Y-20247D01*
X12316Y-20262D01*
X12387Y-20262D01*
X11930Y-20262D02*
X12102Y-20262D01*
X12016Y-20262D02*
X12016Y-19962D01*
X12045Y-20005D01*
X12073Y-20033D01*
X12102Y-20047D01*
X12629Y-41160D02*
X12772Y-41160D01*
X12772Y-40860D01*
X12529Y-41003D02*
X12429Y-41003D01*
X12386Y-41160D02*
X12529Y-41160D01*
X12529Y-40860D01*
X12386Y-40860D01*
X12258Y-41160D02*
X12258Y-40860D01*
X12186Y-40860D01*
X12144Y-40874D01*
X12115Y-40903D01*
X12101Y-40931D01*
X12086Y-40989D01*
X12086Y-41031D01*
X12101Y-41089D01*
X12115Y-41117D01*
X12144Y-41146D01*
X12186Y-41160D01*
X12258Y-41160D01*
X11801Y-41160D02*
X11972Y-41160D01*
X11886Y-41160D02*
X11886Y-40860D01*
X11915Y-40903D01*
X11944Y-40931D01*
X11972Y-40946D01*
X42617Y-41140D02*
X42760Y-41140D01*
X42760Y-40840D01*
X42517Y-40983D02*
X42417Y-40983D01*
X42374Y-41140D02*
X42517Y-41140D01*
X42517Y-40840D01*
X42374Y-40840D01*
X42246Y-41140D02*
X42246Y-40840D01*
X42174Y-40840D01*
X42132Y-40854D01*
X42103Y-40883D01*
X42089Y-40911D01*
X42074Y-40969D01*
X42074Y-41011D01*
X42089Y-41069D01*
X42103Y-41097D01*
X42132Y-41126D01*
X42174Y-41140D01*
X42246Y-41140D01*
X41960Y-40869D02*
X41946Y-40854D01*
X41917Y-40840D01*
X41846Y-40840D01*
X41817Y-40854D01*
X41803Y-40869D01*
X41789Y-40897D01*
X41789Y-40926D01*
X41803Y-40969D01*
X41974Y-41140D01*
X41789Y-41140D01*
X12991Y-21709D02*
X12891Y-21709D01*
X12848Y-21866D02*
X12991Y-21866D01*
X12991Y-21566D01*
X12848Y-21566D01*
X12719Y-21866D02*
X12719Y-21566D01*
X12548Y-21866D01*
X12548Y-21566D01*
X12234Y-21837D02*
X12248Y-21852D01*
X12291Y-21866D01*
X12319Y-21866D01*
X12362Y-21852D01*
X12391Y-21823D01*
X12405Y-21795D01*
X12419Y-21737D01*
X12419Y-21695D01*
X12405Y-21637D01*
X12391Y-21609D01*
X12362Y-21580D01*
X12319Y-21566D01*
X12291Y-21566D01*
X12248Y-21580D01*
X12234Y-21595D01*
X11948Y-21866D02*
X12119Y-21866D01*
X12034Y-21866D02*
X12034Y-21566D01*
X12062Y-21609D01*
X12091Y-21637D01*
X12119Y-21652D01*
X43038Y-21709D02*
X42938Y-21709D01*
X42895Y-21866D02*
X43038Y-21866D01*
X43038Y-21566D01*
X42895Y-21566D01*
X42767Y-21866D02*
X42767Y-21566D01*
X42595Y-21866D01*
X42595Y-21566D01*
X42281Y-21837D02*
X42295Y-21852D01*
X42338Y-21866D01*
X42367Y-21866D01*
X42409Y-21852D01*
X42438Y-21823D01*
X42452Y-21795D01*
X42467Y-21737D01*
X42467Y-21695D01*
X42452Y-21637D01*
X42438Y-21609D01*
X42409Y-21580D01*
X42367Y-21566D01*
X42338Y-21566D01*
X42295Y-21580D01*
X42281Y-21595D01*
X42167Y-21595D02*
X42152Y-21580D01*
X42124Y-21566D01*
X42052Y-21566D01*
X42024Y-21580D01*
X42009Y-21595D01*
X41995Y-21623D01*
X41995Y-21652D01*
X42009Y-21695D01*
X42181Y-21866D01*
X41995Y-21866D01*
X42807Y-20262D02*
X42950Y-20262D01*
X42950Y-19962D01*
X42536Y-20233D02*
X42550Y-20247D01*
X42593Y-20262D01*
X42621Y-20262D01*
X42664Y-20247D01*
X42693Y-20219D01*
X42707Y-20190D01*
X42721Y-20133D01*
X42721Y-20090D01*
X42707Y-20033D01*
X42693Y-20005D01*
X42664Y-19976D01*
X42621Y-19962D01*
X42593Y-19962D01*
X42550Y-19976D01*
X42536Y-19990D01*
X42407Y-20262D02*
X42407Y-19962D01*
X42336Y-19962D01*
X42293Y-19976D01*
X42264Y-20005D01*
X42250Y-20033D01*
X42236Y-20090D01*
X42236Y-20133D01*
X42250Y-20190D01*
X42264Y-20219D01*
X42293Y-20247D01*
X42336Y-20262D01*
X42407Y-20262D01*
X42121Y-19990D02*
X42107Y-19976D01*
X42079Y-19962D01*
X42007Y-19962D01*
X41979Y-19976D01*
X41964Y-19990D01*
X41950Y-20019D01*
X41950Y-20047D01*
X41964Y-20090D01*
X42136Y-20262D01*
X41950Y-20262D01*
M02*
