G04 (created by PCBNEW (2013-07-07 BZR 4022)-stable) date 14/05/2014 09:54:23*
%MOIN*%
G04 Gerber Fmt 3.4, Leading zero omitted, Abs format*
%FSLAX34Y34*%
G01*
G70*
G90*
G04 APERTURE LIST*
%ADD10C,0.00590551*%
%ADD11C,0.0472441*%
%ADD12R,0.0472441X0.0472441*%
%ADD13C,0.012*%
%ADD14R,0.055X0.055*%
%ADD15R,0.019685X0.0275591*%
%ADD16R,0.0551X0.0236*%
%ADD17R,0.025X0.045*%
%ADD18C,0.055*%
%ADD19R,0.045X0.025*%
%ADD20R,0.02X0.045*%
%ADD21R,0.045X0.02*%
%ADD22R,0.0236X0.0551*%
%ADD23R,0.0394X0.0315*%
%ADD24C,0.0551181*%
%ADD25R,0.056X0.056*%
%ADD26C,0.056*%
%ADD27R,0.0787402X0.212598*%
%ADD28R,0.055X0.035*%
%ADD29R,0.035X0.055*%
%ADD30R,0.06X0.06*%
%ADD31C,0.06*%
%ADD32R,0.11X0.11*%
%ADD33C,0.11*%
%ADD34R,0.0866X0.063*%
%ADD35R,0.063X0.0866*%
%ADD36R,0.0709X0.0866*%
%ADD37R,0.0551181X0.0551181*%
%ADD38C,0.0570866*%
%ADD39R,0.0570866X0.0570866*%
%ADD40R,0.0511811X0.0511811*%
%ADD41R,0.0165X0.0579*%
%ADD42R,0.012X0.02*%
%ADD43R,0.0110236X0.0590551*%
%ADD44R,0.0590551X0.0110236*%
%ADD45C,0.0629921*%
%ADD46C,0.133858*%
%ADD47C,0.12*%
%ADD48R,0.0452756X0.0452756*%
%ADD49C,0.0452756*%
%ADD50R,0.228X0.244*%
%ADD51R,0.063X0.118*%
%ADD52R,0.244X0.228*%
%ADD53R,0.118X0.063*%
%ADD54R,0.027X0.024*%
%ADD55R,0.22X0.083*%
%ADD56C,0.07*%
%ADD57R,0.0315X0.0394*%
%ADD58C,0.0511811*%
%ADD59R,0.0531496X0.0531496*%
%ADD60C,0.0866142*%
%ADD61R,0.0669291X0.0669291*%
%ADD62C,0.0669291*%
G04 APERTURE END LIST*
G54D10*
G54D11*
X27030Y-43961D03*
G54D12*
X27030Y-44748D03*
G54D13*
X27490Y-45070D03*
G54D14*
X44660Y-44260D03*
G54D15*
X32824Y-39185D03*
X33335Y-39185D03*
X33080Y-39894D03*
X34224Y-39165D03*
X34735Y-39165D03*
X34480Y-39874D03*
G54D16*
X27630Y-50060D03*
X25530Y-50060D03*
X27630Y-50560D03*
X27630Y-51060D03*
X27630Y-51560D03*
X25530Y-50560D03*
X25530Y-51060D03*
X25530Y-51560D03*
G54D17*
X28090Y-48170D03*
X27490Y-48170D03*
X30610Y-50060D03*
X30010Y-50060D03*
X26882Y-53186D03*
X26282Y-53186D03*
X10130Y-50660D03*
X10730Y-50660D03*
X10130Y-49050D03*
X10730Y-49050D03*
X22600Y-50150D03*
X23200Y-50150D03*
X29220Y-49660D03*
X28620Y-49660D03*
G54D18*
X25090Y-52440D03*
X28090Y-52440D03*
X21380Y-52930D03*
X24380Y-52930D03*
X31810Y-51860D03*
X28810Y-51860D03*
X31830Y-47080D03*
X31830Y-50080D03*
X21400Y-49330D03*
X24400Y-49330D03*
X25090Y-49190D03*
X28090Y-49190D03*
X21380Y-51950D03*
X24380Y-51950D03*
X31810Y-50880D03*
X28810Y-50880D03*
X21380Y-50970D03*
X24380Y-50970D03*
X24400Y-48350D03*
X21400Y-48350D03*
G54D11*
X29916Y-48580D03*
G54D12*
X30703Y-48580D03*
G54D11*
X20300Y-49746D03*
G54D12*
X20300Y-50533D03*
G54D18*
X9800Y-52400D03*
X12800Y-52400D03*
G54D11*
X12800Y-54273D03*
G54D12*
X12800Y-53486D03*
G54D18*
X11530Y-54360D03*
X8530Y-54360D03*
X11540Y-53380D03*
X8540Y-53380D03*
X17580Y-55220D03*
X20580Y-55220D03*
X13920Y-56420D03*
X10920Y-56420D03*
X17600Y-57820D03*
X20600Y-57820D03*
X17600Y-57100D03*
X14600Y-57100D03*
X18420Y-53340D03*
X18420Y-50340D03*
X13920Y-55440D03*
X10920Y-55440D03*
G54D17*
X15820Y-57920D03*
X16420Y-57920D03*
X25090Y-55150D03*
X24490Y-55150D03*
X18320Y-56380D03*
X17720Y-56380D03*
G54D19*
X13520Y-52140D03*
X13520Y-51540D03*
G54D20*
X14340Y-52940D03*
X14840Y-52940D03*
X15340Y-52940D03*
X15840Y-52940D03*
X16340Y-52940D03*
X16840Y-52940D03*
X17340Y-52940D03*
X17340Y-50840D03*
X16840Y-50840D03*
X16340Y-50840D03*
X15840Y-50840D03*
X15340Y-50840D03*
X14840Y-50840D03*
X14340Y-50840D03*
G54D21*
X21620Y-55160D03*
X21620Y-55660D03*
X21620Y-56160D03*
X21620Y-56660D03*
X21620Y-57160D03*
X21620Y-57660D03*
X21620Y-58160D03*
X23720Y-58160D03*
X23720Y-57660D03*
X23720Y-57160D03*
X23720Y-56660D03*
X23720Y-56160D03*
X23720Y-55660D03*
X23720Y-55160D03*
G54D22*
X16850Y-56270D03*
X16850Y-54170D03*
X16350Y-56270D03*
X15850Y-56270D03*
X15350Y-56270D03*
X16350Y-54170D03*
X15850Y-54170D03*
X15350Y-54170D03*
G54D19*
X18100Y-37460D03*
X18100Y-36860D03*
X24080Y-37470D03*
X24080Y-36870D03*
X21100Y-37460D03*
X21100Y-36860D03*
X15130Y-37470D03*
X15130Y-36870D03*
G54D23*
X16608Y-36795D03*
X15742Y-37170D03*
X15742Y-36420D03*
X19613Y-36775D03*
X18747Y-37150D03*
X18747Y-36400D03*
X22573Y-36775D03*
X21707Y-37150D03*
X21707Y-36400D03*
X25563Y-36775D03*
X24697Y-37150D03*
X24697Y-36400D03*
G54D24*
X25275Y-44505D03*
X24775Y-44005D03*
X25275Y-43505D03*
X21085Y-42560D03*
X20585Y-43060D03*
X20085Y-42560D03*
X23550Y-44505D03*
X23050Y-44005D03*
X23550Y-43505D03*
X16010Y-45260D03*
X15510Y-44760D03*
X16010Y-44260D03*
X14210Y-45260D03*
X13710Y-44760D03*
X14210Y-44260D03*
G54D16*
X19135Y-44260D03*
X17035Y-44260D03*
X19135Y-44760D03*
X19135Y-45260D03*
X19135Y-45760D03*
X17035Y-44760D03*
X17035Y-45260D03*
X17035Y-45760D03*
G54D17*
X19735Y-43710D03*
X19135Y-43710D03*
G54D19*
X28440Y-43410D03*
X28440Y-44010D03*
X19935Y-45310D03*
X19935Y-44710D03*
G54D18*
X23075Y-38370D03*
X23075Y-41370D03*
X25830Y-42455D03*
X22830Y-42455D03*
X17107Y-38347D03*
X17107Y-41347D03*
X20910Y-43910D03*
X20910Y-46910D03*
X19585Y-46785D03*
X16585Y-46785D03*
X26060Y-38380D03*
X26060Y-41380D03*
X16127Y-38347D03*
X16127Y-41347D03*
X22100Y-38360D03*
X22100Y-41360D03*
X20100Y-38350D03*
X20100Y-41350D03*
X19120Y-38350D03*
X19120Y-41350D03*
X25080Y-38380D03*
X25080Y-41380D03*
X9835Y-45310D03*
X12835Y-45310D03*
X22035Y-46910D03*
X22035Y-43910D03*
X11535Y-47835D03*
X8535Y-47835D03*
X11540Y-46760D03*
X8540Y-46760D03*
X9835Y-44185D03*
X12835Y-44185D03*
X12110Y-43060D03*
X15110Y-43060D03*
X16085Y-43060D03*
X19085Y-43060D03*
G54D25*
X18100Y-38360D03*
G54D26*
X18100Y-41360D03*
G54D25*
X21100Y-38360D03*
G54D26*
X21100Y-41360D03*
G54D25*
X24080Y-38380D03*
G54D26*
X24080Y-41380D03*
G54D25*
X15127Y-38347D03*
G54D26*
X15127Y-41347D03*
G54D11*
X12835Y-47773D03*
G54D12*
X12835Y-46986D03*
G54D24*
X19189Y-19254D03*
X19977Y-19254D03*
X5016Y-751D03*
X16040Y-19254D03*
X16827Y-19254D03*
X17615Y-19254D03*
X12890Y-19254D03*
X13678Y-19254D03*
X14465Y-19254D03*
X10528Y-19254D03*
X11315Y-19254D03*
X12103Y-19254D03*
X7378Y-19254D03*
X8166Y-19254D03*
X8953Y-19254D03*
X5016Y-19254D03*
X5804Y-19254D03*
X19977Y-751D03*
X15252Y-19254D03*
X18402Y-19254D03*
X6591Y-19254D03*
X9741Y-19254D03*
G54D27*
X54111Y-5829D03*
X51512Y-5829D03*
G54D28*
X28296Y-6839D03*
X28296Y-7589D03*
G54D29*
X44405Y-12025D03*
X43655Y-12025D03*
G54D28*
X9860Y-5340D03*
X9860Y-6090D03*
X45680Y-44125D03*
X45680Y-44875D03*
X42500Y-26100D03*
X42500Y-26850D03*
X12495Y-26044D03*
X12495Y-26794D03*
G54D29*
X37795Y-4340D03*
X37045Y-4340D03*
X20770Y-19260D03*
X21520Y-19260D03*
G54D28*
X8100Y-4850D03*
X8100Y-4100D03*
X24898Y-3128D03*
X24898Y-3878D03*
X24111Y-3878D03*
X24111Y-3128D03*
G54D29*
X50810Y-19255D03*
X51560Y-19255D03*
G54D19*
X8920Y-4645D03*
X8920Y-4045D03*
X13795Y-10550D03*
X13795Y-9950D03*
G54D17*
X6320Y-10545D03*
X5720Y-10545D03*
X20055Y-4260D03*
X19455Y-4260D03*
X29307Y-6836D03*
X29907Y-6836D03*
G54D19*
X7275Y-4650D03*
X7275Y-4050D03*
X10680Y-6015D03*
X10680Y-5415D03*
X11170Y-13515D03*
X11170Y-14115D03*
X13800Y-9170D03*
X13800Y-8570D03*
G54D17*
X13375Y-13210D03*
X13975Y-13210D03*
X13385Y-12100D03*
X13985Y-12100D03*
X16825Y-9180D03*
X16225Y-9180D03*
X16820Y-10295D03*
X16220Y-10295D03*
G54D19*
X3940Y-12565D03*
X3940Y-11965D03*
X4850Y-12565D03*
X4850Y-11965D03*
X13605Y-5175D03*
X13605Y-4575D03*
X9860Y-4635D03*
X9860Y-4035D03*
G54D17*
X21880Y-6135D03*
X22480Y-6135D03*
G54D19*
X37490Y-40400D03*
X37490Y-39800D03*
X38920Y-40400D03*
X38920Y-39800D03*
G54D17*
X43860Y-50420D03*
X43260Y-50420D03*
X42620Y-58070D03*
X43220Y-58070D03*
G54D19*
X37964Y-31515D03*
X37964Y-30915D03*
G54D17*
X35340Y-11405D03*
X34740Y-11405D03*
X31530Y-3680D03*
X30930Y-3680D03*
G54D19*
X20850Y-2509D03*
X20850Y-3109D03*
G54D17*
X47490Y-40620D03*
X48090Y-40620D03*
G54D19*
X39988Y-5173D03*
X39988Y-5773D03*
X44420Y-12765D03*
X44420Y-13365D03*
G54D17*
X22470Y-6805D03*
X23070Y-6805D03*
X22470Y-5465D03*
X23070Y-5465D03*
X15135Y-12095D03*
X14535Y-12095D03*
X14535Y-12780D03*
X15135Y-12780D03*
X34120Y-8490D03*
X33520Y-8490D03*
X33520Y-7700D03*
X34120Y-7700D03*
X6295Y-7995D03*
X5695Y-7995D03*
G54D19*
X23160Y-3965D03*
X23160Y-4565D03*
X47040Y-17745D03*
X47040Y-18345D03*
X11515Y-23345D03*
X11515Y-22745D03*
X1428Y-14575D03*
X1428Y-13975D03*
X2322Y-14573D03*
X2322Y-13973D03*
G54D17*
X10650Y-40655D03*
X10050Y-40655D03*
X10650Y-40000D03*
X10050Y-40000D03*
X10650Y-39350D03*
X10050Y-39350D03*
X40640Y-40090D03*
X40040Y-40090D03*
X40640Y-39440D03*
X40040Y-39440D03*
X40640Y-38790D03*
X40040Y-38790D03*
X49790Y-21210D03*
X49190Y-21210D03*
X49190Y-20395D03*
X49790Y-20395D03*
X35749Y-20042D03*
X35149Y-20042D03*
X36291Y-20042D03*
X36891Y-20042D03*
X38033Y-20042D03*
X37433Y-20042D03*
X45448Y-20079D03*
X46048Y-20079D03*
X47432Y-20081D03*
X46832Y-20081D03*
X40450Y-18155D03*
X41050Y-18155D03*
X44510Y-18160D03*
X45110Y-18160D03*
X19795Y-21155D03*
X19195Y-21155D03*
X19185Y-20350D03*
X19785Y-20350D03*
X5710Y-20003D03*
X5110Y-20003D03*
X6252Y-20003D03*
X6852Y-20003D03*
X7993Y-20003D03*
X7393Y-20003D03*
G54D19*
X16900Y-17700D03*
X16900Y-18300D03*
G54D17*
X17428Y-20195D03*
X16828Y-20195D03*
X15446Y-20195D03*
X16046Y-20195D03*
X14440Y-18152D03*
X15040Y-18152D03*
X10420Y-18115D03*
X11020Y-18115D03*
G54D19*
X9853Y-27778D03*
X9853Y-27178D03*
G54D17*
X3000Y-4825D03*
X3600Y-4825D03*
X5950Y-4825D03*
X5350Y-4825D03*
G54D19*
X7969Y-529D03*
X7969Y-1129D03*
X8992Y-529D03*
X8992Y-1129D03*
X11985Y-529D03*
X11985Y-1129D03*
X12969Y-529D03*
X12969Y-1129D03*
X10961Y-529D03*
X10961Y-1129D03*
X13992Y-529D03*
X13992Y-1129D03*
X14977Y-529D03*
X14977Y-1129D03*
X15961Y-529D03*
X15961Y-1129D03*
X41570Y-26135D03*
X41570Y-26735D03*
X40600Y-28345D03*
X40600Y-28945D03*
X40600Y-27765D03*
X40600Y-27165D03*
X39870Y-28345D03*
X39870Y-28945D03*
X9853Y-28220D03*
X9853Y-28820D03*
X10601Y-27778D03*
X10601Y-27178D03*
X10601Y-28220D03*
X10601Y-28820D03*
X11530Y-26115D03*
X11530Y-26715D03*
X41521Y-23345D03*
X41521Y-22745D03*
X39860Y-27775D03*
X39860Y-27175D03*
G54D14*
X50977Y-748D03*
X51316Y-10840D03*
X38660Y-1555D03*
X42865Y-10175D03*
G54D30*
X31000Y-1075D03*
G54D31*
X31000Y-2075D03*
X30000Y-1075D03*
X30000Y-2075D03*
X29000Y-1075D03*
X29000Y-2075D03*
X28000Y-1075D03*
X28000Y-2075D03*
X27000Y-1075D03*
X27000Y-2075D03*
X26000Y-1075D03*
X26000Y-2075D03*
X25000Y-1075D03*
X25000Y-2075D03*
X24000Y-1075D03*
X24000Y-2075D03*
G54D30*
X31475Y-4700D03*
G54D31*
X32475Y-4700D03*
X31475Y-5700D03*
X32475Y-5700D03*
X31475Y-6700D03*
X32475Y-6700D03*
X31475Y-7700D03*
X32475Y-7700D03*
X15980Y-2045D03*
X14980Y-2045D03*
X15980Y-3045D03*
X14980Y-3045D03*
X12980Y-2045D03*
X11980Y-2045D03*
X12980Y-3045D03*
X11980Y-3045D03*
X9980Y-2045D03*
X8980Y-2045D03*
X9980Y-3045D03*
X8980Y-3045D03*
G54D30*
X16980Y-2045D03*
G54D31*
X13980Y-2045D03*
X16980Y-3045D03*
X13980Y-3045D03*
X10980Y-2045D03*
X7980Y-2045D03*
X10980Y-3045D03*
X7980Y-3045D03*
G54D32*
X52418Y-2247D03*
G54D33*
X53977Y-2247D03*
G54D34*
X42780Y-48032D03*
X42780Y-49528D03*
G54D35*
X41722Y-59190D03*
X43218Y-59190D03*
G54D36*
X49850Y-5735D03*
X48270Y-5735D03*
G54D24*
X43961Y-38630D03*
G54D37*
X45338Y-38630D03*
G54D24*
X45840Y-4356D03*
G54D37*
X45840Y-5733D03*
G54D11*
X38273Y-7290D03*
G54D12*
X37486Y-7290D03*
G54D11*
X22396Y-1321D03*
G54D12*
X21609Y-1321D03*
G54D11*
X29680Y-4543D03*
G54D12*
X29680Y-3756D03*
G54D11*
X35056Y-21538D03*
G54D12*
X35843Y-21538D03*
G54D11*
X42511Y-29488D03*
G54D12*
X41724Y-29488D03*
G54D11*
X5016Y-21499D03*
G54D12*
X5804Y-21499D03*
G54D11*
X45880Y-12824D03*
G54D12*
X45880Y-12037D03*
G54D11*
X39988Y-3406D03*
G54D12*
X39988Y-4193D03*
G54D38*
X44365Y-8955D03*
G54D39*
X46334Y-8955D03*
G54D40*
X53659Y-31779D03*
X53659Y-37685D03*
X48247Y-8440D03*
X54152Y-8440D03*
X53358Y-10896D03*
X53358Y-16801D03*
G54D41*
X42873Y-15953D03*
X42617Y-15953D03*
X42361Y-15953D03*
X42105Y-15953D03*
X43637Y-18155D03*
X43641Y-15953D03*
X43385Y-15953D03*
X43129Y-15953D03*
X41849Y-18157D03*
X42105Y-18157D03*
X42361Y-18157D03*
X42617Y-18157D03*
X42873Y-18157D03*
X43129Y-18157D03*
X41849Y-15953D03*
X43385Y-18155D03*
X43897Y-15953D03*
X41593Y-15953D03*
X41593Y-18157D03*
X43897Y-18157D03*
X38878Y-15943D03*
X38622Y-15943D03*
X38366Y-15943D03*
X38110Y-15943D03*
X39642Y-18145D03*
X39646Y-15943D03*
X39390Y-15943D03*
X39134Y-15943D03*
X37854Y-18147D03*
X38110Y-18147D03*
X38366Y-18147D03*
X38622Y-18147D03*
X38878Y-18147D03*
X39134Y-18147D03*
X37854Y-15943D03*
X39390Y-18145D03*
X39902Y-15943D03*
X37598Y-15943D03*
X37598Y-18147D03*
X39902Y-18147D03*
G54D42*
X12943Y-5232D03*
X12443Y-5232D03*
X12943Y-6032D03*
X12693Y-5232D03*
X12443Y-6032D03*
G54D19*
X8370Y-13505D03*
X8370Y-14105D03*
G54D43*
X11867Y-7148D03*
X11670Y-7148D03*
X11473Y-7148D03*
X11276Y-7148D03*
X11080Y-7148D03*
X10883Y-7148D03*
X10686Y-7148D03*
X10489Y-7148D03*
X10292Y-7148D03*
X10095Y-7148D03*
X9899Y-7148D03*
X9702Y-7148D03*
X9505Y-7148D03*
X9308Y-7148D03*
X9111Y-7148D03*
X8914Y-7148D03*
X8717Y-7148D03*
X8521Y-7148D03*
X8324Y-7148D03*
X8127Y-7148D03*
G54D44*
X7280Y-7994D03*
X7280Y-8191D03*
X7280Y-8388D03*
X7280Y-8585D03*
X7280Y-8782D03*
X7280Y-8979D03*
X7280Y-9176D03*
X7280Y-9372D03*
X7280Y-9569D03*
X7280Y-9766D03*
X7280Y-9963D03*
X7280Y-10160D03*
X7280Y-10357D03*
X7280Y-10554D03*
X7280Y-10750D03*
X7280Y-10947D03*
X7280Y-11144D03*
X7280Y-11341D03*
X7280Y-11538D03*
X7280Y-11735D03*
G54D43*
X8127Y-12581D03*
X8324Y-12581D03*
X8521Y-12581D03*
X8717Y-12581D03*
X8914Y-12581D03*
X9111Y-12581D03*
X9308Y-12581D03*
X9505Y-12581D03*
X9702Y-12581D03*
X9899Y-12581D03*
X10095Y-12581D03*
X10292Y-12581D03*
X10489Y-12581D03*
X10686Y-12581D03*
X10883Y-12581D03*
X11080Y-12581D03*
X11276Y-12581D03*
X11473Y-12581D03*
X11670Y-12581D03*
X11867Y-12581D03*
G54D44*
X12713Y-11735D03*
X12713Y-11538D03*
X12713Y-11341D03*
X12713Y-11144D03*
X12713Y-10947D03*
X12713Y-10750D03*
X12713Y-10554D03*
X12713Y-10357D03*
X12713Y-10160D03*
X12713Y-9963D03*
X12713Y-9766D03*
X12713Y-9569D03*
X12713Y-9372D03*
X12713Y-9176D03*
X12713Y-8979D03*
X12713Y-8782D03*
X12713Y-8585D03*
X12713Y-8388D03*
X12713Y-8191D03*
X12713Y-7994D03*
G54D45*
X11513Y-27776D03*
X11513Y-22067D03*
X13482Y-27776D03*
X13482Y-22067D03*
X12497Y-27776D03*
G54D46*
X9898Y-24825D03*
X15095Y-24825D03*
G54D45*
X41513Y-27776D03*
X41513Y-22067D03*
X43482Y-27776D03*
X43482Y-22067D03*
X42497Y-27776D03*
G54D46*
X39898Y-24825D03*
X45095Y-24825D03*
G54D47*
X3797Y-42333D03*
X1297Y-42333D03*
X6312Y-42333D03*
X3797Y-48723D03*
X1297Y-48723D03*
X6297Y-48723D03*
X3797Y-51333D03*
X1297Y-51333D03*
X6312Y-51333D03*
X3797Y-57723D03*
X1297Y-57723D03*
X6297Y-57723D03*
X50897Y-49198D03*
X53397Y-49198D03*
X48382Y-49198D03*
X50897Y-42808D03*
X53397Y-42808D03*
X48397Y-42808D03*
X50897Y-58198D03*
X53397Y-58198D03*
X48382Y-58198D03*
X50897Y-51808D03*
X53397Y-51808D03*
X48397Y-51808D03*
G54D24*
X49189Y-19254D03*
X49977Y-19254D03*
X35016Y-751D03*
X46040Y-19254D03*
X46827Y-19254D03*
X47615Y-19254D03*
X42890Y-19254D03*
X43678Y-19254D03*
X44465Y-19254D03*
X40528Y-19254D03*
X41315Y-19254D03*
X42103Y-19254D03*
X37378Y-19254D03*
X38166Y-19254D03*
X38953Y-19254D03*
X35016Y-19254D03*
X35804Y-19254D03*
X49977Y-751D03*
X45252Y-19254D03*
X48402Y-19254D03*
X36591Y-19254D03*
X39741Y-19254D03*
G54D48*
X18441Y-10397D03*
G54D49*
X18441Y-9609D03*
X19229Y-10397D03*
X19229Y-9609D03*
X20016Y-10397D03*
X20016Y-9609D03*
X20804Y-10397D03*
X20804Y-9609D03*
X21591Y-10397D03*
X21591Y-9609D03*
X22378Y-10397D03*
X22378Y-9609D03*
X23166Y-10397D03*
X23166Y-9609D03*
X23953Y-10397D03*
X23953Y-9609D03*
X24741Y-10397D03*
X24741Y-9609D03*
X25528Y-10397D03*
X25528Y-9609D03*
X26315Y-10397D03*
X26315Y-9609D03*
X27103Y-10397D03*
X27103Y-9609D03*
X27890Y-10397D03*
X27890Y-9609D03*
X28678Y-10397D03*
X28678Y-9609D03*
X29465Y-10397D03*
X29465Y-9609D03*
X30252Y-10397D03*
X30252Y-9609D03*
X31040Y-10397D03*
X31040Y-9609D03*
X31827Y-10397D03*
X31827Y-9609D03*
X32615Y-10397D03*
X32615Y-9609D03*
X33402Y-10397D03*
X33402Y-9609D03*
X34189Y-10397D03*
X34189Y-9609D03*
X34977Y-10397D03*
X34977Y-9609D03*
X35764Y-10397D03*
X35764Y-9609D03*
X36552Y-10397D03*
X36552Y-9609D03*
G54D48*
X36552Y-30397D03*
G54D49*
X36552Y-31184D03*
X35764Y-30397D03*
X35764Y-31184D03*
X34977Y-30397D03*
X34977Y-31184D03*
X34189Y-30397D03*
X34189Y-31184D03*
X33402Y-30397D03*
X33402Y-31184D03*
X32615Y-30397D03*
X32615Y-31184D03*
X31827Y-30397D03*
X31827Y-31184D03*
X31040Y-30397D03*
X31040Y-31184D03*
X30252Y-30397D03*
X30252Y-31184D03*
X29465Y-30397D03*
X29465Y-31184D03*
X28678Y-30397D03*
X28678Y-31184D03*
X27890Y-30397D03*
X27890Y-31184D03*
X27103Y-30397D03*
X27103Y-31184D03*
X26315Y-30397D03*
X26315Y-31184D03*
X25528Y-30397D03*
X25528Y-31184D03*
X24741Y-30397D03*
X24741Y-31184D03*
X23953Y-30397D03*
X23953Y-31184D03*
X23166Y-30397D03*
X23166Y-31184D03*
X22378Y-30397D03*
X22378Y-31184D03*
X21591Y-30397D03*
X21591Y-31184D03*
X20804Y-30397D03*
X20804Y-31184D03*
X20016Y-30397D03*
X20016Y-31184D03*
X19229Y-30397D03*
X19229Y-31184D03*
X18441Y-30397D03*
X18441Y-31184D03*
G54D50*
X48866Y-13615D03*
G54D51*
X49766Y-10785D03*
X47966Y-10785D03*
G54D50*
X42740Y-3155D03*
G54D51*
X41840Y-5985D03*
X43640Y-5985D03*
G54D52*
X49998Y-38774D03*
G54D53*
X47168Y-37874D03*
X47168Y-39674D03*
G54D41*
X8868Y-15953D03*
X8612Y-15953D03*
X8356Y-15953D03*
X8100Y-15953D03*
X9632Y-18155D03*
X9636Y-15953D03*
X9380Y-15953D03*
X9124Y-15953D03*
X7844Y-18157D03*
X8100Y-18157D03*
X8356Y-18157D03*
X8612Y-18157D03*
X8868Y-18157D03*
X9124Y-18157D03*
X7844Y-15953D03*
X9380Y-18155D03*
X9892Y-15953D03*
X7588Y-15953D03*
X7588Y-18157D03*
X9892Y-18157D03*
X12880Y-15948D03*
X12624Y-15948D03*
X12368Y-15948D03*
X12112Y-15948D03*
X13644Y-18150D03*
X13648Y-15948D03*
X13392Y-15948D03*
X13136Y-15948D03*
X11856Y-18152D03*
X12112Y-18152D03*
X12368Y-18152D03*
X12624Y-18152D03*
X12880Y-18152D03*
X13136Y-18152D03*
X11856Y-15948D03*
X13392Y-18150D03*
X13904Y-15948D03*
X11600Y-15948D03*
X11600Y-18152D03*
X13904Y-18152D03*
G54D23*
X14952Y-8240D03*
X15818Y-7865D03*
X15818Y-8615D03*
G54D17*
X18395Y-7975D03*
X17795Y-7975D03*
G54D19*
X17225Y-7950D03*
X17225Y-8550D03*
G54D54*
X16495Y-7830D03*
X16495Y-8710D03*
G54D55*
X2630Y-6225D03*
X6370Y-6225D03*
G54D29*
X17775Y-4430D03*
X17025Y-4430D03*
G54D22*
X23770Y-4705D03*
X23770Y-6805D03*
X24270Y-4705D03*
X24770Y-4705D03*
X25270Y-4705D03*
X24270Y-6805D03*
X24770Y-6805D03*
X25270Y-6805D03*
G54D28*
X22380Y-3820D03*
X22380Y-4570D03*
X21560Y-3815D03*
X21560Y-4565D03*
G54D17*
X20730Y-6135D03*
X21330Y-6135D03*
X23070Y-7515D03*
X22470Y-7515D03*
X21290Y-5465D03*
X21890Y-5465D03*
G54D19*
X7720Y-14105D03*
X7720Y-13505D03*
G54D30*
X1300Y-34500D03*
G54D31*
X1300Y-35500D03*
X1300Y-36500D03*
X1300Y-37500D03*
G54D28*
X26700Y-7590D03*
X26700Y-6840D03*
G54D23*
X19293Y-4955D03*
X18427Y-5330D03*
X18427Y-4580D03*
G54D56*
X14449Y-4225D03*
X16221Y-4225D03*
X14449Y-6785D03*
X16221Y-6785D03*
G54D17*
X13543Y-40104D03*
X14143Y-40104D03*
G54D19*
X40350Y-37620D03*
X40350Y-38220D03*
G54D23*
X39783Y-41330D03*
X38917Y-41705D03*
X38917Y-40955D03*
X38363Y-41330D03*
X37497Y-41705D03*
X37497Y-40955D03*
G54D57*
X21170Y-20287D03*
X21545Y-21153D03*
X20795Y-21153D03*
X51150Y-20342D03*
X51525Y-21208D03*
X50775Y-21208D03*
G54D28*
X27488Y-7590D03*
X27488Y-6840D03*
G54D23*
X32273Y-36800D03*
X31407Y-37175D03*
X31407Y-36425D03*
X30853Y-36800D03*
X29987Y-37175D03*
X29987Y-36425D03*
X29433Y-36800D03*
X28567Y-37175D03*
X28567Y-36425D03*
X28013Y-36780D03*
X27147Y-37155D03*
X27147Y-36405D03*
G54D19*
X30850Y-57780D03*
X30850Y-57180D03*
G54D18*
X27680Y-56660D03*
X24680Y-56660D03*
G54D11*
X29086Y-56660D03*
G54D12*
X29873Y-56660D03*
G54D19*
X29920Y-39220D03*
X29920Y-39820D03*
X28960Y-39220D03*
X28960Y-39820D03*
X30880Y-39220D03*
X30880Y-39820D03*
X31840Y-39220D03*
X31840Y-39820D03*
G54D22*
X37910Y-57130D03*
X37910Y-55030D03*
X37410Y-57130D03*
X36910Y-57130D03*
X36410Y-57130D03*
X37410Y-55030D03*
X36910Y-55030D03*
X36410Y-55030D03*
G54D18*
X39360Y-54000D03*
X39360Y-57000D03*
X37960Y-50320D03*
X37960Y-47320D03*
X39360Y-50300D03*
X39360Y-53300D03*
X40420Y-47300D03*
X40420Y-50300D03*
X38660Y-57960D03*
X35660Y-57960D03*
X37040Y-50320D03*
X37040Y-47320D03*
X42480Y-50300D03*
X42480Y-53300D03*
X41420Y-47300D03*
X41420Y-50300D03*
G54D19*
X38580Y-56660D03*
X38580Y-57260D03*
G54D17*
X39100Y-47300D03*
X39700Y-47300D03*
X42740Y-47300D03*
X42140Y-47300D03*
G54D11*
X37800Y-51406D03*
G54D12*
X37800Y-52193D03*
G54D11*
X40920Y-51406D03*
G54D12*
X40920Y-52193D03*
G54D30*
X39420Y-46360D03*
G54D31*
X39420Y-45360D03*
X40420Y-46360D03*
X40420Y-45360D03*
X41420Y-46360D03*
X41420Y-45360D03*
X42420Y-46360D03*
X42420Y-45360D03*
G54D30*
X32970Y-42240D03*
G54D31*
X32970Y-41240D03*
X33970Y-42240D03*
X33970Y-41240D03*
X34970Y-42240D03*
X34970Y-41240D03*
G54D13*
X28060Y-31630D03*
X28500Y-31630D03*
X28850Y-31630D03*
X29290Y-31630D03*
X35550Y-38450D03*
X35990Y-38450D03*
X36190Y-38450D03*
X36630Y-38450D03*
X36430Y-40850D03*
X35990Y-40850D03*
X35550Y-40850D03*
X35280Y-42740D03*
X34640Y-42740D03*
X34310Y-42740D03*
X33670Y-42740D03*
X40220Y-44870D03*
X39910Y-45180D03*
X41000Y-44870D03*
X30590Y-56340D03*
X31300Y-56980D03*
X28850Y-44430D03*
X7060Y-58050D03*
X6600Y-58490D03*
X43500Y-57210D03*
X43500Y-56570D03*
X5990Y-49490D03*
X5540Y-49040D03*
X160Y-50430D03*
X650Y-50840D03*
X42400Y-56370D03*
X43040Y-56370D03*
X44540Y-51670D03*
X43920Y-51390D03*
G54D14*
X15570Y-46790D03*
X20400Y-51890D03*
G54D18*
X33240Y-38295D03*
X33240Y-35295D03*
G54D17*
X32520Y-38290D03*
X31920Y-38290D03*
G54D58*
X45870Y-46443D03*
X45870Y-48176D03*
X43870Y-47310D03*
X43870Y-48176D03*
X43870Y-46443D03*
X45870Y-47310D03*
X43870Y-49436D03*
G54D40*
X45870Y-49436D03*
G54D58*
X45860Y-55158D03*
X45860Y-56891D03*
X43860Y-56025D03*
X43860Y-56891D03*
X43860Y-55158D03*
X45860Y-56025D03*
X43860Y-58151D03*
G54D40*
X45860Y-58151D03*
G54D59*
X53358Y-11724D03*
X53358Y-15661D03*
X49074Y-8440D03*
X53011Y-8440D03*
X53659Y-32619D03*
X53659Y-36556D03*
G54D17*
X30800Y-35725D03*
X31400Y-35725D03*
X29375Y-35725D03*
X29975Y-35725D03*
X27950Y-35725D03*
X28550Y-35725D03*
X26550Y-35725D03*
X27150Y-35725D03*
X24100Y-35725D03*
X24700Y-35725D03*
X21100Y-35725D03*
X21700Y-35725D03*
X19275Y-35725D03*
X18675Y-35725D03*
X16300Y-35725D03*
X15700Y-35725D03*
G54D60*
X51665Y-26222D03*
X53634Y-26222D03*
X53634Y-27797D03*
X51665Y-27797D03*
G54D24*
X44301Y-41940D03*
G54D37*
X45678Y-41940D03*
G54D24*
X40921Y-41940D03*
G54D37*
X42298Y-41940D03*
G54D24*
X31008Y-45600D03*
G54D37*
X29631Y-45600D03*
G54D24*
X30381Y-53930D03*
G54D37*
X31758Y-53930D03*
G54D61*
X42940Y-32183D03*
G54D62*
X42940Y-35136D03*
G54D61*
X49380Y-32183D03*
G54D62*
X49380Y-35136D03*
M02*
