G04 (created by PCBNEW (2013-07-07 BZR 4022)-stable) date 14/04/2014 03:28:28*
%MOIN*%
G04 Gerber Fmt 3.4, Leading zero omitted, Abs format*
%FSLAX34Y34*%
G01*
G70*
G90*
G04 APERTURE LIST*
%ADD10C,0.00590551*%
%ADD11C,0.157795*%
%ADD12C,0.0672441*%
%ADD13R,0.0672441X0.0672441*%
%ADD14C,0.072*%
%ADD15C,0.148*%
%ADD16R,0.08X0.08*%
%ADD17C,0.08*%
%ADD18R,0.075X0.075*%
%ADD19C,0.075*%
%ADD20C,0.0751181*%
%ADD21R,0.076X0.076*%
%ADD22C,0.076*%
%ADD23R,0.0711811X0.0475591*%
%ADD24R,0.13X0.13*%
%ADD25C,0.13*%
%ADD26R,0.0751181X0.0751181*%
%ADD27C,0.0770866*%
%ADD28R,0.0770866X0.0770866*%
%ADD29R,0.0711811X0.0711811*%
%ADD30C,0.0829921*%
%ADD31C,0.153858*%
%ADD32C,0.14*%
%ADD33R,0.0652756X0.0652756*%
%ADD34C,0.0652756*%
%ADD35C,0.09*%
%ADD36C,0.0711811*%
%ADD37R,0.0731496X0.0731496*%
%ADD38C,0.106614*%
%ADD39R,0.0869291X0.0869291*%
%ADD40C,0.0869291*%
%ADD41C,0.197165*%
%ADD42C,0.132205*%
%ADD43C,0.145984*%
%ADD44C,0.114488*%
%ADD45C,0.0987402*%
%ADD46R,0.189291X0.110551*%
%ADD47R,0.208976X0.110551*%
%ADD48R,0.110551X0.189291*%
G04 APERTURE END LIST*
G54D10*
G54D11*
X25057Y-17500D03*
X1187Y-1181D03*
G54D12*
X1845Y-13633D03*
G54D13*
X1845Y-12846D03*
G54D12*
X8245Y-13376D03*
G54D13*
X8245Y-14163D03*
G54D12*
X7881Y-16000D03*
G54D13*
X8668Y-16000D03*
G54D14*
X4565Y-20300D03*
X4565Y-19400D03*
X4565Y-15800D03*
X4565Y-14900D03*
X2665Y-16200D03*
X2665Y-17000D03*
X2665Y-17800D03*
X2665Y-18600D03*
X1965Y-17400D03*
X1965Y-18200D03*
X1965Y-16600D03*
X1965Y-19000D03*
G54D15*
X965Y-20100D03*
X965Y-15100D03*
G54D14*
X4565Y-11580D03*
X4565Y-10680D03*
X4565Y-7080D03*
X4565Y-6180D03*
X2665Y-7480D03*
X2665Y-8280D03*
X2665Y-9080D03*
X2665Y-9880D03*
X1965Y-8680D03*
X1965Y-9480D03*
X1965Y-7880D03*
X1965Y-10280D03*
G54D15*
X965Y-11380D03*
X965Y-6380D03*
G54D16*
X25065Y-16000D03*
X24065Y-16000D03*
X23065Y-16000D03*
X22065Y-16000D03*
X21065Y-16000D03*
X20065Y-16000D03*
X19065Y-16000D03*
X16065Y-16000D03*
X15065Y-16000D03*
X17065Y-16000D03*
X18065Y-16000D03*
X14065Y-16000D03*
X13065Y-16000D03*
X10065Y-16000D03*
X11065Y-16000D03*
X12065Y-16000D03*
X25065Y-14000D03*
X24065Y-14000D03*
X23065Y-14000D03*
X22065Y-14000D03*
X21065Y-14000D03*
X20065Y-14000D03*
X19065Y-14000D03*
X16065Y-14000D03*
X15065Y-14000D03*
X17065Y-14000D03*
X18065Y-14000D03*
X14065Y-14000D03*
X13065Y-14000D03*
X10065Y-14000D03*
X11065Y-14000D03*
X12065Y-14000D03*
X25065Y-15000D03*
X24065Y-15000D03*
X23065Y-15000D03*
X22065Y-15000D03*
X21065Y-15000D03*
X20065Y-15000D03*
X19065Y-15000D03*
X16065Y-15000D03*
X15065Y-15000D03*
X17065Y-15000D03*
X18065Y-15000D03*
X14065Y-15000D03*
X13065Y-15000D03*
X10065Y-15000D03*
X11065Y-15000D03*
X12065Y-15000D03*
X25065Y-11500D03*
X24065Y-11500D03*
X23065Y-11500D03*
X22065Y-11500D03*
X21065Y-11500D03*
X20065Y-11500D03*
X19065Y-11500D03*
X16065Y-11500D03*
X15065Y-11500D03*
X17065Y-11500D03*
X18065Y-11500D03*
X14065Y-11500D03*
X13065Y-11500D03*
X10065Y-11500D03*
X11065Y-11500D03*
X12065Y-11500D03*
X12065Y-12500D03*
X11065Y-12500D03*
X10065Y-12500D03*
X13065Y-12500D03*
X14065Y-12500D03*
X18065Y-12500D03*
X17065Y-12500D03*
X15065Y-12500D03*
X16065Y-12500D03*
X19065Y-12500D03*
X20065Y-12500D03*
X21065Y-12500D03*
X22065Y-12500D03*
X23065Y-12500D03*
X24065Y-12500D03*
X25065Y-12500D03*
X25065Y-10500D03*
X24065Y-10500D03*
X23065Y-10500D03*
X22065Y-10500D03*
X21065Y-10500D03*
X20065Y-10500D03*
X19065Y-10500D03*
X16065Y-10500D03*
X15065Y-10500D03*
X17065Y-10500D03*
X18065Y-10500D03*
X14065Y-10500D03*
X13065Y-10500D03*
X10065Y-10500D03*
X11065Y-10500D03*
X12065Y-10500D03*
X12065Y-9500D03*
X11065Y-9500D03*
X10065Y-9500D03*
X13065Y-9500D03*
X14065Y-9500D03*
X18065Y-9500D03*
X17065Y-9500D03*
X15065Y-9500D03*
X16065Y-9500D03*
X19065Y-9500D03*
X20065Y-9500D03*
X21065Y-9500D03*
X22065Y-9500D03*
X23065Y-9500D03*
X24065Y-9500D03*
X25065Y-9500D03*
X25065Y-8500D03*
X24065Y-8500D03*
X23065Y-8500D03*
X22065Y-8500D03*
X21065Y-8500D03*
X20065Y-8500D03*
X19065Y-8500D03*
X16065Y-8500D03*
X15065Y-8500D03*
X17065Y-8500D03*
X18065Y-8500D03*
X14065Y-8500D03*
X13065Y-8500D03*
X10065Y-8500D03*
X11065Y-8500D03*
X12065Y-8500D03*
X12065Y-7500D03*
X11065Y-7500D03*
X10065Y-7500D03*
X13065Y-7500D03*
X14065Y-7500D03*
X18065Y-7500D03*
X17065Y-7500D03*
X15065Y-7500D03*
X16065Y-7500D03*
X19065Y-7500D03*
X20065Y-7500D03*
X21065Y-7500D03*
X22065Y-7500D03*
X23065Y-7500D03*
X24065Y-7500D03*
X25065Y-7500D03*
X25065Y-6500D03*
X24065Y-6500D03*
X23065Y-6500D03*
X22065Y-6500D03*
X21065Y-6500D03*
X20065Y-6500D03*
X19065Y-6500D03*
X16065Y-6500D03*
X15065Y-6500D03*
X17065Y-6500D03*
X18065Y-6500D03*
X14065Y-6500D03*
X13065Y-6500D03*
X10065Y-6500D03*
X11065Y-6500D03*
X12065Y-6500D03*
X12065Y-5500D03*
X11065Y-5500D03*
X10065Y-5500D03*
X13065Y-5500D03*
X14065Y-5500D03*
X18065Y-5500D03*
X17065Y-5500D03*
X15065Y-5500D03*
X16065Y-5500D03*
X19065Y-5500D03*
X20065Y-5500D03*
X21065Y-5500D03*
X22065Y-5500D03*
X23065Y-5500D03*
X24065Y-5500D03*
X25065Y-5500D03*
G54D17*
X7465Y-2000D03*
X10465Y-2000D03*
X11465Y-2000D03*
X9465Y-2000D03*
X8465Y-2000D03*
X12465Y-2000D03*
X13465Y-2000D03*
G54D16*
X16465Y-2000D03*
G54D17*
X15465Y-2000D03*
X14465Y-2000D03*
X25065Y-19000D03*
X24065Y-19000D03*
X23065Y-19000D03*
G54D16*
X20065Y-19000D03*
G54D17*
X21065Y-19000D03*
X22065Y-19000D03*
X19065Y-2000D03*
X20065Y-2000D03*
X18065Y-2000D03*
X21065Y-2000D03*
X22065Y-2000D03*
G54D16*
X25065Y-2000D03*
G54D17*
X24065Y-2000D03*
X23065Y-2000D03*
X17065Y-19000D03*
X16065Y-19000D03*
X18065Y-19000D03*
X15065Y-19000D03*
X14065Y-19000D03*
G54D16*
X11065Y-19000D03*
G54D17*
X12065Y-19000D03*
X13065Y-19000D03*
G54D16*
X23065Y-4300D03*
G54D17*
X23065Y-3300D03*
X24065Y-4300D03*
X24065Y-3300D03*
X25065Y-4300D03*
X25065Y-3300D03*
X7465Y-1000D03*
X10465Y-1000D03*
X11465Y-1000D03*
X9465Y-1000D03*
X8465Y-1000D03*
X12465Y-1000D03*
X13465Y-1000D03*
G54D16*
X16465Y-1000D03*
G54D17*
X15465Y-1000D03*
X14465Y-1000D03*
X25065Y-20000D03*
X24065Y-20000D03*
X23065Y-20000D03*
G54D16*
X20065Y-20000D03*
G54D17*
X21065Y-20000D03*
X22065Y-20000D03*
X17065Y-20000D03*
X16065Y-20000D03*
X18065Y-20000D03*
X15065Y-20000D03*
X14065Y-20000D03*
G54D16*
X11065Y-20000D03*
G54D17*
X12065Y-20000D03*
X13065Y-20000D03*
X19065Y-1000D03*
X20065Y-1000D03*
X18065Y-1000D03*
X21065Y-1000D03*
X22065Y-1000D03*
G54D16*
X25065Y-1000D03*
G54D17*
X24065Y-1000D03*
X23065Y-1000D03*
G54D12*
X27026Y-79140D03*
G54D13*
X27026Y-79927D03*
G54D18*
X44656Y-79438D03*
G54D19*
X25086Y-87618D03*
X28086Y-87618D03*
X21376Y-88108D03*
X24376Y-88108D03*
X31806Y-87038D03*
X28806Y-87038D03*
X31826Y-82258D03*
X31826Y-85258D03*
X21396Y-84508D03*
X24396Y-84508D03*
X25086Y-84368D03*
X28086Y-84368D03*
X21376Y-87128D03*
X24376Y-87128D03*
X31806Y-86058D03*
X28806Y-86058D03*
X21376Y-86148D03*
X24376Y-86148D03*
X24396Y-83528D03*
X21396Y-83528D03*
G54D12*
X29912Y-83758D03*
G54D13*
X30699Y-83758D03*
G54D12*
X20296Y-84925D03*
G54D13*
X20296Y-85712D03*
G54D19*
X9796Y-87578D03*
X12796Y-87578D03*
G54D12*
X12796Y-89452D03*
G54D13*
X12796Y-88665D03*
G54D19*
X11526Y-89538D03*
X8526Y-89538D03*
X11536Y-88558D03*
X8536Y-88558D03*
X17576Y-90398D03*
X20576Y-90398D03*
X13916Y-91598D03*
X10916Y-91598D03*
X17596Y-92998D03*
X20596Y-92998D03*
X17596Y-92278D03*
X14596Y-92278D03*
X18416Y-88518D03*
X18416Y-85518D03*
X13916Y-90618D03*
X10916Y-90618D03*
G54D20*
X25271Y-79683D03*
X24771Y-79183D03*
X25271Y-78683D03*
X21081Y-77738D03*
X20581Y-78238D03*
X20081Y-77738D03*
X23546Y-79683D03*
X23046Y-79183D03*
X23546Y-78683D03*
X16006Y-80438D03*
X15506Y-79938D03*
X16006Y-79438D03*
X14206Y-80438D03*
X13706Y-79938D03*
X14206Y-79438D03*
G54D19*
X23071Y-73548D03*
X23071Y-76548D03*
X25826Y-77633D03*
X22826Y-77633D03*
X17103Y-73526D03*
X17103Y-76526D03*
X20906Y-79088D03*
X20906Y-82088D03*
X19581Y-81963D03*
X16581Y-81963D03*
X26056Y-73558D03*
X26056Y-76558D03*
X16123Y-73526D03*
X16123Y-76526D03*
X22096Y-73538D03*
X22096Y-76538D03*
X20096Y-73528D03*
X20096Y-76528D03*
X19116Y-73528D03*
X19116Y-76528D03*
X25076Y-73558D03*
X25076Y-76558D03*
X9831Y-80488D03*
X12831Y-80488D03*
X22031Y-82088D03*
X22031Y-79088D03*
X11531Y-83013D03*
X8531Y-83013D03*
X11536Y-81938D03*
X8536Y-81938D03*
X9831Y-79363D03*
X12831Y-79363D03*
X12106Y-78238D03*
X15106Y-78238D03*
X16081Y-78238D03*
X19081Y-78238D03*
G54D21*
X18096Y-73538D03*
G54D22*
X18096Y-76538D03*
G54D21*
X21096Y-73538D03*
G54D22*
X21096Y-76538D03*
G54D21*
X24076Y-73558D03*
G54D22*
X24076Y-76558D03*
G54D21*
X15123Y-73526D03*
G54D22*
X15123Y-76526D03*
G54D12*
X12831Y-82952D03*
G54D13*
X12831Y-82165D03*
G54D20*
X19185Y-54433D03*
X19973Y-54433D03*
X5012Y-35929D03*
X16036Y-54433D03*
X16823Y-54433D03*
X17611Y-54433D03*
X12886Y-54433D03*
X13674Y-54433D03*
X14461Y-54433D03*
X10524Y-54433D03*
X11311Y-54433D03*
X12099Y-54433D03*
X7374Y-54433D03*
X8162Y-54433D03*
X8949Y-54433D03*
X5012Y-54433D03*
X5800Y-54433D03*
X19973Y-35929D03*
X15248Y-54433D03*
X18398Y-54433D03*
X6587Y-54433D03*
X9737Y-54433D03*
G54D18*
X50973Y-35926D03*
X51312Y-46018D03*
X38656Y-36733D03*
X42861Y-45353D03*
G54D16*
X30996Y-36253D03*
G54D17*
X30996Y-37253D03*
X29996Y-36253D03*
X29996Y-37253D03*
X28996Y-36253D03*
X28996Y-37253D03*
X27996Y-36253D03*
X27996Y-37253D03*
X26996Y-36253D03*
X26996Y-37253D03*
X25996Y-36253D03*
X25996Y-37253D03*
X24996Y-36253D03*
X24996Y-37253D03*
X23996Y-36253D03*
X23996Y-37253D03*
G54D16*
X31471Y-39878D03*
G54D17*
X32471Y-39878D03*
X31471Y-40878D03*
X32471Y-40878D03*
X31471Y-41878D03*
X32471Y-41878D03*
X31471Y-42878D03*
X32471Y-42878D03*
X15976Y-37223D03*
X14976Y-37223D03*
X15976Y-38223D03*
X14976Y-38223D03*
X12976Y-37223D03*
X11976Y-37223D03*
X12976Y-38223D03*
X11976Y-38223D03*
X9976Y-37223D03*
X8976Y-37223D03*
X9976Y-38223D03*
X8976Y-38223D03*
G54D16*
X16976Y-37223D03*
G54D17*
X13976Y-37223D03*
X16976Y-38223D03*
X13976Y-38223D03*
X10976Y-37223D03*
X7976Y-37223D03*
X10976Y-38223D03*
X7976Y-38223D03*
G54D23*
X12906Y-74745D03*
X12906Y-75178D03*
X12906Y-75611D03*
X11685Y-75611D03*
X11685Y-75178D03*
X11685Y-74745D03*
X42906Y-74745D03*
X42906Y-75178D03*
X42906Y-75611D03*
X41685Y-75611D03*
X41685Y-75178D03*
X41685Y-74745D03*
G54D24*
X52414Y-37425D03*
G54D25*
X53973Y-37425D03*
G54D20*
X43957Y-73808D03*
G54D26*
X45335Y-73808D03*
G54D20*
X45836Y-39534D03*
G54D26*
X45836Y-40912D03*
G54D12*
X38269Y-42468D03*
G54D13*
X37482Y-42468D03*
G54D12*
X22392Y-36499D03*
G54D13*
X21605Y-36499D03*
G54D12*
X29676Y-39722D03*
G54D13*
X29676Y-38935D03*
G54D12*
X35052Y-56717D03*
G54D13*
X35839Y-56717D03*
G54D12*
X42507Y-64667D03*
G54D13*
X41720Y-64667D03*
G54D12*
X5012Y-56677D03*
G54D13*
X5800Y-56677D03*
G54D12*
X45876Y-48003D03*
G54D13*
X45876Y-47216D03*
G54D12*
X39984Y-38585D03*
G54D13*
X39984Y-39372D03*
G54D27*
X44361Y-44133D03*
G54D28*
X46330Y-44133D03*
G54D29*
X53655Y-66958D03*
X53655Y-72864D03*
X48243Y-43618D03*
X54148Y-43618D03*
X53354Y-46075D03*
X53354Y-51980D03*
G54D30*
X11509Y-62955D03*
X11509Y-57246D03*
X13478Y-62955D03*
X13478Y-57246D03*
X12493Y-62955D03*
G54D31*
X9894Y-60004D03*
X15091Y-60004D03*
G54D30*
X41509Y-62955D03*
X41509Y-57246D03*
X43478Y-62955D03*
X43478Y-57246D03*
X42493Y-62955D03*
G54D31*
X39894Y-60004D03*
X45091Y-60004D03*
G54D32*
X3793Y-77511D03*
X1293Y-77511D03*
X6308Y-77511D03*
X3793Y-83901D03*
X1293Y-83901D03*
X6293Y-83901D03*
X3793Y-86511D03*
X1293Y-86511D03*
X6308Y-86511D03*
X3793Y-92901D03*
X1293Y-92901D03*
X6293Y-92901D03*
X50893Y-84376D03*
X53393Y-84376D03*
X48378Y-84376D03*
X50893Y-77986D03*
X53393Y-77986D03*
X48393Y-77986D03*
X50893Y-93376D03*
X53393Y-93376D03*
X48378Y-93376D03*
X50893Y-86986D03*
X53393Y-86986D03*
X48393Y-86986D03*
G54D20*
X49185Y-54433D03*
X49973Y-54433D03*
X35012Y-35929D03*
X46036Y-54433D03*
X46823Y-54433D03*
X47611Y-54433D03*
X42886Y-54433D03*
X43674Y-54433D03*
X44461Y-54433D03*
X40524Y-54433D03*
X41311Y-54433D03*
X42099Y-54433D03*
X37374Y-54433D03*
X38162Y-54433D03*
X38949Y-54433D03*
X35012Y-54433D03*
X35800Y-54433D03*
X49973Y-35929D03*
X45248Y-54433D03*
X48398Y-54433D03*
X36587Y-54433D03*
X39737Y-54433D03*
G54D33*
X18437Y-45575D03*
G54D34*
X18437Y-44788D03*
X19225Y-45575D03*
X19225Y-44788D03*
X20012Y-45575D03*
X20012Y-44788D03*
X20800Y-45575D03*
X20800Y-44788D03*
X21587Y-45575D03*
X21587Y-44788D03*
X22374Y-45575D03*
X22374Y-44788D03*
X23162Y-45575D03*
X23162Y-44788D03*
X23949Y-45575D03*
X23949Y-44788D03*
X24737Y-45575D03*
X24737Y-44788D03*
X25524Y-45575D03*
X25524Y-44788D03*
X26311Y-45575D03*
X26311Y-44788D03*
X27099Y-45575D03*
X27099Y-44788D03*
X27886Y-45575D03*
X27886Y-44788D03*
X28674Y-45575D03*
X28674Y-44788D03*
X29461Y-45575D03*
X29461Y-44788D03*
X30248Y-45575D03*
X30248Y-44788D03*
X31036Y-45575D03*
X31036Y-44788D03*
X31823Y-45575D03*
X31823Y-44788D03*
X32611Y-45575D03*
X32611Y-44788D03*
X33398Y-45575D03*
X33398Y-44788D03*
X34185Y-45575D03*
X34185Y-44788D03*
X34973Y-45575D03*
X34973Y-44788D03*
X35760Y-45575D03*
X35760Y-44788D03*
X36548Y-45575D03*
X36548Y-44788D03*
G54D33*
X36548Y-65575D03*
G54D34*
X36548Y-66363D03*
X35760Y-65575D03*
X35760Y-66363D03*
X34973Y-65575D03*
X34973Y-66363D03*
X34185Y-65575D03*
X34185Y-66363D03*
X33398Y-65575D03*
X33398Y-66363D03*
X32611Y-65575D03*
X32611Y-66363D03*
X31823Y-65575D03*
X31823Y-66363D03*
X31036Y-65575D03*
X31036Y-66363D03*
X30248Y-65575D03*
X30248Y-66363D03*
X29461Y-65575D03*
X29461Y-66363D03*
X28674Y-65575D03*
X28674Y-66363D03*
X27886Y-65575D03*
X27886Y-66363D03*
X27099Y-65575D03*
X27099Y-66363D03*
X26311Y-65575D03*
X26311Y-66363D03*
X25524Y-65575D03*
X25524Y-66363D03*
X24737Y-65575D03*
X24737Y-66363D03*
X23949Y-65575D03*
X23949Y-66363D03*
X23162Y-65575D03*
X23162Y-66363D03*
X22374Y-65575D03*
X22374Y-66363D03*
X21587Y-65575D03*
X21587Y-66363D03*
X20800Y-65575D03*
X20800Y-66363D03*
X20012Y-65575D03*
X20012Y-66363D03*
X19225Y-65575D03*
X19225Y-66363D03*
X18437Y-65575D03*
X18437Y-66363D03*
G54D16*
X1296Y-69678D03*
G54D17*
X1296Y-70678D03*
X1296Y-71678D03*
X1296Y-72678D03*
G54D35*
X14445Y-39403D03*
X16217Y-39403D03*
X14445Y-41963D03*
X16217Y-41963D03*
G54D19*
X27676Y-91838D03*
X24676Y-91838D03*
G54D12*
X29082Y-91838D03*
G54D13*
X29869Y-91838D03*
G54D19*
X39356Y-89178D03*
X39356Y-92178D03*
X37956Y-85498D03*
X37956Y-82498D03*
X39356Y-85478D03*
X39356Y-88478D03*
X40416Y-82478D03*
X40416Y-85478D03*
X38656Y-93138D03*
X35656Y-93138D03*
X37036Y-85498D03*
X37036Y-82498D03*
X42476Y-85478D03*
X42476Y-88478D03*
X41416Y-82478D03*
X41416Y-85478D03*
G54D12*
X37796Y-86585D03*
G54D13*
X37796Y-87372D03*
G54D12*
X40916Y-86585D03*
G54D13*
X40916Y-87372D03*
G54D16*
X39416Y-81538D03*
G54D17*
X39416Y-80538D03*
X40416Y-81538D03*
X40416Y-80538D03*
X41416Y-81538D03*
X41416Y-80538D03*
X42416Y-81538D03*
X42416Y-80538D03*
G54D16*
X32966Y-77418D03*
G54D17*
X32966Y-76418D03*
X33966Y-77418D03*
X33966Y-76418D03*
X34966Y-77418D03*
X34966Y-76418D03*
G54D18*
X15566Y-81968D03*
X20396Y-87068D03*
G54D19*
X33236Y-73473D03*
X33236Y-70473D03*
G54D36*
X45866Y-81622D03*
X45866Y-83355D03*
X43866Y-82488D03*
X43866Y-83355D03*
X43866Y-81622D03*
X45866Y-82488D03*
X43866Y-84614D03*
G54D29*
X45866Y-84614D03*
G54D36*
X45856Y-90337D03*
X45856Y-92070D03*
X43856Y-91203D03*
X43856Y-92070D03*
X43856Y-90337D03*
X45856Y-91203D03*
X43856Y-93329D03*
G54D29*
X45856Y-93329D03*
G54D37*
X53354Y-46903D03*
X53354Y-50840D03*
X49070Y-43618D03*
X53007Y-43618D03*
X53655Y-67798D03*
X53655Y-71735D03*
G54D38*
X51661Y-61401D03*
X53630Y-61401D03*
X53630Y-62976D03*
X51661Y-62976D03*
G54D20*
X44297Y-77118D03*
G54D26*
X45675Y-77118D03*
G54D20*
X40917Y-77118D03*
G54D26*
X42295Y-77118D03*
G54D20*
X31005Y-80778D03*
G54D26*
X29627Y-80778D03*
G54D20*
X30377Y-89108D03*
G54D26*
X31755Y-89108D03*
G54D39*
X42936Y-67362D03*
G54D40*
X42936Y-70315D03*
G54D39*
X49376Y-67362D03*
G54D40*
X49376Y-70315D03*
G54D12*
X19469Y-27764D03*
G54D13*
X18682Y-27764D03*
G54D16*
X24000Y-33089D03*
G54D17*
X24000Y-32089D03*
X25000Y-33089D03*
X25000Y-32089D03*
X26000Y-33089D03*
X26000Y-32089D03*
X27000Y-33089D03*
X27000Y-32089D03*
X28000Y-33089D03*
X28000Y-32089D03*
X29000Y-33089D03*
X29000Y-32089D03*
X30000Y-33089D03*
X30000Y-32089D03*
X31000Y-33089D03*
X31000Y-32089D03*
G54D24*
X5150Y-31559D03*
G54D25*
X3591Y-31559D03*
G54D12*
X4387Y-28079D03*
G54D13*
X5174Y-28079D03*
G54D29*
X7760Y-33961D03*
X7760Y-28056D03*
G54D41*
X53987Y-24603D03*
X51034Y-24603D03*
X53987Y-22634D03*
X51034Y-22634D03*
X3967Y-24568D03*
X1014Y-24568D03*
X3967Y-22599D03*
X1014Y-22599D03*
G54D16*
X23825Y-27689D03*
G54D17*
X24825Y-27689D03*
X23825Y-28689D03*
X24825Y-28689D03*
G54D12*
X21225Y-28157D03*
G54D13*
X21225Y-27370D03*
G54D20*
X12975Y-27199D03*
X13975Y-27199D03*
X14975Y-27199D03*
X15975Y-27199D03*
X14475Y-26199D03*
X15475Y-26199D03*
G54D42*
X11674Y-22498D03*
X17776Y-22498D03*
G54D20*
X13475Y-26199D03*
X16475Y-26199D03*
G54D43*
X12475Y-23699D03*
X16975Y-23699D03*
G54D17*
X27500Y-26389D03*
X27500Y-27176D03*
X27500Y-27963D03*
G54D40*
X28571Y-26200D03*
G54D17*
X27500Y-28751D03*
G54D40*
X28571Y-28751D03*
X26429Y-26200D03*
X26429Y-28751D03*
G54D44*
X42772Y-24589D03*
G54D45*
X43757Y-27541D03*
X44741Y-22620D03*
X42772Y-26557D03*
X45725Y-26557D03*
X48678Y-26557D03*
X47694Y-27541D03*
X46709Y-22620D03*
G54D44*
X48678Y-24589D03*
X33222Y-24589D03*
G54D45*
X34207Y-27541D03*
X35191Y-22620D03*
X33222Y-26557D03*
X36175Y-26557D03*
X39128Y-26557D03*
X38144Y-27541D03*
X37159Y-22620D03*
G54D44*
X39128Y-24589D03*
G54D37*
X7764Y-32809D03*
X7764Y-28872D03*
G54D46*
X7760Y-24477D03*
G54D47*
X7760Y-26840D03*
G54D48*
X5910Y-25659D03*
G54D17*
X47001Y-996D03*
X48001Y-996D03*
X46001Y-996D03*
X49001Y-996D03*
X50001Y-996D03*
G54D16*
X53001Y-996D03*
G54D17*
X52001Y-996D03*
X51001Y-996D03*
X45001Y-19996D03*
X44001Y-19996D03*
X46001Y-19996D03*
X43001Y-19996D03*
X42001Y-19996D03*
G54D16*
X39001Y-19996D03*
G54D17*
X40001Y-19996D03*
X41001Y-19996D03*
X53001Y-19996D03*
X52001Y-19996D03*
X51001Y-19996D03*
G54D16*
X48001Y-19996D03*
G54D17*
X49001Y-19996D03*
X50001Y-19996D03*
X35401Y-996D03*
X38401Y-996D03*
X39401Y-996D03*
X37401Y-996D03*
X36401Y-996D03*
X40401Y-996D03*
X41401Y-996D03*
G54D16*
X44401Y-996D03*
G54D17*
X43401Y-996D03*
X42401Y-996D03*
G54D16*
X51001Y-4296D03*
G54D17*
X51001Y-3296D03*
X52001Y-4296D03*
X52001Y-3296D03*
X53001Y-4296D03*
X53001Y-3296D03*
X45001Y-18996D03*
X44001Y-18996D03*
X46001Y-18996D03*
X43001Y-18996D03*
X42001Y-18996D03*
G54D16*
X39001Y-18996D03*
G54D17*
X40001Y-18996D03*
X41001Y-18996D03*
X47001Y-1996D03*
X48001Y-1996D03*
X46001Y-1996D03*
X49001Y-1996D03*
X50001Y-1996D03*
G54D16*
X53001Y-1996D03*
G54D17*
X52001Y-1996D03*
X51001Y-1996D03*
X53001Y-18996D03*
X52001Y-18996D03*
X51001Y-18996D03*
G54D16*
X48001Y-18996D03*
G54D17*
X49001Y-18996D03*
X50001Y-18996D03*
X35401Y-1996D03*
X38401Y-1996D03*
X39401Y-1996D03*
X37401Y-1996D03*
X36401Y-1996D03*
X40401Y-1996D03*
X41401Y-1996D03*
G54D16*
X44401Y-1996D03*
G54D17*
X43401Y-1996D03*
X42401Y-1996D03*
G54D16*
X53001Y-11496D03*
X52001Y-11496D03*
X51001Y-11496D03*
X50001Y-11496D03*
X49001Y-11496D03*
X48001Y-11496D03*
X47001Y-11496D03*
X44001Y-11496D03*
X43001Y-11496D03*
X45001Y-11496D03*
X46001Y-11496D03*
X42001Y-11496D03*
X41001Y-11496D03*
X38001Y-11496D03*
X39001Y-11496D03*
X40001Y-11496D03*
X40001Y-12496D03*
X39001Y-12496D03*
X38001Y-12496D03*
X41001Y-12496D03*
X42001Y-12496D03*
X46001Y-12496D03*
X45001Y-12496D03*
X43001Y-12496D03*
X44001Y-12496D03*
X47001Y-12496D03*
X48001Y-12496D03*
X49001Y-12496D03*
X50001Y-12496D03*
X51001Y-12496D03*
X52001Y-12496D03*
X53001Y-12496D03*
X53001Y-10496D03*
X52001Y-10496D03*
X51001Y-10496D03*
X50001Y-10496D03*
X49001Y-10496D03*
X48001Y-10496D03*
X47001Y-10496D03*
X44001Y-10496D03*
X43001Y-10496D03*
X45001Y-10496D03*
X46001Y-10496D03*
X42001Y-10496D03*
X41001Y-10496D03*
X38001Y-10496D03*
X39001Y-10496D03*
X40001Y-10496D03*
X40001Y-9496D03*
X39001Y-9496D03*
X38001Y-9496D03*
X41001Y-9496D03*
X42001Y-9496D03*
X46001Y-9496D03*
X45001Y-9496D03*
X43001Y-9496D03*
X44001Y-9496D03*
X47001Y-9496D03*
X48001Y-9496D03*
X49001Y-9496D03*
X50001Y-9496D03*
X51001Y-9496D03*
X52001Y-9496D03*
X53001Y-9496D03*
X53001Y-8496D03*
X52001Y-8496D03*
X51001Y-8496D03*
X50001Y-8496D03*
X49001Y-8496D03*
X48001Y-8496D03*
X47001Y-8496D03*
X44001Y-8496D03*
X43001Y-8496D03*
X45001Y-8496D03*
X46001Y-8496D03*
X42001Y-8496D03*
X41001Y-8496D03*
X38001Y-8496D03*
X39001Y-8496D03*
X40001Y-8496D03*
X40001Y-7496D03*
X39001Y-7496D03*
X38001Y-7496D03*
X41001Y-7496D03*
X42001Y-7496D03*
X46001Y-7496D03*
X45001Y-7496D03*
X43001Y-7496D03*
X44001Y-7496D03*
X47001Y-7496D03*
X48001Y-7496D03*
X49001Y-7496D03*
X50001Y-7496D03*
X51001Y-7496D03*
X52001Y-7496D03*
X53001Y-7496D03*
X53001Y-6496D03*
X52001Y-6496D03*
X51001Y-6496D03*
X50001Y-6496D03*
X49001Y-6496D03*
X48001Y-6496D03*
X47001Y-6496D03*
X44001Y-6496D03*
X43001Y-6496D03*
X45001Y-6496D03*
X46001Y-6496D03*
X42001Y-6496D03*
X41001Y-6496D03*
X38001Y-6496D03*
X39001Y-6496D03*
X40001Y-6496D03*
X40001Y-5496D03*
X39001Y-5496D03*
X38001Y-5496D03*
X41001Y-5496D03*
X42001Y-5496D03*
X46001Y-5496D03*
X45001Y-5496D03*
X43001Y-5496D03*
X44001Y-5496D03*
X47001Y-5496D03*
X48001Y-5496D03*
X49001Y-5496D03*
X50001Y-5496D03*
X51001Y-5496D03*
X52001Y-5496D03*
X53001Y-5496D03*
X53001Y-14996D03*
X52001Y-14996D03*
X51001Y-14996D03*
X50001Y-14996D03*
X49001Y-14996D03*
X48001Y-14996D03*
X47001Y-14996D03*
X44001Y-14996D03*
X43001Y-14996D03*
X45001Y-14996D03*
X46001Y-14996D03*
X42001Y-14996D03*
X41001Y-14996D03*
X38001Y-14996D03*
X39001Y-14996D03*
X40001Y-14996D03*
X53001Y-13996D03*
X52001Y-13996D03*
X51001Y-13996D03*
X50001Y-13996D03*
X49001Y-13996D03*
X48001Y-13996D03*
X47001Y-13996D03*
X44001Y-13996D03*
X43001Y-13996D03*
X45001Y-13996D03*
X46001Y-13996D03*
X42001Y-13996D03*
X41001Y-13996D03*
X38001Y-13996D03*
X39001Y-13996D03*
X40001Y-13996D03*
X53001Y-15996D03*
X52001Y-15996D03*
X51001Y-15996D03*
X50001Y-15996D03*
X49001Y-15996D03*
X48001Y-15996D03*
X47001Y-15996D03*
X44001Y-15996D03*
X43001Y-15996D03*
X45001Y-15996D03*
X46001Y-15996D03*
X42001Y-15996D03*
X41001Y-15996D03*
X38001Y-15996D03*
X39001Y-15996D03*
X40001Y-15996D03*
G54D14*
X32501Y-11576D03*
X32501Y-10676D03*
X32501Y-7076D03*
X32501Y-6176D03*
X30601Y-7476D03*
X30601Y-8276D03*
X30601Y-9076D03*
X30601Y-9876D03*
X29901Y-8676D03*
X29901Y-9476D03*
X29901Y-7876D03*
X29901Y-10276D03*
G54D15*
X28901Y-11376D03*
X28901Y-6376D03*
G54D14*
X32501Y-20296D03*
X32501Y-19396D03*
X32501Y-15796D03*
X32501Y-14896D03*
X30601Y-16196D03*
X30601Y-16996D03*
X30601Y-17796D03*
X30601Y-18596D03*
X29901Y-17396D03*
X29901Y-18196D03*
X29901Y-16596D03*
X29901Y-18996D03*
G54D15*
X28901Y-20096D03*
X28901Y-15096D03*
G54D12*
X35817Y-15996D03*
G54D13*
X36604Y-15996D03*
G54D12*
X36181Y-13372D03*
G54D13*
X36181Y-14160D03*
G54D12*
X29781Y-13630D03*
G54D13*
X29781Y-12842D03*
G54D11*
X29123Y-1177D03*
X52993Y-17496D03*
M02*
