G04 (created by PCBNEW (2013-07-07 BZR 4022)-stable) date 14/04/2014 03:28:28*
%MOIN*%
G04 Gerber Fmt 3.4, Leading zero omitted, Abs format*
%FSLAX34Y34*%
G01*
G70*
G90*
G04 APERTURE LIST*
%ADD10C,0.00590551*%
%ADD11C,0.00787402*%
%ADD12C,0.01*%
G04 APERTURE END LIST*
G54D10*
G54D11*
X525Y-21000D02*
X25525Y-21000D01*
X5Y-20500D02*
G75*
G03X505Y-21000I500J0D01*
G74*
G01*
X505Y0D02*
G75*
G03X5Y-500I0J-500D01*
G74*
G01*
X26065Y-500D02*
X26065Y-5000D01*
X26065Y-5000D02*
X27065Y-6000D01*
X27065Y-6000D02*
X27065Y-19000D01*
X27065Y-19000D02*
X26065Y-20000D01*
X26065Y-20000D02*
X26065Y-20500D01*
X26065Y-500D02*
G75*
G03X25565Y0I-500J0D01*
G74*
G01*
X25565Y-21000D02*
G75*
G03X26065Y-20500I0J500D01*
G74*
G01*
X5Y-20500D02*
X5Y-500D01*
X505Y0D02*
X25575Y0D01*
X-3Y-35178D02*
X-3Y-95178D01*
X54996Y-95178D02*
X54996Y-95173D01*
X-3Y-95178D02*
X54996Y-95178D01*
X54996Y-35178D02*
X54996Y-95178D01*
X53792Y-75102D02*
G75*
G03X53792Y-75102I-590J0D01*
G74*
G01*
X2374Y-75102D02*
G75*
G03X2374Y-75102I-590J0D01*
G74*
G01*
X28083Y-38725D02*
G75*
G03X28083Y-38725I-590J0D01*
G74*
G01*
X-3Y-35178D02*
X54996Y-35178D01*
X34597Y-36518D02*
X37353Y-36518D01*
X37353Y-36518D02*
X37353Y-38880D01*
X37353Y-38880D02*
X34597Y-38880D01*
X34597Y-38880D02*
X34597Y-36518D01*
X34620Y-53843D02*
X34620Y-51481D01*
X37376Y-53843D02*
X34620Y-53843D01*
X37376Y-51481D02*
X37376Y-53843D01*
X34620Y-51481D02*
X37376Y-51481D01*
X47610Y-51481D02*
X50366Y-51481D01*
X50366Y-51481D02*
X50366Y-53843D01*
X50366Y-53843D02*
X47610Y-53843D01*
X47610Y-53843D02*
X47610Y-51481D01*
X47603Y-38880D02*
X47603Y-36518D01*
X50359Y-38880D02*
X47603Y-38880D01*
X50359Y-36518D02*
X50359Y-38880D01*
X47603Y-36518D02*
X50359Y-36518D01*
X17601Y-36520D02*
X20357Y-36520D01*
X20357Y-36520D02*
X20357Y-38882D01*
X20357Y-38882D02*
X17601Y-38882D01*
X17601Y-38882D02*
X17601Y-36520D01*
X17611Y-53842D02*
X17611Y-51480D01*
X20366Y-53842D02*
X17611Y-53842D01*
X20366Y-51480D02*
X20366Y-53842D01*
X17611Y-51480D02*
X20366Y-51480D01*
X4618Y-51480D02*
X7374Y-51480D01*
X7374Y-51480D02*
X7374Y-53842D01*
X7374Y-53842D02*
X4618Y-53842D01*
X4618Y-53842D02*
X4618Y-51480D01*
X4599Y-38872D02*
X4599Y-36510D01*
X7355Y-38872D02*
X4599Y-38872D01*
X7355Y-36510D02*
X7355Y-38872D01*
X4599Y-36510D02*
X7355Y-36510D01*
X0Y-34589D02*
X0Y-21589D01*
X55000Y-34589D02*
X0Y-34589D01*
X55000Y-21589D02*
X55000Y-34589D01*
X0Y-21589D02*
X55000Y-21589D01*
X28441Y3D02*
X53511Y3D01*
X27941Y-20496D02*
X27941Y-496D01*
X53501Y-20996D02*
G75*
G03X54001Y-20496I0J500D01*
G74*
G01*
X54001Y-496D02*
G75*
G03X53501Y3I-500J0D01*
G74*
G01*
X54001Y-19996D02*
X54001Y-20496D01*
X55001Y-18996D02*
X54001Y-19996D01*
X55001Y-5996D02*
X55001Y-18996D01*
X54001Y-4996D02*
X55001Y-5996D01*
X54001Y-496D02*
X54001Y-4996D01*
X28441Y3D02*
G75*
G03X27941Y-496I0J-500D01*
G74*
G01*
X27941Y-20496D02*
G75*
G03X28441Y-20996I500J0D01*
G74*
G01*
X28461Y-20996D02*
X53461Y-20996D01*
G54D12*
X17612Y-53845D02*
X17612Y-51483D01*
X17604Y-38880D02*
X17604Y-36518D01*
X20368Y-51483D02*
X20368Y-53845D01*
X20360Y-36518D02*
X20360Y-38880D01*
X4619Y-53845D02*
X4619Y-51483D01*
X4596Y-38880D02*
X4596Y-36518D01*
X7375Y-51483D02*
X7375Y-53845D01*
X7352Y-36518D02*
X7352Y-38880D01*
X17612Y-51483D02*
X20368Y-51483D01*
X17612Y-53845D02*
X20368Y-53845D01*
X17604Y-36518D02*
X20360Y-36518D01*
X17604Y-38880D02*
X20360Y-38880D01*
X4619Y-51483D02*
X7375Y-51483D01*
X4619Y-53845D02*
X7375Y-53845D01*
X4596Y-36518D02*
X7352Y-36518D01*
X4596Y-38880D02*
X7352Y-38880D01*
X47612Y-53845D02*
X47612Y-51483D01*
X47604Y-38880D02*
X47604Y-36518D01*
X50368Y-51483D02*
X50368Y-53845D01*
X50360Y-36518D02*
X50360Y-38880D01*
X34619Y-53845D02*
X34619Y-51483D01*
X34596Y-38880D02*
X34596Y-36518D01*
X37375Y-51483D02*
X37375Y-53845D01*
X37352Y-36518D02*
X37352Y-38880D01*
X47612Y-51483D02*
X50368Y-51483D01*
X47612Y-53845D02*
X50368Y-53845D01*
X47604Y-36518D02*
X50360Y-36518D01*
X47604Y-38880D02*
X50360Y-38880D01*
X34619Y-51483D02*
X37375Y-51483D01*
X34619Y-53845D02*
X37375Y-53845D01*
X34596Y-36518D02*
X37352Y-36518D01*
X34596Y-38880D02*
X37352Y-38880D01*
M02*
