M48
;DRILL file {Pcbnew (2013-07-07 BZR 4022)-stable} date 14/05/2014 10:05:27
;FORMAT={-:-/ absolute / inch / decimal}
FMAT,2
INCH,TZ
T1C0.024
T2C0.025
T3C0.028
T4C0.030
T5C0.037
T6C0.040
T7C0.047
T8C0.051
T9C0.053
T10C0.071
T11C0.073
T12C0.094
T13C0.126
T14C0.138
%
G90
G05
M72
T1
X0.4386Y0.649
X0.5174Y0.649
X1.8681Y0.6175
X1.9469Y0.6175
X2.1225Y0.5781
X2.1225Y0.6569
T2
X1.3082Y0.8167
X1.6595Y0.8625
X1.9025Y0.5175
X3.0625Y0.5975
X3.075Y1.2315
X3.0995Y1.2685
X3.3Y0.9575
X3.3Y1.09
X3.54Y1.
X3.665Y0.96
X4.0585Y0.2585
X4.331Y1.1425
X4.8175Y1.1975
T3
X0.776Y0.6467
X0.776Y1.2373
T4
X0.7764Y0.7283
X0.7764Y1.122
T5
X1.2975Y0.561
X1.3475Y0.461
X1.3975Y0.561
X1.4475Y0.461
X1.4975Y0.561
X1.5475Y0.461
X1.5975Y0.561
X1.6475Y0.461
T6
X2.3825Y0.61
X2.3825Y0.71
X2.4Y1.05
X2.4Y1.15
X2.4825Y0.61
X2.4825Y0.71
X2.5Y1.05
X2.5Y1.15
X2.6Y1.05
X2.6Y1.15
X2.7Y1.05
X2.7Y1.15
X2.75Y0.48
X2.75Y0.5587
X2.75Y0.6375
X2.75Y0.7162
X2.8Y1.05
X2.8Y1.15
X2.9Y1.05
X2.9Y1.15
X3.Y1.05
X3.Y1.15
X3.1Y1.05
X3.1Y1.15
T8
X3.3222Y0.4969
X3.4206Y0.5953
X3.5191Y0.1031
X3.6175Y0.4969
X3.7159Y0.1031
X3.8144Y0.5953
X3.9128Y0.4969
X4.2772Y0.4969
X4.3756Y0.5953
X4.4741Y0.1031
X4.5725Y0.4969
X4.6709Y0.1031
X4.7694Y0.5953
X4.8678Y0.4969
T9
X2.6429Y0.4611
X2.6429Y0.7162
X2.8571Y0.4611
X2.8571Y0.7162
T10
X0.3591Y0.997
X0.515Y0.997
T11
X1.1674Y0.0909
X1.7776Y0.0909
T12
X3.3222Y0.3
X3.9128Y0.3
X4.2772Y0.3
X4.8678Y0.3
T13
X1.2475Y0.211
X1.6975Y0.211
T14
X0.1014Y0.1011
X0.1014Y0.2979
X0.3966Y0.1011
X0.3966Y0.2979
X5.1034Y0.1046
X5.1034Y0.3014
X5.3986Y0.1046
X5.3986Y0.3014
T7
X0.591Y0.4464G85X0.591Y0.3676
G05
X0.7366Y0.2889G85X0.8154Y0.2889
G05
X0.7268Y0.5251G85X0.8252Y0.5251
G05
T0
M30
