G04 (created by PCBNEW (2013-07-07 BZR 4022)-stable) date 14/05/2014 10:05:02*
%MOIN*%
G04 Gerber Fmt 3.4, Leading zero omitted, Abs format*
%FSLAX34Y34*%
G01*
G70*
G90*
G04 APERTURE LIST*
%ADD10C,0.00590551*%
%ADD11R,0.0315X0.0394*%
%ADD12R,0.0335X0.0335*%
%ADD13R,0.025X0.045*%
%ADD14R,0.045X0.025*%
%ADD15R,0.035X0.055*%
%ADD16R,0.055X0.035*%
%ADD17R,0.0472441X0.0551181*%
%ADD18R,0.024X0.027*%
G04 APERTURE END LIST*
G54D10*
G54D11*
X36275Y-8267D03*
X36650Y-9133D03*
X35900Y-9133D03*
G54D12*
X12786Y-8610D03*
X14104Y-8610D03*
X16164Y-8625D03*
X14846Y-8625D03*
G54D13*
X24220Y-9460D03*
X24820Y-9460D03*
G54D14*
X40585Y-1610D03*
X40585Y-2210D03*
G54D13*
X43905Y-11955D03*
X43305Y-11955D03*
X18415Y-4615D03*
X19015Y-4615D03*
X34600Y-8500D03*
X34000Y-8500D03*
G54D14*
X41310Y-1610D03*
X41310Y-2210D03*
G54D13*
X36275Y-7650D03*
X35675Y-7650D03*
G54D14*
X32215Y-10935D03*
X32215Y-11535D03*
G54D13*
X16320Y-7750D03*
X16920Y-7750D03*
X13500Y-7750D03*
X14100Y-7750D03*
X22875Y-11500D03*
X22275Y-11500D03*
G54D15*
X34700Y-7475D03*
X33950Y-7475D03*
G54D16*
X38150Y-7525D03*
X38150Y-8275D03*
X43750Y-7475D03*
X43750Y-8225D03*
G54D15*
X14845Y-6870D03*
X14095Y-6870D03*
G54D17*
X47675Y-8428D03*
X46675Y-8428D03*
X45675Y-8428D03*
X44675Y-8428D03*
X47675Y-11971D03*
X46675Y-11971D03*
X45675Y-11971D03*
X44675Y-11971D03*
G54D18*
X15730Y-7750D03*
X14850Y-7750D03*
X45735Y-7375D03*
X46615Y-7375D03*
G54D11*
X34600Y-9117D03*
X34975Y-9983D03*
X34225Y-9983D03*
G54D14*
X22675Y-7300D03*
X22675Y-6700D03*
G54D16*
X22675Y-6100D03*
X22675Y-5350D03*
G54D15*
X30100Y-5975D03*
X29350Y-5975D03*
M02*
