G04 (created by PCBNEW (2013-07-07 BZR 4022)-stable) date 14/05/2014 10:05:02*
%MOIN*%
G04 Gerber Fmt 3.4, Leading zero omitted, Abs format*
%FSLAX34Y34*%
G01*
G70*
G90*
G04 APERTURE LIST*
%ADD10C,0.00590551*%
%ADD11C,0.0472441*%
%ADD12R,0.0472441X0.0472441*%
%ADD13R,0.06X0.06*%
%ADD14C,0.06*%
%ADD15R,0.11X0.11*%
%ADD16C,0.11*%
%ADD17R,0.0511811X0.0511811*%
%ADD18C,0.177165*%
%ADD19C,0.0551181*%
%ADD20C,0.112205*%
%ADD21C,0.125984*%
%ADD22C,0.0669291*%
%ADD23C,0.0944882*%
%ADD24C,0.0787402*%
%ADD25R,0.0531496X0.0531496*%
%ADD26R,0.169291X0.0905512*%
%ADD27R,0.188976X0.0905512*%
%ADD28R,0.0905512X0.169291*%
%ADD29C,0.035*%
%ADD30C,0.02*%
%ADD31C,0.06*%
%ADD32C,0.05*%
%ADD33C,0.08*%
%ADD34C,0.04*%
%ADD35C,0.01*%
G04 APERTURE END LIST*
G54D10*
G54D11*
X19468Y-6175D03*
G54D12*
X18681Y-6175D03*
G54D13*
X24000Y-11500D03*
G54D14*
X24000Y-10500D03*
X25000Y-11500D03*
X25000Y-10500D03*
X26000Y-11500D03*
X26000Y-10500D03*
X27000Y-11500D03*
X27000Y-10500D03*
X28000Y-11500D03*
X28000Y-10500D03*
X29000Y-11500D03*
X29000Y-10500D03*
X30000Y-11500D03*
X30000Y-10500D03*
X31000Y-11500D03*
X31000Y-10500D03*
G54D15*
X5150Y-9970D03*
G54D16*
X3591Y-9970D03*
G54D11*
X4386Y-6490D03*
G54D12*
X5173Y-6490D03*
G54D17*
X7760Y-12372D03*
X7760Y-6467D03*
G54D18*
X53986Y-3014D03*
X51033Y-3014D03*
X53986Y-1045D03*
X51033Y-1045D03*
X3966Y-2979D03*
X1013Y-2979D03*
X3966Y-1010D03*
X1013Y-1010D03*
G54D13*
X23825Y-6100D03*
G54D14*
X24825Y-6100D03*
X23825Y-7100D03*
X24825Y-7100D03*
G54D11*
X21225Y-6568D03*
G54D12*
X21225Y-5781D03*
G54D19*
X12975Y-5610D03*
X13975Y-5610D03*
X14975Y-5610D03*
X15975Y-5610D03*
X14475Y-4610D03*
X15475Y-4610D03*
G54D20*
X11673Y-909D03*
X17776Y-909D03*
G54D19*
X13475Y-4610D03*
X16475Y-4610D03*
G54D21*
X12475Y-2110D03*
X16975Y-2110D03*
G54D14*
X27500Y-4800D03*
X27500Y-5587D03*
X27500Y-6374D03*
G54D22*
X28570Y-4611D03*
G54D14*
X27500Y-7162D03*
G54D22*
X28570Y-7162D03*
X26429Y-4611D03*
X26429Y-7162D03*
G54D23*
X42772Y-3000D03*
G54D24*
X43756Y-5952D03*
X44740Y-1031D03*
X42772Y-4968D03*
X45725Y-4968D03*
X48677Y-4968D03*
X47693Y-5952D03*
X46709Y-1031D03*
G54D23*
X48677Y-3000D03*
X33222Y-3000D03*
G54D24*
X34206Y-5952D03*
X35190Y-1031D03*
X33222Y-4968D03*
X36175Y-4968D03*
X39127Y-4968D03*
X38143Y-5952D03*
X37159Y-1031D03*
G54D23*
X39127Y-3000D03*
G54D25*
X7763Y-11220D03*
X7763Y-7283D03*
G54D26*
X7760Y-2888D03*
G54D27*
X7760Y-5251D03*
G54D28*
X5909Y-4070D03*
G54D29*
X30750Y-12315D03*
X33000Y-9575D03*
X33000Y-10900D03*
X30995Y-12685D03*
X48175Y-11975D03*
X36650Y-9600D03*
X30625Y-5975D03*
X19025Y-5175D03*
X35400Y-10000D03*
X40585Y-2585D03*
X13082Y-8167D03*
X16595Y-8625D03*
X43310Y-11425D03*
G54D30*
X25500Y-12319D02*
X25690Y-12510D01*
X25690Y-12510D02*
X30555Y-12510D01*
X30555Y-12510D02*
X30750Y-12315D01*
X25000Y-10500D02*
X25000Y-10676D01*
X25000Y-10676D02*
X25500Y-11176D01*
X25500Y-11176D02*
X25500Y-12319D01*
X33000Y-10900D02*
X33000Y-9575D01*
X25580Y-12800D02*
X30880Y-12800D01*
X25000Y-12220D02*
X25580Y-12800D01*
X25000Y-11500D02*
X25000Y-12220D01*
X30880Y-12800D02*
X30995Y-12685D01*
G54D31*
X5909Y-4070D02*
X5909Y-5279D01*
G54D32*
X5909Y-5279D02*
X5930Y-5300D01*
G54D31*
X5909Y-4070D02*
X4940Y-4070D01*
G54D32*
X4940Y-4070D02*
X4930Y-4060D01*
G54D31*
X5909Y-4070D02*
X6870Y-4070D01*
G54D32*
X6870Y-4070D02*
X6880Y-4060D01*
G54D31*
X5909Y-4070D02*
X5909Y-2550D01*
G54D32*
X5909Y-2550D02*
X5910Y-2550D01*
G54D31*
X7760Y-2888D02*
X6661Y-2888D01*
G54D32*
X6661Y-2888D02*
X6660Y-2890D01*
G54D33*
X7760Y-2888D02*
X7760Y-3870D01*
G54D32*
X7760Y-3870D02*
X7770Y-3880D01*
G54D31*
X7760Y-2888D02*
X9141Y-2888D01*
G54D32*
X9141Y-2888D02*
X9150Y-2880D01*
G54D33*
X7760Y-2888D02*
X7760Y-1570D01*
G54D32*
X5150Y-9970D02*
X4530Y-9970D01*
X5150Y-9970D02*
X5150Y-9110D01*
G54D34*
X5150Y-9110D02*
X5140Y-9100D01*
G54D30*
X13082Y-8167D02*
X13080Y-8170D01*
G54D32*
X5150Y-9970D02*
X5150Y-11040D01*
G54D34*
X5150Y-11040D02*
X5140Y-11050D01*
G54D32*
X5150Y-9970D02*
X6270Y-9970D01*
G54D34*
X6270Y-9970D02*
X6290Y-9950D01*
G54D10*
G36*
X54760Y-12760D02*
X49350Y-12760D01*
X49350Y-2866D01*
X49248Y-2619D01*
X49059Y-2430D01*
X48812Y-2327D01*
X48544Y-2327D01*
X48297Y-2429D01*
X48108Y-2618D01*
X48005Y-2865D01*
X48005Y-3133D01*
X48107Y-3380D01*
X48296Y-3569D01*
X48543Y-3672D01*
X48810Y-3672D01*
X49058Y-3570D01*
X49247Y-3381D01*
X49350Y-3134D01*
X49350Y-2866D01*
X49350Y-12760D01*
X49271Y-12760D01*
X49271Y-4850D01*
X49181Y-4632D01*
X49014Y-4465D01*
X48796Y-4374D01*
X48560Y-4374D01*
X48341Y-4464D01*
X48174Y-4631D01*
X48084Y-4849D01*
X48083Y-5086D01*
X48174Y-5304D01*
X48341Y-5471D01*
X48559Y-5562D01*
X48795Y-5562D01*
X49013Y-5472D01*
X49180Y-5305D01*
X49271Y-5087D01*
X49271Y-4850D01*
X49271Y-12760D01*
X48287Y-12760D01*
X48287Y-5835D01*
X48197Y-5616D01*
X48030Y-5449D01*
X47812Y-5359D01*
X47575Y-5358D01*
X47357Y-5449D01*
X47303Y-5503D01*
X47303Y-913D01*
X47212Y-695D01*
X47045Y-528D01*
X46827Y-437D01*
X46591Y-437D01*
X46373Y-527D01*
X46206Y-694D01*
X46115Y-912D01*
X46115Y-1149D01*
X46205Y-1367D01*
X46372Y-1534D01*
X46590Y-1625D01*
X46826Y-1625D01*
X47045Y-1535D01*
X47212Y-1368D01*
X47302Y-1150D01*
X47303Y-913D01*
X47303Y-5503D01*
X47190Y-5616D01*
X47099Y-5834D01*
X47099Y-6070D01*
X47189Y-6288D01*
X47356Y-6455D01*
X47574Y-6546D01*
X47811Y-6546D01*
X48029Y-6456D01*
X48196Y-6289D01*
X48287Y-6071D01*
X48287Y-5835D01*
X48287Y-12760D01*
X46318Y-12760D01*
X46318Y-4850D01*
X46228Y-4632D01*
X46061Y-4465D01*
X45843Y-4374D01*
X45607Y-4374D01*
X45389Y-4464D01*
X45334Y-4519D01*
X45334Y-913D01*
X45244Y-695D01*
X45077Y-528D01*
X44859Y-437D01*
X44623Y-437D01*
X44404Y-527D01*
X44237Y-694D01*
X44147Y-912D01*
X44146Y-1149D01*
X44237Y-1367D01*
X44404Y-1534D01*
X44622Y-1625D01*
X44858Y-1625D01*
X45076Y-1535D01*
X45243Y-1368D01*
X45334Y-1150D01*
X45334Y-913D01*
X45334Y-4519D01*
X45221Y-4631D01*
X45131Y-4849D01*
X45131Y-5086D01*
X45221Y-5304D01*
X45388Y-5471D01*
X45606Y-5562D01*
X45842Y-5562D01*
X46060Y-5472D01*
X46228Y-5305D01*
X46318Y-5087D01*
X46318Y-4850D01*
X46318Y-12760D01*
X44350Y-12760D01*
X44350Y-5835D01*
X44260Y-5616D01*
X44093Y-5449D01*
X43875Y-5359D01*
X43638Y-5358D01*
X43444Y-5439D01*
X43444Y-2866D01*
X43342Y-2619D01*
X43153Y-2430D01*
X42906Y-2327D01*
X42639Y-2327D01*
X42391Y-2429D01*
X42202Y-2618D01*
X42099Y-2865D01*
X42099Y-3133D01*
X42201Y-3380D01*
X42390Y-3569D01*
X42637Y-3672D01*
X42905Y-3672D01*
X43152Y-3570D01*
X43341Y-3381D01*
X43444Y-3134D01*
X43444Y-2866D01*
X43444Y-5439D01*
X43420Y-5449D01*
X43366Y-5503D01*
X43366Y-4850D01*
X43275Y-4632D01*
X43108Y-4465D01*
X42890Y-4374D01*
X42654Y-4374D01*
X42436Y-4464D01*
X42269Y-4631D01*
X42178Y-4849D01*
X42178Y-5086D01*
X42268Y-5304D01*
X42435Y-5471D01*
X42653Y-5562D01*
X42889Y-5562D01*
X43108Y-5472D01*
X43275Y-5305D01*
X43365Y-5087D01*
X43366Y-4850D01*
X43366Y-5503D01*
X43253Y-5616D01*
X43162Y-5834D01*
X43162Y-6070D01*
X43252Y-6288D01*
X43419Y-6455D01*
X43637Y-6546D01*
X43874Y-6546D01*
X44092Y-6456D01*
X44259Y-6289D01*
X44350Y-6071D01*
X44350Y-5835D01*
X44350Y-12760D01*
X39800Y-12760D01*
X39800Y-2866D01*
X39698Y-2619D01*
X39509Y-2430D01*
X39262Y-2327D01*
X38994Y-2327D01*
X38747Y-2429D01*
X38558Y-2618D01*
X38455Y-2865D01*
X38455Y-3133D01*
X38557Y-3380D01*
X38746Y-3569D01*
X38993Y-3672D01*
X39260Y-3672D01*
X39508Y-3570D01*
X39697Y-3381D01*
X39800Y-3134D01*
X39800Y-2866D01*
X39800Y-12760D01*
X39721Y-12760D01*
X39721Y-4850D01*
X39631Y-4632D01*
X39464Y-4465D01*
X39246Y-4374D01*
X39010Y-4374D01*
X38791Y-4464D01*
X38624Y-4631D01*
X38534Y-4849D01*
X38533Y-5086D01*
X38624Y-5304D01*
X38791Y-5471D01*
X39009Y-5562D01*
X39245Y-5562D01*
X39463Y-5472D01*
X39630Y-5305D01*
X39721Y-5087D01*
X39721Y-4850D01*
X39721Y-12760D01*
X38737Y-12760D01*
X38737Y-5835D01*
X38647Y-5616D01*
X38480Y-5449D01*
X38262Y-5359D01*
X38025Y-5358D01*
X37807Y-5449D01*
X37753Y-5503D01*
X37753Y-913D01*
X37662Y-695D01*
X37495Y-528D01*
X37277Y-437D01*
X37041Y-437D01*
X36823Y-527D01*
X36656Y-694D01*
X36565Y-912D01*
X36565Y-1149D01*
X36655Y-1367D01*
X36822Y-1534D01*
X37040Y-1625D01*
X37276Y-1625D01*
X37495Y-1535D01*
X37662Y-1368D01*
X37752Y-1150D01*
X37753Y-913D01*
X37753Y-5503D01*
X37640Y-5616D01*
X37549Y-5834D01*
X37549Y-6070D01*
X37639Y-6288D01*
X37806Y-6455D01*
X38024Y-6546D01*
X38261Y-6546D01*
X38479Y-6456D01*
X38646Y-6289D01*
X38737Y-6071D01*
X38737Y-5835D01*
X38737Y-12760D01*
X36822Y-12760D01*
X36822Y-5072D01*
X36813Y-4816D01*
X36733Y-4624D01*
X36628Y-4585D01*
X36558Y-4656D01*
X36558Y-4514D01*
X36519Y-4409D01*
X36279Y-4320D01*
X36023Y-4329D01*
X35830Y-4409D01*
X35791Y-4514D01*
X36175Y-4897D01*
X36558Y-4514D01*
X36558Y-4656D01*
X36245Y-4968D01*
X36628Y-5351D01*
X36733Y-5312D01*
X36822Y-5072D01*
X36822Y-12760D01*
X36558Y-12760D01*
X36558Y-5422D01*
X36175Y-5039D01*
X36104Y-5109D01*
X36104Y-4968D01*
X35784Y-4648D01*
X35784Y-913D01*
X35694Y-695D01*
X35527Y-528D01*
X35309Y-437D01*
X35073Y-437D01*
X34854Y-527D01*
X34687Y-694D01*
X34597Y-912D01*
X34596Y-1149D01*
X34687Y-1367D01*
X34854Y-1534D01*
X35072Y-1625D01*
X35308Y-1625D01*
X35526Y-1535D01*
X35693Y-1368D01*
X35784Y-1150D01*
X35784Y-913D01*
X35784Y-4648D01*
X35721Y-4585D01*
X35616Y-4624D01*
X35527Y-4864D01*
X35536Y-5120D01*
X35616Y-5312D01*
X35721Y-5351D01*
X36104Y-4968D01*
X36104Y-5109D01*
X35791Y-5422D01*
X35830Y-5527D01*
X36070Y-5616D01*
X36326Y-5607D01*
X36519Y-5527D01*
X36558Y-5422D01*
X36558Y-12760D01*
X34800Y-12760D01*
X34800Y-5835D01*
X34710Y-5616D01*
X34543Y-5449D01*
X34325Y-5359D01*
X34088Y-5358D01*
X33894Y-5439D01*
X33894Y-2866D01*
X33792Y-2619D01*
X33603Y-2430D01*
X33356Y-2327D01*
X33089Y-2327D01*
X32841Y-2429D01*
X32652Y-2618D01*
X32549Y-2865D01*
X32549Y-3133D01*
X32651Y-3380D01*
X32840Y-3569D01*
X33087Y-3672D01*
X33355Y-3672D01*
X33602Y-3570D01*
X33791Y-3381D01*
X33894Y-3134D01*
X33894Y-2866D01*
X33894Y-5439D01*
X33870Y-5449D01*
X33816Y-5503D01*
X33816Y-4850D01*
X33725Y-4632D01*
X33558Y-4465D01*
X33340Y-4374D01*
X33104Y-4374D01*
X32886Y-4464D01*
X32719Y-4631D01*
X32628Y-4849D01*
X32628Y-5086D01*
X32718Y-5304D01*
X32885Y-5471D01*
X33103Y-5562D01*
X33339Y-5562D01*
X33558Y-5472D01*
X33725Y-5305D01*
X33815Y-5087D01*
X33816Y-4850D01*
X33816Y-5503D01*
X33703Y-5616D01*
X33612Y-5834D01*
X33612Y-6070D01*
X33702Y-6288D01*
X33869Y-6455D01*
X34087Y-6546D01*
X34324Y-6546D01*
X34542Y-6456D01*
X34709Y-6289D01*
X34800Y-6071D01*
X34800Y-5835D01*
X34800Y-12760D01*
X33375Y-12760D01*
X33375Y-10825D01*
X33318Y-10687D01*
X33300Y-10669D01*
X33300Y-9805D01*
X33317Y-9787D01*
X33374Y-9649D01*
X33375Y-9500D01*
X33318Y-9362D01*
X33212Y-9257D01*
X33074Y-9200D01*
X32925Y-9199D01*
X32787Y-9256D01*
X32682Y-9362D01*
X32625Y-9500D01*
X32624Y-9649D01*
X32681Y-9787D01*
X32700Y-9805D01*
X32700Y-10669D01*
X32682Y-10687D01*
X32625Y-10825D01*
X32624Y-10974D01*
X32681Y-11112D01*
X32787Y-11217D01*
X32925Y-11274D01*
X33074Y-11275D01*
X33212Y-11218D01*
X33317Y-11112D01*
X33374Y-10974D01*
X33375Y-10825D01*
X33375Y-12760D01*
X31369Y-12760D01*
X31369Y-12759D01*
X31370Y-12610D01*
X31313Y-12472D01*
X31207Y-12367D01*
X31124Y-12332D01*
X31125Y-12240D01*
X31068Y-12102D01*
X30965Y-11999D01*
X31099Y-12000D01*
X31282Y-11924D01*
X31423Y-11783D01*
X31499Y-11599D01*
X31500Y-11400D01*
X31500Y-10400D01*
X31424Y-10217D01*
X31283Y-10076D01*
X31099Y-10000D01*
X30900Y-9999D01*
X30717Y-10075D01*
X30576Y-10216D01*
X30500Y-10400D01*
X30500Y-10401D01*
X30500Y-10400D01*
X30424Y-10217D01*
X30283Y-10076D01*
X30099Y-10000D01*
X29900Y-9999D01*
X29717Y-10075D01*
X29576Y-10216D01*
X29500Y-10400D01*
X29500Y-10401D01*
X29500Y-10400D01*
X29424Y-10217D01*
X29283Y-10076D01*
X29105Y-10002D01*
X29105Y-7056D01*
X29105Y-4505D01*
X29024Y-4308D01*
X28874Y-4158D01*
X28677Y-4076D01*
X28464Y-4076D01*
X28268Y-4157D01*
X28117Y-4307D01*
X28036Y-4504D01*
X28036Y-4716D01*
X28117Y-4913D01*
X28267Y-5064D01*
X28464Y-5145D01*
X28676Y-5145D01*
X28873Y-5064D01*
X29023Y-4914D01*
X29105Y-4717D01*
X29105Y-4505D01*
X29105Y-7056D01*
X29024Y-6859D01*
X28874Y-6709D01*
X28677Y-6627D01*
X28464Y-6627D01*
X28268Y-6708D01*
X28117Y-6858D01*
X28044Y-7035D01*
X28043Y-7025D01*
X28000Y-6919D01*
X28000Y-6275D01*
X27924Y-6091D01*
X27813Y-5981D01*
X27923Y-5870D01*
X27999Y-5687D01*
X28000Y-5488D01*
X27924Y-5304D01*
X27813Y-5193D01*
X27923Y-5083D01*
X27999Y-4899D01*
X28000Y-4700D01*
X27924Y-4517D01*
X27783Y-4376D01*
X27599Y-4300D01*
X27400Y-4299D01*
X27217Y-4375D01*
X27076Y-4516D01*
X27000Y-4700D01*
X26999Y-4899D01*
X27075Y-5082D01*
X27186Y-5193D01*
X27076Y-5303D01*
X27000Y-5487D01*
X26999Y-5686D01*
X27075Y-5870D01*
X27186Y-5981D01*
X27076Y-6091D01*
X27000Y-6274D01*
X26999Y-6473D01*
X27075Y-6657D01*
X27186Y-6768D01*
X27184Y-6776D01*
X27500Y-7091D01*
X27815Y-6776D01*
X27813Y-6768D01*
X27923Y-6658D01*
X27999Y-6474D01*
X28000Y-6275D01*
X28000Y-6919D01*
X27981Y-6874D01*
X27885Y-6847D01*
X27570Y-7162D01*
X27885Y-7477D01*
X27981Y-7450D01*
X28041Y-7281D01*
X28117Y-7464D01*
X28267Y-7615D01*
X28464Y-7696D01*
X28676Y-7696D01*
X28873Y-7615D01*
X29023Y-7465D01*
X29105Y-7269D01*
X29105Y-7056D01*
X29105Y-10002D01*
X29099Y-10000D01*
X28900Y-9999D01*
X28717Y-10075D01*
X28576Y-10216D01*
X28500Y-10400D01*
X28500Y-10401D01*
X28500Y-10400D01*
X28424Y-10217D01*
X28283Y-10076D01*
X28099Y-10000D01*
X27900Y-9999D01*
X27815Y-10035D01*
X27815Y-7548D01*
X27500Y-7232D01*
X27429Y-7303D01*
X27429Y-7162D01*
X27114Y-6847D01*
X27018Y-6874D01*
X26963Y-7028D01*
X26963Y-4505D01*
X26882Y-4308D01*
X26732Y-4158D01*
X26535Y-4076D01*
X26323Y-4076D01*
X26126Y-4157D01*
X25976Y-4307D01*
X25894Y-4504D01*
X25894Y-4716D01*
X25975Y-4913D01*
X26125Y-5064D01*
X26322Y-5145D01*
X26535Y-5145D01*
X26731Y-5064D01*
X26882Y-4914D01*
X26963Y-4717D01*
X26963Y-4505D01*
X26963Y-7028D01*
X26958Y-7043D01*
X26882Y-6859D01*
X26732Y-6709D01*
X26535Y-6627D01*
X26323Y-6627D01*
X26126Y-6708D01*
X25976Y-6858D01*
X25894Y-7055D01*
X25894Y-7268D01*
X25975Y-7464D01*
X26125Y-7615D01*
X26322Y-7696D01*
X26535Y-7696D01*
X26731Y-7615D01*
X26882Y-7465D01*
X26955Y-7288D01*
X26956Y-7298D01*
X27018Y-7450D01*
X27114Y-7477D01*
X27429Y-7162D01*
X27429Y-7303D01*
X27184Y-7548D01*
X27212Y-7643D01*
X27418Y-7716D01*
X27636Y-7706D01*
X27787Y-7643D01*
X27815Y-7548D01*
X27815Y-10035D01*
X27717Y-10075D01*
X27576Y-10216D01*
X27500Y-10400D01*
X27500Y-10401D01*
X27500Y-10400D01*
X27424Y-10217D01*
X27283Y-10076D01*
X27099Y-10000D01*
X26900Y-9999D01*
X26717Y-10075D01*
X26576Y-10216D01*
X26500Y-10400D01*
X26500Y-10401D01*
X26500Y-10400D01*
X26424Y-10217D01*
X26283Y-10076D01*
X26099Y-10000D01*
X25900Y-9999D01*
X25717Y-10075D01*
X25576Y-10216D01*
X25500Y-10400D01*
X25499Y-10599D01*
X25575Y-10782D01*
X25716Y-10923D01*
X25900Y-10999D01*
X26099Y-11000D01*
X26282Y-10924D01*
X26423Y-10783D01*
X26499Y-10599D01*
X26500Y-10400D01*
X26500Y-10401D01*
X26499Y-10599D01*
X26575Y-10782D01*
X26716Y-10923D01*
X26900Y-10999D01*
X27099Y-11000D01*
X27282Y-10924D01*
X27423Y-10783D01*
X27499Y-10599D01*
X27500Y-10400D01*
X27500Y-10401D01*
X27499Y-10599D01*
X27575Y-10782D01*
X27716Y-10923D01*
X27900Y-10999D01*
X28099Y-11000D01*
X28282Y-10924D01*
X28423Y-10783D01*
X28499Y-10599D01*
X28500Y-10400D01*
X28500Y-10401D01*
X28499Y-10599D01*
X28575Y-10782D01*
X28716Y-10923D01*
X28900Y-10999D01*
X29099Y-11000D01*
X29282Y-10924D01*
X29423Y-10783D01*
X29499Y-10599D01*
X29500Y-10400D01*
X29500Y-10401D01*
X29499Y-10599D01*
X29575Y-10782D01*
X29716Y-10923D01*
X29900Y-10999D01*
X30099Y-11000D01*
X30282Y-10924D01*
X30423Y-10783D01*
X30499Y-10599D01*
X30500Y-10400D01*
X30500Y-10401D01*
X30499Y-10599D01*
X30575Y-10782D01*
X30716Y-10923D01*
X30900Y-10999D01*
X31099Y-11000D01*
X31282Y-10924D01*
X31423Y-10783D01*
X31499Y-10599D01*
X31500Y-10400D01*
X31500Y-11400D01*
X31424Y-11217D01*
X31283Y-11076D01*
X31099Y-11000D01*
X30900Y-10999D01*
X30717Y-11075D01*
X30576Y-11216D01*
X30500Y-11400D01*
X30500Y-11401D01*
X30500Y-11400D01*
X30424Y-11217D01*
X30283Y-11076D01*
X30099Y-11000D01*
X29900Y-10999D01*
X29717Y-11075D01*
X29576Y-11216D01*
X29500Y-11400D01*
X29500Y-11401D01*
X29500Y-11400D01*
X29424Y-11217D01*
X29283Y-11076D01*
X29099Y-11000D01*
X28900Y-10999D01*
X28717Y-11075D01*
X28576Y-11216D01*
X28500Y-11400D01*
X28500Y-11401D01*
X28500Y-11400D01*
X28424Y-11217D01*
X28283Y-11076D01*
X28099Y-11000D01*
X27900Y-10999D01*
X27717Y-11075D01*
X27576Y-11216D01*
X27500Y-11400D01*
X27500Y-11401D01*
X27500Y-11400D01*
X27424Y-11217D01*
X27283Y-11076D01*
X27099Y-11000D01*
X26900Y-10999D01*
X26717Y-11075D01*
X26576Y-11216D01*
X26500Y-11400D01*
X26499Y-11599D01*
X26575Y-11782D01*
X26716Y-11923D01*
X26900Y-11999D01*
X27099Y-12000D01*
X27282Y-11924D01*
X27423Y-11783D01*
X27499Y-11599D01*
X27500Y-11400D01*
X27500Y-11401D01*
X27499Y-11599D01*
X27575Y-11782D01*
X27716Y-11923D01*
X27900Y-11999D01*
X28099Y-12000D01*
X28282Y-11924D01*
X28423Y-11783D01*
X28499Y-11599D01*
X28500Y-11400D01*
X28500Y-11401D01*
X28499Y-11599D01*
X28575Y-11782D01*
X28716Y-11923D01*
X28900Y-11999D01*
X29099Y-12000D01*
X29282Y-11924D01*
X29423Y-11783D01*
X29499Y-11599D01*
X29500Y-11400D01*
X29500Y-11401D01*
X29499Y-11599D01*
X29575Y-11782D01*
X29716Y-11923D01*
X29900Y-11999D01*
X30099Y-12000D01*
X30282Y-11924D01*
X30423Y-11783D01*
X30499Y-11599D01*
X30500Y-11400D01*
X30500Y-11401D01*
X30499Y-11599D01*
X30575Y-11782D01*
X30716Y-11923D01*
X30755Y-11940D01*
X30675Y-11939D01*
X30537Y-11996D01*
X30432Y-12102D01*
X30387Y-12210D01*
X25814Y-12210D01*
X25800Y-12195D01*
X25800Y-11958D01*
X25900Y-11999D01*
X26099Y-12000D01*
X26282Y-11924D01*
X26423Y-11783D01*
X26499Y-11599D01*
X26500Y-11400D01*
X26424Y-11217D01*
X26283Y-11076D01*
X26099Y-11000D01*
X25900Y-10999D01*
X25771Y-11053D01*
X25712Y-10964D01*
X25712Y-10964D01*
X25455Y-10707D01*
X25499Y-10599D01*
X25500Y-10400D01*
X25424Y-10217D01*
X25325Y-10117D01*
X25325Y-7000D01*
X25325Y-6000D01*
X25249Y-5817D01*
X25108Y-5676D01*
X24924Y-5600D01*
X24725Y-5599D01*
X24542Y-5675D01*
X24401Y-5816D01*
X24325Y-6000D01*
X24325Y-6060D01*
X24325Y-5760D01*
X24294Y-5686D01*
X24238Y-5630D01*
X24164Y-5600D01*
X24085Y-5599D01*
X23485Y-5599D01*
X23411Y-5630D01*
X23355Y-5686D01*
X23325Y-5760D01*
X23324Y-5839D01*
X23324Y-6439D01*
X23355Y-6513D01*
X23411Y-6569D01*
X23485Y-6599D01*
X23564Y-6600D01*
X23582Y-6600D01*
X23537Y-6618D01*
X23509Y-6714D01*
X23825Y-7029D01*
X24140Y-6714D01*
X24112Y-6618D01*
X24060Y-6600D01*
X24164Y-6600D01*
X24238Y-6569D01*
X24294Y-6513D01*
X24324Y-6439D01*
X24325Y-6360D01*
X24325Y-6199D01*
X24400Y-6382D01*
X24541Y-6523D01*
X24725Y-6599D01*
X24924Y-6600D01*
X25107Y-6524D01*
X25248Y-6383D01*
X25324Y-6199D01*
X25325Y-6000D01*
X25325Y-7000D01*
X25249Y-6817D01*
X25108Y-6676D01*
X24924Y-6600D01*
X24725Y-6599D01*
X24542Y-6675D01*
X24401Y-6816D01*
X24354Y-6928D01*
X24306Y-6812D01*
X24210Y-6784D01*
X23895Y-7100D01*
X24210Y-7415D01*
X24306Y-7387D01*
X24351Y-7262D01*
X24400Y-7382D01*
X24541Y-7523D01*
X24725Y-7599D01*
X24924Y-7600D01*
X25107Y-7524D01*
X25248Y-7383D01*
X25324Y-7199D01*
X25325Y-7000D01*
X25325Y-10117D01*
X25283Y-10076D01*
X25099Y-10000D01*
X24900Y-9999D01*
X24717Y-10075D01*
X24576Y-10216D01*
X24529Y-10328D01*
X24481Y-10212D01*
X24385Y-10184D01*
X24315Y-10255D01*
X24315Y-10114D01*
X24287Y-10018D01*
X24140Y-9966D01*
X24140Y-7485D01*
X23825Y-7170D01*
X23754Y-7241D01*
X23754Y-7100D01*
X23439Y-6784D01*
X23343Y-6812D01*
X23270Y-7018D01*
X23281Y-7236D01*
X23343Y-7387D01*
X23439Y-7415D01*
X23754Y-7100D01*
X23754Y-7241D01*
X23509Y-7485D01*
X23537Y-7581D01*
X23743Y-7654D01*
X23961Y-7643D01*
X24112Y-7581D01*
X24140Y-7485D01*
X24140Y-9966D01*
X24081Y-9945D01*
X23863Y-9956D01*
X23712Y-10018D01*
X23684Y-10114D01*
X24000Y-10429D01*
X24315Y-10114D01*
X24315Y-10255D01*
X24070Y-10500D01*
X24385Y-10815D01*
X24481Y-10787D01*
X24526Y-10662D01*
X24575Y-10782D01*
X24716Y-10923D01*
X24897Y-10998D01*
X24899Y-11000D01*
X24717Y-11075D01*
X24576Y-11216D01*
X24550Y-11279D01*
X24550Y-11249D01*
X24549Y-11150D01*
X24511Y-11058D01*
X24441Y-10987D01*
X24349Y-10949D01*
X24296Y-10949D01*
X24315Y-10885D01*
X24000Y-10570D01*
X23929Y-10641D01*
X23929Y-10500D01*
X23614Y-10184D01*
X23518Y-10212D01*
X23445Y-10418D01*
X23456Y-10636D01*
X23518Y-10787D01*
X23614Y-10815D01*
X23929Y-10500D01*
X23929Y-10641D01*
X23684Y-10885D01*
X23703Y-10949D01*
X23650Y-10949D01*
X23558Y-10987D01*
X23488Y-11058D01*
X23450Y-11150D01*
X23449Y-11249D01*
X23450Y-11387D01*
X23512Y-11450D01*
X23950Y-11450D01*
X23950Y-11442D01*
X24050Y-11442D01*
X24050Y-11450D01*
X24057Y-11450D01*
X24057Y-11550D01*
X24050Y-11550D01*
X24050Y-11987D01*
X24112Y-12050D01*
X24349Y-12050D01*
X24441Y-12012D01*
X24511Y-11941D01*
X24549Y-11849D01*
X24550Y-11750D01*
X24550Y-11720D01*
X24575Y-11782D01*
X24700Y-11907D01*
X24700Y-12220D01*
X24722Y-12334D01*
X24787Y-12432D01*
X25116Y-12760D01*
X23950Y-12760D01*
X23950Y-11987D01*
X23950Y-11550D01*
X23512Y-11550D01*
X23450Y-11612D01*
X23449Y-11750D01*
X23450Y-11849D01*
X23488Y-11941D01*
X23558Y-12012D01*
X23650Y-12050D01*
X23887Y-12050D01*
X23950Y-11987D01*
X23950Y-12760D01*
X21716Y-12760D01*
X21716Y-6635D01*
X21704Y-6442D01*
X21661Y-6338D01*
X21661Y-5977D01*
X21661Y-5505D01*
X21630Y-5431D01*
X21574Y-5375D01*
X21501Y-5345D01*
X21421Y-5345D01*
X20949Y-5345D01*
X20875Y-5375D01*
X20819Y-5431D01*
X20788Y-5505D01*
X20788Y-5584D01*
X20788Y-6057D01*
X20819Y-6130D01*
X20875Y-6186D01*
X20948Y-6217D01*
X20958Y-6217D01*
X20956Y-6229D01*
X21225Y-6497D01*
X21493Y-6229D01*
X21491Y-6217D01*
X21500Y-6217D01*
X21574Y-6187D01*
X21630Y-6130D01*
X21661Y-6057D01*
X21661Y-5977D01*
X21661Y-6338D01*
X21653Y-6319D01*
X21564Y-6299D01*
X21295Y-6568D01*
X21564Y-6837D01*
X21653Y-6818D01*
X21716Y-6635D01*
X21716Y-12760D01*
X21493Y-12760D01*
X21493Y-6908D01*
X21225Y-6639D01*
X21154Y-6710D01*
X21154Y-6568D01*
X20885Y-6299D01*
X20796Y-6319D01*
X20733Y-6502D01*
X20745Y-6695D01*
X20796Y-6818D01*
X20885Y-6837D01*
X21154Y-6568D01*
X21154Y-6710D01*
X20956Y-6908D01*
X20975Y-6997D01*
X21158Y-7059D01*
X21351Y-7048D01*
X21474Y-6997D01*
X21493Y-6908D01*
X21493Y-12760D01*
X19959Y-12760D01*
X19959Y-6241D01*
X19948Y-6048D01*
X19897Y-5925D01*
X19808Y-5906D01*
X19737Y-5976D01*
X19737Y-5835D01*
X19718Y-5746D01*
X19535Y-5683D01*
X19342Y-5695D01*
X19219Y-5746D01*
X19199Y-5835D01*
X19468Y-6104D01*
X19737Y-5835D01*
X19737Y-5976D01*
X19539Y-6175D01*
X19808Y-6443D01*
X19897Y-6424D01*
X19959Y-6241D01*
X19959Y-12760D01*
X19737Y-12760D01*
X19737Y-6514D01*
X19468Y-6245D01*
X19397Y-6316D01*
X19397Y-6175D01*
X19129Y-5906D01*
X19117Y-5908D01*
X19117Y-5899D01*
X19087Y-5825D01*
X19030Y-5769D01*
X18957Y-5738D01*
X18877Y-5738D01*
X18590Y-5738D01*
X18590Y-1053D01*
X18583Y-730D01*
X18473Y-464D01*
X18350Y-405D01*
X17846Y-909D01*
X18350Y-1413D01*
X18473Y-1353D01*
X18590Y-1053D01*
X18590Y-5738D01*
X18405Y-5738D01*
X18331Y-5769D01*
X18280Y-5820D01*
X18280Y-1483D01*
X17776Y-979D01*
X17770Y-985D01*
X17699Y-914D01*
X17705Y-909D01*
X17201Y-405D01*
X17079Y-464D01*
X16961Y-765D01*
X16968Y-1087D01*
X17048Y-1280D01*
X16810Y-1279D01*
X16505Y-1406D01*
X16271Y-1639D01*
X16145Y-1944D01*
X16144Y-2274D01*
X16271Y-2579D01*
X16504Y-2813D01*
X16809Y-2939D01*
X17139Y-2940D01*
X17444Y-2813D01*
X17678Y-2580D01*
X17804Y-2275D01*
X17805Y-1945D01*
X17712Y-1721D01*
X17954Y-1716D01*
X18220Y-1606D01*
X18280Y-1483D01*
X18280Y-5820D01*
X18275Y-5825D01*
X18245Y-5898D01*
X18245Y-5978D01*
X18245Y-6450D01*
X18275Y-6524D01*
X18331Y-6580D01*
X18405Y-6611D01*
X18484Y-6611D01*
X18957Y-6611D01*
X19030Y-6580D01*
X19086Y-6524D01*
X19117Y-6451D01*
X19117Y-6441D01*
X19129Y-6443D01*
X19397Y-6175D01*
X19397Y-6316D01*
X19199Y-6514D01*
X19219Y-6603D01*
X19402Y-6666D01*
X19595Y-6654D01*
X19718Y-6603D01*
X19737Y-6514D01*
X19737Y-12760D01*
X16950Y-12760D01*
X16950Y-4515D01*
X16878Y-4340D01*
X16744Y-4207D01*
X16570Y-4134D01*
X16380Y-4134D01*
X16205Y-4206D01*
X16072Y-4340D01*
X15999Y-4514D01*
X15999Y-4704D01*
X16071Y-4879D01*
X16205Y-5012D01*
X16379Y-5085D01*
X16569Y-5085D01*
X16744Y-5013D01*
X16877Y-4879D01*
X16950Y-4705D01*
X16950Y-4515D01*
X16950Y-12760D01*
X16450Y-12760D01*
X16450Y-5515D01*
X16378Y-5340D01*
X16244Y-5207D01*
X16070Y-5134D01*
X15950Y-5134D01*
X15950Y-4515D01*
X15878Y-4340D01*
X15744Y-4207D01*
X15570Y-4134D01*
X15380Y-4134D01*
X15205Y-4206D01*
X15072Y-4340D01*
X14999Y-4514D01*
X14999Y-4704D01*
X15071Y-4879D01*
X15205Y-5012D01*
X15379Y-5085D01*
X15569Y-5085D01*
X15744Y-5013D01*
X15877Y-4879D01*
X15950Y-4705D01*
X15950Y-4515D01*
X15950Y-5134D01*
X15880Y-5134D01*
X15705Y-5206D01*
X15572Y-5340D01*
X15499Y-5514D01*
X15499Y-5704D01*
X15571Y-5879D01*
X15705Y-6012D01*
X15879Y-6085D01*
X16069Y-6085D01*
X16244Y-6013D01*
X16377Y-5879D01*
X16450Y-5705D01*
X16450Y-5515D01*
X16450Y-12760D01*
X15450Y-12760D01*
X15450Y-5515D01*
X15378Y-5340D01*
X15244Y-5207D01*
X15070Y-5134D01*
X14950Y-5134D01*
X14950Y-4515D01*
X14878Y-4340D01*
X14744Y-4207D01*
X14570Y-4134D01*
X14380Y-4134D01*
X14205Y-4206D01*
X14072Y-4340D01*
X13999Y-4514D01*
X13999Y-4574D01*
X13994Y-4477D01*
X13936Y-4336D01*
X13843Y-4312D01*
X13772Y-4383D01*
X13772Y-4241D01*
X13748Y-4148D01*
X13550Y-4079D01*
X13342Y-4090D01*
X13305Y-4106D01*
X13305Y-1945D01*
X13178Y-1640D01*
X12945Y-1406D01*
X12640Y-1280D01*
X12399Y-1280D01*
X12488Y-1053D01*
X12481Y-730D01*
X12370Y-464D01*
X12248Y-405D01*
X11744Y-909D01*
X11750Y-914D01*
X11679Y-985D01*
X11673Y-979D01*
X11603Y-1050D01*
X11603Y-909D01*
X11099Y-405D01*
X10976Y-464D01*
X10859Y-765D01*
X10866Y-1087D01*
X10976Y-1353D01*
X11099Y-1413D01*
X11603Y-909D01*
X11603Y-1050D01*
X11169Y-1483D01*
X11229Y-1606D01*
X11529Y-1723D01*
X11738Y-1719D01*
X11645Y-1944D01*
X11644Y-2274D01*
X11771Y-2579D01*
X12004Y-2813D01*
X12309Y-2939D01*
X12639Y-2940D01*
X12944Y-2813D01*
X13178Y-2580D01*
X13304Y-2275D01*
X13305Y-1945D01*
X13305Y-4106D01*
X13201Y-4148D01*
X13177Y-4241D01*
X13475Y-4539D01*
X13772Y-4241D01*
X13772Y-4383D01*
X13545Y-4610D01*
X13843Y-4907D01*
X13936Y-4883D01*
X13999Y-4703D01*
X13999Y-4704D01*
X14071Y-4879D01*
X14205Y-5012D01*
X14379Y-5085D01*
X14569Y-5085D01*
X14744Y-5013D01*
X14877Y-4879D01*
X14950Y-4705D01*
X14950Y-4515D01*
X14950Y-5134D01*
X14880Y-5134D01*
X14705Y-5206D01*
X14572Y-5340D01*
X14499Y-5514D01*
X14499Y-5704D01*
X14571Y-5879D01*
X14705Y-6012D01*
X14879Y-6085D01*
X15069Y-6085D01*
X15244Y-6013D01*
X15377Y-5879D01*
X15450Y-5705D01*
X15450Y-5515D01*
X15450Y-12760D01*
X14450Y-12760D01*
X14450Y-5515D01*
X14378Y-5340D01*
X14244Y-5207D01*
X14070Y-5134D01*
X13880Y-5134D01*
X13772Y-5179D01*
X13772Y-4978D01*
X13475Y-4680D01*
X13404Y-4751D01*
X13404Y-4610D01*
X13106Y-4312D01*
X13013Y-4336D01*
X12944Y-4534D01*
X12955Y-4742D01*
X13013Y-4883D01*
X13106Y-4907D01*
X13404Y-4610D01*
X13404Y-4751D01*
X13177Y-4978D01*
X13201Y-5071D01*
X13399Y-5140D01*
X13607Y-5129D01*
X13748Y-5071D01*
X13772Y-4978D01*
X13772Y-5179D01*
X13705Y-5206D01*
X13572Y-5340D01*
X13499Y-5514D01*
X13499Y-5574D01*
X13494Y-5477D01*
X13436Y-5336D01*
X13343Y-5312D01*
X13272Y-5383D01*
X13272Y-5241D01*
X13248Y-5148D01*
X13050Y-5079D01*
X12842Y-5090D01*
X12701Y-5148D01*
X12677Y-5241D01*
X12975Y-5539D01*
X13272Y-5241D01*
X13272Y-5383D01*
X13045Y-5610D01*
X13343Y-5907D01*
X13436Y-5883D01*
X13499Y-5703D01*
X13499Y-5704D01*
X13571Y-5879D01*
X13705Y-6012D01*
X13879Y-6085D01*
X14069Y-6085D01*
X14244Y-6013D01*
X14377Y-5879D01*
X14450Y-5705D01*
X14450Y-5515D01*
X14450Y-12760D01*
X13272Y-12760D01*
X13272Y-5978D01*
X12975Y-5680D01*
X12904Y-5751D01*
X12904Y-5610D01*
X12606Y-5312D01*
X12513Y-5336D01*
X12444Y-5534D01*
X12455Y-5742D01*
X12513Y-5883D01*
X12606Y-5907D01*
X12904Y-5610D01*
X12904Y-5751D01*
X12677Y-5978D01*
X12701Y-6071D01*
X12899Y-6140D01*
X13107Y-6129D01*
X13248Y-6071D01*
X13272Y-5978D01*
X13272Y-12760D01*
X8904Y-12760D01*
X8904Y-5664D01*
X8904Y-4758D01*
X8874Y-4685D01*
X8856Y-4667D01*
X8856Y-3391D01*
X8856Y-2386D01*
X8818Y-2294D01*
X8748Y-2224D01*
X8656Y-2186D01*
X8556Y-2186D01*
X7872Y-2186D01*
X7810Y-2248D01*
X7810Y-2838D01*
X8793Y-2838D01*
X8856Y-2776D01*
X8856Y-2386D01*
X8856Y-3391D01*
X8856Y-3001D01*
X8793Y-2938D01*
X7810Y-2938D01*
X7810Y-3529D01*
X7872Y-3591D01*
X8556Y-3591D01*
X8656Y-3591D01*
X8748Y-3553D01*
X8818Y-3483D01*
X8856Y-3391D01*
X8856Y-4667D01*
X8818Y-4628D01*
X8744Y-4598D01*
X8665Y-4598D01*
X7710Y-4598D01*
X7710Y-3529D01*
X7710Y-2938D01*
X7710Y-2838D01*
X7710Y-2248D01*
X7647Y-2186D01*
X6963Y-2186D01*
X6863Y-2186D01*
X6771Y-2224D01*
X6701Y-2294D01*
X6663Y-2386D01*
X6663Y-2776D01*
X6726Y-2838D01*
X7710Y-2838D01*
X7710Y-2938D01*
X6726Y-2938D01*
X6663Y-3001D01*
X6663Y-3391D01*
X6701Y-3483D01*
X6771Y-3553D01*
X6863Y-3591D01*
X6963Y-3591D01*
X7647Y-3591D01*
X7710Y-3529D01*
X7710Y-4598D01*
X6775Y-4598D01*
X6701Y-4628D01*
X6645Y-4684D01*
X6615Y-4758D01*
X6615Y-4837D01*
X6615Y-5743D01*
X6645Y-5817D01*
X6701Y-5873D01*
X6775Y-5903D01*
X6854Y-5903D01*
X8744Y-5903D01*
X8818Y-5873D01*
X8874Y-5817D01*
X8904Y-5743D01*
X8904Y-5664D01*
X8904Y-12760D01*
X8279Y-12760D01*
X8279Y-11535D01*
X8279Y-10905D01*
X8241Y-10813D01*
X8229Y-10801D01*
X8229Y-7509D01*
X8229Y-6978D01*
X8199Y-6904D01*
X8158Y-6863D01*
X8185Y-6836D01*
X8215Y-6763D01*
X8215Y-6683D01*
X8215Y-6171D01*
X8185Y-6098D01*
X8129Y-6041D01*
X8055Y-6011D01*
X7976Y-6011D01*
X7464Y-6011D01*
X7390Y-6041D01*
X7334Y-6097D01*
X7304Y-6171D01*
X7304Y-6250D01*
X7304Y-6762D01*
X7334Y-6836D01*
X7365Y-6867D01*
X7328Y-6904D01*
X7298Y-6977D01*
X7297Y-7057D01*
X7297Y-7588D01*
X7328Y-7662D01*
X7384Y-7718D01*
X7458Y-7749D01*
X7537Y-7749D01*
X8069Y-7749D01*
X8142Y-7718D01*
X8198Y-7662D01*
X8229Y-7589D01*
X8229Y-7509D01*
X8229Y-10801D01*
X8171Y-10742D01*
X8079Y-10704D01*
X7980Y-10704D01*
X7876Y-10704D01*
X7813Y-10767D01*
X7813Y-11170D01*
X8217Y-11170D01*
X8279Y-11107D01*
X8279Y-10905D01*
X8279Y-11535D01*
X8279Y-11332D01*
X8217Y-11270D01*
X7813Y-11270D01*
X7813Y-11673D01*
X7876Y-11736D01*
X7980Y-11736D01*
X8079Y-11736D01*
X8171Y-11698D01*
X8241Y-11627D01*
X8279Y-11535D01*
X8279Y-12760D01*
X8231Y-12760D01*
X8265Y-12678D01*
X8265Y-12067D01*
X8227Y-11975D01*
X8157Y-11905D01*
X8065Y-11866D01*
X7966Y-11866D01*
X7872Y-11866D01*
X7810Y-11929D01*
X7810Y-12322D01*
X8203Y-12322D01*
X8265Y-12260D01*
X8265Y-12067D01*
X8265Y-12678D01*
X8265Y-12485D01*
X8203Y-12422D01*
X7810Y-12422D01*
X7810Y-12430D01*
X7713Y-12430D01*
X7713Y-11673D01*
X7713Y-11270D01*
X7713Y-11170D01*
X7713Y-10767D01*
X7651Y-10704D01*
X7547Y-10704D01*
X7448Y-10704D01*
X7356Y-10742D01*
X7285Y-10813D01*
X7247Y-10905D01*
X7248Y-11107D01*
X7310Y-11170D01*
X7713Y-11170D01*
X7713Y-11270D01*
X7310Y-11270D01*
X7248Y-11332D01*
X7247Y-11535D01*
X7285Y-11627D01*
X7356Y-11698D01*
X7448Y-11736D01*
X7547Y-11736D01*
X7651Y-11736D01*
X7713Y-11673D01*
X7713Y-12430D01*
X7710Y-12430D01*
X7710Y-12422D01*
X7710Y-12322D01*
X7710Y-11929D01*
X7647Y-11866D01*
X7553Y-11866D01*
X7454Y-11866D01*
X7362Y-11905D01*
X7292Y-11975D01*
X7254Y-12067D01*
X7254Y-12260D01*
X7316Y-12322D01*
X7710Y-12322D01*
X7710Y-12422D01*
X7316Y-12422D01*
X7254Y-12485D01*
X7254Y-12678D01*
X7288Y-12760D01*
X6612Y-12760D01*
X6612Y-4866D01*
X6612Y-3273D01*
X6612Y-3173D01*
X6574Y-3081D01*
X6503Y-3011D01*
X6411Y-2973D01*
X6022Y-2973D01*
X5959Y-3036D01*
X5959Y-4020D01*
X6549Y-4020D01*
X6612Y-3957D01*
X6612Y-3273D01*
X6612Y-4866D01*
X6612Y-4182D01*
X6549Y-4120D01*
X5959Y-4120D01*
X5959Y-5103D01*
X6022Y-5166D01*
X6411Y-5166D01*
X6503Y-5128D01*
X6574Y-5058D01*
X6612Y-4966D01*
X6612Y-4866D01*
X6612Y-12760D01*
X5950Y-12760D01*
X5950Y-10470D01*
X5950Y-9469D01*
X5949Y-9370D01*
X5911Y-9278D01*
X5859Y-9226D01*
X5859Y-5103D01*
X5859Y-4120D01*
X5859Y-4020D01*
X5859Y-3036D01*
X5797Y-2973D01*
X5407Y-2973D01*
X5315Y-3011D01*
X5245Y-3081D01*
X5206Y-3173D01*
X5206Y-3273D01*
X5206Y-3957D01*
X5269Y-4020D01*
X5859Y-4020D01*
X5859Y-4120D01*
X5269Y-4120D01*
X5206Y-4182D01*
X5206Y-4866D01*
X5206Y-4966D01*
X5245Y-5058D01*
X5315Y-5128D01*
X5407Y-5166D01*
X5797Y-5166D01*
X5859Y-5103D01*
X5859Y-9226D01*
X5841Y-9207D01*
X5749Y-9169D01*
X5609Y-9169D01*
X5609Y-6686D01*
X5609Y-6214D01*
X5579Y-6140D01*
X5523Y-6084D01*
X5449Y-6053D01*
X5370Y-6053D01*
X4897Y-6053D01*
X4824Y-6084D01*
X4768Y-6140D01*
X4737Y-6213D01*
X4737Y-6223D01*
X4725Y-6221D01*
X4655Y-6291D01*
X4655Y-6150D01*
X4635Y-6061D01*
X4452Y-5998D01*
X4259Y-6010D01*
X4136Y-6061D01*
X4117Y-6150D01*
X4386Y-6419D01*
X4655Y-6150D01*
X4655Y-6291D01*
X4457Y-6490D01*
X4725Y-6758D01*
X4737Y-6756D01*
X4737Y-6765D01*
X4767Y-6839D01*
X4824Y-6895D01*
X4897Y-6926D01*
X4977Y-6926D01*
X5449Y-6926D01*
X5523Y-6895D01*
X5579Y-6839D01*
X5609Y-6766D01*
X5609Y-6686D01*
X5609Y-9169D01*
X5262Y-9170D01*
X5200Y-9232D01*
X5200Y-9920D01*
X5887Y-9920D01*
X5950Y-9857D01*
X5950Y-9469D01*
X5950Y-10470D01*
X5950Y-10082D01*
X5887Y-10020D01*
X5200Y-10020D01*
X5200Y-10707D01*
X5262Y-10770D01*
X5749Y-10770D01*
X5841Y-10732D01*
X5911Y-10661D01*
X5949Y-10569D01*
X5950Y-10470D01*
X5950Y-12760D01*
X5100Y-12760D01*
X5100Y-10707D01*
X5100Y-10020D01*
X5100Y-9920D01*
X5100Y-9232D01*
X5037Y-9170D01*
X4655Y-9169D01*
X4655Y-6829D01*
X4386Y-6560D01*
X4315Y-6631D01*
X4315Y-6490D01*
X4046Y-6221D01*
X3957Y-6240D01*
X3895Y-6423D01*
X3906Y-6616D01*
X3957Y-6739D01*
X4046Y-6758D01*
X4315Y-6490D01*
X4315Y-6631D01*
X4117Y-6829D01*
X4136Y-6918D01*
X4319Y-6981D01*
X4512Y-6969D01*
X4635Y-6918D01*
X4655Y-6829D01*
X4655Y-9169D01*
X4550Y-9169D01*
X4458Y-9207D01*
X4388Y-9278D01*
X4350Y-9370D01*
X4349Y-9469D01*
X4350Y-9857D01*
X4412Y-9920D01*
X5100Y-9920D01*
X5100Y-10020D01*
X4412Y-10020D01*
X4350Y-10082D01*
X4349Y-10470D01*
X4350Y-10569D01*
X4388Y-10661D01*
X4458Y-10732D01*
X4550Y-10770D01*
X5037Y-10770D01*
X5100Y-10707D01*
X5100Y-12760D01*
X4341Y-12760D01*
X4341Y-9821D01*
X4227Y-9545D01*
X4016Y-9334D01*
X3740Y-9220D01*
X3442Y-9219D01*
X3166Y-9333D01*
X2955Y-9544D01*
X2841Y-9820D01*
X2840Y-10118D01*
X2954Y-10394D01*
X3165Y-10605D01*
X3441Y-10719D01*
X3739Y-10720D01*
X4015Y-10606D01*
X4226Y-10395D01*
X4340Y-10119D01*
X4341Y-9821D01*
X4341Y-12760D01*
X239Y-12760D01*
X239Y-3740D01*
X397Y-3899D01*
X796Y-4064D01*
X1228Y-4065D01*
X1627Y-3900D01*
X1933Y-3595D01*
X2099Y-3196D01*
X2099Y-2764D01*
X1934Y-2364D01*
X1629Y-2059D01*
X1474Y-1995D01*
X1627Y-1931D01*
X1933Y-1626D01*
X2099Y-1227D01*
X2099Y-795D01*
X1934Y-396D01*
X1777Y-239D01*
X3202Y-239D01*
X3046Y-394D01*
X2880Y-793D01*
X2880Y-1225D01*
X3045Y-1625D01*
X3350Y-1930D01*
X3505Y-1994D01*
X3352Y-2058D01*
X3046Y-2363D01*
X2880Y-2762D01*
X2880Y-3194D01*
X3045Y-3593D01*
X3350Y-3899D01*
X3749Y-4064D01*
X4181Y-4065D01*
X4580Y-3900D01*
X4886Y-3595D01*
X5052Y-3196D01*
X5052Y-2764D01*
X4887Y-2364D01*
X4582Y-2059D01*
X4427Y-1995D01*
X4580Y-1931D01*
X4886Y-1626D01*
X5052Y-1227D01*
X5052Y-795D01*
X4887Y-396D01*
X4730Y-239D01*
X11215Y-239D01*
X11169Y-334D01*
X11673Y-838D01*
X12177Y-334D01*
X12131Y-239D01*
X17318Y-239D01*
X17272Y-334D01*
X17776Y-838D01*
X18280Y-334D01*
X18234Y-239D01*
X50304Y-239D01*
X50113Y-429D01*
X49947Y-828D01*
X49947Y-1260D01*
X50112Y-1660D01*
X50417Y-1965D01*
X50572Y-2029D01*
X50419Y-2093D01*
X50113Y-2398D01*
X49947Y-2797D01*
X49947Y-3229D01*
X50112Y-3628D01*
X50417Y-3934D01*
X50816Y-4099D01*
X51248Y-4100D01*
X51647Y-3935D01*
X51953Y-3630D01*
X52119Y-3231D01*
X52119Y-2799D01*
X51954Y-2399D01*
X51649Y-2094D01*
X51494Y-2030D01*
X51647Y-1966D01*
X51953Y-1661D01*
X52119Y-1262D01*
X52119Y-830D01*
X51954Y-431D01*
X51762Y-239D01*
X53257Y-239D01*
X53066Y-429D01*
X52900Y-828D01*
X52900Y-1260D01*
X53065Y-1660D01*
X53370Y-1965D01*
X53525Y-2029D01*
X53372Y-2093D01*
X53066Y-2398D01*
X52900Y-2797D01*
X52900Y-3229D01*
X53065Y-3628D01*
X53370Y-3934D01*
X53769Y-4099D01*
X54201Y-4100D01*
X54600Y-3935D01*
X54760Y-3775D01*
X54760Y-12760D01*
X54760Y-12760D01*
G37*
G54D35*
X54760Y-12760D02*
X49350Y-12760D01*
X49350Y-2866D01*
X49248Y-2619D01*
X49059Y-2430D01*
X48812Y-2327D01*
X48544Y-2327D01*
X48297Y-2429D01*
X48108Y-2618D01*
X48005Y-2865D01*
X48005Y-3133D01*
X48107Y-3380D01*
X48296Y-3569D01*
X48543Y-3672D01*
X48810Y-3672D01*
X49058Y-3570D01*
X49247Y-3381D01*
X49350Y-3134D01*
X49350Y-2866D01*
X49350Y-12760D01*
X49271Y-12760D01*
X49271Y-4850D01*
X49181Y-4632D01*
X49014Y-4465D01*
X48796Y-4374D01*
X48560Y-4374D01*
X48341Y-4464D01*
X48174Y-4631D01*
X48084Y-4849D01*
X48083Y-5086D01*
X48174Y-5304D01*
X48341Y-5471D01*
X48559Y-5562D01*
X48795Y-5562D01*
X49013Y-5472D01*
X49180Y-5305D01*
X49271Y-5087D01*
X49271Y-4850D01*
X49271Y-12760D01*
X48287Y-12760D01*
X48287Y-5835D01*
X48197Y-5616D01*
X48030Y-5449D01*
X47812Y-5359D01*
X47575Y-5358D01*
X47357Y-5449D01*
X47303Y-5503D01*
X47303Y-913D01*
X47212Y-695D01*
X47045Y-528D01*
X46827Y-437D01*
X46591Y-437D01*
X46373Y-527D01*
X46206Y-694D01*
X46115Y-912D01*
X46115Y-1149D01*
X46205Y-1367D01*
X46372Y-1534D01*
X46590Y-1625D01*
X46826Y-1625D01*
X47045Y-1535D01*
X47212Y-1368D01*
X47302Y-1150D01*
X47303Y-913D01*
X47303Y-5503D01*
X47190Y-5616D01*
X47099Y-5834D01*
X47099Y-6070D01*
X47189Y-6288D01*
X47356Y-6455D01*
X47574Y-6546D01*
X47811Y-6546D01*
X48029Y-6456D01*
X48196Y-6289D01*
X48287Y-6071D01*
X48287Y-5835D01*
X48287Y-12760D01*
X46318Y-12760D01*
X46318Y-4850D01*
X46228Y-4632D01*
X46061Y-4465D01*
X45843Y-4374D01*
X45607Y-4374D01*
X45389Y-4464D01*
X45334Y-4519D01*
X45334Y-913D01*
X45244Y-695D01*
X45077Y-528D01*
X44859Y-437D01*
X44623Y-437D01*
X44404Y-527D01*
X44237Y-694D01*
X44147Y-912D01*
X44146Y-1149D01*
X44237Y-1367D01*
X44404Y-1534D01*
X44622Y-1625D01*
X44858Y-1625D01*
X45076Y-1535D01*
X45243Y-1368D01*
X45334Y-1150D01*
X45334Y-913D01*
X45334Y-4519D01*
X45221Y-4631D01*
X45131Y-4849D01*
X45131Y-5086D01*
X45221Y-5304D01*
X45388Y-5471D01*
X45606Y-5562D01*
X45842Y-5562D01*
X46060Y-5472D01*
X46228Y-5305D01*
X46318Y-5087D01*
X46318Y-4850D01*
X46318Y-12760D01*
X44350Y-12760D01*
X44350Y-5835D01*
X44260Y-5616D01*
X44093Y-5449D01*
X43875Y-5359D01*
X43638Y-5358D01*
X43444Y-5439D01*
X43444Y-2866D01*
X43342Y-2619D01*
X43153Y-2430D01*
X42906Y-2327D01*
X42639Y-2327D01*
X42391Y-2429D01*
X42202Y-2618D01*
X42099Y-2865D01*
X42099Y-3133D01*
X42201Y-3380D01*
X42390Y-3569D01*
X42637Y-3672D01*
X42905Y-3672D01*
X43152Y-3570D01*
X43341Y-3381D01*
X43444Y-3134D01*
X43444Y-2866D01*
X43444Y-5439D01*
X43420Y-5449D01*
X43366Y-5503D01*
X43366Y-4850D01*
X43275Y-4632D01*
X43108Y-4465D01*
X42890Y-4374D01*
X42654Y-4374D01*
X42436Y-4464D01*
X42269Y-4631D01*
X42178Y-4849D01*
X42178Y-5086D01*
X42268Y-5304D01*
X42435Y-5471D01*
X42653Y-5562D01*
X42889Y-5562D01*
X43108Y-5472D01*
X43275Y-5305D01*
X43365Y-5087D01*
X43366Y-4850D01*
X43366Y-5503D01*
X43253Y-5616D01*
X43162Y-5834D01*
X43162Y-6070D01*
X43252Y-6288D01*
X43419Y-6455D01*
X43637Y-6546D01*
X43874Y-6546D01*
X44092Y-6456D01*
X44259Y-6289D01*
X44350Y-6071D01*
X44350Y-5835D01*
X44350Y-12760D01*
X39800Y-12760D01*
X39800Y-2866D01*
X39698Y-2619D01*
X39509Y-2430D01*
X39262Y-2327D01*
X38994Y-2327D01*
X38747Y-2429D01*
X38558Y-2618D01*
X38455Y-2865D01*
X38455Y-3133D01*
X38557Y-3380D01*
X38746Y-3569D01*
X38993Y-3672D01*
X39260Y-3672D01*
X39508Y-3570D01*
X39697Y-3381D01*
X39800Y-3134D01*
X39800Y-2866D01*
X39800Y-12760D01*
X39721Y-12760D01*
X39721Y-4850D01*
X39631Y-4632D01*
X39464Y-4465D01*
X39246Y-4374D01*
X39010Y-4374D01*
X38791Y-4464D01*
X38624Y-4631D01*
X38534Y-4849D01*
X38533Y-5086D01*
X38624Y-5304D01*
X38791Y-5471D01*
X39009Y-5562D01*
X39245Y-5562D01*
X39463Y-5472D01*
X39630Y-5305D01*
X39721Y-5087D01*
X39721Y-4850D01*
X39721Y-12760D01*
X38737Y-12760D01*
X38737Y-5835D01*
X38647Y-5616D01*
X38480Y-5449D01*
X38262Y-5359D01*
X38025Y-5358D01*
X37807Y-5449D01*
X37753Y-5503D01*
X37753Y-913D01*
X37662Y-695D01*
X37495Y-528D01*
X37277Y-437D01*
X37041Y-437D01*
X36823Y-527D01*
X36656Y-694D01*
X36565Y-912D01*
X36565Y-1149D01*
X36655Y-1367D01*
X36822Y-1534D01*
X37040Y-1625D01*
X37276Y-1625D01*
X37495Y-1535D01*
X37662Y-1368D01*
X37752Y-1150D01*
X37753Y-913D01*
X37753Y-5503D01*
X37640Y-5616D01*
X37549Y-5834D01*
X37549Y-6070D01*
X37639Y-6288D01*
X37806Y-6455D01*
X38024Y-6546D01*
X38261Y-6546D01*
X38479Y-6456D01*
X38646Y-6289D01*
X38737Y-6071D01*
X38737Y-5835D01*
X38737Y-12760D01*
X36822Y-12760D01*
X36822Y-5072D01*
X36813Y-4816D01*
X36733Y-4624D01*
X36628Y-4585D01*
X36558Y-4656D01*
X36558Y-4514D01*
X36519Y-4409D01*
X36279Y-4320D01*
X36023Y-4329D01*
X35830Y-4409D01*
X35791Y-4514D01*
X36175Y-4897D01*
X36558Y-4514D01*
X36558Y-4656D01*
X36245Y-4968D01*
X36628Y-5351D01*
X36733Y-5312D01*
X36822Y-5072D01*
X36822Y-12760D01*
X36558Y-12760D01*
X36558Y-5422D01*
X36175Y-5039D01*
X36104Y-5109D01*
X36104Y-4968D01*
X35784Y-4648D01*
X35784Y-913D01*
X35694Y-695D01*
X35527Y-528D01*
X35309Y-437D01*
X35073Y-437D01*
X34854Y-527D01*
X34687Y-694D01*
X34597Y-912D01*
X34596Y-1149D01*
X34687Y-1367D01*
X34854Y-1534D01*
X35072Y-1625D01*
X35308Y-1625D01*
X35526Y-1535D01*
X35693Y-1368D01*
X35784Y-1150D01*
X35784Y-913D01*
X35784Y-4648D01*
X35721Y-4585D01*
X35616Y-4624D01*
X35527Y-4864D01*
X35536Y-5120D01*
X35616Y-5312D01*
X35721Y-5351D01*
X36104Y-4968D01*
X36104Y-5109D01*
X35791Y-5422D01*
X35830Y-5527D01*
X36070Y-5616D01*
X36326Y-5607D01*
X36519Y-5527D01*
X36558Y-5422D01*
X36558Y-12760D01*
X34800Y-12760D01*
X34800Y-5835D01*
X34710Y-5616D01*
X34543Y-5449D01*
X34325Y-5359D01*
X34088Y-5358D01*
X33894Y-5439D01*
X33894Y-2866D01*
X33792Y-2619D01*
X33603Y-2430D01*
X33356Y-2327D01*
X33089Y-2327D01*
X32841Y-2429D01*
X32652Y-2618D01*
X32549Y-2865D01*
X32549Y-3133D01*
X32651Y-3380D01*
X32840Y-3569D01*
X33087Y-3672D01*
X33355Y-3672D01*
X33602Y-3570D01*
X33791Y-3381D01*
X33894Y-3134D01*
X33894Y-2866D01*
X33894Y-5439D01*
X33870Y-5449D01*
X33816Y-5503D01*
X33816Y-4850D01*
X33725Y-4632D01*
X33558Y-4465D01*
X33340Y-4374D01*
X33104Y-4374D01*
X32886Y-4464D01*
X32719Y-4631D01*
X32628Y-4849D01*
X32628Y-5086D01*
X32718Y-5304D01*
X32885Y-5471D01*
X33103Y-5562D01*
X33339Y-5562D01*
X33558Y-5472D01*
X33725Y-5305D01*
X33815Y-5087D01*
X33816Y-4850D01*
X33816Y-5503D01*
X33703Y-5616D01*
X33612Y-5834D01*
X33612Y-6070D01*
X33702Y-6288D01*
X33869Y-6455D01*
X34087Y-6546D01*
X34324Y-6546D01*
X34542Y-6456D01*
X34709Y-6289D01*
X34800Y-6071D01*
X34800Y-5835D01*
X34800Y-12760D01*
X33375Y-12760D01*
X33375Y-10825D01*
X33318Y-10687D01*
X33300Y-10669D01*
X33300Y-9805D01*
X33317Y-9787D01*
X33374Y-9649D01*
X33375Y-9500D01*
X33318Y-9362D01*
X33212Y-9257D01*
X33074Y-9200D01*
X32925Y-9199D01*
X32787Y-9256D01*
X32682Y-9362D01*
X32625Y-9500D01*
X32624Y-9649D01*
X32681Y-9787D01*
X32700Y-9805D01*
X32700Y-10669D01*
X32682Y-10687D01*
X32625Y-10825D01*
X32624Y-10974D01*
X32681Y-11112D01*
X32787Y-11217D01*
X32925Y-11274D01*
X33074Y-11275D01*
X33212Y-11218D01*
X33317Y-11112D01*
X33374Y-10974D01*
X33375Y-10825D01*
X33375Y-12760D01*
X31369Y-12760D01*
X31369Y-12759D01*
X31370Y-12610D01*
X31313Y-12472D01*
X31207Y-12367D01*
X31124Y-12332D01*
X31125Y-12240D01*
X31068Y-12102D01*
X30965Y-11999D01*
X31099Y-12000D01*
X31282Y-11924D01*
X31423Y-11783D01*
X31499Y-11599D01*
X31500Y-11400D01*
X31500Y-10400D01*
X31424Y-10217D01*
X31283Y-10076D01*
X31099Y-10000D01*
X30900Y-9999D01*
X30717Y-10075D01*
X30576Y-10216D01*
X30500Y-10400D01*
X30500Y-10401D01*
X30500Y-10400D01*
X30424Y-10217D01*
X30283Y-10076D01*
X30099Y-10000D01*
X29900Y-9999D01*
X29717Y-10075D01*
X29576Y-10216D01*
X29500Y-10400D01*
X29500Y-10401D01*
X29500Y-10400D01*
X29424Y-10217D01*
X29283Y-10076D01*
X29105Y-10002D01*
X29105Y-7056D01*
X29105Y-4505D01*
X29024Y-4308D01*
X28874Y-4158D01*
X28677Y-4076D01*
X28464Y-4076D01*
X28268Y-4157D01*
X28117Y-4307D01*
X28036Y-4504D01*
X28036Y-4716D01*
X28117Y-4913D01*
X28267Y-5064D01*
X28464Y-5145D01*
X28676Y-5145D01*
X28873Y-5064D01*
X29023Y-4914D01*
X29105Y-4717D01*
X29105Y-4505D01*
X29105Y-7056D01*
X29024Y-6859D01*
X28874Y-6709D01*
X28677Y-6627D01*
X28464Y-6627D01*
X28268Y-6708D01*
X28117Y-6858D01*
X28044Y-7035D01*
X28043Y-7025D01*
X28000Y-6919D01*
X28000Y-6275D01*
X27924Y-6091D01*
X27813Y-5981D01*
X27923Y-5870D01*
X27999Y-5687D01*
X28000Y-5488D01*
X27924Y-5304D01*
X27813Y-5193D01*
X27923Y-5083D01*
X27999Y-4899D01*
X28000Y-4700D01*
X27924Y-4517D01*
X27783Y-4376D01*
X27599Y-4300D01*
X27400Y-4299D01*
X27217Y-4375D01*
X27076Y-4516D01*
X27000Y-4700D01*
X26999Y-4899D01*
X27075Y-5082D01*
X27186Y-5193D01*
X27076Y-5303D01*
X27000Y-5487D01*
X26999Y-5686D01*
X27075Y-5870D01*
X27186Y-5981D01*
X27076Y-6091D01*
X27000Y-6274D01*
X26999Y-6473D01*
X27075Y-6657D01*
X27186Y-6768D01*
X27184Y-6776D01*
X27500Y-7091D01*
X27815Y-6776D01*
X27813Y-6768D01*
X27923Y-6658D01*
X27999Y-6474D01*
X28000Y-6275D01*
X28000Y-6919D01*
X27981Y-6874D01*
X27885Y-6847D01*
X27570Y-7162D01*
X27885Y-7477D01*
X27981Y-7450D01*
X28041Y-7281D01*
X28117Y-7464D01*
X28267Y-7615D01*
X28464Y-7696D01*
X28676Y-7696D01*
X28873Y-7615D01*
X29023Y-7465D01*
X29105Y-7269D01*
X29105Y-7056D01*
X29105Y-10002D01*
X29099Y-10000D01*
X28900Y-9999D01*
X28717Y-10075D01*
X28576Y-10216D01*
X28500Y-10400D01*
X28500Y-10401D01*
X28500Y-10400D01*
X28424Y-10217D01*
X28283Y-10076D01*
X28099Y-10000D01*
X27900Y-9999D01*
X27815Y-10035D01*
X27815Y-7548D01*
X27500Y-7232D01*
X27429Y-7303D01*
X27429Y-7162D01*
X27114Y-6847D01*
X27018Y-6874D01*
X26963Y-7028D01*
X26963Y-4505D01*
X26882Y-4308D01*
X26732Y-4158D01*
X26535Y-4076D01*
X26323Y-4076D01*
X26126Y-4157D01*
X25976Y-4307D01*
X25894Y-4504D01*
X25894Y-4716D01*
X25975Y-4913D01*
X26125Y-5064D01*
X26322Y-5145D01*
X26535Y-5145D01*
X26731Y-5064D01*
X26882Y-4914D01*
X26963Y-4717D01*
X26963Y-4505D01*
X26963Y-7028D01*
X26958Y-7043D01*
X26882Y-6859D01*
X26732Y-6709D01*
X26535Y-6627D01*
X26323Y-6627D01*
X26126Y-6708D01*
X25976Y-6858D01*
X25894Y-7055D01*
X25894Y-7268D01*
X25975Y-7464D01*
X26125Y-7615D01*
X26322Y-7696D01*
X26535Y-7696D01*
X26731Y-7615D01*
X26882Y-7465D01*
X26955Y-7288D01*
X26956Y-7298D01*
X27018Y-7450D01*
X27114Y-7477D01*
X27429Y-7162D01*
X27429Y-7303D01*
X27184Y-7548D01*
X27212Y-7643D01*
X27418Y-7716D01*
X27636Y-7706D01*
X27787Y-7643D01*
X27815Y-7548D01*
X27815Y-10035D01*
X27717Y-10075D01*
X27576Y-10216D01*
X27500Y-10400D01*
X27500Y-10401D01*
X27500Y-10400D01*
X27424Y-10217D01*
X27283Y-10076D01*
X27099Y-10000D01*
X26900Y-9999D01*
X26717Y-10075D01*
X26576Y-10216D01*
X26500Y-10400D01*
X26500Y-10401D01*
X26500Y-10400D01*
X26424Y-10217D01*
X26283Y-10076D01*
X26099Y-10000D01*
X25900Y-9999D01*
X25717Y-10075D01*
X25576Y-10216D01*
X25500Y-10400D01*
X25499Y-10599D01*
X25575Y-10782D01*
X25716Y-10923D01*
X25900Y-10999D01*
X26099Y-11000D01*
X26282Y-10924D01*
X26423Y-10783D01*
X26499Y-10599D01*
X26500Y-10400D01*
X26500Y-10401D01*
X26499Y-10599D01*
X26575Y-10782D01*
X26716Y-10923D01*
X26900Y-10999D01*
X27099Y-11000D01*
X27282Y-10924D01*
X27423Y-10783D01*
X27499Y-10599D01*
X27500Y-10400D01*
X27500Y-10401D01*
X27499Y-10599D01*
X27575Y-10782D01*
X27716Y-10923D01*
X27900Y-10999D01*
X28099Y-11000D01*
X28282Y-10924D01*
X28423Y-10783D01*
X28499Y-10599D01*
X28500Y-10400D01*
X28500Y-10401D01*
X28499Y-10599D01*
X28575Y-10782D01*
X28716Y-10923D01*
X28900Y-10999D01*
X29099Y-11000D01*
X29282Y-10924D01*
X29423Y-10783D01*
X29499Y-10599D01*
X29500Y-10400D01*
X29500Y-10401D01*
X29499Y-10599D01*
X29575Y-10782D01*
X29716Y-10923D01*
X29900Y-10999D01*
X30099Y-11000D01*
X30282Y-10924D01*
X30423Y-10783D01*
X30499Y-10599D01*
X30500Y-10400D01*
X30500Y-10401D01*
X30499Y-10599D01*
X30575Y-10782D01*
X30716Y-10923D01*
X30900Y-10999D01*
X31099Y-11000D01*
X31282Y-10924D01*
X31423Y-10783D01*
X31499Y-10599D01*
X31500Y-10400D01*
X31500Y-11400D01*
X31424Y-11217D01*
X31283Y-11076D01*
X31099Y-11000D01*
X30900Y-10999D01*
X30717Y-11075D01*
X30576Y-11216D01*
X30500Y-11400D01*
X30500Y-11401D01*
X30500Y-11400D01*
X30424Y-11217D01*
X30283Y-11076D01*
X30099Y-11000D01*
X29900Y-10999D01*
X29717Y-11075D01*
X29576Y-11216D01*
X29500Y-11400D01*
X29500Y-11401D01*
X29500Y-11400D01*
X29424Y-11217D01*
X29283Y-11076D01*
X29099Y-11000D01*
X28900Y-10999D01*
X28717Y-11075D01*
X28576Y-11216D01*
X28500Y-11400D01*
X28500Y-11401D01*
X28500Y-11400D01*
X28424Y-11217D01*
X28283Y-11076D01*
X28099Y-11000D01*
X27900Y-10999D01*
X27717Y-11075D01*
X27576Y-11216D01*
X27500Y-11400D01*
X27500Y-11401D01*
X27500Y-11400D01*
X27424Y-11217D01*
X27283Y-11076D01*
X27099Y-11000D01*
X26900Y-10999D01*
X26717Y-11075D01*
X26576Y-11216D01*
X26500Y-11400D01*
X26499Y-11599D01*
X26575Y-11782D01*
X26716Y-11923D01*
X26900Y-11999D01*
X27099Y-12000D01*
X27282Y-11924D01*
X27423Y-11783D01*
X27499Y-11599D01*
X27500Y-11400D01*
X27500Y-11401D01*
X27499Y-11599D01*
X27575Y-11782D01*
X27716Y-11923D01*
X27900Y-11999D01*
X28099Y-12000D01*
X28282Y-11924D01*
X28423Y-11783D01*
X28499Y-11599D01*
X28500Y-11400D01*
X28500Y-11401D01*
X28499Y-11599D01*
X28575Y-11782D01*
X28716Y-11923D01*
X28900Y-11999D01*
X29099Y-12000D01*
X29282Y-11924D01*
X29423Y-11783D01*
X29499Y-11599D01*
X29500Y-11400D01*
X29500Y-11401D01*
X29499Y-11599D01*
X29575Y-11782D01*
X29716Y-11923D01*
X29900Y-11999D01*
X30099Y-12000D01*
X30282Y-11924D01*
X30423Y-11783D01*
X30499Y-11599D01*
X30500Y-11400D01*
X30500Y-11401D01*
X30499Y-11599D01*
X30575Y-11782D01*
X30716Y-11923D01*
X30755Y-11940D01*
X30675Y-11939D01*
X30537Y-11996D01*
X30432Y-12102D01*
X30387Y-12210D01*
X25814Y-12210D01*
X25800Y-12195D01*
X25800Y-11958D01*
X25900Y-11999D01*
X26099Y-12000D01*
X26282Y-11924D01*
X26423Y-11783D01*
X26499Y-11599D01*
X26500Y-11400D01*
X26424Y-11217D01*
X26283Y-11076D01*
X26099Y-11000D01*
X25900Y-10999D01*
X25771Y-11053D01*
X25712Y-10964D01*
X25712Y-10964D01*
X25455Y-10707D01*
X25499Y-10599D01*
X25500Y-10400D01*
X25424Y-10217D01*
X25325Y-10117D01*
X25325Y-7000D01*
X25325Y-6000D01*
X25249Y-5817D01*
X25108Y-5676D01*
X24924Y-5600D01*
X24725Y-5599D01*
X24542Y-5675D01*
X24401Y-5816D01*
X24325Y-6000D01*
X24325Y-6060D01*
X24325Y-5760D01*
X24294Y-5686D01*
X24238Y-5630D01*
X24164Y-5600D01*
X24085Y-5599D01*
X23485Y-5599D01*
X23411Y-5630D01*
X23355Y-5686D01*
X23325Y-5760D01*
X23324Y-5839D01*
X23324Y-6439D01*
X23355Y-6513D01*
X23411Y-6569D01*
X23485Y-6599D01*
X23564Y-6600D01*
X23582Y-6600D01*
X23537Y-6618D01*
X23509Y-6714D01*
X23825Y-7029D01*
X24140Y-6714D01*
X24112Y-6618D01*
X24060Y-6600D01*
X24164Y-6600D01*
X24238Y-6569D01*
X24294Y-6513D01*
X24324Y-6439D01*
X24325Y-6360D01*
X24325Y-6199D01*
X24400Y-6382D01*
X24541Y-6523D01*
X24725Y-6599D01*
X24924Y-6600D01*
X25107Y-6524D01*
X25248Y-6383D01*
X25324Y-6199D01*
X25325Y-6000D01*
X25325Y-7000D01*
X25249Y-6817D01*
X25108Y-6676D01*
X24924Y-6600D01*
X24725Y-6599D01*
X24542Y-6675D01*
X24401Y-6816D01*
X24354Y-6928D01*
X24306Y-6812D01*
X24210Y-6784D01*
X23895Y-7100D01*
X24210Y-7415D01*
X24306Y-7387D01*
X24351Y-7262D01*
X24400Y-7382D01*
X24541Y-7523D01*
X24725Y-7599D01*
X24924Y-7600D01*
X25107Y-7524D01*
X25248Y-7383D01*
X25324Y-7199D01*
X25325Y-7000D01*
X25325Y-10117D01*
X25283Y-10076D01*
X25099Y-10000D01*
X24900Y-9999D01*
X24717Y-10075D01*
X24576Y-10216D01*
X24529Y-10328D01*
X24481Y-10212D01*
X24385Y-10184D01*
X24315Y-10255D01*
X24315Y-10114D01*
X24287Y-10018D01*
X24140Y-9966D01*
X24140Y-7485D01*
X23825Y-7170D01*
X23754Y-7241D01*
X23754Y-7100D01*
X23439Y-6784D01*
X23343Y-6812D01*
X23270Y-7018D01*
X23281Y-7236D01*
X23343Y-7387D01*
X23439Y-7415D01*
X23754Y-7100D01*
X23754Y-7241D01*
X23509Y-7485D01*
X23537Y-7581D01*
X23743Y-7654D01*
X23961Y-7643D01*
X24112Y-7581D01*
X24140Y-7485D01*
X24140Y-9966D01*
X24081Y-9945D01*
X23863Y-9956D01*
X23712Y-10018D01*
X23684Y-10114D01*
X24000Y-10429D01*
X24315Y-10114D01*
X24315Y-10255D01*
X24070Y-10500D01*
X24385Y-10815D01*
X24481Y-10787D01*
X24526Y-10662D01*
X24575Y-10782D01*
X24716Y-10923D01*
X24897Y-10998D01*
X24899Y-11000D01*
X24717Y-11075D01*
X24576Y-11216D01*
X24550Y-11279D01*
X24550Y-11249D01*
X24549Y-11150D01*
X24511Y-11058D01*
X24441Y-10987D01*
X24349Y-10949D01*
X24296Y-10949D01*
X24315Y-10885D01*
X24000Y-10570D01*
X23929Y-10641D01*
X23929Y-10500D01*
X23614Y-10184D01*
X23518Y-10212D01*
X23445Y-10418D01*
X23456Y-10636D01*
X23518Y-10787D01*
X23614Y-10815D01*
X23929Y-10500D01*
X23929Y-10641D01*
X23684Y-10885D01*
X23703Y-10949D01*
X23650Y-10949D01*
X23558Y-10987D01*
X23488Y-11058D01*
X23450Y-11150D01*
X23449Y-11249D01*
X23450Y-11387D01*
X23512Y-11450D01*
X23950Y-11450D01*
X23950Y-11442D01*
X24050Y-11442D01*
X24050Y-11450D01*
X24057Y-11450D01*
X24057Y-11550D01*
X24050Y-11550D01*
X24050Y-11987D01*
X24112Y-12050D01*
X24349Y-12050D01*
X24441Y-12012D01*
X24511Y-11941D01*
X24549Y-11849D01*
X24550Y-11750D01*
X24550Y-11720D01*
X24575Y-11782D01*
X24700Y-11907D01*
X24700Y-12220D01*
X24722Y-12334D01*
X24787Y-12432D01*
X25116Y-12760D01*
X23950Y-12760D01*
X23950Y-11987D01*
X23950Y-11550D01*
X23512Y-11550D01*
X23450Y-11612D01*
X23449Y-11750D01*
X23450Y-11849D01*
X23488Y-11941D01*
X23558Y-12012D01*
X23650Y-12050D01*
X23887Y-12050D01*
X23950Y-11987D01*
X23950Y-12760D01*
X21716Y-12760D01*
X21716Y-6635D01*
X21704Y-6442D01*
X21661Y-6338D01*
X21661Y-5977D01*
X21661Y-5505D01*
X21630Y-5431D01*
X21574Y-5375D01*
X21501Y-5345D01*
X21421Y-5345D01*
X20949Y-5345D01*
X20875Y-5375D01*
X20819Y-5431D01*
X20788Y-5505D01*
X20788Y-5584D01*
X20788Y-6057D01*
X20819Y-6130D01*
X20875Y-6186D01*
X20948Y-6217D01*
X20958Y-6217D01*
X20956Y-6229D01*
X21225Y-6497D01*
X21493Y-6229D01*
X21491Y-6217D01*
X21500Y-6217D01*
X21574Y-6187D01*
X21630Y-6130D01*
X21661Y-6057D01*
X21661Y-5977D01*
X21661Y-6338D01*
X21653Y-6319D01*
X21564Y-6299D01*
X21295Y-6568D01*
X21564Y-6837D01*
X21653Y-6818D01*
X21716Y-6635D01*
X21716Y-12760D01*
X21493Y-12760D01*
X21493Y-6908D01*
X21225Y-6639D01*
X21154Y-6710D01*
X21154Y-6568D01*
X20885Y-6299D01*
X20796Y-6319D01*
X20733Y-6502D01*
X20745Y-6695D01*
X20796Y-6818D01*
X20885Y-6837D01*
X21154Y-6568D01*
X21154Y-6710D01*
X20956Y-6908D01*
X20975Y-6997D01*
X21158Y-7059D01*
X21351Y-7048D01*
X21474Y-6997D01*
X21493Y-6908D01*
X21493Y-12760D01*
X19959Y-12760D01*
X19959Y-6241D01*
X19948Y-6048D01*
X19897Y-5925D01*
X19808Y-5906D01*
X19737Y-5976D01*
X19737Y-5835D01*
X19718Y-5746D01*
X19535Y-5683D01*
X19342Y-5695D01*
X19219Y-5746D01*
X19199Y-5835D01*
X19468Y-6104D01*
X19737Y-5835D01*
X19737Y-5976D01*
X19539Y-6175D01*
X19808Y-6443D01*
X19897Y-6424D01*
X19959Y-6241D01*
X19959Y-12760D01*
X19737Y-12760D01*
X19737Y-6514D01*
X19468Y-6245D01*
X19397Y-6316D01*
X19397Y-6175D01*
X19129Y-5906D01*
X19117Y-5908D01*
X19117Y-5899D01*
X19087Y-5825D01*
X19030Y-5769D01*
X18957Y-5738D01*
X18877Y-5738D01*
X18590Y-5738D01*
X18590Y-1053D01*
X18583Y-730D01*
X18473Y-464D01*
X18350Y-405D01*
X17846Y-909D01*
X18350Y-1413D01*
X18473Y-1353D01*
X18590Y-1053D01*
X18590Y-5738D01*
X18405Y-5738D01*
X18331Y-5769D01*
X18280Y-5820D01*
X18280Y-1483D01*
X17776Y-979D01*
X17770Y-985D01*
X17699Y-914D01*
X17705Y-909D01*
X17201Y-405D01*
X17079Y-464D01*
X16961Y-765D01*
X16968Y-1087D01*
X17048Y-1280D01*
X16810Y-1279D01*
X16505Y-1406D01*
X16271Y-1639D01*
X16145Y-1944D01*
X16144Y-2274D01*
X16271Y-2579D01*
X16504Y-2813D01*
X16809Y-2939D01*
X17139Y-2940D01*
X17444Y-2813D01*
X17678Y-2580D01*
X17804Y-2275D01*
X17805Y-1945D01*
X17712Y-1721D01*
X17954Y-1716D01*
X18220Y-1606D01*
X18280Y-1483D01*
X18280Y-5820D01*
X18275Y-5825D01*
X18245Y-5898D01*
X18245Y-5978D01*
X18245Y-6450D01*
X18275Y-6524D01*
X18331Y-6580D01*
X18405Y-6611D01*
X18484Y-6611D01*
X18957Y-6611D01*
X19030Y-6580D01*
X19086Y-6524D01*
X19117Y-6451D01*
X19117Y-6441D01*
X19129Y-6443D01*
X19397Y-6175D01*
X19397Y-6316D01*
X19199Y-6514D01*
X19219Y-6603D01*
X19402Y-6666D01*
X19595Y-6654D01*
X19718Y-6603D01*
X19737Y-6514D01*
X19737Y-12760D01*
X16950Y-12760D01*
X16950Y-4515D01*
X16878Y-4340D01*
X16744Y-4207D01*
X16570Y-4134D01*
X16380Y-4134D01*
X16205Y-4206D01*
X16072Y-4340D01*
X15999Y-4514D01*
X15999Y-4704D01*
X16071Y-4879D01*
X16205Y-5012D01*
X16379Y-5085D01*
X16569Y-5085D01*
X16744Y-5013D01*
X16877Y-4879D01*
X16950Y-4705D01*
X16950Y-4515D01*
X16950Y-12760D01*
X16450Y-12760D01*
X16450Y-5515D01*
X16378Y-5340D01*
X16244Y-5207D01*
X16070Y-5134D01*
X15950Y-5134D01*
X15950Y-4515D01*
X15878Y-4340D01*
X15744Y-4207D01*
X15570Y-4134D01*
X15380Y-4134D01*
X15205Y-4206D01*
X15072Y-4340D01*
X14999Y-4514D01*
X14999Y-4704D01*
X15071Y-4879D01*
X15205Y-5012D01*
X15379Y-5085D01*
X15569Y-5085D01*
X15744Y-5013D01*
X15877Y-4879D01*
X15950Y-4705D01*
X15950Y-4515D01*
X15950Y-5134D01*
X15880Y-5134D01*
X15705Y-5206D01*
X15572Y-5340D01*
X15499Y-5514D01*
X15499Y-5704D01*
X15571Y-5879D01*
X15705Y-6012D01*
X15879Y-6085D01*
X16069Y-6085D01*
X16244Y-6013D01*
X16377Y-5879D01*
X16450Y-5705D01*
X16450Y-5515D01*
X16450Y-12760D01*
X15450Y-12760D01*
X15450Y-5515D01*
X15378Y-5340D01*
X15244Y-5207D01*
X15070Y-5134D01*
X14950Y-5134D01*
X14950Y-4515D01*
X14878Y-4340D01*
X14744Y-4207D01*
X14570Y-4134D01*
X14380Y-4134D01*
X14205Y-4206D01*
X14072Y-4340D01*
X13999Y-4514D01*
X13999Y-4574D01*
X13994Y-4477D01*
X13936Y-4336D01*
X13843Y-4312D01*
X13772Y-4383D01*
X13772Y-4241D01*
X13748Y-4148D01*
X13550Y-4079D01*
X13342Y-4090D01*
X13305Y-4106D01*
X13305Y-1945D01*
X13178Y-1640D01*
X12945Y-1406D01*
X12640Y-1280D01*
X12399Y-1280D01*
X12488Y-1053D01*
X12481Y-730D01*
X12370Y-464D01*
X12248Y-405D01*
X11744Y-909D01*
X11750Y-914D01*
X11679Y-985D01*
X11673Y-979D01*
X11603Y-1050D01*
X11603Y-909D01*
X11099Y-405D01*
X10976Y-464D01*
X10859Y-765D01*
X10866Y-1087D01*
X10976Y-1353D01*
X11099Y-1413D01*
X11603Y-909D01*
X11603Y-1050D01*
X11169Y-1483D01*
X11229Y-1606D01*
X11529Y-1723D01*
X11738Y-1719D01*
X11645Y-1944D01*
X11644Y-2274D01*
X11771Y-2579D01*
X12004Y-2813D01*
X12309Y-2939D01*
X12639Y-2940D01*
X12944Y-2813D01*
X13178Y-2580D01*
X13304Y-2275D01*
X13305Y-1945D01*
X13305Y-4106D01*
X13201Y-4148D01*
X13177Y-4241D01*
X13475Y-4539D01*
X13772Y-4241D01*
X13772Y-4383D01*
X13545Y-4610D01*
X13843Y-4907D01*
X13936Y-4883D01*
X13999Y-4703D01*
X13999Y-4704D01*
X14071Y-4879D01*
X14205Y-5012D01*
X14379Y-5085D01*
X14569Y-5085D01*
X14744Y-5013D01*
X14877Y-4879D01*
X14950Y-4705D01*
X14950Y-4515D01*
X14950Y-5134D01*
X14880Y-5134D01*
X14705Y-5206D01*
X14572Y-5340D01*
X14499Y-5514D01*
X14499Y-5704D01*
X14571Y-5879D01*
X14705Y-6012D01*
X14879Y-6085D01*
X15069Y-6085D01*
X15244Y-6013D01*
X15377Y-5879D01*
X15450Y-5705D01*
X15450Y-5515D01*
X15450Y-12760D01*
X14450Y-12760D01*
X14450Y-5515D01*
X14378Y-5340D01*
X14244Y-5207D01*
X14070Y-5134D01*
X13880Y-5134D01*
X13772Y-5179D01*
X13772Y-4978D01*
X13475Y-4680D01*
X13404Y-4751D01*
X13404Y-4610D01*
X13106Y-4312D01*
X13013Y-4336D01*
X12944Y-4534D01*
X12955Y-4742D01*
X13013Y-4883D01*
X13106Y-4907D01*
X13404Y-4610D01*
X13404Y-4751D01*
X13177Y-4978D01*
X13201Y-5071D01*
X13399Y-5140D01*
X13607Y-5129D01*
X13748Y-5071D01*
X13772Y-4978D01*
X13772Y-5179D01*
X13705Y-5206D01*
X13572Y-5340D01*
X13499Y-5514D01*
X13499Y-5574D01*
X13494Y-5477D01*
X13436Y-5336D01*
X13343Y-5312D01*
X13272Y-5383D01*
X13272Y-5241D01*
X13248Y-5148D01*
X13050Y-5079D01*
X12842Y-5090D01*
X12701Y-5148D01*
X12677Y-5241D01*
X12975Y-5539D01*
X13272Y-5241D01*
X13272Y-5383D01*
X13045Y-5610D01*
X13343Y-5907D01*
X13436Y-5883D01*
X13499Y-5703D01*
X13499Y-5704D01*
X13571Y-5879D01*
X13705Y-6012D01*
X13879Y-6085D01*
X14069Y-6085D01*
X14244Y-6013D01*
X14377Y-5879D01*
X14450Y-5705D01*
X14450Y-5515D01*
X14450Y-12760D01*
X13272Y-12760D01*
X13272Y-5978D01*
X12975Y-5680D01*
X12904Y-5751D01*
X12904Y-5610D01*
X12606Y-5312D01*
X12513Y-5336D01*
X12444Y-5534D01*
X12455Y-5742D01*
X12513Y-5883D01*
X12606Y-5907D01*
X12904Y-5610D01*
X12904Y-5751D01*
X12677Y-5978D01*
X12701Y-6071D01*
X12899Y-6140D01*
X13107Y-6129D01*
X13248Y-6071D01*
X13272Y-5978D01*
X13272Y-12760D01*
X8904Y-12760D01*
X8904Y-5664D01*
X8904Y-4758D01*
X8874Y-4685D01*
X8856Y-4667D01*
X8856Y-3391D01*
X8856Y-2386D01*
X8818Y-2294D01*
X8748Y-2224D01*
X8656Y-2186D01*
X8556Y-2186D01*
X7872Y-2186D01*
X7810Y-2248D01*
X7810Y-2838D01*
X8793Y-2838D01*
X8856Y-2776D01*
X8856Y-2386D01*
X8856Y-3391D01*
X8856Y-3001D01*
X8793Y-2938D01*
X7810Y-2938D01*
X7810Y-3529D01*
X7872Y-3591D01*
X8556Y-3591D01*
X8656Y-3591D01*
X8748Y-3553D01*
X8818Y-3483D01*
X8856Y-3391D01*
X8856Y-4667D01*
X8818Y-4628D01*
X8744Y-4598D01*
X8665Y-4598D01*
X7710Y-4598D01*
X7710Y-3529D01*
X7710Y-2938D01*
X7710Y-2838D01*
X7710Y-2248D01*
X7647Y-2186D01*
X6963Y-2186D01*
X6863Y-2186D01*
X6771Y-2224D01*
X6701Y-2294D01*
X6663Y-2386D01*
X6663Y-2776D01*
X6726Y-2838D01*
X7710Y-2838D01*
X7710Y-2938D01*
X6726Y-2938D01*
X6663Y-3001D01*
X6663Y-3391D01*
X6701Y-3483D01*
X6771Y-3553D01*
X6863Y-3591D01*
X6963Y-3591D01*
X7647Y-3591D01*
X7710Y-3529D01*
X7710Y-4598D01*
X6775Y-4598D01*
X6701Y-4628D01*
X6645Y-4684D01*
X6615Y-4758D01*
X6615Y-4837D01*
X6615Y-5743D01*
X6645Y-5817D01*
X6701Y-5873D01*
X6775Y-5903D01*
X6854Y-5903D01*
X8744Y-5903D01*
X8818Y-5873D01*
X8874Y-5817D01*
X8904Y-5743D01*
X8904Y-5664D01*
X8904Y-12760D01*
X8279Y-12760D01*
X8279Y-11535D01*
X8279Y-10905D01*
X8241Y-10813D01*
X8229Y-10801D01*
X8229Y-7509D01*
X8229Y-6978D01*
X8199Y-6904D01*
X8158Y-6863D01*
X8185Y-6836D01*
X8215Y-6763D01*
X8215Y-6683D01*
X8215Y-6171D01*
X8185Y-6098D01*
X8129Y-6041D01*
X8055Y-6011D01*
X7976Y-6011D01*
X7464Y-6011D01*
X7390Y-6041D01*
X7334Y-6097D01*
X7304Y-6171D01*
X7304Y-6250D01*
X7304Y-6762D01*
X7334Y-6836D01*
X7365Y-6867D01*
X7328Y-6904D01*
X7298Y-6977D01*
X7297Y-7057D01*
X7297Y-7588D01*
X7328Y-7662D01*
X7384Y-7718D01*
X7458Y-7749D01*
X7537Y-7749D01*
X8069Y-7749D01*
X8142Y-7718D01*
X8198Y-7662D01*
X8229Y-7589D01*
X8229Y-7509D01*
X8229Y-10801D01*
X8171Y-10742D01*
X8079Y-10704D01*
X7980Y-10704D01*
X7876Y-10704D01*
X7813Y-10767D01*
X7813Y-11170D01*
X8217Y-11170D01*
X8279Y-11107D01*
X8279Y-10905D01*
X8279Y-11535D01*
X8279Y-11332D01*
X8217Y-11270D01*
X7813Y-11270D01*
X7813Y-11673D01*
X7876Y-11736D01*
X7980Y-11736D01*
X8079Y-11736D01*
X8171Y-11698D01*
X8241Y-11627D01*
X8279Y-11535D01*
X8279Y-12760D01*
X8231Y-12760D01*
X8265Y-12678D01*
X8265Y-12067D01*
X8227Y-11975D01*
X8157Y-11905D01*
X8065Y-11866D01*
X7966Y-11866D01*
X7872Y-11866D01*
X7810Y-11929D01*
X7810Y-12322D01*
X8203Y-12322D01*
X8265Y-12260D01*
X8265Y-12067D01*
X8265Y-12678D01*
X8265Y-12485D01*
X8203Y-12422D01*
X7810Y-12422D01*
X7810Y-12430D01*
X7713Y-12430D01*
X7713Y-11673D01*
X7713Y-11270D01*
X7713Y-11170D01*
X7713Y-10767D01*
X7651Y-10704D01*
X7547Y-10704D01*
X7448Y-10704D01*
X7356Y-10742D01*
X7285Y-10813D01*
X7247Y-10905D01*
X7248Y-11107D01*
X7310Y-11170D01*
X7713Y-11170D01*
X7713Y-11270D01*
X7310Y-11270D01*
X7248Y-11332D01*
X7247Y-11535D01*
X7285Y-11627D01*
X7356Y-11698D01*
X7448Y-11736D01*
X7547Y-11736D01*
X7651Y-11736D01*
X7713Y-11673D01*
X7713Y-12430D01*
X7710Y-12430D01*
X7710Y-12422D01*
X7710Y-12322D01*
X7710Y-11929D01*
X7647Y-11866D01*
X7553Y-11866D01*
X7454Y-11866D01*
X7362Y-11905D01*
X7292Y-11975D01*
X7254Y-12067D01*
X7254Y-12260D01*
X7316Y-12322D01*
X7710Y-12322D01*
X7710Y-12422D01*
X7316Y-12422D01*
X7254Y-12485D01*
X7254Y-12678D01*
X7288Y-12760D01*
X6612Y-12760D01*
X6612Y-4866D01*
X6612Y-3273D01*
X6612Y-3173D01*
X6574Y-3081D01*
X6503Y-3011D01*
X6411Y-2973D01*
X6022Y-2973D01*
X5959Y-3036D01*
X5959Y-4020D01*
X6549Y-4020D01*
X6612Y-3957D01*
X6612Y-3273D01*
X6612Y-4866D01*
X6612Y-4182D01*
X6549Y-4120D01*
X5959Y-4120D01*
X5959Y-5103D01*
X6022Y-5166D01*
X6411Y-5166D01*
X6503Y-5128D01*
X6574Y-5058D01*
X6612Y-4966D01*
X6612Y-4866D01*
X6612Y-12760D01*
X5950Y-12760D01*
X5950Y-10470D01*
X5950Y-9469D01*
X5949Y-9370D01*
X5911Y-9278D01*
X5859Y-9226D01*
X5859Y-5103D01*
X5859Y-4120D01*
X5859Y-4020D01*
X5859Y-3036D01*
X5797Y-2973D01*
X5407Y-2973D01*
X5315Y-3011D01*
X5245Y-3081D01*
X5206Y-3173D01*
X5206Y-3273D01*
X5206Y-3957D01*
X5269Y-4020D01*
X5859Y-4020D01*
X5859Y-4120D01*
X5269Y-4120D01*
X5206Y-4182D01*
X5206Y-4866D01*
X5206Y-4966D01*
X5245Y-5058D01*
X5315Y-5128D01*
X5407Y-5166D01*
X5797Y-5166D01*
X5859Y-5103D01*
X5859Y-9226D01*
X5841Y-9207D01*
X5749Y-9169D01*
X5609Y-9169D01*
X5609Y-6686D01*
X5609Y-6214D01*
X5579Y-6140D01*
X5523Y-6084D01*
X5449Y-6053D01*
X5370Y-6053D01*
X4897Y-6053D01*
X4824Y-6084D01*
X4768Y-6140D01*
X4737Y-6213D01*
X4737Y-6223D01*
X4725Y-6221D01*
X4655Y-6291D01*
X4655Y-6150D01*
X4635Y-6061D01*
X4452Y-5998D01*
X4259Y-6010D01*
X4136Y-6061D01*
X4117Y-6150D01*
X4386Y-6419D01*
X4655Y-6150D01*
X4655Y-6291D01*
X4457Y-6490D01*
X4725Y-6758D01*
X4737Y-6756D01*
X4737Y-6765D01*
X4767Y-6839D01*
X4824Y-6895D01*
X4897Y-6926D01*
X4977Y-6926D01*
X5449Y-6926D01*
X5523Y-6895D01*
X5579Y-6839D01*
X5609Y-6766D01*
X5609Y-6686D01*
X5609Y-9169D01*
X5262Y-9170D01*
X5200Y-9232D01*
X5200Y-9920D01*
X5887Y-9920D01*
X5950Y-9857D01*
X5950Y-9469D01*
X5950Y-10470D01*
X5950Y-10082D01*
X5887Y-10020D01*
X5200Y-10020D01*
X5200Y-10707D01*
X5262Y-10770D01*
X5749Y-10770D01*
X5841Y-10732D01*
X5911Y-10661D01*
X5949Y-10569D01*
X5950Y-10470D01*
X5950Y-12760D01*
X5100Y-12760D01*
X5100Y-10707D01*
X5100Y-10020D01*
X5100Y-9920D01*
X5100Y-9232D01*
X5037Y-9170D01*
X4655Y-9169D01*
X4655Y-6829D01*
X4386Y-6560D01*
X4315Y-6631D01*
X4315Y-6490D01*
X4046Y-6221D01*
X3957Y-6240D01*
X3895Y-6423D01*
X3906Y-6616D01*
X3957Y-6739D01*
X4046Y-6758D01*
X4315Y-6490D01*
X4315Y-6631D01*
X4117Y-6829D01*
X4136Y-6918D01*
X4319Y-6981D01*
X4512Y-6969D01*
X4635Y-6918D01*
X4655Y-6829D01*
X4655Y-9169D01*
X4550Y-9169D01*
X4458Y-9207D01*
X4388Y-9278D01*
X4350Y-9370D01*
X4349Y-9469D01*
X4350Y-9857D01*
X4412Y-9920D01*
X5100Y-9920D01*
X5100Y-10020D01*
X4412Y-10020D01*
X4350Y-10082D01*
X4349Y-10470D01*
X4350Y-10569D01*
X4388Y-10661D01*
X4458Y-10732D01*
X4550Y-10770D01*
X5037Y-10770D01*
X5100Y-10707D01*
X5100Y-12760D01*
X4341Y-12760D01*
X4341Y-9821D01*
X4227Y-9545D01*
X4016Y-9334D01*
X3740Y-9220D01*
X3442Y-9219D01*
X3166Y-9333D01*
X2955Y-9544D01*
X2841Y-9820D01*
X2840Y-10118D01*
X2954Y-10394D01*
X3165Y-10605D01*
X3441Y-10719D01*
X3739Y-10720D01*
X4015Y-10606D01*
X4226Y-10395D01*
X4340Y-10119D01*
X4341Y-9821D01*
X4341Y-12760D01*
X239Y-12760D01*
X239Y-3740D01*
X397Y-3899D01*
X796Y-4064D01*
X1228Y-4065D01*
X1627Y-3900D01*
X1933Y-3595D01*
X2099Y-3196D01*
X2099Y-2764D01*
X1934Y-2364D01*
X1629Y-2059D01*
X1474Y-1995D01*
X1627Y-1931D01*
X1933Y-1626D01*
X2099Y-1227D01*
X2099Y-795D01*
X1934Y-396D01*
X1777Y-239D01*
X3202Y-239D01*
X3046Y-394D01*
X2880Y-793D01*
X2880Y-1225D01*
X3045Y-1625D01*
X3350Y-1930D01*
X3505Y-1994D01*
X3352Y-2058D01*
X3046Y-2363D01*
X2880Y-2762D01*
X2880Y-3194D01*
X3045Y-3593D01*
X3350Y-3899D01*
X3749Y-4064D01*
X4181Y-4065D01*
X4580Y-3900D01*
X4886Y-3595D01*
X5052Y-3196D01*
X5052Y-2764D01*
X4887Y-2364D01*
X4582Y-2059D01*
X4427Y-1995D01*
X4580Y-1931D01*
X4886Y-1626D01*
X5052Y-1227D01*
X5052Y-795D01*
X4887Y-396D01*
X4730Y-239D01*
X11215Y-239D01*
X11169Y-334D01*
X11673Y-838D01*
X12177Y-334D01*
X12131Y-239D01*
X17318Y-239D01*
X17272Y-334D01*
X17776Y-838D01*
X18280Y-334D01*
X18234Y-239D01*
X50304Y-239D01*
X50113Y-429D01*
X49947Y-828D01*
X49947Y-1260D01*
X50112Y-1660D01*
X50417Y-1965D01*
X50572Y-2029D01*
X50419Y-2093D01*
X50113Y-2398D01*
X49947Y-2797D01*
X49947Y-3229D01*
X50112Y-3628D01*
X50417Y-3934D01*
X50816Y-4099D01*
X51248Y-4100D01*
X51647Y-3935D01*
X51953Y-3630D01*
X52119Y-3231D01*
X52119Y-2799D01*
X51954Y-2399D01*
X51649Y-2094D01*
X51494Y-2030D01*
X51647Y-1966D01*
X51953Y-1661D01*
X52119Y-1262D01*
X52119Y-830D01*
X51954Y-431D01*
X51762Y-239D01*
X53257Y-239D01*
X53066Y-429D01*
X52900Y-828D01*
X52900Y-1260D01*
X53065Y-1660D01*
X53370Y-1965D01*
X53525Y-2029D01*
X53372Y-2093D01*
X53066Y-2398D01*
X52900Y-2797D01*
X52900Y-3229D01*
X53065Y-3628D01*
X53370Y-3934D01*
X53769Y-4099D01*
X54201Y-4100D01*
X54600Y-3935D01*
X54760Y-3775D01*
X54760Y-12760D01*
M02*
