M48
;DRILL file {kicad (2015-03-11 BZR 5507)-product} date Wed 29 Apr 2015 06:55:20 PM CEST
;FORMAT={-:-/ absolute / inch / decimal}
FMAT,2
INCH,TZ
T1C0.005
T2C0.010
T3C0.018
T4C0.025
T5C0.026
T6C0.031
T7C0.032
T8C0.035
T9C0.036
T10C0.039
T11C0.039
T12C0.039
T13C0.040
T14C0.051
T15C0.053
T16C0.059
T17C0.062
T18C0.070
T19C0.091
T20C0.094
T21C0.130
%
G90
G05
M72
T1
X4.02Y-3.647
X4.0405Y-3.465
X4.06Y-3.647
X4.1767Y-3.56
X4.282Y-1.68
X4.315Y-3.416
X4.713Y-2.661
X4.7835Y-2.608
X4.8975Y-1.9345
X5.0451Y-4.5521
X5.1495Y-2.389
X5.156Y-3.399
X5.156Y-3.653
X5.173Y-2.389
X5.173Y-3.414
X5.174Y-3.653
X5.1965Y-2.389
X5.22Y-2.389
X5.745Y-2.403
X5.769Y-2.403
X5.823Y-2.396
X5.846Y-2.396
X5.8951Y-4.4601
X6.129Y-2.718
X6.342Y-1.934
X6.3431Y-4.1731
X6.3525Y-4.088
X6.3621Y-4.2911
X6.3815Y-4.087
X6.46Y-2.608
X6.484Y-2.608
X6.4995Y-4.067
X6.5215Y-4.067
X6.555Y-2.6075
X6.5785Y-2.6075
X6.7925Y-2.48
X6.803Y-2.469
X6.933Y-2.607
X6.9565Y-2.607
X7.027Y-2.607
X7.051Y-2.607
X7.0745Y-2.607
X7.098Y-2.607
X7.163Y-5.583
X7.3627Y-1.7554
X7.4417Y-1.7554
X7.474Y-5.583
T2
X3.878Y-3.826
X3.97Y-3.513
X3.97Y-3.583
X4.1Y-3.735
X4.107Y-1.42
X4.234Y-4.862
X4.234Y-5.113
X4.234Y-5.411
X4.46Y-4.886
X4.46Y-5.501
X4.483Y-4.801
X4.483Y-5.352
X4.595Y-5.669
X4.706Y-5.525
X4.711Y-4.715
X4.726Y-1.664
X4.748Y-2.281
X4.946Y-1.8875
X5.0327Y-3.071
X5.1317Y-3.072
X5.2317Y-3.071
X5.2774Y-2.2389
X5.331Y-5.669
X5.332Y-3.483
X5.5317Y-3.071
X5.7317Y-3.071
X5.8317Y-3.071
X5.9317Y-3.071
X6.052Y-3.902
X6.108Y-3.903
X6.2197Y-4.165
X6.27Y-3.7385
X6.27Y-3.948
X6.2827Y-4.165
X6.301Y-4.109
X6.304Y-3.83
X6.3294Y-4.3649
X6.3497Y-3.594
X6.415Y-3.988
X6.435Y-2.118
X6.435Y-2.214
X6.437Y-2.722
X6.461Y-4.228
X6.565Y-4.144
X6.565Y-4.277
X6.602Y-2.722
X6.767Y-2.722
X6.7791Y-2.2821
X6.97Y-2.142
X6.98Y-4.95
X7.079Y-3.21
X7.122Y-2.722
X7.133Y-1.524
X7.142Y-4.95
X7.272Y-4.741
X7.28Y-5.153
X7.309Y-5.425
X7.337Y-2.142
X7.351Y-5.043
X7.3577Y-1.646
X7.3735Y-4.8575
X7.433Y-5.217
X7.483Y-4.073
X7.546Y-5.425
X7.604Y-4.833
X7.61Y-1.107
X7.612Y-5.143
X7.672Y-4.92
X7.684Y-5.258
X7.717Y-4.073
X7.742Y-5.757
X7.79Y-5.757
X7.7964Y-0.9974
X7.851Y-4.14
X8.239Y-2.005
X8.497Y-2.773
T3
X7.285Y-1.994
X7.527Y-1.994
T4
X4.854Y-2.783
T5
X3.68Y-4.5908
X3.68Y-4.6774
X3.68Y-4.764
X3.68Y-4.89
X3.68Y-5.3908
X3.68Y-5.4774
X3.68Y-5.564
X3.68Y-5.69
X3.806Y-4.5908
X3.806Y-4.6774
X3.806Y-4.764
X3.806Y-4.89
X3.806Y-5.3908
X3.806Y-5.4774
X3.806Y-5.564
X3.806Y-5.69
T6
X7.8392Y-2.7026
X7.8593Y-1.9
X7.9179Y-2.7026
X7.9292Y-3.4686
X7.938Y-1.9
X8.0079Y-3.4686
X8.2345Y-3.4686
X8.3132Y-3.4686
X8.5Y-3.962
X8.5787Y-3.962
X8.7313Y-3.962
X8.81Y-3.962
X8.82Y-1.63
X8.82Y-1.8269
X8.82Y-2.0751
X8.82Y-2.272
T7
X6.1595Y-1.1371
X6.1595Y-1.2158
X6.2595Y-1.1371
X6.2595Y-1.2158
T8
X7.1252Y-1.2266
X7.2152Y-1.2266
X7.2552Y-0.9666
X7.2952Y-1.0366
X7.3352Y-0.9666
X7.3752Y-1.0366
X7.4152Y-0.9666
X7.4552Y-1.0366
X7.4952Y-0.9666
X7.5352Y-1.0366
X7.5752Y-1.2266
X7.6652Y-1.2266
T9
X6.7599Y-1.2437
X6.7599Y-1.3224
X6.7599Y-1.4012
X6.7599Y-1.4799
T10
X3.3336Y-0.8946
X3.5108Y-0.8946
T12
X8.387Y-1.054
X8.587Y-1.054
T13
X3.2625Y-2.358
X3.2625Y-2.458
X3.3625Y-2.358
X3.3625Y-2.458
X3.4625Y-2.358
X3.4625Y-2.458
X3.5621Y-2.0971
X3.5625Y-2.358
X3.5625Y-2.458
X3.6621Y-2.0971
X3.6625Y-2.358
X3.6625Y-2.458
X3.7621Y-2.0971
X3.7625Y-2.358
X3.7625Y-2.458
X3.8625Y-2.358
X3.8625Y-2.458
X3.9625Y-2.358
X3.9625Y-2.458
X4.0625Y-2.358
X4.0625Y-2.458
X4.1625Y-2.358
X4.1625Y-2.458
X5.032Y-3.29
X5.132Y-3.29
X5.232Y-3.29
X5.332Y-3.29
X5.432Y-3.29
X5.532Y-3.29
X5.632Y-3.29
X5.732Y-3.29
X5.832Y-3.29
X5.932Y-3.29
T14
X3.2844Y-0.9926
X3.5604Y-0.9926
X3.8613Y-1.2429
X3.9598Y-1.3413
X4.0582Y-0.8492
X4.1566Y-1.2429
X4.255Y-0.8492
X4.3535Y-1.3413
X4.4519Y-1.2429
X4.7276Y-1.243
X4.8261Y-1.3414
X4.9245Y-0.8493
X5.0229Y-1.243
X5.1213Y-0.8493
X5.2198Y-1.3414
X5.3182Y-1.243
T15
X6.6528Y-1.215
X6.6528Y-1.4906
X6.867Y-1.215
X6.867Y-1.4906
T16
X2.807Y-3.1285
X2.807Y-3.7675
X2.807Y-4.2388
X2.807Y-4.8778
X2.807Y-5.0341
X2.807Y-5.6731
X3.057Y-3.1285
X3.057Y-3.7675
X3.057Y-4.2388
X3.057Y-4.8778
X3.057Y-5.0341
X3.057Y-5.6731
X3.307Y-3.1285
X3.307Y-3.7675
X3.307Y-4.2388
X3.307Y-4.8778
X3.307Y-5.0341
X3.307Y-5.6731
X8.1965Y-4.239
X8.1965Y-4.878
X8.1965Y-5.034
X8.1965Y-5.673
X8.4465Y-4.239
X8.4465Y-4.878
X8.4465Y-5.034
X8.4465Y-5.673
X8.6965Y-4.239
X8.6965Y-4.878
X8.6965Y-5.034
X8.6965Y-5.673
T17
X7.0752Y-1.0016
X7.7152Y-1.0016
T18
X8.2336Y-2.5211
X8.3895Y-2.5211
T19
X5.9733Y-1.0308
X6.4457Y-1.0308
T20
X3.8613Y-1.046
X4.4519Y-1.046
X4.7276Y-1.0461
X5.3182Y-1.0461
T21
X7.1452Y-0.8666
X7.6452Y-0.8666
T11
X7.9481Y-1.1327G85X7.9481Y-1.2115
G05
X8.1725Y-1.054G85X8.0937Y-1.054
G05
X8.1823Y-1.2903G85X8.0839Y-1.2903
G05
T0
M30
