G04 #@! TF.GenerationSoftware,KiCad,Pcbnew,(5.0.2)-1*
G04 #@! TF.CreationDate,2019-03-28T12:39:04+01:00*
G04 #@! TF.ProjectId,bottom-board,626f7474-6f6d-42d6-926f-6172642e6b69,rev?*
G04 #@! TF.SameCoordinates,PX48111b4PY15fd6c8*
G04 #@! TF.FileFunction,Drawing*
%FSLAX46Y46*%
G04 Gerber Fmt 4.6, Leading zero omitted, Abs format (unit mm)*
G04 Created by KiCad (PCBNEW (5.0.2)-1) date 28-3-2019 12:39:04*
%MOMM*%
%LPD*%
G01*
G04 APERTURE LIST*
%ADD10C,0.100000*%
%ADD11C,0.150000*%
%ADD12C,0.300000*%
%ADD13C,0.400000*%
G04 APERTURE END LIST*
D10*
D11*
X101434660Y-142949080D02*
X101434660Y-174949080D01*
X209434660Y-174949080D01*
X209434660Y-142949080D01*
X101434660Y-142949080D01*
D10*
D11*
X-65567540Y13058120D02*
X-65567540Y-176949080D01*
X211434660Y-176949080D01*
X211434660Y13058120D01*
X-65567540Y13058120D01*
D10*
D11*
X-63567540Y11058120D02*
X-63567540Y-174949080D01*
X209434660Y-174949080D01*
X209434660Y11058120D01*
X-63567540Y11058120D01*
D10*
D11*
X-15567540Y11058120D02*
X-15567540Y13058120D01*
D10*
D11*
X34432460Y11058120D02*
X34432460Y13058120D01*
D10*
D11*
X84432460Y11058120D02*
X84432460Y13058120D01*
D10*
D11*
X134432460Y11058120D02*
X134432460Y13058120D01*
D10*
D11*
X184432460Y11058120D02*
X184432460Y13058120D01*
D10*
D11*
X-39502064Y11470025D02*
X-40244921Y11470025D01*
X-39873493Y11470025D02*
X-39873493Y12770025D01*
X-39997302Y12584311D01*
X-40121112Y12460501D01*
X-40244921Y12398597D01*
D10*
D11*
X9755079Y12646216D02*
X9816983Y12708120D01*
X9940793Y12770025D01*
X10250317Y12770025D01*
X10374126Y12708120D01*
X10436031Y12646216D01*
X10497936Y12522406D01*
X10497936Y12398597D01*
X10436031Y12212882D01*
X9693174Y11470025D01*
X10497936Y11470025D01*
D10*
D11*
X59693174Y12770025D02*
X60497936Y12770025D01*
X60064602Y12274787D01*
X60250317Y12274787D01*
X60374126Y12212882D01*
X60436031Y12150978D01*
X60497936Y12027168D01*
X60497936Y11717644D01*
X60436031Y11593835D01*
X60374126Y11531930D01*
X60250317Y11470025D01*
X59878888Y11470025D01*
X59755079Y11531930D01*
X59693174Y11593835D01*
D10*
D11*
X110374126Y12336692D02*
X110374126Y11470025D01*
X110064602Y12831930D02*
X109755079Y11903359D01*
X110559840Y11903359D01*
D10*
D11*
X160436031Y12770025D02*
X159816983Y12770025D01*
X159755079Y12150978D01*
X159816983Y12212882D01*
X159940793Y12274787D01*
X160250317Y12274787D01*
X160374126Y12212882D01*
X160436031Y12150978D01*
X160497936Y12027168D01*
X160497936Y11717644D01*
X160436031Y11593835D01*
X160374126Y11531930D01*
X160250317Y11470025D01*
X159940793Y11470025D01*
X159816983Y11531930D01*
X159755079Y11593835D01*
D10*
D11*
X210374126Y12770025D02*
X210126507Y12770025D01*
X210002698Y12708120D01*
X209940793Y12646216D01*
X209816983Y12460501D01*
X209755079Y12212882D01*
X209755079Y11717644D01*
X209816983Y11593835D01*
X209878888Y11531930D01*
X210002698Y11470025D01*
X210250317Y11470025D01*
X210374126Y11531930D01*
X210436031Y11593835D01*
X210497936Y11717644D01*
X210497936Y12027168D01*
X210436031Y12150978D01*
X210374126Y12212882D01*
X210250317Y12274787D01*
X210002698Y12274787D01*
X209878888Y12212882D01*
X209816983Y12150978D01*
X209755079Y12027168D01*
D10*
D11*
X-15567540Y-174949080D02*
X-15567540Y-176949080D01*
D10*
D11*
X34432460Y-174949080D02*
X34432460Y-176949080D01*
D10*
D11*
X84432460Y-174949080D02*
X84432460Y-176949080D01*
D10*
D11*
X134432460Y-174949080D02*
X134432460Y-176949080D01*
D10*
D11*
X184432460Y-174949080D02*
X184432460Y-176949080D01*
D10*
D11*
X-39502064Y-176537175D02*
X-40244921Y-176537175D01*
X-39873493Y-176537175D02*
X-39873493Y-175237175D01*
X-39997302Y-175422889D01*
X-40121112Y-175546699D01*
X-40244921Y-175608603D01*
D10*
D11*
X9755079Y-175360984D02*
X9816983Y-175299080D01*
X9940793Y-175237175D01*
X10250317Y-175237175D01*
X10374126Y-175299080D01*
X10436031Y-175360984D01*
X10497936Y-175484794D01*
X10497936Y-175608603D01*
X10436031Y-175794318D01*
X9693174Y-176537175D01*
X10497936Y-176537175D01*
D10*
D11*
X59693174Y-175237175D02*
X60497936Y-175237175D01*
X60064602Y-175732413D01*
X60250317Y-175732413D01*
X60374126Y-175794318D01*
X60436031Y-175856222D01*
X60497936Y-175980032D01*
X60497936Y-176289556D01*
X60436031Y-176413365D01*
X60374126Y-176475270D01*
X60250317Y-176537175D01*
X59878888Y-176537175D01*
X59755079Y-176475270D01*
X59693174Y-176413365D01*
D10*
D11*
X110374126Y-175670508D02*
X110374126Y-176537175D01*
X110064602Y-175175270D02*
X109755079Y-176103841D01*
X110559840Y-176103841D01*
D10*
D11*
X160436031Y-175237175D02*
X159816983Y-175237175D01*
X159755079Y-175856222D01*
X159816983Y-175794318D01*
X159940793Y-175732413D01*
X160250317Y-175732413D01*
X160374126Y-175794318D01*
X160436031Y-175856222D01*
X160497936Y-175980032D01*
X160497936Y-176289556D01*
X160436031Y-176413365D01*
X160374126Y-176475270D01*
X160250317Y-176537175D01*
X159940793Y-176537175D01*
X159816983Y-176475270D01*
X159755079Y-176413365D01*
D10*
D11*
X210374126Y-175237175D02*
X210126507Y-175237175D01*
X210002698Y-175299080D01*
X209940793Y-175360984D01*
X209816983Y-175546699D01*
X209755079Y-175794318D01*
X209755079Y-176289556D01*
X209816983Y-176413365D01*
X209878888Y-176475270D01*
X210002698Y-176537175D01*
X210250317Y-176537175D01*
X210374126Y-176475270D01*
X210436031Y-176413365D01*
X210497936Y-176289556D01*
X210497936Y-175980032D01*
X210436031Y-175856222D01*
X210374126Y-175794318D01*
X210250317Y-175732413D01*
X210002698Y-175732413D01*
X209878888Y-175794318D01*
X209816983Y-175856222D01*
X209755079Y-175980032D01*
D10*
D11*
X-65567540Y-36941880D02*
X-63567540Y-36941880D01*
D10*
D11*
X-65567540Y-86941880D02*
X-63567540Y-86941880D01*
D10*
D11*
X-65567540Y-136941880D02*
X-63567540Y-136941880D01*
D10*
D11*
X-64877064Y-12158546D02*
X-64258017Y-12158546D01*
X-65000874Y-12529975D02*
X-64567540Y-11229975D01*
X-64134207Y-12529975D01*
D10*
D11*
X-64474683Y-61849022D02*
X-64288969Y-61910927D01*
X-64227064Y-61972832D01*
X-64165160Y-62096641D01*
X-64165160Y-62282356D01*
X-64227064Y-62406165D01*
X-64288969Y-62468070D01*
X-64412779Y-62529975D01*
X-64908017Y-62529975D01*
X-64908017Y-61229975D01*
X-64474683Y-61229975D01*
X-64350874Y-61291880D01*
X-64288969Y-61353784D01*
X-64227064Y-61477594D01*
X-64227064Y-61601403D01*
X-64288969Y-61725213D01*
X-64350874Y-61787118D01*
X-64474683Y-61849022D01*
X-64908017Y-61849022D01*
D10*
D11*
X-64165160Y-112406165D02*
X-64227064Y-112468070D01*
X-64412779Y-112529975D01*
X-64536588Y-112529975D01*
X-64722302Y-112468070D01*
X-64846112Y-112344260D01*
X-64908017Y-112220451D01*
X-64969921Y-111972832D01*
X-64969921Y-111787118D01*
X-64908017Y-111539499D01*
X-64846112Y-111415689D01*
X-64722302Y-111291880D01*
X-64536588Y-111229975D01*
X-64412779Y-111229975D01*
X-64227064Y-111291880D01*
X-64165160Y-111353784D01*
D10*
D11*
X-64908017Y-162529975D02*
X-64908017Y-161229975D01*
X-64598493Y-161229975D01*
X-64412779Y-161291880D01*
X-64288969Y-161415689D01*
X-64227064Y-161539499D01*
X-64165160Y-161787118D01*
X-64165160Y-161972832D01*
X-64227064Y-162220451D01*
X-64288969Y-162344260D01*
X-64412779Y-162468070D01*
X-64598493Y-162529975D01*
X-64908017Y-162529975D01*
D10*
D11*
X211434660Y-36941880D02*
X209434660Y-36941880D01*
D10*
D11*
X211434660Y-86941880D02*
X209434660Y-86941880D01*
D10*
D11*
X211434660Y-136941880D02*
X209434660Y-136941880D01*
D10*
D11*
X210125136Y-12158546D02*
X210744183Y-12158546D01*
X210001326Y-12529975D02*
X210434660Y-11229975D01*
X210867993Y-12529975D01*
D10*
D11*
X210527517Y-61849022D02*
X210713231Y-61910927D01*
X210775136Y-61972832D01*
X210837040Y-62096641D01*
X210837040Y-62282356D01*
X210775136Y-62406165D01*
X210713231Y-62468070D01*
X210589421Y-62529975D01*
X210094183Y-62529975D01*
X210094183Y-61229975D01*
X210527517Y-61229975D01*
X210651326Y-61291880D01*
X210713231Y-61353784D01*
X210775136Y-61477594D01*
X210775136Y-61601403D01*
X210713231Y-61725213D01*
X210651326Y-61787118D01*
X210527517Y-61849022D01*
X210094183Y-61849022D01*
D10*
D11*
X210837040Y-112406165D02*
X210775136Y-112468070D01*
X210589421Y-112529975D01*
X210465612Y-112529975D01*
X210279898Y-112468070D01*
X210156088Y-112344260D01*
X210094183Y-112220451D01*
X210032279Y-111972832D01*
X210032279Y-111787118D01*
X210094183Y-111539499D01*
X210156088Y-111415689D01*
X210279898Y-111291880D01*
X210465612Y-111229975D01*
X210589421Y-111229975D01*
X210775136Y-111291880D01*
X210837040Y-111353784D01*
D10*
D11*
X210094183Y-162529975D02*
X210094183Y-161229975D01*
X210403707Y-161229975D01*
X210589421Y-161291880D01*
X210713231Y-161415689D01*
X210775136Y-161539499D01*
X210837040Y-161787118D01*
X210837040Y-161972832D01*
X210775136Y-162220451D01*
X210713231Y-162344260D01*
X210589421Y-162468070D01*
X210403707Y-162529975D01*
X210094183Y-162529975D01*
D10*
D11*
X124866802Y-170727651D02*
X124866802Y-169227651D01*
X125223945Y-169227651D01*
X125438231Y-169299080D01*
X125581088Y-169441937D01*
X125652517Y-169584794D01*
X125723945Y-169870508D01*
X125723945Y-170084794D01*
X125652517Y-170370508D01*
X125581088Y-170513365D01*
X125438231Y-170656222D01*
X125223945Y-170727651D01*
X124866802Y-170727651D01*
X127009660Y-170727651D02*
X127009660Y-169941937D01*
X126938231Y-169799080D01*
X126795374Y-169727651D01*
X126509660Y-169727651D01*
X126366802Y-169799080D01*
X127009660Y-170656222D02*
X126866802Y-170727651D01*
X126509660Y-170727651D01*
X126366802Y-170656222D01*
X126295374Y-170513365D01*
X126295374Y-170370508D01*
X126366802Y-170227651D01*
X126509660Y-170156222D01*
X126866802Y-170156222D01*
X127009660Y-170084794D01*
X127509660Y-169727651D02*
X128081088Y-169727651D01*
X127723945Y-169227651D02*
X127723945Y-170513365D01*
X127795374Y-170656222D01*
X127938231Y-170727651D01*
X128081088Y-170727651D01*
X129152517Y-170656222D02*
X129009660Y-170727651D01*
X128723945Y-170727651D01*
X128581088Y-170656222D01*
X128509660Y-170513365D01*
X128509660Y-169941937D01*
X128581088Y-169799080D01*
X128723945Y-169727651D01*
X129009660Y-169727651D01*
X129152517Y-169799080D01*
X129223945Y-169941937D01*
X129223945Y-170084794D01*
X128509660Y-170227651D01*
X129866802Y-170584794D02*
X129938231Y-170656222D01*
X129866802Y-170727651D01*
X129795374Y-170656222D01*
X129866802Y-170584794D01*
X129866802Y-170727651D01*
X129866802Y-169799080D02*
X129938231Y-169870508D01*
X129866802Y-169941937D01*
X129795374Y-169870508D01*
X129866802Y-169799080D01*
X129866802Y-169941937D01*
D10*
D11*
X101434660Y-171449080D02*
X209434660Y-171449080D01*
D10*
D11*
X102866802Y-173527651D02*
X102866802Y-172027651D01*
X103723945Y-173527651D02*
X103081088Y-172670508D01*
X103723945Y-172027651D02*
X102866802Y-172884794D01*
X104366802Y-173527651D02*
X104366802Y-172527651D01*
X104366802Y-172027651D02*
X104295374Y-172099080D01*
X104366802Y-172170508D01*
X104438231Y-172099080D01*
X104366802Y-172027651D01*
X104366802Y-172170508D01*
X105938231Y-173384794D02*
X105866802Y-173456222D01*
X105652517Y-173527651D01*
X105509660Y-173527651D01*
X105295374Y-173456222D01*
X105152517Y-173313365D01*
X105081088Y-173170508D01*
X105009660Y-172884794D01*
X105009660Y-172670508D01*
X105081088Y-172384794D01*
X105152517Y-172241937D01*
X105295374Y-172099080D01*
X105509660Y-172027651D01*
X105652517Y-172027651D01*
X105866802Y-172099080D01*
X105938231Y-172170508D01*
X107223945Y-173527651D02*
X107223945Y-172741937D01*
X107152517Y-172599080D01*
X107009660Y-172527651D01*
X106723945Y-172527651D01*
X106581088Y-172599080D01*
X107223945Y-173456222D02*
X107081088Y-173527651D01*
X106723945Y-173527651D01*
X106581088Y-173456222D01*
X106509660Y-173313365D01*
X106509660Y-173170508D01*
X106581088Y-173027651D01*
X106723945Y-172956222D01*
X107081088Y-172956222D01*
X107223945Y-172884794D01*
X108581088Y-173527651D02*
X108581088Y-172027651D01*
X108581088Y-173456222D02*
X108438231Y-173527651D01*
X108152517Y-173527651D01*
X108009660Y-173456222D01*
X107938231Y-173384794D01*
X107866802Y-173241937D01*
X107866802Y-172813365D01*
X107938231Y-172670508D01*
X108009660Y-172599080D01*
X108152517Y-172527651D01*
X108438231Y-172527651D01*
X108581088Y-172599080D01*
X110438231Y-172741937D02*
X110938231Y-172741937D01*
X111152517Y-173527651D02*
X110438231Y-173527651D01*
X110438231Y-172027651D01*
X111152517Y-172027651D01*
X111795374Y-173384794D02*
X111866802Y-173456222D01*
X111795374Y-173527651D01*
X111723945Y-173456222D01*
X111795374Y-173384794D01*
X111795374Y-173527651D01*
X112509660Y-173527651D02*
X112509660Y-172027651D01*
X112866802Y-172027651D01*
X113081088Y-172099080D01*
X113223945Y-172241937D01*
X113295374Y-172384794D01*
X113366802Y-172670508D01*
X113366802Y-172884794D01*
X113295374Y-173170508D01*
X113223945Y-173313365D01*
X113081088Y-173456222D01*
X112866802Y-173527651D01*
X112509660Y-173527651D01*
X114009660Y-173384794D02*
X114081088Y-173456222D01*
X114009660Y-173527651D01*
X113938231Y-173456222D01*
X114009660Y-173384794D01*
X114009660Y-173527651D01*
X114652517Y-173099080D02*
X115366802Y-173099080D01*
X114509660Y-173527651D02*
X115009660Y-172027651D01*
X115509660Y-173527651D01*
X116009660Y-173384794D02*
X116081088Y-173456222D01*
X116009660Y-173527651D01*
X115938231Y-173456222D01*
X116009660Y-173384794D01*
X116009660Y-173527651D01*
X119009660Y-173527651D02*
X119009660Y-172027651D01*
X119152517Y-172956222D02*
X119581088Y-173527651D01*
X119581088Y-172527651D02*
X119009660Y-173099080D01*
X120223945Y-173527651D02*
X120223945Y-172527651D01*
X120223945Y-172027651D02*
X120152517Y-172099080D01*
X120223945Y-172170508D01*
X120295374Y-172099080D01*
X120223945Y-172027651D01*
X120223945Y-172170508D01*
X121581088Y-173456222D02*
X121438231Y-173527651D01*
X121152517Y-173527651D01*
X121009660Y-173456222D01*
X120938231Y-173384794D01*
X120866802Y-173241937D01*
X120866802Y-172813365D01*
X120938231Y-172670508D01*
X121009660Y-172599080D01*
X121152517Y-172527651D01*
X121438231Y-172527651D01*
X121581088Y-172599080D01*
X122866802Y-173527651D02*
X122866802Y-172741937D01*
X122795374Y-172599080D01*
X122652517Y-172527651D01*
X122366802Y-172527651D01*
X122223945Y-172599080D01*
X122866802Y-173456222D02*
X122723945Y-173527651D01*
X122366802Y-173527651D01*
X122223945Y-173456222D01*
X122152517Y-173313365D01*
X122152517Y-173170508D01*
X122223945Y-173027651D01*
X122366802Y-172956222D01*
X122723945Y-172956222D01*
X122866802Y-172884794D01*
X124223945Y-173527651D02*
X124223945Y-172027651D01*
X124223945Y-173456222D02*
X124081088Y-173527651D01*
X123795374Y-173527651D01*
X123652517Y-173456222D01*
X123581088Y-173384794D01*
X123509660Y-173241937D01*
X123509660Y-172813365D01*
X123581088Y-172670508D01*
X123652517Y-172599080D01*
X123795374Y-172527651D01*
X124081088Y-172527651D01*
X124223945Y-172599080D01*
X126509660Y-174099080D02*
X126438231Y-174027651D01*
X126295374Y-173813365D01*
X126223945Y-173670508D01*
X126152517Y-173456222D01*
X126081088Y-173099080D01*
X126081088Y-172813365D01*
X126152517Y-172456222D01*
X126223945Y-172241937D01*
X126295374Y-172099080D01*
X126438231Y-171884794D01*
X126509660Y-171813365D01*
X127795374Y-172027651D02*
X127081088Y-172027651D01*
X127009660Y-172741937D01*
X127081088Y-172670508D01*
X127223945Y-172599080D01*
X127581088Y-172599080D01*
X127723945Y-172670508D01*
X127795374Y-172741937D01*
X127866802Y-172884794D01*
X127866802Y-173241937D01*
X127795374Y-173384794D01*
X127723945Y-173456222D01*
X127581088Y-173527651D01*
X127223945Y-173527651D01*
X127081088Y-173456222D01*
X127009660Y-173384794D01*
X128509660Y-173384794D02*
X128581088Y-173456222D01*
X128509660Y-173527651D01*
X128438231Y-173456222D01*
X128509660Y-173384794D01*
X128509660Y-173527651D01*
X129509660Y-172027651D02*
X129652517Y-172027651D01*
X129795374Y-172099080D01*
X129866802Y-172170508D01*
X129938231Y-172313365D01*
X130009660Y-172599080D01*
X130009660Y-172956222D01*
X129938231Y-173241937D01*
X129866802Y-173384794D01*
X129795374Y-173456222D01*
X129652517Y-173527651D01*
X129509660Y-173527651D01*
X129366802Y-173456222D01*
X129295374Y-173384794D01*
X129223945Y-173241937D01*
X129152517Y-172956222D01*
X129152517Y-172599080D01*
X129223945Y-172313365D01*
X129295374Y-172170508D01*
X129366802Y-172099080D01*
X129509660Y-172027651D01*
X130652517Y-173384794D02*
X130723945Y-173456222D01*
X130652517Y-173527651D01*
X130581088Y-173456222D01*
X130652517Y-173384794D01*
X130652517Y-173527651D01*
X131295374Y-172170508D02*
X131366802Y-172099080D01*
X131509660Y-172027651D01*
X131866802Y-172027651D01*
X132009660Y-172099080D01*
X132081088Y-172170508D01*
X132152517Y-172313365D01*
X132152517Y-172456222D01*
X132081088Y-172670508D01*
X131223945Y-173527651D01*
X132152517Y-173527651D01*
X132652517Y-174099080D02*
X132723945Y-174027651D01*
X132866802Y-173813365D01*
X132938231Y-173670508D01*
X133009660Y-173456222D01*
X133081088Y-173099080D01*
X133081088Y-172813365D01*
X133009660Y-172456222D01*
X132938231Y-172241937D01*
X132866802Y-172099080D01*
X132723945Y-171884794D01*
X132652517Y-171813365D01*
X133795374Y-172956222D02*
X134938231Y-172956222D01*
X136438231Y-173527651D02*
X135581088Y-173527651D01*
X136009660Y-173527651D02*
X136009660Y-172027651D01*
X135866802Y-172241937D01*
X135723945Y-172384794D01*
X135581088Y-172456222D01*
D10*
D11*
X101434660Y-168449080D02*
X209434660Y-168449080D01*
D10*
D12*
X188843945Y-170727651D02*
X188343945Y-170013365D01*
X187986802Y-170727651D02*
X187986802Y-169227651D01*
X188558231Y-169227651D01*
X188701088Y-169299080D01*
X188772517Y-169370508D01*
X188843945Y-169513365D01*
X188843945Y-169727651D01*
X188772517Y-169870508D01*
X188701088Y-169941937D01*
X188558231Y-170013365D01*
X187986802Y-170013365D01*
X190058231Y-170656222D02*
X189915374Y-170727651D01*
X189629660Y-170727651D01*
X189486802Y-170656222D01*
X189415374Y-170513365D01*
X189415374Y-169941937D01*
X189486802Y-169799080D01*
X189629660Y-169727651D01*
X189915374Y-169727651D01*
X190058231Y-169799080D01*
X190129660Y-169941937D01*
X190129660Y-170084794D01*
X189415374Y-170227651D01*
X190629660Y-169727651D02*
X190986802Y-170727651D01*
X191343945Y-169727651D01*
X191915374Y-170584794D02*
X191986802Y-170656222D01*
X191915374Y-170727651D01*
X191843945Y-170656222D01*
X191915374Y-170584794D01*
X191915374Y-170727651D01*
X191915374Y-169799080D02*
X191986802Y-169870508D01*
X191915374Y-169941937D01*
X191843945Y-169870508D01*
X191915374Y-169799080D01*
X191915374Y-169941937D01*
D10*
D11*
X102795374Y-170656222D02*
X103009660Y-170727651D01*
X103366802Y-170727651D01*
X103509660Y-170656222D01*
X103581088Y-170584794D01*
X103652517Y-170441937D01*
X103652517Y-170299080D01*
X103581088Y-170156222D01*
X103509660Y-170084794D01*
X103366802Y-170013365D01*
X103081088Y-169941937D01*
X102938231Y-169870508D01*
X102866802Y-169799080D01*
X102795374Y-169656222D01*
X102795374Y-169513365D01*
X102866802Y-169370508D01*
X102938231Y-169299080D01*
X103081088Y-169227651D01*
X103438231Y-169227651D01*
X103652517Y-169299080D01*
X104295374Y-170727651D02*
X104295374Y-169727651D01*
X104295374Y-169227651D02*
X104223945Y-169299080D01*
X104295374Y-169370508D01*
X104366802Y-169299080D01*
X104295374Y-169227651D01*
X104295374Y-169370508D01*
X104866802Y-169727651D02*
X105652517Y-169727651D01*
X104866802Y-170727651D01*
X105652517Y-170727651D01*
X106795374Y-170656222D02*
X106652517Y-170727651D01*
X106366802Y-170727651D01*
X106223945Y-170656222D01*
X106152517Y-170513365D01*
X106152517Y-169941937D01*
X106223945Y-169799080D01*
X106366802Y-169727651D01*
X106652517Y-169727651D01*
X106795374Y-169799080D01*
X106866802Y-169941937D01*
X106866802Y-170084794D01*
X106152517Y-170227651D01*
X107509660Y-170584794D02*
X107581088Y-170656222D01*
X107509660Y-170727651D01*
X107438231Y-170656222D01*
X107509660Y-170584794D01*
X107509660Y-170727651D01*
X107509660Y-169799080D02*
X107581088Y-169870508D01*
X107509660Y-169941937D01*
X107438231Y-169870508D01*
X107509660Y-169799080D01*
X107509660Y-169941937D01*
X109295374Y-170299080D02*
X110009660Y-170299080D01*
X109152517Y-170727651D02*
X109652517Y-169227651D01*
X110152517Y-170727651D01*
X111295374Y-169727651D02*
X111295374Y-170727651D01*
X110938231Y-169156222D02*
X110581088Y-170227651D01*
X111509660Y-170227651D01*
D10*
D11*
X187866802Y-173527651D02*
X187866802Y-172027651D01*
X189223945Y-173527651D02*
X189223945Y-172027651D01*
X189223945Y-173456222D02*
X189081088Y-173527651D01*
X188795374Y-173527651D01*
X188652517Y-173456222D01*
X188581088Y-173384794D01*
X188509660Y-173241937D01*
X188509660Y-172813365D01*
X188581088Y-172670508D01*
X188652517Y-172599080D01*
X188795374Y-172527651D01*
X189081088Y-172527651D01*
X189223945Y-172599080D01*
X189938231Y-173384794D02*
X190009660Y-173456222D01*
X189938231Y-173527651D01*
X189866802Y-173456222D01*
X189938231Y-173384794D01*
X189938231Y-173527651D01*
X189938231Y-172599080D02*
X190009660Y-172670508D01*
X189938231Y-172741937D01*
X189866802Y-172670508D01*
X189938231Y-172599080D01*
X189938231Y-172741937D01*
X192581088Y-173527651D02*
X191723945Y-173527651D01*
X192152517Y-173527651D02*
X192152517Y-172027651D01*
X192009660Y-172241937D01*
X191866802Y-172384794D01*
X191723945Y-172456222D01*
X194295374Y-171956222D02*
X193009660Y-173884794D01*
X195581088Y-173527651D02*
X194723945Y-173527651D01*
X195152517Y-173527651D02*
X195152517Y-172027651D01*
X195009660Y-172241937D01*
X194866802Y-172384794D01*
X194723945Y-172456222D01*
D10*
D11*
X101434660Y-164449080D02*
X209434660Y-164449080D01*
D10*
D13*
X103147040Y-165153841D02*
X104289898Y-165153841D01*
X103468469Y-167153841D02*
X103718469Y-165153841D01*
X104706564Y-167153841D02*
X104873231Y-165820508D01*
X104956564Y-165153841D02*
X104849421Y-165249080D01*
X104932755Y-165344318D01*
X105039898Y-165249080D01*
X104956564Y-165153841D01*
X104932755Y-165344318D01*
X105539898Y-165820508D02*
X106301802Y-165820508D01*
X105908945Y-165153841D02*
X105694660Y-166868127D01*
X105766088Y-167058603D01*
X105944660Y-167153841D01*
X106135136Y-167153841D01*
X107087517Y-167153841D02*
X106908945Y-167058603D01*
X106837517Y-166868127D01*
X107051802Y-165153841D01*
X108623231Y-167058603D02*
X108420850Y-167153841D01*
X108039898Y-167153841D01*
X107861326Y-167058603D01*
X107789898Y-166868127D01*
X107885136Y-166106222D01*
X108004183Y-165915746D01*
X108206564Y-165820508D01*
X108587517Y-165820508D01*
X108766088Y-165915746D01*
X108837517Y-166106222D01*
X108813707Y-166296699D01*
X107837517Y-166487175D01*
X109587517Y-166963365D02*
X109670850Y-167058603D01*
X109563707Y-167153841D01*
X109480374Y-167058603D01*
X109587517Y-166963365D01*
X109563707Y-167153841D01*
X109718469Y-165915746D02*
X109801802Y-166010984D01*
X109694660Y-166106222D01*
X109611326Y-166010984D01*
X109718469Y-165915746D01*
X109694660Y-166106222D01*
X112039898Y-167153841D02*
X112289898Y-165153841D01*
X112194660Y-165915746D02*
X112397040Y-165820508D01*
X112777993Y-165820508D01*
X112956564Y-165915746D01*
X113039898Y-166010984D01*
X113111326Y-166201460D01*
X113039898Y-166772889D01*
X112920850Y-166963365D01*
X112813707Y-167058603D01*
X112611326Y-167153841D01*
X112230374Y-167153841D01*
X112051802Y-167058603D01*
X114135136Y-167153841D02*
X113956564Y-167058603D01*
X113873231Y-166963365D01*
X113801802Y-166772889D01*
X113873231Y-166201460D01*
X113992279Y-166010984D01*
X114099421Y-165915746D01*
X114301802Y-165820508D01*
X114587517Y-165820508D01*
X114766088Y-165915746D01*
X114849421Y-166010984D01*
X114920850Y-166201460D01*
X114849421Y-166772889D01*
X114730374Y-166963365D01*
X114623231Y-167058603D01*
X114420850Y-167153841D01*
X114135136Y-167153841D01*
X115539898Y-165820508D02*
X116301802Y-165820508D01*
X115908945Y-165153841D02*
X115694660Y-166868127D01*
X115766088Y-167058603D01*
X115944660Y-167153841D01*
X116135136Y-167153841D01*
X116682755Y-165820508D02*
X117444660Y-165820508D01*
X117051802Y-165153841D02*
X116837517Y-166868127D01*
X116908945Y-167058603D01*
X117087517Y-167153841D01*
X117277993Y-167153841D01*
X118230374Y-167153841D02*
X118051802Y-167058603D01*
X117968469Y-166963365D01*
X117897040Y-166772889D01*
X117968469Y-166201460D01*
X118087517Y-166010984D01*
X118194660Y-165915746D01*
X118397040Y-165820508D01*
X118682755Y-165820508D01*
X118861326Y-165915746D01*
X118944660Y-166010984D01*
X119016088Y-166201460D01*
X118944660Y-166772889D01*
X118825612Y-166963365D01*
X118718469Y-167058603D01*
X118516088Y-167153841D01*
X118230374Y-167153841D01*
X119754183Y-167153841D02*
X119920850Y-165820508D01*
X119897040Y-166010984D02*
X120004183Y-165915746D01*
X120206564Y-165820508D01*
X120492279Y-165820508D01*
X120670850Y-165915746D01*
X120742279Y-166106222D01*
X120611326Y-167153841D01*
X120742279Y-166106222D02*
X120861326Y-165915746D01*
X121063707Y-165820508D01*
X121349421Y-165820508D01*
X121527993Y-165915746D01*
X121599421Y-166106222D01*
X121468469Y-167153841D01*
X123944660Y-167153841D02*
X124194660Y-165153841D01*
X124099421Y-165915746D02*
X124301802Y-165820508D01*
X124682755Y-165820508D01*
X124861326Y-165915746D01*
X124944660Y-166010984D01*
X125016088Y-166201460D01*
X124944660Y-166772889D01*
X124825612Y-166963365D01*
X124718469Y-167058603D01*
X124516088Y-167153841D01*
X124135136Y-167153841D01*
X123956564Y-167058603D01*
X126039898Y-167153841D02*
X125861326Y-167058603D01*
X125777993Y-166963365D01*
X125706564Y-166772889D01*
X125777993Y-166201460D01*
X125897040Y-166010984D01*
X126004183Y-165915746D01*
X126206564Y-165820508D01*
X126492279Y-165820508D01*
X126670850Y-165915746D01*
X126754183Y-166010984D01*
X126825612Y-166201460D01*
X126754183Y-166772889D01*
X126635136Y-166963365D01*
X126527993Y-167058603D01*
X126325612Y-167153841D01*
X126039898Y-167153841D01*
X128420850Y-167153841D02*
X128551802Y-166106222D01*
X128480374Y-165915746D01*
X128301802Y-165820508D01*
X127920850Y-165820508D01*
X127718469Y-165915746D01*
X128432755Y-167058603D02*
X128230374Y-167153841D01*
X127754183Y-167153841D01*
X127575612Y-167058603D01*
X127504183Y-166868127D01*
X127527993Y-166677651D01*
X127647040Y-166487175D01*
X127849421Y-166391937D01*
X128325612Y-166391937D01*
X128527993Y-166296699D01*
X129373231Y-167153841D02*
X129539898Y-165820508D01*
X129492279Y-166201460D02*
X129611326Y-166010984D01*
X129718469Y-165915746D01*
X129920850Y-165820508D01*
X130111326Y-165820508D01*
X131468469Y-167153841D02*
X131718469Y-165153841D01*
X131480374Y-167058603D02*
X131277993Y-167153841D01*
X130897040Y-167153841D01*
X130718469Y-167058603D01*
X130635136Y-166963365D01*
X130563707Y-166772889D01*
X130635136Y-166201460D01*
X130754183Y-166010984D01*
X130861326Y-165915746D01*
X131063707Y-165820508D01*
X131444660Y-165820508D01*
X131623231Y-165915746D01*
D10*
D11*
X103366802Y-162541937D02*
X102866802Y-162541937D01*
X102866802Y-163327651D02*
X102866802Y-161827651D01*
X103581088Y-161827651D01*
X104152517Y-163327651D02*
X104152517Y-162327651D01*
X104152517Y-161827651D02*
X104081088Y-161899080D01*
X104152517Y-161970508D01*
X104223945Y-161899080D01*
X104152517Y-161827651D01*
X104152517Y-161970508D01*
X105081088Y-163327651D02*
X104938231Y-163256222D01*
X104866802Y-163113365D01*
X104866802Y-161827651D01*
X106223945Y-163256222D02*
X106081088Y-163327651D01*
X105795374Y-163327651D01*
X105652517Y-163256222D01*
X105581088Y-163113365D01*
X105581088Y-162541937D01*
X105652517Y-162399080D01*
X105795374Y-162327651D01*
X106081088Y-162327651D01*
X106223945Y-162399080D01*
X106295374Y-162541937D01*
X106295374Y-162684794D01*
X105581088Y-162827651D01*
X106938231Y-163184794D02*
X107009660Y-163256222D01*
X106938231Y-163327651D01*
X106866802Y-163256222D01*
X106938231Y-163184794D01*
X106938231Y-163327651D01*
X106938231Y-162399080D02*
X107009660Y-162470508D01*
X106938231Y-162541937D01*
X106866802Y-162470508D01*
X106938231Y-162399080D01*
X106938231Y-162541937D01*
X108795374Y-163327651D02*
X108795374Y-161827651D01*
X108795374Y-162399080D02*
X108938231Y-162327651D01*
X109223945Y-162327651D01*
X109366802Y-162399080D01*
X109438231Y-162470508D01*
X109509660Y-162613365D01*
X109509660Y-163041937D01*
X109438231Y-163184794D01*
X109366802Y-163256222D01*
X109223945Y-163327651D01*
X108938231Y-163327651D01*
X108795374Y-163256222D01*
X110366802Y-163327651D02*
X110223945Y-163256222D01*
X110152517Y-163184794D01*
X110081088Y-163041937D01*
X110081088Y-162613365D01*
X110152517Y-162470508D01*
X110223945Y-162399080D01*
X110366802Y-162327651D01*
X110581088Y-162327651D01*
X110723945Y-162399080D01*
X110795374Y-162470508D01*
X110866802Y-162613365D01*
X110866802Y-163041937D01*
X110795374Y-163184794D01*
X110723945Y-163256222D01*
X110581088Y-163327651D01*
X110366802Y-163327651D01*
X111295374Y-162327651D02*
X111866802Y-162327651D01*
X111509660Y-161827651D02*
X111509660Y-163113365D01*
X111581088Y-163256222D01*
X111723945Y-163327651D01*
X111866802Y-163327651D01*
X112152517Y-162327651D02*
X112723945Y-162327651D01*
X112366802Y-161827651D02*
X112366802Y-163113365D01*
X112438231Y-163256222D01*
X112581088Y-163327651D01*
X112723945Y-163327651D01*
X113438231Y-163327651D02*
X113295374Y-163256222D01*
X113223945Y-163184794D01*
X113152517Y-163041937D01*
X113152517Y-162613365D01*
X113223945Y-162470508D01*
X113295374Y-162399080D01*
X113438231Y-162327651D01*
X113652517Y-162327651D01*
X113795374Y-162399080D01*
X113866802Y-162470508D01*
X113938231Y-162613365D01*
X113938231Y-163041937D01*
X113866802Y-163184794D01*
X113795374Y-163256222D01*
X113652517Y-163327651D01*
X113438231Y-163327651D01*
X114581088Y-163327651D02*
X114581088Y-162327651D01*
X114581088Y-162470508D02*
X114652517Y-162399080D01*
X114795374Y-162327651D01*
X115009660Y-162327651D01*
X115152517Y-162399080D01*
X115223945Y-162541937D01*
X115223945Y-163327651D01*
X115223945Y-162541937D02*
X115295374Y-162399080D01*
X115438231Y-162327651D01*
X115652517Y-162327651D01*
X115795374Y-162399080D01*
X115866802Y-162541937D01*
X115866802Y-163327651D01*
X116581088Y-162756222D02*
X117723945Y-162756222D01*
X118438231Y-163327651D02*
X118438231Y-161827651D01*
X118438231Y-162399080D02*
X118581088Y-162327651D01*
X118866802Y-162327651D01*
X119009660Y-162399080D01*
X119081088Y-162470508D01*
X119152517Y-162613365D01*
X119152517Y-163041937D01*
X119081088Y-163184794D01*
X119009660Y-163256222D01*
X118866802Y-163327651D01*
X118581088Y-163327651D01*
X118438231Y-163256222D01*
X120009660Y-163327651D02*
X119866802Y-163256222D01*
X119795374Y-163184794D01*
X119723945Y-163041937D01*
X119723945Y-162613365D01*
X119795374Y-162470508D01*
X119866802Y-162399080D01*
X120009660Y-162327651D01*
X120223945Y-162327651D01*
X120366802Y-162399080D01*
X120438231Y-162470508D01*
X120509660Y-162613365D01*
X120509660Y-163041937D01*
X120438231Y-163184794D01*
X120366802Y-163256222D01*
X120223945Y-163327651D01*
X120009660Y-163327651D01*
X121795374Y-163327651D02*
X121795374Y-162541937D01*
X121723945Y-162399080D01*
X121581088Y-162327651D01*
X121295374Y-162327651D01*
X121152517Y-162399080D01*
X121795374Y-163256222D02*
X121652517Y-163327651D01*
X121295374Y-163327651D01*
X121152517Y-163256222D01*
X121081088Y-163113365D01*
X121081088Y-162970508D01*
X121152517Y-162827651D01*
X121295374Y-162756222D01*
X121652517Y-162756222D01*
X121795374Y-162684794D01*
X122509660Y-163327651D02*
X122509660Y-162327651D01*
X122509660Y-162613365D02*
X122581088Y-162470508D01*
X122652517Y-162399080D01*
X122795374Y-162327651D01*
X122938231Y-162327651D01*
X124081088Y-163327651D02*
X124081088Y-161827651D01*
X124081088Y-163256222D02*
X123938231Y-163327651D01*
X123652517Y-163327651D01*
X123509660Y-163256222D01*
X123438231Y-163184794D01*
X123366802Y-163041937D01*
X123366802Y-162613365D01*
X123438231Y-162470508D01*
X123509660Y-162399080D01*
X123652517Y-162327651D01*
X123938231Y-162327651D01*
X124081088Y-162399080D01*
X124795374Y-163184794D02*
X124866802Y-163256222D01*
X124795374Y-163327651D01*
X124723945Y-163256222D01*
X124795374Y-163184794D01*
X124795374Y-163327651D01*
X125509660Y-163327651D02*
X125509660Y-161827651D01*
X125652517Y-162756222D02*
X126081088Y-163327651D01*
X126081088Y-162327651D02*
X125509660Y-162899080D01*
X126723945Y-163327651D02*
X126723945Y-162327651D01*
X126723945Y-161827651D02*
X126652517Y-161899080D01*
X126723945Y-161970508D01*
X126795374Y-161899080D01*
X126723945Y-161827651D01*
X126723945Y-161970508D01*
X128081088Y-163256222D02*
X127938231Y-163327651D01*
X127652517Y-163327651D01*
X127509660Y-163256222D01*
X127438231Y-163184794D01*
X127366802Y-163041937D01*
X127366802Y-162613365D01*
X127438231Y-162470508D01*
X127509660Y-162399080D01*
X127652517Y-162327651D01*
X127938231Y-162327651D01*
X128081088Y-162399080D01*
X129366802Y-163327651D02*
X129366802Y-162541937D01*
X129295374Y-162399080D01*
X129152517Y-162327651D01*
X128866802Y-162327651D01*
X128723945Y-162399080D01*
X129366802Y-163256222D02*
X129223945Y-163327651D01*
X128866802Y-163327651D01*
X128723945Y-163256222D01*
X128652517Y-163113365D01*
X128652517Y-162970508D01*
X128723945Y-162827651D01*
X128866802Y-162756222D01*
X129223945Y-162756222D01*
X129366802Y-162684794D01*
X130723945Y-163327651D02*
X130723945Y-161827651D01*
X130723945Y-163256222D02*
X130581088Y-163327651D01*
X130295374Y-163327651D01*
X130152517Y-163256222D01*
X130081088Y-163184794D01*
X130009660Y-163041937D01*
X130009660Y-162613365D01*
X130081088Y-162470508D01*
X130152517Y-162399080D01*
X130295374Y-162327651D01*
X130581088Y-162327651D01*
X130723945Y-162399080D01*
X131081088Y-163470508D02*
X132223945Y-163470508D01*
X132581088Y-162327651D02*
X132581088Y-163827651D01*
X132581088Y-162399080D02*
X132723945Y-162327651D01*
X133009660Y-162327651D01*
X133152517Y-162399080D01*
X133223945Y-162470508D01*
X133295374Y-162613365D01*
X133295374Y-163041937D01*
X133223945Y-163184794D01*
X133152517Y-163256222D01*
X133009660Y-163327651D01*
X132723945Y-163327651D01*
X132581088Y-163256222D01*
X134581088Y-163256222D02*
X134438231Y-163327651D01*
X134152517Y-163327651D01*
X134009660Y-163256222D01*
X133938231Y-163184794D01*
X133866802Y-163041937D01*
X133866802Y-162613365D01*
X133938231Y-162470508D01*
X134009660Y-162399080D01*
X134152517Y-162327651D01*
X134438231Y-162327651D01*
X134581088Y-162399080D01*
X135223945Y-163327651D02*
X135223945Y-161827651D01*
X135223945Y-162399080D02*
X135366802Y-162327651D01*
X135652517Y-162327651D01*
X135795374Y-162399080D01*
X135866802Y-162470508D01*
X135938231Y-162613365D01*
X135938231Y-163041937D01*
X135866802Y-163184794D01*
X135795374Y-163256222D01*
X135652517Y-163327651D01*
X135366802Y-163327651D01*
X135223945Y-163256222D01*
D10*
D11*
X101434660Y-158449080D02*
X209434660Y-158449080D01*
D10*
D11*
X102795374Y-160556222D02*
X103009660Y-160627651D01*
X103366802Y-160627651D01*
X103509660Y-160556222D01*
X103581088Y-160484794D01*
X103652517Y-160341937D01*
X103652517Y-160199080D01*
X103581088Y-160056222D01*
X103509660Y-159984794D01*
X103366802Y-159913365D01*
X103081088Y-159841937D01*
X102938231Y-159770508D01*
X102866802Y-159699080D01*
X102795374Y-159556222D01*
X102795374Y-159413365D01*
X102866802Y-159270508D01*
X102938231Y-159199080D01*
X103081088Y-159127651D01*
X103438231Y-159127651D01*
X103652517Y-159199080D01*
X104295374Y-160627651D02*
X104295374Y-159127651D01*
X104938231Y-160627651D02*
X104938231Y-159841937D01*
X104866802Y-159699080D01*
X104723945Y-159627651D01*
X104509660Y-159627651D01*
X104366802Y-159699080D01*
X104295374Y-159770508D01*
X106223945Y-160556222D02*
X106081088Y-160627651D01*
X105795374Y-160627651D01*
X105652517Y-160556222D01*
X105581088Y-160413365D01*
X105581088Y-159841937D01*
X105652517Y-159699080D01*
X105795374Y-159627651D01*
X106081088Y-159627651D01*
X106223945Y-159699080D01*
X106295374Y-159841937D01*
X106295374Y-159984794D01*
X105581088Y-160127651D01*
X107509660Y-160556222D02*
X107366802Y-160627651D01*
X107081088Y-160627651D01*
X106938231Y-160556222D01*
X106866802Y-160413365D01*
X106866802Y-159841937D01*
X106938231Y-159699080D01*
X107081088Y-159627651D01*
X107366802Y-159627651D01*
X107509660Y-159699080D01*
X107581088Y-159841937D01*
X107581088Y-159984794D01*
X106866802Y-160127651D01*
X108009660Y-159627651D02*
X108581088Y-159627651D01*
X108223945Y-159127651D02*
X108223945Y-160413365D01*
X108295374Y-160556222D01*
X108438231Y-160627651D01*
X108581088Y-160627651D01*
X109081088Y-160484794D02*
X109152517Y-160556222D01*
X109081088Y-160627651D01*
X109009660Y-160556222D01*
X109081088Y-160484794D01*
X109081088Y-160627651D01*
X109081088Y-159699080D02*
X109152517Y-159770508D01*
X109081088Y-159841937D01*
X109009660Y-159770508D01*
X109081088Y-159699080D01*
X109081088Y-159841937D01*
D10*
D12*
X102986802Y-157627651D02*
X102986802Y-156127651D01*
X103486802Y-157199080D01*
X103986802Y-156127651D01*
X103986802Y-157627651D01*
X104986802Y-156127651D02*
X105272517Y-156127651D01*
X105415374Y-156199080D01*
X105558231Y-156341937D01*
X105629660Y-156627651D01*
X105629660Y-157127651D01*
X105558231Y-157413365D01*
X105415374Y-157556222D01*
X105272517Y-157627651D01*
X104986802Y-157627651D01*
X104843945Y-157556222D01*
X104701088Y-157413365D01*
X104629660Y-157127651D01*
X104629660Y-156627651D01*
X104701088Y-156341937D01*
X104843945Y-156199080D01*
X104986802Y-156127651D01*
X106272517Y-157627651D02*
X106272517Y-156127651D01*
X106629660Y-156127651D01*
X106843945Y-156199080D01*
X106986802Y-156341937D01*
X107058231Y-156484794D01*
X107129660Y-156770508D01*
X107129660Y-156984794D01*
X107058231Y-157270508D01*
X106986802Y-157413365D01*
X106843945Y-157556222D01*
X106629660Y-157627651D01*
X106272517Y-157627651D01*
D10*
D11*
X121434660Y-168449080D02*
X121434660Y-171449080D01*
D10*
D11*
X185434660Y-168449080D02*
X185434660Y-174949080D01*
D12*
X34624337Y-58002540D02*
X34624337Y-57716825D01*
X34552909Y-57573968D01*
X34481480Y-57502540D01*
X34267194Y-57359682D01*
X33981480Y-57288254D01*
X33410051Y-57288254D01*
X33267194Y-57359682D01*
X33195766Y-57431111D01*
X33124337Y-57573968D01*
X33124337Y-57859682D01*
X33195766Y-58002540D01*
X33267194Y-58073968D01*
X33410051Y-58145397D01*
X33767194Y-58145397D01*
X33910051Y-58073968D01*
X33981480Y-58002540D01*
X34052909Y-57859682D01*
X34052909Y-57573968D01*
X33981480Y-57431111D01*
X33910051Y-57359682D01*
X33767194Y-57288254D01*
X33981480Y-59002540D02*
X34052909Y-58859682D01*
X34124337Y-58788254D01*
X34267194Y-58716825D01*
X34338623Y-58716825D01*
X34481480Y-58788254D01*
X34552909Y-58859682D01*
X34624337Y-59002540D01*
X34624337Y-59288254D01*
X34552909Y-59431111D01*
X34481480Y-59502540D01*
X34338623Y-59573968D01*
X34267194Y-59573968D01*
X34124337Y-59502540D01*
X34052909Y-59431111D01*
X33981480Y-59288254D01*
X33981480Y-59002540D01*
X33910051Y-58859682D01*
X33838623Y-58788254D01*
X33695766Y-58716825D01*
X33410051Y-58716825D01*
X33267194Y-58788254D01*
X33195766Y-58859682D01*
X33124337Y-59002540D01*
X33124337Y-59288254D01*
X33195766Y-59431111D01*
X33267194Y-59502540D01*
X33410051Y-59573968D01*
X33695766Y-59573968D01*
X33838623Y-59502540D01*
X33910051Y-59431111D01*
X33981480Y-59288254D01*
X33267194Y-60216825D02*
X33195766Y-60288254D01*
X33124337Y-60216825D01*
X33195766Y-60145397D01*
X33267194Y-60216825D01*
X33124337Y-60216825D01*
X34624337Y-61216825D02*
X34624337Y-61359682D01*
X34552909Y-61502540D01*
X34481480Y-61573968D01*
X34338623Y-61645397D01*
X34052909Y-61716825D01*
X33695766Y-61716825D01*
X33410051Y-61645397D01*
X33267194Y-61573968D01*
X33195766Y-61502540D01*
X33124337Y-61359682D01*
X33124337Y-61216825D01*
X33195766Y-61073968D01*
X33267194Y-61002540D01*
X33410051Y-60931111D01*
X33695766Y-60859682D01*
X34052909Y-60859682D01*
X34338623Y-60931111D01*
X34481480Y-61002540D01*
X34552909Y-61073968D01*
X34624337Y-61216825D01*
X34624337Y-62645397D02*
X34624337Y-62788254D01*
X34552909Y-62931111D01*
X34481480Y-63002540D01*
X34338623Y-63073968D01*
X34052909Y-63145397D01*
X33695766Y-63145397D01*
X33410051Y-63073968D01*
X33267194Y-63002540D01*
X33195766Y-62931111D01*
X33124337Y-62788254D01*
X33124337Y-62645397D01*
X33195766Y-62502540D01*
X33267194Y-62431111D01*
X33410051Y-62359682D01*
X33695766Y-62288254D01*
X34052909Y-62288254D01*
X34338623Y-62359682D01*
X34481480Y-62431111D01*
X34552909Y-62502540D01*
X34624337Y-62645397D01*
X33124337Y-64573968D02*
X33124337Y-63716825D01*
X33124337Y-64145397D02*
X34624337Y-64145397D01*
X34410051Y-64002540D01*
X34267194Y-63859682D01*
X34195766Y-63716825D01*
X33124337Y-66359682D02*
X34124337Y-66359682D01*
X33981480Y-66359682D02*
X34052909Y-66431111D01*
X34124337Y-66573968D01*
X34124337Y-66788254D01*
X34052909Y-66931111D01*
X33910051Y-67002540D01*
X33124337Y-67002540D01*
X33910051Y-67002540D02*
X34052909Y-67073968D01*
X34124337Y-67216825D01*
X34124337Y-67431111D01*
X34052909Y-67573968D01*
X33910051Y-67645397D01*
X33124337Y-67645397D01*
X33124337Y-68359682D02*
X34124337Y-68359682D01*
X33981480Y-68359682D02*
X34052909Y-68431111D01*
X34124337Y-68573968D01*
X34124337Y-68788254D01*
X34052909Y-68931111D01*
X33910051Y-69002540D01*
X33124337Y-69002540D01*
X33910051Y-69002540D02*
X34052909Y-69073968D01*
X34124337Y-69216825D01*
X34124337Y-69431111D01*
X34052909Y-69573968D01*
X33910051Y-69645397D01*
X33124337Y-69645397D01*
X35902909Y-29502100D02*
X35902909Y-97502980D01*
X37678360Y-29502100D02*
X35316488Y-29502100D01*
X37678360Y-97502980D02*
X35316488Y-97502980D01*
X35902909Y-97502980D02*
X35316488Y-96376476D01*
X35902909Y-97502980D02*
X36489330Y-96376476D01*
X35902909Y-29502100D02*
X35316488Y-30628604D01*
X35902909Y-29502100D02*
X36489330Y-30628604D01*
X69392315Y-25351014D02*
X70392315Y-25351014D01*
X69749458Y-26851014D01*
X71678030Y-25351014D02*
X70963744Y-25351014D01*
X70892315Y-26065300D01*
X70963744Y-25993871D01*
X71106601Y-25922443D01*
X71463744Y-25922443D01*
X71606601Y-25993871D01*
X71678030Y-26065300D01*
X71749458Y-26208157D01*
X71749458Y-26565300D01*
X71678030Y-26708157D01*
X71606601Y-26779585D01*
X71463744Y-26851014D01*
X71106601Y-26851014D01*
X70963744Y-26779585D01*
X70892315Y-26708157D01*
X72392315Y-26708157D02*
X72463744Y-26779585D01*
X72392315Y-26851014D01*
X72320887Y-26779585D01*
X72392315Y-26708157D01*
X72392315Y-26851014D01*
X73178030Y-26851014D02*
X73463744Y-26851014D01*
X73606601Y-26779585D01*
X73678030Y-26708157D01*
X73820887Y-26493871D01*
X73892315Y-26208157D01*
X73892315Y-25636728D01*
X73820887Y-25493871D01*
X73749458Y-25422443D01*
X73606601Y-25351014D01*
X73320887Y-25351014D01*
X73178030Y-25422443D01*
X73106601Y-25493871D01*
X73035172Y-25636728D01*
X73035172Y-25993871D01*
X73106601Y-26136728D01*
X73178030Y-26208157D01*
X73320887Y-26279585D01*
X73606601Y-26279585D01*
X73749458Y-26208157D01*
X73820887Y-26136728D01*
X73892315Y-25993871D01*
X74606601Y-26851014D02*
X74892315Y-26851014D01*
X75035172Y-26779585D01*
X75106601Y-26708157D01*
X75249458Y-26493871D01*
X75320887Y-26208157D01*
X75320887Y-25636728D01*
X75249458Y-25493871D01*
X75178030Y-25422443D01*
X75035172Y-25351014D01*
X74749458Y-25351014D01*
X74606601Y-25422443D01*
X74535172Y-25493871D01*
X74463744Y-25636728D01*
X74463744Y-25993871D01*
X74535172Y-26136728D01*
X74606601Y-26208157D01*
X74749458Y-26279585D01*
X75035172Y-26279585D01*
X75178030Y-26208157D01*
X75249458Y-26136728D01*
X75320887Y-25993871D01*
X76035172Y-26851014D02*
X76320887Y-26851014D01*
X76463744Y-26779585D01*
X76535172Y-26708157D01*
X76678030Y-26493871D01*
X76749458Y-26208157D01*
X76749458Y-25636728D01*
X76678030Y-25493871D01*
X76606601Y-25422443D01*
X76463744Y-25351014D01*
X76178030Y-25351014D01*
X76035172Y-25422443D01*
X75963744Y-25493871D01*
X75892315Y-25636728D01*
X75892315Y-25993871D01*
X75963744Y-26136728D01*
X76035172Y-26208157D01*
X76178030Y-26279585D01*
X76463744Y-26279585D01*
X76606601Y-26208157D01*
X76678030Y-26136728D01*
X76749458Y-25993871D01*
X78535172Y-26851014D02*
X78535172Y-25851014D01*
X78535172Y-25993871D02*
X78606601Y-25922443D01*
X78749458Y-25851014D01*
X78963744Y-25851014D01*
X79106601Y-25922443D01*
X79178030Y-26065300D01*
X79178030Y-26851014D01*
X79178030Y-26065300D02*
X79249458Y-25922443D01*
X79392315Y-25851014D01*
X79606601Y-25851014D01*
X79749458Y-25922443D01*
X79820887Y-26065300D01*
X79820887Y-26851014D01*
X80535172Y-26851014D02*
X80535172Y-25851014D01*
X80535172Y-25993871D02*
X80606601Y-25922443D01*
X80749458Y-25851014D01*
X80963744Y-25851014D01*
X81106601Y-25922443D01*
X81178030Y-26065300D01*
X81178030Y-26851014D01*
X81178030Y-26065300D02*
X81249458Y-25922443D01*
X81392315Y-25851014D01*
X81606601Y-25851014D01*
X81749458Y-25922443D01*
X81820887Y-26065300D01*
X81820887Y-26851014D01*
X37678360Y-28272443D02*
X113677700Y-28272443D01*
X37678360Y-29502100D02*
X37678360Y-27686022D01*
X113677700Y-29502100D02*
X113677700Y-27686022D01*
X113677700Y-28272443D02*
X112551196Y-28858864D01*
X113677700Y-28272443D02*
X112551196Y-27686022D01*
X37678360Y-28272443D02*
X38804864Y-28858864D01*
X37678360Y-28272443D02*
X38804864Y-27686022D01*
X92883528Y-57989845D02*
X91883528Y-57989845D01*
X93454957Y-57632702D02*
X92383528Y-57275559D01*
X92383528Y-58204130D01*
X93383528Y-59061273D02*
X93383528Y-59204130D01*
X93312100Y-59346987D01*
X93240671Y-59418416D01*
X93097814Y-59489845D01*
X92812100Y-59561273D01*
X92454957Y-59561273D01*
X92169242Y-59489845D01*
X92026385Y-59418416D01*
X91954957Y-59346987D01*
X91883528Y-59204130D01*
X91883528Y-59061273D01*
X91954957Y-58918416D01*
X92026385Y-58846987D01*
X92169242Y-58775559D01*
X92454957Y-58704130D01*
X92812100Y-58704130D01*
X93097814Y-58775559D01*
X93240671Y-58846987D01*
X93312100Y-58918416D01*
X93383528Y-59061273D01*
X92026385Y-60204130D02*
X91954957Y-60275559D01*
X91883528Y-60204130D01*
X91954957Y-60132702D01*
X92026385Y-60204130D01*
X91883528Y-60204130D01*
X93383528Y-61204130D02*
X93383528Y-61346987D01*
X93312100Y-61489845D01*
X93240671Y-61561273D01*
X93097814Y-61632702D01*
X92812100Y-61704130D01*
X92454957Y-61704130D01*
X92169242Y-61632702D01*
X92026385Y-61561273D01*
X91954957Y-61489845D01*
X91883528Y-61346987D01*
X91883528Y-61204130D01*
X91954957Y-61061273D01*
X92026385Y-60989845D01*
X92169242Y-60918416D01*
X92454957Y-60846987D01*
X92812100Y-60846987D01*
X93097814Y-60918416D01*
X93240671Y-60989845D01*
X93312100Y-61061273D01*
X93383528Y-61204130D01*
X93383528Y-62632702D02*
X93383528Y-62775559D01*
X93312100Y-62918416D01*
X93240671Y-62989845D01*
X93097814Y-63061273D01*
X92812100Y-63132702D01*
X92454957Y-63132702D01*
X92169242Y-63061273D01*
X92026385Y-62989845D01*
X91954957Y-62918416D01*
X91883528Y-62775559D01*
X91883528Y-62632702D01*
X91954957Y-62489845D01*
X92026385Y-62418416D01*
X92169242Y-62346987D01*
X92454957Y-62275559D01*
X92812100Y-62275559D01*
X93097814Y-62346987D01*
X93240671Y-62418416D01*
X93312100Y-62489845D01*
X93383528Y-62632702D01*
X93383528Y-64061273D02*
X93383528Y-64204130D01*
X93312100Y-64346987D01*
X93240671Y-64418416D01*
X93097814Y-64489845D01*
X92812100Y-64561273D01*
X92454957Y-64561273D01*
X92169242Y-64489845D01*
X92026385Y-64418416D01*
X91954957Y-64346987D01*
X91883528Y-64204130D01*
X91883528Y-64061273D01*
X91954957Y-63918416D01*
X92026385Y-63846987D01*
X92169242Y-63775559D01*
X92454957Y-63704130D01*
X92812100Y-63704130D01*
X93097814Y-63775559D01*
X93240671Y-63846987D01*
X93312100Y-63918416D01*
X93383528Y-64061273D01*
X91883528Y-66346987D02*
X92883528Y-66346987D01*
X92740671Y-66346987D02*
X92812100Y-66418416D01*
X92883528Y-66561273D01*
X92883528Y-66775559D01*
X92812100Y-66918416D01*
X92669242Y-66989845D01*
X91883528Y-66989845D01*
X92669242Y-66989845D02*
X92812100Y-67061273D01*
X92883528Y-67204130D01*
X92883528Y-67418416D01*
X92812100Y-67561273D01*
X92669242Y-67632702D01*
X91883528Y-67632702D01*
X91883528Y-68346987D02*
X92883528Y-68346987D01*
X92740671Y-68346987D02*
X92812100Y-68418416D01*
X92883528Y-68561273D01*
X92883528Y-68775559D01*
X92812100Y-68918416D01*
X92669242Y-68989845D01*
X91883528Y-68989845D01*
X92669242Y-68989845D02*
X92812100Y-69061273D01*
X92883528Y-69204130D01*
X92883528Y-69418416D01*
X92812100Y-69561273D01*
X92669242Y-69632702D01*
X91883528Y-69632702D01*
X90462100Y-43489880D02*
X90462100Y-83489811D01*
X75684380Y-43489880D02*
X91048521Y-43489880D01*
X75684380Y-83489811D02*
X91048521Y-83489811D01*
X90462100Y-83489811D02*
X89875679Y-82363307D01*
X90462100Y-83489811D02*
X91048521Y-82363307D01*
X90462100Y-43489880D02*
X89875679Y-44616384D01*
X90462100Y-43489880D02*
X91048521Y-44616384D01*
X-23991252Y-26251370D02*
X-23991252Y-25965655D01*
X-24062680Y-25822798D01*
X-24134109Y-25751370D01*
X-24348395Y-25608512D01*
X-24634109Y-25537084D01*
X-25205538Y-25537084D01*
X-25348395Y-25608512D01*
X-25419823Y-25679941D01*
X-25491252Y-25822798D01*
X-25491252Y-26108512D01*
X-25419823Y-26251370D01*
X-25348395Y-26322798D01*
X-25205538Y-26394227D01*
X-24848395Y-26394227D01*
X-24705538Y-26322798D01*
X-24634109Y-26251370D01*
X-24562680Y-26108512D01*
X-24562680Y-25822798D01*
X-24634109Y-25679941D01*
X-24705538Y-25608512D01*
X-24848395Y-25537084D01*
X-23991252Y-26894227D02*
X-23991252Y-27822798D01*
X-24562680Y-27322798D01*
X-24562680Y-27537084D01*
X-24634109Y-27679941D01*
X-24705538Y-27751370D01*
X-24848395Y-27822798D01*
X-25205538Y-27822798D01*
X-25348395Y-27751370D01*
X-25419823Y-27679941D01*
X-25491252Y-27537084D01*
X-25491252Y-27108512D01*
X-25419823Y-26965655D01*
X-25348395Y-26894227D01*
X-25348395Y-28465655D02*
X-25419823Y-28537084D01*
X-25491252Y-28465655D01*
X-25419823Y-28394227D01*
X-25348395Y-28465655D01*
X-25491252Y-28465655D01*
X-23991252Y-29894227D02*
X-23991252Y-29179941D01*
X-24705538Y-29108512D01*
X-24634109Y-29179941D01*
X-24562680Y-29322798D01*
X-24562680Y-29679941D01*
X-24634109Y-29822798D01*
X-24705538Y-29894227D01*
X-24848395Y-29965655D01*
X-25205538Y-29965655D01*
X-25348395Y-29894227D01*
X-25419823Y-29822798D01*
X-25491252Y-29679941D01*
X-25491252Y-29322798D01*
X-25419823Y-29179941D01*
X-25348395Y-29108512D01*
X-23991252Y-30894227D02*
X-23991252Y-31037084D01*
X-24062680Y-31179941D01*
X-24134109Y-31251370D01*
X-24276966Y-31322798D01*
X-24562680Y-31394227D01*
X-24919823Y-31394227D01*
X-25205538Y-31322798D01*
X-25348395Y-31251370D01*
X-25419823Y-31179941D01*
X-25491252Y-31037084D01*
X-25491252Y-30894227D01*
X-25419823Y-30751370D01*
X-25348395Y-30679941D01*
X-25205538Y-30608512D01*
X-24919823Y-30537084D01*
X-24562680Y-30537084D01*
X-24276966Y-30608512D01*
X-24134109Y-30679941D01*
X-24062680Y-30751370D01*
X-23991252Y-30894227D01*
X-24634109Y-32251370D02*
X-24562680Y-32108512D01*
X-24491252Y-32037084D01*
X-24348395Y-31965655D01*
X-24276966Y-31965655D01*
X-24134109Y-32037084D01*
X-24062680Y-32108512D01*
X-23991252Y-32251370D01*
X-23991252Y-32537084D01*
X-24062680Y-32679941D01*
X-24134109Y-32751370D01*
X-24276966Y-32822798D01*
X-24348395Y-32822798D01*
X-24491252Y-32751370D01*
X-24562680Y-32679941D01*
X-24634109Y-32537084D01*
X-24634109Y-32251370D01*
X-24705538Y-32108512D01*
X-24776966Y-32037084D01*
X-24919823Y-31965655D01*
X-25205538Y-31965655D01*
X-25348395Y-32037084D01*
X-25419823Y-32108512D01*
X-25491252Y-32251370D01*
X-25491252Y-32537084D01*
X-25419823Y-32679941D01*
X-25348395Y-32751370D01*
X-25205538Y-32822798D01*
X-24919823Y-32822798D01*
X-24776966Y-32751370D01*
X-24705538Y-32679941D01*
X-24634109Y-32537084D01*
X-25491252Y-34608512D02*
X-24491252Y-34608512D01*
X-24634109Y-34608512D02*
X-24562680Y-34679941D01*
X-24491252Y-34822798D01*
X-24491252Y-35037084D01*
X-24562680Y-35179941D01*
X-24705538Y-35251370D01*
X-25491252Y-35251370D01*
X-24705538Y-35251370D02*
X-24562680Y-35322798D01*
X-24491252Y-35465655D01*
X-24491252Y-35679941D01*
X-24562680Y-35822798D01*
X-24705538Y-35894227D01*
X-25491252Y-35894227D01*
X-25491252Y-36608512D02*
X-24491252Y-36608512D01*
X-24634109Y-36608512D02*
X-24562680Y-36679941D01*
X-24491252Y-36822798D01*
X-24491252Y-37037084D01*
X-24562680Y-37179941D01*
X-24705538Y-37251370D01*
X-25491252Y-37251370D01*
X-24705538Y-37251370D02*
X-24562680Y-37322798D01*
X-24491252Y-37465655D01*
X-24491252Y-37679941D01*
X-24562680Y-37822798D01*
X-24705538Y-37894227D01*
X-25491252Y-37894227D01*
X-22712680Y2540D02*
X-22712680Y-63505281D01*
X-21155660Y2540D02*
X-23299101Y2540D01*
X-21155660Y-63505281D02*
X-23299101Y-63505281D01*
X-22712680Y-63505281D02*
X-23299101Y-62378777D01*
X-22712680Y-63505281D02*
X-22126259Y-62378777D01*
X-22712680Y2540D02*
X-23299101Y-1123964D01*
X-22712680Y2540D02*
X-22126259Y-1123964D01*
D11*
X0Y0D02*
X-21159057Y0D01*
X75575160Y-63502540D02*
X-21159057Y-63502540D01*
X-3073400Y3086100D02*
X3086100Y-3073400D01*
X-3073400Y-3073400D02*
X3086100Y3086100D01*
X67424300Y-3073400D02*
X73583800Y3086100D01*
X67424300Y3086100D02*
X73583800Y-3073400D01*
X149923500Y-136575800D02*
X156083000Y-130416300D01*
X149923500Y-130416300D02*
X156083000Y-136575800D01*
X67424300Y-130416300D02*
X73583800Y-136575800D01*
X67424300Y-136575800D02*
X73583800Y-130416300D01*
X-15049500Y-136575800D02*
X-8890000Y-130416300D01*
X-15049500Y-130416300D02*
X-8890000Y-136575800D01*
M02*
