G04 #@! TF.GenerationSoftware,KiCad,Pcbnew,5.0.2-bee76a0~70~ubuntu18.04.1*
G04 #@! TF.CreationDate,2019-04-12T15:51:36+02:00*
G04 #@! TF.ProjectId,bottom-board,626f7474-6f6d-42d6-926f-6172642e6b69,rev?*
G04 #@! TF.SameCoordinates,PX48111b4PY15fd6c8*
G04 #@! TF.FileFunction,Legend,Bot*
G04 #@! TF.FilePolarity,Positive*
%FSLAX46Y46*%
G04 Gerber Fmt 4.6, Leading zero omitted, Abs format (unit mm)*
G04 Created by KiCad (PCBNEW 5.0.2-bee76a0~70~ubuntu18.04.1) date Fri 12 Apr 2019 03:51:36 PM CEST*
%MOMM*%
%LPD*%
G01*
G04 APERTURE LIST*
%ADD10C,0.100000*%
%ADD11C,0.150000*%
%ADD12C,0.300000*%
%ADD13C,0.400000*%
G04 APERTURE END LIST*
D10*
D11*
X101434660Y-142949080D02*
X101434660Y-174949080D01*
X209434660Y-174949080D01*
X209434660Y-142949080D01*
X101434660Y-142949080D01*
D10*
D11*
X-65567540Y13058120D02*
X-65567540Y-176949080D01*
X211434660Y-176949080D01*
X211434660Y13058120D01*
X-65567540Y13058120D01*
D10*
D11*
X-63567540Y11058120D02*
X-63567540Y-174949080D01*
X209434660Y-174949080D01*
X209434660Y11058120D01*
X-63567540Y11058120D01*
D10*
D11*
X-15567540Y11058120D02*
X-15567540Y13058120D01*
D10*
D11*
X34432460Y11058120D02*
X34432460Y13058120D01*
D10*
D11*
X84432460Y11058120D02*
X84432460Y13058120D01*
D10*
D11*
X134432460Y11058120D02*
X134432460Y13058120D01*
D10*
D11*
X184432460Y11058120D02*
X184432460Y13058120D01*
D10*
D11*
X-39502064Y11470025D02*
X-40244921Y11470025D01*
X-39873493Y11470025D02*
X-39873493Y12770025D01*
X-39997302Y12584311D01*
X-40121112Y12460501D01*
X-40244921Y12398597D01*
D10*
D11*
X9755079Y12646216D02*
X9816983Y12708120D01*
X9940793Y12770025D01*
X10250317Y12770025D01*
X10374126Y12708120D01*
X10436031Y12646216D01*
X10497936Y12522406D01*
X10497936Y12398597D01*
X10436031Y12212882D01*
X9693174Y11470025D01*
X10497936Y11470025D01*
D10*
D11*
X59693174Y12770025D02*
X60497936Y12770025D01*
X60064602Y12274787D01*
X60250317Y12274787D01*
X60374126Y12212882D01*
X60436031Y12150978D01*
X60497936Y12027168D01*
X60497936Y11717644D01*
X60436031Y11593835D01*
X60374126Y11531930D01*
X60250317Y11470025D01*
X59878888Y11470025D01*
X59755079Y11531930D01*
X59693174Y11593835D01*
D10*
D11*
X110374126Y12336692D02*
X110374126Y11470025D01*
X110064602Y12831930D02*
X109755079Y11903359D01*
X110559840Y11903359D01*
D10*
D11*
X160436031Y12770025D02*
X159816983Y12770025D01*
X159755079Y12150978D01*
X159816983Y12212882D01*
X159940793Y12274787D01*
X160250317Y12274787D01*
X160374126Y12212882D01*
X160436031Y12150978D01*
X160497936Y12027168D01*
X160497936Y11717644D01*
X160436031Y11593835D01*
X160374126Y11531930D01*
X160250317Y11470025D01*
X159940793Y11470025D01*
X159816983Y11531930D01*
X159755079Y11593835D01*
D10*
D11*
X210374126Y12770025D02*
X210126507Y12770025D01*
X210002698Y12708120D01*
X209940793Y12646216D01*
X209816983Y12460501D01*
X209755079Y12212882D01*
X209755079Y11717644D01*
X209816983Y11593835D01*
X209878888Y11531930D01*
X210002698Y11470025D01*
X210250317Y11470025D01*
X210374126Y11531930D01*
X210436031Y11593835D01*
X210497936Y11717644D01*
X210497936Y12027168D01*
X210436031Y12150978D01*
X210374126Y12212882D01*
X210250317Y12274787D01*
X210002698Y12274787D01*
X209878888Y12212882D01*
X209816983Y12150978D01*
X209755079Y12027168D01*
D10*
D11*
X-15567540Y-174949080D02*
X-15567540Y-176949080D01*
D10*
D11*
X34432460Y-174949080D02*
X34432460Y-176949080D01*
D10*
D11*
X84432460Y-174949080D02*
X84432460Y-176949080D01*
D10*
D11*
X134432460Y-174949080D02*
X134432460Y-176949080D01*
D10*
D11*
X184432460Y-174949080D02*
X184432460Y-176949080D01*
D10*
D11*
X-39502064Y-176537175D02*
X-40244921Y-176537175D01*
X-39873493Y-176537175D02*
X-39873493Y-175237175D01*
X-39997302Y-175422889D01*
X-40121112Y-175546699D01*
X-40244921Y-175608603D01*
D10*
D11*
X9755079Y-175360984D02*
X9816983Y-175299080D01*
X9940793Y-175237175D01*
X10250317Y-175237175D01*
X10374126Y-175299080D01*
X10436031Y-175360984D01*
X10497936Y-175484794D01*
X10497936Y-175608603D01*
X10436031Y-175794318D01*
X9693174Y-176537175D01*
X10497936Y-176537175D01*
D10*
D11*
X59693174Y-175237175D02*
X60497936Y-175237175D01*
X60064602Y-175732413D01*
X60250317Y-175732413D01*
X60374126Y-175794318D01*
X60436031Y-175856222D01*
X60497936Y-175980032D01*
X60497936Y-176289556D01*
X60436031Y-176413365D01*
X60374126Y-176475270D01*
X60250317Y-176537175D01*
X59878888Y-176537175D01*
X59755079Y-176475270D01*
X59693174Y-176413365D01*
D10*
D11*
X110374126Y-175670508D02*
X110374126Y-176537175D01*
X110064602Y-175175270D02*
X109755079Y-176103841D01*
X110559840Y-176103841D01*
D10*
D11*
X160436031Y-175237175D02*
X159816983Y-175237175D01*
X159755079Y-175856222D01*
X159816983Y-175794318D01*
X159940793Y-175732413D01*
X160250317Y-175732413D01*
X160374126Y-175794318D01*
X160436031Y-175856222D01*
X160497936Y-175980032D01*
X160497936Y-176289556D01*
X160436031Y-176413365D01*
X160374126Y-176475270D01*
X160250317Y-176537175D01*
X159940793Y-176537175D01*
X159816983Y-176475270D01*
X159755079Y-176413365D01*
D10*
D11*
X210374126Y-175237175D02*
X210126507Y-175237175D01*
X210002698Y-175299080D01*
X209940793Y-175360984D01*
X209816983Y-175546699D01*
X209755079Y-175794318D01*
X209755079Y-176289556D01*
X209816983Y-176413365D01*
X209878888Y-176475270D01*
X210002698Y-176537175D01*
X210250317Y-176537175D01*
X210374126Y-176475270D01*
X210436031Y-176413365D01*
X210497936Y-176289556D01*
X210497936Y-175980032D01*
X210436031Y-175856222D01*
X210374126Y-175794318D01*
X210250317Y-175732413D01*
X210002698Y-175732413D01*
X209878888Y-175794318D01*
X209816983Y-175856222D01*
X209755079Y-175980032D01*
D10*
D11*
X-65567540Y-36941880D02*
X-63567540Y-36941880D01*
D10*
D11*
X-65567540Y-86941880D02*
X-63567540Y-86941880D01*
D10*
D11*
X-65567540Y-136941880D02*
X-63567540Y-136941880D01*
D10*
D11*
X-64877064Y-12158546D02*
X-64258017Y-12158546D01*
X-65000874Y-12529975D02*
X-64567540Y-11229975D01*
X-64134207Y-12529975D01*
D10*
D11*
X-64474683Y-61849022D02*
X-64288969Y-61910927D01*
X-64227064Y-61972832D01*
X-64165160Y-62096641D01*
X-64165160Y-62282356D01*
X-64227064Y-62406165D01*
X-64288969Y-62468070D01*
X-64412779Y-62529975D01*
X-64908017Y-62529975D01*
X-64908017Y-61229975D01*
X-64474683Y-61229975D01*
X-64350874Y-61291880D01*
X-64288969Y-61353784D01*
X-64227064Y-61477594D01*
X-64227064Y-61601403D01*
X-64288969Y-61725213D01*
X-64350874Y-61787118D01*
X-64474683Y-61849022D01*
X-64908017Y-61849022D01*
D10*
D11*
X-64165160Y-112406165D02*
X-64227064Y-112468070D01*
X-64412779Y-112529975D01*
X-64536588Y-112529975D01*
X-64722302Y-112468070D01*
X-64846112Y-112344260D01*
X-64908017Y-112220451D01*
X-64969921Y-111972832D01*
X-64969921Y-111787118D01*
X-64908017Y-111539499D01*
X-64846112Y-111415689D01*
X-64722302Y-111291880D01*
X-64536588Y-111229975D01*
X-64412779Y-111229975D01*
X-64227064Y-111291880D01*
X-64165160Y-111353784D01*
D10*
D11*
X-64908017Y-162529975D02*
X-64908017Y-161229975D01*
X-64598493Y-161229975D01*
X-64412779Y-161291880D01*
X-64288969Y-161415689D01*
X-64227064Y-161539499D01*
X-64165160Y-161787118D01*
X-64165160Y-161972832D01*
X-64227064Y-162220451D01*
X-64288969Y-162344260D01*
X-64412779Y-162468070D01*
X-64598493Y-162529975D01*
X-64908017Y-162529975D01*
D10*
D11*
X211434660Y-36941880D02*
X209434660Y-36941880D01*
D10*
D11*
X211434660Y-86941880D02*
X209434660Y-86941880D01*
D10*
D11*
X211434660Y-136941880D02*
X209434660Y-136941880D01*
D10*
D11*
X210125136Y-12158546D02*
X210744183Y-12158546D01*
X210001326Y-12529975D02*
X210434660Y-11229975D01*
X210867993Y-12529975D01*
D10*
D11*
X210527517Y-61849022D02*
X210713231Y-61910927D01*
X210775136Y-61972832D01*
X210837040Y-62096641D01*
X210837040Y-62282356D01*
X210775136Y-62406165D01*
X210713231Y-62468070D01*
X210589421Y-62529975D01*
X210094183Y-62529975D01*
X210094183Y-61229975D01*
X210527517Y-61229975D01*
X210651326Y-61291880D01*
X210713231Y-61353784D01*
X210775136Y-61477594D01*
X210775136Y-61601403D01*
X210713231Y-61725213D01*
X210651326Y-61787118D01*
X210527517Y-61849022D01*
X210094183Y-61849022D01*
D10*
D11*
X210837040Y-112406165D02*
X210775136Y-112468070D01*
X210589421Y-112529975D01*
X210465612Y-112529975D01*
X210279898Y-112468070D01*
X210156088Y-112344260D01*
X210094183Y-112220451D01*
X210032279Y-111972832D01*
X210032279Y-111787118D01*
X210094183Y-111539499D01*
X210156088Y-111415689D01*
X210279898Y-111291880D01*
X210465612Y-111229975D01*
X210589421Y-111229975D01*
X210775136Y-111291880D01*
X210837040Y-111353784D01*
D10*
D11*
X210094183Y-162529975D02*
X210094183Y-161229975D01*
X210403707Y-161229975D01*
X210589421Y-161291880D01*
X210713231Y-161415689D01*
X210775136Y-161539499D01*
X210837040Y-161787118D01*
X210837040Y-161972832D01*
X210775136Y-162220451D01*
X210713231Y-162344260D01*
X210589421Y-162468070D01*
X210403707Y-162529975D01*
X210094183Y-162529975D01*
D10*
D11*
X124866802Y-170727651D02*
X124866802Y-169227651D01*
X125223945Y-169227651D01*
X125438231Y-169299080D01*
X125581088Y-169441937D01*
X125652517Y-169584794D01*
X125723945Y-169870508D01*
X125723945Y-170084794D01*
X125652517Y-170370508D01*
X125581088Y-170513365D01*
X125438231Y-170656222D01*
X125223945Y-170727651D01*
X124866802Y-170727651D01*
X127009660Y-170727651D02*
X127009660Y-169941937D01*
X126938231Y-169799080D01*
X126795374Y-169727651D01*
X126509660Y-169727651D01*
X126366802Y-169799080D01*
X127009660Y-170656222D02*
X126866802Y-170727651D01*
X126509660Y-170727651D01*
X126366802Y-170656222D01*
X126295374Y-170513365D01*
X126295374Y-170370508D01*
X126366802Y-170227651D01*
X126509660Y-170156222D01*
X126866802Y-170156222D01*
X127009660Y-170084794D01*
X127509660Y-169727651D02*
X128081088Y-169727651D01*
X127723945Y-169227651D02*
X127723945Y-170513365D01*
X127795374Y-170656222D01*
X127938231Y-170727651D01*
X128081088Y-170727651D01*
X129152517Y-170656222D02*
X129009660Y-170727651D01*
X128723945Y-170727651D01*
X128581088Y-170656222D01*
X128509660Y-170513365D01*
X128509660Y-169941937D01*
X128581088Y-169799080D01*
X128723945Y-169727651D01*
X129009660Y-169727651D01*
X129152517Y-169799080D01*
X129223945Y-169941937D01*
X129223945Y-170084794D01*
X128509660Y-170227651D01*
X129866802Y-170584794D02*
X129938231Y-170656222D01*
X129866802Y-170727651D01*
X129795374Y-170656222D01*
X129866802Y-170584794D01*
X129866802Y-170727651D01*
X129866802Y-169799080D02*
X129938231Y-169870508D01*
X129866802Y-169941937D01*
X129795374Y-169870508D01*
X129866802Y-169799080D01*
X129866802Y-169941937D01*
D10*
D11*
X101434660Y-171449080D02*
X209434660Y-171449080D01*
D10*
D11*
X102866802Y-173527651D02*
X102866802Y-172027651D01*
X103723945Y-173527651D02*
X103081088Y-172670508D01*
X103723945Y-172027651D02*
X102866802Y-172884794D01*
X104366802Y-173527651D02*
X104366802Y-172527651D01*
X104366802Y-172027651D02*
X104295374Y-172099080D01*
X104366802Y-172170508D01*
X104438231Y-172099080D01*
X104366802Y-172027651D01*
X104366802Y-172170508D01*
X105938231Y-173384794D02*
X105866802Y-173456222D01*
X105652517Y-173527651D01*
X105509660Y-173527651D01*
X105295374Y-173456222D01*
X105152517Y-173313365D01*
X105081088Y-173170508D01*
X105009660Y-172884794D01*
X105009660Y-172670508D01*
X105081088Y-172384794D01*
X105152517Y-172241937D01*
X105295374Y-172099080D01*
X105509660Y-172027651D01*
X105652517Y-172027651D01*
X105866802Y-172099080D01*
X105938231Y-172170508D01*
X107223945Y-173527651D02*
X107223945Y-172741937D01*
X107152517Y-172599080D01*
X107009660Y-172527651D01*
X106723945Y-172527651D01*
X106581088Y-172599080D01*
X107223945Y-173456222D02*
X107081088Y-173527651D01*
X106723945Y-173527651D01*
X106581088Y-173456222D01*
X106509660Y-173313365D01*
X106509660Y-173170508D01*
X106581088Y-173027651D01*
X106723945Y-172956222D01*
X107081088Y-172956222D01*
X107223945Y-172884794D01*
X108581088Y-173527651D02*
X108581088Y-172027651D01*
X108581088Y-173456222D02*
X108438231Y-173527651D01*
X108152517Y-173527651D01*
X108009660Y-173456222D01*
X107938231Y-173384794D01*
X107866802Y-173241937D01*
X107866802Y-172813365D01*
X107938231Y-172670508D01*
X108009660Y-172599080D01*
X108152517Y-172527651D01*
X108438231Y-172527651D01*
X108581088Y-172599080D01*
X110438231Y-172741937D02*
X110938231Y-172741937D01*
X111152517Y-173527651D02*
X110438231Y-173527651D01*
X110438231Y-172027651D01*
X111152517Y-172027651D01*
X111795374Y-173384794D02*
X111866802Y-173456222D01*
X111795374Y-173527651D01*
X111723945Y-173456222D01*
X111795374Y-173384794D01*
X111795374Y-173527651D01*
X112509660Y-173527651D02*
X112509660Y-172027651D01*
X112866802Y-172027651D01*
X113081088Y-172099080D01*
X113223945Y-172241937D01*
X113295374Y-172384794D01*
X113366802Y-172670508D01*
X113366802Y-172884794D01*
X113295374Y-173170508D01*
X113223945Y-173313365D01*
X113081088Y-173456222D01*
X112866802Y-173527651D01*
X112509660Y-173527651D01*
X114009660Y-173384794D02*
X114081088Y-173456222D01*
X114009660Y-173527651D01*
X113938231Y-173456222D01*
X114009660Y-173384794D01*
X114009660Y-173527651D01*
X114652517Y-173099080D02*
X115366802Y-173099080D01*
X114509660Y-173527651D02*
X115009660Y-172027651D01*
X115509660Y-173527651D01*
X116009660Y-173384794D02*
X116081088Y-173456222D01*
X116009660Y-173527651D01*
X115938231Y-173456222D01*
X116009660Y-173384794D01*
X116009660Y-173527651D01*
X119009660Y-173527651D02*
X119009660Y-172027651D01*
X119152517Y-172956222D02*
X119581088Y-173527651D01*
X119581088Y-172527651D02*
X119009660Y-173099080D01*
X120223945Y-173527651D02*
X120223945Y-172527651D01*
X120223945Y-172027651D02*
X120152517Y-172099080D01*
X120223945Y-172170508D01*
X120295374Y-172099080D01*
X120223945Y-172027651D01*
X120223945Y-172170508D01*
X121581088Y-173456222D02*
X121438231Y-173527651D01*
X121152517Y-173527651D01*
X121009660Y-173456222D01*
X120938231Y-173384794D01*
X120866802Y-173241937D01*
X120866802Y-172813365D01*
X120938231Y-172670508D01*
X121009660Y-172599080D01*
X121152517Y-172527651D01*
X121438231Y-172527651D01*
X121581088Y-172599080D01*
X122866802Y-173527651D02*
X122866802Y-172741937D01*
X122795374Y-172599080D01*
X122652517Y-172527651D01*
X122366802Y-172527651D01*
X122223945Y-172599080D01*
X122866802Y-173456222D02*
X122723945Y-173527651D01*
X122366802Y-173527651D01*
X122223945Y-173456222D01*
X122152517Y-173313365D01*
X122152517Y-173170508D01*
X122223945Y-173027651D01*
X122366802Y-172956222D01*
X122723945Y-172956222D01*
X122866802Y-172884794D01*
X124223945Y-173527651D02*
X124223945Y-172027651D01*
X124223945Y-173456222D02*
X124081088Y-173527651D01*
X123795374Y-173527651D01*
X123652517Y-173456222D01*
X123581088Y-173384794D01*
X123509660Y-173241937D01*
X123509660Y-172813365D01*
X123581088Y-172670508D01*
X123652517Y-172599080D01*
X123795374Y-172527651D01*
X124081088Y-172527651D01*
X124223945Y-172599080D01*
X126795374Y-172027651D02*
X126081088Y-172027651D01*
X126009660Y-172741937D01*
X126081088Y-172670508D01*
X126223945Y-172599080D01*
X126581088Y-172599080D01*
X126723945Y-172670508D01*
X126795374Y-172741937D01*
X126866802Y-172884794D01*
X126866802Y-173241937D01*
X126795374Y-173384794D01*
X126723945Y-173456222D01*
X126581088Y-173527651D01*
X126223945Y-173527651D01*
X126081088Y-173456222D01*
X126009660Y-173384794D01*
X127509660Y-173384794D02*
X127581088Y-173456222D01*
X127509660Y-173527651D01*
X127438231Y-173456222D01*
X127509660Y-173384794D01*
X127509660Y-173527651D01*
X128509660Y-172027651D02*
X128652517Y-172027651D01*
X128795374Y-172099080D01*
X128866802Y-172170508D01*
X128938231Y-172313365D01*
X129009660Y-172599080D01*
X129009660Y-172956222D01*
X128938231Y-173241937D01*
X128866802Y-173384794D01*
X128795374Y-173456222D01*
X128652517Y-173527651D01*
X128509660Y-173527651D01*
X128366802Y-173456222D01*
X128295374Y-173384794D01*
X128223945Y-173241937D01*
X128152517Y-172956222D01*
X128152517Y-172599080D01*
X128223945Y-172313365D01*
X128295374Y-172170508D01*
X128366802Y-172099080D01*
X128509660Y-172027651D01*
X129652517Y-173384794D02*
X129723945Y-173456222D01*
X129652517Y-173527651D01*
X129581088Y-173456222D01*
X129652517Y-173384794D01*
X129652517Y-173527651D01*
X130295374Y-172170508D02*
X130366802Y-172099080D01*
X130509660Y-172027651D01*
X130866802Y-172027651D01*
X131009660Y-172099080D01*
X131081088Y-172170508D01*
X131152517Y-172313365D01*
X131152517Y-172456222D01*
X131081088Y-172670508D01*
X130223945Y-173527651D01*
X131152517Y-173527651D01*
X131795374Y-172956222D02*
X132938231Y-172956222D01*
X133652517Y-173527651D02*
X133652517Y-172027651D01*
X133652517Y-172599080D02*
X133795374Y-172527651D01*
X134081088Y-172527651D01*
X134223945Y-172599080D01*
X134295374Y-172670508D01*
X134366802Y-172813365D01*
X134366802Y-173241937D01*
X134295374Y-173384794D01*
X134223945Y-173456222D01*
X134081088Y-173527651D01*
X133795374Y-173527651D01*
X133652517Y-173456222D01*
X135581088Y-173456222D02*
X135438231Y-173527651D01*
X135152517Y-173527651D01*
X135009660Y-173456222D01*
X134938231Y-173313365D01*
X134938231Y-172741937D01*
X135009660Y-172599080D01*
X135152517Y-172527651D01*
X135438231Y-172527651D01*
X135581088Y-172599080D01*
X135652517Y-172741937D01*
X135652517Y-172884794D01*
X134938231Y-173027651D01*
X136866802Y-173456222D02*
X136723945Y-173527651D01*
X136438231Y-173527651D01*
X136295374Y-173456222D01*
X136223945Y-173313365D01*
X136223945Y-172741937D01*
X136295374Y-172599080D01*
X136438231Y-172527651D01*
X136723945Y-172527651D01*
X136866802Y-172599080D01*
X136938231Y-172741937D01*
X136938231Y-172884794D01*
X136223945Y-173027651D01*
X137438231Y-172027651D02*
X138438231Y-172027651D01*
X137795374Y-173527651D01*
X139652517Y-172027651D02*
X139366802Y-172027651D01*
X139223945Y-172099080D01*
X139152517Y-172170508D01*
X139009660Y-172384794D01*
X138938231Y-172670508D01*
X138938231Y-173241937D01*
X139009660Y-173384794D01*
X139081088Y-173456222D01*
X139223945Y-173527651D01*
X139509660Y-173527651D01*
X139652517Y-173456222D01*
X139723945Y-173384794D01*
X139795374Y-173241937D01*
X139795374Y-172884794D01*
X139723945Y-172741937D01*
X139652517Y-172670508D01*
X139509660Y-172599080D01*
X139223945Y-172599080D01*
X139081088Y-172670508D01*
X139009660Y-172741937D01*
X138938231Y-172884794D01*
X141081088Y-173527651D02*
X141081088Y-172741937D01*
X141009660Y-172599080D01*
X140866802Y-172527651D01*
X140581088Y-172527651D01*
X140438231Y-172599080D01*
X141081088Y-173456222D02*
X140938231Y-173527651D01*
X140581088Y-173527651D01*
X140438231Y-173456222D01*
X140366802Y-173313365D01*
X140366802Y-173170508D01*
X140438231Y-173027651D01*
X140581088Y-172956222D01*
X140938231Y-172956222D01*
X141081088Y-172884794D01*
X142081088Y-172027651D02*
X142223945Y-172027651D01*
X142366802Y-172099080D01*
X142438231Y-172170508D01*
X142509660Y-172313365D01*
X142581088Y-172599080D01*
X142581088Y-172956222D01*
X142509660Y-173241937D01*
X142438231Y-173384794D01*
X142366802Y-173456222D01*
X142223945Y-173527651D01*
X142081088Y-173527651D01*
X141938231Y-173456222D01*
X141866802Y-173384794D01*
X141795374Y-173241937D01*
X141723945Y-172956222D01*
X141723945Y-172599080D01*
X141795374Y-172313365D01*
X141866802Y-172170508D01*
X141938231Y-172099080D01*
X142081088Y-172027651D01*
X142866802Y-171619080D02*
X144295374Y-171619080D01*
X143081088Y-172027651D02*
X144081088Y-172027651D01*
X143438231Y-173527651D01*
X144295374Y-171619080D02*
X145723945Y-171619080D01*
X144938231Y-172027651D02*
X145081088Y-172027651D01*
X145223945Y-172099080D01*
X145295374Y-172170508D01*
X145366802Y-172313365D01*
X145438231Y-172599080D01*
X145438231Y-172956222D01*
X145366802Y-173241937D01*
X145295374Y-173384794D01*
X145223945Y-173456222D01*
X145081088Y-173527651D01*
X144938231Y-173527651D01*
X144795374Y-173456222D01*
X144723945Y-173384794D01*
X144652517Y-173241937D01*
X144581088Y-172956222D01*
X144581088Y-172599080D01*
X144652517Y-172313365D01*
X144723945Y-172170508D01*
X144795374Y-172099080D01*
X144938231Y-172027651D01*
X146723945Y-172527651D02*
X146723945Y-173527651D01*
X146081088Y-172527651D02*
X146081088Y-173313365D01*
X146152517Y-173456222D01*
X146295374Y-173527651D01*
X146509660Y-173527651D01*
X146652517Y-173456222D01*
X146723945Y-173384794D01*
X147438231Y-173527651D02*
X147438231Y-172027651D01*
X147438231Y-172599080D02*
X147581088Y-172527651D01*
X147866802Y-172527651D01*
X148009660Y-172599080D01*
X148081088Y-172670508D01*
X148152517Y-172813365D01*
X148152517Y-173241937D01*
X148081088Y-173384794D01*
X148009660Y-173456222D01*
X147866802Y-173527651D01*
X147581088Y-173527651D01*
X147438231Y-173456222D01*
X149438231Y-172527651D02*
X149438231Y-173527651D01*
X148795374Y-172527651D02*
X148795374Y-173313365D01*
X148866802Y-173456222D01*
X149009660Y-173527651D01*
X149223945Y-173527651D01*
X149366802Y-173456222D01*
X149438231Y-173384794D01*
X150152517Y-172527651D02*
X150152517Y-173527651D01*
X150152517Y-172670508D02*
X150223945Y-172599080D01*
X150366802Y-172527651D01*
X150581088Y-172527651D01*
X150723945Y-172599080D01*
X150795374Y-172741937D01*
X150795374Y-173527651D01*
X151295374Y-172527651D02*
X151866802Y-172527651D01*
X151509660Y-172027651D02*
X151509660Y-173313365D01*
X151581088Y-173456222D01*
X151723945Y-173527651D01*
X151866802Y-173527651D01*
X153009660Y-172527651D02*
X153009660Y-173527651D01*
X152366802Y-172527651D02*
X152366802Y-173313365D01*
X152438231Y-173456222D01*
X152581088Y-173527651D01*
X152795374Y-173527651D01*
X152938231Y-173456222D01*
X153009660Y-173384794D01*
X154509660Y-173527651D02*
X153652517Y-173527651D01*
X154081088Y-173527651D02*
X154081088Y-172027651D01*
X153938231Y-172241937D01*
X153795374Y-172384794D01*
X153652517Y-172456222D01*
X155366802Y-172670508D02*
X155223945Y-172599080D01*
X155152517Y-172527651D01*
X155081088Y-172384794D01*
X155081088Y-172313365D01*
X155152517Y-172170508D01*
X155223945Y-172099080D01*
X155366802Y-172027651D01*
X155652517Y-172027651D01*
X155795374Y-172099080D01*
X155866802Y-172170508D01*
X155938231Y-172313365D01*
X155938231Y-172384794D01*
X155866802Y-172527651D01*
X155795374Y-172599080D01*
X155652517Y-172670508D01*
X155366802Y-172670508D01*
X155223945Y-172741937D01*
X155152517Y-172813365D01*
X155081088Y-172956222D01*
X155081088Y-173241937D01*
X155152517Y-173384794D01*
X155223945Y-173456222D01*
X155366802Y-173527651D01*
X155652517Y-173527651D01*
X155795374Y-173456222D01*
X155866802Y-173384794D01*
X155938231Y-173241937D01*
X155938231Y-172956222D01*
X155866802Y-172813365D01*
X155795374Y-172741937D01*
X155652517Y-172670508D01*
X156581088Y-173384794D02*
X156652517Y-173456222D01*
X156581088Y-173527651D01*
X156509660Y-173456222D01*
X156581088Y-173384794D01*
X156581088Y-173527651D01*
X157581088Y-172027651D02*
X157723945Y-172027651D01*
X157866802Y-172099080D01*
X157938231Y-172170508D01*
X158009660Y-172313365D01*
X158081088Y-172599080D01*
X158081088Y-172956222D01*
X158009660Y-173241937D01*
X157938231Y-173384794D01*
X157866802Y-173456222D01*
X157723945Y-173527651D01*
X157581088Y-173527651D01*
X157438231Y-173456222D01*
X157366802Y-173384794D01*
X157295374Y-173241937D01*
X157223945Y-172956222D01*
X157223945Y-172599080D01*
X157295374Y-172313365D01*
X157366802Y-172170508D01*
X157438231Y-172099080D01*
X157581088Y-172027651D01*
X159366802Y-172527651D02*
X159366802Y-173527651D01*
X159009660Y-171956222D02*
X158652517Y-173027651D01*
X159581088Y-173027651D01*
X160152517Y-173384794D02*
X160223945Y-173456222D01*
X160152517Y-173527651D01*
X160081088Y-173456222D01*
X160152517Y-173384794D01*
X160152517Y-173527651D01*
X161652517Y-173527651D02*
X160795374Y-173527651D01*
X161223945Y-173527651D02*
X161223945Y-172027651D01*
X161081088Y-172241937D01*
X160938231Y-172384794D01*
X160795374Y-172456222D01*
D10*
D11*
X101434660Y-168449080D02*
X209434660Y-168449080D01*
D10*
D12*
X188843945Y-170727651D02*
X188343945Y-170013365D01*
X187986802Y-170727651D02*
X187986802Y-169227651D01*
X188558231Y-169227651D01*
X188701088Y-169299080D01*
X188772517Y-169370508D01*
X188843945Y-169513365D01*
X188843945Y-169727651D01*
X188772517Y-169870508D01*
X188701088Y-169941937D01*
X188558231Y-170013365D01*
X187986802Y-170013365D01*
X190058231Y-170656222D02*
X189915374Y-170727651D01*
X189629660Y-170727651D01*
X189486802Y-170656222D01*
X189415374Y-170513365D01*
X189415374Y-169941937D01*
X189486802Y-169799080D01*
X189629660Y-169727651D01*
X189915374Y-169727651D01*
X190058231Y-169799080D01*
X190129660Y-169941937D01*
X190129660Y-170084794D01*
X189415374Y-170227651D01*
X190629660Y-169727651D02*
X190986802Y-170727651D01*
X191343945Y-169727651D01*
X191915374Y-170584794D02*
X191986802Y-170656222D01*
X191915374Y-170727651D01*
X191843945Y-170656222D01*
X191915374Y-170584794D01*
X191915374Y-170727651D01*
X191915374Y-169799080D02*
X191986802Y-169870508D01*
X191915374Y-169941937D01*
X191843945Y-169870508D01*
X191915374Y-169799080D01*
X191915374Y-169941937D01*
D10*
D11*
X102795374Y-170656222D02*
X103009660Y-170727651D01*
X103366802Y-170727651D01*
X103509660Y-170656222D01*
X103581088Y-170584794D01*
X103652517Y-170441937D01*
X103652517Y-170299080D01*
X103581088Y-170156222D01*
X103509660Y-170084794D01*
X103366802Y-170013365D01*
X103081088Y-169941937D01*
X102938231Y-169870508D01*
X102866802Y-169799080D01*
X102795374Y-169656222D01*
X102795374Y-169513365D01*
X102866802Y-169370508D01*
X102938231Y-169299080D01*
X103081088Y-169227651D01*
X103438231Y-169227651D01*
X103652517Y-169299080D01*
X104295374Y-170727651D02*
X104295374Y-169727651D01*
X104295374Y-169227651D02*
X104223945Y-169299080D01*
X104295374Y-169370508D01*
X104366802Y-169299080D01*
X104295374Y-169227651D01*
X104295374Y-169370508D01*
X104866802Y-169727651D02*
X105652517Y-169727651D01*
X104866802Y-170727651D01*
X105652517Y-170727651D01*
X106795374Y-170656222D02*
X106652517Y-170727651D01*
X106366802Y-170727651D01*
X106223945Y-170656222D01*
X106152517Y-170513365D01*
X106152517Y-169941937D01*
X106223945Y-169799080D01*
X106366802Y-169727651D01*
X106652517Y-169727651D01*
X106795374Y-169799080D01*
X106866802Y-169941937D01*
X106866802Y-170084794D01*
X106152517Y-170227651D01*
X107509660Y-170584794D02*
X107581088Y-170656222D01*
X107509660Y-170727651D01*
X107438231Y-170656222D01*
X107509660Y-170584794D01*
X107509660Y-170727651D01*
X107509660Y-169799080D02*
X107581088Y-169870508D01*
X107509660Y-169941937D01*
X107438231Y-169870508D01*
X107509660Y-169799080D01*
X107509660Y-169941937D01*
X109295374Y-170299080D02*
X110009660Y-170299080D01*
X109152517Y-170727651D02*
X109652517Y-169227651D01*
X110152517Y-170727651D01*
X111295374Y-169727651D02*
X111295374Y-170727651D01*
X110938231Y-169156222D02*
X110581088Y-170227651D01*
X111509660Y-170227651D01*
D10*
D11*
X187866802Y-173527651D02*
X187866802Y-172027651D01*
X189223945Y-173527651D02*
X189223945Y-172027651D01*
X189223945Y-173456222D02*
X189081088Y-173527651D01*
X188795374Y-173527651D01*
X188652517Y-173456222D01*
X188581088Y-173384794D01*
X188509660Y-173241937D01*
X188509660Y-172813365D01*
X188581088Y-172670508D01*
X188652517Y-172599080D01*
X188795374Y-172527651D01*
X189081088Y-172527651D01*
X189223945Y-172599080D01*
X189938231Y-173384794D02*
X190009660Y-173456222D01*
X189938231Y-173527651D01*
X189866802Y-173456222D01*
X189938231Y-173384794D01*
X189938231Y-173527651D01*
X189938231Y-172599080D02*
X190009660Y-172670508D01*
X189938231Y-172741937D01*
X189866802Y-172670508D01*
X189938231Y-172599080D01*
X189938231Y-172741937D01*
X192581088Y-173527651D02*
X191723945Y-173527651D01*
X192152517Y-173527651D02*
X192152517Y-172027651D01*
X192009660Y-172241937D01*
X191866802Y-172384794D01*
X191723945Y-172456222D01*
X194295374Y-171956222D02*
X193009660Y-173884794D01*
X195581088Y-173527651D02*
X194723945Y-173527651D01*
X195152517Y-173527651D02*
X195152517Y-172027651D01*
X195009660Y-172241937D01*
X194866802Y-172384794D01*
X194723945Y-172456222D01*
D10*
D11*
X101434660Y-164449080D02*
X209434660Y-164449080D01*
D10*
D13*
X103147040Y-165153841D02*
X104289898Y-165153841D01*
X103468469Y-167153841D02*
X103718469Y-165153841D01*
X104706564Y-167153841D02*
X104873231Y-165820508D01*
X104956564Y-165153841D02*
X104849421Y-165249080D01*
X104932755Y-165344318D01*
X105039898Y-165249080D01*
X104956564Y-165153841D01*
X104932755Y-165344318D01*
X105539898Y-165820508D02*
X106301802Y-165820508D01*
X105908945Y-165153841D02*
X105694660Y-166868127D01*
X105766088Y-167058603D01*
X105944660Y-167153841D01*
X106135136Y-167153841D01*
X107087517Y-167153841D02*
X106908945Y-167058603D01*
X106837517Y-166868127D01*
X107051802Y-165153841D01*
X108623231Y-167058603D02*
X108420850Y-167153841D01*
X108039898Y-167153841D01*
X107861326Y-167058603D01*
X107789898Y-166868127D01*
X107885136Y-166106222D01*
X108004183Y-165915746D01*
X108206564Y-165820508D01*
X108587517Y-165820508D01*
X108766088Y-165915746D01*
X108837517Y-166106222D01*
X108813707Y-166296699D01*
X107837517Y-166487175D01*
X109587517Y-166963365D02*
X109670850Y-167058603D01*
X109563707Y-167153841D01*
X109480374Y-167058603D01*
X109587517Y-166963365D01*
X109563707Y-167153841D01*
X109718469Y-165915746D02*
X109801802Y-166010984D01*
X109694660Y-166106222D01*
X109611326Y-166010984D01*
X109718469Y-165915746D01*
X109694660Y-166106222D01*
X112039898Y-167153841D02*
X112289898Y-165153841D01*
X112194660Y-165915746D02*
X112397040Y-165820508D01*
X112777993Y-165820508D01*
X112956564Y-165915746D01*
X113039898Y-166010984D01*
X113111326Y-166201460D01*
X113039898Y-166772889D01*
X112920850Y-166963365D01*
X112813707Y-167058603D01*
X112611326Y-167153841D01*
X112230374Y-167153841D01*
X112051802Y-167058603D01*
X114135136Y-167153841D02*
X113956564Y-167058603D01*
X113873231Y-166963365D01*
X113801802Y-166772889D01*
X113873231Y-166201460D01*
X113992279Y-166010984D01*
X114099421Y-165915746D01*
X114301802Y-165820508D01*
X114587517Y-165820508D01*
X114766088Y-165915746D01*
X114849421Y-166010984D01*
X114920850Y-166201460D01*
X114849421Y-166772889D01*
X114730374Y-166963365D01*
X114623231Y-167058603D01*
X114420850Y-167153841D01*
X114135136Y-167153841D01*
X115539898Y-165820508D02*
X116301802Y-165820508D01*
X115908945Y-165153841D02*
X115694660Y-166868127D01*
X115766088Y-167058603D01*
X115944660Y-167153841D01*
X116135136Y-167153841D01*
X116682755Y-165820508D02*
X117444660Y-165820508D01*
X117051802Y-165153841D02*
X116837517Y-166868127D01*
X116908945Y-167058603D01*
X117087517Y-167153841D01*
X117277993Y-167153841D01*
X118230374Y-167153841D02*
X118051802Y-167058603D01*
X117968469Y-166963365D01*
X117897040Y-166772889D01*
X117968469Y-166201460D01*
X118087517Y-166010984D01*
X118194660Y-165915746D01*
X118397040Y-165820508D01*
X118682755Y-165820508D01*
X118861326Y-165915746D01*
X118944660Y-166010984D01*
X119016088Y-166201460D01*
X118944660Y-166772889D01*
X118825612Y-166963365D01*
X118718469Y-167058603D01*
X118516088Y-167153841D01*
X118230374Y-167153841D01*
X119754183Y-167153841D02*
X119920850Y-165820508D01*
X119897040Y-166010984D02*
X120004183Y-165915746D01*
X120206564Y-165820508D01*
X120492279Y-165820508D01*
X120670850Y-165915746D01*
X120742279Y-166106222D01*
X120611326Y-167153841D01*
X120742279Y-166106222D02*
X120861326Y-165915746D01*
X121063707Y-165820508D01*
X121349421Y-165820508D01*
X121527993Y-165915746D01*
X121599421Y-166106222D01*
X121468469Y-167153841D01*
X123944660Y-167153841D02*
X124194660Y-165153841D01*
X124099421Y-165915746D02*
X124301802Y-165820508D01*
X124682755Y-165820508D01*
X124861326Y-165915746D01*
X124944660Y-166010984D01*
X125016088Y-166201460D01*
X124944660Y-166772889D01*
X124825612Y-166963365D01*
X124718469Y-167058603D01*
X124516088Y-167153841D01*
X124135136Y-167153841D01*
X123956564Y-167058603D01*
X126039898Y-167153841D02*
X125861326Y-167058603D01*
X125777993Y-166963365D01*
X125706564Y-166772889D01*
X125777993Y-166201460D01*
X125897040Y-166010984D01*
X126004183Y-165915746D01*
X126206564Y-165820508D01*
X126492279Y-165820508D01*
X126670850Y-165915746D01*
X126754183Y-166010984D01*
X126825612Y-166201460D01*
X126754183Y-166772889D01*
X126635136Y-166963365D01*
X126527993Y-167058603D01*
X126325612Y-167153841D01*
X126039898Y-167153841D01*
X128420850Y-167153841D02*
X128551802Y-166106222D01*
X128480374Y-165915746D01*
X128301802Y-165820508D01*
X127920850Y-165820508D01*
X127718469Y-165915746D01*
X128432755Y-167058603D02*
X128230374Y-167153841D01*
X127754183Y-167153841D01*
X127575612Y-167058603D01*
X127504183Y-166868127D01*
X127527993Y-166677651D01*
X127647040Y-166487175D01*
X127849421Y-166391937D01*
X128325612Y-166391937D01*
X128527993Y-166296699D01*
X129373231Y-167153841D02*
X129539898Y-165820508D01*
X129492279Y-166201460D02*
X129611326Y-166010984D01*
X129718469Y-165915746D01*
X129920850Y-165820508D01*
X130111326Y-165820508D01*
X131468469Y-167153841D02*
X131718469Y-165153841D01*
X131480374Y-167058603D02*
X131277993Y-167153841D01*
X130897040Y-167153841D01*
X130718469Y-167058603D01*
X130635136Y-166963365D01*
X130563707Y-166772889D01*
X130635136Y-166201460D01*
X130754183Y-166010984D01*
X130861326Y-165915746D01*
X131063707Y-165820508D01*
X131444660Y-165820508D01*
X131623231Y-165915746D01*
D10*
D11*
X103366802Y-162541937D02*
X102866802Y-162541937D01*
X102866802Y-163327651D02*
X102866802Y-161827651D01*
X103581088Y-161827651D01*
X104152517Y-163327651D02*
X104152517Y-162327651D01*
X104152517Y-161827651D02*
X104081088Y-161899080D01*
X104152517Y-161970508D01*
X104223945Y-161899080D01*
X104152517Y-161827651D01*
X104152517Y-161970508D01*
X105081088Y-163327651D02*
X104938231Y-163256222D01*
X104866802Y-163113365D01*
X104866802Y-161827651D01*
X106223945Y-163256222D02*
X106081088Y-163327651D01*
X105795374Y-163327651D01*
X105652517Y-163256222D01*
X105581088Y-163113365D01*
X105581088Y-162541937D01*
X105652517Y-162399080D01*
X105795374Y-162327651D01*
X106081088Y-162327651D01*
X106223945Y-162399080D01*
X106295374Y-162541937D01*
X106295374Y-162684794D01*
X105581088Y-162827651D01*
X106938231Y-163184794D02*
X107009660Y-163256222D01*
X106938231Y-163327651D01*
X106866802Y-163256222D01*
X106938231Y-163184794D01*
X106938231Y-163327651D01*
X106938231Y-162399080D02*
X107009660Y-162470508D01*
X106938231Y-162541937D01*
X106866802Y-162470508D01*
X106938231Y-162399080D01*
X106938231Y-162541937D01*
X108795374Y-163327651D02*
X108795374Y-161827651D01*
X108795374Y-162399080D02*
X108938231Y-162327651D01*
X109223945Y-162327651D01*
X109366802Y-162399080D01*
X109438231Y-162470508D01*
X109509660Y-162613365D01*
X109509660Y-163041937D01*
X109438231Y-163184794D01*
X109366802Y-163256222D01*
X109223945Y-163327651D01*
X108938231Y-163327651D01*
X108795374Y-163256222D01*
X110366802Y-163327651D02*
X110223945Y-163256222D01*
X110152517Y-163184794D01*
X110081088Y-163041937D01*
X110081088Y-162613365D01*
X110152517Y-162470508D01*
X110223945Y-162399080D01*
X110366802Y-162327651D01*
X110581088Y-162327651D01*
X110723945Y-162399080D01*
X110795374Y-162470508D01*
X110866802Y-162613365D01*
X110866802Y-163041937D01*
X110795374Y-163184794D01*
X110723945Y-163256222D01*
X110581088Y-163327651D01*
X110366802Y-163327651D01*
X111295374Y-162327651D02*
X111866802Y-162327651D01*
X111509660Y-161827651D02*
X111509660Y-163113365D01*
X111581088Y-163256222D01*
X111723945Y-163327651D01*
X111866802Y-163327651D01*
X112152517Y-162327651D02*
X112723945Y-162327651D01*
X112366802Y-161827651D02*
X112366802Y-163113365D01*
X112438231Y-163256222D01*
X112581088Y-163327651D01*
X112723945Y-163327651D01*
X113438231Y-163327651D02*
X113295374Y-163256222D01*
X113223945Y-163184794D01*
X113152517Y-163041937D01*
X113152517Y-162613365D01*
X113223945Y-162470508D01*
X113295374Y-162399080D01*
X113438231Y-162327651D01*
X113652517Y-162327651D01*
X113795374Y-162399080D01*
X113866802Y-162470508D01*
X113938231Y-162613365D01*
X113938231Y-163041937D01*
X113866802Y-163184794D01*
X113795374Y-163256222D01*
X113652517Y-163327651D01*
X113438231Y-163327651D01*
X114581088Y-163327651D02*
X114581088Y-162327651D01*
X114581088Y-162470508D02*
X114652517Y-162399080D01*
X114795374Y-162327651D01*
X115009660Y-162327651D01*
X115152517Y-162399080D01*
X115223945Y-162541937D01*
X115223945Y-163327651D01*
X115223945Y-162541937D02*
X115295374Y-162399080D01*
X115438231Y-162327651D01*
X115652517Y-162327651D01*
X115795374Y-162399080D01*
X115866802Y-162541937D01*
X115866802Y-163327651D01*
X116581088Y-162756222D02*
X117723945Y-162756222D01*
X118438231Y-163327651D02*
X118438231Y-161827651D01*
X118438231Y-162399080D02*
X118581088Y-162327651D01*
X118866802Y-162327651D01*
X119009660Y-162399080D01*
X119081088Y-162470508D01*
X119152517Y-162613365D01*
X119152517Y-163041937D01*
X119081088Y-163184794D01*
X119009660Y-163256222D01*
X118866802Y-163327651D01*
X118581088Y-163327651D01*
X118438231Y-163256222D01*
X120009660Y-163327651D02*
X119866802Y-163256222D01*
X119795374Y-163184794D01*
X119723945Y-163041937D01*
X119723945Y-162613365D01*
X119795374Y-162470508D01*
X119866802Y-162399080D01*
X120009660Y-162327651D01*
X120223945Y-162327651D01*
X120366802Y-162399080D01*
X120438231Y-162470508D01*
X120509660Y-162613365D01*
X120509660Y-163041937D01*
X120438231Y-163184794D01*
X120366802Y-163256222D01*
X120223945Y-163327651D01*
X120009660Y-163327651D01*
X121795374Y-163327651D02*
X121795374Y-162541937D01*
X121723945Y-162399080D01*
X121581088Y-162327651D01*
X121295374Y-162327651D01*
X121152517Y-162399080D01*
X121795374Y-163256222D02*
X121652517Y-163327651D01*
X121295374Y-163327651D01*
X121152517Y-163256222D01*
X121081088Y-163113365D01*
X121081088Y-162970508D01*
X121152517Y-162827651D01*
X121295374Y-162756222D01*
X121652517Y-162756222D01*
X121795374Y-162684794D01*
X122509660Y-163327651D02*
X122509660Y-162327651D01*
X122509660Y-162613365D02*
X122581088Y-162470508D01*
X122652517Y-162399080D01*
X122795374Y-162327651D01*
X122938231Y-162327651D01*
X124081088Y-163327651D02*
X124081088Y-161827651D01*
X124081088Y-163256222D02*
X123938231Y-163327651D01*
X123652517Y-163327651D01*
X123509660Y-163256222D01*
X123438231Y-163184794D01*
X123366802Y-163041937D01*
X123366802Y-162613365D01*
X123438231Y-162470508D01*
X123509660Y-162399080D01*
X123652517Y-162327651D01*
X123938231Y-162327651D01*
X124081088Y-162399080D01*
X124795374Y-163184794D02*
X124866802Y-163256222D01*
X124795374Y-163327651D01*
X124723945Y-163256222D01*
X124795374Y-163184794D01*
X124795374Y-163327651D01*
X125509660Y-163327651D02*
X125509660Y-161827651D01*
X125652517Y-162756222D02*
X126081088Y-163327651D01*
X126081088Y-162327651D02*
X125509660Y-162899080D01*
X126723945Y-163327651D02*
X126723945Y-162327651D01*
X126723945Y-161827651D02*
X126652517Y-161899080D01*
X126723945Y-161970508D01*
X126795374Y-161899080D01*
X126723945Y-161827651D01*
X126723945Y-161970508D01*
X128081088Y-163256222D02*
X127938231Y-163327651D01*
X127652517Y-163327651D01*
X127509660Y-163256222D01*
X127438231Y-163184794D01*
X127366802Y-163041937D01*
X127366802Y-162613365D01*
X127438231Y-162470508D01*
X127509660Y-162399080D01*
X127652517Y-162327651D01*
X127938231Y-162327651D01*
X128081088Y-162399080D01*
X129366802Y-163327651D02*
X129366802Y-162541937D01*
X129295374Y-162399080D01*
X129152517Y-162327651D01*
X128866802Y-162327651D01*
X128723945Y-162399080D01*
X129366802Y-163256222D02*
X129223945Y-163327651D01*
X128866802Y-163327651D01*
X128723945Y-163256222D01*
X128652517Y-163113365D01*
X128652517Y-162970508D01*
X128723945Y-162827651D01*
X128866802Y-162756222D01*
X129223945Y-162756222D01*
X129366802Y-162684794D01*
X130723945Y-163327651D02*
X130723945Y-161827651D01*
X130723945Y-163256222D02*
X130581088Y-163327651D01*
X130295374Y-163327651D01*
X130152517Y-163256222D01*
X130081088Y-163184794D01*
X130009660Y-163041937D01*
X130009660Y-162613365D01*
X130081088Y-162470508D01*
X130152517Y-162399080D01*
X130295374Y-162327651D01*
X130581088Y-162327651D01*
X130723945Y-162399080D01*
X131081088Y-163470508D02*
X132223945Y-163470508D01*
X132581088Y-162327651D02*
X132581088Y-163827651D01*
X132581088Y-162399080D02*
X132723945Y-162327651D01*
X133009660Y-162327651D01*
X133152517Y-162399080D01*
X133223945Y-162470508D01*
X133295374Y-162613365D01*
X133295374Y-163041937D01*
X133223945Y-163184794D01*
X133152517Y-163256222D01*
X133009660Y-163327651D01*
X132723945Y-163327651D01*
X132581088Y-163256222D01*
X134581088Y-163256222D02*
X134438231Y-163327651D01*
X134152517Y-163327651D01*
X134009660Y-163256222D01*
X133938231Y-163184794D01*
X133866802Y-163041937D01*
X133866802Y-162613365D01*
X133938231Y-162470508D01*
X134009660Y-162399080D01*
X134152517Y-162327651D01*
X134438231Y-162327651D01*
X134581088Y-162399080D01*
X135223945Y-163327651D02*
X135223945Y-161827651D01*
X135223945Y-162399080D02*
X135366802Y-162327651D01*
X135652517Y-162327651D01*
X135795374Y-162399080D01*
X135866802Y-162470508D01*
X135938231Y-162613365D01*
X135938231Y-163041937D01*
X135866802Y-163184794D01*
X135795374Y-163256222D01*
X135652517Y-163327651D01*
X135366802Y-163327651D01*
X135223945Y-163256222D01*
D10*
D11*
X101434660Y-158449080D02*
X209434660Y-158449080D01*
D10*
D11*
X102795374Y-160556222D02*
X103009660Y-160627651D01*
X103366802Y-160627651D01*
X103509660Y-160556222D01*
X103581088Y-160484794D01*
X103652517Y-160341937D01*
X103652517Y-160199080D01*
X103581088Y-160056222D01*
X103509660Y-159984794D01*
X103366802Y-159913365D01*
X103081088Y-159841937D01*
X102938231Y-159770508D01*
X102866802Y-159699080D01*
X102795374Y-159556222D01*
X102795374Y-159413365D01*
X102866802Y-159270508D01*
X102938231Y-159199080D01*
X103081088Y-159127651D01*
X103438231Y-159127651D01*
X103652517Y-159199080D01*
X104295374Y-160627651D02*
X104295374Y-159127651D01*
X104938231Y-160627651D02*
X104938231Y-159841937D01*
X104866802Y-159699080D01*
X104723945Y-159627651D01*
X104509660Y-159627651D01*
X104366802Y-159699080D01*
X104295374Y-159770508D01*
X106223945Y-160556222D02*
X106081088Y-160627651D01*
X105795374Y-160627651D01*
X105652517Y-160556222D01*
X105581088Y-160413365D01*
X105581088Y-159841937D01*
X105652517Y-159699080D01*
X105795374Y-159627651D01*
X106081088Y-159627651D01*
X106223945Y-159699080D01*
X106295374Y-159841937D01*
X106295374Y-159984794D01*
X105581088Y-160127651D01*
X107509660Y-160556222D02*
X107366802Y-160627651D01*
X107081088Y-160627651D01*
X106938231Y-160556222D01*
X106866802Y-160413365D01*
X106866802Y-159841937D01*
X106938231Y-159699080D01*
X107081088Y-159627651D01*
X107366802Y-159627651D01*
X107509660Y-159699080D01*
X107581088Y-159841937D01*
X107581088Y-159984794D01*
X106866802Y-160127651D01*
X108009660Y-159627651D02*
X108581088Y-159627651D01*
X108223945Y-159127651D02*
X108223945Y-160413365D01*
X108295374Y-160556222D01*
X108438231Y-160627651D01*
X108581088Y-160627651D01*
X109081088Y-160484794D02*
X109152517Y-160556222D01*
X109081088Y-160627651D01*
X109009660Y-160556222D01*
X109081088Y-160484794D01*
X109081088Y-160627651D01*
X109081088Y-159699080D02*
X109152517Y-159770508D01*
X109081088Y-159841937D01*
X109009660Y-159770508D01*
X109081088Y-159699080D01*
X109081088Y-159841937D01*
D10*
D12*
X102986802Y-157627651D02*
X102986802Y-156127651D01*
X103486802Y-157199080D01*
X103986802Y-156127651D01*
X103986802Y-157627651D01*
X104986802Y-156127651D02*
X105272517Y-156127651D01*
X105415374Y-156199080D01*
X105558231Y-156341937D01*
X105629660Y-156627651D01*
X105629660Y-157127651D01*
X105558231Y-157413365D01*
X105415374Y-157556222D01*
X105272517Y-157627651D01*
X104986802Y-157627651D01*
X104843945Y-157556222D01*
X104701088Y-157413365D01*
X104629660Y-157127651D01*
X104629660Y-156627651D01*
X104701088Y-156341937D01*
X104843945Y-156199080D01*
X104986802Y-156127651D01*
X106272517Y-157627651D02*
X106272517Y-156127651D01*
X106629660Y-156127651D01*
X106843945Y-156199080D01*
X106986802Y-156341937D01*
X107058231Y-156484794D01*
X107129660Y-156770508D01*
X107129660Y-156984794D01*
X107058231Y-157270508D01*
X106986802Y-157413365D01*
X106843945Y-157556222D01*
X106629660Y-157627651D01*
X106272517Y-157627651D01*
D10*
D11*
X121434660Y-168449080D02*
X121434660Y-171449080D01*
D10*
D11*
X185434660Y-168449080D02*
X185434660Y-174949080D01*
M02*
