G04 #@! TF.FileFunction,Soldermask,Top*
%FSLAX46Y46*%
G04 Gerber Fmt 4.6, Leading zero omitted, Abs format (unit mm)*
G04 Created by KiCad (PCBNEW (2015-05-18 BZR 5668)-product) date Thu 11 Jun 2015 10:27:38 PM CEST*
%MOMM*%
G01*
G04 APERTURE LIST*
%ADD10C,0.100000*%
%ADD11C,1.100000*%
%ADD12R,3.100000X3.100000*%
%ADD13C,3.600000*%
%ADD14R,1.751000X3.148000*%
%ADD15R,6.196000X6.196000*%
%ADD16R,0.850000X0.900000*%
%ADD17R,1.400000X1.400000*%
%ADD18C,1.400000*%
%ADD19R,0.900000X0.850000*%
%ADD20R,1.100000X1.350000*%
%ADD21R,1.350000X1.100000*%
%ADD22R,1.100000X2.600000*%
%ADD23R,1.700200X3.699180*%
%ADD24R,3.699180X1.700200*%
%ADD25R,1.700000X1.100000*%
%ADD26R,3.099740X1.700200*%
%ADD27R,1.700200X3.099740*%
%ADD28R,1.499540X1.298880*%
%ADD29R,1.499540X1.100760*%
%ADD30R,1.298880X1.499540*%
%ADD31R,1.100760X1.499540*%
%ADD32R,5.700000X2.400000*%
%ADD33R,5.500040X3.000680*%
%ADD34C,1.720000*%
%ADD35C,1.950000*%
%ADD36R,1.827200X1.827200*%
%ADD37O,1.827200X1.827200*%
%ADD38R,1.827200X2.132000*%
%ADD39O,1.827200X2.132000*%
%ADD40R,1.000000X0.600000*%
%ADD41R,0.600000X1.000000*%
%ADD42R,1.400000X0.800000*%
%ADD43R,0.800000X1.400000*%
%ADD44C,2.200000*%
%ADD45C,1.850000*%
%ADD46R,0.350000X1.400000*%
%ADD47R,1.400000X0.350000*%
%ADD48C,1.700000*%
%ADD49C,1.200000*%
%ADD50R,4.100000X6.900000*%
%ADD51R,0.450000X2.100000*%
%ADD52R,0.700000X1.650000*%
%ADD53R,1.650000X0.700000*%
%ADD54R,0.400000X1.500000*%
%ADD55R,1.624000X2.132000*%
%ADD56R,0.700000X1.600000*%
%ADD57C,2.500000*%
%ADD58C,2.400000*%
%ADD59C,2.100000*%
%ADD60C,1.601140*%
%ADD61C,3.400000*%
%ADD62C,3.100000*%
%ADD63R,4.100000X4.100000*%
%ADD64R,3.600000X3.600000*%
%ADD65R,0.550000X0.690000*%
%ADD66R,0.690000X0.550000*%
%ADD67R,0.750000X1.160000*%
%ADD68R,0.900100X0.900100*%
%ADD69C,1.624000*%
%ADD70C,2.800020*%
%ADD71R,2.401240X2.599360*%
%ADD72R,3.000000X3.000000*%
%ADD73C,3.000000*%
%ADD74R,2.098980X2.098980*%
%ADD75C,5.600000*%
%ADD76C,1.600000*%
G04 APERTURE END LIST*
D10*
D11*
X160487360Y-128915160D03*
D12*
X160487360Y-128915160D03*
D11*
X180822600Y-51473100D03*
D12*
X180822600Y-51473100D03*
D11*
X79629000Y-151638000D03*
D12*
X79629000Y-151638000D03*
D13*
X75582780Y-23080980D03*
X146080480Y-23073360D03*
X228574600Y-156575760D03*
X146075400Y-156575760D03*
D14*
X135826500Y-108280200D03*
D15*
X138112500Y-101930200D03*
D14*
X140398500Y-108280200D03*
D16*
X217830400Y-47510000D03*
X217830400Y-49010000D03*
D17*
X224028000Y-41402000D03*
D18*
X224028000Y-46402000D03*
D16*
X217830400Y-54191600D03*
X217830400Y-52691600D03*
D17*
X224028000Y-57708800D03*
D18*
X224028000Y-52708800D03*
D16*
X142671800Y-109119100D03*
X142671800Y-107619100D03*
D17*
X142036800Y-113703100D03*
D18*
X140036800Y-113703100D03*
D16*
X133781800Y-103136000D03*
X133781800Y-104636000D03*
D17*
X134162800Y-113703100D03*
D18*
X136162800Y-113703100D03*
D19*
X197065200Y-52222400D03*
X198565200Y-52222400D03*
D17*
X199115680Y-68646040D03*
D18*
X201115680Y-68646040D03*
D19*
X206998000Y-71221600D03*
X205498000Y-71221600D03*
D17*
X201422000Y-87172800D03*
D18*
X203422000Y-87172800D03*
D16*
X215849200Y-75680000D03*
X215849200Y-74180000D03*
D17*
X211175600Y-87172800D03*
D18*
X209175600Y-87172800D03*
D16*
X204094080Y-57685240D03*
X204094080Y-59185240D03*
D17*
X201625200Y-48260000D03*
D18*
X199625200Y-48260000D03*
D19*
X164949000Y-109220000D03*
X163449000Y-109220000D03*
X166737600Y-101396800D03*
X168237600Y-101396800D03*
D20*
X168995600Y-103225600D03*
X166995600Y-103225600D03*
D16*
X159037600Y-94819600D03*
X159037600Y-96319600D03*
X151753000Y-96355600D03*
X151753000Y-94855600D03*
D21*
X153607200Y-96605600D03*
X153607200Y-94605600D03*
D19*
X158309002Y-109131800D03*
X159809002Y-109131800D03*
D21*
X159596400Y-110876400D03*
X159596400Y-112876400D03*
D19*
X149619400Y-99745800D03*
X148119400Y-99745800D03*
D20*
X149615400Y-101777800D03*
X147615400Y-101777800D03*
D19*
X152921400Y-102793800D03*
X151421400Y-102793800D03*
D20*
X149615400Y-104063800D03*
X147615400Y-104063800D03*
D19*
X152921400Y-104825800D03*
X151421400Y-104825800D03*
D22*
X149607400Y-107111800D03*
X146607400Y-107111800D03*
D16*
X151663400Y-107631800D03*
X151663400Y-109131800D03*
D22*
X149607400Y-110667800D03*
X146607400Y-110667800D03*
D20*
X121224800Y-56235600D03*
X123224800Y-56235600D03*
D19*
X121220800Y-54305200D03*
X122720800Y-54305200D03*
D16*
X199898000Y-124980000D03*
X199898000Y-126480000D03*
D23*
X191719200Y-111869220D03*
X191719200Y-106367580D03*
D19*
X112356200Y-128981200D03*
X113856200Y-128981200D03*
X113423000Y-149301200D03*
X114923000Y-149301200D03*
D23*
X131533900Y-142766480D03*
X131533900Y-148268120D03*
D19*
X106133200Y-94081600D03*
X107633200Y-94081600D03*
X172986000Y-40259000D03*
X174486000Y-40259000D03*
D21*
X163576000Y-36560000D03*
X163576000Y-34560000D03*
D16*
X158623000Y-36310000D03*
X158623000Y-34810000D03*
X170840400Y-45962000D03*
X170840400Y-44462000D03*
X159105600Y-40475600D03*
X159105600Y-38975600D03*
X130175000Y-44692000D03*
X130175000Y-43192000D03*
X200914000Y-34278000D03*
X200914000Y-32778000D03*
D24*
X178097180Y-42037000D03*
X183598820Y-42037000D03*
D19*
X179566000Y-46482000D03*
X178066000Y-46482000D03*
X152921400Y-98221800D03*
X151421400Y-98221800D03*
X152921400Y-99999800D03*
X151421400Y-99999800D03*
D25*
X198560000Y-119269200D03*
X198560000Y-116269200D03*
D26*
X180558440Y-122936000D03*
X176159160Y-122936000D03*
D16*
X199260900Y-112843300D03*
X199260900Y-114343300D03*
D19*
X199056000Y-121071200D03*
X197556000Y-121071200D03*
D25*
X198458400Y-132220400D03*
X198458400Y-135220400D03*
D26*
X180558440Y-128524000D03*
X176159160Y-128524000D03*
D16*
X199260900Y-138591300D03*
X199260900Y-137091300D03*
D19*
X198294000Y-130418400D03*
X196794000Y-130418400D03*
X118174200Y-128930400D03*
X116674200Y-128930400D03*
X116775800Y-121589800D03*
X118275800Y-121589800D03*
D27*
X125057600Y-127472440D03*
X125057600Y-123073160D03*
D23*
X108788200Y-120556020D03*
X108788200Y-115054380D03*
D26*
X106822240Y-124460000D03*
X102422960Y-124460000D03*
D19*
X118174200Y-149301200D03*
X116674200Y-149301200D03*
X116775800Y-141884400D03*
X118275800Y-141884400D03*
D27*
X125032200Y-147690840D03*
X125032200Y-143291560D03*
D23*
X108788200Y-140876020D03*
X108788200Y-135374380D03*
D26*
X106822240Y-144780000D03*
X102422960Y-144780000D03*
D20*
X105883200Y-90170000D03*
X107883200Y-90170000D03*
D26*
X98465640Y-88646000D03*
X94066360Y-88646000D03*
D20*
X105883200Y-92252800D03*
X107883200Y-92252800D03*
D26*
X98465640Y-94234000D03*
X94066360Y-94234000D03*
X105158540Y-85382100D03*
X100759260Y-85382100D03*
D28*
X156344620Y-36126420D03*
D29*
X156344620Y-34406840D03*
X154144980Y-34406840D03*
X154144980Y-36306760D03*
D30*
X170695620Y-40556180D03*
D31*
X168976040Y-40556180D03*
X168976040Y-42755820D03*
X170875960Y-42755820D03*
D32*
X214985600Y-29624800D03*
X214985600Y-37024800D03*
D33*
X210566000Y-45849540D03*
X210566000Y-55852060D03*
D21*
X166573200Y-27600400D03*
X166573200Y-29600400D03*
X160909000Y-36567620D03*
X160909000Y-34567620D03*
D34*
X171701460Y-31589980D03*
X171701460Y-33589980D03*
X171701460Y-35589980D03*
D35*
X174421460Y-30859980D03*
D34*
X171701460Y-37589980D03*
D35*
X174421460Y-37859980D03*
X168981460Y-30859980D03*
X168981460Y-37859980D03*
D36*
X83312000Y-67157600D03*
D37*
X83312000Y-64617600D03*
X85852000Y-67157600D03*
X85852000Y-64617600D03*
X88392000Y-67157600D03*
X88392000Y-64617600D03*
X90932000Y-67157600D03*
X90932000Y-64617600D03*
X93472000Y-67157600D03*
X93472000Y-64617600D03*
X96012000Y-67157600D03*
X96012000Y-64617600D03*
X98552000Y-67157600D03*
X98552000Y-64617600D03*
X101092000Y-67157600D03*
X101092000Y-64617600D03*
X103632000Y-67157600D03*
X103632000Y-64617600D03*
X106172000Y-67157600D03*
X106172000Y-64617600D03*
D38*
X150672800Y-83566000D03*
D39*
X148132800Y-83566000D03*
X145592800Y-83566000D03*
X143052800Y-83566000D03*
X140512800Y-83566000D03*
X137972800Y-83566000D03*
X135432800Y-83566000D03*
X132892800Y-83566000D03*
X130352800Y-83566000D03*
X127812800Y-83566000D03*
D38*
X89662000Y-57861200D03*
D39*
X92202000Y-57861200D03*
X94742000Y-57861200D03*
D40*
X157412000Y-96472000D03*
X157412000Y-94972000D03*
X164219200Y-93728800D03*
X164219200Y-92228800D03*
X165946400Y-93728800D03*
X165946400Y-92228800D03*
X165946400Y-96472000D03*
X165946400Y-94972000D03*
X164219200Y-96472000D03*
X164219200Y-94972000D03*
X162441200Y-96472000D03*
X162441200Y-94972000D03*
X160663200Y-96472000D03*
X160663200Y-94972000D03*
D41*
X163608320Y-110911640D03*
X165108320Y-110911640D03*
D40*
X168249600Y-98513200D03*
X168249600Y-100013200D03*
X166471600Y-98513200D03*
X166471600Y-100013200D03*
D41*
X87747540Y-27548840D03*
X86247540Y-27548840D03*
X186905200Y-116281200D03*
X188405200Y-116281200D03*
D40*
X188772800Y-119239600D03*
X188772800Y-120739600D03*
D41*
X183095200Y-116281200D03*
X184595200Y-116281200D03*
D40*
X184962800Y-120130000D03*
X184962800Y-118630000D03*
X178993800Y-83350800D03*
X178993800Y-81850800D03*
X177228500Y-81838100D03*
X177228500Y-83338100D03*
D41*
X186905200Y-135229600D03*
X188405200Y-135229600D03*
D40*
X188772800Y-130771200D03*
X188772800Y-132271200D03*
D41*
X183095200Y-135229600D03*
X184595200Y-135229600D03*
D40*
X184962800Y-132880800D03*
X184962800Y-131380800D03*
X175463200Y-81838100D03*
X175463200Y-83338100D03*
X173697900Y-81838100D03*
X173697900Y-83338100D03*
D41*
X94869700Y-127177800D03*
X93369700Y-127177800D03*
X94818900Y-105537000D03*
X93318900Y-105537000D03*
X98235200Y-128371600D03*
X96735200Y-128371600D03*
D40*
X100253800Y-107341100D03*
X100253800Y-105841100D03*
X105257600Y-97016000D03*
X105257600Y-95516000D03*
D41*
X98665600Y-98806000D03*
X100165600Y-98806000D03*
D40*
X157073600Y-38975600D03*
X157073600Y-40475600D03*
X163576000Y-38975600D03*
X163576000Y-40475600D03*
X161340800Y-40475600D03*
X161340800Y-38975600D03*
D41*
X172986000Y-45847000D03*
X174486000Y-45847000D03*
D42*
X110625200Y-36352000D03*
X110625200Y-38252000D03*
D40*
X98839600Y-40338000D03*
X98839600Y-38838000D03*
D42*
X133494780Y-38402300D03*
X133494780Y-36502300D03*
D41*
X126910400Y-47396400D03*
X128410400Y-47396400D03*
D43*
X100772000Y-36830000D03*
X98872000Y-36830000D03*
D40*
X108288400Y-38177600D03*
X108288400Y-39677600D03*
D41*
X197681280Y-33649920D03*
X196181280Y-33649920D03*
D42*
X191135000Y-36134000D03*
X191135000Y-38034000D03*
D41*
X189089600Y-49225200D03*
X190589600Y-49225200D03*
D42*
X193294000Y-36134000D03*
X193294000Y-38034000D03*
X186309000Y-33213000D03*
X186309000Y-35113000D03*
D40*
X182372000Y-35040000D03*
X182372000Y-33540000D03*
X192125600Y-48475200D03*
X192125600Y-49975200D03*
D42*
X188595000Y-33213000D03*
X188595000Y-35113000D03*
D40*
X150672800Y-79387000D03*
X150672800Y-80887000D03*
X148132800Y-79387000D03*
X148132800Y-80887000D03*
X145592800Y-79387000D03*
X145592800Y-80887000D03*
X140512800Y-79387000D03*
X140512800Y-80887000D03*
X132892800Y-79387000D03*
X132892800Y-80887000D03*
X130352800Y-79387000D03*
X130352800Y-80887000D03*
X127812800Y-79387000D03*
X127812800Y-80887000D03*
X198120000Y-29730000D03*
X198120000Y-31230000D03*
X184277000Y-35040000D03*
X184277000Y-33540000D03*
X198120000Y-27063000D03*
X198120000Y-28563000D03*
D41*
X195703200Y-119242400D03*
X194203200Y-119242400D03*
D40*
X195857300Y-114343300D03*
X195857300Y-112843300D03*
D41*
X192756800Y-124932000D03*
X191256800Y-124932000D03*
D40*
X197584500Y-112843300D03*
X197584500Y-114343300D03*
X190703200Y-123432000D03*
X190703200Y-121932000D03*
X188976000Y-121932000D03*
X188976000Y-123432000D03*
D41*
X195703200Y-132196400D03*
X194203200Y-132196400D03*
D40*
X192430400Y-121932000D03*
X192430400Y-123432000D03*
X187248800Y-121932000D03*
X187248800Y-123432000D03*
X195857300Y-137091300D03*
X195857300Y-138591300D03*
D41*
X192756800Y-126557600D03*
X191256800Y-126557600D03*
D40*
X197584500Y-138591300D03*
X197584500Y-137091300D03*
X190703200Y-128028000D03*
X190703200Y-129528000D03*
X188976000Y-129528000D03*
X188976000Y-128028000D03*
X192430400Y-129528000D03*
X192430400Y-128028000D03*
X187248800Y-129528000D03*
X187248800Y-128028000D03*
D41*
X195891720Y-108686600D03*
X197391720Y-108686600D03*
X197401880Y-106842560D03*
X195901880Y-106842560D03*
X119519000Y-128930400D03*
X121019000Y-128930400D03*
X115380200Y-121589800D03*
X113880200Y-121589800D03*
D40*
X121437400Y-125691200D03*
X121437400Y-127191200D03*
X119761000Y-125691200D03*
X119761000Y-127191200D03*
X101219000Y-117844000D03*
X101219000Y-116344000D03*
X109601000Y-124472000D03*
X109601000Y-125972000D03*
X103251000Y-117844000D03*
X103251000Y-116344000D03*
X101207000Y-119392000D03*
X101207000Y-120892000D03*
X103261200Y-119402160D03*
X103261200Y-120902160D03*
D41*
X119519000Y-149301200D03*
X121019000Y-149301200D03*
X115380200Y-141884400D03*
X113880200Y-141884400D03*
D40*
X121450800Y-146011200D03*
X121450800Y-147511200D03*
X119749000Y-146011200D03*
X119749000Y-147511200D03*
X101219000Y-138164000D03*
X101219000Y-136664000D03*
X109601000Y-144792000D03*
X109601000Y-146292000D03*
X103251000Y-138164000D03*
X103251000Y-136664000D03*
X101219000Y-139712000D03*
X101219000Y-141212000D03*
X103261200Y-139710160D03*
X103261200Y-141210160D03*
X137604500Y-146303300D03*
X137604500Y-147803300D03*
X135801100Y-147803300D03*
X135801100Y-146303300D03*
D41*
X95619000Y-84963000D03*
X94119000Y-84963000D03*
X93839600Y-97917000D03*
X95339600Y-97917000D03*
D44*
X90433440Y-25212840D03*
D45*
X89173440Y-22722840D03*
X84673440Y-22722840D03*
D44*
X83423440Y-25212840D03*
D14*
X201655680Y-55184040D03*
D15*
X199369680Y-61534040D03*
D14*
X197083680Y-55184040D03*
X203687680Y-74183240D03*
D15*
X201401680Y-80533240D03*
D14*
X199115680Y-74183240D03*
X213441280Y-74183240D03*
D15*
X211155280Y-80533240D03*
D14*
X208869280Y-74183240D03*
D46*
X162592200Y-98697800D03*
X162092200Y-98697800D03*
X161592200Y-98697800D03*
X161092200Y-98697800D03*
X160592200Y-98697800D03*
X160092200Y-98697800D03*
X159592200Y-98697800D03*
X159092200Y-98697800D03*
X158592200Y-98697800D03*
X158092200Y-98697800D03*
X157592200Y-98697800D03*
X157092200Y-98697800D03*
D47*
X155492200Y-100297800D03*
X155492200Y-100797800D03*
X155492200Y-101297800D03*
X155492200Y-101797800D03*
X155492200Y-102297800D03*
X155492200Y-102797800D03*
X155492200Y-103297800D03*
X155492200Y-103797800D03*
X155492200Y-104297800D03*
X155492200Y-104797800D03*
X155492200Y-105297800D03*
X155492200Y-105797800D03*
D46*
X157092200Y-107397800D03*
X157592200Y-107397800D03*
X158092200Y-107397800D03*
X158592200Y-107397800D03*
X159092200Y-107397800D03*
X159592200Y-107397800D03*
X160092200Y-107397800D03*
X160592200Y-107397800D03*
X161092200Y-107397800D03*
X161592200Y-107397800D03*
X162092200Y-107397800D03*
X162592200Y-107397800D03*
D47*
X164192200Y-105797800D03*
X164192200Y-105297800D03*
X164192200Y-104797800D03*
X164192200Y-104297800D03*
X164192200Y-103797800D03*
X164192200Y-103297800D03*
X164192200Y-102797800D03*
X164192200Y-102297800D03*
X164192200Y-101797800D03*
X164192200Y-101297800D03*
X164192200Y-100797800D03*
X164192200Y-100297800D03*
D48*
X185342800Y-63500000D03*
D49*
X118542800Y-63500000D03*
D50*
X114942800Y-71400000D03*
X188942800Y-71400000D03*
D51*
X183592800Y-59400000D03*
X182992800Y-59400000D03*
X182392800Y-59400000D03*
X181792800Y-59400000D03*
X181192800Y-59400000D03*
X180592800Y-59400000D03*
X179992800Y-59400000D03*
X179392800Y-59400000D03*
X178792800Y-59400000D03*
X178192800Y-59400000D03*
X177592800Y-59400000D03*
X176992800Y-59400000D03*
X176392800Y-59400000D03*
X175792800Y-59400000D03*
X175192800Y-59400000D03*
X174592800Y-59400000D03*
X173992800Y-59400000D03*
X173392800Y-59400000D03*
X172792800Y-59400000D03*
X172192800Y-59400000D03*
X167992800Y-59400000D03*
X167392800Y-59400000D03*
X166792800Y-59400000D03*
X166192800Y-59400000D03*
X165592800Y-59400000D03*
X164992800Y-59400000D03*
X164392800Y-59400000D03*
X163792800Y-59400000D03*
X163192800Y-59400000D03*
X162592800Y-59400000D03*
X161992800Y-59400000D03*
X161392800Y-59400000D03*
X160792800Y-59400000D03*
X160192800Y-59400000D03*
X159592800Y-59400000D03*
X158992800Y-59400000D03*
X158392800Y-59400000D03*
X157792800Y-59400000D03*
X157192800Y-59400000D03*
X156592800Y-59400000D03*
X155992800Y-59400000D03*
X155392800Y-59400000D03*
X154792800Y-59400000D03*
X154192800Y-59400000D03*
X153592800Y-59400000D03*
X152992800Y-59400000D03*
X152392800Y-59400000D03*
X151792800Y-59400000D03*
X151192800Y-59400000D03*
X150592800Y-59400000D03*
X149992800Y-59400000D03*
X149392800Y-59400000D03*
X148792800Y-59400000D03*
X148192800Y-59400000D03*
X147592800Y-59400000D03*
X146992800Y-59400000D03*
X146392800Y-59400000D03*
X145792800Y-59400000D03*
X145192800Y-59400000D03*
X144592800Y-59400000D03*
X143992800Y-59400000D03*
X143392800Y-59400000D03*
X142792800Y-59400000D03*
X142192800Y-59400000D03*
X141592800Y-59400000D03*
X140992800Y-59400000D03*
X140392800Y-59400000D03*
X139792800Y-59400000D03*
X139192800Y-59400000D03*
X138592800Y-59400000D03*
X137992800Y-59400000D03*
X137392800Y-59400000D03*
X136792800Y-59400000D03*
X136192800Y-59400000D03*
X135592800Y-59400000D03*
X134992800Y-59400000D03*
X134392800Y-59400000D03*
X133792800Y-59400000D03*
X133192800Y-59400000D03*
X132592800Y-59400000D03*
X131992800Y-59400000D03*
X131392800Y-59400000D03*
X130792800Y-59400000D03*
X130192800Y-59400000D03*
X129592800Y-59400000D03*
X128992800Y-59400000D03*
X128392800Y-59400000D03*
X127792800Y-59400000D03*
X127192800Y-59400000D03*
X126592800Y-59400000D03*
X125992800Y-59400000D03*
X125392800Y-59400000D03*
X124792800Y-59400000D03*
X124192800Y-59400000D03*
X123592800Y-59400000D03*
X122992800Y-59400000D03*
X122392800Y-59400000D03*
X121792800Y-59400000D03*
X121192800Y-59400000D03*
X120592800Y-59400000D03*
X183292800Y-67600000D03*
X182692800Y-67600000D03*
X182092800Y-67600000D03*
X181492800Y-67600000D03*
X180892800Y-67600000D03*
X180292800Y-67600000D03*
X179692800Y-67600000D03*
X179092800Y-67600000D03*
X178492800Y-67600000D03*
X177892800Y-67600000D03*
X177292800Y-67600000D03*
X176692800Y-67600000D03*
X176092800Y-67600000D03*
X175492800Y-67600000D03*
X174892800Y-67600000D03*
X174292800Y-67600000D03*
X173692800Y-67600000D03*
X173092800Y-67600000D03*
X172492800Y-67600000D03*
X171892800Y-67600000D03*
X167692800Y-67600000D03*
X167092800Y-67600000D03*
X166492800Y-67600000D03*
X165892800Y-67600000D03*
X165292800Y-67600000D03*
X164692800Y-67600000D03*
X164092800Y-67600000D03*
X163492800Y-67600000D03*
X162892800Y-67600000D03*
X162292800Y-67600000D03*
X161692800Y-67600000D03*
X161092800Y-67600000D03*
X160492800Y-67600000D03*
X159892800Y-67600000D03*
X159292800Y-67600000D03*
X158692800Y-67600000D03*
X158092800Y-67600000D03*
X157492800Y-67600000D03*
X156892800Y-67600000D03*
X156292800Y-67600000D03*
X155692800Y-67600000D03*
X155092800Y-67600000D03*
X154492800Y-67600000D03*
X153892800Y-67600000D03*
X153292800Y-67600000D03*
X152692800Y-67600000D03*
X152092800Y-67600000D03*
X151492800Y-67600000D03*
X150892800Y-67600000D03*
X150292800Y-67600000D03*
X149692800Y-67600000D03*
X149092800Y-67600000D03*
X148492800Y-67600000D03*
X147892800Y-67600000D03*
X147292800Y-67600000D03*
X146692800Y-67600000D03*
X146092800Y-67600000D03*
X145492800Y-67600000D03*
X144892800Y-67600000D03*
X144292800Y-67600000D03*
X143692800Y-67600000D03*
X143092800Y-67600000D03*
X142492800Y-67600000D03*
X141892800Y-67600000D03*
X141292800Y-67600000D03*
X140692800Y-67600000D03*
X140092800Y-67600000D03*
X139492800Y-67600000D03*
X138892800Y-67600000D03*
X138292800Y-67600000D03*
X137692800Y-67600000D03*
X137092800Y-67600000D03*
X136492800Y-67600000D03*
X135892800Y-67600000D03*
X135292800Y-67600000D03*
X134692800Y-67600000D03*
X134092800Y-67600000D03*
X133492800Y-67600000D03*
X132892800Y-67600000D03*
X132292800Y-67600000D03*
X131692800Y-67600000D03*
X131092800Y-67600000D03*
X130492800Y-67600000D03*
X129892800Y-67600000D03*
X129292800Y-67600000D03*
X128692800Y-67600000D03*
X128092800Y-67600000D03*
X127492800Y-67600000D03*
X126892800Y-67600000D03*
X126292800Y-67600000D03*
X125692800Y-67600000D03*
X125092800Y-67600000D03*
X124492800Y-67600000D03*
X123892800Y-67600000D03*
X123292800Y-67600000D03*
X122692800Y-67600000D03*
X122092800Y-67600000D03*
X121492800Y-67600000D03*
X120892800Y-67600000D03*
X120292800Y-67600000D03*
D52*
X198247000Y-123030000D03*
X196977000Y-123030000D03*
X195707000Y-123030000D03*
X194437000Y-123030000D03*
X194437000Y-128430000D03*
X195707000Y-128430000D03*
X196977000Y-128430000D03*
X198247000Y-128430000D03*
D53*
X117762000Y-127177800D03*
X117762000Y-125907800D03*
X117762000Y-124637800D03*
X117762000Y-123367800D03*
X112362000Y-123367800D03*
X112362000Y-124637800D03*
X112362000Y-125907800D03*
X112362000Y-127177800D03*
X117787400Y-147497800D03*
X117787400Y-146227800D03*
X117787400Y-144957800D03*
X117787400Y-143687800D03*
X112387400Y-143687800D03*
X112387400Y-144957800D03*
X112387400Y-146227800D03*
X112387400Y-147497800D03*
D54*
X104124000Y-89240000D03*
X103624000Y-89240000D03*
X103124000Y-89240000D03*
X102624000Y-89240000D03*
X102124000Y-89240000D03*
X102124000Y-93640000D03*
X102624000Y-93640000D03*
X103124000Y-93640000D03*
X103624000Y-93640000D03*
X104124000Y-93640000D03*
D55*
X127652780Y-37325300D03*
X125112780Y-37325300D03*
X122572780Y-37325300D03*
X120032780Y-37325300D03*
X120032780Y-44945300D03*
X122572780Y-44945300D03*
X125112780Y-44945300D03*
X127652780Y-44945300D03*
D56*
X186690000Y-46642000D03*
X187960000Y-46642000D03*
X189230000Y-46642000D03*
X190500000Y-46642000D03*
X191770000Y-46642000D03*
X193040000Y-46642000D03*
X194310000Y-46642000D03*
X194310000Y-41242000D03*
X193040000Y-41242000D03*
X191770000Y-41242000D03*
X190500000Y-41242000D03*
X189230000Y-41242000D03*
X187960000Y-41242000D03*
X186690000Y-41242000D03*
D57*
X98078260Y-26569660D03*
D58*
X110578260Y-34069660D03*
D59*
X103078260Y-21569660D03*
D58*
X113078260Y-31569660D03*
X105578260Y-31569660D03*
X98078260Y-31569660D03*
X100578260Y-34069660D03*
D59*
X108078260Y-21569660D03*
D57*
X113078260Y-26569660D03*
D59*
X195966080Y-25440640D03*
D60*
X180980080Y-31155640D03*
X183266080Y-31155640D03*
X192410080Y-31155640D03*
X194696080Y-31155640D03*
X191394080Y-26329640D03*
X189362080Y-26329640D03*
X187330080Y-26329640D03*
X185298080Y-26329640D03*
X188346080Y-24551640D03*
X186314080Y-24551640D03*
X190378080Y-24551640D03*
X184282080Y-24551640D03*
D61*
X181488080Y-22011640D03*
X194188080Y-22011640D03*
D59*
X179710080Y-25440640D03*
D57*
X120082280Y-26572200D03*
D58*
X132582280Y-34072200D03*
D59*
X125082280Y-21572200D03*
D58*
X135082280Y-31572200D03*
X127582280Y-31572200D03*
X120082280Y-31572200D03*
X122582280Y-34072200D03*
D59*
X130082280Y-21572200D03*
D57*
X135082280Y-26572200D03*
D62*
X77647800Y-79464500D03*
X83997800Y-79464500D03*
X71297800Y-79464500D03*
X77647800Y-95694500D03*
X83997800Y-95694500D03*
X71297800Y-95694500D03*
X214541100Y-123900600D03*
X208191100Y-123900600D03*
X220891100Y-123900600D03*
X214541100Y-107670600D03*
X208191100Y-107670600D03*
X220891100Y-107670600D03*
X214541100Y-144093600D03*
X208191100Y-144093600D03*
X220891100Y-144093600D03*
X214541100Y-127863600D03*
X208191100Y-127863600D03*
X220891100Y-127863600D03*
X77647800Y-107666120D03*
X83997800Y-107666120D03*
X71297800Y-107666120D03*
X77647800Y-123896120D03*
X83997800Y-123896120D03*
X71297800Y-123896120D03*
X77647800Y-127866740D03*
X83997800Y-127866740D03*
X71297800Y-127866740D03*
X77647800Y-144096740D03*
X83997800Y-144096740D03*
X71297800Y-144096740D03*
D63*
X206580740Y-32773620D03*
D64*
X206580740Y-26771080D03*
X201880740Y-29771080D03*
D65*
X186893200Y-117639200D03*
X186893200Y-119749200D03*
X183083200Y-118121800D03*
X183083200Y-120231800D03*
X186893200Y-133871600D03*
X186893200Y-131761600D03*
X183083200Y-132982600D03*
X183083200Y-130872600D03*
D66*
X93356800Y-125222000D03*
X95466800Y-125222000D03*
X93318700Y-107492800D03*
X95428700Y-107492800D03*
D65*
X130954780Y-38634300D03*
X130954780Y-36524300D03*
D66*
X122592200Y-47396400D03*
X124702200Y-47396400D03*
D43*
X190439000Y-34163000D03*
X192339000Y-34163000D03*
D19*
X187313000Y-39319200D03*
X185813000Y-39319200D03*
D67*
X174940000Y-41953000D03*
X173990000Y-41953000D03*
X173040000Y-41953000D03*
X173040000Y-44153000D03*
X174940000Y-44153000D03*
D68*
X151737600Y-112521560D03*
X153637600Y-112521560D03*
X152687600Y-110522580D03*
X155242800Y-112521560D03*
X157142800Y-112521560D03*
X156192800Y-110522580D03*
X196352200Y-115636040D03*
X194452200Y-115636040D03*
X195402200Y-117635020D03*
X194452200Y-135798560D03*
X196352200Y-135798560D03*
X195402200Y-133799580D03*
X192415160Y-120584000D03*
X192415160Y-118684000D03*
X190416180Y-119634000D03*
X185608000Y-121935240D03*
X183708000Y-121935240D03*
X184658000Y-123934220D03*
X187843200Y-112740440D03*
X185943200Y-112740440D03*
X186893200Y-114739420D03*
X184033200Y-112740440D03*
X182133200Y-112740440D03*
X183083200Y-114739420D03*
X192415200Y-130774440D03*
X190515200Y-130774440D03*
X191465200Y-132773420D03*
X183708000Y-129524760D03*
X185608000Y-129524760D03*
X184658000Y-127525780D03*
X185943200Y-138821160D03*
X187843200Y-138821160D03*
X186893200Y-136822180D03*
X182133200Y-138821160D03*
X184033200Y-138821160D03*
X183083200Y-136822180D03*
X96738400Y-126870460D03*
X98638400Y-126870460D03*
X97688400Y-124871480D03*
X98638400Y-105844340D03*
X96738400Y-105844340D03*
X97688400Y-107843320D03*
X101666000Y-97317560D03*
X103566000Y-97317560D03*
X102616000Y-95318580D03*
X103040760Y-40588800D03*
X103040760Y-38688800D03*
X101041780Y-39638800D03*
X106495160Y-40588800D03*
X106495160Y-38688800D03*
X104496180Y-39638800D03*
X195265000Y-37703760D03*
X197165000Y-37703760D03*
X196215000Y-35704780D03*
X178755000Y-35544760D03*
X180655000Y-35544760D03*
X179705000Y-33545780D03*
D69*
X158991300Y-30880320D03*
X156451300Y-30880320D03*
X156451300Y-28881340D03*
X158991300Y-28881340D03*
D70*
X163720780Y-26181320D03*
X151721820Y-26181320D03*
D71*
X202692000Y-41366440D03*
X202692000Y-37068760D03*
X208280000Y-41366440D03*
X208280000Y-37068760D03*
D72*
X209133294Y-64035794D03*
D73*
X213093294Y-64035794D03*
D74*
X211498180Y-23073360D03*
D75*
X216578180Y-23073360D03*
D40*
X103619300Y-71082600D03*
X103619300Y-69582600D03*
X105397300Y-71082600D03*
X105397300Y-69582600D03*
X107175300Y-71082600D03*
X107175300Y-69582600D03*
D66*
X93128200Y-151155400D03*
X95238200Y-151155400D03*
X93128200Y-133438900D03*
X95238200Y-133438900D03*
D68*
X96738400Y-152803860D03*
X98638400Y-152803860D03*
X97688400Y-150804880D03*
X98638400Y-131777740D03*
X96738400Y-131777740D03*
X97688400Y-133776720D03*
D41*
X94628400Y-153111200D03*
X93128400Y-153111200D03*
X94641100Y-131483100D03*
X93141100Y-131483100D03*
X98235200Y-154305000D03*
X96735200Y-154305000D03*
D40*
X100253800Y-133274500D03*
X100253800Y-131774500D03*
D76*
X93332300Y-122707400D03*
X98412300Y-122707400D03*
X93332300Y-117627400D03*
X93332300Y-115087400D03*
X93332300Y-110007400D03*
X93332300Y-112547400D03*
X98412300Y-112547400D03*
X98412300Y-117627400D03*
X98412300Y-110007400D03*
X98412300Y-115087400D03*
X93129100Y-148653500D03*
X98209100Y-148653500D03*
X93129100Y-143573500D03*
X93129100Y-141033500D03*
X93129100Y-135953500D03*
X93129100Y-138493500D03*
X98209100Y-138493500D03*
X98209100Y-143573500D03*
X98209100Y-135953500D03*
X98209100Y-141033500D03*
D13*
X63581280Y-156575760D03*
D11*
X78455520Y-40736520D03*
D12*
X78455520Y-40736520D03*
M02*
