M48
;DRILL file {KiCad (5.0.2)-1} date 28-3-2019 12:39:08
;FORMAT={3:3/ absolute / metric / suppress leading zeros}
FMAT,2
METRIC,TZ
T1C0.300
T2C0.375
T3C0.450
T4C0.890
T5C0.920
T6C1.000
T7C1.001
T8C1.016
T9C1.020
T10C1.200
T11C1.300
T12C1.350
T13C1.500
T14C1.570
T15C2.330
T16C3.500
T17C3.700
T18C0.600
T19C3.250
%
G90
G05
T1
X4392Y-26421
X4392Y-30081
X8608Y-50391
X10340Y-104760
X11189Y-24811
X11189Y-30066
X14178Y-105062
X16767Y-95103
X16767Y-99205
X18712Y-104447
X21057Y-64234
X21839Y-62354
X23414Y-60881
X23414Y-62332
X24310Y-79037
X24989Y-64234
X27843Y-84219
X30838Y-87259
X30843Y-85728
X30843Y-86497
X33571Y-85730
X33574Y-86495
X33574Y-87259
X36025Y-81341
X68572Y-40439
X68575Y-43970
X69431Y-40440
X69433Y-43970
X71263Y-84040
X71326Y-43914
X71933Y-82837
X71963Y-42833
X72431Y-44105
X72433Y-84140
X73431Y-82837
X73436Y-42857
X73934Y-44112
X75433Y-82837
X75438Y-42842
X75933Y-84140
X76020Y-13170
X76441Y-44125
X76937Y-42845
X77935Y-82837
X78435Y-84138
X78931Y-44133
X79436Y-42840
X80439Y-42840
X80442Y-44107
X80833Y-80625
X82941Y-42842
X83050Y-14224
X86932Y-115471
X89411Y-116846
X89535Y-118854
X91305Y-118234
X91793Y-102690
X92880Y-115471
X93124Y-119156
X94000Y-120310
X94143Y-112296
X98839Y-120350
X99634Y-120287
X99695Y-118138
X99804Y-118971
X100767Y-112225
X102443Y-113505
X102974Y-119911
X103007Y-118341
X107099Y-18357
X107917Y-122979
X108646Y-110797
X111318Y-113279
X113038Y-19515
X115651Y-20069
X115961Y-24115
X117536Y-21305
X119014Y-65977
X120117Y-70233
X123055Y-27023
X123944Y-65865
X124026Y-64270
X125359Y-119639
X128971Y-64228
X129486Y-65892
T2
X2038Y-51918
X5131Y-48430
X6053Y-50358
X10251Y-84066
X10864Y-67229
X11974Y-20767
X12610Y-55430
X14013Y-113975
X14044Y-93284
X14186Y-84366
X15116Y-50338
X15745Y-94976
X15745Y-99205
X17541Y-55418
X18651Y-83784
X19530Y-18225
X21059Y-67892
X23619Y-49512
X24366Y-70642
X24458Y-55593
X24458Y-58788
X24681Y-60747
X24696Y-67879
X25989Y-55811
X28031Y-69670
X28095Y-60749
X34611Y-77070
X36264Y-20130
X37511Y-4351
X40980Y-17142
X47815Y-23757
X52652Y-108483
X52662Y-122867
X57622Y-120406
X58544Y-105110
X63139Y-28859
X63561Y-34285
X66370Y-36119
X67399Y-127185
X69032Y-35466
X69271Y-115400
X70739Y-38669
X72398Y-106848
X72461Y-121229
X73942Y-116507
X74244Y-120437
X89045Y-46876
X89634Y-120706
X90193Y-108633
X91537Y-124818
X93091Y-120706
X93350Y-114701
X95410Y-116870
X96215Y-124818
X96444Y-116865
X97244Y-20079
X97465Y-116865
X100919Y-124818
X100993Y-17808
X101290Y-119116
X101633Y-115484
X102835Y-115768
X106015Y-110142
X106401Y-113685
X108651Y-114209
X110526Y-101122
X111717Y-65938
X111768Y-103868
X112652Y-94348
X112685Y-68826
X112977Y-108153
X114051Y-114295
X117218Y-97262
X119713Y-60259
X119842Y-116378
X122497Y-108156
X122497Y-115092
X122789Y-68689
X122916Y-41328
X123739Y-72606
X124016Y-97272
X125359Y-104277
X125636Y-57485
X127490Y-59609
X127660Y-121371
X127859Y-63508
X127892Y-84176
X129167Y-69200
X129286Y-124292
X129319Y-96939
X130807Y-75951
X130879Y-110686
X130914Y-114480
X131023Y-82184
X132784Y-121681
X132784Y-125339
X142121Y-104788
X142474Y-84582
T3
X58740Y-127826
X58743Y-130813
X104445Y-93447
X104450Y-90063
X125557Y-130800
X125560Y-127818
T4
X105437Y-8065
X107727Y-8065
X108737Y-1465
X109757Y-3245
X110777Y-1465
X111797Y-3245
X112817Y-1465
X113837Y-3245
X114857Y-1465
X115877Y-3245
X116867Y-8065
X119157Y-8065
T5
X96136Y-8590
X96136Y-10590
X96136Y-12590
X96136Y-14590
X80886Y-5950
X80886Y-7950
X83386Y-5950
X83386Y-7950
T6
X127523Y-19977
X130023Y-19977
X-8738Y-23264
X-8738Y-25804
X-8738Y-28344
T7
X121060Y-32829
X121060Y-35369
X121060Y-37909
T8
X-5710Y-35009
X-5710Y-37549
X-3170Y-35009
X-3170Y-37549
X-630Y-35009
X-630Y-37549
X1910Y-35009
X1910Y-37549
X4450Y-35009
X4450Y-37549
X6990Y-35009
X6990Y-37549
X9530Y-35009
X9530Y-37549
X12070Y-35009
X12070Y-37549
X14610Y-35009
X14610Y-37549
X17150Y-35009
X17150Y-37549
T10
X144490Y-25441
X149490Y-25441
X144490Y-39934
X149490Y-39934
T11
X22511Y-8512
X25011Y-11012
X27511Y1488
X30011Y-8512
X32511Y1488
X35011Y-11012
X37511Y-8512
X43515Y-8512
X46015Y-11012
X48515Y1488
X51015Y-8512
X53515Y1488
X56015Y-11012
X58515Y-8512
T12
X93416Y-7860
X93416Y-14860
X98856Y-7860
X98856Y-14860
T13
X138455Y-104788
X138455Y-121018
X144805Y-104788
X144805Y-121018
X151155Y-104788
X151155Y-121018
X138455Y-56388
X138455Y-72618
X144805Y-56388
X144805Y-72618
X151155Y-56388
X151155Y-72618
X-10147Y-104788
X-10147Y-121018
X-3797Y-104788
X-3797Y-121018
X2553Y-104788
X2553Y-121018
X-10147Y-84595
X-10147Y-100825
X-3797Y-84595
X-3797Y-100825
X2553Y-84595
X2553Y-100825
X138455Y-84582
X138455Y-100812
X144805Y-84582
X144805Y-100812
X151155Y-84582
X151155Y-100812
X-10147Y-56388
X-10147Y-72618
X-3797Y-56388
X-3797Y-72618
X2553Y-56388
X2553Y-72618
T14
X104167Y-2355
X120427Y-2355
T15
X76116Y-3240
X88156Y-3240
T16
X70500Y-133502
X152999Y-133502
X-11999Y-133500
X141011Y-15
X70500Y0
X0Y0
T17
X75679Y-63505
T18
X69884Y-81990
X81484Y-81990
X67384Y-41990
X83984Y-41990
T19
X105947Y1075
X118647Y1075
T6
X126308Y-2716G85X126308Y-4716
G05
X132008Y-716G85X130008Y-716
G05
X132008Y-6716G85X130008Y-6716
G05
T9
X8803Y-8700G85X8803Y-10220
G05
X14763Y1740G85X13243Y1740
G05
X14763Y-11960G85X13243Y-11960
G05
T0
M30
