G04 #@! TF.FileFunction,Other,User*
%FSLAX46Y46*%
G04 Gerber Fmt 4.6, Leading zero omitted, Abs format (unit mm)*
G04 Created by KiCad (PCBNEW 4.0.1-stable) date Fri 05 Feb 2016 03:49:19 PM CET*
%MOMM*%
G01*
G04 APERTURE LIST*
%ADD10C,0.100000*%
%ADD11C,0.050000*%
G04 APERTURE END LIST*
D10*
D11*
X88143260Y-99682480D02*
X88143260Y-110182480D01*
X98643260Y-99682480D02*
X98643260Y-110182480D01*
X88143260Y-99682480D02*
X98643260Y-99682480D01*
X88143260Y-110182480D02*
X98643260Y-110182480D01*
X61264740Y-12411540D02*
X61264740Y4288460D01*
X61264740Y4288460D02*
X40764740Y4288460D01*
X40764740Y4288460D02*
X40764740Y-12411540D01*
X61264740Y-12411540D02*
X40764740Y-12411540D01*
X40260720Y-12411540D02*
X40260720Y4288460D01*
X40260720Y4288460D02*
X19760720Y4288460D01*
X19760720Y4288460D02*
X19760720Y-12411540D01*
X40260720Y-12411540D02*
X19760720Y-12411540D01*
X132497260Y-31448080D02*
X132497260Y-34348080D01*
X130997260Y-31448080D02*
X130997260Y-34348080D01*
X132497260Y-31448080D02*
X130997260Y-31448080D01*
X132497260Y-34348080D02*
X130997260Y-34348080D01*
X142178060Y-50307880D02*
G75*
G03X142178060Y-50307880I-5300000J0D01*
G01*
X147762660Y-31397280D02*
X147762660Y-34297280D01*
X146262660Y-31397280D02*
X146262660Y-34297280D01*
X147762660Y-31397280D02*
X146262660Y-31397280D01*
X147762660Y-34297280D02*
X146262660Y-34297280D01*
X153277860Y-50307880D02*
G75*
G03X153277860Y-50307880I-5300000J0D01*
G01*
X128697060Y-65091880D02*
X131597060Y-65091880D01*
X128697060Y-66591880D02*
X131597060Y-66591880D01*
X128697060Y-65091880D02*
X128697060Y-66591880D01*
X131597060Y-65091880D02*
X131597060Y-66591880D01*
X124302860Y-72483280D02*
X127202860Y-72483280D01*
X124302860Y-73983280D02*
X127202860Y-73983280D01*
X124302860Y-72483280D02*
X124302860Y-73983280D01*
X127202860Y-72483280D02*
X127202860Y-73983280D01*
X121183740Y-55053800D02*
X124083740Y-55053800D01*
X121183740Y-56553800D02*
X124083740Y-56553800D01*
X121183740Y-55053800D02*
X121183740Y-56553800D01*
X124083740Y-55053800D02*
X124083740Y-56553800D01*
X88964260Y-99518880D02*
X88964260Y-95918880D01*
X90964260Y-99518880D02*
X90964260Y-95918880D01*
X88964260Y-99518880D02*
X90964260Y-99518880D01*
X88964260Y-95918880D02*
X90964260Y-95918880D01*
X87763860Y-107501280D02*
X87763860Y-111101280D01*
X85763860Y-107501280D02*
X85763860Y-111101280D01*
X87763860Y-107501280D02*
X85763860Y-107501280D01*
X87763860Y-111101280D02*
X85763860Y-111101280D01*
X98832260Y-105989880D02*
X102432260Y-105989880D01*
X98832260Y-107989880D02*
X102432260Y-107989880D01*
X98832260Y-105989880D02*
X98832260Y-107989880D01*
X102432260Y-105989880D02*
X102432260Y-107989880D01*
X107176060Y-28424280D02*
X107176060Y-24824280D01*
X109176060Y-28424280D02*
X109176060Y-24824280D01*
X107176060Y-28424280D02*
X109176060Y-28424280D01*
X107176060Y-24824280D02*
X109176060Y-24824280D01*
X105495660Y-28429880D02*
X105495660Y-25529880D01*
X106995660Y-28429880D02*
X106995660Y-25529880D01*
X105495660Y-28429880D02*
X106995660Y-28429880D01*
X105495660Y-25529880D02*
X106995660Y-25529880D01*
X118680800Y-108518620D02*
X118680800Y-105618620D01*
X120180800Y-108518620D02*
X120180800Y-105618620D01*
X118680800Y-108518620D02*
X120180800Y-108518620D01*
X118680800Y-105618620D02*
X120180800Y-105618620D01*
X65887260Y-107231880D02*
X62987260Y-107231880D01*
X65887260Y-105731880D02*
X62987260Y-105731880D01*
X65887260Y-107231880D02*
X65887260Y-105731880D01*
X62987260Y-107231880D02*
X62987260Y-105731880D01*
X65887260Y-122700480D02*
X62987260Y-122700480D01*
X65887260Y-121200480D02*
X62987260Y-121200480D01*
X65887260Y-122700480D02*
X65887260Y-121200480D01*
X62987260Y-122700480D02*
X62987260Y-121200480D01*
X18715060Y-63466280D02*
X21615060Y-63466280D01*
X18715060Y-64966280D02*
X21615060Y-64966280D01*
X18715060Y-63466280D02*
X18715060Y-64966280D01*
X21615060Y-63466280D02*
X21615060Y-64966280D01*
X86813960Y-18219080D02*
X86813960Y-15319080D01*
X88313960Y-18219080D02*
X88313960Y-15319080D01*
X86813960Y-18219080D02*
X88313960Y-18219080D01*
X86813960Y-15319080D02*
X88313960Y-15319080D01*
X80499360Y-12358880D02*
X76899360Y-12358880D01*
X80499360Y-10358880D02*
X76899360Y-10358880D01*
X80499360Y-12358880D02*
X80499360Y-10358880D01*
X76899360Y-12358880D02*
X76899360Y-10358880D01*
X85610360Y-15931580D02*
X82710360Y-15931580D01*
X85610360Y-14431580D02*
X82710360Y-14431580D01*
X85610360Y-15931580D02*
X85610360Y-14431580D01*
X82710360Y-15931580D02*
X82710360Y-14431580D01*
X92163560Y-9289480D02*
X89263560Y-9289480D01*
X92163560Y-7789480D02*
X89263560Y-7789480D01*
X92163560Y-9289480D02*
X92163560Y-7789480D01*
X89263560Y-9289480D02*
X89263560Y-7789480D01*
X75409360Y-15234580D02*
X75409360Y-12334580D01*
X76909360Y-15234580D02*
X76909360Y-12334580D01*
X75409360Y-15234580D02*
X76909360Y-15234580D01*
X75409360Y-12334580D02*
X76909360Y-12334580D01*
X62891100Y-13576640D02*
X62891100Y-16476640D01*
X61391100Y-13576640D02*
X61391100Y-16476640D01*
X62891100Y-13576640D02*
X61391100Y-13576640D01*
X62891100Y-16476640D02*
X61391100Y-16476640D01*
X135899460Y-7424080D02*
X135899460Y-4524080D01*
X137399460Y-7424080D02*
X137399460Y-4524080D01*
X135899460Y-7424080D02*
X137399460Y-7424080D01*
X135899460Y-4524080D02*
X137399460Y-4524080D01*
X102779260Y-5667080D02*
X102779260Y-8567080D01*
X101279260Y-5667080D02*
X101279260Y-8567080D01*
X102779260Y-5667080D02*
X101279260Y-5667080D01*
X102779260Y-8567080D02*
X101279260Y-8567080D01*
X89571260Y-110467480D02*
X89571260Y-113367480D01*
X88071260Y-110467480D02*
X88071260Y-113367480D01*
X89571260Y-110467480D02*
X88071260Y-110467480D01*
X89571260Y-113367480D02*
X88071260Y-113367480D01*
X91171460Y-110467480D02*
X91171460Y-113367480D01*
X89671460Y-110467480D02*
X89671460Y-113367480D01*
X91171460Y-110467480D02*
X89671460Y-110467480D01*
X91171460Y-113367480D02*
X89671460Y-113367480D01*
X124859400Y-105142060D02*
X124859400Y-100542060D01*
X127159400Y-105142060D02*
X127159400Y-100542060D01*
X124859400Y-105142060D02*
X127159400Y-105142060D01*
X124859400Y-100542060D02*
X127159400Y-100542060D01*
X128651700Y-97518560D02*
X128651700Y-100418560D01*
X127151700Y-97518560D02*
X127151700Y-100418560D01*
X128651700Y-97518560D02*
X127151700Y-97518560D01*
X128651700Y-100418560D02*
X127151700Y-100418560D01*
X121689200Y-103641460D02*
X124589200Y-103641460D01*
X121689200Y-105141460D02*
X124589200Y-105141460D01*
X121689200Y-103641460D02*
X121689200Y-105141460D01*
X124589200Y-103641460D02*
X124589200Y-105141460D01*
X127156860Y-112944880D02*
X127156860Y-117544880D01*
X124856860Y-112944880D02*
X124856860Y-117544880D01*
X127156860Y-112944880D02*
X124856860Y-112944880D01*
X127156860Y-117544880D02*
X124856860Y-117544880D01*
X127151700Y-120560760D02*
X127151700Y-117660760D01*
X128651700Y-120560760D02*
X128651700Y-117660760D01*
X127151700Y-120560760D02*
X128651700Y-120560760D01*
X127151700Y-117660760D02*
X128651700Y-117660760D01*
X124589200Y-114437860D02*
X121689200Y-114437860D01*
X124589200Y-112937860D02*
X121689200Y-112937860D01*
X124589200Y-114437860D02*
X124589200Y-112937860D01*
X121689200Y-114437860D02*
X121689200Y-112937860D01*
X71764460Y-105569680D02*
X71764460Y-102669680D01*
X73264460Y-105569680D02*
X73264460Y-102669680D01*
X71764460Y-105569680D02*
X73264460Y-105569680D01*
X71764460Y-102669680D02*
X73264460Y-102669680D01*
X62493460Y-104299680D02*
X62493460Y-101399680D01*
X63993460Y-104299680D02*
X63993460Y-101399680D01*
X62493460Y-104299680D02*
X63993460Y-104299680D01*
X62493460Y-101399680D02*
X63993460Y-101399680D01*
X71764460Y-121038280D02*
X71764460Y-118138280D01*
X73264460Y-121038280D02*
X73264460Y-118138280D01*
X71764460Y-121038280D02*
X73264460Y-121038280D01*
X71764460Y-118138280D02*
X73264460Y-118138280D01*
X62493460Y-119768280D02*
X62493460Y-116868280D01*
X63993460Y-119768280D02*
X63993460Y-116868280D01*
X62493460Y-119768280D02*
X63993460Y-119768280D01*
X62493460Y-116868280D02*
X63993460Y-116868280D01*
X22606860Y-68372480D02*
X26206860Y-68372480D01*
X22606860Y-70372480D02*
X26206860Y-70372480D01*
X22606860Y-68372480D02*
X22606860Y-70372480D01*
X26206860Y-68372480D02*
X26206860Y-70372480D01*
X22606860Y-66238880D02*
X26206860Y-66238880D01*
X22606860Y-68238880D02*
X26206860Y-68238880D01*
X22606860Y-66238880D02*
X22606860Y-68238880D01*
X26206860Y-66238880D02*
X26206860Y-68238880D01*
X125600460Y-16578580D02*
X125600460Y-9847580D01*
X135760460Y-16578580D02*
X135760460Y-9847580D01*
X135760460Y-9847580D02*
X125600460Y-9847580D01*
X135760460Y-16578580D02*
X125600460Y-16578580D01*
X75559160Y-5418680D02*
X75559160Y-9018680D01*
X73559160Y-5418680D02*
X73559160Y-9018680D01*
X75559160Y-5418680D02*
X73559160Y-5418680D01*
X75559160Y-9018680D02*
X73559160Y-9018680D01*
X100036460Y4159720D02*
X100036460Y-16140280D01*
X100036460Y-16140280D02*
X92236460Y-16140280D01*
X92236460Y-16140280D02*
X92236460Y4159720D01*
X92236460Y4159720D02*
X100036460Y4159720D01*
X65303460Y-26134380D02*
X91703460Y-26134380D01*
X65303460Y-22634380D02*
X91703460Y-22634380D01*
X65303460Y-26134380D02*
X65303460Y-22634380D01*
X91703460Y-26134380D02*
X91703460Y-22634380D01*
X54701540Y-45165800D02*
X54701540Y-42565800D01*
X56301540Y-45165800D02*
X56301540Y-42565800D01*
X54701540Y-45165800D02*
X56301540Y-45165800D01*
X54701540Y-42565800D02*
X56301540Y-42565800D01*
X83957260Y-45170880D02*
X83957260Y-42570880D01*
X85557260Y-45170880D02*
X85557260Y-42570880D01*
X83957260Y-45170880D02*
X85557260Y-45170880D01*
X83957260Y-42570880D02*
X85557260Y-42570880D01*
X81366460Y-45170880D02*
X81366460Y-42570880D01*
X82966460Y-45170880D02*
X82966460Y-42570880D01*
X81366460Y-45170880D02*
X82966460Y-45170880D01*
X81366460Y-42570880D02*
X82966460Y-42570880D01*
X84516060Y-101914480D02*
X84516060Y-99314480D01*
X86116060Y-101914480D02*
X86116060Y-99314480D01*
X84516060Y-101914480D02*
X86116060Y-101914480D01*
X84516060Y-99314480D02*
X86116060Y-99314480D01*
X86446460Y-101914480D02*
X86446460Y-99314480D01*
X88046460Y-101914480D02*
X88046460Y-99314480D01*
X86446460Y-101914480D02*
X88046460Y-101914480D01*
X86446460Y-99314480D02*
X88046460Y-99314480D01*
X85455660Y-95809280D02*
X85455660Y-98409280D01*
X83855660Y-95809280D02*
X83855660Y-98409280D01*
X85455660Y-95809280D02*
X83855660Y-95809280D01*
X85455660Y-98409280D02*
X83855660Y-98409280D01*
X87208260Y-95809280D02*
X87208260Y-98409280D01*
X85608260Y-95809280D02*
X85608260Y-98409280D01*
X87208260Y-95809280D02*
X85608260Y-95809280D01*
X87208260Y-98409280D02*
X85608260Y-98409280D01*
X99637060Y-42334280D02*
X102237060Y-42334280D01*
X99637060Y-43934280D02*
X102237060Y-43934280D01*
X99637060Y-42334280D02*
X99637060Y-43934280D01*
X102237060Y-42334280D02*
X102237060Y-43934280D01*
X126590960Y-92456480D02*
X126590960Y-95056480D01*
X124990960Y-92456480D02*
X124990960Y-95056480D01*
X126590960Y-92456480D02*
X124990960Y-92456480D01*
X126590960Y-95056480D02*
X124990960Y-95056480D01*
X121737600Y-95603160D02*
X124337600Y-95603160D01*
X121737600Y-97203160D02*
X124337600Y-97203160D01*
X121737600Y-95603160D02*
X121737600Y-97203160D01*
X124337600Y-95603160D02*
X124337600Y-97203160D01*
X121358560Y-92405680D02*
X121358560Y-95005680D01*
X119758560Y-92405680D02*
X119758560Y-95005680D01*
X121358560Y-92405680D02*
X119758560Y-92405680D01*
X121358560Y-95005680D02*
X119758560Y-95005680D01*
X120591100Y-97228560D02*
X117991100Y-97228560D01*
X120591100Y-95628560D02*
X117991100Y-95628560D01*
X120591100Y-97228560D02*
X120591100Y-95628560D01*
X117991100Y-97228560D02*
X117991100Y-95628560D01*
X96098260Y-42570880D02*
X96098260Y-45170880D01*
X94498260Y-42570880D02*
X94498260Y-45170880D01*
X96098260Y-42570880D02*
X94498260Y-42570880D01*
X96098260Y-45170880D02*
X94498260Y-45170880D01*
X92694860Y-45170880D02*
X92694860Y-42570880D01*
X94294860Y-45170880D02*
X94294860Y-42570880D01*
X92694860Y-45170880D02*
X94294860Y-45170880D01*
X92694860Y-42570880D02*
X94294860Y-42570880D01*
X124990960Y-125930180D02*
X124990960Y-123330180D01*
X126590960Y-125930180D02*
X126590960Y-123330180D01*
X124990960Y-125930180D02*
X126590960Y-125930180D01*
X124990960Y-123330180D02*
X126590960Y-123330180D01*
X121737600Y-120876160D02*
X124337600Y-120876160D01*
X121737600Y-122476160D02*
X124337600Y-122476160D01*
X121737600Y-120876160D02*
X121737600Y-122476160D01*
X124337600Y-120876160D02*
X124337600Y-122476160D01*
X119758560Y-125930180D02*
X119758560Y-123330180D01*
X121358560Y-125930180D02*
X121358560Y-123330180D01*
X119758560Y-125930180D02*
X121358560Y-125930180D01*
X119758560Y-123330180D02*
X121358560Y-123330180D01*
X117991100Y-120876160D02*
X120591100Y-120876160D01*
X117991100Y-122476160D02*
X120591100Y-122476160D01*
X117991100Y-120876160D02*
X117991100Y-122476160D01*
X120591100Y-120876160D02*
X120591100Y-122476160D01*
X90612060Y-45170880D02*
X90612060Y-42570880D01*
X92212060Y-45170880D02*
X92212060Y-42570880D01*
X90612060Y-45170880D02*
X92212060Y-45170880D01*
X90612060Y-42570880D02*
X92212060Y-42570880D01*
X88707060Y-45170880D02*
X88707060Y-42570880D01*
X90307060Y-45170880D02*
X90307060Y-42570880D01*
X88707060Y-45170880D02*
X90307060Y-45170880D01*
X88707060Y-42570880D02*
X90307060Y-42570880D01*
X16232660Y-88384280D02*
X13632660Y-88384280D01*
X16232660Y-86784280D02*
X13632660Y-86784280D01*
X16232660Y-88384280D02*
X16232660Y-86784280D01*
X13632660Y-88384280D02*
X13632660Y-86784280D01*
X16934660Y-85158680D02*
X19534660Y-85158680D01*
X16934660Y-86758680D02*
X19534660Y-86758680D01*
X16934660Y-85158680D02*
X16934660Y-86758680D01*
X19534660Y-85158680D02*
X19534660Y-86758680D01*
X16698060Y-58607480D02*
X16698060Y-56007480D01*
X18298060Y-58607480D02*
X18298060Y-56007480D01*
X16698060Y-58607480D02*
X18298060Y-58607480D01*
X16698060Y-56007480D02*
X18298060Y-56007480D01*
X14691460Y-58607480D02*
X14691460Y-56007480D01*
X16291460Y-58607480D02*
X16291460Y-56007480D01*
X14691460Y-58607480D02*
X16291460Y-58607480D01*
X14691460Y-56007480D02*
X16291460Y-56007480D01*
X80489960Y-12484580D02*
X80489960Y-15084580D01*
X78889960Y-12484580D02*
X78889960Y-15084580D01*
X80489960Y-12484580D02*
X78889960Y-12484580D01*
X80489960Y-15084580D02*
X78889960Y-15084580D01*
X77023060Y-15084580D02*
X77023060Y-12484580D01*
X78623060Y-15084580D02*
X78623060Y-12484580D01*
X77023060Y-15084580D02*
X78623060Y-15084580D01*
X77023060Y-12484580D02*
X78623060Y-12484580D01*
X92169460Y-16718380D02*
X94769460Y-16718380D01*
X92169460Y-18318380D02*
X94769460Y-18318380D01*
X92169460Y-16718380D02*
X92169460Y-18318380D01*
X94769460Y-16718380D02*
X94769460Y-18318380D01*
X30588460Y-12603680D02*
X30588460Y-15803680D01*
X28588460Y-12603680D02*
X28588460Y-15803680D01*
X30588460Y-12603680D02*
X28588460Y-12603680D01*
X30588460Y-15803680D02*
X28588460Y-15803680D01*
X34604860Y-13106880D02*
X34604860Y-15706880D01*
X33004860Y-13106880D02*
X33004860Y-15706880D01*
X34604860Y-13106880D02*
X33004860Y-13106880D01*
X34604860Y-15706880D02*
X33004860Y-15706880D01*
X48471580Y-16291360D02*
X48471580Y-13091360D01*
X50471580Y-16291360D02*
X50471580Y-13091360D01*
X48471580Y-16291360D02*
X50471580Y-16291360D01*
X48471580Y-13091360D02*
X50471580Y-13091360D01*
X52054860Y-28178280D02*
X52054860Y-25578280D01*
X53654860Y-28178280D02*
X53654860Y-25578280D01*
X52054860Y-28178280D02*
X53654860Y-28178280D01*
X52054860Y-25578280D02*
X53654860Y-25578280D01*
X32798260Y-12603680D02*
X32798260Y-15803680D01*
X30798260Y-12603680D02*
X30798260Y-15803680D01*
X32798260Y-12603680D02*
X30798260Y-12603680D01*
X32798260Y-15803680D02*
X30798260Y-15803680D01*
X36357460Y-13106880D02*
X36357460Y-15706880D01*
X34757460Y-13106880D02*
X34757460Y-15706880D01*
X36357460Y-13106880D02*
X34757460Y-13106880D01*
X36357460Y-15706880D02*
X34757460Y-15706880D01*
X121210860Y-13962280D02*
X118610860Y-13962280D01*
X121210860Y-12362280D02*
X118610860Y-12362280D01*
X121210860Y-13962280D02*
X121210860Y-12362280D01*
X118610860Y-13962280D02*
X118610860Y-12362280D01*
X115272060Y-13340280D02*
X115272060Y-16540280D01*
X113272060Y-13340280D02*
X113272060Y-16540280D01*
X115272060Y-13340280D02*
X113272060Y-13340280D01*
X115272060Y-16540280D02*
X113272060Y-16540280D01*
X112557460Y-24282880D02*
X112557460Y-26882880D01*
X110957460Y-24282880D02*
X110957460Y-26882880D01*
X112557460Y-24282880D02*
X110957460Y-24282880D01*
X112557460Y-26882880D02*
X110957460Y-26882880D01*
X117837460Y-13340280D02*
X117837460Y-16540280D01*
X115837460Y-13340280D02*
X115837460Y-16540280D01*
X117837460Y-13340280D02*
X115837460Y-13340280D01*
X117837460Y-16540280D02*
X115837460Y-16540280D01*
X111919260Y-9047680D02*
X111919260Y-12247680D01*
X109919260Y-9047680D02*
X109919260Y-12247680D01*
X111919260Y-9047680D02*
X109919260Y-9047680D01*
X111919260Y-12247680D02*
X109919260Y-12247680D01*
X108536260Y-13962280D02*
X105936260Y-13962280D01*
X108536260Y-12362280D02*
X105936260Y-12362280D01*
X108536260Y-13962280D02*
X108536260Y-12362280D01*
X105936260Y-13962280D02*
X105936260Y-12362280D01*
X117891460Y-24282880D02*
X117891460Y-26882880D01*
X116291460Y-24282880D02*
X116291460Y-26882880D01*
X117891460Y-24282880D02*
X116291460Y-24282880D01*
X117891460Y-26882880D02*
X116291460Y-26882880D01*
X114103660Y-9047680D02*
X114103660Y-12247680D01*
X112103660Y-9047680D02*
X112103660Y-12247680D01*
X114103660Y-9047680D02*
X112103660Y-9047680D01*
X114103660Y-12247680D02*
X112103660Y-12247680D01*
X67853460Y-19837880D02*
X67853460Y-22437880D01*
X66253460Y-19837880D02*
X66253460Y-22437880D01*
X67853460Y-19837880D02*
X66253460Y-19837880D01*
X67853460Y-22437880D02*
X66253460Y-22437880D01*
X70396380Y-19837880D02*
X70396380Y-22437880D01*
X68796380Y-19837880D02*
X68796380Y-22437880D01*
X70396380Y-19837880D02*
X68796380Y-19837880D01*
X70396380Y-22437880D02*
X68796380Y-22437880D01*
X72936380Y-19837880D02*
X72936380Y-22437880D01*
X71336380Y-19837880D02*
X71336380Y-22437880D01*
X72936380Y-19837880D02*
X71336380Y-19837880D01*
X72936380Y-22437880D02*
X71336380Y-22437880D01*
X78016380Y-19837880D02*
X78016380Y-22437880D01*
X76416380Y-19837880D02*
X76416380Y-22437880D01*
X78016380Y-19837880D02*
X76416380Y-19837880D01*
X78016380Y-22437880D02*
X76416380Y-22437880D01*
X85633460Y-19837880D02*
X85633460Y-22437880D01*
X84033460Y-19837880D02*
X84033460Y-22437880D01*
X85633460Y-19837880D02*
X84033460Y-19837880D01*
X85633460Y-22437880D02*
X84033460Y-22437880D01*
X88173460Y-19837880D02*
X88173460Y-22437880D01*
X86573460Y-19837880D02*
X86573460Y-22437880D01*
X88173460Y-19837880D02*
X86573460Y-19837880D01*
X88173460Y-22437880D02*
X86573460Y-22437880D01*
X75476380Y-19837880D02*
X75476380Y-22437880D01*
X73876380Y-19837880D02*
X73876380Y-22437880D01*
X75476380Y-19837880D02*
X73876380Y-19837880D01*
X75476380Y-22437880D02*
X73876380Y-22437880D01*
X118882060Y-9042880D02*
X118882060Y-11642880D01*
X117282060Y-9042880D02*
X117282060Y-11642880D01*
X118882060Y-9042880D02*
X117282060Y-9042880D01*
X118882060Y-11642880D02*
X117282060Y-11642880D01*
X106309060Y-9042880D02*
X106309060Y-11642880D01*
X104709060Y-9042880D02*
X104709060Y-11642880D01*
X106309060Y-9042880D02*
X104709060Y-9042880D01*
X106309060Y-11642880D02*
X104709060Y-11642880D01*
X127343000Y-105158060D02*
X127343000Y-102558060D01*
X128943000Y-105158060D02*
X128943000Y-102558060D01*
X127343000Y-105158060D02*
X128943000Y-105158060D01*
X127343000Y-102558060D02*
X128943000Y-102558060D01*
X127351000Y-100543460D02*
X129951000Y-100543460D01*
X127351000Y-102143460D02*
X129951000Y-102143460D01*
X127351000Y-100543460D02*
X127351000Y-102143460D01*
X129951000Y-100543460D02*
X129951000Y-102143460D01*
X121442000Y-105191460D02*
X118842000Y-105191460D01*
X121442000Y-103591460D02*
X118842000Y-103591460D01*
X121442000Y-105191460D02*
X121442000Y-103591460D01*
X118842000Y-105191460D02*
X118842000Y-103591460D01*
X126809400Y-97820960D02*
X126809400Y-100420960D01*
X125209400Y-97820960D02*
X125209400Y-100420960D01*
X126809400Y-97820960D02*
X125209400Y-97820960D01*
X126809400Y-100420960D02*
X125209400Y-100420960D01*
X123101200Y-103481660D02*
X123101200Y-100881660D01*
X124701200Y-103481660D02*
X124701200Y-100881660D01*
X123101200Y-103481660D02*
X124701200Y-103481660D01*
X123101200Y-100881660D02*
X124701200Y-100881660D01*
X119519600Y-100881660D02*
X119519600Y-103481660D01*
X117919600Y-100881660D02*
X117919600Y-103481660D01*
X119519600Y-100881660D02*
X117919600Y-100881660D01*
X119519600Y-103481660D02*
X117919600Y-103481660D01*
X128943000Y-112921260D02*
X128943000Y-115521260D01*
X127343000Y-112921260D02*
X127343000Y-115521260D01*
X128943000Y-112921260D02*
X127343000Y-112921260D01*
X128943000Y-115521260D02*
X127343000Y-115521260D01*
X122974000Y-100881660D02*
X122974000Y-103481660D01*
X121374000Y-100881660D02*
X121374000Y-103481660D01*
X122974000Y-100881660D02*
X121374000Y-100881660D01*
X122974000Y-103481660D02*
X121374000Y-103481660D01*
X121246800Y-100881660D02*
X121246800Y-103481660D01*
X119646800Y-100881660D02*
X119646800Y-103481660D01*
X121246800Y-100881660D02*
X119646800Y-100881660D01*
X121246800Y-103481660D02*
X119646800Y-103481660D01*
X127351000Y-115935860D02*
X129951000Y-115935860D01*
X127351000Y-117535860D02*
X129951000Y-117535860D01*
X127351000Y-115935860D02*
X127351000Y-117535860D01*
X129951000Y-115935860D02*
X129951000Y-117535860D01*
X121480100Y-114525960D02*
X118880100Y-114525960D01*
X121480100Y-112925960D02*
X118880100Y-112925960D01*
X121480100Y-114525960D02*
X121480100Y-112925960D01*
X118880100Y-114525960D02*
X118880100Y-112925960D01*
X125209400Y-120258360D02*
X125209400Y-117658360D01*
X126809400Y-120258360D02*
X126809400Y-117658360D01*
X125209400Y-120258360D02*
X126809400Y-120258360D01*
X125209400Y-117658360D02*
X126809400Y-117658360D01*
X122974000Y-114597660D02*
X122974000Y-117197660D01*
X121374000Y-114597660D02*
X121374000Y-117197660D01*
X122974000Y-114597660D02*
X121374000Y-114597660D01*
X122974000Y-117197660D02*
X121374000Y-117197660D01*
X117919600Y-117197660D02*
X117919600Y-114597660D01*
X119519600Y-117197660D02*
X119519600Y-114597660D01*
X117919600Y-117197660D02*
X119519600Y-117197660D01*
X117919600Y-114597660D02*
X119519600Y-114597660D01*
X123101200Y-117197660D02*
X123101200Y-114597660D01*
X124701200Y-117197660D02*
X124701200Y-114597660D01*
X123101200Y-117197660D02*
X124701200Y-117197660D01*
X123101200Y-114597660D02*
X124701200Y-114597660D01*
X119646800Y-117197660D02*
X119646800Y-114597660D01*
X121246800Y-117197660D02*
X121246800Y-114597660D01*
X119646800Y-117197660D02*
X121246800Y-117197660D01*
X119646800Y-114597660D02*
X121246800Y-114597660D01*
X115173860Y-95615280D02*
X115173860Y-93015280D01*
X116773860Y-95615280D02*
X116773860Y-93015280D01*
X115173860Y-95615280D02*
X116773860Y-95615280D01*
X115173860Y-93015280D02*
X116773860Y-93015280D01*
X115173860Y-98409280D02*
X115173860Y-95809280D01*
X116773860Y-98409280D02*
X116773860Y-95809280D01*
X115173860Y-98409280D02*
X116773860Y-98409280D01*
X115173860Y-95809280D02*
X116773860Y-95809280D01*
X73390860Y-105419680D02*
X73390860Y-102819680D01*
X74990860Y-105419680D02*
X74990860Y-102819680D01*
X73390860Y-105419680D02*
X74990860Y-105419680D01*
X73390860Y-102819680D02*
X74990860Y-102819680D01*
X60767060Y-104149680D02*
X60767060Y-101549680D01*
X62367060Y-104149680D02*
X62367060Y-101549680D01*
X60767060Y-104149680D02*
X62367060Y-104149680D01*
X60767060Y-101549680D02*
X62367060Y-101549680D01*
X75118060Y-105419680D02*
X75118060Y-102819680D01*
X76718060Y-105419680D02*
X76718060Y-102819680D01*
X75118060Y-105419680D02*
X76718060Y-105419680D01*
X75118060Y-102819680D02*
X76718060Y-102819680D01*
X67506060Y-105732680D02*
X70106060Y-105732680D01*
X67506060Y-107332680D02*
X70106060Y-107332680D01*
X67506060Y-105732680D02*
X67506060Y-107332680D01*
X70106060Y-105732680D02*
X70106060Y-107332680D01*
X48100460Y-101338480D02*
X50700460Y-101338480D01*
X48100460Y-102938480D02*
X50700460Y-102938480D01*
X48100460Y-101338480D02*
X48100460Y-102938480D01*
X50700460Y-101338480D02*
X50700460Y-102938480D01*
X66617060Y-98366680D02*
X69217060Y-98366680D01*
X66617060Y-99966680D02*
X69217060Y-99966680D01*
X66617060Y-98366680D02*
X66617060Y-99966680D01*
X69217060Y-98366680D02*
X69217060Y-99966680D01*
X48100460Y-103116480D02*
X50700460Y-103116480D01*
X48100460Y-104716480D02*
X50700460Y-104716480D01*
X48100460Y-103116480D02*
X48100460Y-104716480D01*
X50700460Y-103116480D02*
X50700460Y-104716480D01*
X48100460Y-97782480D02*
X50700460Y-97782480D01*
X48100460Y-99382480D02*
X50700460Y-99382480D01*
X48100460Y-97782480D02*
X48100460Y-99382480D01*
X50700460Y-97782480D02*
X50700460Y-99382480D01*
X48100460Y-99560480D02*
X50700460Y-99560480D01*
X48100460Y-101160480D02*
X50700460Y-101160480D01*
X48100460Y-99560480D02*
X48100460Y-101160480D01*
X50700460Y-99560480D02*
X50700460Y-101160480D01*
X73390860Y-120888280D02*
X73390860Y-118288280D01*
X74990860Y-120888280D02*
X74990860Y-118288280D01*
X73390860Y-120888280D02*
X74990860Y-120888280D01*
X73390860Y-118288280D02*
X74990860Y-118288280D01*
X60767060Y-119618280D02*
X60767060Y-117018280D01*
X62367060Y-119618280D02*
X62367060Y-117018280D01*
X60767060Y-119618280D02*
X62367060Y-119618280D01*
X60767060Y-117018280D02*
X62367060Y-117018280D01*
X75118060Y-120888280D02*
X75118060Y-118288280D01*
X76718060Y-120888280D02*
X76718060Y-118288280D01*
X75118060Y-120888280D02*
X76718060Y-120888280D01*
X75118060Y-118288280D02*
X76718060Y-118288280D01*
X67506060Y-121201280D02*
X70106060Y-121201280D01*
X67506060Y-122801280D02*
X70106060Y-122801280D01*
X67506060Y-121201280D02*
X67506060Y-122801280D01*
X70106060Y-121201280D02*
X70106060Y-122801280D01*
X48100460Y-119067680D02*
X50700460Y-119067680D01*
X48100460Y-120667680D02*
X50700460Y-120667680D01*
X48100460Y-119067680D02*
X48100460Y-120667680D01*
X50700460Y-119067680D02*
X50700460Y-120667680D01*
X66617060Y-113835280D02*
X69217060Y-113835280D01*
X66617060Y-115435280D02*
X69217060Y-115435280D01*
X66617060Y-113835280D02*
X66617060Y-115435280D01*
X69217060Y-113835280D02*
X69217060Y-115435280D01*
X48100460Y-120845680D02*
X50700460Y-120845680D01*
X48100460Y-122445680D02*
X50700460Y-122445680D01*
X48100460Y-120845680D02*
X48100460Y-122445680D01*
X50700460Y-120845680D02*
X50700460Y-122445680D01*
X48100460Y-115511680D02*
X50700460Y-115511680D01*
X48100460Y-117111680D02*
X50700460Y-117111680D01*
X48100460Y-115511680D02*
X48100460Y-117111680D01*
X50700460Y-115511680D02*
X50700460Y-117111680D01*
X48100460Y-117289680D02*
X50700460Y-117289680D01*
X48100460Y-118889680D02*
X50700460Y-118889680D01*
X48100460Y-117289680D02*
X48100460Y-118889680D01*
X50700460Y-117289680D02*
X50700460Y-118889680D01*
X71638260Y-94345280D02*
X71638260Y-91745280D01*
X73238260Y-94345280D02*
X73238260Y-91745280D01*
X71638260Y-94345280D02*
X73238260Y-94345280D01*
X71638260Y-91745280D02*
X73238260Y-91745280D01*
X75016260Y-91745280D02*
X75016260Y-94345280D01*
X73416260Y-91745280D02*
X73416260Y-94345280D01*
X75016260Y-91745280D02*
X73416260Y-91745280D01*
X75016260Y-94345280D02*
X73416260Y-94345280D01*
X14022860Y-76141480D02*
X11422860Y-76141480D01*
X14022860Y-74541480D02*
X11422860Y-74541480D01*
X14022860Y-76141480D02*
X14022860Y-74541480D01*
X11422860Y-76141480D02*
X11422860Y-74541480D01*
X14048260Y-62044480D02*
X11448260Y-62044480D01*
X14048260Y-60444480D02*
X11448260Y-60444480D01*
X14048260Y-62044480D02*
X14048260Y-60444480D01*
X11448260Y-62044480D02*
X11448260Y-60444480D01*
X6605900Y1835280D02*
X16155900Y1835280D01*
X16155900Y1835280D02*
X16155900Y-3464720D01*
X16155900Y-3464720D02*
X6605900Y-3464720D01*
X6605900Y-3464720D02*
X6605900Y1835280D01*
X120381580Y-112787100D02*
X125881580Y-112787100D01*
X120381580Y-105287100D02*
X125881580Y-105287100D01*
X120381580Y-112787100D02*
X120381580Y-105287100D01*
X125881580Y-112787100D02*
X125881580Y-105287100D01*
X71628960Y-105599680D02*
X71628960Y-100099680D01*
X64128960Y-105599680D02*
X64128960Y-100099680D01*
X71628960Y-105599680D02*
X64128960Y-105599680D01*
X71628960Y-100099680D02*
X64128960Y-100099680D01*
X18721460Y-71455680D02*
X22421460Y-71455680D01*
X18721460Y-65155680D02*
X22421460Y-65155680D01*
X18721460Y-71455680D02*
X18721460Y-65155680D01*
X22421460Y-71455680D02*
X22421460Y-65155680D01*
X110282460Y-24101280D02*
X119582460Y-24101280D01*
X110282460Y-16701280D02*
X119582460Y-16701280D01*
X110282460Y-24101280D02*
X110282460Y-16701280D01*
X119582460Y-24101280D02*
X119582460Y-16701280D01*
X102934860Y7479720D02*
X102934860Y-8870280D01*
X102934860Y-8870280D02*
X121634860Y-8870280D01*
X121634860Y-8870280D02*
X121634860Y7479720D01*
X121634860Y7479720D02*
X102934860Y7479720D01*
X-17392220Y-74373680D02*
X10007780Y-74373680D01*
X10007780Y-74373680D02*
X10007780Y-54673680D01*
X10007780Y-54673680D02*
X-17392220Y-54673680D01*
X-17392220Y-74373680D02*
X-17392220Y-54673680D01*
X158402860Y-82837080D02*
X131002860Y-82837080D01*
X131002860Y-82837080D02*
X131002860Y-102537080D01*
X131002860Y-102537080D02*
X158402860Y-102537080D01*
X158402860Y-82837080D02*
X158402860Y-102537080D01*
X158402860Y-103042780D02*
X131002860Y-103042780D01*
X131002860Y-103042780D02*
X131002860Y-122742780D01*
X131002860Y-122742780D02*
X158402860Y-122742780D01*
X158402860Y-103042780D02*
X158402860Y-122742780D01*
X-17392220Y-102572760D02*
X10007780Y-102572760D01*
X10007780Y-102572760D02*
X10007780Y-82872760D01*
X10007780Y-82872760D02*
X-17392220Y-82872760D01*
X-17392220Y-102572760D02*
X-17392220Y-82872760D01*
X-17392220Y-122770840D02*
X10007780Y-122770840D01*
X10007780Y-122770840D02*
X10007780Y-103070840D01*
X10007780Y-103070840D02*
X-17392220Y-103070840D01*
X-17392220Y-122770840D02*
X-17392220Y-103070840D01*
X135758120Y-8963220D02*
X135758120Y7236780D01*
X135758120Y7236780D02*
X124308120Y7236780D01*
X124308120Y7236780D02*
X124308120Y-8963220D01*
X124308120Y-8963220D02*
X135758120Y-8963220D01*
X124734360Y-92261560D02*
X124734360Y-95261560D01*
X124734360Y-95261560D02*
X122834360Y-95261560D01*
X122834360Y-92261560D02*
X122834360Y-95261560D01*
X124734360Y-92261560D02*
X122834360Y-92261560D01*
X119491800Y-92261560D02*
X119491800Y-95261560D01*
X119491800Y-95261560D02*
X117591800Y-95261560D01*
X117591800Y-92261560D02*
X117591800Y-95261560D01*
X119491800Y-92261560D02*
X117591800Y-92261560D01*
X122834360Y-125825380D02*
X122834360Y-122825380D01*
X122834360Y-122825380D02*
X124734360Y-122825380D01*
X124734360Y-125825380D02*
X124734360Y-122825380D01*
X122834360Y-125825380D02*
X124734360Y-125825380D01*
X117601960Y-125825380D02*
X117601960Y-122825380D01*
X117601960Y-122825380D02*
X119501960Y-122825380D01*
X119501960Y-125825380D02*
X119501960Y-122825380D01*
X117601960Y-125825380D02*
X119501960Y-125825380D01*
X13127860Y-88539280D02*
X16127860Y-88539280D01*
X16127860Y-88539280D02*
X16127860Y-90439280D01*
X13127860Y-90439280D02*
X16127860Y-90439280D01*
X13127860Y-88539280D02*
X13127860Y-90439280D01*
X50426660Y-16803240D02*
X50426660Y-19803240D01*
X50426660Y-19803240D02*
X48526660Y-19803240D01*
X48526660Y-16803240D02*
X48526660Y-19803240D01*
X50426660Y-16803240D02*
X48526660Y-16803240D01*
X55725100Y-25078560D02*
X55725100Y-28078560D01*
X55725100Y-28078560D02*
X53825100Y-28078560D01*
X53825100Y-25078560D02*
X53825100Y-28078560D01*
X55725100Y-25078560D02*
X53825100Y-25078560D01*
X114288060Y-12247680D02*
X114288060Y-9047680D01*
X116288060Y-12247680D02*
X116288060Y-9047680D01*
X114288060Y-12247680D02*
X116288060Y-12247680D01*
X114288060Y-9047680D02*
X116288060Y-9047680D01*
X113080460Y-16528480D02*
X110180460Y-16528480D01*
X113080460Y-15028480D02*
X110180460Y-15028480D01*
X113080460Y-16528480D02*
X113080460Y-15028480D01*
X110180460Y-16528480D02*
X110180460Y-15028480D01*
X88443660Y-14965880D02*
X92043660Y-14965880D01*
X92043660Y-14965880D02*
X92043660Y-18165880D01*
X92043660Y-18165880D02*
X88443660Y-18165880D01*
X88443660Y-18165880D02*
X88443660Y-14965880D01*
X102129860Y-111383880D02*
X98829860Y-111383880D01*
X98829860Y-111383880D02*
X98829860Y-108183880D01*
X98829860Y-108183880D02*
X102129860Y-108183880D01*
X102129860Y-108183880D02*
X102129860Y-111383880D01*
X105660460Y-111383880D02*
X102360460Y-111383880D01*
X102360460Y-111383880D02*
X102360460Y-108183880D01*
X102360460Y-108183880D02*
X105660460Y-108183880D01*
X105660460Y-108183880D02*
X105660460Y-111383880D01*
X126109460Y-105618480D02*
X129409460Y-105618480D01*
X129409460Y-105618480D02*
X129409460Y-108818480D01*
X129409460Y-108818480D02*
X126109460Y-108818480D01*
X126109460Y-108818480D02*
X126109460Y-105618480D01*
X126112000Y-109395460D02*
X129412000Y-109395460D01*
X129412000Y-109395460D02*
X129412000Y-112595460D01*
X129412000Y-112595460D02*
X126112000Y-112595460D01*
X126112000Y-112595460D02*
X126112000Y-109395460D01*
X121387600Y-97457460D02*
X124687600Y-97457460D01*
X124687600Y-97457460D02*
X124687600Y-100657460D01*
X124687600Y-100657460D02*
X121387600Y-100657460D01*
X121387600Y-100657460D02*
X121387600Y-97457460D01*
X117895100Y-97457460D02*
X121195100Y-97457460D01*
X121195100Y-97457460D02*
X121195100Y-100657460D01*
X121195100Y-100657460D02*
X117895100Y-100657460D01*
X117895100Y-100657460D02*
X117895100Y-97457460D01*
X125426740Y-90982600D02*
X122126740Y-90982600D01*
X122126740Y-90982600D02*
X122126740Y-87782600D01*
X122126740Y-87782600D02*
X125426740Y-87782600D01*
X125426740Y-87782600D02*
X125426740Y-90982600D01*
X120194340Y-90982600D02*
X116894340Y-90982600D01*
X116894340Y-90982600D02*
X116894340Y-87782600D01*
X116894340Y-87782600D02*
X120194340Y-87782600D01*
X120194340Y-87782600D02*
X120194340Y-90982600D01*
X124687600Y-120609160D02*
X121387600Y-120609160D01*
X121387600Y-120609160D02*
X121387600Y-117409160D01*
X121387600Y-117409160D02*
X124687600Y-117409160D01*
X124687600Y-117409160D02*
X124687600Y-120609160D01*
X121195100Y-120571060D02*
X117895100Y-120571060D01*
X117895100Y-120571060D02*
X117895100Y-117371060D01*
X117895100Y-117371060D02*
X121195100Y-117371060D01*
X121195100Y-117371060D02*
X121195100Y-120571060D01*
X116889260Y-84333280D02*
X120189260Y-84333280D01*
X120189260Y-84333280D02*
X120189260Y-87533280D01*
X120189260Y-87533280D02*
X116889260Y-87533280D01*
X116889260Y-87533280D02*
X116889260Y-84333280D01*
X122121660Y-84333280D02*
X125421660Y-84333280D01*
X125421660Y-84333280D02*
X125421660Y-87533280D01*
X125421660Y-87533280D02*
X122121660Y-87533280D01*
X122121660Y-87533280D02*
X122121660Y-84333280D01*
X19681460Y-90098680D02*
X16381460Y-90098680D01*
X16381460Y-90098680D02*
X16381460Y-86898680D01*
X16381460Y-86898680D02*
X19681460Y-86898680D01*
X19681460Y-86898680D02*
X19681460Y-90098680D01*
X18082060Y-58756280D02*
X18082060Y-62056280D01*
X18082060Y-62056280D02*
X14882060Y-62056280D01*
X14882060Y-62056280D02*
X14882060Y-58756280D01*
X14882060Y-58756280D02*
X18082060Y-58756280D01*
X33220860Y-19181080D02*
X33220860Y-15881080D01*
X33220860Y-15881080D02*
X36420860Y-15881080D01*
X36420860Y-15881080D02*
X36420860Y-19181080D01*
X36420860Y-19181080D02*
X33220860Y-19181080D01*
X36675260Y-19181080D02*
X36675260Y-15881080D01*
X36675260Y-15881080D02*
X39875260Y-15881080D01*
X39875260Y-15881080D02*
X39875260Y-19181080D01*
X39875260Y-19181080D02*
X36675260Y-19181080D01*
X124722060Y-24940280D02*
X124722060Y-17640280D01*
X124722060Y-17640280D02*
X129222060Y-17640280D01*
X129222060Y-17640280D02*
X129222060Y-24940280D01*
X129222060Y-24940280D02*
X124722060Y-24940280D01*
X132113460Y-24940280D02*
X132113460Y-17640280D01*
X132113460Y-17640280D02*
X136613460Y-17640280D01*
X136613460Y-17640280D02*
X136613460Y-24940280D01*
X136613460Y-24940280D02*
X132113460Y-24940280D01*
X13127860Y-108757680D02*
X16127860Y-108757680D01*
X16127860Y-108757680D02*
X16127860Y-110657680D01*
X13127860Y-110657680D02*
X16127860Y-110657680D01*
X13127860Y-108757680D02*
X13127860Y-110657680D01*
X17451260Y-90630080D02*
X17451260Y-101130080D01*
X17451260Y-101130080D02*
X10351260Y-101130080D01*
X10351260Y-101130080D02*
X10351260Y-90630080D01*
X10351260Y-90630080D02*
X17451260Y-90630080D01*
X17451260Y-110823080D02*
X17451260Y-121323080D01*
X17451260Y-121323080D02*
X10351260Y-121323080D01*
X10351260Y-121323080D02*
X10351260Y-110823080D01*
X10351260Y-110823080D02*
X17451260Y-110823080D01*
X89793920Y7302340D02*
X89793920Y-10247660D01*
X89793920Y-10247660D02*
X74543920Y-10247660D01*
X74543920Y-10247660D02*
X74543920Y7302340D01*
X74543920Y7302340D02*
X89793920Y7302340D01*
X-11026820Y-29119700D02*
X-11026820Y-38919700D01*
X22523180Y-38919700D02*
X-11026820Y-38919700D01*
X22523180Y-29119700D02*
X-11026820Y-29119700D01*
X22523180Y-29119700D02*
X22523180Y-38919700D01*
X19605260Y-110291680D02*
X16305260Y-110291680D01*
X16305260Y-110291680D02*
X16305260Y-107091680D01*
X16305260Y-107091680D02*
X19605260Y-107091680D01*
X19605260Y-107091680D02*
X19605260Y-110291680D01*
X106424460Y-9047680D02*
X109724460Y-9047680D01*
X109724460Y-9047680D02*
X109724460Y-12247680D01*
X109724460Y-12247680D02*
X106424460Y-12247680D01*
X106424460Y-12247680D02*
X106424460Y-9047680D01*
X119022860Y-9047680D02*
X122322860Y-9047680D01*
X122322860Y-9047680D02*
X122322860Y-12247680D01*
X122322860Y-12247680D02*
X119022860Y-12247680D01*
X119022860Y-12247680D02*
X119022860Y-9047680D01*
X77404060Y-45170880D02*
X77404060Y-42570880D01*
X79004060Y-45170880D02*
X79004060Y-42570880D01*
X77404060Y-45170880D02*
X79004060Y-45170880D01*
X77404060Y-42570880D02*
X79004060Y-42570880D01*
X77124460Y-42570880D02*
X77124460Y-45170880D01*
X75524460Y-42570880D02*
X75524460Y-45170880D01*
X77124460Y-42570880D02*
X75524460Y-42570880D01*
X77124460Y-45170880D02*
X75524460Y-45170880D01*
X16232660Y-108577280D02*
X13632660Y-108577280D01*
X16232660Y-106977280D02*
X13632660Y-106977280D01*
X16232660Y-108577280D02*
X16232660Y-106977280D01*
X13632660Y-108577280D02*
X13632660Y-106977280D01*
X16858460Y-105300880D02*
X19458460Y-105300880D01*
X16858460Y-106900880D02*
X19458460Y-106900880D01*
X16858460Y-105300880D02*
X16858460Y-106900880D01*
X19458460Y-105300880D02*
X19458460Y-106900880D01*
X112735460Y-26882880D02*
X112735460Y-24282880D01*
X114335460Y-26882880D02*
X114335460Y-24282880D01*
X112735460Y-26882880D02*
X114335460Y-26882880D01*
X112735460Y-24282880D02*
X114335460Y-24282880D01*
X116113460Y-24282880D02*
X116113460Y-26882880D01*
X114513460Y-24282880D02*
X114513460Y-26882880D01*
X116113460Y-24282880D02*
X114513460Y-24282880D01*
X116113460Y-26882880D02*
X114513460Y-26882880D01*
X78864260Y-45347480D02*
X78864260Y-48947480D01*
X78864260Y-48947480D02*
X75664260Y-48947480D01*
X75664260Y-48947480D02*
X75664260Y-45347480D01*
X75664260Y-45347480D02*
X78864260Y-45347480D01*
X127781460Y-57037480D02*
X124181460Y-57037480D01*
X127781460Y-55037480D02*
X124181460Y-55037480D01*
X127781460Y-57037480D02*
X127781460Y-55037480D01*
X124181460Y-57037480D02*
X124181460Y-55037480D01*
X120422260Y-56739280D02*
X124022260Y-56739280D01*
X120422260Y-58739280D02*
X124022260Y-58739280D01*
X120422260Y-56739280D02*
X120422260Y-58739280D01*
X124022260Y-56739280D02*
X124022260Y-58739280D01*
X100152960Y-104319480D02*
X100152960Y-100719480D01*
X102152960Y-104319480D02*
X102152960Y-100719480D01*
X100152960Y-104319480D02*
X102152960Y-104319480D01*
X100152960Y-100719480D02*
X102152960Y-100719480D01*
X84658960Y-105957780D02*
X84658960Y-102357780D01*
X86658960Y-105957780D02*
X86658960Y-102357780D01*
X84658960Y-105957780D02*
X86658960Y-105957780D01*
X84658960Y-102357780D02*
X86658960Y-102357780D01*
X10601260Y-90456680D02*
X10601260Y-87556680D01*
X12101260Y-90456680D02*
X12101260Y-87556680D01*
X10601260Y-90456680D02*
X12101260Y-90456680D01*
X10601260Y-87556680D02*
X12101260Y-87556680D01*
X10601260Y-110649680D02*
X10601260Y-107749680D01*
X12101260Y-110649680D02*
X12101260Y-107749680D01*
X10601260Y-110649680D02*
X12101260Y-110649680D01*
X10601260Y-107749680D02*
X12101260Y-107749680D01*
X94650660Y-99526880D02*
X94650660Y-96926880D01*
X96250660Y-99526880D02*
X96250660Y-96926880D01*
X94650660Y-99526880D02*
X96250660Y-99526880D01*
X94650660Y-96926880D02*
X96250660Y-96926880D01*
X96377860Y-99526880D02*
X96377860Y-96926880D01*
X97977860Y-99526880D02*
X97977860Y-96926880D01*
X96377860Y-99526880D02*
X97977860Y-99526880D01*
X96377860Y-96926880D02*
X97977860Y-96926880D01*
X92923460Y-99526880D02*
X92923460Y-96926880D01*
X94523460Y-99526880D02*
X94523460Y-96926880D01*
X92923460Y-99526880D02*
X94523460Y-99526880D01*
X92923460Y-96926880D02*
X94523460Y-96926880D01*
X23106860Y-70477480D02*
X25706860Y-70477480D01*
X23106860Y-72077480D02*
X25706860Y-72077480D01*
X23106860Y-70477480D02*
X23106860Y-72077480D01*
X25706860Y-70477480D02*
X25706860Y-72077480D01*
X23106860Y-64533880D02*
X25706860Y-64533880D01*
X23106860Y-66133880D02*
X25706860Y-66133880D01*
X23106860Y-64533880D02*
X23106860Y-66133880D01*
X25706860Y-64533880D02*
X25706860Y-66133880D01*
X122841260Y-3916880D02*
X122841260Y-7116880D01*
X120841260Y-3916880D02*
X120841260Y-7116880D01*
X122841260Y-3916880D02*
X120841260Y-3916880D01*
X122841260Y-7116880D02*
X120841260Y-7116880D01*
X8747860Y-28940280D02*
X8747860Y-26340280D01*
X10347860Y-28940280D02*
X10347860Y-26340280D01*
X8747860Y-28940280D02*
X10347860Y-28940280D01*
X8747860Y-26340280D02*
X10347860Y-26340280D01*
X6207860Y-28940280D02*
X6207860Y-26340280D01*
X7807860Y-28940280D02*
X7807860Y-26340280D01*
X6207860Y-28940280D02*
X7807860Y-28940280D01*
X6207860Y-26340280D02*
X7807860Y-26340280D01*
X71628960Y-121068280D02*
X71628960Y-115568280D01*
X64128960Y-121068280D02*
X64128960Y-115568280D01*
X71628960Y-121068280D02*
X64128960Y-121068280D01*
X71628960Y-115568280D02*
X64128960Y-115568280D01*
X109814060Y-98884480D02*
X117714060Y-98884480D01*
X117714060Y-98884480D02*
X117714060Y-104884480D01*
X117714060Y-104884480D02*
X109814060Y-104884480D01*
X109814060Y-104884480D02*
X109814060Y-98884480D01*
X26223260Y-63279280D02*
X18323260Y-63279280D01*
X18323260Y-63279280D02*
X18323260Y-57279280D01*
X18323260Y-57279280D02*
X26223260Y-57279280D01*
X26223260Y-57279280D02*
X26223260Y-63279280D01*
X71333660Y-128887480D02*
X63433660Y-128887480D01*
X63433660Y-128887480D02*
X63433660Y-122887480D01*
X63433660Y-122887480D02*
X71333660Y-122887480D01*
X71333660Y-122887480D02*
X71333660Y-128887480D01*
X71333660Y-113418880D02*
X63433660Y-113418880D01*
X63433660Y-113418880D02*
X63433660Y-107418880D01*
X63433660Y-107418880D02*
X71333660Y-107418880D01*
X71333660Y-107418880D02*
X71333660Y-113418880D01*
X112458240Y-112987100D02*
X112458240Y-105087100D01*
X112458240Y-105087100D02*
X118458240Y-105087100D01*
X118458240Y-105087100D02*
X118458240Y-112987100D01*
X118458240Y-112987100D02*
X112458240Y-112987100D01*
X87878660Y-121353880D02*
X87878660Y-113453880D01*
X87878660Y-113453880D02*
X93878660Y-113453880D01*
X93878660Y-113453880D02*
X93878660Y-121353880D01*
X93878660Y-121353880D02*
X87878660Y-121353880D01*
X81808060Y-121353880D02*
X81808060Y-113453880D01*
X81808060Y-113453880D02*
X87808060Y-113453880D01*
X87808060Y-113453880D02*
X87808060Y-121353880D01*
X87808060Y-121353880D02*
X81808060Y-121353880D01*
X132674660Y-64269880D02*
X124774660Y-64269880D01*
X124774660Y-64269880D02*
X124774660Y-58269880D01*
X124774660Y-58269880D02*
X132674660Y-58269880D01*
X132674660Y-58269880D02*
X132674660Y-64269880D01*
X26172460Y-78138280D02*
X18272460Y-78138280D01*
X18272460Y-78138280D02*
X18272460Y-72138280D01*
X18272460Y-72138280D02*
X26172460Y-72138280D01*
X26172460Y-72138280D02*
X26172460Y-78138280D01*
X10195260Y-62232280D02*
X18095260Y-62232280D01*
X18095260Y-62232280D02*
X18095260Y-68232280D01*
X18095260Y-68232280D02*
X10195260Y-68232280D01*
X10195260Y-68232280D02*
X10195260Y-62232280D01*
X10195260Y-68379080D02*
X18095260Y-68379080D01*
X18095260Y-68379080D02*
X18095260Y-74379080D01*
X18095260Y-74379080D02*
X10195260Y-74379080D01*
X10195260Y-74379080D02*
X10195260Y-68379080D01*
X51749660Y-109374680D02*
X59649660Y-109374680D01*
X59649660Y-109374680D02*
X59649660Y-115374680D01*
X59649660Y-115374680D02*
X51749660Y-115374680D01*
X51749660Y-115374680D02*
X51749660Y-109374680D01*
X79664860Y-118016280D02*
X71764860Y-118016280D01*
X71764860Y-118016280D02*
X71764860Y-112016280D01*
X71764860Y-112016280D02*
X79664860Y-112016280D01*
X79664860Y-112016280D02*
X79664860Y-118016280D01*
X51749660Y-93931480D02*
X59649660Y-93931480D01*
X59649660Y-93931480D02*
X59649660Y-99931480D01*
X59649660Y-99931480D02*
X51749660Y-99931480D01*
X51749660Y-99931480D02*
X51749660Y-93931480D01*
X79664860Y-102547680D02*
X71764860Y-102547680D01*
X71764860Y-102547680D02*
X71764860Y-96547680D01*
X71764860Y-96547680D02*
X79664860Y-96547680D01*
X79664860Y-96547680D02*
X79664860Y-102547680D01*
X109814060Y-113184680D02*
X117714060Y-113184680D01*
X117714060Y-113184680D02*
X117714060Y-119184680D01*
X117714060Y-119184680D02*
X109814060Y-119184680D01*
X109814060Y-119184680D02*
X109814060Y-113184680D01*
X101325660Y-121636660D02*
X101325660Y-111936660D01*
X101325660Y-111936660D02*
X108625660Y-111936660D01*
X108625660Y-111936660D02*
X108625660Y-121636660D01*
X108625660Y-121636660D02*
X101325660Y-121636660D01*
X93959660Y-121636660D02*
X93959660Y-111936660D01*
X93959660Y-111936660D02*
X101259660Y-111936660D01*
X101259660Y-111936660D02*
X101259660Y-121636660D01*
X101259660Y-121636660D02*
X93959660Y-121636660D01*
X136108460Y-66935480D02*
X136108460Y-76635480D01*
X136108460Y-76635480D02*
X128808460Y-76635480D01*
X128808460Y-76635480D02*
X128808460Y-66935480D01*
X128808460Y-66935480D02*
X136108460Y-66935480D01*
X61746260Y-90944680D02*
X71446260Y-90944680D01*
X71446260Y-90944680D02*
X71446260Y-98244680D01*
X71446260Y-98244680D02*
X61746260Y-98244680D01*
X61746260Y-98244680D02*
X61746260Y-90944680D01*
X107756940Y-98398200D02*
X107756940Y-88698200D01*
X107756940Y-88698200D02*
X115056940Y-88698200D01*
X115056940Y-88698200D02*
X115056940Y-98398200D01*
X115056940Y-98398200D02*
X107756940Y-98398200D01*
X100324660Y-20998480D02*
X100324660Y-13098480D01*
X100324660Y-13098480D02*
X106324660Y-13098480D01*
X106324660Y-13098480D02*
X106324660Y-20998480D01*
X106324660Y-20998480D02*
X100324660Y-20998480D01*
X118447460Y-54857280D02*
X118447460Y-45357280D01*
X130447460Y-54857280D02*
X130447460Y-45357280D01*
X130447460Y-45357280D02*
X118447460Y-45357280D01*
X130447460Y-54857280D02*
X118447460Y-54857280D01*
X118124460Y-39749280D02*
X118124460Y-33599280D01*
X125924460Y-39749280D02*
X125924460Y-33599280D01*
X125924460Y-33599280D02*
X118124460Y-33599280D01*
X125924460Y-39749280D02*
X118124460Y-39749280D01*
X87899860Y-108675880D02*
X90199860Y-108675880D01*
X87899860Y-109875880D02*
X90199860Y-109875880D01*
X87899860Y-108675880D02*
X87899860Y-109875880D01*
X90199860Y-108675880D02*
X90199860Y-109875880D01*
X98813060Y-104329880D02*
X98813060Y-102029880D01*
X100013060Y-104329880D02*
X100013060Y-102029880D01*
X98813060Y-104329880D02*
X100013060Y-104329880D01*
X98813060Y-102029880D02*
X100013060Y-102029880D01*
X92240660Y-97203880D02*
X92240660Y-99503880D01*
X91040660Y-97203880D02*
X91040660Y-99503880D01*
X92240660Y-97203880D02*
X91040660Y-97203880D01*
X92240660Y-99503880D02*
X91040660Y-99503880D01*
X98821860Y-104586480D02*
X101121860Y-104586480D01*
X98821860Y-105786480D02*
X101121860Y-105786480D01*
X98821860Y-104586480D02*
X98821860Y-105786480D01*
X101121860Y-104586480D02*
X101121860Y-105786480D01*
X86836960Y-105879280D02*
X86836960Y-103579280D01*
X88036960Y-105879280D02*
X88036960Y-103579280D01*
X86836960Y-105879280D02*
X88036960Y-105879280D01*
X86836960Y-103579280D02*
X88036960Y-103579280D01*
X92469260Y-110589680D02*
X92469260Y-112889680D01*
X91269260Y-110589680D02*
X91269260Y-112889680D01*
X92469260Y-110589680D02*
X91269260Y-110589680D01*
X92469260Y-112889680D02*
X91269260Y-112889680D01*
X93739260Y-110589680D02*
X93739260Y-112889680D01*
X92539260Y-110589680D02*
X92539260Y-112889680D01*
X93739260Y-110589680D02*
X92539260Y-110589680D01*
X93739260Y-112889680D02*
X92539260Y-112889680D01*
X95009260Y-110589680D02*
X95009260Y-112889680D01*
X93809260Y-110589680D02*
X93809260Y-112889680D01*
X95009260Y-110589680D02*
X93809260Y-110589680D01*
X95009260Y-112889680D02*
X93809260Y-112889680D01*
X96279260Y-110589680D02*
X96279260Y-112889680D01*
X95079260Y-110589680D02*
X95079260Y-112889680D01*
X96279260Y-110589680D02*
X95079260Y-110589680D01*
X96279260Y-112889680D02*
X95079260Y-112889680D01*
X101511860Y-28424280D02*
X101511860Y-24824280D01*
X103511860Y-28424280D02*
X103511860Y-24824280D01*
X101511860Y-28424280D02*
X103511860Y-28424280D01*
X101511860Y-24824280D02*
X103511860Y-24824280D01*
X103692260Y-28429880D02*
X103692260Y-25529880D01*
X105192260Y-28429880D02*
X105192260Y-25529880D01*
X103692260Y-28429880D02*
X105192260Y-28429880D01*
X103692260Y-25529880D02*
X105192260Y-25529880D01*
X78516140Y-50635600D02*
X75616140Y-50635600D01*
X78516140Y-49135600D02*
X75616140Y-49135600D01*
X78516140Y-50635600D02*
X78516140Y-49135600D01*
X75616140Y-50635600D02*
X75616140Y-49135600D01*
X50875060Y-99961680D02*
X60575060Y-99961680D01*
X60575060Y-99961680D02*
X60575060Y-107261680D01*
X60575060Y-107261680D02*
X50875060Y-107261680D01*
X50875060Y-107261680D02*
X50875060Y-99961680D01*
X50875060Y-115430280D02*
X60575060Y-115430280D01*
X60575060Y-115430280D02*
X60575060Y-122730280D01*
X60575060Y-122730280D02*
X50875060Y-122730280D01*
X50875060Y-122730280D02*
X50875060Y-115430280D01*
M02*
