M48
;DRILL file {KiCad 5.0.1} date Fri 14 Dec 2018 05:30:45 PM CET
;FORMAT={-:-/ absolute / inch / decimal}
FMAT,2
INCH,TZ
T1C0.0118
T2C0.0148
T3C0.0177
T4C0.0350
T5C0.0362
T6C0.0394
T7C0.0394
T8C0.0400
T9C0.0402
T10C0.0472
T11C0.0512
T12C0.0531
T13C0.0591
T14C0.0618
T15C0.0917
T16C0.1378
T17C0.1457
T18C0.0236
T19C0.1280
%
G90
G05
M72
T1
X0.1729Y-1.0402
X0.1729Y-1.1843
X0.3389Y-1.9839
X0.4071Y-4.1244
X0.4405Y-0.9768
X0.4405Y-1.1837
X0.5582Y-4.1363
X0.6601Y-3.7442
X0.6601Y-3.9057
X0.7367Y-4.1121
X0.829Y-2.5289
X0.8598Y-2.4549
X0.9218Y-2.3969
X0.9218Y-2.454
X0.9838Y-2.5289
X1.2141Y-3.4354
X1.2143Y-3.3751
X1.2143Y-3.4054
X1.3217Y-3.3752
X1.3218Y-3.4053
X1.3218Y-3.4354
X2.6997Y-1.5921
X2.6998Y-1.7311
X2.7335Y-1.5921
X2.7336Y-1.7311
X2.8056Y-3.3087
X2.8081Y-1.7289
X2.832Y-3.2613
X2.8332Y-1.6863
X2.8516Y-1.7364
X2.8517Y-3.3126
X2.891Y-3.2613
X2.8912Y-1.6873
X2.9108Y-1.7367
X2.9698Y-3.2613
X2.97Y-1.6867
X2.9895Y-3.3126
X2.9929Y-0.5185
X3.0095Y-1.7372
X3.029Y-1.6868
X3.0683Y-3.2613
X3.088Y-3.3125
X3.1075Y-1.7375
X3.1274Y-1.6866
X3.1669Y-1.6866
X3.167Y-1.7365
X3.1824Y-3.1742
X3.2654Y-1.6867
X3.2697Y-0.56
X3.4225Y-4.5461
X3.5201Y-4.6002
X3.525Y-4.6793
X3.5947Y-4.6549
X3.6139Y-4.0429
X3.6567Y-4.5461
X3.6663Y-4.6912
X3.7008Y-4.7366
X3.7064Y-4.4211
X3.8913Y-4.7382
X3.9226Y-4.7357
X3.925Y-4.6511
X3.9293Y-4.6839
X3.9672Y-4.4183
X4.0332Y-4.4687
X4.0541Y-4.7209
X4.0554Y-4.6591
X4.2165Y-0.7227
X4.2487Y-4.8417
X4.2774Y-4.3621
X4.3826Y-4.4598
X4.4503Y-0.7683
X4.5532Y-0.7901
X4.5654Y-0.9494
X4.6274Y-0.8388
X4.6856Y-2.5975
X4.729Y-2.7651
X4.8447Y-1.0639
X4.8797Y-2.5931
X4.8829Y-2.5303
X4.9354Y-4.7102
X5.0776Y-2.5287
X5.0979Y-2.5942
T2
X0.0802Y-2.044
X0.202Y-1.9067
X0.2383Y-1.9826
X0.4036Y-3.3097
X0.4277Y-2.6468
X0.4714Y-0.8176
X0.4965Y-2.1823
X0.5517Y-4.4872
X0.5529Y-3.6726
X0.5585Y-3.3215
X0.5951Y-1.9818
X0.6199Y-3.7392
X0.6199Y-3.9057
X0.6906Y-2.1818
X0.7343Y-3.2986
X0.7689Y-0.7175
X0.8291Y-2.6729
X0.9299Y-1.9493
X0.9593Y-2.7812
X0.9629Y-2.1887
X0.9629Y-2.3145
X0.9717Y-2.3916
X0.9723Y-2.6724
X1.0232Y-2.1973
X1.0752Y-3.283
X1.1036Y-2.7429
X1.1061Y-2.3917
X1.3626Y-3.0343
X1.4277Y-0.7925
X1.4768Y-0.1713
X1.6134Y-0.6749
X1.8825Y-0.9353
X2.0729Y-4.271
X2.0733Y-4.8373
X2.2686Y-4.7404
X2.3049Y-4.1382
X2.4858Y-1.1362
X2.5024Y-1.3498
X2.613Y-1.422
X2.6535Y-5.0073
X2.7178Y-1.3963
X2.7272Y-4.5433
X2.785Y-1.5224
X2.8503Y-4.2066
X2.8528Y-4.7728
X2.9111Y-4.5869
X2.923Y-4.7416
X3.5057Y-1.8455
X3.5289Y-4.7522
X3.5509Y-4.2769
X3.6038Y-4.9141
X3.665Y-4.7522
X3.6752Y-4.5158
X3.7563Y-4.6012
X3.788Y-4.9141
X3.797Y-4.601
X3.8285Y-0.7905
X3.8372Y-4.601
X3.9732Y-4.9141
X3.9761Y-0.7011
X3.9878Y-4.6896
X4.0013Y-4.5466
X4.0486Y-4.5578
X4.1738Y-4.3363
X4.189Y-4.4758
X4.2776Y-4.4964
X4.3514Y-3.9812
X4.3983Y-2.596
X4.4003Y-4.0893
X4.4351Y-3.7145
X4.4364Y-2.7097
X4.4479Y-4.258
X4.4902Y-4.4998
X4.6149Y-3.8292
X4.7131Y-2.3724
X4.7182Y-4.5818
X4.8227Y-4.2581
X4.8227Y-4.5312
X4.8342Y-2.7043
X4.8392Y-1.6271
X4.8716Y-2.8585
X4.8825Y-3.8296
X4.9354Y-4.1054
X4.9463Y-2.2632
X5.0193Y-2.3468
X5.026Y-4.7784
X5.0338Y-2.5003
X5.0351Y-3.314
X5.0853Y-2.7244
X5.09Y-4.8934
X5.0913Y-3.8165
X5.1499Y-2.9902
X5.1527Y-4.3577
X5.1541Y-4.5071
X5.1584Y-3.2356
X5.2277Y-4.7906
X5.2277Y-4.9346
X5.5953Y-4.1255
X5.6092Y-3.33
T3
X2.3126Y-5.0325
X2.3127Y-5.1501
X4.112Y-3.679
X4.1122Y-3.5458
X4.9432Y-5.1496
X4.9433Y-5.0322
T4
X4.1511Y-0.3175
X4.2412Y-0.3175
X4.281Y-0.0577
X4.3212Y-0.1278
X4.3613Y-0.0577
X4.4015Y-0.1278
X4.4416Y-0.0577
X4.4818Y-0.1278
X4.5219Y-0.0577
X4.5621Y-0.1278
X4.6011Y-0.3175
X4.6912Y-0.3175
T5
X3.1845Y-0.2343
X3.1845Y-0.313
X3.2829Y-0.2343
X3.2829Y-0.313
X3.7849Y-0.3382
X3.7849Y-0.4169
X3.7849Y-0.4957
X3.7849Y-0.5744
T6
X5.0206Y-0.7865
X5.119Y-0.7865
X-0.344Y-0.9159
X-0.344Y-1.0159
X-0.344Y-1.1159
T7
X4.7661Y-1.2925
X4.7661Y-1.3925
X4.7661Y-1.4925
T8
X-0.2248Y-1.3783
X-0.2248Y-1.4783
X-0.1248Y-1.3783
X-0.1248Y-1.4783
X-0.0248Y-1.3783
X-0.0248Y-1.4783
X0.0752Y-1.3783
X0.0752Y-1.4783
X0.1752Y-1.3783
X0.1752Y-1.4783
X0.2752Y-1.3783
X0.2752Y-1.4783
X0.3752Y-1.3783
X0.3752Y-1.4783
X0.4752Y-1.3783
X0.4752Y-1.4783
X0.5752Y-1.3783
X0.5752Y-1.4783
X0.6752Y-1.3783
X0.6752Y-1.4783
T10
X5.6886Y-1.5722
X5.8855Y-1.5722
X5.6886Y-1.0016
X5.8855Y-1.0016
T11
X0.8862Y-0.3351
X0.9847Y-0.4335
X1.0831Y0.0586
X1.1815Y-0.3351
X1.2799Y0.0586
X1.3784Y-0.4335
X1.4768Y-0.3351
X1.7132Y-0.3351
X1.8116Y-0.4335
X1.91Y0.0586
X2.0085Y-0.3351
X2.1069Y0.0586
X2.2053Y-0.4335
X2.3037Y-0.3351
T12
X3.6778Y-0.3095
X3.6778Y-0.5851
X3.892Y-0.3095
X3.892Y-0.5851
T13
X-0.3995Y-3.3305
X-0.3995Y-3.9695
X-0.1495Y-3.3305
X-0.1495Y-3.9695
X0.1005Y-3.3305
X0.1005Y-3.9695
X5.451Y-3.33
X5.451Y-3.969
X5.701Y-3.33
X5.701Y-3.969
X5.951Y-3.33
X5.951Y-3.969
X5.451Y-4.1255
X5.451Y-4.7645
X5.701Y-4.1255
X5.701Y-4.7645
X5.951Y-4.1255
X5.951Y-4.7645
X-0.3995Y-2.22
X-0.3995Y-2.859
X-0.1495Y-2.22
X-0.1495Y-2.859
X0.1005Y-2.22
X0.1005Y-2.859
X-0.3995Y-4.1255
X-0.3995Y-4.7645
X-0.1495Y-4.1255
X-0.1495Y-4.7645
X0.1005Y-4.1255
X0.1005Y-4.7645
X5.451Y-2.22
X5.451Y-2.859
X5.701Y-2.22
X5.701Y-2.859
X5.951Y-2.22
X5.951Y-2.859
T14
X4.1011Y-0.0927
X4.7412Y-0.0927
T15
X2.9967Y-0.1276
X3.4707Y-0.1276
T16
X6.0236Y-5.256
X-0.4724Y-5.2559
X2.7756Y0.
X2.7756Y-5.256
X0.Y0.
X5.5516Y-0.0006
T17
X2.9795Y-2.5002
T18
X2.7514Y-3.2279
X3.208Y-3.2279
X2.6529Y-1.6531
X3.3065Y-1.6531
T19
X4.1712Y0.0423
X4.6712Y0.0423
T6
X4.9728Y-0.1069G85X4.9728Y-0.1857
G05
X5.1972Y-0.0282G85X5.1184Y-0.0282
G05
X5.1972Y-0.2644G85X5.1184Y-0.2644
G05
T9
X0.3466Y-0.3425G85X0.3466Y-0.4024
G05
X0.5812Y0.0685G85X0.5214Y0.0685
G05
X0.5812Y-0.4709G85X0.5214Y-0.4709
G05
T0
M30
