G04 #@! TF.FileFunction,Paste,Top*
%FSLAX46Y46*%
G04 Gerber Fmt 4.6, Leading zero omitted, Abs format (unit mm)*
G04 Created by KiCad (PCBNEW (2015-03-11 BZR 5507)-product) date Wed 29 Apr 2015 06:55:18 PM CEST*
%MOMM*%
G01*
G04 APERTURE LIST*
%ADD10C,0.100000*%
%ADD11C,1.000000*%
%ADD12R,0.750000X0.800000*%
%ADD13R,0.800000X0.750000*%
%ADD14R,1.000000X1.250000*%
%ADD15R,1.250000X1.000000*%
%ADD16R,1.000000X2.500000*%
%ADD17R,3.599180X1.600200*%
%ADD18R,1.600200X3.599180*%
%ADD19R,1.600000X1.000000*%
%ADD20R,2.999740X1.600200*%
%ADD21R,1.600200X2.999740*%
%ADD22R,1.198880X1.399540*%
%ADD23R,1.000760X1.399540*%
%ADD24R,1.399540X1.198880*%
%ADD25R,1.399540X1.000760*%
%ADD26R,5.600000X2.300000*%
%ADD27R,5.400040X2.900680*%
%ADD28R,0.900000X0.500000*%
%ADD29R,0.500000X0.900000*%
%ADD30R,1.300000X0.700000*%
%ADD31R,0.700000X1.300000*%
%ADD32R,1.000760X1.501140*%
%ADD33R,1.998980X2.999740*%
%ADD34R,1.651000X3.048000*%
%ADD35R,6.096000X6.096000*%
%ADD36R,0.250000X1.300000*%
%ADD37R,1.300000X0.250000*%
%ADD38R,4.000000X6.800000*%
%ADD39R,0.350000X2.000000*%
%ADD40R,0.600000X1.550000*%
%ADD41R,1.550000X0.600000*%
%ADD42R,0.300000X1.400000*%
%ADD43R,1.524000X2.032000*%
%ADD44R,0.600000X1.500000*%
%ADD45R,0.450000X0.590000*%
%ADD46R,0.590000X0.450000*%
%ADD47R,0.650000X1.060000*%
%ADD48R,0.800100X0.800100*%
%ADD49R,2.301240X2.499360*%
G04 APERTURE END LIST*
D10*
D11*
X223725594Y-68937994D03*
X150548194Y-130761594D03*
D12*
X217810080Y-43156440D03*
X217810080Y-44656440D03*
X217810080Y-55934040D03*
X217810080Y-54434040D03*
X223418400Y-92569600D03*
X223418400Y-94069600D03*
X216204800Y-92569600D03*
X216204800Y-94069600D03*
X197083680Y-52225640D03*
X197083680Y-50725640D03*
X196778880Y-77879640D03*
X196778880Y-76379640D03*
X215676480Y-77879640D03*
X215676480Y-76379640D03*
X204094080Y-57685240D03*
X204094080Y-59185240D03*
D13*
X164949000Y-109220000D03*
X163449000Y-109220000D03*
X168136000Y-101549200D03*
X166636000Y-101549200D03*
D14*
X168741600Y-103581200D03*
X166741600Y-103581200D03*
D12*
X160121600Y-94957200D03*
X160121600Y-96457200D03*
X152057800Y-96355600D03*
X152057800Y-94855600D03*
D15*
X153912000Y-96605600D03*
X153912000Y-94605600D03*
D13*
X159589600Y-109143800D03*
X158089600Y-109143800D03*
D15*
X159296800Y-110861600D03*
X159296800Y-112861600D03*
D13*
X149924200Y-99745800D03*
X148424200Y-99745800D03*
D14*
X149920200Y-101777800D03*
X147920200Y-101777800D03*
D13*
X153226200Y-102793800D03*
X151726200Y-102793800D03*
D14*
X149920200Y-104063800D03*
X147920200Y-104063800D03*
D13*
X153226200Y-104825800D03*
X151726200Y-104825800D03*
D16*
X149912200Y-107111800D03*
X146912200Y-107111800D03*
D12*
X151968200Y-107631800D03*
X151968200Y-109131800D03*
D16*
X149912200Y-110667800D03*
X146912200Y-110667800D03*
D15*
X122478800Y-54168800D03*
X122478800Y-56168800D03*
D12*
X124637800Y-54418800D03*
X124637800Y-55918800D03*
X199898000Y-124980000D03*
X199898000Y-126480000D03*
D17*
X201505820Y-100838000D03*
X196004180Y-100838000D03*
D12*
X115443000Y-124091000D03*
X115443000Y-125591000D03*
D13*
X115913600Y-144780000D03*
X114413600Y-144780000D03*
D17*
X129545780Y-151688800D03*
X135047420Y-151688800D03*
D13*
X104051800Y-95859600D03*
X102551800Y-95859600D03*
D12*
X175226980Y-44957300D03*
X175226980Y-46457300D03*
D15*
X163703000Y-36440620D03*
X163703000Y-34440620D03*
D12*
X158496000Y-34944620D03*
X158496000Y-36444620D03*
D13*
X170574400Y-44094400D03*
X169074400Y-44094400D03*
D12*
X156845000Y-40762620D03*
X156845000Y-39262620D03*
X130446780Y-44933300D03*
X130446780Y-43433300D03*
X219684600Y-33057400D03*
X219684600Y-34557400D03*
D18*
X181183280Y-35770820D03*
X181183280Y-41272460D03*
D13*
X179159600Y-33985200D03*
X177659600Y-33985200D03*
X153226200Y-98221800D03*
X151726200Y-98221800D03*
X153226200Y-99999800D03*
X151726200Y-99999800D03*
D19*
X199136000Y-116308000D03*
X199136000Y-113308000D03*
D20*
X182285640Y-118364000D03*
X177886360Y-118364000D03*
D13*
X199886000Y-111506000D03*
X198386000Y-111506000D03*
X189472000Y-124714000D03*
X187972000Y-124714000D03*
D19*
X199136000Y-135152000D03*
X199136000Y-138152000D03*
D20*
X182285640Y-132740400D03*
X177886360Y-132740400D03*
D13*
X199886000Y-139954000D03*
X198386000Y-139954000D03*
X189472000Y-126746000D03*
X187972000Y-126746000D03*
X121247600Y-124053600D03*
X119747600Y-124053600D03*
X119849200Y-116713000D03*
X121349200Y-116713000D03*
D21*
X128131000Y-122595640D03*
X128131000Y-118196360D03*
D17*
X110446820Y-116840000D03*
X104945180Y-116840000D03*
D20*
X109895640Y-123444000D03*
X105496360Y-123444000D03*
D13*
X121171400Y-144932400D03*
X119671400Y-144932400D03*
D12*
X119799800Y-135813800D03*
X119799800Y-137313800D03*
D21*
X128105600Y-143169640D03*
X128105600Y-138770360D03*
D17*
X110446820Y-137414000D03*
X104945180Y-137414000D03*
D20*
X109895640Y-144018000D03*
X105496360Y-144018000D03*
D14*
X106099800Y-91592400D03*
X108099800Y-91592400D03*
D20*
X98465640Y-88646000D03*
X94066360Y-88646000D03*
D14*
X106099800Y-89281000D03*
X108099800Y-89281000D03*
D20*
X98465640Y-94234000D03*
X94066360Y-94234000D03*
X106847640Y-85090000D03*
X102448360Y-85090000D03*
D22*
X156344620Y-34594800D03*
D23*
X154625040Y-34594800D03*
X154625040Y-36794440D03*
X156524960Y-36794440D03*
D24*
X170957240Y-41864280D03*
D25*
X170957240Y-40144700D03*
X168757600Y-40144700D03*
X168757600Y-42044620D03*
D26*
X215341200Y-29624800D03*
X215341200Y-37024800D03*
D27*
X210566000Y-45849540D03*
X210566000Y-55852060D03*
D15*
X166573200Y-27600400D03*
X166573200Y-29600400D03*
X160909000Y-36567620D03*
X160909000Y-34567620D03*
D28*
X156565600Y-96457200D03*
X156565600Y-94957200D03*
X162839400Y-92799600D03*
X162839400Y-91299600D03*
X164617400Y-92799600D03*
X164617400Y-91299600D03*
X165455600Y-96457200D03*
X165455600Y-94957200D03*
X163677600Y-96457200D03*
X163677600Y-94957200D03*
X161899600Y-96457200D03*
X161899600Y-94957200D03*
X158343600Y-96457200D03*
X158343600Y-94957200D03*
D29*
X167196200Y-107365800D03*
X165696200Y-107365800D03*
D28*
X168224200Y-98665600D03*
X168224200Y-100165600D03*
X166446200Y-98665600D03*
X166446200Y-100165600D03*
D29*
X87747540Y-27548840D03*
X86247540Y-27548840D03*
D28*
X193040000Y-110502000D03*
X193040000Y-112002000D03*
D29*
X187464000Y-112014000D03*
X188964000Y-112014000D03*
X186715400Y-109956600D03*
X188215400Y-109956600D03*
X179590000Y-112014000D03*
X181090000Y-112014000D03*
D28*
X192015200Y-101749600D03*
X192015200Y-103249600D03*
X184090400Y-101749600D03*
X184090400Y-103249600D03*
X193040000Y-141466000D03*
X193040000Y-139966000D03*
D29*
X187819600Y-138074400D03*
X189319600Y-138074400D03*
D28*
X185166000Y-141466000D03*
X185166000Y-139966000D03*
D29*
X181622000Y-137566400D03*
X183122000Y-137566400D03*
D28*
X190373000Y-143420400D03*
X190373000Y-144920400D03*
X182499000Y-143420400D03*
X182499000Y-144920400D03*
D29*
X100318000Y-130810000D03*
X98818000Y-130810000D03*
D28*
X102870000Y-128790000D03*
X102870000Y-130290000D03*
D29*
X95492000Y-128778000D03*
X93992000Y-128778000D03*
X100318000Y-151130000D03*
X98818000Y-151130000D03*
D28*
X102870000Y-149110000D03*
X102870000Y-150610000D03*
D29*
X95492000Y-149098000D03*
X93992000Y-149098000D03*
D28*
X105689400Y-97371600D03*
X105689400Y-95871600D03*
X98501200Y-99606800D03*
X98501200Y-98106800D03*
X100253800Y-98106800D03*
X100253800Y-99606800D03*
X163449000Y-39262620D03*
X163449000Y-40762620D03*
X161163000Y-39262620D03*
X161163000Y-40762620D03*
X158877000Y-40762620D03*
X158877000Y-39262620D03*
X173474380Y-44957300D03*
X173474380Y-46457300D03*
D30*
X111320580Y-36502300D03*
X111320580Y-38402300D03*
D28*
X99049840Y-41768460D03*
X99049840Y-40268460D03*
D30*
X133494780Y-38402300D03*
X133494780Y-36502300D03*
D28*
X120769380Y-48704500D03*
X120769380Y-47204500D03*
D31*
X100512840Y-37081460D03*
X102412840Y-37081460D03*
D28*
X108066840Y-37958460D03*
X108066840Y-36458460D03*
D29*
X101601840Y-42923460D03*
X103101840Y-42923460D03*
X107165840Y-42669460D03*
X105665840Y-42669460D03*
D28*
X107812840Y-41006460D03*
X107812840Y-39506460D03*
D29*
X197681280Y-33649920D03*
X196181280Y-33649920D03*
X197173280Y-39364920D03*
X195673280Y-39364920D03*
D30*
X193692780Y-35620920D03*
X193692780Y-37520920D03*
D28*
X196358600Y-42389800D03*
X196358600Y-43889800D03*
D30*
X191406780Y-35620920D03*
X191406780Y-37520920D03*
X186961780Y-33207920D03*
X186961780Y-35107920D03*
D28*
X182585400Y-45768960D03*
X182585400Y-44268960D03*
D29*
X190149000Y-48778600D03*
X188649000Y-48778600D03*
D30*
X189120780Y-33207920D03*
X189120780Y-35107920D03*
D29*
X183858600Y-47625000D03*
X182358600Y-47625000D03*
D28*
X150672800Y-79387000D03*
X150672800Y-80887000D03*
X148132800Y-79387000D03*
X148132800Y-80887000D03*
X145592800Y-79387000D03*
X145592800Y-80887000D03*
X140512800Y-79387000D03*
X140512800Y-80887000D03*
X132892800Y-79387000D03*
X132892800Y-80887000D03*
X130352800Y-79387000D03*
X130352800Y-80887000D03*
X127812800Y-79387000D03*
X127812800Y-80887000D03*
X198035000Y-29816800D03*
X198035000Y-31316800D03*
D29*
X183035600Y-33919600D03*
X184535600Y-33919600D03*
D28*
X198036180Y-26892820D03*
X198036180Y-28392820D03*
D29*
X196089400Y-114579400D03*
X194589400Y-114579400D03*
X198640000Y-107442000D03*
X200140000Y-107442000D03*
X192520000Y-124714000D03*
X191020000Y-124714000D03*
X200140000Y-109474000D03*
X198640000Y-109474000D03*
X185560400Y-124714000D03*
X184060400Y-124714000D03*
X184060400Y-122936000D03*
X185560400Y-122936000D03*
D28*
X199136000Y-133592000D03*
X199136000Y-132092000D03*
X189738000Y-120408000D03*
X189738000Y-121908000D03*
X187909200Y-120408000D03*
X187909200Y-121908000D03*
D29*
X198386000Y-144018000D03*
X199886000Y-144018000D03*
X192520000Y-126746000D03*
X191020000Y-126746000D03*
X199886000Y-141986000D03*
X198386000Y-141986000D03*
X185560400Y-126746000D03*
X184060400Y-126746000D03*
X184060400Y-128524000D03*
X185560400Y-128524000D03*
D28*
X189738000Y-131052000D03*
X189738000Y-129552000D03*
X187909200Y-131052000D03*
X187909200Y-129552000D03*
D29*
X199999600Y-94742000D03*
X201499600Y-94742000D03*
X199999600Y-96469200D03*
X201499600Y-96469200D03*
X121247600Y-125831600D03*
X119747600Y-125831600D03*
X118453600Y-116713000D03*
X116953600Y-116713000D03*
D28*
X124498800Y-120916000D03*
X124498800Y-122416000D03*
X122822400Y-120916000D03*
X122822400Y-122416000D03*
X99568000Y-117844000D03*
X99568000Y-116344000D03*
X113207800Y-119493600D03*
X113207800Y-120993600D03*
X101600000Y-117844000D03*
X101600000Y-116344000D03*
X99556000Y-119392000D03*
X99556000Y-120892000D03*
X101610200Y-119402160D03*
X101610200Y-120902160D03*
D29*
X121222200Y-146634200D03*
X119722200Y-146634200D03*
D28*
X118021800Y-135952800D03*
X118021800Y-137452800D03*
X124524200Y-141490000D03*
X124524200Y-142990000D03*
X122822400Y-141490000D03*
X122822400Y-142990000D03*
X99568000Y-138418000D03*
X99568000Y-136918000D03*
X115431000Y-137452800D03*
X115431000Y-135952800D03*
X101600000Y-138418000D03*
X101600000Y-136918000D03*
X99568000Y-139966000D03*
X99568000Y-141466000D03*
X101610200Y-139964160D03*
X101610200Y-141464160D03*
D29*
X132727000Y-144983200D03*
X134227000Y-144983200D03*
X134227000Y-146786600D03*
X132727000Y-146786600D03*
X95619000Y-84963000D03*
X94119000Y-84963000D03*
X95619000Y-97917000D03*
X94119000Y-97917000D03*
D32*
X221312740Y-92585540D03*
X219811600Y-92585540D03*
X218310460Y-92585540D03*
D33*
X219811600Y-95537020D03*
D10*
G36*
X218810840Y-94062550D02*
X219311220Y-93313250D01*
X220311980Y-93313250D01*
X220812360Y-94062550D01*
X218810840Y-94062550D01*
X218810840Y-94062550D01*
G37*
D34*
X201655680Y-55184040D03*
D35*
X199369680Y-61534040D03*
D34*
X197083680Y-55184040D03*
X203687680Y-74183240D03*
D35*
X201401680Y-80533240D03*
D34*
X199115680Y-74183240D03*
X213441280Y-74183240D03*
D35*
X211155280Y-80533240D03*
D34*
X208869280Y-74183240D03*
D36*
X162592200Y-98697800D03*
X162092200Y-98697800D03*
X161592200Y-98697800D03*
X161092200Y-98697800D03*
X160592200Y-98697800D03*
X160092200Y-98697800D03*
X159592200Y-98697800D03*
X159092200Y-98697800D03*
X158592200Y-98697800D03*
X158092200Y-98697800D03*
X157592200Y-98697800D03*
X157092200Y-98697800D03*
D37*
X155492200Y-100297800D03*
X155492200Y-100797800D03*
X155492200Y-101297800D03*
X155492200Y-101797800D03*
X155492200Y-102297800D03*
X155492200Y-102797800D03*
X155492200Y-103297800D03*
X155492200Y-103797800D03*
X155492200Y-104297800D03*
X155492200Y-104797800D03*
X155492200Y-105297800D03*
X155492200Y-105797800D03*
D36*
X157092200Y-107397800D03*
X157592200Y-107397800D03*
X158092200Y-107397800D03*
X158592200Y-107397800D03*
X159092200Y-107397800D03*
X159592200Y-107397800D03*
X160092200Y-107397800D03*
X160592200Y-107397800D03*
X161092200Y-107397800D03*
X161592200Y-107397800D03*
X162092200Y-107397800D03*
X162592200Y-107397800D03*
D37*
X164192200Y-105797800D03*
X164192200Y-105297800D03*
X164192200Y-104797800D03*
X164192200Y-104297800D03*
X164192200Y-103797800D03*
X164192200Y-103297800D03*
X164192200Y-102797800D03*
X164192200Y-102297800D03*
X164192200Y-101797800D03*
X164192200Y-101297800D03*
X164192200Y-100797800D03*
X164192200Y-100297800D03*
D38*
X114942800Y-71400000D03*
X188942800Y-71400000D03*
D39*
X183592800Y-59400000D03*
X182992800Y-59400000D03*
X182392800Y-59400000D03*
X181792800Y-59400000D03*
X181192800Y-59400000D03*
X180592800Y-59400000D03*
X179992800Y-59400000D03*
X179392800Y-59400000D03*
X178792800Y-59400000D03*
X178192800Y-59400000D03*
X177592800Y-59400000D03*
X176992800Y-59400000D03*
X176392800Y-59400000D03*
X175792800Y-59400000D03*
X175192800Y-59400000D03*
X174592800Y-59400000D03*
X173992800Y-59400000D03*
X173392800Y-59400000D03*
X172792800Y-59400000D03*
X172192800Y-59400000D03*
X167992800Y-59400000D03*
X167392800Y-59400000D03*
X166792800Y-59400000D03*
X166192800Y-59400000D03*
X165592800Y-59400000D03*
X164992800Y-59400000D03*
X164392800Y-59400000D03*
X163792800Y-59400000D03*
X163192800Y-59400000D03*
X162592800Y-59400000D03*
X161992800Y-59400000D03*
X161392800Y-59400000D03*
X160792800Y-59400000D03*
X160192800Y-59400000D03*
X159592800Y-59400000D03*
X158992800Y-59400000D03*
X158392800Y-59400000D03*
X157792800Y-59400000D03*
X157192800Y-59400000D03*
X156592800Y-59400000D03*
X155992800Y-59400000D03*
X155392800Y-59400000D03*
X154792800Y-59400000D03*
X154192800Y-59400000D03*
X153592800Y-59400000D03*
X152992800Y-59400000D03*
X152392800Y-59400000D03*
X151792800Y-59400000D03*
X151192800Y-59400000D03*
X150592800Y-59400000D03*
X149992800Y-59400000D03*
X149392800Y-59400000D03*
X148792800Y-59400000D03*
X148192800Y-59400000D03*
X147592800Y-59400000D03*
X146992800Y-59400000D03*
X146392800Y-59400000D03*
X145792800Y-59400000D03*
X145192800Y-59400000D03*
X144592800Y-59400000D03*
X143992800Y-59400000D03*
X143392800Y-59400000D03*
X142792800Y-59400000D03*
X142192800Y-59400000D03*
X141592800Y-59400000D03*
X140992800Y-59400000D03*
X140392800Y-59400000D03*
X139792800Y-59400000D03*
X139192800Y-59400000D03*
X138592800Y-59400000D03*
X137992800Y-59400000D03*
X137392800Y-59400000D03*
X136792800Y-59400000D03*
X136192800Y-59400000D03*
X135592800Y-59400000D03*
X134992800Y-59400000D03*
X134392800Y-59400000D03*
X133792800Y-59400000D03*
X133192800Y-59400000D03*
X132592800Y-59400000D03*
X131992800Y-59400000D03*
X131392800Y-59400000D03*
X130792800Y-59400000D03*
X130192800Y-59400000D03*
X129592800Y-59400000D03*
X128992800Y-59400000D03*
X128392800Y-59400000D03*
X127792800Y-59400000D03*
X127192800Y-59400000D03*
X126592800Y-59400000D03*
X125992800Y-59400000D03*
X125392800Y-59400000D03*
X124792800Y-59400000D03*
X124192800Y-59400000D03*
X123592800Y-59400000D03*
X122992800Y-59400000D03*
X122392800Y-59400000D03*
X121792800Y-59400000D03*
X121192800Y-59400000D03*
X120592800Y-59400000D03*
X183292800Y-67600000D03*
X182692800Y-67600000D03*
X182092800Y-67600000D03*
X181492800Y-67600000D03*
X180892800Y-67600000D03*
X180292800Y-67600000D03*
X179692800Y-67600000D03*
X179092800Y-67600000D03*
X178492800Y-67600000D03*
X177892800Y-67600000D03*
X177292800Y-67600000D03*
X176692800Y-67600000D03*
X176092800Y-67600000D03*
X175492800Y-67600000D03*
X174892800Y-67600000D03*
X174292800Y-67600000D03*
X173692800Y-67600000D03*
X173092800Y-67600000D03*
X172492800Y-67600000D03*
X171892800Y-67600000D03*
X167692800Y-67600000D03*
X167092800Y-67600000D03*
X166492800Y-67600000D03*
X165892800Y-67600000D03*
X165292800Y-67600000D03*
X164692800Y-67600000D03*
X164092800Y-67600000D03*
X163492800Y-67600000D03*
X162892800Y-67600000D03*
X162292800Y-67600000D03*
X161692800Y-67600000D03*
X161092800Y-67600000D03*
X160492800Y-67600000D03*
X159892800Y-67600000D03*
X159292800Y-67600000D03*
X158692800Y-67600000D03*
X158092800Y-67600000D03*
X157492800Y-67600000D03*
X156892800Y-67600000D03*
X156292800Y-67600000D03*
X155692800Y-67600000D03*
X155092800Y-67600000D03*
X154492800Y-67600000D03*
X153892800Y-67600000D03*
X153292800Y-67600000D03*
X152692800Y-67600000D03*
X152092800Y-67600000D03*
X151492800Y-67600000D03*
X150892800Y-67600000D03*
X150292800Y-67600000D03*
X149692800Y-67600000D03*
X149092800Y-67600000D03*
X148492800Y-67600000D03*
X147892800Y-67600000D03*
X147292800Y-67600000D03*
X146692800Y-67600000D03*
X146092800Y-67600000D03*
X145492800Y-67600000D03*
X144892800Y-67600000D03*
X144292800Y-67600000D03*
X143692800Y-67600000D03*
X143092800Y-67600000D03*
X142492800Y-67600000D03*
X141892800Y-67600000D03*
X141292800Y-67600000D03*
X140692800Y-67600000D03*
X140092800Y-67600000D03*
X139492800Y-67600000D03*
X138892800Y-67600000D03*
X138292800Y-67600000D03*
X137692800Y-67600000D03*
X137092800Y-67600000D03*
X136492800Y-67600000D03*
X135892800Y-67600000D03*
X135292800Y-67600000D03*
X134692800Y-67600000D03*
X134092800Y-67600000D03*
X133492800Y-67600000D03*
X132892800Y-67600000D03*
X132292800Y-67600000D03*
X131692800Y-67600000D03*
X131092800Y-67600000D03*
X130492800Y-67600000D03*
X129892800Y-67600000D03*
X129292800Y-67600000D03*
X128692800Y-67600000D03*
X128092800Y-67600000D03*
X127492800Y-67600000D03*
X126892800Y-67600000D03*
X126292800Y-67600000D03*
X125692800Y-67600000D03*
X125092800Y-67600000D03*
X124492800Y-67600000D03*
X123892800Y-67600000D03*
X123292800Y-67600000D03*
X122692800Y-67600000D03*
X122092800Y-67600000D03*
X121492800Y-67600000D03*
X120892800Y-67600000D03*
X120292800Y-67600000D03*
D40*
X198247000Y-123030000D03*
X196977000Y-123030000D03*
X195707000Y-123030000D03*
X194437000Y-123030000D03*
X194437000Y-128430000D03*
X195707000Y-128430000D03*
X196977000Y-128430000D03*
X198247000Y-128430000D03*
D41*
X120835400Y-122301000D03*
X120835400Y-121031000D03*
X120835400Y-119761000D03*
X120835400Y-118491000D03*
X115435400Y-118491000D03*
X115435400Y-119761000D03*
X115435400Y-121031000D03*
X115435400Y-122301000D03*
X120823400Y-142875000D03*
X120823400Y-141605000D03*
X120823400Y-140335000D03*
X120823400Y-139065000D03*
X115423400Y-139065000D03*
X115423400Y-140335000D03*
X115423400Y-141605000D03*
X115423400Y-142875000D03*
D42*
X104124000Y-89240000D03*
X103624000Y-89240000D03*
X103124000Y-89240000D03*
X102624000Y-89240000D03*
X102124000Y-89240000D03*
X102124000Y-93640000D03*
X102624000Y-93640000D03*
X103124000Y-93640000D03*
X103624000Y-93640000D03*
X104124000Y-93640000D03*
D43*
X127652780Y-37325300D03*
X125112780Y-37325300D03*
X122572780Y-37325300D03*
X120032780Y-37325300D03*
X120032780Y-44945300D03*
X122572780Y-44945300D03*
X125112780Y-44945300D03*
X127652780Y-44945300D03*
D44*
X186250580Y-46141620D03*
X187520580Y-46141620D03*
X188790580Y-46141620D03*
X190060580Y-46141620D03*
X191330580Y-46141620D03*
X192600580Y-46141620D03*
X193870580Y-46141620D03*
X193870580Y-40741620D03*
X192600580Y-40741620D03*
X191330580Y-40741620D03*
X190060580Y-40741620D03*
X188790580Y-40741620D03*
X187520580Y-40741620D03*
X186250580Y-40741620D03*
D45*
X191008000Y-109943000D03*
X191008000Y-112053000D03*
X183134000Y-109943000D03*
X183134000Y-112053000D03*
X191008000Y-141517000D03*
X191008000Y-139407000D03*
X183134000Y-141517000D03*
X183134000Y-139407000D03*
D46*
X93941000Y-126746000D03*
X96051000Y-126746000D03*
X93941000Y-147066000D03*
X96051000Y-147066000D03*
D45*
X130954780Y-38634300D03*
X130954780Y-36524300D03*
X122623580Y-47014500D03*
X122623580Y-49124500D03*
D31*
X191725600Y-33640200D03*
X193625600Y-33640200D03*
D12*
X186250580Y-38823900D03*
X186250580Y-37323900D03*
D47*
X173327020Y-42397860D03*
X174277020Y-42397860D03*
X175227020Y-42397860D03*
X175227020Y-40197860D03*
X173327020Y-40197860D03*
D48*
X155527400Y-112659160D03*
X157427400Y-112659160D03*
X156477400Y-110660180D03*
X152149200Y-112659160D03*
X154049200Y-112659160D03*
X153099200Y-110660180D03*
X194491040Y-116398000D03*
X194491040Y-118298000D03*
X196490020Y-117348000D03*
X195188840Y-135041600D03*
X195188840Y-136941600D03*
X197187820Y-135991600D03*
X190058000Y-117078760D03*
X191958000Y-117078760D03*
X191008000Y-115079780D03*
X185486000Y-117078760D03*
X187386000Y-117078760D03*
X186436000Y-115079780D03*
X191958000Y-105933240D03*
X190058000Y-105933240D03*
X191008000Y-107932220D03*
X184084000Y-105933240D03*
X182184000Y-105933240D03*
X183134000Y-107932220D03*
X191958000Y-134381240D03*
X190058000Y-134381240D03*
X191008000Y-136380220D03*
X187386000Y-134381240D03*
X185486000Y-134381240D03*
X186436000Y-136380220D03*
X192090000Y-144866360D03*
X193990000Y-144866360D03*
X193040000Y-142867380D03*
X184216000Y-144866360D03*
X186116000Y-144866360D03*
X185166000Y-142867380D03*
X98872000Y-128762760D03*
X100772000Y-128762760D03*
X99822000Y-126763780D03*
X98872000Y-149082760D03*
X100772000Y-149082760D03*
X99822000Y-147083780D03*
X102148600Y-99552760D03*
X104048600Y-99552760D03*
X103098600Y-97553780D03*
X100968200Y-41132760D03*
X102868200Y-41132760D03*
X101918200Y-39133780D03*
X106221000Y-37378640D03*
X104321000Y-37378640D03*
X105271000Y-39377620D03*
X195778080Y-37647880D03*
X197678080Y-37647880D03*
X196728080Y-35648900D03*
X178983600Y-46441360D03*
X180883600Y-46441360D03*
X179933600Y-44442380D03*
D49*
X202692000Y-41366440D03*
X202692000Y-37068760D03*
X208280000Y-41366440D03*
X208280000Y-37068760D03*
D11*
X84101794Y-47906794D03*
M02*
