G04 #@! TF.GenerationSoftware,KiCad,Pcbnew,5.0.2-bee76a0~70~ubuntu18.04.1*
G04 #@! TF.CreationDate,2019-04-12T15:51:36+02:00*
G04 #@! TF.ProjectId,bottom-board,626f7474-6f6d-42d6-926f-6172642e6b69,rev?*
G04 #@! TF.SameCoordinates,PX48111b4PY15fd6c8*
G04 #@! TF.FileFunction,Soldermask,Bot*
G04 #@! TF.FilePolarity,Negative*
%FSLAX46Y46*%
G04 Gerber Fmt 4.6, Leading zero omitted, Abs format (unit mm)*
G04 Created by KiCad (PCBNEW 5.0.2-bee76a0~70~ubuntu18.04.1) date Fri 12 Apr 2019 03:51:36 PM CEST*
%MOMM*%
%LPD*%
G01*
G04 APERTURE LIST*
%ADD10C,0.100000*%
%ADD11C,0.150000*%
%ADD12C,0.300000*%
%ADD13C,0.400000*%
G04 APERTURE END LIST*
D10*
D11*
X101434660Y-142949080D02*
X101434660Y-174949080D01*
X209434660Y-174949080D01*
X209434660Y-142949080D01*
X101434660Y-142949080D01*
D10*
D11*
X-65567540Y13058120D02*
X-65567540Y-176949080D01*
X211434660Y-176949080D01*
X211434660Y13058120D01*
X-65567540Y13058120D01*
D10*
D11*
X-63567540Y11058120D02*
X-63567540Y-174949080D01*
X209434660Y-174949080D01*
X209434660Y11058120D01*
X-63567540Y11058120D01*
D10*
D11*
X-15567540Y11058120D02*
X-15567540Y13058120D01*
D10*
D11*
X34432460Y11058120D02*
X34432460Y13058120D01*
D10*
D11*
X84432460Y11058120D02*
X84432460Y13058120D01*
D10*
D11*
X134432460Y11058120D02*
X134432460Y13058120D01*
D10*
D11*
X184432460Y11058120D02*
X184432460Y13058120D01*
D10*
D11*
X-39502064Y11470025D02*
X-40244921Y11470025D01*
X-39873493Y11470025D02*
X-39873493Y12770025D01*
X-39997302Y12584311D01*
X-40121112Y12460501D01*
X-40244921Y12398597D01*
D10*
D11*
X9755079Y12646216D02*
X9816983Y12708120D01*
X9940793Y12770025D01*
X10250317Y12770025D01*
X10374126Y12708120D01*
X10436031Y12646216D01*
X10497936Y12522406D01*
X10497936Y12398597D01*
X10436031Y12212882D01*
X9693174Y11470025D01*
X10497936Y11470025D01*
D10*
D11*
X59693174Y12770025D02*
X60497936Y12770025D01*
X60064602Y12274787D01*
X60250317Y12274787D01*
X60374126Y12212882D01*
X60436031Y12150978D01*
X60497936Y12027168D01*
X60497936Y11717644D01*
X60436031Y11593835D01*
X60374126Y11531930D01*
X60250317Y11470025D01*
X59878888Y11470025D01*
X59755079Y11531930D01*
X59693174Y11593835D01*
D10*
D11*
X110374126Y12336692D02*
X110374126Y11470025D01*
X110064602Y12831930D02*
X109755079Y11903359D01*
X110559840Y11903359D01*
D10*
D11*
X160436031Y12770025D02*
X159816983Y12770025D01*
X159755079Y12150978D01*
X159816983Y12212882D01*
X159940793Y12274787D01*
X160250317Y12274787D01*
X160374126Y12212882D01*
X160436031Y12150978D01*
X160497936Y12027168D01*
X160497936Y11717644D01*
X160436031Y11593835D01*
X160374126Y11531930D01*
X160250317Y11470025D01*
X159940793Y11470025D01*
X159816983Y11531930D01*
X159755079Y11593835D01*
D10*
D11*
X210374126Y12770025D02*
X210126507Y12770025D01*
X210002698Y12708120D01*
X209940793Y12646216D01*
X209816983Y12460501D01*
X209755079Y12212882D01*
X209755079Y11717644D01*
X209816983Y11593835D01*
X209878888Y11531930D01*
X210002698Y11470025D01*
X210250317Y11470025D01*
X210374126Y11531930D01*
X210436031Y11593835D01*
X210497936Y11717644D01*
X210497936Y12027168D01*
X210436031Y12150978D01*
X210374126Y12212882D01*
X210250317Y12274787D01*
X210002698Y12274787D01*
X209878888Y12212882D01*
X209816983Y12150978D01*
X209755079Y12027168D01*
D10*
D11*
X-15567540Y-174949080D02*
X-15567540Y-176949080D01*
D10*
D11*
X34432460Y-174949080D02*
X34432460Y-176949080D01*
D10*
D11*
X84432460Y-174949080D02*
X84432460Y-176949080D01*
D10*
D11*
X134432460Y-174949080D02*
X134432460Y-176949080D01*
D10*
D11*
X184432460Y-174949080D02*
X184432460Y-176949080D01*
D10*
D11*
X-39502064Y-176537175D02*
X-40244921Y-176537175D01*
X-39873493Y-176537175D02*
X-39873493Y-175237175D01*
X-39997302Y-175422889D01*
X-40121112Y-175546699D01*
X-40244921Y-175608603D01*
D10*
D11*
X9755079Y-175360984D02*
X9816983Y-175299080D01*
X9940793Y-175237175D01*
X10250317Y-175237175D01*
X10374126Y-175299080D01*
X10436031Y-175360984D01*
X10497936Y-175484794D01*
X10497936Y-175608603D01*
X10436031Y-175794318D01*
X9693174Y-176537175D01*
X10497936Y-176537175D01*
D10*
D11*
X59693174Y-175237175D02*
X60497936Y-175237175D01*
X60064602Y-175732413D01*
X60250317Y-175732413D01*
X60374126Y-175794318D01*
X60436031Y-175856222D01*
X60497936Y-175980032D01*
X60497936Y-176289556D01*
X60436031Y-176413365D01*
X60374126Y-176475270D01*
X60250317Y-176537175D01*
X59878888Y-176537175D01*
X59755079Y-176475270D01*
X59693174Y-176413365D01*
D10*
D11*
X110374126Y-175670508D02*
X110374126Y-176537175D01*
X110064602Y-175175270D02*
X109755079Y-176103841D01*
X110559840Y-176103841D01*
D10*
D11*
X160436031Y-175237175D02*
X159816983Y-175237175D01*
X159755079Y-175856222D01*
X159816983Y-175794318D01*
X159940793Y-175732413D01*
X160250317Y-175732413D01*
X160374126Y-175794318D01*
X160436031Y-175856222D01*
X160497936Y-175980032D01*
X160497936Y-176289556D01*
X160436031Y-176413365D01*
X160374126Y-176475270D01*
X160250317Y-176537175D01*
X159940793Y-176537175D01*
X159816983Y-176475270D01*
X159755079Y-176413365D01*
D10*
D11*
X210374126Y-175237175D02*
X210126507Y-175237175D01*
X210002698Y-175299080D01*
X209940793Y-175360984D01*
X209816983Y-175546699D01*
X209755079Y-175794318D01*
X209755079Y-176289556D01*
X209816983Y-176413365D01*
X209878888Y-176475270D01*
X210002698Y-176537175D01*
X210250317Y-176537175D01*
X210374126Y-176475270D01*
X210436031Y-176413365D01*
X210497936Y-176289556D01*
X210497936Y-175980032D01*
X210436031Y-175856222D01*
X210374126Y-175794318D01*
X210250317Y-175732413D01*
X210002698Y-175732413D01*
X209878888Y-175794318D01*
X209816983Y-175856222D01*
X209755079Y-175980032D01*
D10*
D11*
X-65567540Y-36941880D02*
X-63567540Y-36941880D01*
D10*
D11*
X-65567540Y-86941880D02*
X-63567540Y-86941880D01*
D10*
D11*
X-65567540Y-136941880D02*
X-63567540Y-136941880D01*
D10*
D11*
X-64877064Y-12158546D02*
X-64258017Y-12158546D01*
X-65000874Y-12529975D02*
X-64567540Y-11229975D01*
X-64134207Y-12529975D01*
D10*
D11*
X-64474683Y-61849022D02*
X-64288969Y-61910927D01*
X-64227064Y-61972832D01*
X-64165160Y-62096641D01*
X-64165160Y-62282356D01*
X-64227064Y-62406165D01*
X-64288969Y-62468070D01*
X-64412779Y-62529975D01*
X-64908017Y-62529975D01*
X-64908017Y-61229975D01*
X-64474683Y-61229975D01*
X-64350874Y-61291880D01*
X-64288969Y-61353784D01*
X-64227064Y-61477594D01*
X-64227064Y-61601403D01*
X-64288969Y-61725213D01*
X-64350874Y-61787118D01*
X-64474683Y-61849022D01*
X-64908017Y-61849022D01*
D10*
D11*
X-64165160Y-112406165D02*
X-64227064Y-112468070D01*
X-64412779Y-112529975D01*
X-64536588Y-112529975D01*
X-64722302Y-112468070D01*
X-64846112Y-112344260D01*
X-64908017Y-112220451D01*
X-64969921Y-111972832D01*
X-64969921Y-111787118D01*
X-64908017Y-111539499D01*
X-64846112Y-111415689D01*
X-64722302Y-111291880D01*
X-64536588Y-111229975D01*
X-64412779Y-111229975D01*
X-64227064Y-111291880D01*
X-64165160Y-111353784D01*
D10*
D11*
X-64908017Y-162529975D02*
X-64908017Y-161229975D01*
X-64598493Y-161229975D01*
X-64412779Y-161291880D01*
X-64288969Y-161415689D01*
X-64227064Y-161539499D01*
X-64165160Y-161787118D01*
X-64165160Y-161972832D01*
X-64227064Y-162220451D01*
X-64288969Y-162344260D01*
X-64412779Y-162468070D01*
X-64598493Y-162529975D01*
X-64908017Y-162529975D01*
D10*
D11*
X211434660Y-36941880D02*
X209434660Y-36941880D01*
D10*
D11*
X211434660Y-86941880D02*
X209434660Y-86941880D01*
D10*
D11*
X211434660Y-136941880D02*
X209434660Y-136941880D01*
D10*
D11*
X210125136Y-12158546D02*
X210744183Y-12158546D01*
X210001326Y-12529975D02*
X210434660Y-11229975D01*
X210867993Y-12529975D01*
D10*
D11*
X210527517Y-61849022D02*
X210713231Y-61910927D01*
X210775136Y-61972832D01*
X210837040Y-62096641D01*
X210837040Y-62282356D01*
X210775136Y-62406165D01*
X210713231Y-62468070D01*
X210589421Y-62529975D01*
X210094183Y-62529975D01*
X210094183Y-61229975D01*
X210527517Y-61229975D01*
X210651326Y-61291880D01*
X210713231Y-61353784D01*
X210775136Y-61477594D01*
X210775136Y-61601403D01*
X210713231Y-61725213D01*
X210651326Y-61787118D01*
X210527517Y-61849022D01*
X210094183Y-61849022D01*
D10*
D11*
X210837040Y-112406165D02*
X210775136Y-112468070D01*
X210589421Y-112529975D01*
X210465612Y-112529975D01*
X210279898Y-112468070D01*
X210156088Y-112344260D01*
X210094183Y-112220451D01*
X210032279Y-111972832D01*
X210032279Y-111787118D01*
X210094183Y-111539499D01*
X210156088Y-111415689D01*
X210279898Y-111291880D01*
X210465612Y-111229975D01*
X210589421Y-111229975D01*
X210775136Y-111291880D01*
X210837040Y-111353784D01*
D10*
D11*
X210094183Y-162529975D02*
X210094183Y-161229975D01*
X210403707Y-161229975D01*
X210589421Y-161291880D01*
X210713231Y-161415689D01*
X210775136Y-161539499D01*
X210837040Y-161787118D01*
X210837040Y-161972832D01*
X210775136Y-162220451D01*
X210713231Y-162344260D01*
X210589421Y-162468070D01*
X210403707Y-162529975D01*
X210094183Y-162529975D01*
D10*
D11*
X124866802Y-170727651D02*
X124866802Y-169227651D01*
X125223945Y-169227651D01*
X125438231Y-169299080D01*
X125581088Y-169441937D01*
X125652517Y-169584794D01*
X125723945Y-169870508D01*
X125723945Y-170084794D01*
X125652517Y-170370508D01*
X125581088Y-170513365D01*
X125438231Y-170656222D01*
X125223945Y-170727651D01*
X124866802Y-170727651D01*
X127009660Y-170727651D02*
X127009660Y-169941937D01*
X126938231Y-169799080D01*
X126795374Y-169727651D01*
X126509660Y-169727651D01*
X126366802Y-169799080D01*
X127009660Y-170656222D02*
X126866802Y-170727651D01*
X126509660Y-170727651D01*
X126366802Y-170656222D01*
X126295374Y-170513365D01*
X126295374Y-170370508D01*
X126366802Y-170227651D01*
X126509660Y-170156222D01*
X126866802Y-170156222D01*
X127009660Y-170084794D01*
X127509660Y-169727651D02*
X128081088Y-169727651D01*
X127723945Y-169227651D02*
X127723945Y-170513365D01*
X127795374Y-170656222D01*
X127938231Y-170727651D01*
X128081088Y-170727651D01*
X129152517Y-170656222D02*
X129009660Y-170727651D01*
X128723945Y-170727651D01*
X128581088Y-170656222D01*
X128509660Y-170513365D01*
X128509660Y-169941937D01*
X128581088Y-169799080D01*
X128723945Y-169727651D01*
X129009660Y-169727651D01*
X129152517Y-169799080D01*
X129223945Y-169941937D01*
X129223945Y-170084794D01*
X128509660Y-170227651D01*
X129866802Y-170584794D02*
X129938231Y-170656222D01*
X129866802Y-170727651D01*
X129795374Y-170656222D01*
X129866802Y-170584794D01*
X129866802Y-170727651D01*
X129866802Y-169799080D02*
X129938231Y-169870508D01*
X129866802Y-169941937D01*
X129795374Y-169870508D01*
X129866802Y-169799080D01*
X129866802Y-169941937D01*
D10*
D11*
X101434660Y-171449080D02*
X209434660Y-171449080D01*
D10*
D11*
X102866802Y-173527651D02*
X102866802Y-172027651D01*
X103723945Y-173527651D02*
X103081088Y-172670508D01*
X103723945Y-172027651D02*
X102866802Y-172884794D01*
X104366802Y-173527651D02*
X104366802Y-172527651D01*
X104366802Y-172027651D02*
X104295374Y-172099080D01*
X104366802Y-172170508D01*
X104438231Y-172099080D01*
X104366802Y-172027651D01*
X104366802Y-172170508D01*
X105938231Y-173384794D02*
X105866802Y-173456222D01*
X105652517Y-173527651D01*
X105509660Y-173527651D01*
X105295374Y-173456222D01*
X105152517Y-173313365D01*
X105081088Y-173170508D01*
X105009660Y-172884794D01*
X105009660Y-172670508D01*
X105081088Y-172384794D01*
X105152517Y-172241937D01*
X105295374Y-172099080D01*
X105509660Y-172027651D01*
X105652517Y-172027651D01*
X105866802Y-172099080D01*
X105938231Y-172170508D01*
X107223945Y-173527651D02*
X107223945Y-172741937D01*
X107152517Y-172599080D01*
X107009660Y-172527651D01*
X106723945Y-172527651D01*
X106581088Y-172599080D01*
X107223945Y-173456222D02*
X107081088Y-173527651D01*
X106723945Y-173527651D01*
X106581088Y-173456222D01*
X106509660Y-173313365D01*
X106509660Y-173170508D01*
X106581088Y-173027651D01*
X106723945Y-172956222D01*
X107081088Y-172956222D01*
X107223945Y-172884794D01*
X108581088Y-173527651D02*
X108581088Y-172027651D01*
X108581088Y-173456222D02*
X108438231Y-173527651D01*
X108152517Y-173527651D01*
X108009660Y-173456222D01*
X107938231Y-173384794D01*
X107866802Y-173241937D01*
X107866802Y-172813365D01*
X107938231Y-172670508D01*
X108009660Y-172599080D01*
X108152517Y-172527651D01*
X108438231Y-172527651D01*
X108581088Y-172599080D01*
X110438231Y-172741937D02*
X110938231Y-172741937D01*
X111152517Y-173527651D02*
X110438231Y-173527651D01*
X110438231Y-172027651D01*
X111152517Y-172027651D01*
X111795374Y-173384794D02*
X111866802Y-173456222D01*
X111795374Y-173527651D01*
X111723945Y-173456222D01*
X111795374Y-173384794D01*
X111795374Y-173527651D01*
X112509660Y-173527651D02*
X112509660Y-172027651D01*
X112866802Y-172027651D01*
X113081088Y-172099080D01*
X113223945Y-172241937D01*
X113295374Y-172384794D01*
X113366802Y-172670508D01*
X113366802Y-172884794D01*
X113295374Y-173170508D01*
X113223945Y-173313365D01*
X113081088Y-173456222D01*
X112866802Y-173527651D01*
X112509660Y-173527651D01*
X114009660Y-173384794D02*
X114081088Y-173456222D01*
X114009660Y-173527651D01*
X113938231Y-173456222D01*
X114009660Y-173384794D01*
X114009660Y-173527651D01*
X114652517Y-173099080D02*
X115366802Y-173099080D01*
X114509660Y-173527651D02*
X115009660Y-172027651D01*
X115509660Y-173527651D01*
X116009660Y-173384794D02*
X116081088Y-173456222D01*
X116009660Y-173527651D01*
X115938231Y-173456222D01*
X116009660Y-173384794D01*
X116009660Y-173527651D01*
X119009660Y-173527651D02*
X119009660Y-172027651D01*
X119152517Y-172956222D02*
X119581088Y-173527651D01*
X119581088Y-172527651D02*
X119009660Y-173099080D01*
X120223945Y-173527651D02*
X120223945Y-172527651D01*
X120223945Y-172027651D02*
X120152517Y-172099080D01*
X120223945Y-172170508D01*
X120295374Y-172099080D01*
X120223945Y-172027651D01*
X120223945Y-172170508D01*
X121581088Y-173456222D02*
X121438231Y-173527651D01*
X121152517Y-173527651D01*
X121009660Y-173456222D01*
X120938231Y-173384794D01*
X120866802Y-173241937D01*
X120866802Y-172813365D01*
X120938231Y-172670508D01*
X121009660Y-172599080D01*
X121152517Y-172527651D01*
X121438231Y-172527651D01*
X121581088Y-172599080D01*
X122866802Y-173527651D02*
X122866802Y-172741937D01*
X122795374Y-172599080D01*
X122652517Y-172527651D01*
X122366802Y-172527651D01*
X122223945Y-172599080D01*
X122866802Y-173456222D02*
X122723945Y-173527651D01*
X122366802Y-173527651D01*
X122223945Y-173456222D01*
X122152517Y-173313365D01*
X122152517Y-173170508D01*
X122223945Y-173027651D01*
X122366802Y-172956222D01*
X122723945Y-172956222D01*
X122866802Y-172884794D01*
X124223945Y-173527651D02*
X124223945Y-172027651D01*
X124223945Y-173456222D02*
X124081088Y-173527651D01*
X123795374Y-173527651D01*
X123652517Y-173456222D01*
X123581088Y-173384794D01*
X123509660Y-173241937D01*
X123509660Y-172813365D01*
X123581088Y-172670508D01*
X123652517Y-172599080D01*
X123795374Y-172527651D01*
X124081088Y-172527651D01*
X124223945Y-172599080D01*
X126795374Y-172027651D02*
X126081088Y-172027651D01*
X126009660Y-172741937D01*
X126081088Y-172670508D01*
X126223945Y-172599080D01*
X126581088Y-172599080D01*
X126723945Y-172670508D01*
X126795374Y-172741937D01*
X126866802Y-172884794D01*
X126866802Y-173241937D01*
X126795374Y-173384794D01*
X126723945Y-173456222D01*
X126581088Y-173527651D01*
X126223945Y-173527651D01*
X126081088Y-173456222D01*
X126009660Y-173384794D01*
X127509660Y-173384794D02*
X127581088Y-173456222D01*
X127509660Y-173527651D01*
X127438231Y-173456222D01*
X127509660Y-173384794D01*
X127509660Y-173527651D01*
X128509660Y-172027651D02*
X128652517Y-172027651D01*
X128795374Y-172099080D01*
X128866802Y-172170508D01*
X128938231Y-172313365D01*
X129009660Y-172599080D01*
X129009660Y-172956222D01*
X128938231Y-173241937D01*
X128866802Y-173384794D01*
X128795374Y-173456222D01*
X128652517Y-173527651D01*
X128509660Y-173527651D01*
X128366802Y-173456222D01*
X128295374Y-173384794D01*
X128223945Y-173241937D01*
X128152517Y-172956222D01*
X128152517Y-172599080D01*
X128223945Y-172313365D01*
X128295374Y-172170508D01*
X128366802Y-172099080D01*
X128509660Y-172027651D01*
X129652517Y-173384794D02*
X129723945Y-173456222D01*
X129652517Y-173527651D01*
X129581088Y-173456222D01*
X129652517Y-173384794D01*
X129652517Y-173527651D01*
X130295374Y-172170508D02*
X130366802Y-172099080D01*
X130509660Y-172027651D01*
X130866802Y-172027651D01*
X131009660Y-172099080D01*
X131081088Y-172170508D01*
X131152517Y-172313365D01*
X131152517Y-172456222D01*
X131081088Y-172670508D01*
X130223945Y-173527651D01*
X131152517Y-173527651D01*
X131795374Y-172956222D02*
X132938231Y-172956222D01*
X133652517Y-173527651D02*
X133652517Y-172027651D01*
X133652517Y-172599080D02*
X133795374Y-172527651D01*
X134081088Y-172527651D01*
X134223945Y-172599080D01*
X134295374Y-172670508D01*
X134366802Y-172813365D01*
X134366802Y-173241937D01*
X134295374Y-173384794D01*
X134223945Y-173456222D01*
X134081088Y-173527651D01*
X133795374Y-173527651D01*
X133652517Y-173456222D01*
X135581088Y-173456222D02*
X135438231Y-173527651D01*
X135152517Y-173527651D01*
X135009660Y-173456222D01*
X134938231Y-173313365D01*
X134938231Y-172741937D01*
X135009660Y-172599080D01*
X135152517Y-172527651D01*
X135438231Y-172527651D01*
X135581088Y-172599080D01*
X135652517Y-172741937D01*
X135652517Y-172884794D01*
X134938231Y-173027651D01*
X136866802Y-173456222D02*
X136723945Y-173527651D01*
X136438231Y-173527651D01*
X136295374Y-173456222D01*
X136223945Y-173313365D01*
X136223945Y-172741937D01*
X136295374Y-172599080D01*
X136438231Y-172527651D01*
X136723945Y-172527651D01*
X136866802Y-172599080D01*
X136938231Y-172741937D01*
X136938231Y-172884794D01*
X136223945Y-173027651D01*
X137438231Y-172027651D02*
X138438231Y-172027651D01*
X137795374Y-173527651D01*
X139652517Y-172027651D02*
X139366802Y-172027651D01*
X139223945Y-172099080D01*
X139152517Y-172170508D01*
X139009660Y-172384794D01*
X138938231Y-172670508D01*
X138938231Y-173241937D01*
X139009660Y-173384794D01*
X139081088Y-173456222D01*
X139223945Y-173527651D01*
X139509660Y-173527651D01*
X139652517Y-173456222D01*
X139723945Y-173384794D01*
X139795374Y-173241937D01*
X139795374Y-172884794D01*
X139723945Y-172741937D01*
X139652517Y-172670508D01*
X139509660Y-172599080D01*
X139223945Y-172599080D01*
X139081088Y-172670508D01*
X139009660Y-172741937D01*
X138938231Y-172884794D01*
X141081088Y-173527651D02*
X141081088Y-172741937D01*
X141009660Y-172599080D01*
X140866802Y-172527651D01*
X140581088Y-172527651D01*
X140438231Y-172599080D01*
X141081088Y-173456222D02*
X140938231Y-173527651D01*
X140581088Y-173527651D01*
X140438231Y-173456222D01*
X140366802Y-173313365D01*
X140366802Y-173170508D01*
X140438231Y-173027651D01*
X140581088Y-172956222D01*
X140938231Y-172956222D01*
X141081088Y-172884794D01*
X142081088Y-172027651D02*
X142223945Y-172027651D01*
X142366802Y-172099080D01*
X142438231Y-172170508D01*
X142509660Y-172313365D01*
X142581088Y-172599080D01*
X142581088Y-172956222D01*
X142509660Y-173241937D01*
X142438231Y-173384794D01*
X142366802Y-173456222D01*
X142223945Y-173527651D01*
X142081088Y-173527651D01*
X141938231Y-173456222D01*
X141866802Y-173384794D01*
X141795374Y-173241937D01*
X141723945Y-172956222D01*
X141723945Y-172599080D01*
X141795374Y-172313365D01*
X141866802Y-172170508D01*
X141938231Y-172099080D01*
X142081088Y-172027651D01*
X142866802Y-171619080D02*
X144295374Y-171619080D01*
X143081088Y-172027651D02*
X144081088Y-172027651D01*
X143438231Y-173527651D01*
X144295374Y-171619080D02*
X145723945Y-171619080D01*
X144938231Y-172027651D02*
X145081088Y-172027651D01*
X145223945Y-172099080D01*
X145295374Y-172170508D01*
X145366802Y-172313365D01*
X145438231Y-172599080D01*
X145438231Y-172956222D01*
X145366802Y-173241937D01*
X145295374Y-173384794D01*
X145223945Y-173456222D01*
X145081088Y-173527651D01*
X144938231Y-173527651D01*
X144795374Y-173456222D01*
X144723945Y-173384794D01*
X144652517Y-173241937D01*
X144581088Y-172956222D01*
X144581088Y-172599080D01*
X144652517Y-172313365D01*
X144723945Y-172170508D01*
X144795374Y-172099080D01*
X144938231Y-172027651D01*
X146723945Y-172527651D02*
X146723945Y-173527651D01*
X146081088Y-172527651D02*
X146081088Y-173313365D01*
X146152517Y-173456222D01*
X146295374Y-173527651D01*
X146509660Y-173527651D01*
X146652517Y-173456222D01*
X146723945Y-173384794D01*
X147438231Y-173527651D02*
X147438231Y-172027651D01*
X147438231Y-172599080D02*
X147581088Y-172527651D01*
X147866802Y-172527651D01*
X148009660Y-172599080D01*
X148081088Y-172670508D01*
X148152517Y-172813365D01*
X148152517Y-173241937D01*
X148081088Y-173384794D01*
X148009660Y-173456222D01*
X147866802Y-173527651D01*
X147581088Y-173527651D01*
X147438231Y-173456222D01*
X149438231Y-172527651D02*
X149438231Y-173527651D01*
X148795374Y-172527651D02*
X148795374Y-173313365D01*
X148866802Y-173456222D01*
X149009660Y-173527651D01*
X149223945Y-173527651D01*
X149366802Y-173456222D01*
X149438231Y-173384794D01*
X150152517Y-172527651D02*
X150152517Y-173527651D01*
X150152517Y-172670508D02*
X150223945Y-172599080D01*
X150366802Y-172527651D01*
X150581088Y-172527651D01*
X150723945Y-172599080D01*
X150795374Y-172741937D01*
X150795374Y-173527651D01*
X151295374Y-172527651D02*
X151866802Y-172527651D01*
X151509660Y-172027651D02*
X151509660Y-173313365D01*
X151581088Y-173456222D01*
X151723945Y-173527651D01*
X151866802Y-173527651D01*
X153009660Y-172527651D02*
X153009660Y-173527651D01*
X152366802Y-172527651D02*
X152366802Y-173313365D01*
X152438231Y-173456222D01*
X152581088Y-173527651D01*
X152795374Y-173527651D01*
X152938231Y-173456222D01*
X153009660Y-173384794D01*
X154509660Y-173527651D02*
X153652517Y-173527651D01*
X154081088Y-173527651D02*
X154081088Y-172027651D01*
X153938231Y-172241937D01*
X153795374Y-172384794D01*
X153652517Y-172456222D01*
X155366802Y-172670508D02*
X155223945Y-172599080D01*
X155152517Y-172527651D01*
X155081088Y-172384794D01*
X155081088Y-172313365D01*
X155152517Y-172170508D01*
X155223945Y-172099080D01*
X155366802Y-172027651D01*
X155652517Y-172027651D01*
X155795374Y-172099080D01*
X155866802Y-172170508D01*
X155938231Y-172313365D01*
X155938231Y-172384794D01*
X155866802Y-172527651D01*
X155795374Y-172599080D01*
X155652517Y-172670508D01*
X155366802Y-172670508D01*
X155223945Y-172741937D01*
X155152517Y-172813365D01*
X155081088Y-172956222D01*
X155081088Y-173241937D01*
X155152517Y-173384794D01*
X155223945Y-173456222D01*
X155366802Y-173527651D01*
X155652517Y-173527651D01*
X155795374Y-173456222D01*
X155866802Y-173384794D01*
X155938231Y-173241937D01*
X155938231Y-172956222D01*
X155866802Y-172813365D01*
X155795374Y-172741937D01*
X155652517Y-172670508D01*
X156581088Y-173384794D02*
X156652517Y-173456222D01*
X156581088Y-173527651D01*
X156509660Y-173456222D01*
X156581088Y-173384794D01*
X156581088Y-173527651D01*
X157581088Y-172027651D02*
X157723945Y-172027651D01*
X157866802Y-172099080D01*
X157938231Y-172170508D01*
X158009660Y-172313365D01*
X158081088Y-172599080D01*
X158081088Y-172956222D01*
X158009660Y-173241937D01*
X157938231Y-173384794D01*
X157866802Y-173456222D01*
X157723945Y-173527651D01*
X157581088Y-173527651D01*
X157438231Y-173456222D01*
X157366802Y-173384794D01*
X157295374Y-173241937D01*
X157223945Y-172956222D01*
X157223945Y-172599080D01*
X157295374Y-172313365D01*
X157366802Y-172170508D01*
X157438231Y-172099080D01*
X157581088Y-172027651D01*
X159366802Y-172527651D02*
X159366802Y-173527651D01*
X159009660Y-171956222D02*
X158652517Y-173027651D01*
X159581088Y-173027651D01*
X160152517Y-173384794D02*
X160223945Y-173456222D01*
X160152517Y-173527651D01*
X160081088Y-173456222D01*
X160152517Y-173384794D01*
X160152517Y-173527651D01*
X161652517Y-173527651D02*
X160795374Y-173527651D01*
X161223945Y-173527651D02*
X161223945Y-172027651D01*
X161081088Y-172241937D01*
X160938231Y-172384794D01*
X160795374Y-172456222D01*
D10*
D11*
X101434660Y-168449080D02*
X209434660Y-168449080D01*
D10*
D12*
X188843945Y-170727651D02*
X188343945Y-170013365D01*
X187986802Y-170727651D02*
X187986802Y-169227651D01*
X188558231Y-169227651D01*
X188701088Y-169299080D01*
X188772517Y-169370508D01*
X188843945Y-169513365D01*
X188843945Y-169727651D01*
X188772517Y-169870508D01*
X188701088Y-169941937D01*
X188558231Y-170013365D01*
X187986802Y-170013365D01*
X190058231Y-170656222D02*
X189915374Y-170727651D01*
X189629660Y-170727651D01*
X189486802Y-170656222D01*
X189415374Y-170513365D01*
X189415374Y-169941937D01*
X189486802Y-169799080D01*
X189629660Y-169727651D01*
X189915374Y-169727651D01*
X190058231Y-169799080D01*
X190129660Y-169941937D01*
X190129660Y-170084794D01*
X189415374Y-170227651D01*
X190629660Y-169727651D02*
X190986802Y-170727651D01*
X191343945Y-169727651D01*
X191915374Y-170584794D02*
X191986802Y-170656222D01*
X191915374Y-170727651D01*
X191843945Y-170656222D01*
X191915374Y-170584794D01*
X191915374Y-170727651D01*
X191915374Y-169799080D02*
X191986802Y-169870508D01*
X191915374Y-169941937D01*
X191843945Y-169870508D01*
X191915374Y-169799080D01*
X191915374Y-169941937D01*
D10*
D11*
X102795374Y-170656222D02*
X103009660Y-170727651D01*
X103366802Y-170727651D01*
X103509660Y-170656222D01*
X103581088Y-170584794D01*
X103652517Y-170441937D01*
X103652517Y-170299080D01*
X103581088Y-170156222D01*
X103509660Y-170084794D01*
X103366802Y-170013365D01*
X103081088Y-169941937D01*
X102938231Y-169870508D01*
X102866802Y-169799080D01*
X102795374Y-169656222D01*
X102795374Y-169513365D01*
X102866802Y-169370508D01*
X102938231Y-169299080D01*
X103081088Y-169227651D01*
X103438231Y-169227651D01*
X103652517Y-169299080D01*
X104295374Y-170727651D02*
X104295374Y-169727651D01*
X104295374Y-169227651D02*
X104223945Y-169299080D01*
X104295374Y-169370508D01*
X104366802Y-169299080D01*
X104295374Y-169227651D01*
X104295374Y-169370508D01*
X104866802Y-169727651D02*
X105652517Y-169727651D01*
X104866802Y-170727651D01*
X105652517Y-170727651D01*
X106795374Y-170656222D02*
X106652517Y-170727651D01*
X106366802Y-170727651D01*
X106223945Y-170656222D01*
X106152517Y-170513365D01*
X106152517Y-169941937D01*
X106223945Y-169799080D01*
X106366802Y-169727651D01*
X106652517Y-169727651D01*
X106795374Y-169799080D01*
X106866802Y-169941937D01*
X106866802Y-170084794D01*
X106152517Y-170227651D01*
X107509660Y-170584794D02*
X107581088Y-170656222D01*
X107509660Y-170727651D01*
X107438231Y-170656222D01*
X107509660Y-170584794D01*
X107509660Y-170727651D01*
X107509660Y-169799080D02*
X107581088Y-169870508D01*
X107509660Y-169941937D01*
X107438231Y-169870508D01*
X107509660Y-169799080D01*
X107509660Y-169941937D01*
X109295374Y-170299080D02*
X110009660Y-170299080D01*
X109152517Y-170727651D02*
X109652517Y-169227651D01*
X110152517Y-170727651D01*
X111295374Y-169727651D02*
X111295374Y-170727651D01*
X110938231Y-169156222D02*
X110581088Y-170227651D01*
X111509660Y-170227651D01*
D10*
D11*
X187866802Y-173527651D02*
X187866802Y-172027651D01*
X189223945Y-173527651D02*
X189223945Y-172027651D01*
X189223945Y-173456222D02*
X189081088Y-173527651D01*
X188795374Y-173527651D01*
X188652517Y-173456222D01*
X188581088Y-173384794D01*
X188509660Y-173241937D01*
X188509660Y-172813365D01*
X188581088Y-172670508D01*
X188652517Y-172599080D01*
X188795374Y-172527651D01*
X189081088Y-172527651D01*
X189223945Y-172599080D01*
X189938231Y-173384794D02*
X190009660Y-173456222D01*
X189938231Y-173527651D01*
X189866802Y-173456222D01*
X189938231Y-173384794D01*
X189938231Y-173527651D01*
X189938231Y-172599080D02*
X190009660Y-172670508D01*
X189938231Y-172741937D01*
X189866802Y-172670508D01*
X189938231Y-172599080D01*
X189938231Y-172741937D01*
X192581088Y-173527651D02*
X191723945Y-173527651D01*
X192152517Y-173527651D02*
X192152517Y-172027651D01*
X192009660Y-172241937D01*
X191866802Y-172384794D01*
X191723945Y-172456222D01*
X194295374Y-171956222D02*
X193009660Y-173884794D01*
X195581088Y-173527651D02*
X194723945Y-173527651D01*
X195152517Y-173527651D02*
X195152517Y-172027651D01*
X195009660Y-172241937D01*
X194866802Y-172384794D01*
X194723945Y-172456222D01*
D10*
D11*
X101434660Y-164449080D02*
X209434660Y-164449080D01*
D10*
D13*
X103147040Y-165153841D02*
X104289898Y-165153841D01*
X103468469Y-167153841D02*
X103718469Y-165153841D01*
X104706564Y-167153841D02*
X104873231Y-165820508D01*
X104956564Y-165153841D02*
X104849421Y-165249080D01*
X104932755Y-165344318D01*
X105039898Y-165249080D01*
X104956564Y-165153841D01*
X104932755Y-165344318D01*
X105539898Y-165820508D02*
X106301802Y-165820508D01*
X105908945Y-165153841D02*
X105694660Y-166868127D01*
X105766088Y-167058603D01*
X105944660Y-167153841D01*
X106135136Y-167153841D01*
X107087517Y-167153841D02*
X106908945Y-167058603D01*
X106837517Y-166868127D01*
X107051802Y-165153841D01*
X108623231Y-167058603D02*
X108420850Y-167153841D01*
X108039898Y-167153841D01*
X107861326Y-167058603D01*
X107789898Y-166868127D01*
X107885136Y-166106222D01*
X108004183Y-165915746D01*
X108206564Y-165820508D01*
X108587517Y-165820508D01*
X108766088Y-165915746D01*
X108837517Y-166106222D01*
X108813707Y-166296699D01*
X107837517Y-166487175D01*
X109587517Y-166963365D02*
X109670850Y-167058603D01*
X109563707Y-167153841D01*
X109480374Y-167058603D01*
X109587517Y-166963365D01*
X109563707Y-167153841D01*
X109718469Y-165915746D02*
X109801802Y-166010984D01*
X109694660Y-166106222D01*
X109611326Y-166010984D01*
X109718469Y-165915746D01*
X109694660Y-166106222D01*
X112039898Y-167153841D02*
X112289898Y-165153841D01*
X112194660Y-165915746D02*
X112397040Y-165820508D01*
X112777993Y-165820508D01*
X112956564Y-165915746D01*
X113039898Y-166010984D01*
X113111326Y-166201460D01*
X113039898Y-166772889D01*
X112920850Y-166963365D01*
X112813707Y-167058603D01*
X112611326Y-167153841D01*
X112230374Y-167153841D01*
X112051802Y-167058603D01*
X114135136Y-167153841D02*
X113956564Y-167058603D01*
X113873231Y-166963365D01*
X113801802Y-166772889D01*
X113873231Y-166201460D01*
X113992279Y-166010984D01*
X114099421Y-165915746D01*
X114301802Y-165820508D01*
X114587517Y-165820508D01*
X114766088Y-165915746D01*
X114849421Y-166010984D01*
X114920850Y-166201460D01*
X114849421Y-166772889D01*
X114730374Y-166963365D01*
X114623231Y-167058603D01*
X114420850Y-167153841D01*
X114135136Y-167153841D01*
X115539898Y-165820508D02*
X116301802Y-165820508D01*
X115908945Y-165153841D02*
X115694660Y-166868127D01*
X115766088Y-167058603D01*
X115944660Y-167153841D01*
X116135136Y-167153841D01*
X116682755Y-165820508D02*
X117444660Y-165820508D01*
X117051802Y-165153841D02*
X116837517Y-166868127D01*
X116908945Y-167058603D01*
X117087517Y-167153841D01*
X117277993Y-167153841D01*
X118230374Y-167153841D02*
X118051802Y-167058603D01*
X117968469Y-166963365D01*
X117897040Y-166772889D01*
X117968469Y-166201460D01*
X118087517Y-166010984D01*
X118194660Y-165915746D01*
X118397040Y-165820508D01*
X118682755Y-165820508D01*
X118861326Y-165915746D01*
X118944660Y-166010984D01*
X119016088Y-166201460D01*
X118944660Y-166772889D01*
X118825612Y-166963365D01*
X118718469Y-167058603D01*
X118516088Y-167153841D01*
X118230374Y-167153841D01*
X119754183Y-167153841D02*
X119920850Y-165820508D01*
X119897040Y-166010984D02*
X120004183Y-165915746D01*
X120206564Y-165820508D01*
X120492279Y-165820508D01*
X120670850Y-165915746D01*
X120742279Y-166106222D01*
X120611326Y-167153841D01*
X120742279Y-166106222D02*
X120861326Y-165915746D01*
X121063707Y-165820508D01*
X121349421Y-165820508D01*
X121527993Y-165915746D01*
X121599421Y-166106222D01*
X121468469Y-167153841D01*
X123944660Y-167153841D02*
X124194660Y-165153841D01*
X124099421Y-165915746D02*
X124301802Y-165820508D01*
X124682755Y-165820508D01*
X124861326Y-165915746D01*
X124944660Y-166010984D01*
X125016088Y-166201460D01*
X124944660Y-166772889D01*
X124825612Y-166963365D01*
X124718469Y-167058603D01*
X124516088Y-167153841D01*
X124135136Y-167153841D01*
X123956564Y-167058603D01*
X126039898Y-167153841D02*
X125861326Y-167058603D01*
X125777993Y-166963365D01*
X125706564Y-166772889D01*
X125777993Y-166201460D01*
X125897040Y-166010984D01*
X126004183Y-165915746D01*
X126206564Y-165820508D01*
X126492279Y-165820508D01*
X126670850Y-165915746D01*
X126754183Y-166010984D01*
X126825612Y-166201460D01*
X126754183Y-166772889D01*
X126635136Y-166963365D01*
X126527993Y-167058603D01*
X126325612Y-167153841D01*
X126039898Y-167153841D01*
X128420850Y-167153841D02*
X128551802Y-166106222D01*
X128480374Y-165915746D01*
X128301802Y-165820508D01*
X127920850Y-165820508D01*
X127718469Y-165915746D01*
X128432755Y-167058603D02*
X128230374Y-167153841D01*
X127754183Y-167153841D01*
X127575612Y-167058603D01*
X127504183Y-166868127D01*
X127527993Y-166677651D01*
X127647040Y-166487175D01*
X127849421Y-166391937D01*
X128325612Y-166391937D01*
X128527993Y-166296699D01*
X129373231Y-167153841D02*
X129539898Y-165820508D01*
X129492279Y-166201460D02*
X129611326Y-166010984D01*
X129718469Y-165915746D01*
X129920850Y-165820508D01*
X130111326Y-165820508D01*
X131468469Y-167153841D02*
X131718469Y-165153841D01*
X131480374Y-167058603D02*
X131277993Y-167153841D01*
X130897040Y-167153841D01*
X130718469Y-167058603D01*
X130635136Y-166963365D01*
X130563707Y-166772889D01*
X130635136Y-166201460D01*
X130754183Y-166010984D01*
X130861326Y-165915746D01*
X131063707Y-165820508D01*
X131444660Y-165820508D01*
X131623231Y-165915746D01*
D10*
D11*
X103366802Y-162541937D02*
X102866802Y-162541937D01*
X102866802Y-163327651D02*
X102866802Y-161827651D01*
X103581088Y-161827651D01*
X104152517Y-163327651D02*
X104152517Y-162327651D01*
X104152517Y-161827651D02*
X104081088Y-161899080D01*
X104152517Y-161970508D01*
X104223945Y-161899080D01*
X104152517Y-161827651D01*
X104152517Y-161970508D01*
X105081088Y-163327651D02*
X104938231Y-163256222D01*
X104866802Y-163113365D01*
X104866802Y-161827651D01*
X106223945Y-163256222D02*
X106081088Y-163327651D01*
X105795374Y-163327651D01*
X105652517Y-163256222D01*
X105581088Y-163113365D01*
X105581088Y-162541937D01*
X105652517Y-162399080D01*
X105795374Y-162327651D01*
X106081088Y-162327651D01*
X106223945Y-162399080D01*
X106295374Y-162541937D01*
X106295374Y-162684794D01*
X105581088Y-162827651D01*
X106938231Y-163184794D02*
X107009660Y-163256222D01*
X106938231Y-163327651D01*
X106866802Y-163256222D01*
X106938231Y-163184794D01*
X106938231Y-163327651D01*
X106938231Y-162399080D02*
X107009660Y-162470508D01*
X106938231Y-162541937D01*
X106866802Y-162470508D01*
X106938231Y-162399080D01*
X106938231Y-162541937D01*
X108795374Y-163327651D02*
X108795374Y-161827651D01*
X108795374Y-162399080D02*
X108938231Y-162327651D01*
X109223945Y-162327651D01*
X109366802Y-162399080D01*
X109438231Y-162470508D01*
X109509660Y-162613365D01*
X109509660Y-163041937D01*
X109438231Y-163184794D01*
X109366802Y-163256222D01*
X109223945Y-163327651D01*
X108938231Y-163327651D01*
X108795374Y-163256222D01*
X110366802Y-163327651D02*
X110223945Y-163256222D01*
X110152517Y-163184794D01*
X110081088Y-163041937D01*
X110081088Y-162613365D01*
X110152517Y-162470508D01*
X110223945Y-162399080D01*
X110366802Y-162327651D01*
X110581088Y-162327651D01*
X110723945Y-162399080D01*
X110795374Y-162470508D01*
X110866802Y-162613365D01*
X110866802Y-163041937D01*
X110795374Y-163184794D01*
X110723945Y-163256222D01*
X110581088Y-163327651D01*
X110366802Y-163327651D01*
X111295374Y-162327651D02*
X111866802Y-162327651D01*
X111509660Y-161827651D02*
X111509660Y-163113365D01*
X111581088Y-163256222D01*
X111723945Y-163327651D01*
X111866802Y-163327651D01*
X112152517Y-162327651D02*
X112723945Y-162327651D01*
X112366802Y-161827651D02*
X112366802Y-163113365D01*
X112438231Y-163256222D01*
X112581088Y-163327651D01*
X112723945Y-163327651D01*
X113438231Y-163327651D02*
X113295374Y-163256222D01*
X113223945Y-163184794D01*
X113152517Y-163041937D01*
X113152517Y-162613365D01*
X113223945Y-162470508D01*
X113295374Y-162399080D01*
X113438231Y-162327651D01*
X113652517Y-162327651D01*
X113795374Y-162399080D01*
X113866802Y-162470508D01*
X113938231Y-162613365D01*
X113938231Y-163041937D01*
X113866802Y-163184794D01*
X113795374Y-163256222D01*
X113652517Y-163327651D01*
X113438231Y-163327651D01*
X114581088Y-163327651D02*
X114581088Y-162327651D01*
X114581088Y-162470508D02*
X114652517Y-162399080D01*
X114795374Y-162327651D01*
X115009660Y-162327651D01*
X115152517Y-162399080D01*
X115223945Y-162541937D01*
X115223945Y-163327651D01*
X115223945Y-162541937D02*
X115295374Y-162399080D01*
X115438231Y-162327651D01*
X115652517Y-162327651D01*
X115795374Y-162399080D01*
X115866802Y-162541937D01*
X115866802Y-163327651D01*
X116581088Y-162756222D02*
X117723945Y-162756222D01*
X118438231Y-163327651D02*
X118438231Y-161827651D01*
X118438231Y-162399080D02*
X118581088Y-162327651D01*
X118866802Y-162327651D01*
X119009660Y-162399080D01*
X119081088Y-162470508D01*
X119152517Y-162613365D01*
X119152517Y-163041937D01*
X119081088Y-163184794D01*
X119009660Y-163256222D01*
X118866802Y-163327651D01*
X118581088Y-163327651D01*
X118438231Y-163256222D01*
X120009660Y-163327651D02*
X119866802Y-163256222D01*
X119795374Y-163184794D01*
X119723945Y-163041937D01*
X119723945Y-162613365D01*
X119795374Y-162470508D01*
X119866802Y-162399080D01*
X120009660Y-162327651D01*
X120223945Y-162327651D01*
X120366802Y-162399080D01*
X120438231Y-162470508D01*
X120509660Y-162613365D01*
X120509660Y-163041937D01*
X120438231Y-163184794D01*
X120366802Y-163256222D01*
X120223945Y-163327651D01*
X120009660Y-163327651D01*
X121795374Y-163327651D02*
X121795374Y-162541937D01*
X121723945Y-162399080D01*
X121581088Y-162327651D01*
X121295374Y-162327651D01*
X121152517Y-162399080D01*
X121795374Y-163256222D02*
X121652517Y-163327651D01*
X121295374Y-163327651D01*
X121152517Y-163256222D01*
X121081088Y-163113365D01*
X121081088Y-162970508D01*
X121152517Y-162827651D01*
X121295374Y-162756222D01*
X121652517Y-162756222D01*
X121795374Y-162684794D01*
X122509660Y-163327651D02*
X122509660Y-162327651D01*
X122509660Y-162613365D02*
X122581088Y-162470508D01*
X122652517Y-162399080D01*
X122795374Y-162327651D01*
X122938231Y-162327651D01*
X124081088Y-163327651D02*
X124081088Y-161827651D01*
X124081088Y-163256222D02*
X123938231Y-163327651D01*
X123652517Y-163327651D01*
X123509660Y-163256222D01*
X123438231Y-163184794D01*
X123366802Y-163041937D01*
X123366802Y-162613365D01*
X123438231Y-162470508D01*
X123509660Y-162399080D01*
X123652517Y-162327651D01*
X123938231Y-162327651D01*
X124081088Y-162399080D01*
X124795374Y-163184794D02*
X124866802Y-163256222D01*
X124795374Y-163327651D01*
X124723945Y-163256222D01*
X124795374Y-163184794D01*
X124795374Y-163327651D01*
X125509660Y-163327651D02*
X125509660Y-161827651D01*
X125652517Y-162756222D02*
X126081088Y-163327651D01*
X126081088Y-162327651D02*
X125509660Y-162899080D01*
X126723945Y-163327651D02*
X126723945Y-162327651D01*
X126723945Y-161827651D02*
X126652517Y-161899080D01*
X126723945Y-161970508D01*
X126795374Y-161899080D01*
X126723945Y-161827651D01*
X126723945Y-161970508D01*
X128081088Y-163256222D02*
X127938231Y-163327651D01*
X127652517Y-163327651D01*
X127509660Y-163256222D01*
X127438231Y-163184794D01*
X127366802Y-163041937D01*
X127366802Y-162613365D01*
X127438231Y-162470508D01*
X127509660Y-162399080D01*
X127652517Y-162327651D01*
X127938231Y-162327651D01*
X128081088Y-162399080D01*
X129366802Y-163327651D02*
X129366802Y-162541937D01*
X129295374Y-162399080D01*
X129152517Y-162327651D01*
X128866802Y-162327651D01*
X128723945Y-162399080D01*
X129366802Y-163256222D02*
X129223945Y-163327651D01*
X128866802Y-163327651D01*
X128723945Y-163256222D01*
X128652517Y-163113365D01*
X128652517Y-162970508D01*
X128723945Y-162827651D01*
X128866802Y-162756222D01*
X129223945Y-162756222D01*
X129366802Y-162684794D01*
X130723945Y-163327651D02*
X130723945Y-161827651D01*
X130723945Y-163256222D02*
X130581088Y-163327651D01*
X130295374Y-163327651D01*
X130152517Y-163256222D01*
X130081088Y-163184794D01*
X130009660Y-163041937D01*
X130009660Y-162613365D01*
X130081088Y-162470508D01*
X130152517Y-162399080D01*
X130295374Y-162327651D01*
X130581088Y-162327651D01*
X130723945Y-162399080D01*
X131081088Y-163470508D02*
X132223945Y-163470508D01*
X132581088Y-162327651D02*
X132581088Y-163827651D01*
X132581088Y-162399080D02*
X132723945Y-162327651D01*
X133009660Y-162327651D01*
X133152517Y-162399080D01*
X133223945Y-162470508D01*
X133295374Y-162613365D01*
X133295374Y-163041937D01*
X133223945Y-163184794D01*
X133152517Y-163256222D01*
X133009660Y-163327651D01*
X132723945Y-163327651D01*
X132581088Y-163256222D01*
X134581088Y-163256222D02*
X134438231Y-163327651D01*
X134152517Y-163327651D01*
X134009660Y-163256222D01*
X133938231Y-163184794D01*
X133866802Y-163041937D01*
X133866802Y-162613365D01*
X133938231Y-162470508D01*
X134009660Y-162399080D01*
X134152517Y-162327651D01*
X134438231Y-162327651D01*
X134581088Y-162399080D01*
X135223945Y-163327651D02*
X135223945Y-161827651D01*
X135223945Y-162399080D02*
X135366802Y-162327651D01*
X135652517Y-162327651D01*
X135795374Y-162399080D01*
X135866802Y-162470508D01*
X135938231Y-162613365D01*
X135938231Y-163041937D01*
X135866802Y-163184794D01*
X135795374Y-163256222D01*
X135652517Y-163327651D01*
X135366802Y-163327651D01*
X135223945Y-163256222D01*
D10*
D11*
X101434660Y-158449080D02*
X209434660Y-158449080D01*
D10*
D11*
X102795374Y-160556222D02*
X103009660Y-160627651D01*
X103366802Y-160627651D01*
X103509660Y-160556222D01*
X103581088Y-160484794D01*
X103652517Y-160341937D01*
X103652517Y-160199080D01*
X103581088Y-160056222D01*
X103509660Y-159984794D01*
X103366802Y-159913365D01*
X103081088Y-159841937D01*
X102938231Y-159770508D01*
X102866802Y-159699080D01*
X102795374Y-159556222D01*
X102795374Y-159413365D01*
X102866802Y-159270508D01*
X102938231Y-159199080D01*
X103081088Y-159127651D01*
X103438231Y-159127651D01*
X103652517Y-159199080D01*
X104295374Y-160627651D02*
X104295374Y-159127651D01*
X104938231Y-160627651D02*
X104938231Y-159841937D01*
X104866802Y-159699080D01*
X104723945Y-159627651D01*
X104509660Y-159627651D01*
X104366802Y-159699080D01*
X104295374Y-159770508D01*
X106223945Y-160556222D02*
X106081088Y-160627651D01*
X105795374Y-160627651D01*
X105652517Y-160556222D01*
X105581088Y-160413365D01*
X105581088Y-159841937D01*
X105652517Y-159699080D01*
X105795374Y-159627651D01*
X106081088Y-159627651D01*
X106223945Y-159699080D01*
X106295374Y-159841937D01*
X106295374Y-159984794D01*
X105581088Y-160127651D01*
X107509660Y-160556222D02*
X107366802Y-160627651D01*
X107081088Y-160627651D01*
X106938231Y-160556222D01*
X106866802Y-160413365D01*
X106866802Y-159841937D01*
X106938231Y-159699080D01*
X107081088Y-159627651D01*
X107366802Y-159627651D01*
X107509660Y-159699080D01*
X107581088Y-159841937D01*
X107581088Y-159984794D01*
X106866802Y-160127651D01*
X108009660Y-159627651D02*
X108581088Y-159627651D01*
X108223945Y-159127651D02*
X108223945Y-160413365D01*
X108295374Y-160556222D01*
X108438231Y-160627651D01*
X108581088Y-160627651D01*
X109081088Y-160484794D02*
X109152517Y-160556222D01*
X109081088Y-160627651D01*
X109009660Y-160556222D01*
X109081088Y-160484794D01*
X109081088Y-160627651D01*
X109081088Y-159699080D02*
X109152517Y-159770508D01*
X109081088Y-159841937D01*
X109009660Y-159770508D01*
X109081088Y-159699080D01*
X109081088Y-159841937D01*
D10*
D12*
X102986802Y-157627651D02*
X102986802Y-156127651D01*
X103486802Y-157199080D01*
X103986802Y-156127651D01*
X103986802Y-157627651D01*
X104986802Y-156127651D02*
X105272517Y-156127651D01*
X105415374Y-156199080D01*
X105558231Y-156341937D01*
X105629660Y-156627651D01*
X105629660Y-157127651D01*
X105558231Y-157413365D01*
X105415374Y-157556222D01*
X105272517Y-157627651D01*
X104986802Y-157627651D01*
X104843945Y-157556222D01*
X104701088Y-157413365D01*
X104629660Y-157127651D01*
X104629660Y-156627651D01*
X104701088Y-156341937D01*
X104843945Y-156199080D01*
X104986802Y-156127651D01*
X106272517Y-157627651D02*
X106272517Y-156127651D01*
X106629660Y-156127651D01*
X106843945Y-156199080D01*
X106986802Y-156341937D01*
X107058231Y-156484794D01*
X107129660Y-156770508D01*
X107129660Y-156984794D01*
X107058231Y-157270508D01*
X106986802Y-157413365D01*
X106843945Y-157556222D01*
X106629660Y-157627651D01*
X106272517Y-157627651D01*
D10*
D11*
X121434660Y-168449080D02*
X121434660Y-171449080D01*
D10*
D11*
X185434660Y-168449080D02*
X185434660Y-174949080D01*
D10*
G36*
X151407881Y-119487555D02*
X151607518Y-119527265D01*
X151795573Y-119605160D01*
X151889601Y-119644108D01*
X152143471Y-119813738D01*
X152359362Y-120029629D01*
X152528992Y-120283499D01*
X152528992Y-120283500D01*
X152645835Y-120565582D01*
X152705400Y-120865038D01*
X152705400Y-121170362D01*
X152645835Y-121469818D01*
X152567940Y-121657873D01*
X152528992Y-121751901D01*
X152359362Y-122005771D01*
X152143471Y-122221662D01*
X151889601Y-122391292D01*
X151795573Y-122430240D01*
X151607518Y-122508135D01*
X151407881Y-122547845D01*
X151308063Y-122567700D01*
X151002737Y-122567700D01*
X150902919Y-122547845D01*
X150703282Y-122508135D01*
X150515227Y-122430240D01*
X150421199Y-122391292D01*
X150167329Y-122221662D01*
X149951438Y-122005771D01*
X149781808Y-121751901D01*
X149742860Y-121657873D01*
X149664965Y-121469818D01*
X149605400Y-121170362D01*
X149605400Y-120865038D01*
X149664965Y-120565582D01*
X149781808Y-120283500D01*
X149781808Y-120283499D01*
X149951438Y-120029629D01*
X150167329Y-119813738D01*
X150421199Y-119644108D01*
X150515227Y-119605160D01*
X150703282Y-119527265D01*
X150902919Y-119487555D01*
X151002737Y-119467700D01*
X151308063Y-119467700D01*
X151407881Y-119487555D01*
X151407881Y-119487555D01*
G37*
G36*
X138707881Y-119487555D02*
X138907518Y-119527265D01*
X139095573Y-119605160D01*
X139189601Y-119644108D01*
X139443471Y-119813738D01*
X139659362Y-120029629D01*
X139828992Y-120283499D01*
X139828992Y-120283500D01*
X139945835Y-120565582D01*
X140005400Y-120865038D01*
X140005400Y-121170362D01*
X139945835Y-121469818D01*
X139867940Y-121657873D01*
X139828992Y-121751901D01*
X139659362Y-122005771D01*
X139443471Y-122221662D01*
X139189601Y-122391292D01*
X139095573Y-122430240D01*
X138907518Y-122508135D01*
X138707881Y-122547845D01*
X138608063Y-122567700D01*
X138302737Y-122567700D01*
X138202919Y-122547845D01*
X138003282Y-122508135D01*
X137815227Y-122430240D01*
X137721199Y-122391292D01*
X137467329Y-122221662D01*
X137251438Y-122005771D01*
X137081808Y-121751901D01*
X137042860Y-121657873D01*
X136964965Y-121469818D01*
X136905400Y-121170362D01*
X136905400Y-120865038D01*
X136964965Y-120565582D01*
X137081808Y-120283500D01*
X137081808Y-120283499D01*
X137251438Y-120029629D01*
X137467329Y-119813738D01*
X137721199Y-119644108D01*
X137815227Y-119605160D01*
X138003282Y-119527265D01*
X138202919Y-119487555D01*
X138302737Y-119467700D01*
X138608063Y-119467700D01*
X138707881Y-119487555D01*
X138707881Y-119487555D01*
G37*
G36*
X-9894819Y-119487555D02*
X-9695182Y-119527265D01*
X-9507127Y-119605160D01*
X-9413099Y-119644108D01*
X-9159229Y-119813738D01*
X-8943338Y-120029629D01*
X-8773708Y-120283499D01*
X-8773708Y-120283500D01*
X-8656865Y-120565582D01*
X-8597300Y-120865038D01*
X-8597300Y-121170362D01*
X-8656865Y-121469818D01*
X-8734760Y-121657873D01*
X-8773708Y-121751901D01*
X-8943338Y-122005771D01*
X-9159229Y-122221662D01*
X-9413099Y-122391292D01*
X-9507127Y-122430240D01*
X-9695182Y-122508135D01*
X-9894819Y-122547845D01*
X-9994637Y-122567700D01*
X-10299963Y-122567700D01*
X-10399781Y-122547845D01*
X-10599418Y-122508135D01*
X-10787473Y-122430240D01*
X-10881501Y-122391292D01*
X-11135371Y-122221662D01*
X-11351262Y-122005771D01*
X-11520892Y-121751901D01*
X-11559840Y-121657873D01*
X-11637735Y-121469818D01*
X-11697300Y-121170362D01*
X-11697300Y-120865038D01*
X-11637735Y-120565582D01*
X-11520892Y-120283500D01*
X-11520892Y-120283499D01*
X-11351262Y-120029629D01*
X-11135371Y-119813738D01*
X-10881501Y-119644108D01*
X-10787473Y-119605160D01*
X-10599418Y-119527265D01*
X-10399781Y-119487555D01*
X-10299963Y-119467700D01*
X-9994637Y-119467700D01*
X-9894819Y-119487555D01*
X-9894819Y-119487555D01*
G37*
G36*
X2805181Y-119487555D02*
X3004818Y-119527265D01*
X3192873Y-119605160D01*
X3286901Y-119644108D01*
X3540771Y-119813738D01*
X3756662Y-120029629D01*
X3926292Y-120283499D01*
X3926292Y-120283500D01*
X4043135Y-120565582D01*
X4102700Y-120865038D01*
X4102700Y-121170362D01*
X4043135Y-121469818D01*
X3965240Y-121657873D01*
X3926292Y-121751901D01*
X3756662Y-122005771D01*
X3540771Y-122221662D01*
X3286901Y-122391292D01*
X3192873Y-122430240D01*
X3004818Y-122508135D01*
X2805181Y-122547845D01*
X2705363Y-122567700D01*
X2400037Y-122567700D01*
X2300219Y-122547845D01*
X2100582Y-122508135D01*
X1912527Y-122430240D01*
X1818499Y-122391292D01*
X1564629Y-122221662D01*
X1348738Y-122005771D01*
X1179108Y-121751901D01*
X1140160Y-121657873D01*
X1062265Y-121469818D01*
X1002700Y-121170362D01*
X1002700Y-120865038D01*
X1062265Y-120565582D01*
X1179108Y-120283500D01*
X1179108Y-120283499D01*
X1348738Y-120029629D01*
X1564629Y-119813738D01*
X1818499Y-119644108D01*
X1912527Y-119605160D01*
X2100582Y-119527265D01*
X2300219Y-119487555D01*
X2400037Y-119467700D01*
X2705363Y-119467700D01*
X2805181Y-119487555D01*
X2805181Y-119487555D01*
G37*
G36*
X-3544819Y-119487555D02*
X-3345182Y-119527265D01*
X-3157127Y-119605160D01*
X-3063099Y-119644108D01*
X-2809229Y-119813738D01*
X-2593338Y-120029629D01*
X-2423708Y-120283499D01*
X-2423708Y-120283500D01*
X-2306865Y-120565582D01*
X-2247300Y-120865038D01*
X-2247300Y-121170362D01*
X-2306865Y-121469818D01*
X-2384760Y-121657873D01*
X-2423708Y-121751901D01*
X-2593338Y-122005771D01*
X-2809229Y-122221662D01*
X-3063099Y-122391292D01*
X-3157127Y-122430240D01*
X-3345182Y-122508135D01*
X-3544819Y-122547845D01*
X-3644637Y-122567700D01*
X-3949963Y-122567700D01*
X-4049781Y-122547845D01*
X-4249418Y-122508135D01*
X-4437473Y-122430240D01*
X-4531501Y-122391292D01*
X-4785371Y-122221662D01*
X-5001262Y-122005771D01*
X-5170892Y-121751901D01*
X-5209840Y-121657873D01*
X-5287735Y-121469818D01*
X-5347300Y-121170362D01*
X-5347300Y-120865038D01*
X-5287735Y-120565582D01*
X-5170892Y-120283500D01*
X-5170892Y-120283499D01*
X-5001262Y-120029629D01*
X-4785371Y-119813738D01*
X-4531501Y-119644108D01*
X-4437473Y-119605160D01*
X-4249418Y-119527265D01*
X-4049781Y-119487555D01*
X-3949963Y-119467700D01*
X-3644637Y-119467700D01*
X-3544819Y-119487555D01*
X-3544819Y-119487555D01*
G37*
G36*
X145057881Y-119487555D02*
X145257518Y-119527265D01*
X145445573Y-119605160D01*
X145539601Y-119644108D01*
X145793471Y-119813738D01*
X146009362Y-120029629D01*
X146178992Y-120283499D01*
X146178992Y-120283500D01*
X146295835Y-120565582D01*
X146355400Y-120865038D01*
X146355400Y-121170362D01*
X146295835Y-121469818D01*
X146217940Y-121657873D01*
X146178992Y-121751901D01*
X146009362Y-122005771D01*
X145793471Y-122221662D01*
X145539601Y-122391292D01*
X145445573Y-122430240D01*
X145257518Y-122508135D01*
X145057881Y-122547845D01*
X144958063Y-122567700D01*
X144652737Y-122567700D01*
X144552919Y-122547845D01*
X144353282Y-122508135D01*
X144165227Y-122430240D01*
X144071199Y-122391292D01*
X143817329Y-122221662D01*
X143601438Y-122005771D01*
X143431808Y-121751901D01*
X143392860Y-121657873D01*
X143314965Y-121469818D01*
X143255400Y-121170362D01*
X143255400Y-120865038D01*
X143314965Y-120565582D01*
X143431808Y-120283500D01*
X143431808Y-120283499D01*
X143601438Y-120029629D01*
X143817329Y-119813738D01*
X144071199Y-119644108D01*
X144165227Y-119605160D01*
X144353282Y-119527265D01*
X144552919Y-119487555D01*
X144652737Y-119467700D01*
X144958063Y-119467700D01*
X145057881Y-119487555D01*
X145057881Y-119487555D01*
G37*
G36*
X2805181Y-103257555D02*
X3004818Y-103297265D01*
X3192873Y-103375160D01*
X3286901Y-103414108D01*
X3540771Y-103583738D01*
X3756662Y-103799629D01*
X3926292Y-104053499D01*
X3926292Y-104053500D01*
X4043135Y-104335582D01*
X4102700Y-104635038D01*
X4102700Y-104940362D01*
X4043135Y-105239818D01*
X3965240Y-105427873D01*
X3926292Y-105521901D01*
X3756662Y-105775771D01*
X3540771Y-105991662D01*
X3286901Y-106161292D01*
X3192873Y-106200240D01*
X3004818Y-106278135D01*
X2805181Y-106317845D01*
X2705363Y-106337700D01*
X2400037Y-106337700D01*
X2300219Y-106317845D01*
X2100582Y-106278135D01*
X1912527Y-106200240D01*
X1818499Y-106161292D01*
X1564629Y-105991662D01*
X1348738Y-105775771D01*
X1179108Y-105521901D01*
X1140160Y-105427873D01*
X1062265Y-105239818D01*
X1002700Y-104940362D01*
X1002700Y-104635038D01*
X1062265Y-104335582D01*
X1179108Y-104053500D01*
X1179108Y-104053499D01*
X1348738Y-103799629D01*
X1564629Y-103583738D01*
X1818499Y-103414108D01*
X1912527Y-103375160D01*
X2100582Y-103297265D01*
X2300219Y-103257555D01*
X2400037Y-103237700D01*
X2705363Y-103237700D01*
X2805181Y-103257555D01*
X2805181Y-103257555D01*
G37*
G36*
X151407881Y-103257555D02*
X151607518Y-103297265D01*
X151795573Y-103375160D01*
X151889601Y-103414108D01*
X152143471Y-103583738D01*
X152359362Y-103799629D01*
X152528992Y-104053499D01*
X152528992Y-104053500D01*
X152645835Y-104335582D01*
X152705400Y-104635038D01*
X152705400Y-104940362D01*
X152645835Y-105239818D01*
X152567940Y-105427873D01*
X152528992Y-105521901D01*
X152359362Y-105775771D01*
X152143471Y-105991662D01*
X151889601Y-106161292D01*
X151795573Y-106200240D01*
X151607518Y-106278135D01*
X151407881Y-106317845D01*
X151308063Y-106337700D01*
X151002737Y-106337700D01*
X150902919Y-106317845D01*
X150703282Y-106278135D01*
X150515227Y-106200240D01*
X150421199Y-106161292D01*
X150167329Y-105991662D01*
X149951438Y-105775771D01*
X149781808Y-105521901D01*
X149742860Y-105427873D01*
X149664965Y-105239818D01*
X149605400Y-104940362D01*
X149605400Y-104635038D01*
X149664965Y-104335582D01*
X149781808Y-104053500D01*
X149781808Y-104053499D01*
X149951438Y-103799629D01*
X150167329Y-103583738D01*
X150421199Y-103414108D01*
X150515227Y-103375160D01*
X150703282Y-103297265D01*
X150902919Y-103257555D01*
X151002737Y-103237700D01*
X151308063Y-103237700D01*
X151407881Y-103257555D01*
X151407881Y-103257555D01*
G37*
G36*
X138707881Y-103257555D02*
X138907518Y-103297265D01*
X139095573Y-103375160D01*
X139189601Y-103414108D01*
X139443471Y-103583738D01*
X139659362Y-103799629D01*
X139828992Y-104053499D01*
X139828992Y-104053500D01*
X139945835Y-104335582D01*
X140005400Y-104635038D01*
X140005400Y-104940362D01*
X139945835Y-105239818D01*
X139867940Y-105427873D01*
X139828992Y-105521901D01*
X139659362Y-105775771D01*
X139443471Y-105991662D01*
X139189601Y-106161292D01*
X139095573Y-106200240D01*
X138907518Y-106278135D01*
X138707881Y-106317845D01*
X138608063Y-106337700D01*
X138302737Y-106337700D01*
X138202919Y-106317845D01*
X138003282Y-106278135D01*
X137815227Y-106200240D01*
X137721199Y-106161292D01*
X137467329Y-105991662D01*
X137251438Y-105775771D01*
X137081808Y-105521901D01*
X137042860Y-105427873D01*
X136964965Y-105239818D01*
X136905400Y-104940362D01*
X136905400Y-104635038D01*
X136964965Y-104335582D01*
X137081808Y-104053500D01*
X137081808Y-104053499D01*
X137251438Y-103799629D01*
X137467329Y-103583738D01*
X137721199Y-103414108D01*
X137815227Y-103375160D01*
X138003282Y-103297265D01*
X138202919Y-103257555D01*
X138302737Y-103237700D01*
X138608063Y-103237700D01*
X138707881Y-103257555D01*
X138707881Y-103257555D01*
G37*
G36*
X145057881Y-103257555D02*
X145257518Y-103297265D01*
X145445573Y-103375160D01*
X145539601Y-103414108D01*
X145793471Y-103583738D01*
X146009362Y-103799629D01*
X146178992Y-104053499D01*
X146178992Y-104053500D01*
X146295835Y-104335582D01*
X146355400Y-104635038D01*
X146355400Y-104940362D01*
X146295835Y-105239818D01*
X146217940Y-105427873D01*
X146178992Y-105521901D01*
X146009362Y-105775771D01*
X145793471Y-105991662D01*
X145539601Y-106161292D01*
X145445573Y-106200240D01*
X145257518Y-106278135D01*
X145057881Y-106317845D01*
X144958063Y-106337700D01*
X144652737Y-106337700D01*
X144552919Y-106317845D01*
X144353282Y-106278135D01*
X144165227Y-106200240D01*
X144071199Y-106161292D01*
X143817329Y-105991662D01*
X143601438Y-105775771D01*
X143431808Y-105521901D01*
X143392860Y-105427873D01*
X143314965Y-105239818D01*
X143255400Y-104940362D01*
X143255400Y-104635038D01*
X143314965Y-104335582D01*
X143431808Y-104053500D01*
X143431808Y-104053499D01*
X143601438Y-103799629D01*
X143817329Y-103583738D01*
X144071199Y-103414108D01*
X144165227Y-103375160D01*
X144353282Y-103297265D01*
X144552919Y-103257555D01*
X144652737Y-103237700D01*
X144958063Y-103237700D01*
X145057881Y-103257555D01*
X145057881Y-103257555D01*
G37*
G36*
X-9894819Y-103257555D02*
X-9695182Y-103297265D01*
X-9507127Y-103375160D01*
X-9413099Y-103414108D01*
X-9159229Y-103583738D01*
X-8943338Y-103799629D01*
X-8773708Y-104053499D01*
X-8773708Y-104053500D01*
X-8656865Y-104335582D01*
X-8597300Y-104635038D01*
X-8597300Y-104940362D01*
X-8656865Y-105239818D01*
X-8734760Y-105427873D01*
X-8773708Y-105521901D01*
X-8943338Y-105775771D01*
X-9159229Y-105991662D01*
X-9413099Y-106161292D01*
X-9507127Y-106200240D01*
X-9695182Y-106278135D01*
X-9894819Y-106317845D01*
X-9994637Y-106337700D01*
X-10299963Y-106337700D01*
X-10399781Y-106317845D01*
X-10599418Y-106278135D01*
X-10787473Y-106200240D01*
X-10881501Y-106161292D01*
X-11135371Y-105991662D01*
X-11351262Y-105775771D01*
X-11520892Y-105521901D01*
X-11559840Y-105427873D01*
X-11637735Y-105239818D01*
X-11697300Y-104940362D01*
X-11697300Y-104635038D01*
X-11637735Y-104335582D01*
X-11520892Y-104053500D01*
X-11520892Y-104053499D01*
X-11351262Y-103799629D01*
X-11135371Y-103583738D01*
X-10881501Y-103414108D01*
X-10787473Y-103375160D01*
X-10599418Y-103297265D01*
X-10399781Y-103257555D01*
X-10299963Y-103237700D01*
X-9994637Y-103237700D01*
X-9894819Y-103257555D01*
X-9894819Y-103257555D01*
G37*
G36*
X-3544819Y-103257555D02*
X-3345182Y-103297265D01*
X-3157127Y-103375160D01*
X-3063099Y-103414108D01*
X-2809229Y-103583738D01*
X-2593338Y-103799629D01*
X-2423708Y-104053499D01*
X-2423708Y-104053500D01*
X-2306865Y-104335582D01*
X-2247300Y-104635038D01*
X-2247300Y-104940362D01*
X-2306865Y-105239818D01*
X-2384760Y-105427873D01*
X-2423708Y-105521901D01*
X-2593338Y-105775771D01*
X-2809229Y-105991662D01*
X-3063099Y-106161292D01*
X-3157127Y-106200240D01*
X-3345182Y-106278135D01*
X-3544819Y-106317845D01*
X-3644637Y-106337700D01*
X-3949963Y-106337700D01*
X-4049781Y-106317845D01*
X-4249418Y-106278135D01*
X-4437473Y-106200240D01*
X-4531501Y-106161292D01*
X-4785371Y-105991662D01*
X-5001262Y-105775771D01*
X-5170892Y-105521901D01*
X-5209840Y-105427873D01*
X-5287735Y-105239818D01*
X-5347300Y-104940362D01*
X-5347300Y-104635038D01*
X-5287735Y-104335582D01*
X-5170892Y-104053500D01*
X-5170892Y-104053499D01*
X-5001262Y-103799629D01*
X-4785371Y-103583738D01*
X-4531501Y-103414108D01*
X-4437473Y-103375160D01*
X-4249418Y-103297265D01*
X-4049781Y-103257555D01*
X-3949963Y-103237700D01*
X-3644637Y-103237700D01*
X-3544819Y-103257555D01*
X-3544819Y-103257555D01*
G37*
G36*
X-9894819Y-99294555D02*
X-9695182Y-99334265D01*
X-9507127Y-99412160D01*
X-9413099Y-99451108D01*
X-9159229Y-99620738D01*
X-8943338Y-99836629D01*
X-8773708Y-100090499D01*
X-8773708Y-100090500D01*
X-8656865Y-100372582D01*
X-8597300Y-100672038D01*
X-8597300Y-100977362D01*
X-8656865Y-101276818D01*
X-8734760Y-101464873D01*
X-8773708Y-101558901D01*
X-8943338Y-101812771D01*
X-9159229Y-102028662D01*
X-9413099Y-102198292D01*
X-9507127Y-102237240D01*
X-9695182Y-102315135D01*
X-9894819Y-102354845D01*
X-9994637Y-102374700D01*
X-10299963Y-102374700D01*
X-10399781Y-102354845D01*
X-10599418Y-102315135D01*
X-10787473Y-102237240D01*
X-10881501Y-102198292D01*
X-11135371Y-102028662D01*
X-11351262Y-101812771D01*
X-11520892Y-101558901D01*
X-11559840Y-101464873D01*
X-11637735Y-101276818D01*
X-11697300Y-100977362D01*
X-11697300Y-100672038D01*
X-11637735Y-100372582D01*
X-11520892Y-100090500D01*
X-11520892Y-100090499D01*
X-11351262Y-99836629D01*
X-11135371Y-99620738D01*
X-10881501Y-99451108D01*
X-10787473Y-99412160D01*
X-10599418Y-99334265D01*
X-10399781Y-99294555D01*
X-10299963Y-99274700D01*
X-9994637Y-99274700D01*
X-9894819Y-99294555D01*
X-9894819Y-99294555D01*
G37*
G36*
X-3544819Y-99294555D02*
X-3345182Y-99334265D01*
X-3157127Y-99412160D01*
X-3063099Y-99451108D01*
X-2809229Y-99620738D01*
X-2593338Y-99836629D01*
X-2423708Y-100090499D01*
X-2423708Y-100090500D01*
X-2306865Y-100372582D01*
X-2247300Y-100672038D01*
X-2247300Y-100977362D01*
X-2306865Y-101276818D01*
X-2384760Y-101464873D01*
X-2423708Y-101558901D01*
X-2593338Y-101812771D01*
X-2809229Y-102028662D01*
X-3063099Y-102198292D01*
X-3157127Y-102237240D01*
X-3345182Y-102315135D01*
X-3544819Y-102354845D01*
X-3644637Y-102374700D01*
X-3949963Y-102374700D01*
X-4049781Y-102354845D01*
X-4249418Y-102315135D01*
X-4437473Y-102237240D01*
X-4531501Y-102198292D01*
X-4785371Y-102028662D01*
X-5001262Y-101812771D01*
X-5170892Y-101558901D01*
X-5209840Y-101464873D01*
X-5287735Y-101276818D01*
X-5347300Y-100977362D01*
X-5347300Y-100672038D01*
X-5287735Y-100372582D01*
X-5170892Y-100090500D01*
X-5170892Y-100090499D01*
X-5001262Y-99836629D01*
X-4785371Y-99620738D01*
X-4531501Y-99451108D01*
X-4437473Y-99412160D01*
X-4249418Y-99334265D01*
X-4049781Y-99294555D01*
X-3949963Y-99274700D01*
X-3644637Y-99274700D01*
X-3544819Y-99294555D01*
X-3544819Y-99294555D01*
G37*
G36*
X2805181Y-99294555D02*
X3004818Y-99334265D01*
X3192873Y-99412160D01*
X3286901Y-99451108D01*
X3540771Y-99620738D01*
X3756662Y-99836629D01*
X3926292Y-100090499D01*
X3926292Y-100090500D01*
X4043135Y-100372582D01*
X4102700Y-100672038D01*
X4102700Y-100977362D01*
X4043135Y-101276818D01*
X3965240Y-101464873D01*
X3926292Y-101558901D01*
X3756662Y-101812771D01*
X3540771Y-102028662D01*
X3286901Y-102198292D01*
X3192873Y-102237240D01*
X3004818Y-102315135D01*
X2805181Y-102354845D01*
X2705363Y-102374700D01*
X2400037Y-102374700D01*
X2300219Y-102354845D01*
X2100582Y-102315135D01*
X1912527Y-102237240D01*
X1818499Y-102198292D01*
X1564629Y-102028662D01*
X1348738Y-101812771D01*
X1179108Y-101558901D01*
X1140160Y-101464873D01*
X1062265Y-101276818D01*
X1002700Y-100977362D01*
X1002700Y-100672038D01*
X1062265Y-100372582D01*
X1179108Y-100090500D01*
X1179108Y-100090499D01*
X1348738Y-99836629D01*
X1564629Y-99620738D01*
X1818499Y-99451108D01*
X1912527Y-99412160D01*
X2100582Y-99334265D01*
X2300219Y-99294555D01*
X2400037Y-99274700D01*
X2705363Y-99274700D01*
X2805181Y-99294555D01*
X2805181Y-99294555D01*
G37*
G36*
X151371910Y-99274700D02*
X151607518Y-99321565D01*
X151795573Y-99399460D01*
X151889601Y-99438408D01*
X152143471Y-99608038D01*
X152359362Y-99823929D01*
X152528992Y-100077799D01*
X152528992Y-100077800D01*
X152645835Y-100359882D01*
X152705400Y-100659338D01*
X152705400Y-100964662D01*
X152645835Y-101264118D01*
X152640575Y-101276816D01*
X152528992Y-101546201D01*
X152359362Y-101800071D01*
X152143471Y-102015962D01*
X151889601Y-102185592D01*
X151858940Y-102198292D01*
X151607518Y-102302435D01*
X151407881Y-102342145D01*
X151308063Y-102362000D01*
X151002737Y-102362000D01*
X150902919Y-102342145D01*
X150703282Y-102302435D01*
X150451860Y-102198292D01*
X150421199Y-102185592D01*
X150167329Y-102015962D01*
X149951438Y-101800071D01*
X149781808Y-101546201D01*
X149670225Y-101276816D01*
X149664965Y-101264118D01*
X149605400Y-100964662D01*
X149605400Y-100659338D01*
X149664965Y-100359882D01*
X149781808Y-100077800D01*
X149781808Y-100077799D01*
X149951438Y-99823929D01*
X150167329Y-99608038D01*
X150421199Y-99438408D01*
X150515227Y-99399460D01*
X150703282Y-99321565D01*
X150938890Y-99274700D01*
X151002737Y-99262000D01*
X151308063Y-99262000D01*
X151371910Y-99274700D01*
X151371910Y-99274700D01*
G37*
G36*
X138671910Y-99274700D02*
X138907518Y-99321565D01*
X139095573Y-99399460D01*
X139189601Y-99438408D01*
X139443471Y-99608038D01*
X139659362Y-99823929D01*
X139828992Y-100077799D01*
X139828992Y-100077800D01*
X139945835Y-100359882D01*
X140005400Y-100659338D01*
X140005400Y-100964662D01*
X139945835Y-101264118D01*
X139940575Y-101276816D01*
X139828992Y-101546201D01*
X139659362Y-101800071D01*
X139443471Y-102015962D01*
X139189601Y-102185592D01*
X139158940Y-102198292D01*
X138907518Y-102302435D01*
X138707881Y-102342145D01*
X138608063Y-102362000D01*
X138302737Y-102362000D01*
X138202919Y-102342145D01*
X138003282Y-102302435D01*
X137751860Y-102198292D01*
X137721199Y-102185592D01*
X137467329Y-102015962D01*
X137251438Y-101800071D01*
X137081808Y-101546201D01*
X136970225Y-101276816D01*
X136964965Y-101264118D01*
X136905400Y-100964662D01*
X136905400Y-100659338D01*
X136964965Y-100359882D01*
X137081808Y-100077800D01*
X137081808Y-100077799D01*
X137251438Y-99823929D01*
X137467329Y-99608038D01*
X137721199Y-99438408D01*
X137815227Y-99399460D01*
X138003282Y-99321565D01*
X138238890Y-99274700D01*
X138302737Y-99262000D01*
X138608063Y-99262000D01*
X138671910Y-99274700D01*
X138671910Y-99274700D01*
G37*
G36*
X145021910Y-99274700D02*
X145257518Y-99321565D01*
X145445573Y-99399460D01*
X145539601Y-99438408D01*
X145793471Y-99608038D01*
X146009362Y-99823929D01*
X146178992Y-100077799D01*
X146178992Y-100077800D01*
X146295835Y-100359882D01*
X146355400Y-100659338D01*
X146355400Y-100964662D01*
X146295835Y-101264118D01*
X146290575Y-101276816D01*
X146178992Y-101546201D01*
X146009362Y-101800071D01*
X145793471Y-102015962D01*
X145539601Y-102185592D01*
X145508940Y-102198292D01*
X145257518Y-102302435D01*
X145057881Y-102342145D01*
X144958063Y-102362000D01*
X144652737Y-102362000D01*
X144552919Y-102342145D01*
X144353282Y-102302435D01*
X144101860Y-102198292D01*
X144071199Y-102185592D01*
X143817329Y-102015962D01*
X143601438Y-101800071D01*
X143431808Y-101546201D01*
X143320225Y-101276816D01*
X143314965Y-101264118D01*
X143255400Y-100964662D01*
X143255400Y-100659338D01*
X143314965Y-100359882D01*
X143431808Y-100077800D01*
X143431808Y-100077799D01*
X143601438Y-99823929D01*
X143817329Y-99608038D01*
X144071199Y-99438408D01*
X144165227Y-99399460D01*
X144353282Y-99321565D01*
X144588890Y-99274700D01*
X144652737Y-99262000D01*
X144958063Y-99262000D01*
X145021910Y-99274700D01*
X145021910Y-99274700D01*
G37*
G36*
X-9894819Y-83064555D02*
X-9695182Y-83104265D01*
X-9507127Y-83182160D01*
X-9413099Y-83221108D01*
X-9159229Y-83390738D01*
X-8943338Y-83606629D01*
X-8773708Y-83860499D01*
X-8773708Y-83860500D01*
X-8656865Y-84142582D01*
X-8597300Y-84442038D01*
X-8597300Y-84747362D01*
X-8656865Y-85046818D01*
X-8734760Y-85234873D01*
X-8773708Y-85328901D01*
X-8943338Y-85582771D01*
X-9159229Y-85798662D01*
X-9413099Y-85968292D01*
X-9507127Y-86007240D01*
X-9695182Y-86085135D01*
X-9894819Y-86124845D01*
X-9994637Y-86144700D01*
X-10299963Y-86144700D01*
X-10399781Y-86124845D01*
X-10599418Y-86085135D01*
X-10787473Y-86007240D01*
X-10881501Y-85968292D01*
X-11135371Y-85798662D01*
X-11351262Y-85582771D01*
X-11520892Y-85328901D01*
X-11559840Y-85234873D01*
X-11637735Y-85046818D01*
X-11697300Y-84747362D01*
X-11697300Y-84442038D01*
X-11637735Y-84142582D01*
X-11520892Y-83860500D01*
X-11520892Y-83860499D01*
X-11351262Y-83606629D01*
X-11135371Y-83390738D01*
X-10881501Y-83221108D01*
X-10787473Y-83182160D01*
X-10599418Y-83104265D01*
X-10399781Y-83064555D01*
X-10299963Y-83044700D01*
X-9994637Y-83044700D01*
X-9894819Y-83064555D01*
X-9894819Y-83064555D01*
G37*
G36*
X2805181Y-83064555D02*
X3004818Y-83104265D01*
X3192873Y-83182160D01*
X3286901Y-83221108D01*
X3540771Y-83390738D01*
X3756662Y-83606629D01*
X3926292Y-83860499D01*
X3926292Y-83860500D01*
X4043135Y-84142582D01*
X4102700Y-84442038D01*
X4102700Y-84747362D01*
X4043135Y-85046818D01*
X3965240Y-85234873D01*
X3926292Y-85328901D01*
X3756662Y-85582771D01*
X3540771Y-85798662D01*
X3286901Y-85968292D01*
X3192873Y-86007240D01*
X3004818Y-86085135D01*
X2805181Y-86124845D01*
X2705363Y-86144700D01*
X2400037Y-86144700D01*
X2300219Y-86124845D01*
X2100582Y-86085135D01*
X1912527Y-86007240D01*
X1818499Y-85968292D01*
X1564629Y-85798662D01*
X1348738Y-85582771D01*
X1179108Y-85328901D01*
X1140160Y-85234873D01*
X1062265Y-85046818D01*
X1002700Y-84747362D01*
X1002700Y-84442038D01*
X1062265Y-84142582D01*
X1179108Y-83860500D01*
X1179108Y-83860499D01*
X1348738Y-83606629D01*
X1564629Y-83390738D01*
X1818499Y-83221108D01*
X1912527Y-83182160D01*
X2100582Y-83104265D01*
X2300219Y-83064555D01*
X2400037Y-83044700D01*
X2705363Y-83044700D01*
X2805181Y-83064555D01*
X2805181Y-83064555D01*
G37*
G36*
X-3544819Y-83064555D02*
X-3345182Y-83104265D01*
X-3157127Y-83182160D01*
X-3063099Y-83221108D01*
X-2809229Y-83390738D01*
X-2593338Y-83606629D01*
X-2423708Y-83860499D01*
X-2423708Y-83860500D01*
X-2306865Y-84142582D01*
X-2247300Y-84442038D01*
X-2247300Y-84747362D01*
X-2306865Y-85046818D01*
X-2384760Y-85234873D01*
X-2423708Y-85328901D01*
X-2593338Y-85582771D01*
X-2809229Y-85798662D01*
X-3063099Y-85968292D01*
X-3157127Y-86007240D01*
X-3345182Y-86085135D01*
X-3544819Y-86124845D01*
X-3644637Y-86144700D01*
X-3949963Y-86144700D01*
X-4049781Y-86124845D01*
X-4249418Y-86085135D01*
X-4437473Y-86007240D01*
X-4531501Y-85968292D01*
X-4785371Y-85798662D01*
X-5001262Y-85582771D01*
X-5170892Y-85328901D01*
X-5209840Y-85234873D01*
X-5287735Y-85046818D01*
X-5347300Y-84747362D01*
X-5347300Y-84442038D01*
X-5287735Y-84142582D01*
X-5170892Y-83860500D01*
X-5170892Y-83860499D01*
X-5001262Y-83606629D01*
X-4785371Y-83390738D01*
X-4531501Y-83221108D01*
X-4437473Y-83182160D01*
X-4249418Y-83104265D01*
X-4049781Y-83064555D01*
X-3949963Y-83044700D01*
X-3644637Y-83044700D01*
X-3544819Y-83064555D01*
X-3544819Y-83064555D01*
G37*
G36*
X151371910Y-83044700D02*
X151607518Y-83091565D01*
X151795573Y-83169460D01*
X151889601Y-83208408D01*
X152143471Y-83378038D01*
X152359362Y-83593929D01*
X152528992Y-83847799D01*
X152528992Y-83847800D01*
X152645835Y-84129882D01*
X152705400Y-84429338D01*
X152705400Y-84734662D01*
X152645835Y-85034118D01*
X152640575Y-85046816D01*
X152528992Y-85316201D01*
X152359362Y-85570071D01*
X152143471Y-85785962D01*
X151889601Y-85955592D01*
X151858940Y-85968292D01*
X151607518Y-86072435D01*
X151407881Y-86112145D01*
X151308063Y-86132000D01*
X151002737Y-86132000D01*
X150902919Y-86112145D01*
X150703282Y-86072435D01*
X150451860Y-85968292D01*
X150421199Y-85955592D01*
X150167329Y-85785962D01*
X149951438Y-85570071D01*
X149781808Y-85316201D01*
X149670225Y-85046816D01*
X149664965Y-85034118D01*
X149605400Y-84734662D01*
X149605400Y-84429338D01*
X149664965Y-84129882D01*
X149781808Y-83847800D01*
X149781808Y-83847799D01*
X149951438Y-83593929D01*
X150167329Y-83378038D01*
X150421199Y-83208408D01*
X150515227Y-83169460D01*
X150703282Y-83091565D01*
X150938890Y-83044700D01*
X151002737Y-83032000D01*
X151308063Y-83032000D01*
X151371910Y-83044700D01*
X151371910Y-83044700D01*
G37*
G36*
X145021910Y-83044700D02*
X145257518Y-83091565D01*
X145445573Y-83169460D01*
X145539601Y-83208408D01*
X145793471Y-83378038D01*
X146009362Y-83593929D01*
X146178992Y-83847799D01*
X146178992Y-83847800D01*
X146295835Y-84129882D01*
X146355400Y-84429338D01*
X146355400Y-84734662D01*
X146295835Y-85034118D01*
X146290575Y-85046816D01*
X146178992Y-85316201D01*
X146009362Y-85570071D01*
X145793471Y-85785962D01*
X145539601Y-85955592D01*
X145508940Y-85968292D01*
X145257518Y-86072435D01*
X145057881Y-86112145D01*
X144958063Y-86132000D01*
X144652737Y-86132000D01*
X144552919Y-86112145D01*
X144353282Y-86072435D01*
X144101860Y-85968292D01*
X144071199Y-85955592D01*
X143817329Y-85785962D01*
X143601438Y-85570071D01*
X143431808Y-85316201D01*
X143320225Y-85046816D01*
X143314965Y-85034118D01*
X143255400Y-84734662D01*
X143255400Y-84429338D01*
X143314965Y-84129882D01*
X143431808Y-83847800D01*
X143431808Y-83847799D01*
X143601438Y-83593929D01*
X143817329Y-83378038D01*
X144071199Y-83208408D01*
X144165227Y-83169460D01*
X144353282Y-83091565D01*
X144588890Y-83044700D01*
X144652737Y-83032000D01*
X144958063Y-83032000D01*
X145021910Y-83044700D01*
X145021910Y-83044700D01*
G37*
G36*
X138671910Y-83044700D02*
X138907518Y-83091565D01*
X139095573Y-83169460D01*
X139189601Y-83208408D01*
X139443471Y-83378038D01*
X139659362Y-83593929D01*
X139828992Y-83847799D01*
X139828992Y-83847800D01*
X139945835Y-84129882D01*
X140005400Y-84429338D01*
X140005400Y-84734662D01*
X139945835Y-85034118D01*
X139940575Y-85046816D01*
X139828992Y-85316201D01*
X139659362Y-85570071D01*
X139443471Y-85785962D01*
X139189601Y-85955592D01*
X139158940Y-85968292D01*
X138907518Y-86072435D01*
X138707881Y-86112145D01*
X138608063Y-86132000D01*
X138302737Y-86132000D01*
X138202919Y-86112145D01*
X138003282Y-86072435D01*
X137751860Y-85968292D01*
X137721199Y-85955592D01*
X137467329Y-85785962D01*
X137251438Y-85570071D01*
X137081808Y-85316201D01*
X136970225Y-85046816D01*
X136964965Y-85034118D01*
X136905400Y-84734662D01*
X136905400Y-84429338D01*
X136964965Y-84129882D01*
X137081808Y-83847800D01*
X137081808Y-83847799D01*
X137251438Y-83593929D01*
X137467329Y-83378038D01*
X137721199Y-83208408D01*
X137815227Y-83169460D01*
X138003282Y-83091565D01*
X138238890Y-83044700D01*
X138302737Y-83032000D01*
X138608063Y-83032000D01*
X138671910Y-83044700D01*
X138671910Y-83044700D01*
G37*
G36*
X69935757Y-81643242D02*
X69986471Y-81653330D01*
X70050167Y-81679714D01*
X70107492Y-81718017D01*
X70156243Y-81766768D01*
X70194546Y-81824093D01*
X70220930Y-81887789D01*
X70234380Y-81955408D01*
X70234380Y-82024352D01*
X70220930Y-82091971D01*
X70194546Y-82155667D01*
X70156243Y-82212992D01*
X70107492Y-82261743D01*
X70050167Y-82300046D01*
X69986471Y-82326430D01*
X69935757Y-82336517D01*
X69918853Y-82339880D01*
X69849907Y-82339880D01*
X69833003Y-82336517D01*
X69782289Y-82326430D01*
X69718593Y-82300046D01*
X69661268Y-82261743D01*
X69612517Y-82212992D01*
X69574214Y-82155667D01*
X69547830Y-82091971D01*
X69534380Y-82024352D01*
X69534380Y-81955408D01*
X69547830Y-81887789D01*
X69574214Y-81824093D01*
X69612517Y-81766768D01*
X69661268Y-81718017D01*
X69718593Y-81679714D01*
X69782289Y-81653330D01*
X69833003Y-81643243D01*
X69849907Y-81639880D01*
X69918853Y-81639880D01*
X69935757Y-81643242D01*
X69935757Y-81643242D01*
G37*
G36*
X81535757Y-81643242D02*
X81586471Y-81653330D01*
X81650167Y-81679714D01*
X81707492Y-81718017D01*
X81756243Y-81766768D01*
X81794546Y-81824093D01*
X81820930Y-81887789D01*
X81834380Y-81955408D01*
X81834380Y-82024352D01*
X81820930Y-82091971D01*
X81794546Y-82155667D01*
X81756243Y-82212992D01*
X81707492Y-82261743D01*
X81650167Y-82300046D01*
X81586471Y-82326430D01*
X81535757Y-82336517D01*
X81518853Y-82339880D01*
X81449907Y-82339880D01*
X81433003Y-82336517D01*
X81382289Y-82326430D01*
X81318593Y-82300046D01*
X81261268Y-82261743D01*
X81212517Y-82212992D01*
X81174214Y-82155667D01*
X81147830Y-82091971D01*
X81134380Y-82024352D01*
X81134380Y-81955408D01*
X81147830Y-81887789D01*
X81174214Y-81824093D01*
X81212517Y-81766768D01*
X81261268Y-81718017D01*
X81318593Y-81679714D01*
X81382289Y-81653330D01*
X81433003Y-81643243D01*
X81449907Y-81639880D01*
X81518853Y-81639880D01*
X81535757Y-81643242D01*
X81535757Y-81643242D01*
G37*
G36*
X2805181Y-71087855D02*
X3004818Y-71127565D01*
X3192873Y-71205460D01*
X3286901Y-71244408D01*
X3540771Y-71414038D01*
X3756662Y-71629929D01*
X3926292Y-71883799D01*
X3926292Y-71883800D01*
X4043135Y-72165882D01*
X4102700Y-72465338D01*
X4102700Y-72770662D01*
X4043135Y-73070118D01*
X3965240Y-73258173D01*
X3926292Y-73352201D01*
X3756662Y-73606071D01*
X3540771Y-73821962D01*
X3286901Y-73991592D01*
X3192873Y-74030540D01*
X3004818Y-74108435D01*
X2805181Y-74148145D01*
X2705363Y-74168000D01*
X2400037Y-74168000D01*
X2300219Y-74148145D01*
X2100582Y-74108435D01*
X1912527Y-74030540D01*
X1818499Y-73991592D01*
X1564629Y-73821962D01*
X1348738Y-73606071D01*
X1179108Y-73352201D01*
X1140160Y-73258173D01*
X1062265Y-73070118D01*
X1002700Y-72770662D01*
X1002700Y-72465338D01*
X1062265Y-72165882D01*
X1179108Y-71883800D01*
X1179108Y-71883799D01*
X1348738Y-71629929D01*
X1564629Y-71414038D01*
X1818499Y-71244408D01*
X1912527Y-71205460D01*
X2100582Y-71127565D01*
X2300219Y-71087855D01*
X2400037Y-71068000D01*
X2705363Y-71068000D01*
X2805181Y-71087855D01*
X2805181Y-71087855D01*
G37*
G36*
X-9894819Y-71087855D02*
X-9695182Y-71127565D01*
X-9507127Y-71205460D01*
X-9413099Y-71244408D01*
X-9159229Y-71414038D01*
X-8943338Y-71629929D01*
X-8773708Y-71883799D01*
X-8773708Y-71883800D01*
X-8656865Y-72165882D01*
X-8597300Y-72465338D01*
X-8597300Y-72770662D01*
X-8656865Y-73070118D01*
X-8734760Y-73258173D01*
X-8773708Y-73352201D01*
X-8943338Y-73606071D01*
X-9159229Y-73821962D01*
X-9413099Y-73991592D01*
X-9507127Y-74030540D01*
X-9695182Y-74108435D01*
X-9894819Y-74148145D01*
X-9994637Y-74168000D01*
X-10299963Y-74168000D01*
X-10399781Y-74148145D01*
X-10599418Y-74108435D01*
X-10787473Y-74030540D01*
X-10881501Y-73991592D01*
X-11135371Y-73821962D01*
X-11351262Y-73606071D01*
X-11520892Y-73352201D01*
X-11559840Y-73258173D01*
X-11637735Y-73070118D01*
X-11697300Y-72770662D01*
X-11697300Y-72465338D01*
X-11637735Y-72165882D01*
X-11520892Y-71883800D01*
X-11520892Y-71883799D01*
X-11351262Y-71629929D01*
X-11135371Y-71414038D01*
X-10881501Y-71244408D01*
X-10787473Y-71205460D01*
X-10599418Y-71127565D01*
X-10399781Y-71087855D01*
X-10299963Y-71068000D01*
X-9994637Y-71068000D01*
X-9894819Y-71087855D01*
X-9894819Y-71087855D01*
G37*
G36*
X145057881Y-71087855D02*
X145257518Y-71127565D01*
X145445573Y-71205460D01*
X145539601Y-71244408D01*
X145793471Y-71414038D01*
X146009362Y-71629929D01*
X146178992Y-71883799D01*
X146178992Y-71883800D01*
X146295835Y-72165882D01*
X146355400Y-72465338D01*
X146355400Y-72770662D01*
X146295835Y-73070118D01*
X146217940Y-73258173D01*
X146178992Y-73352201D01*
X146009362Y-73606071D01*
X145793471Y-73821962D01*
X145539601Y-73991592D01*
X145445573Y-74030540D01*
X145257518Y-74108435D01*
X145057881Y-74148145D01*
X144958063Y-74168000D01*
X144652737Y-74168000D01*
X144552919Y-74148145D01*
X144353282Y-74108435D01*
X144165227Y-74030540D01*
X144071199Y-73991592D01*
X143817329Y-73821962D01*
X143601438Y-73606071D01*
X143431808Y-73352201D01*
X143392860Y-73258173D01*
X143314965Y-73070118D01*
X143255400Y-72770662D01*
X143255400Y-72465338D01*
X143314965Y-72165882D01*
X143431808Y-71883800D01*
X143431808Y-71883799D01*
X143601438Y-71629929D01*
X143817329Y-71414038D01*
X144071199Y-71244408D01*
X144165227Y-71205460D01*
X144353282Y-71127565D01*
X144552919Y-71087855D01*
X144652737Y-71068000D01*
X144958063Y-71068000D01*
X145057881Y-71087855D01*
X145057881Y-71087855D01*
G37*
G36*
X151407881Y-71087855D02*
X151607518Y-71127565D01*
X151795573Y-71205460D01*
X151889601Y-71244408D01*
X152143471Y-71414038D01*
X152359362Y-71629929D01*
X152528992Y-71883799D01*
X152528992Y-71883800D01*
X152645835Y-72165882D01*
X152705400Y-72465338D01*
X152705400Y-72770662D01*
X152645835Y-73070118D01*
X152567940Y-73258173D01*
X152528992Y-73352201D01*
X152359362Y-73606071D01*
X152143471Y-73821962D01*
X151889601Y-73991592D01*
X151795573Y-74030540D01*
X151607518Y-74108435D01*
X151407881Y-74148145D01*
X151308063Y-74168000D01*
X151002737Y-74168000D01*
X150902919Y-74148145D01*
X150703282Y-74108435D01*
X150515227Y-74030540D01*
X150421199Y-73991592D01*
X150167329Y-73821962D01*
X149951438Y-73606071D01*
X149781808Y-73352201D01*
X149742860Y-73258173D01*
X149664965Y-73070118D01*
X149605400Y-72770662D01*
X149605400Y-72465338D01*
X149664965Y-72165882D01*
X149781808Y-71883800D01*
X149781808Y-71883799D01*
X149951438Y-71629929D01*
X150167329Y-71414038D01*
X150421199Y-71244408D01*
X150515227Y-71205460D01*
X150703282Y-71127565D01*
X150902919Y-71087855D01*
X151002737Y-71068000D01*
X151308063Y-71068000D01*
X151407881Y-71087855D01*
X151407881Y-71087855D01*
G37*
G36*
X-3544819Y-71087855D02*
X-3345182Y-71127565D01*
X-3157127Y-71205460D01*
X-3063099Y-71244408D01*
X-2809229Y-71414038D01*
X-2593338Y-71629929D01*
X-2423708Y-71883799D01*
X-2423708Y-71883800D01*
X-2306865Y-72165882D01*
X-2247300Y-72465338D01*
X-2247300Y-72770662D01*
X-2306865Y-73070118D01*
X-2384760Y-73258173D01*
X-2423708Y-73352201D01*
X-2593338Y-73606071D01*
X-2809229Y-73821962D01*
X-3063099Y-73991592D01*
X-3157127Y-74030540D01*
X-3345182Y-74108435D01*
X-3544819Y-74148145D01*
X-3644637Y-74168000D01*
X-3949963Y-74168000D01*
X-4049781Y-74148145D01*
X-4249418Y-74108435D01*
X-4437473Y-74030540D01*
X-4531501Y-73991592D01*
X-4785371Y-73821962D01*
X-5001262Y-73606071D01*
X-5170892Y-73352201D01*
X-5209840Y-73258173D01*
X-5287735Y-73070118D01*
X-5347300Y-72770662D01*
X-5347300Y-72465338D01*
X-5287735Y-72165882D01*
X-5170892Y-71883800D01*
X-5170892Y-71883799D01*
X-5001262Y-71629929D01*
X-4785371Y-71414038D01*
X-4531501Y-71244408D01*
X-4437473Y-71205460D01*
X-4249418Y-71127565D01*
X-4049781Y-71087855D01*
X-3949963Y-71068000D01*
X-3644637Y-71068000D01*
X-3544819Y-71087855D01*
X-3544819Y-71087855D01*
G37*
G36*
X138707881Y-71087855D02*
X138907518Y-71127565D01*
X139095573Y-71205460D01*
X139189601Y-71244408D01*
X139443471Y-71414038D01*
X139659362Y-71629929D01*
X139828992Y-71883799D01*
X139828992Y-71883800D01*
X139945835Y-72165882D01*
X140005400Y-72465338D01*
X140005400Y-72770662D01*
X139945835Y-73070118D01*
X139867940Y-73258173D01*
X139828992Y-73352201D01*
X139659362Y-73606071D01*
X139443471Y-73821962D01*
X139189601Y-73991592D01*
X139095573Y-74030540D01*
X138907518Y-74108435D01*
X138707881Y-74148145D01*
X138608063Y-74168000D01*
X138302737Y-74168000D01*
X138202919Y-74148145D01*
X138003282Y-74108435D01*
X137815227Y-74030540D01*
X137721199Y-73991592D01*
X137467329Y-73821962D01*
X137251438Y-73606071D01*
X137081808Y-73352201D01*
X137042860Y-73258173D01*
X136964965Y-73070118D01*
X136905400Y-72770662D01*
X136905400Y-72465338D01*
X136964965Y-72165882D01*
X137081808Y-71883800D01*
X137081808Y-71883799D01*
X137251438Y-71629929D01*
X137467329Y-71414038D01*
X137721199Y-71244408D01*
X137815227Y-71205460D01*
X138003282Y-71127565D01*
X138202919Y-71087855D01*
X138302737Y-71068000D01*
X138608063Y-71068000D01*
X138707881Y-71087855D01*
X138707881Y-71087855D01*
G37*
G36*
X75116711Y-61378559D02*
X75622112Y-61479089D01*
X76177177Y-61709005D01*
X76676722Y-62042790D01*
X77101550Y-62467618D01*
X77435335Y-62967163D01*
X77665251Y-63522228D01*
X77782460Y-64111481D01*
X77782460Y-64712279D01*
X77665251Y-65301532D01*
X77435335Y-65856597D01*
X77101550Y-66356142D01*
X76676722Y-66780970D01*
X76177177Y-67114755D01*
X75622112Y-67344671D01*
X75116711Y-67445201D01*
X75032860Y-67461880D01*
X74432060Y-67461880D01*
X74348209Y-67445201D01*
X73842808Y-67344671D01*
X73287743Y-67114755D01*
X72788198Y-66780970D01*
X72363370Y-66356142D01*
X72029585Y-65856597D01*
X71799669Y-65301532D01*
X71682460Y-64712279D01*
X71682460Y-64111481D01*
X71799669Y-63522228D01*
X72029585Y-62967163D01*
X72363370Y-62467618D01*
X72788198Y-62042790D01*
X73287743Y-61709005D01*
X73842808Y-61479089D01*
X74348209Y-61378559D01*
X74432060Y-61361880D01*
X75032860Y-61361880D01*
X75116711Y-61378559D01*
X75116711Y-61378559D01*
G37*
G36*
X151407881Y-54857855D02*
X151607518Y-54897565D01*
X151795573Y-54975460D01*
X151889601Y-55014408D01*
X152143471Y-55184038D01*
X152359362Y-55399929D01*
X152528992Y-55653799D01*
X152528992Y-55653800D01*
X152645835Y-55935882D01*
X152705400Y-56235338D01*
X152705400Y-56540662D01*
X152645835Y-56840118D01*
X152567940Y-57028173D01*
X152528992Y-57122201D01*
X152359362Y-57376071D01*
X152143471Y-57591962D01*
X151889601Y-57761592D01*
X151795573Y-57800540D01*
X151607518Y-57878435D01*
X151407881Y-57918145D01*
X151308063Y-57938000D01*
X151002737Y-57938000D01*
X150902919Y-57918145D01*
X150703282Y-57878435D01*
X150515227Y-57800540D01*
X150421199Y-57761592D01*
X150167329Y-57591962D01*
X149951438Y-57376071D01*
X149781808Y-57122201D01*
X149742860Y-57028173D01*
X149664965Y-56840118D01*
X149605400Y-56540662D01*
X149605400Y-56235338D01*
X149664965Y-55935882D01*
X149781808Y-55653800D01*
X149781808Y-55653799D01*
X149951438Y-55399929D01*
X150167329Y-55184038D01*
X150421199Y-55014408D01*
X150515227Y-54975460D01*
X150703282Y-54897565D01*
X150902919Y-54857855D01*
X151002737Y-54838000D01*
X151308063Y-54838000D01*
X151407881Y-54857855D01*
X151407881Y-54857855D01*
G37*
G36*
X138707881Y-54857855D02*
X138907518Y-54897565D01*
X139095573Y-54975460D01*
X139189601Y-55014408D01*
X139443471Y-55184038D01*
X139659362Y-55399929D01*
X139828992Y-55653799D01*
X139828992Y-55653800D01*
X139945835Y-55935882D01*
X140005400Y-56235338D01*
X140005400Y-56540662D01*
X139945835Y-56840118D01*
X139867940Y-57028173D01*
X139828992Y-57122201D01*
X139659362Y-57376071D01*
X139443471Y-57591962D01*
X139189601Y-57761592D01*
X139095573Y-57800540D01*
X138907518Y-57878435D01*
X138707881Y-57918145D01*
X138608063Y-57938000D01*
X138302737Y-57938000D01*
X138202919Y-57918145D01*
X138003282Y-57878435D01*
X137815227Y-57800540D01*
X137721199Y-57761592D01*
X137467329Y-57591962D01*
X137251438Y-57376071D01*
X137081808Y-57122201D01*
X137042860Y-57028173D01*
X136964965Y-56840118D01*
X136905400Y-56540662D01*
X136905400Y-56235338D01*
X136964965Y-55935882D01*
X137081808Y-55653800D01*
X137081808Y-55653799D01*
X137251438Y-55399929D01*
X137467329Y-55184038D01*
X137721199Y-55014408D01*
X137815227Y-54975460D01*
X138003282Y-54897565D01*
X138202919Y-54857855D01*
X138302737Y-54838000D01*
X138608063Y-54838000D01*
X138707881Y-54857855D01*
X138707881Y-54857855D01*
G37*
G36*
X145057881Y-54857855D02*
X145257518Y-54897565D01*
X145445573Y-54975460D01*
X145539601Y-55014408D01*
X145793471Y-55184038D01*
X146009362Y-55399929D01*
X146178992Y-55653799D01*
X146178992Y-55653800D01*
X146295835Y-55935882D01*
X146355400Y-56235338D01*
X146355400Y-56540662D01*
X146295835Y-56840118D01*
X146217940Y-57028173D01*
X146178992Y-57122201D01*
X146009362Y-57376071D01*
X145793471Y-57591962D01*
X145539601Y-57761592D01*
X145445573Y-57800540D01*
X145257518Y-57878435D01*
X145057881Y-57918145D01*
X144958063Y-57938000D01*
X144652737Y-57938000D01*
X144552919Y-57918145D01*
X144353282Y-57878435D01*
X144165227Y-57800540D01*
X144071199Y-57761592D01*
X143817329Y-57591962D01*
X143601438Y-57376071D01*
X143431808Y-57122201D01*
X143392860Y-57028173D01*
X143314965Y-56840118D01*
X143255400Y-56540662D01*
X143255400Y-56235338D01*
X143314965Y-55935882D01*
X143431808Y-55653800D01*
X143431808Y-55653799D01*
X143601438Y-55399929D01*
X143817329Y-55184038D01*
X144071199Y-55014408D01*
X144165227Y-54975460D01*
X144353282Y-54897565D01*
X144552919Y-54857855D01*
X144652737Y-54838000D01*
X144958063Y-54838000D01*
X145057881Y-54857855D01*
X145057881Y-54857855D01*
G37*
G36*
X-3544819Y-54857855D02*
X-3345182Y-54897565D01*
X-3157127Y-54975460D01*
X-3063099Y-55014408D01*
X-2809229Y-55184038D01*
X-2593338Y-55399929D01*
X-2423708Y-55653799D01*
X-2423708Y-55653800D01*
X-2306865Y-55935882D01*
X-2247300Y-56235338D01*
X-2247300Y-56540662D01*
X-2306865Y-56840118D01*
X-2384760Y-57028173D01*
X-2423708Y-57122201D01*
X-2593338Y-57376071D01*
X-2809229Y-57591962D01*
X-3063099Y-57761592D01*
X-3157127Y-57800540D01*
X-3345182Y-57878435D01*
X-3544819Y-57918145D01*
X-3644637Y-57938000D01*
X-3949963Y-57938000D01*
X-4049781Y-57918145D01*
X-4249418Y-57878435D01*
X-4437473Y-57800540D01*
X-4531501Y-57761592D01*
X-4785371Y-57591962D01*
X-5001262Y-57376071D01*
X-5170892Y-57122201D01*
X-5209840Y-57028173D01*
X-5287735Y-56840118D01*
X-5347300Y-56540662D01*
X-5347300Y-56235338D01*
X-5287735Y-55935882D01*
X-5170892Y-55653800D01*
X-5170892Y-55653799D01*
X-5001262Y-55399929D01*
X-4785371Y-55184038D01*
X-4531501Y-55014408D01*
X-4437473Y-54975460D01*
X-4249418Y-54897565D01*
X-4049781Y-54857855D01*
X-3949963Y-54838000D01*
X-3644637Y-54838000D01*
X-3544819Y-54857855D01*
X-3544819Y-54857855D01*
G37*
G36*
X2805181Y-54857855D02*
X3004818Y-54897565D01*
X3192873Y-54975460D01*
X3286901Y-55014408D01*
X3540771Y-55184038D01*
X3756662Y-55399929D01*
X3926292Y-55653799D01*
X3926292Y-55653800D01*
X4043135Y-55935882D01*
X4102700Y-56235338D01*
X4102700Y-56540662D01*
X4043135Y-56840118D01*
X3965240Y-57028173D01*
X3926292Y-57122201D01*
X3756662Y-57376071D01*
X3540771Y-57591962D01*
X3286901Y-57761592D01*
X3192873Y-57800540D01*
X3004818Y-57878435D01*
X2805181Y-57918145D01*
X2705363Y-57938000D01*
X2400037Y-57938000D01*
X2300219Y-57918145D01*
X2100582Y-57878435D01*
X1912527Y-57800540D01*
X1818499Y-57761592D01*
X1564629Y-57591962D01*
X1348738Y-57376071D01*
X1179108Y-57122201D01*
X1140160Y-57028173D01*
X1062265Y-56840118D01*
X1002700Y-56540662D01*
X1002700Y-56235338D01*
X1062265Y-55935882D01*
X1179108Y-55653800D01*
X1179108Y-55653799D01*
X1348738Y-55399929D01*
X1564629Y-55184038D01*
X1818499Y-55014408D01*
X1912527Y-54975460D01*
X2100582Y-54897565D01*
X2300219Y-54857855D01*
X2400037Y-54838000D01*
X2705363Y-54838000D01*
X2805181Y-54857855D01*
X2805181Y-54857855D01*
G37*
G36*
X-9894819Y-54857855D02*
X-9695182Y-54897565D01*
X-9507127Y-54975460D01*
X-9413099Y-55014408D01*
X-9159229Y-55184038D01*
X-8943338Y-55399929D01*
X-8773708Y-55653799D01*
X-8773708Y-55653800D01*
X-8656865Y-55935882D01*
X-8597300Y-56235338D01*
X-8597300Y-56540662D01*
X-8656865Y-56840118D01*
X-8734760Y-57028173D01*
X-8773708Y-57122201D01*
X-8943338Y-57376071D01*
X-9159229Y-57591962D01*
X-9413099Y-57761592D01*
X-9507127Y-57800540D01*
X-9695182Y-57878435D01*
X-9894819Y-57918145D01*
X-9994637Y-57938000D01*
X-10299963Y-57938000D01*
X-10399781Y-57918145D01*
X-10599418Y-57878435D01*
X-10787473Y-57800540D01*
X-10881501Y-57761592D01*
X-11135371Y-57591962D01*
X-11351262Y-57376071D01*
X-11520892Y-57122201D01*
X-11559840Y-57028173D01*
X-11637735Y-56840118D01*
X-11697300Y-56540662D01*
X-11697300Y-56235338D01*
X-11637735Y-55935882D01*
X-11520892Y-55653800D01*
X-11520892Y-55653799D01*
X-11351262Y-55399929D01*
X-11135371Y-55184038D01*
X-10881501Y-55014408D01*
X-10787473Y-54975460D01*
X-10599418Y-54897565D01*
X-10399781Y-54857855D01*
X-10299963Y-54838000D01*
X-9994637Y-54838000D01*
X-9894819Y-54857855D01*
X-9894819Y-54857855D01*
G37*
G36*
X67435757Y-41643242D02*
X67486471Y-41653330D01*
X67550167Y-41679714D01*
X67607492Y-41718017D01*
X67656243Y-41766768D01*
X67694546Y-41824093D01*
X67720930Y-41887789D01*
X67734380Y-41955408D01*
X67734380Y-42024352D01*
X67720930Y-42091971D01*
X67694546Y-42155667D01*
X67656243Y-42212992D01*
X67607492Y-42261743D01*
X67550167Y-42300046D01*
X67486471Y-42326430D01*
X67435757Y-42336518D01*
X67418853Y-42339880D01*
X67349907Y-42339880D01*
X67333003Y-42336518D01*
X67282289Y-42326430D01*
X67218593Y-42300046D01*
X67161268Y-42261743D01*
X67112517Y-42212992D01*
X67074214Y-42155667D01*
X67047830Y-42091971D01*
X67034380Y-42024352D01*
X67034380Y-41955408D01*
X67047830Y-41887789D01*
X67074214Y-41824093D01*
X67112517Y-41766768D01*
X67161268Y-41718017D01*
X67218593Y-41679714D01*
X67282289Y-41653330D01*
X67333003Y-41643242D01*
X67349907Y-41639880D01*
X67418853Y-41639880D01*
X67435757Y-41643242D01*
X67435757Y-41643242D01*
G37*
G36*
X84035757Y-41643242D02*
X84086471Y-41653330D01*
X84150167Y-41679714D01*
X84207492Y-41718017D01*
X84256243Y-41766768D01*
X84294546Y-41824093D01*
X84320930Y-41887789D01*
X84334380Y-41955408D01*
X84334380Y-42024352D01*
X84320930Y-42091971D01*
X84294546Y-42155667D01*
X84256243Y-42212992D01*
X84207492Y-42261743D01*
X84150167Y-42300046D01*
X84086471Y-42326430D01*
X84035757Y-42336518D01*
X84018853Y-42339880D01*
X83949907Y-42339880D01*
X83933003Y-42336518D01*
X83882289Y-42326430D01*
X83818593Y-42300046D01*
X83761268Y-42261743D01*
X83712517Y-42212992D01*
X83674214Y-42155667D01*
X83647830Y-42091971D01*
X83634380Y-42024352D01*
X83634380Y-41955408D01*
X83647830Y-41887789D01*
X83674214Y-41824093D01*
X83712517Y-41766768D01*
X83761268Y-41718017D01*
X83818593Y-41679714D01*
X83882289Y-41653330D01*
X83933003Y-41643242D01*
X83949907Y-41639880D01*
X84018853Y-41639880D01*
X84035757Y-41643242D01*
X84035757Y-41643242D01*
G37*
G36*
X149855052Y-38731917D02*
X150082536Y-38826144D01*
X150287271Y-38962944D01*
X150461376Y-39137049D01*
X150598176Y-39341784D01*
X150692403Y-39569268D01*
X150740440Y-39810765D01*
X150740440Y-40056995D01*
X150692403Y-40298492D01*
X150598176Y-40525976D01*
X150461376Y-40730711D01*
X150287271Y-40904816D01*
X150082536Y-41041616D01*
X149855052Y-41135843D01*
X149613555Y-41183880D01*
X149367325Y-41183880D01*
X149125828Y-41135843D01*
X148898344Y-41041616D01*
X148693609Y-40904816D01*
X148519504Y-40730711D01*
X148382704Y-40525976D01*
X148288477Y-40298492D01*
X148240440Y-40056995D01*
X148240440Y-39810765D01*
X148288477Y-39569268D01*
X148382704Y-39341784D01*
X148519504Y-39137049D01*
X148693609Y-38962944D01*
X148898344Y-38826144D01*
X149125828Y-38731917D01*
X149367325Y-38683880D01*
X149613555Y-38683880D01*
X149855052Y-38731917D01*
X149855052Y-38731917D01*
G37*
G36*
X145740440Y-41183880D02*
X143240440Y-41183880D01*
X143240440Y-38683880D01*
X145740440Y-38683880D01*
X145740440Y-41183880D01*
X145740440Y-41183880D01*
G37*
G36*
X121637200Y-37112358D02*
X121715610Y-37120081D01*
X121827252Y-37153948D01*
X121866522Y-37165860D01*
X122005596Y-37240196D01*
X122127498Y-37340240D01*
X122227542Y-37462142D01*
X122301878Y-37601216D01*
X122301879Y-37601220D01*
X122347657Y-37752128D01*
X122363114Y-37909067D01*
X122347657Y-38066006D01*
X122313790Y-38177648D01*
X122301878Y-38216918D01*
X122227542Y-38355992D01*
X122127498Y-38477894D01*
X122005596Y-38577938D01*
X121866522Y-38652274D01*
X121827252Y-38664186D01*
X121715610Y-38698053D01*
X121637200Y-38705776D01*
X121597996Y-38709637D01*
X120521126Y-38709637D01*
X120481922Y-38705776D01*
X120403512Y-38698053D01*
X120291870Y-38664186D01*
X120252600Y-38652274D01*
X120113526Y-38577938D01*
X119991624Y-38477894D01*
X119891580Y-38355992D01*
X119817244Y-38216918D01*
X119805332Y-38177648D01*
X119771465Y-38066006D01*
X119756008Y-37909067D01*
X119771465Y-37752128D01*
X119817243Y-37601220D01*
X119817244Y-37601216D01*
X119891580Y-37462142D01*
X119991624Y-37340240D01*
X120113526Y-37240196D01*
X120252600Y-37165860D01*
X120291870Y-37153948D01*
X120403512Y-37120081D01*
X120481922Y-37112358D01*
X120521126Y-37108497D01*
X121597996Y-37108497D01*
X121637200Y-37112358D01*
X121637200Y-37112358D01*
G37*
G36*
X-3057932Y-36641830D02*
X-2990823Y-36648439D01*
X-2876014Y-36683266D01*
X-2818608Y-36700680D01*
X-2733774Y-36746025D01*
X-2659895Y-36785514D01*
X-2659893Y-36785515D01*
X-2659894Y-36785515D01*
X-2520782Y-36899682D01*
X-2406615Y-37038794D01*
X-2321780Y-37197508D01*
X-2321780Y-37197509D01*
X-2269539Y-37369723D01*
X-2251900Y-37548820D01*
X-2269539Y-37727917D01*
X-2276884Y-37752130D01*
X-2321780Y-37900132D01*
X-2326556Y-37909067D01*
X-2406614Y-38058845D01*
X-2520782Y-38197958D01*
X-2659895Y-38312126D01*
X-2733774Y-38351615D01*
X-2818608Y-38396960D01*
X-2876014Y-38414374D01*
X-2990823Y-38449201D01*
X-3057933Y-38455811D01*
X-3125040Y-38462420D01*
X-3214800Y-38462420D01*
X-3281907Y-38455811D01*
X-3349017Y-38449201D01*
X-3463826Y-38414374D01*
X-3521232Y-38396960D01*
X-3606066Y-38351615D01*
X-3679945Y-38312126D01*
X-3819058Y-38197958D01*
X-3933226Y-38058845D01*
X-4013284Y-37909067D01*
X-4018060Y-37900132D01*
X-4062956Y-37752130D01*
X-4070301Y-37727917D01*
X-4087940Y-37548820D01*
X-4070301Y-37369723D01*
X-4018060Y-37197509D01*
X-4018060Y-37197508D01*
X-3933225Y-37038794D01*
X-3819058Y-36899682D01*
X-3679946Y-36785515D01*
X-3679947Y-36785515D01*
X-3679945Y-36785514D01*
X-3606066Y-36746025D01*
X-3521232Y-36700680D01*
X-3463826Y-36683266D01*
X-3349017Y-36648439D01*
X-3281908Y-36641830D01*
X-3214800Y-36635220D01*
X-3125040Y-36635220D01*
X-3057932Y-36641830D01*
X-3057932Y-36641830D01*
G37*
G36*
X17262068Y-36641830D02*
X17329177Y-36648439D01*
X17443986Y-36683266D01*
X17501392Y-36700680D01*
X17586226Y-36746025D01*
X17660105Y-36785514D01*
X17660107Y-36785515D01*
X17660106Y-36785515D01*
X17799218Y-36899682D01*
X17913385Y-37038794D01*
X17998220Y-37197508D01*
X17998220Y-37197509D01*
X18050461Y-37369723D01*
X18068100Y-37548820D01*
X18050461Y-37727917D01*
X18043116Y-37752130D01*
X17998220Y-37900132D01*
X17993444Y-37909067D01*
X17913386Y-38058845D01*
X17799218Y-38197958D01*
X17660105Y-38312126D01*
X17586226Y-38351615D01*
X17501392Y-38396960D01*
X17443986Y-38414374D01*
X17329177Y-38449201D01*
X17262067Y-38455811D01*
X17194960Y-38462420D01*
X17105200Y-38462420D01*
X17038093Y-38455811D01*
X16970983Y-38449201D01*
X16856174Y-38414374D01*
X16798768Y-38396960D01*
X16713934Y-38351615D01*
X16640055Y-38312126D01*
X16500942Y-38197958D01*
X16386774Y-38058845D01*
X16306716Y-37909067D01*
X16301940Y-37900132D01*
X16257044Y-37752130D01*
X16249699Y-37727917D01*
X16232060Y-37548820D01*
X16249699Y-37369723D01*
X16301940Y-37197509D01*
X16301940Y-37197508D01*
X16386775Y-37038794D01*
X16500942Y-36899682D01*
X16640054Y-36785515D01*
X16640053Y-36785515D01*
X16640055Y-36785514D01*
X16713934Y-36746025D01*
X16798768Y-36700680D01*
X16856174Y-36683266D01*
X16970983Y-36648439D01*
X17038092Y-36641830D01*
X17105200Y-36635220D01*
X17194960Y-36635220D01*
X17262068Y-36641830D01*
X17262068Y-36641830D01*
G37*
G36*
X14722068Y-36641830D02*
X14789177Y-36648439D01*
X14903986Y-36683266D01*
X14961392Y-36700680D01*
X15046226Y-36746025D01*
X15120105Y-36785514D01*
X15120107Y-36785515D01*
X15120106Y-36785515D01*
X15259218Y-36899682D01*
X15373385Y-37038794D01*
X15458220Y-37197508D01*
X15458220Y-37197509D01*
X15510461Y-37369723D01*
X15528100Y-37548820D01*
X15510461Y-37727917D01*
X15503116Y-37752130D01*
X15458220Y-37900132D01*
X15453444Y-37909067D01*
X15373386Y-38058845D01*
X15259218Y-38197958D01*
X15120105Y-38312126D01*
X15046226Y-38351615D01*
X14961392Y-38396960D01*
X14903986Y-38414374D01*
X14789177Y-38449201D01*
X14722067Y-38455811D01*
X14654960Y-38462420D01*
X14565200Y-38462420D01*
X14498093Y-38455811D01*
X14430983Y-38449201D01*
X14316174Y-38414374D01*
X14258768Y-38396960D01*
X14173934Y-38351615D01*
X14100055Y-38312126D01*
X13960942Y-38197958D01*
X13846774Y-38058845D01*
X13766716Y-37909067D01*
X13761940Y-37900132D01*
X13717044Y-37752130D01*
X13709699Y-37727917D01*
X13692060Y-37548820D01*
X13709699Y-37369723D01*
X13761940Y-37197509D01*
X13761940Y-37197508D01*
X13846775Y-37038794D01*
X13960942Y-36899682D01*
X14100054Y-36785515D01*
X14100053Y-36785515D01*
X14100055Y-36785514D01*
X14173934Y-36746025D01*
X14258768Y-36700680D01*
X14316174Y-36683266D01*
X14430983Y-36648439D01*
X14498092Y-36641830D01*
X14565200Y-36635220D01*
X14654960Y-36635220D01*
X14722068Y-36641830D01*
X14722068Y-36641830D01*
G37*
G36*
X12182068Y-36641830D02*
X12249177Y-36648439D01*
X12363986Y-36683266D01*
X12421392Y-36700680D01*
X12506226Y-36746025D01*
X12580105Y-36785514D01*
X12580107Y-36785515D01*
X12580106Y-36785515D01*
X12719218Y-36899682D01*
X12833385Y-37038794D01*
X12918220Y-37197508D01*
X12918220Y-37197509D01*
X12970461Y-37369723D01*
X12988100Y-37548820D01*
X12970461Y-37727917D01*
X12963116Y-37752130D01*
X12918220Y-37900132D01*
X12913444Y-37909067D01*
X12833386Y-38058845D01*
X12719218Y-38197958D01*
X12580105Y-38312126D01*
X12506226Y-38351615D01*
X12421392Y-38396960D01*
X12363986Y-38414374D01*
X12249177Y-38449201D01*
X12182067Y-38455811D01*
X12114960Y-38462420D01*
X12025200Y-38462420D01*
X11958093Y-38455811D01*
X11890983Y-38449201D01*
X11776174Y-38414374D01*
X11718768Y-38396960D01*
X11633934Y-38351615D01*
X11560055Y-38312126D01*
X11420942Y-38197958D01*
X11306774Y-38058845D01*
X11226716Y-37909067D01*
X11221940Y-37900132D01*
X11177044Y-37752130D01*
X11169699Y-37727917D01*
X11152060Y-37548820D01*
X11169699Y-37369723D01*
X11221940Y-37197509D01*
X11221940Y-37197508D01*
X11306775Y-37038794D01*
X11420942Y-36899682D01*
X11560054Y-36785515D01*
X11560053Y-36785515D01*
X11560055Y-36785514D01*
X11633934Y-36746025D01*
X11718768Y-36700680D01*
X11776174Y-36683266D01*
X11890983Y-36648439D01*
X11958092Y-36641830D01*
X12025200Y-36635220D01*
X12114960Y-36635220D01*
X12182068Y-36641830D01*
X12182068Y-36641830D01*
G37*
G36*
X9642068Y-36641830D02*
X9709177Y-36648439D01*
X9823986Y-36683266D01*
X9881392Y-36700680D01*
X9966226Y-36746025D01*
X10040105Y-36785514D01*
X10040107Y-36785515D01*
X10040106Y-36785515D01*
X10179218Y-36899682D01*
X10293385Y-37038794D01*
X10378220Y-37197508D01*
X10378220Y-37197509D01*
X10430461Y-37369723D01*
X10448100Y-37548820D01*
X10430461Y-37727917D01*
X10423116Y-37752130D01*
X10378220Y-37900132D01*
X10373444Y-37909067D01*
X10293386Y-38058845D01*
X10179218Y-38197958D01*
X10040105Y-38312126D01*
X9966226Y-38351615D01*
X9881392Y-38396960D01*
X9823986Y-38414374D01*
X9709177Y-38449201D01*
X9642067Y-38455811D01*
X9574960Y-38462420D01*
X9485200Y-38462420D01*
X9418093Y-38455811D01*
X9350983Y-38449201D01*
X9236174Y-38414374D01*
X9178768Y-38396960D01*
X9093934Y-38351615D01*
X9020055Y-38312126D01*
X8880942Y-38197958D01*
X8766774Y-38058845D01*
X8686716Y-37909067D01*
X8681940Y-37900132D01*
X8637044Y-37752130D01*
X8629699Y-37727917D01*
X8612060Y-37548820D01*
X8629699Y-37369723D01*
X8681940Y-37197509D01*
X8681940Y-37197508D01*
X8766775Y-37038794D01*
X8880942Y-36899682D01*
X9020054Y-36785515D01*
X9020053Y-36785515D01*
X9020055Y-36785514D01*
X9093934Y-36746025D01*
X9178768Y-36700680D01*
X9236174Y-36683266D01*
X9350983Y-36648439D01*
X9418092Y-36641830D01*
X9485200Y-36635220D01*
X9574960Y-36635220D01*
X9642068Y-36641830D01*
X9642068Y-36641830D01*
G37*
G36*
X7102068Y-36641830D02*
X7169177Y-36648439D01*
X7283986Y-36683266D01*
X7341392Y-36700680D01*
X7426226Y-36746025D01*
X7500105Y-36785514D01*
X7500107Y-36785515D01*
X7500106Y-36785515D01*
X7639218Y-36899682D01*
X7753385Y-37038794D01*
X7838220Y-37197508D01*
X7838220Y-37197509D01*
X7890461Y-37369723D01*
X7908100Y-37548820D01*
X7890461Y-37727917D01*
X7883116Y-37752130D01*
X7838220Y-37900132D01*
X7833444Y-37909067D01*
X7753386Y-38058845D01*
X7639218Y-38197958D01*
X7500105Y-38312126D01*
X7426226Y-38351615D01*
X7341392Y-38396960D01*
X7283986Y-38414374D01*
X7169177Y-38449201D01*
X7102067Y-38455811D01*
X7034960Y-38462420D01*
X6945200Y-38462420D01*
X6878093Y-38455811D01*
X6810983Y-38449201D01*
X6696174Y-38414374D01*
X6638768Y-38396960D01*
X6553934Y-38351615D01*
X6480055Y-38312126D01*
X6340942Y-38197958D01*
X6226774Y-38058845D01*
X6146716Y-37909067D01*
X6141940Y-37900132D01*
X6097044Y-37752130D01*
X6089699Y-37727917D01*
X6072060Y-37548820D01*
X6089699Y-37369723D01*
X6141940Y-37197509D01*
X6141940Y-37197508D01*
X6226775Y-37038794D01*
X6340942Y-36899682D01*
X6480054Y-36785515D01*
X6480053Y-36785515D01*
X6480055Y-36785514D01*
X6553934Y-36746025D01*
X6638768Y-36700680D01*
X6696174Y-36683266D01*
X6810983Y-36648439D01*
X6878092Y-36641830D01*
X6945200Y-36635220D01*
X7034960Y-36635220D01*
X7102068Y-36641830D01*
X7102068Y-36641830D01*
G37*
G36*
X4562068Y-36641830D02*
X4629177Y-36648439D01*
X4743986Y-36683266D01*
X4801392Y-36700680D01*
X4886226Y-36746025D01*
X4960105Y-36785514D01*
X4960107Y-36785515D01*
X4960106Y-36785515D01*
X5099218Y-36899682D01*
X5213385Y-37038794D01*
X5298220Y-37197508D01*
X5298220Y-37197509D01*
X5350461Y-37369723D01*
X5368100Y-37548820D01*
X5350461Y-37727917D01*
X5343116Y-37752130D01*
X5298220Y-37900132D01*
X5293444Y-37909067D01*
X5213386Y-38058845D01*
X5099218Y-38197958D01*
X4960105Y-38312126D01*
X4886226Y-38351615D01*
X4801392Y-38396960D01*
X4743986Y-38414374D01*
X4629177Y-38449201D01*
X4562067Y-38455811D01*
X4494960Y-38462420D01*
X4405200Y-38462420D01*
X4338093Y-38455811D01*
X4270983Y-38449201D01*
X4156174Y-38414374D01*
X4098768Y-38396960D01*
X4013934Y-38351615D01*
X3940055Y-38312126D01*
X3800942Y-38197958D01*
X3686774Y-38058845D01*
X3606716Y-37909067D01*
X3601940Y-37900132D01*
X3557044Y-37752130D01*
X3549699Y-37727917D01*
X3532060Y-37548820D01*
X3549699Y-37369723D01*
X3601940Y-37197509D01*
X3601940Y-37197508D01*
X3686775Y-37038794D01*
X3800942Y-36899682D01*
X3940054Y-36785515D01*
X3940053Y-36785515D01*
X3940055Y-36785514D01*
X4013934Y-36746025D01*
X4098768Y-36700680D01*
X4156174Y-36683266D01*
X4270983Y-36648439D01*
X4338092Y-36641830D01*
X4405200Y-36635220D01*
X4494960Y-36635220D01*
X4562068Y-36641830D01*
X4562068Y-36641830D01*
G37*
G36*
X2022068Y-36641830D02*
X2089177Y-36648439D01*
X2203986Y-36683266D01*
X2261392Y-36700680D01*
X2346226Y-36746025D01*
X2420105Y-36785514D01*
X2420107Y-36785515D01*
X2420106Y-36785515D01*
X2559218Y-36899682D01*
X2673385Y-37038794D01*
X2758220Y-37197508D01*
X2758220Y-37197509D01*
X2810461Y-37369723D01*
X2828100Y-37548820D01*
X2810461Y-37727917D01*
X2803116Y-37752130D01*
X2758220Y-37900132D01*
X2753444Y-37909067D01*
X2673386Y-38058845D01*
X2559218Y-38197958D01*
X2420105Y-38312126D01*
X2346226Y-38351615D01*
X2261392Y-38396960D01*
X2203986Y-38414374D01*
X2089177Y-38449201D01*
X2022067Y-38455811D01*
X1954960Y-38462420D01*
X1865200Y-38462420D01*
X1798093Y-38455811D01*
X1730983Y-38449201D01*
X1616174Y-38414374D01*
X1558768Y-38396960D01*
X1473934Y-38351615D01*
X1400055Y-38312126D01*
X1260942Y-38197958D01*
X1146774Y-38058845D01*
X1066716Y-37909067D01*
X1061940Y-37900132D01*
X1017044Y-37752130D01*
X1009699Y-37727917D01*
X992060Y-37548820D01*
X1009699Y-37369723D01*
X1061940Y-37197509D01*
X1061940Y-37197508D01*
X1146775Y-37038794D01*
X1260942Y-36899682D01*
X1400054Y-36785515D01*
X1400053Y-36785515D01*
X1400055Y-36785514D01*
X1473934Y-36746025D01*
X1558768Y-36700680D01*
X1616174Y-36683266D01*
X1730983Y-36648439D01*
X1798092Y-36641830D01*
X1865200Y-36635220D01*
X1954960Y-36635220D01*
X2022068Y-36641830D01*
X2022068Y-36641830D01*
G37*
G36*
X-517932Y-36641830D02*
X-450823Y-36648439D01*
X-336014Y-36683266D01*
X-278608Y-36700680D01*
X-193774Y-36746025D01*
X-119895Y-36785514D01*
X-119893Y-36785515D01*
X-119894Y-36785515D01*
X19218Y-36899682D01*
X133385Y-37038794D01*
X218220Y-37197508D01*
X218220Y-37197509D01*
X270461Y-37369723D01*
X288100Y-37548820D01*
X270461Y-37727917D01*
X263116Y-37752130D01*
X218220Y-37900132D01*
X213444Y-37909067D01*
X133386Y-38058845D01*
X19218Y-38197958D01*
X-119895Y-38312126D01*
X-193774Y-38351615D01*
X-278608Y-38396960D01*
X-336014Y-38414374D01*
X-450823Y-38449201D01*
X-517933Y-38455811D01*
X-585040Y-38462420D01*
X-674800Y-38462420D01*
X-741907Y-38455811D01*
X-809017Y-38449201D01*
X-923826Y-38414374D01*
X-981232Y-38396960D01*
X-1066066Y-38351615D01*
X-1139945Y-38312126D01*
X-1279058Y-38197958D01*
X-1393226Y-38058845D01*
X-1473284Y-37909067D01*
X-1478060Y-37900132D01*
X-1522956Y-37752130D01*
X-1530301Y-37727917D01*
X-1547940Y-37548820D01*
X-1530301Y-37369723D01*
X-1478060Y-37197509D01*
X-1478060Y-37197508D01*
X-1393225Y-37038794D01*
X-1279058Y-36899682D01*
X-1139946Y-36785515D01*
X-1139947Y-36785515D01*
X-1139945Y-36785514D01*
X-1066066Y-36746025D01*
X-981232Y-36700680D01*
X-923826Y-36683266D01*
X-809017Y-36648439D01*
X-741908Y-36641830D01*
X-674800Y-36635220D01*
X-585040Y-36635220D01*
X-517932Y-36641830D01*
X-517932Y-36641830D01*
G37*
G36*
X-5597932Y-36641830D02*
X-5530823Y-36648439D01*
X-5416014Y-36683266D01*
X-5358608Y-36700680D01*
X-5273774Y-36746025D01*
X-5199895Y-36785514D01*
X-5199893Y-36785515D01*
X-5199894Y-36785515D01*
X-5060782Y-36899682D01*
X-4946615Y-37038794D01*
X-4861780Y-37197508D01*
X-4861780Y-37197509D01*
X-4809539Y-37369723D01*
X-4791900Y-37548820D01*
X-4809539Y-37727917D01*
X-4816884Y-37752130D01*
X-4861780Y-37900132D01*
X-4866556Y-37909067D01*
X-4946614Y-38058845D01*
X-5060782Y-38197958D01*
X-5199895Y-38312126D01*
X-5273774Y-38351615D01*
X-5358608Y-38396960D01*
X-5416014Y-38414374D01*
X-5530823Y-38449201D01*
X-5597933Y-38455811D01*
X-5665040Y-38462420D01*
X-5754800Y-38462420D01*
X-5821907Y-38455811D01*
X-5889017Y-38449201D01*
X-6003826Y-38414374D01*
X-6061232Y-38396960D01*
X-6146066Y-38351615D01*
X-6219945Y-38312126D01*
X-6359058Y-38197958D01*
X-6473226Y-38058845D01*
X-6553284Y-37909067D01*
X-6558060Y-37900132D01*
X-6602956Y-37752130D01*
X-6610301Y-37727917D01*
X-6627940Y-37548820D01*
X-6610301Y-37369723D01*
X-6558060Y-37197509D01*
X-6558060Y-37197508D01*
X-6473225Y-37038794D01*
X-6359058Y-36899682D01*
X-6219946Y-36785515D01*
X-6219947Y-36785515D01*
X-6219945Y-36785514D01*
X-6146066Y-36746025D01*
X-6061232Y-36700680D01*
X-6003826Y-36683266D01*
X-5889017Y-36648439D01*
X-5821908Y-36641830D01*
X-5754800Y-36635220D01*
X-5665040Y-36635220D01*
X-5597932Y-36641830D01*
X-5597932Y-36641830D01*
G37*
G36*
X121637200Y-34572358D02*
X121715610Y-34580081D01*
X121827252Y-34613948D01*
X121866522Y-34625860D01*
X122005596Y-34700196D01*
X122127498Y-34800240D01*
X122227542Y-34922142D01*
X122301878Y-35061216D01*
X122301879Y-35061220D01*
X122347657Y-35212128D01*
X122363114Y-35369067D01*
X122347657Y-35526006D01*
X122313790Y-35637648D01*
X122301878Y-35676918D01*
X122227542Y-35815992D01*
X122127498Y-35937894D01*
X122005596Y-36037938D01*
X121866522Y-36112274D01*
X121827252Y-36124186D01*
X121715610Y-36158053D01*
X121637200Y-36165776D01*
X121597996Y-36169637D01*
X120521126Y-36169637D01*
X120481922Y-36165776D01*
X120403512Y-36158053D01*
X120291870Y-36124186D01*
X120252600Y-36112274D01*
X120113526Y-36037938D01*
X119991624Y-35937894D01*
X119891580Y-35815992D01*
X119817244Y-35676918D01*
X119805332Y-35637648D01*
X119771465Y-35526006D01*
X119756008Y-35369067D01*
X119771465Y-35212128D01*
X119817243Y-35061220D01*
X119817244Y-35061216D01*
X119891580Y-34922142D01*
X119991624Y-34800240D01*
X120113526Y-34700196D01*
X120252600Y-34625860D01*
X120291870Y-34613948D01*
X120403512Y-34580081D01*
X120481922Y-34572358D01*
X120521126Y-34568497D01*
X121597996Y-34568497D01*
X121637200Y-34572358D01*
X121637200Y-34572358D01*
G37*
G36*
X12182067Y-34101829D02*
X12249177Y-34108439D01*
X12363986Y-34143266D01*
X12421392Y-34160680D01*
X12506226Y-34206025D01*
X12580105Y-34245514D01*
X12580107Y-34245515D01*
X12580106Y-34245515D01*
X12719218Y-34359682D01*
X12833385Y-34498794D01*
X12918220Y-34657508D01*
X12918220Y-34657509D01*
X12970461Y-34829723D01*
X12988100Y-35008820D01*
X12970461Y-35187917D01*
X12963116Y-35212130D01*
X12918220Y-35360132D01*
X12913444Y-35369067D01*
X12833386Y-35518845D01*
X12719218Y-35657958D01*
X12580105Y-35772126D01*
X12506226Y-35811615D01*
X12421392Y-35856960D01*
X12363986Y-35874374D01*
X12249177Y-35909201D01*
X12182068Y-35915810D01*
X12114960Y-35922420D01*
X12025200Y-35922420D01*
X11958092Y-35915810D01*
X11890983Y-35909201D01*
X11776174Y-35874374D01*
X11718768Y-35856960D01*
X11633934Y-35811615D01*
X11560055Y-35772126D01*
X11420942Y-35657958D01*
X11306774Y-35518845D01*
X11226716Y-35369067D01*
X11221940Y-35360132D01*
X11177044Y-35212130D01*
X11169699Y-35187917D01*
X11152060Y-35008820D01*
X11169699Y-34829723D01*
X11221940Y-34657509D01*
X11221940Y-34657508D01*
X11306775Y-34498794D01*
X11420942Y-34359682D01*
X11560054Y-34245515D01*
X11560053Y-34245515D01*
X11560055Y-34245514D01*
X11633934Y-34206025D01*
X11718768Y-34160680D01*
X11776174Y-34143266D01*
X11890983Y-34108439D01*
X11958093Y-34101829D01*
X12025200Y-34095220D01*
X12114960Y-34095220D01*
X12182067Y-34101829D01*
X12182067Y-34101829D01*
G37*
G36*
X14722067Y-34101829D02*
X14789177Y-34108439D01*
X14903986Y-34143266D01*
X14961392Y-34160680D01*
X15046226Y-34206025D01*
X15120105Y-34245514D01*
X15120107Y-34245515D01*
X15120106Y-34245515D01*
X15259218Y-34359682D01*
X15373385Y-34498794D01*
X15458220Y-34657508D01*
X15458220Y-34657509D01*
X15510461Y-34829723D01*
X15528100Y-35008820D01*
X15510461Y-35187917D01*
X15503116Y-35212130D01*
X15458220Y-35360132D01*
X15453444Y-35369067D01*
X15373386Y-35518845D01*
X15259218Y-35657958D01*
X15120105Y-35772126D01*
X15046226Y-35811615D01*
X14961392Y-35856960D01*
X14903986Y-35874374D01*
X14789177Y-35909201D01*
X14722068Y-35915810D01*
X14654960Y-35922420D01*
X14565200Y-35922420D01*
X14498092Y-35915810D01*
X14430983Y-35909201D01*
X14316174Y-35874374D01*
X14258768Y-35856960D01*
X14173934Y-35811615D01*
X14100055Y-35772126D01*
X13960942Y-35657958D01*
X13846774Y-35518845D01*
X13766716Y-35369067D01*
X13761940Y-35360132D01*
X13717044Y-35212130D01*
X13709699Y-35187917D01*
X13692060Y-35008820D01*
X13709699Y-34829723D01*
X13761940Y-34657509D01*
X13761940Y-34657508D01*
X13846775Y-34498794D01*
X13960942Y-34359682D01*
X14100054Y-34245515D01*
X14100053Y-34245515D01*
X14100055Y-34245514D01*
X14173934Y-34206025D01*
X14258768Y-34160680D01*
X14316174Y-34143266D01*
X14430983Y-34108439D01*
X14498093Y-34101829D01*
X14565200Y-34095220D01*
X14654960Y-34095220D01*
X14722067Y-34101829D01*
X14722067Y-34101829D01*
G37*
G36*
X18063680Y-35922420D02*
X16236480Y-35922420D01*
X16236480Y-34095220D01*
X18063680Y-34095220D01*
X18063680Y-35922420D01*
X18063680Y-35922420D01*
G37*
G36*
X-5597933Y-34101829D02*
X-5530823Y-34108439D01*
X-5416014Y-34143266D01*
X-5358608Y-34160680D01*
X-5273774Y-34206025D01*
X-5199895Y-34245514D01*
X-5199893Y-34245515D01*
X-5199894Y-34245515D01*
X-5060782Y-34359682D01*
X-4946615Y-34498794D01*
X-4861780Y-34657508D01*
X-4861780Y-34657509D01*
X-4809539Y-34829723D01*
X-4791900Y-35008820D01*
X-4809539Y-35187917D01*
X-4816884Y-35212130D01*
X-4861780Y-35360132D01*
X-4866556Y-35369067D01*
X-4946614Y-35518845D01*
X-5060782Y-35657958D01*
X-5199895Y-35772126D01*
X-5273774Y-35811615D01*
X-5358608Y-35856960D01*
X-5416014Y-35874374D01*
X-5530823Y-35909201D01*
X-5597932Y-35915810D01*
X-5665040Y-35922420D01*
X-5754800Y-35922420D01*
X-5821908Y-35915810D01*
X-5889017Y-35909201D01*
X-6003826Y-35874374D01*
X-6061232Y-35856960D01*
X-6146066Y-35811615D01*
X-6219945Y-35772126D01*
X-6359058Y-35657958D01*
X-6473226Y-35518845D01*
X-6553284Y-35369067D01*
X-6558060Y-35360132D01*
X-6602956Y-35212130D01*
X-6610301Y-35187917D01*
X-6627940Y-35008820D01*
X-6610301Y-34829723D01*
X-6558060Y-34657509D01*
X-6558060Y-34657508D01*
X-6473225Y-34498794D01*
X-6359058Y-34359682D01*
X-6219946Y-34245515D01*
X-6219947Y-34245515D01*
X-6219945Y-34245514D01*
X-6146066Y-34206025D01*
X-6061232Y-34160680D01*
X-6003826Y-34143266D01*
X-5889017Y-34108439D01*
X-5821907Y-34101829D01*
X-5754800Y-34095220D01*
X-5665040Y-34095220D01*
X-5597933Y-34101829D01*
X-5597933Y-34101829D01*
G37*
G36*
X9642067Y-34101829D02*
X9709177Y-34108439D01*
X9823986Y-34143266D01*
X9881392Y-34160680D01*
X9966226Y-34206025D01*
X10040105Y-34245514D01*
X10040107Y-34245515D01*
X10040106Y-34245515D01*
X10179218Y-34359682D01*
X10293385Y-34498794D01*
X10378220Y-34657508D01*
X10378220Y-34657509D01*
X10430461Y-34829723D01*
X10448100Y-35008820D01*
X10430461Y-35187917D01*
X10423116Y-35212130D01*
X10378220Y-35360132D01*
X10373444Y-35369067D01*
X10293386Y-35518845D01*
X10179218Y-35657958D01*
X10040105Y-35772126D01*
X9966226Y-35811615D01*
X9881392Y-35856960D01*
X9823986Y-35874374D01*
X9709177Y-35909201D01*
X9642068Y-35915810D01*
X9574960Y-35922420D01*
X9485200Y-35922420D01*
X9418092Y-35915810D01*
X9350983Y-35909201D01*
X9236174Y-35874374D01*
X9178768Y-35856960D01*
X9093934Y-35811615D01*
X9020055Y-35772126D01*
X8880942Y-35657958D01*
X8766774Y-35518845D01*
X8686716Y-35369067D01*
X8681940Y-35360132D01*
X8637044Y-35212130D01*
X8629699Y-35187917D01*
X8612060Y-35008820D01*
X8629699Y-34829723D01*
X8681940Y-34657509D01*
X8681940Y-34657508D01*
X8766775Y-34498794D01*
X8880942Y-34359682D01*
X9020054Y-34245515D01*
X9020053Y-34245515D01*
X9020055Y-34245514D01*
X9093934Y-34206025D01*
X9178768Y-34160680D01*
X9236174Y-34143266D01*
X9350983Y-34108439D01*
X9418093Y-34101829D01*
X9485200Y-34095220D01*
X9574960Y-34095220D01*
X9642067Y-34101829D01*
X9642067Y-34101829D01*
G37*
G36*
X-3057933Y-34101829D02*
X-2990823Y-34108439D01*
X-2876014Y-34143266D01*
X-2818608Y-34160680D01*
X-2733774Y-34206025D01*
X-2659895Y-34245514D01*
X-2659893Y-34245515D01*
X-2659894Y-34245515D01*
X-2520782Y-34359682D01*
X-2406615Y-34498794D01*
X-2321780Y-34657508D01*
X-2321780Y-34657509D01*
X-2269539Y-34829723D01*
X-2251900Y-35008820D01*
X-2269539Y-35187917D01*
X-2276884Y-35212130D01*
X-2321780Y-35360132D01*
X-2326556Y-35369067D01*
X-2406614Y-35518845D01*
X-2520782Y-35657958D01*
X-2659895Y-35772126D01*
X-2733774Y-35811615D01*
X-2818608Y-35856960D01*
X-2876014Y-35874374D01*
X-2990823Y-35909201D01*
X-3057932Y-35915810D01*
X-3125040Y-35922420D01*
X-3214800Y-35922420D01*
X-3281908Y-35915810D01*
X-3349017Y-35909201D01*
X-3463826Y-35874374D01*
X-3521232Y-35856960D01*
X-3606066Y-35811615D01*
X-3679945Y-35772126D01*
X-3819058Y-35657958D01*
X-3933226Y-35518845D01*
X-4013284Y-35369067D01*
X-4018060Y-35360132D01*
X-4062956Y-35212130D01*
X-4070301Y-35187917D01*
X-4087940Y-35008820D01*
X-4070301Y-34829723D01*
X-4018060Y-34657509D01*
X-4018060Y-34657508D01*
X-3933225Y-34498794D01*
X-3819058Y-34359682D01*
X-3679946Y-34245515D01*
X-3679947Y-34245515D01*
X-3679945Y-34245514D01*
X-3606066Y-34206025D01*
X-3521232Y-34160680D01*
X-3463826Y-34143266D01*
X-3349017Y-34108439D01*
X-3281907Y-34101829D01*
X-3214800Y-34095220D01*
X-3125040Y-34095220D01*
X-3057933Y-34101829D01*
X-3057933Y-34101829D01*
G37*
G36*
X7102067Y-34101829D02*
X7169177Y-34108439D01*
X7283986Y-34143266D01*
X7341392Y-34160680D01*
X7426226Y-34206025D01*
X7500105Y-34245514D01*
X7500107Y-34245515D01*
X7500106Y-34245515D01*
X7639218Y-34359682D01*
X7753385Y-34498794D01*
X7838220Y-34657508D01*
X7838220Y-34657509D01*
X7890461Y-34829723D01*
X7908100Y-35008820D01*
X7890461Y-35187917D01*
X7883116Y-35212130D01*
X7838220Y-35360132D01*
X7833444Y-35369067D01*
X7753386Y-35518845D01*
X7639218Y-35657958D01*
X7500105Y-35772126D01*
X7426226Y-35811615D01*
X7341392Y-35856960D01*
X7283986Y-35874374D01*
X7169177Y-35909201D01*
X7102068Y-35915810D01*
X7034960Y-35922420D01*
X6945200Y-35922420D01*
X6878092Y-35915810D01*
X6810983Y-35909201D01*
X6696174Y-35874374D01*
X6638768Y-35856960D01*
X6553934Y-35811615D01*
X6480055Y-35772126D01*
X6340942Y-35657958D01*
X6226774Y-35518845D01*
X6146716Y-35369067D01*
X6141940Y-35360132D01*
X6097044Y-35212130D01*
X6089699Y-35187917D01*
X6072060Y-35008820D01*
X6089699Y-34829723D01*
X6141940Y-34657509D01*
X6141940Y-34657508D01*
X6226775Y-34498794D01*
X6340942Y-34359682D01*
X6480054Y-34245515D01*
X6480053Y-34245515D01*
X6480055Y-34245514D01*
X6553934Y-34206025D01*
X6638768Y-34160680D01*
X6696174Y-34143266D01*
X6810983Y-34108439D01*
X6878093Y-34101829D01*
X6945200Y-34095220D01*
X7034960Y-34095220D01*
X7102067Y-34101829D01*
X7102067Y-34101829D01*
G37*
G36*
X2022067Y-34101829D02*
X2089177Y-34108439D01*
X2203986Y-34143266D01*
X2261392Y-34160680D01*
X2346226Y-34206025D01*
X2420105Y-34245514D01*
X2420107Y-34245515D01*
X2420106Y-34245515D01*
X2559218Y-34359682D01*
X2673385Y-34498794D01*
X2758220Y-34657508D01*
X2758220Y-34657509D01*
X2810461Y-34829723D01*
X2828100Y-35008820D01*
X2810461Y-35187917D01*
X2803116Y-35212130D01*
X2758220Y-35360132D01*
X2753444Y-35369067D01*
X2673386Y-35518845D01*
X2559218Y-35657958D01*
X2420105Y-35772126D01*
X2346226Y-35811615D01*
X2261392Y-35856960D01*
X2203986Y-35874374D01*
X2089177Y-35909201D01*
X2022068Y-35915810D01*
X1954960Y-35922420D01*
X1865200Y-35922420D01*
X1798092Y-35915810D01*
X1730983Y-35909201D01*
X1616174Y-35874374D01*
X1558768Y-35856960D01*
X1473934Y-35811615D01*
X1400055Y-35772126D01*
X1260942Y-35657958D01*
X1146774Y-35518845D01*
X1066716Y-35369067D01*
X1061940Y-35360132D01*
X1017044Y-35212130D01*
X1009699Y-35187917D01*
X992060Y-35008820D01*
X1009699Y-34829723D01*
X1061940Y-34657509D01*
X1061940Y-34657508D01*
X1146775Y-34498794D01*
X1260942Y-34359682D01*
X1400054Y-34245515D01*
X1400053Y-34245515D01*
X1400055Y-34245514D01*
X1473934Y-34206025D01*
X1558768Y-34160680D01*
X1616174Y-34143266D01*
X1730983Y-34108439D01*
X1798093Y-34101829D01*
X1865200Y-34095220D01*
X1954960Y-34095220D01*
X2022067Y-34101829D01*
X2022067Y-34101829D01*
G37*
G36*
X4562067Y-34101829D02*
X4629177Y-34108439D01*
X4743986Y-34143266D01*
X4801392Y-34160680D01*
X4886226Y-34206025D01*
X4960105Y-34245514D01*
X4960107Y-34245515D01*
X4960106Y-34245515D01*
X5099218Y-34359682D01*
X5213385Y-34498794D01*
X5298220Y-34657508D01*
X5298220Y-34657509D01*
X5350461Y-34829723D01*
X5368100Y-35008820D01*
X5350461Y-35187917D01*
X5343116Y-35212130D01*
X5298220Y-35360132D01*
X5293444Y-35369067D01*
X5213386Y-35518845D01*
X5099218Y-35657958D01*
X4960105Y-35772126D01*
X4886226Y-35811615D01*
X4801392Y-35856960D01*
X4743986Y-35874374D01*
X4629177Y-35909201D01*
X4562068Y-35915810D01*
X4494960Y-35922420D01*
X4405200Y-35922420D01*
X4338092Y-35915810D01*
X4270983Y-35909201D01*
X4156174Y-35874374D01*
X4098768Y-35856960D01*
X4013934Y-35811615D01*
X3940055Y-35772126D01*
X3800942Y-35657958D01*
X3686774Y-35518845D01*
X3606716Y-35369067D01*
X3601940Y-35360132D01*
X3557044Y-35212130D01*
X3549699Y-35187917D01*
X3532060Y-35008820D01*
X3549699Y-34829723D01*
X3601940Y-34657509D01*
X3601940Y-34657508D01*
X3686775Y-34498794D01*
X3800942Y-34359682D01*
X3940054Y-34245515D01*
X3940053Y-34245515D01*
X3940055Y-34245514D01*
X4013934Y-34206025D01*
X4098768Y-34160680D01*
X4156174Y-34143266D01*
X4270983Y-34108439D01*
X4338093Y-34101829D01*
X4405200Y-34095220D01*
X4494960Y-34095220D01*
X4562067Y-34101829D01*
X4562067Y-34101829D01*
G37*
G36*
X-517933Y-34101829D02*
X-450823Y-34108439D01*
X-336014Y-34143266D01*
X-278608Y-34160680D01*
X-193774Y-34206025D01*
X-119895Y-34245514D01*
X-119893Y-34245515D01*
X-119894Y-34245515D01*
X19218Y-34359682D01*
X133385Y-34498794D01*
X218220Y-34657508D01*
X218220Y-34657509D01*
X270461Y-34829723D01*
X288100Y-35008820D01*
X270461Y-35187917D01*
X263116Y-35212130D01*
X218220Y-35360132D01*
X213444Y-35369067D01*
X133386Y-35518845D01*
X19218Y-35657958D01*
X-119895Y-35772126D01*
X-193774Y-35811615D01*
X-278608Y-35856960D01*
X-336014Y-35874374D01*
X-450823Y-35909201D01*
X-517932Y-35915810D01*
X-585040Y-35922420D01*
X-674800Y-35922420D01*
X-741908Y-35915810D01*
X-809017Y-35909201D01*
X-923826Y-35874374D01*
X-981232Y-35856960D01*
X-1066066Y-35811615D01*
X-1139945Y-35772126D01*
X-1279058Y-35657958D01*
X-1393226Y-35518845D01*
X-1473284Y-35369067D01*
X-1478060Y-35360132D01*
X-1522956Y-35212130D01*
X-1530301Y-35187917D01*
X-1547940Y-35008820D01*
X-1530301Y-34829723D01*
X-1478060Y-34657509D01*
X-1478060Y-34657508D01*
X-1393225Y-34498794D01*
X-1279058Y-34359682D01*
X-1139946Y-34245515D01*
X-1139947Y-34245515D01*
X-1139945Y-34245514D01*
X-1066066Y-34206025D01*
X-981232Y-34160680D01*
X-923826Y-34143266D01*
X-809017Y-34108439D01*
X-741907Y-34101829D01*
X-674800Y-34095220D01*
X-585040Y-34095220D01*
X-517933Y-34101829D01*
X-517933Y-34101829D01*
G37*
G36*
X121637200Y-32032358D02*
X121715610Y-32040081D01*
X121827252Y-32073948D01*
X121866522Y-32085860D01*
X122005596Y-32160196D01*
X122127498Y-32260240D01*
X122227542Y-32382142D01*
X122301878Y-32521216D01*
X122301879Y-32521220D01*
X122347657Y-32672128D01*
X122363114Y-32829067D01*
X122347657Y-32986006D01*
X122313790Y-33097648D01*
X122301878Y-33136918D01*
X122227542Y-33275992D01*
X122127498Y-33397894D01*
X122005596Y-33497938D01*
X121866522Y-33572274D01*
X121827252Y-33584186D01*
X121715610Y-33618053D01*
X121637200Y-33625776D01*
X121597996Y-33629637D01*
X120521126Y-33629637D01*
X120481922Y-33625776D01*
X120403512Y-33618053D01*
X120291870Y-33584186D01*
X120252600Y-33572274D01*
X120113526Y-33497938D01*
X119991624Y-33397894D01*
X119891580Y-33275992D01*
X119817244Y-33136918D01*
X119805332Y-33097648D01*
X119771465Y-32986006D01*
X119756008Y-32829067D01*
X119771465Y-32672128D01*
X119817243Y-32521220D01*
X119817244Y-32521216D01*
X119891580Y-32382142D01*
X119991624Y-32260240D01*
X120113526Y-32160196D01*
X120252600Y-32085860D01*
X120291870Y-32073948D01*
X120403512Y-32040081D01*
X120481922Y-32032358D01*
X120521126Y-32028497D01*
X121597996Y-32028497D01*
X121637200Y-32032358D01*
X121637200Y-32032358D01*
G37*
G36*
X-7837600Y-29243860D02*
X-9637600Y-29243860D01*
X-9637600Y-27443860D01*
X-7837600Y-27443860D01*
X-7837600Y-29243860D01*
X-7837600Y-29243860D01*
G37*
G36*
X-8561168Y-24916882D02*
X-8391519Y-24968345D01*
X-8235167Y-25051916D01*
X-8098125Y-25164385D01*
X-7985656Y-25301427D01*
X-7902085Y-25457779D01*
X-7850622Y-25627428D01*
X-7833246Y-25803860D01*
X-7850622Y-25980292D01*
X-7902085Y-26149941D01*
X-7985656Y-26306293D01*
X-8098125Y-26443335D01*
X-8235167Y-26555804D01*
X-8391519Y-26639375D01*
X-8561168Y-26690838D01*
X-8693389Y-26703860D01*
X-8781811Y-26703860D01*
X-8914032Y-26690838D01*
X-9083681Y-26639375D01*
X-9240033Y-26555804D01*
X-9377075Y-26443335D01*
X-9489544Y-26306293D01*
X-9573115Y-26149941D01*
X-9624578Y-25980292D01*
X-9641954Y-25803860D01*
X-9624578Y-25627428D01*
X-9573115Y-25457779D01*
X-9489544Y-25301427D01*
X-9377075Y-25164385D01*
X-9240033Y-25051916D01*
X-9083681Y-24968345D01*
X-8914032Y-24916882D01*
X-8781811Y-24903860D01*
X-8693389Y-24903860D01*
X-8561168Y-24916882D01*
X-8561168Y-24916882D01*
G37*
G36*
X149855052Y-24238677D02*
X150082536Y-24332904D01*
X150287271Y-24469704D01*
X150461376Y-24643809D01*
X150598176Y-24848544D01*
X150692403Y-25076028D01*
X150740440Y-25317525D01*
X150740440Y-25563755D01*
X150692403Y-25805252D01*
X150598176Y-26032736D01*
X150461376Y-26237471D01*
X150287271Y-26411576D01*
X150082536Y-26548376D01*
X149855052Y-26642603D01*
X149613555Y-26690640D01*
X149367325Y-26690640D01*
X149125828Y-26642603D01*
X148898344Y-26548376D01*
X148693609Y-26411576D01*
X148519504Y-26237471D01*
X148382704Y-26032736D01*
X148288477Y-25805252D01*
X148240440Y-25563755D01*
X148240440Y-25317525D01*
X148288477Y-25076028D01*
X148382704Y-24848544D01*
X148519504Y-24643809D01*
X148693609Y-24469704D01*
X148898344Y-24332904D01*
X149125828Y-24238677D01*
X149367325Y-24190640D01*
X149613555Y-24190640D01*
X149855052Y-24238677D01*
X149855052Y-24238677D01*
G37*
G36*
X145740440Y-26690640D02*
X143240440Y-26690640D01*
X143240440Y-24190640D01*
X145740440Y-24190640D01*
X145740440Y-26690640D01*
X145740440Y-26690640D01*
G37*
G36*
X-8561168Y-22376882D02*
X-8391519Y-22428345D01*
X-8235167Y-22511916D01*
X-8098125Y-22624385D01*
X-7985656Y-22761427D01*
X-7902085Y-22917779D01*
X-7850622Y-23087428D01*
X-7833246Y-23263860D01*
X-7850622Y-23440292D01*
X-7902085Y-23609941D01*
X-7985656Y-23766293D01*
X-8098125Y-23903335D01*
X-8235167Y-24015804D01*
X-8391519Y-24099375D01*
X-8561168Y-24150838D01*
X-8693389Y-24163860D01*
X-8781811Y-24163860D01*
X-8914032Y-24150838D01*
X-9083681Y-24099375D01*
X-9240033Y-24015804D01*
X-9377075Y-23903335D01*
X-9489544Y-23766293D01*
X-9573115Y-23609941D01*
X-9624578Y-23440292D01*
X-9641954Y-23263860D01*
X-9624578Y-23087428D01*
X-9573115Y-22917779D01*
X-9489544Y-22761427D01*
X-9377075Y-22624385D01*
X-9240033Y-22511916D01*
X-9083681Y-22428345D01*
X-8914032Y-22376882D01*
X-8781811Y-22363860D01*
X-8693389Y-22363860D01*
X-8561168Y-22376882D01*
X-8561168Y-22376882D01*
G37*
G36*
X127662051Y-19036227D02*
X127799705Y-19063608D01*
X127972594Y-19135221D01*
X128128190Y-19239187D01*
X128260513Y-19371510D01*
X128364479Y-19527106D01*
X128436092Y-19699995D01*
X128472600Y-19883533D01*
X128472600Y-20070667D01*
X128436092Y-20254205D01*
X128364479Y-20427094D01*
X128260513Y-20582690D01*
X128128190Y-20715013D01*
X127972594Y-20818979D01*
X127799705Y-20890592D01*
X127662052Y-20917973D01*
X127616168Y-20927100D01*
X127429032Y-20927100D01*
X127383149Y-20917973D01*
X127245495Y-20890592D01*
X127072606Y-20818979D01*
X126917010Y-20715013D01*
X126784687Y-20582690D01*
X126680721Y-20427094D01*
X126609108Y-20254205D01*
X126572600Y-20070667D01*
X126572600Y-19883533D01*
X126609108Y-19699995D01*
X126680721Y-19527106D01*
X126784687Y-19371510D01*
X126917010Y-19239187D01*
X127072606Y-19135221D01*
X127245495Y-19063608D01*
X127383149Y-19036227D01*
X127429032Y-19027100D01*
X127616168Y-19027100D01*
X127662051Y-19036227D01*
X127662051Y-19036227D01*
G37*
G36*
X130972600Y-20927100D02*
X129072600Y-20927100D01*
X129072600Y-19027100D01*
X130972600Y-19027100D01*
X130972600Y-20927100D01*
X130972600Y-20927100D01*
G37*
G36*
X93700857Y-13922748D02*
X93878296Y-13996246D01*
X94037987Y-14102948D01*
X94173792Y-14238753D01*
X94280494Y-14398444D01*
X94353992Y-14575883D01*
X94391460Y-14764251D01*
X94391460Y-14956309D01*
X94353992Y-15144677D01*
X94280494Y-15322116D01*
X94173792Y-15481807D01*
X94037987Y-15617612D01*
X93878296Y-15724314D01*
X93700857Y-15797812D01*
X93512489Y-15835280D01*
X93320431Y-15835280D01*
X93132063Y-15797812D01*
X92954624Y-15724314D01*
X92794933Y-15617612D01*
X92659128Y-15481807D01*
X92552426Y-15322116D01*
X92478928Y-15144677D01*
X92441460Y-14956309D01*
X92441460Y-14764251D01*
X92478928Y-14575883D01*
X92552426Y-14398444D01*
X92659128Y-14238753D01*
X92794933Y-14102948D01*
X92954624Y-13996246D01*
X93132063Y-13922748D01*
X93320431Y-13885280D01*
X93512489Y-13885280D01*
X93700857Y-13922748D01*
X93700857Y-13922748D01*
G37*
G36*
X99140857Y-13922748D02*
X99318296Y-13996246D01*
X99477987Y-14102948D01*
X99613792Y-14238753D01*
X99720494Y-14398444D01*
X99793992Y-14575883D01*
X99831460Y-14764251D01*
X99831460Y-14956309D01*
X99793992Y-15144677D01*
X99720494Y-15322116D01*
X99613792Y-15481807D01*
X99477987Y-15617612D01*
X99318296Y-15724314D01*
X99140857Y-15797812D01*
X98952489Y-15835280D01*
X98760431Y-15835280D01*
X98572063Y-15797812D01*
X98394624Y-15724314D01*
X98234933Y-15617612D01*
X98099128Y-15481807D01*
X97992426Y-15322116D01*
X97918928Y-15144677D01*
X97881460Y-14956309D01*
X97881460Y-14764251D01*
X97918928Y-14575883D01*
X97992426Y-14398444D01*
X98099128Y-14238753D01*
X98234933Y-14102948D01*
X98394624Y-13996246D01*
X98572063Y-13922748D01*
X98760431Y-13885280D01*
X98952489Y-13885280D01*
X99140857Y-13922748D01*
X99140857Y-13922748D01*
G37*
G36*
X96304238Y-13746804D02*
X96387313Y-13763329D01*
X96543823Y-13828158D01*
X96614250Y-13875216D01*
X96684680Y-13922276D01*
X96804464Y-14042060D01*
X96804465Y-14042062D01*
X96898582Y-14182917D01*
X96963411Y-14339427D01*
X96979935Y-14422502D01*
X96996460Y-14505576D01*
X96996460Y-14674984D01*
X96963411Y-14841132D01*
X96898583Y-14997641D01*
X96804464Y-15138500D01*
X96684680Y-15258284D01*
X96614251Y-15305343D01*
X96543823Y-15352402D01*
X96387313Y-15417231D01*
X96304238Y-15433756D01*
X96221164Y-15450280D01*
X96051756Y-15450280D01*
X95968682Y-15433756D01*
X95885607Y-15417231D01*
X95729097Y-15352402D01*
X95658669Y-15305343D01*
X95588240Y-15258284D01*
X95468456Y-15138500D01*
X95374337Y-14997641D01*
X95309509Y-14841132D01*
X95276460Y-14674984D01*
X95276460Y-14505576D01*
X95292985Y-14422502D01*
X95309509Y-14339427D01*
X95374338Y-14182917D01*
X95468455Y-14042062D01*
X95468456Y-14042060D01*
X95588240Y-13922276D01*
X95658670Y-13875216D01*
X95729097Y-13828158D01*
X95885607Y-13763329D01*
X95968682Y-13746804D01*
X96051756Y-13730280D01*
X96221164Y-13730280D01*
X96304238Y-13746804D01*
X96304238Y-13746804D01*
G37*
G36*
X15879405Y-10424383D02*
X16012950Y-10464894D01*
X16136028Y-10530680D01*
X16243906Y-10619214D01*
X16332440Y-10727092D01*
X16398226Y-10850170D01*
X16438737Y-10983715D01*
X16453020Y-11128740D01*
X16453020Y-12791460D01*
X16438737Y-12936485D01*
X16398226Y-13070030D01*
X16332440Y-13193108D01*
X16243906Y-13300986D01*
X16136028Y-13389520D01*
X16012950Y-13455306D01*
X15879405Y-13495817D01*
X15734380Y-13510100D01*
X12271660Y-13510100D01*
X12126635Y-13495817D01*
X11993090Y-13455306D01*
X11870012Y-13389520D01*
X11762134Y-13300986D01*
X11673600Y-13193108D01*
X11607814Y-13070030D01*
X11567303Y-12936485D01*
X11553020Y-12791460D01*
X11553020Y-11128740D01*
X11567303Y-10983715D01*
X11607814Y-10850170D01*
X11673600Y-10727092D01*
X11762134Y-10619214D01*
X11870012Y-10530680D01*
X11993090Y-10464894D01*
X12126635Y-10424383D01*
X12271660Y-10410100D01*
X15734380Y-10410100D01*
X15879405Y-10424383D01*
X15879405Y-10424383D01*
G37*
G36*
X96304238Y-11746804D02*
X96387313Y-11763329D01*
X96543823Y-11828158D01*
X96614250Y-11875216D01*
X96684680Y-11922276D01*
X96804464Y-12042060D01*
X96898583Y-12182919D01*
X96963411Y-12339428D01*
X96996460Y-12505576D01*
X96996460Y-12674984D01*
X96963411Y-12841132D01*
X96898583Y-12997641D01*
X96804464Y-13138500D01*
X96684680Y-13258284D01*
X96647528Y-13283108D01*
X96543823Y-13352402D01*
X96387313Y-13417231D01*
X96304238Y-13433755D01*
X96221164Y-13450280D01*
X96051756Y-13450280D01*
X95968682Y-13433755D01*
X95885607Y-13417231D01*
X95729097Y-13352402D01*
X95625392Y-13283108D01*
X95588240Y-13258284D01*
X95468456Y-13138500D01*
X95374337Y-12997641D01*
X95309509Y-12841132D01*
X95276460Y-12674984D01*
X95276460Y-12505576D01*
X95309509Y-12339428D01*
X95374337Y-12182919D01*
X95468456Y-12042060D01*
X95588240Y-11922276D01*
X95658670Y-11875216D01*
X95729097Y-11828158D01*
X95885607Y-11763329D01*
X95968682Y-11746805D01*
X96051756Y-11730280D01*
X96221164Y-11730280D01*
X96304238Y-11746804D01*
X96304238Y-11746804D01*
G37*
G36*
X56364766Y-9857655D02*
X56583152Y-9948113D01*
X56779698Y-10079441D01*
X56946839Y-10246582D01*
X57078167Y-10443128D01*
X57168625Y-10661514D01*
X57214740Y-10893349D01*
X57214740Y-11129731D01*
X57168625Y-11361566D01*
X57078167Y-11579952D01*
X56946839Y-11776498D01*
X56779698Y-11943639D01*
X56583152Y-12074967D01*
X56364766Y-12165425D01*
X56132931Y-12211540D01*
X55896549Y-12211540D01*
X55664714Y-12165425D01*
X55446328Y-12074967D01*
X55249782Y-11943639D01*
X55082641Y-11776498D01*
X54951313Y-11579952D01*
X54860855Y-11361566D01*
X54814740Y-11129731D01*
X54814740Y-10893349D01*
X54860855Y-10661514D01*
X54951313Y-10443128D01*
X55082641Y-10246582D01*
X55249782Y-10079441D01*
X55446328Y-9948113D01*
X55664714Y-9857655D01*
X55896549Y-9811540D01*
X56132931Y-9811540D01*
X56364766Y-9857655D01*
X56364766Y-9857655D01*
G37*
G36*
X25360746Y-9857655D02*
X25579132Y-9948113D01*
X25775678Y-10079441D01*
X25942819Y-10246582D01*
X26074147Y-10443128D01*
X26164605Y-10661514D01*
X26210720Y-10893349D01*
X26210720Y-11129731D01*
X26164605Y-11361566D01*
X26074147Y-11579952D01*
X25942819Y-11776498D01*
X25775678Y-11943639D01*
X25579132Y-12074967D01*
X25360746Y-12165425D01*
X25128911Y-12211540D01*
X24892529Y-12211540D01*
X24660694Y-12165425D01*
X24442308Y-12074967D01*
X24245762Y-11943639D01*
X24078621Y-11776498D01*
X23947293Y-11579952D01*
X23856835Y-11361566D01*
X23810720Y-11129731D01*
X23810720Y-10893349D01*
X23856835Y-10661514D01*
X23947293Y-10443128D01*
X24078621Y-10246582D01*
X24245762Y-10079441D01*
X24442308Y-9948113D01*
X24660694Y-9857655D01*
X24892529Y-9811540D01*
X25128911Y-9811540D01*
X25360746Y-9857655D01*
X25360746Y-9857655D01*
G37*
G36*
X35360746Y-9857655D02*
X35579132Y-9948113D01*
X35775678Y-10079441D01*
X35942819Y-10246582D01*
X36074147Y-10443128D01*
X36164605Y-10661514D01*
X36210720Y-10893349D01*
X36210720Y-11129731D01*
X36164605Y-11361566D01*
X36074147Y-11579952D01*
X35942819Y-11776498D01*
X35775678Y-11943639D01*
X35579132Y-12074967D01*
X35360746Y-12165425D01*
X35128911Y-12211540D01*
X34892529Y-12211540D01*
X34660694Y-12165425D01*
X34442308Y-12074967D01*
X34245762Y-11943639D01*
X34078621Y-11776498D01*
X33947293Y-11579952D01*
X33856835Y-11361566D01*
X33810720Y-11129731D01*
X33810720Y-10893349D01*
X33856835Y-10661514D01*
X33947293Y-10443128D01*
X34078621Y-10246582D01*
X34245762Y-10079441D01*
X34442308Y-9948113D01*
X34660694Y-9857655D01*
X34892529Y-9811540D01*
X35128911Y-9811540D01*
X35360746Y-9857655D01*
X35360746Y-9857655D01*
G37*
G36*
X46364766Y-9857655D02*
X46583152Y-9948113D01*
X46779698Y-10079441D01*
X46946839Y-10246582D01*
X47078167Y-10443128D01*
X47168625Y-10661514D01*
X47214740Y-10893349D01*
X47214740Y-11129731D01*
X47168625Y-11361566D01*
X47078167Y-11579952D01*
X46946839Y-11776498D01*
X46779698Y-11943639D01*
X46583152Y-12074967D01*
X46364766Y-12165425D01*
X46132931Y-12211540D01*
X45896549Y-12211540D01*
X45664714Y-12165425D01*
X45446328Y-12074967D01*
X45249782Y-11943639D01*
X45082641Y-11776498D01*
X44951313Y-11579952D01*
X44860855Y-11361566D01*
X44814740Y-11129731D01*
X44814740Y-10893349D01*
X44860855Y-10661514D01*
X44951313Y-10443128D01*
X45082641Y-10246582D01*
X45249782Y-10079441D01*
X45446328Y-9948113D01*
X45664714Y-9857655D01*
X45896549Y-9811540D01*
X46132931Y-9811540D01*
X46364766Y-9857655D01*
X46364766Y-9857655D01*
G37*
G36*
X9779405Y-7024383D02*
X9912950Y-7064894D01*
X10036028Y-7130680D01*
X10143906Y-7219214D01*
X10232440Y-7327092D01*
X10298226Y-7450170D01*
X10338737Y-7583715D01*
X10353020Y-7728740D01*
X10353020Y-11191460D01*
X10338737Y-11336485D01*
X10298226Y-11470030D01*
X10232440Y-11593108D01*
X10143906Y-11700986D01*
X10036028Y-11789520D01*
X9912950Y-11855306D01*
X9779405Y-11895817D01*
X9634380Y-11910100D01*
X7971660Y-11910100D01*
X7826635Y-11895817D01*
X7693090Y-11855306D01*
X7570012Y-11789520D01*
X7462134Y-11700986D01*
X7373600Y-11593108D01*
X7307814Y-11470030D01*
X7267303Y-11336485D01*
X7253020Y-11191460D01*
X7253020Y-7728740D01*
X7267303Y-7583715D01*
X7307814Y-7450170D01*
X7373600Y-7327092D01*
X7462134Y-7219214D01*
X7570012Y-7130680D01*
X7693090Y-7064894D01*
X7826635Y-7024383D01*
X7971660Y-7010100D01*
X9634380Y-7010100D01*
X9779405Y-7024383D01*
X9779405Y-7024383D01*
G37*
G36*
X96304238Y-9746805D02*
X96387313Y-9763329D01*
X96543823Y-9828158D01*
X96614251Y-9875217D01*
X96684680Y-9922276D01*
X96804464Y-10042060D01*
X96804465Y-10042062D01*
X96898582Y-10182917D01*
X96963411Y-10339427D01*
X96996460Y-10505577D01*
X96996460Y-10674983D01*
X96963411Y-10841133D01*
X96941782Y-10893349D01*
X96898583Y-10997641D01*
X96804464Y-11138500D01*
X96684680Y-11258284D01*
X96614250Y-11305344D01*
X96543823Y-11352402D01*
X96543822Y-11352403D01*
X96543821Y-11352403D01*
X96521697Y-11361567D01*
X96387313Y-11417231D01*
X96314672Y-11431680D01*
X96221164Y-11450280D01*
X96051756Y-11450280D01*
X95958248Y-11431680D01*
X95885607Y-11417231D01*
X95751223Y-11361567D01*
X95729099Y-11352403D01*
X95729098Y-11352403D01*
X95729097Y-11352402D01*
X95658669Y-11305343D01*
X95588240Y-11258284D01*
X95468456Y-11138500D01*
X95374337Y-10997641D01*
X95331138Y-10893349D01*
X95309509Y-10841133D01*
X95276460Y-10674983D01*
X95276460Y-10505577D01*
X95309509Y-10339427D01*
X95374338Y-10182917D01*
X95468455Y-10042062D01*
X95468456Y-10042060D01*
X95588240Y-9922276D01*
X95658669Y-9875217D01*
X95729097Y-9828158D01*
X95885607Y-9763329D01*
X95968682Y-9746805D01*
X96051756Y-9730280D01*
X96221164Y-9730280D01*
X96304238Y-9746805D01*
X96304238Y-9746805D01*
G37*
G36*
X58864766Y-7357655D02*
X59083152Y-7448113D01*
X59279698Y-7579441D01*
X59446839Y-7746582D01*
X59578167Y-7943128D01*
X59668625Y-8161514D01*
X59714740Y-8393349D01*
X59714740Y-8629731D01*
X59668625Y-8861566D01*
X59578167Y-9079952D01*
X59446839Y-9276498D01*
X59279698Y-9443639D01*
X59083152Y-9574967D01*
X58864766Y-9665425D01*
X58632931Y-9711540D01*
X58396549Y-9711540D01*
X58164714Y-9665425D01*
X57946328Y-9574967D01*
X57749782Y-9443639D01*
X57582641Y-9276498D01*
X57451313Y-9079952D01*
X57360855Y-8861566D01*
X57314740Y-8629731D01*
X57314740Y-8393349D01*
X57360855Y-8161514D01*
X57451313Y-7943128D01*
X57582641Y-7746582D01*
X57749782Y-7579441D01*
X57946328Y-7448113D01*
X58164714Y-7357655D01*
X58396549Y-7311540D01*
X58632931Y-7311540D01*
X58864766Y-7357655D01*
X58864766Y-7357655D01*
G37*
G36*
X30360746Y-7357655D02*
X30579132Y-7448113D01*
X30775678Y-7579441D01*
X30942819Y-7746582D01*
X31074147Y-7943128D01*
X31164605Y-8161514D01*
X31210720Y-8393349D01*
X31210720Y-8629731D01*
X31164605Y-8861566D01*
X31074147Y-9079952D01*
X30942819Y-9276498D01*
X30775678Y-9443639D01*
X30579132Y-9574967D01*
X30360746Y-9665425D01*
X30128911Y-9711540D01*
X29892529Y-9711540D01*
X29660694Y-9665425D01*
X29442308Y-9574967D01*
X29245762Y-9443639D01*
X29078621Y-9276498D01*
X28947293Y-9079952D01*
X28856835Y-8861566D01*
X28810720Y-8629731D01*
X28810720Y-8393349D01*
X28856835Y-8161514D01*
X28947293Y-7943128D01*
X29078621Y-7746582D01*
X29245762Y-7579441D01*
X29442308Y-7448113D01*
X29660694Y-7357655D01*
X29892529Y-7311540D01*
X30128911Y-7311540D01*
X30360746Y-7357655D01*
X30360746Y-7357655D01*
G37*
G36*
X43864766Y-7357655D02*
X44083152Y-7448113D01*
X44279698Y-7579441D01*
X44446839Y-7746582D01*
X44578167Y-7943128D01*
X44668625Y-8161514D01*
X44714740Y-8393349D01*
X44714740Y-8629731D01*
X44668625Y-8861566D01*
X44578167Y-9079952D01*
X44446839Y-9276498D01*
X44279698Y-9443639D01*
X44083152Y-9574967D01*
X43864766Y-9665425D01*
X43632931Y-9711540D01*
X43396549Y-9711540D01*
X43164714Y-9665425D01*
X42946328Y-9574967D01*
X42749782Y-9443639D01*
X42582641Y-9276498D01*
X42451313Y-9079952D01*
X42360855Y-8861566D01*
X42314740Y-8629731D01*
X42314740Y-8393349D01*
X42360855Y-8161514D01*
X42451313Y-7943128D01*
X42582641Y-7746582D01*
X42749782Y-7579441D01*
X42946328Y-7448113D01*
X43164714Y-7357655D01*
X43396549Y-7311540D01*
X43632931Y-7311540D01*
X43864766Y-7357655D01*
X43864766Y-7357655D01*
G37*
G36*
X51364766Y-7357655D02*
X51583152Y-7448113D01*
X51779698Y-7579441D01*
X51946839Y-7746582D01*
X52078167Y-7943128D01*
X52168625Y-8161514D01*
X52214740Y-8393349D01*
X52214740Y-8629731D01*
X52168625Y-8861566D01*
X52078167Y-9079952D01*
X51946839Y-9276498D01*
X51779698Y-9443639D01*
X51583152Y-9574967D01*
X51364766Y-9665425D01*
X51132931Y-9711540D01*
X50896549Y-9711540D01*
X50664714Y-9665425D01*
X50446328Y-9574967D01*
X50249782Y-9443639D01*
X50082641Y-9276498D01*
X49951313Y-9079952D01*
X49860855Y-8861566D01*
X49814740Y-8629731D01*
X49814740Y-8393349D01*
X49860855Y-8161514D01*
X49951313Y-7943128D01*
X50082641Y-7746582D01*
X50249782Y-7579441D01*
X50446328Y-7448113D01*
X50664714Y-7357655D01*
X50896549Y-7311540D01*
X51132931Y-7311540D01*
X51364766Y-7357655D01*
X51364766Y-7357655D01*
G37*
G36*
X37860746Y-7357655D02*
X38079132Y-7448113D01*
X38275678Y-7579441D01*
X38442819Y-7746582D01*
X38574147Y-7943128D01*
X38664605Y-8161514D01*
X38710720Y-8393349D01*
X38710720Y-8629731D01*
X38664605Y-8861566D01*
X38574147Y-9079952D01*
X38442819Y-9276498D01*
X38275678Y-9443639D01*
X38079132Y-9574967D01*
X37860746Y-9665425D01*
X37628911Y-9711540D01*
X37392529Y-9711540D01*
X37160694Y-9665425D01*
X36942308Y-9574967D01*
X36745762Y-9443639D01*
X36578621Y-9276498D01*
X36447293Y-9079952D01*
X36356835Y-8861566D01*
X36310720Y-8629731D01*
X36310720Y-8393349D01*
X36356835Y-8161514D01*
X36447293Y-7943128D01*
X36578621Y-7746582D01*
X36745762Y-7579441D01*
X36942308Y-7448113D01*
X37160694Y-7357655D01*
X37392529Y-7311540D01*
X37628911Y-7311540D01*
X37860746Y-7357655D01*
X37860746Y-7357655D01*
G37*
G36*
X22860746Y-7357655D02*
X23079132Y-7448113D01*
X23275678Y-7579441D01*
X23442819Y-7746582D01*
X23574147Y-7943128D01*
X23664605Y-8161514D01*
X23710720Y-8393349D01*
X23710720Y-8629731D01*
X23664605Y-8861566D01*
X23574147Y-9079952D01*
X23442819Y-9276498D01*
X23275678Y-9443639D01*
X23079132Y-9574967D01*
X22860746Y-9665425D01*
X22628911Y-9711540D01*
X22392529Y-9711540D01*
X22160694Y-9665425D01*
X21942308Y-9574967D01*
X21745762Y-9443639D01*
X21578621Y-9276498D01*
X21447293Y-9079952D01*
X21356835Y-8861566D01*
X21310720Y-8629731D01*
X21310720Y-8393349D01*
X21356835Y-8161514D01*
X21447293Y-7943128D01*
X21578621Y-7746582D01*
X21745762Y-7579441D01*
X21942308Y-7448113D01*
X22160694Y-7357655D01*
X22392529Y-7311540D01*
X22628911Y-7311540D01*
X22860746Y-7357655D01*
X22860746Y-7357655D01*
G37*
G36*
X96304238Y-7746804D02*
X96387313Y-7763329D01*
X96543823Y-7828158D01*
X96593806Y-7861556D01*
X96684680Y-7922276D01*
X96804464Y-8042060D01*
X96804465Y-8042062D01*
X96898582Y-8182917D01*
X96956241Y-8322116D01*
X96963411Y-8339428D01*
X96996460Y-8505576D01*
X96996460Y-8674984D01*
X96963411Y-8841132D01*
X96898583Y-8997641D01*
X96804464Y-9138500D01*
X96684680Y-9258284D01*
X96657425Y-9276495D01*
X96543823Y-9352402D01*
X96387313Y-9417231D01*
X96304238Y-9433755D01*
X96221164Y-9450280D01*
X96051756Y-9450280D01*
X95968682Y-9433755D01*
X95885607Y-9417231D01*
X95729097Y-9352402D01*
X95615495Y-9276495D01*
X95588240Y-9258284D01*
X95468456Y-9138500D01*
X95374337Y-8997641D01*
X95309509Y-8841132D01*
X95276460Y-8674984D01*
X95276460Y-8505576D01*
X95309509Y-8339428D01*
X95316680Y-8322116D01*
X95374338Y-8182917D01*
X95468455Y-8042062D01*
X95468456Y-8042060D01*
X95588240Y-7922276D01*
X95679114Y-7861556D01*
X95729097Y-7828158D01*
X95885607Y-7763329D01*
X95968682Y-7746804D01*
X96051756Y-7730280D01*
X96221164Y-7730280D01*
X96304238Y-7746804D01*
X96304238Y-7746804D01*
G37*
G36*
X117100752Y-7295943D02*
X117246341Y-7356248D01*
X117377373Y-7443801D01*
X117488799Y-7555227D01*
X117576352Y-7686259D01*
X117636657Y-7831848D01*
X117667400Y-7986405D01*
X117667400Y-8143995D01*
X117636657Y-8298552D01*
X117576352Y-8444141D01*
X117488799Y-8575173D01*
X117377373Y-8686599D01*
X117246341Y-8774152D01*
X117100752Y-8834457D01*
X116946195Y-8865200D01*
X116788605Y-8865200D01*
X116634048Y-8834457D01*
X116488459Y-8774152D01*
X116357427Y-8686599D01*
X116246001Y-8575173D01*
X116158448Y-8444141D01*
X116098143Y-8298552D01*
X116067400Y-8143995D01*
X116067400Y-7986405D01*
X116098143Y-7831848D01*
X116158448Y-7686259D01*
X116246001Y-7555227D01*
X116357427Y-7443801D01*
X116488459Y-7356248D01*
X116634048Y-7295943D01*
X116788605Y-7265200D01*
X116946195Y-7265200D01*
X117100752Y-7295943D01*
X117100752Y-7295943D01*
G37*
G36*
X107960752Y-7295943D02*
X108106341Y-7356248D01*
X108237373Y-7443801D01*
X108348799Y-7555227D01*
X108436352Y-7686259D01*
X108496657Y-7831848D01*
X108527400Y-7986405D01*
X108527400Y-8143995D01*
X108496657Y-8298552D01*
X108436352Y-8444141D01*
X108348799Y-8575173D01*
X108237373Y-8686599D01*
X108106341Y-8774152D01*
X107960752Y-8834457D01*
X107806195Y-8865200D01*
X107648605Y-8865200D01*
X107494048Y-8834457D01*
X107348459Y-8774152D01*
X107217427Y-8686599D01*
X107106001Y-8575173D01*
X107018448Y-8444141D01*
X106958143Y-8298552D01*
X106927400Y-8143995D01*
X106927400Y-7986405D01*
X106958143Y-7831848D01*
X107018448Y-7686259D01*
X107106001Y-7555227D01*
X107217427Y-7443801D01*
X107348459Y-7356248D01*
X107494048Y-7295943D01*
X107648605Y-7265200D01*
X107806195Y-7265200D01*
X107960752Y-7295943D01*
X107960752Y-7295943D01*
G37*
G36*
X119390752Y-7295943D02*
X119536341Y-7356248D01*
X119667373Y-7443801D01*
X119778799Y-7555227D01*
X119866352Y-7686259D01*
X119926657Y-7831848D01*
X119957400Y-7986405D01*
X119957400Y-8143995D01*
X119926657Y-8298552D01*
X119866352Y-8444141D01*
X119778799Y-8575173D01*
X119667373Y-8686599D01*
X119536341Y-8774152D01*
X119390752Y-8834457D01*
X119236195Y-8865200D01*
X119078605Y-8865200D01*
X118924048Y-8834457D01*
X118778459Y-8774152D01*
X118647427Y-8686599D01*
X118536001Y-8575173D01*
X118448448Y-8444141D01*
X118388143Y-8298552D01*
X118357400Y-8143995D01*
X118357400Y-7986405D01*
X118388143Y-7831848D01*
X118448448Y-7686259D01*
X118536001Y-7555227D01*
X118647427Y-7443801D01*
X118778459Y-7356248D01*
X118924048Y-7295943D01*
X119078605Y-7265200D01*
X119236195Y-7265200D01*
X119390752Y-7295943D01*
X119390752Y-7295943D01*
G37*
G36*
X105670752Y-7295943D02*
X105816341Y-7356248D01*
X105947373Y-7443801D01*
X106058799Y-7555227D01*
X106146352Y-7686259D01*
X106206657Y-7831848D01*
X106237400Y-7986405D01*
X106237400Y-8143995D01*
X106206657Y-8298552D01*
X106146352Y-8444141D01*
X106058799Y-8575173D01*
X105947373Y-8686599D01*
X105816341Y-8774152D01*
X105670752Y-8834457D01*
X105516195Y-8865200D01*
X105358605Y-8865200D01*
X105204048Y-8834457D01*
X105058459Y-8774152D01*
X104927427Y-8686599D01*
X104816001Y-8575173D01*
X104728448Y-8444141D01*
X104668143Y-8298552D01*
X104637400Y-8143995D01*
X104637400Y-7986405D01*
X104668143Y-7831848D01*
X104728448Y-7686259D01*
X104816001Y-7555227D01*
X104927427Y-7443801D01*
X105058459Y-7356248D01*
X105204048Y-7295943D01*
X105358605Y-7265200D01*
X105516195Y-7265200D01*
X105670752Y-7295943D01*
X105670752Y-7295943D01*
G37*
G36*
X81148821Y-5084786D02*
X81312609Y-5152629D01*
X81460020Y-5251126D01*
X81585374Y-5376480D01*
X81683871Y-5523891D01*
X81751714Y-5687679D01*
X81786300Y-5861556D01*
X81786300Y-6038844D01*
X81751714Y-6212721D01*
X81683871Y-6376509D01*
X81585374Y-6523920D01*
X81460020Y-6649274D01*
X81312609Y-6747771D01*
X81163062Y-6809715D01*
X81141451Y-6821266D01*
X81122509Y-6836811D01*
X81106963Y-6855753D01*
X81095412Y-6877364D01*
X81088299Y-6900813D01*
X81085897Y-6925200D01*
X81088299Y-6949586D01*
X81095412Y-6973035D01*
X81106963Y-6994646D01*
X81122508Y-7013588D01*
X81141450Y-7029134D01*
X81163061Y-7040685D01*
X81186510Y-7047798D01*
X81210897Y-7050200D01*
X81786300Y-7050200D01*
X81786300Y-8850200D01*
X79986300Y-8850200D01*
X79986300Y-7050200D01*
X80561703Y-7050200D01*
X80586089Y-7047798D01*
X80609538Y-7040685D01*
X80631149Y-7029134D01*
X80650091Y-7013588D01*
X80665637Y-6994646D01*
X80677188Y-6973035D01*
X80684301Y-6949586D01*
X80686703Y-6925200D01*
X80684301Y-6900814D01*
X80677188Y-6877365D01*
X80665637Y-6855754D01*
X80650091Y-6836812D01*
X80631149Y-6821266D01*
X80609538Y-6809715D01*
X80459991Y-6747771D01*
X80312580Y-6649274D01*
X80187226Y-6523920D01*
X80088729Y-6376509D01*
X80020886Y-6212721D01*
X79986300Y-6038844D01*
X79986300Y-5861556D01*
X80020886Y-5687679D01*
X80088729Y-5523891D01*
X80187226Y-5376480D01*
X80312580Y-5251126D01*
X80459991Y-5152629D01*
X80623779Y-5084786D01*
X80797656Y-5050200D01*
X80974944Y-5050200D01*
X81148821Y-5084786D01*
X81148821Y-5084786D01*
G37*
G36*
X83648821Y-5084786D02*
X83812609Y-5152629D01*
X83960020Y-5251126D01*
X84085374Y-5376480D01*
X84183871Y-5523891D01*
X84251714Y-5687679D01*
X84286300Y-5861556D01*
X84286300Y-6038844D01*
X84251714Y-6212721D01*
X84183871Y-6376509D01*
X84085374Y-6523920D01*
X83960020Y-6649274D01*
X83812609Y-6747771D01*
X83648821Y-6815614D01*
X83588552Y-6827602D01*
X83565103Y-6834715D01*
X83543492Y-6846266D01*
X83524550Y-6861812D01*
X83509004Y-6880754D01*
X83497453Y-6902364D01*
X83490340Y-6925814D01*
X83487938Y-6950200D01*
X83490340Y-6974586D01*
X83497453Y-6998035D01*
X83509004Y-7019646D01*
X83524550Y-7038588D01*
X83543492Y-7054134D01*
X83565102Y-7065685D01*
X83588552Y-7072798D01*
X83648821Y-7084786D01*
X83812609Y-7152629D01*
X83960020Y-7251126D01*
X84085374Y-7376480D01*
X84183871Y-7523891D01*
X84251714Y-7687679D01*
X84286300Y-7861556D01*
X84286300Y-8038844D01*
X84251714Y-8212721D01*
X84183871Y-8376509D01*
X84085374Y-8523920D01*
X83960020Y-8649274D01*
X83812609Y-8747771D01*
X83648821Y-8815614D01*
X83474944Y-8850200D01*
X83297656Y-8850200D01*
X83123779Y-8815614D01*
X82959991Y-8747771D01*
X82812580Y-8649274D01*
X82687226Y-8523920D01*
X82588729Y-8376509D01*
X82520886Y-8212721D01*
X82486300Y-8038844D01*
X82486300Y-7861556D01*
X82520886Y-7687679D01*
X82588729Y-7523891D01*
X82687226Y-7376480D01*
X82812580Y-7251126D01*
X82959991Y-7152629D01*
X83123779Y-7084786D01*
X83184048Y-7072798D01*
X83207497Y-7065685D01*
X83229108Y-7054134D01*
X83248050Y-7038588D01*
X83263596Y-7019646D01*
X83275147Y-6998036D01*
X83282260Y-6974586D01*
X83284662Y-6950200D01*
X83282260Y-6925814D01*
X83275147Y-6902365D01*
X83263596Y-6880754D01*
X83248050Y-6861812D01*
X83229108Y-6846266D01*
X83207498Y-6834715D01*
X83184048Y-6827602D01*
X83123779Y-6815614D01*
X82959991Y-6747771D01*
X82812580Y-6649274D01*
X82687226Y-6523920D01*
X82588729Y-6376509D01*
X82520886Y-6212721D01*
X82486300Y-6038844D01*
X82486300Y-5861556D01*
X82520886Y-5687679D01*
X82588729Y-5523891D01*
X82687226Y-5376480D01*
X82812580Y-5251126D01*
X82959991Y-5152629D01*
X83123779Y-5084786D01*
X83297656Y-5050200D01*
X83474944Y-5050200D01*
X83648821Y-5084786D01*
X83648821Y-5084786D01*
G37*
G36*
X99140857Y-6922748D02*
X99318296Y-6996246D01*
X99477987Y-7102948D01*
X99613792Y-7238753D01*
X99720494Y-7398444D01*
X99793992Y-7575883D01*
X99831460Y-7764251D01*
X99831460Y-7956309D01*
X99793992Y-8144677D01*
X99720494Y-8322116D01*
X99613792Y-8481807D01*
X99477987Y-8617612D01*
X99318296Y-8724314D01*
X99140857Y-8797812D01*
X98952489Y-8835280D01*
X98760431Y-8835280D01*
X98572063Y-8797812D01*
X98394624Y-8724314D01*
X98234933Y-8617612D01*
X98099128Y-8481807D01*
X97992426Y-8322116D01*
X97918928Y-8144677D01*
X97881460Y-7956309D01*
X97881460Y-7764251D01*
X97918928Y-7575883D01*
X97992426Y-7398444D01*
X98099128Y-7238753D01*
X98234933Y-7102948D01*
X98394624Y-6996246D01*
X98572063Y-6922748D01*
X98760431Y-6885280D01*
X98952489Y-6885280D01*
X99140857Y-6922748D01*
X99140857Y-6922748D01*
G37*
G36*
X93700857Y-6922748D02*
X93878296Y-6996246D01*
X94037987Y-7102948D01*
X94173792Y-7238753D01*
X94280494Y-7398444D01*
X94353992Y-7575883D01*
X94391460Y-7764251D01*
X94391460Y-7956309D01*
X94353992Y-8144677D01*
X94280494Y-8322116D01*
X94173792Y-8481807D01*
X94037987Y-8617612D01*
X93878296Y-8724314D01*
X93700857Y-8797812D01*
X93512489Y-8835280D01*
X93320431Y-8835280D01*
X93132063Y-8797812D01*
X92954624Y-8724314D01*
X92794933Y-8617612D01*
X92659128Y-8481807D01*
X92552426Y-8322116D01*
X92478928Y-8144677D01*
X92441460Y-7956309D01*
X92441460Y-7764251D01*
X92478928Y-7575883D01*
X92552426Y-7398444D01*
X92659128Y-7238753D01*
X92794933Y-7102948D01*
X92954624Y-6996246D01*
X93132063Y-6922748D01*
X93320431Y-6885280D01*
X93512489Y-6885280D01*
X93700857Y-6922748D01*
X93700857Y-6922748D01*
G37*
G36*
X132808120Y-8515760D02*
X129208120Y-8515760D01*
X129208120Y-4915760D01*
X132808120Y-4915760D01*
X132808120Y-8515760D01*
X132808120Y-8515760D01*
G37*
G36*
X127433886Y-1932445D02*
X127590891Y-1980072D01*
X127735573Y-2057406D01*
X127862394Y-2161486D01*
X127966474Y-2288307D01*
X128043808Y-2432989D01*
X128091435Y-2589994D01*
X128108120Y-2759400D01*
X128108120Y-4672120D01*
X128091435Y-4841526D01*
X128043808Y-4998531D01*
X127966474Y-5143213D01*
X127862394Y-5270034D01*
X127735573Y-5374114D01*
X127590891Y-5451448D01*
X127433886Y-5499075D01*
X127264480Y-5515760D01*
X125351760Y-5515760D01*
X125182354Y-5499075D01*
X125025349Y-5451448D01*
X124880667Y-5374114D01*
X124753846Y-5270034D01*
X124649766Y-5143213D01*
X124572432Y-4998531D01*
X124524805Y-4841526D01*
X124508120Y-4672120D01*
X124508120Y-2759400D01*
X124524805Y-2589994D01*
X124572432Y-2432989D01*
X124649766Y-2288307D01*
X124753846Y-2161486D01*
X124880667Y-2057406D01*
X125025349Y-1980072D01*
X125182354Y-1932445D01*
X125351760Y-1915760D01*
X127264480Y-1915760D01*
X127433886Y-1932445D01*
X127433886Y-1932445D01*
G37*
G36*
X88565422Y-1486315D02*
X88681341Y-1509373D01*
X88912974Y-1605319D01*
X89001422Y-1641955D01*
X89008920Y-1645061D01*
X89221855Y-1787340D01*
X89303736Y-1842051D01*
X89554449Y-2092764D01*
X89554451Y-2092767D01*
X89751439Y-2387580D01*
X89884012Y-2707638D01*
X89887127Y-2715160D01*
X89956300Y-3062914D01*
X89956300Y-3417486D01*
X89915193Y-3624142D01*
X89889130Y-3755173D01*
X89887127Y-3765240D01*
X89751440Y-4092818D01*
X89554449Y-4387636D01*
X89303736Y-4638349D01*
X89303733Y-4638351D01*
X89008920Y-4835339D01*
X89008919Y-4835340D01*
X89008918Y-4835340D01*
X88912974Y-4875081D01*
X88681341Y-4971027D01*
X88565422Y-4994085D01*
X88333586Y-5040200D01*
X87979014Y-5040200D01*
X87747178Y-4994085D01*
X87631259Y-4971027D01*
X87399626Y-4875081D01*
X87303682Y-4835340D01*
X87303681Y-4835340D01*
X87303680Y-4835339D01*
X87008867Y-4638351D01*
X87008864Y-4638349D01*
X86758151Y-4387636D01*
X86561160Y-4092818D01*
X86425473Y-3765240D01*
X86423471Y-3755173D01*
X86397407Y-3624142D01*
X86356300Y-3417486D01*
X86356300Y-3062914D01*
X86425473Y-2715160D01*
X86428589Y-2707638D01*
X86561161Y-2387580D01*
X86758149Y-2092767D01*
X86758151Y-2092764D01*
X87008864Y-1842051D01*
X87090745Y-1787340D01*
X87303680Y-1645061D01*
X87311179Y-1641955D01*
X87399626Y-1605319D01*
X87631259Y-1509373D01*
X87747178Y-1486315D01*
X87979014Y-1440200D01*
X88333586Y-1440200D01*
X88565422Y-1486315D01*
X88565422Y-1486315D01*
G37*
G36*
X76525422Y-1486315D02*
X76641341Y-1509373D01*
X76872974Y-1605319D01*
X76961422Y-1641955D01*
X76968920Y-1645061D01*
X77181855Y-1787340D01*
X77263736Y-1842051D01*
X77514449Y-2092764D01*
X77514451Y-2092767D01*
X77711439Y-2387580D01*
X77844012Y-2707638D01*
X77847127Y-2715160D01*
X77916300Y-3062914D01*
X77916300Y-3417486D01*
X77875193Y-3624142D01*
X77849130Y-3755173D01*
X77847127Y-3765240D01*
X77711440Y-4092818D01*
X77514449Y-4387636D01*
X77263736Y-4638349D01*
X77263733Y-4638351D01*
X76968920Y-4835339D01*
X76968919Y-4835340D01*
X76968918Y-4835340D01*
X76872974Y-4875081D01*
X76641341Y-4971027D01*
X76525422Y-4994085D01*
X76293586Y-5040200D01*
X75939014Y-5040200D01*
X75707178Y-4994085D01*
X75591259Y-4971027D01*
X75359626Y-4875081D01*
X75263682Y-4835340D01*
X75263681Y-4835340D01*
X75263680Y-4835339D01*
X74968867Y-4638351D01*
X74968864Y-4638349D01*
X74718151Y-4387636D01*
X74521160Y-4092818D01*
X74385473Y-3765240D01*
X74383471Y-3755173D01*
X74357407Y-3624142D01*
X74316300Y-3417486D01*
X74316300Y-3062914D01*
X74385473Y-2715160D01*
X74388589Y-2707638D01*
X74521161Y-2387580D01*
X74718149Y-2092767D01*
X74718151Y-2092764D01*
X74968864Y-1842051D01*
X75050745Y-1787340D01*
X75263680Y-1645061D01*
X75271179Y-1641955D01*
X75359626Y-1605319D01*
X75591259Y-1509373D01*
X75707178Y-1486315D01*
X75939014Y-1440200D01*
X76293586Y-1440200D01*
X76525422Y-1486315D01*
X76525422Y-1486315D01*
G37*
G36*
X116110752Y-2475943D02*
X116256341Y-2536248D01*
X116387373Y-2623801D01*
X116498799Y-2735227D01*
X116586352Y-2866259D01*
X116646657Y-3011848D01*
X116677400Y-3166405D01*
X116677400Y-3323995D01*
X116646657Y-3478552D01*
X116586352Y-3624141D01*
X116498799Y-3755173D01*
X116387373Y-3866599D01*
X116256341Y-3954152D01*
X116110752Y-4014457D01*
X115956195Y-4045200D01*
X115798605Y-4045200D01*
X115644048Y-4014457D01*
X115498459Y-3954152D01*
X115367427Y-3866599D01*
X115256001Y-3755173D01*
X115168448Y-3624141D01*
X115108143Y-3478552D01*
X115077400Y-3323995D01*
X115077400Y-3166405D01*
X115108143Y-3011848D01*
X115168448Y-2866259D01*
X115256001Y-2735227D01*
X115367427Y-2623801D01*
X115498459Y-2536248D01*
X115644048Y-2475943D01*
X115798605Y-2445200D01*
X115956195Y-2445200D01*
X116110752Y-2475943D01*
X116110752Y-2475943D01*
G37*
G36*
X114070752Y-2475943D02*
X114216341Y-2536248D01*
X114347373Y-2623801D01*
X114458799Y-2735227D01*
X114546352Y-2866259D01*
X114606657Y-3011848D01*
X114637400Y-3166405D01*
X114637400Y-3323995D01*
X114606657Y-3478552D01*
X114546352Y-3624141D01*
X114458799Y-3755173D01*
X114347373Y-3866599D01*
X114216341Y-3954152D01*
X114070752Y-4014457D01*
X113916195Y-4045200D01*
X113758605Y-4045200D01*
X113604048Y-4014457D01*
X113458459Y-3954152D01*
X113327427Y-3866599D01*
X113216001Y-3755173D01*
X113128448Y-3624141D01*
X113068143Y-3478552D01*
X113037400Y-3323995D01*
X113037400Y-3166405D01*
X113068143Y-3011848D01*
X113128448Y-2866259D01*
X113216001Y-2735227D01*
X113327427Y-2623801D01*
X113458459Y-2536248D01*
X113604048Y-2475943D01*
X113758605Y-2445200D01*
X113916195Y-2445200D01*
X114070752Y-2475943D01*
X114070752Y-2475943D01*
G37*
G36*
X109537400Y-2320975D02*
X109539802Y-2345361D01*
X109546915Y-2368810D01*
X109558466Y-2390421D01*
X109574012Y-2409363D01*
X109592954Y-2424909D01*
X109614565Y-2436460D01*
X109638014Y-2443573D01*
X109662400Y-2445975D01*
X109670267Y-2445200D01*
X109836195Y-2445200D01*
X109990752Y-2475943D01*
X110136341Y-2536248D01*
X110267373Y-2623801D01*
X110378799Y-2735227D01*
X110466352Y-2866259D01*
X110526657Y-3011848D01*
X110557400Y-3166405D01*
X110557400Y-3323995D01*
X110526657Y-3478552D01*
X110466352Y-3624141D01*
X110378799Y-3755173D01*
X110267373Y-3866599D01*
X110136341Y-3954152D01*
X109990752Y-4014457D01*
X109836195Y-4045200D01*
X109678605Y-4045200D01*
X109524048Y-4014457D01*
X109378459Y-3954152D01*
X109247427Y-3866599D01*
X109136001Y-3755173D01*
X109048448Y-3624141D01*
X108988143Y-3478552D01*
X108957400Y-3323995D01*
X108957400Y-3166405D01*
X108988143Y-3011848D01*
X109048448Y-2866259D01*
X109136001Y-2735227D01*
X109247427Y-2623801D01*
X109378459Y-2536248D01*
X109452245Y-2505685D01*
X109473856Y-2494134D01*
X109492798Y-2478589D01*
X109508344Y-2459647D01*
X109519895Y-2438036D01*
X109527008Y-2414587D01*
X109529410Y-2390200D01*
X109527008Y-2365814D01*
X109519895Y-2342365D01*
X109508344Y-2320754D01*
X109492799Y-2301812D01*
X109473857Y-2286266D01*
X109452246Y-2274715D01*
X109428797Y-2267602D01*
X109404410Y-2265200D01*
X107937400Y-2265200D01*
X107937400Y-665200D01*
X109537400Y-665200D01*
X109537400Y-2320975D01*
X109537400Y-2320975D01*
G37*
G36*
X112030752Y-2475943D02*
X112176341Y-2536248D01*
X112307373Y-2623801D01*
X112418799Y-2735227D01*
X112506352Y-2866259D01*
X112566657Y-3011848D01*
X112597400Y-3166405D01*
X112597400Y-3323995D01*
X112566657Y-3478552D01*
X112506352Y-3624141D01*
X112418799Y-3755173D01*
X112307373Y-3866599D01*
X112176341Y-3954152D01*
X112030752Y-4014457D01*
X111876195Y-4045200D01*
X111718605Y-4045200D01*
X111564048Y-4014457D01*
X111418459Y-3954152D01*
X111287427Y-3866599D01*
X111176001Y-3755173D01*
X111088448Y-3624141D01*
X111028143Y-3478552D01*
X110997400Y-3323995D01*
X110997400Y-3166405D01*
X111028143Y-3011848D01*
X111088448Y-2866259D01*
X111176001Y-2735227D01*
X111287427Y-2623801D01*
X111418459Y-2536248D01*
X111564048Y-2475943D01*
X111718605Y-2445200D01*
X111876195Y-2445200D01*
X112030752Y-2475943D01*
X112030752Y-2475943D01*
G37*
G36*
X104293288Y-1309670D02*
X104473674Y-1345550D01*
X104664762Y-1424702D01*
X104836736Y-1539611D01*
X104982989Y-1685864D01*
X105097898Y-1857838D01*
X105177050Y-2048926D01*
X105217400Y-2251784D01*
X105217400Y-2458616D01*
X105177050Y-2661474D01*
X105097898Y-2852562D01*
X104982989Y-3024536D01*
X104836736Y-3170789D01*
X104664762Y-3285698D01*
X104473674Y-3364850D01*
X104293288Y-3400730D01*
X104270817Y-3405200D01*
X104063983Y-3405200D01*
X104041512Y-3400730D01*
X103861126Y-3364850D01*
X103670038Y-3285698D01*
X103498064Y-3170789D01*
X103351811Y-3024536D01*
X103236902Y-2852562D01*
X103157750Y-2661474D01*
X103117400Y-2458616D01*
X103117400Y-2251784D01*
X103157750Y-2048926D01*
X103236902Y-1857838D01*
X103351811Y-1685864D01*
X103498064Y-1539611D01*
X103670038Y-1424702D01*
X103861126Y-1345550D01*
X104041512Y-1309670D01*
X104063983Y-1305200D01*
X104270817Y-1305200D01*
X104293288Y-1309670D01*
X104293288Y-1309670D01*
G37*
G36*
X120553288Y-1309670D02*
X120733674Y-1345550D01*
X120924762Y-1424702D01*
X121096736Y-1539611D01*
X121242989Y-1685864D01*
X121357898Y-1857838D01*
X121437050Y-2048926D01*
X121477400Y-2251784D01*
X121477400Y-2458616D01*
X121437050Y-2661474D01*
X121357898Y-2852562D01*
X121242989Y-3024536D01*
X121096736Y-3170789D01*
X120924762Y-3285698D01*
X120733674Y-3364850D01*
X120553288Y-3400730D01*
X120530817Y-3405200D01*
X120323983Y-3405200D01*
X120301512Y-3400730D01*
X120121126Y-3364850D01*
X119930038Y-3285698D01*
X119758064Y-3170789D01*
X119611811Y-3024536D01*
X119496902Y-2852562D01*
X119417750Y-2661474D01*
X119377400Y-2458616D01*
X119377400Y-2251784D01*
X119417750Y-2048926D01*
X119496902Y-1857838D01*
X119611811Y-1685864D01*
X119758064Y-1539611D01*
X119930038Y-1424702D01*
X120121126Y-1345550D01*
X120301512Y-1309670D01*
X120323983Y-1305200D01*
X120530817Y-1305200D01*
X120553288Y-1309670D01*
X120553288Y-1309670D01*
G37*
G36*
X141462173Y2749800D02*
X141827370Y2677158D01*
X142038439Y2589730D01*
X142336936Y2466089D01*
X142795539Y2159660D01*
X143185540Y1769659D01*
X143491969Y1311056D01*
X143615610Y1012559D01*
X143695734Y819124D01*
X143703038Y801489D01*
X143810640Y260537D01*
X143810640Y-291017D01*
X143703038Y-831969D01*
X143491969Y-1341536D01*
X143185540Y-1800139D01*
X142795539Y-2190140D01*
X142336936Y-2496569D01*
X142111387Y-2589994D01*
X141827370Y-2707638D01*
X141688670Y-2735227D01*
X141286417Y-2815240D01*
X140734863Y-2815240D01*
X140332610Y-2735227D01*
X140193910Y-2707638D01*
X139909893Y-2589994D01*
X139684344Y-2496569D01*
X139225741Y-2190140D01*
X138835740Y-1800139D01*
X138529311Y-1341536D01*
X138318242Y-831969D01*
X138210640Y-291017D01*
X138210640Y260537D01*
X138318242Y801489D01*
X138325547Y819124D01*
X138405670Y1012559D01*
X138529311Y1311056D01*
X138835740Y1769659D01*
X139225741Y2159660D01*
X139684344Y2466089D01*
X139982841Y2589730D01*
X140193910Y2677158D01*
X140559107Y2749800D01*
X140734863Y2784760D01*
X141286417Y2784760D01*
X141462173Y2749800D01*
X141462173Y2749800D01*
G37*
G36*
X132234505Y819957D02*
X132368050Y779446D01*
X132491128Y713660D01*
X132599006Y625126D01*
X132687540Y517248D01*
X132753326Y394170D01*
X132793837Y260625D01*
X132808120Y115600D01*
X132808120Y-1547120D01*
X132793837Y-1692145D01*
X132753326Y-1825690D01*
X132687540Y-1948768D01*
X132599006Y-2056646D01*
X132491128Y-2145180D01*
X132368050Y-2210966D01*
X132234505Y-2251477D01*
X132089480Y-2265760D01*
X129926760Y-2265760D01*
X129781735Y-2251477D01*
X129648190Y-2210966D01*
X129525112Y-2145180D01*
X129417234Y-2056646D01*
X129328700Y-1948768D01*
X129262914Y-1825690D01*
X129222403Y-1692145D01*
X129208120Y-1547120D01*
X129208120Y115600D01*
X129222403Y260625D01*
X129262914Y394170D01*
X129328700Y517248D01*
X129417234Y625126D01*
X129525112Y713660D01*
X129648190Y779446D01*
X129781735Y819957D01*
X129926760Y834240D01*
X132089480Y834240D01*
X132234505Y819957D01*
X132234505Y819957D01*
G37*
G36*
X113050752Y-695943D02*
X113196341Y-756248D01*
X113327373Y-843801D01*
X113438799Y-955227D01*
X113526352Y-1086259D01*
X113586657Y-1231848D01*
X113617400Y-1386405D01*
X113617400Y-1543995D01*
X113586657Y-1698552D01*
X113526352Y-1844141D01*
X113438799Y-1975173D01*
X113327373Y-2086599D01*
X113196341Y-2174152D01*
X113050752Y-2234457D01*
X112896195Y-2265200D01*
X112738605Y-2265200D01*
X112584048Y-2234457D01*
X112438459Y-2174152D01*
X112307427Y-2086599D01*
X112196001Y-1975173D01*
X112108448Y-1844141D01*
X112048143Y-1698552D01*
X112017400Y-1543995D01*
X112017400Y-1386405D01*
X112048143Y-1231848D01*
X112108448Y-1086259D01*
X112196001Y-955227D01*
X112307427Y-843801D01*
X112438459Y-756248D01*
X112584048Y-695943D01*
X112738605Y-665200D01*
X112896195Y-665200D01*
X113050752Y-695943D01*
X113050752Y-695943D01*
G37*
G36*
X111010752Y-695943D02*
X111156341Y-756248D01*
X111287373Y-843801D01*
X111398799Y-955227D01*
X111486352Y-1086259D01*
X111546657Y-1231848D01*
X111577400Y-1386405D01*
X111577400Y-1543995D01*
X111546657Y-1698552D01*
X111486352Y-1844141D01*
X111398799Y-1975173D01*
X111287373Y-2086599D01*
X111156341Y-2174152D01*
X111010752Y-2234457D01*
X110856195Y-2265200D01*
X110698605Y-2265200D01*
X110544048Y-2234457D01*
X110398459Y-2174152D01*
X110267427Y-2086599D01*
X110156001Y-1975173D01*
X110068448Y-1844141D01*
X110008143Y-1698552D01*
X109977400Y-1543995D01*
X109977400Y-1386405D01*
X110008143Y-1231848D01*
X110068448Y-1086259D01*
X110156001Y-955227D01*
X110267427Y-843801D01*
X110398459Y-756248D01*
X110544048Y-695943D01*
X110698605Y-665200D01*
X110856195Y-665200D01*
X111010752Y-695943D01*
X111010752Y-695943D01*
G37*
G36*
X115090752Y-695943D02*
X115236341Y-756248D01*
X115367373Y-843801D01*
X115478799Y-955227D01*
X115566352Y-1086259D01*
X115626657Y-1231848D01*
X115657400Y-1386405D01*
X115657400Y-1543995D01*
X115626657Y-1698552D01*
X115566352Y-1844141D01*
X115478799Y-1975173D01*
X115367373Y-2086599D01*
X115236341Y-2174152D01*
X115090752Y-2234457D01*
X114936195Y-2265200D01*
X114778605Y-2265200D01*
X114624048Y-2234457D01*
X114478459Y-2174152D01*
X114347427Y-2086599D01*
X114236001Y-1975173D01*
X114148448Y-1844141D01*
X114088143Y-1698552D01*
X114057400Y-1543995D01*
X114057400Y-1386405D01*
X114088143Y-1231848D01*
X114148448Y-1086259D01*
X114236001Y-955227D01*
X114347427Y-843801D01*
X114478459Y-756248D01*
X114624048Y-695943D01*
X114778605Y-665200D01*
X114936195Y-665200D01*
X115090752Y-695943D01*
X115090752Y-695943D01*
G37*
G36*
X106193275Y2733708D02*
X106435980Y2685431D01*
X106740810Y2559166D01*
X107015151Y2375858D01*
X107248458Y2142551D01*
X107431766Y1868210D01*
X107558031Y1563380D01*
X107622400Y1239773D01*
X107622400Y909827D01*
X107558031Y586220D01*
X107431766Y281390D01*
X107248458Y7049D01*
X107015151Y-226258D01*
X106740810Y-409566D01*
X106435980Y-535831D01*
X106193275Y-584108D01*
X106112374Y-600200D01*
X105782426Y-600200D01*
X105701525Y-584108D01*
X105458820Y-535831D01*
X105153990Y-409566D01*
X104879649Y-226258D01*
X104646342Y7049D01*
X104463034Y281390D01*
X104336769Y586220D01*
X104272400Y909827D01*
X104272400Y1239773D01*
X104336769Y1563380D01*
X104463034Y1868210D01*
X104646342Y2142551D01*
X104879649Y2375858D01*
X105153990Y2559166D01*
X105458820Y2685431D01*
X105701525Y2733708D01*
X105782426Y2749800D01*
X106112374Y2749800D01*
X106193275Y2733708D01*
X106193275Y2733708D01*
G37*
G36*
X118893275Y2733708D02*
X119135980Y2685431D01*
X119440810Y2559166D01*
X119715151Y2375858D01*
X119948458Y2142551D01*
X120131766Y1868210D01*
X120258031Y1563380D01*
X120322400Y1239773D01*
X120322400Y909827D01*
X120258031Y586220D01*
X120131766Y281390D01*
X119948458Y7049D01*
X119715151Y-226258D01*
X119440810Y-409566D01*
X119135980Y-535831D01*
X118893275Y-584108D01*
X118812374Y-600200D01*
X118482426Y-600200D01*
X118401525Y-584108D01*
X118158820Y-535831D01*
X117853990Y-409566D01*
X117579649Y-226258D01*
X117346342Y7049D01*
X117163034Y281390D01*
X117036769Y586220D01*
X116972400Y909827D01*
X116972400Y1239773D01*
X117036769Y1563380D01*
X117163034Y1868210D01*
X117346342Y2142551D01*
X117579649Y2375858D01*
X117853990Y2559166D01*
X118158820Y2685431D01*
X118401525Y2733708D01*
X118482426Y2749800D01*
X118812374Y2749800D01*
X118893275Y2733708D01*
X118893275Y2733708D01*
G37*
G36*
X16453020Y189900D02*
X11553020Y189900D01*
X11553020Y3289900D01*
X16453020Y3289900D01*
X16453020Y189900D01*
X16453020Y189900D01*
G37*
G36*
X27636608Y2533990D02*
X27816994Y2498110D01*
X28008082Y2418958D01*
X28180056Y2304049D01*
X28326309Y2157796D01*
X28441218Y1985822D01*
X28520370Y1794734D01*
X28560720Y1591876D01*
X28560720Y1385044D01*
X28520370Y1182186D01*
X28441218Y991098D01*
X28326309Y819124D01*
X28180056Y672871D01*
X28008082Y557962D01*
X27816994Y478810D01*
X27636608Y442930D01*
X27614137Y438460D01*
X27407303Y438460D01*
X27384832Y442930D01*
X27204446Y478810D01*
X27013358Y557962D01*
X26841384Y672871D01*
X26695131Y819124D01*
X26580222Y991098D01*
X26501070Y1182186D01*
X26460720Y1385044D01*
X26460720Y1591876D01*
X26501070Y1794734D01*
X26580222Y1985822D01*
X26695131Y2157796D01*
X26841384Y2304049D01*
X27013358Y2418958D01*
X27204446Y2498110D01*
X27384832Y2533990D01*
X27407303Y2538460D01*
X27614137Y2538460D01*
X27636608Y2533990D01*
X27636608Y2533990D01*
G37*
G36*
X48640628Y2533990D02*
X48821014Y2498110D01*
X49012102Y2418958D01*
X49184076Y2304049D01*
X49330329Y2157796D01*
X49445238Y1985822D01*
X49524390Y1794734D01*
X49564740Y1591876D01*
X49564740Y1385044D01*
X49524390Y1182186D01*
X49445238Y991098D01*
X49330329Y819124D01*
X49184076Y672871D01*
X49012102Y557962D01*
X48821014Y478810D01*
X48640628Y442930D01*
X48618157Y438460D01*
X48411323Y438460D01*
X48388852Y442930D01*
X48208466Y478810D01*
X48017378Y557962D01*
X47845404Y672871D01*
X47699151Y819124D01*
X47584242Y991098D01*
X47505090Y1182186D01*
X47464740Y1385044D01*
X47464740Y1591876D01*
X47505090Y1794734D01*
X47584242Y1985822D01*
X47699151Y2157796D01*
X47845404Y2304049D01*
X48017378Y2418958D01*
X48208466Y2498110D01*
X48388852Y2533990D01*
X48411323Y2538460D01*
X48618157Y2538460D01*
X48640628Y2533990D01*
X48640628Y2533990D01*
G37*
G36*
X53640628Y2533990D02*
X53821014Y2498110D01*
X54012102Y2418958D01*
X54184076Y2304049D01*
X54330329Y2157796D01*
X54445238Y1985822D01*
X54524390Y1794734D01*
X54564740Y1591876D01*
X54564740Y1385044D01*
X54524390Y1182186D01*
X54445238Y991098D01*
X54330329Y819124D01*
X54184076Y672871D01*
X54012102Y557962D01*
X53821014Y478810D01*
X53640628Y442930D01*
X53618157Y438460D01*
X53411323Y438460D01*
X53388852Y442930D01*
X53208466Y478810D01*
X53017378Y557962D01*
X52845404Y672871D01*
X52699151Y819124D01*
X52584242Y991098D01*
X52505090Y1182186D01*
X52464740Y1385044D01*
X52464740Y1591876D01*
X52505090Y1794734D01*
X52584242Y1985822D01*
X52699151Y2157796D01*
X52845404Y2304049D01*
X53017378Y2418958D01*
X53208466Y2498110D01*
X53388852Y2533990D01*
X53411323Y2538460D01*
X53618157Y2538460D01*
X53640628Y2533990D01*
X53640628Y2533990D01*
G37*
G36*
X32636608Y2533990D02*
X32816994Y2498110D01*
X33008082Y2418958D01*
X33180056Y2304049D01*
X33326309Y2157796D01*
X33441218Y1985822D01*
X33520370Y1794734D01*
X33560720Y1591876D01*
X33560720Y1385044D01*
X33520370Y1182186D01*
X33441218Y991098D01*
X33326309Y819124D01*
X33180056Y672871D01*
X33008082Y557962D01*
X32816994Y478810D01*
X32636608Y442930D01*
X32614137Y438460D01*
X32407303Y438460D01*
X32384832Y442930D01*
X32204446Y478810D01*
X32013358Y557962D01*
X31841384Y672871D01*
X31695131Y819124D01*
X31580222Y991098D01*
X31501070Y1182186D01*
X31460720Y1385044D01*
X31460720Y1591876D01*
X31501070Y1794734D01*
X31580222Y1985822D01*
X31695131Y2157796D01*
X31841384Y2304049D01*
X32013358Y2418958D01*
X32204446Y2498110D01*
X32384832Y2533990D01*
X32407303Y2538460D01*
X32614137Y2538460D01*
X32636608Y2533990D01*
X32636608Y2533990D01*
G37*
M02*
