G04 #@! TF.FileFunction,Soldermask,Bot*
%FSLAX46Y46*%
G04 Gerber Fmt 4.6, Leading zero omitted, Abs format (unit mm)*
G04 Created by KiCad (PCBNEW (2015-05-18 BZR 5668)-product) date Mon 22 Jun 2015 04:58:00 PM CEST*
%MOMM*%
G01*
G04 APERTURE LIST*
%ADD10C,0.100000*%
%ADD11C,3.600000*%
%ADD12C,1.700000*%
%ADD13C,1.200000*%
%ADD14R,1.400000X1.400000*%
%ADD15C,1.400000*%
%ADD16C,1.720000*%
%ADD17C,1.950000*%
%ADD18R,1.827200X1.827200*%
%ADD19O,1.827200X1.827200*%
%ADD20R,1.827200X2.132000*%
%ADD21O,1.827200X2.132000*%
%ADD22C,2.200000*%
%ADD23C,1.850000*%
%ADD24C,2.500000*%
%ADD25C,2.400000*%
%ADD26C,2.100000*%
%ADD27C,1.601140*%
%ADD28C,3.400000*%
%ADD29C,3.100000*%
%ADD30R,4.100000X4.100000*%
%ADD31R,3.600000X3.600000*%
%ADD32C,1.624000*%
%ADD33C,2.800020*%
%ADD34R,3.000000X3.000000*%
%ADD35C,3.000000*%
%ADD36R,2.098980X2.098980*%
%ADD37C,5.600000*%
%ADD38C,1.600000*%
G04 APERTURE END LIST*
D10*
D11*
X63581280Y-156570680D03*
X146075400Y-156570680D03*
X228579680Y-156570680D03*
X146072860Y-23075900D03*
D12*
X184174400Y-57729120D03*
D13*
X117374400Y-57729120D03*
D14*
X224028000Y-41402000D03*
D15*
X224028000Y-46402000D03*
D14*
X224028000Y-57708800D03*
D15*
X224028000Y-52708800D03*
D14*
X202260200Y-102466140D03*
D15*
X202260200Y-100466140D03*
D14*
X202260200Y-94592140D03*
D15*
X202260200Y-96592140D03*
D14*
X199115680Y-68646040D03*
D15*
X201115680Y-68646040D03*
D14*
X200164700Y-82257900D03*
D15*
X200164700Y-84257900D03*
D14*
X201625200Y-48260000D03*
D15*
X199625200Y-48260000D03*
D16*
X171701460Y-31589980D03*
X171701460Y-33589980D03*
X171701460Y-35589980D03*
D17*
X174421460Y-30859980D03*
D16*
X171701460Y-37589980D03*
D17*
X174421460Y-37859980D03*
X168981460Y-30859980D03*
X168981460Y-37859980D03*
D18*
X85788500Y-56451500D03*
D19*
X85788500Y-53911500D03*
X88328500Y-56451500D03*
X88328500Y-53911500D03*
X90868500Y-56451500D03*
X90868500Y-53911500D03*
X93408500Y-56451500D03*
X93408500Y-53911500D03*
X95948500Y-56451500D03*
X95948500Y-53911500D03*
X98488500Y-56451500D03*
X98488500Y-53911500D03*
X101028500Y-56451500D03*
X101028500Y-53911500D03*
X103568500Y-56451500D03*
X103568500Y-53911500D03*
X106108500Y-56451500D03*
X106108500Y-53911500D03*
X108648500Y-56451500D03*
X108648500Y-53911500D03*
D20*
X141478000Y-47942500D03*
D21*
X144018000Y-47942500D03*
X146558000Y-47942500D03*
X149098000Y-47942500D03*
X151638000Y-47942500D03*
X154178000Y-47942500D03*
X156718000Y-47942500D03*
X159258000Y-47942500D03*
X161798000Y-47942500D03*
X164338000Y-47942500D03*
D20*
X93408500Y-48831500D03*
D21*
X95948500Y-48831500D03*
X98488500Y-48831500D03*
D22*
X90433440Y-25212840D03*
D23*
X89173440Y-22722840D03*
X84673440Y-22722840D03*
D22*
X83423440Y-25212840D03*
D24*
X98078260Y-26569660D03*
D25*
X110578260Y-34069660D03*
D26*
X103078260Y-21569660D03*
D25*
X113078260Y-31569660D03*
X105578260Y-31569660D03*
X98078260Y-31569660D03*
X100578260Y-34069660D03*
D26*
X108078260Y-21569660D03*
D24*
X113078260Y-26569660D03*
D26*
X195966080Y-25440640D03*
D27*
X180980080Y-31155640D03*
X183266080Y-31155640D03*
X192410080Y-31155640D03*
X194696080Y-31155640D03*
X191394080Y-26329640D03*
X189362080Y-26329640D03*
X187330080Y-26329640D03*
X185298080Y-26329640D03*
X188346080Y-24551640D03*
X186314080Y-24551640D03*
X190378080Y-24551640D03*
X184282080Y-24551640D03*
D28*
X181488080Y-22011640D03*
X194188080Y-22011640D03*
D26*
X179710080Y-25440640D03*
D24*
X120082280Y-26572200D03*
D25*
X132582280Y-34072200D03*
D26*
X125082280Y-21572200D03*
D25*
X135082280Y-31572200D03*
X127582280Y-31572200D03*
X120082280Y-31572200D03*
X122582280Y-34072200D03*
D26*
X130082280Y-21572200D03*
D24*
X135082280Y-26572200D03*
D29*
X77647800Y-79464500D03*
X83997800Y-79464500D03*
X71297800Y-79464500D03*
X77647800Y-95694500D03*
X83997800Y-95694500D03*
X71297800Y-95694500D03*
X214541100Y-123900600D03*
X208191100Y-123900600D03*
X220891100Y-123900600D03*
X214541100Y-107670600D03*
X208191100Y-107670600D03*
X220891100Y-107670600D03*
X214541100Y-144093600D03*
X208191100Y-144093600D03*
X220891100Y-144093600D03*
X214541100Y-127863600D03*
X208191100Y-127863600D03*
X220891100Y-127863600D03*
X77647800Y-107666120D03*
X83997800Y-107666120D03*
X71297800Y-107666120D03*
X77647800Y-123896120D03*
X83997800Y-123896120D03*
X71297800Y-123896120D03*
X77647800Y-127866740D03*
X83997800Y-127866740D03*
X71297800Y-127866740D03*
X77647800Y-144096740D03*
X83997800Y-144096740D03*
X71297800Y-144096740D03*
D30*
X206580740Y-32773620D03*
D31*
X206580740Y-26771080D03*
X201880740Y-29771080D03*
D32*
X158991300Y-30880320D03*
X156451300Y-30880320D03*
X156451300Y-28881340D03*
X158991300Y-28881340D03*
D33*
X163720780Y-26181320D03*
X151721820Y-26181320D03*
D34*
X209133294Y-64035794D03*
D35*
X213093294Y-64035794D03*
D36*
X211498180Y-23073360D03*
D37*
X216578180Y-23073360D03*
D38*
X93332300Y-122707400D03*
X98412300Y-122707400D03*
X93332300Y-117627400D03*
X93332300Y-115087400D03*
X93332300Y-110007400D03*
X93332300Y-112547400D03*
X98412300Y-112547400D03*
X98412300Y-117627400D03*
X98412300Y-110007400D03*
X98412300Y-115087400D03*
X93129100Y-148653500D03*
X98209100Y-148653500D03*
X93129100Y-143573500D03*
X93129100Y-141033500D03*
X93129100Y-135953500D03*
X93129100Y-138493500D03*
X98209100Y-138493500D03*
X98209100Y-143573500D03*
X98209100Y-135953500D03*
X98209100Y-141033500D03*
D11*
X75577700Y-23075900D03*
M02*
