G04 #@! TF.GenerationSoftware,KiCad,Pcbnew,5.0.0*
G04 #@! TF.CreationDate,2018-09-11T15:54:16+02:00*
G04 #@! TF.ProjectId,bottom-board,626F74746F6D2D626F6172642E6B6963,rev?*
G04 #@! TF.SameCoordinates,PX48111b4PY15fd6c8*
G04 #@! TF.FileFunction,Drawing*
%FSLAX46Y46*%
G04 Gerber Fmt 4.6, Leading zero omitted, Abs format (unit mm)*
G04 Created by KiCad (PCBNEW 5.0.0) date Tue Sep 11 15:54:16 2018*
%MOMM*%
%LPD*%
G01*
G04 APERTURE LIST*
%ADD10C,0.300000*%
%ADD11C,0.150000*%
G04 APERTURE END LIST*
D10*
X45748368Y-57216837D02*
X45748368Y-58216837D01*
X44248368Y-57573980D01*
X45748368Y-59073980D02*
X45748368Y-59216837D01*
X45676940Y-59359694D01*
X45605511Y-59431123D01*
X45462654Y-59502552D01*
X45176940Y-59573980D01*
X44819797Y-59573980D01*
X44534082Y-59502552D01*
X44391225Y-59431123D01*
X44319797Y-59359694D01*
X44248368Y-59216837D01*
X44248368Y-59073980D01*
X44319797Y-58931123D01*
X44391225Y-58859694D01*
X44534082Y-58788266D01*
X44819797Y-58716837D01*
X45176940Y-58716837D01*
X45462654Y-58788266D01*
X45605511Y-58859694D01*
X45676940Y-58931123D01*
X45748368Y-59073980D01*
X44391225Y-60216837D02*
X44319797Y-60288266D01*
X44248368Y-60216837D01*
X44319797Y-60145409D01*
X44391225Y-60216837D01*
X44248368Y-60216837D01*
X45748368Y-61216837D02*
X45748368Y-61359694D01*
X45676940Y-61502552D01*
X45605511Y-61573980D01*
X45462654Y-61645409D01*
X45176940Y-61716837D01*
X44819797Y-61716837D01*
X44534082Y-61645409D01*
X44391225Y-61573980D01*
X44319797Y-61502552D01*
X44248368Y-61359694D01*
X44248368Y-61216837D01*
X44319797Y-61073980D01*
X44391225Y-61002552D01*
X44534082Y-60931123D01*
X44819797Y-60859694D01*
X45176940Y-60859694D01*
X45462654Y-60931123D01*
X45605511Y-61002552D01*
X45676940Y-61073980D01*
X45748368Y-61216837D01*
X45748368Y-62645409D02*
X45748368Y-62788266D01*
X45676940Y-62931123D01*
X45605511Y-63002552D01*
X45462654Y-63073980D01*
X45176940Y-63145409D01*
X44819797Y-63145409D01*
X44534082Y-63073980D01*
X44391225Y-63002552D01*
X44319797Y-62931123D01*
X44248368Y-62788266D01*
X44248368Y-62645409D01*
X44319797Y-62502552D01*
X44391225Y-62431123D01*
X44534082Y-62359694D01*
X44819797Y-62288266D01*
X45176940Y-62288266D01*
X45462654Y-62359694D01*
X45605511Y-62431123D01*
X45676940Y-62502552D01*
X45748368Y-62645409D01*
X45605511Y-63716837D02*
X45676940Y-63788266D01*
X45748368Y-63931123D01*
X45748368Y-64288266D01*
X45676940Y-64431123D01*
X45605511Y-64502552D01*
X45462654Y-64573980D01*
X45319797Y-64573980D01*
X45105511Y-64502552D01*
X44248368Y-63645409D01*
X44248368Y-64573980D01*
X44248368Y-66359694D02*
X45248368Y-66359694D01*
X45105511Y-66359694D02*
X45176940Y-66431123D01*
X45248368Y-66573980D01*
X45248368Y-66788266D01*
X45176940Y-66931123D01*
X45034082Y-67002552D01*
X44248368Y-67002552D01*
X45034082Y-67002552D02*
X45176940Y-67073980D01*
X45248368Y-67216837D01*
X45248368Y-67431123D01*
X45176940Y-67573980D01*
X45034082Y-67645409D01*
X44248368Y-67645409D01*
X44248368Y-68359694D02*
X45248368Y-68359694D01*
X45105511Y-68359694D02*
X45176940Y-68431123D01*
X45248368Y-68573980D01*
X45248368Y-68788266D01*
X45176940Y-68931123D01*
X45034082Y-69002552D01*
X44248368Y-69002552D01*
X45034082Y-69002552D02*
X45176940Y-69073980D01*
X45248368Y-69216837D01*
X45248368Y-69431123D01*
X45176940Y-69573980D01*
X45034082Y-69645409D01*
X44248368Y-69645409D01*
X42826940Y-28501340D02*
X42826940Y-98503764D01*
X37320220Y-28501340D02*
X43413361Y-28501340D01*
X37320220Y-98503764D02*
X43413361Y-98503764D01*
X42826940Y-98503764D02*
X42240519Y-97377260D01*
X42826940Y-98503764D02*
X43413361Y-97377260D01*
X42826940Y-28501340D02*
X42240519Y-29627844D01*
X42826940Y-28501340D02*
X43413361Y-29627844D01*
X92883528Y-57989845D02*
X91883528Y-57989845D01*
X93454957Y-57632702D02*
X92383528Y-57275559D01*
X92383528Y-58204130D01*
X93383528Y-59061273D02*
X93383528Y-59204130D01*
X93312100Y-59346987D01*
X93240671Y-59418416D01*
X93097814Y-59489845D01*
X92812100Y-59561273D01*
X92454957Y-59561273D01*
X92169242Y-59489845D01*
X92026385Y-59418416D01*
X91954957Y-59346987D01*
X91883528Y-59204130D01*
X91883528Y-59061273D01*
X91954957Y-58918416D01*
X92026385Y-58846987D01*
X92169242Y-58775559D01*
X92454957Y-58704130D01*
X92812100Y-58704130D01*
X93097814Y-58775559D01*
X93240671Y-58846987D01*
X93312100Y-58918416D01*
X93383528Y-59061273D01*
X92026385Y-60204130D02*
X91954957Y-60275559D01*
X91883528Y-60204130D01*
X91954957Y-60132702D01*
X92026385Y-60204130D01*
X91883528Y-60204130D01*
X93383528Y-61204130D02*
X93383528Y-61346987D01*
X93312100Y-61489845D01*
X93240671Y-61561273D01*
X93097814Y-61632702D01*
X92812100Y-61704130D01*
X92454957Y-61704130D01*
X92169242Y-61632702D01*
X92026385Y-61561273D01*
X91954957Y-61489845D01*
X91883528Y-61346987D01*
X91883528Y-61204130D01*
X91954957Y-61061273D01*
X92026385Y-60989845D01*
X92169242Y-60918416D01*
X92454957Y-60846987D01*
X92812100Y-60846987D01*
X93097814Y-60918416D01*
X93240671Y-60989845D01*
X93312100Y-61061273D01*
X93383528Y-61204130D01*
X93383528Y-62632702D02*
X93383528Y-62775559D01*
X93312100Y-62918416D01*
X93240671Y-62989845D01*
X93097814Y-63061273D01*
X92812100Y-63132702D01*
X92454957Y-63132702D01*
X92169242Y-63061273D01*
X92026385Y-62989845D01*
X91954957Y-62918416D01*
X91883528Y-62775559D01*
X91883528Y-62632702D01*
X91954957Y-62489845D01*
X92026385Y-62418416D01*
X92169242Y-62346987D01*
X92454957Y-62275559D01*
X92812100Y-62275559D01*
X93097814Y-62346987D01*
X93240671Y-62418416D01*
X93312100Y-62489845D01*
X93383528Y-62632702D01*
X93383528Y-64061273D02*
X93383528Y-64204130D01*
X93312100Y-64346987D01*
X93240671Y-64418416D01*
X93097814Y-64489845D01*
X92812100Y-64561273D01*
X92454957Y-64561273D01*
X92169242Y-64489845D01*
X92026385Y-64418416D01*
X91954957Y-64346987D01*
X91883528Y-64204130D01*
X91883528Y-64061273D01*
X91954957Y-63918416D01*
X92026385Y-63846987D01*
X92169242Y-63775559D01*
X92454957Y-63704130D01*
X92812100Y-63704130D01*
X93097814Y-63775559D01*
X93240671Y-63846987D01*
X93312100Y-63918416D01*
X93383528Y-64061273D01*
X91883528Y-66346987D02*
X92883528Y-66346987D01*
X92740671Y-66346987D02*
X92812100Y-66418416D01*
X92883528Y-66561273D01*
X92883528Y-66775559D01*
X92812100Y-66918416D01*
X92669242Y-66989845D01*
X91883528Y-66989845D01*
X92669242Y-66989845D02*
X92812100Y-67061273D01*
X92883528Y-67204130D01*
X92883528Y-67418416D01*
X92812100Y-67561273D01*
X92669242Y-67632702D01*
X91883528Y-67632702D01*
X91883528Y-68346987D02*
X92883528Y-68346987D01*
X92740671Y-68346987D02*
X92812100Y-68418416D01*
X92883528Y-68561273D01*
X92883528Y-68775559D01*
X92812100Y-68918416D01*
X92669242Y-68989845D01*
X91883528Y-68989845D01*
X92669242Y-68989845D02*
X92812100Y-69061273D01*
X92883528Y-69204130D01*
X92883528Y-69418416D01*
X92812100Y-69561273D01*
X92669242Y-69632702D01*
X91883528Y-69632702D01*
X90462100Y-43489880D02*
X90462100Y-83489811D01*
X75684380Y-43489880D02*
X91048521Y-43489880D01*
X75684380Y-83489811D02*
X91048521Y-83489811D01*
X90462100Y-83489811D02*
X89875679Y-82363307D01*
X90462100Y-83489811D02*
X91048521Y-82363307D01*
X90462100Y-43489880D02*
X89875679Y-44616384D01*
X90462100Y-43489880D02*
X91048521Y-44616384D01*
X69376605Y-23707715D02*
X70376605Y-23707715D01*
X69733748Y-25207715D01*
X70805177Y-23707715D02*
X71805177Y-23707715D01*
X71162320Y-25207715D01*
X72376605Y-25064858D02*
X72448034Y-25136286D01*
X72376605Y-25207715D01*
X72305177Y-25136286D01*
X72376605Y-25064858D01*
X72376605Y-25207715D01*
X73162320Y-25207715D02*
X73448034Y-25207715D01*
X73590891Y-25136286D01*
X73662320Y-25064858D01*
X73805177Y-24850572D01*
X73876605Y-24564858D01*
X73876605Y-23993429D01*
X73805177Y-23850572D01*
X73733748Y-23779144D01*
X73590891Y-23707715D01*
X73305177Y-23707715D01*
X73162320Y-23779144D01*
X73090891Y-23850572D01*
X73019462Y-23993429D01*
X73019462Y-24350572D01*
X73090891Y-24493429D01*
X73162320Y-24564858D01*
X73305177Y-24636286D01*
X73590891Y-24636286D01*
X73733748Y-24564858D01*
X73805177Y-24493429D01*
X73876605Y-24350572D01*
X74733748Y-24350572D02*
X74590891Y-24279144D01*
X74519462Y-24207715D01*
X74448034Y-24064858D01*
X74448034Y-23993429D01*
X74519462Y-23850572D01*
X74590891Y-23779144D01*
X74733748Y-23707715D01*
X75019462Y-23707715D01*
X75162320Y-23779144D01*
X75233748Y-23850572D01*
X75305177Y-23993429D01*
X75305177Y-24064858D01*
X75233748Y-24207715D01*
X75162320Y-24279144D01*
X75019462Y-24350572D01*
X74733748Y-24350572D01*
X74590891Y-24422001D01*
X74519462Y-24493429D01*
X74448034Y-24636286D01*
X74448034Y-24922001D01*
X74519462Y-25064858D01*
X74590891Y-25136286D01*
X74733748Y-25207715D01*
X75019462Y-25207715D01*
X75162320Y-25136286D01*
X75233748Y-25064858D01*
X75305177Y-24922001D01*
X75305177Y-24636286D01*
X75233748Y-24493429D01*
X75162320Y-24422001D01*
X75019462Y-24350572D01*
X76662320Y-23707715D02*
X75948034Y-23707715D01*
X75876605Y-24422001D01*
X75948034Y-24350572D01*
X76090891Y-24279144D01*
X76448034Y-24279144D01*
X76590891Y-24350572D01*
X76662320Y-24422001D01*
X76733748Y-24564858D01*
X76733748Y-24922001D01*
X76662320Y-25064858D01*
X76590891Y-25136286D01*
X76448034Y-25207715D01*
X76090891Y-25207715D01*
X75948034Y-25136286D01*
X75876605Y-25064858D01*
X78519462Y-25207715D02*
X78519462Y-24207715D01*
X78519462Y-24350572D02*
X78590891Y-24279144D01*
X78733748Y-24207715D01*
X78948034Y-24207715D01*
X79090891Y-24279144D01*
X79162320Y-24422001D01*
X79162320Y-25207715D01*
X79162320Y-24422001D02*
X79233748Y-24279144D01*
X79376605Y-24207715D01*
X79590891Y-24207715D01*
X79733748Y-24279144D01*
X79805177Y-24422001D01*
X79805177Y-25207715D01*
X80519462Y-25207715D02*
X80519462Y-24207715D01*
X80519462Y-24350572D02*
X80590891Y-24279144D01*
X80733748Y-24207715D01*
X80948034Y-24207715D01*
X81090891Y-24279144D01*
X81162320Y-24422001D01*
X81162320Y-25207715D01*
X81162320Y-24422001D02*
X81233748Y-24279144D01*
X81376605Y-24207715D01*
X81590891Y-24207715D01*
X81733748Y-24279144D01*
X81805177Y-24422001D01*
X81805177Y-25207715D01*
X36669851Y-26629144D02*
X114654790Y-26629144D01*
X36669851Y-28549384D02*
X36669851Y-26042723D01*
X114654790Y-28549384D02*
X114654790Y-26042723D01*
X114654790Y-26629144D02*
X113528286Y-27215565D01*
X114654790Y-26629144D02*
X113528286Y-26042723D01*
X36669851Y-26629144D02*
X37796355Y-27215565D01*
X36669851Y-26629144D02*
X37796355Y-26042723D01*
X-23991252Y-26251370D02*
X-23991252Y-25965655D01*
X-24062680Y-25822798D01*
X-24134109Y-25751370D01*
X-24348395Y-25608512D01*
X-24634109Y-25537084D01*
X-25205538Y-25537084D01*
X-25348395Y-25608512D01*
X-25419823Y-25679941D01*
X-25491252Y-25822798D01*
X-25491252Y-26108512D01*
X-25419823Y-26251370D01*
X-25348395Y-26322798D01*
X-25205538Y-26394227D01*
X-24848395Y-26394227D01*
X-24705538Y-26322798D01*
X-24634109Y-26251370D01*
X-24562680Y-26108512D01*
X-24562680Y-25822798D01*
X-24634109Y-25679941D01*
X-24705538Y-25608512D01*
X-24848395Y-25537084D01*
X-23991252Y-26894227D02*
X-23991252Y-27822798D01*
X-24562680Y-27322798D01*
X-24562680Y-27537084D01*
X-24634109Y-27679941D01*
X-24705538Y-27751370D01*
X-24848395Y-27822798D01*
X-25205538Y-27822798D01*
X-25348395Y-27751370D01*
X-25419823Y-27679941D01*
X-25491252Y-27537084D01*
X-25491252Y-27108512D01*
X-25419823Y-26965655D01*
X-25348395Y-26894227D01*
X-25348395Y-28465655D02*
X-25419823Y-28537084D01*
X-25491252Y-28465655D01*
X-25419823Y-28394227D01*
X-25348395Y-28465655D01*
X-25491252Y-28465655D01*
X-23991252Y-29894227D02*
X-23991252Y-29179941D01*
X-24705538Y-29108512D01*
X-24634109Y-29179941D01*
X-24562680Y-29322798D01*
X-24562680Y-29679941D01*
X-24634109Y-29822798D01*
X-24705538Y-29894227D01*
X-24848395Y-29965655D01*
X-25205538Y-29965655D01*
X-25348395Y-29894227D01*
X-25419823Y-29822798D01*
X-25491252Y-29679941D01*
X-25491252Y-29322798D01*
X-25419823Y-29179941D01*
X-25348395Y-29108512D01*
X-23991252Y-30894227D02*
X-23991252Y-31037084D01*
X-24062680Y-31179941D01*
X-24134109Y-31251370D01*
X-24276966Y-31322798D01*
X-24562680Y-31394227D01*
X-24919823Y-31394227D01*
X-25205538Y-31322798D01*
X-25348395Y-31251370D01*
X-25419823Y-31179941D01*
X-25491252Y-31037084D01*
X-25491252Y-30894227D01*
X-25419823Y-30751370D01*
X-25348395Y-30679941D01*
X-25205538Y-30608512D01*
X-24919823Y-30537084D01*
X-24562680Y-30537084D01*
X-24276966Y-30608512D01*
X-24134109Y-30679941D01*
X-24062680Y-30751370D01*
X-23991252Y-30894227D01*
X-24634109Y-32251370D02*
X-24562680Y-32108512D01*
X-24491252Y-32037084D01*
X-24348395Y-31965655D01*
X-24276966Y-31965655D01*
X-24134109Y-32037084D01*
X-24062680Y-32108512D01*
X-23991252Y-32251370D01*
X-23991252Y-32537084D01*
X-24062680Y-32679941D01*
X-24134109Y-32751370D01*
X-24276966Y-32822798D01*
X-24348395Y-32822798D01*
X-24491252Y-32751370D01*
X-24562680Y-32679941D01*
X-24634109Y-32537084D01*
X-24634109Y-32251370D01*
X-24705538Y-32108512D01*
X-24776966Y-32037084D01*
X-24919823Y-31965655D01*
X-25205538Y-31965655D01*
X-25348395Y-32037084D01*
X-25419823Y-32108512D01*
X-25491252Y-32251370D01*
X-25491252Y-32537084D01*
X-25419823Y-32679941D01*
X-25348395Y-32751370D01*
X-25205538Y-32822798D01*
X-24919823Y-32822798D01*
X-24776966Y-32751370D01*
X-24705538Y-32679941D01*
X-24634109Y-32537084D01*
X-25491252Y-34608512D02*
X-24491252Y-34608512D01*
X-24634109Y-34608512D02*
X-24562680Y-34679941D01*
X-24491252Y-34822798D01*
X-24491252Y-35037084D01*
X-24562680Y-35179941D01*
X-24705538Y-35251370D01*
X-25491252Y-35251370D01*
X-24705538Y-35251370D02*
X-24562680Y-35322798D01*
X-24491252Y-35465655D01*
X-24491252Y-35679941D01*
X-24562680Y-35822798D01*
X-24705538Y-35894227D01*
X-25491252Y-35894227D01*
X-25491252Y-36608512D02*
X-24491252Y-36608512D01*
X-24634109Y-36608512D02*
X-24562680Y-36679941D01*
X-24491252Y-36822798D01*
X-24491252Y-37037084D01*
X-24562680Y-37179941D01*
X-24705538Y-37251370D01*
X-25491252Y-37251370D01*
X-24705538Y-37251370D02*
X-24562680Y-37322798D01*
X-24491252Y-37465655D01*
X-24491252Y-37679941D01*
X-24562680Y-37822798D01*
X-24705538Y-37894227D01*
X-25491252Y-37894227D01*
X-22712680Y2540D02*
X-22712680Y-63505281D01*
X-21155660Y2540D02*
X-23299101Y2540D01*
X-21155660Y-63505281D02*
X-23299101Y-63505281D01*
X-22712680Y-63505281D02*
X-23299101Y-62378777D01*
X-22712680Y-63505281D02*
X-22126259Y-62378777D01*
X-22712680Y2540D02*
X-23299101Y-1123964D01*
X-22712680Y2540D02*
X-22126259Y-1123964D01*
D11*
X0Y0D02*
X-21159057Y0D01*
X75575160Y-63502540D02*
X-21159057Y-63502540D01*
X-3073400Y3086100D02*
X3086100Y-3073400D01*
X-3073400Y-3073400D02*
X3086100Y3086100D01*
X67424300Y-3073400D02*
X73583800Y3086100D01*
X67424300Y3086100D02*
X73583800Y-3073400D01*
X149923500Y-136575800D02*
X156083000Y-130416300D01*
X149923500Y-130416300D02*
X156083000Y-136575800D01*
X67424300Y-130416300D02*
X73583800Y-136575800D01*
X67424300Y-136575800D02*
X73583800Y-130416300D01*
X-15049500Y-136575800D02*
X-8890000Y-130416300D01*
X-15049500Y-130416300D02*
X-8890000Y-136575800D01*
M02*
