G04 #@! TF.GenerationSoftware,KiCad,Pcbnew,(2017-03-08 revision 2e4e0a9a0)-master*
G04 #@! TF.CreationDate,2017-06-12T12:50:09-03:00*
G04 #@! TF.ProjectId,bottom-board,626F74746F6D2D626F6172642E6B6963,rev?*
G04 #@! TF.FileFunction,Other,User*
%FSLAX46Y46*%
G04 Gerber Fmt 4.6, Leading zero omitted, Abs format (unit mm)*
G04 Created by KiCad (PCBNEW (2017-03-08 revision 2e4e0a9a0)-master) date Mon Jun 12 12:50:09 2017*
%MOMM*%
%LPD*%
G01*
G04 APERTURE LIST*
%ADD10C,0.100000*%
%ADD11C,0.050000*%
G04 APERTURE END LIST*
D10*
D11*
X130081200Y-60481300D02*
G75*
G03X130081200Y-60481300I-4750000J0D01*
G01*
X9712460Y-103861880D02*
X13012460Y-103861880D01*
X13012460Y-103861880D02*
X13012460Y-107061880D01*
X13012460Y-107061880D02*
X9712460Y-107061880D01*
X9712460Y-107061880D02*
X9712460Y-103861880D01*
X59853960Y-99616240D02*
X69553960Y-99616240D01*
X69553960Y-99616240D02*
X69553960Y-106916240D01*
X69553960Y-106916240D02*
X59853960Y-106916240D01*
X59853960Y-106916240D02*
X59853960Y-99616240D01*
X88028960Y-99278620D02*
X88028960Y-109778620D01*
X98528960Y-99278620D02*
X98528960Y-109778620D01*
X88028960Y-99278620D02*
X98528960Y-99278620D01*
X88028960Y-109778620D02*
X98528960Y-109778620D01*
X8752940Y-23433560D02*
X8752940Y-20833560D01*
X10352940Y-23433560D02*
X10352940Y-20833560D01*
X8752940Y-23433560D02*
X10352940Y-23433560D01*
X8752940Y-20833560D02*
X10352940Y-20833560D01*
X106622460Y-20421880D02*
X115922460Y-20421880D01*
X106622460Y-13021880D02*
X115922460Y-13021880D01*
X106622460Y-20421880D02*
X106622460Y-13021880D01*
X115922460Y-20421880D02*
X115922460Y-13021880D01*
X124836120Y-112038400D02*
X124836120Y-108738400D01*
X124836120Y-108738400D02*
X128036120Y-108738400D01*
X128036120Y-108738400D02*
X128036120Y-112038400D01*
X128036120Y-112038400D02*
X124836120Y-112038400D01*
X96685200Y-96225840D02*
X98285200Y-96225840D01*
X96685200Y-98825840D02*
X98285200Y-98825840D01*
X98285200Y-98825840D02*
X98285200Y-96225840D01*
X96685200Y-98825840D02*
X96685200Y-96225840D01*
X93802300Y-96120740D02*
X93802300Y-93520740D01*
X95402300Y-96120740D02*
X95402300Y-93520740D01*
X93802300Y-96120740D02*
X95402300Y-96120740D01*
X93802300Y-93520740D02*
X95402300Y-93520740D01*
X94678600Y-98825840D02*
X94678600Y-96225840D01*
X96278600Y-98825840D02*
X96278600Y-96225840D01*
X94678600Y-98825840D02*
X96278600Y-98825840D01*
X94678600Y-96225840D02*
X96278600Y-96225840D01*
X95554900Y-96120740D02*
X95554900Y-93520740D01*
X97154900Y-96120740D02*
X97154900Y-93520740D01*
X95554900Y-96120740D02*
X97154900Y-96120740D01*
X95554900Y-93520740D02*
X97154900Y-93520740D01*
X92672000Y-98825840D02*
X92672000Y-96225840D01*
X94272000Y-98825840D02*
X94272000Y-96225840D01*
X92672000Y-98825840D02*
X94272000Y-98825840D01*
X92672000Y-96225840D02*
X94272000Y-96225840D01*
X61264740Y-12411540D02*
X61264740Y4288460D01*
X61264740Y4288460D02*
X40764740Y4288460D01*
X40764740Y4288460D02*
X40764740Y-12411540D01*
X61264740Y-12411540D02*
X40764740Y-12411540D01*
X40260720Y-12411540D02*
X40260720Y4288460D01*
X40260720Y4288460D02*
X19760720Y4288460D01*
X19760720Y4288460D02*
X19760720Y-12411540D01*
X40260720Y-12411540D02*
X19760720Y-12411540D01*
X125678200Y-69458300D02*
G75*
G03X125678200Y-69458300I-5300000J0D01*
G01*
X85422460Y-124631880D02*
X85422460Y-121731880D01*
X86922460Y-124631880D02*
X86922460Y-121731880D01*
X85422460Y-124631880D02*
X86922460Y-124631880D01*
X85422460Y-121731880D02*
X86922460Y-121731880D01*
X77432460Y-122851880D02*
X77432460Y-125751880D01*
X75932460Y-122851880D02*
X75932460Y-125751880D01*
X77432460Y-122851880D02*
X75932460Y-122851880D01*
X77432460Y-125751880D02*
X75932460Y-125751880D01*
X119942460Y-38411880D02*
X118442460Y-38411880D01*
X119942460Y-35511880D02*
X118442460Y-35511880D01*
X118442460Y-35511880D02*
X118442460Y-38411880D01*
X119942460Y-35511880D02*
X119942460Y-38411880D01*
X90532460Y-97541880D02*
X90532460Y-93941880D01*
X92532460Y-97541880D02*
X92532460Y-93941880D01*
X90532460Y-97541880D02*
X92532460Y-97541880D01*
X90532460Y-93941880D02*
X92532460Y-93941880D01*
X86900160Y-110093000D02*
X83300160Y-110093000D01*
X86900160Y-108093000D02*
X83300160Y-108093000D01*
X86900160Y-110093000D02*
X86900160Y-108093000D01*
X83300160Y-110093000D02*
X83300160Y-108093000D01*
X98717960Y-105586020D02*
X102317960Y-105586020D01*
X98717960Y-107586020D02*
X102317960Y-107586020D01*
X98717960Y-105586020D02*
X98717960Y-107586020D01*
X102317960Y-105586020D02*
X102317960Y-107586020D01*
X107176060Y-28424280D02*
X107176060Y-24824280D01*
X109176060Y-28424280D02*
X109176060Y-24824280D01*
X107176060Y-28424280D02*
X109176060Y-28424280D01*
X107176060Y-24824280D02*
X109176060Y-24824280D01*
X105492460Y-28321880D02*
X105492460Y-25421880D01*
X106992460Y-28321880D02*
X106992460Y-25421880D01*
X105492460Y-28321880D02*
X106992460Y-28321880D01*
X105492460Y-25421880D02*
X106992460Y-25421880D01*
X115974200Y-104888600D02*
X118874200Y-104888600D01*
X115974200Y-106388600D02*
X118874200Y-106388600D01*
X115974200Y-104888600D02*
X115974200Y-106388600D01*
X118874200Y-104888600D02*
X118874200Y-106388600D01*
X70065560Y-93881640D02*
X67165560Y-93881640D01*
X70065560Y-92381640D02*
X67165560Y-92381640D01*
X70065560Y-93881640D02*
X70065560Y-92381640D01*
X67165560Y-93881640D02*
X67165560Y-92381640D01*
X62918680Y-112691480D02*
X65818680Y-112691480D01*
X62918680Y-114191480D02*
X65818680Y-114191480D01*
X62918680Y-112691480D02*
X62918680Y-114191480D01*
X65818680Y-112691480D02*
X65818680Y-114191480D01*
X18715060Y-63466280D02*
X21615060Y-63466280D01*
X18715060Y-64966280D02*
X21615060Y-64966280D01*
X18715060Y-63466280D02*
X18715060Y-64966280D01*
X21615060Y-63466280D02*
X21615060Y-64966280D01*
X88442460Y-18261880D02*
X91342460Y-18261880D01*
X88442460Y-19761880D02*
X91342460Y-19761880D01*
X88442460Y-18261880D02*
X88442460Y-19761880D01*
X91342460Y-18261880D02*
X91342460Y-19761880D01*
X77984760Y-14436600D02*
X74384760Y-14436600D01*
X77984760Y-12436600D02*
X74384760Y-12436600D01*
X77984760Y-14436600D02*
X77984760Y-12436600D01*
X74384760Y-14436600D02*
X74384760Y-12436600D01*
X82682460Y-17081880D02*
X82682460Y-14181880D01*
X84182460Y-17081880D02*
X84182460Y-14181880D01*
X82682460Y-17081880D02*
X84182460Y-17081880D01*
X82682460Y-14181880D02*
X84182460Y-14181880D01*
X92163560Y-9289480D02*
X89263560Y-9289480D01*
X92163560Y-7789480D02*
X89263560Y-7789480D01*
X92163560Y-9289480D02*
X92163560Y-7789480D01*
X89263560Y-9289480D02*
X89263560Y-7789480D01*
X78218960Y-17087280D02*
X75318960Y-17087280D01*
X78218960Y-15587280D02*
X75318960Y-15587280D01*
X78218960Y-17087280D02*
X78218960Y-15587280D01*
X75318960Y-17087280D02*
X75318960Y-15587280D01*
X62891100Y-13576640D02*
X62891100Y-16476640D01*
X61391100Y-13576640D02*
X61391100Y-16476640D01*
X62891100Y-13576640D02*
X61391100Y-13576640D01*
X62891100Y-16476640D02*
X61391100Y-16476640D01*
X135899460Y-7424080D02*
X135899460Y-4524080D01*
X137399460Y-7424080D02*
X137399460Y-4524080D01*
X135899460Y-7424080D02*
X137399460Y-7424080D01*
X135899460Y-4524080D02*
X137399460Y-4524080D01*
X127212460Y-10101880D02*
X127212460Y-13001880D01*
X125712460Y-10101880D02*
X125712460Y-13001880D01*
X127212460Y-10101880D02*
X125712460Y-10101880D01*
X127212460Y-13001880D02*
X125712460Y-13001880D01*
X91721600Y-111407640D02*
X88821600Y-111407640D01*
X91721600Y-109907640D02*
X88821600Y-109907640D01*
X91721600Y-111407640D02*
X91721600Y-109907640D01*
X88821600Y-111407640D02*
X88821600Y-109907640D01*
X91721600Y-112969740D02*
X88821600Y-112969740D01*
X91721600Y-111469740D02*
X88821600Y-111469740D01*
X91721600Y-112969740D02*
X91721600Y-111469740D01*
X88821600Y-112969740D02*
X88821600Y-111469740D01*
X123562080Y-102355000D02*
X128162080Y-102355000D01*
X123562080Y-104655000D02*
X128162080Y-104655000D01*
X123562080Y-102355000D02*
X123562080Y-104655000D01*
X128162080Y-102355000D02*
X128162080Y-104655000D01*
X126772100Y-99349900D02*
X126772100Y-102249900D01*
X125272100Y-99349900D02*
X125272100Y-102249900D01*
X126772100Y-99349900D02*
X125272100Y-99349900D01*
X126772100Y-102249900D02*
X125272100Y-102249900D01*
X120355700Y-103196960D02*
X123255700Y-103196960D01*
X120355700Y-104696960D02*
X123255700Y-104696960D01*
X120355700Y-103196960D02*
X120355700Y-104696960D01*
X123255700Y-103196960D02*
X123255700Y-104696960D01*
X122220960Y-112555640D02*
X126820960Y-112555640D01*
X122220960Y-114855640D02*
X126820960Y-114855640D01*
X122220960Y-112555640D02*
X122220960Y-114855640D01*
X126820960Y-112555640D02*
X126820960Y-114855640D01*
X123938600Y-117972500D02*
X123938600Y-115072500D01*
X125438600Y-117972500D02*
X125438600Y-115072500D01*
X123938600Y-117972500D02*
X125438600Y-117972500D01*
X123938600Y-115072500D02*
X125438600Y-115072500D01*
X119073000Y-112495900D02*
X121973000Y-112495900D01*
X119073000Y-113995900D02*
X121973000Y-113995900D01*
X119073000Y-112495900D02*
X119073000Y-113995900D01*
X121973000Y-112495900D02*
X121973000Y-113995900D01*
X71763320Y-95217320D02*
X71763320Y-98117320D01*
X70263320Y-95217320D02*
X70263320Y-98117320D01*
X71763320Y-95217320D02*
X70263320Y-95217320D01*
X71763320Y-98117320D02*
X70263320Y-98117320D01*
X62365320Y-93947320D02*
X62365320Y-96847320D01*
X60865320Y-93947320D02*
X60865320Y-96847320D01*
X62365320Y-93947320D02*
X60865320Y-93947320D01*
X62365320Y-96847320D02*
X60865320Y-96847320D01*
X70263320Y-112585160D02*
X70263320Y-109685160D01*
X71763320Y-112585160D02*
X71763320Y-109685160D01*
X70263320Y-112585160D02*
X71763320Y-112585160D01*
X70263320Y-109685160D02*
X71763320Y-109685160D01*
X60865320Y-111086560D02*
X60865320Y-108186560D01*
X62365320Y-111086560D02*
X62365320Y-108186560D01*
X60865320Y-111086560D02*
X62365320Y-111086560D01*
X60865320Y-108186560D02*
X62365320Y-108186560D01*
X22606860Y-68372480D02*
X26206860Y-68372480D01*
X22606860Y-70372480D02*
X26206860Y-70372480D01*
X22606860Y-68372480D02*
X22606860Y-70372480D01*
X26206860Y-68372480D02*
X26206860Y-70372480D01*
X22606860Y-66238880D02*
X26206860Y-66238880D01*
X22606860Y-68238880D02*
X26206860Y-68238880D01*
X22606860Y-66238880D02*
X22606860Y-68238880D01*
X26206860Y-66238880D02*
X26206860Y-68238880D01*
X134386320Y-19405600D02*
X127655320Y-19405600D01*
X134386320Y-9245600D02*
X127655320Y-9245600D01*
X127655320Y-9245600D02*
X127655320Y-19405600D01*
X134386320Y-9245600D02*
X134386320Y-19405600D01*
X75559160Y-5418680D02*
X75559160Y-9018680D01*
X73559160Y-5418680D02*
X73559160Y-9018680D01*
X75559160Y-5418680D02*
X73559160Y-5418680D01*
X75559160Y-9018680D02*
X73559160Y-9018680D01*
X100036460Y4159720D02*
X100036460Y-16140280D01*
X100036460Y-16140280D02*
X92236460Y-16140280D01*
X92236460Y-16140280D02*
X92236460Y4159720D01*
X92236460Y4159720D02*
X100036460Y4159720D01*
X87634600Y-106136340D02*
X85034600Y-106136340D01*
X87634600Y-104536340D02*
X85034600Y-104536340D01*
X87634600Y-106136340D02*
X87634600Y-104536340D01*
X85034600Y-106136340D02*
X85034600Y-104536340D01*
X100743920Y-96230920D02*
X100743920Y-98830920D01*
X99143920Y-96230920D02*
X99143920Y-98830920D01*
X100743920Y-96230920D02*
X99143920Y-96230920D01*
X100743920Y-98830920D02*
X99143920Y-98830920D01*
X101193500Y-96120740D02*
X99593500Y-96120740D01*
X101193500Y-93520740D02*
X99593500Y-93520740D01*
X99593500Y-93520740D02*
X99593500Y-96120740D01*
X101193500Y-93520740D02*
X101193500Y-96120740D01*
X97815500Y-96120740D02*
X97815500Y-93520740D01*
X99415500Y-96120740D02*
X99415500Y-93520740D01*
X97815500Y-96120740D02*
X99415500Y-96120740D01*
X97815500Y-93520740D02*
X99415500Y-93520740D01*
X100850800Y-98825840D02*
X100850800Y-96225840D01*
X102450800Y-98825840D02*
X102450800Y-96225840D01*
X100850800Y-98825840D02*
X102450800Y-98825840D01*
X100850800Y-96225840D02*
X102450800Y-96225840D01*
X85072700Y-101424840D02*
X87672700Y-101424840D01*
X85072700Y-103024840D02*
X87672700Y-103024840D01*
X85072700Y-101424840D02*
X85072700Y-103024840D01*
X87672700Y-101424840D02*
X87672700Y-103024840D01*
X85072700Y-99735740D02*
X87672700Y-99735740D01*
X85072700Y-101335740D02*
X87672700Y-101335740D01*
X85072700Y-99735740D02*
X85072700Y-101335740D01*
X87672700Y-99735740D02*
X87672700Y-101335740D01*
X101822460Y-43991880D02*
X101822460Y-41391880D01*
X103422460Y-43991880D02*
X103422460Y-41391880D01*
X101822460Y-43991880D02*
X103422460Y-43991880D01*
X101822460Y-41391880D02*
X103422460Y-41391880D01*
X125183800Y-91714800D02*
X125183800Y-94314800D01*
X123583800Y-91714800D02*
X123583800Y-94314800D01*
X125183800Y-91714800D02*
X123583800Y-91714800D01*
X125183800Y-94314800D02*
X123583800Y-94314800D01*
X120404100Y-95158660D02*
X123004100Y-95158660D01*
X120404100Y-96758660D02*
X123004100Y-96758660D01*
X120404100Y-95158660D02*
X120404100Y-96758660D01*
X123004100Y-95158660D02*
X123004100Y-96758660D01*
X119938700Y-91714800D02*
X119938700Y-94314800D01*
X118338700Y-91714800D02*
X118338700Y-94314800D01*
X119938700Y-91714800D02*
X118338700Y-91714800D01*
X119938700Y-94314800D02*
X118338700Y-94314800D01*
X119257600Y-96784060D02*
X116657600Y-96784060D01*
X119257600Y-95184060D02*
X116657600Y-95184060D01*
X119257600Y-96784060D02*
X119257600Y-95184060D01*
X116657600Y-96784060D02*
X116657600Y-95184060D01*
X97382460Y-43991880D02*
X97382460Y-41391880D01*
X98982460Y-43991880D02*
X98982460Y-41391880D01*
X97382460Y-43991880D02*
X98982460Y-43991880D01*
X97382460Y-41391880D02*
X98982460Y-41391880D01*
X89772460Y-45491880D02*
X89772460Y-42891880D01*
X91372460Y-45491880D02*
X91372460Y-42891880D01*
X89772460Y-45491880D02*
X91372460Y-45491880D01*
X89772460Y-42891880D02*
X91372460Y-42891880D01*
X122400160Y-125536480D02*
X122400160Y-122936480D01*
X124000160Y-125536480D02*
X124000160Y-122936480D01*
X122400160Y-125536480D02*
X124000160Y-125536480D01*
X122400160Y-122936480D02*
X124000160Y-122936480D01*
X119146800Y-120482460D02*
X121746800Y-120482460D01*
X119146800Y-122082460D02*
X121746800Y-122082460D01*
X119146800Y-120482460D02*
X119146800Y-122082460D01*
X121746800Y-120482460D02*
X121746800Y-122082460D01*
X117167760Y-125536480D02*
X117167760Y-122936480D01*
X118767760Y-125536480D02*
X118767760Y-122936480D01*
X117167760Y-125536480D02*
X118767760Y-125536480D01*
X117167760Y-122936480D02*
X118767760Y-122936480D01*
X115400300Y-120482460D02*
X118000300Y-120482460D01*
X115400300Y-122082460D02*
X118000300Y-122082460D01*
X115400300Y-120482460D02*
X115400300Y-122082460D01*
X118000300Y-120482460D02*
X118000300Y-122082460D01*
X97232460Y-41391880D02*
X97232460Y-43991880D01*
X95632460Y-41391880D02*
X95632460Y-43991880D01*
X97232460Y-41391880D02*
X95632460Y-41391880D01*
X97232460Y-43991880D02*
X95632460Y-43991880D01*
X95632460Y-46741880D02*
X95632460Y-44141880D01*
X97232460Y-46741880D02*
X97232460Y-44141880D01*
X95632460Y-46741880D02*
X97232460Y-46741880D01*
X95632460Y-44141880D02*
X97232460Y-44141880D01*
X12232460Y-98421880D02*
X12232460Y-95821880D01*
X13832460Y-98421880D02*
X13832460Y-95821880D01*
X12232460Y-98421880D02*
X13832460Y-98421880D01*
X12232460Y-95821880D02*
X13832460Y-95821880D01*
X12462460Y-103561880D02*
X9862460Y-103561880D01*
X12462460Y-101961880D02*
X9862460Y-101961880D01*
X12462460Y-103561880D02*
X12462460Y-101961880D01*
X9862460Y-103561880D02*
X9862460Y-101961880D01*
X80109160Y-16885440D02*
X80109160Y-14285440D01*
X81709160Y-16885440D02*
X81709160Y-14285440D01*
X80109160Y-16885440D02*
X81709160Y-16885440D01*
X80109160Y-14285440D02*
X81709160Y-14285440D01*
X78397200Y-16885440D02*
X78397200Y-14285440D01*
X79997200Y-16885440D02*
X79997200Y-14285440D01*
X78397200Y-16885440D02*
X79997200Y-16885440D01*
X78397200Y-14285440D02*
X79997200Y-14285440D01*
X92422460Y-16301880D02*
X95022460Y-16301880D01*
X92422460Y-17901880D02*
X95022460Y-17901880D01*
X92422460Y-16301880D02*
X92422460Y-17901880D01*
X95022460Y-16301880D02*
X95022460Y-17901880D01*
X30588460Y-12603680D02*
X30588460Y-15803680D01*
X28588460Y-12603680D02*
X28588460Y-15803680D01*
X30588460Y-12603680D02*
X28588460Y-12603680D01*
X30588460Y-15803680D02*
X28588460Y-15803680D01*
X34604860Y-13106880D02*
X34604860Y-15706880D01*
X33004860Y-13106880D02*
X33004860Y-15706880D01*
X34604860Y-13106880D02*
X33004860Y-13106880D01*
X34604860Y-15706880D02*
X33004860Y-15706880D01*
X48471580Y-16291360D02*
X48471580Y-13091360D01*
X50471580Y-16291360D02*
X50471580Y-13091360D01*
X48471580Y-16291360D02*
X50471580Y-16291360D01*
X48471580Y-13091360D02*
X50471580Y-13091360D01*
X63398500Y-16595880D02*
X63398500Y-13995880D01*
X64998500Y-16595880D02*
X64998500Y-13995880D01*
X63398500Y-16595880D02*
X64998500Y-16595880D01*
X63398500Y-13995880D02*
X64998500Y-13995880D01*
X32798260Y-12603680D02*
X32798260Y-15803680D01*
X30798260Y-12603680D02*
X30798260Y-15803680D01*
X32798260Y-12603680D02*
X30798260Y-12603680D01*
X32798260Y-15803680D02*
X30798260Y-15803680D01*
X36357460Y-13106880D02*
X36357460Y-15706880D01*
X34757460Y-13106880D02*
X34757460Y-15706880D01*
X36357460Y-13106880D02*
X34757460Y-13106880D01*
X36357460Y-15706880D02*
X34757460Y-15706880D01*
X109822460Y-9051880D02*
X109822460Y-12251880D01*
X107822460Y-9051880D02*
X107822460Y-12251880D01*
X109822460Y-9051880D02*
X107822460Y-9051880D01*
X109822460Y-12251880D02*
X107822460Y-12251880D01*
X114932460Y-20841880D02*
X114932460Y-23441880D01*
X113332460Y-20841880D02*
X113332460Y-23441880D01*
X114932460Y-20841880D02*
X113332460Y-20841880D01*
X114932460Y-23441880D02*
X113332460Y-23441880D01*
X112002460Y-9051880D02*
X112002460Y-12251880D01*
X110002460Y-9051880D02*
X110002460Y-12251880D01*
X112002460Y-9051880D02*
X110002460Y-9051880D01*
X112002460Y-12251880D02*
X110002460Y-12251880D01*
X114152460Y-12251880D02*
X112152460Y-12251880D01*
X114152460Y-9051880D02*
X112152460Y-9051880D01*
X112152460Y-9051880D02*
X112152460Y-12251880D01*
X114152460Y-9051880D02*
X114152460Y-12251880D01*
X116702460Y-20841880D02*
X116702460Y-23441880D01*
X115102460Y-20841880D02*
X115102460Y-23441880D01*
X116702460Y-20841880D02*
X115102460Y-20841880D01*
X116702460Y-23441880D02*
X115102460Y-23441880D01*
X116292460Y-12251880D02*
X114292460Y-12251880D01*
X116292460Y-9051880D02*
X114292460Y-9051880D01*
X114292460Y-9051880D02*
X114292460Y-12251880D01*
X116292460Y-9051880D02*
X116292460Y-12251880D01*
X106012460Y-9351880D02*
X107612460Y-9351880D01*
X106012460Y-11951880D02*
X107612460Y-11951880D01*
X107612460Y-11951880D02*
X107612460Y-9351880D01*
X106012460Y-11951880D02*
X106012460Y-9351880D01*
X118272460Y-11951880D02*
X116672460Y-11951880D01*
X118272460Y-9351880D02*
X116672460Y-9351880D01*
X116672460Y-9351880D02*
X116672460Y-11951880D01*
X118272460Y-9351880D02*
X118272460Y-11951880D01*
X123558400Y-102099900D02*
X123558400Y-99499900D01*
X125158400Y-102099900D02*
X125158400Y-99499900D01*
X123558400Y-102099900D02*
X125158400Y-102099900D01*
X123558400Y-99499900D02*
X125158400Y-99499900D01*
X128600300Y-102099900D02*
X128600300Y-99499900D01*
X130200300Y-102099900D02*
X130200300Y-99499900D01*
X128600300Y-102099900D02*
X130200300Y-102099900D01*
X128600300Y-99499900D02*
X130200300Y-99499900D01*
X117508500Y-104746960D02*
X117508500Y-103146960D01*
X120108500Y-104746960D02*
X120108500Y-103146960D01*
X120108500Y-103146960D02*
X117508500Y-103146960D01*
X120108500Y-104746960D02*
X117508500Y-104746960D01*
X128485800Y-99499900D02*
X128485800Y-102099900D01*
X126885800Y-99499900D02*
X126885800Y-102099900D01*
X128485800Y-99499900D02*
X126885800Y-99499900D01*
X128485800Y-102099900D02*
X126885800Y-102099900D01*
X121767700Y-103037160D02*
X121767700Y-100437160D01*
X123367700Y-103037160D02*
X123367700Y-100437160D01*
X121767700Y-103037160D02*
X123367700Y-103037160D01*
X121767700Y-100437160D02*
X123367700Y-100437160D01*
X118186100Y-100437160D02*
X118186100Y-103037160D01*
X116586100Y-100437160D02*
X116586100Y-103037160D01*
X118186100Y-100437160D02*
X116586100Y-100437160D01*
X118186100Y-103037160D02*
X116586100Y-103037160D01*
X123824900Y-115222500D02*
X123824900Y-117822500D01*
X122224900Y-115222500D02*
X122224900Y-117822500D01*
X123824900Y-115222500D02*
X122224900Y-115222500D01*
X123824900Y-117822500D02*
X122224900Y-117822500D01*
X121640500Y-100437160D02*
X121640500Y-103037160D01*
X120040500Y-100437160D02*
X120040500Y-103037160D01*
X121640500Y-100437160D02*
X120040500Y-100437160D01*
X121640500Y-103037160D02*
X120040500Y-103037160D01*
X119913300Y-100437160D02*
X119913300Y-103037160D01*
X118313300Y-100437160D02*
X118313300Y-103037160D01*
X119913300Y-100437160D02*
X118313300Y-100437160D01*
X119913300Y-103037160D02*
X118313300Y-103037160D01*
X128866800Y-115222500D02*
X128866800Y-117822500D01*
X127266800Y-115222500D02*
X127266800Y-117822500D01*
X128866800Y-115222500D02*
X127266800Y-115222500D01*
X128866800Y-117822500D02*
X127266800Y-117822500D01*
X118889300Y-114045900D02*
X116289300Y-114045900D01*
X118889300Y-112445900D02*
X116289300Y-112445900D01*
X118889300Y-114045900D02*
X118889300Y-112445900D01*
X116289300Y-114045900D02*
X116289300Y-112445900D01*
X125552300Y-117822500D02*
X125552300Y-115222500D01*
X127152300Y-117822500D02*
X127152300Y-115222500D01*
X125552300Y-117822500D02*
X127152300Y-117822500D01*
X125552300Y-115222500D02*
X127152300Y-115222500D01*
X120383200Y-114203960D02*
X120383200Y-116803960D01*
X118783200Y-114203960D02*
X118783200Y-116803960D01*
X120383200Y-114203960D02*
X118783200Y-114203960D01*
X120383200Y-116803960D02*
X118783200Y-116803960D01*
X115328800Y-116803960D02*
X115328800Y-114203960D01*
X116928800Y-116803960D02*
X116928800Y-114203960D01*
X115328800Y-116803960D02*
X116928800Y-116803960D01*
X115328800Y-114203960D02*
X116928800Y-114203960D01*
X120510400Y-116803960D02*
X120510400Y-114203960D01*
X122110400Y-116803960D02*
X122110400Y-114203960D01*
X120510400Y-116803960D02*
X122110400Y-116803960D01*
X120510400Y-114203960D02*
X122110400Y-114203960D01*
X117056000Y-116803960D02*
X117056000Y-114203960D01*
X118656000Y-116803960D02*
X118656000Y-114203960D01*
X117056000Y-116803960D02*
X118656000Y-116803960D01*
X117056000Y-114203960D02*
X118656000Y-114203960D01*
X113551180Y-92321480D02*
X116151180Y-92321480D01*
X113551180Y-93921480D02*
X116151180Y-93921480D01*
X113551180Y-92321480D02*
X113551180Y-93921480D01*
X116151180Y-92321480D02*
X116151180Y-93921480D01*
X110528580Y-92321480D02*
X113128580Y-92321480D01*
X110528580Y-93921480D02*
X113128580Y-93921480D01*
X110528580Y-92321480D02*
X110528580Y-93921480D01*
X113128580Y-92321480D02*
X113128580Y-93921480D01*
X73449080Y-95367320D02*
X73449080Y-97967320D01*
X71849080Y-95367320D02*
X71849080Y-97967320D01*
X73449080Y-95367320D02*
X71849080Y-95367320D01*
X73449080Y-97967320D02*
X71849080Y-97967320D01*
X60779560Y-94097320D02*
X60779560Y-96697320D01*
X59179560Y-94097320D02*
X59179560Y-96697320D01*
X60779560Y-94097320D02*
X59179560Y-94097320D01*
X60779560Y-96697320D02*
X59179560Y-96697320D01*
X73449080Y-98928400D02*
X73449080Y-101528400D01*
X71849080Y-98928400D02*
X71849080Y-101528400D01*
X73449080Y-98928400D02*
X71849080Y-98928400D01*
X73449080Y-101528400D02*
X71849080Y-101528400D01*
X64419960Y-92275760D02*
X67019960Y-92275760D01*
X64419960Y-93875760D02*
X67019960Y-93875760D01*
X64419960Y-92275760D02*
X64419960Y-93875760D01*
X67019960Y-92275760D02*
X67019960Y-93875760D01*
X46533280Y-93855640D02*
X49133280Y-93855640D01*
X46533280Y-95455640D02*
X49133280Y-95455640D01*
X46533280Y-93855640D02*
X46533280Y-95455640D01*
X49133280Y-93855640D02*
X49133280Y-95455640D01*
X68412460Y-99741880D02*
X71012460Y-99741880D01*
X68412460Y-101341880D02*
X71012460Y-101341880D01*
X68412460Y-99741880D02*
X68412460Y-101341880D01*
X71012460Y-99741880D02*
X71012460Y-101341880D01*
X46533280Y-95537120D02*
X49133280Y-95537120D01*
X46533280Y-97137120D02*
X49133280Y-97137120D01*
X46533280Y-95537120D02*
X46533280Y-97137120D01*
X49133280Y-95537120D02*
X49133280Y-97137120D01*
X48290960Y-100495200D02*
X50890960Y-100495200D01*
X48290960Y-102095200D02*
X50890960Y-102095200D01*
X48290960Y-100495200D02*
X48290960Y-102095200D01*
X50890960Y-100495200D02*
X50890960Y-102095200D01*
X48296040Y-102176680D02*
X50896040Y-102176680D01*
X48296040Y-103776680D02*
X50896040Y-103776680D01*
X48296040Y-102176680D02*
X48296040Y-103776680D01*
X50896040Y-102176680D02*
X50896040Y-103776680D01*
X71849080Y-112435160D02*
X71849080Y-109835160D01*
X73449080Y-112435160D02*
X73449080Y-109835160D01*
X71849080Y-112435160D02*
X73449080Y-112435160D01*
X71849080Y-109835160D02*
X73449080Y-109835160D01*
X59179560Y-110936560D02*
X59179560Y-108336560D01*
X60779560Y-110936560D02*
X60779560Y-108336560D01*
X59179560Y-110936560D02*
X60779560Y-110936560D01*
X59179560Y-108336560D02*
X60779560Y-108336560D01*
X71849080Y-109133160D02*
X71849080Y-106533160D01*
X73449080Y-109133160D02*
X73449080Y-106533160D01*
X71849080Y-109133160D02*
X73449080Y-109133160D01*
X71849080Y-106533160D02*
X73449080Y-106533160D01*
X66345280Y-112646560D02*
X68945280Y-112646560D01*
X66345280Y-114246560D02*
X68945280Y-114246560D01*
X66345280Y-112646560D02*
X66345280Y-114246560D01*
X68945280Y-112646560D02*
X68945280Y-114246560D01*
X46533280Y-113200280D02*
X49133280Y-113200280D01*
X46533280Y-114800280D02*
X49133280Y-114800280D01*
X46533280Y-113200280D02*
X46533280Y-114800280D01*
X49133280Y-113200280D02*
X49133280Y-114800280D01*
X68407760Y-104935120D02*
X71007760Y-104935120D01*
X68407760Y-106535120D02*
X71007760Y-106535120D01*
X68407760Y-104935120D02*
X68407760Y-106535120D01*
X71007760Y-104935120D02*
X71007760Y-106535120D01*
X46533280Y-111523880D02*
X49133280Y-111523880D01*
X46533280Y-113123880D02*
X49133280Y-113123880D01*
X46533280Y-111523880D02*
X46533280Y-113123880D01*
X49133280Y-111523880D02*
X49133280Y-113123880D01*
X48296040Y-106565800D02*
X50896040Y-106565800D01*
X48296040Y-108165800D02*
X50896040Y-108165800D01*
X48296040Y-106565800D02*
X48296040Y-108165800D01*
X50896040Y-106565800D02*
X50896040Y-108165800D01*
X48311280Y-104884320D02*
X50911280Y-104884320D01*
X48311280Y-106484320D02*
X50911280Y-106484320D01*
X48311280Y-104884320D02*
X48311280Y-106484320D01*
X50911280Y-104884320D02*
X50911280Y-106484320D01*
X69982460Y-101601880D02*
X71582460Y-101601880D01*
X69982460Y-104201880D02*
X71582460Y-104201880D01*
X71582460Y-104201880D02*
X71582460Y-101601880D01*
X69982460Y-104201880D02*
X69982460Y-101601880D01*
X73452460Y-104201880D02*
X71852460Y-104201880D01*
X73452460Y-101601880D02*
X71852460Y-101601880D01*
X71852460Y-101601880D02*
X71852460Y-104201880D01*
X73452460Y-101601880D02*
X73452460Y-104201880D01*
X13997460Y-77375920D02*
X11397460Y-77375920D01*
X13997460Y-75775920D02*
X11397460Y-75775920D01*
X13997460Y-77375920D02*
X13997460Y-75775920D01*
X11397460Y-77375920D02*
X11397460Y-75775920D01*
X14048260Y-63273840D02*
X11448260Y-63273840D01*
X14048260Y-61673840D02*
X11448260Y-61673840D01*
X14048260Y-63273840D02*
X14048260Y-61673840D01*
X11448260Y-63273840D02*
X11448260Y-61673840D01*
X6605900Y835280D02*
X16155900Y835280D01*
X16155900Y835280D02*
X16155900Y-4464720D01*
X16155900Y-4464720D02*
X6605900Y-4464720D01*
X6605900Y-4464720D02*
X6605900Y835280D01*
X119048080Y-112342600D02*
X124548080Y-112342600D01*
X119048080Y-104842600D02*
X124548080Y-104842600D01*
X119048080Y-112342600D02*
X119048080Y-104842600D01*
X124548080Y-112342600D02*
X124548080Y-104842600D01*
X62564320Y-94034160D02*
X62564320Y-99534160D01*
X70064320Y-94034160D02*
X70064320Y-99534160D01*
X62564320Y-94034160D02*
X70064320Y-94034160D01*
X62564320Y-99534160D02*
X70064320Y-99534160D01*
X18721460Y-71455680D02*
X22421460Y-71455680D01*
X18721460Y-65155680D02*
X22421460Y-65155680D01*
X18721460Y-71455680D02*
X18721460Y-65155680D01*
X22421460Y-71455680D02*
X22421460Y-65155680D01*
X-17392220Y-74373680D02*
X10007780Y-74373680D01*
X10007780Y-74373680D02*
X10007780Y-54673680D01*
X10007780Y-54673680D02*
X-17392220Y-54673680D01*
X-17392220Y-74373680D02*
X-17392220Y-54673680D01*
X158402860Y-82837080D02*
X131002860Y-82837080D01*
X131002860Y-82837080D02*
X131002860Y-102537080D01*
X131002860Y-102537080D02*
X158402860Y-102537080D01*
X158402860Y-82837080D02*
X158402860Y-102537080D01*
X158402860Y-103042780D02*
X131002860Y-103042780D01*
X131002860Y-103042780D02*
X131002860Y-122742780D01*
X131002860Y-122742780D02*
X158402860Y-122742780D01*
X158402860Y-103042780D02*
X158402860Y-122742780D01*
X-17392220Y-102572760D02*
X10007780Y-102572760D01*
X10007780Y-102572760D02*
X10007780Y-82872760D01*
X10007780Y-82872760D02*
X-17392220Y-82872760D01*
X-17392220Y-102572760D02*
X-17392220Y-82872760D01*
X-17392220Y-122770840D02*
X10007780Y-122770840D01*
X10007780Y-122770840D02*
X10007780Y-103070840D01*
X10007780Y-103070840D02*
X-17392220Y-103070840D01*
X-17392220Y-122770840D02*
X-17392220Y-103070840D01*
X135758120Y-8963220D02*
X135758120Y7236780D01*
X135758120Y7236780D02*
X124308120Y7236780D01*
X124308120Y7236780D02*
X124308120Y-8963220D01*
X124308120Y-8963220D02*
X135758120Y-8963220D01*
X123400860Y-91817060D02*
X123400860Y-94817060D01*
X123400860Y-94817060D02*
X121500860Y-94817060D01*
X121500860Y-91817060D02*
X121500860Y-94817060D01*
X123400860Y-91817060D02*
X121500860Y-91817060D01*
X118158300Y-91817060D02*
X118158300Y-94817060D01*
X118158300Y-94817060D02*
X116258300Y-94817060D01*
X116258300Y-91817060D02*
X116258300Y-94817060D01*
X118158300Y-91817060D02*
X116258300Y-91817060D01*
X120242460Y-125401880D02*
X120242460Y-122401880D01*
X120242460Y-122401880D02*
X122142460Y-122401880D01*
X122142460Y-125401880D02*
X122142460Y-122401880D01*
X120242460Y-125401880D02*
X122142460Y-125401880D01*
X115012460Y-125401880D02*
X115012460Y-122401880D01*
X115012460Y-122401880D02*
X116912460Y-122401880D01*
X116912460Y-125401880D02*
X116912460Y-122401880D01*
X115012460Y-125401880D02*
X116912460Y-125401880D01*
X15892460Y-95921880D02*
X15892460Y-98921880D01*
X15892460Y-98921880D02*
X13992460Y-98921880D01*
X13992460Y-95921880D02*
X13992460Y-98921880D01*
X15892460Y-95921880D02*
X13992460Y-95921880D01*
X50426660Y-16803240D02*
X50426660Y-19803240D01*
X50426660Y-19803240D02*
X48526660Y-19803240D01*
X48526660Y-16803240D02*
X48526660Y-19803240D01*
X50426660Y-16803240D02*
X48526660Y-16803240D01*
X61358740Y-19813400D02*
X63258740Y-19813400D01*
X63258740Y-19813400D02*
X63258740Y-16813400D01*
X61358740Y-16813400D02*
X63258740Y-16813400D01*
X61358740Y-19813400D02*
X61358740Y-16813400D01*
X105832460Y-12251880D02*
X103832460Y-12251880D01*
X105832460Y-9051880D02*
X103832460Y-9051880D01*
X103832460Y-9051880D02*
X103832460Y-12251880D01*
X105832460Y-9051880D02*
X105832460Y-12251880D01*
X106402460Y-13321880D02*
X106402460Y-16221880D01*
X104902460Y-13321880D02*
X104902460Y-16221880D01*
X106402460Y-13321880D02*
X104902460Y-13321880D01*
X106402460Y-16221880D02*
X104902460Y-16221880D01*
X88443660Y-14965880D02*
X92043660Y-14965880D01*
X92043660Y-14965880D02*
X92043660Y-18165880D01*
X92043660Y-18165880D02*
X88443660Y-18165880D01*
X88443660Y-18165880D02*
X88443660Y-14965880D01*
X102015560Y-110982560D02*
X98715560Y-110982560D01*
X98715560Y-110982560D02*
X98715560Y-107782560D01*
X98715560Y-107782560D02*
X102015560Y-107782560D01*
X102015560Y-107782560D02*
X102015560Y-110982560D01*
X105546160Y-110982560D02*
X102246160Y-110982560D01*
X102246160Y-110982560D02*
X102246160Y-107782560D01*
X102246160Y-107782560D02*
X105546160Y-107782560D01*
X105546160Y-107782560D02*
X105546160Y-110982560D01*
X124825960Y-108423980D02*
X124825960Y-105123980D01*
X124825960Y-105123980D02*
X128025960Y-105123980D01*
X128025960Y-105123980D02*
X128025960Y-108423980D01*
X128025960Y-108423980D02*
X124825960Y-108423980D01*
X120054100Y-97012960D02*
X123354100Y-97012960D01*
X123354100Y-97012960D02*
X123354100Y-100212960D01*
X123354100Y-100212960D02*
X120054100Y-100212960D01*
X120054100Y-100212960D02*
X120054100Y-97012960D01*
X116561600Y-97012960D02*
X119861600Y-97012960D01*
X119861600Y-97012960D02*
X119861600Y-100212960D01*
X119861600Y-100212960D02*
X116561600Y-100212960D01*
X116561600Y-100212960D02*
X116561600Y-97012960D01*
X117256360Y-81352120D02*
X117256360Y-84652120D01*
X117256360Y-84652120D02*
X114056360Y-84652120D01*
X114056360Y-84652120D02*
X114056360Y-81352120D01*
X114056360Y-81352120D02*
X117256360Y-81352120D01*
X113682460Y-83591880D02*
X113682460Y-86891880D01*
X113682460Y-86891880D02*
X110482460Y-86891880D01*
X110482460Y-86891880D02*
X110482460Y-83591880D01*
X110482460Y-83591880D02*
X113682460Y-83591880D01*
X122007900Y-120218000D02*
X118707900Y-120218000D01*
X118707900Y-120218000D02*
X118707900Y-117018000D01*
X118707900Y-117018000D02*
X122007900Y-117018000D01*
X122007900Y-117018000D02*
X122007900Y-120218000D01*
X118553500Y-120179900D02*
X115253500Y-120179900D01*
X115253500Y-120179900D02*
X115253500Y-116979900D01*
X115253500Y-116979900D02*
X118553500Y-116979900D01*
X118553500Y-116979900D02*
X118553500Y-120179900D01*
X113682460Y-79121880D02*
X113682460Y-82421880D01*
X113682460Y-82421880D02*
X110482460Y-82421880D01*
X110482460Y-82421880D02*
X110482460Y-79121880D01*
X110482460Y-79121880D02*
X113682460Y-79121880D01*
X117256360Y-76881720D02*
X117256360Y-80181720D01*
X117256360Y-80181720D02*
X114056360Y-80181720D01*
X114056360Y-80181720D02*
X114056360Y-76881720D01*
X114056360Y-76881720D02*
X117256360Y-76881720D01*
X9712460Y-98681880D02*
X13012460Y-98681880D01*
X13012460Y-98681880D02*
X13012460Y-101881880D01*
X13012460Y-101881880D02*
X9712460Y-101881880D01*
X9712460Y-101881880D02*
X9712460Y-98681880D01*
X33220860Y-19181080D02*
X33220860Y-15881080D01*
X33220860Y-15881080D02*
X36420860Y-15881080D01*
X36420860Y-15881080D02*
X36420860Y-19181080D01*
X36420860Y-19181080D02*
X33220860Y-19181080D01*
X36675260Y-19181080D02*
X36675260Y-15881080D01*
X36675260Y-15881080D02*
X39875260Y-15881080D01*
X39875260Y-15881080D02*
X39875260Y-19181080D01*
X39875260Y-19181080D02*
X36675260Y-19181080D01*
X142662460Y-22461880D02*
X142662460Y-15161880D01*
X142662460Y-15161880D02*
X147162460Y-15161880D01*
X147162460Y-15161880D02*
X147162460Y-22461880D01*
X147162460Y-22461880D02*
X142662460Y-22461880D01*
X137052460Y-55091880D02*
X137052460Y-47791880D01*
X137052460Y-47791880D02*
X141552460Y-47791880D01*
X141552460Y-47791880D02*
X141552460Y-55091880D01*
X141552460Y-55091880D02*
X137052460Y-55091880D01*
X12252460Y-110301880D02*
X12252460Y-107301880D01*
X12252460Y-107301880D02*
X14152460Y-107301880D01*
X14152460Y-110301880D02*
X14152460Y-107301880D01*
X12252460Y-110301880D02*
X14152460Y-110301880D01*
X10342460Y-95721880D02*
X10342460Y-85221880D01*
X10342460Y-85221880D02*
X17442460Y-85221880D01*
X17442460Y-85221880D02*
X17442460Y-95721880D01*
X17442460Y-95721880D02*
X10342460Y-95721880D01*
X17451260Y-110823080D02*
X17451260Y-121323080D01*
X17451260Y-121323080D02*
X10351260Y-121323080D01*
X10351260Y-121323080D02*
X10351260Y-110823080D01*
X10351260Y-110823080D02*
X17451260Y-110823080D01*
X89793920Y7302340D02*
X89793920Y-10247660D01*
X89793920Y-10247660D02*
X74543920Y-10247660D01*
X74543920Y-10247660D02*
X74543920Y7302340D01*
X74543920Y7302340D02*
X89793920Y7302340D01*
X-11026820Y-29119700D02*
X-11026820Y-38919700D01*
X22523180Y-38919700D02*
X-11026820Y-38919700D01*
X22523180Y-29119700D02*
X-11026820Y-29119700D01*
X22523180Y-29119700D02*
X22523180Y-38919700D01*
X75652460Y-26271880D02*
X75652460Y-23671880D01*
X77252460Y-26271880D02*
X77252460Y-23671880D01*
X75652460Y-26271880D02*
X77252460Y-26271880D01*
X75652460Y-23671880D02*
X77252460Y-23671880D01*
X75468380Y-25517320D02*
X75468380Y-28117320D01*
X73868380Y-25517320D02*
X73868380Y-28117320D01*
X75468380Y-25517320D02*
X73868380Y-25517320D01*
X75468380Y-28117320D02*
X73868380Y-28117320D01*
X15892460Y-107811880D02*
X15892460Y-110411880D01*
X14292460Y-107811880D02*
X14292460Y-110411880D01*
X15892460Y-107811880D02*
X14292460Y-107811880D01*
X15892460Y-110411880D02*
X14292460Y-110411880D01*
X9492460Y-103311880D02*
X9492460Y-105911880D01*
X7892460Y-103311880D02*
X7892460Y-105911880D01*
X9492460Y-103311880D02*
X7892460Y-103311880D01*
X9492460Y-105911880D02*
X7892460Y-105911880D01*
X108092460Y-23441880D02*
X108092460Y-20841880D01*
X109692460Y-23441880D02*
X109692460Y-20841880D01*
X108092460Y-23441880D02*
X109692460Y-23441880D01*
X108092460Y-20841880D02*
X109692460Y-20841880D01*
X112532460Y-20841880D02*
X112532460Y-23441880D01*
X110932460Y-20841880D02*
X110932460Y-23441880D01*
X112532460Y-20841880D02*
X110932460Y-20841880D01*
X112532460Y-23441880D02*
X110932460Y-23441880D01*
X77425140Y-24414680D02*
X81025140Y-24414680D01*
X81025140Y-24414680D02*
X81025140Y-27614680D01*
X81025140Y-27614680D02*
X77425140Y-27614680D01*
X77425140Y-27614680D02*
X77425140Y-24414680D01*
X127162460Y-39011880D02*
X125162460Y-39011880D01*
X127162460Y-35411880D02*
X125162460Y-35411880D01*
X125162460Y-35411880D02*
X125162460Y-39011880D01*
X127162460Y-35411880D02*
X127162460Y-39011880D01*
X122092460Y-39011880D02*
X120092460Y-39011880D01*
X122092460Y-35411880D02*
X120092460Y-35411880D01*
X120092460Y-35411880D02*
X120092460Y-39011880D01*
X122092460Y-35411880D02*
X122092460Y-39011880D01*
X101122460Y-104851880D02*
X101122460Y-101251880D01*
X103122460Y-104851880D02*
X103122460Y-101251880D01*
X101122460Y-104851880D02*
X103122460Y-104851880D01*
X101122460Y-101251880D02*
X103122460Y-101251880D01*
X84845400Y-102545740D02*
X84845400Y-106145740D01*
X82845400Y-102545740D02*
X82845400Y-106145740D01*
X84845400Y-102545740D02*
X82845400Y-102545740D01*
X84845400Y-106145740D02*
X82845400Y-106145740D01*
X17742460Y-94971880D02*
X17742460Y-92071880D01*
X19242460Y-94971880D02*
X19242460Y-92071880D01*
X17742460Y-94971880D02*
X19242460Y-94971880D01*
X17742460Y-92071880D02*
X19242460Y-92071880D01*
X10612460Y-110551880D02*
X10612460Y-107651880D01*
X12112460Y-110551880D02*
X12112460Y-107651880D01*
X10612460Y-110551880D02*
X12112460Y-110551880D01*
X10612460Y-107651880D02*
X12112460Y-107651880D01*
X23106860Y-70477480D02*
X25706860Y-70477480D01*
X23106860Y-72077480D02*
X25706860Y-72077480D01*
X23106860Y-70477480D02*
X23106860Y-72077480D01*
X25706860Y-70477480D02*
X25706860Y-72077480D01*
X23106860Y-64533880D02*
X25706860Y-64533880D01*
X23106860Y-66133880D02*
X25706860Y-66133880D01*
X23106860Y-64533880D02*
X23106860Y-66133880D01*
X25706860Y-64533880D02*
X25706860Y-66133880D01*
X6141820Y-23433560D02*
X6141820Y-20833560D01*
X7741820Y-23433560D02*
X7741820Y-20833560D01*
X6141820Y-23433560D02*
X7741820Y-23433560D01*
X6141820Y-20833560D02*
X7741820Y-20833560D01*
X107987800Y-100352600D02*
X115887800Y-100352600D01*
X115887800Y-100352600D02*
X115887800Y-106352600D01*
X115887800Y-106352600D02*
X107987800Y-106352600D01*
X107987800Y-106352600D02*
X107987800Y-100352600D01*
X22432460Y-55051880D02*
X22432460Y-62951880D01*
X22432460Y-62951880D02*
X16432460Y-62951880D01*
X16432460Y-62951880D02*
X16432460Y-55051880D01*
X16432460Y-55051880D02*
X22432460Y-55051880D01*
X69761400Y-120297200D02*
X61861400Y-120297200D01*
X61861400Y-120297200D02*
X61861400Y-114297200D01*
X61861400Y-114297200D02*
X69761400Y-114297200D01*
X69761400Y-114297200D02*
X69761400Y-120297200D01*
X63222840Y-86225120D02*
X71122840Y-86225120D01*
X71122840Y-86225120D02*
X71122840Y-92225120D01*
X71122840Y-92225120D02*
X63222840Y-92225120D01*
X63222840Y-92225120D02*
X63222840Y-86225120D01*
X110997700Y-106435900D02*
X118897700Y-106435900D01*
X118897700Y-106435900D02*
X118897700Y-112435900D01*
X118897700Y-112435900D02*
X110997700Y-112435900D01*
X110997700Y-112435900D02*
X110997700Y-106435900D01*
X85595200Y-122595940D02*
X85595200Y-114695940D01*
X85595200Y-114695940D02*
X91595200Y-114695940D01*
X91595200Y-114695940D02*
X91595200Y-122595940D01*
X91595200Y-122595940D02*
X85595200Y-122595940D01*
X79577900Y-110172240D02*
X87477900Y-110172240D01*
X87477900Y-110172240D02*
X87477900Y-116172240D01*
X87477900Y-116172240D02*
X79577900Y-116172240D01*
X79577900Y-116172240D02*
X79577900Y-110172240D01*
X93922460Y-129031880D02*
X86022460Y-129031880D01*
X86022460Y-129031880D02*
X86022460Y-123031880D01*
X86022460Y-123031880D02*
X93922460Y-123031880D01*
X93922460Y-123031880D02*
X93922460Y-129031880D01*
X26172460Y-78138280D02*
X18272460Y-78138280D01*
X18272460Y-78138280D02*
X18272460Y-72138280D01*
X18272460Y-72138280D02*
X26172460Y-72138280D01*
X26172460Y-72138280D02*
X26172460Y-78138280D01*
X10195260Y-63461640D02*
X18095260Y-63461640D01*
X18095260Y-63461640D02*
X18095260Y-69461640D01*
X18095260Y-69461640D02*
X10195260Y-69461640D01*
X10195260Y-69461640D02*
X10195260Y-63461640D01*
X10195260Y-69608440D02*
X18095260Y-69608440D01*
X18095260Y-69608440D02*
X18095260Y-75608440D01*
X18095260Y-75608440D02*
X10195260Y-75608440D01*
X10195260Y-75608440D02*
X10195260Y-69608440D01*
X51035920Y-104365800D02*
X58935920Y-104365800D01*
X58935920Y-104365800D02*
X58935920Y-110365800D01*
X58935920Y-110365800D02*
X51035920Y-110365800D01*
X51035920Y-110365800D02*
X51035920Y-104365800D01*
X82766200Y-110086400D02*
X74866200Y-110086400D01*
X74866200Y-110086400D02*
X74866200Y-104086400D01*
X74866200Y-104086400D02*
X82766200Y-104086400D01*
X82766200Y-104086400D02*
X82766200Y-110086400D01*
X51035920Y-98290120D02*
X58935920Y-98290120D01*
X58935920Y-98290120D02*
X58935920Y-104290120D01*
X58935920Y-104290120D02*
X51035920Y-104290120D01*
X51035920Y-104290120D02*
X51035920Y-98290120D01*
X82766200Y-103975160D02*
X74866200Y-103975160D01*
X74866200Y-103975160D02*
X74866200Y-97975160D01*
X74866200Y-97975160D02*
X82766200Y-97975160D01*
X82766200Y-97975160D02*
X82766200Y-103975160D01*
X107281680Y-112519200D02*
X115181680Y-112519200D01*
X115181680Y-112519200D02*
X115181680Y-118519200D01*
X115181680Y-118519200D02*
X107281680Y-118519200D01*
X107281680Y-118519200D02*
X107281680Y-112519200D01*
X99067600Y-122860940D02*
X99067600Y-113160940D01*
X99067600Y-113160940D02*
X106367600Y-113160940D01*
X106367600Y-113160940D02*
X106367600Y-122860940D01*
X106367600Y-122860940D02*
X99067600Y-122860940D01*
X91663500Y-122860940D02*
X91663500Y-113160940D01*
X91663500Y-113160940D02*
X98963500Y-113160940D01*
X98963500Y-113160940D02*
X98963500Y-122860940D01*
X98963500Y-122860940D02*
X91663500Y-122860940D01*
X77422460Y-112711880D02*
X77422460Y-122411880D01*
X77422460Y-122411880D02*
X70122460Y-122411880D01*
X70122460Y-122411880D02*
X70122460Y-112711880D01*
X70122460Y-112711880D02*
X77422460Y-112711880D01*
X125432460Y-16951880D02*
X119432460Y-16951880D01*
X125432460Y-9051880D02*
X125432460Y-16951880D01*
X119432460Y-9051880D02*
X125432460Y-9051880D01*
X119432460Y-16951880D02*
X119432460Y-9051880D01*
X129607960Y-35210380D02*
X117607960Y-35210380D01*
X129607960Y-25710380D02*
X117607960Y-25710380D01*
X129607960Y-35210380D02*
X129607960Y-25710380D01*
X117607960Y-35210380D02*
X117607960Y-25710380D01*
X135668200Y-11485100D02*
X141818200Y-11485100D01*
X135668200Y-19285100D02*
X141818200Y-19285100D01*
X141818200Y-19285100D02*
X141818200Y-11485100D01*
X135668200Y-19285100D02*
X135668200Y-11485100D01*
X88699900Y-109914040D02*
X88699900Y-112214040D01*
X87499900Y-109914040D02*
X87499900Y-112214040D01*
X88699900Y-109914040D02*
X87499900Y-109914040D01*
X88699900Y-112214040D02*
X87499900Y-112214040D01*
X98702460Y-103751880D02*
X98702460Y-101451880D01*
X99902460Y-103751880D02*
X99902460Y-101451880D01*
X98702460Y-103751880D02*
X99902460Y-103751880D01*
X98702460Y-101451880D02*
X99902460Y-101451880D01*
X92323300Y-98951340D02*
X90023300Y-98951340D01*
X92323300Y-97751340D02*
X90023300Y-97751340D01*
X92323300Y-98951340D02*
X92323300Y-97751340D01*
X90023300Y-98951340D02*
X90023300Y-97751340D01*
X98707560Y-104182620D02*
X101007560Y-104182620D01*
X98707560Y-105382620D02*
X101007560Y-105382620D01*
X98707560Y-104182620D02*
X98707560Y-105382620D01*
X101007560Y-104182620D02*
X101007560Y-105382620D01*
X87316960Y-103179320D02*
X87316960Y-104379320D01*
X85016960Y-103179320D02*
X85016960Y-104379320D01*
X85016960Y-104379320D02*
X87316960Y-104379320D01*
X85016960Y-103179320D02*
X87316960Y-103179320D01*
X93170300Y-110705340D02*
X93170300Y-113005340D01*
X91970300Y-110705340D02*
X91970300Y-113005340D01*
X93170300Y-110705340D02*
X91970300Y-110705340D01*
X93170300Y-113005340D02*
X91970300Y-113005340D01*
X94453000Y-110705340D02*
X94453000Y-113005340D01*
X93253000Y-110705340D02*
X93253000Y-113005340D01*
X94453000Y-110705340D02*
X93253000Y-110705340D01*
X94453000Y-113005340D02*
X93253000Y-113005340D01*
X94672460Y-111831880D02*
X96972460Y-111831880D01*
X94672460Y-113031880D02*
X96972460Y-113031880D01*
X94672460Y-111831880D02*
X94672460Y-113031880D01*
X96972460Y-111831880D02*
X96972460Y-113031880D01*
X94672460Y-110561880D02*
X96972460Y-110561880D01*
X94672460Y-111761880D02*
X96972460Y-111761880D01*
X94672460Y-110561880D02*
X94672460Y-111761880D01*
X96972460Y-110561880D02*
X96972460Y-111761880D01*
X101511860Y-28424280D02*
X101511860Y-24824280D01*
X103511860Y-28424280D02*
X103511860Y-24824280D01*
X101511860Y-28424280D02*
X103511860Y-28424280D01*
X101511860Y-24824280D02*
X103511860Y-24824280D01*
X103692460Y-28331880D02*
X103692460Y-25431880D01*
X105192460Y-28331880D02*
X105192460Y-25431880D01*
X103692460Y-28331880D02*
X105192460Y-28331880D01*
X103692460Y-25431880D02*
X105192460Y-25431880D01*
X82632460Y-24761880D02*
X82632460Y-27661880D01*
X81132460Y-24761880D02*
X81132460Y-27661880D01*
X82632460Y-24761880D02*
X81132460Y-24761880D01*
X82632460Y-27661880D02*
X81132460Y-27661880D01*
X100092460Y-43991880D02*
X100092460Y-41391880D01*
X101692460Y-43991880D02*
X101692460Y-41391880D01*
X100092460Y-43991880D02*
X101692460Y-43991880D01*
X100092460Y-41391880D02*
X101692460Y-41391880D01*
X49277400Y-98200560D02*
X49277400Y-91100560D01*
X58977400Y-98200560D02*
X49277400Y-98200560D01*
X58977400Y-91100560D02*
X58977400Y-98200560D01*
X49277400Y-91100560D02*
X58977400Y-91100560D01*
X49277400Y-110450280D02*
X58977400Y-110450280D01*
X58977400Y-110450280D02*
X58977400Y-117550280D01*
X58977400Y-117550280D02*
X49277400Y-117550280D01*
X49277400Y-117550280D02*
X49277400Y-110450280D01*
X139157500Y-69458300D02*
G75*
G03X139157500Y-69458300I-6600000J0D01*
G01*
X150074900Y-69458300D02*
G75*
G03X150074900Y-69458300I-5300000J0D01*
G01*
X153500900Y-42407200D02*
G75*
G03X153500900Y-42407200I-6600000J0D01*
G01*
X139556300Y-42407200D02*
G75*
G03X139556300Y-42407200I-6600000J0D01*
G01*
X88364360Y-90650320D02*
X80464360Y-90650320D01*
X80464360Y-90650320D02*
X80464360Y-84650320D01*
X80464360Y-84650320D02*
X88364360Y-84650320D01*
X88364360Y-84650320D02*
X88364360Y-90650320D01*
X79600720Y-87897400D02*
X76700720Y-87897400D01*
X79600720Y-86397400D02*
X76700720Y-86397400D01*
X79600720Y-87897400D02*
X79600720Y-86397400D01*
X76700720Y-87897400D02*
X76700720Y-86397400D01*
X79595640Y-94933200D02*
X76695640Y-94933200D01*
X79595640Y-93433200D02*
X76695640Y-93433200D01*
X79595640Y-94933200D02*
X79595640Y-93433200D01*
X76695640Y-94933200D02*
X76695640Y-93433200D01*
X88359280Y-96761560D02*
X80459280Y-96761560D01*
X80459280Y-96761560D02*
X80459280Y-90761560D01*
X80459280Y-90761560D02*
X88359280Y-90761560D01*
X88359280Y-90761560D02*
X88359280Y-96761560D01*
X74379680Y-10353800D02*
X77979680Y-10353800D01*
X74379680Y-12353800D02*
X77979680Y-12353800D01*
X74379680Y-10353800D02*
X74379680Y-12353800D01*
X77979680Y-10353800D02*
X77979680Y-12353800D01*
X79703360Y-13555640D02*
X78203360Y-13555640D01*
X79703360Y-10655640D02*
X78203360Y-10655640D01*
X78203360Y-10655640D02*
X78203360Y-13555640D01*
X79703360Y-10655640D02*
X79703360Y-13555640D01*
X79909160Y-10554560D02*
X81909160Y-10554560D01*
X79909160Y-14154560D02*
X81909160Y-14154560D01*
X81909160Y-14154560D02*
X81909160Y-10554560D01*
X79909160Y-14154560D02*
X79909160Y-10554560D01*
X103684860Y7479720D02*
X103684860Y-8870280D01*
X103684860Y-8870280D02*
X120884860Y-8870280D01*
X120884860Y-8870280D02*
X120884860Y7479720D01*
X120884860Y7479720D02*
X103684860Y7479720D01*
X144570000Y-60481300D02*
G75*
G03X144570000Y-60481300I-4750000J0D01*
G01*
X69161760Y-41391880D02*
X70761760Y-41391880D01*
X69161760Y-43991880D02*
X70761760Y-43991880D01*
X70761760Y-43991880D02*
X70761760Y-41391880D01*
X69161760Y-43991880D02*
X69161760Y-41391880D01*
X147890000Y-55910000D02*
G75*
G03X147890000Y-55910000I-1000000J0D01*
G01*
X122062460Y-23731880D02*
G75*
G03X122062460Y-23731880I-1000000J0D01*
G01*
X71212460Y-123551880D02*
G75*
G03X71212460Y-123551880I-1000000J0D01*
G01*
X79882460Y-96466880D02*
G75*
G03X79882460Y-96466880I-1000000J0D01*
G01*
X70064320Y-112500860D02*
X70064320Y-107000860D01*
X62564320Y-112500860D02*
X62564320Y-107000860D01*
X70064320Y-112500860D02*
X62564320Y-112500860D01*
X70064320Y-107000860D02*
X62564320Y-107000860D01*
X108246880Y-100236280D02*
X108246880Y-94236280D01*
X116146880Y-100236280D02*
X108246880Y-100236280D01*
X116146880Y-94236280D02*
X116146880Y-100236280D01*
X108246880Y-94236280D02*
X116146880Y-94236280D01*
X107012440Y-118622820D02*
X114912440Y-118622820D01*
X114912440Y-118622820D02*
X114912440Y-124622820D01*
X114912440Y-124622820D02*
X107012440Y-124622820D01*
X107012440Y-124622820D02*
X107012440Y-118622820D01*
X112316740Y-124937620D02*
X114916740Y-124937620D01*
X112316740Y-126537620D02*
X114916740Y-126537620D01*
X112316740Y-124937620D02*
X112316740Y-126537620D01*
X114916740Y-124937620D02*
X114916740Y-126537620D01*
X111894140Y-124937620D02*
X111894140Y-126537620D01*
X109294140Y-124937620D02*
X109294140Y-126537620D01*
X109294140Y-126537620D02*
X111894140Y-126537620D01*
X109294140Y-124937620D02*
X111894140Y-124937620D01*
X63398500Y-19308600D02*
X63398500Y-16708600D01*
X64998500Y-19308600D02*
X64998500Y-16708600D01*
X63398500Y-19308600D02*
X64998500Y-19308600D01*
X63398500Y-16708600D02*
X64998500Y-16708600D01*
M02*
