M48
;DRILL file {KiCad 4.0.1-stable} date Mon 20 Jun 2016 04:43:58 PM CEST
;FORMAT={-:-/ absolute / inch / decimal}
FMAT,2
INCH,TZ
T1C0.012
T2C0.015
T3C0.018
T4C0.026
T5C0.027
T6C0.031
T7C0.032
T8C0.035
T9C0.036
T10C0.039
T11C0.039
T12C0.039
T13C0.040
T14C0.043
T15C0.051
T16C0.053
T17C0.059
T18C0.062
T19C0.063
T20C0.091
T21C0.130
T22C0.138
T23C0.146
%
G90
G05
M72
T1
X-0.3991Y-3.4742
X-0.3271Y-1.6792
X-0.3271Y-4.1992
X-0.3041Y-1.7032
X-0.3041Y-3.4052
X-0.2751Y-1.2382
X-0.2241Y-1.0712
X-0.1241Y-1.0472
X-0.0741Y-1.2152
X-0.0241Y-1.1172
X0.0259Y-1.1682
X0.1259Y-1.1922
X0.1759Y-1.4982
X0.2759Y-1.6562
X0.3259Y-1.4502
X0.3759Y-1.6322
X0.4259Y-1.4742
X0.4759Y-1.6082
X0.4859Y-4.2692
X0.4949Y-3.4742
X0.5669Y-2.3402
X0.5769Y-1.5842
X0.6099Y-2.4492
X0.6421Y-2.724
X0.6431Y-2.656
X0.6699Y-4.2692
X0.6729Y-3.4742
X0.6759Y-1.4982
X0.6879Y-2.4782
X0.7399Y-1.4022
X0.7699Y-1.4262
X0.7701Y-2.725
X0.7849Y-4.1772
X0.7889Y-3.4052
X0.7901Y-2.656
X0.7991Y-1.263
X0.7991Y-1.3402
X0.8239Y-2.4492
X0.8549Y-2.4782
X0.9639Y-2.4492
X1.0509Y-2.5722
X1.0509Y-2.6472
X1.0509Y-2.7312
X1.0509Y-2.8062
X1.4439Y-0.5372
X1.5469Y-1.0942
X1.7148Y-1.3642
X1.7389Y-1.5842
X1.7619Y-1.6082
X1.7859Y-1.6322
X1.8089Y-1.6562
X1.8349Y-1.1402
X1.8569Y-2.0862
X1.8581Y-1.263
X1.8581Y-1.306
X1.8679Y-1.1502
X1.8919Y-1.2612
X1.9149Y-4.8312
X1.9249Y-1.2612
X1.9514Y-1.9962
X1.9629Y-1.1172
X1.9749Y-2.0262
X1.9984Y-1.9667
X2.0219Y-2.0562
X2.081Y-0.995
X2.1049Y-1.1352
X2.1159Y-1.3642
X2.1399Y-2.1162
X2.1566Y-0.7622
X2.1749Y-1.3642
X2.1755Y-1.1352
X2.1851Y-1.727
X2.1929Y-3.6342
X2.1929Y-4.2642
X2.2913Y-0.5381
X2.2913Y-0.6893
X2.2913Y-0.7622
X2.3559Y-1.1352
X2.3759Y-1.6792
X2.3999Y-1.7032
X2.4679Y-4.8012
X2.5069Y-4.2362
X2.5179Y-2.8062
X2.5419Y-2.5722
X2.5659Y-4.2642
X2.582Y-0.829
X2.582Y-1.024
X2.6319Y-4.8012
X2.6399Y-0.8292
X2.6399Y-1.1452
X2.6599Y-1.4262
X2.6829Y-1.4022
X2.7399Y-0.8292
X2.7399Y-1.1212
X2.7539Y-1.4272
X2.7789Y-3.7952
X2.7789Y-3.9382
X2.7789Y-4.2362
X2.8009Y-1.2642
X2.8009Y-1.3642
X2.8009Y-1.8572
X2.8099Y-3.6342
X2.8399Y-0.8292
X2.8399Y-1.0972
X2.8609Y-1.2642
X2.8729Y-1.3322
X2.8959Y-1.3802
X2.9199Y-1.3562
X2.9399Y-0.8292
X2.9399Y-1.0242
X2.9429Y-1.4042
X2.9749Y-3.6342
X2.9749Y-3.7672
X3.0049Y-1.7272
X3.0399Y-0.8292
X3.0419Y-1.5902
X3.0419Y-1.8572
X3.0674Y-4.2177
X3.0679Y-4.1322
X3.0789Y-1.7272
X3.1089Y-1.2642
X3.1189Y-1.6192
X3.1399Y-0.8292
X3.1679Y-1.2642
X3.1899Y-0.7172
X3.1909Y-1.0712
X3.1909Y-1.2832
X3.2149Y-1.0472
X3.2149Y-1.2602
X3.2201Y-0.876
X3.2349Y-1.7272
X3.2451Y-0.853
X3.2589Y-2.7312
X3.2589Y-4.1932
X3.2749Y-1.8122
X3.2829Y-2.6472
X3.2829Y-4.1612
X3.2849Y-1.0242
X3.2849Y-1.4272
X3.2969Y-1.7902
X3.3189Y-1.2832
X3.3189Y-1.5902
X3.3329Y-3.7672
X3.3369Y-1.7272
X3.3399Y-0.8292
X3.3399Y-1.0492
X3.3429Y-1.2602
X3.3429Y-1.6192
X3.3589Y-3.8912
X3.3589Y-3.9612
X3.3689Y-1.3062
X3.3689Y-1.4272
X3.3729Y-4.0292
X3.3802Y-1.2662
X3.3899Y-0.8992
X3.3899Y-1.0732
X3.4039Y-1.1452
X3.4089Y-0.6902
X3.4149Y-4.4512
X3.4269Y-1.1212
X3.4299Y-1.8122
X3.4299Y-3.8912
X3.4349Y-3.9612
X3.4399Y-0.8292
X3.4399Y-1.0252
X3.4509Y-1.0972
X3.4519Y-1.7902
X3.4739Y-1.0732
X3.4739Y-2.1162
X3.4779Y-1.7272
X3.4839Y-4.2642
X3.4979Y-1.0492
X3.5219Y-1.0252
X3.5239Y-1.7272
X3.5299Y-2.0562
X3.5299Y-3.7382
X3.5419Y-3.7672
X3.5449Y-1.2662
X3.5539Y-1.8752
X3.5539Y-2.0862
X3.5539Y-3.7142
X3.5579Y-1.4502
X3.5759Y-2.0262
X3.5759Y-3.6922
X3.5809Y-1.4742
X3.5959Y-0.7172
X3.5959Y-4.0292
X3.5979Y-1.9962
X3.5979Y-3.6692
X3.5989Y-1.7272
X3.6069Y-1.1442
X3.6069Y-4.2412
X3.6169Y-4.4512
X3.6199Y-1.9672
X3.6199Y-3.6472
X3.6279Y-1.8982
X3.6279Y-4.1092
X3.6399Y-1.1192
X3.6471Y-3.739
X3.6519Y-1.9232
X3.6639Y-0.8532
X3.6809Y-1.7272
X3.6869Y-0.8762
X3.6901Y-3.714
X3.6989Y-4.2177
X3.6991Y-1.4552
X3.7091Y-0.726
X3.7109Y-1.2662
X3.7169Y-4.4512
X3.7219Y-1.9462
X3.7389Y-4.1322
X3.7391Y-1.144
X3.7519Y-1.6472
X3.7519Y-1.7272
X3.7581Y-3.692
X3.7659Y-4.1932
X3.7669Y-4.4512
X3.7799Y-4.0292
X3.7851Y-0.726
X3.7921Y-3.669
X3.7949Y-4.1092
X3.7989Y-4.1612
X3.8169Y-1.4552
X3.8261Y-3.647
X3.8339Y-1.1192
X3.8849Y-4.2832
X3.9449Y-1.6472
X4.0009Y-4.1622
X4.0031Y-1.616
X4.0179Y-1.2662
X4.0649Y-1.2662
X4.0887Y-1.6474
X4.0889Y-1.8752
X4.0889Y-3.1492
X4.1119Y-1.1452
X4.1119Y-1.9462
X4.1119Y-3.1262
X4.1239Y-1.4552
X4.1309Y-3.8852
X4.1319Y-4.1622
X4.1349Y-1.8982
X4.1349Y-3.1732
X4.1359Y-1.2662
X4.1479Y-1.4272
X4.1579Y-1.9232
X4.1579Y-3.1972
X4.1829Y-0.9822
X4.1929Y-0.5822
X4.1951Y-1.616
X4.2169Y-0.5562
X4.2179Y-0.1432
X4.2589Y-1.2032
X4.2919Y-0.5292
X4.2979Y-0.6902
X4.3269Y-1.6152
X4.3509Y-0.8582
X4.3509Y-1.1452
X4.3509Y-1.6472
X4.3659Y-0.5822
X4.3669Y-0.5012
X4.3999Y-1.2652
X4.4239Y-0.5292
X4.4249Y-0.8292
X4.4349Y-1.2412
X4.4529Y-0.5802
X4.4641Y-3.885
X4.4699Y-1.1452
X4.4881Y-3.684
X4.4881Y-3.84
X4.4999Y-0.8292
X4.5399Y-1.0072
X4.5509Y-0.5802
X4.5659Y-3.8852
X4.5749Y-1.2882
X4.6099Y-1.3112
X4.6299Y-3.1732
X4.6479Y-0.9772
X4.6519Y-0.5012
X4.6659Y-1.2032
X4.6659Y-1.9452
X4.6669Y-3.1732
X4.6749Y-1.0072
X4.6999Y-3.1972
X4.7239Y-0.8582
X4.7459Y-4.9942
X4.7479Y-0.5562
X4.7479Y-0.9772
X4.7879Y-0.5292
X4.8349Y-3.1492
X4.8729Y-3.1502
X4.9059Y-3.1262
X4.9519Y-4.9662
X4.9619Y-3.8422
X5.0029Y-3.7202
X5.1539Y-1.3922
X5.4509Y-3.5762
X5.4509Y-4.3512
X5.5249Y-3.1732
X5.5249Y-4.9662
X5.5479Y-3.1502
X5.5479Y-4.9942
X5.7879Y-1.3922
T2
X0.176Y-0.026
X0.446Y-0.254
X1.1819Y-0.2542
X1.5459Y-0.2542
X2.5069Y-0.6212
X2.9339Y-0.6212
X3.1861Y-0.64
X3.2841Y-0.64
X3.9719Y-0.3092
X4.6009Y-0.2462
X4.9209Y-2.9352
X5.1449Y-2.9352
T3
X-0.2457Y-2.1344
X-0.2457Y-5.0222
X0.6099Y-2.1344
X3.2777Y-4.2642
X3.2777Y-5.0222
X4.4481Y-2.514
X4.4481Y-2.681
X4.4481Y-2.853
X4.5791Y-2.681
X4.5891Y-2.514
X4.5891Y-2.8532
X4.7309Y-2.8532
X4.7309Y-2.9352
X4.7311Y-2.514
X5.5769Y-5.0222
X5.6459Y-2.9352
T4
X0.4469Y-3.6252
X0.4469Y-3.7512
X0.4469Y-3.8378
X0.4469Y-3.9244
X0.4469Y-4.4202
X0.4469Y-4.5462
X0.4469Y-4.6328
X0.4469Y-4.7194
X0.6469Y-3.6252
X0.6469Y-3.7512
X0.6469Y-3.8378
X0.6469Y-3.9244
X0.6469Y-4.4202
X0.6469Y-4.5462
X0.6469Y-4.6328
X0.6469Y-4.7194
T5
X-0.4931Y-4.2692
X-0.3991Y-5.1186
X-0.2891Y-3.6252
X-0.2885Y-4.4202
X-0.2885Y-5.0652
X2.1925Y-5.0652
X2.5659Y-5.0652
X2.7401Y-5.1186
X4.0679Y-0.1852
X4.1599Y-0.7712
X4.4419Y-0.1852
X4.8189Y-5.0652
X4.9139Y-0.7712
X4.9813Y-2.4982
X5.1539Y-2.0792
X5.6199Y-3.7212
X5.6199Y-5.0652
X5.6849Y-2.4982
X5.8019Y-5.1192
T6
X5.3889Y-1.8822
X5.3889Y-2.0791
X5.8259Y-1.8822
X5.8259Y-2.0791
T7
X3.1848Y-0.2342
X3.1848Y-0.3129
X3.2848Y-0.2342
X3.2848Y-0.3129
T8
X4.1509Y-0.2982
X4.2409Y-0.2982
X4.2809Y-0.0382
X4.3209Y-0.1082
X4.3609Y-0.0382
X4.4009Y-0.1082
X4.4409Y-0.0382
X4.4809Y-0.1082
X4.5209Y-0.0382
X4.5609Y-0.1082
X4.6009Y-0.2982
X4.6909Y-0.2982
T9
X3.7849Y-0.3382
X3.7849Y-0.4169
X3.7849Y-0.4957
X3.7849Y-0.5744
T10
X0.3585Y-0.0262
X0.5357Y-0.0262
T11
X4.7549Y-1.4232
X4.8533Y-1.4232
T12
X4.7999Y-1.9432
X4.8999Y-1.9432
X4.9999Y-1.9432
T13
X-0.2239Y-1.2901
X-0.2239Y-1.3901
X-0.1239Y-1.2901
X-0.1239Y-1.3901
X-0.0239Y-1.2901
X-0.0239Y-1.3901
X0.0761Y-1.2901
X0.0761Y-1.3901
X0.1759Y-0.8812
X0.1761Y-1.2901
X0.1761Y-1.3901
X0.2759Y-0.8812
X0.2761Y-1.2901
X0.2761Y-1.3901
X0.3759Y-0.8812
X0.3761Y-1.2901
X0.3761Y-1.3901
X0.4761Y-1.2901
X0.4761Y-1.3901
X0.5761Y-1.2901
X0.5761Y-1.3901
X0.6761Y-1.2901
X0.6761Y-1.3901
X2.6399Y-0.96
X2.7399Y-0.96
X2.8399Y-0.96
X2.9399Y-0.96
X3.0399Y-0.96
X3.1399Y-0.96
X3.2399Y-0.96
X3.3399Y-0.96
X3.4399Y-0.96
X3.5399Y-0.96
T14
X1.6459Y-1.365
T15
X0.3093Y-0.1242
X0.5853Y-0.1242
X0.8862Y-0.3351
X0.9847Y-0.4335
X1.0831Y0.0586
X1.1815Y-0.3351
X1.2799Y0.0586
X1.3784Y-0.4335
X1.4768Y-0.3351
X1.7132Y-0.3351
X1.8116Y-0.4335
X1.91Y0.0586
X2.0085Y-0.3351
X2.1069Y0.0586
X2.2053Y-0.4335
X2.3037Y-0.3351
T16
X3.6778Y-0.3095
X3.6778Y-0.5851
X3.892Y-0.3095
X3.892Y-0.5851
T17
X-0.3993Y-2.2202
X-0.3993Y-2.8592
X-0.3993Y-3.3304
X-0.3993Y-3.9694
X-0.3993Y-4.1256
X-0.3993Y-4.7646
X-0.1493Y-2.2202
X-0.1493Y-2.8592
X-0.1493Y-3.3304
X-0.1493Y-3.9694
X-0.1493Y-4.1256
X-0.1493Y-4.7646
X0.1007Y-2.2202
X0.1007Y-2.8592
X0.1007Y-3.3304
X0.1007Y-3.9694
X0.1007Y-4.1256
X0.1007Y-4.7646
X5.4509Y-3.3302
X5.4509Y-3.9692
X5.4509Y-4.1257
X5.4509Y-4.7647
X5.7009Y-3.3302
X5.7009Y-3.9692
X5.7009Y-4.1257
X5.7009Y-4.7647
X5.9509Y-3.3302
X5.9509Y-3.9692
X5.9509Y-4.1257
X5.9509Y-4.7647
T18
X4.1009Y-0.0732
X4.7409Y-0.0732
T19
X4.2759Y-1.365
T20
X2.9986Y-0.1279
X3.471Y-0.1279
T21
X4.1709Y0.0618
X4.6709Y0.0618
T22
X-0.4724Y-5.2559
X0.Y0.
X2.7756Y0.
X2.7756Y-5.256
X5.5516Y-0.0006
X6.0236Y-5.256
T23
X2.4865Y-3.087
T11
X4.9728Y-0.1068G85X4.9728Y-0.1856
G05
X5.1972Y-0.0281G85X5.1184Y-0.0281
G05
X5.207Y-0.2644G85X5.1086Y-0.2644
G05
T0
M30
