G04 #@! TF.FileFunction,*
%FSLAX46Y46*%
G04 Gerber Fmt 4.6, Leading zero omitted, Abs format (unit mm)*
G04 Created by KiCad (PCBNEW (2015-03-11 BZR 5507)-product) date Wed 29 Apr 2015 06:55:18 PM CEST*
%MOMM*%
G01*
G04 APERTURE LIST*
%ADD10C,0.100000*%
%ADD11C,0.050000*%
G04 APERTURE END LIST*
D10*
D11*
X218560080Y-42456440D02*
X218560080Y-45356440D01*
X217060080Y-42456440D02*
X217060080Y-45356440D01*
X218560080Y-42456440D02*
X217060080Y-42456440D01*
X218560080Y-45356440D02*
X217060080Y-45356440D01*
X229328000Y-43902000D02*
G75*
G03X229328000Y-43902000I-5300000J0D01*
G01*
X217060080Y-56634040D02*
X217060080Y-53734040D01*
X218560080Y-56634040D02*
X218560080Y-53734040D01*
X217060080Y-56634040D02*
X218560080Y-56634040D01*
X217060080Y-53734040D02*
X218560080Y-53734040D01*
X229328000Y-55208800D02*
G75*
G03X229328000Y-55208800I-5300000J0D01*
G01*
X224168400Y-91869600D02*
X224168400Y-94769600D01*
X222668400Y-91869600D02*
X222668400Y-94769600D01*
X224168400Y-91869600D02*
X222668400Y-91869600D01*
X224168400Y-94769600D02*
X222668400Y-94769600D01*
X225574000Y-100634800D02*
G75*
G03X225574000Y-100634800I-2800000J0D01*
G01*
X216954800Y-91869600D02*
X216954800Y-94769600D01*
X215454800Y-91869600D02*
X215454800Y-94769600D01*
X216954800Y-91869600D02*
X215454800Y-91869600D01*
X216954800Y-94769600D02*
X215454800Y-94769600D01*
X219700000Y-100634800D02*
G75*
G03X219700000Y-100634800I-2800000J0D01*
G01*
X196333680Y-52925640D02*
X196333680Y-50025640D01*
X197833680Y-52925640D02*
X197833680Y-50025640D01*
X196333680Y-52925640D02*
X197833680Y-52925640D01*
X196333680Y-50025640D02*
X197833680Y-50025640D01*
X202915680Y-68646040D02*
G75*
G03X202915680Y-68646040I-2800000J0D01*
G01*
X196028880Y-78579640D02*
X196028880Y-75679640D01*
X197528880Y-78579640D02*
X197528880Y-75679640D01*
X196028880Y-78579640D02*
X197528880Y-78579640D01*
X196028880Y-75679640D02*
X197528880Y-75679640D01*
X205201680Y-88102440D02*
G75*
G03X205201680Y-88102440I-2800000J0D01*
G01*
X214926480Y-78579640D02*
X214926480Y-75679640D01*
X216426480Y-78579640D02*
X216426480Y-75679640D01*
X214926480Y-78579640D02*
X216426480Y-78579640D01*
X214926480Y-75679640D02*
X216426480Y-75679640D01*
X212955280Y-88102440D02*
G75*
G03X212955280Y-88102440I-2800000J0D01*
G01*
X204844080Y-56985240D02*
X204844080Y-59885240D01*
X203344080Y-56985240D02*
X203344080Y-59885240D01*
X204844080Y-56985240D02*
X203344080Y-56985240D01*
X204844080Y-59885240D02*
X203344080Y-59885240D01*
X203425200Y-48260000D02*
G75*
G03X203425200Y-48260000I-2800000J0D01*
G01*
X165649000Y-109970000D02*
X162749000Y-109970000D01*
X165649000Y-108470000D02*
X162749000Y-108470000D01*
X165649000Y-109970000D02*
X165649000Y-108470000D01*
X162749000Y-109970000D02*
X162749000Y-108470000D01*
X168836000Y-102299200D02*
X165936000Y-102299200D01*
X168836000Y-100799200D02*
X165936000Y-100799200D01*
X168836000Y-102299200D02*
X168836000Y-100799200D01*
X165936000Y-102299200D02*
X165936000Y-100799200D01*
X169541600Y-104581200D02*
X165941600Y-104581200D01*
X169541600Y-102581200D02*
X165941600Y-102581200D01*
X169541600Y-104581200D02*
X169541600Y-102581200D01*
X165941600Y-104581200D02*
X165941600Y-102581200D01*
X160871600Y-94257200D02*
X160871600Y-97157200D01*
X159371600Y-94257200D02*
X159371600Y-97157200D01*
X160871600Y-94257200D02*
X159371600Y-94257200D01*
X160871600Y-97157200D02*
X159371600Y-97157200D01*
X151307800Y-97055600D02*
X151307800Y-94155600D01*
X152807800Y-97055600D02*
X152807800Y-94155600D01*
X151307800Y-97055600D02*
X152807800Y-97055600D01*
X151307800Y-94155600D02*
X152807800Y-94155600D01*
X152912000Y-97405600D02*
X152912000Y-93805600D01*
X154912000Y-97405600D02*
X154912000Y-93805600D01*
X152912000Y-97405600D02*
X154912000Y-97405600D01*
X152912000Y-93805600D02*
X154912000Y-93805600D01*
X160289600Y-109893800D02*
X157389600Y-109893800D01*
X160289600Y-108393800D02*
X157389600Y-108393800D01*
X160289600Y-109893800D02*
X160289600Y-108393800D01*
X157389600Y-109893800D02*
X157389600Y-108393800D01*
X160296800Y-110061600D02*
X160296800Y-113661600D01*
X158296800Y-110061600D02*
X158296800Y-113661600D01*
X160296800Y-110061600D02*
X158296800Y-110061600D01*
X160296800Y-113661600D02*
X158296800Y-113661600D01*
X150624200Y-100495800D02*
X147724200Y-100495800D01*
X150624200Y-98995800D02*
X147724200Y-98995800D01*
X150624200Y-100495800D02*
X150624200Y-98995800D01*
X147724200Y-100495800D02*
X147724200Y-98995800D01*
X150720200Y-102777800D02*
X147120200Y-102777800D01*
X150720200Y-100777800D02*
X147120200Y-100777800D01*
X150720200Y-102777800D02*
X150720200Y-100777800D01*
X147120200Y-102777800D02*
X147120200Y-100777800D01*
X153926200Y-103543800D02*
X151026200Y-103543800D01*
X153926200Y-102043800D02*
X151026200Y-102043800D01*
X153926200Y-103543800D02*
X153926200Y-102043800D01*
X151026200Y-103543800D02*
X151026200Y-102043800D01*
X150720200Y-105063800D02*
X147120200Y-105063800D01*
X150720200Y-103063800D02*
X147120200Y-103063800D01*
X150720200Y-105063800D02*
X150720200Y-103063800D01*
X147120200Y-105063800D02*
X147120200Y-103063800D01*
X153926200Y-105575800D02*
X151026200Y-105575800D01*
X153926200Y-104075800D02*
X151026200Y-104075800D01*
X153926200Y-105575800D02*
X153926200Y-104075800D01*
X151026200Y-105575800D02*
X151026200Y-104075800D01*
X150712200Y-108711800D02*
X146112200Y-108711800D01*
X150712200Y-105511800D02*
X146112200Y-105511800D01*
X150712200Y-108711800D02*
X150712200Y-105511800D01*
X146112200Y-108711800D02*
X146112200Y-105511800D01*
X152718200Y-106931800D02*
X152718200Y-109831800D01*
X151218200Y-106931800D02*
X151218200Y-109831800D01*
X152718200Y-106931800D02*
X151218200Y-106931800D01*
X152718200Y-109831800D02*
X151218200Y-109831800D01*
X150712200Y-112267800D02*
X146112200Y-112267800D01*
X150712200Y-109067800D02*
X146112200Y-109067800D01*
X150712200Y-112267800D02*
X150712200Y-109067800D01*
X146112200Y-112267800D02*
X146112200Y-109067800D01*
X123478800Y-53368800D02*
X123478800Y-56968800D01*
X121478800Y-53368800D02*
X121478800Y-56968800D01*
X123478800Y-53368800D02*
X121478800Y-53368800D01*
X123478800Y-56968800D02*
X121478800Y-56968800D01*
X125387800Y-53718800D02*
X125387800Y-56618800D01*
X123887800Y-53718800D02*
X123887800Y-56618800D01*
X125387800Y-53718800D02*
X123887800Y-53718800D01*
X125387800Y-56618800D02*
X123887800Y-56618800D01*
X200648000Y-124280000D02*
X200648000Y-127180000D01*
X199148000Y-124280000D02*
X199148000Y-127180000D01*
X200648000Y-124280000D02*
X199148000Y-124280000D01*
X200648000Y-127180000D02*
X199148000Y-127180000D01*
X116193000Y-123391000D02*
X116193000Y-126291000D01*
X114693000Y-123391000D02*
X114693000Y-126291000D01*
X116193000Y-123391000D02*
X114693000Y-123391000D01*
X116193000Y-126291000D02*
X114693000Y-126291000D01*
X116613600Y-145530000D02*
X113713600Y-145530000D01*
X116613600Y-144030000D02*
X113713600Y-144030000D01*
X116613600Y-145530000D02*
X116613600Y-144030000D01*
X113713600Y-145530000D02*
X113713600Y-144030000D01*
X104751800Y-96609600D02*
X101851800Y-96609600D01*
X104751800Y-95109600D02*
X101851800Y-95109600D01*
X104751800Y-96609600D02*
X104751800Y-95109600D01*
X101851800Y-96609600D02*
X101851800Y-95109600D01*
X175976980Y-44257300D02*
X175976980Y-47157300D01*
X174476980Y-44257300D02*
X174476980Y-47157300D01*
X175976980Y-44257300D02*
X174476980Y-44257300D01*
X175976980Y-47157300D02*
X174476980Y-47157300D01*
X162703000Y-37240620D02*
X162703000Y-33640620D01*
X164703000Y-37240620D02*
X164703000Y-33640620D01*
X162703000Y-37240620D02*
X164703000Y-37240620D01*
X162703000Y-33640620D02*
X164703000Y-33640620D01*
X159246000Y-34244620D02*
X159246000Y-37144620D01*
X157746000Y-34244620D02*
X157746000Y-37144620D01*
X159246000Y-34244620D02*
X157746000Y-34244620D01*
X159246000Y-37144620D02*
X157746000Y-37144620D01*
X171274400Y-44844400D02*
X168374400Y-44844400D01*
X171274400Y-43344400D02*
X168374400Y-43344400D01*
X171274400Y-44844400D02*
X171274400Y-43344400D01*
X168374400Y-44844400D02*
X168374400Y-43344400D01*
X156095000Y-41462620D02*
X156095000Y-38562620D01*
X157595000Y-41462620D02*
X157595000Y-38562620D01*
X156095000Y-41462620D02*
X157595000Y-41462620D01*
X156095000Y-38562620D02*
X157595000Y-38562620D01*
X129696780Y-45633300D02*
X129696780Y-42733300D01*
X131196780Y-45633300D02*
X131196780Y-42733300D01*
X129696780Y-45633300D02*
X131196780Y-45633300D01*
X129696780Y-42733300D02*
X131196780Y-42733300D01*
X220434600Y-32357400D02*
X220434600Y-35257400D01*
X218934600Y-32357400D02*
X218934600Y-35257400D01*
X220434600Y-32357400D02*
X218934600Y-32357400D01*
X220434600Y-35257400D02*
X218934600Y-35257400D01*
X179859600Y-34735200D02*
X176959600Y-34735200D01*
X179859600Y-33235200D02*
X176959600Y-33235200D01*
X179859600Y-34735200D02*
X179859600Y-33235200D01*
X176959600Y-34735200D02*
X176959600Y-33235200D01*
X153926200Y-98971800D02*
X151026200Y-98971800D01*
X153926200Y-97471800D02*
X151026200Y-97471800D01*
X153926200Y-98971800D02*
X153926200Y-97471800D01*
X151026200Y-98971800D02*
X151026200Y-97471800D01*
X153926200Y-100749800D02*
X151026200Y-100749800D01*
X153926200Y-99249800D02*
X151026200Y-99249800D01*
X153926200Y-100749800D02*
X153926200Y-99249800D01*
X151026200Y-100749800D02*
X151026200Y-99249800D01*
X197986000Y-117108000D02*
X197986000Y-112508000D01*
X200286000Y-117108000D02*
X200286000Y-112508000D01*
X197986000Y-117108000D02*
X200286000Y-117108000D01*
X197986000Y-112508000D02*
X200286000Y-112508000D01*
X200586000Y-112256000D02*
X197686000Y-112256000D01*
X200586000Y-110756000D02*
X197686000Y-110756000D01*
X200586000Y-112256000D02*
X200586000Y-110756000D01*
X197686000Y-112256000D02*
X197686000Y-110756000D01*
X190172000Y-125464000D02*
X187272000Y-125464000D01*
X190172000Y-123964000D02*
X187272000Y-123964000D01*
X190172000Y-125464000D02*
X190172000Y-123964000D01*
X187272000Y-125464000D02*
X187272000Y-123964000D01*
X200286000Y-134352000D02*
X200286000Y-138952000D01*
X197986000Y-134352000D02*
X197986000Y-138952000D01*
X200286000Y-134352000D02*
X197986000Y-134352000D01*
X200286000Y-138952000D02*
X197986000Y-138952000D01*
X200586000Y-140704000D02*
X197686000Y-140704000D01*
X200586000Y-139204000D02*
X197686000Y-139204000D01*
X200586000Y-140704000D02*
X200586000Y-139204000D01*
X197686000Y-140704000D02*
X197686000Y-139204000D01*
X190172000Y-127496000D02*
X187272000Y-127496000D01*
X190172000Y-125996000D02*
X187272000Y-125996000D01*
X190172000Y-127496000D02*
X190172000Y-125996000D01*
X187272000Y-127496000D02*
X187272000Y-125996000D01*
X121947600Y-124803600D02*
X119047600Y-124803600D01*
X121947600Y-123303600D02*
X119047600Y-123303600D01*
X121947600Y-124803600D02*
X121947600Y-123303600D01*
X119047600Y-124803600D02*
X119047600Y-123303600D01*
X119149200Y-115963000D02*
X122049200Y-115963000D01*
X119149200Y-117463000D02*
X122049200Y-117463000D01*
X119149200Y-115963000D02*
X119149200Y-117463000D01*
X122049200Y-115963000D02*
X122049200Y-117463000D01*
X121871400Y-145682400D02*
X118971400Y-145682400D01*
X121871400Y-144182400D02*
X118971400Y-144182400D01*
X121871400Y-145682400D02*
X121871400Y-144182400D01*
X118971400Y-145682400D02*
X118971400Y-144182400D01*
X120549800Y-135113800D02*
X120549800Y-138013800D01*
X119049800Y-135113800D02*
X119049800Y-138013800D01*
X120549800Y-135113800D02*
X119049800Y-135113800D01*
X120549800Y-138013800D02*
X119049800Y-138013800D01*
X105299800Y-90592400D02*
X108899800Y-90592400D01*
X105299800Y-92592400D02*
X108899800Y-92592400D01*
X105299800Y-90592400D02*
X105299800Y-92592400D01*
X108899800Y-90592400D02*
X108899800Y-92592400D01*
X105299800Y-88281000D02*
X108899800Y-88281000D01*
X105299800Y-90281000D02*
X108899800Y-90281000D01*
X105299800Y-88281000D02*
X105299800Y-90281000D01*
X108899800Y-88281000D02*
X108899800Y-90281000D01*
X218706700Y-38404800D02*
X211975700Y-38404800D01*
X218706700Y-28244800D02*
X211975700Y-28244800D01*
X211975700Y-28244800D02*
X211975700Y-38404800D01*
X218706700Y-28244800D02*
X218706700Y-38404800D01*
X167573200Y-26800400D02*
X167573200Y-30400400D01*
X165573200Y-26800400D02*
X165573200Y-30400400D01*
X167573200Y-26800400D02*
X165573200Y-26800400D01*
X167573200Y-30400400D02*
X165573200Y-30400400D01*
X159909000Y-37367620D02*
X159909000Y-33767620D01*
X161909000Y-37367620D02*
X161909000Y-33767620D01*
X159909000Y-37367620D02*
X161909000Y-37367620D01*
X159909000Y-33767620D02*
X161909000Y-33767620D01*
X175601460Y-18839980D02*
X175601460Y-39139980D01*
X175601460Y-39139980D02*
X167801460Y-39139980D01*
X167801460Y-39139980D02*
X167801460Y-18839980D01*
X167801460Y-18839980D02*
X175601460Y-18839980D01*
X81117500Y-64183200D02*
X107517500Y-64183200D01*
X81117500Y-58133200D02*
X107517500Y-58133200D01*
X81117500Y-64183200D02*
X81117500Y-58133200D01*
X107517500Y-64183200D02*
X107517500Y-58133200D01*
X152422800Y-81816000D02*
X126022800Y-81816000D01*
X152422800Y-85316000D02*
X126022800Y-85316000D01*
X152422800Y-81816000D02*
X152422800Y-85316000D01*
X126022800Y-81816000D02*
X126022800Y-85316000D01*
X97307194Y-51516194D02*
X88707194Y-51516194D01*
X97307194Y-55016194D02*
X88707194Y-55016194D01*
X97307194Y-51516194D02*
X97307194Y-55016194D01*
X88707194Y-51516194D02*
X88707194Y-55016194D01*
X155765600Y-97007200D02*
X155765600Y-94407200D01*
X157365600Y-97007200D02*
X157365600Y-94407200D01*
X155765600Y-97007200D02*
X157365600Y-97007200D01*
X155765600Y-94407200D02*
X157365600Y-94407200D01*
X162039400Y-93349600D02*
X162039400Y-90749600D01*
X163639400Y-93349600D02*
X163639400Y-90749600D01*
X162039400Y-93349600D02*
X163639400Y-93349600D01*
X162039400Y-90749600D02*
X163639400Y-90749600D01*
X163817400Y-93349600D02*
X163817400Y-90749600D01*
X165417400Y-93349600D02*
X165417400Y-90749600D01*
X163817400Y-93349600D02*
X165417400Y-93349600D01*
X163817400Y-90749600D02*
X165417400Y-90749600D01*
X164655600Y-97007200D02*
X164655600Y-94407200D01*
X166255600Y-97007200D02*
X166255600Y-94407200D01*
X164655600Y-97007200D02*
X166255600Y-97007200D01*
X164655600Y-94407200D02*
X166255600Y-94407200D01*
X162877600Y-97007200D02*
X162877600Y-94407200D01*
X164477600Y-97007200D02*
X164477600Y-94407200D01*
X162877600Y-97007200D02*
X164477600Y-97007200D01*
X162877600Y-94407200D02*
X164477600Y-94407200D01*
X161099600Y-97007200D02*
X161099600Y-94407200D01*
X162699600Y-97007200D02*
X162699600Y-94407200D01*
X161099600Y-97007200D02*
X162699600Y-97007200D01*
X161099600Y-94407200D02*
X162699600Y-94407200D01*
X157543600Y-97007200D02*
X157543600Y-94407200D01*
X159143600Y-97007200D02*
X159143600Y-94407200D01*
X157543600Y-97007200D02*
X159143600Y-97007200D01*
X157543600Y-94407200D02*
X159143600Y-94407200D01*
X167746200Y-108165800D02*
X165146200Y-108165800D01*
X167746200Y-106565800D02*
X165146200Y-106565800D01*
X167746200Y-108165800D02*
X167746200Y-106565800D01*
X165146200Y-108165800D02*
X165146200Y-106565800D01*
X169024200Y-98115600D02*
X169024200Y-100715600D01*
X167424200Y-98115600D02*
X167424200Y-100715600D01*
X169024200Y-98115600D02*
X167424200Y-98115600D01*
X169024200Y-100715600D02*
X167424200Y-100715600D01*
X167246200Y-98115600D02*
X167246200Y-100715600D01*
X165646200Y-98115600D02*
X165646200Y-100715600D01*
X167246200Y-98115600D02*
X165646200Y-98115600D01*
X167246200Y-100715600D02*
X165646200Y-100715600D01*
X88297540Y-28348840D02*
X85697540Y-28348840D01*
X88297540Y-26748840D02*
X85697540Y-26748840D01*
X88297540Y-28348840D02*
X88297540Y-26748840D01*
X85697540Y-28348840D02*
X85697540Y-26748840D01*
X193840000Y-109952000D02*
X193840000Y-112552000D01*
X192240000Y-109952000D02*
X192240000Y-112552000D01*
X193840000Y-109952000D02*
X192240000Y-109952000D01*
X193840000Y-112552000D02*
X192240000Y-112552000D01*
X186914000Y-111214000D02*
X189514000Y-111214000D01*
X186914000Y-112814000D02*
X189514000Y-112814000D01*
X186914000Y-111214000D02*
X186914000Y-112814000D01*
X189514000Y-111214000D02*
X189514000Y-112814000D01*
X186165400Y-109156600D02*
X188765400Y-109156600D01*
X186165400Y-110756600D02*
X188765400Y-110756600D01*
X186165400Y-109156600D02*
X186165400Y-110756600D01*
X188765400Y-109156600D02*
X188765400Y-110756600D01*
X179040000Y-111214000D02*
X181640000Y-111214000D01*
X179040000Y-112814000D02*
X181640000Y-112814000D01*
X179040000Y-111214000D02*
X179040000Y-112814000D01*
X181640000Y-111214000D02*
X181640000Y-112814000D01*
X192815200Y-101199600D02*
X192815200Y-103799600D01*
X191215200Y-101199600D02*
X191215200Y-103799600D01*
X192815200Y-101199600D02*
X191215200Y-101199600D01*
X192815200Y-103799600D02*
X191215200Y-103799600D01*
X184890400Y-101199600D02*
X184890400Y-103799600D01*
X183290400Y-101199600D02*
X183290400Y-103799600D01*
X184890400Y-101199600D02*
X183290400Y-101199600D01*
X184890400Y-103799600D02*
X183290400Y-103799600D01*
X192240000Y-142016000D02*
X192240000Y-139416000D01*
X193840000Y-142016000D02*
X193840000Y-139416000D01*
X192240000Y-142016000D02*
X193840000Y-142016000D01*
X192240000Y-139416000D02*
X193840000Y-139416000D01*
X187269600Y-137274400D02*
X189869600Y-137274400D01*
X187269600Y-138874400D02*
X189869600Y-138874400D01*
X187269600Y-137274400D02*
X187269600Y-138874400D01*
X189869600Y-137274400D02*
X189869600Y-138874400D01*
X184366000Y-142016000D02*
X184366000Y-139416000D01*
X185966000Y-142016000D02*
X185966000Y-139416000D01*
X184366000Y-142016000D02*
X185966000Y-142016000D01*
X184366000Y-139416000D02*
X185966000Y-139416000D01*
X181072000Y-136766400D02*
X183672000Y-136766400D01*
X181072000Y-138366400D02*
X183672000Y-138366400D01*
X181072000Y-136766400D02*
X181072000Y-138366400D01*
X183672000Y-136766400D02*
X183672000Y-138366400D01*
X191173000Y-142870400D02*
X191173000Y-145470400D01*
X189573000Y-142870400D02*
X189573000Y-145470400D01*
X191173000Y-142870400D02*
X189573000Y-142870400D01*
X191173000Y-145470400D02*
X189573000Y-145470400D01*
X183299000Y-142870400D02*
X183299000Y-145470400D01*
X181699000Y-142870400D02*
X181699000Y-145470400D01*
X183299000Y-142870400D02*
X181699000Y-142870400D01*
X183299000Y-145470400D02*
X181699000Y-145470400D01*
X100868000Y-131610000D02*
X98268000Y-131610000D01*
X100868000Y-130010000D02*
X98268000Y-130010000D01*
X100868000Y-131610000D02*
X100868000Y-130010000D01*
X98268000Y-131610000D02*
X98268000Y-130010000D01*
X103670000Y-128240000D02*
X103670000Y-130840000D01*
X102070000Y-128240000D02*
X102070000Y-130840000D01*
X103670000Y-128240000D02*
X102070000Y-128240000D01*
X103670000Y-130840000D02*
X102070000Y-130840000D01*
X96042000Y-129578000D02*
X93442000Y-129578000D01*
X96042000Y-127978000D02*
X93442000Y-127978000D01*
X96042000Y-129578000D02*
X96042000Y-127978000D01*
X93442000Y-129578000D02*
X93442000Y-127978000D01*
X100868000Y-151930000D02*
X98268000Y-151930000D01*
X100868000Y-150330000D02*
X98268000Y-150330000D01*
X100868000Y-151930000D02*
X100868000Y-150330000D01*
X98268000Y-151930000D02*
X98268000Y-150330000D01*
X103670000Y-148560000D02*
X103670000Y-151160000D01*
X102070000Y-148560000D02*
X102070000Y-151160000D01*
X103670000Y-148560000D02*
X102070000Y-148560000D01*
X103670000Y-151160000D02*
X102070000Y-151160000D01*
X96042000Y-149898000D02*
X93442000Y-149898000D01*
X96042000Y-148298000D02*
X93442000Y-148298000D01*
X96042000Y-149898000D02*
X96042000Y-148298000D01*
X93442000Y-149898000D02*
X93442000Y-148298000D01*
X104889400Y-97921600D02*
X104889400Y-95321600D01*
X106489400Y-97921600D02*
X106489400Y-95321600D01*
X104889400Y-97921600D02*
X106489400Y-97921600D01*
X104889400Y-95321600D02*
X106489400Y-95321600D01*
X97701200Y-100156800D02*
X97701200Y-97556800D01*
X99301200Y-100156800D02*
X99301200Y-97556800D01*
X97701200Y-100156800D02*
X99301200Y-100156800D01*
X97701200Y-97556800D02*
X99301200Y-97556800D01*
X101053800Y-97556800D02*
X101053800Y-100156800D01*
X99453800Y-97556800D02*
X99453800Y-100156800D01*
X101053800Y-97556800D02*
X99453800Y-97556800D01*
X101053800Y-100156800D02*
X99453800Y-100156800D01*
X164249000Y-38712620D02*
X164249000Y-41312620D01*
X162649000Y-38712620D02*
X162649000Y-41312620D01*
X164249000Y-38712620D02*
X162649000Y-38712620D01*
X164249000Y-41312620D02*
X162649000Y-41312620D01*
X161963000Y-38712620D02*
X161963000Y-41312620D01*
X160363000Y-38712620D02*
X160363000Y-41312620D01*
X161963000Y-38712620D02*
X160363000Y-38712620D01*
X161963000Y-41312620D02*
X160363000Y-41312620D01*
X158077000Y-41312620D02*
X158077000Y-38712620D01*
X159677000Y-41312620D02*
X159677000Y-38712620D01*
X158077000Y-41312620D02*
X159677000Y-41312620D01*
X158077000Y-38712620D02*
X159677000Y-38712620D01*
X174274380Y-44407300D02*
X174274380Y-47007300D01*
X172674380Y-44407300D02*
X172674380Y-47007300D01*
X174274380Y-44407300D02*
X172674380Y-44407300D01*
X174274380Y-47007300D02*
X172674380Y-47007300D01*
X112320580Y-35852300D02*
X112320580Y-39052300D01*
X110320580Y-35852300D02*
X110320580Y-39052300D01*
X112320580Y-35852300D02*
X110320580Y-35852300D01*
X112320580Y-39052300D02*
X110320580Y-39052300D01*
X98249840Y-42318460D02*
X98249840Y-39718460D01*
X99849840Y-42318460D02*
X99849840Y-39718460D01*
X98249840Y-42318460D02*
X99849840Y-42318460D01*
X98249840Y-39718460D02*
X99849840Y-39718460D01*
X132494780Y-39052300D02*
X132494780Y-35852300D01*
X134494780Y-39052300D02*
X134494780Y-35852300D01*
X132494780Y-39052300D02*
X134494780Y-39052300D01*
X132494780Y-35852300D02*
X134494780Y-35852300D01*
X119969380Y-49254500D02*
X119969380Y-46654500D01*
X121569380Y-49254500D02*
X121569380Y-46654500D01*
X119969380Y-49254500D02*
X121569380Y-49254500D01*
X119969380Y-46654500D02*
X121569380Y-46654500D01*
X99862840Y-36081460D02*
X103062840Y-36081460D01*
X99862840Y-38081460D02*
X103062840Y-38081460D01*
X99862840Y-36081460D02*
X99862840Y-38081460D01*
X103062840Y-36081460D02*
X103062840Y-38081460D01*
X107266840Y-38508460D02*
X107266840Y-35908460D01*
X108866840Y-38508460D02*
X108866840Y-35908460D01*
X107266840Y-38508460D02*
X108866840Y-38508460D01*
X107266840Y-35908460D02*
X108866840Y-35908460D01*
X101051840Y-42123460D02*
X103651840Y-42123460D01*
X101051840Y-43723460D02*
X103651840Y-43723460D01*
X101051840Y-42123460D02*
X101051840Y-43723460D01*
X103651840Y-42123460D02*
X103651840Y-43723460D01*
X107715840Y-43469460D02*
X105115840Y-43469460D01*
X107715840Y-41869460D02*
X105115840Y-41869460D01*
X107715840Y-43469460D02*
X107715840Y-41869460D01*
X105115840Y-43469460D02*
X105115840Y-41869460D01*
X107012840Y-41556460D02*
X107012840Y-38956460D01*
X108612840Y-41556460D02*
X108612840Y-38956460D01*
X107012840Y-41556460D02*
X108612840Y-41556460D01*
X107012840Y-38956460D02*
X108612840Y-38956460D01*
X198231280Y-34449920D02*
X195631280Y-34449920D01*
X198231280Y-32849920D02*
X195631280Y-32849920D01*
X198231280Y-34449920D02*
X198231280Y-32849920D01*
X195631280Y-34449920D02*
X195631280Y-32849920D01*
X197723280Y-40164920D02*
X195123280Y-40164920D01*
X197723280Y-38564920D02*
X195123280Y-38564920D01*
X197723280Y-40164920D02*
X197723280Y-38564920D01*
X195123280Y-40164920D02*
X195123280Y-38564920D01*
X194692780Y-34970920D02*
X194692780Y-38170920D01*
X192692780Y-34970920D02*
X192692780Y-38170920D01*
X194692780Y-34970920D02*
X192692780Y-34970920D01*
X194692780Y-38170920D02*
X192692780Y-38170920D01*
X197158600Y-41839800D02*
X197158600Y-44439800D01*
X195558600Y-41839800D02*
X195558600Y-44439800D01*
X197158600Y-41839800D02*
X195558600Y-41839800D01*
X197158600Y-44439800D02*
X195558600Y-44439800D01*
X192406780Y-34970920D02*
X192406780Y-38170920D01*
X190406780Y-34970920D02*
X190406780Y-38170920D01*
X192406780Y-34970920D02*
X190406780Y-34970920D01*
X192406780Y-38170920D02*
X190406780Y-38170920D01*
X187961780Y-32557920D02*
X187961780Y-35757920D01*
X185961780Y-32557920D02*
X185961780Y-35757920D01*
X187961780Y-32557920D02*
X185961780Y-32557920D01*
X187961780Y-35757920D02*
X185961780Y-35757920D01*
X181785400Y-46318960D02*
X181785400Y-43718960D01*
X183385400Y-46318960D02*
X183385400Y-43718960D01*
X181785400Y-46318960D02*
X183385400Y-46318960D01*
X181785400Y-43718960D02*
X183385400Y-43718960D01*
X190699000Y-49578600D02*
X188099000Y-49578600D01*
X190699000Y-47978600D02*
X188099000Y-47978600D01*
X190699000Y-49578600D02*
X190699000Y-47978600D01*
X188099000Y-49578600D02*
X188099000Y-47978600D01*
X190120780Y-32557920D02*
X190120780Y-35757920D01*
X188120780Y-32557920D02*
X188120780Y-35757920D01*
X190120780Y-32557920D02*
X188120780Y-32557920D01*
X190120780Y-35757920D02*
X188120780Y-35757920D01*
X184408600Y-48425000D02*
X181808600Y-48425000D01*
X184408600Y-46825000D02*
X181808600Y-46825000D01*
X184408600Y-48425000D02*
X184408600Y-46825000D01*
X181808600Y-48425000D02*
X181808600Y-46825000D01*
X151472800Y-78837000D02*
X151472800Y-81437000D01*
X149872800Y-78837000D02*
X149872800Y-81437000D01*
X151472800Y-78837000D02*
X149872800Y-78837000D01*
X151472800Y-81437000D02*
X149872800Y-81437000D01*
X148932800Y-78837000D02*
X148932800Y-81437000D01*
X147332800Y-78837000D02*
X147332800Y-81437000D01*
X148932800Y-78837000D02*
X147332800Y-78837000D01*
X148932800Y-81437000D02*
X147332800Y-81437000D01*
X146392800Y-78837000D02*
X146392800Y-81437000D01*
X144792800Y-78837000D02*
X144792800Y-81437000D01*
X146392800Y-78837000D02*
X144792800Y-78837000D01*
X146392800Y-81437000D02*
X144792800Y-81437000D01*
X141312800Y-78837000D02*
X141312800Y-81437000D01*
X139712800Y-78837000D02*
X139712800Y-81437000D01*
X141312800Y-78837000D02*
X139712800Y-78837000D01*
X141312800Y-81437000D02*
X139712800Y-81437000D01*
X133692800Y-78837000D02*
X133692800Y-81437000D01*
X132092800Y-78837000D02*
X132092800Y-81437000D01*
X133692800Y-78837000D02*
X132092800Y-78837000D01*
X133692800Y-81437000D02*
X132092800Y-81437000D01*
X131152800Y-78837000D02*
X131152800Y-81437000D01*
X129552800Y-78837000D02*
X129552800Y-81437000D01*
X131152800Y-78837000D02*
X129552800Y-78837000D01*
X131152800Y-81437000D02*
X129552800Y-81437000D01*
X128612800Y-78837000D02*
X128612800Y-81437000D01*
X127012800Y-78837000D02*
X127012800Y-81437000D01*
X128612800Y-78837000D02*
X127012800Y-78837000D01*
X128612800Y-81437000D02*
X127012800Y-81437000D01*
X198835000Y-29266800D02*
X198835000Y-31866800D01*
X197235000Y-29266800D02*
X197235000Y-31866800D01*
X198835000Y-29266800D02*
X197235000Y-29266800D01*
X198835000Y-31866800D02*
X197235000Y-31866800D01*
X182485600Y-33119600D02*
X185085600Y-33119600D01*
X182485600Y-34719600D02*
X185085600Y-34719600D01*
X182485600Y-33119600D02*
X182485600Y-34719600D01*
X185085600Y-33119600D02*
X185085600Y-34719600D01*
X198836180Y-26342820D02*
X198836180Y-28942820D01*
X197236180Y-26342820D02*
X197236180Y-28942820D01*
X198836180Y-26342820D02*
X197236180Y-26342820D01*
X198836180Y-28942820D02*
X197236180Y-28942820D01*
X196639400Y-115379400D02*
X194039400Y-115379400D01*
X196639400Y-113779400D02*
X194039400Y-113779400D01*
X196639400Y-115379400D02*
X196639400Y-113779400D01*
X194039400Y-115379400D02*
X194039400Y-113779400D01*
X198090000Y-106642000D02*
X200690000Y-106642000D01*
X198090000Y-108242000D02*
X200690000Y-108242000D01*
X198090000Y-106642000D02*
X198090000Y-108242000D01*
X200690000Y-106642000D02*
X200690000Y-108242000D01*
X193070000Y-125514000D02*
X190470000Y-125514000D01*
X193070000Y-123914000D02*
X190470000Y-123914000D01*
X193070000Y-125514000D02*
X193070000Y-123914000D01*
X190470000Y-125514000D02*
X190470000Y-123914000D01*
X200690000Y-110274000D02*
X198090000Y-110274000D01*
X200690000Y-108674000D02*
X198090000Y-108674000D01*
X200690000Y-110274000D02*
X200690000Y-108674000D01*
X198090000Y-110274000D02*
X198090000Y-108674000D01*
X186110400Y-125514000D02*
X183510400Y-125514000D01*
X186110400Y-123914000D02*
X183510400Y-123914000D01*
X186110400Y-125514000D02*
X186110400Y-123914000D01*
X183510400Y-125514000D02*
X183510400Y-123914000D01*
X183510400Y-122136000D02*
X186110400Y-122136000D01*
X183510400Y-123736000D02*
X186110400Y-123736000D01*
X183510400Y-122136000D02*
X183510400Y-123736000D01*
X186110400Y-122136000D02*
X186110400Y-123736000D01*
X198336000Y-134142000D02*
X198336000Y-131542000D01*
X199936000Y-134142000D02*
X199936000Y-131542000D01*
X198336000Y-134142000D02*
X199936000Y-134142000D01*
X198336000Y-131542000D02*
X199936000Y-131542000D01*
X190538000Y-119858000D02*
X190538000Y-122458000D01*
X188938000Y-119858000D02*
X188938000Y-122458000D01*
X190538000Y-119858000D02*
X188938000Y-119858000D01*
X190538000Y-122458000D02*
X188938000Y-122458000D01*
X188709200Y-119858000D02*
X188709200Y-122458000D01*
X187109200Y-119858000D02*
X187109200Y-122458000D01*
X188709200Y-119858000D02*
X187109200Y-119858000D01*
X188709200Y-122458000D02*
X187109200Y-122458000D01*
X197836000Y-143218000D02*
X200436000Y-143218000D01*
X197836000Y-144818000D02*
X200436000Y-144818000D01*
X197836000Y-143218000D02*
X197836000Y-144818000D01*
X200436000Y-143218000D02*
X200436000Y-144818000D01*
X193070000Y-127546000D02*
X190470000Y-127546000D01*
X193070000Y-125946000D02*
X190470000Y-125946000D01*
X193070000Y-127546000D02*
X193070000Y-125946000D01*
X190470000Y-127546000D02*
X190470000Y-125946000D01*
X200436000Y-142786000D02*
X197836000Y-142786000D01*
X200436000Y-141186000D02*
X197836000Y-141186000D01*
X200436000Y-142786000D02*
X200436000Y-141186000D01*
X197836000Y-142786000D02*
X197836000Y-141186000D01*
X186110400Y-127546000D02*
X183510400Y-127546000D01*
X186110400Y-125946000D02*
X183510400Y-125946000D01*
X186110400Y-127546000D02*
X186110400Y-125946000D01*
X183510400Y-127546000D02*
X183510400Y-125946000D01*
X183510400Y-127724000D02*
X186110400Y-127724000D01*
X183510400Y-129324000D02*
X186110400Y-129324000D01*
X183510400Y-127724000D02*
X183510400Y-129324000D01*
X186110400Y-127724000D02*
X186110400Y-129324000D01*
X188938000Y-131602000D02*
X188938000Y-129002000D01*
X190538000Y-131602000D02*
X190538000Y-129002000D01*
X188938000Y-131602000D02*
X190538000Y-131602000D01*
X188938000Y-129002000D02*
X190538000Y-129002000D01*
X187109200Y-131602000D02*
X187109200Y-129002000D01*
X188709200Y-131602000D02*
X188709200Y-129002000D01*
X187109200Y-131602000D02*
X188709200Y-131602000D01*
X187109200Y-129002000D02*
X188709200Y-129002000D01*
X199449600Y-93942000D02*
X202049600Y-93942000D01*
X199449600Y-95542000D02*
X202049600Y-95542000D01*
X199449600Y-93942000D02*
X199449600Y-95542000D01*
X202049600Y-93942000D02*
X202049600Y-95542000D01*
X199449600Y-95669200D02*
X202049600Y-95669200D01*
X199449600Y-97269200D02*
X202049600Y-97269200D01*
X199449600Y-95669200D02*
X199449600Y-97269200D01*
X202049600Y-95669200D02*
X202049600Y-97269200D01*
X121797600Y-126631600D02*
X119197600Y-126631600D01*
X121797600Y-125031600D02*
X119197600Y-125031600D01*
X121797600Y-126631600D02*
X121797600Y-125031600D01*
X119197600Y-126631600D02*
X119197600Y-125031600D01*
X119003600Y-117513000D02*
X116403600Y-117513000D01*
X119003600Y-115913000D02*
X116403600Y-115913000D01*
X119003600Y-117513000D02*
X119003600Y-115913000D01*
X116403600Y-117513000D02*
X116403600Y-115913000D01*
X125298800Y-120366000D02*
X125298800Y-122966000D01*
X123698800Y-120366000D02*
X123698800Y-122966000D01*
X125298800Y-120366000D02*
X123698800Y-120366000D01*
X125298800Y-122966000D02*
X123698800Y-122966000D01*
X123622400Y-120366000D02*
X123622400Y-122966000D01*
X122022400Y-120366000D02*
X122022400Y-122966000D01*
X123622400Y-120366000D02*
X122022400Y-120366000D01*
X123622400Y-122966000D02*
X122022400Y-122966000D01*
X98768000Y-118394000D02*
X98768000Y-115794000D01*
X100368000Y-118394000D02*
X100368000Y-115794000D01*
X98768000Y-118394000D02*
X100368000Y-118394000D01*
X98768000Y-115794000D02*
X100368000Y-115794000D01*
X114007800Y-118943600D02*
X114007800Y-121543600D01*
X112407800Y-118943600D02*
X112407800Y-121543600D01*
X114007800Y-118943600D02*
X112407800Y-118943600D01*
X114007800Y-121543600D02*
X112407800Y-121543600D01*
X100800000Y-118394000D02*
X100800000Y-115794000D01*
X102400000Y-118394000D02*
X102400000Y-115794000D01*
X100800000Y-118394000D02*
X102400000Y-118394000D01*
X100800000Y-115794000D02*
X102400000Y-115794000D01*
X100356000Y-118842000D02*
X100356000Y-121442000D01*
X98756000Y-118842000D02*
X98756000Y-121442000D01*
X100356000Y-118842000D02*
X98756000Y-118842000D01*
X100356000Y-121442000D02*
X98756000Y-121442000D01*
X102410200Y-118852160D02*
X102410200Y-121452160D01*
X100810200Y-118852160D02*
X100810200Y-121452160D01*
X102410200Y-118852160D02*
X100810200Y-118852160D01*
X102410200Y-121452160D02*
X100810200Y-121452160D01*
X121772200Y-147434200D02*
X119172200Y-147434200D01*
X121772200Y-145834200D02*
X119172200Y-145834200D01*
X121772200Y-147434200D02*
X121772200Y-145834200D01*
X119172200Y-147434200D02*
X119172200Y-145834200D01*
X118821800Y-135402800D02*
X118821800Y-138002800D01*
X117221800Y-135402800D02*
X117221800Y-138002800D01*
X118821800Y-135402800D02*
X117221800Y-135402800D01*
X118821800Y-138002800D02*
X117221800Y-138002800D01*
X125324200Y-140940000D02*
X125324200Y-143540000D01*
X123724200Y-140940000D02*
X123724200Y-143540000D01*
X125324200Y-140940000D02*
X123724200Y-140940000D01*
X125324200Y-143540000D02*
X123724200Y-143540000D01*
X123622400Y-140940000D02*
X123622400Y-143540000D01*
X122022400Y-140940000D02*
X122022400Y-143540000D01*
X123622400Y-140940000D02*
X122022400Y-140940000D01*
X123622400Y-143540000D02*
X122022400Y-143540000D01*
X98768000Y-138968000D02*
X98768000Y-136368000D01*
X100368000Y-138968000D02*
X100368000Y-136368000D01*
X98768000Y-138968000D02*
X100368000Y-138968000D01*
X98768000Y-136368000D02*
X100368000Y-136368000D01*
X114631000Y-138002800D02*
X114631000Y-135402800D01*
X116231000Y-138002800D02*
X116231000Y-135402800D01*
X114631000Y-138002800D02*
X116231000Y-138002800D01*
X114631000Y-135402800D02*
X116231000Y-135402800D01*
X100800000Y-138968000D02*
X100800000Y-136368000D01*
X102400000Y-138968000D02*
X102400000Y-136368000D01*
X100800000Y-138968000D02*
X102400000Y-138968000D01*
X100800000Y-136368000D02*
X102400000Y-136368000D01*
X100368000Y-139416000D02*
X100368000Y-142016000D01*
X98768000Y-139416000D02*
X98768000Y-142016000D01*
X100368000Y-139416000D02*
X98768000Y-139416000D01*
X100368000Y-142016000D02*
X98768000Y-142016000D01*
X102410200Y-139414160D02*
X102410200Y-142014160D01*
X100810200Y-139414160D02*
X100810200Y-142014160D01*
X102410200Y-139414160D02*
X100810200Y-139414160D01*
X102410200Y-142014160D02*
X100810200Y-142014160D01*
X132177000Y-144183200D02*
X134777000Y-144183200D01*
X132177000Y-145783200D02*
X134777000Y-145783200D01*
X132177000Y-144183200D02*
X132177000Y-145783200D01*
X134777000Y-144183200D02*
X134777000Y-145783200D01*
X134777000Y-147586600D02*
X132177000Y-147586600D01*
X134777000Y-145986600D02*
X132177000Y-145986600D01*
X134777000Y-147586600D02*
X134777000Y-145986600D01*
X132177000Y-147586600D02*
X132177000Y-145986600D01*
X96169000Y-85763000D02*
X93569000Y-85763000D01*
X96169000Y-84163000D02*
X93569000Y-84163000D01*
X96169000Y-85763000D02*
X96169000Y-84163000D01*
X93569000Y-85763000D02*
X93569000Y-84163000D01*
X96169000Y-98717000D02*
X93569000Y-98717000D01*
X96169000Y-97117000D02*
X93569000Y-97117000D01*
X96169000Y-98717000D02*
X96169000Y-97117000D01*
X93569000Y-98717000D02*
X93569000Y-97117000D01*
X82173440Y-21222840D02*
X91723440Y-21222840D01*
X91723440Y-21222840D02*
X91723440Y-26522840D01*
X91723440Y-26522840D02*
X82173440Y-26522840D01*
X82173440Y-26522840D02*
X82173440Y-21222840D01*
X165092200Y-97797800D02*
X154592200Y-97797800D01*
X165092200Y-108297800D02*
X154592200Y-108297800D01*
X165092200Y-97797800D02*
X165092200Y-108297800D01*
X154592200Y-97797800D02*
X154592200Y-108297800D01*
X199092000Y-121980000D02*
X193592000Y-121980000D01*
X199092000Y-129480000D02*
X193592000Y-129480000D01*
X199092000Y-121980000D02*
X199092000Y-129480000D01*
X193592000Y-121980000D02*
X193592000Y-129480000D01*
X121885400Y-123146000D02*
X121885400Y-117646000D01*
X114385400Y-123146000D02*
X114385400Y-117646000D01*
X121885400Y-123146000D02*
X114385400Y-123146000D01*
X121885400Y-117646000D02*
X114385400Y-117646000D01*
X121873400Y-143720000D02*
X121873400Y-138220000D01*
X114373400Y-143720000D02*
X114373400Y-138220000D01*
X121873400Y-143720000D02*
X114373400Y-143720000D01*
X121873400Y-138220000D02*
X114373400Y-138220000D01*
X104974000Y-88290000D02*
X101274000Y-88290000D01*
X104974000Y-94590000D02*
X101274000Y-94590000D01*
X104974000Y-88290000D02*
X104974000Y-94590000D01*
X101274000Y-88290000D02*
X101274000Y-94590000D01*
X185410580Y-47141620D02*
X194710580Y-47141620D01*
X185410580Y-39741620D02*
X194710580Y-39741620D01*
X185410580Y-47141620D02*
X185410580Y-39741620D01*
X194710580Y-47141620D02*
X194710580Y-39741620D01*
X115828260Y-35469660D02*
X115828260Y-18769660D01*
X115828260Y-18769660D02*
X95328260Y-18769660D01*
X95328260Y-18769660D02*
X95328260Y-35469660D01*
X115828260Y-35469660D02*
X95328260Y-35469660D01*
X178482080Y-16101640D02*
X178482080Y-32451640D01*
X178482080Y-32451640D02*
X197182080Y-32451640D01*
X197182080Y-32451640D02*
X197182080Y-16101640D01*
X197182080Y-16101640D02*
X178482080Y-16101640D01*
X137832280Y-35472200D02*
X137832280Y-18772200D01*
X137832280Y-18772200D02*
X117332280Y-18772200D01*
X117332280Y-18772200D02*
X117332280Y-35472200D01*
X137832280Y-35472200D02*
X117332280Y-35472200D01*
X64047800Y-97444500D02*
X91447800Y-97444500D01*
X91447800Y-97444500D02*
X91447800Y-77744500D01*
X91447800Y-77744500D02*
X64047800Y-77744500D01*
X64047800Y-97444500D02*
X64047800Y-77744500D01*
X228141100Y-105920600D02*
X200741100Y-105920600D01*
X200741100Y-105920600D02*
X200741100Y-125620600D01*
X200741100Y-125620600D02*
X228141100Y-125620600D01*
X228141100Y-105920600D02*
X228141100Y-125620600D01*
X228141100Y-126113600D02*
X200741100Y-126113600D01*
X200741100Y-126113600D02*
X200741100Y-145813600D01*
X200741100Y-145813600D02*
X228141100Y-145813600D01*
X228141100Y-126113600D02*
X228141100Y-145813600D01*
X64047800Y-125646120D02*
X91447800Y-125646120D01*
X91447800Y-125646120D02*
X91447800Y-105946120D01*
X91447800Y-105946120D02*
X64047800Y-105946120D01*
X64047800Y-125646120D02*
X64047800Y-105946120D01*
X64047800Y-145846740D02*
X91447800Y-145846740D01*
X91447800Y-145846740D02*
X91447800Y-126146740D01*
X91447800Y-126146740D02*
X64047800Y-126146740D01*
X64047800Y-145846740D02*
X64047800Y-126146740D01*
X211330740Y-35021080D02*
X211330740Y-18821080D01*
X211330740Y-18821080D02*
X199880740Y-18821080D01*
X199880740Y-18821080D02*
X199880740Y-35021080D01*
X199880740Y-35021080D02*
X211330740Y-35021080D01*
X191958000Y-109498000D02*
X191958000Y-112498000D01*
X191958000Y-112498000D02*
X190058000Y-112498000D01*
X190058000Y-109498000D02*
X190058000Y-112498000D01*
X191958000Y-109498000D02*
X190058000Y-109498000D01*
X184084000Y-109498000D02*
X184084000Y-112498000D01*
X184084000Y-112498000D02*
X182184000Y-112498000D01*
X182184000Y-109498000D02*
X182184000Y-112498000D01*
X184084000Y-109498000D02*
X182184000Y-109498000D01*
X190058000Y-141962000D02*
X190058000Y-138962000D01*
X190058000Y-138962000D02*
X191958000Y-138962000D01*
X191958000Y-141962000D02*
X191958000Y-138962000D01*
X190058000Y-141962000D02*
X191958000Y-141962000D01*
X182184000Y-141962000D02*
X182184000Y-138962000D01*
X182184000Y-138962000D02*
X184084000Y-138962000D01*
X184084000Y-141962000D02*
X184084000Y-138962000D01*
X182184000Y-141962000D02*
X184084000Y-141962000D01*
X93496000Y-125796000D02*
X96496000Y-125796000D01*
X96496000Y-125796000D02*
X96496000Y-127696000D01*
X93496000Y-127696000D02*
X96496000Y-127696000D01*
X93496000Y-125796000D02*
X93496000Y-127696000D01*
X93496000Y-146116000D02*
X96496000Y-146116000D01*
X96496000Y-146116000D02*
X96496000Y-148016000D01*
X93496000Y-148016000D02*
X96496000Y-148016000D01*
X93496000Y-146116000D02*
X93496000Y-148016000D01*
X130004780Y-39079300D02*
X130004780Y-36079300D01*
X130004780Y-36079300D02*
X131904780Y-36079300D01*
X131904780Y-39079300D02*
X131904780Y-36079300D01*
X130004780Y-39079300D02*
X131904780Y-39079300D01*
X123573580Y-46569500D02*
X123573580Y-49569500D01*
X123573580Y-49569500D02*
X121673580Y-49569500D01*
X121673580Y-46569500D02*
X121673580Y-49569500D01*
X123573580Y-46569500D02*
X121673580Y-46569500D01*
X191075600Y-32640200D02*
X194275600Y-32640200D01*
X191075600Y-34640200D02*
X194275600Y-34640200D01*
X191075600Y-32640200D02*
X191075600Y-34640200D01*
X194275600Y-32640200D02*
X194275600Y-34640200D01*
X185500580Y-39523900D02*
X185500580Y-36623900D01*
X187000580Y-39523900D02*
X187000580Y-36623900D01*
X185500580Y-39523900D02*
X187000580Y-39523900D01*
X185500580Y-36623900D02*
X187000580Y-36623900D01*
X172677020Y-43097860D02*
X172677020Y-39497860D01*
X172677020Y-39497860D02*
X175877020Y-39497860D01*
X175877020Y-39497860D02*
X175877020Y-43097860D01*
X175877020Y-43097860D02*
X172677020Y-43097860D01*
X154827400Y-110058400D02*
X158127400Y-110058400D01*
X158127400Y-110058400D02*
X158127400Y-113258400D01*
X158127400Y-113258400D02*
X154827400Y-113258400D01*
X154827400Y-113258400D02*
X154827400Y-110058400D01*
X151449200Y-110058400D02*
X154749200Y-110058400D01*
X154749200Y-110058400D02*
X154749200Y-113258400D01*
X154749200Y-113258400D02*
X151449200Y-113258400D01*
X151449200Y-113258400D02*
X151449200Y-110058400D01*
X197091800Y-115698000D02*
X197091800Y-118998000D01*
X197091800Y-118998000D02*
X193891800Y-118998000D01*
X193891800Y-118998000D02*
X193891800Y-115698000D01*
X193891800Y-115698000D02*
X197091800Y-115698000D01*
X197789600Y-134341600D02*
X197789600Y-137641600D01*
X197789600Y-137641600D02*
X194589600Y-137641600D01*
X194589600Y-137641600D02*
X194589600Y-134341600D01*
X194589600Y-134341600D02*
X197789600Y-134341600D01*
X189358000Y-114478000D02*
X192658000Y-114478000D01*
X192658000Y-114478000D02*
X192658000Y-117678000D01*
X192658000Y-117678000D02*
X189358000Y-117678000D01*
X189358000Y-117678000D02*
X189358000Y-114478000D01*
X184786000Y-114478000D02*
X188086000Y-114478000D01*
X188086000Y-114478000D02*
X188086000Y-117678000D01*
X188086000Y-117678000D02*
X184786000Y-117678000D01*
X184786000Y-117678000D02*
X184786000Y-114478000D01*
X192658000Y-108534000D02*
X189358000Y-108534000D01*
X189358000Y-108534000D02*
X189358000Y-105334000D01*
X189358000Y-105334000D02*
X192658000Y-105334000D01*
X192658000Y-105334000D02*
X192658000Y-108534000D01*
X184784000Y-108534000D02*
X181484000Y-108534000D01*
X181484000Y-108534000D02*
X181484000Y-105334000D01*
X181484000Y-105334000D02*
X184784000Y-105334000D01*
X184784000Y-105334000D02*
X184784000Y-108534000D01*
X192658000Y-136982000D02*
X189358000Y-136982000D01*
X189358000Y-136982000D02*
X189358000Y-133782000D01*
X189358000Y-133782000D02*
X192658000Y-133782000D01*
X192658000Y-133782000D02*
X192658000Y-136982000D01*
X188086000Y-136982000D02*
X184786000Y-136982000D01*
X184786000Y-136982000D02*
X184786000Y-133782000D01*
X184786000Y-133782000D02*
X188086000Y-133782000D01*
X188086000Y-133782000D02*
X188086000Y-136982000D01*
X191390000Y-142265600D02*
X194690000Y-142265600D01*
X194690000Y-142265600D02*
X194690000Y-145465600D01*
X194690000Y-145465600D02*
X191390000Y-145465600D01*
X191390000Y-145465600D02*
X191390000Y-142265600D01*
X183516000Y-142265600D02*
X186816000Y-142265600D01*
X186816000Y-142265600D02*
X186816000Y-145465600D01*
X186816000Y-145465600D02*
X183516000Y-145465600D01*
X183516000Y-145465600D02*
X183516000Y-142265600D01*
X98172000Y-126162000D02*
X101472000Y-126162000D01*
X101472000Y-126162000D02*
X101472000Y-129362000D01*
X101472000Y-129362000D02*
X98172000Y-129362000D01*
X98172000Y-129362000D02*
X98172000Y-126162000D01*
X98172000Y-146482000D02*
X101472000Y-146482000D01*
X101472000Y-146482000D02*
X101472000Y-149682000D01*
X101472000Y-149682000D02*
X98172000Y-149682000D01*
X98172000Y-149682000D02*
X98172000Y-146482000D01*
X101448600Y-96952000D02*
X104748600Y-96952000D01*
X104748600Y-96952000D02*
X104748600Y-100152000D01*
X104748600Y-100152000D02*
X101448600Y-100152000D01*
X101448600Y-100152000D02*
X101448600Y-96952000D01*
X100268200Y-38532000D02*
X103568200Y-38532000D01*
X103568200Y-38532000D02*
X103568200Y-41732000D01*
X103568200Y-41732000D02*
X100268200Y-41732000D01*
X100268200Y-41732000D02*
X100268200Y-38532000D01*
X106921000Y-39979400D02*
X103621000Y-39979400D01*
X103621000Y-39979400D02*
X103621000Y-36779400D01*
X103621000Y-36779400D02*
X106921000Y-36779400D01*
X106921000Y-36779400D02*
X106921000Y-39979400D01*
X195078080Y-35047120D02*
X198378080Y-35047120D01*
X198378080Y-35047120D02*
X198378080Y-38247120D01*
X198378080Y-38247120D02*
X195078080Y-38247120D01*
X195078080Y-38247120D02*
X195078080Y-35047120D01*
X178283600Y-43840600D02*
X181583600Y-43840600D01*
X181583600Y-43840600D02*
X181583600Y-47040600D01*
X181583600Y-47040600D02*
X178283600Y-47040600D01*
X178283600Y-47040600D02*
X178283600Y-43840600D01*
X165341300Y-15631320D02*
X165341300Y-33181320D01*
X165341300Y-33181320D02*
X150091300Y-33181320D01*
X150091300Y-33181320D02*
X150091300Y-15631320D01*
X150091300Y-15631320D02*
X165341300Y-15631320D01*
X200442000Y-42867600D02*
X200442000Y-35567600D01*
X200442000Y-35567600D02*
X204942000Y-35567600D01*
X204942000Y-35567600D02*
X204942000Y-42867600D01*
X204942000Y-42867600D02*
X200442000Y-42867600D01*
X206030000Y-42867600D02*
X206030000Y-35567600D01*
X206030000Y-35567600D02*
X210530000Y-35567600D01*
X210530000Y-35567600D02*
X210530000Y-42867600D01*
X210530000Y-42867600D02*
X206030000Y-42867600D01*
X206883294Y-60735794D02*
X215333294Y-60735794D01*
X215333294Y-60735794D02*
X215333294Y-68885794D01*
X215333294Y-68885794D02*
X206883294Y-68885794D01*
X206883294Y-68885794D02*
X206883294Y-60735794D01*
X91822000Y-145976000D02*
X91822000Y-135476000D01*
X91822000Y-135476000D02*
X98322000Y-135476000D01*
X98322000Y-135476000D02*
X98322000Y-145976000D01*
X98322000Y-145976000D02*
X91822000Y-145976000D01*
X91822000Y-125656000D02*
X91822000Y-115156000D01*
X91822000Y-115156000D02*
X98322000Y-115156000D01*
X98322000Y-115156000D02*
X98322000Y-125656000D01*
X98322000Y-125656000D02*
X91822000Y-125656000D01*
M02*
