M48
;DRILL file {KiCad (2015-05-18 BZR 5668)-product} date Mon 22 Jun 2015 04:57:54 PM CEST
;FORMAT={-:-/ absolute / inch / decimal}
FMAT,2
INCH,TZ
T1C0.012
T2C0.015
T3C0.018
T4C0.031
T5C0.032
T6C0.035
T7C0.036
T8C0.039
T9C0.039
T10C0.039
T11C0.040
T12C0.043
T13C0.051
T14C0.053
T15C0.059
T16C0.062
T17C0.063
T18C0.070
T19C0.091
T20C0.094
T21C0.130
T22C0.138
%
G90
G05
M72
T1
X3.7885Y-3.71
X3.7885Y-3.855
X3.88Y-3.36
X3.9925Y-3.5125
X4.02Y-3.635
X4.055Y-3.4325
X4.119Y-5.2156
X4.119Y-5.3298
X4.119Y-5.626
X4.3Y-3.55
X4.3Y-3.635
X4.3144Y-4.999
X4.4835Y-5.6585
X4.704Y-5.587
X4.746Y-5.703
X4.83Y-2.3675
X4.845Y-5.065
X4.925Y-4.935
X4.955Y-4.35
X5.08Y-2.67
X5.1875Y-2.365
X5.2325Y-2.365
X5.28Y-2.365
X5.3075Y-2.645
X5.3175Y-2.535
X5.3275Y-2.365
X5.3425Y-2.5625
X5.41Y-2.2975
X5.41Y-2.37
X5.4275Y-2.04
X5.4275Y-2.5625
X5.43Y-2.345
X5.46Y-2.01
X5.4625Y-2.5425
X5.4925Y-2.5275
X5.5325Y-2.5275
X5.535Y-4.625
X5.57Y-2.315
X5.605Y-2.31
X5.6175Y-4.6625
X5.635Y-2.18
X5.6775Y-2.18
X5.6775Y-4.7225
X5.775Y-4.4
X5.775Y-4.7825
X5.79Y-2.31
X5.79Y-2.35
X5.8Y-4.375
X5.85Y-4.325
X5.8675Y-4.585
X5.8725Y-4.8775
X5.875Y-4.3
X5.875Y-4.6175
X5.8855Y-4.188
X5.9075Y-4.6825
X5.935Y-4.1425
X5.96Y-4.4
X5.98Y-4.375
X5.985Y-4.7025
X5.99Y-4.49
X6.005Y-4.35
X6.025Y-4.325
X6.03Y-4.
X6.04Y-4.515
X6.04Y-4.915
X6.045Y-4.3
X6.0465Y-4.398
X6.1Y-4.025
X6.12Y-4.495
X6.125Y-4.525
X6.135Y-2.3625
X6.175Y-4.68
X6.175Y-4.915
X6.1775Y-2.3475
X6.2035Y-4.4725
X6.2125Y-2.3475
X6.2125Y-4.58
X6.234Y-4.188
X6.245Y-2.3625
X6.25Y-4.805
X6.29Y-4.62
X6.2925Y-4.1285
X6.295Y-2.11
X6.3105Y-4.3005
X6.3345Y-4.19
X6.3675Y-2.4925
X6.37Y-2.652
X6.375Y-4.
X6.4Y-4.025
X6.415Y-2.4925
X6.44Y-1.5625
X6.44Y-2.652
X6.4525Y-2.4925
X6.485Y-2.4925
X6.51Y-2.652
X6.5375Y-2.36
X6.556Y-2.011
X6.5725Y-2.36
X6.615Y-2.652
X6.6275Y-2.4925
X6.65Y-1.73
X6.66Y-2.5275
X6.68Y-1.805
X6.68Y-1.845
X6.688Y-2.011
X6.69Y-2.652
X6.78Y-2.01
X6.78Y-2.575
X6.78Y-2.652
X6.85Y-1.7375
X6.85Y-2.575
X6.85Y-2.652
X6.92Y-2.575
X6.92Y-2.652
X6.99Y-2.575
X6.99Y-2.652
X6.9925Y-2.3625
X6.9931Y-2.175
X7.06Y-2.6525
X7.075Y-2.1675
X7.6Y-1.7725
X7.6Y-1.9375
T2
X3.995Y-3.7525
X4.1275Y-3.85
X4.16Y-4.0775
X4.19Y-4.1075
X4.22Y-4.1375
X4.25Y-4.1675
X4.5245Y-5.8085
X4.5755Y-5.657
X5.025Y-1.61
X5.025Y-1.695
X5.132Y-1.8659
X6.764Y-1.638
X7.114Y-1.456
X7.224Y-1.551
X7.375Y-1.68
X7.47Y-1.18
X7.626Y-4.748
X7.626Y-5.146
X7.65Y-1.782
X7.668Y-4.77
X7.74Y-1.124
X7.871Y-4.84
T3
X2.7992Y-1.464
X2.7995Y-2.123
X2.7996Y-2.4351
X2.807Y-4.011
X2.939Y-5.401
X2.939Y-5.673
X2.9395Y-4.877
X2.9395Y-6.011
X2.94Y-4.6305
X3.1332Y-3.4413
X3.2835Y-2.4351
X3.284Y-2.8785
X3.2841Y-2.1234
X3.2842Y-1.464
X3.2844Y-1.1493
X3.501Y-4.009
X3.501Y-4.3705
X3.501Y-4.631
X3.501Y-5.1175
X3.501Y-5.401
X3.501Y-6.011
X3.5015Y-3.2215
X3.5015Y-3.5195
X3.7645Y-3.222
X3.7865Y-4.3805
X3.8215Y-5.401
X3.8426Y-0.8483
X3.845Y-4.96
X3.8675Y-6.167
X3.966Y-3.2205
X4.0575Y-5.127
X4.087Y-4.009
X4.087Y-4.225
X4.112Y-4.3805
X4.112Y-4.6406
X4.1547Y-1.7754
X4.155Y-1.465
X4.26Y-5.1265
X4.2805Y-5.432
X4.298Y-4.009
X4.2995Y-3.806
X4.3005Y-3.704
X4.346Y-3.221
X4.346Y-3.4465
X4.383Y-2.88
X4.4504Y-1.6536
X4.4644Y-5.9632
X4.5455Y-5.4315
X4.546Y-4.6415
X4.546Y-5.079
X4.5924Y-0.8484
X4.5925Y-1.1517
X4.655Y-2.435
X4.7645Y-5.432
X4.7695Y-5.1865
X4.8264Y-3.5472
X4.8268Y-4.2152
X4.8272Y-2.88
X4.8425Y-5.922
X4.8425Y-6.167
X5.0105Y-4.639
X5.0105Y-5.0845
X5.0105Y-5.432
X5.34Y-1.7292
X5.3502Y-4.2138
X5.3508Y-2.8784
X5.3508Y-3.5466
X5.418Y-5.9632
X5.4985Y-4.833
X5.4985Y-5.085
X5.4985Y-5.432
X5.499Y-5.727
X5.499Y-6.168
X5.6784Y-1.1752
X5.6784Y-1.5352
X5.9346Y-2.8798
X5.935Y-3.5466
X6.068Y-5.727
X6.068Y-6.168
X6.1524Y-1.5348
X6.2264Y-0.8464
X6.25Y-4.955
X6.251Y-5.0845
X6.2515Y-5.4315
X6.31Y-4.5475
X6.544Y-5.727
X6.544Y-6.1675
X6.7309Y-4.191
X6.732Y-3.546
X6.7324Y-2.8798
X6.8235Y-5.4325
X6.824Y-5.0855
X6.8245Y-4.9545
X6.9485Y-4.647
X6.976Y-1.086
X7.088Y-5.2025
X7.088Y-5.3615
X7.0917Y-1.9194
X7.0998Y-2.5455
X7.2085Y-4.3885
X7.2455Y-5.5365
X7.2455Y-5.726
X7.2455Y-6.167
X7.315Y-4.575
X7.3205Y-4.3885
X7.3945Y-5.536
X7.415Y-2.11
X7.4877Y-2.8797
X7.488Y-2.5452
X7.488Y-3.5464
X7.5082Y-4.5522
X7.541Y-5.3495
X7.541Y-5.4654
X7.541Y-5.726
X7.549Y-4.0425
X7.6018Y-4.5524
X7.7585Y-1.9245
X7.775Y-3.803
X7.7755Y-3.9554
X7.8785Y-2.8455
X7.899Y-4.5595
X7.9505Y-4.2085
X7.9675Y-5.7265
X7.9675Y-6.168
X7.9945Y-4.5595
X7.9945Y-4.8405
X7.9945Y-5.363
X7.9945Y-5.487
X8.1745Y-3.7085
X8.193Y-4.5595
X8.2605Y-5.363
X8.396Y-3.3184
X8.5895Y-4.56
X8.5895Y-5.3625
X8.59Y-4.03
X8.591Y-6.1675
X8.75Y-2.457
X8.75Y-3.1525
X8.75Y-3.7085
X8.75Y-4.03
X8.8865Y-3.7085
X8.8865Y-4.0295
X8.887Y-3.1525
X8.8875Y-2.457
T4
X3.6665Y-5.3525
X3.6665Y-5.4525
X3.6665Y-5.5525
X3.6665Y-5.6525
X3.6665Y-5.8525
X3.6745Y-4.331
X3.6745Y-4.431
X3.6745Y-4.531
X3.6745Y-4.631
X3.6745Y-4.831
X3.8665Y-5.3525
X3.8665Y-5.4525
X3.8665Y-5.5525
X3.8665Y-5.6525
X3.8665Y-5.8525
X3.8745Y-4.331
X3.8745Y-4.431
X3.8745Y-4.531
X3.8745Y-4.631
X3.8745Y-4.831
X7.8392Y-2.7026
X7.8593Y-1.9
X7.8805Y-3.2385
X7.8805Y-3.3172
X7.9179Y-2.7026
X7.938Y-1.9
X7.963Y-3.7241
X7.963Y-3.8028
X7.963Y-3.9554
X7.963Y-4.0341
X8.82Y-1.63
X8.82Y-1.8269
X8.82Y-2.0751
X8.82Y-2.272
T5
X6.1595Y-1.1371
X6.1595Y-1.2158
X6.2595Y-1.1371
X6.2595Y-1.2158
T6
X7.1252Y-1.2266
X7.2152Y-1.2266
X7.2552Y-0.9666
X7.2952Y-1.0366
X7.3352Y-0.9666
X7.3752Y-1.0366
X7.4152Y-0.9666
X7.4552Y-1.0366
X7.4952Y-0.9666
X7.5352Y-1.0366
X7.5752Y-1.2266
X7.6652Y-1.2266
T7
X6.7599Y-1.2437
X6.7599Y-1.3224
X6.7599Y-1.4012
X6.7599Y-1.4799
T8
X3.3336Y-0.8946
X3.5108Y-0.8946
T10
X8.3267Y-0.9084
T11
X3.3775Y-2.1225
X3.3775Y-2.2225
X3.4775Y-2.1225
X3.4775Y-2.2225
X3.5775Y-2.1225
X3.5775Y-2.2225
X3.6775Y-1.9225
X3.6775Y-2.1225
X3.6775Y-2.2225
X3.7775Y-1.9225
X3.7775Y-2.1225
X3.7775Y-2.2225
X3.8775Y-1.9225
X3.8775Y-2.1225
X3.8775Y-2.2225
X3.9775Y-2.1225
X3.9775Y-2.2225
X4.0775Y-2.1225
X4.0775Y-2.2225
X4.1775Y-2.1225
X4.1775Y-2.2225
X4.2775Y-2.1225
X4.2775Y-2.2225
X5.57Y-1.8875
X5.67Y-1.8875
X5.77Y-1.8875
X5.87Y-1.8875
X5.97Y-1.8875
X6.07Y-1.8875
X6.17Y-1.8875
X6.27Y-1.8875
X6.37Y-1.8875
X6.47Y-1.8875
T12
X4.621Y-2.2728
T13
X3.2844Y-0.9926
X3.5604Y-0.9926
X3.8613Y-1.2429
X3.9598Y-1.3413
X4.0582Y-0.8492
X4.1566Y-1.2429
X4.255Y-0.8492
X4.3535Y-1.3413
X4.4519Y-1.2429
X4.7276Y-1.243
X4.8261Y-1.3414
X4.9245Y-0.8493
X5.0229Y-1.243
X5.1213Y-0.8493
X5.2198Y-1.3414
X5.3182Y-1.243
T14
X6.6528Y-1.215
X6.6528Y-1.4906
X6.867Y-1.215
X6.867Y-1.4906
T15
X2.807Y-3.1285
X2.807Y-3.7675
X2.807Y-4.2388
X2.807Y-4.8778
X2.807Y-5.0341
X2.807Y-5.6731
X3.057Y-3.1285
X3.057Y-3.7675
X3.057Y-4.2388
X3.057Y-4.8778
X3.057Y-5.0341
X3.057Y-5.6731
X3.307Y-3.1285
X3.307Y-3.7675
X3.307Y-4.2388
X3.307Y-4.8778
X3.307Y-5.0341
X3.307Y-5.6731
X8.1965Y-4.239
X8.1965Y-4.878
X8.1965Y-5.034
X8.1965Y-5.673
X8.4465Y-4.239
X8.4465Y-4.878
X8.4465Y-5.034
X8.4465Y-5.673
X8.6965Y-4.239
X8.6965Y-4.878
X8.6965Y-5.034
X8.6965Y-5.673
T16
X7.0752Y-1.0016
X7.7152Y-1.0016
T17
X7.251Y-2.2728
T18
X8.2336Y-2.5211
X8.3895Y-2.5211
T19
X5.9733Y-1.0308
X6.4457Y-1.0308
T20
X3.8613Y-1.046
X4.4519Y-1.046
X4.7276Y-1.0461
X5.3182Y-1.0461
T21
X7.1452Y-0.8666
X7.6452Y-0.8666
T22
X2.5032Y-6.1642
X2.9755Y-0.9085
X5.7509Y-0.9085
X5.751Y-6.1642
X8.5267Y-0.9084
X8.9992Y-6.1642
T9
X7.9481Y-1.1327G85X7.9481Y-1.2115
G05
X8.1725Y-1.054G85X8.0937Y-1.054
G05
X8.1823Y-1.2903G85X8.0839Y-1.2903
G05
T0
M30
