M48
;DRILL file {KiCad no-vcs-found-product} date Mon 12 Oct 2015 08:55:48 AM BRT
;FORMAT={-:-/ absolute / inch / decimal}
FMAT,2
INCH,TZ
T1C0.012
T2C0.015
T3C0.018
T4C0.026
T5C0.027
T6C0.031
T7C0.032
T8C0.035
T9C0.036
T10C0.039
T11C0.039
T12C0.039
T13C0.040
T14C0.043
T15C0.051
T16C0.053
T17C0.059
T18C0.062
T19C0.063
T20C0.091
T21C0.130
T22C0.138
T23C0.146
%
G90
G05
M72
T1
X-0.34Y-1.0079
X-0.124Y-1.0079
X-0.124Y-1.0719
X0.026Y-1.1379
X0.126Y-1.1459
X0.4245Y-4.3401
X0.5639Y-3.5369
X0.6395Y-3.6092
X0.6403Y-4.4142
X0.6919Y-2.4532
X0.8044Y-2.6057
X1.0811Y-2.963
X1.0811Y-3.103
X1.1071Y-2.725
X1.1111Y-2.643
X1.1351Y-3.103
X1.1439Y-4.3116
X1.1439Y-4.7268
X1.1761Y-3.539
X1.2141Y-3.508
X1.389Y-3.8829
X1.389Y-3.9929
X1.4671Y-3.614
X1.4671Y-3.66
X1.5084Y-4.7507
X1.719Y-4.6793
X1.7709Y-4.7952
X1.822Y-1.6684
X1.84Y-1.6439
X1.9131Y-1.3163
X1.9471Y-4.612
X1.9481Y-3.854
X1.9799Y-3.4422
X2.0361Y-3.614
X2.0361Y-3.66
X2.1045Y-1.6579
X2.107Y-3.4419
X2.1164Y-1.3163
X2.1165Y-1.453
X2.175Y-1.6579
X2.311Y-1.6169
X2.347Y-1.6514
X2.3499Y-1.6895
X2.3763Y-1.5948
X2.4169Y-1.5948
X2.518Y-1.4674
X2.5211Y-3.614
X2.5211Y-3.66
X2.563Y-1.4554
X2.6091Y-1.455
X2.6799Y-3.8357
X2.7101Y-1.4
X2.736Y-3.7459
X2.7539Y-1.4592
X2.7704Y-3.8997
X2.783Y-3.7929
X2.7999Y-3.4922
X2.8011Y-1.4
X2.8249Y-3.4672
X2.856Y-3.4419
X2.8605Y-1.3164
X2.8659Y-3.9937
X2.8749Y-3.4172
X2.8774Y-3.7452
X2.8999Y-3.3922
X2.9274Y-3.7922
X2.9729Y-3.8382
X2.9811Y-3.614
X3.0011Y-3.637
X3.0049Y-3.4672
X3.0299Y-3.4422
X3.0499Y-3.4172
X3.0699Y-3.3922
X3.079Y-3.7669
X3.0801Y-3.66
X3.0871Y-3.614
X3.1531Y-3.595
X3.1535Y-1.2674
X3.167Y-3.7669
X3.1909Y-3.5282
X3.1935Y-1.2919
X3.197Y-3.5899
X3.2239Y-3.3662
X3.2279Y-3.2312
X3.2409Y-3.5282
X3.244Y-3.8099
X3.249Y-1.2819
X3.275Y-1.2669
X3.3119Y-3.4532
X3.314Y-1.2939
X3.314Y-1.4629
X3.3254Y-3.6286
X3.535Y-1.7453
X3.605Y-1.7451
X3.6749Y-0.8222
X3.675Y-1.7449
X3.7Y-1.4549
X3.7109Y-1.2672
X3.745Y-1.7459
X3.7823Y-1.6415
X3.7988Y-0.9011
X3.8658Y-0.9011
X3.978Y-0.8209
X4.0331Y-1.2989
X4.148Y-1.3179
X4.148Y-1.4529
X4.18Y-1.4539
X4.431Y-3.4879
X4.454Y-1.0289
X4.547Y-1.0289
X4.581Y-3.4879
X5.5308Y-4.6667
X5.5564Y-4.6409
T2
X0.8069Y-2.8457
X0.9394Y-2.9432
X1.1431Y-2.551
X1.1819Y-0.6512
X1.5494Y-4.9007
X1.6004Y-4.7492
X1.9629Y-0.9252
X2.5419Y-0.8522
X2.9121Y-3.183
X2.9989Y-3.1862
X3.0059Y-3.1072
X3.1598Y-3.8413
X3.1739Y-3.1072
X3.1849Y-3.0482
X3.2016Y-3.7999
X3.3351Y-3.203
X3.375Y-3.6419
X3.4089Y-3.3852
X3.476Y-1.4549
X3.522Y-1.4499
X3.5362Y-0.8863
X3.547Y-1.2989
X3.565Y-0.9789
X3.581Y-1.1369
X3.594Y-1.0099
X3.704Y-0.9789
X3.733Y-1.0099
X3.755Y-1.1369
X3.795Y-0.7765
X3.7954Y-0.7305
X4.153Y-1.0669
X4.207Y-0.9021
X4.2938Y-0.6403
X4.3259Y-0.5492
X4.3749Y-0.7762
X4.3749Y-1.1032
X4.4179Y-0.5492
X4.6691Y-4.042
X4.7449Y-0.4402
X4.8101Y-3.576
X4.8101Y-3.844
X4.8101Y-4.242
X4.8539Y-3.8622
X4.8781Y-3.577
X5.0709Y-3.9337
X5.747Y-2.4409
X5.993Y-2.4409
T3
X-0.3989Y-2.47
X-0.3989Y-3.074
X-0.3989Y-3.657
X-0.3989Y-4.46
X-0.3689Y-0.59
X-0.3689Y-0.728
X-0.3689Y-1.342
X-0.3649Y-1.846
X-0.2789Y-5.064
X-0.1909Y-0.412
X-0.1509Y-4.461
X-0.1479Y-2.999
X-0.1479Y-3.657
X-0.1179Y-2.47
X0.0741Y-3.221
X0.0961Y-4.964
X0.1001Y-3.657
X0.1011Y-4.461
X0.1151Y-0.412
X0.1151Y-0.728
X0.1261Y-2.999
X0.1401Y-2.47
X0.1761Y-1.846
X0.3421Y-4.142
X0.3881Y-2.999
X0.3881Y-3.221
X0.4211Y-4.562
X0.4211Y-4.964
X0.4211Y-5.256
X0.4491Y-3.657
X0.4491Y-3.762
X0.5271Y-0.412
X0.5271Y-0.728
X0.5501Y-3.976
X0.5761Y-2.307
X0.6961Y-4.142
X0.7071Y-1.846
X0.8041Y-3.976
X0.8111Y-3.221
X0.8281Y-4.8
X0.8371Y-3.762
X0.8371Y-4.562
X0.8941Y0.013
X0.8941Y-0.154
X0.9171Y-3.489
X0.9711Y-0.728
X0.9711Y-1.034
X0.9711Y-1.204
X0.9711Y-1.365
X1.1811Y-0.154
X1.2611Y-2.307
X1.2611Y-3.221
X1.2621Y-2.768
X1.2761Y-5.009
X1.2761Y-5.256
X1.3321Y-1.846
X1.3811Y-4.17
X1.3811Y-4.35
X1.4561Y-0.864
X1.4561Y-1.034
X1.4561Y-1.204
X1.4561Y-1.365
X1.4761Y-0.154
X1.5401Y-4.509
X1.5631Y-4.17
X1.6913Y-1.2036
X1.7265Y-1.1073
X1.7371Y-3.758
X1.7811Y-4.509
X1.8551Y-0.154
X1.8551Y-0.302
X1.8681Y-1.846
X1.8681Y-2.508
X1.8681Y-3.106
X1.8741Y-4.342
X2.0261Y-1.106
X2.0981Y-3.758
X2.0981Y-4.075
X2.0981Y-4.311
X2.0981Y-4.554
X2.0981Y-4.801
X2.0981Y-5.012
X2.0981Y-5.256
X2.1651Y-1.106
X2.1661Y-0.154
X2.1661Y-0.302
X2.2441Y-3.106
X2.3681Y-0.74
X2.3881Y-1.846
X2.3961Y-2.508
X2.4591Y-4.075
X2.4591Y-4.554
X2.4591Y-4.801
X2.4591Y-5.012
X2.6711Y-0.154
X2.6711Y-0.594
X2.8091Y-4.313
X2.8091Y-4.554
X2.8091Y-4.801
X2.8091Y-5.012
X2.9121Y-2.943
X2.9391Y-0.594
X3.0501Y-1.846
X3.0501Y-2.508
X3.097Y-0.5939
X3.184Y-0.5939
X3.1851Y0.013
X3.1951Y-0.817
X3.2831Y-4.313
X3.2841Y-4.042
X3.2841Y-4.554
X3.2841Y-4.801
X3.2841Y-5.012
X3.2841Y-5.256
X3.4521Y-3.769
X3.4741Y-0.817
X3.5829Y-0.4528
X3.5831Y-2.148
X3.5831Y-2.508
X3.5831Y-2.955
X3.6921Y-3.769
X3.6921Y-4.042
X3.6921Y-4.313
X3.6921Y-4.554
X3.6921Y-4.801
X3.6921Y-5.012
X3.866Y-1.0219
X4.064Y-1.0249
X4.0711Y-2.148
X4.0711Y-2.508
X4.0801Y-3.769
X4.0801Y-4.042
X4.0801Y-4.554
X4.0801Y-4.801
X4.0801Y-5.012
X4.0801Y-5.256
X4.1921Y-2.955
X4.2271Y-3.532
X4.2549Y-1.1582
X4.335Y-1.1029
X4.413Y-1.2539
X4.4231Y-4.801
X4.4231Y-5.012
X4.4761Y-1.97
X4.5456Y-1.1129
X4.5801Y-2.508
X4.5951Y-1.513
X4.6252Y-0.8639
X4.6461Y-0.056
X4.6481Y-3.167
X4.7641Y-4.516
X4.7641Y-4.801
X4.7641Y-5.012
X4.7641Y-5.256
X4.8921Y-1.008
X4.9021Y-2.943
X5.1471Y-4.801
X5.1471Y-5.012
X5.1571Y-3.167
X5.2091Y-2.721
X5.2851Y-1.264
X5.2871Y-1.916
X5.3381Y-5.256
X5.4061Y-2.918
X5.4511Y-3.688
X5.4921Y-4.494
X5.5481Y-3.145
X5.6151Y-0.894
X5.6151Y-1.332
X5.6151Y-1.719
X5.6741Y-0.595
X5.7751Y-2.918
X5.8271Y-3.688
X5.8271Y-4.494
X5.8271Y-5.012
X5.9231Y-0.894
X5.9421Y-3.085
X6.0211Y-0.469
T4
X0.5639Y-3.6622
X0.5639Y-3.8622
X0.5639Y-4.4622
X0.5639Y-4.6622
X0.6899Y-3.6622
X0.6899Y-3.8622
X0.6899Y-4.4622
X0.6899Y-4.6622
X0.7765Y-3.6622
X0.7765Y-3.8622
X0.7765Y-4.4622
X0.7765Y-4.6622
X0.8631Y-3.6622
X0.8631Y-3.8622
X0.8631Y-4.4622
X0.8631Y-4.6622
T5
X4.037Y-0.5863
X4.83Y-0.6659
X5.381Y-2.1539
X5.381Y-2.2589
X5.381Y-2.3669
X5.381Y-2.5189
X5.585Y-2.1539
X5.585Y-2.2589
X5.783Y-2.1539
X5.783Y-2.2589
X5.783Y-2.3669
X5.783Y-2.5189
T6
X4.7936Y-1.2639
X4.892Y-1.2639
X5.3979Y-1.4383
X5.3979Y-1.6352
X5.8469Y-1.4383
X5.8469Y-1.6352
T7
X3.1848Y-0.2342
X3.1848Y-0.3129
X3.2848Y-0.2342
X3.2848Y-0.3129
T8
X4.1509Y-0.2982
X4.2409Y-0.2982
X4.2809Y-0.0382
X4.3209Y-0.1082
X4.3609Y-0.0382
X4.4009Y-0.1082
X4.4409Y-0.0382
X4.4809Y-0.1082
X4.5209Y-0.0382
X4.5609Y-0.1082
X4.6009Y-0.2982
X4.6909Y-0.2982
T9
X3.7849Y-0.3382
X3.7849Y-0.4169
X3.7849Y-0.4957
X3.7849Y-0.5744
T10
X0.3585Y0.0132
X0.5357Y0.0132
T12
X4.793Y-1.6289
X4.793Y-1.7289
X4.793Y-1.8289
X5.3516Y-0.0006
T13
X-0.2239Y-1.2901
X-0.2239Y-1.3901
X-0.1239Y-1.2901
X-0.1239Y-1.3901
X-0.0239Y-1.2901
X-0.0239Y-1.3901
X0.0761Y-1.2901
X0.0761Y-1.3901
X0.1761Y-1.2901
X0.1761Y-1.3901
X0.1765Y-1.0339
X0.2761Y-1.2901
X0.2761Y-1.3901
X0.2765Y-1.0339
X0.3761Y-1.2901
X0.3761Y-1.3901
X0.3765Y-1.0339
X0.4761Y-1.2901
X0.4761Y-1.3901
X0.5761Y-1.2901
X0.5761Y-1.3901
X0.6761Y-1.2901
X0.6761Y-1.3901
X2.5949Y-0.9797
X2.6949Y-0.9797
X2.7949Y-0.9797
X2.8949Y-0.9797
X2.9949Y-0.9797
X3.0949Y-0.9797
X3.1949Y-0.9797
X3.2949Y-0.9797
X3.3949Y-0.9797
X3.4949Y-0.9797
T14
X1.6459Y-1.365
T15
X0.3093Y-0.0848
X0.5853Y-0.0848
X0.8862Y-0.3351
X0.9847Y-0.4335
X1.0831Y0.0586
X1.1815Y-0.3351
X1.2799Y0.0586
X1.3784Y-0.4335
X1.4768Y-0.3351
X1.7132Y-0.3351
X1.8116Y-0.4335
X1.91Y0.0586
X2.0085Y-0.3351
X2.1069Y0.0586
X2.2053Y-0.4335
X2.3037Y-0.3351
T16
X3.6778Y-0.3095
X3.6778Y-0.5851
X3.892Y-0.3095
X3.892Y-0.5851
T17
X-0.3993Y-2.2202
X-0.3993Y-2.8592
X-0.3993Y-3.3304
X-0.3993Y-3.9694
X-0.3993Y-4.1256
X-0.3993Y-4.7646
X-0.1493Y-2.2202
X-0.1493Y-2.8592
X-0.1493Y-3.3304
X-0.1493Y-3.9694
X-0.1493Y-4.1256
X-0.1493Y-4.7646
X0.1007Y-2.2202
X0.1007Y-2.8592
X0.1007Y-3.3304
X0.1007Y-3.9694
X0.1007Y-4.1256
X0.1007Y-4.7646
X5.4509Y-3.3302
X5.4509Y-3.9692
X5.4509Y-4.1257
X5.4509Y-4.7647
X5.7009Y-3.3302
X5.7009Y-3.9692
X5.7009Y-4.1257
X5.7009Y-4.7647
X5.9509Y-3.3302
X5.9509Y-3.9692
X5.9509Y-4.1257
X5.9509Y-4.7647
T18
X4.1009Y-0.0732
X4.7409Y-0.0732
T19
X4.2759Y-1.365
T20
X2.9986Y-0.1279
X3.471Y-0.1279
T21
X4.1709Y0.0618
X4.6709Y0.0618
T22
X-0.4724Y-5.2559
X0.Y0.
X2.7756Y0.
X2.7756Y-5.256
X5.5516Y-0.0006
X6.0236Y-5.256
T23
X2.4865Y-3.087
T11
X4.9728Y-0.1068G85X4.9728Y-0.1856
G05
X5.1972Y-0.0281G85X5.1184Y-0.0281
G05
X5.207Y-0.2644G85X5.1086Y-0.2644
G05
T0
M30
