G04 #@! TF.FileFunction,Soldermask,Bot*
%FSLAX46Y46*%
G04 Gerber Fmt 4.6, Leading zero omitted, Abs format (unit mm)*
G04 Created by KiCad (PCBNEW (2015-05-04 BZR 5641)-product) date Fri 08 May 2015 12:37:36 PM CEST*
%MOMM*%
G01*
G04 APERTURE LIST*
%ADD10C,0.100000*%
%ADD11R,1.400000X1.400000*%
%ADD12C,1.400000*%
%ADD13C,1.720000*%
%ADD14C,1.950000*%
%ADD15R,1.827200X1.827200*%
%ADD16O,1.827200X1.827200*%
%ADD17R,1.827200X2.132000*%
%ADD18O,1.827200X2.132000*%
%ADD19C,2.200000*%
%ADD20C,1.850000*%
%ADD21C,1.700000*%
%ADD22C,1.200000*%
%ADD23C,2.500000*%
%ADD24C,2.400000*%
%ADD25C,2.100000*%
%ADD26C,1.601140*%
%ADD27C,3.400000*%
%ADD28C,3.100000*%
%ADD29R,4.100000X4.100000*%
%ADD30R,3.600000X3.600000*%
%ADD31C,1.624000*%
%ADD32C,2.800020*%
%ADD33R,3.000000X3.000000*%
%ADD34C,3.000000*%
%ADD35C,1.600000*%
%ADD36R,2.098980X2.098980*%
G04 APERTURE END LIST*
D10*
D11*
X224028000Y-41402000D03*
D12*
X224028000Y-46402000D03*
D11*
X224028000Y-57708800D03*
D12*
X224028000Y-52708800D03*
D11*
X142036800Y-110134400D03*
D12*
X140036800Y-110134400D03*
D11*
X134162800Y-110134400D03*
D12*
X136162800Y-110134400D03*
D11*
X199115680Y-68646040D03*
D12*
X201115680Y-68646040D03*
D11*
X201422000Y-87172800D03*
D12*
X203422000Y-87172800D03*
D11*
X211175600Y-87172800D03*
D12*
X209175600Y-87172800D03*
D11*
X201625200Y-48260000D03*
D12*
X199625200Y-48260000D03*
D13*
X171701460Y-31589980D03*
X171701460Y-33589980D03*
X171701460Y-35589980D03*
D14*
X174421460Y-30859980D03*
D13*
X171701460Y-37589980D03*
D14*
X174421460Y-37859980D03*
X168981460Y-30859980D03*
X168981460Y-37859980D03*
D15*
X83312000Y-67157600D03*
D16*
X83312000Y-64617600D03*
X85852000Y-67157600D03*
X85852000Y-64617600D03*
X88392000Y-67157600D03*
X88392000Y-64617600D03*
X90932000Y-67157600D03*
X90932000Y-64617600D03*
X93472000Y-67157600D03*
X93472000Y-64617600D03*
X96012000Y-67157600D03*
X96012000Y-64617600D03*
X98552000Y-67157600D03*
X98552000Y-64617600D03*
X101092000Y-67157600D03*
X101092000Y-64617600D03*
X103632000Y-67157600D03*
X103632000Y-64617600D03*
X106172000Y-67157600D03*
X106172000Y-64617600D03*
D17*
X150672800Y-83566000D03*
D18*
X148132800Y-83566000D03*
X145592800Y-83566000D03*
X143052800Y-83566000D03*
X140512800Y-83566000D03*
X137972800Y-83566000D03*
X135432800Y-83566000D03*
X132892800Y-83566000D03*
X130352800Y-83566000D03*
X127812800Y-83566000D03*
D17*
X89662000Y-57861200D03*
D18*
X92202000Y-57861200D03*
X94742000Y-57861200D03*
D19*
X90433440Y-25212840D03*
D20*
X89173440Y-22722840D03*
X84673440Y-22722840D03*
D19*
X83423440Y-25212840D03*
D21*
X185342800Y-63500000D03*
D22*
X118542800Y-63500000D03*
D23*
X98078260Y-26569660D03*
D24*
X110578260Y-34069660D03*
D25*
X103078260Y-21569660D03*
D24*
X113078260Y-31569660D03*
X105578260Y-31569660D03*
X98078260Y-31569660D03*
X100578260Y-34069660D03*
D25*
X108078260Y-21569660D03*
D23*
X113078260Y-26569660D03*
D25*
X195966080Y-25440640D03*
D26*
X180980080Y-31155640D03*
X183266080Y-31155640D03*
X192410080Y-31155640D03*
X194696080Y-31155640D03*
X191394080Y-26329640D03*
X189362080Y-26329640D03*
X187330080Y-26329640D03*
X185298080Y-26329640D03*
X188346080Y-24551640D03*
X186314080Y-24551640D03*
X190378080Y-24551640D03*
X184282080Y-24551640D03*
D27*
X181488080Y-22011640D03*
X194188080Y-22011640D03*
D25*
X179710080Y-25440640D03*
D23*
X120082280Y-26572200D03*
D24*
X132582280Y-34072200D03*
D25*
X125082280Y-21572200D03*
D24*
X135082280Y-31572200D03*
X127582280Y-31572200D03*
X120082280Y-31572200D03*
X122582280Y-34072200D03*
D25*
X130082280Y-21572200D03*
D23*
X135082280Y-26572200D03*
D28*
X77647800Y-79464500D03*
X83997800Y-79464500D03*
X71297800Y-79464500D03*
X77647800Y-95694500D03*
X83997800Y-95694500D03*
X71297800Y-95694500D03*
X214541100Y-123900600D03*
X208191100Y-123900600D03*
X220891100Y-123900600D03*
X214541100Y-107670600D03*
X208191100Y-107670600D03*
X220891100Y-107670600D03*
X214541100Y-144093600D03*
X208191100Y-144093600D03*
X220891100Y-144093600D03*
X214541100Y-127863600D03*
X208191100Y-127863600D03*
X220891100Y-127863600D03*
X77647800Y-107666120D03*
X83997800Y-107666120D03*
X71297800Y-107666120D03*
X77647800Y-123896120D03*
X83997800Y-123896120D03*
X71297800Y-123896120D03*
X77647800Y-127866740D03*
X83997800Y-127866740D03*
X71297800Y-127866740D03*
X77647800Y-144096740D03*
X83997800Y-144096740D03*
X71297800Y-144096740D03*
D29*
X206580740Y-32773620D03*
D30*
X206580740Y-26771080D03*
X201880740Y-29771080D03*
D31*
X158991300Y-30880320D03*
X156451300Y-30880320D03*
X156451300Y-28881340D03*
X158991300Y-28881340D03*
D32*
X163720780Y-26181320D03*
X151721820Y-26181320D03*
D33*
X209133294Y-64035794D03*
D34*
X213093294Y-64035794D03*
D35*
X93472000Y-144526000D03*
X96672000Y-144526000D03*
X96672000Y-141326000D03*
X96672000Y-139126000D03*
X96672000Y-136926000D03*
X93472000Y-141326000D03*
X93472000Y-139126000D03*
X93472000Y-136926000D03*
X93472000Y-124206000D03*
X96672000Y-124206000D03*
X96672000Y-121006000D03*
X96672000Y-118806000D03*
X96672000Y-116606000D03*
X93472000Y-121006000D03*
X93472000Y-118806000D03*
X93472000Y-116606000D03*
D36*
X210400900Y-26797000D03*
X215480900Y-26797000D03*
M02*
