M48
;DRILL file {Pcbnew (2014-03-19 BZR 4756)-product} date Ter 03 Jun 2014 10:50:25 BRT
;FORMAT={-:-/ absolute / inch / decimal}
FMAT,2
INCH,TZ
T1C0.008
T2C0.012
T3C0.018
T4C0.024
T5C0.024
T6C0.025
T7C0.028
T8C0.030
T9C0.031
T10C0.032
T11C0.035
T12C0.036
T13C0.039
T14C0.040
T15C0.047
T16C0.051
T17C0.053
T18C0.059
T19C0.063
T20C0.071
T21C0.087
T22C0.128
T23C0.138
%
G90
G05
M72
T1
X2.9534Y-4.0996
X2.959Y-4.0554
X3.011Y-4.0112
X3.0148Y-3.501
X3.0541Y-3.501
X3.0935Y-3.501
X3.1329Y-3.501
X3.1722Y-3.501
X3.2116Y-3.501
X3.251Y-3.501
X3.2904Y-3.501
X3.3297Y-3.501
X3.6073Y-3.9972
X3.6386Y-4.0285
X3.7401Y-4.7396
X3.7401Y-4.7839
T2
X0.8337Y-4.5335
X0.936Y-4.5443
X1.3543Y-3.4547
X2.0118Y-4.3189
X2.0787Y-4.3189
X2.1794Y-3.8185
X2.1941Y-3.9051
X2.1941Y-3.9382
X2.3657Y-3.8185
X2.4091Y-3.9051
X2.4091Y-3.9382
X2.6709Y-3.9051
X2.6709Y-3.9382
X2.7665Y-3.9051
X2.7665Y-3.9382
X2.8114Y-3.5587
X2.8114Y-3.6063
T3
X3.2098Y-0.7874
X3.2098Y-0.8268
X3.2098Y-2.9134
X3.2098Y-2.9528
X3.2492Y-0.7874
X3.2492Y-0.8268
X3.2492Y-2.9134
X3.2492Y-2.9528
X3.2886Y-0.7874
X3.2886Y-0.8268
X3.2886Y-2.9134
X3.2886Y-2.9528
X3.328Y-0.7874
X3.328Y-0.8268
X3.328Y-2.9134
X3.328Y-2.9528
X3.3673Y-0.7874
X3.3673Y-0.8268
X3.3673Y-2.9134
X3.3673Y-2.9528
X3.4067Y-0.7874
X3.4067Y-0.8268
X3.4067Y-2.9134
X3.4067Y-2.9528
X3.4461Y-0.7874
X3.4461Y-0.8268
X3.4461Y-2.9134
X3.4461Y-2.9528
X3.4854Y-0.7874
X3.4854Y-0.8268
X3.4854Y-2.9134
X3.4854Y-2.9528
X3.5248Y-0.7874
X3.5248Y-0.8268
X3.5248Y-2.9134
X3.5248Y-2.9528
X3.5642Y-0.7874
X3.5642Y-0.8268
X3.5642Y-2.9134
X3.5642Y-2.9528
X3.6035Y-0.7874
X3.6035Y-0.8268
X3.6035Y-2.9134
X3.6035Y-2.9528
X3.6429Y-0.7874
X3.6429Y-0.8268
X3.6429Y-2.9134
X3.6429Y-2.9528
X3.6823Y-0.7874
X3.6823Y-0.8268
X3.6823Y-2.9134
X3.6823Y-2.9528
X3.7217Y-0.7874
X3.7217Y-0.8268
X3.7217Y-2.9134
X3.7217Y-2.9528
X3.761Y-0.7874
X3.761Y-0.8268
X3.761Y-2.9134
X3.761Y-2.9528
X3.8004Y-0.7874
X3.8004Y-0.8268
X3.8004Y-2.9134
X3.8004Y-2.9528
X3.8398Y-0.7874
X3.8398Y-0.8268
X3.8398Y-2.9134
X3.8398Y-2.9528
X3.8791Y-0.7874
X3.8791Y-0.8268
X3.8791Y-2.9134
X3.8791Y-2.9528
X3.9185Y-0.7874
X3.9185Y-0.8268
X3.9185Y-2.9134
X3.9185Y-2.9528
X3.9579Y-0.7874
X3.9579Y-0.8268
X3.9579Y-2.9134
X3.9579Y-2.9528
X3.9972Y-0.7874
X3.9972Y-0.8268
X3.9972Y-2.9134
X3.9972Y-2.9528
X4.0366Y-0.7874
X4.0366Y-0.8268
X4.0366Y-2.9134
X4.0366Y-2.9528
X4.076Y-0.7874
X4.076Y-0.8268
X4.076Y-2.9134
X4.076Y-2.9528
X4.1154Y-0.7874
X4.1154Y-0.8268
X4.1154Y-2.9134
X4.1154Y-2.9528
X4.1547Y-0.7874
X4.1547Y-0.8268
X4.1547Y-2.9134
X4.1547Y-2.9528
X4.1941Y-0.7874
X4.1941Y-0.8268
X4.1941Y-2.9134
X4.1941Y-2.9528
X4.2335Y-0.7874
X4.2335Y-0.8268
X4.2335Y-2.9134
X4.2335Y-2.9528
X4.2728Y-0.7874
X4.2728Y-0.8268
X4.2728Y-2.9134
X4.2728Y-2.9528
X4.3122Y-0.7874
X4.3122Y-0.8268
X4.3122Y-2.9134
X4.3122Y-2.9528
X4.3516Y-0.7874
X4.3516Y-0.8268
X4.3516Y-2.9134
X4.3516Y-2.9528
X4.4303Y-0.7874
X4.4303Y-0.8268
X4.4303Y-2.9134
X4.4303Y-2.9528
X4.4697Y-0.7874
X4.4697Y-0.8268
X4.4697Y-2.9134
X4.4697Y-2.9528
X4.5091Y-0.7874
X4.5091Y-0.8268
X4.5091Y-2.9134
X4.5091Y-2.9528
X4.5484Y-0.7874
X4.5484Y-0.8268
X4.5484Y-2.9134
X4.5484Y-2.9528
X4.5878Y-0.7874
X4.5878Y-0.8268
X4.5878Y-2.9134
X4.5878Y-2.9528
X4.6272Y-0.7874
X4.6272Y-0.8268
X4.6272Y-2.9134
X4.6272Y-2.9528
X4.6665Y-0.7874
X4.6665Y-0.8268
X4.6665Y-2.9134
X4.6665Y-2.9528
X4.7059Y-0.7874
X4.7059Y-0.8268
X4.7059Y-2.9134
X4.7059Y-2.9528
X4.7453Y-0.7874
X4.7453Y-0.8268
X4.7453Y-2.9134
X4.7453Y-2.9528
X4.7846Y-0.7874
X4.7846Y-0.8268
X4.7846Y-2.9134
X4.7846Y-2.9528
X4.824Y-0.7874
X4.824Y-0.8268
X4.824Y-2.9134
X4.824Y-2.9528
X4.8634Y-0.7874
X4.8634Y-0.8268
X4.8634Y-2.9134
X4.8634Y-2.9528
X4.9028Y-0.7874
X4.9028Y-0.8268
X4.9028Y-2.9134
X4.9028Y-2.9528
X4.9421Y-0.7874
X4.9421Y-0.8268
X4.9421Y-2.9134
X4.9421Y-2.9528
X4.9815Y-0.7874
X4.9815Y-0.8268
X4.9815Y-2.9134
X4.9815Y-2.9528
X5.0209Y-0.7874
X5.0209Y-0.8268
X5.0209Y-2.9134
X5.0209Y-2.9528
X5.0602Y-0.7874
X5.0602Y-0.8268
X5.0602Y-2.9134
X5.0602Y-2.9528
X5.0996Y-0.7874
X5.0996Y-0.8268
X5.0996Y-2.9134
X5.0996Y-2.9528
X5.139Y-0.7874
X5.139Y-0.8268
X5.139Y-2.9134
X5.139Y-2.9528
X5.1783Y-0.7874
X5.1783Y-0.8268
X5.1783Y-2.9134
X5.1783Y-2.9528
X5.2177Y-0.7874
X5.2177Y-0.8268
X5.2177Y-2.9134
X5.2177Y-2.9528
X5.2571Y-0.7874
X5.2571Y-0.8268
X5.2571Y-2.9134
X5.2571Y-2.9528
X5.2965Y-0.7874
X5.2965Y-0.8268
X5.2965Y-2.9134
X5.2965Y-2.9528
X5.3358Y-0.7874
X5.3358Y-0.8268
X5.3358Y-2.9134
X5.3358Y-2.9528
X5.3752Y-0.7874
X5.3752Y-0.8268
X5.3752Y-2.9134
X5.3752Y-2.9528
X5.4146Y-0.7874
X5.4146Y-0.8268
X5.4146Y-2.9134
X5.4146Y-2.9528
X5.4539Y-0.7874
X5.4539Y-0.8268
X5.4539Y-2.9134
X5.4539Y-2.9528
X5.4933Y-0.7874
X5.4933Y-0.8268
X5.4933Y-2.9134
X5.4933Y-2.9528
X5.5327Y-0.7874
X5.5327Y-0.8268
X5.5327Y-2.9134
X5.5327Y-2.9528
X5.572Y-0.7874
X5.572Y-0.8268
X5.572Y-2.9134
X5.572Y-2.9528
T4
X3.8102Y-3.75
X3.8122Y-4.5256
X3.8602Y-3.75
X3.8622Y-4.5256
X3.9102Y-3.75
X3.9122Y-4.5256
X3.9685Y-4.2236
X3.9685Y-4.2736
X3.9685Y-4.3236
X3.9705Y-5.0189
X3.9705Y-5.0689
X3.9705Y-5.1189
X4.1673Y-4.2236
X4.1673Y-4.2736
X4.1673Y-4.3236
X4.1693Y-5.0189
X4.1693Y-5.0689
X4.1693Y-5.1189
X4.7953Y-3.8654
X4.7953Y-3.9154
X4.7953Y-3.9654
X4.7972Y-4.6606
X4.7972Y-4.7106
X4.7972Y-4.7606
X4.9961Y-3.8654
X4.9961Y-3.9154
X4.9961Y-3.9654
X4.998Y-4.6606
X4.998Y-4.7106
X4.998Y-4.7606
T5
X3.6659Y-3.2502
X3.6659Y-3.5337
X3.9848Y-3.2502
X3.9848Y-3.5337
X4.3037Y-3.2502
X4.3037Y-3.5337
X4.6226Y-3.2502
X4.6226Y-3.5337
X4.9425Y-3.2502
X4.9425Y-3.5337
X5.2614Y-3.2502
X5.2614Y-3.5337
X5.5803Y-3.2502
X5.5803Y-3.5337
X5.8992Y-3.2502
X5.8992Y-3.5337
T6
X1.3878Y-3.372
X1.3976Y-0.6142
X1.5118Y-0.5945
X1.5492Y-0.9488
X1.6073Y-4.2815
X1.6083Y-2.8563
X1.6083Y-2.9744
X1.6362Y-3.0846
X1.6752Y-0.813
X2.0138Y-0.6909
X2.0217Y-4.4921
X2.0492Y-0.5945
X2.0925Y-2.376
X2.811Y-3.2913
X2.8406Y-3.7205
X2.8898Y-0.998
X3.0967Y-3.7994
X3.1516Y-3.6496
X3.25Y-0.6398
X3.7205Y-3.1909
X3.7858Y-3.3138
X3.8644Y-3.3138
X4.0394Y-3.1909
X4.1053Y-3.3138
X4.1835Y-3.3138
X4.3543Y-0.2087
X4.3583Y-3.1909
X4.4154Y-4.0315
X4.4173Y-4.8268
X4.4242Y-3.3138
X4.5024Y-3.3138
X4.5197Y-3.0571
X4.5858Y-0.0768
X4.6772Y-3.1909
X4.7431Y-3.3138
X4.8213Y-3.3138
X4.9075Y-0.4705
X4.9961Y-3.1909
X5.063Y-3.3138
X5.1413Y-3.3138
X5.315Y-3.1909
X5.3819Y-3.3138
X5.4602Y-3.3138
X5.5632Y-0.3079
X5.6339Y-3.1909
X5.688Y-0.8705
X5.7008Y-3.3138
X5.7791Y-3.3138
X5.7953Y-3.0571
X5.8652Y-0.5531
X5.9528Y-3.1909
X5.9872Y-0.876
X6.0197Y-3.3138
X6.098Y-3.3138
X6.2018Y-0.7933
X6.2018Y-0.9232
T7
X1.0571Y-3.1535
X1.0571Y-3.4094
X1.1358Y-3.1535
X1.1358Y-3.4094
X1.3012Y-0.4213
X1.3012Y-0.5
X1.3307Y-4.3484
X1.3307Y-5.1831
X1.3406Y-2.9154
X1.3543Y-3.5374
X1.3543Y-3.6161
X1.4094Y-1.3819
X1.4094Y-4.3484
X1.4094Y-5.1831
X1.4193Y-2.9154
X1.4882Y-1.3819
X1.5098Y-3.2618
X1.5098Y-3.4803
X1.5886Y-3.2618
X1.5886Y-3.4803
X1.8917Y-1.3425
X1.8917Y-1.4213
X1.8917Y-2.189
X1.8917Y-2.2677
X2.Y-1.8337
X2.0354Y-3.2984
X2.0354Y-3.3772
X2.0709Y-2.4724
X2.0709Y-2.5512
X2.0787Y-1.8337
X2.1909Y-4.9587
X2.1909Y-5.0374
X2.2894Y-2.4724
X2.2894Y-2.5512
X2.4173Y-4.1358
X2.4173Y-4.2146
X2.498Y-4.4823
X2.5768Y-4.4823
X2.7224Y-4.4823
X2.7815Y-5.1063
X2.7815Y-5.185
X2.8012Y-4.4823
X2.9252Y-3.3346
X2.9783Y-0.8465
X2.9783Y-1.1496
X3.0039Y-3.3346
X3.0571Y-0.8465
X3.0571Y-1.1496
X3.185Y-3.7736
X3.2638Y-3.7736
X3.3031Y-4.1437
X3.3031Y-4.3622
X3.3819Y-4.1437
X3.3819Y-4.3622
X3.7815Y-3.9862
X3.7835Y-4.7618
X3.8602Y-3.9862
X3.8622Y-4.7618
X5.1752Y-3.8366
X5.1752Y-3.9154
X5.1772Y-4.6319
X5.1772Y-4.7106
X5.3976Y-0.2451
X5.3976Y-0.3238
X5.4006Y-0.4626
X5.4006Y-0.5413
X5.9498Y-1.0295
X5.9498Y-1.1083
X6.0738Y-0.6476
X6.1526Y-0.6476
T8
X0.1673Y-1.3228
X0.561Y-1.3228
X0.5886Y-0.6811
X0.8386Y-2.1516
X0.8386Y-2.5453
X0.9823Y-0.6811
X1.0043Y-4.0492
X1.0043Y-4.2618
X1.0043Y-4.8839
X1.0043Y-5.0965
X1.2043Y-4.0492
X1.2043Y-4.1752
X1.2043Y-4.3484
X1.2043Y-4.8839
X1.2043Y-5.0098
X1.2043Y-5.1831
X1.2815Y-3.0925
X1.4602Y-4.0331
X1.4783Y-3.0925
X1.6142Y-4.7815
X1.6571Y-4.0331
X1.7146Y-4.4724
X1.7146Y-4.6693
X1.7697Y-3.8425
X1.7697Y-4.0394
X1.811Y-4.7815
X1.837Y-4.8933
X1.837Y-5.0902
X1.8386Y-3.1693
X1.8821Y-3.9148
X2.0354Y-3.1693
X2.0789Y-3.9148
X2.4396Y-3.4201
X2.4396Y-3.6169
X2.5061Y-4.012
X2.5581Y-4.6516
X2.5581Y-4.8484
X2.5848Y-4.1242
X2.5848Y-4.3211
X2.6762Y-4.6516
X2.6762Y-4.8484
X2.703Y-4.012
X2.703Y-4.1242
X2.703Y-4.3211
X2.8189Y-3.1693
X2.8211Y-4.1242
X2.8211Y-4.3211
X2.939Y-4.1795
X2.939Y-4.3764
X3.0157Y-3.1693
X3.0167Y-4.7205
X3.0571Y-4.1795
X3.0571Y-4.3764
X3.0817Y-4.8327
X3.0817Y-5.0295
X3.1339Y-3.9429
X3.1754Y-4.1795
X3.1754Y-4.3764
X3.1998Y-4.8327
X3.1998Y-5.0295
X3.2136Y-4.7205
X3.3169Y-4.5453
X3.3169Y-4.7421
X3.3307Y-3.9429
X3.5463Y-4.8878
X3.5463Y-5.0846
X3.6496Y-3.9862
X3.6496Y-4.1831
X3.7835Y-4.9213
X3.7835Y-5.1181
X4.0925Y-3.7795
X4.0945Y-4.5748
X4.2894Y-3.7795
X4.2913Y-4.5748
X4.4213Y-3.7421
X4.4232Y-4.5374
X4.4311Y-4.0925
X4.4331Y-4.8878
X4.6181Y-3.7421
X4.6201Y-4.5374
X4.628Y-4.0925
X4.6299Y-4.8878
X5.2854Y-4.3917
X5.2874Y-5.187
X5.4331Y-3.9469
X5.4331Y-4.1437
X5.435Y-4.7421
X5.435Y-4.939
X5.4823Y-4.3917
X5.4843Y-5.187
X6.2323Y-3.2935
X6.2323Y-3.4904
T9
X0.7618Y-1.3228
X0.8976Y-2.9862
X0.8976Y-3.5768
X0.9587Y-1.3228
X1.2047Y-2.9862
X1.2047Y-3.5768
X1.3094Y-4.5264
X1.3094Y-4.6406
X1.3307Y-3.8976
X1.3307Y-4.2047
X1.3307Y-4.7343
X1.3307Y-5.0413
X1.4276Y-4.9346
X1.4276Y-5.0488
X1.5016Y-3.6236
X1.5016Y-3.9307
X1.6157Y-3.6236
X1.6157Y-3.9307
X1.6165Y-4.5264
X1.6165Y-4.6406
X1.7346Y-4.9346
X1.7346Y-5.0488
X1.8829Y-3.5049
X1.8829Y-3.812
X1.997Y-3.5049
X1.997Y-3.812
X2.2854Y-4.5433
X2.2854Y-4.8504
X2.3327Y-5.0728
X2.3327Y-5.187
X2.3907Y-4.9587
X2.3996Y-4.5413
X2.3996Y-4.8484
X2.6398Y-5.0728
X2.6398Y-5.187
X2.6978Y-4.9587
X2.9114Y-4.4902
X2.9114Y-4.6043
X2.9301Y-5.1398
X3.2185Y-4.4902
X3.2185Y-4.6043
X3.2372Y-5.1398
X3.3159Y-4.8327
X3.3159Y-5.1398
X3.4301Y-4.8327
X3.4301Y-5.1398
X3.7683Y-3.2384
X3.7683Y-3.5455
X3.8825Y-3.2384
X3.8825Y-3.5455
X3.9843Y-3.8957
X3.9843Y-4.0098
X3.9862Y-4.6909
X3.9862Y-4.8051
X4.0872Y-3.2384
X4.0872Y-3.5455
X4.2014Y-3.2384
X4.2014Y-3.5455
X4.2913Y-3.8957
X4.2913Y-4.0098
X4.2933Y-4.6909
X4.2933Y-4.8051
X4.2953Y-4.0846
X4.2953Y-4.3917
X4.2972Y-4.8799
X4.2972Y-5.187
X4.3917Y-4.2087
X4.3917Y-4.3228
X4.3937Y-5.0039
X4.3937Y-5.1181
X4.4061Y-3.2384
X4.4061Y-3.5455
X4.5203Y-3.2384
X4.5203Y-3.5455
X4.6988Y-4.2087
X4.6988Y-4.3228
X4.7008Y-5.0039
X4.7008Y-5.1181
X4.725Y-3.2384
X4.725Y-3.5455
X4.7953Y-4.0846
X4.7953Y-4.3917
X4.7972Y-4.8799
X4.7972Y-5.187
X4.8392Y-3.2384
X4.8392Y-3.5455
X4.9961Y-4.0846
X4.9961Y-4.3917
X4.998Y-4.8799
X4.998Y-5.187
X5.0449Y-3.2384
X5.0449Y-3.5455
X5.1591Y-3.2384
X5.1591Y-3.5455
X5.1752Y-4.0846
X5.1752Y-4.3917
X5.1772Y-4.8799
X5.1772Y-5.187
X5.3169Y-3.8366
X5.3169Y-3.9469
X5.3169Y-4.2539
X5.3189Y-4.6319
X5.3189Y-4.7421
X5.3189Y-5.0492
X5.3638Y-3.2384
X5.3638Y-3.5455
X5.478Y-3.2384
X5.478Y-3.5455
X5.624Y-3.8366
X5.626Y-4.6319
X5.6827Y-3.2384
X5.6827Y-3.5455
X5.7969Y-3.2384
X5.7969Y-3.5455
X6.0016Y-3.2384
X6.0016Y-3.5455
X6.1157Y-3.2384
X6.1157Y-3.5455
T10
X0.2736Y-0.9486
X0.2736Y-1.0986
X2.3502Y-2.9744
X2.5002Y-2.9744
X3.5591Y-3.6593
X3.5591Y-3.8093
X3.5591Y-4.486
X3.5591Y-4.636
T11
X1.6201Y-0.2091
X1.6602Y-0.2791
X1.7004Y-0.2091
X1.7406Y-0.2791
X1.7807Y-0.2091
X1.8209Y-0.2791
X1.861Y-0.2091
X1.9012Y-0.2791
X4.876Y-0.1919
X5.0492Y-0.1919
T12
X5.7589Y-0.4551
X5.7589Y-0.5339
X5.7589Y-0.6126
X5.7589Y-0.6913
T13
X0.2028Y-2.1516
X0.2858Y-0.6843
X0.4016Y-0.6831
X0.498Y-2.1516
X1.1358Y-2.1516
X1.4311Y-2.1516
T14
X2.887Y-1.7242
X2.887Y-1.8242
X2.887Y-1.9242
X2.887Y-2.0242
X2.887Y-2.1242
X2.887Y-2.2242
X2.887Y-2.3242
X2.887Y-2.4242
X2.887Y-2.5242
X2.887Y-2.6242
X2.987Y-1.7242
X2.987Y-1.8242
X2.987Y-1.9242
X2.987Y-2.0242
X2.987Y-2.1242
X2.987Y-2.2242
X2.987Y-2.3242
X2.987Y-2.4242
X2.987Y-2.5242
X2.987Y-2.6242
T15
X0.6811Y-1.6791
X0.6811Y-1.876
X0.8386Y-1.6791
X0.8386Y-1.876
T16
X2.2776Y-0.4528
X2.376Y-0.0591
X2.376Y-0.5512
X2.5728Y-0.4528
X2.7697Y-0.0591
X2.7697Y-0.5512
X2.8681Y-0.4528
X3.6358Y-0.4528
X3.7343Y-0.0591
X3.7343Y-0.5512
X3.9311Y-0.4528
X4.128Y-0.0591
X4.128Y-0.5512
X4.2264Y-0.4528
T17
X5.6518Y-0.4264
X5.6518Y-0.702
X5.8659Y-0.4264
X5.8659Y-0.702
T18
X0.1638Y-2.9624
X0.1638Y-3.6014
X0.1638Y-3.797
X0.1638Y-4.436
X0.1638Y-4.6317
X0.1638Y-5.2707
X0.4138Y-2.9624
X0.4138Y-3.6014
X0.4138Y-3.797
X0.4138Y-4.436
X0.4138Y-4.6317
X0.4138Y-5.2707
X0.6638Y-2.9624
X0.6638Y-3.6014
X0.6638Y-3.797
X0.6638Y-4.436
X0.6638Y-4.6317
X0.6638Y-5.2707
X5.8402Y-3.797
X5.8402Y-4.436
X5.8402Y-4.6317
X5.8402Y-5.2707
X6.0902Y-3.797
X6.0902Y-4.436
X6.0902Y-4.6317
X6.0902Y-5.2707
X6.3402Y-3.797
X6.3402Y-4.436
X6.3402Y-4.6317
X6.3402Y-5.2707
T19
X1.4406Y-0.2441
X2.0807Y-0.2441
T20
X2.4858Y-2.4724
X2.6417Y-2.4724
T21
X0.1457Y-0.687
T22
X1.5106Y-0.1091
X2.0106Y-0.1091
T23
X0.1988Y-0.1606
X0.1988Y-0.3575
X0.4941Y-0.1606
X0.4941Y-0.3575
X3.1043Y-0.1606
X3.1043Y-0.3575
X3.3996Y-0.1606
X3.3996Y-0.3575
X6.0098Y-0.1606
X6.0098Y-0.3575
X6.3051Y-0.1606
X6.3051Y-0.3575
T15
X0.7992Y-0.4272G85X0.7992Y-0.3366
G05
X0.939Y-0.2638G85X1.0295Y-0.2638
G05
X0.9291Y-0.5G85X1.0394Y-0.5
G05
T0
M30
