%FSLAX34Y34*%
G04 Gerber Fmt 3.4, Leading zero omitted, Abs format*
G04 (created by PCBNEW (2014-03-19 BZR 4756)-product) date Ter 03 Jun 2014 10:49:18 BRT*
%MOIN*%
G01*
G70*
G90*
G04 APERTURE LIST*
%ADD10C,0.005906*%
%ADD11R,0.079000X0.071000*%
%ADD12C,0.053150*%
%ADD13R,0.055118X0.055118*%
%ADD14C,0.055118*%
%ADD15R,0.039400X0.031500*%
%ADD16C,0.059055*%
%ADD17R,0.059055X0.011024*%
%ADD18R,0.011024X0.059055*%
%ADD19C,0.018000*%
%ADD20R,0.062992X0.062992*%
%ADD21C,0.062992*%
%ADD22R,0.025000X0.045000*%
%ADD23R,0.045000X0.025000*%
%ADD24R,0.055100X0.023600*%
%ADD25R,0.027559X0.019685*%
%ADD26O,0.059100X0.035400*%
%ADD27O,0.035400X0.059100*%
%ADD28C,0.026000*%
%ADD29R,0.053150X0.053150*%
%ADD30R,0.078700X0.078700*%
%ADD31C,0.078700*%
%ADD32R,0.086614X0.086614*%
%ADD33C,0.086614*%
%ADD34R,0.090551X0.090551*%
%ADD35C,0.090551*%
%ADD36R,0.059055X0.102362*%
%ADD37R,0.019685X0.027559*%
%ADD38R,0.023622X0.035433*%
%ADD39R,0.023622X0.019685*%
%ADD40R,0.098425X0.090551*%
%ADD41R,0.090551X0.098425*%
%ADD42R,0.027000X0.022000*%
%ADD43R,0.033465X0.033465*%
%ADD44R,0.035000X0.055000*%
%ADD45R,0.055000X0.035000*%
%ADD46C,0.118110*%
%ADD47C,0.063780*%
%ADD48C,0.072835*%
%ADD49R,0.019685X0.088583*%
%ADD50R,0.078740X0.098425*%
%ADD51C,0.082677*%
%ADD52C,0.128000*%
%ADD53C,0.078740*%
%ADD54R,0.181102X0.090551*%
%ADD55R,0.200787X0.090551*%
%ADD56R,0.090551X0.181102*%
%ADD57C,0.051181*%
%ADD58R,0.051181X0.051181*%
%ADD59R,0.013386X0.015748*%
%ADD60R,0.068000X0.068000*%
%ADD61O,0.068000X0.068000*%
%ADD62R,0.031500X0.039400*%
%ADD63R,0.062992X0.086614*%
%ADD64R,0.098425X0.098425*%
%ADD65R,0.244000X0.228000*%
%ADD66R,0.118000X0.063000*%
%ADD67R,0.027600X0.039400*%
%ADD68R,0.047244X0.055118*%
%ADD69R,0.011811X0.043307*%
%ADD70R,0.078740X0.212598*%
%ADD71R,0.110000X0.110000*%
%ADD72C,0.110000*%
%ADD73C,0.177165*%
%ADD74C,0.035000*%
%ADD75C,0.020000*%
%ADD76C,0.020000*%
%ADD77C,0.025000*%
%ADD78C,0.100000*%
%ADD79C,0.060000*%
%ADD80C,0.075000*%
%ADD81C,0.012000*%
%ADD82C,0.120000*%
%ADD83C,0.040000*%
%ADD84C,0.030000*%
%ADD85C,0.050000*%
%ADD86C,0.010000*%
%ADD87C,0.005000*%
%ADD88C,0.008000*%
G04 APERTURE END LIST*
G54D10*
G54D11*
X25484Y-34188D03*
X25484Y-36188D03*
X27054Y-36188D03*
X27054Y-34188D03*
G54D12*
X24395Y-36169D03*
X24395Y-34200D03*
G54D13*
X49425Y-32501D03*
G54D14*
X49425Y-35336D03*
G54D13*
X55803Y-32501D03*
G54D14*
X55803Y-35336D03*
G54D13*
X52614Y-32501D03*
G54D14*
X52614Y-35336D03*
G54D13*
X58992Y-32501D03*
G54D14*
X58992Y-35336D03*
G54D15*
X50448Y-31537D03*
X49582Y-31912D03*
X49582Y-31162D03*
X56826Y-31537D03*
X55960Y-31912D03*
X55960Y-31162D03*
X53637Y-31537D03*
X52771Y-31912D03*
X52771Y-31162D03*
X60015Y-31537D03*
X59149Y-31912D03*
X59149Y-31162D03*
G54D16*
X50448Y-32383D03*
X50448Y-35454D03*
X56826Y-32383D03*
X56826Y-35454D03*
X51590Y-32383D03*
X51590Y-35454D03*
X57968Y-32383D03*
X57968Y-35454D03*
X53637Y-32383D03*
X53637Y-35454D03*
X60015Y-32383D03*
X60015Y-35454D03*
X54779Y-32383D03*
X54779Y-35454D03*
X61157Y-32383D03*
X61157Y-35454D03*
X48391Y-32383D03*
X48391Y-35454D03*
X42013Y-32383D03*
X42013Y-35454D03*
X47250Y-32383D03*
X47250Y-35454D03*
X40872Y-32383D03*
X40872Y-35454D03*
X45202Y-32383D03*
X45202Y-35454D03*
X38824Y-32383D03*
X38824Y-35454D03*
X44061Y-32383D03*
X44061Y-35454D03*
X37683Y-32383D03*
X37683Y-35454D03*
G54D15*
X47249Y-31537D03*
X46383Y-31912D03*
X46383Y-31162D03*
X40871Y-31537D03*
X40005Y-31912D03*
X40005Y-31162D03*
X44060Y-31537D03*
X43194Y-31912D03*
X43194Y-31162D03*
X37683Y-31537D03*
X36817Y-31912D03*
X36817Y-31162D03*
G54D13*
X46226Y-32501D03*
G54D14*
X46226Y-35336D03*
G54D13*
X39848Y-32501D03*
G54D14*
X39848Y-35336D03*
G54D13*
X43037Y-32501D03*
G54D14*
X43037Y-35336D03*
G54D13*
X36659Y-32501D03*
G54D14*
X36659Y-35336D03*
G54D17*
X27187Y-37801D03*
X27187Y-37998D03*
X27187Y-38194D03*
X27187Y-38391D03*
X27187Y-38588D03*
X27187Y-37210D03*
X27187Y-37407D03*
X27187Y-37604D03*
G54D18*
X27718Y-39907D03*
X27915Y-39907D03*
X28112Y-39907D03*
X28309Y-39907D03*
X28505Y-39907D03*
X28702Y-39907D03*
X28899Y-39907D03*
X29096Y-39907D03*
G54D17*
X30415Y-39375D03*
X30415Y-39179D03*
X30415Y-38982D03*
X30415Y-38785D03*
X30415Y-38588D03*
X30415Y-38391D03*
X30415Y-38194D03*
X30415Y-37998D03*
G54D18*
X29883Y-36679D03*
X29687Y-36679D03*
X29490Y-36679D03*
X29293Y-36679D03*
X29096Y-36679D03*
X28899Y-36679D03*
X28702Y-36679D03*
X28505Y-36679D03*
G54D17*
X27187Y-38785D03*
X27187Y-38982D03*
X27187Y-39179D03*
X27187Y-39375D03*
G54D18*
X29293Y-39907D03*
X29490Y-39907D03*
X29687Y-39907D03*
X29883Y-39907D03*
G54D17*
X30415Y-37801D03*
X30415Y-37604D03*
X30415Y-37407D03*
X30415Y-37210D03*
G54D18*
X28309Y-36679D03*
X28112Y-36679D03*
X27915Y-36679D03*
X27718Y-36679D03*
G54D19*
X30110Y-40112D03*
X29534Y-40996D03*
X29590Y-40554D03*
G54D12*
X31753Y-43763D03*
X31753Y-41795D03*
G54D20*
X33031Y-41437D03*
G54D21*
X33818Y-41437D03*
G54D12*
X30570Y-43763D03*
X30570Y-41795D03*
G54D20*
X33031Y-43622D03*
G54D21*
X33818Y-43622D03*
G54D12*
X29389Y-43763D03*
X29389Y-41795D03*
G54D20*
X28011Y-44822D03*
G54D21*
X27224Y-44822D03*
G54D12*
X28210Y-43210D03*
X28210Y-41242D03*
G54D20*
X25767Y-44822D03*
G54D21*
X24980Y-44822D03*
G54D12*
X27029Y-43210D03*
X27029Y-41242D03*
X25848Y-43210D03*
X25848Y-41242D03*
X33307Y-39429D03*
X31338Y-39429D03*
G54D22*
X31089Y-36498D03*
X30489Y-36498D03*
G54D20*
X31850Y-37736D03*
G54D21*
X32637Y-37736D03*
G54D23*
X28110Y-34668D03*
X28110Y-35268D03*
G54D20*
X24173Y-41358D03*
G54D21*
X24173Y-42145D03*
G54D12*
X25061Y-40120D03*
X27029Y-40120D03*
G54D22*
X25723Y-37972D03*
X26323Y-37972D03*
G54D24*
X17640Y-41316D03*
X15540Y-41316D03*
X17640Y-41816D03*
X17640Y-42316D03*
X17640Y-42816D03*
X15540Y-41816D03*
X15540Y-42316D03*
X15540Y-42816D03*
X18103Y-46812D03*
X20203Y-46812D03*
X18103Y-46312D03*
X18103Y-45812D03*
X18103Y-45312D03*
X20203Y-46312D03*
X20203Y-45812D03*
X20203Y-45312D03*
G54D16*
X13307Y-42047D03*
X13307Y-38976D03*
X13307Y-50413D03*
X13307Y-47342D03*
X18828Y-35049D03*
X18828Y-38120D03*
X15015Y-36236D03*
X15015Y-39307D03*
X13094Y-46405D03*
X16165Y-46405D03*
X14275Y-50488D03*
X17346Y-50488D03*
X19970Y-35049D03*
X19970Y-38120D03*
X16157Y-36236D03*
X16157Y-39307D03*
X13094Y-45263D03*
X16165Y-45263D03*
X14275Y-49346D03*
X17346Y-49346D03*
G54D20*
X15885Y-32618D03*
G54D21*
X15098Y-32618D03*
G54D20*
X15885Y-34803D03*
G54D21*
X15098Y-34803D03*
G54D20*
X14094Y-43484D03*
G54D21*
X13307Y-43484D03*
G54D20*
X14094Y-51830D03*
G54D21*
X13307Y-51830D03*
G54D12*
X18820Y-39147D03*
X20789Y-39147D03*
X14602Y-40330D03*
X16570Y-40330D03*
X17145Y-46692D03*
X17145Y-44724D03*
X18370Y-50901D03*
X18370Y-48933D03*
X17696Y-38425D03*
X17696Y-40393D03*
X16141Y-47814D03*
X18110Y-47814D03*
G54D24*
X29839Y-47990D03*
X27739Y-47990D03*
X29839Y-48490D03*
X29839Y-48990D03*
X29839Y-49490D03*
X27739Y-48490D03*
X27739Y-48990D03*
X27739Y-49490D03*
G54D16*
X33159Y-51397D03*
X33159Y-48326D03*
X34301Y-51397D03*
X34301Y-48326D03*
X32372Y-51397D03*
X29301Y-51397D03*
X26397Y-50728D03*
X23326Y-50728D03*
X23326Y-51870D03*
X26397Y-51870D03*
X32185Y-44901D03*
X29114Y-44901D03*
X32185Y-46043D03*
X29114Y-46043D03*
X23907Y-49586D03*
X26978Y-49586D03*
X22854Y-48503D03*
X22854Y-45433D03*
X23996Y-45413D03*
X23996Y-48484D03*
G54D12*
X30816Y-50295D03*
X30816Y-48326D03*
X31998Y-50295D03*
X31998Y-48326D03*
X26761Y-48484D03*
X26761Y-46515D03*
X25580Y-48484D03*
X25580Y-46515D03*
X35462Y-48877D03*
X35462Y-50846D03*
G54D20*
X27814Y-51850D03*
G54D21*
X27814Y-51062D03*
G54D12*
X33169Y-47421D03*
X33169Y-45452D03*
X32135Y-47204D03*
X30167Y-47204D03*
G54D20*
X21909Y-50374D03*
G54D21*
X21909Y-49586D03*
G54D12*
X44212Y-37421D03*
X46181Y-37421D03*
X54330Y-39468D03*
X54330Y-41437D03*
G54D20*
X51751Y-39153D03*
G54D21*
X51751Y-38366D03*
G54D12*
X46279Y-40925D03*
X44311Y-40925D03*
X40925Y-37795D03*
X42893Y-37795D03*
G54D20*
X38602Y-39862D03*
G54D21*
X37814Y-39862D03*
G54D12*
X36496Y-41830D03*
X36496Y-39862D03*
G54D25*
X47657Y-37106D03*
X47657Y-37618D03*
X46948Y-37362D03*
G54D26*
X49960Y-39153D03*
X49960Y-38653D03*
X49960Y-39653D03*
X47952Y-39153D03*
X47952Y-38653D03*
X47952Y-39653D03*
X41673Y-42736D03*
X41673Y-42236D03*
X41673Y-43236D03*
X39685Y-42736D03*
X39685Y-42236D03*
X39685Y-43236D03*
G54D27*
X38602Y-37500D03*
X38102Y-37500D03*
X39102Y-37500D03*
G54D16*
X53169Y-38366D03*
X56240Y-38366D03*
X53169Y-39468D03*
X53169Y-42539D03*
X51751Y-43917D03*
X51751Y-40846D03*
X49960Y-43917D03*
X49960Y-40846D03*
X47952Y-43917D03*
X47952Y-40846D03*
X43917Y-43228D03*
X46988Y-43228D03*
X43917Y-42086D03*
X46988Y-42086D03*
X42913Y-40098D03*
X39842Y-40098D03*
X42952Y-40846D03*
X42952Y-43917D03*
X42913Y-38956D03*
X39842Y-38956D03*
G54D24*
X46246Y-38423D03*
X44146Y-38423D03*
X46246Y-38923D03*
X46246Y-39423D03*
X46246Y-39923D03*
X44146Y-38923D03*
X44146Y-39423D03*
X44146Y-39923D03*
X46266Y-46375D03*
X44166Y-46375D03*
X46266Y-46875D03*
X46266Y-47375D03*
X46266Y-47875D03*
X44166Y-46875D03*
X44166Y-47375D03*
X44166Y-47875D03*
G54D16*
X42933Y-46909D03*
X39862Y-46909D03*
X42972Y-48799D03*
X42972Y-51870D03*
X42933Y-48051D03*
X39862Y-48051D03*
X43937Y-50039D03*
X47007Y-50039D03*
X43937Y-51181D03*
X47007Y-51181D03*
X47972Y-51870D03*
X47972Y-48799D03*
X49980Y-51870D03*
X49980Y-48799D03*
X51771Y-51870D03*
X51771Y-48799D03*
X53188Y-47421D03*
X53188Y-50492D03*
X53188Y-46318D03*
X56259Y-46318D03*
G54D27*
X38622Y-45255D03*
X38122Y-45255D03*
X39122Y-45255D03*
G54D26*
X39704Y-50688D03*
X39704Y-50188D03*
X39704Y-51188D03*
X41692Y-50688D03*
X41692Y-50188D03*
X41692Y-51188D03*
X47972Y-47106D03*
X47972Y-46606D03*
X47972Y-47606D03*
X49980Y-47106D03*
X49980Y-46606D03*
X49980Y-47606D03*
G54D25*
X47677Y-45059D03*
X47677Y-45570D03*
X46968Y-45314D03*
G54D12*
X37834Y-51181D03*
X37834Y-49212D03*
G54D20*
X38622Y-47618D03*
G54D21*
X37834Y-47618D03*
G54D12*
X40944Y-45748D03*
X42913Y-45748D03*
X46299Y-48877D03*
X44330Y-48877D03*
G54D20*
X51771Y-47106D03*
G54D21*
X51771Y-46318D03*
G54D12*
X54350Y-47421D03*
X54350Y-49389D03*
X44232Y-45374D03*
X46200Y-45374D03*
G54D28*
X55720Y-29133D03*
X55720Y-29527D03*
X55326Y-29133D03*
X55326Y-29527D03*
X54933Y-29133D03*
X54933Y-29527D03*
X54539Y-29133D03*
X54539Y-29527D03*
X54145Y-29133D03*
X54145Y-29527D03*
X53751Y-29133D03*
X53751Y-29527D03*
X53358Y-29133D03*
X53358Y-29527D03*
X52964Y-29133D03*
X52964Y-29527D03*
X52570Y-29133D03*
X52570Y-29527D03*
X52177Y-29133D03*
X52177Y-29527D03*
X51783Y-29133D03*
X51783Y-29527D03*
X51389Y-29133D03*
X51389Y-29527D03*
X50996Y-29133D03*
X50996Y-29527D03*
X50602Y-29133D03*
X50602Y-29527D03*
X50208Y-29133D03*
X50208Y-29527D03*
X49814Y-29133D03*
X49814Y-29527D03*
X49421Y-29133D03*
X49421Y-29527D03*
X49027Y-29133D03*
X49027Y-29527D03*
X48633Y-29133D03*
X48633Y-29527D03*
X48240Y-29133D03*
X48240Y-29527D03*
X47846Y-29133D03*
X47846Y-29527D03*
X47452Y-29133D03*
X47452Y-29527D03*
X47059Y-29133D03*
X47059Y-29527D03*
X46665Y-29133D03*
X46665Y-29527D03*
X46271Y-29133D03*
X46271Y-29527D03*
X45877Y-29133D03*
X45877Y-29527D03*
X45484Y-29133D03*
X45484Y-29527D03*
X45090Y-29133D03*
X45090Y-29527D03*
X44696Y-29133D03*
X44696Y-29527D03*
X44303Y-29133D03*
X44303Y-29527D03*
X43515Y-29133D03*
X43515Y-29527D03*
X43122Y-29133D03*
X43122Y-29527D03*
X42728Y-29133D03*
X42728Y-29527D03*
X42334Y-29133D03*
X42334Y-29527D03*
X41940Y-29133D03*
X41940Y-29527D03*
X41547Y-29133D03*
X41547Y-29527D03*
X41153Y-29133D03*
X41153Y-29527D03*
X40759Y-29133D03*
X40759Y-29527D03*
X40366Y-29133D03*
X40366Y-29527D03*
X39972Y-29133D03*
X39972Y-29527D03*
X39578Y-29133D03*
X39578Y-29527D03*
X39185Y-29133D03*
X39185Y-29527D03*
X38791Y-29133D03*
X38791Y-29527D03*
X38397Y-29133D03*
X38397Y-29527D03*
X38003Y-29133D03*
X38003Y-29527D03*
X37610Y-29133D03*
X37610Y-29527D03*
X37216Y-29133D03*
X37216Y-29527D03*
X36822Y-29133D03*
X36822Y-29527D03*
X36429Y-29133D03*
X36429Y-29527D03*
X36035Y-29133D03*
X36035Y-29527D03*
X35641Y-29133D03*
X35641Y-29527D03*
X35248Y-29133D03*
X35248Y-29527D03*
X34854Y-29133D03*
X34854Y-29527D03*
X34460Y-29133D03*
X34460Y-29527D03*
X34066Y-29133D03*
X34066Y-29527D03*
X33673Y-29133D03*
X33673Y-29527D03*
X33279Y-29133D03*
X33279Y-29527D03*
X32885Y-29133D03*
X32885Y-29527D03*
X32492Y-29133D03*
X32492Y-29527D03*
X32098Y-29133D03*
X32098Y-29527D03*
X55720Y-7874D03*
X55720Y-8267D03*
X55326Y-7874D03*
X55326Y-8267D03*
X54933Y-7874D03*
X54933Y-8267D03*
X54539Y-7874D03*
X54539Y-8267D03*
X54145Y-7874D03*
X54145Y-8267D03*
X53751Y-7874D03*
X53751Y-8267D03*
X53358Y-7874D03*
X53358Y-8267D03*
X52964Y-7874D03*
X52964Y-8267D03*
X52570Y-7874D03*
X52570Y-8267D03*
X52177Y-7874D03*
X52177Y-8267D03*
X51783Y-7874D03*
X51783Y-8267D03*
X51389Y-7874D03*
X51389Y-8267D03*
X50996Y-7874D03*
X50996Y-8267D03*
X50602Y-7874D03*
X50602Y-8267D03*
X50208Y-7874D03*
X50208Y-8267D03*
X49814Y-7874D03*
X49814Y-8267D03*
X49421Y-7874D03*
X49421Y-8267D03*
X49027Y-7874D03*
X49027Y-8267D03*
X48633Y-7874D03*
X48633Y-8267D03*
X48240Y-7874D03*
X48240Y-8267D03*
X47846Y-7874D03*
X47846Y-8267D03*
X47452Y-7874D03*
X47452Y-8267D03*
X47059Y-7874D03*
X47059Y-8267D03*
X46665Y-7874D03*
X46665Y-8267D03*
X46271Y-7874D03*
X46271Y-8267D03*
X45877Y-7874D03*
X45877Y-8267D03*
X45484Y-7874D03*
X45484Y-8267D03*
X45090Y-7874D03*
X45090Y-8267D03*
X44696Y-7874D03*
X44696Y-8267D03*
X44303Y-7874D03*
X44303Y-8267D03*
X43515Y-7874D03*
X43515Y-8267D03*
X43122Y-7874D03*
X43122Y-8267D03*
X42728Y-7874D03*
X42728Y-8267D03*
X42334Y-7874D03*
X42334Y-8267D03*
X41940Y-7874D03*
X41940Y-8267D03*
X41547Y-7874D03*
X41547Y-8267D03*
X41153Y-7874D03*
X41153Y-8267D03*
X40759Y-7874D03*
X40759Y-8267D03*
X40366Y-7874D03*
X40366Y-8267D03*
X39972Y-7874D03*
X39972Y-8267D03*
X39578Y-7874D03*
X39578Y-8267D03*
X39185Y-7874D03*
X39185Y-8267D03*
X38791Y-7874D03*
X38791Y-8267D03*
X38397Y-7874D03*
X38397Y-8267D03*
X38003Y-7874D03*
X38003Y-8267D03*
X37610Y-7874D03*
X37610Y-8267D03*
X37216Y-7874D03*
X37216Y-8267D03*
X36822Y-7874D03*
X36822Y-8267D03*
X36429Y-7874D03*
X36429Y-8267D03*
X36035Y-7874D03*
X36035Y-8267D03*
X35641Y-7874D03*
X35641Y-8267D03*
X35248Y-7874D03*
X35248Y-8267D03*
X34854Y-7874D03*
X34854Y-8267D03*
X34460Y-7874D03*
X34460Y-8267D03*
X34066Y-7874D03*
X34066Y-8267D03*
X33673Y-7874D03*
X33673Y-8267D03*
X33279Y-7874D03*
X33279Y-8267D03*
X32885Y-7874D03*
X32885Y-8267D03*
X32492Y-7874D03*
X32492Y-8267D03*
X32098Y-7874D03*
X32098Y-8267D03*
G54D22*
X15487Y-9940D03*
X16087Y-9940D03*
G54D23*
X20925Y-13292D03*
X20925Y-12692D03*
X20925Y-22790D03*
X20925Y-23390D03*
G54D20*
X18917Y-14212D03*
G54D21*
X18917Y-13425D03*
G54D20*
X18917Y-21889D03*
G54D21*
X18917Y-22677D03*
G54D20*
X20787Y-18336D03*
G54D21*
X20000Y-18336D03*
G54D20*
X22893Y-24724D03*
G54D21*
X22893Y-25511D03*
G54D22*
X20201Y-16850D03*
X19601Y-16850D03*
G54D23*
X21801Y-26117D03*
X21801Y-26717D03*
G54D20*
X30570Y-11496D03*
G54D21*
X29783Y-11496D03*
G54D22*
X29847Y-13011D03*
X29247Y-13011D03*
X29247Y-9980D03*
X29847Y-9980D03*
G54D20*
X30570Y-8464D03*
G54D21*
X29783Y-8464D03*
G54D22*
X60794Y-5059D03*
X60194Y-5059D03*
X52276Y-3877D03*
X51676Y-3877D03*
G54D20*
X60738Y-6476D03*
G54D21*
X61525Y-6476D03*
G54D20*
X53976Y-3238D03*
G54D21*
X53976Y-2450D03*
G54D22*
X44778Y-4340D03*
X45378Y-4340D03*
G54D29*
X5885Y-6811D03*
X9822Y-6811D03*
G54D30*
X2736Y-10986D03*
G54D31*
X2736Y-9486D03*
G54D20*
X14881Y-13818D03*
G54D21*
X14094Y-13818D03*
G54D20*
X54005Y-5413D03*
G54D21*
X54005Y-4625D03*
G54D20*
X59498Y-10295D03*
G54D21*
X59498Y-11082D03*
G54D23*
X43543Y-1137D03*
X43543Y-1737D03*
X21496Y-1137D03*
X21496Y-1737D03*
G54D20*
X13011Y-5000D03*
G54D21*
X13011Y-4212D03*
G54D22*
X13016Y-6131D03*
X13616Y-6131D03*
X23390Y-11318D03*
X22790Y-11318D03*
G54D29*
X5610Y-13228D03*
X1673Y-13228D03*
G54D32*
X7618Y-13228D03*
G54D33*
X9586Y-13228D03*
G54D34*
X11358Y-21515D03*
G54D35*
X14311Y-21515D03*
G54D34*
X4980Y-21515D03*
G54D35*
X2027Y-21515D03*
G54D29*
X8385Y-21515D03*
X8385Y-25452D03*
G54D30*
X35590Y-38092D03*
G54D31*
X35590Y-36592D03*
G54D30*
X35590Y-44860D03*
G54D31*
X35590Y-46360D03*
G54D20*
X20354Y-32984D03*
G54D21*
X20354Y-33771D03*
G54D20*
X29251Y-33346D03*
G54D21*
X30039Y-33346D03*
G54D12*
X18385Y-31692D03*
X20354Y-31692D03*
X28188Y-31692D03*
X30157Y-31692D03*
G54D20*
X14192Y-29153D03*
G54D21*
X13405Y-29153D03*
G54D12*
X14783Y-30925D03*
X12814Y-30925D03*
G54D20*
X13543Y-35374D03*
G54D21*
X13543Y-36161D03*
G54D20*
X11358Y-34094D03*
G54D21*
X10570Y-34094D03*
G54D20*
X11358Y-31535D03*
G54D21*
X10570Y-31535D03*
G54D36*
X11929Y-47539D03*
X10157Y-47539D03*
X11929Y-39192D03*
X10157Y-39192D03*
G54D37*
X36791Y-42883D03*
X37303Y-42883D03*
X37047Y-43592D03*
X35344Y-42893D03*
X35856Y-42893D03*
X35600Y-43602D03*
G54D38*
X57214Y-8704D03*
G54D39*
X57214Y-9374D03*
X57962Y-9374D03*
X57962Y-8625D03*
G54D38*
X49409Y-4704D03*
G54D39*
X49409Y-5374D03*
X50157Y-5374D03*
X50157Y-4625D03*
G54D40*
X5610Y-9311D03*
X5610Y-11003D03*
G54D41*
X13602Y-11653D03*
X15295Y-11653D03*
G54D42*
X22874Y-8629D03*
X22874Y-7669D03*
G54D43*
X18789Y-5944D03*
X20108Y-5944D03*
X16820Y-5944D03*
X15501Y-5944D03*
G54D44*
X46278Y-767D03*
X47028Y-767D03*
G54D45*
X55631Y-3471D03*
X55631Y-4221D03*
X59501Y-5058D03*
X59501Y-5808D03*
X50925Y-3876D03*
X50925Y-4626D03*
G54D19*
X36386Y-40285D03*
X37401Y-47839D03*
X37401Y-47396D03*
X36073Y-39972D03*
G54D46*
X60901Y-44360D03*
X63401Y-44360D03*
X58401Y-44360D03*
X60901Y-37970D03*
X63401Y-37970D03*
X58401Y-37970D03*
X60901Y-52706D03*
X63401Y-52706D03*
X58401Y-52706D03*
X60901Y-46316D03*
X63401Y-46316D03*
X58401Y-46316D03*
X4137Y-37970D03*
X1637Y-37970D03*
X6637Y-37970D03*
X4137Y-44360D03*
X1637Y-44360D03*
X6637Y-44360D03*
X4137Y-46316D03*
X1637Y-46316D03*
X6637Y-46316D03*
X4137Y-52706D03*
X1637Y-52706D03*
X6637Y-52706D03*
X4137Y-29624D03*
X1637Y-29624D03*
X6637Y-29624D03*
X4137Y-36013D03*
X1637Y-36013D03*
X6637Y-36013D03*
G54D47*
X57588Y-4551D03*
X57588Y-5338D03*
X57588Y-6125D03*
G54D48*
X58659Y-4263D03*
G54D47*
X57588Y-6913D03*
G54D48*
X58659Y-7019D03*
X56517Y-4263D03*
X56517Y-7019D03*
G54D49*
X50255Y-2972D03*
X49940Y-2972D03*
X49625Y-2972D03*
X49311Y-2972D03*
X48996Y-2972D03*
G54D50*
X51377Y-2923D03*
X51377Y-777D03*
X47874Y-2923D03*
X47874Y-777D03*
G54D51*
X20807Y-2440D03*
X14405Y-2440D03*
G54D14*
X19011Y-2790D03*
X18208Y-2790D03*
X17405Y-2790D03*
X16602Y-2790D03*
X17807Y-2090D03*
X17003Y-2090D03*
X18610Y-2090D03*
X16200Y-2090D03*
G54D52*
X15106Y-1090D03*
X20106Y-1090D03*
G54D53*
X37342Y-5511D03*
X37342Y-590D03*
X36358Y-4527D03*
X39311Y-4527D03*
X42263Y-4527D03*
X41279Y-5511D03*
X41279Y-590D03*
X23759Y-5511D03*
X23759Y-590D03*
X22775Y-4527D03*
X25728Y-4527D03*
X28681Y-4527D03*
X27696Y-5511D03*
X27696Y-590D03*
G54D54*
X9842Y-2637D03*
G54D55*
X9842Y-5000D03*
G54D56*
X7992Y-3818D03*
G54D57*
X12043Y-50098D03*
X12043Y-51830D03*
X10043Y-50964D03*
X12043Y-48838D03*
G54D58*
X10043Y-48838D03*
G54D57*
X12043Y-41751D03*
X12043Y-43484D03*
X10043Y-42618D03*
X12043Y-40492D03*
G54D58*
X10043Y-40492D03*
G54D33*
X6811Y-18759D03*
X6811Y-16791D03*
X8385Y-16791D03*
X8385Y-18759D03*
G54D59*
X57687Y-7692D03*
X57490Y-7692D03*
X57490Y-8007D03*
X57687Y-8007D03*
X49881Y-3700D03*
X49685Y-3700D03*
X49685Y-4015D03*
X49881Y-4015D03*
G54D60*
X29870Y-26242D03*
G54D61*
X28870Y-26242D03*
X29870Y-25242D03*
X28870Y-25242D03*
X29870Y-24242D03*
X28870Y-24242D03*
X29870Y-23242D03*
X28870Y-23242D03*
X29870Y-22242D03*
X28870Y-22242D03*
X29870Y-21242D03*
X28870Y-21242D03*
X29870Y-20242D03*
X28870Y-20242D03*
X29870Y-19242D03*
X28870Y-19242D03*
X29870Y-18242D03*
X28870Y-18242D03*
X29870Y-17242D03*
X28870Y-17242D03*
G54D62*
X16736Y-31259D03*
X16361Y-30393D03*
X17111Y-30393D03*
X46214Y-21897D03*
X46589Y-22763D03*
X45839Y-22763D03*
X42868Y-21897D03*
X43243Y-22763D03*
X42493Y-22763D03*
G54D15*
X32952Y-6023D03*
X32086Y-6398D03*
X32086Y-5648D03*
G54D62*
X30767Y-5590D03*
X31142Y-6456D03*
X30392Y-6456D03*
G54D45*
X18287Y-7658D03*
X18287Y-6908D03*
X17322Y-6928D03*
X17322Y-7678D03*
G54D22*
X20103Y-9940D03*
X19503Y-9940D03*
X20103Y-9192D03*
X19503Y-9192D03*
X20103Y-8444D03*
X19503Y-8444D03*
X31510Y-21013D03*
X30910Y-21013D03*
X31510Y-18917D03*
X30910Y-18917D03*
X31510Y-19616D03*
X30910Y-19616D03*
X31510Y-20314D03*
X30910Y-20314D03*
G54D23*
X20748Y-9936D03*
X20748Y-10536D03*
G54D22*
X31510Y-18218D03*
X30910Y-18218D03*
X31496Y-16818D03*
X30896Y-16818D03*
X31510Y-17519D03*
X30910Y-17519D03*
X44286Y-30564D03*
X44886Y-30564D03*
X47475Y-30564D03*
X48075Y-30564D03*
X41107Y-30564D03*
X41707Y-30564D03*
X37918Y-30564D03*
X38518Y-30564D03*
X57052Y-30564D03*
X57652Y-30564D03*
X37416Y-30564D03*
X36816Y-30564D03*
X40605Y-30564D03*
X40005Y-30564D03*
X43794Y-30564D03*
X43194Y-30564D03*
X46983Y-30564D03*
X46383Y-30564D03*
X60241Y-30564D03*
X60841Y-30564D03*
X53873Y-30564D03*
X54473Y-30564D03*
X50674Y-30564D03*
X51274Y-30564D03*
X50181Y-30564D03*
X49581Y-30564D03*
X53370Y-30564D03*
X52770Y-30564D03*
X56559Y-30564D03*
X55959Y-30564D03*
X59748Y-30564D03*
X59148Y-30564D03*
G54D23*
X15787Y-30664D03*
X15787Y-31264D03*
G54D22*
X9562Y-37992D03*
X10162Y-37992D03*
X9562Y-46338D03*
X10162Y-46338D03*
X44778Y-3730D03*
X45378Y-3730D03*
X44778Y-4950D03*
X45378Y-4950D03*
X45792Y-4950D03*
X46392Y-4950D03*
X61068Y-7933D03*
X61668Y-7933D03*
X45792Y-3730D03*
X46392Y-3730D03*
X61668Y-9232D03*
X61068Y-9232D03*
G54D23*
X61072Y-10477D03*
X61072Y-9877D03*
G54D22*
X45792Y-4340D03*
X46392Y-4340D03*
G54D44*
X35099Y-5118D03*
X34349Y-5118D03*
G54D45*
X22066Y-8247D03*
X22066Y-8997D03*
G54D44*
X35099Y-6338D03*
X34349Y-6338D03*
X17430Y-5944D03*
X18180Y-5944D03*
G54D23*
X33622Y-6323D03*
X33622Y-5723D03*
X31456Y-5654D03*
X31456Y-5054D03*
G54D22*
X16441Y-6929D03*
X15841Y-6929D03*
X19788Y-6909D03*
X19188Y-6909D03*
X25959Y-33326D03*
X26559Y-33326D03*
X40900Y-18710D03*
X41500Y-18710D03*
X40900Y-18100D03*
X41500Y-18100D03*
X25723Y-38671D03*
X26323Y-38671D03*
X41914Y-18100D03*
X42514Y-18100D03*
X41914Y-18710D03*
X42514Y-18710D03*
G54D23*
X24232Y-37357D03*
X24232Y-37957D03*
X24921Y-37357D03*
X24921Y-37957D03*
G54D63*
X59251Y-20500D03*
X59251Y-16917D03*
G54D13*
X2858Y-6842D03*
X4015Y-6830D03*
G54D64*
X1456Y-6870D03*
G54D24*
X16745Y-9942D03*
X18845Y-9942D03*
X16745Y-9442D03*
X16745Y-8942D03*
X16745Y-8442D03*
X18845Y-9442D03*
X18845Y-8942D03*
X18845Y-8442D03*
G54D65*
X23757Y-15118D03*
G54D66*
X20927Y-14218D03*
X20927Y-16018D03*
G54D65*
X23757Y-20984D03*
G54D66*
X20927Y-20084D03*
X20927Y-21884D03*
G54D67*
X51707Y-4625D03*
X52082Y-4625D03*
X52457Y-4625D03*
X52457Y-5625D03*
X52082Y-5625D03*
X51707Y-5625D03*
X59497Y-8220D03*
X59872Y-8220D03*
X60247Y-8220D03*
X60247Y-9220D03*
X59872Y-9220D03*
X59497Y-9220D03*
G54D68*
X27011Y-7775D03*
X26011Y-7775D03*
X25011Y-7775D03*
X24011Y-7775D03*
X27011Y-11318D03*
X26011Y-11318D03*
X25011Y-11318D03*
X24011Y-11318D03*
G54D65*
X21218Y-29744D03*
G54D66*
X18388Y-28844D03*
X18388Y-30644D03*
G54D65*
X27305Y-29744D03*
G54D66*
X30135Y-30644D03*
X30135Y-28844D03*
G54D69*
X12814Y-33720D03*
X13011Y-33720D03*
X13208Y-33720D03*
X13405Y-33720D03*
X13602Y-33720D03*
X13602Y-31870D03*
X13405Y-31870D03*
X13208Y-31870D03*
X13011Y-31870D03*
X12814Y-31870D03*
G54D70*
X9822Y-9291D03*
X7224Y-9291D03*
X11003Y-9291D03*
X13602Y-9291D03*
G54D20*
X20708Y-24724D03*
G54D21*
X20708Y-25511D03*
G54D71*
X26417Y-24724D03*
G54D72*
X24858Y-24724D03*
G54D16*
X12047Y-35767D03*
X8976Y-35767D03*
X8976Y-29862D03*
X12047Y-29862D03*
G54D30*
X23501Y-29744D03*
G54D31*
X25001Y-29744D03*
G54D12*
X54842Y-51870D03*
X52874Y-51870D03*
X54822Y-43917D03*
X52854Y-43917D03*
G54D22*
X15133Y-29744D03*
X15733Y-29744D03*
X16432Y-29744D03*
X17032Y-29744D03*
X31510Y-22405D03*
X30910Y-22405D03*
X31510Y-23799D03*
X30910Y-23799D03*
X31510Y-25192D03*
X30910Y-25192D03*
X31510Y-26586D03*
X30910Y-26586D03*
X31510Y-21708D03*
X30910Y-21708D03*
X31510Y-23102D03*
X30910Y-23102D03*
X31510Y-24496D03*
X30910Y-24496D03*
X31510Y-25889D03*
X30910Y-25889D03*
X43341Y-18700D03*
X43941Y-18700D03*
X44759Y-19311D03*
X45359Y-19311D03*
X43341Y-18090D03*
X43941Y-18090D03*
X44759Y-19921D03*
X45359Y-19921D03*
X43341Y-19311D03*
X43941Y-19311D03*
X43341Y-16870D03*
X43941Y-16870D03*
X46166Y-18700D03*
X46766Y-18700D03*
X44759Y-18090D03*
X45359Y-18090D03*
X46166Y-19311D03*
X46766Y-19311D03*
X46166Y-18088D03*
X46766Y-18088D03*
X46166Y-19921D03*
X46766Y-19921D03*
X44759Y-16870D03*
X45359Y-16870D03*
X43341Y-19921D03*
X43941Y-19921D03*
X46166Y-16870D03*
X46766Y-16870D03*
X44759Y-17480D03*
X45359Y-17480D03*
X43341Y-17480D03*
X43941Y-17480D03*
X46166Y-17480D03*
X46766Y-17480D03*
X44759Y-18700D03*
X45359Y-18700D03*
G54D45*
X27657Y-19243D03*
X27657Y-18493D03*
X28110Y-34095D03*
X28110Y-33345D03*
G54D19*
X30147Y-35009D03*
X30541Y-35009D03*
X30935Y-35009D03*
X31328Y-35009D03*
X31722Y-35009D03*
X32116Y-35009D03*
X32509Y-35009D03*
X32903Y-35009D03*
X33297Y-35009D03*
G54D12*
X62322Y-34903D03*
X62322Y-32935D03*
G54D73*
X4940Y-3574D03*
X1988Y-3574D03*
X4940Y-1606D03*
X1988Y-1606D03*
X63051Y-3574D03*
X60098Y-3574D03*
X63051Y-1606D03*
X60098Y-1606D03*
X33996Y-3574D03*
X31043Y-3574D03*
X33996Y-1606D03*
X31043Y-1606D03*
G54D74*
X38643Y-33137D03*
X37858Y-33137D03*
X41834Y-33137D03*
X41052Y-33137D03*
X60980Y-33137D03*
X57791Y-33137D03*
X54602Y-33137D03*
X51413Y-33137D03*
X48212Y-33137D03*
X45023Y-33137D03*
X44241Y-33137D03*
X47430Y-33137D03*
X50629Y-33137D03*
X53818Y-33137D03*
X57007Y-33137D03*
X60196Y-33137D03*
G54D75*
X21794Y-38185D03*
X23657Y-38185D03*
X28114Y-35586D03*
X28114Y-36062D03*
X13543Y-34547D03*
G54D74*
X58651Y-5531D03*
X16082Y-28562D03*
X16082Y-29744D03*
G54D75*
X24090Y-39051D03*
X27665Y-39051D03*
X26708Y-39051D03*
X21940Y-39051D03*
X20787Y-43188D03*
X20118Y-43188D03*
X27665Y-39381D03*
X26708Y-39381D03*
X24090Y-39381D03*
X21940Y-39381D03*
X8336Y-45334D03*
X9360Y-45442D03*
G54D74*
X57952Y-30570D03*
X45196Y-30570D03*
X37204Y-31909D03*
X40393Y-31909D03*
X43582Y-31909D03*
X46771Y-31909D03*
X49960Y-31909D03*
X53149Y-31909D03*
X56338Y-31909D03*
X59527Y-31909D03*
X28110Y-32913D03*
X28405Y-37204D03*
X31515Y-36496D03*
X16362Y-30846D03*
X55631Y-3078D03*
X49074Y-4704D03*
X56879Y-8704D03*
X62017Y-7933D03*
X59872Y-8759D03*
X62017Y-9232D03*
X45858Y-767D03*
X28897Y-9980D03*
X32500Y-6397D03*
X43543Y-2086D03*
X15492Y-9488D03*
X16751Y-8129D03*
X20137Y-6909D03*
X20492Y-5944D03*
X15118Y-5944D03*
X13976Y-6141D03*
X13877Y-33720D03*
X20925Y-23759D03*
X44173Y-48267D03*
X44153Y-40314D03*
X30966Y-37994D03*
X20216Y-44921D03*
X16072Y-42814D03*
G54D76*
X59497Y-9220D02*
X59497Y-10294D01*
X59497Y-10294D02*
X59498Y-10295D01*
X33622Y-5723D02*
X33622Y-5054D01*
X31456Y-5054D02*
X34285Y-5054D01*
X34285Y-5054D02*
X34349Y-5118D01*
G54D77*
X23390Y-11318D02*
X24011Y-11318D01*
G54D76*
X16087Y-9940D02*
X16087Y-7268D01*
X16087Y-7268D02*
X15841Y-7022D01*
X15841Y-7022D02*
X15841Y-6929D01*
X16745Y-9942D02*
X16089Y-9942D01*
X16089Y-9942D02*
X16087Y-9940D01*
G54D78*
X30748Y-9980D02*
X30748Y-8425D01*
X30748Y-12992D02*
X30748Y-9980D01*
X26348Y-18336D02*
X30748Y-13937D01*
X21515Y-18336D02*
X26348Y-18336D01*
X30748Y-13937D02*
X30748Y-12992D01*
X20927Y-17748D02*
X21515Y-18336D01*
X20927Y-18036D02*
X20927Y-17748D01*
X20927Y-16018D02*
X20927Y-18036D01*
G54D79*
X30748Y-8425D02*
X30570Y-8464D01*
X30708Y-8464D02*
X30748Y-8425D01*
X30570Y-8464D02*
X30708Y-8464D01*
X30748Y-11387D02*
X30570Y-11496D01*
X30639Y-11496D02*
X30748Y-11387D01*
X30570Y-11496D02*
X30639Y-11496D01*
G54D77*
X30718Y-9980D02*
X30748Y-9980D01*
X30748Y-9980D02*
X30718Y-9980D01*
X29847Y-9980D02*
X30748Y-9980D01*
G54D79*
X30570Y-11496D02*
X30639Y-11496D01*
G54D77*
X30748Y-13011D02*
X30728Y-12992D01*
X30728Y-12992D02*
X30698Y-12992D01*
X30698Y-12992D02*
X30748Y-12992D01*
X29847Y-13011D02*
X30748Y-13011D01*
G54D80*
X21215Y-18036D02*
X20927Y-18036D01*
X20915Y-18336D02*
X21215Y-18036D01*
X20787Y-18336D02*
X20915Y-18336D01*
X20927Y-18036D02*
X20787Y-18336D01*
X20787Y-18176D02*
X20927Y-18036D01*
X20787Y-18336D02*
X20787Y-18176D01*
X20787Y-18336D02*
X21515Y-18336D01*
G54D78*
X17933Y-21889D02*
X17933Y-14173D01*
G54D80*
X17972Y-14212D02*
X17933Y-14173D01*
X18917Y-14212D02*
X17972Y-14212D01*
X18917Y-21889D02*
X17933Y-21889D01*
X20921Y-21889D02*
X20927Y-21884D01*
X18917Y-21889D02*
X20921Y-21889D01*
X20921Y-14212D02*
X20927Y-14218D01*
X18917Y-14212D02*
X20921Y-14212D01*
G54D77*
X20925Y-21886D02*
X20927Y-21884D01*
G54D78*
X16574Y-12814D02*
X17933Y-14173D01*
X15413Y-11653D02*
X16574Y-12814D01*
X15295Y-11653D02*
X15413Y-11653D01*
G54D80*
X15570Y-13818D02*
X16574Y-12814D01*
X14881Y-13818D02*
X15570Y-13818D01*
G54D77*
X20925Y-14215D02*
X20927Y-14218D01*
X20925Y-21886D02*
X20927Y-21884D01*
X20925Y-22790D02*
X20925Y-21886D01*
X20925Y-14215D02*
X20927Y-14218D01*
X20925Y-13292D02*
X20925Y-14215D01*
G54D81*
X41707Y-30564D02*
X41707Y-31161D01*
X41712Y-31141D02*
X41712Y-31161D01*
X41712Y-31156D02*
X41712Y-31141D01*
X41707Y-31161D02*
X41712Y-31156D01*
X48075Y-30564D02*
X48075Y-31161D01*
X48070Y-31141D02*
X48070Y-31161D01*
X48070Y-31156D02*
X48070Y-31141D01*
X48075Y-31161D02*
X48070Y-31156D01*
X51274Y-30564D02*
X51274Y-31161D01*
X51274Y-31161D02*
X51279Y-31161D01*
X54473Y-30564D02*
X54473Y-31161D01*
X54488Y-31141D02*
X54488Y-31161D01*
X54488Y-31146D02*
X54488Y-31141D01*
X54473Y-31161D02*
X54488Y-31146D01*
X38518Y-30564D02*
X38518Y-31254D01*
X60841Y-30890D02*
X60841Y-30564D01*
X60570Y-31161D02*
X60841Y-30890D01*
X59763Y-31161D02*
X60570Y-31161D01*
X59389Y-31535D02*
X59763Y-31161D01*
X58917Y-31535D02*
X59389Y-31535D01*
X58543Y-31161D02*
X58917Y-31535D01*
X56574Y-31161D02*
X58543Y-31161D01*
X56200Y-31535D02*
X56574Y-31161D01*
X55728Y-31535D02*
X56200Y-31535D01*
X55354Y-31161D02*
X55728Y-31535D01*
X53385Y-31161D02*
X54488Y-31161D01*
X54488Y-31161D02*
X55354Y-31161D01*
X53011Y-31535D02*
X53385Y-31161D01*
X52539Y-31535D02*
X53011Y-31535D01*
X52165Y-31161D02*
X52539Y-31535D01*
X50196Y-31161D02*
X51279Y-31161D01*
X51279Y-31161D02*
X52165Y-31161D01*
X49822Y-31535D02*
X50196Y-31161D01*
X49350Y-31535D02*
X49822Y-31535D01*
X48976Y-31161D02*
X49350Y-31535D01*
X47007Y-31161D02*
X48070Y-31161D01*
X48070Y-31161D02*
X48976Y-31161D01*
X46633Y-31535D02*
X47007Y-31161D01*
X46161Y-31535D02*
X46633Y-31535D01*
X45787Y-31161D02*
X46161Y-31535D01*
X43818Y-31161D02*
X45787Y-31161D01*
X43444Y-31535D02*
X43818Y-31161D01*
X42972Y-31535D02*
X43444Y-31535D01*
X42598Y-31161D02*
X42972Y-31535D01*
X40629Y-31161D02*
X41712Y-31161D01*
X41712Y-31161D02*
X42598Y-31161D01*
X40255Y-31535D02*
X40629Y-31161D01*
X38799Y-31535D02*
X40255Y-31535D01*
X38518Y-31254D02*
X38799Y-31535D01*
G54D78*
X23757Y-20984D02*
X23757Y-22266D01*
G54D82*
X23757Y-22266D02*
X23740Y-22283D01*
G54D78*
X23757Y-20984D02*
X22086Y-20984D01*
X23757Y-20984D02*
X23757Y-19588D01*
X23757Y-19588D02*
X23759Y-19586D01*
X23757Y-20984D02*
X25787Y-20984D01*
G54D83*
X20708Y-24724D02*
X20708Y-24173D01*
X20708Y-24724D02*
X20019Y-24724D01*
X22893Y-24724D02*
X20708Y-24724D01*
X22893Y-24724D02*
X22893Y-23996D01*
X22893Y-24724D02*
X23562Y-24724D01*
G54D79*
X24858Y-24724D02*
X24881Y-24724D01*
X24881Y-24724D02*
X25472Y-25314D01*
X24858Y-24724D02*
X24858Y-24747D01*
X24858Y-24747D02*
X24251Y-25354D01*
X24858Y-24724D02*
X24858Y-24720D01*
X24858Y-24720D02*
X24291Y-24153D01*
X24881Y-24724D02*
X25472Y-24133D01*
G54D84*
X59501Y-5058D02*
X58445Y-5058D01*
X57938Y-4551D02*
X57588Y-4551D01*
X58445Y-5058D02*
X57938Y-4551D01*
G54D81*
X50255Y-2972D02*
X50255Y-3307D01*
X50255Y-3307D02*
X50825Y-3876D01*
X50825Y-3876D02*
X50925Y-3876D01*
G54D84*
X59501Y-8215D02*
X59497Y-8220D01*
X59501Y-6450D02*
X59501Y-8215D01*
X59501Y-5808D02*
X59501Y-6450D01*
X59527Y-6476D02*
X59501Y-6450D01*
X60738Y-6476D02*
X59527Y-6476D01*
G54D81*
X50157Y-4625D02*
X50924Y-4625D01*
X50924Y-4625D02*
X50925Y-4626D01*
G54D82*
X5610Y-13228D02*
X5610Y-15590D01*
X5610Y-15590D02*
X6811Y-16791D01*
X2753Y-11003D02*
X2736Y-10986D01*
X5610Y-11003D02*
X2753Y-11003D01*
X5610Y-11003D02*
X5610Y-13228D01*
X7618Y-13228D02*
X5610Y-13228D01*
G54D76*
X41279Y-590D02*
X41279Y-1137D01*
X41279Y-1137D02*
X41279Y-1102D01*
X41279Y-1102D02*
X41279Y-1137D01*
X43543Y-1137D02*
X41279Y-1137D01*
X41279Y-1137D02*
X37888Y-1137D01*
X37888Y-1137D02*
X37342Y-590D01*
X23759Y-590D02*
X23759Y-1137D01*
X21496Y-1137D02*
X23759Y-1137D01*
X23759Y-1137D02*
X27150Y-1137D01*
X27150Y-1137D02*
X27696Y-590D01*
G54D83*
X34685Y-37187D02*
X35590Y-38092D01*
X34685Y-35885D02*
X34685Y-37187D01*
X37433Y-33137D02*
X34685Y-35885D01*
X37858Y-33137D02*
X37433Y-33137D01*
G54D84*
X38824Y-32383D02*
X38824Y-32956D01*
X38824Y-32956D02*
X38643Y-33137D01*
X42013Y-32383D02*
X42013Y-32906D01*
X41782Y-33137D02*
X41834Y-33137D01*
X42013Y-32906D02*
X41782Y-33137D01*
X45202Y-32383D02*
X45202Y-32958D01*
X45202Y-32958D02*
X45023Y-33137D01*
X48391Y-32383D02*
X48391Y-32958D01*
X48391Y-32958D02*
X48212Y-33137D01*
X51590Y-32383D02*
X51590Y-32960D01*
X51590Y-32960D02*
X51413Y-33137D01*
X54779Y-32383D02*
X54779Y-32960D01*
X54779Y-32960D02*
X54602Y-33137D01*
X57968Y-32383D02*
X57968Y-32960D01*
X57968Y-32960D02*
X57791Y-33137D01*
X61157Y-32383D02*
X61157Y-32960D01*
X61157Y-32960D02*
X60980Y-33137D01*
G54D83*
X60980Y-33137D02*
X62198Y-33137D01*
X62198Y-33137D02*
X62322Y-33013D01*
X41052Y-33137D02*
X38643Y-33137D01*
X57791Y-33137D02*
X60196Y-33137D01*
X54602Y-33137D02*
X54598Y-33137D01*
X54598Y-33137D02*
X57007Y-33137D01*
X51413Y-33137D02*
X53818Y-33137D01*
X48212Y-33137D02*
X50629Y-33137D01*
X45023Y-33137D02*
X47430Y-33137D01*
X41834Y-33137D02*
X44241Y-33137D01*
X38824Y-32383D02*
X38824Y-32454D01*
G54D85*
X45352Y-36592D02*
X37090Y-36592D01*
X46181Y-37421D02*
X45352Y-36592D01*
X37090Y-36592D02*
X35590Y-38092D01*
X35883Y-44566D02*
X45688Y-44566D01*
X46200Y-45078D02*
X45688Y-44566D01*
X46200Y-45078D02*
X46200Y-45374D01*
X35883Y-44566D02*
X35590Y-44860D01*
G54D77*
X29839Y-47990D02*
X29839Y-47532D01*
X29839Y-47532D02*
X30167Y-47204D01*
G54D81*
X46968Y-45314D02*
X46259Y-45314D01*
X46259Y-45314D02*
X46200Y-45374D01*
G54D77*
X46200Y-45374D02*
X46200Y-46310D01*
X46200Y-46310D02*
X46266Y-46375D01*
X46181Y-38357D02*
X46246Y-38423D01*
X46181Y-37421D02*
X46181Y-38357D01*
G54D81*
X46240Y-37362D02*
X46181Y-37421D01*
X46948Y-37362D02*
X46240Y-37362D01*
G54D82*
X8385Y-18759D02*
X8385Y-21515D01*
X8385Y-21515D02*
X11358Y-21515D01*
X8385Y-21515D02*
X4980Y-21515D01*
G54D83*
X21240Y-48169D02*
X23996Y-45413D01*
X21909Y-51870D02*
X21240Y-51200D01*
X23326Y-51870D02*
X21909Y-51870D01*
X21240Y-51200D02*
X21240Y-48169D01*
G54D82*
X11358Y-21547D02*
X17515Y-27704D01*
X23452Y-27704D02*
X28996Y-27704D01*
X17515Y-27704D02*
X23452Y-27704D01*
X28996Y-27704D02*
X30135Y-28844D01*
X11358Y-21515D02*
X11358Y-21547D01*
X23501Y-27753D02*
X23452Y-27704D01*
X23501Y-29744D02*
X23501Y-27753D01*
X23960Y-45377D02*
X23996Y-45413D01*
X23501Y-32486D02*
X22724Y-33263D01*
X22724Y-33263D02*
X22724Y-43543D01*
X22724Y-43543D02*
X23960Y-44779D01*
X23960Y-44779D02*
X23960Y-45377D01*
X23501Y-29744D02*
X23501Y-32486D01*
G54D76*
X18103Y-47808D02*
X18110Y-47814D01*
X18103Y-46812D02*
X18103Y-47808D01*
X17640Y-40450D02*
X17696Y-40393D01*
X17640Y-41316D02*
X17640Y-40450D01*
G54D83*
X25580Y-48484D02*
X23996Y-48484D01*
X22874Y-48484D02*
X22854Y-48503D01*
X23996Y-48484D02*
X22874Y-48484D01*
X23996Y-49498D02*
X23907Y-49586D01*
X23996Y-48484D02*
X23996Y-49498D01*
X23385Y-49586D02*
X22598Y-50374D01*
X22598Y-50374D02*
X21909Y-50374D01*
X23907Y-49586D02*
X23385Y-49586D01*
X34301Y-51397D02*
X33159Y-51397D01*
X47972Y-51870D02*
X42972Y-51870D01*
X49980Y-51870D02*
X51771Y-51870D01*
X47972Y-51870D02*
X49980Y-51870D01*
X51771Y-51870D02*
X52874Y-51870D01*
X35433Y-51397D02*
X35905Y-51870D01*
X35905Y-51870D02*
X42972Y-51870D01*
X35413Y-51397D02*
X35433Y-51397D01*
X34301Y-51397D02*
X35413Y-51397D01*
X35462Y-51348D02*
X35413Y-51397D01*
X35462Y-50846D02*
X35462Y-51348D01*
G54D84*
X32372Y-51397D02*
X32372Y-51702D01*
X32066Y-52007D02*
X27962Y-52007D01*
X32372Y-51702D02*
X32066Y-52007D01*
X27962Y-52007D02*
X27805Y-51850D01*
G54D83*
X31998Y-50295D02*
X31998Y-51023D01*
X31998Y-51023D02*
X32372Y-51397D01*
X27785Y-51870D02*
X27805Y-51850D01*
X26397Y-50728D02*
X26397Y-51870D01*
X27795Y-51870D02*
X27814Y-51850D01*
X26397Y-51870D02*
X27795Y-51870D01*
X33169Y-45452D02*
X32185Y-45452D01*
X32224Y-45433D02*
X32185Y-45433D01*
X32204Y-45433D02*
X32224Y-45433D01*
X32185Y-45452D02*
X32204Y-45433D01*
X32185Y-44901D02*
X32185Y-45433D01*
X32185Y-45433D02*
X32185Y-46043D01*
X47952Y-43917D02*
X49960Y-43917D01*
X49960Y-43917D02*
X51751Y-43917D01*
X47952Y-43917D02*
X42952Y-43917D01*
X51751Y-43917D02*
X52854Y-43917D01*
X38381Y-43917D02*
X42952Y-43917D01*
G54D84*
X27029Y-40120D02*
X25844Y-40120D01*
X24606Y-41358D02*
X24173Y-41358D01*
X25844Y-40120D02*
X24606Y-41358D01*
G54D76*
X10162Y-46338D02*
X10162Y-47534D01*
X10162Y-47534D02*
X10157Y-47539D01*
X10162Y-37992D02*
X10162Y-39188D01*
X10162Y-39188D02*
X10157Y-39192D01*
G54D81*
X27915Y-39907D02*
X27915Y-40297D01*
X27344Y-40435D02*
X27029Y-40120D01*
X27777Y-40435D02*
X27344Y-40435D01*
X27915Y-40297D02*
X27777Y-40435D01*
G54D84*
X10043Y-47653D02*
X10157Y-47539D01*
X10043Y-48838D02*
X10043Y-47653D01*
X10043Y-39307D02*
X10157Y-39192D01*
X10043Y-40492D02*
X10043Y-39307D01*
G54D76*
X10157Y-38818D02*
X10157Y-39192D01*
X10157Y-47165D02*
X10157Y-47539D01*
G54D81*
X12814Y-31870D02*
X12814Y-30925D01*
X27915Y-39553D02*
X29076Y-38391D01*
X29076Y-38391D02*
X30415Y-38391D01*
X27915Y-39907D02*
X27915Y-39553D01*
G54D84*
X31850Y-37883D02*
X31850Y-37736D01*
X31338Y-38395D02*
X31850Y-37883D01*
X31338Y-39429D02*
X31338Y-38395D01*
G54D81*
X31334Y-38391D02*
X31338Y-38395D01*
X30415Y-38391D02*
X31334Y-38391D01*
G54D83*
X18385Y-30646D02*
X18388Y-30644D01*
G54D85*
X18388Y-31690D02*
X18385Y-31692D01*
X18388Y-30644D02*
X18388Y-31690D01*
X14251Y-29094D02*
X14192Y-29153D01*
X18388Y-30238D02*
X17244Y-29094D01*
X15118Y-29094D02*
X14251Y-29094D01*
X17244Y-29094D02*
X15118Y-29094D01*
X18388Y-30644D02*
X18388Y-30238D01*
X14192Y-29547D02*
X12814Y-30925D01*
X14192Y-29153D02*
X14192Y-29547D01*
G54D76*
X15133Y-29094D02*
X15118Y-29109D01*
X15118Y-29109D02*
X15118Y-29114D01*
X15118Y-29114D02*
X15118Y-29094D01*
X15133Y-29744D02*
X15133Y-29094D01*
G54D85*
X19677Y-32984D02*
X18385Y-31692D01*
X20354Y-32984D02*
X19677Y-32984D01*
X20818Y-32984D02*
X20354Y-32984D01*
X21794Y-33959D02*
X20818Y-32984D01*
X21794Y-37391D02*
X21794Y-33959D01*
X24173Y-41358D02*
X23657Y-40842D01*
X23657Y-38185D02*
X23657Y-40842D01*
X21794Y-38185D02*
X21794Y-37391D01*
G54D76*
X12657Y-37992D02*
X13257Y-37391D01*
X13257Y-37391D02*
X21794Y-37391D01*
X12627Y-37992D02*
X12657Y-37992D01*
X10162Y-37992D02*
X12627Y-37992D01*
X12627Y-42224D02*
X10162Y-44690D01*
X10162Y-44690D02*
X10162Y-46338D01*
X12627Y-37992D02*
X12627Y-42224D01*
G54D77*
X27696Y-34095D02*
X27148Y-34095D01*
X27148Y-34095D02*
X27054Y-34188D01*
X28110Y-34095D02*
X27696Y-34095D01*
X27696Y-34095D02*
X27657Y-34095D01*
X27696Y-34094D02*
X27657Y-34094D01*
X27658Y-34094D02*
X27696Y-34094D01*
X27657Y-34095D02*
X27658Y-34094D01*
G54D84*
X28114Y-35586D02*
X27751Y-35586D01*
X27657Y-33720D02*
X27440Y-33503D01*
X27657Y-35492D02*
X27657Y-34094D01*
X27657Y-34094D02*
X27657Y-33720D01*
X27751Y-35586D02*
X27657Y-35492D01*
X26580Y-35177D02*
X25139Y-35177D01*
X25139Y-35177D02*
X24395Y-34433D01*
X27054Y-34188D02*
X27054Y-34703D01*
X27054Y-34703D02*
X26580Y-35177D01*
X24395Y-34433D02*
X24395Y-34200D01*
G54D76*
X28114Y-35272D02*
X28114Y-35586D01*
G54D81*
X28112Y-36064D02*
X28112Y-36679D01*
G54D86*
X28112Y-36064D02*
X28114Y-36062D01*
G54D76*
X28114Y-35272D02*
X28110Y-35268D01*
G54D86*
X28114Y-35272D02*
X28110Y-35268D01*
G54D81*
X30415Y-37210D02*
X30415Y-36572D01*
X30415Y-36572D02*
X30489Y-36498D01*
G54D86*
X30415Y-36572D02*
X30489Y-36498D01*
G54D81*
X27659Y-37998D02*
X27187Y-37998D01*
X28112Y-37545D02*
X27659Y-37998D01*
X28112Y-37539D02*
X28112Y-37545D01*
X28112Y-36679D02*
X28112Y-37539D01*
X27054Y-33821D02*
X26559Y-33326D01*
X27054Y-34188D02*
X27054Y-33821D01*
X29954Y-37210D02*
X29822Y-37342D01*
X29822Y-37342D02*
X28799Y-37342D01*
X28799Y-37342D02*
X28602Y-37539D01*
X28602Y-37539D02*
X28112Y-37539D01*
X30415Y-37210D02*
X29954Y-37210D01*
G54D83*
X28188Y-31692D02*
X28188Y-30627D01*
X28188Y-30627D02*
X27305Y-29744D01*
X29251Y-32755D02*
X28188Y-31692D01*
X29251Y-33346D02*
X29251Y-32755D01*
G54D81*
X26349Y-37998D02*
X26323Y-37972D01*
X27187Y-37998D02*
X26349Y-37998D01*
G54D83*
X26761Y-46515D02*
X25580Y-46515D01*
G54D77*
X26761Y-46515D02*
X26761Y-47381D01*
X26761Y-47381D02*
X27370Y-47990D01*
X27370Y-47990D02*
X27739Y-47990D01*
G54D85*
X53188Y-47421D02*
X54350Y-47421D01*
X53188Y-46318D02*
X53188Y-47421D01*
X53188Y-46318D02*
X51771Y-46318D01*
X53169Y-38366D02*
X53169Y-39468D01*
X53169Y-39468D02*
X54330Y-39468D01*
X53169Y-38366D02*
X51751Y-38366D01*
G54D77*
X27739Y-48490D02*
X26767Y-48490D01*
X26767Y-48490D02*
X26761Y-48484D01*
X47972Y-47106D02*
X47460Y-47106D01*
X46690Y-47875D02*
X46266Y-47875D01*
X47460Y-47106D02*
X46690Y-47875D01*
G54D84*
X51771Y-47106D02*
X51771Y-48799D01*
G54D77*
X47970Y-47108D02*
X47972Y-47106D01*
G54D83*
X49980Y-47106D02*
X48681Y-47106D01*
X48681Y-47106D02*
X47972Y-47106D01*
X51771Y-47106D02*
X49980Y-47106D01*
G54D81*
X47381Y-47027D02*
X47460Y-47106D01*
X47381Y-45255D02*
X47381Y-47027D01*
X47578Y-45059D02*
X47381Y-45255D01*
X47677Y-45059D02*
X47578Y-45059D01*
G54D77*
X43785Y-39423D02*
X44146Y-39423D01*
G54D83*
X51751Y-39153D02*
X49960Y-39153D01*
X48661Y-39153D02*
X47952Y-39153D01*
X49960Y-39153D02*
X48661Y-39153D01*
G54D77*
X47950Y-39155D02*
X47952Y-39153D01*
G54D84*
X51751Y-39153D02*
X51751Y-40846D01*
G54D77*
X47440Y-39153D02*
X46671Y-39923D01*
X47500Y-39153D02*
X47440Y-39153D01*
X47952Y-39153D02*
X47500Y-39153D01*
G54D81*
X47362Y-39015D02*
X47500Y-39153D01*
X47362Y-37303D02*
X47362Y-39015D01*
X47559Y-37106D02*
X47362Y-37303D01*
X47657Y-37106D02*
X47559Y-37106D01*
G54D83*
X46299Y-48877D02*
X46299Y-49330D01*
X46299Y-49330D02*
X47007Y-50039D01*
G54D77*
X46266Y-47375D02*
X45931Y-47375D01*
X45708Y-48287D02*
X46299Y-48877D01*
X45708Y-47598D02*
X45708Y-48287D01*
X45931Y-47375D02*
X45708Y-47598D01*
X46266Y-46875D02*
X45466Y-46875D01*
X44960Y-47381D02*
X44960Y-48937D01*
X45466Y-46875D02*
X44960Y-47381D01*
G54D83*
X47007Y-51181D02*
X47007Y-50984D01*
X47007Y-50984D02*
X44960Y-48937D01*
X44960Y-48937D02*
X44901Y-48877D01*
X44901Y-48877D02*
X44330Y-48877D01*
G54D77*
X43714Y-38923D02*
X44146Y-38923D01*
X45688Y-40334D02*
X46279Y-40925D01*
G54D83*
X46279Y-41377D02*
X46988Y-42086D01*
X46279Y-40925D02*
X46279Y-41377D01*
G54D77*
X42893Y-38423D02*
X42911Y-38405D01*
X42911Y-38405D02*
X42913Y-38405D01*
X42913Y-38405D02*
X42893Y-38405D01*
X44146Y-38423D02*
X42893Y-38423D01*
G54D83*
X44881Y-40925D02*
X44311Y-40925D01*
X46988Y-43031D02*
X44940Y-40984D01*
X46988Y-43228D02*
X46988Y-43031D01*
X30816Y-48326D02*
X31998Y-48326D01*
G54D77*
X29839Y-48490D02*
X30653Y-48490D01*
X30653Y-48490D02*
X30816Y-48326D01*
G54D83*
X33159Y-48326D02*
X31998Y-48326D01*
G54D77*
X30816Y-50295D02*
X30816Y-48990D01*
X30797Y-49035D02*
X30797Y-48990D01*
X30797Y-49009D02*
X30797Y-49035D01*
X30816Y-48990D02*
X30797Y-49009D01*
X29839Y-48990D02*
X30797Y-48990D01*
G54D83*
X33637Y-48990D02*
X34301Y-48326D01*
X30797Y-48990D02*
X33637Y-48990D01*
G54D77*
X42933Y-48051D02*
X42933Y-47677D01*
X43734Y-46875D02*
X44166Y-46875D01*
X42933Y-47677D02*
X43734Y-46875D01*
G54D83*
X39862Y-46909D02*
X40944Y-46909D01*
X42933Y-48051D02*
X42086Y-48051D01*
X40944Y-46909D02*
X40944Y-45748D01*
X42086Y-48051D02*
X40944Y-46909D01*
X39181Y-45196D02*
X42362Y-45196D01*
X42362Y-45196D02*
X42913Y-45748D01*
X39181Y-45196D02*
X39122Y-45255D01*
G54D77*
X44166Y-46375D02*
X42913Y-46375D01*
X42933Y-46358D02*
X42913Y-46358D01*
X42931Y-46358D02*
X42933Y-46358D01*
X42913Y-46375D02*
X42931Y-46358D01*
G54D83*
X42913Y-45748D02*
X42913Y-46358D01*
X42913Y-46358D02*
X42913Y-46889D01*
X42913Y-46889D02*
X42933Y-46909D01*
G54D77*
X45911Y-39423D02*
X45688Y-39645D01*
X45688Y-39645D02*
X45688Y-40334D01*
X42913Y-39724D02*
X43714Y-38923D01*
G54D83*
X42066Y-40098D02*
X40925Y-38956D01*
X40925Y-38956D02*
X40925Y-37795D01*
X42913Y-40098D02*
X42066Y-40098D01*
X39842Y-38956D02*
X40925Y-38956D01*
G54D77*
X42913Y-40098D02*
X42913Y-39724D01*
X46246Y-39423D02*
X45911Y-39423D01*
X45446Y-38923D02*
X44940Y-39429D01*
X44940Y-39429D02*
X44940Y-40984D01*
G54D83*
X44940Y-40984D02*
X44881Y-40925D01*
X42893Y-38937D02*
X42913Y-38956D01*
X42893Y-38405D02*
X42893Y-38937D01*
X42893Y-37795D02*
X42893Y-38405D01*
X39358Y-37244D02*
X39102Y-37500D01*
X42893Y-37795D02*
X42342Y-37244D01*
X42342Y-37244D02*
X39358Y-37244D01*
G54D77*
X46246Y-38923D02*
X45446Y-38923D01*
G54D83*
X38622Y-47618D02*
X38622Y-50177D01*
X38622Y-50177D02*
X39133Y-50688D01*
X39133Y-50688D02*
X39704Y-50688D01*
X38622Y-45255D02*
X38622Y-47618D01*
X37834Y-47618D02*
X37834Y-49212D01*
G54D86*
X29293Y-40570D02*
X29498Y-40775D01*
X29498Y-40775D02*
X34315Y-40775D01*
X34315Y-40775D02*
X34705Y-41165D01*
X34705Y-41165D02*
X34705Y-46854D01*
X34705Y-46854D02*
X35469Y-47618D01*
X35469Y-47618D02*
X37834Y-47618D01*
X29293Y-39907D02*
X29293Y-40570D01*
G54D83*
X38602Y-42224D02*
X39114Y-42736D01*
X39114Y-42736D02*
X39685Y-42736D01*
X38602Y-39862D02*
X38602Y-42224D01*
X38602Y-39862D02*
X38602Y-37500D01*
X37814Y-39862D02*
X36496Y-39862D01*
G54D86*
X29490Y-40245D02*
X29578Y-40333D01*
X29578Y-40333D02*
X36025Y-40333D01*
X36025Y-40333D02*
X36496Y-39862D01*
X29490Y-39907D02*
X29490Y-40245D01*
G54D85*
X17346Y-50488D02*
X17956Y-50488D01*
X17956Y-50488D02*
X18370Y-50901D01*
G54D76*
X19094Y-50177D02*
X18370Y-50901D01*
X19094Y-47696D02*
X19094Y-50177D01*
X19978Y-46812D02*
X19094Y-47696D01*
X20203Y-46812D02*
X19978Y-46812D01*
G54D85*
X17346Y-49346D02*
X17956Y-49346D01*
X17956Y-49346D02*
X18370Y-48933D01*
G54D76*
X19809Y-46312D02*
X18740Y-47381D01*
X18740Y-47381D02*
X18740Y-48562D01*
X18740Y-48562D02*
X18370Y-48933D01*
X20203Y-46312D02*
X19809Y-46312D01*
X16257Y-46312D02*
X16165Y-46405D01*
X17125Y-46312D02*
X16257Y-46312D01*
X18103Y-46312D02*
X17125Y-46312D01*
X17145Y-46312D02*
X17125Y-46332D01*
X17125Y-46332D02*
X17125Y-46358D01*
X17125Y-46358D02*
X17125Y-46312D01*
X17145Y-46692D02*
X17145Y-46312D01*
X17173Y-45263D02*
X17722Y-45812D01*
X17722Y-45812D02*
X18103Y-45812D01*
X17145Y-45263D02*
X17173Y-45263D01*
X16165Y-45263D02*
X17145Y-45263D01*
X17145Y-45263D02*
X17145Y-44724D01*
G54D77*
X14602Y-40330D02*
X14602Y-40355D01*
G54D83*
X15015Y-39307D02*
X15015Y-39917D01*
X15015Y-39917D02*
X14602Y-40330D01*
G54D76*
X14602Y-40842D02*
X15076Y-41316D01*
X15076Y-41316D02*
X15540Y-41316D01*
X14602Y-40330D02*
X14602Y-40842D01*
G54D83*
X16157Y-39307D02*
X16157Y-39917D01*
X16157Y-39917D02*
X16570Y-40330D01*
G54D76*
X15978Y-41816D02*
X16570Y-41224D01*
X16570Y-41224D02*
X16570Y-40330D01*
X15540Y-41816D02*
X15978Y-41816D01*
G54D83*
X18828Y-39139D02*
X18820Y-39147D01*
X18828Y-38120D02*
X18828Y-39139D01*
G54D76*
X18291Y-41816D02*
X18820Y-41287D01*
X18820Y-41287D02*
X18820Y-39147D01*
X17640Y-41816D02*
X18291Y-41816D01*
G54D83*
X20141Y-39147D02*
X19970Y-38976D01*
X19970Y-38976D02*
X19970Y-38120D01*
X20789Y-39147D02*
X20141Y-39147D01*
G54D76*
X18568Y-42316D02*
X19970Y-40915D01*
X19970Y-40915D02*
X19970Y-38976D01*
X17640Y-42316D02*
X18568Y-42316D01*
G54D85*
X14275Y-49346D02*
X14275Y-50488D01*
G54D83*
X14275Y-51649D02*
X14094Y-51830D01*
X14275Y-50488D02*
X14275Y-51649D01*
X13307Y-51830D02*
X13307Y-50413D01*
X12043Y-51830D02*
X13307Y-51830D01*
G54D85*
X13094Y-45263D02*
X13094Y-46405D01*
G54D83*
X14094Y-44263D02*
X13094Y-45263D01*
X14094Y-43484D02*
X14094Y-44263D01*
X13307Y-43484D02*
X13307Y-42047D01*
X12043Y-43484D02*
X13307Y-43484D01*
X15015Y-36236D02*
X16157Y-36236D01*
X15885Y-35964D02*
X16157Y-36236D01*
X15885Y-34803D02*
X15885Y-35964D01*
G54D81*
X13011Y-33720D02*
X13011Y-34389D01*
X13425Y-34803D02*
X15098Y-34803D01*
X13011Y-34389D02*
X13425Y-34803D01*
G54D83*
X19970Y-35049D02*
X18828Y-35049D01*
X18316Y-35049D02*
X15885Y-32618D01*
X18828Y-35049D02*
X18316Y-35049D01*
G54D81*
X13208Y-31870D02*
X13208Y-32224D01*
X13602Y-32618D02*
X15098Y-32618D01*
X13208Y-32224D02*
X13602Y-32618D01*
G54D86*
X13208Y-33720D02*
X13208Y-34212D01*
X13208Y-34212D02*
X13543Y-34547D01*
G54D81*
X11732Y-33720D02*
X11358Y-34094D01*
X12814Y-33720D02*
X11732Y-33720D01*
G54D83*
X8976Y-35767D02*
X9645Y-35767D01*
X10570Y-34842D02*
X10570Y-34094D01*
X9645Y-35767D02*
X10570Y-34842D01*
X10570Y-34094D02*
X10570Y-34173D01*
G54D79*
X10570Y-34094D02*
X8557Y-34094D01*
X8557Y-34094D02*
X6637Y-36013D01*
G54D81*
X13011Y-32224D02*
X12933Y-32303D01*
X12933Y-32303D02*
X12125Y-32303D01*
X12125Y-32303D02*
X11358Y-31535D01*
X13011Y-31870D02*
X13011Y-32224D01*
G54D83*
X8976Y-29862D02*
X9566Y-29862D01*
X10570Y-30866D02*
X10570Y-31535D01*
X9566Y-29862D02*
X10570Y-30866D01*
G54D79*
X10570Y-31535D02*
X8616Y-31535D01*
X8616Y-31535D02*
X4137Y-36013D01*
G54D86*
X28112Y-40387D02*
X27736Y-40763D01*
X27736Y-40763D02*
X26326Y-40763D01*
X26326Y-40763D02*
X25848Y-41242D01*
X28112Y-39907D02*
X28112Y-40387D01*
X28309Y-40462D02*
X27529Y-41242D01*
X27529Y-41242D02*
X27029Y-41242D01*
X28309Y-39907D02*
X28309Y-40462D01*
G54D77*
X25767Y-44822D02*
X26279Y-44822D01*
X27637Y-41814D02*
X28210Y-41242D01*
X27637Y-43464D02*
X27637Y-41814D01*
X26279Y-44822D02*
X27637Y-43464D01*
G54D86*
X28505Y-40946D02*
X28210Y-41242D01*
X28505Y-39907D02*
X28505Y-40946D01*
X28702Y-41108D02*
X29389Y-41795D01*
X28702Y-39907D02*
X28702Y-41108D01*
X30172Y-41397D02*
X30570Y-41795D01*
X28899Y-39907D02*
X28899Y-40928D01*
X28899Y-40928D02*
X29368Y-41397D01*
X29368Y-41397D02*
X30172Y-41397D01*
G54D76*
X32397Y-43622D02*
X30570Y-41795D01*
X33031Y-43622D02*
X32397Y-43622D01*
G54D86*
X31175Y-41216D02*
X31753Y-41795D01*
X29096Y-39907D02*
X29096Y-40870D01*
X29096Y-40870D02*
X29442Y-41216D01*
X29442Y-41216D02*
X31175Y-41216D01*
G54D76*
X32673Y-41795D02*
X33031Y-41437D01*
X31753Y-41795D02*
X32673Y-41795D01*
G54D87*
X57068Y-9492D02*
X48106Y-9492D01*
X57187Y-9374D02*
X57068Y-9492D01*
X47255Y-8070D02*
X47059Y-7874D01*
X47255Y-8641D02*
X47255Y-8070D01*
X48106Y-9492D02*
X47255Y-8641D01*
X57214Y-9374D02*
X57187Y-9374D01*
X57214Y-9374D02*
X57175Y-9374D01*
G54D86*
X57490Y-8007D02*
X57490Y-9098D01*
X57490Y-9098D02*
X57214Y-9374D01*
G54D87*
X57734Y-9582D02*
X48069Y-9582D01*
X57942Y-9374D02*
X57734Y-9582D01*
X47059Y-8572D02*
X47059Y-8267D01*
X48069Y-9582D02*
X47059Y-8572D01*
X57962Y-9374D02*
X57942Y-9374D01*
G54D86*
X57687Y-8007D02*
X57687Y-9098D01*
X57687Y-9098D02*
X57962Y-9374D01*
G54D87*
X48140Y-7244D02*
X47128Y-7244D01*
X49409Y-5975D02*
X48140Y-7244D01*
X49409Y-5374D02*
X49409Y-5975D01*
X46665Y-7707D02*
X46665Y-7874D01*
X47128Y-7244D02*
X46665Y-7707D01*
X49409Y-5374D02*
X49389Y-5374D01*
G54D81*
X49685Y-4015D02*
X49685Y-5098D01*
X49685Y-5098D02*
X49409Y-5374D01*
G54D87*
X48177Y-7334D02*
X47165Y-7334D01*
X50137Y-5374D02*
X48177Y-7334D01*
X46862Y-8070D02*
X46665Y-8267D01*
X46862Y-7637D02*
X46862Y-8070D01*
X47165Y-7334D02*
X46862Y-7637D01*
X50157Y-5374D02*
X50137Y-5374D01*
G54D81*
X49881Y-4015D02*
X49881Y-5098D01*
X49881Y-5098D02*
X50157Y-5374D01*
G54D82*
X5629Y-9291D02*
X5610Y-9311D01*
X7224Y-9291D02*
X5629Y-9291D01*
G54D78*
X13602Y-9291D02*
X13602Y-11653D01*
G54D76*
X22874Y-8629D02*
X22874Y-8997D01*
X22874Y-8997D02*
X22874Y-8956D01*
X22874Y-8956D02*
X22874Y-8997D01*
G54D77*
X22066Y-8997D02*
X22874Y-8997D01*
X22874Y-8997D02*
X24790Y-8997D01*
X24790Y-8997D02*
X26011Y-7775D01*
G54D76*
X22874Y-7669D02*
X22874Y-7397D01*
X23145Y-7125D02*
X25011Y-7125D01*
X22874Y-7397D02*
X23145Y-7125D01*
G54D77*
X27696Y-5511D02*
X26625Y-5511D01*
X25011Y-7125D02*
X25011Y-7775D01*
X26625Y-5511D02*
X25011Y-7125D01*
G54D76*
X18287Y-6908D02*
X19187Y-6908D01*
X19187Y-6908D02*
X19188Y-6909D01*
X18180Y-5944D02*
X18789Y-5944D01*
G54D77*
X18180Y-5944D02*
X18180Y-2819D01*
X18180Y-2819D02*
X18208Y-2790D01*
X18180Y-5944D02*
X18180Y-6801D01*
X18180Y-6801D02*
X18287Y-6908D01*
X18208Y-2790D02*
X18208Y-2492D01*
X18208Y-2492D02*
X17807Y-2090D01*
X18208Y-5916D02*
X18180Y-5944D01*
G54D76*
X16441Y-6929D02*
X17321Y-6929D01*
X17321Y-6929D02*
X17322Y-6928D01*
X16820Y-5944D02*
X17430Y-5944D01*
G54D77*
X17430Y-5944D02*
X17430Y-2815D01*
X17430Y-2815D02*
X17405Y-2790D01*
X17430Y-5944D02*
X17430Y-6820D01*
X17430Y-6820D02*
X17322Y-6928D01*
X17405Y-2790D02*
X17405Y-2492D01*
X17405Y-2492D02*
X17003Y-2090D01*
X17405Y-5920D02*
X17430Y-5944D01*
G54D84*
X51377Y-777D02*
X51377Y-2923D01*
X47874Y-777D02*
X51377Y-777D01*
X47874Y-777D02*
X47874Y-2923D01*
X47028Y-767D02*
X47864Y-767D01*
X47864Y-767D02*
X47874Y-777D01*
G54D77*
X47864Y-767D02*
X47874Y-777D01*
X55631Y-4221D02*
X56475Y-4221D01*
X56475Y-4221D02*
X56517Y-4263D01*
X56514Y-7016D02*
X56517Y-7019D01*
X56517Y-4263D02*
X56517Y-7019D01*
X58659Y-5539D02*
X58659Y-7019D01*
X58651Y-5531D02*
X58659Y-5539D01*
X58659Y-4263D02*
X58659Y-4259D01*
X58659Y-4259D02*
X58336Y-3937D01*
X56844Y-3937D02*
X56517Y-4263D01*
X58336Y-3937D02*
X56844Y-3937D01*
G54D79*
X58399Y-46318D02*
X58401Y-46316D01*
X56259Y-46318D02*
X58399Y-46318D01*
X58401Y-49935D02*
X55748Y-52588D01*
X55748Y-52588D02*
X11643Y-52588D01*
X11643Y-52588D02*
X11033Y-51978D01*
X11033Y-51978D02*
X11033Y-51108D01*
X11033Y-51108D02*
X12043Y-50098D01*
X58401Y-46316D02*
X58401Y-49935D01*
X56240Y-38366D02*
X58005Y-38366D01*
X58005Y-38366D02*
X58401Y-37970D01*
X58401Y-37970D02*
X58738Y-37970D01*
X10423Y-53356D02*
X8838Y-51771D01*
X8838Y-51771D02*
X8838Y-45246D01*
X8838Y-45246D02*
X12043Y-42041D01*
X12043Y-42041D02*
X12043Y-41751D01*
X58738Y-37970D02*
X64547Y-43779D01*
X58129Y-51437D02*
X56210Y-53356D01*
X62185Y-51437D02*
X58129Y-51437D01*
X64547Y-49074D02*
X62185Y-51437D01*
X64547Y-43779D02*
X64547Y-49074D01*
X56210Y-53356D02*
X10423Y-53356D01*
G54D86*
X58037Y-7342D02*
X57687Y-7692D01*
X57588Y-5338D02*
X57588Y-5488D01*
X57588Y-5488D02*
X58037Y-5937D01*
X58037Y-5937D02*
X58037Y-7342D01*
X57139Y-7342D02*
X57490Y-7692D01*
X57442Y-6125D02*
X57139Y-6429D01*
X57139Y-6429D02*
X57139Y-7342D01*
X57588Y-6125D02*
X57442Y-6125D01*
X49881Y-3700D02*
X49881Y-3464D01*
X49881Y-3464D02*
X49940Y-3405D01*
X49940Y-3405D02*
X49940Y-2972D01*
X49685Y-3700D02*
X49685Y-3464D01*
X49685Y-3464D02*
X49625Y-3405D01*
X49625Y-3405D02*
X49625Y-2972D01*
G54D77*
X37342Y-5511D02*
X35493Y-5511D01*
X35493Y-5511D02*
X35099Y-5118D01*
X35099Y-6338D02*
X40452Y-6338D01*
X40452Y-6338D02*
X41279Y-5511D01*
X22066Y-8247D02*
X22066Y-7204D01*
X22066Y-7204D02*
X23759Y-5511D01*
G54D81*
X30262Y-25242D02*
X30910Y-25889D01*
X29870Y-25242D02*
X30262Y-25242D01*
X30910Y-26451D02*
X30910Y-26586D01*
X30196Y-25738D02*
X30910Y-26451D01*
X29370Y-25738D02*
X30196Y-25738D01*
X28874Y-25242D02*
X29370Y-25738D01*
X28870Y-25242D02*
X28874Y-25242D01*
X30656Y-24242D02*
X30910Y-24496D01*
X29870Y-24242D02*
X30656Y-24242D01*
X30461Y-24744D02*
X30910Y-25192D01*
X29370Y-24744D02*
X30461Y-24744D01*
X28870Y-24244D02*
X29370Y-24744D01*
X28870Y-24242D02*
X28870Y-24244D01*
X30770Y-23242D02*
X30910Y-23102D01*
X29870Y-23242D02*
X30770Y-23242D01*
G54D87*
X30864Y-23799D02*
X30910Y-23799D01*
G54D81*
X30851Y-23740D02*
X30910Y-23799D01*
X29370Y-23740D02*
X30851Y-23740D01*
X28872Y-23242D02*
X29370Y-23740D01*
X28870Y-23242D02*
X28872Y-23242D01*
G54D87*
X30814Y-21612D02*
X30910Y-21708D01*
G54D81*
X30377Y-22242D02*
X30910Y-21708D01*
X29870Y-22242D02*
X30377Y-22242D01*
X30579Y-22736D02*
X30910Y-22405D01*
X29370Y-22736D02*
X30579Y-22736D01*
X28875Y-22242D02*
X29370Y-22736D01*
X28870Y-22242D02*
X28875Y-22242D01*
X30682Y-21242D02*
X30910Y-21013D01*
X29870Y-21242D02*
X30682Y-21242D01*
X30906Y-19612D02*
X30910Y-19616D01*
X30284Y-20242D02*
X30910Y-19616D01*
X29870Y-20242D02*
X30284Y-20242D01*
X30093Y-19734D02*
X30910Y-18917D01*
X29379Y-19734D02*
X30093Y-19734D01*
X28872Y-20242D02*
X29379Y-19734D01*
X28870Y-20242D02*
X28872Y-20242D01*
G54D86*
X20748Y-9936D02*
X26181Y-9936D01*
G54D76*
X20103Y-9940D02*
X20743Y-9940D01*
X20743Y-9940D02*
X20748Y-9936D01*
G54D81*
X30438Y-17746D02*
X30910Y-18218D01*
X29370Y-17746D02*
X30438Y-17746D01*
X28874Y-18242D02*
X29370Y-17746D01*
X28870Y-18242D02*
X28874Y-18242D01*
G54D86*
X20103Y-8444D02*
X20227Y-8444D01*
X20227Y-8444D02*
X21319Y-9536D01*
X21319Y-9536D02*
X26016Y-9536D01*
G54D81*
X30633Y-17242D02*
X30910Y-17519D01*
X29870Y-17242D02*
X30633Y-17242D01*
G54D86*
X20103Y-9192D02*
X20692Y-9192D01*
X21236Y-9736D02*
X26099Y-9736D01*
X20692Y-9192D02*
X21236Y-9736D01*
G54D81*
X30839Y-16761D02*
X30896Y-16818D01*
X29399Y-16761D02*
X30839Y-16761D01*
X28919Y-17242D02*
X29399Y-16761D01*
X28870Y-17242D02*
X28919Y-17242D01*
G54D76*
X16082Y-29744D02*
X16432Y-29744D01*
X1637Y-29624D02*
X2698Y-28562D01*
X2698Y-28562D02*
X16082Y-28562D01*
X16082Y-29744D02*
X15733Y-29744D01*
X33622Y-6323D02*
X33252Y-6323D01*
X33252Y-6323D02*
X32952Y-6023D01*
X33622Y-6323D02*
X34334Y-6323D01*
X34334Y-6323D02*
X34349Y-6338D01*
X31456Y-5654D02*
X30831Y-5654D01*
X30831Y-5654D02*
X30767Y-5590D01*
X31456Y-5654D02*
X32080Y-5654D01*
X32080Y-5654D02*
X32086Y-5648D01*
X32048Y-5610D02*
X32086Y-5648D01*
G54D83*
X39862Y-48051D02*
X39862Y-49330D01*
X41220Y-50688D02*
X41692Y-50688D01*
X39862Y-49330D02*
X41220Y-50688D01*
X41692Y-51188D02*
X39704Y-51188D01*
X41692Y-51188D02*
X43929Y-51188D01*
X43929Y-51188D02*
X43937Y-51181D01*
X43937Y-50039D02*
X43937Y-50413D01*
X43937Y-50413D02*
X43937Y-51181D01*
X39842Y-41377D02*
X41200Y-42736D01*
X41200Y-42736D02*
X41673Y-42736D01*
X39842Y-40098D02*
X39842Y-41377D01*
X43917Y-42460D02*
X43917Y-43228D01*
X43917Y-42086D02*
X43917Y-42460D01*
X43909Y-43236D02*
X43917Y-43228D01*
X41673Y-43236D02*
X43909Y-43236D01*
X41673Y-43236D02*
X39685Y-43236D01*
G54D84*
X38253Y-35454D02*
X38253Y-32108D01*
X38253Y-32108D02*
X37683Y-31537D01*
X38253Y-35454D02*
X38824Y-35454D01*
X37683Y-35454D02*
X38253Y-35454D01*
G54D77*
X36816Y-31161D02*
X36817Y-31162D01*
X36816Y-30564D02*
X36816Y-31161D01*
G54D84*
X44631Y-35454D02*
X44631Y-32108D01*
X44631Y-32108D02*
X44060Y-31537D01*
X44631Y-35454D02*
X45202Y-35454D01*
X44061Y-35454D02*
X44631Y-35454D01*
G54D77*
X43194Y-31161D02*
X43194Y-31162D01*
X43194Y-30564D02*
X43194Y-31161D01*
G54D84*
X51019Y-35454D02*
X51019Y-32108D01*
X51019Y-32108D02*
X50448Y-31537D01*
X50448Y-35454D02*
X51019Y-35454D01*
X51019Y-35454D02*
X51590Y-35454D01*
G54D77*
X49581Y-31161D02*
X49582Y-31162D01*
X49581Y-30564D02*
X49581Y-31161D01*
G54D84*
X57397Y-35454D02*
X57397Y-32108D01*
X57397Y-32108D02*
X56826Y-31537D01*
X56826Y-35454D02*
X57397Y-35454D01*
X57397Y-35454D02*
X57968Y-35454D01*
G54D77*
X55959Y-31161D02*
X55960Y-31162D01*
X55959Y-30564D02*
X55959Y-31161D01*
G54D84*
X41442Y-35454D02*
X41442Y-32108D01*
X41442Y-32108D02*
X40871Y-31537D01*
X41442Y-35454D02*
X42013Y-35454D01*
X40872Y-35454D02*
X41442Y-35454D01*
G54D77*
X40005Y-31161D02*
X40005Y-31162D01*
X40005Y-30564D02*
X40005Y-31161D01*
G54D84*
X47820Y-35454D02*
X47820Y-32108D01*
X47820Y-32108D02*
X47249Y-31537D01*
X47820Y-35454D02*
X48391Y-35454D01*
X47250Y-35454D02*
X47820Y-35454D01*
G54D77*
X46383Y-31161D02*
X46383Y-31162D01*
X46383Y-30564D02*
X46383Y-31161D01*
G54D84*
X54208Y-35454D02*
X54208Y-32108D01*
X54208Y-32108D02*
X53637Y-31537D01*
X53637Y-35454D02*
X54208Y-35454D01*
X54208Y-35454D02*
X54779Y-35454D01*
G54D77*
X52770Y-31161D02*
X52771Y-31162D01*
X52770Y-30564D02*
X52770Y-31161D01*
G54D84*
X60586Y-35454D02*
X60586Y-32108D01*
X60586Y-32108D02*
X60015Y-31537D01*
X60015Y-35454D02*
X60586Y-35454D01*
X60586Y-35454D02*
X61157Y-35454D01*
G54D77*
X59148Y-31161D02*
X59149Y-31162D01*
X59148Y-30564D02*
X59148Y-31161D01*
G54D76*
X18287Y-7658D02*
X18287Y-8267D01*
X17112Y-9442D02*
X16745Y-9442D01*
X18287Y-8267D02*
X17112Y-9442D01*
X17322Y-7678D02*
X17322Y-8681D01*
X17061Y-8942D02*
X16745Y-8942D01*
X17322Y-8681D02*
X17061Y-8942D01*
X18845Y-9942D02*
X19501Y-9942D01*
X19501Y-9942D02*
X19503Y-9940D01*
X18845Y-9192D02*
X19503Y-9192D01*
X18845Y-8942D02*
X18845Y-9192D01*
X18845Y-9192D02*
X18845Y-9442D01*
X18845Y-8442D02*
X19501Y-8442D01*
X19501Y-8442D02*
X19503Y-8444D01*
G54D88*
X28505Y-35826D02*
X27854Y-35826D01*
X27492Y-36188D02*
X27054Y-36188D01*
X27854Y-35826D02*
X27492Y-36188D01*
G54D86*
X28505Y-36679D02*
X28505Y-35826D01*
G54D77*
X43794Y-30564D02*
X44286Y-30564D01*
X46983Y-30564D02*
X47475Y-30564D01*
X40605Y-30564D02*
X41107Y-30564D01*
X37416Y-30564D02*
X37918Y-30564D01*
X56559Y-30564D02*
X57052Y-30564D01*
X59748Y-30564D02*
X60241Y-30564D01*
X53370Y-30564D02*
X53873Y-30564D01*
X50181Y-30564D02*
X50674Y-30564D01*
G54D76*
X61048Y-7913D02*
X61068Y-7933D01*
X60969Y-7834D02*
X61068Y-7933D01*
X59872Y-7933D02*
X59970Y-7834D01*
X59872Y-7933D02*
X59872Y-8220D01*
X60969Y-7834D02*
X59970Y-7834D01*
X60247Y-9220D02*
X61056Y-9220D01*
X61056Y-9220D02*
X61068Y-9232D01*
X61068Y-9232D02*
X61068Y-9872D01*
X61068Y-9872D02*
X61072Y-9877D01*
X61060Y-9240D02*
X61068Y-9232D01*
G54D86*
X27187Y-37210D02*
X27187Y-37206D01*
X26427Y-36736D02*
X24285Y-36736D01*
X24285Y-36736D02*
X23917Y-36368D01*
X23917Y-36368D02*
X23917Y-33996D01*
X23917Y-33996D02*
X25492Y-32421D01*
X26901Y-37210D02*
X26427Y-36736D01*
X27187Y-37210D02*
X26901Y-37210D01*
X24211Y-36916D02*
X23737Y-36442D01*
X23737Y-36442D02*
X23737Y-33921D01*
X23737Y-33921D02*
X25324Y-32334D01*
X27187Y-37407D02*
X26843Y-37407D01*
X26843Y-37407D02*
X26352Y-36916D01*
X26352Y-36916D02*
X24211Y-36916D01*
X26786Y-37604D02*
X26278Y-37096D01*
X26278Y-37096D02*
X24493Y-37096D01*
X24493Y-37096D02*
X24232Y-37357D01*
X27187Y-37604D02*
X26786Y-37604D01*
X26728Y-37801D02*
X26284Y-37357D01*
X26284Y-37357D02*
X24921Y-37357D01*
X27187Y-37801D02*
X26728Y-37801D01*
G54D77*
X26978Y-49586D02*
X26978Y-49429D01*
X26978Y-49429D02*
X27417Y-48990D01*
X27417Y-48990D02*
X27739Y-48990D01*
X29839Y-50859D02*
X29301Y-51397D01*
X29839Y-49490D02*
X29839Y-50859D01*
X43602Y-48169D02*
X43602Y-47578D01*
X42972Y-48799D02*
X43602Y-48169D01*
X43805Y-47375D02*
X44166Y-47375D01*
X43602Y-47578D02*
X43805Y-47375D01*
X43582Y-40216D02*
X43582Y-39625D01*
X43582Y-39625D02*
X43785Y-39423D01*
X42952Y-40846D02*
X43582Y-40216D01*
X46671Y-39923D02*
X46246Y-39923D01*
G54D86*
X28899Y-36679D02*
X28899Y-37033D01*
X29687Y-37025D02*
X29687Y-36679D01*
X29603Y-37109D02*
X29687Y-37025D01*
X28975Y-37109D02*
X29603Y-37109D01*
X28899Y-37033D02*
X28975Y-37109D01*
G54D76*
X21852Y-39051D02*
X20413Y-40489D01*
X20413Y-42795D02*
X20413Y-43484D01*
X20413Y-40489D02*
X20413Y-42795D01*
X20413Y-43484D02*
X18584Y-45312D01*
X18584Y-45312D02*
X18103Y-45312D01*
G54D86*
X29112Y-37604D02*
X27665Y-39051D01*
X30415Y-37604D02*
X29112Y-37604D01*
G54D81*
X24090Y-39051D02*
X26708Y-39051D01*
G54D76*
X21940Y-39051D02*
X21852Y-39051D01*
X20391Y-42816D02*
X20413Y-42795D01*
X17640Y-42816D02*
X20391Y-42816D01*
X21937Y-39381D02*
X20787Y-40531D01*
X20787Y-40531D02*
X20787Y-43188D01*
X16332Y-42316D02*
X15540Y-42316D01*
X17204Y-43188D02*
X20118Y-43188D01*
X16332Y-42316D02*
X17204Y-43188D01*
G54D86*
X30415Y-37801D02*
X29245Y-37801D01*
X27664Y-39381D02*
X27665Y-39381D01*
X29245Y-37801D02*
X27664Y-39381D01*
G54D81*
X24090Y-39381D02*
X26708Y-39381D01*
G54D76*
X21940Y-39381D02*
X21937Y-39381D01*
X20787Y-45541D02*
X20515Y-45812D01*
X20515Y-45812D02*
X20203Y-45812D01*
X20787Y-43188D02*
X20787Y-45541D01*
X13016Y-6131D02*
X13016Y-5005D01*
X13016Y-5005D02*
X13011Y-5000D01*
G54D85*
X13011Y-5000D02*
X14392Y-5000D01*
X14392Y-5000D02*
X16602Y-2790D01*
X9842Y-5000D02*
X13011Y-5000D01*
G54D83*
X16602Y-2790D02*
X16602Y-2492D01*
X16602Y-2492D02*
X16200Y-2090D01*
G54D82*
X9842Y-9271D02*
X9822Y-9291D01*
X9842Y-5000D02*
X9842Y-9271D01*
X9822Y-9291D02*
X11003Y-9291D01*
G54D81*
X9562Y-37992D02*
X8897Y-37992D01*
X1243Y-28322D02*
X13901Y-28322D01*
X452Y-29114D02*
X1243Y-28322D01*
X452Y-36446D02*
X452Y-29114D01*
X994Y-36988D02*
X452Y-36446D01*
X7893Y-36988D02*
X994Y-36988D01*
X8897Y-37992D02*
X7893Y-36988D01*
G54D84*
X12043Y-48838D02*
X12043Y-47653D01*
X12043Y-47653D02*
X11929Y-47539D01*
X12043Y-40492D02*
X12043Y-39307D01*
X12043Y-39307D02*
X11929Y-39192D01*
G54D81*
X1013Y-45334D02*
X252Y-44573D01*
X252Y-44573D02*
X252Y-29031D01*
X252Y-29031D02*
X1161Y-28122D01*
X1161Y-28122D02*
X13825Y-28122D01*
X9562Y-46338D02*
X9562Y-45644D01*
X9562Y-45644D02*
X9360Y-45442D01*
X8336Y-45334D02*
X1013Y-45334D01*
G54D84*
X49980Y-47606D02*
X49980Y-48799D01*
X47972Y-47606D02*
X47972Y-48799D01*
X49960Y-39653D02*
X49960Y-40846D01*
X47952Y-39653D02*
X47952Y-40846D01*
G54D86*
X13519Y-31519D02*
X15507Y-31519D01*
X13405Y-31633D02*
X13519Y-31519D01*
X13405Y-31870D02*
X13405Y-31633D01*
X15766Y-31260D02*
X15870Y-31260D01*
G54D83*
X20354Y-31692D02*
X20354Y-30607D01*
X20354Y-30607D02*
X21218Y-29744D01*
X30157Y-31692D02*
X30157Y-30666D01*
X30157Y-30666D02*
X30135Y-30644D01*
G54D77*
X57946Y-30564D02*
X57952Y-30570D01*
X57652Y-30564D02*
X57946Y-30564D01*
X44886Y-30564D02*
X45190Y-30564D01*
X45190Y-30564D02*
X45196Y-30570D01*
G54D76*
X36817Y-31912D02*
X37201Y-31912D01*
X37201Y-31912D02*
X37204Y-31909D01*
X40005Y-31912D02*
X40390Y-31912D01*
X40390Y-31912D02*
X40393Y-31909D01*
X43194Y-31912D02*
X43579Y-31912D01*
X43579Y-31912D02*
X43582Y-31909D01*
X46383Y-31912D02*
X46768Y-31912D01*
X46768Y-31912D02*
X46771Y-31909D01*
X49582Y-31912D02*
X49957Y-31912D01*
X49957Y-31912D02*
X49960Y-31909D01*
X52771Y-31912D02*
X53146Y-31912D01*
X53146Y-31912D02*
X53149Y-31909D01*
X55960Y-31912D02*
X56335Y-31912D01*
X56335Y-31912D02*
X56338Y-31909D01*
X59149Y-31912D02*
X59524Y-31912D01*
X59524Y-31912D02*
X59527Y-31909D01*
G54D77*
X28110Y-33345D02*
X28110Y-32913D01*
G54D81*
X28309Y-36679D02*
X28309Y-37108D01*
G54D86*
X28309Y-37108D02*
X28405Y-37204D01*
G54D81*
X28869Y-19243D02*
X28870Y-19242D01*
G54D84*
X25484Y-36188D02*
X24415Y-36188D01*
X24415Y-36188D02*
X24395Y-36169D01*
G54D77*
X31089Y-36498D02*
X31513Y-36498D01*
X31513Y-36498D02*
X31515Y-36496D01*
G54D78*
X23757Y-15118D02*
X23757Y-16572D01*
X23757Y-16572D02*
X23759Y-16574D01*
X23757Y-15118D02*
X21948Y-15118D01*
X23757Y-15118D02*
X25688Y-15118D01*
X23757Y-15118D02*
X23757Y-13309D01*
X23757Y-13309D02*
X23759Y-13307D01*
G54D76*
X16361Y-30393D02*
X16361Y-30845D01*
X16361Y-30845D02*
X16362Y-30846D01*
G54D77*
X55631Y-3471D02*
X55631Y-3078D01*
G54D76*
X49409Y-4704D02*
X49074Y-4704D01*
X57214Y-8704D02*
X56879Y-8704D01*
X61668Y-7933D02*
X62017Y-7933D01*
G54D77*
X59872Y-9220D02*
X59872Y-8759D01*
G54D76*
X61668Y-9232D02*
X62017Y-9232D01*
G54D77*
X46278Y-767D02*
X45858Y-767D01*
X29247Y-9980D02*
X28897Y-9980D01*
G54D76*
X32086Y-6398D02*
X31200Y-6398D01*
X31200Y-6398D02*
X31142Y-6456D01*
X32085Y-6397D02*
X32086Y-6398D01*
X32086Y-6398D02*
X32499Y-6398D01*
X32499Y-6398D02*
X32500Y-6397D01*
X43543Y-1737D02*
X43543Y-2086D01*
X21496Y-1737D02*
X21496Y-1751D01*
X21496Y-1751D02*
X20807Y-2440D01*
X20743Y-10531D02*
X20748Y-10536D01*
X15487Y-9940D02*
X15487Y-9492D01*
X15487Y-9492D02*
X15492Y-9488D01*
X16745Y-8442D02*
X16745Y-8136D01*
X16745Y-8136D02*
X16751Y-8129D01*
X19788Y-6909D02*
X20137Y-6909D01*
X20108Y-5944D02*
X20492Y-5944D01*
X15501Y-5944D02*
X15118Y-5944D01*
X13616Y-6131D02*
X13966Y-6131D01*
X13966Y-6131D02*
X13976Y-6141D01*
G54D83*
X19011Y-2790D02*
X19011Y-2492D01*
X19011Y-2492D02*
X18610Y-2090D01*
G54D81*
X13602Y-33720D02*
X13877Y-33720D01*
G54D77*
X20925Y-23390D02*
X20925Y-23759D01*
X44166Y-47875D02*
X44166Y-48261D01*
X44166Y-48261D02*
X44173Y-48267D01*
X44146Y-40308D02*
X44153Y-40314D01*
X44146Y-39923D02*
X44146Y-40308D01*
G54D81*
X27657Y-19243D02*
X28869Y-19243D01*
G54D88*
X30160Y-40162D02*
X30110Y-40112D01*
X35954Y-40162D02*
X30160Y-40162D01*
X36073Y-40044D02*
X35954Y-40162D01*
X36073Y-39972D02*
X36073Y-40044D01*
X37348Y-47448D02*
X37401Y-47396D01*
X29590Y-40554D02*
X29590Y-40554D01*
X29584Y-40945D02*
X29534Y-40996D01*
X34244Y-40945D02*
X29584Y-40945D01*
X34534Y-41235D02*
X34244Y-40945D01*
X34534Y-46924D02*
X34534Y-41235D01*
X35398Y-47788D02*
X34534Y-46924D01*
X37344Y-47788D02*
X35398Y-47788D01*
X37394Y-47839D02*
X37344Y-47788D01*
X37401Y-47839D02*
X37394Y-47839D01*
X36117Y-40554D02*
X36386Y-40285D01*
X34332Y-40554D02*
X36117Y-40554D01*
X29590Y-40554D02*
X34332Y-40554D01*
X34875Y-41094D02*
X34334Y-40554D01*
X34334Y-40554D02*
X34334Y-40554D01*
X34334Y-40554D02*
X34332Y-40552D01*
X34332Y-40552D02*
X34332Y-40554D01*
X34875Y-46783D02*
X35539Y-47448D01*
X37348Y-47448D02*
X35539Y-47448D01*
X34875Y-46783D02*
X34875Y-41094D01*
G54D86*
X30962Y-37998D02*
X30966Y-37994D01*
G54D81*
X30962Y-37998D02*
X30966Y-37994D01*
X30415Y-37998D02*
X30962Y-37998D01*
G54D86*
X30765Y-38194D02*
X30966Y-37994D01*
X30415Y-38194D02*
X30765Y-38194D01*
X27718Y-39907D02*
X27678Y-39907D01*
G54D76*
X20203Y-44934D02*
X20216Y-44921D01*
X20203Y-45312D02*
X20203Y-44934D01*
X16070Y-42816D02*
X16072Y-42814D01*
X15540Y-42816D02*
X16070Y-42816D01*
G54D84*
X37564Y-32501D02*
X37683Y-32383D01*
X36659Y-32501D02*
X37564Y-32501D01*
X43942Y-32501D02*
X44061Y-32383D01*
X43037Y-32501D02*
X43942Y-32501D01*
X49425Y-32501D02*
X50330Y-32501D01*
X50330Y-32501D02*
X50448Y-32383D01*
X55803Y-32501D02*
X56708Y-32501D01*
X56708Y-32501D02*
X56826Y-32383D01*
X40753Y-32501D02*
X40872Y-32383D01*
X39848Y-32501D02*
X40753Y-32501D01*
X47131Y-32501D02*
X47250Y-32383D01*
X46226Y-32501D02*
X47131Y-32501D01*
X52614Y-32501D02*
X53519Y-32501D01*
X53519Y-32501D02*
X53637Y-32383D01*
X58992Y-32501D02*
X59897Y-32501D01*
X59897Y-32501D02*
X60015Y-32383D01*
G54D81*
X30487Y-20738D02*
X30910Y-20314D01*
X29370Y-20738D02*
X30487Y-20738D01*
X28870Y-21238D02*
X29370Y-20738D01*
X28870Y-21242D02*
X28870Y-21238D01*
X30392Y-6456D02*
X30392Y-6787D01*
X30531Y-6926D02*
X35927Y-6926D01*
X30392Y-6787D02*
X30531Y-6926D01*
X29870Y-19242D02*
X29870Y-19240D01*
X29870Y-19240D02*
X29370Y-18740D01*
X28256Y-18493D02*
X27657Y-18493D01*
X28503Y-18740D02*
X28256Y-18493D01*
X29370Y-18740D02*
X28503Y-18740D01*
X25484Y-33801D02*
X25959Y-33326D01*
X25484Y-34188D02*
X25484Y-33801D01*
G54D86*
X26800Y-38194D02*
X26323Y-38671D01*
X27187Y-38194D02*
X26800Y-38194D01*
G54D10*
G36*
X30128Y-13680D02*
X29187Y-14620D01*
X29187Y-13416D01*
X29187Y-13071D01*
X29187Y-12951D01*
X29187Y-12606D01*
X29127Y-12546D01*
X29074Y-12546D01*
X28986Y-12583D01*
X28918Y-12650D01*
X28882Y-12739D01*
X28882Y-12834D01*
X28882Y-12891D01*
X28942Y-12951D01*
X29187Y-12951D01*
X29187Y-13071D01*
X28942Y-13071D01*
X28882Y-13131D01*
X28882Y-13189D01*
X28882Y-13284D01*
X28918Y-13372D01*
X28986Y-13440D01*
X29074Y-13476D01*
X29127Y-13476D01*
X29187Y-13416D01*
X29187Y-14620D01*
X27488Y-16320D01*
X27488Y-11642D01*
X27488Y-11438D01*
X27488Y-11198D01*
X27488Y-10995D01*
X27451Y-10907D01*
X27383Y-10839D01*
X27295Y-10803D01*
X27200Y-10803D01*
X27131Y-10803D01*
X27071Y-10863D01*
X27071Y-11258D01*
X27428Y-11258D01*
X27488Y-11198D01*
X27488Y-11438D01*
X27428Y-11378D01*
X27071Y-11378D01*
X27071Y-11774D01*
X27131Y-11834D01*
X27200Y-11834D01*
X27295Y-11834D01*
X27383Y-11797D01*
X27451Y-11730D01*
X27488Y-11642D01*
X27488Y-16320D01*
X26951Y-16856D01*
X26951Y-11774D01*
X26951Y-11378D01*
X26951Y-11258D01*
X26951Y-10863D01*
X26891Y-10803D01*
X26823Y-10803D01*
X26727Y-10803D01*
X26639Y-10839D01*
X26572Y-10907D01*
X26535Y-10995D01*
X26535Y-11198D01*
X26595Y-11258D01*
X26951Y-11258D01*
X26951Y-11378D01*
X26595Y-11378D01*
X26535Y-11438D01*
X26535Y-11642D01*
X26572Y-11730D01*
X26639Y-11797D01*
X26727Y-11834D01*
X26823Y-11834D01*
X26891Y-11834D01*
X26951Y-11774D01*
X26951Y-16856D01*
X26368Y-17440D01*
X26368Y-11618D01*
X26368Y-11570D01*
X26368Y-11019D01*
X26349Y-10975D01*
X26316Y-10941D01*
X26271Y-10923D01*
X26224Y-10923D01*
X25751Y-10923D01*
X25707Y-10941D01*
X25673Y-10975D01*
X25655Y-11019D01*
X25655Y-11067D01*
X25655Y-11618D01*
X25673Y-11662D01*
X25707Y-11696D01*
X25751Y-11714D01*
X25799Y-11714D01*
X26271Y-11714D01*
X26316Y-11696D01*
X26349Y-11662D01*
X26368Y-11618D01*
X26368Y-17440D01*
X26091Y-17716D01*
X25368Y-17716D01*
X25368Y-11618D01*
X25368Y-11570D01*
X25368Y-11019D01*
X25349Y-10975D01*
X25316Y-10941D01*
X25271Y-10923D01*
X25224Y-10923D01*
X24751Y-10923D01*
X24707Y-10941D01*
X24673Y-10975D01*
X24655Y-11019D01*
X24655Y-11067D01*
X24655Y-11618D01*
X24673Y-11662D01*
X24707Y-11696D01*
X24751Y-11714D01*
X24799Y-11714D01*
X25271Y-11714D01*
X25316Y-11696D01*
X25349Y-11662D01*
X25368Y-11618D01*
X25368Y-17716D01*
X25217Y-17716D01*
X25217Y-16305D01*
X25217Y-15238D01*
X25217Y-14998D01*
X25217Y-13930D01*
X25180Y-13842D01*
X25113Y-13774D01*
X25025Y-13738D01*
X24929Y-13738D01*
X24368Y-13738D01*
X24368Y-11618D01*
X24368Y-11570D01*
X24368Y-11019D01*
X24349Y-10975D01*
X24316Y-10941D01*
X24271Y-10923D01*
X24224Y-10923D01*
X23751Y-10923D01*
X23707Y-10941D01*
X23673Y-10975D01*
X23655Y-11019D01*
X23655Y-11067D01*
X23655Y-11073D01*
X23635Y-11073D01*
X23635Y-11070D01*
X23617Y-11025D01*
X23583Y-10992D01*
X23539Y-10973D01*
X23491Y-10973D01*
X23241Y-10973D01*
X23197Y-10992D01*
X23163Y-11025D01*
X23155Y-11046D01*
X23119Y-10957D01*
X23051Y-10890D01*
X22963Y-10853D01*
X22910Y-10853D01*
X22850Y-10913D01*
X22850Y-11258D01*
X22858Y-11258D01*
X22858Y-11378D01*
X22850Y-11378D01*
X22850Y-11723D01*
X22910Y-11783D01*
X22963Y-11783D01*
X23051Y-11747D01*
X23119Y-11679D01*
X23155Y-11591D01*
X23163Y-11611D01*
X23197Y-11645D01*
X23241Y-11663D01*
X23289Y-11663D01*
X23539Y-11663D01*
X23583Y-11645D01*
X23617Y-11611D01*
X23635Y-11567D01*
X23635Y-11563D01*
X23655Y-11563D01*
X23655Y-11618D01*
X23673Y-11662D01*
X23707Y-11696D01*
X23751Y-11714D01*
X23799Y-11714D01*
X24271Y-11714D01*
X24316Y-11696D01*
X24349Y-11662D01*
X24368Y-11618D01*
X24368Y-13738D01*
X23877Y-13738D01*
X23817Y-13798D01*
X23817Y-15058D01*
X25157Y-15058D01*
X25217Y-14998D01*
X25217Y-15238D01*
X25157Y-15178D01*
X23817Y-15178D01*
X23817Y-16438D01*
X23877Y-16498D01*
X24929Y-16498D01*
X25025Y-16498D01*
X25113Y-16461D01*
X25180Y-16394D01*
X25217Y-16305D01*
X25217Y-17716D01*
X23697Y-17716D01*
X23697Y-16438D01*
X23697Y-15178D01*
X23697Y-15058D01*
X23697Y-13798D01*
X23637Y-13738D01*
X22730Y-13738D01*
X22730Y-11723D01*
X22730Y-11378D01*
X22730Y-11258D01*
X22730Y-10913D01*
X22670Y-10853D01*
X22617Y-10853D01*
X22529Y-10890D01*
X22462Y-10957D01*
X22425Y-11046D01*
X22425Y-11141D01*
X22425Y-11198D01*
X22485Y-11258D01*
X22730Y-11258D01*
X22730Y-11378D01*
X22485Y-11378D01*
X22425Y-11438D01*
X22425Y-11496D01*
X22425Y-11591D01*
X22462Y-11679D01*
X22529Y-11747D01*
X22617Y-11783D01*
X22670Y-11783D01*
X22730Y-11723D01*
X22730Y-13738D01*
X22585Y-13738D01*
X22489Y-13738D01*
X22401Y-13774D01*
X22334Y-13842D01*
X22297Y-13930D01*
X22297Y-14998D01*
X22357Y-15058D01*
X23697Y-15058D01*
X23697Y-15178D01*
X22357Y-15178D01*
X22297Y-15238D01*
X22297Y-16305D01*
X22334Y-16394D01*
X22401Y-16461D01*
X22489Y-16498D01*
X22585Y-16498D01*
X23637Y-16498D01*
X23697Y-16438D01*
X23697Y-17716D01*
X21772Y-17716D01*
X21547Y-17491D01*
X21547Y-16450D01*
X21585Y-16434D01*
X21619Y-16401D01*
X21637Y-16356D01*
X21637Y-16309D01*
X21637Y-15679D01*
X21619Y-15635D01*
X21585Y-15601D01*
X21541Y-15583D01*
X21493Y-15583D01*
X21368Y-15583D01*
X21365Y-15579D01*
X21164Y-15445D01*
X20927Y-15398D01*
X20690Y-15445D01*
X20489Y-15579D01*
X20486Y-15583D01*
X20313Y-15583D01*
X20269Y-15601D01*
X20235Y-15635D01*
X20217Y-15679D01*
X20217Y-15726D01*
X20217Y-16356D01*
X20235Y-16401D01*
X20269Y-16434D01*
X20307Y-16450D01*
X20307Y-16505D01*
X20302Y-16505D01*
X20052Y-16505D01*
X20008Y-16523D01*
X19974Y-16557D01*
X19966Y-16577D01*
X19930Y-16489D01*
X19862Y-16421D01*
X19774Y-16385D01*
X19721Y-16385D01*
X19661Y-16445D01*
X19661Y-16790D01*
X19669Y-16790D01*
X19669Y-16910D01*
X19661Y-16910D01*
X19661Y-17255D01*
X19721Y-17315D01*
X19774Y-17315D01*
X19862Y-17278D01*
X19930Y-17211D01*
X19966Y-17123D01*
X19974Y-17143D01*
X20008Y-17177D01*
X20052Y-17195D01*
X20100Y-17195D01*
X20307Y-17195D01*
X20307Y-17748D01*
X20307Y-17923D01*
X20282Y-17846D01*
X20073Y-17775D01*
X19852Y-17790D01*
X19717Y-17846D01*
X19687Y-17939D01*
X20000Y-18251D01*
X20005Y-18246D01*
X20065Y-18306D01*
X19884Y-18306D01*
X19602Y-18023D01*
X19541Y-18043D01*
X19541Y-17255D01*
X19541Y-16910D01*
X19541Y-16790D01*
X19541Y-16445D01*
X19481Y-16385D01*
X19428Y-16385D01*
X19340Y-16421D01*
X19273Y-16489D01*
X19236Y-16577D01*
X19236Y-16673D01*
X19236Y-16730D01*
X19296Y-16790D01*
X19541Y-16790D01*
X19541Y-16910D01*
X19296Y-16910D01*
X19236Y-16970D01*
X19236Y-17027D01*
X19236Y-17123D01*
X19273Y-17211D01*
X19340Y-17278D01*
X19428Y-17315D01*
X19481Y-17315D01*
X19541Y-17255D01*
X19541Y-18043D01*
X19509Y-18054D01*
X19438Y-18263D01*
X19441Y-18306D01*
X18553Y-18306D01*
X18553Y-14707D01*
X18917Y-14707D01*
X20899Y-14707D01*
X20927Y-14713D01*
X21116Y-14675D01*
X21150Y-14653D01*
X21541Y-14653D01*
X21585Y-14634D01*
X21619Y-14601D01*
X21637Y-14556D01*
X21637Y-14509D01*
X21637Y-13879D01*
X21619Y-13835D01*
X21585Y-13801D01*
X21541Y-13783D01*
X21493Y-13783D01*
X21170Y-13783D01*
X21170Y-13537D01*
X21174Y-13537D01*
X21218Y-13518D01*
X21251Y-13485D01*
X21270Y-13440D01*
X21270Y-13393D01*
X21270Y-13143D01*
X21251Y-13099D01*
X21218Y-13065D01*
X21198Y-13057D01*
X21286Y-13020D01*
X21353Y-12953D01*
X21390Y-12864D01*
X21390Y-12812D01*
X21390Y-12572D01*
X21390Y-12519D01*
X21353Y-12431D01*
X21286Y-12363D01*
X21213Y-12333D01*
X21213Y-10708D01*
X21213Y-10656D01*
X21153Y-10596D01*
X20808Y-10596D01*
X20808Y-10841D01*
X20868Y-10901D01*
X20925Y-10901D01*
X21020Y-10901D01*
X21108Y-10864D01*
X21176Y-10797D01*
X21213Y-10708D01*
X21213Y-12333D01*
X21197Y-12327D01*
X21102Y-12327D01*
X21045Y-12327D01*
X20985Y-12387D01*
X20985Y-12632D01*
X21330Y-12632D01*
X21390Y-12572D01*
X21390Y-12812D01*
X21330Y-12752D01*
X20985Y-12752D01*
X20985Y-12760D01*
X20865Y-12760D01*
X20865Y-12752D01*
X20865Y-12632D01*
X20865Y-12387D01*
X20805Y-12327D01*
X20747Y-12327D01*
X20688Y-12327D01*
X20688Y-10841D01*
X20688Y-10596D01*
X20343Y-10596D01*
X20283Y-10656D01*
X20283Y-10708D01*
X20319Y-10797D01*
X20387Y-10864D01*
X20475Y-10901D01*
X20570Y-10901D01*
X20628Y-10901D01*
X20688Y-10841D01*
X20688Y-12327D01*
X20652Y-12327D01*
X20564Y-12363D01*
X20496Y-12431D01*
X20460Y-12519D01*
X20460Y-12572D01*
X20520Y-12632D01*
X20865Y-12632D01*
X20865Y-12752D01*
X20520Y-12752D01*
X20460Y-12812D01*
X20460Y-12864D01*
X20496Y-12953D01*
X20564Y-13020D01*
X20652Y-13057D01*
X20632Y-13065D01*
X20598Y-13099D01*
X20580Y-13143D01*
X20580Y-13190D01*
X20580Y-13440D01*
X20598Y-13485D01*
X20632Y-13518D01*
X20676Y-13537D01*
X20680Y-13537D01*
X20680Y-13717D01*
X19376Y-13717D01*
X19407Y-13707D01*
X19478Y-13498D01*
X19463Y-13277D01*
X19407Y-13143D01*
X19314Y-13112D01*
X19230Y-13197D01*
X19230Y-13027D01*
X19199Y-12934D01*
X18990Y-12864D01*
X18770Y-12878D01*
X18635Y-12934D01*
X18604Y-13027D01*
X18917Y-13340D01*
X19230Y-13027D01*
X19230Y-13197D01*
X19002Y-13425D01*
X19007Y-13430D01*
X18922Y-13515D01*
X18917Y-13510D01*
X18911Y-13515D01*
X18826Y-13430D01*
X18832Y-13425D01*
X18519Y-13112D01*
X18426Y-13143D01*
X18356Y-13352D01*
X18370Y-13572D01*
X18426Y-13707D01*
X18457Y-13717D01*
X18354Y-13717D01*
X17013Y-12376D01*
X15868Y-11231D01*
X15868Y-11137D01*
X15866Y-11134D01*
X15866Y-10295D01*
X20311Y-10295D01*
X20283Y-10363D01*
X20283Y-10416D01*
X20343Y-10476D01*
X20688Y-10476D01*
X20688Y-10468D01*
X20808Y-10468D01*
X20808Y-10476D01*
X21153Y-10476D01*
X21213Y-10416D01*
X21213Y-10363D01*
X21185Y-10295D01*
X28899Y-10295D01*
X28918Y-10341D01*
X28986Y-10408D01*
X29074Y-10445D01*
X29127Y-10445D01*
X29187Y-10385D01*
X29187Y-10295D01*
X29307Y-10295D01*
X29307Y-10385D01*
X29367Y-10445D01*
X29419Y-10445D01*
X29508Y-10408D01*
X29575Y-10341D01*
X29594Y-10295D01*
X29643Y-10295D01*
X29654Y-10307D01*
X29698Y-10325D01*
X29746Y-10325D01*
X29996Y-10325D01*
X30040Y-10307D01*
X30051Y-10295D01*
X30128Y-10295D01*
X30128Y-11066D01*
X30096Y-11098D01*
X30065Y-11005D01*
X29856Y-10934D01*
X29636Y-10949D01*
X29501Y-11005D01*
X29470Y-11098D01*
X29783Y-11411D01*
X29789Y-11405D01*
X29873Y-11490D01*
X29868Y-11496D01*
X29873Y-11501D01*
X29789Y-11586D01*
X29783Y-11580D01*
X29698Y-11665D01*
X29698Y-11496D01*
X29385Y-11183D01*
X29293Y-11213D01*
X29222Y-11423D01*
X29237Y-11643D01*
X29293Y-11778D01*
X29385Y-11808D01*
X29698Y-11496D01*
X29698Y-11665D01*
X29470Y-11893D01*
X29501Y-11986D01*
X29710Y-12057D01*
X29930Y-12042D01*
X30065Y-11986D01*
X30096Y-11893D01*
X30096Y-11893D01*
X30128Y-11925D01*
X30128Y-12766D01*
X30096Y-12766D01*
X30092Y-12766D01*
X30092Y-12762D01*
X30073Y-12718D01*
X30040Y-12685D01*
X29996Y-12666D01*
X29948Y-12666D01*
X29698Y-12666D01*
X29654Y-12685D01*
X29620Y-12718D01*
X29612Y-12738D01*
X29575Y-12650D01*
X29508Y-12583D01*
X29419Y-12546D01*
X29367Y-12546D01*
X29307Y-12606D01*
X29307Y-12951D01*
X29315Y-12951D01*
X29315Y-13071D01*
X29307Y-13071D01*
X29307Y-13416D01*
X29367Y-13476D01*
X29419Y-13476D01*
X29508Y-13440D01*
X29575Y-13372D01*
X29612Y-13284D01*
X29620Y-13304D01*
X29654Y-13338D01*
X29698Y-13356D01*
X29746Y-13356D01*
X29996Y-13356D01*
X30040Y-13338D01*
X30073Y-13304D01*
X30092Y-13260D01*
X30092Y-13256D01*
X30128Y-13256D01*
X30128Y-13680D01*
X30128Y-13680D01*
G37*
G54D88*
X30128Y-13680D02*
X29187Y-14620D01*
X29187Y-13416D01*
X29187Y-13071D01*
X29187Y-12951D01*
X29187Y-12606D01*
X29127Y-12546D01*
X29074Y-12546D01*
X28986Y-12583D01*
X28918Y-12650D01*
X28882Y-12739D01*
X28882Y-12834D01*
X28882Y-12891D01*
X28942Y-12951D01*
X29187Y-12951D01*
X29187Y-13071D01*
X28942Y-13071D01*
X28882Y-13131D01*
X28882Y-13189D01*
X28882Y-13284D01*
X28918Y-13372D01*
X28986Y-13440D01*
X29074Y-13476D01*
X29127Y-13476D01*
X29187Y-13416D01*
X29187Y-14620D01*
X27488Y-16320D01*
X27488Y-11642D01*
X27488Y-11438D01*
X27488Y-11198D01*
X27488Y-10995D01*
X27451Y-10907D01*
X27383Y-10839D01*
X27295Y-10803D01*
X27200Y-10803D01*
X27131Y-10803D01*
X27071Y-10863D01*
X27071Y-11258D01*
X27428Y-11258D01*
X27488Y-11198D01*
X27488Y-11438D01*
X27428Y-11378D01*
X27071Y-11378D01*
X27071Y-11774D01*
X27131Y-11834D01*
X27200Y-11834D01*
X27295Y-11834D01*
X27383Y-11797D01*
X27451Y-11730D01*
X27488Y-11642D01*
X27488Y-16320D01*
X26951Y-16856D01*
X26951Y-11774D01*
X26951Y-11378D01*
X26951Y-11258D01*
X26951Y-10863D01*
X26891Y-10803D01*
X26823Y-10803D01*
X26727Y-10803D01*
X26639Y-10839D01*
X26572Y-10907D01*
X26535Y-10995D01*
X26535Y-11198D01*
X26595Y-11258D01*
X26951Y-11258D01*
X26951Y-11378D01*
X26595Y-11378D01*
X26535Y-11438D01*
X26535Y-11642D01*
X26572Y-11730D01*
X26639Y-11797D01*
X26727Y-11834D01*
X26823Y-11834D01*
X26891Y-11834D01*
X26951Y-11774D01*
X26951Y-16856D01*
X26368Y-17440D01*
X26368Y-11618D01*
X26368Y-11570D01*
X26368Y-11019D01*
X26349Y-10975D01*
X26316Y-10941D01*
X26271Y-10923D01*
X26224Y-10923D01*
X25751Y-10923D01*
X25707Y-10941D01*
X25673Y-10975D01*
X25655Y-11019D01*
X25655Y-11067D01*
X25655Y-11618D01*
X25673Y-11662D01*
X25707Y-11696D01*
X25751Y-11714D01*
X25799Y-11714D01*
X26271Y-11714D01*
X26316Y-11696D01*
X26349Y-11662D01*
X26368Y-11618D01*
X26368Y-17440D01*
X26091Y-17716D01*
X25368Y-17716D01*
X25368Y-11618D01*
X25368Y-11570D01*
X25368Y-11019D01*
X25349Y-10975D01*
X25316Y-10941D01*
X25271Y-10923D01*
X25224Y-10923D01*
X24751Y-10923D01*
X24707Y-10941D01*
X24673Y-10975D01*
X24655Y-11019D01*
X24655Y-11067D01*
X24655Y-11618D01*
X24673Y-11662D01*
X24707Y-11696D01*
X24751Y-11714D01*
X24799Y-11714D01*
X25271Y-11714D01*
X25316Y-11696D01*
X25349Y-11662D01*
X25368Y-11618D01*
X25368Y-17716D01*
X25217Y-17716D01*
X25217Y-16305D01*
X25217Y-15238D01*
X25217Y-14998D01*
X25217Y-13930D01*
X25180Y-13842D01*
X25113Y-13774D01*
X25025Y-13738D01*
X24929Y-13738D01*
X24368Y-13738D01*
X24368Y-11618D01*
X24368Y-11570D01*
X24368Y-11019D01*
X24349Y-10975D01*
X24316Y-10941D01*
X24271Y-10923D01*
X24224Y-10923D01*
X23751Y-10923D01*
X23707Y-10941D01*
X23673Y-10975D01*
X23655Y-11019D01*
X23655Y-11067D01*
X23655Y-11073D01*
X23635Y-11073D01*
X23635Y-11070D01*
X23617Y-11025D01*
X23583Y-10992D01*
X23539Y-10973D01*
X23491Y-10973D01*
X23241Y-10973D01*
X23197Y-10992D01*
X23163Y-11025D01*
X23155Y-11046D01*
X23119Y-10957D01*
X23051Y-10890D01*
X22963Y-10853D01*
X22910Y-10853D01*
X22850Y-10913D01*
X22850Y-11258D01*
X22858Y-11258D01*
X22858Y-11378D01*
X22850Y-11378D01*
X22850Y-11723D01*
X22910Y-11783D01*
X22963Y-11783D01*
X23051Y-11747D01*
X23119Y-11679D01*
X23155Y-11591D01*
X23163Y-11611D01*
X23197Y-11645D01*
X23241Y-11663D01*
X23289Y-11663D01*
X23539Y-11663D01*
X23583Y-11645D01*
X23617Y-11611D01*
X23635Y-11567D01*
X23635Y-11563D01*
X23655Y-11563D01*
X23655Y-11618D01*
X23673Y-11662D01*
X23707Y-11696D01*
X23751Y-11714D01*
X23799Y-11714D01*
X24271Y-11714D01*
X24316Y-11696D01*
X24349Y-11662D01*
X24368Y-11618D01*
X24368Y-13738D01*
X23877Y-13738D01*
X23817Y-13798D01*
X23817Y-15058D01*
X25157Y-15058D01*
X25217Y-14998D01*
X25217Y-15238D01*
X25157Y-15178D01*
X23817Y-15178D01*
X23817Y-16438D01*
X23877Y-16498D01*
X24929Y-16498D01*
X25025Y-16498D01*
X25113Y-16461D01*
X25180Y-16394D01*
X25217Y-16305D01*
X25217Y-17716D01*
X23697Y-17716D01*
X23697Y-16438D01*
X23697Y-15178D01*
X23697Y-15058D01*
X23697Y-13798D01*
X23637Y-13738D01*
X22730Y-13738D01*
X22730Y-11723D01*
X22730Y-11378D01*
X22730Y-11258D01*
X22730Y-10913D01*
X22670Y-10853D01*
X22617Y-10853D01*
X22529Y-10890D01*
X22462Y-10957D01*
X22425Y-11046D01*
X22425Y-11141D01*
X22425Y-11198D01*
X22485Y-11258D01*
X22730Y-11258D01*
X22730Y-11378D01*
X22485Y-11378D01*
X22425Y-11438D01*
X22425Y-11496D01*
X22425Y-11591D01*
X22462Y-11679D01*
X22529Y-11747D01*
X22617Y-11783D01*
X22670Y-11783D01*
X22730Y-11723D01*
X22730Y-13738D01*
X22585Y-13738D01*
X22489Y-13738D01*
X22401Y-13774D01*
X22334Y-13842D01*
X22297Y-13930D01*
X22297Y-14998D01*
X22357Y-15058D01*
X23697Y-15058D01*
X23697Y-15178D01*
X22357Y-15178D01*
X22297Y-15238D01*
X22297Y-16305D01*
X22334Y-16394D01*
X22401Y-16461D01*
X22489Y-16498D01*
X22585Y-16498D01*
X23637Y-16498D01*
X23697Y-16438D01*
X23697Y-17716D01*
X21772Y-17716D01*
X21547Y-17491D01*
X21547Y-16450D01*
X21585Y-16434D01*
X21619Y-16401D01*
X21637Y-16356D01*
X21637Y-16309D01*
X21637Y-15679D01*
X21619Y-15635D01*
X21585Y-15601D01*
X21541Y-15583D01*
X21493Y-15583D01*
X21368Y-15583D01*
X21365Y-15579D01*
X21164Y-15445D01*
X20927Y-15398D01*
X20690Y-15445D01*
X20489Y-15579D01*
X20486Y-15583D01*
X20313Y-15583D01*
X20269Y-15601D01*
X20235Y-15635D01*
X20217Y-15679D01*
X20217Y-15726D01*
X20217Y-16356D01*
X20235Y-16401D01*
X20269Y-16434D01*
X20307Y-16450D01*
X20307Y-16505D01*
X20302Y-16505D01*
X20052Y-16505D01*
X20008Y-16523D01*
X19974Y-16557D01*
X19966Y-16577D01*
X19930Y-16489D01*
X19862Y-16421D01*
X19774Y-16385D01*
X19721Y-16385D01*
X19661Y-16445D01*
X19661Y-16790D01*
X19669Y-16790D01*
X19669Y-16910D01*
X19661Y-16910D01*
X19661Y-17255D01*
X19721Y-17315D01*
X19774Y-17315D01*
X19862Y-17278D01*
X19930Y-17211D01*
X19966Y-17123D01*
X19974Y-17143D01*
X20008Y-17177D01*
X20052Y-17195D01*
X20100Y-17195D01*
X20307Y-17195D01*
X20307Y-17748D01*
X20307Y-17923D01*
X20282Y-17846D01*
X20073Y-17775D01*
X19852Y-17790D01*
X19717Y-17846D01*
X19687Y-17939D01*
X20000Y-18251D01*
X20005Y-18246D01*
X20065Y-18306D01*
X19884Y-18306D01*
X19602Y-18023D01*
X19541Y-18043D01*
X19541Y-17255D01*
X19541Y-16910D01*
X19541Y-16790D01*
X19541Y-16445D01*
X19481Y-16385D01*
X19428Y-16385D01*
X19340Y-16421D01*
X19273Y-16489D01*
X19236Y-16577D01*
X19236Y-16673D01*
X19236Y-16730D01*
X19296Y-16790D01*
X19541Y-16790D01*
X19541Y-16910D01*
X19296Y-16910D01*
X19236Y-16970D01*
X19236Y-17027D01*
X19236Y-17123D01*
X19273Y-17211D01*
X19340Y-17278D01*
X19428Y-17315D01*
X19481Y-17315D01*
X19541Y-17255D01*
X19541Y-18043D01*
X19509Y-18054D01*
X19438Y-18263D01*
X19441Y-18306D01*
X18553Y-18306D01*
X18553Y-14707D01*
X18917Y-14707D01*
X20899Y-14707D01*
X20927Y-14713D01*
X21116Y-14675D01*
X21150Y-14653D01*
X21541Y-14653D01*
X21585Y-14634D01*
X21619Y-14601D01*
X21637Y-14556D01*
X21637Y-14509D01*
X21637Y-13879D01*
X21619Y-13835D01*
X21585Y-13801D01*
X21541Y-13783D01*
X21493Y-13783D01*
X21170Y-13783D01*
X21170Y-13537D01*
X21174Y-13537D01*
X21218Y-13518D01*
X21251Y-13485D01*
X21270Y-13440D01*
X21270Y-13393D01*
X21270Y-13143D01*
X21251Y-13099D01*
X21218Y-13065D01*
X21198Y-13057D01*
X21286Y-13020D01*
X21353Y-12953D01*
X21390Y-12864D01*
X21390Y-12812D01*
X21390Y-12572D01*
X21390Y-12519D01*
X21353Y-12431D01*
X21286Y-12363D01*
X21213Y-12333D01*
X21213Y-10708D01*
X21213Y-10656D01*
X21153Y-10596D01*
X20808Y-10596D01*
X20808Y-10841D01*
X20868Y-10901D01*
X20925Y-10901D01*
X21020Y-10901D01*
X21108Y-10864D01*
X21176Y-10797D01*
X21213Y-10708D01*
X21213Y-12333D01*
X21197Y-12327D01*
X21102Y-12327D01*
X21045Y-12327D01*
X20985Y-12387D01*
X20985Y-12632D01*
X21330Y-12632D01*
X21390Y-12572D01*
X21390Y-12812D01*
X21330Y-12752D01*
X20985Y-12752D01*
X20985Y-12760D01*
X20865Y-12760D01*
X20865Y-12752D01*
X20865Y-12632D01*
X20865Y-12387D01*
X20805Y-12327D01*
X20747Y-12327D01*
X20688Y-12327D01*
X20688Y-10841D01*
X20688Y-10596D01*
X20343Y-10596D01*
X20283Y-10656D01*
X20283Y-10708D01*
X20319Y-10797D01*
X20387Y-10864D01*
X20475Y-10901D01*
X20570Y-10901D01*
X20628Y-10901D01*
X20688Y-10841D01*
X20688Y-12327D01*
X20652Y-12327D01*
X20564Y-12363D01*
X20496Y-12431D01*
X20460Y-12519D01*
X20460Y-12572D01*
X20520Y-12632D01*
X20865Y-12632D01*
X20865Y-12752D01*
X20520Y-12752D01*
X20460Y-12812D01*
X20460Y-12864D01*
X20496Y-12953D01*
X20564Y-13020D01*
X20652Y-13057D01*
X20632Y-13065D01*
X20598Y-13099D01*
X20580Y-13143D01*
X20580Y-13190D01*
X20580Y-13440D01*
X20598Y-13485D01*
X20632Y-13518D01*
X20676Y-13537D01*
X20680Y-13537D01*
X20680Y-13717D01*
X19376Y-13717D01*
X19407Y-13707D01*
X19478Y-13498D01*
X19463Y-13277D01*
X19407Y-13143D01*
X19314Y-13112D01*
X19230Y-13197D01*
X19230Y-13027D01*
X19199Y-12934D01*
X18990Y-12864D01*
X18770Y-12878D01*
X18635Y-12934D01*
X18604Y-13027D01*
X18917Y-13340D01*
X19230Y-13027D01*
X19230Y-13197D01*
X19002Y-13425D01*
X19007Y-13430D01*
X18922Y-13515D01*
X18917Y-13510D01*
X18911Y-13515D01*
X18826Y-13430D01*
X18832Y-13425D01*
X18519Y-13112D01*
X18426Y-13143D01*
X18356Y-13352D01*
X18370Y-13572D01*
X18426Y-13707D01*
X18457Y-13717D01*
X18354Y-13717D01*
X17013Y-12376D01*
X15868Y-11231D01*
X15868Y-11137D01*
X15866Y-11134D01*
X15866Y-10295D01*
X20311Y-10295D01*
X20283Y-10363D01*
X20283Y-10416D01*
X20343Y-10476D01*
X20688Y-10476D01*
X20688Y-10468D01*
X20808Y-10468D01*
X20808Y-10476D01*
X21153Y-10476D01*
X21213Y-10416D01*
X21213Y-10363D01*
X21185Y-10295D01*
X28899Y-10295D01*
X28918Y-10341D01*
X28986Y-10408D01*
X29074Y-10445D01*
X29127Y-10445D01*
X29187Y-10385D01*
X29187Y-10295D01*
X29307Y-10295D01*
X29307Y-10385D01*
X29367Y-10445D01*
X29419Y-10445D01*
X29508Y-10408D01*
X29575Y-10341D01*
X29594Y-10295D01*
X29643Y-10295D01*
X29654Y-10307D01*
X29698Y-10325D01*
X29746Y-10325D01*
X29996Y-10325D01*
X30040Y-10307D01*
X30051Y-10295D01*
X30128Y-10295D01*
X30128Y-11066D01*
X30096Y-11098D01*
X30065Y-11005D01*
X29856Y-10934D01*
X29636Y-10949D01*
X29501Y-11005D01*
X29470Y-11098D01*
X29783Y-11411D01*
X29789Y-11405D01*
X29873Y-11490D01*
X29868Y-11496D01*
X29873Y-11501D01*
X29789Y-11586D01*
X29783Y-11580D01*
X29698Y-11665D01*
X29698Y-11496D01*
X29385Y-11183D01*
X29293Y-11213D01*
X29222Y-11423D01*
X29237Y-11643D01*
X29293Y-11778D01*
X29385Y-11808D01*
X29698Y-11496D01*
X29698Y-11665D01*
X29470Y-11893D01*
X29501Y-11986D01*
X29710Y-12057D01*
X29930Y-12042D01*
X30065Y-11986D01*
X30096Y-11893D01*
X30096Y-11893D01*
X30128Y-11925D01*
X30128Y-12766D01*
X30096Y-12766D01*
X30092Y-12766D01*
X30092Y-12762D01*
X30073Y-12718D01*
X30040Y-12685D01*
X29996Y-12666D01*
X29948Y-12666D01*
X29698Y-12666D01*
X29654Y-12685D01*
X29620Y-12718D01*
X29612Y-12738D01*
X29575Y-12650D01*
X29508Y-12583D01*
X29419Y-12546D01*
X29367Y-12546D01*
X29307Y-12606D01*
X29307Y-12951D01*
X29315Y-12951D01*
X29315Y-13071D01*
X29307Y-13071D01*
X29307Y-13416D01*
X29367Y-13476D01*
X29419Y-13476D01*
X29508Y-13440D01*
X29575Y-13372D01*
X29612Y-13284D01*
X29620Y-13304D01*
X29654Y-13338D01*
X29698Y-13356D01*
X29746Y-13356D01*
X29996Y-13356D01*
X30040Y-13338D01*
X30073Y-13304D01*
X30092Y-13260D01*
X30092Y-13256D01*
X30128Y-13256D01*
X30128Y-13680D01*
G54D10*
G36*
X28326Y-26984D02*
X27087Y-26984D01*
X27087Y-25298D01*
X27087Y-25250D01*
X27087Y-24150D01*
X27069Y-24106D01*
X27035Y-24072D01*
X26991Y-24054D01*
X26943Y-24054D01*
X25843Y-24054D01*
X25799Y-24072D01*
X25765Y-24106D01*
X25747Y-24150D01*
X25747Y-24198D01*
X25747Y-25298D01*
X25765Y-25342D01*
X25799Y-25376D01*
X25843Y-25394D01*
X25891Y-25394D01*
X26991Y-25394D01*
X27035Y-25376D01*
X27069Y-25342D01*
X27087Y-25298D01*
X27087Y-26984D01*
X25653Y-26984D01*
X25653Y-24853D01*
X25642Y-24539D01*
X25543Y-24300D01*
X25426Y-24241D01*
X25341Y-24326D01*
X25341Y-24156D01*
X25281Y-24039D01*
X25217Y-24015D01*
X25217Y-22171D01*
X25217Y-21104D01*
X25217Y-20864D01*
X25217Y-19796D01*
X25180Y-19708D01*
X25113Y-19640D01*
X25025Y-19604D01*
X24929Y-19604D01*
X23877Y-19604D01*
X23817Y-19664D01*
X23817Y-20924D01*
X25157Y-20924D01*
X25217Y-20864D01*
X25217Y-21104D01*
X25157Y-21044D01*
X23817Y-21044D01*
X23817Y-22304D01*
X23877Y-22364D01*
X24929Y-22364D01*
X25025Y-22364D01*
X25113Y-22327D01*
X25180Y-22260D01*
X25217Y-22171D01*
X25217Y-24015D01*
X24987Y-23929D01*
X24673Y-23940D01*
X24434Y-24039D01*
X24375Y-24156D01*
X24858Y-24639D01*
X25341Y-24156D01*
X25341Y-24326D01*
X24943Y-24724D01*
X25426Y-25207D01*
X25543Y-25148D01*
X25653Y-24853D01*
X25653Y-26984D01*
X25341Y-26984D01*
X25341Y-25292D01*
X24858Y-24809D01*
X24773Y-24894D01*
X24773Y-24724D01*
X24290Y-24241D01*
X24173Y-24300D01*
X24063Y-24595D01*
X24074Y-24909D01*
X24173Y-25148D01*
X24290Y-25207D01*
X24773Y-24724D01*
X24773Y-24894D01*
X24375Y-25292D01*
X24434Y-25409D01*
X24729Y-25519D01*
X25043Y-25508D01*
X25281Y-25409D01*
X25341Y-25292D01*
X25341Y-26984D01*
X23697Y-26984D01*
X23697Y-22304D01*
X23697Y-21044D01*
X23697Y-20924D01*
X23697Y-19664D01*
X23637Y-19604D01*
X22585Y-19604D01*
X22489Y-19604D01*
X22401Y-19640D01*
X22334Y-19708D01*
X22297Y-19796D01*
X22297Y-20864D01*
X22357Y-20924D01*
X23697Y-20924D01*
X23697Y-21044D01*
X22357Y-21044D01*
X22297Y-21104D01*
X22297Y-22171D01*
X22334Y-22260D01*
X22401Y-22327D01*
X22489Y-22364D01*
X22585Y-22364D01*
X23637Y-22364D01*
X23697Y-22304D01*
X23697Y-26984D01*
X23452Y-26984D01*
X23448Y-26984D01*
X23448Y-25087D01*
X23448Y-24991D01*
X23448Y-24844D01*
X23448Y-24604D01*
X23448Y-24457D01*
X23448Y-24361D01*
X23412Y-24273D01*
X23344Y-24205D01*
X23256Y-24169D01*
X23013Y-24169D01*
X22953Y-24229D01*
X22953Y-24664D01*
X23388Y-24664D01*
X23448Y-24604D01*
X23448Y-24844D01*
X23388Y-24784D01*
X22953Y-24784D01*
X22953Y-24792D01*
X22833Y-24792D01*
X22833Y-24784D01*
X22833Y-24664D01*
X22833Y-24229D01*
X22773Y-24169D01*
X22531Y-24169D01*
X22442Y-24205D01*
X22375Y-24273D01*
X22338Y-24361D01*
X22338Y-24457D01*
X22338Y-24604D01*
X22398Y-24664D01*
X22833Y-24664D01*
X22833Y-24784D01*
X22398Y-24784D01*
X22338Y-24844D01*
X22338Y-24991D01*
X22338Y-25087D01*
X22375Y-25175D01*
X22442Y-25242D01*
X22520Y-25275D01*
X22458Y-25424D01*
X22458Y-25597D01*
X22524Y-25757D01*
X22646Y-25880D01*
X22806Y-25946D01*
X22979Y-25946D01*
X23139Y-25880D01*
X23262Y-25758D01*
X23328Y-25598D01*
X23328Y-25425D01*
X23266Y-25275D01*
X23344Y-25242D01*
X23412Y-25175D01*
X23448Y-25087D01*
X23448Y-26984D01*
X22266Y-26984D01*
X22266Y-26290D01*
X22266Y-26237D01*
X22266Y-25997D01*
X22266Y-25944D01*
X22229Y-25856D01*
X22162Y-25788D01*
X22073Y-25752D01*
X21978Y-25752D01*
X21921Y-25752D01*
X21861Y-25812D01*
X21861Y-26057D01*
X22206Y-26057D01*
X22266Y-25997D01*
X22266Y-26237D01*
X22206Y-26177D01*
X21861Y-26177D01*
X21861Y-26185D01*
X21741Y-26185D01*
X21741Y-26177D01*
X21741Y-26057D01*
X21741Y-25812D01*
X21681Y-25752D01*
X21623Y-25752D01*
X21528Y-25752D01*
X21440Y-25788D01*
X21372Y-25856D01*
X21336Y-25944D01*
X21336Y-25997D01*
X21396Y-26057D01*
X21741Y-26057D01*
X21741Y-26177D01*
X21396Y-26177D01*
X21336Y-26237D01*
X21336Y-26290D01*
X21372Y-26378D01*
X21440Y-26445D01*
X21528Y-26482D01*
X21508Y-26490D01*
X21474Y-26524D01*
X21456Y-26568D01*
X21456Y-26616D01*
X21456Y-26866D01*
X21474Y-26910D01*
X21508Y-26944D01*
X21552Y-26962D01*
X21600Y-26962D01*
X22050Y-26962D01*
X22094Y-26944D01*
X22127Y-26910D01*
X22146Y-26866D01*
X22146Y-26818D01*
X22146Y-26568D01*
X22127Y-26524D01*
X22094Y-26490D01*
X22074Y-26482D01*
X22162Y-26445D01*
X22229Y-26378D01*
X22266Y-26290D01*
X22266Y-26984D01*
X21270Y-26984D01*
X21270Y-23539D01*
X21270Y-23491D01*
X21270Y-23241D01*
X21251Y-23197D01*
X21218Y-23163D01*
X21174Y-23145D01*
X21126Y-23145D01*
X20925Y-23145D01*
X20676Y-23145D01*
X20632Y-23163D01*
X20598Y-23197D01*
X20580Y-23241D01*
X20580Y-23289D01*
X20580Y-23539D01*
X20598Y-23583D01*
X20632Y-23617D01*
X20660Y-23628D01*
X20630Y-23700D01*
X20630Y-23818D01*
X20674Y-23926D01*
X20757Y-24009D01*
X20866Y-24054D01*
X20983Y-24054D01*
X21092Y-24010D01*
X21175Y-23927D01*
X21220Y-23818D01*
X21220Y-23701D01*
X21190Y-23628D01*
X21218Y-23617D01*
X21251Y-23583D01*
X21270Y-23539D01*
X21270Y-26984D01*
X21263Y-26984D01*
X21263Y-25087D01*
X21263Y-24991D01*
X21263Y-24844D01*
X21263Y-24604D01*
X21263Y-24457D01*
X21263Y-24361D01*
X21227Y-24273D01*
X21159Y-24205D01*
X21071Y-24169D01*
X20828Y-24169D01*
X20768Y-24229D01*
X20768Y-24664D01*
X21203Y-24664D01*
X21263Y-24604D01*
X21263Y-24844D01*
X21203Y-24784D01*
X20768Y-24784D01*
X20768Y-24792D01*
X20648Y-24792D01*
X20648Y-24784D01*
X20648Y-24664D01*
X20648Y-24229D01*
X20588Y-24169D01*
X20345Y-24169D01*
X20257Y-24205D01*
X20190Y-24273D01*
X20153Y-24361D01*
X20153Y-24457D01*
X20153Y-24604D01*
X20213Y-24664D01*
X20648Y-24664D01*
X20648Y-24784D01*
X20213Y-24784D01*
X20153Y-24844D01*
X20153Y-24991D01*
X20153Y-25087D01*
X20190Y-25175D01*
X20257Y-25242D01*
X20335Y-25275D01*
X20273Y-25424D01*
X20273Y-25597D01*
X20339Y-25757D01*
X20461Y-25880D01*
X20621Y-25946D01*
X20794Y-25946D01*
X20954Y-25880D01*
X21077Y-25758D01*
X21143Y-25598D01*
X21143Y-25425D01*
X21081Y-25275D01*
X21159Y-25242D01*
X21227Y-25175D01*
X21263Y-25087D01*
X21263Y-26984D01*
X17973Y-26984D01*
X17973Y-22501D01*
X18170Y-22462D01*
X18286Y-22384D01*
X18594Y-22384D01*
X18548Y-22430D01*
X18482Y-22590D01*
X18482Y-22763D01*
X18548Y-22923D01*
X18670Y-23045D01*
X18830Y-23112D01*
X19003Y-23112D01*
X19163Y-23046D01*
X19285Y-22923D01*
X19352Y-22764D01*
X19352Y-22591D01*
X19286Y-22431D01*
X19240Y-22384D01*
X20680Y-22384D01*
X20680Y-22545D01*
X20676Y-22545D01*
X20632Y-22563D01*
X20598Y-22597D01*
X20580Y-22641D01*
X20580Y-22689D01*
X20580Y-22939D01*
X20598Y-22983D01*
X20632Y-23017D01*
X20676Y-23035D01*
X20724Y-23035D01*
X20925Y-23035D01*
X21174Y-23035D01*
X21218Y-23017D01*
X21251Y-22983D01*
X21270Y-22939D01*
X21270Y-22891D01*
X21270Y-22641D01*
X21251Y-22597D01*
X21218Y-22563D01*
X21174Y-22545D01*
X21170Y-22545D01*
X21170Y-22319D01*
X21541Y-22319D01*
X21585Y-22300D01*
X21619Y-22267D01*
X21637Y-22223D01*
X21637Y-22175D01*
X21637Y-21545D01*
X21637Y-20423D01*
X21637Y-20375D01*
X21637Y-19745D01*
X21619Y-19701D01*
X21585Y-19667D01*
X21541Y-19649D01*
X21493Y-19649D01*
X20313Y-19649D01*
X20269Y-19667D01*
X20235Y-19701D01*
X20217Y-19745D01*
X20217Y-19793D01*
X20217Y-20423D01*
X20235Y-20467D01*
X20269Y-20500D01*
X20313Y-20519D01*
X20361Y-20519D01*
X21541Y-20519D01*
X21585Y-20500D01*
X21619Y-20467D01*
X21637Y-20423D01*
X21637Y-21545D01*
X21619Y-21501D01*
X21585Y-21467D01*
X21541Y-21449D01*
X21493Y-21449D01*
X21150Y-21449D01*
X21116Y-21426D01*
X20927Y-21389D01*
X20899Y-21394D01*
X18917Y-21394D01*
X18553Y-21394D01*
X18553Y-18543D01*
X19615Y-18543D01*
X19631Y-18582D01*
X19753Y-18705D01*
X19913Y-18771D01*
X20086Y-18771D01*
X20246Y-18705D01*
X20352Y-18599D01*
X20352Y-18675D01*
X20370Y-18719D01*
X20404Y-18753D01*
X20448Y-18771D01*
X20496Y-18771D01*
X20559Y-18771D01*
X20578Y-18785D01*
X20588Y-18787D01*
X20597Y-18793D01*
X20682Y-18810D01*
X20765Y-18831D01*
X20776Y-18829D01*
X20787Y-18831D01*
X20915Y-18831D01*
X21162Y-18831D01*
X21162Y-18831D01*
X21278Y-18909D01*
X21278Y-18909D01*
X21515Y-18956D01*
X26348Y-18956D01*
X26585Y-18909D01*
X26585Y-18909D01*
X26786Y-18775D01*
X27017Y-18543D01*
X27262Y-18543D01*
X27262Y-18691D01*
X27280Y-18736D01*
X27314Y-18769D01*
X27358Y-18788D01*
X27406Y-18788D01*
X27956Y-18788D01*
X28000Y-18769D01*
X28034Y-18736D01*
X28052Y-18691D01*
X28052Y-18673D01*
X28182Y-18673D01*
X28326Y-18816D01*
X28326Y-19063D01*
X28052Y-19063D01*
X28052Y-19044D01*
X28034Y-19000D01*
X28000Y-18966D01*
X27956Y-18948D01*
X27908Y-18948D01*
X27358Y-18948D01*
X27314Y-18966D01*
X27280Y-19000D01*
X27262Y-19044D01*
X27262Y-19091D01*
X27262Y-19441D01*
X27280Y-19486D01*
X27314Y-19519D01*
X27358Y-19538D01*
X27406Y-19538D01*
X27956Y-19538D01*
X28000Y-19519D01*
X28034Y-19486D01*
X28052Y-19441D01*
X28052Y-19423D01*
X28326Y-19423D01*
X28326Y-26984D01*
X28326Y-26984D01*
G37*
G54D88*
X28326Y-26984D02*
X27087Y-26984D01*
X27087Y-25298D01*
X27087Y-25250D01*
X27087Y-24150D01*
X27069Y-24106D01*
X27035Y-24072D01*
X26991Y-24054D01*
X26943Y-24054D01*
X25843Y-24054D01*
X25799Y-24072D01*
X25765Y-24106D01*
X25747Y-24150D01*
X25747Y-24198D01*
X25747Y-25298D01*
X25765Y-25342D01*
X25799Y-25376D01*
X25843Y-25394D01*
X25891Y-25394D01*
X26991Y-25394D01*
X27035Y-25376D01*
X27069Y-25342D01*
X27087Y-25298D01*
X27087Y-26984D01*
X25653Y-26984D01*
X25653Y-24853D01*
X25642Y-24539D01*
X25543Y-24300D01*
X25426Y-24241D01*
X25341Y-24326D01*
X25341Y-24156D01*
X25281Y-24039D01*
X25217Y-24015D01*
X25217Y-22171D01*
X25217Y-21104D01*
X25217Y-20864D01*
X25217Y-19796D01*
X25180Y-19708D01*
X25113Y-19640D01*
X25025Y-19604D01*
X24929Y-19604D01*
X23877Y-19604D01*
X23817Y-19664D01*
X23817Y-20924D01*
X25157Y-20924D01*
X25217Y-20864D01*
X25217Y-21104D01*
X25157Y-21044D01*
X23817Y-21044D01*
X23817Y-22304D01*
X23877Y-22364D01*
X24929Y-22364D01*
X25025Y-22364D01*
X25113Y-22327D01*
X25180Y-22260D01*
X25217Y-22171D01*
X25217Y-24015D01*
X24987Y-23929D01*
X24673Y-23940D01*
X24434Y-24039D01*
X24375Y-24156D01*
X24858Y-24639D01*
X25341Y-24156D01*
X25341Y-24326D01*
X24943Y-24724D01*
X25426Y-25207D01*
X25543Y-25148D01*
X25653Y-24853D01*
X25653Y-26984D01*
X25341Y-26984D01*
X25341Y-25292D01*
X24858Y-24809D01*
X24773Y-24894D01*
X24773Y-24724D01*
X24290Y-24241D01*
X24173Y-24300D01*
X24063Y-24595D01*
X24074Y-24909D01*
X24173Y-25148D01*
X24290Y-25207D01*
X24773Y-24724D01*
X24773Y-24894D01*
X24375Y-25292D01*
X24434Y-25409D01*
X24729Y-25519D01*
X25043Y-25508D01*
X25281Y-25409D01*
X25341Y-25292D01*
X25341Y-26984D01*
X23697Y-26984D01*
X23697Y-22304D01*
X23697Y-21044D01*
X23697Y-20924D01*
X23697Y-19664D01*
X23637Y-19604D01*
X22585Y-19604D01*
X22489Y-19604D01*
X22401Y-19640D01*
X22334Y-19708D01*
X22297Y-19796D01*
X22297Y-20864D01*
X22357Y-20924D01*
X23697Y-20924D01*
X23697Y-21044D01*
X22357Y-21044D01*
X22297Y-21104D01*
X22297Y-22171D01*
X22334Y-22260D01*
X22401Y-22327D01*
X22489Y-22364D01*
X22585Y-22364D01*
X23637Y-22364D01*
X23697Y-22304D01*
X23697Y-26984D01*
X23452Y-26984D01*
X23448Y-26984D01*
X23448Y-25087D01*
X23448Y-24991D01*
X23448Y-24844D01*
X23448Y-24604D01*
X23448Y-24457D01*
X23448Y-24361D01*
X23412Y-24273D01*
X23344Y-24205D01*
X23256Y-24169D01*
X23013Y-24169D01*
X22953Y-24229D01*
X22953Y-24664D01*
X23388Y-24664D01*
X23448Y-24604D01*
X23448Y-24844D01*
X23388Y-24784D01*
X22953Y-24784D01*
X22953Y-24792D01*
X22833Y-24792D01*
X22833Y-24784D01*
X22833Y-24664D01*
X22833Y-24229D01*
X22773Y-24169D01*
X22531Y-24169D01*
X22442Y-24205D01*
X22375Y-24273D01*
X22338Y-24361D01*
X22338Y-24457D01*
X22338Y-24604D01*
X22398Y-24664D01*
X22833Y-24664D01*
X22833Y-24784D01*
X22398Y-24784D01*
X22338Y-24844D01*
X22338Y-24991D01*
X22338Y-25087D01*
X22375Y-25175D01*
X22442Y-25242D01*
X22520Y-25275D01*
X22458Y-25424D01*
X22458Y-25597D01*
X22524Y-25757D01*
X22646Y-25880D01*
X22806Y-25946D01*
X22979Y-25946D01*
X23139Y-25880D01*
X23262Y-25758D01*
X23328Y-25598D01*
X23328Y-25425D01*
X23266Y-25275D01*
X23344Y-25242D01*
X23412Y-25175D01*
X23448Y-25087D01*
X23448Y-26984D01*
X22266Y-26984D01*
X22266Y-26290D01*
X22266Y-26237D01*
X22266Y-25997D01*
X22266Y-25944D01*
X22229Y-25856D01*
X22162Y-25788D01*
X22073Y-25752D01*
X21978Y-25752D01*
X21921Y-25752D01*
X21861Y-25812D01*
X21861Y-26057D01*
X22206Y-26057D01*
X22266Y-25997D01*
X22266Y-26237D01*
X22206Y-26177D01*
X21861Y-26177D01*
X21861Y-26185D01*
X21741Y-26185D01*
X21741Y-26177D01*
X21741Y-26057D01*
X21741Y-25812D01*
X21681Y-25752D01*
X21623Y-25752D01*
X21528Y-25752D01*
X21440Y-25788D01*
X21372Y-25856D01*
X21336Y-25944D01*
X21336Y-25997D01*
X21396Y-26057D01*
X21741Y-26057D01*
X21741Y-26177D01*
X21396Y-26177D01*
X21336Y-26237D01*
X21336Y-26290D01*
X21372Y-26378D01*
X21440Y-26445D01*
X21528Y-26482D01*
X21508Y-26490D01*
X21474Y-26524D01*
X21456Y-26568D01*
X21456Y-26616D01*
X21456Y-26866D01*
X21474Y-26910D01*
X21508Y-26944D01*
X21552Y-26962D01*
X21600Y-26962D01*
X22050Y-26962D01*
X22094Y-26944D01*
X22127Y-26910D01*
X22146Y-26866D01*
X22146Y-26818D01*
X22146Y-26568D01*
X22127Y-26524D01*
X22094Y-26490D01*
X22074Y-26482D01*
X22162Y-26445D01*
X22229Y-26378D01*
X22266Y-26290D01*
X22266Y-26984D01*
X21270Y-26984D01*
X21270Y-23539D01*
X21270Y-23491D01*
X21270Y-23241D01*
X21251Y-23197D01*
X21218Y-23163D01*
X21174Y-23145D01*
X21126Y-23145D01*
X20925Y-23145D01*
X20676Y-23145D01*
X20632Y-23163D01*
X20598Y-23197D01*
X20580Y-23241D01*
X20580Y-23289D01*
X20580Y-23539D01*
X20598Y-23583D01*
X20632Y-23617D01*
X20660Y-23628D01*
X20630Y-23700D01*
X20630Y-23818D01*
X20674Y-23926D01*
X20757Y-24009D01*
X20866Y-24054D01*
X20983Y-24054D01*
X21092Y-24010D01*
X21175Y-23927D01*
X21220Y-23818D01*
X21220Y-23701D01*
X21190Y-23628D01*
X21218Y-23617D01*
X21251Y-23583D01*
X21270Y-23539D01*
X21270Y-26984D01*
X21263Y-26984D01*
X21263Y-25087D01*
X21263Y-24991D01*
X21263Y-24844D01*
X21263Y-24604D01*
X21263Y-24457D01*
X21263Y-24361D01*
X21227Y-24273D01*
X21159Y-24205D01*
X21071Y-24169D01*
X20828Y-24169D01*
X20768Y-24229D01*
X20768Y-24664D01*
X21203Y-24664D01*
X21263Y-24604D01*
X21263Y-24844D01*
X21203Y-24784D01*
X20768Y-24784D01*
X20768Y-24792D01*
X20648Y-24792D01*
X20648Y-24784D01*
X20648Y-24664D01*
X20648Y-24229D01*
X20588Y-24169D01*
X20345Y-24169D01*
X20257Y-24205D01*
X20190Y-24273D01*
X20153Y-24361D01*
X20153Y-24457D01*
X20153Y-24604D01*
X20213Y-24664D01*
X20648Y-24664D01*
X20648Y-24784D01*
X20213Y-24784D01*
X20153Y-24844D01*
X20153Y-24991D01*
X20153Y-25087D01*
X20190Y-25175D01*
X20257Y-25242D01*
X20335Y-25275D01*
X20273Y-25424D01*
X20273Y-25597D01*
X20339Y-25757D01*
X20461Y-25880D01*
X20621Y-25946D01*
X20794Y-25946D01*
X20954Y-25880D01*
X21077Y-25758D01*
X21143Y-25598D01*
X21143Y-25425D01*
X21081Y-25275D01*
X21159Y-25242D01*
X21227Y-25175D01*
X21263Y-25087D01*
X21263Y-26984D01*
X17973Y-26984D01*
X17973Y-22501D01*
X18170Y-22462D01*
X18286Y-22384D01*
X18594Y-22384D01*
X18548Y-22430D01*
X18482Y-22590D01*
X18482Y-22763D01*
X18548Y-22923D01*
X18670Y-23045D01*
X18830Y-23112D01*
X19003Y-23112D01*
X19163Y-23046D01*
X19285Y-22923D01*
X19352Y-22764D01*
X19352Y-22591D01*
X19286Y-22431D01*
X19240Y-22384D01*
X20680Y-22384D01*
X20680Y-22545D01*
X20676Y-22545D01*
X20632Y-22563D01*
X20598Y-22597D01*
X20580Y-22641D01*
X20580Y-22689D01*
X20580Y-22939D01*
X20598Y-22983D01*
X20632Y-23017D01*
X20676Y-23035D01*
X20724Y-23035D01*
X20925Y-23035D01*
X21174Y-23035D01*
X21218Y-23017D01*
X21251Y-22983D01*
X21270Y-22939D01*
X21270Y-22891D01*
X21270Y-22641D01*
X21251Y-22597D01*
X21218Y-22563D01*
X21174Y-22545D01*
X21170Y-22545D01*
X21170Y-22319D01*
X21541Y-22319D01*
X21585Y-22300D01*
X21619Y-22267D01*
X21637Y-22223D01*
X21637Y-22175D01*
X21637Y-21545D01*
X21637Y-20423D01*
X21637Y-20375D01*
X21637Y-19745D01*
X21619Y-19701D01*
X21585Y-19667D01*
X21541Y-19649D01*
X21493Y-19649D01*
X20313Y-19649D01*
X20269Y-19667D01*
X20235Y-19701D01*
X20217Y-19745D01*
X20217Y-19793D01*
X20217Y-20423D01*
X20235Y-20467D01*
X20269Y-20500D01*
X20313Y-20519D01*
X20361Y-20519D01*
X21541Y-20519D01*
X21585Y-20500D01*
X21619Y-20467D01*
X21637Y-20423D01*
X21637Y-21545D01*
X21619Y-21501D01*
X21585Y-21467D01*
X21541Y-21449D01*
X21493Y-21449D01*
X21150Y-21449D01*
X21116Y-21426D01*
X20927Y-21389D01*
X20899Y-21394D01*
X18917Y-21394D01*
X18553Y-21394D01*
X18553Y-18543D01*
X19615Y-18543D01*
X19631Y-18582D01*
X19753Y-18705D01*
X19913Y-18771D01*
X20086Y-18771D01*
X20246Y-18705D01*
X20352Y-18599D01*
X20352Y-18675D01*
X20370Y-18719D01*
X20404Y-18753D01*
X20448Y-18771D01*
X20496Y-18771D01*
X20559Y-18771D01*
X20578Y-18785D01*
X20588Y-18787D01*
X20597Y-18793D01*
X20682Y-18810D01*
X20765Y-18831D01*
X20776Y-18829D01*
X20787Y-18831D01*
X20915Y-18831D01*
X21162Y-18831D01*
X21162Y-18831D01*
X21278Y-18909D01*
X21278Y-18909D01*
X21515Y-18956D01*
X26348Y-18956D01*
X26585Y-18909D01*
X26585Y-18909D01*
X26786Y-18775D01*
X27017Y-18543D01*
X27262Y-18543D01*
X27262Y-18691D01*
X27280Y-18736D01*
X27314Y-18769D01*
X27358Y-18788D01*
X27406Y-18788D01*
X27956Y-18788D01*
X28000Y-18769D01*
X28034Y-18736D01*
X28052Y-18691D01*
X28052Y-18673D01*
X28182Y-18673D01*
X28326Y-18816D01*
X28326Y-19063D01*
X28052Y-19063D01*
X28052Y-19044D01*
X28034Y-19000D01*
X28000Y-18966D01*
X27956Y-18948D01*
X27908Y-18948D01*
X27358Y-18948D01*
X27314Y-18966D01*
X27280Y-19000D01*
X27262Y-19044D01*
X27262Y-19091D01*
X27262Y-19441D01*
X27280Y-19486D01*
X27314Y-19519D01*
X27358Y-19538D01*
X27406Y-19538D01*
X27956Y-19538D01*
X28000Y-19519D01*
X28034Y-19486D01*
X28052Y-19441D01*
X28052Y-19423D01*
X28326Y-19423D01*
X28326Y-26984D01*
M02*
