%FSLAX34Y34*%
G04 Gerber Fmt 3.4, Leading zero omitted, Abs format*
G04 (created by PCBNEW (2014-03-19 BZR 4756)-product) date Mon 28 Jul 2014 16:50:15 BRT*
%MOIN*%
G01*
G70*
G90*
G04 APERTURE LIST*
%ADD10C,0.006000*%
%ADD11R,0.079000X0.071000*%
%ADD12R,0.055118X0.055118*%
%ADD13C,0.055118*%
%ADD14R,0.039400X0.031500*%
%ADD15C,0.059055*%
%ADD16R,0.059055X0.011024*%
%ADD17R,0.011024X0.059055*%
%ADD18C,0.053150*%
%ADD19R,0.062992X0.062992*%
%ADD20C,0.062992*%
%ADD21R,0.045000X0.025000*%
%ADD22R,0.025000X0.045000*%
%ADD23R,0.055100X0.023600*%
%ADD24R,0.027559X0.019685*%
%ADD25O,0.059100X0.035400*%
%ADD26O,0.035400X0.059100*%
%ADD27C,0.026000*%
%ADD28R,0.053150X0.053150*%
%ADD29R,0.078700X0.078700*%
%ADD30C,0.078700*%
%ADD31R,0.086614X0.086614*%
%ADD32C,0.086614*%
%ADD33R,0.090551X0.090551*%
%ADD34C,0.090551*%
%ADD35R,0.059055X0.102362*%
%ADD36R,0.023622X0.035433*%
%ADD37R,0.023622X0.019685*%
%ADD38R,0.098425X0.090551*%
%ADD39R,0.090551X0.098425*%
%ADD40R,0.027000X0.022000*%
%ADD41R,0.033465X0.033465*%
%ADD42R,0.035000X0.055000*%
%ADD43R,0.055000X0.035000*%
%ADD44C,0.118110*%
%ADD45C,0.063780*%
%ADD46C,0.072835*%
%ADD47R,0.019685X0.088583*%
%ADD48R,0.078740X0.098425*%
%ADD49C,0.035433*%
%ADD50C,0.082677*%
%ADD51C,0.128000*%
%ADD52C,0.078740*%
%ADD53R,0.181102X0.090551*%
%ADD54R,0.200787X0.090551*%
%ADD55R,0.090551X0.181102*%
%ADD56R,0.013386X0.015748*%
%ADD57R,0.068000X0.068000*%
%ADD58O,0.068000X0.068000*%
%ADD59R,0.031500X0.039400*%
%ADD60R,0.062992X0.086614*%
%ADD61R,0.244000X0.228000*%
%ADD62R,0.118000X0.063000*%
%ADD63R,0.039400X0.027600*%
%ADD64R,0.027600X0.039400*%
%ADD65R,0.047244X0.055118*%
%ADD66R,0.228000X0.244000*%
%ADD67R,0.063000X0.118000*%
%ADD68R,0.011811X0.043307*%
%ADD69R,0.078740X0.212598*%
%ADD70C,0.177165*%
%ADD71R,0.110000X0.110000*%
%ADD72C,0.110000*%
%ADD73R,0.098425X0.098425*%
%ADD74R,0.078740X0.031496*%
%ADD75R,0.019685X0.027559*%
G04 APERTURE END LIST*
G54D10*
G54D11*
X27785Y-32885D03*
X27785Y-34885D03*
X29355Y-34885D03*
X29355Y-32885D03*
G54D12*
X50212Y-32501D03*
G54D13*
X50212Y-35336D03*
G54D12*
X56590Y-32501D03*
G54D13*
X56590Y-35336D03*
G54D12*
X53401Y-32501D03*
G54D13*
X53401Y-35336D03*
G54D12*
X59779Y-32501D03*
G54D13*
X59779Y-35336D03*
G54D14*
X51236Y-31537D03*
X50370Y-31912D03*
X50370Y-31162D03*
X57614Y-31537D03*
X56748Y-31912D03*
X56748Y-31162D03*
X54425Y-31537D03*
X53559Y-31912D03*
X53559Y-31162D03*
X60803Y-31537D03*
X59937Y-31912D03*
X59937Y-31162D03*
G54D15*
X51236Y-32383D03*
X51236Y-35454D03*
X57614Y-32383D03*
X57614Y-35454D03*
X52377Y-32383D03*
X52377Y-35454D03*
X58755Y-32383D03*
X58755Y-35454D03*
X54425Y-32383D03*
X54425Y-35454D03*
X60803Y-32383D03*
X60803Y-35454D03*
X55566Y-32383D03*
X55566Y-35454D03*
X61944Y-32383D03*
X61944Y-35454D03*
X49179Y-32383D03*
X49179Y-35454D03*
X42801Y-32383D03*
X42801Y-35454D03*
X48037Y-32383D03*
X48037Y-35454D03*
X41659Y-32383D03*
X41659Y-35454D03*
X45990Y-32383D03*
X45990Y-35454D03*
X39612Y-32383D03*
X39612Y-35454D03*
X44848Y-32383D03*
X44848Y-35454D03*
X38470Y-32383D03*
X38470Y-35454D03*
G54D14*
X48037Y-31537D03*
X47171Y-31912D03*
X47171Y-31162D03*
X41659Y-31537D03*
X40793Y-31912D03*
X40793Y-31162D03*
X44848Y-31537D03*
X43982Y-31912D03*
X43982Y-31162D03*
X38470Y-31537D03*
X37604Y-31912D03*
X37604Y-31162D03*
G54D12*
X47013Y-32501D03*
G54D13*
X47013Y-35336D03*
G54D12*
X40635Y-32501D03*
G54D13*
X40635Y-35336D03*
G54D12*
X43824Y-32501D03*
G54D13*
X43824Y-35336D03*
G54D12*
X37446Y-32501D03*
G54D13*
X37446Y-35336D03*
G54D16*
X27974Y-37604D03*
X27974Y-37801D03*
X27974Y-37998D03*
X27974Y-38194D03*
X27974Y-38391D03*
X27974Y-37013D03*
X27974Y-37210D03*
X27974Y-37407D03*
G54D17*
X28505Y-39710D03*
X28702Y-39710D03*
X28899Y-39710D03*
X29096Y-39710D03*
X29293Y-39710D03*
X29490Y-39710D03*
X29687Y-39710D03*
X29883Y-39710D03*
G54D16*
X31202Y-39179D03*
X31202Y-38982D03*
X31202Y-38785D03*
X31202Y-38588D03*
X31202Y-38391D03*
X31202Y-38194D03*
X31202Y-37998D03*
X31202Y-37801D03*
G54D17*
X30671Y-36482D03*
X30474Y-36482D03*
X30277Y-36482D03*
X30080Y-36482D03*
X29883Y-36482D03*
X29687Y-36482D03*
X29490Y-36482D03*
X29293Y-36482D03*
G54D16*
X27974Y-38588D03*
X27974Y-38785D03*
X27974Y-38982D03*
X27974Y-39179D03*
G54D17*
X30080Y-39710D03*
X30277Y-39710D03*
X30474Y-39710D03*
X30671Y-39710D03*
G54D16*
X31202Y-37604D03*
X31202Y-37407D03*
X31202Y-37210D03*
X31202Y-37013D03*
G54D17*
X29096Y-36482D03*
X28899Y-36482D03*
X28702Y-36482D03*
X28505Y-36482D03*
G54D18*
X32541Y-43566D03*
X32541Y-41598D03*
G54D19*
X33818Y-41248D03*
G54D20*
X34606Y-41248D03*
G54D18*
X31358Y-43566D03*
X31358Y-41598D03*
G54D19*
X33818Y-43444D03*
G54D20*
X34606Y-43444D03*
G54D18*
X30177Y-43566D03*
X30177Y-41598D03*
G54D19*
X28799Y-44625D03*
G54D20*
X28011Y-44625D03*
G54D18*
X28998Y-43013D03*
X28998Y-41045D03*
G54D19*
X26555Y-44625D03*
G54D20*
X25767Y-44625D03*
G54D18*
X27816Y-43013D03*
X27816Y-41045D03*
X26635Y-43013D03*
X26635Y-41045D03*
X34417Y-36830D03*
X34417Y-38799D03*
G54D21*
X31200Y-36011D03*
X31200Y-36611D03*
G54D19*
X32728Y-38204D03*
G54D20*
X32728Y-37417D03*
G54D22*
X29032Y-35720D03*
X28432Y-35720D03*
G54D19*
X24944Y-41177D03*
G54D20*
X24944Y-41964D03*
G54D18*
X25848Y-39923D03*
X27816Y-39923D03*
G54D21*
X26972Y-37133D03*
X26972Y-37733D03*
G54D23*
X17719Y-43285D03*
X15619Y-43285D03*
X17719Y-43785D03*
X17719Y-44285D03*
X17719Y-44785D03*
X15619Y-43785D03*
X15619Y-44285D03*
X15619Y-44785D03*
X18973Y-48781D03*
X21073Y-48781D03*
X18973Y-48281D03*
X18973Y-47781D03*
X18973Y-47281D03*
X21073Y-48281D03*
X21073Y-47781D03*
X21073Y-47281D03*
G54D15*
X13578Y-44003D03*
X13578Y-40933D03*
X13385Y-52381D03*
X13385Y-49311D03*
X18907Y-37017D03*
X18907Y-40088D03*
X15098Y-37421D03*
X15098Y-40492D03*
X13173Y-48374D03*
X16244Y-48374D03*
X15866Y-52377D03*
X18937Y-52377D03*
X20049Y-37017D03*
X20049Y-40088D03*
X16236Y-37417D03*
X16236Y-40488D03*
X13173Y-47232D03*
X16244Y-47232D03*
X15866Y-51236D03*
X18937Y-51236D03*
G54D19*
X15885Y-33807D03*
G54D20*
X15098Y-33807D03*
G54D19*
X15885Y-35992D03*
G54D20*
X15098Y-35992D03*
G54D19*
X14271Y-45452D03*
G54D20*
X13484Y-45452D03*
G54D19*
X14370Y-53799D03*
G54D20*
X13582Y-53799D03*
G54D18*
X17775Y-40393D03*
X17775Y-42362D03*
X17007Y-49783D03*
X18976Y-49783D03*
G54D23*
X30626Y-49564D03*
X28526Y-49564D03*
X30626Y-50064D03*
X30626Y-50564D03*
X30626Y-51064D03*
X28526Y-50064D03*
X28526Y-50564D03*
X28526Y-51064D03*
G54D15*
X33946Y-52972D03*
X33946Y-49901D03*
X35088Y-52972D03*
X35088Y-49901D03*
X33159Y-52972D03*
X30088Y-52972D03*
X27185Y-52303D03*
X24114Y-52303D03*
X24114Y-53444D03*
X27185Y-53444D03*
X32972Y-46476D03*
X29901Y-46476D03*
X32972Y-47618D03*
X29901Y-47618D03*
X24694Y-51161D03*
X27765Y-51161D03*
X23641Y-50078D03*
X23641Y-47007D03*
X24783Y-46988D03*
X24783Y-50059D03*
G54D18*
X31604Y-51870D03*
X31604Y-49901D03*
X32785Y-51870D03*
X32785Y-49901D03*
X27549Y-50059D03*
X27549Y-48090D03*
X26368Y-50059D03*
X26368Y-48090D03*
X36250Y-51003D03*
X36250Y-52972D03*
G54D19*
X28602Y-53425D03*
G54D20*
X28602Y-52637D03*
G54D18*
X34047Y-48444D03*
X34047Y-46476D03*
X32923Y-48779D03*
X30954Y-48779D03*
G54D19*
X22696Y-51948D03*
G54D20*
X22696Y-51161D03*
G54D18*
X45590Y-37627D03*
X47559Y-37627D03*
G54D19*
X52736Y-39149D03*
G54D20*
X53523Y-39149D03*
G54D19*
X39980Y-40452D03*
G54D20*
X39192Y-40452D03*
G54D18*
X39196Y-44043D03*
X39196Y-42074D03*
G54D24*
X49031Y-37133D03*
X49031Y-37645D03*
X48322Y-37389D03*
G54D25*
X51338Y-39149D03*
X51338Y-38649D03*
X51338Y-39649D03*
X49330Y-39149D03*
X49330Y-38649D03*
X49330Y-39649D03*
X43051Y-42570D03*
X43051Y-42070D03*
X43051Y-43070D03*
X41062Y-42570D03*
X41062Y-42070D03*
X41062Y-43070D03*
G54D26*
X39980Y-37706D03*
X39480Y-37706D03*
X40480Y-37706D03*
G54D15*
X54543Y-39149D03*
X57614Y-39149D03*
X54547Y-40452D03*
X54547Y-43523D03*
X52732Y-43992D03*
X52732Y-40921D03*
X51338Y-43992D03*
X51338Y-40921D03*
X49330Y-43992D03*
X49330Y-40921D03*
X45295Y-44212D03*
X48366Y-44212D03*
X45295Y-43070D03*
X48366Y-43070D03*
X44291Y-40305D03*
X41220Y-40305D03*
X44334Y-41122D03*
X44334Y-44192D03*
X44291Y-39163D03*
X41220Y-39163D03*
G54D23*
X47624Y-38629D03*
X45524Y-38629D03*
X47624Y-39129D03*
X47624Y-39629D03*
X47624Y-40129D03*
X45524Y-39129D03*
X45524Y-39629D03*
X45524Y-40129D03*
X47644Y-47789D03*
X45544Y-47789D03*
X47644Y-48289D03*
X47644Y-48789D03*
X47644Y-49289D03*
X45544Y-48289D03*
X45544Y-48789D03*
X45544Y-49289D03*
G54D15*
X44311Y-48259D03*
X41240Y-48259D03*
X44334Y-50285D03*
X44334Y-53355D03*
X44311Y-49470D03*
X41240Y-49470D03*
X45314Y-52229D03*
X48385Y-52229D03*
X45314Y-53371D03*
X48385Y-53371D03*
X49350Y-53037D03*
X49350Y-49966D03*
X51362Y-53037D03*
X51362Y-49966D03*
X52732Y-53037D03*
X52732Y-49966D03*
X54566Y-49611D03*
X54566Y-52682D03*
X54566Y-48194D03*
X57637Y-48194D03*
G54D26*
X40496Y-46989D03*
X40996Y-46989D03*
X39996Y-46989D03*
G54D25*
X40452Y-52226D03*
X40452Y-52726D03*
X40452Y-51726D03*
X42448Y-52226D03*
X42448Y-52726D03*
X42448Y-51726D03*
X49346Y-48194D03*
X49346Y-47694D03*
X49346Y-48694D03*
X51362Y-48194D03*
X51362Y-47694D03*
X51362Y-48694D03*
G54D24*
X49047Y-46166D03*
X49047Y-46678D03*
X48338Y-46422D03*
G54D18*
X39161Y-52651D03*
X39161Y-50682D03*
G54D19*
X40000Y-49037D03*
G54D20*
X39212Y-49037D03*
G54D19*
X52751Y-48194D03*
G54D20*
X53539Y-48194D03*
G54D18*
X45610Y-46787D03*
X47578Y-46787D03*
G54D27*
X56507Y-29133D03*
X56507Y-29527D03*
X56114Y-29133D03*
X56114Y-29527D03*
X55720Y-29133D03*
X55720Y-29527D03*
X55326Y-29133D03*
X55326Y-29527D03*
X54933Y-29133D03*
X54933Y-29527D03*
X54539Y-29133D03*
X54539Y-29527D03*
X54145Y-29133D03*
X54145Y-29527D03*
X53751Y-29133D03*
X53751Y-29527D03*
X53358Y-29133D03*
X53358Y-29527D03*
X52964Y-29133D03*
X52964Y-29527D03*
X52570Y-29133D03*
X52570Y-29527D03*
X52177Y-29133D03*
X52177Y-29527D03*
X51783Y-29133D03*
X51783Y-29527D03*
X51389Y-29133D03*
X51389Y-29527D03*
X50996Y-29133D03*
X50996Y-29527D03*
X50602Y-29133D03*
X50602Y-29527D03*
X50208Y-29133D03*
X50208Y-29527D03*
X49814Y-29133D03*
X49814Y-29527D03*
X49421Y-29133D03*
X49421Y-29527D03*
X49027Y-29133D03*
X49027Y-29527D03*
X48633Y-29133D03*
X48633Y-29527D03*
X48240Y-29133D03*
X48240Y-29527D03*
X47846Y-29133D03*
X47846Y-29527D03*
X47452Y-29133D03*
X47452Y-29527D03*
X47059Y-29133D03*
X47059Y-29527D03*
X46665Y-29133D03*
X46665Y-29527D03*
X46271Y-29133D03*
X46271Y-29527D03*
X45877Y-29133D03*
X45877Y-29527D03*
X45484Y-29133D03*
X45484Y-29527D03*
X45090Y-29133D03*
X45090Y-29527D03*
X44303Y-29133D03*
X44303Y-29527D03*
X43909Y-29133D03*
X43909Y-29527D03*
X43515Y-29133D03*
X43515Y-29527D03*
X43122Y-29133D03*
X43122Y-29527D03*
X42728Y-29133D03*
X42728Y-29527D03*
X42334Y-29133D03*
X42334Y-29527D03*
X41940Y-29133D03*
X41940Y-29527D03*
X41547Y-29133D03*
X41547Y-29527D03*
X41153Y-29133D03*
X41153Y-29527D03*
X40759Y-29133D03*
X40759Y-29527D03*
X40366Y-29133D03*
X40366Y-29527D03*
X39972Y-29133D03*
X39972Y-29527D03*
X39578Y-29133D03*
X39578Y-29527D03*
X39185Y-29133D03*
X39185Y-29527D03*
X38791Y-29133D03*
X38791Y-29527D03*
X38397Y-29133D03*
X38397Y-29527D03*
X38003Y-29133D03*
X38003Y-29527D03*
X37610Y-29133D03*
X37610Y-29527D03*
X37216Y-29133D03*
X37216Y-29527D03*
X36822Y-29133D03*
X36822Y-29527D03*
X36429Y-29133D03*
X36429Y-29527D03*
X36035Y-29133D03*
X36035Y-29527D03*
X35641Y-29133D03*
X35641Y-29527D03*
X35248Y-29133D03*
X35248Y-29527D03*
X34854Y-29133D03*
X34854Y-29527D03*
X34460Y-29133D03*
X34460Y-29527D03*
X34066Y-29133D03*
X34066Y-29527D03*
X33673Y-29133D03*
X33673Y-29527D03*
X33279Y-29133D03*
X33279Y-29527D03*
X32885Y-29133D03*
X32885Y-29527D03*
X56507Y-7874D03*
X56507Y-8267D03*
X56114Y-7874D03*
X56114Y-8267D03*
X55720Y-7874D03*
X55720Y-8267D03*
X55326Y-7874D03*
X55326Y-8267D03*
X54933Y-7874D03*
X54933Y-8267D03*
X54539Y-7874D03*
X54539Y-8267D03*
X54145Y-7874D03*
X54145Y-8267D03*
X53751Y-7874D03*
X53751Y-8267D03*
X53358Y-7874D03*
X53358Y-8267D03*
X52964Y-7874D03*
X52964Y-8267D03*
X52570Y-7874D03*
X52570Y-8267D03*
X52177Y-7874D03*
X52177Y-8267D03*
X51783Y-7874D03*
X51783Y-8267D03*
X51389Y-7874D03*
X51389Y-8267D03*
X50996Y-7874D03*
X50996Y-8267D03*
X50602Y-7874D03*
X50602Y-8267D03*
X50208Y-7874D03*
X50208Y-8267D03*
X49814Y-7874D03*
X49814Y-8267D03*
X49421Y-7874D03*
X49421Y-8267D03*
X49027Y-7874D03*
X49027Y-8267D03*
X48633Y-7874D03*
X48633Y-8267D03*
X48240Y-7874D03*
X48240Y-8267D03*
X47846Y-7874D03*
X47846Y-8267D03*
X47452Y-7874D03*
X47452Y-8267D03*
X47059Y-7874D03*
X47059Y-8267D03*
X46665Y-7874D03*
X46665Y-8267D03*
X46271Y-7874D03*
X46271Y-8267D03*
X45877Y-7874D03*
X45877Y-8267D03*
X45484Y-7874D03*
X45484Y-8267D03*
X45090Y-7874D03*
X45090Y-8267D03*
X44303Y-7874D03*
X44303Y-8267D03*
X43909Y-7874D03*
X43909Y-8267D03*
X43515Y-7874D03*
X43515Y-8267D03*
X43122Y-7874D03*
X43122Y-8267D03*
X42728Y-7874D03*
X42728Y-8267D03*
X42334Y-7874D03*
X42334Y-8267D03*
X41940Y-7874D03*
X41940Y-8267D03*
X41547Y-7874D03*
X41547Y-8267D03*
X41153Y-7874D03*
X41153Y-8267D03*
X40759Y-7874D03*
X40759Y-8267D03*
X40366Y-7874D03*
X40366Y-8267D03*
X39972Y-7874D03*
X39972Y-8267D03*
X39578Y-7874D03*
X39578Y-8267D03*
X39185Y-7874D03*
X39185Y-8267D03*
X38791Y-7874D03*
X38791Y-8267D03*
X38397Y-7874D03*
X38397Y-8267D03*
X38003Y-7874D03*
X38003Y-8267D03*
X37610Y-7874D03*
X37610Y-8267D03*
X37216Y-7874D03*
X37216Y-8267D03*
X36822Y-7874D03*
X36822Y-8267D03*
X36429Y-7874D03*
X36429Y-8267D03*
X36035Y-7874D03*
X36035Y-8267D03*
X35641Y-7874D03*
X35641Y-8267D03*
X35248Y-7874D03*
X35248Y-8267D03*
X34854Y-7874D03*
X34854Y-8267D03*
X34460Y-7874D03*
X34460Y-8267D03*
X34066Y-7874D03*
X34066Y-8267D03*
X33673Y-7874D03*
X33673Y-8267D03*
X33279Y-7874D03*
X33279Y-8267D03*
X32885Y-7874D03*
X32885Y-8267D03*
G54D22*
X16274Y-9940D03*
X16874Y-9940D03*
G54D21*
X21712Y-13292D03*
X21712Y-12692D03*
G54D19*
X19704Y-14212D03*
G54D20*
X19704Y-13425D03*
G54D19*
X20102Y-16015D03*
G54D20*
X19314Y-16015D03*
G54D19*
X16602Y-17921D03*
G54D20*
X16602Y-17133D03*
G54D22*
X20008Y-17464D03*
X19408Y-17464D03*
G54D19*
X30976Y-10929D03*
G54D20*
X30976Y-11716D03*
G54D21*
X29527Y-11018D03*
X29527Y-11618D03*
X29531Y-7955D03*
X29531Y-8555D03*
G54D19*
X30976Y-8653D03*
G54D20*
X30976Y-7866D03*
G54D22*
X61581Y-5059D03*
X60981Y-5059D03*
X53063Y-3877D03*
X52463Y-3877D03*
G54D19*
X61525Y-6476D03*
G54D20*
X62312Y-6476D03*
G54D19*
X53137Y-4929D03*
G54D20*
X53137Y-5716D03*
G54D22*
X52134Y-6393D03*
X51534Y-6393D03*
G54D28*
X6673Y-6811D03*
X10610Y-6811D03*
G54D29*
X3523Y-10986D03*
G54D30*
X3523Y-9486D03*
G54D19*
X54940Y-5318D03*
G54D20*
X55728Y-5318D03*
G54D19*
X60285Y-10295D03*
G54D20*
X60285Y-11082D03*
G54D21*
X44330Y-1137D03*
X44330Y-1737D03*
X22283Y-1137D03*
X22283Y-1737D03*
G54D19*
X13799Y-5000D03*
G54D20*
X13799Y-4212D03*
G54D22*
X13804Y-6131D03*
X14404Y-6131D03*
X23776Y-11318D03*
X23176Y-11318D03*
G54D28*
X6397Y-13228D03*
X2460Y-13228D03*
G54D31*
X8405Y-13228D03*
G54D32*
X10374Y-13228D03*
G54D33*
X11921Y-24547D03*
G54D34*
X14874Y-24547D03*
G54D33*
X5374Y-24553D03*
G54D34*
X2421Y-24553D03*
G54D28*
X8779Y-24553D03*
X8779Y-28490D03*
G54D29*
X36708Y-36722D03*
G54D30*
X36708Y-38222D03*
G54D29*
X36422Y-45543D03*
G54D30*
X36422Y-47043D03*
G54D19*
X22503Y-36633D03*
G54D20*
X23291Y-36633D03*
G54D18*
X23555Y-34818D03*
X23555Y-32850D03*
G54D19*
X14192Y-30342D03*
G54D20*
X13405Y-30342D03*
G54D18*
X14783Y-32114D03*
X12814Y-32114D03*
G54D19*
X13543Y-36562D03*
G54D20*
X13543Y-37350D03*
G54D19*
X11358Y-35283D03*
G54D20*
X10570Y-35283D03*
G54D19*
X11358Y-32724D03*
G54D20*
X10570Y-32724D03*
G54D35*
X12007Y-49507D03*
X10236Y-49507D03*
X12007Y-41161D03*
X10236Y-41161D03*
G54D36*
X58001Y-8704D03*
G54D37*
X58001Y-9374D03*
X58750Y-9374D03*
X58750Y-8625D03*
G54D36*
X50196Y-4704D03*
G54D37*
X50196Y-5374D03*
X50944Y-5374D03*
X50944Y-4625D03*
G54D38*
X6397Y-9311D03*
X6397Y-11003D03*
G54D39*
X14389Y-11653D03*
X16082Y-11653D03*
G54D40*
X23488Y-8629D03*
X23488Y-7669D03*
G54D41*
X19576Y-5944D03*
X20895Y-5944D03*
X17608Y-5944D03*
X16289Y-5944D03*
G54D42*
X47065Y-767D03*
X47815Y-767D03*
G54D43*
X60124Y-2593D03*
X60124Y-3343D03*
X60289Y-5058D03*
X60289Y-5808D03*
X51712Y-3876D03*
X51712Y-4626D03*
G54D44*
X62476Y-45541D03*
X64976Y-45541D03*
X59976Y-45541D03*
X62476Y-39151D03*
X64976Y-39151D03*
X59976Y-39151D03*
X62476Y-53887D03*
X64976Y-53887D03*
X59976Y-53887D03*
X62476Y-47498D03*
X64976Y-47498D03*
X59976Y-47498D03*
X4137Y-39151D03*
X1637Y-39151D03*
X6637Y-39151D03*
X4137Y-45541D03*
X1637Y-45541D03*
X6637Y-45541D03*
X4137Y-47498D03*
X1637Y-47498D03*
X6637Y-47498D03*
X4137Y-53887D03*
X1637Y-53887D03*
X6637Y-53887D03*
X4137Y-30805D03*
X1637Y-30805D03*
X6637Y-30805D03*
X4137Y-37194D03*
X1637Y-37194D03*
X6637Y-37194D03*
G54D45*
X58375Y-4551D03*
X58375Y-5338D03*
X58375Y-6125D03*
G54D46*
X59446Y-4263D03*
G54D45*
X58375Y-6913D03*
G54D46*
X59446Y-7019D03*
X57305Y-4263D03*
X57305Y-7019D03*
G54D47*
X51043Y-2972D03*
X50728Y-2972D03*
X50413Y-2972D03*
X50098Y-2972D03*
X49783Y-2972D03*
G54D48*
X52165Y-2923D03*
X52165Y-777D03*
X48661Y-2923D03*
X48661Y-777D03*
G54D49*
X51279Y-1919D03*
X49547Y-1919D03*
G54D50*
X21594Y-2440D03*
X15192Y-2440D03*
G54D13*
X19799Y-2790D03*
X18996Y-2790D03*
X18192Y-2790D03*
X17389Y-2790D03*
X18594Y-2090D03*
X17791Y-2090D03*
X19397Y-2090D03*
X16988Y-2090D03*
G54D51*
X15893Y-1090D03*
X20893Y-1090D03*
G54D52*
X38129Y-5511D03*
X38129Y-590D03*
X37145Y-4527D03*
X40098Y-4527D03*
X43051Y-4527D03*
X42066Y-5511D03*
X42066Y-590D03*
X24547Y-5511D03*
X24547Y-590D03*
X23562Y-4527D03*
X26515Y-4527D03*
X29468Y-4527D03*
X28484Y-5511D03*
X28484Y-590D03*
G54D53*
X10629Y-2637D03*
G54D54*
X10629Y-5000D03*
G54D55*
X8779Y-3818D03*
G54D32*
X7204Y-21797D03*
X7204Y-19828D03*
X8779Y-19828D03*
X8779Y-21797D03*
G54D56*
X58474Y-7692D03*
X58277Y-7692D03*
X58277Y-8007D03*
X58474Y-8007D03*
X50669Y-3700D03*
X50472Y-3700D03*
X50472Y-4015D03*
X50669Y-4015D03*
G54D57*
X21671Y-22389D03*
G54D58*
X21671Y-21389D03*
X22671Y-22389D03*
X22671Y-21389D03*
X23671Y-22389D03*
X23671Y-21389D03*
X24671Y-22389D03*
X24671Y-21389D03*
X25671Y-22389D03*
X25671Y-21389D03*
X26671Y-22389D03*
X26671Y-21389D03*
X27671Y-22389D03*
X27671Y-21389D03*
X28671Y-22389D03*
X28671Y-21389D03*
X29671Y-22389D03*
X29671Y-21389D03*
X30671Y-22389D03*
X30671Y-21389D03*
G54D59*
X16736Y-32448D03*
X16361Y-31582D03*
X17111Y-31582D03*
X18452Y-24291D03*
X18077Y-23425D03*
X18827Y-23425D03*
X19814Y-25632D03*
X19439Y-24766D03*
X20189Y-24766D03*
G54D14*
X33740Y-5960D03*
X32874Y-6335D03*
X32874Y-5585D03*
G54D59*
X31299Y-5165D03*
X31674Y-6031D03*
X30924Y-6031D03*
G54D43*
X19074Y-7658D03*
X19074Y-6908D03*
X18110Y-6928D03*
X18110Y-7678D03*
G54D22*
X20890Y-9940D03*
X20290Y-9940D03*
X20890Y-9192D03*
X20290Y-9192D03*
X20890Y-8444D03*
X20290Y-8444D03*
G54D21*
X30669Y-19946D03*
X30669Y-20546D03*
X22667Y-19946D03*
X22667Y-20546D03*
X31279Y-19946D03*
X31279Y-20546D03*
X23671Y-19946D03*
X23671Y-20546D03*
X21535Y-9936D03*
X21535Y-10536D03*
X28669Y-19946D03*
X28669Y-20546D03*
X29366Y-19946D03*
X29366Y-20546D03*
X27972Y-19946D03*
X27972Y-20546D03*
G54D22*
X45074Y-30564D03*
X45674Y-30564D03*
X48262Y-30564D03*
X48862Y-30564D03*
X41894Y-30564D03*
X42494Y-30564D03*
X38705Y-30564D03*
X39305Y-30564D03*
X57839Y-30564D03*
X58439Y-30564D03*
X38203Y-30564D03*
X37603Y-30564D03*
X41392Y-30564D03*
X40792Y-30564D03*
X44581Y-30564D03*
X43981Y-30564D03*
X47770Y-30564D03*
X47170Y-30564D03*
X61028Y-30564D03*
X61628Y-30564D03*
X54660Y-30564D03*
X55260Y-30564D03*
X51461Y-30564D03*
X52061Y-30564D03*
X50969Y-30564D03*
X50369Y-30564D03*
X54158Y-30564D03*
X53558Y-30564D03*
X57347Y-30564D03*
X56747Y-30564D03*
X60536Y-30564D03*
X59936Y-30564D03*
G54D21*
X15787Y-31853D03*
X15787Y-32453D03*
X17846Y-24404D03*
X17846Y-25004D03*
X19208Y-25747D03*
X19208Y-26347D03*
X46944Y-6160D03*
X46944Y-6760D03*
X51692Y-5196D03*
X51692Y-5796D03*
G54D22*
X53790Y-2440D03*
X54390Y-2440D03*
X61855Y-7933D03*
X62455Y-7933D03*
G54D21*
X55240Y-3607D03*
X55240Y-3007D03*
G54D22*
X62455Y-9232D03*
X61855Y-9232D03*
G54D21*
X61860Y-10477D03*
X61860Y-9877D03*
G54D22*
X56437Y-3007D03*
X55837Y-3007D03*
G54D42*
X35886Y-5055D03*
X35136Y-5055D03*
G54D43*
X22724Y-8247D03*
X22724Y-8997D03*
G54D42*
X35886Y-6275D03*
X35136Y-6275D03*
X18217Y-5944D03*
X18967Y-5944D03*
G54D21*
X34409Y-6260D03*
X34409Y-5660D03*
X32244Y-5591D03*
X32244Y-4991D03*
G54D22*
X17229Y-6929D03*
X16629Y-6929D03*
X20575Y-6909D03*
X19975Y-6909D03*
G54D21*
X26944Y-33158D03*
X26944Y-32558D03*
X35145Y-32280D03*
X35145Y-31680D03*
X34448Y-32280D03*
X34448Y-31680D03*
X33055Y-31562D03*
X33055Y-32162D03*
G54D22*
X34449Y-32877D03*
X33849Y-32877D03*
G54D21*
X35145Y-32778D03*
X35145Y-33378D03*
G54D22*
X26225Y-35838D03*
X25625Y-35838D03*
X26225Y-36535D03*
X25625Y-36535D03*
G54D60*
X45468Y-6074D03*
X45468Y-2492D03*
G54D12*
X23598Y-18799D03*
G54D23*
X17532Y-9942D03*
X19632Y-9942D03*
X17532Y-9442D03*
X17532Y-8942D03*
X17532Y-8442D03*
X19632Y-9442D03*
X19632Y-8942D03*
X19632Y-8442D03*
G54D61*
X24544Y-15118D03*
G54D62*
X21714Y-14218D03*
X21714Y-16018D03*
G54D63*
X53594Y-3871D03*
X53594Y-3496D03*
X53594Y-3121D03*
X54594Y-3121D03*
X54594Y-3496D03*
X54594Y-3871D03*
G54D64*
X60284Y-8220D03*
X60659Y-8220D03*
X61034Y-8220D03*
X61034Y-9220D03*
X60659Y-9220D03*
X60284Y-9220D03*
G54D65*
X27358Y-7775D03*
X26358Y-7775D03*
X25358Y-7775D03*
X24358Y-7775D03*
X27358Y-11318D03*
X26358Y-11318D03*
X25358Y-11318D03*
X24358Y-11318D03*
G54D66*
X21602Y-31982D03*
G54D67*
X20702Y-34812D03*
X22502Y-34812D03*
G54D61*
X29336Y-27799D03*
G54D62*
X26506Y-26899D03*
X26506Y-28699D03*
G54D68*
X12814Y-34909D03*
X13011Y-34909D03*
X13208Y-34909D03*
X13405Y-34909D03*
X13602Y-34909D03*
X13602Y-33059D03*
X13405Y-33059D03*
X13208Y-33059D03*
X13011Y-33059D03*
X12814Y-33059D03*
G54D69*
X10610Y-9291D03*
X8011Y-9291D03*
X11791Y-9291D03*
X14389Y-9291D03*
G54D15*
X12047Y-36956D03*
X8976Y-36956D03*
X8976Y-31051D03*
X12047Y-31051D03*
G54D29*
X23746Y-44799D03*
G54D30*
X22246Y-44799D03*
G54D18*
X55614Y-53733D03*
X53645Y-53733D03*
X55614Y-44685D03*
X53645Y-44685D03*
G54D22*
X15133Y-30933D03*
X15733Y-30933D03*
X16432Y-30933D03*
X17032Y-30933D03*
G54D21*
X27322Y-23878D03*
X27322Y-23278D03*
X23838Y-23878D03*
X23838Y-23278D03*
X28019Y-23878D03*
X28019Y-23278D03*
X25230Y-23878D03*
X25230Y-23278D03*
X26625Y-23878D03*
X26625Y-23278D03*
X25929Y-23878D03*
X25929Y-23278D03*
X28716Y-23878D03*
X28716Y-23278D03*
X24535Y-23878D03*
X24535Y-23278D03*
G54D22*
X44335Y-10188D03*
X43735Y-10188D03*
G54D21*
X42137Y-9396D03*
X42137Y-9996D03*
G54D22*
X30924Y-6673D03*
X31524Y-6673D03*
X44337Y-9492D03*
X44937Y-9492D03*
G54D21*
X45814Y-9800D03*
X45814Y-9200D03*
X47905Y-9800D03*
X47905Y-9200D03*
G54D22*
X40940Y-9303D03*
X41540Y-9303D03*
G54D21*
X46511Y-9200D03*
X46511Y-9800D03*
G54D22*
X40940Y-10000D03*
X41540Y-10000D03*
G54D21*
X33055Y-31063D03*
X33055Y-30463D03*
X34448Y-31063D03*
X34448Y-30463D03*
X35145Y-30463D03*
X35145Y-31063D03*
X33751Y-31063D03*
X33751Y-30463D03*
G54D22*
X22650Y-24122D03*
X22050Y-24122D03*
X21957Y-23425D03*
X21357Y-23425D03*
X23847Y-25515D03*
X23247Y-25515D03*
X23347Y-24818D03*
X22747Y-24818D03*
G54D43*
X20866Y-17495D03*
X20866Y-18245D03*
G54D18*
X63110Y-34903D03*
X63110Y-32935D03*
G54D70*
X4940Y-3572D03*
X1988Y-3572D03*
X4940Y-1604D03*
X1988Y-1604D03*
X64625Y-3572D03*
X61673Y-3572D03*
X64625Y-1604D03*
X61673Y-1604D03*
X34783Y-3574D03*
X31830Y-3574D03*
X34783Y-1606D03*
X31830Y-1606D03*
G54D71*
X19215Y-20728D03*
G54D72*
X17655Y-20728D03*
G54D18*
X56122Y-49611D03*
X56122Y-51580D03*
X56102Y-40452D03*
X56102Y-42421D03*
X47677Y-50674D03*
X45708Y-50674D03*
X47657Y-41515D03*
X45688Y-41515D03*
X42322Y-46704D03*
X44291Y-46704D03*
X42303Y-37608D03*
X44271Y-37608D03*
X20496Y-51685D03*
X20496Y-49716D03*
X17622Y-48661D03*
X17622Y-46692D03*
X14681Y-41901D03*
X16649Y-41901D03*
X18909Y-41464D03*
X20877Y-41464D03*
G54D73*
X3295Y-6311D03*
X65889Y-33921D03*
G54D74*
X12303Y-52066D03*
X12303Y-53799D03*
X9940Y-52933D03*
X12303Y-50807D03*
X9940Y-50807D03*
X12303Y-43720D03*
X12303Y-45452D03*
X9940Y-44586D03*
X12303Y-42460D03*
X9940Y-42460D03*
G54D19*
X26507Y-29850D03*
G54D20*
X26507Y-30637D03*
G54D21*
X27948Y-29944D03*
X27948Y-30544D03*
G54D19*
X29000Y-30244D03*
G54D20*
X29787Y-30244D03*
G54D21*
X30842Y-29940D03*
X30842Y-30540D03*
G54D43*
X56055Y-31835D03*
X56055Y-31085D03*
X43287Y-31835D03*
X43287Y-31085D03*
G54D59*
X21157Y-26976D03*
X20782Y-26110D03*
X21532Y-26110D03*
X22543Y-28318D03*
X22168Y-27452D03*
X22918Y-27452D03*
G54D22*
X20046Y-27188D03*
X20646Y-27188D03*
X23142Y-28960D03*
X22542Y-28960D03*
X29227Y-32039D03*
X29827Y-32039D03*
G54D21*
X45031Y-10729D03*
X45031Y-10129D03*
X47208Y-9800D03*
X47208Y-9200D03*
G54D22*
X32455Y-32759D03*
X33055Y-32759D03*
G54D42*
X28229Y-31897D03*
X27479Y-31897D03*
G54D75*
X33551Y-39661D03*
X33039Y-39661D03*
X33295Y-38952D03*
X32413Y-39653D03*
X31901Y-39653D03*
X32157Y-38944D03*
M02*
