%FSLAX34Y34*%
G04 Gerber Fmt 3.4, Leading zero omitted, Abs format*
G04 (created by PCBNEW (2014-03-19 BZR 4756)-product) date Mon 28 Jul 2014 16:50:15 BRT*
%MOIN*%
G01*
G70*
G90*
G04 APERTURE LIST*
%ADD10C,0.006000*%
%ADD11R,0.055118X0.055118*%
%ADD12C,0.055118*%
%ADD13C,0.059055*%
%ADD14C,0.053150*%
%ADD15R,0.062992X0.062992*%
%ADD16C,0.062992*%
%ADD17O,0.059100X0.035400*%
%ADD18O,0.035400X0.059100*%
%ADD19C,0.026000*%
%ADD20R,0.053150X0.053150*%
%ADD21R,0.078700X0.078700*%
%ADD22C,0.078700*%
%ADD23R,0.086614X0.086614*%
%ADD24C,0.086614*%
%ADD25R,0.090551X0.090551*%
%ADD26C,0.090551*%
%ADD27C,0.118110*%
%ADD28C,0.063780*%
%ADD29C,0.072835*%
%ADD30C,0.035433*%
%ADD31C,0.082677*%
%ADD32C,0.128000*%
%ADD33C,0.078740*%
%ADD34R,0.181102X0.090551*%
%ADD35R,0.200787X0.090551*%
%ADD36R,0.090551X0.181102*%
%ADD37R,0.068000X0.068000*%
%ADD38O,0.068000X0.068000*%
%ADD39C,0.177165*%
%ADD40R,0.110000X0.110000*%
%ADD41C,0.110000*%
%ADD42R,0.098425X0.098425*%
G04 APERTURE END LIST*
G54D10*
G54D11*
X50212Y-32501D03*
G54D12*
X50212Y-35336D03*
G54D11*
X56590Y-32501D03*
G54D12*
X56590Y-35336D03*
G54D11*
X53401Y-32501D03*
G54D12*
X53401Y-35336D03*
G54D11*
X59779Y-32501D03*
G54D12*
X59779Y-35336D03*
G54D13*
X51236Y-32383D03*
X51236Y-35454D03*
X57614Y-32383D03*
X57614Y-35454D03*
X52377Y-32383D03*
X52377Y-35454D03*
X58755Y-32383D03*
X58755Y-35454D03*
X54425Y-32383D03*
X54425Y-35454D03*
X60803Y-32383D03*
X60803Y-35454D03*
X55566Y-32383D03*
X55566Y-35454D03*
X61944Y-32383D03*
X61944Y-35454D03*
X49179Y-32383D03*
X49179Y-35454D03*
X42801Y-32383D03*
X42801Y-35454D03*
X48037Y-32383D03*
X48037Y-35454D03*
X41659Y-32383D03*
X41659Y-35454D03*
X45990Y-32383D03*
X45990Y-35454D03*
X39612Y-32383D03*
X39612Y-35454D03*
X44848Y-32383D03*
X44848Y-35454D03*
X38470Y-32383D03*
X38470Y-35454D03*
G54D11*
X47013Y-32501D03*
G54D12*
X47013Y-35336D03*
G54D11*
X40635Y-32501D03*
G54D12*
X40635Y-35336D03*
G54D11*
X43824Y-32501D03*
G54D12*
X43824Y-35336D03*
G54D11*
X37446Y-32501D03*
G54D12*
X37446Y-35336D03*
G54D14*
X32541Y-43566D03*
X32541Y-41598D03*
G54D15*
X33818Y-41248D03*
G54D16*
X34606Y-41248D03*
G54D14*
X31358Y-43566D03*
X31358Y-41598D03*
G54D15*
X33818Y-43444D03*
G54D16*
X34606Y-43444D03*
G54D14*
X30177Y-43566D03*
X30177Y-41598D03*
G54D15*
X28799Y-44625D03*
G54D16*
X28011Y-44625D03*
G54D14*
X28998Y-43013D03*
X28998Y-41045D03*
G54D15*
X26555Y-44625D03*
G54D16*
X25767Y-44625D03*
G54D14*
X27816Y-43013D03*
X27816Y-41045D03*
X26635Y-43013D03*
X26635Y-41045D03*
X34417Y-36830D03*
X34417Y-38799D03*
G54D15*
X32728Y-38204D03*
G54D16*
X32728Y-37417D03*
G54D15*
X24944Y-41177D03*
G54D16*
X24944Y-41964D03*
G54D14*
X25848Y-39923D03*
X27816Y-39923D03*
G54D13*
X13578Y-44003D03*
X13578Y-40933D03*
X13385Y-52381D03*
X13385Y-49311D03*
X18907Y-37017D03*
X18907Y-40088D03*
X15098Y-37421D03*
X15098Y-40492D03*
X13173Y-48374D03*
X16244Y-48374D03*
X15866Y-52377D03*
X18937Y-52377D03*
X20049Y-37017D03*
X20049Y-40088D03*
X16236Y-37417D03*
X16236Y-40488D03*
X13173Y-47232D03*
X16244Y-47232D03*
X15866Y-51236D03*
X18937Y-51236D03*
G54D15*
X15885Y-33807D03*
G54D16*
X15098Y-33807D03*
G54D15*
X15885Y-35992D03*
G54D16*
X15098Y-35992D03*
G54D15*
X14271Y-45452D03*
G54D16*
X13484Y-45452D03*
G54D15*
X14370Y-53799D03*
G54D16*
X13582Y-53799D03*
G54D14*
X17775Y-40393D03*
X17775Y-42362D03*
X17007Y-49783D03*
X18976Y-49783D03*
G54D13*
X33946Y-52972D03*
X33946Y-49901D03*
X35088Y-52972D03*
X35088Y-49901D03*
X33159Y-52972D03*
X30088Y-52972D03*
X27185Y-52303D03*
X24114Y-52303D03*
X24114Y-53444D03*
X27185Y-53444D03*
X32972Y-46476D03*
X29901Y-46476D03*
X32972Y-47618D03*
X29901Y-47618D03*
X24694Y-51161D03*
X27765Y-51161D03*
X23641Y-50078D03*
X23641Y-47007D03*
X24783Y-46988D03*
X24783Y-50059D03*
G54D14*
X31604Y-51870D03*
X31604Y-49901D03*
X32785Y-51870D03*
X32785Y-49901D03*
X27549Y-50059D03*
X27549Y-48090D03*
X26368Y-50059D03*
X26368Y-48090D03*
X36250Y-51003D03*
X36250Y-52972D03*
G54D15*
X28602Y-53425D03*
G54D16*
X28602Y-52637D03*
G54D14*
X34047Y-48444D03*
X34047Y-46476D03*
X32923Y-48779D03*
X30954Y-48779D03*
G54D15*
X22696Y-51948D03*
G54D16*
X22696Y-51161D03*
G54D14*
X45590Y-37627D03*
X47559Y-37627D03*
G54D15*
X52736Y-39149D03*
G54D16*
X53523Y-39149D03*
G54D15*
X39980Y-40452D03*
G54D16*
X39192Y-40452D03*
G54D14*
X39196Y-44043D03*
X39196Y-42074D03*
G54D17*
X51338Y-39149D03*
X51338Y-38649D03*
X51338Y-39649D03*
X49330Y-39149D03*
X49330Y-38649D03*
X49330Y-39649D03*
X43051Y-42570D03*
X43051Y-42070D03*
X43051Y-43070D03*
X41062Y-42570D03*
X41062Y-42070D03*
X41062Y-43070D03*
G54D18*
X39980Y-37706D03*
X39480Y-37706D03*
X40480Y-37706D03*
G54D13*
X54543Y-39149D03*
X57614Y-39149D03*
X54547Y-40452D03*
X54547Y-43523D03*
X52732Y-43992D03*
X52732Y-40921D03*
X51338Y-43992D03*
X51338Y-40921D03*
X49330Y-43992D03*
X49330Y-40921D03*
X45295Y-44212D03*
X48366Y-44212D03*
X45295Y-43070D03*
X48366Y-43070D03*
X44291Y-40305D03*
X41220Y-40305D03*
X44334Y-41122D03*
X44334Y-44192D03*
X44291Y-39163D03*
X41220Y-39163D03*
X44311Y-48259D03*
X41240Y-48259D03*
X44334Y-50285D03*
X44334Y-53355D03*
X44311Y-49470D03*
X41240Y-49470D03*
X45314Y-52229D03*
X48385Y-52229D03*
X45314Y-53371D03*
X48385Y-53371D03*
X49350Y-53037D03*
X49350Y-49966D03*
X51362Y-53037D03*
X51362Y-49966D03*
X52732Y-53037D03*
X52732Y-49966D03*
X54566Y-49611D03*
X54566Y-52682D03*
X54566Y-48194D03*
X57637Y-48194D03*
G54D18*
X40496Y-46989D03*
X40996Y-46989D03*
X39996Y-46989D03*
G54D17*
X40452Y-52226D03*
X40452Y-52726D03*
X40452Y-51726D03*
X42448Y-52226D03*
X42448Y-52726D03*
X42448Y-51726D03*
X49346Y-48194D03*
X49346Y-47694D03*
X49346Y-48694D03*
X51362Y-48194D03*
X51362Y-47694D03*
X51362Y-48694D03*
G54D14*
X39161Y-52651D03*
X39161Y-50682D03*
G54D15*
X40000Y-49037D03*
G54D16*
X39212Y-49037D03*
G54D15*
X52751Y-48194D03*
G54D16*
X53539Y-48194D03*
G54D14*
X45610Y-46787D03*
X47578Y-46787D03*
G54D19*
X56507Y-29133D03*
X56507Y-29527D03*
X56114Y-29133D03*
X56114Y-29527D03*
X55720Y-29133D03*
X55720Y-29527D03*
X55326Y-29133D03*
X55326Y-29527D03*
X54933Y-29133D03*
X54933Y-29527D03*
X54539Y-29133D03*
X54539Y-29527D03*
X54145Y-29133D03*
X54145Y-29527D03*
X53751Y-29133D03*
X53751Y-29527D03*
X53358Y-29133D03*
X53358Y-29527D03*
X52964Y-29133D03*
X52964Y-29527D03*
X52570Y-29133D03*
X52570Y-29527D03*
X52177Y-29133D03*
X52177Y-29527D03*
X51783Y-29133D03*
X51783Y-29527D03*
X51389Y-29133D03*
X51389Y-29527D03*
X50996Y-29133D03*
X50996Y-29527D03*
X50602Y-29133D03*
X50602Y-29527D03*
X50208Y-29133D03*
X50208Y-29527D03*
X49814Y-29133D03*
X49814Y-29527D03*
X49421Y-29133D03*
X49421Y-29527D03*
X49027Y-29133D03*
X49027Y-29527D03*
X48633Y-29133D03*
X48633Y-29527D03*
X48240Y-29133D03*
X48240Y-29527D03*
X47846Y-29133D03*
X47846Y-29527D03*
X47452Y-29133D03*
X47452Y-29527D03*
X47059Y-29133D03*
X47059Y-29527D03*
X46665Y-29133D03*
X46665Y-29527D03*
X46271Y-29133D03*
X46271Y-29527D03*
X45877Y-29133D03*
X45877Y-29527D03*
X45484Y-29133D03*
X45484Y-29527D03*
X45090Y-29133D03*
X45090Y-29527D03*
X44303Y-29133D03*
X44303Y-29527D03*
X43909Y-29133D03*
X43909Y-29527D03*
X43515Y-29133D03*
X43515Y-29527D03*
X43122Y-29133D03*
X43122Y-29527D03*
X42728Y-29133D03*
X42728Y-29527D03*
X42334Y-29133D03*
X42334Y-29527D03*
X41940Y-29133D03*
X41940Y-29527D03*
X41547Y-29133D03*
X41547Y-29527D03*
X41153Y-29133D03*
X41153Y-29527D03*
X40759Y-29133D03*
X40759Y-29527D03*
X40366Y-29133D03*
X40366Y-29527D03*
X39972Y-29133D03*
X39972Y-29527D03*
X39578Y-29133D03*
X39578Y-29527D03*
X39185Y-29133D03*
X39185Y-29527D03*
X38791Y-29133D03*
X38791Y-29527D03*
X38397Y-29133D03*
X38397Y-29527D03*
X38003Y-29133D03*
X38003Y-29527D03*
X37610Y-29133D03*
X37610Y-29527D03*
X37216Y-29133D03*
X37216Y-29527D03*
X36822Y-29133D03*
X36822Y-29527D03*
X36429Y-29133D03*
X36429Y-29527D03*
X36035Y-29133D03*
X36035Y-29527D03*
X35641Y-29133D03*
X35641Y-29527D03*
X35248Y-29133D03*
X35248Y-29527D03*
X34854Y-29133D03*
X34854Y-29527D03*
X34460Y-29133D03*
X34460Y-29527D03*
X34066Y-29133D03*
X34066Y-29527D03*
X33673Y-29133D03*
X33673Y-29527D03*
X33279Y-29133D03*
X33279Y-29527D03*
X32885Y-29133D03*
X32885Y-29527D03*
X56507Y-7874D03*
X56507Y-8267D03*
X56114Y-7874D03*
X56114Y-8267D03*
X55720Y-7874D03*
X55720Y-8267D03*
X55326Y-7874D03*
X55326Y-8267D03*
X54933Y-7874D03*
X54933Y-8267D03*
X54539Y-7874D03*
X54539Y-8267D03*
X54145Y-7874D03*
X54145Y-8267D03*
X53751Y-7874D03*
X53751Y-8267D03*
X53358Y-7874D03*
X53358Y-8267D03*
X52964Y-7874D03*
X52964Y-8267D03*
X52570Y-7874D03*
X52570Y-8267D03*
X52177Y-7874D03*
X52177Y-8267D03*
X51783Y-7874D03*
X51783Y-8267D03*
X51389Y-7874D03*
X51389Y-8267D03*
X50996Y-7874D03*
X50996Y-8267D03*
X50602Y-7874D03*
X50602Y-8267D03*
X50208Y-7874D03*
X50208Y-8267D03*
X49814Y-7874D03*
X49814Y-8267D03*
X49421Y-7874D03*
X49421Y-8267D03*
X49027Y-7874D03*
X49027Y-8267D03*
X48633Y-7874D03*
X48633Y-8267D03*
X48240Y-7874D03*
X48240Y-8267D03*
X47846Y-7874D03*
X47846Y-8267D03*
X47452Y-7874D03*
X47452Y-8267D03*
X47059Y-7874D03*
X47059Y-8267D03*
X46665Y-7874D03*
X46665Y-8267D03*
X46271Y-7874D03*
X46271Y-8267D03*
X45877Y-7874D03*
X45877Y-8267D03*
X45484Y-7874D03*
X45484Y-8267D03*
X45090Y-7874D03*
X45090Y-8267D03*
X44303Y-7874D03*
X44303Y-8267D03*
X43909Y-7874D03*
X43909Y-8267D03*
X43515Y-7874D03*
X43515Y-8267D03*
X43122Y-7874D03*
X43122Y-8267D03*
X42728Y-7874D03*
X42728Y-8267D03*
X42334Y-7874D03*
X42334Y-8267D03*
X41940Y-7874D03*
X41940Y-8267D03*
X41547Y-7874D03*
X41547Y-8267D03*
X41153Y-7874D03*
X41153Y-8267D03*
X40759Y-7874D03*
X40759Y-8267D03*
X40366Y-7874D03*
X40366Y-8267D03*
X39972Y-7874D03*
X39972Y-8267D03*
X39578Y-7874D03*
X39578Y-8267D03*
X39185Y-7874D03*
X39185Y-8267D03*
X38791Y-7874D03*
X38791Y-8267D03*
X38397Y-7874D03*
X38397Y-8267D03*
X38003Y-7874D03*
X38003Y-8267D03*
X37610Y-7874D03*
X37610Y-8267D03*
X37216Y-7874D03*
X37216Y-8267D03*
X36822Y-7874D03*
X36822Y-8267D03*
X36429Y-7874D03*
X36429Y-8267D03*
X36035Y-7874D03*
X36035Y-8267D03*
X35641Y-7874D03*
X35641Y-8267D03*
X35248Y-7874D03*
X35248Y-8267D03*
X34854Y-7874D03*
X34854Y-8267D03*
X34460Y-7874D03*
X34460Y-8267D03*
X34066Y-7874D03*
X34066Y-8267D03*
X33673Y-7874D03*
X33673Y-8267D03*
X33279Y-7874D03*
X33279Y-8267D03*
X32885Y-7874D03*
X32885Y-8267D03*
G54D15*
X19704Y-14212D03*
G54D16*
X19704Y-13425D03*
G54D15*
X20102Y-16015D03*
G54D16*
X19314Y-16015D03*
G54D15*
X16602Y-17921D03*
G54D16*
X16602Y-17133D03*
G54D15*
X30976Y-10929D03*
G54D16*
X30976Y-11716D03*
G54D15*
X30976Y-8653D03*
G54D16*
X30976Y-7866D03*
G54D15*
X61525Y-6476D03*
G54D16*
X62312Y-6476D03*
G54D15*
X53137Y-4929D03*
G54D16*
X53137Y-5716D03*
G54D20*
X6673Y-6811D03*
X10610Y-6811D03*
G54D21*
X3523Y-10986D03*
G54D22*
X3523Y-9486D03*
G54D15*
X54940Y-5318D03*
G54D16*
X55728Y-5318D03*
G54D15*
X60285Y-10295D03*
G54D16*
X60285Y-11082D03*
G54D15*
X13799Y-5000D03*
G54D16*
X13799Y-4212D03*
G54D20*
X6397Y-13228D03*
X2460Y-13228D03*
G54D23*
X8405Y-13228D03*
G54D24*
X10374Y-13228D03*
G54D25*
X11921Y-24547D03*
G54D26*
X14874Y-24547D03*
G54D25*
X5374Y-24553D03*
G54D26*
X2421Y-24553D03*
G54D20*
X8779Y-24553D03*
X8779Y-28490D03*
G54D21*
X36708Y-36722D03*
G54D22*
X36708Y-38222D03*
G54D21*
X36422Y-45543D03*
G54D22*
X36422Y-47043D03*
G54D15*
X22503Y-36633D03*
G54D16*
X23291Y-36633D03*
G54D14*
X23555Y-34818D03*
X23555Y-32850D03*
G54D15*
X14192Y-30342D03*
G54D16*
X13405Y-30342D03*
G54D14*
X14783Y-32114D03*
X12814Y-32114D03*
G54D15*
X13543Y-36562D03*
G54D16*
X13543Y-37350D03*
G54D15*
X11358Y-35283D03*
G54D16*
X10570Y-35283D03*
G54D15*
X11358Y-32724D03*
G54D16*
X10570Y-32724D03*
G54D27*
X62476Y-45541D03*
X64976Y-45541D03*
X59976Y-45541D03*
X62476Y-39151D03*
X64976Y-39151D03*
X59976Y-39151D03*
X62476Y-53887D03*
X64976Y-53887D03*
X59976Y-53887D03*
X62476Y-47498D03*
X64976Y-47498D03*
X59976Y-47498D03*
X4137Y-39151D03*
X1637Y-39151D03*
X6637Y-39151D03*
X4137Y-45541D03*
X1637Y-45541D03*
X6637Y-45541D03*
X4137Y-47498D03*
X1637Y-47498D03*
X6637Y-47498D03*
X4137Y-53887D03*
X1637Y-53887D03*
X6637Y-53887D03*
X4137Y-30805D03*
X1637Y-30805D03*
X6637Y-30805D03*
X4137Y-37194D03*
X1637Y-37194D03*
X6637Y-37194D03*
G54D28*
X58375Y-4551D03*
X58375Y-5338D03*
X58375Y-6125D03*
G54D29*
X59446Y-4263D03*
G54D28*
X58375Y-6913D03*
G54D29*
X59446Y-7019D03*
X57305Y-4263D03*
X57305Y-7019D03*
G54D30*
X51279Y-1919D03*
X49547Y-1919D03*
G54D31*
X21594Y-2440D03*
X15192Y-2440D03*
G54D12*
X19799Y-2790D03*
X18996Y-2790D03*
X18192Y-2790D03*
X17389Y-2790D03*
X18594Y-2090D03*
X17791Y-2090D03*
X19397Y-2090D03*
X16988Y-2090D03*
G54D32*
X15893Y-1090D03*
X20893Y-1090D03*
G54D33*
X38129Y-5511D03*
X38129Y-590D03*
X37145Y-4527D03*
X40098Y-4527D03*
X43051Y-4527D03*
X42066Y-5511D03*
X42066Y-590D03*
X24547Y-5511D03*
X24547Y-590D03*
X23562Y-4527D03*
X26515Y-4527D03*
X29468Y-4527D03*
X28484Y-5511D03*
X28484Y-590D03*
G54D34*
X10629Y-2637D03*
G54D35*
X10629Y-5000D03*
G54D36*
X8779Y-3818D03*
G54D24*
X7204Y-21797D03*
X7204Y-19828D03*
X8779Y-19828D03*
X8779Y-21797D03*
G54D37*
X21671Y-22389D03*
G54D38*
X21671Y-21389D03*
X22671Y-22389D03*
X22671Y-21389D03*
X23671Y-22389D03*
X23671Y-21389D03*
X24671Y-22389D03*
X24671Y-21389D03*
X25671Y-22389D03*
X25671Y-21389D03*
X26671Y-22389D03*
X26671Y-21389D03*
X27671Y-22389D03*
X27671Y-21389D03*
X28671Y-22389D03*
X28671Y-21389D03*
X29671Y-22389D03*
X29671Y-21389D03*
X30671Y-22389D03*
X30671Y-21389D03*
G54D11*
X23598Y-18799D03*
G54D13*
X12047Y-36956D03*
X8976Y-36956D03*
X8976Y-31051D03*
X12047Y-31051D03*
G54D21*
X23746Y-44799D03*
G54D22*
X22246Y-44799D03*
G54D14*
X55614Y-53733D03*
X53645Y-53733D03*
X55614Y-44685D03*
X53645Y-44685D03*
X63110Y-34903D03*
X63110Y-32935D03*
G54D39*
X4940Y-3572D03*
X1988Y-3572D03*
X4940Y-1604D03*
X1988Y-1604D03*
X64625Y-3572D03*
X61673Y-3572D03*
X64625Y-1604D03*
X61673Y-1604D03*
X34783Y-3574D03*
X31830Y-3574D03*
X34783Y-1606D03*
X31830Y-1606D03*
G54D40*
X19215Y-20728D03*
G54D41*
X17655Y-20728D03*
G54D14*
X56122Y-49611D03*
X56122Y-51580D03*
X56102Y-40452D03*
X56102Y-42421D03*
X47677Y-50674D03*
X45708Y-50674D03*
X47657Y-41515D03*
X45688Y-41515D03*
X42322Y-46704D03*
X44291Y-46704D03*
X42303Y-37608D03*
X44271Y-37608D03*
X20496Y-51685D03*
X20496Y-49716D03*
X17622Y-48661D03*
X17622Y-46692D03*
X14681Y-41901D03*
X16649Y-41901D03*
X18909Y-41464D03*
X20877Y-41464D03*
G54D42*
X3295Y-6311D03*
X65889Y-33921D03*
G54D15*
X26507Y-29850D03*
G54D16*
X26507Y-30637D03*
G54D15*
X29000Y-30244D03*
G54D16*
X29787Y-30244D03*
M02*
