%FSTAX23Y23*%
%MOIN*%
%SFA1B1*%

%IPPOS*%
%ADD11C,0.011810*%
%ADD13R,0.098430X0.027560*%
%ADD14R,0.027560X0.098430*%
%ADD15C,0.039370*%
%ADD16R,0.031500X0.023620*%
%ADD23C,0.004610*%
%ADD24C,0.006000*%
%ADD25C,0.010000*%
%ADD26C,0.019680*%
%ADD27C,0.177170*%
%ADD28C,0.019680*%
%LNmod_duo_x_g3399-1*%
%LPD*%
G36*
X01678Y-00643D02*
X-013D01*
Y02021*
X01678*
Y-00643*
G37*
%LNmod_duo_x_g3399-2*%
%LPC*%
G36*
X01161Y01991D02*
X01156Y0199D01*
X01151Y01987*
X01148Y01983*
X01147Y01977*
X01148Y01972*
X01151Y01967*
X01156Y01964*
X01161Y01963*
X01167Y01964*
X01171Y01967*
X01174Y01972*
X01175Y01977*
X01174Y01983*
X01171Y01987*
X01167Y0199*
X01161Y01991*
G37*
G36*
X00038Y01879D02*
X00032Y01878D01*
X00028Y01875*
X00025Y0187*
X00024Y01865*
X00025Y01859*
X00028Y01855*
X00032Y01852*
X00038Y01851*
X00043Y01852*
X00048Y01855*
X00051Y01859*
X00052Y01865*
X00051Y0187*
X00048Y01875*
X00043Y01878*
X00038Y01879*
G37*
G36*
X01058Y01877D02*
X01052Y01875D01*
X01048Y01872*
X01045Y01868*
X01044Y01862*
X01045Y01857*
X01048Y01852*
X01052Y01849*
X01058Y01848*
X01063Y01849*
X01068Y01852*
X01071Y01857*
X01072Y01862*
X01071Y01868*
X01068Y01872*
X01063Y01875*
X01058Y01877*
G37*
G36*
X00813Y01926D02*
X00805Y01925D01*
X00798Y01922*
X00791Y01917*
X00787Y01911*
X00784Y01903*
X00783Y01896*
X00784Y01888*
X00785Y01884*
X00784Y0188*
X00783Y01872*
X00784Y01864*
X00787Y01857*
X00791Y01851*
X00798Y01846*
X00805Y01843*
X00813Y01842*
X0082Y01843*
X00828Y01846*
X00834Y01851*
X00839Y01857*
X00916*
X00917Y01857*
X00925Y01856*
X00933Y01852*
X00936Y0185*
X0094Y01847*
X00943Y01843*
X00944Y01841*
X00942Y01836*
X00923*
Y0182*
X00901*
X00899*
X00894*
X00861*
X0086*
X00856*
X00855*
X00822*
X00821*
X00817*
X00816*
X00782*
X00781*
X00777*
X00776*
X00743*
X00742*
X00738*
X00737*
X00715*
Y01836*
X00702*
X00699Y01841*
X00702Y01847*
X00703Y01855*
X00702Y01863*
X00699Y0187*
X00694Y01876*
X00688Y01881*
X0068Y01884*
X00673Y01885*
X00665Y01884*
X0066Y01882*
X00655Y01883*
X00648Y01884*
X0064Y01883*
X00633Y0188*
X00626Y01876*
X00622Y01869*
X00619Y01862*
X00618Y01854*
X00619Y01847*
X00621Y01841*
X00618Y01836*
X00608*
Y0182*
X00586*
X00584*
X00581*
X00579*
X00546*
X00545*
X00541*
X0054*
X00507*
X00506*
X00502*
X00501*
X00467*
X00466*
X00462*
X00461*
X00428*
X00427*
X00423*
X00422*
X00389*
X00384*
X00383*
X00349*
X00348*
X00343*
X0031*
X00309*
X00305*
X00304*
X00271*
X00269*
X00266*
X00264*
X00231*
X0023*
X00226*
X00225*
X00192*
X00191*
X00187*
X00186*
X00152*
X00151*
X00147*
X00146*
X00142*
X00142Y01821*
X00141Y01821*
X00141Y01821*
X00141*
X00141Y01821*
X00141Y01821*
X00141Y01822*
X0014Y01823*
X0014Y01824*
X0014Y01826*
X0014Y01828*
X0014Y01829*
Y01849*
X0014Y01849*
X0014Y01849*
X0014Y01849*
X0014Y0185*
X0014Y01852*
X0014Y01853*
X0014Y01853*
X0014Y01853*
X0014Y01853*
X0014Y01854*
X0014Y01854*
X00143Y01857*
X00144Y01863*
X00143Y01868*
X0014Y01873*
X00135Y01876*
X0013Y01877*
X00124Y01876*
X0012Y01873*
X00117Y01868*
X00116Y01863*
X00117Y01857*
X00119Y01854*
X00119Y01854*
X00119Y01854*
Y01854*
X00119Y01854*
X00119Y01854*
X00119Y01853*
X00119Y0185*
X00119Y01849*
X0012Y01849*
Y01829*
X00119Y01828*
X00119Y01826*
X00119Y01824*
X00119Y01823*
X00119Y01822*
X00118Y01821*
X00118Y01821*
X00118Y01821*
X00118*
X00118Y01821*
X00117Y01821*
X00117Y0182*
X00113*
X00108*
X00107*
X00074*
X00073*
X00068*
X00034*
X00033*
X00029*
X00028*
X-00004*
X-00009*
X-0001*
X-00043*
X-00045*
X-00048*
X-0005*
X-00083*
X-00084*
X-00089*
X-00122*
X-00123*
X-00127*
X-00128*
X-00161*
X-00163*
X-00166*
X-00168*
X-00201*
X-00202*
X-00206*
X-00207*
X-0024*
X-00241*
X-00245*
X-00246*
X-0028*
X-00281*
X-00285*
X-00286*
X-00319*
X-0032*
X-00324*
X-00325*
X-00358*
X-0036*
X-00363*
X-00365*
X-00398*
X-00399*
X-00403*
X-00404*
X-00437*
X-00442*
X-00443*
X-00476*
X-00478*
X-00483*
X-00516*
X-00517*
X-00521*
X-00522*
X-00555*
X-00556*
X-0056*
X-00561*
X-00595*
X-00596*
X-006*
X-00601*
X-00634*
X-00635*
X-00639*
X-0064*
X-00673*
X-00674*
X-00678*
X-00679*
X-00713*
X-00714*
X-00718*
X-00719*
X-00752*
X-00753*
X-00757*
X-00758*
X-00793*
Y01714*
X-00758*
X-00757*
X-00753*
X-00752*
X-00719*
X-00718*
X-00714*
X-00713*
X-00679*
X-00678*
X-00674*
X-00673*
X-0064*
X-00639*
X-00635*
X-00634*
X-00601*
X-006*
X-00596*
X-00595*
X-00561*
X-0056*
X-00556*
X-00555*
X-00522*
X-00521*
X-00517*
X-00516*
X-00483*
X-00481*
X-00476*
X-00443*
X-00438*
X-00437*
X-00404*
X-00403*
X-00399*
X-00398*
X-00365*
X-00363*
X-0036*
X-00358*
X-00325*
X-00324*
X-0032*
X-00319*
X-00286*
X-00285*
X-00281*
X-0028*
X-00246*
X-00245*
X-00241*
X-0024*
X-00207*
X-00206*
X-00202*
X-00201*
X-00168*
X-00166*
X-00163*
X-00161*
X-00128*
X-00127*
X-00123*
X-00122*
X-00089*
X-00088*
X-00083*
X-0005*
X-00048*
X-00045*
X-00043*
X-0001*
X-00005*
X-00004*
X00028*
X00029*
X00033*
X00034*
X00038*
X0004Y01709*
X0003Y01698*
X00028Y01696*
X00028Y01693*
Y0164*
X0Y01613*
X-00175*
X-00178Y01612*
X-0018Y01611*
X-00216Y01575*
X-00241*
X-00243Y0158*
X-00241Y01581*
X-00238Y01586*
X-00237Y01591*
X-00238Y01596*
X-00241Y01601*
X-00246Y01604*
X-00251Y01605*
X-00257Y01604*
X-00261Y01601*
X-00264Y01596*
X-00265Y01591*
X-00264Y01586*
X-00261Y01581*
X-0026Y0158*
X-00262Y01575*
X-00299*
X-00307Y01583*
X-00309Y01584*
X-00312Y01585*
X-00315*
X-00316Y01585*
X-00317Y01585*
X-00317Y01585*
X-00317Y01585*
X-00318Y01586*
X-00318Y01586*
X-00319Y01586*
X-00319Y01586*
X-0032Y01587*
X-00321Y01587*
X-00321Y01588*
X-00322Y01588*
X-00326Y01591*
X-00331Y01592*
X-00337Y01591*
X-00341Y01588*
X-00344Y01583*
X-00345Y01578*
X-00344Y01572*
X-00341Y01568*
X-00337Y01565*
X-00331Y01564*
X-00326Y01565*
X-00322Y01568*
X-00321Y01568*
X-00321Y01569*
X-0032Y01569*
X-0032Y01569*
X-00319Y0157*
X-00318Y0157*
X-00318Y0157*
X-00317Y0157*
X-00317Y0157*
X-00317Y01571*
X-00316Y01571*
X-00315Y01571*
X-00315*
X-00307Y01563*
X-00305Y01562*
X-00302Y01561*
X-00213*
X-0021Y01562*
X-00208Y01563*
X-00172Y01599*
X00003*
X00006Y01599*
X00008Y01601*
X0004Y01632*
X00041Y01634*
X00042Y01637*
Y01677*
X00042Y01677*
X00047Y01676*
X00048Y01674*
X00051Y0167*
X00055Y01667*
X00061Y01666*
X00066Y01667*
X00071Y0167*
X00074Y01674*
X00075Y0168*
X00075Y0168*
X00075Y01681*
X00075Y01682*
X00075Y01682*
X00075Y01683*
X00075Y01683*
X00076Y01684*
X00076Y01684*
X00076Y01685*
X00076Y01685*
X00077Y01686*
X00077Y01686*
X00084Y01693*
X00238*
X0024Y01693*
X00243Y01695*
X00253Y01705*
X00254Y01707*
X00255Y0171*
X00259Y01714*
X00264*
X00266*
X00269*
X00271*
X00274*
X00276Y01709*
X00254Y01687*
X00167*
X00164Y01686*
X00162Y01685*
X00154Y01677*
X00152Y01675*
X00152Y01673*
X00152Y01672*
X00152Y01672*
X00152Y01671*
X00151Y01671*
X00151Y0167*
X00151Y0167*
X00151Y0167*
X00151Y0167*
X00151Y0167*
X00151Y0167*
X00151Y01669*
X00151Y01669*
X0015Y01669*
X0015Y01669*
X00149Y01668*
X00146Y01663*
X00145Y01658*
X00146Y01652*
X00149Y01648*
X00154Y01645*
X00159Y01644*
X00164Y01645*
X00169Y01648*
X00172Y01652*
X00173Y01658*
X00172Y01663*
X00169Y01668*
X00169Y01671*
X0017Y01672*
X00171Y01673*
X00226*
X00228Y01668*
X00228Y01668*
X00225Y01663*
X00224Y01658*
X00225Y01652*
X00228Y01648*
X00232Y01645*
X00238Y01644*
X0024Y01644*
X00244Y0164*
X00243Y01637*
X00244Y01632*
X00247Y01627*
X00252Y01624*
X00257Y01623*
X00263Y01624*
X00267Y01627*
X0027Y01632*
X00271Y01637*
X0027Y01642*
X00267Y01647*
X00263Y0165*
X00257Y01651*
X00255Y01651*
X00251Y01655*
X00252Y01658*
X00251Y01663*
X00248Y01668*
X00248Y01668*
X00249Y01673*
X00257*
X0026Y01673*
X00262Y01675*
X00292Y01705*
X00294Y01707*
X00294Y0171*
X00298Y01714*
X00304*
X00305*
X00309*
X0031*
X00343*
X00344*
X00349*
X00383*
X00388*
X00389*
X00422*
X00423*
X00427*
X00428*
X00461*
X00462*
X00466*
X00467*
X00501*
X00502*
X00506*
X00507*
X0054*
X00541*
X00545*
X00546*
X00579*
X00581*
X00584*
X00586*
X00608*
Y01698*
X00715*
Y01714*
X00737*
X00738*
X00742*
X00743*
X00776*
X00777*
X00781*
X00782*
X00816*
X00817*
X00821*
X00822*
X00855*
X00856*
X0086*
X00861*
X00894*
X00896*
X00901*
X00923*
Y01698*
X0103*
Y01714*
X01052*
X01057*
X01058*
X01091*
X01092*
X01096*
X01097*
X01131*
X01132*
X01136*
X01137*
X01171*
Y0182*
X01137*
X01136*
X01132*
X01131*
X01097*
X01096*
X01092*
X01091*
X01058*
X01053*
X01052*
X0103*
Y01836*
X01002*
X01002Y01841*
X00997Y01857*
X00989Y01872*
X00978Y01885*
X00978Y01885*
X00978Y01885*
X00978Y01885*
X00965Y01896*
X0095Y01904*
X00933Y01909*
X00916Y01911*
X00916Y01911*
X00839*
X00834Y01917*
X00828Y01922*
X0082Y01925*
X00813Y01926*
G37*
G36*
X01393Y01779D02*
X01387Y01778D01*
X01383Y01775*
X0138Y0177*
X01379Y01765*
X0138Y01759*
X01382Y01757*
X01378Y01753*
X01378Y01753*
X01373Y01754*
X0137Y01759*
X01371Y01759*
X01372Y01765*
X01371Y0177*
X01368Y01775*
X01363Y01778*
X01358Y01779*
X01352Y01778*
X01348Y01775*
X01345Y0177*
X01344Y01765*
X01345Y01759*
X01347Y01757*
X01343Y01753*
X01343Y01753*
X01338Y01754*
X01335Y01759*
X01336Y01759*
X01337Y01765*
X01336Y0177*
X01333Y01775*
X01328Y01778*
X01323Y01779*
X01317Y01778*
X01313Y01775*
X0131Y0177*
X01309Y01769*
X01304*
X01304Y0177*
X01301Y01775*
X01297Y01778*
X01291Y01779*
X01286Y01778*
X01281Y01775*
X0128Y01773*
X01274*
X01273Y01775*
X01268Y01778*
X01263Y01779*
X01257Y01778*
X01253Y01775*
X0125Y0177*
X01249Y01765*
X0125Y01759*
X01253Y01755*
X01257Y01752*
X01263Y01751*
X01265Y01746*
X01265Y01745*
X01264Y0174*
X01265Y01734*
X01268Y0173*
X01272Y01727*
X01278Y01726*
X01283Y01727*
X01288Y0173*
X0129Y01733*
X01291Y01734*
X01294*
X01295Y01733*
X01298Y0173*
X01302Y01727*
X01308Y01726*
X01313Y01727*
X01318Y0173*
X0132Y01733*
X01321Y01734*
X01324*
X01325Y01733*
X01328Y0173*
X01332Y01727*
X01338Y01726*
X01343Y01727*
X01348Y0173*
X01351Y01734*
X01352Y0174*
X01351Y01745*
X01349Y01748*
X01352Y01752*
X01352Y01752*
X01358Y01751*
X0136Y01746*
X0136Y01745*
X01359Y0174*
X0136Y01734*
X01363Y0173*
X01367Y01727*
X01373Y01726*
X01378Y01727*
X01383Y0173*
X01385Y01733*
X01386Y01734*
X01389*
X0139Y01733*
X01393Y0173*
X01397Y01727*
X01403Y01726*
X01408Y01727*
X01413Y0173*
X01416Y01734*
X01417Y0174*
X01416Y01745*
X01413Y0175*
X01408Y01753*
X01407Y01753*
X01405Y01759*
X01406Y01759*
X01407Y01765*
X01406Y0177*
X01403Y01775*
X01398Y01778*
X01393Y01779*
G37*
G36*
X01658Y01755D02*
X01652Y01753D01*
X01648Y0175*
X01645Y01746*
X01644Y0174*
X01645Y01735*
X01648Y0173*
X01652Y01727*
X01658Y01726*
X01663Y01727*
X01668Y0173*
X01671Y01735*
X01672Y0174*
X01671Y01746*
X01668Y0175*
X01663Y01753*
X01658Y01755*
G37*
G36*
X01623D02*
X01617Y01753D01*
X01613Y0175*
X0161Y01746*
X01609Y0174*
X0161Y01735*
X01613Y0173*
X01617Y01727*
X01623Y01726*
X01628Y01727*
X01633Y0173*
X01636Y01735*
X01637Y0174*
X01636Y01746*
X01633Y0175*
X01628Y01753*
X01623Y01755*
G37*
G36*
X01588D02*
X01582Y01753D01*
X01578Y0175*
X01575Y01746*
X01574Y0174*
X01575Y01735*
X01578Y0173*
X01582Y01727*
X01588Y01726*
X01593Y01727*
X01598Y0173*
X01601Y01735*
X01602Y0174*
X01601Y01746*
X01598Y0175*
X01593Y01753*
X01588Y01755*
G37*
G36*
X01553D02*
X01547Y01753D01*
X01543Y0175*
X0154Y01746*
X01539Y0174*
X0154Y01735*
X01543Y0173*
X01547Y01727*
X01553Y01726*
X01558Y01727*
X01563Y0173*
X01566Y01735*
X01567Y0174*
X01566Y01746*
X01563Y0175*
X01558Y01753*
X01553Y01755*
G37*
G36*
X01518D02*
X01512Y01753D01*
X01508Y0175*
X01505Y01746*
X01504Y0174*
X01505Y01735*
X01508Y0173*
X01512Y01727*
X01518Y01726*
X01523Y01727*
X01528Y0173*
X01531Y01735*
X01532Y0174*
X01531Y01746*
X01528Y0175*
X01523Y01753*
X01518Y01755*
G37*
G36*
X01483D02*
X01477Y01753D01*
X01473Y0175*
X0147Y01746*
X01469Y0174*
X0147Y01735*
X01473Y0173*
X01477Y01727*
X01483Y01726*
X01488Y01727*
X01493Y0173*
X01496Y01735*
X01497Y0174*
X01496Y01746*
X01493Y0175*
X01488Y01753*
X01483Y01755*
G37*
G36*
X00316Y01708D02*
X00311Y01706D01*
X00306Y01703*
X00303Y01699*
X00302Y01693*
X00298Y01691*
X00297Y01691*
X00291Y0169*
X00287Y01687*
X00284Y01683*
X00283Y01677*
X00284Y01672*
X00287Y01667*
X00291Y01664*
X00297Y01663*
X00302Y01664*
X00307Y01667*
X0031Y01672*
X00311Y01677*
X00316Y0168*
X00316Y01679*
X00322Y0168*
X00326Y01683*
X00329Y01688*
X00331Y01693*
X00329Y01699*
X00326Y01703*
X00322Y01706*
X00316Y01708*
G37*
G36*
X01658Y01718D02*
X01652Y01717D01*
X01648Y01714*
X01645Y0171*
X01644Y01704*
X01645Y01699*
X01648Y01694*
X01652Y01691*
X01658Y0169*
X01663Y01691*
X01668Y01694*
X01671Y01699*
X01672Y01704*
X01671Y0171*
X01668Y01714*
X01663Y01717*
X01658Y01718*
G37*
G36*
X01623D02*
X01617Y01717D01*
X01613Y01714*
X0161Y0171*
X01609Y01704*
X0161Y01699*
X01613Y01694*
X01617Y01691*
X01623Y0169*
X01628Y01691*
X01633Y01694*
X01636Y01699*
X01637Y01704*
X01636Y0171*
X01633Y01714*
X01628Y01717*
X01623Y01718*
G37*
G36*
X01588D02*
X01582Y01717D01*
X01578Y01714*
X01575Y0171*
X01574Y01704*
X01575Y01699*
X01578Y01694*
X01582Y01691*
X01588Y0169*
X01593Y01691*
X01598Y01694*
X01601Y01699*
X01602Y01704*
X01601Y0171*
X01598Y01714*
X01593Y01717*
X01588Y01718*
G37*
G36*
X01553D02*
X01547Y01717D01*
X01543Y01714*
X0154Y0171*
X01539Y01704*
X0154Y01699*
X01543Y01694*
X01547Y01691*
X01553Y0169*
X01558Y01691*
X01563Y01694*
X01566Y01699*
X01567Y01704*
X01566Y0171*
X01563Y01714*
X01558Y01717*
X01553Y01718*
G37*
G36*
X01518D02*
X01512Y01717D01*
X01508Y01714*
X01505Y0171*
X01504Y01704*
X01505Y01699*
X01508Y01694*
X01512Y01691*
X01518Y0169*
X01523Y01691*
X01528Y01694*
X01531Y01699*
X01532Y01704*
X01531Y0171*
X01528Y01714*
X01523Y01717*
X01518Y01718*
G37*
G36*
X01483D02*
X01477Y01717D01*
X01473Y01714*
X0147Y0171*
X01469Y01704*
X0147Y01699*
X01473Y01694*
X01477Y01691*
X01483Y0169*
X01488Y01691*
X01493Y01694*
X01496Y01699*
X01497Y01704*
X01496Y0171*
X01493Y01714*
X01488Y01717*
X01483Y01718*
G37*
G36*
X-01132Y01769D02*
X-01137Y01768D01*
X-01142Y01765*
X-01145Y0176*
X-01146Y01755*
X-01145Y01749*
X-01142Y01745*
X-01137Y01742*
X-01132Y01741*
X-01126Y01742*
X-01124Y01744*
X-01123Y01743*
X-0112Y0174*
X-0112Y01736*
X-01119Y01731*
X-01116Y01726*
X-01112Y01723*
X-01106Y01722*
X-01101Y01723*
X-01099Y01724*
X-01095Y01721*
X-01095Y0172*
X-01094Y01714*
X-01091Y0171*
X-01086Y01707*
X-01081Y01706*
X-01075Y01707*
X-01072Y01709*
X-01071Y0171*
X-01067Y01707*
X-01068Y01705*
X-01069Y017*
X-01068Y01694*
X-01065Y0169*
X-01061Y01687*
X-01055Y01686*
X-0105Y01687*
X-01045Y0169*
X-01042Y01694*
X-01041Y017*
X-01042Y01705*
X-01045Y0171*
X-0105Y01713*
X-01055Y01714*
X-01061Y01713*
X-01064Y01711*
X-01065Y0171*
X-01069Y01713*
X-01068Y01714*
X-01067Y0172*
X-01068Y01725*
X-01071Y0173*
X-01075Y01733*
X-01081Y01734*
X-01086Y01733*
X-01088Y01732*
X-01093Y01735*
X-01092Y01736*
X-01093Y01742*
X-01096Y01746*
X-01101Y01749*
X-01106Y0175*
X-01112Y01749*
X-01115Y01747*
X-01116Y01748*
X-01119Y01751*
X-01118Y01755*
X-01119Y0176*
X-01122Y01765*
X-01126Y01768*
X-01132Y01769*
G37*
G36*
X01658Y01684D02*
X01652Y01683D01*
X01648Y0168*
X01645Y01675*
X01644Y0167*
X01645Y01664*
X01648Y0166*
X01652Y01657*
X01658Y01656*
X01663Y01657*
X01668Y0166*
X01671Y01664*
X01672Y0167*
X01671Y01675*
X01668Y0168*
X01663Y01683*
X01658Y01684*
G37*
G36*
X01623D02*
X01617Y01683D01*
X01613Y0168*
X0161Y01675*
X01609Y0167*
X0161Y01664*
X01613Y0166*
X01617Y01657*
X01623Y01656*
X01628Y01657*
X01633Y0166*
X01636Y01664*
X01637Y0167*
X01636Y01675*
X01633Y0168*
X01628Y01683*
X01623Y01684*
G37*
G36*
X01588D02*
X01582Y01683D01*
X01578Y0168*
X01575Y01675*
X01574Y0167*
X01575Y01664*
X01578Y0166*
X01582Y01657*
X01588Y01656*
X01593Y01657*
X01598Y0166*
X01601Y01664*
X01602Y0167*
X01601Y01675*
X01598Y0168*
X01593Y01683*
X01588Y01684*
G37*
G36*
X01553D02*
X01547Y01683D01*
X01543Y0168*
X0154Y01675*
X01539Y0167*
X0154Y01664*
X01543Y0166*
X01547Y01657*
X01553Y01656*
X01558Y01657*
X01563Y0166*
X01566Y01664*
X01567Y0167*
X01566Y01675*
X01563Y0168*
X01558Y01683*
X01553Y01684*
G37*
G36*
X01518D02*
X01512Y01683D01*
X01508Y0168*
X01505Y01675*
X01504Y0167*
X01505Y01664*
X01508Y0166*
X01512Y01657*
X01518Y01656*
X01523Y01657*
X01528Y0166*
X01531Y01664*
X01532Y0167*
X01531Y01675*
X01528Y0168*
X01523Y01683*
X01518Y01684*
G37*
G36*
X01483D02*
X01477Y01683D01*
X01473Y0168*
X0147Y01675*
X01469Y0167*
X0147Y01664*
X01473Y0166*
X01477Y01657*
X01483Y01656*
X01488Y01657*
X01493Y0166*
X01496Y01664*
X01497Y0167*
X01496Y01675*
X01493Y0168*
X01488Y01683*
X01483Y01684*
G37*
G36*
X00377Y01672D02*
X00371Y01671D01*
X00367Y01668*
X00364Y01663*
X00363Y01658*
X00364Y01652*
X00367Y01648*
X00371Y01645*
X00377Y01644*
X00382Y01645*
X00387Y01648*
X0039Y01652*
X00391Y01658*
X0039Y01663*
X00387Y01668*
X00382Y01671*
X00377Y01672*
G37*
G36*
X01658Y0165D02*
X01652Y01648D01*
X01648Y01645*
X01645Y01641*
X01644Y01635*
X01645Y0163*
X01648Y01625*
X01652Y01622*
X01658Y01621*
X01663Y01622*
X01668Y01625*
X01671Y0163*
X01672Y01635*
X01671Y01641*
X01668Y01645*
X01663Y01648*
X01658Y0165*
G37*
G36*
X01623D02*
X01617Y01648D01*
X01613Y01645*
X0161Y01641*
X01609Y01635*
X0161Y0163*
X01613Y01625*
X01617Y01622*
X01623Y01621*
X01628Y01622*
X01633Y01625*
X01636Y0163*
X01637Y01635*
X01636Y01641*
X01633Y01645*
X01628Y01648*
X01623Y0165*
G37*
G36*
X01588D02*
X01582Y01648D01*
X01578Y01645*
X01575Y01641*
X01574Y01635*
X01575Y0163*
X01578Y01625*
X01582Y01622*
X01588Y01621*
X01593Y01622*
X01598Y01625*
X01601Y0163*
X01602Y01635*
X01601Y01641*
X01598Y01645*
X01593Y01648*
X01588Y0165*
G37*
G36*
X01553D02*
X01547Y01648D01*
X01543Y01645*
X0154Y01641*
X01539Y01635*
X0154Y0163*
X01543Y01625*
X01547Y01622*
X01553Y01621*
X01558Y01622*
X01563Y01625*
X01566Y0163*
X01567Y01635*
X01566Y01641*
X01563Y01645*
X01558Y01648*
X01553Y0165*
G37*
G36*
X01518D02*
X01512Y01648D01*
X01508Y01645*
X01505Y01641*
X01504Y01635*
X01505Y0163*
X01508Y01625*
X01512Y01622*
X01518Y01621*
X01523Y01622*
X01528Y01625*
X01531Y0163*
X01532Y01635*
X01531Y01641*
X01528Y01645*
X01523Y01648*
X01518Y0165*
G37*
G36*
X01483D02*
X01477Y01648D01*
X01473Y01645*
X0147Y01641*
X01469Y01635*
X0147Y0163*
X01473Y01625*
X01477Y01622*
X01483Y01621*
X01488Y01622*
X01493Y01625*
X01496Y0163*
X01497Y01635*
X01496Y01641*
X01493Y01645*
X01488Y01648*
X01483Y0165*
G37*
G36*
X00873Y01649D02*
X00867Y01648D01*
X00863Y01645*
X0086Y0164*
X00859Y01635*
X0086Y01629*
X00863Y01625*
X00867Y01622*
X00873Y01621*
X00878Y01622*
X00883Y01625*
X00886Y01629*
X00887Y01635*
X00886Y0164*
X00883Y01645*
X00878Y01648*
X00873Y01649*
G37*
G36*
X00838D02*
X00832Y01648D01*
X00828Y01645*
X00825Y0164*
X00824Y01635*
X00825Y01629*
X00828Y01625*
X00832Y01622*
X00838Y01621*
X00843Y01622*
X00848Y01625*
X00851Y01629*
X00852Y01635*
X00851Y0164*
X00848Y01645*
X00843Y01648*
X00838Y01649*
G37*
G36*
X00803D02*
X00797Y01648D01*
X00793Y01645*
X0079Y0164*
X00789Y01635*
X0079Y01629*
X00793Y01625*
X00797Y01622*
X00803Y01621*
X00808Y01622*
X00813Y01625*
X00816Y01629*
X00817Y01635*
X00816Y0164*
X00813Y01645*
X00808Y01648*
X00803Y01649*
G37*
G36*
X00768D02*
X00762Y01648D01*
X00758Y01645*
X00755Y0164*
X00754Y01635*
X00755Y01629*
X00758Y01625*
X00762Y01622*
X00768Y01621*
X00773Y01622*
X00778Y01625*
X00781Y01629*
X00782Y01635*
X00781Y0164*
X00778Y01645*
X00773Y01648*
X00768Y01649*
G37*
G36*
X00733D02*
X00727Y01648D01*
X00723Y01645*
X0072Y0164*
X00719Y01635*
X0072Y01629*
X00723Y01625*
X00727Y01622*
X00733Y01621*
X00738Y01622*
X00743Y01625*
X00746Y01629*
X00747Y01635*
X00746Y0164*
X00743Y01645*
X00738Y01648*
X00733Y01649*
G37*
G36*
X00698D02*
X00692Y01648D01*
X00688Y01645*
X00685Y0164*
X00684Y01635*
X00685Y01629*
X00688Y01625*
X00692Y01622*
X00698Y01621*
X00703Y01622*
X00708Y01625*
X00711Y01629*
X00712Y01635*
X00711Y0164*
X00708Y01645*
X00703Y01648*
X00698Y01649*
G37*
G36*
X01658Y01615D02*
X01652Y01614D01*
X01648Y01611*
X01645Y01606*
X01644Y01601*
X01645Y01596*
X01648Y01591*
X01652Y01588*
X01658Y01587*
X01663Y01588*
X01668Y01591*
X01671Y01596*
X01672Y01601*
X01671Y01606*
X01668Y01611*
X01663Y01614*
X01658Y01615*
G37*
G36*
X01623D02*
X01617Y01614D01*
X01613Y01611*
X0161Y01606*
X01609Y01601*
X0161Y01596*
X01613Y01591*
X01617Y01588*
X01623Y01587*
X01628Y01588*
X01633Y01591*
X01636Y01596*
X01637Y01601*
X01636Y01606*
X01633Y01611*
X01628Y01614*
X01623Y01615*
G37*
G36*
X01588D02*
X01582Y01614D01*
X01578Y01611*
X01575Y01606*
X01574Y01601*
X01575Y01596*
X01578Y01591*
X01582Y01588*
X01588Y01587*
X01593Y01588*
X01598Y01591*
X01601Y01596*
X01602Y01601*
X01601Y01606*
X01598Y01611*
X01593Y01614*
X01588Y01615*
G37*
G36*
X01553D02*
X01547Y01614D01*
X01543Y01611*
X0154Y01606*
X01539Y01601*
X0154Y01596*
X01543Y01591*
X01547Y01588*
X01553Y01587*
X01558Y01588*
X01563Y01591*
X01566Y01596*
X01567Y01601*
X01566Y01606*
X01563Y01611*
X01558Y01614*
X01553Y01615*
G37*
G36*
X01518D02*
X01512Y01614D01*
X01508Y01611*
X01505Y01606*
X01504Y01601*
X01505Y01596*
X01508Y01591*
X01512Y01588*
X01518Y01587*
X01523Y01588*
X01528Y01591*
X01531Y01596*
X01532Y01601*
X01531Y01606*
X01528Y01611*
X01523Y01614*
X01518Y01615*
G37*
G36*
X01483D02*
X01477Y01614D01*
X01473Y01611*
X0147Y01606*
X01469Y01601*
X0147Y01596*
X01473Y01591*
X01477Y01588*
X01483Y01587*
X01488Y01588*
X01493Y01591*
X01496Y01596*
X01497Y01601*
X01496Y01606*
X01493Y01611*
X01488Y01614*
X01483Y01615*
G37*
G36*
X00873Y01615D02*
X00867Y01613D01*
X00863Y0161*
X0086Y01606*
X00859Y016*
X0086Y01595*
X00863Y0159*
X00867Y01587*
X00873Y01586*
X00878Y01587*
X00883Y0159*
X00886Y01595*
X00887Y016*
X00886Y01606*
X00883Y0161*
X00878Y01613*
X00873Y01615*
G37*
G36*
X00838D02*
X00832Y01613D01*
X00828Y0161*
X00825Y01606*
X00824Y016*
X00825Y01595*
X00828Y0159*
X00832Y01587*
X00838Y01586*
X00843Y01587*
X00848Y0159*
X00851Y01595*
X00852Y016*
X00851Y01606*
X00848Y0161*
X00843Y01613*
X00838Y01615*
G37*
G36*
X00803D02*
X00797Y01613D01*
X00793Y0161*
X0079Y01606*
X00789Y016*
X0079Y01595*
X00793Y0159*
X00797Y01587*
X00803Y01586*
X00808Y01587*
X00813Y0159*
X00816Y01595*
X00817Y016*
X00816Y01606*
X00813Y0161*
X00808Y01613*
X00803Y01615*
G37*
G36*
X00768D02*
X00762Y01613D01*
X00758Y0161*
X00755Y01606*
X00754Y016*
X00755Y01595*
X00758Y0159*
X00762Y01587*
X00768Y01586*
X00773Y01587*
X00778Y0159*
X00781Y01595*
X00782Y016*
X00781Y01606*
X00778Y0161*
X00773Y01613*
X00768Y01615*
G37*
G36*
X00733D02*
X00727Y01613D01*
X00723Y0161*
X0072Y01606*
X00719Y016*
X0072Y01595*
X00723Y0159*
X00727Y01587*
X00733Y01586*
X00738Y01587*
X00743Y0159*
X00746Y01595*
X00747Y016*
X00746Y01606*
X00743Y0161*
X00738Y01613*
X00733Y01615*
G37*
G36*
X00698D02*
X00692Y01613D01*
X00688Y0161*
X00685Y01606*
X00684Y016*
X00685Y01595*
X00688Y0159*
X00692Y01587*
X00698Y01586*
X00703Y01587*
X00708Y0159*
X00711Y01595*
X00712Y016*
X00711Y01606*
X00708Y0161*
X00703Y01613*
X00698Y01615*
G37*
G36*
X00555Y0159D02*
X00548Y01589D01*
X00543Y01586*
X0054Y0158*
X00538Y01574*
X0054Y01568*
X00543Y01563*
X00548Y01559*
X00555Y01558*
X00561Y01559*
X00566Y01563*
X00569Y01568*
X00571Y01574*
X00569Y0158*
X00566Y01586*
X00561Y01589*
X00555Y0159*
G37*
G36*
X00873Y0158D02*
X00867Y01579D01*
X00863Y01576*
X0086Y01571*
X00859Y01566*
X0086Y01561*
X00863Y01556*
X00867Y01553*
X00873Y01552*
X00878Y01553*
X00883Y01556*
X00886Y01561*
X00887Y01566*
X00886Y01571*
X00883Y01576*
X00878Y01579*
X00873Y0158*
G37*
G36*
X00838D02*
X00832Y01579D01*
X00828Y01576*
X00825Y01571*
X00824Y01566*
X00825Y01561*
X00828Y01556*
X00832Y01553*
X00838Y01552*
X00843Y01553*
X00848Y01556*
X00851Y01561*
X00852Y01566*
X00851Y01571*
X00848Y01576*
X00843Y01579*
X00838Y0158*
G37*
G36*
X00803D02*
X00797Y01579D01*
X00793Y01576*
X0079Y01571*
X00789Y01566*
X0079Y01561*
X00793Y01556*
X00797Y01553*
X00803Y01552*
X00808Y01553*
X00813Y01556*
X00816Y01561*
X00817Y01566*
X00816Y01571*
X00813Y01576*
X00808Y01579*
X00803Y0158*
G37*
G36*
X00768D02*
X00762Y01579D01*
X00758Y01576*
X00755Y01571*
X00754Y01566*
X00755Y01561*
X00758Y01556*
X00762Y01553*
X00768Y01552*
X00773Y01553*
X00778Y01556*
X00781Y01561*
X00782Y01566*
X00781Y01571*
X00778Y01576*
X00773Y01579*
X00768Y0158*
G37*
G36*
X00733D02*
X00727Y01579D01*
X00723Y01576*
X0072Y01571*
X00719Y01566*
X0072Y01561*
X00723Y01556*
X00727Y01553*
X00733Y01552*
X00738Y01553*
X00743Y01556*
X00746Y01561*
X00747Y01566*
X00746Y01571*
X00743Y01576*
X00738Y01579*
X00733Y0158*
G37*
G36*
X00698D02*
X00692Y01579D01*
X00688Y01576*
X00685Y01571*
X00684Y01566*
X00685Y01561*
X00688Y01556*
X00692Y01553*
X00698Y01552*
X00703Y01553*
X00708Y01556*
X00711Y01561*
X00712Y01566*
X00711Y01571*
X00708Y01576*
X00703Y01579*
X00698Y0158*
G37*
G36*
X01658Y01579D02*
X01652Y01578D01*
X01648Y01575*
X01645Y0157*
X01644Y01565*
X01645Y01559*
X01648Y01555*
X01652Y01552*
X01658Y01551*
X01663Y01552*
X01668Y01555*
X01671Y01559*
X01672Y01565*
X01671Y0157*
X01668Y01575*
X01663Y01578*
X01658Y01579*
G37*
G36*
X01623D02*
X01617Y01578D01*
X01613Y01575*
X0161Y0157*
X01609Y01565*
X0161Y01559*
X01613Y01555*
X01617Y01552*
X01623Y01551*
X01628Y01552*
X01633Y01555*
X01636Y01559*
X01637Y01565*
X01636Y0157*
X01633Y01575*
X01628Y01578*
X01623Y01579*
G37*
G36*
X01588D02*
X01582Y01578D01*
X01578Y01575*
X01575Y0157*
X01574Y01565*
X01575Y01559*
X01578Y01555*
X01582Y01552*
X01588Y01551*
X01593Y01552*
X01598Y01555*
X01601Y01559*
X01602Y01565*
X01601Y0157*
X01598Y01575*
X01593Y01578*
X01588Y01579*
G37*
G36*
X01553D02*
X01547Y01578D01*
X01543Y01575*
X0154Y0157*
X01539Y01565*
X0154Y01559*
X01543Y01555*
X01547Y01552*
X01553Y01551*
X01558Y01552*
X01563Y01555*
X01566Y01559*
X01567Y01565*
X01566Y0157*
X01563Y01575*
X01558Y01578*
X01553Y01579*
G37*
G36*
X01518D02*
X01512Y01578D01*
X01508Y01575*
X01505Y0157*
X01504Y01565*
X01505Y01559*
X01508Y01555*
X01512Y01552*
X01518Y01551*
X01523Y01552*
X01528Y01555*
X01531Y01559*
X01532Y01565*
X01531Y0157*
X01528Y01575*
X01523Y01578*
X01518Y01579*
G37*
G36*
X01483D02*
X01477Y01578D01*
X01473Y01575*
X0147Y0157*
X01469Y01565*
X0147Y01559*
X01473Y01555*
X01477Y01552*
X01483Y01551*
X01488Y01552*
X01493Y01555*
X01496Y01559*
X01497Y01565*
X01496Y0157*
X01493Y01575*
X01488Y01578*
X01483Y01579*
G37*
G36*
X00873Y01544D02*
X00867Y01543D01*
X00863Y0154*
X0086Y01535*
X00859Y0153*
X0086Y01524*
X00863Y0152*
X00867Y01517*
X00873Y01516*
X00878Y01517*
X00883Y0152*
X00886Y01524*
X00887Y0153*
X00886Y01535*
X00883Y0154*
X00878Y01543*
X00873Y01544*
G37*
G36*
X00838D02*
X00832Y01543D01*
X00828Y0154*
X00825Y01535*
X00824Y0153*
X00825Y01524*
X00828Y0152*
X00832Y01517*
X00838Y01516*
X00843Y01517*
X00848Y0152*
X00851Y01524*
X00852Y0153*
X00851Y01535*
X00848Y0154*
X00843Y01543*
X00838Y01544*
G37*
G36*
X00803D02*
X00797Y01543D01*
X00793Y0154*
X0079Y01535*
X00789Y0153*
X0079Y01524*
X00793Y0152*
X00797Y01517*
X00803Y01516*
X00808Y01517*
X00813Y0152*
X00816Y01524*
X00817Y0153*
X00816Y01535*
X00813Y0154*
X00808Y01543*
X00803Y01544*
G37*
G36*
X00768D02*
X00762Y01543D01*
X00758Y0154*
X00755Y01535*
X00754Y0153*
X00755Y01524*
X00758Y0152*
X00762Y01517*
X00768Y01516*
X00773Y01517*
X00778Y0152*
X00781Y01524*
X00782Y0153*
X00781Y01535*
X00778Y0154*
X00773Y01543*
X00768Y01544*
G37*
G36*
X00733D02*
X00727Y01543D01*
X00723Y0154*
X0072Y01535*
X00719Y0153*
X0072Y01524*
X00723Y0152*
X00727Y01517*
X00733Y01516*
X00738Y01517*
X00743Y0152*
X00746Y01524*
X00747Y0153*
X00746Y01535*
X00743Y0154*
X00738Y01543*
X00733Y01544*
G37*
G36*
X00698D02*
X00692Y01543D01*
X00688Y0154*
X00685Y01535*
X00684Y0153*
X00685Y01524*
X00688Y0152*
X00692Y01517*
X00698Y01516*
X00703Y01517*
X00708Y0152*
X00711Y01524*
X00712Y0153*
X00711Y01535*
X00708Y0154*
X00703Y01543*
X00698Y01544*
G37*
G36*
X-0103Y0151D02*
X-01035Y01509D01*
X-0104Y01506*
X-01043Y01501*
X-01044Y01496*
X-01043Y0149*
X-0104Y01486*
X-01035Y01482*
X-0103Y01481*
X-01024Y01482*
X-0102Y01486*
X-01016Y0149*
X-01015Y01496*
X-01016Y01501*
X-0102Y01506*
X-01024Y01509*
X-0103Y0151*
G37*
G36*
X-00706Y01413D02*
X-00712Y01412D01*
X-00716Y01409*
X-00719Y01404*
X-0072Y01399*
X-00719Y01393*
X-00716Y01389*
X-00712Y01386*
X-00706Y01385*
X-00701Y01386*
X-00696Y01389*
X-00693Y01393*
X-00692Y01399*
X-00693Y01404*
X-00696Y01409*
X-00701Y01412*
X-00706Y01413*
G37*
G36*
X-00836Y01671D02*
X-00942D01*
Y01636*
Y01635*
Y0163*
Y01597*
Y01592*
Y01591*
Y01558*
Y01556*
Y01553*
Y01551*
Y01518*
Y01517*
Y01513*
Y01512*
Y01478*
Y01474*
Y0144*
Y01438*
Y01435*
Y01433*
Y014*
Y01399*
Y01395*
Y01394*
Y01361*
Y0136*
Y01355*
Y01321*
Y01316*
Y01315*
Y01282*
Y01281*
Y01277*
Y01276*
Y01243*
Y01242*
Y01238*
Y01237*
Y01203*
Y01202*
Y01198*
Y01197*
Y01164*
Y01163*
Y01159*
Y01158*
Y01125*
Y01123*
Y0112*
Y01118*
Y01085*
Y01084*
Y01079*
Y01046*
Y01041*
Y0104*
Y01006*
Y01005*
Y01001*
Y01*
Y00967*
Y00966*
Y00962*
Y00961*
Y00928*
Y00927*
Y00923*
Y00922*
Y00888*
Y00887*
Y00883*
Y00882*
Y00849*
Y00848*
Y00844*
Y00843*
Y0081*
Y00808*
Y00803*
Y0077*
Y00765*
Y00764*
Y00731*
Y0073*
Y00726*
Y00725*
Y0072*
X-00943Y00719*
X-00944Y00718*
X-00944Y00717*
X-00944Y00717*
X-00947Y00716*
X-00947Y00716*
X-00948Y00716*
X-00948Y00717*
X-00949Y00717*
X-0095Y00718*
X-0095Y00718*
X-0095Y00718*
X-00955Y00721*
X-0096Y00722*
X-00966Y00721*
X-0097Y00718*
X-00973Y00714*
X-00974Y00708*
X-00973Y00703*
X-0097Y00698*
X-00966Y00695*
X-0096Y00694*
X-00955Y00695*
X-0095Y00698*
X-0095Y00698*
X-0095Y00699*
X-00949Y00699*
X-00948Y007*
X-00948Y007*
X-00947Y007*
X-00947Y007*
X-00944Y00699*
X-00944Y00699*
X-00944Y00699*
X-00943Y00698*
X-00942Y00697*
Y00692*
Y0069*
Y00685*
Y00676*
X-00942Y00676*
X-00943Y00676*
X-00944Y00676*
X-00945Y00676*
X-00979*
X-0098Y00676*
X-00983Y00679*
X-00986Y00683*
X-00991Y00686*
X-00996Y00687*
X-01001Y00686*
X-01006Y00683*
X-01009Y00679*
X-0101Y00673*
X-01009Y00668*
X-01006Y00663*
X-01001Y0066*
X-00996Y00659*
X-00992Y0066*
X-00991Y0066*
X-00991Y0066*
X-00991Y0066*
X-0099Y0066*
X-0099Y0066*
X-00987Y00661*
X-00986Y00661*
X-00982Y00661*
X-00981Y00661*
X-00981Y00662*
X-00947*
X-00942Y00658*
Y00652*
Y00651*
Y00647*
Y00646*
Y00641*
X-00943Y0064*
X-00944Y00639*
X-00944Y00639*
X-00944Y00638*
X-00947Y00637*
X-00947Y00637*
X-00948Y00638*
X-00948Y00638*
X-00949Y00638*
X-0095Y00639*
X-0095Y00639*
X-0095Y00639*
X-00955Y00642*
X-0096Y00644*
X-00966Y00642*
X-0097Y00639*
X-00973Y00635*
X-00974Y00629*
X-00973Y00624*
X-0097Y00619*
X-00966Y00616*
X-0096Y00615*
X-00955Y00616*
X-0095Y00619*
X-0095Y00619*
X-0095Y0062*
X-00949Y00621*
X-00948Y00621*
X-00948Y00621*
X-00947Y00622*
X-00947Y00622*
X-00944Y0062*
X-00944Y0062*
X-00944Y0062*
X-00943Y00619*
X-00942Y00618*
Y00613*
Y00608*
Y00607*
Y00597*
X-00942Y00597*
X-00943Y00597*
X-00944Y00597*
X-00945Y00597*
X-00974*
X-00975Y00597*
X-00975Y00597*
X-00976Y00597*
X-00976Y00598*
X-00977Y00598*
X-00977Y00598*
X-00978Y00598*
X-00978Y00599*
X-00979Y00599*
X-00979Y00599*
X-0098Y006*
X-0098Y006*
X-00985Y00603*
X-0099Y00604*
X-00996Y00603*
X-01Y006*
X-01003Y00595*
X-01004Y0059*
X-01003Y00585*
X-01Y0058*
X-00996Y00577*
X-0099Y00576*
X-00985Y00577*
X-0098Y0058*
X-0098Y0058*
X-00979Y00581*
X-00979Y00581*
X-00978Y00582*
X-00978Y00582*
X-00977Y00582*
X-00977Y00582*
X-00976Y00582*
X-00976Y00583*
X-00975Y00583*
X-00975Y00583*
X-00974Y00583*
X-00947*
X-00942Y00579*
Y00573*
Y00572*
Y00568*
Y00567*
Y00534*
Y00533*
Y00529*
Y00528*
Y00495*
Y00493*
Y0049*
Y00488*
Y00454*
X-00836*
Y00464*
X-00836Y00464*
X-00835Y00465*
X-00834Y00465*
X-00833Y00465*
X-00801*
X-008Y00465*
X-008Y00465*
X-00799Y00465*
X-00798Y00464*
X-00798Y00464*
X-00796Y00464*
X-00796Y00464*
X-00794Y00463*
X-00793Y00462*
X-00792Y00462*
X-00792Y00462*
X-00786Y00461*
X-00781Y00462*
X-00776Y00465*
X-00773Y00469*
X-00772Y00475*
X-00773Y0048*
X-00776Y00485*
X-00781Y00488*
X-00786Y00489*
X-00792Y00488*
X-00796Y00485*
X-00798Y00482*
X-00799Y00481*
X-00799Y00481*
X-008Y0048*
X-008Y0048*
X-008Y0048*
X-008Y0048*
X-00801Y0048*
X-00801Y00479*
X-00801Y00479*
X-00802Y00479*
X-00802Y00479*
X-00803Y00479*
X-00831*
X-00836Y00483*
Y00488*
Y0049*
Y00493*
Y00495*
Y00528*
Y00529*
Y00533*
Y00534*
Y00567*
Y00568*
Y00572*
Y00573*
Y00607*
Y00612*
Y00613*
Y00646*
Y00647*
Y00651*
Y00652*
Y00685*
Y00687*
Y00692*
Y00725*
Y00726*
Y0073*
Y00731*
Y00764*
Y00769*
Y0077*
Y00803*
Y00805*
Y0081*
Y00843*
Y00844*
Y00848*
Y00849*
Y00858*
X-00836Y00858*
X-00835Y00858*
X-00834Y00858*
X-00833Y00858*
X-00654*
X-00653Y00853*
X-00656Y00852*
X-00659Y00847*
X-0066Y00842*
X-00659Y00836*
X-00656Y00832*
X-00655Y00831*
X-00657Y00826*
X-00772*
X-00772Y00826*
X-00773Y00832*
X-00776Y00836*
X-00781Y00839*
X-00786Y0084*
X-00792Y00839*
X-00796Y00836*
X-00799Y00832*
X-008Y00826*
X-00799Y00821*
X-00796Y00816*
X-00792Y00813*
X-00786Y00812*
X-00782Y00813*
X-00782Y00813*
X-00779Y00812*
X-00526*
X-00525Y00811*
X-00524Y00807*
X-00526Y00804*
X-00527Y00798*
X-00526Y00793*
X-00523Y00788*
X-00518Y00785*
X-00513Y00784*
X-00508Y00785*
X-00503Y00788*
X-005Y00793*
X-00499Y00798*
X-005Y00804*
X-00502Y00807*
X-00501Y00811*
X-005Y00812*
X-00449*
X-00398Y00762*
Y0059*
X-00398Y00587*
X-00396Y00585*
X-00256Y00445*
X-00254Y00443*
X-00251Y00443*
X00379*
X0038Y00443*
X0038Y00443*
X00381Y00442*
X00381Y00442*
X00382Y00442*
X00382Y00442*
X00383Y00442*
X00383Y00441*
X00384Y00441*
X00384Y0044*
X00385Y0044*
X00385Y0044*
X0039Y00437*
X0039Y00437*
X00387Y00432*
X-00174*
X-00177Y00431*
X-00179Y0043*
X-00209Y004*
X-00833*
X-00834Y004*
X-00835Y00401*
X-00836Y00401*
X-00836Y00401*
Y00411*
X-00942*
Y00377*
Y00372*
Y0037*
Y00337*
Y00336*
Y00332*
Y00331*
Y00298*
Y00297*
Y00292*
Y00258*
Y00257*
Y00253*
Y00252*
Y00219*
Y00214*
Y00213*
Y0018*
Y00179*
Y00175*
Y00174*
Y0014*
Y00139*
Y00134*
Y00101*
Y00096*
Y00095*
Y00062*
Y0006*
Y00057*
Y00055*
Y00022*
Y00021*
Y00017*
Y00016*
Y-00016*
Y-00017*
Y-00021*
Y-00022*
Y-00057*
Y-00061*
Y-00095*
Y-00096*
Y-00101*
Y-00134*
Y-00135*
Y-00139*
Y-0014*
Y-00174*
Y-00179*
Y-0018*
Y-00213*
Y-00214*
Y-00218*
Y-00219*
Y-00252*
Y-00254*
Y-00257*
Y-00259*
Y-00293*
X-00836*
Y-00259*
Y-00257*
Y-00254*
Y-00252*
Y-00243*
X-00836Y-00243*
X-00835Y-00243*
X-00834Y-00243*
X-00833Y-00243*
X-00236*
X-00236Y-00243*
X-00235Y-00243*
X-00235Y-00243*
X-00234Y-00243*
X-00234Y-00243*
X-00233Y-00244*
X-00232Y-00244*
X-00232Y-00244*
X-0023Y-00245*
X-0023Y-00246*
X-00229Y-00246*
X-00227Y-00247*
X-00221Y-00248*
X-00216Y-00247*
X-00211Y-00244*
X-00208Y-0024*
X-00207Y-00234*
X-00208Y-00229*
X-00211Y-00224*
X-00216Y-00221*
X-00221Y-0022*
X-00227Y-00221*
X-00231Y-00224*
X-00232Y-00226*
X-00233Y-00226*
X-00233Y-00227*
X-00234Y-00227*
X-00234Y-00227*
X-00235Y-00228*
X-00235Y-00228*
X-00235Y-00228*
X-00236Y-00228*
X-00236Y-00228*
X-00236Y-00228*
X-00237Y-00228*
X-00237Y-00229*
X-00238Y-00229*
X-00238Y-00229*
X-00831*
X-00836Y-00225*
Y-00219*
Y-00218*
Y-00214*
Y-00213*
Y-00204*
X-00836Y-00204*
X-00835Y-00204*
X-00834Y-00204*
X-00833Y-00204*
X-00205*
X-00204Y-00203*
X-002Y-00206*
X-00195Y-00207*
X-00189Y-00206*
X-00185Y-00203*
X-00181Y-00199*
X-0018Y-00193*
X-00176Y-00191*
X-00112Y-00254*
X-0011Y-00256*
X-00107Y-00256*
X0016*
X00165Y-00259*
X00165Y-00261*
X00166Y-00265*
X00169Y-00269*
X00173Y-00272*
X00179Y-00273*
X00184Y-00272*
X00189Y-00269*
X00192Y-00265*
X00193Y-00259*
X00192Y-00254*
X00193Y-00251*
X00194Y-00249*
X00341*
X00343Y-00254*
X00296Y-00301*
X00257*
X00255Y-00302*
X00252Y-00303*
X00243Y-00313*
X00241Y-00315*
X00241Y-00318*
Y-00331*
X00237Y-00336*
X00231*
X0023*
X00226*
X00225*
X00192*
X00187*
X00186*
X00152*
X00151*
X00146*
X00113*
X00112*
X00108*
X00107*
X00074*
X00069*
X00068*
X00034*
X00033*
X00028*
X-00004*
X-00005*
X-00009*
X-0001*
X-00043*
X-00045*
X-00048*
X-0005*
X-00083*
X-00088*
X-00089*
X-00122*
X-00123*
X-00128*
X-00161*
X-00163*
X-00166*
X-00168*
X-00201*
X-00206*
X-00207*
X-0024*
X-00241*
X-00246*
X-0028*
X-00281*
X-00285*
X-00286*
X-00319*
X-00324*
X-00325*
X-00358*
X-0036*
X-00363*
X-00365*
X-0037*
X-00371Y-00335*
X-00372Y-00335*
X-00372Y-00334*
X-00372Y-00334*
X-00373Y-00331*
X-00373Y-00331*
X-00373Y-0033*
X-00373Y-0033*
X-00372Y-00329*
X-00372Y-00329*
X-00371Y-00328*
X-00371Y-00328*
X-00368Y-00323*
X-00367Y-00318*
X-00368Y-00313*
X-00371Y-00308*
X-00376Y-00305*
X-00381Y-00304*
X-00387Y-00305*
X-00391Y-00308*
X-00394Y-00313*
X-00395Y-00318*
X-00394Y-00323*
X-00391Y-00328*
X-00391Y-00328*
X-0039Y-00329*
X-0039Y-00329*
X-0039Y-0033*
X-00389Y-0033*
X-00389Y-00331*
X-00389Y-00331*
X-0039Y-00334*
X-0039Y-00334*
X-00391Y-00335*
X-00392Y-00335*
X-00393Y-00336*
X-00398*
X-00399*
X-00404*
X-00437*
X-00438*
X-00442*
X-00443*
X-00452*
X-00452Y-00336*
X-00453Y-00335*
X-00453Y-00334*
X-00453Y-00334*
Y-0032*
X-00453Y-0032*
X-00453Y-00319*
X-00452Y-00319*
X-00452Y-00318*
X-00452Y-00318*
X-00452Y-00317*
X-00452Y-00317*
X-00451Y-00316*
X-00451Y-00315*
X-0045Y-00315*
X-0045Y-00314*
X-0045Y-00313*
X-00447Y-0031*
X-00446Y-00304*
X-00447Y-00299*
X-0045Y-00294*
X-00455Y-00291*
X-0046Y-0029*
X-00466Y-00291*
X-0047Y-00294*
X-00473Y-00299*
X-00474Y-00304*
X-00473Y-0031*
X-0047Y-00314*
X-0047Y-00315*
X-0047Y-00315*
X-00469Y-00316*
X-00469Y-00316*
X-00468Y-00317*
X-00468Y-00317*
X-00468Y-00318*
X-00468Y-00318*
X-00467Y-00318*
X-00467Y-00319*
X-00467Y-00319*
X-00467Y-0032*
Y-0032*
X-00467Y-0032*
Y-00331*
X-00471Y-00336*
X-00476*
X-00478*
X-00481*
X-00483*
X-00488*
X-00489Y-00335*
X-0049Y-00335*
X-0049Y-00334*
X-0049Y-00334*
X-00492Y-00331*
X-00491Y-00331*
X-00491Y-0033*
X-00491Y-0033*
X-0049Y-00329*
X-0049Y-00329*
X-00489Y-00328*
X-00489Y-00328*
X-00486Y-00323*
X-00485Y-00318*
X-00486Y-00313*
X-00489Y-00308*
X-00494Y-00305*
X-00499Y-00304*
X-00505Y-00305*
X-00509Y-00308*
X-00512Y-00313*
X-00513Y-00318*
X-00512Y-00323*
X-00509Y-00328*
X-00509Y-00328*
X-00509Y-00329*
X-00508Y-00329*
X-00508Y-0033*
X-00507Y-0033*
X-00507Y-00331*
X-00507Y-00331*
X-00508Y-00334*
X-00508Y-00334*
X-00509Y-00335*
X-0051Y-00335*
X-00511Y-00336*
X-00516*
X-00517*
X-00521*
X-00522*
X-00555*
X-00556*
X-0056*
X-00561*
X-00595*
X-006*
X-00601*
X-00634*
X-00635*
X-0064*
X-00673*
X-00674*
X-00678*
X-00679*
X-00713*
X-00714*
X-00718*
X-00719*
X-00752*
X-00757*
X-00758*
X-00793*
Y-00443*
X-00786*
X-00785Y-00443*
X-00784Y-00444*
X-00784Y-00444*
X-00784Y-00445*
X-00783Y-00447*
X-00783Y-00448*
X-00783Y-00448*
X-00783Y-00449*
X-00784Y-00449*
X-00784Y-0045*
X-00785Y-00451*
X-00785Y-00451*
X-00788Y-00455*
X-00789Y-00461*
X-00788Y-00466*
X-00785Y-00471*
X-0078Y-00474*
X-00775Y-00475*
X-00769Y-00474*
X-00765Y-00471*
X-00762Y-00466*
X-00761Y-00461*
X-00762Y-00455*
X-00765Y-00451*
X-00765Y-00451*
X-00765Y-0045*
X-00766Y-00449*
X-00766Y-00449*
X-00767Y-00448*
X-00767Y-00448*
X-00767Y-00447*
X-00766Y-00445*
X-00766Y-00444*
X-00765Y-00444*
X-00764Y-00443*
X-00763Y-00443*
X-00758*
X-00753*
X-00752*
X-00747*
X-00746Y-00443*
X-00745Y-00444*
X-00745Y-00444*
X-00744Y-00445*
X-00743Y-00447*
X-00743Y-00448*
X-00744Y-00448*
X-00744Y-00449*
X-00744Y-00449*
X-00745Y-0045*
X-00745Y-00451*
X-00746Y-00451*
X-00748Y-00455*
X-0075Y-00461*
X-00748Y-00466*
X-00745Y-00471*
X-00741Y-00474*
X-00735Y-00475*
X-0073Y-00474*
X-00725Y-00471*
X-00722Y-00466*
X-00721Y-00461*
X-00722Y-00455*
X-00725Y-00451*
X-00725Y-00451*
X-00726Y-0045*
X-00727Y-00449*
X-00727Y-00449*
X-00727Y-00448*
X-00728Y-00448*
X-00728Y-00447*
X-00727Y-00445*
X-00726Y-00444*
X-00726Y-00444*
X-00725Y-00443*
X-00724Y-00443*
X-00719*
X-00718*
X-00714*
X-00713*
X-00679*
X-00678*
X-00674*
X-00673*
X-0064*
X-00639*
X-00634*
X-00601*
X-00596*
X-00595*
X-00561*
X-0056*
X-00556*
X-00555*
X-00522*
X-00521*
X-00517*
X-00516*
X-00483*
X-00481*
X-00478*
X-00476*
X-00443*
X-00442*
X-00438*
X-00437*
X-00404*
X-00403*
X-00398*
X-00365*
X-00363*
X-0036*
X-00358*
X-00349*
X-00349Y-00443*
X-00349Y-00444*
X-00349Y-00445*
X-00348Y-00445*
Y-00458*
X-00349Y-00459*
X-00349Y-00459*
X-00349Y-0046*
X-00349Y-0046*
X-00349Y-00461*
X-00349Y-00461*
X-00349Y-00462*
X-0035Y-00462*
X-0035Y-00463*
X-00351Y-00463*
X-00351Y-00464*
X-00351Y-00464*
X-00354Y-00469*
X-00355Y-00474*
X-00354Y-0048*
X-00351Y-00484*
X-00347Y-00487*
X-00341Y-00488*
X-00336Y-00487*
X-00335Y-00487*
X-0033Y-00489*
X-00329Y-0049*
X-00326Y-00494*
X-00323Y-00496*
X-00323Y-00497*
X-00321Y-00499*
X-00271Y-00549*
X-00269Y-00551*
X-00266Y-00551*
X-0025*
X-00248Y-00556*
X-00249Y-00559*
X-0025Y-00564*
X-00249Y-0057*
X-00246Y-00574*
X-00242Y-00577*
X-00236Y-00578*
X-00231Y-00577*
X-00227Y-00574*
X-00226Y-00574*
X-00226Y-00574*
X-00226Y-00574*
X-00226Y-00574*
X-00226Y-00574*
X-00225Y-00574*
X-00225Y-00574*
X-00224Y-00574*
X-00223Y-00573*
X-00222Y-00573*
X-00221Y-00573*
X00129*
X00131Y-00578*
X00129Y-00579*
X00126Y-00584*
X00125Y-00589*
X00126Y-00595*
X00129Y-00599*
X00134Y-00602*
X00139Y-00603*
X00144Y-00602*
X00145Y-00603*
X00148Y-00606*
X00146Y-00609*
X00145Y-00614*
X00146Y-0062*
X00149Y-00624*
X00154Y-00627*
X00159Y-00628*
X00164Y-00627*
X00169Y-00624*
X00172Y-0062*
X00173Y-00614*
X00172Y-00609*
X00169Y-00604*
X00164Y-00601*
X00159Y-006*
X00154Y-00601*
X00153Y-006*
X00151Y-00597*
X00152Y-00595*
X00153Y-00589*
X00152Y-00584*
X00149Y-00579*
X00148Y-00578*
X00149Y-00573*
X01089*
X01092Y-00573*
X01095Y-00571*
X01118Y-00548*
X01144*
X01148Y-00548*
X01151Y-00546*
X0116Y-00536*
X01162Y-00533*
X01162Y-0053*
Y-00529*
X01163Y-00528*
X01163Y-00527*
X01163Y-00525*
X01163Y-00524*
X01163Y-00523*
X01164Y-00522*
X01164Y-00522*
X01164Y-00521*
X01165Y-00521*
X01165Y-0052*
X01166Y-0052*
X01166Y-00519*
X01166Y-00519*
X01167Y-00519*
X0117Y-00516*
X01176Y-00508*
X01177Y-00502*
X01179Y-00502*
X01182Y-005*
X01217Y-00465*
X01541*
X01544Y-00464*
X01571Y-00437*
X01572Y-00434*
Y-00219*
X01571Y-00216*
X01568Y-00215*
X01178*
X01175Y-00216*
X01173Y-00219*
Y-00314*
X01175Y-00317*
X01203Y-00346*
Y-00453*
X01174Y-00482*
X0117Y-00482*
X01163Y-00477*
X01161Y-00477*
X01161Y-00476*
X01161Y-00476*
X01161Y-00476*
X01161Y-00475*
X01161Y-00475*
X01161Y-00474*
X0116Y-00473*
Y-00445*
X01161Y-00445*
X01161Y-00444*
X01161Y-00443*
X01161Y-00443*
X01171*
Y-00336*
X01137*
X01136*
X01132*
X01131*
X01097*
X01096*
X01092*
X01091*
X01082*
X01082Y-00336*
X01082Y-00335*
X01082Y-00334*
X01082Y-00334*
Y00062*
X01082Y00063*
X01082Y00063*
X01082Y00064*
X01082Y00064*
X01082Y00065*
X01082Y00065*
X01083Y00066*
X01083Y00066*
X01083Y00067*
X01084Y00068*
X01085Y00068*
X01085Y00068*
X01088Y00073*
X01089Y00078*
X01088Y00084*
X01085Y00088*
X0108Y00091*
X01075Y00092*
X01069Y00091*
X01065Y00088*
X01062Y00084*
X0106Y00078*
X01062Y00073*
X01064Y00068*
X01065Y00068*
X01065Y00068*
X01066Y00067*
X01066Y00066*
X01066Y00066*
X01067Y00065*
X01067Y00065*
X01067Y00064*
X01067Y00064*
X01067Y00063*
X01067Y00063*
X01067Y00062*
Y-00331*
X01063Y-00336*
X01058*
X01057*
X01052*
X01043*
X01043Y-00336*
X01043Y-00335*
X01043Y-00334*
X01042Y-00334*
Y00169*
X01043Y00169*
X01043Y0017*
X01043Y0017*
X01043Y00171*
X01043Y00171*
X01043Y00172*
X01043Y00172*
X01044Y00173*
X01044Y00173*
X01045Y00174*
X01045Y00175*
X01045Y00175*
X01045Y00175*
X01048Y00179*
X01049Y00185*
X01048Y0019*
X01045Y00195*
X01041Y00198*
X01035Y00199*
X0103Y00198*
X01025Y00195*
X01022Y0019*
X01021Y00185*
X01022Y00179*
X01025Y00175*
X01025Y00175*
X01026Y00174*
X01026Y00174*
X01027Y00173*
X01027Y00173*
X01027Y00172*
X01028Y00172*
X01028Y00171*
X01028Y00171*
X01028Y0017*
X01028Y00169*
X01028Y00169*
Y-00331*
X01024Y-00336*
X01019*
X01017*
X01014*
X01012*
X01003*
X01003Y-00336*
X01003Y-00335*
X01003Y-00334*
X01003Y-00334*
Y00169*
X01003Y00169*
X01003Y0017*
X01003Y00171*
X01003Y00171*
X01004Y00171*
X01004Y00172*
X01004Y00172*
X01004Y00173*
X01005Y00173*
X01005Y00174*
X01006Y00175*
X01006Y00175*
X01006Y00175*
X01009Y00179*
X0101Y00185*
X01009Y0019*
X01006Y00195*
X01001Y00198*
X00996Y00199*
X00991Y00198*
X00986Y00195*
X00983Y0019*
X00982Y00185*
X00983Y00179*
X00986Y00175*
X00986Y00175*
X00986Y00174*
X00987Y00174*
X00987Y00173*
X00988Y00173*
X00988Y00172*
X00988Y00172*
X00988Y00171*
X00988Y00171*
X00988Y0017*
X00989Y00169*
X00989Y00169*
Y-00331*
X00985Y-00336*
X00979*
X00978*
X00974*
X00973*
X00964*
X00964Y-00336*
X00964Y-00335*
X00964Y-00334*
X00964Y-00334*
Y00169*
X00964Y00169*
X00964Y0017*
X00964Y00171*
X00964Y00171*
X00964Y00171*
X00964Y00172*
X00965Y00172*
X00965Y00173*
X00965Y00173*
X00966Y00174*
X00966Y00175*
X00967Y00175*
X00967Y00175*
X0097Y00179*
X00971Y00185*
X0097Y0019*
X00967Y00195*
X00962Y00198*
X00957Y00199*
X00951Y00198*
X00947Y00195*
X00944Y0019*
X00943Y00185*
X00944Y00179*
X00946Y00175*
X00946Y00175*
X00947Y00174*
X00948Y00174*
X00948Y00173*
X00948Y00173*
X00949Y00172*
X00949Y00172*
X00949Y00171*
X00949Y00171*
X00949Y0017*
X00949Y00169*
X00949Y00169*
Y-00331*
X00945Y-00336*
X0094*
X00939*
X00935*
X00934*
X00925*
X00925Y-00336*
X00924Y-00335*
X00924Y-00334*
X00924Y-00334*
Y00169*
X00924Y00169*
X00924Y0017*
X00925Y00171*
X00925Y00171*
X00925Y00171*
X00925Y00172*
X00925Y00172*
X00926Y00173*
X00926Y00173*
X00926Y00174*
X00927Y00175*
X00927Y00175*
X00927Y00175*
X0093Y00179*
X00931Y00185*
X0093Y0019*
X00927Y00195*
X00923Y00198*
X00917Y00199*
X00912Y00198*
X00907Y00195*
X00904Y0019*
X00903Y00185*
X00904Y00179*
X00907Y00175*
X00907Y00175*
X00908Y00174*
X00908Y00174*
X00909Y00173*
X00909Y00173*
X00909Y00172*
X00909Y00172*
X0091Y00171*
X0091Y00171*
X0091Y0017*
X0091Y00169*
X0091Y00169*
Y-00331*
X00906Y-00336*
X00901*
X00899*
X00896*
X00894*
X00861*
X0086*
X00856*
X00855*
X00851*
X00851Y-00336*
X0085Y-00336*
X0085*
X0085Y-00336*
X0085Y-00336*
X0085Y-00335*
X00849Y-00335*
X00849Y-00334*
X00849Y-00332*
X00849Y-0033*
X00849Y-00328*
X00848Y-00328*
Y-00293*
X00849Y-00292*
X00849Y-0029*
X00849Y-00288*
X00849Y-00288*
X00849Y-00288*
Y-00288*
X00849Y-00288*
Y-00288*
X00849Y-00287*
X00849Y-00287*
X00851Y-00285*
X00852Y-00279*
X00851Y-00274*
X00848Y-00269*
X00843Y-00266*
X00838Y-00265*
X00832Y-00266*
X00828Y-00269*
X00825Y-00274*
X00824Y-00279*
X00825Y-00285*
X00828Y-00289*
X00828Y-00289*
Y-00289*
X00828Y-0029*
X00828Y-0029*
X00828Y-00292*
X00828Y-00293*
X00828Y-00294*
X00828Y-00294*
X00828Y-00294*
Y-00328*
X00828Y-00328*
X00828Y-0033*
X00828Y-00332*
X00828Y-00334*
X00827Y-00335*
X00827Y-00335*
X00827Y-00336*
X00827Y-00336*
X00827Y-00336*
X00827*
X00826Y-00336*
X00826Y-00336*
X00822*
X00821*
X00817*
X00816*
X00806*
X00806Y-00336*
X00806Y-00335*
X00806Y-00334*
X00806Y-00334*
Y00183*
X00806Y00186*
X00804Y00188*
X00719Y00273*
X00716Y00275*
X00713Y00275*
X0027*
X00268Y00278*
X00268Y0028*
X0027Y00284*
X00271Y0029*
X0027Y00295*
X00267Y003*
X00265Y00301*
X00265Y00306*
X00268Y00309*
X00269Y00312*
X0027Y00314*
Y0033*
X00269Y00332*
X00268Y00335*
X00258Y00345*
X00255Y00346*
X00253Y00347*
X00233*
X0023Y00346*
X00228Y00345*
X00217Y00334*
X00216Y00334*
X00212Y00336*
X00211Y0034*
X00208Y00345*
X00204Y00348*
X00198Y00349*
X00193Y00348*
X00189Y00345*
X00188Y00345*
X00188Y00344*
X00187Y00344*
X00187Y00343*
X00186Y00343*
X00185Y00343*
X00185Y00343*
X00185Y00342*
X00184Y00342*
X00184Y00342*
X00183Y00342*
X00182Y00342*
X-00114*
X-00117Y00341*
X-00119Y0034*
X-00295Y00164*
X-00831*
X-00836Y00168*
Y00174*
Y00175*
Y00179*
Y0018*
Y00189*
X-00836Y00189*
X-00835Y00189*
X-00834Y00189*
X-00833Y00189*
X-00295*
X-00293Y0019*
X-0029Y00191*
X-00124Y00358*
X00281*
X00281Y00358*
X00282Y00358*
X00282Y00357*
X00283Y00357*
X00283Y00357*
X00284Y00357*
X00284Y00357*
X00285Y00356*
X00285Y00356*
X00286Y00355*
X00287Y00355*
X00287Y00355*
X00291Y00352*
X00297Y00351*
X00302Y00352*
X00307Y00355*
X0031Y00359*
X00311Y00365*
X0031Y0037*
X00307Y00375*
X00302Y00378*
X00297Y00379*
X00291Y00378*
X00287Y00375*
X00287Y00375*
X00286Y00374*
X00285Y00374*
X00285Y00373*
X00284Y00373*
X00284Y00373*
X00283Y00373*
X00283Y00372*
X00282Y00372*
X00282Y00372*
X00281Y00372*
X00281Y00372*
X-00127*
X-0013Y00371*
X-00132Y0037*
X-00233Y00269*
X-00238Y00271*
X-00237Y00275*
X-00238Y0028*
X-00241Y00285*
X-00246Y00288*
X-00251Y00289*
X-00257Y00288*
X-00261Y00285*
X-00261Y00285*
X-00262Y00284*
X-00262Y00284*
X-00263Y00284*
X-00263Y00283*
X-00264Y00283*
X-00264Y00283*
X-00265Y00283*
X-00265Y00282*
X-00266Y00282*
X-00267Y00282*
X-00267Y00282*
X-00831*
X-00836Y00286*
Y00292*
Y00293*
Y00298*
Y00307*
X-00836Y00307*
X-00835Y00307*
X-00834Y00307*
X-00833Y00307*
X-00221*
X-00218Y00308*
X-00216Y00309*
X-00139Y00386*
X00143*
X00143Y00386*
X00144Y00386*
X00145Y00386*
X00145Y00386*
X00146Y00385*
X00146Y00385*
X00147Y00385*
X00147Y00385*
X00148Y00384*
X00148Y00384*
X00149Y00383*
X00149Y00383*
X00154Y0038*
X00159Y00379*
X00164Y0038*
X00169Y00383*
X00172Y00388*
X00173Y00393*
X00172Y00399*
X00169Y00403*
X00164Y00406*
X00159Y00407*
X00154Y00406*
X00149Y00403*
X00149Y00403*
X00148Y00403*
X00148Y00402*
X00147Y00402*
X00147Y00401*
X00146Y00401*
X00146Y00401*
X00145Y00401*
X00145Y00401*
X00144Y00401*
X00143Y004*
X00143Y004*
X-00142*
X-00145Y004*
X-00147Y00398*
X-00224Y00322*
X-00831*
X-00836Y00326*
Y00331*
Y00332*
Y00336*
Y00337*
Y00346*
X-00836Y00346*
X-00835Y00346*
X-00834Y00346*
X-00833Y00347*
X-00772*
X-00772Y00346*
X-00771Y00346*
X-00771Y00346*
X-0077Y00346*
X-0077Y00346*
X-00769Y00346*
X-00769Y00346*
X-00768Y00345*
X-00768Y00345*
X-00767Y00344*
X-00766Y00344*
X-00766Y00344*
X-00762Y00341*
X-00756Y0034*
X-00751Y00341*
X-00746Y00344*
X-00743Y00348*
X-00742Y00354*
X-00743Y00359*
X-00746Y00364*
X-00751Y00367*
X-00756Y00368*
X-00762Y00367*
X-00766Y00364*
X-00766Y00364*
X-00767Y00363*
X-00768Y00363*
X-00768Y00362*
X-00769Y00362*
X-00769Y00362*
X-0077Y00361*
X-0077Y00361*
X-00771Y00361*
X-00771Y00361*
X-00772Y00361*
X-00772Y00361*
X-00831*
X-00836Y00365*
Y0037*
Y00375*
Y00377*
Y00386*
X-00836Y00386*
X-00835Y00386*
X-00834Y00386*
X-00833Y00386*
X-00206*
X-00203Y00387*
X-00201Y00388*
X-00171Y00418*
X00842*
X00842Y00418*
X00843Y00418*
X00843Y00417*
X00844Y00417*
X00844Y00417*
X00845Y00417*
X00845Y00417*
X00846Y00416*
X00846Y00416*
X00847Y00415*
X00848Y00415*
X00848Y00415*
X00852Y00412*
X00858Y00411*
X00863Y00412*
X00868Y00415*
X00871Y00419*
X00872Y00425*
X00871Y0043*
X00868Y00435*
X00863Y00438*
X00858Y00439*
X00852Y00438*
X00848Y00435*
X00848Y00435*
X00847Y00434*
X00846Y00434*
X00846Y00433*
X00845Y00433*
X00845Y00433*
X00844Y00433*
X00844Y00432*
X00843Y00432*
X00843Y00432*
X00842Y00432*
X00842Y00432*
X00403*
X00401Y00437*
X00401Y00437*
X00405Y0044*
X00408Y00444*
X00409Y0045*
X00408Y00455*
X00405Y0046*
X00401Y00463*
X00395Y00464*
X0039Y00463*
X00385Y0046*
X00385Y0046*
X00384Y00459*
X00384Y00459*
X00383Y00458*
X00383Y00458*
X00382Y00458*
X00382Y00458*
X00381Y00457*
X00381Y00457*
X0038Y00457*
X0038Y00457*
X00379Y00457*
X00363*
X00361Y00462*
X00361Y00462*
X00366Y00465*
X00369Y00469*
X0037Y00475*
X0037Y00475*
X00374Y00479*
X00375Y00479*
X00381Y0048*
X00385Y00483*
X00389Y00488*
X0039Y00493*
X00389Y00499*
X00385Y00503*
X00381Y00506*
X00375Y00507*
X0037Y00506*
X00366Y00503*
X00362Y00499*
X00361Y00493*
X00361Y00493*
X00357Y00489*
X00356Y00489*
X0035Y00488*
X00346Y00485*
X00343Y0048*
X00342Y00475*
X00343Y00469*
X00346Y00465*
X0035Y00462*
X0035Y00462*
X00348Y00457*
X-00248*
X-00384Y00593*
Y00765*
X-00385Y00768*
X-00386Y0077*
X-00441Y00824*
X-00443Y00826*
X-00446Y00826*
X-00635*
X-00636Y00831*
X-00636Y00832*
X-00633Y00836*
X-00632Y00842*
X-00633Y00847*
X-00636Y00852*
X-00639Y00853*
X-00637Y00858*
X-00554*
X-00554Y00858*
X-00553Y00858*
X-00553Y00858*
X-00552Y00858*
X-00552Y00858*
X-00551Y00858*
X-00551Y00857*
X-0055Y00857*
X-0055Y00857*
X-00549Y00856*
X-00549Y00856*
X-00548Y00856*
X-00544Y00853*
X-00539Y00852*
X-00533Y00853*
X-00529Y00856*
X-00526Y0086*
X-00524Y00866*
X-00526Y00871*
X-00529Y00876*
X-00533Y00879*
X-00539Y0088*
X-00544Y00879*
X-00548Y00876*
X-00549Y00876*
X-00549Y00875*
X-0055Y00874*
X-0055Y00874*
X-00551Y00874*
X-00551Y00874*
X-00552Y00873*
X-00552Y00873*
X-00553Y00873*
X-00553Y00873*
X-00554Y00873*
X-00554Y00873*
X-00831*
X-00836Y00877*
Y00882*
Y00883*
Y00887*
Y00888*
Y00898*
X-00836Y00898*
X-00835Y00898*
X-00834Y00898*
X-00833Y00898*
X-0058*
X-0058Y00898*
X-00579Y00898*
X-00578Y00898*
X-00578Y00897*
X-00578Y00897*
X-00577Y00897*
X-00577Y00897*
X-00576Y00896*
X-00575Y00896*
X-00575Y00896*
X-00574Y00895*
X-00574Y00895*
X-0057Y00892*
X-00564Y00891*
X-00559Y00892*
X-00554Y00895*
X-00551Y009*
X-0055Y00905*
X-00551Y0091*
X-00554Y00915*
X-00559Y00918*
X-00564Y00919*
X-0057Y00918*
X-00574Y00915*
X-00574Y00915*
X-00575Y00914*
X-00575Y00914*
X-00576Y00913*
X-00577Y00913*
X-00577Y00913*
X-00578Y00913*
X-00578Y00913*
X-00578Y00912*
X-00579Y00912*
X-0058Y00912*
X-0058Y00912*
X-00831*
X-00836Y00916*
Y00922*
Y00923*
Y00927*
Y00928*
Y00961*
Y00962*
Y00966*
Y00967*
Y01*
Y01001*
Y01005*
Y01006*
Y0104*
Y01045*
Y01046*
Y01079*
Y0108*
Y01085*
Y01094*
X-00836Y01094*
X-00835Y01094*
X-00834Y01095*
X-00833Y01095*
X-0058*
X-0058Y01095*
X-00579Y01094*
X-00578Y01094*
X-00578Y01094*
X-00578Y01094*
X-00577Y01094*
X-00577Y01094*
X-00576Y01093*
X-00575Y01093*
X-00575Y01092*
X-00574Y01092*
X-00574Y01092*
X-0057Y01089*
X-00564Y01088*
X-00559Y01089*
X-00554Y01092*
X-00551Y01096*
X-0055Y01102*
X-00551Y01107*
X-00554Y01112*
X-00559Y01115*
X-00564Y01116*
X-0057Y01115*
X-00574Y01112*
X-00574Y01112*
X-00575Y01111*
X-00575Y01111*
X-00576Y0111*
X-00577Y0111*
X-00577Y0111*
X-00578Y0111*
X-00578Y01109*
X-00578Y01109*
X-00579Y01109*
X-0058Y01109*
X-0058Y01109*
X-00831*
X-00836Y01113*
Y01118*
Y0112*
Y01123*
Y01125*
Y01134*
X-00836Y01134*
X-00835Y01134*
X-00834Y01134*
X-00833Y01134*
X-00553*
X-00553Y01134*
X-00552Y01134*
X-00552Y01134*
X-00551Y01134*
X-00551Y01134*
X-0055Y01133*
X-0055Y01133*
X-00549Y01133*
X-00549Y01132*
X-00548Y01132*
X-00548Y01131*
X-00547Y01131*
X-00543Y01128*
X-00538Y01127*
X-00532Y01128*
X-00528Y01131*
X-00525Y01136*
X-00524Y01141*
X-00525Y01147*
X-00528Y01151*
X-00532Y01154*
X-00538Y01155*
X-00543Y01154*
X-00547Y01151*
X-00548Y01151*
X-00548Y01151*
X-00549Y0115*
X-00549Y0115*
X-0055Y01149*
X-0055Y01149*
X-00551Y01149*
X-00551Y01149*
X-00552Y01149*
X-00552Y01149*
X-00553Y01149*
X-00553Y01148*
X-00831*
X-00836Y01152*
Y01158*
Y01159*
Y01163*
Y01164*
Y01197*
Y01198*
Y01202*
Y01203*
Y01237*
Y01238*
Y01242*
Y01243*
Y01276*
Y01277*
Y01281*
Y01282*
Y01315*
Y0132*
Y01321*
Y01355*
Y01356*
Y01361*
Y0137*
X-00836Y0137*
X-00835Y0137*
X-00834Y0137*
X-00833Y0137*
X-00725*
X-00723Y01368*
X-00722Y01367*
X-00722Y01367*
X-00722Y01366*
X-00721Y01366*
X-00721Y01365*
X-00721Y01365*
X-00721Y01364*
X-00721Y01364*
X-00721Y01363*
X-00721Y01362*
X-0072Y01361*
X-0072Y01361*
X-00719Y01356*
X-00716Y01351*
X-00712Y01348*
X-00706Y01347*
X-00701Y01348*
X-00696Y01351*
X-00693Y01356*
X-00692Y01361*
X-00693Y01367*
X-00696Y01371*
X-00701Y01374*
X-00706Y01375*
X-00706Y01376*
X-00707Y01376*
X-00708Y01376*
X-00709Y01376*
X-00709Y01376*
X-0071Y01376*
X-0071Y01376*
X-00711Y01376*
X-00711Y01377*
X-00712Y01377*
X-00712Y01377*
X-00712Y01378*
X-00717Y01382*
X-0072Y01384*
X-00722Y01385*
X-00831*
X-00836Y01389*
Y01394*
Y01395*
Y01399*
Y014*
Y01433*
Y01435*
Y01438*
Y0144*
Y01449*
X-00836Y01449*
X-00835Y01449*
X-00834Y01449*
X-00833Y01449*
X-00541*
X-00486Y01395*
X-00484Y01393*
X-00481Y01393*
X-00053*
X-00052Y01393*
X-00052Y01393*
X-00051Y01392*
X-00051Y01392*
X-0005Y01392*
X-0005Y01392*
X-00049Y01392*
X-00049Y01391*
X-00048Y01391*
X-00048Y01391*
X-00047Y0139*
X-00047Y0139*
X-00042Y01387*
X-00037Y01386*
X-00032Y01387*
X-0003Y01388*
X-00026Y01386*
X-00025Y01385*
X-00025Y01385*
X-00025Y01382*
X-00025Y01382*
X-00026Y01381*
X-00026Y01381*
X-00027Y0138*
X-00027Y0138*
X-0003Y01375*
X-00031Y0137*
X-00031Y01366*
X-00035Y01364*
X-00036Y01365*
X-00039Y01366*
X-00041Y01367*
X-00211*
X-00214Y01366*
X-00216Y01365*
X-00268Y01313*
X-0027Y01311*
X-0027Y01308*
Y01258*
X-00311Y01217*
X-00523*
X-00523Y01217*
X-00524Y01217*
X-00524Y01217*
X-00525Y01217*
X-00525Y01218*
X-00526Y01218*
X-00526Y01218*
X-00527Y01218*
X-00527Y01219*
X-00528Y01219*
X-00529Y0122*
X-00529Y0122*
X-00533Y01223*
X-00539Y01224*
X-00544Y01223*
X-00549Y0122*
X-00552Y01215*
X-00553Y0121*
X-00552Y01204*
X-00551Y01204*
X-00554Y012*
X-00554Y012*
X-00559Y01203*
X-00564Y01204*
X-0057Y01203*
X-00574Y012*
X-00577Y01195*
X-00578Y0119*
X-00577Y01184*
X-00574Y0118*
X-0057Y01177*
X-00564Y01176*
X-00559Y01177*
X-00554Y0118*
X-00554Y0118*
X-00553Y0118*
X-00553Y01181*
X-00552Y01181*
X-00552Y01182*
X-00551Y01182*
X-00551Y01182*
X-0055Y01182*
X-0055Y01182*
X-00549Y01183*
X-00549Y01183*
X-00548Y01183*
X-00291*
X-00289Y01183*
X-00286Y01185*
X-00231Y0124*
X-0023Y01242*
X-00229Y01245*
Y013*
X-00192Y01338*
X-00051*
X-00046Y01333*
X-00044Y01331*
X-00041Y01331*
X00098*
X001Y01331*
X00103Y01333*
X00125Y01355*
X00126Y01357*
X00126Y01357*
X00127Y01357*
X00132Y01358*
X00134Y01357*
X00139Y01356*
X00145Y01357*
X00149Y0136*
X00152Y01364*
X00153Y0137*
X00153Y0137*
X00153Y01371*
X00154Y01372*
X00154Y01372*
X00154Y01373*
X00154Y01373*
X00154Y01374*
X00154Y01374*
X00155Y01375*
X00155Y01375*
X00155Y01376*
X00156Y01376*
X00158Y01378*
X00159Y01381*
X0016Y01383*
Y01398*
X00165Y01398*
X00165Y01397*
X00166Y01394*
X00169Y0139*
X00173Y01387*
X00179Y01386*
X00184Y01387*
X00189Y0139*
X00192Y01394*
X00193Y014*
X00192Y01405*
X00189Y0141*
X00184Y01413*
X00179Y01414*
X00173Y01413*
X00169Y0141*
X00166Y01405*
X00165Y01403*
X00165Y01401*
X0016Y01402*
Y01411*
X00159Y01414*
X00158Y01416*
X00144Y0143*
X00142Y01431*
X00139Y01432*
X0012*
X00117Y01431*
X00116Y01431*
X00112Y01435*
X00121Y01443*
X00262*
X00265Y01443*
X00267Y01445*
X00311Y01488*
X00429*
X00466Y01451*
X00469Y0145*
X00471Y01449*
X00933*
X0096Y01422*
Y0138*
X0096Y01377*
X00962Y01375*
X00989Y01348*
X00991Y01346*
X00994Y01346*
X01073*
X01074Y01346*
X01074Y01346*
X01075Y01346*
X01075Y01345*
X01076Y01345*
X01076Y01345*
X01077Y01345*
X01077Y01345*
X01078Y01344*
X01078Y01344*
X01079Y01343*
X01079Y01343*
X01084Y0134*
X01089Y01339*
X01095Y0134*
X01099Y01343*
X01102Y01348*
X01103Y01353*
X01102Y01358*
X01099Y01363*
X01095Y01366*
X01089Y01367*
X01084Y01366*
X0108Y01363*
X01079Y01363*
X01079Y01362*
X01078Y01362*
X01077Y01362*
X01077Y01361*
X01076Y01361*
X01076Y01361*
X01075Y01361*
X01075Y0136*
X01074Y0136*
X01074Y0136*
X01073Y0136*
X01066*
X01064Y01365*
X01068Y01367*
X01071Y01372*
X01072Y01377*
X01071Y01383*
X01068Y01387*
X01063Y0139*
X01058Y01392*
X01052Y0139*
X01048Y01388*
X01048Y01387*
X01047Y01387*
X01047Y01386*
X01046Y01386*
X01046Y01386*
X01045Y01385*
X01045Y01385*
X01044Y01385*
X01044Y01385*
X01043Y01385*
X01042Y01385*
X01042Y01385*
X01013*
X01001Y01397*
Y01439*
X01Y01441*
X00999Y01444*
X00963Y0148*
X0096Y01481*
X00958Y01482*
X00491*
X00453Y0152*
X0045Y01521*
X00449Y01522*
X00447Y01525*
X00446Y01527*
X00448Y01529*
X00449Y01534*
X00448Y0154*
X00445Y01544*
X00442Y01546*
X00443Y01551*
X00474*
X00477Y01552*
X00479Y01553*
X00499Y01573*
X005Y01575*
X00501Y01578*
Y01616*
X00501Y01616*
X00501Y01617*
X00501Y01618*
X00501Y01618*
X00501Y01619*
X00501Y01619*
X00502Y0162*
X00502Y0162*
X00502Y01621*
X00503Y01621*
X00504Y01622*
X00504Y01622*
X00507Y01627*
X00508Y01632*
X00507Y01637*
X00504Y01642*
X00499Y01645*
X00494Y01646*
X00493Y01646*
X00488Y01648*
X00487Y01653*
X00484Y01658*
X00479Y01661*
X00474Y01662*
X00468Y01661*
X00464Y01658*
X00461Y01653*
X0046Y01648*
X00455Y01646*
X00454Y01646*
X00449Y01645*
X00444Y01642*
X00441Y01637*
X0044Y01632*
X00441Y01627*
X00444Y01622*
X00444Y01622*
X00445Y01621*
X00445Y01621*
X00446Y0162*
X00446Y0162*
X00446Y01619*
X00447Y01619*
X00447Y01618*
X00447Y01618*
X00447Y01617*
X00447Y01616*
X00447Y01616*
Y0161*
X00442Y01604*
X00255*
X00252Y01604*
X0025Y01602*
X00189Y01541*
X0006*
X00058Y01541*
X00055Y01539*
X00033Y01517*
X-00177*
X-00177Y01517*
X-00175Y01522*
X00026*
X00029Y01523*
X00031Y01525*
X00057Y01551*
X00103*
X00105Y01552*
X00108Y01553*
X00125Y0157*
X00126Y01572*
X00127Y01575*
Y01632*
X00127Y01632*
X00127Y01633*
X00127Y01634*
X00127Y01634*
X00127Y01635*
X00127Y01635*
X00128Y01636*
X00128Y01636*
X00128Y01637*
X00129Y01637*
X0013Y01638*
X0013Y01638*
X00133Y01642*
X00134Y01648*
X00133Y01653*
X0013Y01658*
X00125Y01661*
X0012Y01662*
X00114Y01661*
X0011Y01658*
X00107Y01653*
X00105Y01648*
X00101Y01646*
X001Y01646*
X00094Y01645*
X0009Y01642*
X00087Y01637*
X00086Y01632*
X00087Y01627*
X0009Y01622*
X0009Y01622*
X00091Y01621*
X00091Y01621*
X00091Y0162*
X00092Y0162*
X00092Y01619*
X00092Y01619*
X00092Y01618*
X00092Y01618*
X00093Y01617*
X00093Y01616*
X00093Y01616*
Y01593*
X00082Y01582*
X00038*
X00035Y01582*
X00033Y0158*
X00009Y01556*
X-00088*
X-0009Y01561*
X-00087Y01563*
X-00083Y01568*
X-00082Y01574*
X-00083Y0158*
X-00087Y01586*
X-00092Y01589*
X-00098Y0159*
X-00104Y01589*
X-00109Y01586*
X-00113Y0158*
X-00114Y01574*
X-00113Y01568*
X-00109Y01563*
X-00106Y01561*
X-00108Y01556*
X-00366*
X-00456Y01646*
X-00459Y01648*
X-00461Y01648*
X-00472*
X-00472Y01649*
X-00473Y01649*
X-00473Y01649*
X-00474Y01649*
X-00474Y01649*
X-00475Y01649*
X-00475Y01649*
X-00476Y0165*
X-00476Y0165*
X-00477Y01651*
X-00477Y01651*
X-00478Y01651*
X-00482Y01654*
X-00487Y01655*
X-00493Y01654*
X-00497Y01651*
X-005Y01647*
X-00502Y01641*
X-005Y01636*
X-005Y01635*
X-00502Y01632*
X-00503Y01631*
X-00508Y01634*
X-00513Y01635*
X-00518Y01634*
X-00523Y01631*
X-00526Y01627*
X-00527Y01621*
X-00526Y01616*
X-00523Y01611*
X-00518Y01608*
X-00513Y01607*
X-00508Y01608*
X-00503Y01611*
X-00503Y01611*
X-00502Y01612*
X-00502Y01612*
X-00501Y01613*
X-00501Y01613*
X-005Y01613*
X-005Y01613*
X-00499Y01614*
X-00499Y01614*
X-00498Y01614*
X-00498Y01614*
X-00497Y01614*
X-00476*
X-00386Y01525*
X-00384Y01523*
X-00381Y01522*
X-00209*
X-00206Y01517*
X-00208Y01515*
X-00209Y0151*
X-00208Y01504*
X-00206Y01502*
X-00208Y01497*
X-00389*
X-00471Y01579*
X-00473Y01581*
X-00476Y01581*
X-0072*
X-0072Y01582*
X-00721Y01582*
X-00721Y01582*
X-00722Y01582*
X-00722Y01582*
X-00723Y01582*
X-00723Y01582*
X-00724Y01583*
X-00724Y01583*
X-00725Y01584*
X-00725Y01584*
X-00726Y01584*
X-0073Y01587*
X-00735Y01588*
X-00741Y01587*
X-00745Y01584*
X-00748Y0158*
X-0075Y01574*
X-00748Y01569*
X-00745Y01564*
X-00741Y01561*
X-00735Y0156*
X-0073Y01561*
X-00726Y01564*
X-00725Y01564*
X-00725Y01565*
X-00724Y01565*
X-00724Y01566*
X-00723Y01566*
X-00723Y01566*
X-00722Y01567*
X-00722Y01567*
X-00721Y01567*
X-00721Y01567*
X-0072Y01567*
X-0072Y01567*
X-00479*
X-00397Y01485*
X-00394Y01483*
X-00392Y01483*
X-00235*
X-00232Y01478*
X-00234Y01475*
X-00235Y0147*
X-00234Y01464*
X-00232Y01462*
X-00235Y01457*
X-0026*
X-00261Y01457*
X-00262Y01457*
X-00262Y01457*
X-00262Y01457*
X-00263Y01458*
X-00263Y01458*
X-00264Y01458*
X-00265Y01458*
X-00265Y01459*
X-00266Y01459*
X-00266Y0146*
X-00266Y0146*
X-00271Y01463*
X-00276Y01464*
X-00282Y01463*
X-00286Y0146*
X-00289Y01455*
X-0029Y0145*
X-00289Y01444*
X-00286Y0144*
X-00282Y01437*
X-00282Y01437*
X-00284Y01432*
X-00448*
X-00516Y01501*
X-00519Y01502*
X-00521Y01503*
X-00831*
X-00836Y01507*
Y01512*
Y01513*
Y01517*
Y01518*
Y01551*
Y01553*
Y01556*
Y01558*
Y01591*
Y01596*
Y01597*
Y0163*
Y01631*
Y01636*
Y01671*
G37*
G36*
X-00462Y01334D02*
X-00467Y01333D01*
X-00472Y0133*
X-00475Y01325*
X-00476Y0132*
X-00475Y01314*
X-00472Y0131*
X-00467Y01307*
X-00462Y01306*
X-00456Y01307*
X-00452Y0131*
X-00449Y01314*
X-00448Y0132*
X-00449Y01325*
X-00452Y0133*
X-00456Y01333*
X-00462Y01334*
G37*
G36*
X-00308Y01333D02*
X-00313Y01332D01*
X-00318Y01329*
X-00321Y01324*
X-00322Y01319*
X-00321Y01313*
X-00318Y01309*
X-00313Y01306*
X-00308Y01305*
X-00302Y01306*
X-00298Y01309*
X-00295Y01313*
X-00294Y01319*
X-00295Y01324*
X-00298Y01329*
X-00302Y01332*
X-00308Y01333*
G37*
G36*
X00417Y01482D02*
X00322D01*
X00319Y01481*
X00317Y0148*
X00272Y01435*
X0027Y01433*
X0027Y0143*
Y01416*
X0027Y01415*
X0027Y01415*
X0027Y01414*
X0027Y01414*
X00269Y01413*
X00269Y01413*
X00269Y01412*
X00269Y01412*
X00268Y01411*
X00268Y01411*
X00267Y0141*
X00267Y0141*
X00264Y01405*
X00263Y014*
X00264Y01394*
X00267Y0139*
X00272Y01387*
X00277Y01386*
X00282Y01387*
X00286Y01385*
X00288Y01385*
X00288Y01383*
X00288Y01381*
X00288Y01381*
X00287Y01381*
X00287Y0138*
X00287Y0138*
X00284Y01375*
X00283Y0137*
X00284Y01364*
X00287Y0136*
X00291Y01357*
X00297Y01356*
X00302Y01357*
X00307Y0136*
X0031Y01364*
X00311Y0137*
X0031Y01375*
X00307Y0138*
X00307Y0138*
X00306Y01381*
X00306Y01381*
X00306Y01381*
X00305Y01383*
X00306Y01385*
X00307Y01385*
X00311Y01387*
X00316Y01386*
X00322Y01387*
X00326Y01385*
X00327Y01385*
X00327Y01383*
X00327Y01381*
X00327Y01381*
X00327Y01381*
X00326Y0138*
X00326Y0138*
X00323Y01375*
X00322Y0137*
X00323Y01364*
X00326Y0136*
X00331Y01357*
X00336Y01356*
X00342Y01357*
X00346Y0136*
X00349Y01364*
X0035Y0137*
X00349Y01375*
X00346Y0138*
X00346Y0138*
X00345Y01381*
X00345Y01381*
X00345Y01382*
X00344Y01382*
X00344Y01383*
X00344Y01383*
X00344Y01384*
X00344Y01384*
X00343Y01385*
X00343Y01385*
X00343Y01386*
Y01387*
X00358Y01402*
X00362Y01399*
X00362Y01399*
X00363Y01393*
X00366Y01389*
X00367Y01389*
X00367Y01388*
X00368Y01388*
X00368Y01387*
X00368Y01386*
X00369Y01386*
X00369Y01385*
X00369Y01385*
X00369Y01384*
X00369Y01384*
X00369Y01383*
X00369Y01383*
Y01358*
X0037Y01355*
X00371Y01353*
X00391Y01333*
X00393Y01331*
X00396Y01331*
X00773*
X00914Y0119*
X00917Y01188*
X0092Y01188*
X00982*
X00982Y01188*
X00983Y01188*
X00984Y01188*
X00984Y01187*
X00985Y01187*
X00985Y01187*
X00986Y01187*
X00986Y01186*
X00987Y01186*
X00987Y01186*
X00988Y01185*
X00988Y01185*
X00992Y01182*
X00998Y01181*
X01003Y01182*
X01008Y01185*
X01011Y0119*
X01012Y01195*
X01011Y012*
X01008Y01205*
X01004Y01208*
X01003Y01208*
X01006Y01213*
X01012*
X01012Y01213*
X01013Y01213*
X01014Y01213*
X01014Y01212*
X01014Y01212*
X01015Y01212*
X01015Y01212*
X01016Y01211*
X01017Y01211*
X01017Y01211*
X01018Y0121*
X01018Y0121*
X01022Y01207*
X01028Y01206*
X01033Y01207*
X01038Y0121*
X01041Y01214*
X01042Y0122*
X01041Y01225*
X01038Y0123*
X01033Y01233*
X01028Y01234*
X01022Y01233*
X01018Y0123*
X01018Y0123*
X01017Y01229*
X01017Y01229*
X01016Y01228*
X01016Y01228*
X01015Y01228*
X01015Y01228*
X01014Y01227*
X01014Y01227*
X01013Y01227*
X01012Y01227*
X01012Y01227*
X00941*
X00805Y01363*
X00803Y01364*
X008Y01365*
X00413*
X0041Y01369*
X00409Y01374*
X00406Y01379*
X00402Y01382*
X00396Y01383*
X00391Y01382*
X00387Y01383*
X00386Y01384*
X00385Y01386*
X00385Y01387*
X00385Y01388*
X00386Y01388*
X00387Y01389*
X00387Y01389*
X0039Y01393*
X0039Y01398*
X00394Y01399*
X00396Y014*
X00423Y01372*
X00425Y01371*
X00428Y0137*
X00817*
X00922Y01266*
X00922Y01266*
X00922Y01265*
X00922Y01265*
X00923Y01264*
X00923Y01264*
X00923Y01263*
X00923Y01263*
X00923Y01262*
X00924Y01261*
X00924Y01261*
X00924Y0126*
X00924Y01259*
X00925Y01254*
X00928Y0125*
X00932Y01247*
X00938Y01246*
X00943Y01247*
X00948Y0125*
X00951Y01254*
X00952Y0126*
X00951Y01265*
X00948Y0127*
X00943Y01273*
X00938Y01274*
X00938Y01274*
X00938Y01274*
X00937Y01274*
X00936Y01274*
X00935Y01274*
X00935Y01274*
X00934Y01274*
X00934Y01275*
X00933Y01275*
X00933Y01275*
X00932Y01275*
X00932Y01276*
X00932Y01276*
X00902Y01306*
X00902Y01307*
X00908Y01311*
X00908Y01311*
X00913Y01312*
X00918Y01315*
X00921Y01319*
X00922Y01325*
X00921Y0133*
X00918Y01335*
X00913Y01338*
X00908Y01339*
X00908*
X00908Y01339*
X00907*
X00906Y01339*
X00905Y01339*
X00905Y01339*
X00904Y01339*
X00904Y0134*
X00903Y0134*
X00903Y0134*
X00903Y0134*
X00902Y01341*
X00902Y01341*
X00885Y01358*
Y01369*
X00884Y01372*
X00883Y01374*
X00852Y01405*
X00852Y01406*
X00854Y0141*
X00873*
X00906Y01377*
Y01361*
X00906Y01358*
X00908Y01356*
X0097Y01294*
X00972Y01292*
X00975Y01292*
X01134*
X01134Y01291*
X01135Y01291*
X01135Y01291*
X01136Y01291*
X01136Y01291*
X01137Y01291*
X01137Y01291*
X01138Y0129*
X01138Y0129*
X01139Y01289*
X0114Y01289*
X0114Y01289*
X01144Y01286*
X0115Y01285*
X01155Y01286*
X0116Y01289*
X01163Y01293*
X01164Y01299*
X01163Y01304*
X0116Y01309*
X01155Y01312*
X0115Y01313*
X01144Y01312*
X0114Y01309*
X0114Y01309*
X01139Y01308*
X01138Y01308*
X01138Y01307*
X01137Y01307*
X01137Y01307*
X01136Y01306*
X01136Y01306*
X01135Y01306*
X01135Y01306*
X01134Y01306*
X01134Y01306*
X01118*
X01117Y01306*
X01119Y01312*
X0112Y01312*
X01124Y01315*
X01127Y01319*
X01128Y01325*
X01127Y0133*
X01124Y01335*
X0112Y01338*
X01114Y01339*
X01109Y01338*
X01104Y01335*
X01104Y01335*
X01104Y01334*
X01103Y01334*
X01102Y01333*
X01102Y01333*
X01101Y01333*
X01101Y01333*
X011Y01332*
X011Y01332*
X01099Y01332*
X01099Y01332*
X01098Y01332*
X0099*
X00946Y01376*
Y01402*
X00945Y01405*
X00944Y01407*
X00911Y0144*
X00909Y01441*
X00906Y01442*
X0046*
X00422Y0148*
X0042Y01481*
X00417Y01482*
G37*
G36*
X-00984Y01223D02*
X-00989Y01222D01*
X-00994Y01219*
X-00997Y01214*
X-00998Y01209*
X-00997Y01204*
X-00994Y01199*
X-00989Y01196*
X-00984Y01195*
X-00978Y01196*
X-00974Y01199*
X-00971Y01204*
X-0097Y01209*
X-00971Y01214*
X-00974Y01219*
X-00978Y01222*
X-00984Y01223*
G37*
G36*
X-00462Y00998D02*
X-00467Y00997D01*
X-00472Y00994*
X-00475Y00989*
X-00476Y00984*
X-00475Y00978*
X-00472Y00974*
X-00467Y00971*
X-00462Y0097*
X-00456Y00971*
X-00452Y00974*
X-00449Y00978*
X-00448Y00984*
X-00449Y00989*
X-00452Y00994*
X-00456Y00997*
X-00462Y00998*
G37*
G36*
X-00647Y00997D02*
X-00652Y00996D01*
X-00657Y00993*
X-0066Y00988*
X-00661Y00983*
X-0066Y00977*
X-00657Y00973*
X-00652Y0097*
X-00647Y00969*
X-00641Y0097*
X-00637Y00973*
X-00634Y00977*
X-00633Y00983*
X-00634Y00988*
X-00637Y00993*
X-00641Y00996*
X-00647Y00997*
G37*
G36*
X-00342Y0084D02*
X-00347Y00839D01*
X-00352Y00836*
X-00355Y00832*
X-00356Y00826*
X-00355Y00821*
X-00352Y00816*
X-00347Y00813*
X-00342Y00812*
X-00336Y00813*
X-00332Y00816*
X-00329Y00821*
X-00328Y00826*
X-00329Y00832*
X-00332Y00836*
X-00336Y00839*
X-00342Y0084*
G37*
G36*
X0148Y00787D02*
X01462Y00786D01*
X01444Y0078*
X01428Y00772*
X01414Y0076*
X01402Y00746*
X01394Y0073*
X01389Y00713*
X01387Y00694*
X01389Y00676*
X01394Y00659*
X01402Y00643*
X01414Y00629*
X01428Y00617*
X01444Y00608*
X01462Y00603*
X0148Y00601*
X01498Y00603*
X01515Y00608*
X01532Y00617*
X01546Y00629*
X01557Y00643*
X01566Y00659*
X01571Y00676*
X01573Y00694*
X01571Y00713*
X01566Y0073*
X01557Y00746*
X01546Y0076*
X01532Y00772*
X01515Y0078*
X01498Y00786*
X0148Y00787*
G37*
G36*
X-01194D02*
X-01213Y00786D01*
X-0123Y0078*
X-01246Y00772*
X-0126Y0076*
X-01272Y00746*
X-0128Y0073*
X-01286Y00713*
X-01287Y00694*
X-01286Y00676*
X-0128Y00659*
X-01272Y00643*
X-0126Y00629*
X-01246Y00617*
X-0123Y00608*
X-01213Y00603*
X-01194Y00601*
X-01176Y00603*
X-01159Y00608*
X-01143Y00617*
X-01129Y00629*
X-01117Y00643*
X-01108Y00659*
X-01103Y00676*
X-01101Y00694*
X-01103Y00713*
X-01108Y0073*
X-01117Y00746*
X-01129Y0076*
X-01143Y00772*
X-01159Y0078*
X-01176Y00786*
X-01194Y00787*
G37*
G36*
X-00038Y01326D02*
X-00048Y01324D01*
X-00056Y01318*
X-00062Y0131*
X-00064Y013*
X-00063Y01295*
X-00063Y00576*
X-00063Y00576*
X-00064*
X-00062Y00566*
X-00056Y00558*
X-00048Y00552*
X-00038Y00551*
X-00038Y00551*
X0074Y00551*
X00745Y00551*
X00755Y00552*
X00763Y00558*
X00769Y00566*
X00771Y00576*
X0077Y00581*
X0077Y013*
X0077Y013*
X00771*
X00769Y0131*
X00763Y01318*
X00755Y01324*
X00745Y01326*
X0074Y01326*
X-00038Y01326*
Y01326*
G37*
G36*
X-00539Y00575D02*
X-00544Y00574D01*
X-00549Y00571*
X-00552Y00566*
X-00553Y00561*
X-00552Y00556*
X-00549Y00551*
X-00544Y00548*
X-00539Y00547*
X-00533Y00548*
X-00529Y00551*
X-00526Y00556*
X-00524Y00561*
X-00526Y00566*
X-00529Y00571*
X-00533Y00574*
X-00539Y00575*
G37*
G36*
X-00756Y00958D02*
X-00762Y00957D01*
X-00766Y00954*
X-00769Y0095*
X-0077Y00944*
X-00769Y00939*
X-00766Y00934*
X-00762Y00931*
X-00756Y0093*
X-00751Y00931*
X-00747Y00934*
X-00746Y00934*
X-00746Y00935*
X-00745Y00935*
X-00745Y00936*
X-00744Y00936*
X-00743Y00936*
X-00743Y00937*
X-00743Y00937*
X-00742Y00937*
X-00742Y00937*
X-00741Y00937*
X-0074Y00937*
X-00407*
X-00315Y00845*
Y00673*
X-00314Y00671*
X-00313Y00668*
X-00164Y0052*
X-00162Y00518*
X-00159Y00518*
X0032*
X00321Y00518*
X00321Y00518*
X00322Y00517*
X00322Y00517*
X00323Y00517*
X00323Y00517*
X00324Y00517*
X00324Y00516*
X00325Y00516*
X00325Y00515*
X00326Y00515*
X00326Y00515*
X00331Y00512*
X00336Y00511*
X00342Y00512*
X00346Y00515*
X00349Y00519*
X0035Y00525*
X00349Y0053*
X00346Y00535*
X00342Y00538*
X00336Y00539*
X00331Y00538*
X00326Y00535*
X00326Y00535*
X00325Y00534*
X00325Y00534*
X00324Y00533*
X00324Y00533*
X00323Y00533*
X00323Y00533*
X00322Y00532*
X00322Y00532*
X00321Y00532*
X00321Y00532*
X0032Y00532*
X-00156*
X-00301Y00676*
Y00848*
X-00301Y00851*
X-00303Y00853*
X-00399Y00949*
X-00401Y00951*
X-00404Y00951*
X-0074*
X-00741Y00952*
X-00742Y00952*
X-00742Y00952*
X-00742Y00952*
X-00743Y00952*
X-00743Y00952*
X-00744Y00953*
X-00744Y00953*
X-00745Y00953*
X-00746Y00954*
X-00746Y00954*
X-00746Y00954*
X-00751Y00957*
X-00756Y00958*
G37*
G36*
X-0016Y00503D02*
X-00165Y00502D01*
X-00169Y00499*
X-00173Y00495*
X-00174Y00489*
X-00173Y00484*
X-00169Y00479*
X-00165Y00476*
X-0016Y00475*
X-00154Y00476*
X-0015Y00479*
X-00146Y00484*
X-00145Y00489*
X-00146Y00495*
X-0015Y00499*
X-00154Y00502*
X-0016Y00503*
G37*
G36*
X-00381Y00502D02*
X-00387Y00501D01*
X-00391Y00498*
X-00394Y00493*
X-00395Y00488*
X-00394Y00482*
X-00391Y00478*
X-00387Y00475*
X-00381Y00474*
X-00376Y00475*
X-00371Y00478*
X-00368Y00482*
X-00367Y00488*
X-00368Y00493*
X-00371Y00498*
X-00376Y00501*
X-00381Y00502*
G37*
G36*
X-00564Y00469D02*
X-0057Y00468D01*
X-00574Y00465*
X-00577Y00461*
X-00578Y00455*
X-00577Y0045*
X-00574Y00445*
X-0057Y00442*
X-00564Y00441*
X-00559Y00442*
X-00554Y00445*
X-00551Y0045*
X-0055Y00455*
X-00551Y00461*
X-00554Y00465*
X-00559Y00468*
X-00564Y00469*
G37*
G36*
X-00618Y00467D02*
X-00624Y00466D01*
X-00628Y00463*
X-00631Y00458*
X-00632Y00453*
X-00631Y00447*
X-00628Y00443*
X-00624Y0044*
X-00618Y00439*
X-00613Y0044*
X-00608Y00443*
X-00605Y00447*
X-00604Y00453*
X-00605Y00458*
X-00608Y00463*
X-00613Y00466*
X-00618Y00467*
G37*
G36*
X-0059Y00447D02*
X-00595Y00446D01*
X-006Y00443*
X-00603Y00438*
X-00604Y00433*
X-00603Y00427*
X-006Y00423*
X-00595Y0042*
X-0059Y00418*
X-00584Y0042*
X-0058Y00423*
X-00577Y00427*
X-00576Y00433*
X-00577Y00438*
X-0058Y00443*
X-00584Y00446*
X-0059Y00447*
G37*
G36*
X00943Y00419D02*
X00937Y00418D01*
X00933Y00415*
X0093Y0041*
X00929Y00405*
X0093Y00399*
X00933Y00395*
X00937Y00392*
X00943Y00391*
X00948Y00392*
X00953Y00395*
X00956Y00399*
X00957Y00405*
X00956Y0041*
X00953Y00415*
X00948Y00418*
X00943Y00419*
G37*
G36*
X01321Y01671D02*
X01214D01*
Y01636*
Y01635*
Y01631*
Y0163*
Y01597*
Y01596*
Y01592*
Y01591*
Y01558*
Y01556*
Y01553*
Y01551*
Y01518*
Y01517*
Y01513*
Y01512*
Y01479*
Y01478*
Y01473*
Y0144*
Y01438*
Y01435*
Y01433*
Y014*
Y01395*
Y01394*
Y01361*
Y0136*
Y01356*
Y01355*
Y01321*
Y0132*
Y01315*
Y01282*
Y01277*
Y01276*
Y01243*
Y01242*
Y01238*
Y01237*
Y01203*
Y01202*
Y01198*
Y01197*
Y01164*
Y01163*
Y01159*
Y01158*
Y01125*
Y01123*
Y0112*
Y01118*
Y01085*
Y01084*
Y0108*
Y01079*
Y01046*
Y01045*
Y0104*
Y01006*
Y01001*
Y01*
Y00967*
Y00966*
Y00962*
Y00961*
Y00928*
Y00927*
Y00923*
Y00922*
Y00888*
Y00887*
Y00882*
Y00849*
Y00844*
Y00843*
Y0081*
Y00808*
Y00805*
Y00803*
Y0077*
Y00769*
Y00765*
Y00764*
Y00731*
Y0073*
Y00726*
Y00725*
Y00692*
Y0069*
Y00687*
Y00685*
Y00652*
Y00651*
Y00647*
Y00646*
Y00613*
Y00612*
Y00608*
Y00607*
Y00573*
Y00572*
Y00568*
Y00567*
Y00534*
Y00533*
Y00529*
Y00528*
Y00495*
Y00493*
Y00488*
Y00455*
Y0045*
Y00449*
Y00416*
Y00415*
Y00411*
Y0041*
Y00377*
Y00375*
Y0037*
Y00337*
Y00332*
Y00331*
Y00298*
Y00297*
Y00293*
Y00292*
Y00258*
Y00257*
Y00253*
Y00252*
Y00219*
Y00218*
Y00214*
Y00213*
Y0018*
Y00179*
Y00175*
Y00174*
Y0014*
Y00139*
Y00135*
Y00134*
Y00101*
Y001*
Y00095*
Y00062*
Y00057*
Y00055*
Y00022*
Y00021*
Y00017*
Y00016*
Y-00016*
Y-00017*
Y-00021*
Y-00022*
Y-00056*
Y-00057*
Y-00062*
Y-00095*
Y-001*
Y-00101*
Y-00134*
Y-00135*
Y-00139*
Y-0014*
Y-00175*
X01321*
Y-0014*
Y-00139*
Y-00135*
Y-00134*
Y-00101*
Y-00096*
Y-00095*
Y-00062*
Y-00061*
Y-00056*
Y-00022*
Y-00021*
Y-00017*
Y-00016*
Y00016*
Y00017*
Y00021*
Y00022*
Y00055*
Y0006*
Y00062*
Y00095*
Y00096*
Y00101*
Y00134*
Y00135*
Y00139*
Y0014*
Y00174*
Y00175*
Y00179*
Y0018*
Y00213*
Y00214*
Y00218*
Y00219*
Y00252*
Y00253*
Y00257*
Y00258*
Y00292*
Y00293*
Y00297*
Y00298*
Y00331*
Y00336*
Y00337*
Y0037*
Y00372*
Y00377*
Y0041*
Y00411*
Y00415*
Y00416*
Y00449*
Y00454*
Y00455*
Y00488*
Y0049*
Y00495*
Y00528*
Y00529*
Y00533*
Y00534*
Y00567*
Y00568*
Y00572*
Y00573*
Y00607*
Y00608*
Y00612*
Y00613*
Y00646*
Y00647*
Y00651*
Y00652*
Y00685*
Y00687*
Y0069*
Y00692*
Y00725*
Y00726*
Y0073*
Y00731*
Y00764*
Y00765*
Y00769*
Y0077*
Y00803*
Y00805*
Y00808*
Y0081*
Y00843*
Y00848*
Y00849*
Y00882*
Y00883*
Y00888*
Y00922*
Y00923*
Y00927*
Y00928*
Y00961*
Y00962*
Y00966*
Y00967*
Y01*
Y01005*
Y01006*
Y0104*
Y01041*
Y01046*
Y01079*
Y0108*
Y01084*
Y01085*
Y01118*
Y0112*
Y01123*
Y01125*
Y01158*
Y01159*
Y01163*
Y01164*
Y01197*
Y01198*
Y01202*
Y01203*
Y01237*
Y01238*
Y01242*
Y01243*
Y01276*
Y01281*
Y01282*
Y01315*
Y01316*
Y01321*
Y01355*
Y01356*
Y0136*
Y01361*
Y01394*
Y01399*
Y014*
Y01433*
Y01435*
Y01438*
Y0144*
Y01473*
Y01474*
Y01479*
Y01512*
Y01513*
Y01517*
Y01518*
Y01551*
Y01553*
Y01556*
Y01558*
Y01591*
Y01592*
Y01596*
Y01597*
Y0163*
Y01631*
Y01635*
Y01636*
Y01671*
G37*
G36*
X00218Y-00265D02*
X00213Y-00266D01*
X00208Y-00269*
X00205Y-00274*
X00204Y-00279*
X00205Y-00285*
X00208Y-00289*
X00213Y-00292*
X00218Y-00293*
X00223Y-00292*
X00228Y-00289*
X00231Y-00285*
X00232Y-00279*
X00231Y-00274*
X00228Y-00269*
X00223Y-00266*
X00218Y-00265*
G37*
G36*
X00198Y-00294D02*
X00193Y-00295D01*
X00188Y-00298*
X00185Y-00303*
X00184Y-00308*
X00185Y-00314*
X00188Y-00318*
X00193Y-00321*
X00198Y-00322*
X00204Y-00321*
X00208Y-00318*
X00211Y-00314*
X00212Y-00308*
X00211Y-00303*
X00208Y-00298*
X00204Y-00295*
X00198Y-00294*
G37*
%LNmod_duo_x_g3399-3*%
%LPD*%
G36*
X00137Y01856D02*
X00136Y01855D01*
X00136Y01855*
X00136Y01855*
X00136Y01854*
X00136Y01854*
X00136Y01852*
X00136Y0185*
X00136Y01849*
X00124Y01849*
X00124Y0185*
X00124Y01854*
X00123Y01854*
X00123Y01855*
X00123Y01855*
X00123Y01856*
X00123Y01856*
X00137Y01856*
G37*
G36*
X0067Y01845D02*
X0067Y01845D01*
X0067Y01845*
X00669Y01845*
X00669Y01845*
X00669Y01845*
X00668Y01845*
X00668Y01844*
X00667Y01844*
X00666Y01843*
X00663Y01846*
X00663Y01847*
X00664Y01847*
X00664Y01847*
X00664Y01848*
X00664Y01848*
X00664Y01849*
X00664Y01849*
X00664Y01849*
X00664Y0185*
X00664Y0185*
X0067Y01845*
G37*
G36*
X00656Y01849D02*
X00656Y01849D01*
X00656Y01848*
X00656Y01848*
X00656Y01848*
X00656Y01847*
X00656Y01847*
X00657Y01847*
X00657Y01846*
X00658Y01846*
X00654Y01842*
X00654Y01843*
X00653Y01844*
X00652Y01844*
X00652Y01844*
X00651Y01845*
X00651Y01845*
X00651Y01845*
X0065Y01845*
X0065Y01845*
X00656Y01849*
X00656Y01849*
G37*
G36*
X00136Y01826D02*
X00136Y01824D01*
X00136Y01822*
X00137Y01821*
X00137Y01819*
X00138Y01818*
X00139Y01817*
X00139Y01817*
X0014Y01816*
X00142Y01816*
X00118*
X00119Y01816*
X0012Y01817*
X00121Y01817*
X00122Y01818*
X00122Y01819*
X00123Y01821*
X00123Y01822*
X00124Y01824*
X00124Y01826*
X00124Y01828*
X00136*
X00136Y01826*
G37*
G36*
X00974Y01819D02*
X00973Y01817D01*
X00971Y01809*
X0097Y01807*
X0097Y01806*
X0097Y01805*
X0097Y01804*
X0097Y01803*
X00966Y01816*
X00966Y01816*
X00966Y01815*
X00966Y01815*
X00967Y01815*
X00967Y01816*
X00968Y01816*
X00968Y01817*
X00968Y01818*
X00969Y01819*
X0097Y0182*
X00974Y01819*
G37*
G36*
X00659Y01815D02*
X00655Y01812D01*
X00653Y01816*
X00653Y01816*
X00653Y01816*
X00654Y01818*
X00655Y01818*
X00659Y01815*
G37*
G36*
X00669Y01816D02*
X00667Y01812D01*
X00667Y01812*
X00667Y01812*
X00664Y01815*
X00667Y01818*
X00669Y01816*
G37*
G36*
X00983Y01819D02*
X00984Y01817D01*
X00985Y01816*
X00985Y01816*
X00986Y01815*
X00986Y01815*
X00986Y01815*
X00986Y01816*
X00987Y01816*
X00982Y01803*
X00982Y01804*
X00982Y01805*
X00982Y01806*
X00982Y01807*
X00982Y01809*
X00981Y01812*
X00979Y01817*
X00978Y01819*
X00983Y0182*
X00983Y01819*
G37*
G36*
X00293Y01718D02*
X00292Y01718D01*
X00292Y01718*
X00291Y01717*
X00291Y01717*
X00291Y01716*
X0029Y01715*
X0029Y01714*
X0029Y01713*
X0029Y01712*
X00284*
X00284Y01713*
X00284Y01714*
X00284Y01715*
X00284Y01716*
X00283Y01717*
X00283Y01717*
X00283Y01718*
X00282Y01718*
X00282Y01718*
X00281Y01718*
X00293*
X00293Y01718*
G37*
G36*
X00253D02*
X00253Y01718D01*
X00252Y01718*
X00252Y01717*
X00252Y01717*
X00251Y01716*
X00251Y01715*
X00251Y01714*
X00251Y01713*
X00251Y01712*
X00245*
X00245Y01713*
X00245Y01714*
X00245Y01715*
X00244Y01716*
X00244Y01717*
X00244Y01717*
X00243Y01718*
X00243Y01718*
X00242Y01718*
X00242Y01718*
X00254*
X00253Y01718*
G37*
G36*
X00056D02*
X00056Y01718D01*
X00055Y01718*
X00055Y01717*
X00055Y01717*
X00054Y01716*
X00054Y01715*
X00054Y01714*
X00054Y01713*
X00054Y01712*
X00048*
X00048Y01713*
X00048Y01714*
X00048Y01715*
X00047Y01716*
X00047Y01717*
X00047Y01717*
X00046Y01718*
X00046Y01718*
X00046Y01718*
X00045Y01718*
X00057*
X00056Y01718*
G37*
G36*
X00074Y01689D02*
X00073Y01688D01*
X00072Y01687*
X00072Y01686*
X00072Y01686*
X00071Y01685*
X00071Y01684*
X00071Y01683*
X00071Y01682*
X00071Y01681*
X00071Y0168*
X00061Y0169*
X00062Y0169*
X00063Y0169*
X00064Y0169*
X00065Y0169*
X00066Y0169*
X00066Y01691*
X00067Y01691*
X00068Y01692*
X00069Y01692*
X00069Y01693*
X00074Y01689*
G37*
G36*
X00162Y01671D02*
X00162Y0167D01*
X00162Y0167*
X00162Y01669*
X00163Y01668*
X00163Y01668*
X00163Y01667*
X00164Y01667*
X00164Y01666*
X00164Y01666*
X00153*
X00154Y01666*
X00154Y01667*
X00155Y01667*
X00155Y01668*
X00155Y01668*
X00156Y01669*
X00156Y0167*
X00156Y0167*
X00156Y01671*
X00156Y01672*
X00162*
X00162Y01671*
G37*
G36*
X-00324Y01584D02*
X-00323Y01583D01*
X-00322Y01583*
X-00321Y01582*
X-0032Y01582*
X-00319Y01581*
X-00319Y01581*
X-00318Y01581*
X-00317Y01581*
X-00316Y01581*
Y01575*
X-00317Y01575*
X-00318Y01575*
X-00319Y01575*
X-00319Y01574*
X-0032Y01574*
X-00321Y01573*
X-00322Y01573*
X-00323Y01572*
X-00324Y01572*
X-00324Y01571*
X-00324Y01585*
X-00324Y01584*
G37*
G36*
X-0048Y01647D02*
X-00479Y01647D01*
X-00478Y01646*
X-00477Y01646*
X-00476Y01645*
X-00476Y01645*
X-00475Y01645*
X-00474Y01644*
X-00473Y01644*
X-00472Y01644*
X-00472Y01638*
X-00473Y01638*
X-00474Y01638*
X-00475Y01638*
X-00476Y01638*
X-00476Y01637*
X-00477Y01637*
X-00478Y01636*
X-00479Y01636*
X-0048Y01635*
X-0048Y01634*
X-0048Y01648*
X-0048Y01647*
G37*
G36*
X0048Y0164D02*
X00479Y01639D01*
X00479Y01638*
X00478Y01638*
X00478Y01637*
X00478Y01636*
X00477Y01635*
X00477Y01634*
X00477Y01633*
X00477Y01633*
X00471*
X00471Y01633*
X00471Y01634*
X00471Y01635*
X0047Y01636*
X0047Y01637*
X00469Y01638*
X00469Y01638*
X00468Y01639*
X00468Y0164*
X00467Y01641*
X00481*
X0048Y0164*
G37*
G36*
X00126D02*
X00125Y01639D01*
X00124Y01638*
X00124Y01638*
X00124Y01637*
X00123Y01636*
X00123Y01635*
X00123Y01634*
X00123Y01633*
X00123Y01633*
X00117*
X00117Y01633*
X00116Y01634*
X00116Y01635*
X00116Y01636*
X00116Y01637*
X00115Y01638*
X00115Y01638*
X00114Y01639*
X00113Y0164*
X00113Y01641*
X00126*
X00126Y0164*
G37*
G36*
X005Y01624D02*
X00499Y01623D01*
X00498Y01623*
X00498Y01622*
X00498Y01621*
X00497Y0162*
X00497Y01619*
X00497Y01618*
X00497Y01618*
X00497Y01617*
X00491*
X00491Y01618*
X0049Y01618*
X0049Y01619*
X0049Y0162*
X0049Y01621*
X00489Y01622*
X00489Y01623*
X00488Y01623*
X00487Y01624*
X00487Y01625*
X005*
X005Y01624*
G37*
G36*
X0046D02*
X0046Y01623D01*
X00459Y01623*
X00459Y01622*
X00458Y01621*
X00458Y0162*
X00458Y01619*
X00457Y01618*
X00457Y01618*
X00457Y01617*
X00451*
X00451Y01618*
X00451Y01618*
X00451Y01619*
X00451Y0162*
X0045Y01621*
X0045Y01622*
X00449Y01623*
X00449Y01623*
X00448Y01624*
X00447Y01625*
X00461*
X0046Y01624*
G37*
G36*
X00106D02*
X00105Y01623D01*
X00105Y01623*
X00104Y01622*
X00104Y01621*
X00104Y0162*
X00103Y01619*
X00103Y01618*
X00103Y01618*
X00103Y01617*
X00097*
X00097Y01618*
X00097Y01618*
X00097Y01619*
X00096Y0162*
X00096Y01621*
X00095Y01622*
X00095Y01623*
X00094Y01623*
X00094Y01624*
X00093Y01625*
X00107*
X00106Y01624*
G37*
G36*
X-00505Y01627D02*
X-00504Y01627D01*
X-00504Y01626*
X-00503Y01626*
X-00502Y01625*
X-00501Y01625*
X-005Y01625*
X-00499Y01624*
X-00499Y01624*
X-00498Y01624*
X-00498Y01618*
X-00499Y01618*
X-00499Y01618*
X-005Y01618*
X-00501Y01618*
X-00502Y01617*
X-00503Y01617*
X-00504Y01616*
X-00504Y01616*
X-00505Y01615*
X-00506Y01614*
X-00506Y01628*
X-00505Y01627*
G37*
G36*
X-00728Y0158D02*
X-00727Y0158D01*
X-00726Y01579*
X-00725Y01579*
X-00724Y01578*
X-00724Y01578*
X-00723Y01578*
X-00722Y01577*
X-00721Y01577*
X-0072Y01577*
X-0072Y01571*
X-00721Y01571*
X-00722Y01571*
X-00723Y01571*
X-00724Y01571*
X-00724Y0157*
X-00725Y0157*
X-00726Y01569*
X-00727Y01569*
X-00728Y01568*
X-00728Y01567*
X-00728Y01581*
X-00728Y0158*
G37*
G36*
X-00187Y01516D02*
X-00186Y01515D01*
X-00185Y01515*
X-00184Y01514*
X-00184Y01514*
X-00183Y01513*
X-00182Y01513*
X-00181Y01513*
X-0018Y01513*
X-00179Y01513*
Y01507*
X-0018Y01507*
X-00181Y01507*
X-00182Y01507*
X-00183Y01506*
X-00184Y01506*
X-00184Y01505*
X-00185Y01505*
X-00186Y01504*
X-00187Y01504*
X-00187Y01503*
Y01517*
X-00187Y01516*
G37*
G36*
X-0084Y01501D02*
X-0084Y015D01*
X-00839Y015*
X-00839Y015*
X-00838Y01499*
X-00838Y01499*
X-00837Y01499*
X-00836Y01499*
X-00835Y01499*
X-00834Y01499*
Y01493*
X-00835Y01492*
X-00836Y01492*
X-00837Y01492*
X-00838Y01492*
X-00838Y01492*
X-00839Y01491*
X-00839Y01491*
X-0084Y01491*
X-0084Y0149*
X-0084Y0149*
Y01502*
X-0084Y01501*
G37*
G36*
X-00213Y01476D02*
X-00212Y01475D01*
X-00211Y01475*
X-0021Y01474*
X-0021Y01474*
X-00209Y01473*
X-00208Y01473*
X-00207Y01473*
X-00206Y01473*
X-00205Y01473*
X-00205Y01467*
X-00206Y01467*
X-00207Y01467*
X-00208Y01467*
X-00209Y01466*
X-0021Y01466*
X-0021Y01465*
X-00211Y01465*
X-00212Y01464*
X-00213Y01464*
X-00214Y01463*
X-00214Y01477*
X-00213Y01476*
G37*
G36*
X-0084Y01462D02*
X-0084Y01461D01*
X-00839Y01461*
X-00839Y0146*
X-00838Y0146*
X-00838Y0146*
X-00837Y01459*
X-00836Y01459*
X-00835Y01459*
X-00834Y01459*
Y01453*
X-00835Y01453*
X-00836Y01453*
X-00837Y01453*
X-00838Y01453*
X-00838Y01452*
X-00839Y01452*
X-00839Y01452*
X-0084Y01451*
X-0084Y01451*
X-0084Y0145*
Y01462*
X-0084Y01462*
G37*
G36*
X-00269Y01456D02*
X-00268Y01455D01*
X-00267Y01455*
X-00266Y01454*
X-00265Y01454*
X-00264Y01453*
X-00264Y01453*
X-00263Y01453*
X-00262Y01453*
X-00261Y01453*
Y01447*
X-00262Y01447*
X-00263Y01447*
X-00264Y01447*
X-00264Y01446*
X-00265Y01446*
X-00266Y01445*
X-00267Y01445*
X-00268Y01444*
X-00269Y01444*
X-00269Y01443*
X-00269Y01457*
X-00269Y01456*
G37*
G36*
X00064Y01414D02*
X00064Y01413D01*
X00064Y01413*
X00064Y01412*
X00064Y01411*
X00065Y0141*
X00065Y01409*
X00066Y01408*
X00067Y01408*
X00067Y01407*
X00054*
X00054Y01408*
X00055Y01408*
X00056Y01409*
X00056Y0141*
X00057Y01411*
X00057Y01412*
X00057Y01413*
X00057Y01413*
X00057Y01414*
X00058Y01415*
X00064*
X00064Y01414*
G37*
G36*
X00004D02*
X00005Y01413D01*
X00005Y01413*
X00005Y01412*
X00005Y01411*
X00006Y0141*
X00006Y01409*
X00007Y01408*
X00008Y01408*
X00008Y01407*
X-00004*
X-00004Y01408*
X-00003Y01408*
X-00002Y01409*
X-00002Y0141*
X-00002Y01411*
X-00001Y01412*
X-00001Y01413*
X-00001Y01413*
X-00001Y01414*
X-00001Y01415*
X00004*
X00004Y01414*
G37*
G36*
X-00044Y01393D02*
X-00045Y01394D01*
X-00046Y01394*
X-00046Y01395*
X-00047Y01395*
X-00048Y01396*
X-00049Y01396*
X-0005Y01397*
X-0005Y01397*
X-00051Y01397*
X-00052Y01397*
Y01403*
X-00051Y01403*
X-0005Y01403*
X-0005Y01403*
X-00049Y01403*
X-00048Y01404*
X-00047Y01404*
X-00046Y01405*
X-00046Y01405*
X-00045Y01406*
X-00044Y01407*
X-00044Y01393*
G37*
G36*
X00427Y01546D02*
X00425Y01544D01*
X00421Y0154*
X0042Y01534*
X00421Y01529*
X00423Y01527*
X0042Y01522*
X00296*
X00294Y01521*
X00291Y0152*
X00253Y01482*
X00105*
X00102Y01481*
X001Y0148*
X00055Y01435*
X00054Y01433*
X00053Y0143*
Y01416*
X00053Y01415*
X00053Y01415*
X00053Y01414*
X00053Y01414*
X00053Y01413*
X00053Y01413*
X00052Y01412*
X00052Y01412*
X00052Y01411*
X00051Y01411*
X0005Y0141*
X0005Y0141*
X00047Y01405*
X00046Y014*
X00047Y01394*
X00051Y0139*
X00055Y01387*
X00061Y01386*
X00066Y01387*
X0007Y01385*
X00071Y01385*
X00071Y01383*
X00071Y01381*
X00071Y01381*
X00071Y01381*
X0007Y0138*
X0007Y0138*
X00067Y01375*
X00066Y0137*
X00067Y01364*
X00069Y01362*
X00066Y01357*
X-00003*
X-00006Y01362*
X-00004Y01364*
X-00003Y0137*
X-00004Y01375*
X-00006Y01378*
X-00006Y01379*
X-00007Y0138*
X-00007Y0138*
X-00008Y01381*
X-00008Y01381*
X-00008Y01383*
X-00007Y01384*
X-00003Y01387*
X00001Y01386*
X00007Y01387*
X00011Y0139*
X00014Y01394*
X00016Y014*
X00014Y01405*
X00012Y0141*
X00011Y0141*
X00011Y01411*
X0001Y01411*
X0001Y01412*
X0001Y01412*
X00009Y01413*
X00009Y01413*
X00009Y01414*
X00009Y01414*
X00009Y01415*
X00009Y01415*
X00009Y01416*
Y01425*
X00008Y01428*
X00006Y0143*
X-00018Y01455*
X-0002Y01456*
X-00023Y01457*
X-00202*
X-00204Y01459*
X-00204Y01462*
X-00204Y01463*
X00051*
X00054Y01463*
X00056Y01465*
X0008Y01489*
X00208*
X00211Y01489*
X00213Y01491*
X00273Y01551*
X00426*
X00427Y01546*
G37*
G36*
X00126Y01392D02*
X00125Y01391D01*
X00124Y0139*
X00124Y0139*
X00124Y01389*
X00123Y01388*
X00123Y01387*
X00123Y01386*
X00123Y01385*
X00123Y01385*
X00117*
X00117Y01385*
X00116Y01386*
X00116Y01387*
X00116Y01388*
X00116Y01389*
X00115Y0139*
X00115Y0139*
X00114Y01391*
X00113Y01392*
X00113Y01393*
X00126*
X00126Y01392*
G37*
G36*
X00083Y01384D02*
X00083Y01383D01*
X00084Y01383*
X00084Y01382*
X00084Y01381*
X00085Y0138*
X00085Y01379*
X00086Y01378*
X00086Y01378*
X00087Y01377*
X00073*
X00074Y01378*
X00075Y01378*
X00075Y01379*
X00076Y0138*
X00076Y01381*
X00077Y01382*
X00077Y01383*
X00077Y01383*
X00077Y01384*
X00077Y01385*
X00083*
X00083Y01384*
G37*
G36*
X-00013Y01385D02*
X-00013Y01384D01*
X-00013Y01383*
X-00013Y01382*
X-00013Y01381*
X-00012Y0138*
X-00012Y0138*
X-00012Y01379*
X-00011Y01378*
X-0001Y01377*
X-0001Y01376*
X-00023Y01378*
X-00023Y01378*
X-00022Y01379*
X-00021Y0138*
X-00021Y0138*
X-0002Y01381*
X-0002Y01382*
X-0002Y01383*
X-00019Y01384*
X-00019Y01384*
X-00019Y01385*
X-00013Y01385*
G37*
G36*
X-0084Y01383D02*
X-0084Y01382D01*
X-00839Y01382*
X-00839Y01381*
X-00838Y01381*
X-00838Y01381*
X-00837Y01381*
X-00836Y01381*
X-00835Y0138*
X-00834Y0138*
Y01374*
X-00835Y01374*
X-00836Y01374*
X-00837Y01374*
X-00838Y01374*
X-00838Y01374*
X-00839Y01373*
X-00839Y01373*
X-0084Y01372*
X-0084Y01372*
X-0084Y01371*
Y01383*
X-0084Y01383*
G37*
G36*
X01051Y01371D02*
X0105Y01371D01*
X01049Y01372*
X01048Y01373*
X01048Y01373*
X01047Y01373*
X01046Y01374*
X01045Y01374*
X01044Y01374*
X01043Y01374*
X01043Y01374*
Y0138*
X01043Y0138*
X01044Y01381*
X01045Y01381*
X01046Y01381*
X01047Y01381*
X01048Y01382*
X01048Y01382*
X01049Y01383*
X0105Y01384*
X01051Y01384*
Y01371*
G37*
G36*
X00152Y01379D02*
X00152Y01378D01*
X00151Y01377*
X00151Y01376*
X0015Y01376*
X0015Y01375*
X0015Y01374*
X00149Y01373*
X00149Y01372*
X00149Y01371*
X00149Y0137*
X00139Y0138*
X0014Y0138*
X00141Y0138*
X00142Y0138*
X00143Y0138*
X00144Y0138*
X00145Y01381*
X00146Y01381*
X00147Y01382*
X00147Y01382*
X00148Y01383*
X00152Y01379*
G37*
G36*
X-00714Y01374D02*
X-00714Y01373D01*
X-00713Y01373*
X-00712Y01372*
X-00711Y01372*
X-0071Y01372*
X-00709Y01371*
X-00709Y01371*
X-00707Y01371*
X-00706Y01371*
X-00716Y01361*
X-00716Y01363*
X-00716Y01364*
X-00716Y01365*
X-00717Y01365*
X-00717Y01366*
X-00717Y01367*
X-00718Y01368*
X-00718Y01369*
X-00719Y01369*
X-00719Y0137*
X-00715Y01374*
X-00714Y01374*
G37*
G36*
X01082Y01346D02*
X01081Y01347D01*
X01081Y01348*
X0108Y01348*
X01079Y01349*
X01078Y01349*
X01077Y01349*
X01076Y0135*
X01076Y0135*
X01075Y0135*
X01074Y0135*
X01074Y01356*
X01075Y01356*
X01076Y01356*
X01077Y01356*
X01077Y01357*
X01078Y01357*
X01079Y01357*
X0108Y01358*
X01081Y01358*
X01081Y01359*
X01082Y0136*
X01082Y01346*
G37*
G36*
X-00531Y01216D02*
X-0053Y01215D01*
X-00529Y01215*
X-00528Y01214*
X-00528Y01214*
X-00527Y01213*
X-00526Y01213*
X-00525Y01213*
X-00524Y01213*
X-00523Y01213*
X-00523Y01207*
X-00524Y01207*
X-00525Y01207*
X-00526Y01207*
X-00527Y01206*
X-00528Y01206*
X-00528Y01205*
X-00529Y01205*
X-0053Y01204*
X-00531Y01204*
X-00532Y01203*
X-00532Y01217*
X-00531Y01216*
G37*
G36*
X-00556Y01196D02*
X-00556Y01195D01*
X-00555Y01195*
X-00554Y01194*
X-00553Y01194*
X-00552Y01193*
X-00552Y01193*
X-00551Y01193*
X-0055Y01193*
X-00549Y01193*
X-00549Y01187*
X-0055Y01187*
X-00551Y01187*
X-00552Y01187*
X-00552Y01186*
X-00553Y01186*
X-00554Y01185*
X-00555Y01185*
X-00556Y01184*
X-00556Y01184*
X-00557Y01183*
X-00557Y01197*
X-00556Y01196*
G37*
G36*
X-0084Y01147D02*
X-0084Y01146D01*
X-00839Y01146*
X-00839Y01145*
X-00838Y01145*
X-00838Y01145*
X-00837Y01144*
X-00836Y01144*
X-00835Y01144*
X-00834Y01144*
Y01138*
X-00835Y01138*
X-00836Y01138*
X-00837Y01138*
X-00838Y01138*
X-00838Y01137*
X-00839Y01137*
X-00839Y01137*
X-0084Y01136*
X-0084Y01136*
X-0084Y01135*
Y01147*
X-0084Y01147*
G37*
G36*
X-00545Y01134D02*
X-00545Y01135D01*
X-00546Y01136*
X-00547Y01136*
X-00548Y01137*
X-00549Y01137*
X-00549Y01138*
X-0055Y01138*
X-00551Y01138*
X-00552Y01138*
X-00553Y01138*
Y01144*
X-00552Y01144*
X-00551Y01144*
X-0055Y01145*
X-00549Y01145*
X-00549Y01145*
X-00548Y01146*
X-00547Y01146*
X-00546Y01147*
X-00545Y01147*
X-00545Y01148*
Y01134*
G37*
G36*
X-0084Y01107D02*
X-0084Y01107D01*
X-00839Y01106*
X-00839Y01106*
X-00838Y01106*
X-00838Y01105*
X-00837Y01105*
X-00836Y01105*
X-00835Y01105*
X-00834Y01105*
Y01099*
X-00835Y01099*
X-00836Y01099*
X-00837Y01099*
X-00838Y01098*
X-00838Y01098*
X-00839Y01098*
X-00839Y01097*
X-0084Y01097*
X-0084Y01096*
X-0084Y01096*
Y01108*
X-0084Y01107*
G37*
G36*
X-00571Y01095D02*
X-00572Y01096D01*
X-00573Y01096*
X-00574Y01097*
X-00574Y01097*
X-00575Y01098*
X-00576Y01098*
X-00577Y01098*
X-00578Y01099*
X-00579Y01099*
X-00579Y01099*
Y01105*
X-00579Y01105*
X-00578Y01105*
X-00577Y01105*
X-00576Y01105*
X-00575Y01106*
X-00574Y01106*
X-00574Y01107*
X-00573Y01107*
X-00572Y01108*
X-00571Y01109*
Y01095*
G37*
G36*
X-0084Y0091D02*
X-0084Y0091D01*
X-00839Y00909*
X-00839Y00909*
X-00838Y00909*
X-00838Y00908*
X-00837Y00908*
X-00836Y00908*
X-00835Y00908*
X-00834Y00908*
Y00902*
X-00835Y00902*
X-00836Y00902*
X-00837Y00902*
X-00838Y00901*
X-00838Y00901*
X-00839Y00901*
X-00839Y00901*
X-0084Y009*
X-0084Y009*
X-0084Y00899*
Y00911*
X-0084Y0091*
G37*
G36*
X-00571Y00898D02*
X-00572Y00899D01*
X-00573Y00899*
X-00574Y009*
X-00574Y00901*
X-00575Y00901*
X-00576Y00901*
X-00577Y00902*
X-00578Y00902*
X-00579Y00902*
X-00579Y00902*
Y00908*
X-00579Y00908*
X-00578Y00908*
X-00577Y00908*
X-00576Y00909*
X-00575Y00909*
X-00574Y00909*
X-00574Y0091*
X-00573Y0091*
X-00572Y00911*
X-00571Y00912*
Y00898*
G37*
G36*
X-0084Y00871D02*
X-0084Y00871D01*
X-00839Y0087*
X-00839Y0087*
X-00838Y00869*
X-00838Y00869*
X-00837Y00869*
X-00836Y00869*
X-00835Y00869*
X-00834Y00869*
Y00863*
X-00835Y00863*
X-00836Y00862*
X-00837Y00862*
X-00838Y00862*
X-00838Y00862*
X-00839Y00862*
X-00839Y00861*
X-0084Y00861*
X-0084Y0086*
X-0084Y0086*
Y00872*
X-0084Y00871*
G37*
G36*
X-00546Y00859D02*
X-00546Y00859D01*
X-00547Y0086*
X-00548Y00861*
X-00549Y00861*
X-0055Y00862*
X-0055Y00862*
X-00551Y00862*
X-00552Y00862*
X-00553Y00863*
X-00554Y00863*
X-00554Y00869*
X-00553Y00869*
X-00552Y00869*
X-00551Y00869*
X-0055Y00869*
X-0055Y0087*
X-00549Y0087*
X-00548Y00871*
X-00547Y00871*
X-00546Y00872*
X-00546Y00873*
X-00546Y00859*
G37*
G36*
X-00938Y00702D02*
X-00938Y00703D01*
X-00938Y00703*
X-00939Y00704*
X-00939Y00704*
X-0094Y00704*
X-0094Y00705*
X-00941Y00705*
X-00942Y00705*
X-00943Y00705*
X-00944Y00705*
Y00711*
X-00943Y00711*
X-00942Y00711*
X-00941Y00711*
X-0094Y00712*
X-0094Y00712*
X-00939Y00712*
X-00939Y00713*
X-00938Y00713*
X-00938Y00714*
X-00938Y00714*
Y00702*
G37*
G36*
X-00952Y00714D02*
X-00952Y00714D01*
X-00951Y00713*
X-0095Y00713*
X-00949Y00712*
X-00948Y00712*
X-00948Y00711*
X-00947Y00711*
X-00946Y00711*
X-00945Y00711*
Y00705*
X-00946Y00705*
X-00947Y00705*
X-00948Y00705*
X-00948Y00705*
X-00949Y00704*
X-0095Y00704*
X-00951Y00703*
X-00952Y00703*
X-00952Y00702*
X-00953Y00701*
X-00953Y00715*
X-00952Y00714*
G37*
G36*
X-00986Y00675D02*
X-00986Y00675D01*
X-00985Y00674*
X-00985Y00673*
X-00984Y00673*
X-00984Y00672*
X-00983Y00672*
X-00982Y00672*
X-00981Y00672*
X-0098Y00672*
X-00981Y00666*
X-00983Y00666*
X-00986Y00665*
X-00987Y00665*
X-00991Y00665*
X-00992Y00664*
X-00993Y00664*
X-00986Y00676*
X-00986Y00675*
G37*
G36*
X-00938Y00663D02*
X-00938Y00663D01*
X-00938Y00664*
X-00939Y00664*
X-00939Y00665*
X-0094Y00665*
X-0094Y00665*
X-00941Y00665*
X-00942Y00666*
X-00943Y00666*
X-00944Y00666*
Y00672*
X-00943Y00672*
X-00942Y00672*
X-00941Y00672*
X-0094Y00672*
X-0094Y00673*
X-00939Y00673*
X-00939Y00673*
X-00938Y00674*
X-00938Y00674*
X-00938Y00675*
Y00663*
G37*
G36*
Y00623D02*
X-00938Y00624D01*
X-00938Y00624*
X-00939Y00625*
X-00939Y00625*
X-0094Y00626*
X-0094Y00626*
X-00941Y00626*
X-00942Y00626*
X-00943Y00626*
X-00944Y00626*
Y00632*
X-00943Y00632*
X-00942Y00633*
X-00941Y00633*
X-0094Y00633*
X-0094Y00633*
X-00939Y00633*
X-00939Y00634*
X-00938Y00634*
X-00938Y00635*
X-00938Y00635*
Y00623*
G37*
G36*
X-00952Y00636D02*
X-00952Y00635D01*
X-00951Y00634*
X-0095Y00634*
X-00949Y00633*
X-00948Y00633*
X-00948Y00633*
X-00947Y00633*
X-00946Y00632*
X-00945Y00632*
Y00626*
X-00946Y00626*
X-00947Y00626*
X-00948Y00626*
X-00948Y00626*
X-00949Y00625*
X-0095Y00625*
X-00951Y00624*
X-00952Y00624*
X-00952Y00623*
X-00953Y00623*
X-00953Y00636*
X-00952Y00636*
G37*
G36*
X-00938Y00584D02*
X-00938Y00585D01*
X-00938Y00585*
X-00939Y00586*
X-00939Y00586*
X-0094Y00586*
X-0094Y00587*
X-00941Y00587*
X-00942Y00587*
X-00943Y00587*
X-00944Y00587*
Y00593*
X-00943Y00593*
X-00942Y00593*
X-00941Y00593*
X-0094Y00593*
X-0094Y00594*
X-00939Y00594*
X-00939Y00594*
X-00938Y00595*
X-00938Y00595*
X-00938Y00596*
Y00584*
G37*
G36*
X-00982Y00596D02*
X-00982Y00596D01*
X-00981Y00595*
X-0098Y00594*
X-00979Y00594*
X-00978Y00594*
X-00977Y00593*
X-00977Y00593*
X-00976Y00593*
X-00975Y00593*
X-00975Y00587*
X-00976Y00587*
X-00977Y00587*
X-00977Y00587*
X-00978Y00586*
X-00979Y00586*
X-0098Y00586*
X-00981Y00585*
X-00982Y00585*
X-00982Y00584*
X-00983Y00583*
X-00983Y00597*
X-00982Y00596*
G37*
G36*
X-00791Y00466D02*
X-00792Y00467D01*
X-00794Y00468*
X-00795Y00468*
X-00797Y00468*
X-00798Y00469*
X-00798Y00469*
X-00799Y00469*
X-008Y00469*
X-00802Y00475*
X-00801Y00475*
X-008Y00475*
X-00799Y00475*
X-00799Y00476*
X-00798Y00476*
X-00797Y00476*
X-00797Y00477*
X-00796Y00478*
X-00796Y00478*
X-00795Y00479*
X-00791Y00466*
G37*
G36*
X-0084Y00477D02*
X-0084Y00477D01*
X-00839Y00476*
X-00839Y00476*
X-00838Y00476*
X-00838Y00475*
X-00837Y00475*
X-00836Y00475*
X-00835Y00475*
X-00834Y00475*
Y00469*
X-00835Y00469*
X-00836Y00469*
X-00837Y00469*
X-00838Y00468*
X-00838Y00468*
X-00839Y00468*
X-00839Y00467*
X-0084Y00467*
X-0084Y00466*
X-0084Y00466*
Y00478*
X-0084Y00477*
G37*
G36*
X00388Y00443D02*
X00387Y00444D01*
X00387Y00444*
X00386Y00445*
X00385Y00445*
X00384Y00446*
X00383Y00446*
X00383Y00447*
X00382Y00447*
X00381Y00447*
X0038Y00447*
Y00453*
X00381Y00453*
X00382Y00453*
X00383Y00453*
X00383Y00453*
X00384Y00454*
X00385Y00454*
X00386Y00455*
X00387Y00455*
X00387Y00456*
X00388Y00457*
Y00443*
G37*
G36*
X00851Y00418D02*
X0085Y00419D01*
X00849Y00419*
X00848Y0042*
X00848Y0042*
X00847Y00421*
X00846Y00421*
X00845Y00422*
X00844Y00422*
X00843Y00422*
X00842Y00422*
Y00428*
X00843Y00428*
X00844Y00428*
X00845Y00428*
X00846Y00428*
X00847Y00429*
X00848Y00429*
X00848Y0043*
X00849Y0043*
X0085Y00431*
X00851Y00432*
X00851Y00418*
G37*
G36*
X-0084Y00399D02*
X-0084Y00398D01*
X-00839Y00398*
X-00839Y00397*
X-00838Y00397*
X-00838Y00397*
X-00837Y00396*
X-00836Y00396*
X-00835Y00396*
X-00834Y00396*
Y0039*
X-00835Y0039*
X-00836Y0039*
X-00837Y0039*
X-00838Y0039*
X-00838Y00389*
X-00839Y00389*
X-00839Y00389*
X-0084Y00388*
X-0084Y00388*
X-0084Y00387*
Y00399*
X-0084Y00399*
G37*
G36*
X00152Y00386D02*
X00151Y00387D01*
X0015Y00388*
X0015Y00388*
X00149Y00389*
X00148Y00389*
X00147Y0039*
X00146Y0039*
X00145Y0039*
X00145Y0039*
X00144Y0039*
Y00396*
X00145Y00396*
X00145Y00396*
X00146Y00397*
X00147Y00397*
X00148Y00397*
X00149Y00398*
X0015Y00398*
X0015Y00399*
X00151Y00399*
X00152Y004*
X00152Y00386*
G37*
G36*
X0029Y00358D02*
X00289Y00359D01*
X00288Y00359*
X00287Y0036*
X00287Y0036*
X00286Y00361*
X00285Y00361*
X00284Y00362*
X00283Y00362*
X00282Y00362*
X00281Y00362*
Y00368*
X00282Y00368*
X00283Y00368*
X00284Y00368*
X00285Y00368*
X00286Y00369*
X00287Y00369*
X00287Y0037*
X00288Y0037*
X00289Y00371*
X0029Y00372*
Y00358*
G37*
G36*
X-0084Y00359D02*
X-0084Y00359D01*
X-00839Y00358*
X-00839Y00358*
X-00838Y00358*
X-00838Y00357*
X-00837Y00357*
X-00836Y00357*
X-00835Y00357*
X-00834Y00357*
Y00351*
X-00835Y00351*
X-00836Y00351*
X-00837Y00351*
X-00838Y0035*
X-00838Y0035*
X-00839Y0035*
X-00839Y00349*
X-0084Y00349*
X-0084Y00348*
X-0084Y00348*
Y0036*
X-0084Y00359*
G37*
G36*
X-00763Y00347D02*
X-00764Y00348D01*
X-00765Y00348*
X-00766Y00349*
X-00766Y00349*
X-00767Y0035*
X-00768Y0035*
X-00769Y0035*
X-0077Y00351*
X-00771Y00351*
X-00772Y00351*
Y00357*
X-00771Y00357*
X-0077Y00357*
X-00769Y00357*
X-00768Y00357*
X-00767Y00358*
X-00766Y00358*
X-00766Y00359*
X-00765Y00359*
X-00764Y0036*
X-00763Y00361*
X-00763Y00347*
G37*
G36*
X00191Y00328D02*
X00191Y00329D01*
X0019Y00329*
X00189Y0033*
X00188Y0033*
X00187Y00331*
X00186Y00331*
X00186Y00332*
X00185Y00332*
X00184Y00332*
X00183Y00332*
Y00338*
X00184Y00338*
X00185Y00338*
X00186Y00338*
X00186Y00338*
X00187Y00339*
X00188Y00339*
X00189Y0034*
X0019Y0034*
X00191Y00341*
X00191Y00342*
Y00328*
G37*
G36*
X-0084Y0032D02*
X-0084Y00319D01*
X-00839Y00319*
X-00839Y00319*
X-00838Y00318*
X-00838Y00318*
X-00837Y00318*
X-00836Y00318*
X-00835Y00317*
X-00834Y00317*
Y00311*
X-00835Y00311*
X-00836Y00311*
X-00837Y00311*
X-00838Y00311*
X-00838Y00311*
X-00839Y0031*
X-00839Y0031*
X-0084Y0031*
X-0084Y00309*
X-0084Y00308*
Y0032*
X-0084Y0032*
G37*
G36*
X00238Y00305D02*
X00237Y00305D01*
X00235Y00304*
X00235Y00304*
X00234Y00304*
X00233Y00304*
X00232Y00303*
X00231Y00303*
X0023Y00303*
X0023Y00302*
X00229Y00301*
X00225Y00306*
X00225Y00306*
X00226Y00307*
X00226Y00308*
X00227Y00309*
X00227Y00309*
X00227Y0031*
X00228Y00311*
X00228Y00312*
X00228Y00313*
X00228Y00314*
X00238Y00305*
G37*
G36*
X-0084Y0028D02*
X-0084Y0028D01*
X-00839Y0028*
X-00839Y00279*
X-00838Y00279*
X-00838Y00279*
X-00837Y00278*
X-00836Y00278*
X-00835Y00278*
X-00834Y00278*
Y00272*
X-00835Y00272*
X-00836Y00272*
X-00837Y00272*
X-00838Y00272*
X-00838Y00271*
X-00839Y00271*
X-00839Y00271*
X-0084Y0027*
X-0084Y0027*
X-0084Y00269*
Y00281*
X-0084Y0028*
G37*
G36*
X-00258Y00268D02*
X-00259Y00269D01*
X-0026Y0027*
X-0026Y0027*
X-00261Y00271*
X-00262Y00271*
X-00263Y00271*
X-00264Y00272*
X-00265Y00272*
X-00266Y00272*
X-00266Y00272*
X-00266Y00278*
X-00266Y00278*
X-00265Y00278*
X-00264Y00278*
X-00263Y00279*
X-00262Y00279*
X-00261Y00279*
X-00261Y0028*
X-0026Y00281*
X-00259Y00281*
X-00258Y00282*
X-00258Y00268*
G37*
G36*
X00127Y00274D02*
X00128Y00274D01*
X00129Y00273*
X0013Y00273*
X00131Y00272*
X00131Y00272*
X00132Y00272*
X00133Y00271*
X00134Y00271*
X00135Y00271*
Y00265*
X00134Y00265*
X00133Y00265*
X00132Y00265*
X00131Y00265*
X00131Y00264*
X0013Y00264*
X00129Y00263*
X00128Y00263*
X00127Y00262*
X00127Y00261*
Y00275*
X00127Y00274*
G37*
G36*
X00108Y00247D02*
X00108Y00246D01*
X00109Y00245*
X0011Y00245*
X00111Y00244*
X00112Y00244*
X00113Y00244*
X00113Y00244*
X00114Y00244*
X00115Y00243*
Y00237*
X00114Y00237*
X00113Y00237*
X00113Y00237*
X00112Y00237*
X00111Y00236*
X0011Y00236*
X00109Y00236*
X00108Y00235*
X00108Y00234*
X00107Y00234*
Y00247*
X00108Y00247*
G37*
G36*
X-0084Y00241D02*
X-0084Y00241D01*
X-00839Y0024*
X-00839Y0024*
X-00838Y00239*
X-00838Y00239*
X-00837Y00239*
X-00836Y00239*
X-00835Y00239*
X-00834Y00239*
Y00233*
X-00835Y00233*
X-00836Y00233*
X-00837Y00232*
X-00838Y00232*
X-00838Y00232*
X-00839Y00232*
X-00839Y00231*
X-0084Y00231*
X-0084Y0023*
X-0084Y0023*
Y00242*
X-0084Y00241*
G37*
G36*
X-00742Y00229D02*
X-00743Y0023D01*
X-00744Y0023*
X-00745Y00231*
X-00746Y00231*
X-00746Y00232*
X-00747Y00232*
X-00748Y00232*
X-00749Y00233*
X-0075Y00233*
X-00751Y00233*
X-00751Y00239*
X-0075Y00239*
X-00749Y00239*
X-00748Y00239*
X-00747Y00239*
X-00746Y0024*
X-00746Y0024*
X-00745Y00241*
X-00744Y00241*
X-00743Y00242*
X-00742Y00243*
X-00742Y00229*
G37*
G36*
X-0084Y00202D02*
X-0084Y00201D01*
X-00839Y00201*
X-00839Y002*
X-00838Y002*
X-00838Y002*
X-00837Y002*
X-00836Y00199*
X-00835Y00199*
X-00834Y00199*
Y00193*
X-00835Y00193*
X-00836Y00193*
X-00837Y00193*
X-00838Y00193*
X-00838Y00193*
X-00839Y00192*
X-00839Y00192*
X-0084Y00191*
X-0084Y00191*
X-0084Y0019*
Y00202*
X-0084Y00202*
G37*
G36*
X00049Y00191D02*
X00049Y0019D01*
X0005Y0019*
X00051Y00189*
X00052Y00189*
X00053Y00188*
X00054Y00188*
X00054Y00188*
X00055Y00188*
X00056Y00188*
X00056Y00182*
X00055Y00182*
X00054Y00182*
X00053Y00181*
X00053Y00181*
X00052Y00181*
X00051Y0018*
X0005Y0018*
X00049Y00179*
X00049Y00179*
X00048Y00178*
X00048Y00192*
X00049Y00191*
G37*
G36*
X00556Y00178D02*
X00556Y00179D01*
X00555Y00179*
X00554Y0018*
X00553Y0018*
X00552Y00181*
X00552Y00181*
X00551Y00181*
X0055Y00182*
X00549Y00182*
X00548Y00182*
X00548Y00188*
X00549Y00188*
X0055Y00188*
X00551Y00188*
X00552Y00188*
X00552Y00189*
X00553Y00189*
X00554Y0019*
X00555Y0019*
X00556Y00191*
X00556Y00192*
X00556Y00178*
G37*
G36*
X01003Y00178D02*
X01002Y00177D01*
X01001Y00176*
X01001Y00175*
X01Y00175*
X01Y00174*
X00999Y00173*
X00999Y00172*
X00999Y00171*
X00999Y0017*
X00999Y0017*
X00993Y0017*
X00993Y00171*
X00993Y00171*
X00992Y00172*
X00992Y00173*
X00992Y00174*
X00991Y00175*
X00991Y00176*
X0099Y00176*
X0099Y00177*
X00989Y00178*
X01003Y00178*
G37*
G36*
X00963D02*
X00963Y00177D01*
X00962Y00176*
X00961Y00175*
X00961Y00175*
X0096Y00174*
X0096Y00173*
X0096Y00172*
X0096Y00171*
X0096Y0017*
X00959Y0017*
X00953Y0017*
X00953Y00171*
X00953Y00171*
X00953Y00172*
X00953Y00173*
X00953Y00174*
X00952Y00175*
X00952Y00176*
X00951Y00176*
X0095Y00177*
X0095Y00178*
X00963Y00178*
G37*
G36*
X00924D02*
X00923Y00177D01*
X00923Y00176*
X00922Y00175*
X00922Y00175*
X00921Y00174*
X00921Y00173*
X0092Y00172*
X0092Y00171*
X0092Y0017*
X0092Y0017*
X00914Y0017*
X00914Y00171*
X00914Y00171*
X00914Y00172*
X00913Y00173*
X00913Y00174*
X00913Y00175*
X00912Y00176*
X00912Y00176*
X00911Y00177*
X0091Y00178*
X00924Y00178*
G37*
G36*
X01042Y00178D02*
X01041Y00177D01*
X01041Y00176*
X0104Y00175*
X0104Y00175*
X01039Y00174*
X01039Y00173*
X01039Y00172*
X01038Y00171*
X01038Y0017*
X01038Y00169*
X01032Y0017*
X01032Y0017*
X01032Y00171*
X01032Y00172*
X01032Y00173*
X01031Y00174*
X01031Y00175*
X0103Y00175*
X0103Y00176*
X01029Y00177*
X01028Y00178*
X01042Y00178*
G37*
G36*
X-0084Y00162D02*
X-0084Y00162D01*
X-00839Y00161*
X-00839Y00161*
X-00838Y00161*
X-00838Y0016*
X-00837Y0016*
X-00836Y0016*
X-00835Y0016*
X-00834Y0016*
Y00154*
X-00835Y00154*
X-00836Y00154*
X-00837Y00154*
X-00838Y00153*
X-00838Y00153*
X-00839Y00153*
X-00839Y00152*
X-0084Y00152*
X-0084Y00152*
X-0084Y00151*
Y00163*
X-0084Y00162*
G37*
G36*
X-00081Y00163D02*
X-00081Y00162D01*
X-0008Y00162*
X-00079Y00161*
X-00078Y00161*
X-00077Y00161*
X-00077Y0016*
X-00076Y0016*
X-00075Y0016*
X-00074Y0016*
Y00154*
X-00075Y00154*
X-00076Y00154*
X-00077Y00154*
X-00077Y00153*
X-00078Y00153*
X-00079Y00153*
X-0008Y00152*
X-00081Y00151*
X-00081Y00151*
X-00082Y0015*
Y00164*
X-00081Y00163*
G37*
G36*
X00231Y00127D02*
X0023Y00128D01*
X00229Y00128*
X00228Y00129*
X00228Y0013*
X00227Y0013*
X00226Y0013*
X00225Y00131*
X00224Y00131*
X00223Y00131*
X00222Y00131*
X00222Y00137*
X00223Y00137*
X00224Y00137*
X00225Y00137*
X00226Y00138*
X00227Y00138*
X00227Y00138*
X00228Y00139*
X00229Y00139*
X0023Y0014*
X00231Y00141*
X00231Y00127*
G37*
G36*
X00186Y0014D02*
X00187Y00139D01*
X00188Y00139*
X00189Y00138*
X0019Y00138*
X0019Y00138*
X00191Y00137*
X00192Y00137*
X00193Y00137*
X00194Y00137*
Y00131*
X00193Y00131*
X00192Y00131*
X00191Y00131*
X0019Y0013*
X0019Y0013*
X00189Y0013*
X00188Y00129*
X00187Y00128*
X00186Y00128*
X00186Y00127*
Y00141*
X00186Y0014*
G37*
G36*
X00555Y00145D02*
X00553Y00144D01*
X0055Y00139*
X00549Y00134*
X0055Y00128*
X00552Y00125*
X00553Y00125*
X00553Y00124*
X00554Y00123*
X00554Y00123*
X00555Y00122*
X00555Y00121*
X00555Y00121*
X00555Y0012*
X00555Y0012*
X00555Y00119*
X00555Y00119*
X00556Y00118*
Y-00141*
X00462Y-00235*
X00386*
X00385Y-0023*
X00385Y-0023*
X00389Y-00225*
X0039Y-0022*
X00389Y-00214*
X00388Y-00214*
X00392Y-0021*
X00395Y-0021*
X00401Y-00209*
X00405Y-00206*
X00408Y-00202*
X00409Y-00196*
X00409Y-00193*
X00411Y-00189*
X00412Y-00188*
X00415Y-00189*
X0042Y-00188*
X00425Y-00185*
X00428Y-0018*
X00429Y-00175*
X00428Y-00169*
X00425Y-00165*
X0042Y-00162*
X00415Y-00161*
X00409Y-00162*
X00405Y-00165*
X00402Y-00169*
X00401Y-00175*
X00401Y-00178*
X00399Y-00182*
X00398Y-00183*
X00395Y-00182*
X0039Y-00183*
X00385Y-00186*
X00382Y-00191*
X00381Y-00196*
X00382Y-00202*
X00382Y-00202*
X00379Y-00206*
X00375Y-00205*
X00371Y-00206*
X00368Y-00203*
X00368Y-00202*
X00369Y-00201*
X0037Y-00196*
X00369Y-0019*
X00366Y-00186*
X00361Y-00183*
X00356Y-00182*
X0035Y-00183*
X00346Y-00186*
X00343Y-0019*
X00342Y-00196*
X00343Y-00201*
X00343Y-00201*
X00343Y-00202*
X00343Y-00202*
X00343Y-00202*
Y-00203*
X00343Y-00203*
X00343Y-00203*
X00343Y-00203*
X00343Y-00204*
X00343Y-00204*
X00342Y-00205*
X00342Y-00205*
X0033Y-00217*
X00169*
X00166Y-00218*
X00164Y-00219*
X00161Y-00222*
X00094*
X00092Y-00217*
X00093Y-00215*
X00094Y-00209*
X00093Y-00204*
X0009Y-00199*
X00086Y-00196*
X0008Y-00195*
X00075Y-00196*
X0007Y-00199*
X00067Y-00204*
X00066Y-00209*
X00067Y-00215*
X00069Y-00217*
X00066Y-00222*
X-00098*
X-00207Y-00113*
X-0021Y-00111*
X-00212Y-00111*
X-00831*
X-00836Y-00107*
Y-00101*
Y-001*
Y-00095*
Y-00086*
X-00836Y-00086*
X-00835Y-00086*
X-00834Y-00086*
X-00833Y-00085*
X-00145*
X-00143Y-00085*
X-0014Y-00083*
X-00109Y-00052*
X-00107Y-0005*
X-00107Y-00047*
Y00148*
X-00106Y00148*
X-00099Y00147*
X-00099Y00147*
X-00095Y00144*
X-00089Y00143*
X-00084Y00144*
X-00079Y00147*
X-00079Y00147*
X-00078Y00148*
X-00078Y00148*
X-00077Y00148*
X-00077Y00149*
X-00076Y00149*
X-00076Y00149*
X-00075Y00149*
X-00075Y0015*
X-00074Y0015*
X-00074Y0015*
X-00073Y0015*
X00168*
X0017Y00145*
X00169Y00144*
X00166Y00139*
X00165Y00134*
X00166Y00129*
X00169Y00124*
X00173Y00121*
X00179Y0012*
X00184Y00121*
X00188Y00124*
X00189Y00124*
X00189Y00125*
X0019Y00125*
X0019Y00125*
X00191Y00126*
X00191Y00126*
X00192Y00126*
X00192Y00126*
X00193Y00127*
X00193Y00127*
X00194Y00127*
X00195Y00127*
X00222*
X00222Y00127*
X00223Y00127*
X00223Y00127*
X00224Y00126*
X00224Y00126*
X00225Y00126*
X00225Y00126*
X00226Y00125*
X00226Y00125*
X00227Y00125*
X00228Y00124*
X00228Y00124*
X00232Y00121*
X00238Y0012*
X00243Y00121*
X00248Y00124*
X00251Y00129*
X00252Y00134*
X00251Y00139*
X00248Y00144*
X00246Y00145*
X00248Y0015*
X00553*
X00555Y00145*
G37*
G36*
X0057Y00126D02*
X00569Y00126D01*
X00568Y00125*
X00568Y00124*
X00567Y00123*
X00567Y00123*
X00566Y00122*
X00566Y00121*
X00566Y0012*
X00566Y00119*
X00566Y00118*
X0056Y00119*
X0056Y0012*
X0056Y00121*
X00559Y00121*
X00559Y00122*
X00559Y00123*
X00558Y00124*
X00558Y00125*
X00557Y00126*
X00557Y00126*
X00556Y00127*
X0057Y00126*
G37*
G36*
X-0084Y00123D02*
X-0084Y00123D01*
X-00839Y00122*
X-00839Y00122*
X-00838Y00121*
X-00838Y00121*
X-00837Y00121*
X-00836Y00121*
X-00835Y00121*
X-00834Y00121*
Y00115*
X-00835Y00115*
X-00836Y00114*
X-00837Y00114*
X-00838Y00114*
X-00838Y00114*
X-00839Y00114*
X-00839Y00113*
X-0084Y00113*
X-0084Y00112*
X-0084Y00112*
Y00124*
X-0084Y00123*
G37*
G36*
X-00283Y00111D02*
X-00284Y00111D01*
X-00285Y00112*
X-00286Y00113*
X-00287Y00113*
X-00287Y00114*
X-00288Y00114*
X-00289Y00114*
X-0029Y00114*
X-00291Y00115*
X-00292Y00115*
X-00292Y00121*
X-00291Y00121*
X-0029Y00121*
X-00289Y00121*
X-00288Y00121*
X-00287Y00122*
X-00286Y00122*
X-00286Y00123*
X-00285Y00123*
X-00284Y00124*
X-00283Y00124*
X-00283Y00111*
G37*
G36*
X0062Y00098D02*
X00619Y00097D01*
X00618Y00096*
X00618Y00095*
X00617Y00095*
X00617Y00094*
X00616Y00093*
X00616Y00092*
X00616Y00091*
X00616Y0009*
X00616Y0009*
X0061Y0009*
X0061Y00091*
X0061Y00091*
X00609Y00092*
X00609Y00093*
X00609Y00094*
X00608Y00095*
X00608Y00096*
X00607Y00096*
X00607Y00097*
X00606Y00098*
X0062Y00098*
G37*
G36*
X-0084Y00084D02*
X-0084Y00083D01*
X-00839Y00083*
X-00839Y00082*
X-00838Y00082*
X-00838Y00082*
X-00837Y00081*
X-00836Y00081*
X-00835Y00081*
X-00834Y00081*
Y00075*
X-00835Y00075*
X-00836Y00075*
X-00837Y00075*
X-00838Y00075*
X-00838Y00074*
X-00839Y00074*
X-00839Y00074*
X-0084Y00073*
X-0084Y00073*
X-0084Y00072*
Y00084*
X-0084Y00084*
G37*
G36*
X-00246Y00071D02*
X-00246Y00072D01*
X-00247Y00073*
X-00248Y00073*
X-00249Y00074*
X-0025Y00074*
X-0025Y00075*
X-00251Y00075*
X-00252Y00075*
X-00253Y00075*
X-00254Y00075*
Y00081*
X-00253Y00081*
X-00252Y00081*
X-00251Y00082*
X-0025Y00082*
X-0025Y00082*
X-00249Y00083*
X-00248Y00083*
X-00247Y00084*
X-00246Y00084*
X-00246Y00085*
Y00071*
G37*
G36*
X01081Y00071D02*
X01081Y0007D01*
X0108Y0007*
X01079Y00069*
X01079Y00068*
X01079Y00067*
X01078Y00066*
X01078Y00066*
X01078Y00065*
X01078Y00064*
X01078Y00063*
X01072*
X01072Y00064*
X01071Y00065*
X01071Y00066*
X01071Y00066*
X01071Y00067*
X0107Y00068*
X0107Y00069*
X01069Y0007*
X01068Y0007*
X01068Y00071*
X01081Y00071*
G37*
G36*
X-00176Y00033D02*
X-00177Y00034D01*
X-0018Y00035*
X-00181Y00035*
X-00182Y00036*
X-00183Y00036*
X-00184Y00036*
X-00185Y00036*
X-00187Y00042*
X-00186Y00042*
X-00185Y00042*
X-00184Y00042*
X-00184Y00043*
X-00183Y00043*
X-00182Y00043*
X-00182Y00044*
X-00181Y00045*
X-00181Y00045*
X-0018Y00046*
X-00176Y00033*
G37*
G36*
X-0084Y00044D02*
X-0084Y00044D01*
X-00839Y00043*
X-00839Y00043*
X-00838Y00043*
X-00838Y00042*
X-00837Y00042*
X-00836Y00042*
X-00835Y00042*
X-00834Y00042*
Y00036*
X-00835Y00036*
X-00836Y00036*
X-00837Y00036*
X-00838Y00035*
X-00838Y00035*
X-00839Y00035*
X-00839Y00034*
X-0084Y00034*
X-0084Y00033*
X-0084Y00033*
Y00045*
X-0084Y00044*
G37*
G36*
Y00005D02*
X-0084Y00004D01*
X-00839Y00004*
X-00839Y00004*
X-00838Y00003*
X-00838Y00003*
X-00837Y00003*
X-00836Y00003*
X-00835Y00002*
X-00834Y00002*
Y-00003*
X-00835Y-00003*
X-00836Y-00003*
X-00837Y-00003*
X-00838Y-00003*
X-00838Y-00003*
X-00839Y-00004*
X-00839Y-00004*
X-0084Y-00004*
X-0084Y-00005*
X-0084Y-00006*
Y00005*
X-0084Y00005*
G37*
G36*
X-00178Y-00006D02*
X-00179Y-00006D01*
X-0018Y-00005*
X-00181Y-00004*
X-00181Y-00004*
X-00182Y-00004*
X-00183Y-00003*
X-00184Y-00003*
X-00185Y-00003*
X-00186Y-00003*
X-00187Y-00003*
Y00002*
X-00186Y00003*
X-00185Y00003*
X-00184Y00003*
X-00183Y00003*
X-00182Y00003*
X-00181Y00004*
X-00181Y00004*
X-0018Y00005*
X-00179Y00006*
X-00178Y00006*
Y-00006*
G37*
G36*
X00595Y-00007D02*
X00594Y-00007D01*
X00593Y-00008*
X00593Y-00009*
X00592Y-0001*
X00592Y-00011*
X00591Y-00011*
X00591Y-00012*
X00591Y-00013*
X00591Y-00014*
X00591Y-00015*
X00585Y-00015*
X00585Y-00014*
X00585Y-00013*
X00584Y-00012*
X00584Y-00011*
X00584Y-0001*
X00583Y-0001*
X00583Y-00009*
X00582Y-00008*
X00582Y-00007*
X00581Y-00006*
X00595Y-00007*
G37*
G36*
X-0084Y-00033D02*
X-0084Y-00034D01*
X-00839Y-00034*
X-00839Y-00035*
X-00838Y-00035*
X-00838Y-00035*
X-00837Y-00036*
X-00836Y-00036*
X-00835Y-00036*
X-00834Y-00036*
Y-00042*
X-00835Y-00042*
X-00836Y-00042*
X-00837Y-00042*
X-00838Y-00042*
X-00838Y-00043*
X-00839Y-00043*
X-00839Y-00043*
X-0084Y-00044*
X-0084Y-00044*
X-0084Y-00045*
Y-00033*
X-0084Y-00033*
G37*
G36*
Y-00073D02*
X-0084Y-00073D01*
X-00839Y-00074*
X-00839Y-00074*
X-00838Y-00075*
X-00838Y-00075*
X-00837Y-00075*
X-00836Y-00075*
X-00835Y-00075*
X-00834Y-00075*
Y-00081*
X-00835Y-00081*
X-00836Y-00081*
X-00837Y-00082*
X-00838Y-00082*
X-00838Y-00082*
X-00839Y-00082*
X-00839Y-00083*
X-0084Y-00083*
X-0084Y-00084*
X-0084Y-00084*
Y-00072*
X-0084Y-00073*
G37*
G36*
Y-00112D02*
X-0084Y-00113D01*
X-00839Y-00113*
X-00839Y-00114*
X-00838Y-00114*
X-00838Y-00114*
X-00837Y-00114*
X-00836Y-00115*
X-00835Y-00115*
X-00834Y-00115*
Y-00121*
X-00835Y-00121*
X-00836Y-00121*
X-00837Y-00121*
X-00838Y-00121*
X-00838Y-00121*
X-00839Y-00122*
X-00839Y-00122*
X-0084Y-00123*
X-0084Y-00123*
X-0084Y-00124*
Y-00112*
X-0084Y-00112*
G37*
G36*
Y-00152D02*
X-0084Y-00152D01*
X-00839Y-00153*
X-00839Y-00153*
X-00838Y-00153*
X-00838Y-00154*
X-00837Y-00154*
X-00836Y-00154*
X-00835Y-00154*
X-00834Y-00154*
Y-0016*
X-00835Y-0016*
X-00836Y-0016*
X-00837Y-0016*
X-00838Y-00161*
X-00838Y-00161*
X-00839Y-00161*
X-00839Y-00161*
X-0084Y-00162*
X-0084Y-00162*
X-0084Y-00163*
Y-00151*
X-0084Y-00152*
G37*
G36*
Y-00191D02*
X-0084Y-00191D01*
X-00839Y-00192*
X-00839Y-00192*
X-00838Y-00193*
X-00838Y-00193*
X-00837Y-00193*
X-00836Y-00193*
X-00835Y-00193*
X-00834Y-00193*
Y-00199*
X-00835Y-00199*
X-00836Y-002*
X-00837Y-002*
X-00838Y-002*
X-00838Y-002*
X-00839Y-002*
X-00839Y-00201*
X-0084Y-00201*
X-0084Y-00202*
X-0084Y-00202*
Y-0019*
X-0084Y-00191*
G37*
G36*
X00359Y-00205D02*
X00358Y-00205D01*
X00356Y-00207*
X00355Y-00207*
X00353Y-00208*
X00353Y-00209*
X00351Y-0021*
X00345Y-00207*
X00346Y-00207*
X00346Y-00206*
X00347Y-00205*
X00347Y-00205*
X00347Y-00204*
X00347Y-00203*
X00347Y-00202*
X00347Y-00201*
X00347Y-002*
X00347Y-002*
X00359Y-00205*
G37*
G36*
X-0084Y-0023D02*
X-0084Y-00231D01*
X-00839Y-00231*
X-00839Y-00232*
X-00838Y-00232*
X-00838Y-00232*
X-00837Y-00232*
X-00836Y-00233*
X-00835Y-00233*
X-00834Y-00233*
Y-00239*
X-00835Y-00239*
X-00836Y-00239*
X-00837Y-00239*
X-00838Y-00239*
X-00838Y-0024*
X-00839Y-0024*
X-00839Y-0024*
X-0084Y-00241*
X-0084Y-00241*
X-0084Y-00242*
Y-0023*
X-0084Y-0023*
G37*
G36*
X-00227Y-00242D02*
X-00228Y-00241D01*
X-0023Y-0024*
X-00231Y-0024*
X-00232Y-0024*
X-00232Y-00239*
X-00233Y-00239*
X-00234Y-00239*
X-00235Y-00239*
X-00236Y-00239*
X-00237Y-00233*
X-00236Y-00233*
X-00235Y-00233*
X-00234Y-00232*
X-00234Y-00232*
X-00233Y-00232*
X-00232Y-00231*
X-00231Y-00231*
X-00231Y-0023*
X-0023Y-00229*
X-00229Y-00228*
X-00227Y-00242*
G37*
G36*
X00556Y-00265D02*
X0055Y-00265D01*
X00548Y-00253*
X00549*
X00554Y-00253*
X00554Y-00253*
X00554Y-00253*
X00556Y-00265*
G37*
G36*
X00634Y00115D02*
Y-00331D01*
X0063Y-00336*
X00625*
X00624*
X0062*
X00619*
X0061*
X0061Y-00336*
X00609Y-00335*
X00609Y-00334*
X00609Y-00334*
X00609Y-00331*
X00607Y-00329*
X0058Y-00302*
X0058Y-00301*
X00579Y-00301*
X00579Y-003*
X00579Y-003*
X00578Y-00298*
X00578Y-00298*
X00576Y-00295*
X00576Y-00294*
X00576Y-00294*
X00576Y-00294*
X00573Y-00289*
X00568Y-00286*
X00563Y-00285*
X00557Y-00286*
X00553Y-00289*
X0055Y-00294*
X00549Y-00299*
X0055Y-00305*
X00553Y-00309*
X00557Y-00312*
X00563Y-00313*
X00567Y-00312*
X00568Y-00312*
X00568Y-00312*
X00569Y-00312*
X00569Y-00312*
X00569Y-00312*
X0057Y-00312*
X0057Y-00312*
X0057Y-00312*
X0057Y-00312*
X00571Y-00313*
X00571Y-00313*
X00572Y-00313*
X0059Y-00331*
X00588Y-00336*
X00581*
X00579*
X00546*
X00545*
X0054*
X00536*
X00536Y-00336*
X00535Y-00336*
X00535*
X00535Y-00336*
X00535Y-00336*
X00535Y-00335*
X00534Y-00335*
X00534Y-00334*
X00534Y-00332*
X00534Y-0033*
X00534Y-00328*
X00534Y-00328*
Y-00288*
X00552Y-00269*
X00555Y-00269*
X00557Y-00271*
X00563Y-00272*
X00568Y-00271*
X00573Y-00268*
X00576Y-00263*
X00577Y-00258*
X00576Y-00253*
X00573Y-00248*
X00568Y-00245*
X00563Y-00244*
X00557Y-00245*
X00553Y-00248*
X00552Y-00249*
X00549Y-00249*
X00548*
X00548Y-00249*
X00548Y-00249*
X00547Y-00249*
X00544Y-0025*
X00541Y-00252*
X00516Y-00276*
X00514Y-0028*
X00513Y-00283*
Y-00328*
X00513Y-00328*
X00513Y-0033*
X00513Y-00332*
X00513Y-00334*
X00512Y-00335*
X00512Y-00335*
X00512Y-00336*
X00512Y-00336*
X00512Y-00336*
X00512*
X00511Y-00336*
X00511Y-00336*
X00507*
X00506*
X00502*
X00501*
X00467*
X00466*
X00462*
X00461*
X00428*
X00427*
X00423*
X00422*
X00389*
X00388*
X00384*
X00383*
X00373*
X00373Y-00336*
X00373Y-00335*
X00373Y-00334*
X00373Y-00334*
Y-00326*
X00409Y-00291*
X00488*
X00491Y-0029*
X00493Y-00288*
X00618Y-00164*
X00619Y-00162*
X0062Y-00159*
Y00089*
X0062Y00089*
X0062Y0009*
X0062Y00091*
X0062Y00091*
X0062Y00091*
X00621Y00092*
X00621Y00092*
X00621Y00093*
X00622Y00093*
X00622Y00094*
X00623Y00095*
X00623Y00095*
X00623Y00095*
X00626Y00099*
X00627Y00105*
X00626Y0011*
X00623Y00115*
X00618Y00118*
X00613Y00119*
X00607Y00118*
X00603Y00115*
X006Y0011*
X00599Y00105*
X006Y00099*
X00603Y00095*
X00603Y00095*
X00603Y00094*
X00604Y00094*
X00604Y00093*
X00605Y00093*
X00605Y00092*
X00605Y00092*
X00605Y00091*
X00605Y00091*
X00605Y0009*
X00605Y00089*
X00606Y00089*
Y00009*
X00605Y00008*
X00598Y00009*
X00598Y00009*
X00593Y00013*
X00588Y00014*
X00582Y00013*
X00578Y00009*
X00575Y00005*
X0057Y00005*
Y00118*
X0057Y00118*
X0057Y00118*
X0057Y00118*
X0057Y00119*
X0057Y00119*
X0057Y0012*
X0057Y0012*
X00571Y00121*
X00571Y00121*
X00571Y00122*
X00572Y00122*
X00572Y00123*
X00573Y00123*
X00573Y00124*
X00573Y00124*
X00576Y00128*
X00577Y00134*
X00576Y00139*
X00573Y00144*
X00572Y00145*
X00573Y0015*
X00599*
X00634Y00115*
G37*
G36*
X00845Y-00286D02*
X00845Y-00286D01*
X00845Y-00287*
X00845Y-00287*
X00844Y-00288*
X00844Y-00289*
X00844Y-00292*
X00832Y-00293*
X00832Y-00292*
X00832Y-0029*
X00832Y-00289*
X00832Y-00288*
X00832Y-00288*
X00832Y-00287*
X00832Y-00287*
X00831Y-00287*
X00845Y-00286*
X00845Y-00286*
G37*
G36*
X00572Y-00297D02*
X00574Y-003D01*
X00574Y-00301*
X00575Y-00302*
X00576Y-00303*
X00576Y-00303*
X00577Y-00304*
X00574Y-0031*
X00573Y-00309*
X00573Y-00309*
X00572Y-00308*
X00571Y-00308*
X0057Y-00308*
X0057Y-00308*
X00569Y-00308*
X00568Y-00308*
X00567Y-00308*
X00566Y-00308*
X00572Y-00296*
X00572Y-00297*
G37*
G36*
X-00454Y-00312D02*
X-00454Y-00313D01*
X-00455Y-00314*
X-00456Y-00314*
X-00456Y-00315*
X-00456Y-00316*
X-00457Y-00317*
X-00457Y-00318*
X-00457Y-00319*
X-00457Y-0032*
X-00463Y-0032*
X-00463Y-00319*
X-00463Y-00318*
X-00463Y-00317*
X-00464Y-00316*
X-00464Y-00316*
X-00464Y-00315*
X-00465Y-00314*
X-00465Y-00313*
X-00466Y-00313*
X-00467Y-00312*
X-00453Y-00311*
X-00454Y-00312*
G37*
G36*
X-00375Y-00326D02*
X-00376Y-00327D01*
X-00376Y-00327*
X-00377Y-00328*
X-00377Y-00329*
X-00377Y-0033*
X-00378Y-00331*
X-00378Y-00332*
X-00378Y-00332*
X-00378Y-00333*
X-00384*
X-00384Y-00332*
X-00384Y-00332*
X-00384Y-00331*
X-00385Y-0033*
X-00385Y-00329*
X-00386Y-00328*
X-00386Y-00327*
X-00387Y-00327*
X-00387Y-00326*
X-00388Y-00325*
X-00374*
X-00375Y-00326*
G37*
G36*
X-00493D02*
X-00494Y-00327D01*
X-00494Y-00327*
X-00495Y-00328*
X-00495Y-00329*
X-00496Y-0033*
X-00496Y-00331*
X-00496Y-00332*
X-00496Y-00332*
X-00496Y-00333*
X-00502*
X-00502Y-00332*
X-00502Y-00332*
X-00503Y-00331*
X-00503Y-0033*
X-00503Y-00329*
X-00504Y-00328*
X-00504Y-00327*
X-00505Y-00327*
X-00505Y-00326*
X-00506Y-00325*
X-00492*
X-00493Y-00326*
G37*
G36*
X01078Y-00335D02*
X01078Y-00336D01*
X01078Y-00337*
X01078Y-00338*
X01078Y-00339*
X01079Y-00339*
X01079Y-0034*
X0108Y-0034*
X0108Y-0034*
X01081Y-0034*
X01069*
X01069Y-0034*
X0107Y-0034*
X0107Y-0034*
X01071Y-00339*
X01071Y-00339*
X01071Y-00338*
X01071Y-00337*
X01071Y-00336*
X01072Y-00335*
X01072Y-00334*
X01078*
X01078Y-00335*
G37*
G36*
X0033D02*
X0033Y-00336D01*
X0033Y-00337*
X0033Y-00338*
X0033Y-00339*
X00331Y-00339*
X00331Y-0034*
X00331Y-0034*
X00332Y-0034*
X00333Y-0034*
X00321*
X00321Y-0034*
X00322Y-0034*
X00322Y-0034*
X00322Y-00339*
X00323Y-00339*
X00323Y-00338*
X00323Y-00337*
X00323Y-00336*
X00324Y-00335*
X00324Y-00334*
X0033*
X0033Y-00335*
G37*
G36*
X-00378D02*
X-00378Y-00336D01*
X-00378Y-00337*
X-00378Y-00338*
X-00377Y-00339*
X-00377Y-00339*
X-00377Y-0034*
X-00376Y-0034*
X-00376Y-0034*
X-00375Y-0034*
X-00387*
X-00387Y-0034*
X-00386Y-0034*
X-00386Y-0034*
X-00385Y-00339*
X-00385Y-00339*
X-00385Y-00338*
X-00384Y-00337*
X-00384Y-00336*
X-00384Y-00335*
X-00384Y-00334*
X-00378*
X-00378Y-00335*
G37*
G36*
X01038D02*
X01038Y-00336D01*
X01038Y-00337*
X01039Y-00338*
X01039Y-00339*
X01039Y-00339*
X0104Y-0034*
X0104Y-0034*
X01041Y-0034*
X01041Y-0034*
X01029*
X0103Y-0034*
X0103Y-0034*
X01031Y-0034*
X01031Y-00339*
X01031Y-00339*
X01032Y-00338*
X01032Y-00337*
X01032Y-00336*
X01032Y-00335*
X01032Y-00334*
X01038*
X01038Y-00335*
G37*
G36*
X00999D02*
X00999Y-00336D01*
X00999Y-00337*
X00999Y-00338*
X01Y-00339*
X01Y-00339*
X01Y-0034*
X01001Y-0034*
X01001Y-0034*
X01002Y-0034*
X0099*
X0099Y-0034*
X00991Y-0034*
X00991Y-0034*
X00992Y-00339*
X00992Y-00339*
X00992Y-00338*
X00993Y-00337*
X00993Y-00336*
X00993Y-00335*
X00993Y-00334*
X00999*
X00999Y-00335*
G37*
G36*
X0096D02*
X0096Y-00336D01*
X0096Y-00337*
X0096Y-00338*
X0096Y-00339*
X00961Y-00339*
X00961Y-0034*
X00961Y-0034*
X00962Y-0034*
X00962Y-0034*
X0095*
X00951Y-0034*
X00952Y-0034*
X00952Y-0034*
X00952Y-00339*
X00953Y-00339*
X00953Y-00338*
X00953Y-00337*
X00953Y-00336*
X00953Y-00335*
X00953Y-00334*
X00959*
X0096Y-00335*
G37*
G36*
X0092D02*
X0092Y-00336D01*
X0092Y-00337*
X00921Y-00338*
X00921Y-00339*
X00921Y-00339*
X00922Y-0034*
X00922Y-0034*
X00923Y-0034*
X00923Y-0034*
X00911*
X00912Y-0034*
X00912Y-0034*
X00913Y-0034*
X00913Y-00339*
X00913Y-00339*
X00914Y-00338*
X00914Y-00337*
X00914Y-00336*
X00914Y-00335*
X00914Y-00334*
X0092*
X0092Y-00335*
G37*
G36*
X00844Y-00331D02*
X00845Y-00333D01*
X00845Y-00334*
X00845Y-00336*
X00846Y-00337*
X00846Y-00338*
X00847Y-00339*
X00848Y-0034*
X00849Y-0034*
X0085Y-0034*
X00827*
X00828Y-0034*
X00829Y-0034*
X0083Y-00339*
X0083Y-00338*
X00831Y-00337*
X00832Y-00336*
X00832Y-00334*
X00832Y-00333*
X00832Y-00331*
X00832Y-00328*
X00844*
X00844Y-00331*
G37*
G36*
X00802Y-00335D02*
X00802Y-00336D01*
X00802Y-00337*
X00802Y-00338*
X00803Y-00339*
X00803Y-00339*
X00803Y-0034*
X00804Y-0034*
X00804Y-0034*
X00805Y-0034*
X00793*
X00794Y-0034*
X00794Y-0034*
X00795Y-0034*
X00795Y-00339*
X00795Y-00339*
X00796Y-00338*
X00796Y-00337*
X00796Y-00336*
X00796Y-00335*
X00796Y-00334*
X00802*
X00802Y-00335*
G37*
G36*
X00763D02*
X00763Y-00336D01*
X00763Y-00337*
X00763Y-00338*
X00763Y-00339*
X00764Y-00339*
X00764Y-0034*
X00765Y-0034*
X00765Y-0034*
X00766Y-0034*
X00754*
X00754Y-0034*
X00755Y-0034*
X00755Y-0034*
X00756Y-00339*
X00756Y-00339*
X00756Y-00338*
X00756Y-00337*
X00757Y-00336*
X00757Y-00335*
X00757Y-00334*
X00763*
X00763Y-00335*
G37*
G36*
X00645D02*
X00645Y-00336D01*
X00645Y-00337*
X00645Y-00338*
X00645Y-00339*
X00646Y-00339*
X00646Y-0034*
X00646Y-0034*
X00647Y-0034*
X00648Y-0034*
X00636*
X00636Y-0034*
X00637Y-0034*
X00637Y-0034*
X00637Y-00339*
X00638Y-00339*
X00638Y-00338*
X00638Y-00337*
X00638Y-00336*
X00638Y-00335*
X00639Y-00334*
X00645*
X00645Y-00335*
G37*
G36*
X00605D02*
X00605Y-00336D01*
X00605Y-00337*
X00606Y-00338*
X00606Y-00339*
X00606Y-00339*
X00607Y-0034*
X00607Y-0034*
X00608Y-0034*
X00608Y-0034*
X00596*
X00597Y-0034*
X00597Y-0034*
X00598Y-0034*
X00598Y-00339*
X00598Y-00339*
X00599Y-00338*
X00599Y-00337*
X00599Y-00336*
X00599Y-00335*
X00599Y-00334*
X00605*
X00605Y-00335*
G37*
G36*
X00529Y-00331D02*
X0053Y-00333D01*
X0053Y-00334*
X0053Y-00336*
X00531Y-00337*
X00531Y-00338*
X00532Y-00339*
X00533Y-0034*
X00534Y-0034*
X00535Y-0034*
X00512*
X00513Y-0034*
X00514Y-0034*
X00515Y-00339*
X00515Y-00338*
X00516Y-00337*
X00517Y-00336*
X00517Y-00334*
X00517Y-00333*
X00517Y-00331*
X00517Y-00328*
X00529*
X00529Y-00331*
G37*
G36*
X00369Y-00335D02*
X00369Y-00336D01*
X00369Y-00337*
X00369Y-00338*
X0037Y-00339*
X0037Y-00339*
X0037Y-0034*
X00371Y-0034*
X00371Y-0034*
X00372Y-0034*
X0036*
X0036Y-0034*
X00361Y-0034*
X00361Y-0034*
X00362Y-00339*
X00362Y-00339*
X00362Y-00338*
X00363Y-00337*
X00363Y-00336*
X00363Y-00335*
X00363Y-00334*
X00369*
X00369Y-00335*
G37*
G36*
X00251D02*
X00251Y-00336D01*
X00251Y-00337*
X00251Y-00338*
X00252Y-00339*
X00252Y-00339*
X00252Y-0034*
X00253Y-0034*
X00253Y-0034*
X00254Y-0034*
X00242*
X00242Y-0034*
X00243Y-0034*
X00243Y-0034*
X00244Y-00339*
X00244Y-00339*
X00244Y-00338*
X00245Y-00337*
X00245Y-00336*
X00245Y-00335*
X00245Y-00334*
X00251*
X00251Y-00335*
G37*
G36*
X-00457D02*
X-00457Y-00336D01*
X-00457Y-00337*
X-00456Y-00338*
X-00456Y-00339*
X-00456Y-00339*
X-00455Y-0034*
X-00455Y-0034*
X-00454Y-0034*
X-00454Y-0034*
X-00466*
X-00465Y-0034*
X-00465Y-0034*
X-00464Y-0034*
X-00464Y-00339*
X-00464Y-00339*
X-00463Y-00338*
X-00463Y-00337*
X-00463Y-00336*
X-00463Y-00335*
X-00463Y-00334*
X-00457*
X-00457Y-00335*
G37*
G36*
X-00496D02*
X-00496Y-00336D01*
X-00496Y-00337*
X-00496Y-00338*
X-00495Y-00339*
X-00495Y-00339*
X-00495Y-0034*
X-00494Y-0034*
X-00494Y-0034*
X-00493Y-0034*
X-00505*
X-00505Y-0034*
X-00504Y-0034*
X-00504Y-0034*
X-00503Y-00339*
X-00503Y-00339*
X-00503Y-00338*
X-00502Y-00337*
X-00502Y-00336*
X-00502Y-00335*
X-00502Y-00334*
X-00496*
X-00496Y-00335*
G37*
G36*
X01146Y-00443D02*
X01146Y-00444D01*
X01146Y-00445*
X01146Y-00445*
Y-00473*
X01146Y-00474*
X01146Y-00475*
X01146Y-00475*
X01146Y-00476*
X01146Y-00476*
X01146Y-00476*
X01146Y-00477*
X01144Y-00477*
X01136Y-00482*
X01131Y-0049*
X01129Y-00499*
X01131Y-00508*
X01136Y-00516*
X0114Y-00519*
X0114Y-00519*
X01141Y-00519*
X01141Y-0052*
X01142Y-0052*
X01142Y-00521*
X01142Y-00521*
X01143Y-00522*
X01143Y-00522*
X01143Y-00523*
X01144Y-00524*
X01144Y-00525*
X01144Y-00526*
X0114Y-0053*
X01114*
X0111Y-00531*
X01107Y-00533*
X01085Y-00555*
X00312*
X0031Y-0055*
X0031Y-0055*
X00311Y-00544*
X0031Y-00539*
X00307Y-00534*
X00302Y-00531*
X00297Y-0053*
X00291Y-00531*
X00287Y-00534*
X00284Y-00539*
X00283Y-00544*
X00284Y-0055*
X00284Y-0055*
X00281Y-00555*
X00186*
X00185Y-0055*
X00186Y-00549*
X00213Y-00522*
X00215Y-00519*
X00216Y-00516*
Y-00447*
X0022Y-00443*
X00225*
X00226*
X0023*
X00231*
X00252*
X00252Y-00448*
X00252*
X00247Y-00451*
X00244Y-00455*
X00243Y-00461*
X00244Y-00466*
X00247Y-00471*
X00252Y-00474*
X00257Y-00475*
X00263Y-00474*
X00267Y-00471*
X0027Y-00466*
X00271Y-00461*
X0027Y-00455*
X00267Y-00451*
X00263Y-00448*
X00263*
X00263Y-00443*
X00266*
X00269*
X00271*
X00304*
X00305*
X0031*
X00343*
X00348*
X00349*
X00383*
X00384*
X00388*
X00389*
X00398*
X00398Y-00443*
X00398Y-00444*
X00398Y-00445*
X00398Y-00445*
Y-00458*
X00398Y-00458*
X00398Y-00459*
X00398Y-0046*
X00398Y-0046*
X00398Y-00461*
X00397Y-00461*
X00397Y-00462*
X00397Y-00462*
X00396Y-00463*
X00396Y-00464*
X00395Y-00464*
X00395Y-00465*
X00393Y-00468*
X00392Y-00474*
X00393Y-00479*
X00396Y-00484*
X004Y-00487*
X00406Y-00488*
X00411Y-00487*
X00416Y-00484*
X00419Y-00479*
X0042Y-00474*
X00419Y-00468*
X00416Y-00464*
X00415Y-00463*
X00415Y-00463*
X00415Y-00462*
X00414Y-00462*
X00414Y-00461*
X00413Y-00461*
X00413Y-00461*
X00413Y-0046*
X00413Y-0046*
X00413Y-00459*
X00413Y-00459*
X00413Y-00458*
X00413Y-00458*
X00413Y-00458*
X00412Y-00458*
Y-00447*
X00416Y-00443*
X00422*
X00423*
X00427*
X00428*
X00437*
X00437Y-00443*
X00437Y-00444*
X00437Y-00445*
X00438Y-00445*
Y-00473*
X00437Y-00474*
X00437Y-00475*
X00437Y-00475*
X00437Y-00476*
X00437Y-00476*
X00437Y-00476*
X00437Y-00477*
X00435Y-00477*
X00428Y-00482*
X00422Y-0049*
X00421Y-00499*
X00422Y-00508*
X00428Y-00516*
X00435Y-00521*
X00445Y-00523*
X00454Y-00521*
X00462Y-00516*
X00467Y-00508*
X00469Y-00499*
X00467Y-0049*
X00462Y-00482*
X00454Y-00477*
X00452Y-00477*
X00452Y-00476*
X00452Y-00476*
X00452Y-00476*
X00452Y-00475*
X00452Y-00475*
X00452Y-00474*
X00452Y-00473*
Y-00447*
X00456Y-00443*
X00461*
X00462*
X00466*
X00467*
X00501*
X00502*
X00506*
X00507*
X0054*
X00541*
X00546*
X00551*
X00552Y-00443*
X00553Y-00444*
X00554Y-00444*
X00555Y-00446*
X00555Y-00448*
X00555Y-00448*
X00555Y-00449*
X00554Y-00449*
X00554Y-0045*
X00553Y-0045*
X00553Y-00451*
X00553Y-00452*
X0055Y-00455*
X00549Y-00461*
X0055Y-00466*
X00553Y-00471*
X00558Y-00474*
X00563Y-00475*
X00569Y-00474*
X00573Y-00471*
X00576Y-00466*
X00577Y-00461*
X00576Y-00455*
X00573Y-00451*
X00573Y-0045*
X00573Y-0045*
X00572Y-00449*
X00572Y-00449*
X00571Y-00449*
X00572Y-00444*
X00573Y-00443*
X00575Y-00443*
X00579*
X00584*
X00586*
X00619*
X0062*
X00624*
X00625*
X00658*
X00659*
X00663*
X00664*
X00697*
X00699*
X00704*
X00737*
X00742*
X00743*
X00776*
X00777*
X00781*
X00782*
X00816*
X00817*
X00821*
X00822*
X00828*
X00828Y-00443*
X00828Y-00443*
X00828Y-00443*
X00828Y-00443*
X00829Y-00444*
X00829Y-00445*
X00829Y-00447*
X00829Y-00449*
X00829Y-00449*
Y-00463*
X00819Y-00474*
X00819Y-00474*
X00816Y-00476*
X00812Y-0048*
X0081Y-00481*
X00808Y-00482*
X00807Y-00483*
X00806Y-00483*
X00787*
Y-00515*
X00826*
Y-00497*
X00826Y-00497*
X00826Y-00497*
Y-00494*
X00827Y-00492*
X0083Y-00489*
X00832Y-00487*
X00832Y-00486*
X00832Y-00486*
X00832Y-00486*
X00845Y-00474*
X00847Y-00471*
X00848Y-00467*
Y-00449*
X00848Y-00449*
X00848Y-00447*
X00848Y-00445*
X00848Y-00444*
X00848Y-00443*
X00848Y-00443*
X00849Y-00443*
X00849Y-00443*
X00849Y-00443*
X00855*
X00856*
X0086*
X00861*
X00894*
X00896*
X00899*
X00901*
X00934*
X00935*
X00939*
X0094*
X00973*
X00974*
X00978*
X00979*
X01012*
X01014*
X01017*
X01019*
X01052*
X01053*
X01058*
X01091*
X01092*
X01096*
X01097*
X01131*
X01132*
X01136*
X01137*
X01146*
X01146Y-00443*
G37*
G36*
X00139Y-00438D02*
X00139Y-00439D01*
X00138Y-00439*
X00138Y-00439*
X00138Y-0044*
X00138Y-0044*
X00137Y-00441*
X00137Y-00442*
X00137Y-00443*
X00137Y-00444*
X00131*
X00131Y-00443*
X00131Y-00442*
X00131Y-00441*
X00131Y-0044*
X0013Y-0044*
X0013Y-00439*
X0013Y-00439*
X00129Y-00439*
X00129Y-00438*
X00129Y-00438*
X0014*
X00139Y-00438*
G37*
G36*
X01159Y-00438D02*
X01158Y-00439D01*
X01158Y-00439*
X01157Y-00439*
X01157Y-0044*
X01157Y-00441*
X01157Y-00441*
X01156Y-00442*
X01156Y-00443*
X01156Y-00444*
X0115*
X0115Y-00443*
X0115Y-00442*
X0115Y-00441*
X0115Y-00441*
X0115Y-0044*
X01149Y-00439*
X01149Y-00439*
X01148Y-00439*
X01148Y-00438*
X01147Y-00438*
X01159*
X01159Y-00438*
G37*
G36*
X00568D02*
X00568Y-00439D01*
X00567Y-00439*
X00567Y-00439*
X00567Y-0044*
X00566Y-00441*
X00566Y-00441*
X00566Y-00442*
X00566Y-00443*
X00566Y-00444*
X0056*
X0056Y-00443*
X0056Y-00442*
X0056Y-00441*
X00559Y-00441*
X00559Y-0044*
X00559Y-00439*
X00558Y-00439*
X00558Y-00439*
X00557Y-00438*
X00557Y-00438*
X00569*
X00568Y-00438*
G37*
G36*
X-00218D02*
X-00219Y-00439D01*
X-00219Y-00439*
X-0022Y-00439*
X-0022Y-0044*
X-0022Y-00441*
X-0022Y-00441*
X-00221Y-00442*
X-00221Y-00443*
X-00221Y-00444*
X-00227*
X-00227Y-00443*
X-00227Y-00442*
X-00227Y-00441*
X-00227Y-00441*
X-00227Y-0044*
X-00228Y-00439*
X-00228Y-00439*
X-00229Y-00439*
X-00229Y-00438*
X-0023Y-00438*
X-00218*
X-00218Y-00438*
G37*
G36*
X-00336D02*
X-00336Y-00439D01*
X-00337Y-00439*
X-00337Y-00439*
X-00338Y-0044*
X-00338Y-00441*
X-00338Y-00441*
X-00338Y-00442*
X-00338Y-00443*
X-00338Y-00444*
X-00344*
X-00344Y-00443*
X-00344Y-00442*
X-00345Y-00441*
X-00345Y-00441*
X-00345Y-0044*
X-00345Y-00439*
X-00346Y-00439*
X-00346Y-00439*
X-00347Y-00438*
X-00347Y-00438*
X-00335*
X-00336Y-00438*
G37*
G36*
X-00769D02*
X-0077Y-00439D01*
X-0077Y-00439*
X-00771Y-00439*
X-00771Y-0044*
X-00771Y-00441*
X-00772Y-00441*
X-00772Y-00442*
X-00772Y-00443*
X-00772Y-00444*
X-00778*
X-00778Y-00443*
X-00778Y-00442*
X-00778Y-00441*
X-00778Y-00441*
X-00779Y-0044*
X-00779Y-00439*
X-00779Y-00439*
X-0078Y-00439*
X-0078Y-00438*
X-00781Y-00438*
X-00769*
X-00769Y-00438*
G37*
G36*
X0045D02*
X0045Y-00439D01*
X00449Y-00439*
X00449Y-00439*
X00448Y-0044*
X00448Y-00441*
X00448Y-00441*
X00448Y-00442*
X00448Y-00443*
X00448Y-00444*
X00442*
X00442Y-00443*
X00442Y-00442*
X00441Y-00441*
X00441Y-00441*
X00441Y-0044*
X00441Y-00439*
X0044Y-00439*
X0044Y-00439*
X00439Y-00438*
X00439Y-00438*
X00451*
X0045Y-00438*
G37*
G36*
X00411D02*
X0041Y-00439D01*
X0041Y-00439*
X00409Y-00439*
X00409Y-0044*
X00409Y-00441*
X00409Y-00441*
X00408Y-00442*
X00408Y-00443*
X00408Y-00444*
X00402*
X00402Y-00443*
X00402Y-00442*
X00402Y-00441*
X00402Y-00441*
X00402Y-0044*
X00401Y-00439*
X00401Y-00439*
X004Y-00439*
X004Y-00438*
X00399Y-00438*
X00411*
X00411Y-00438*
G37*
G36*
X00214D02*
X00213Y-00439D01*
X00213Y-00439*
X00213Y-00439*
X00212Y-0044*
X00212Y-00441*
X00212Y-00441*
X00212Y-00442*
X00211Y-00443*
X00211Y-00444*
X00205*
X00205Y-00443*
X00205Y-00442*
X00205Y-00441*
X00205Y-00441*
X00205Y-0044*
X00204Y-00439*
X00204Y-00439*
X00204Y-00439*
X00203Y-00438*
X00202Y-00438*
X00214*
X00214Y-00438*
G37*
G36*
X-00258D02*
X-00258Y-00439D01*
X-00259Y-00439*
X-00259Y-00439*
X-00259Y-0044*
X-0026Y-00441*
X-0026Y-00441*
X-0026Y-00442*
X-0026Y-00443*
X-0026Y-00444*
X-00266*
X-00266Y-00443*
X-00266Y-00442*
X-00266Y-00441*
X-00266Y-00441*
X-00267Y-0044*
X-00267Y-00439*
X-00267Y-00439*
X-00268Y-00439*
X-00268Y-00438*
X-00269Y-00438*
X-00257*
X-00258Y-00438*
G37*
G36*
X-0073D02*
X-00731Y-00439D01*
X-00731Y-00439*
X-00731Y-00439*
X-00732Y-0044*
X-00732Y-00441*
X-00732Y-00441*
X-00732Y-00442*
X-00732Y-00443*
X-00732Y-00444*
X-00738*
X-00738Y-00443*
X-00739Y-00442*
X-00739Y-00441*
X-00739Y-00441*
X-00739Y-0044*
X-0074Y-00439*
X-0074Y-00439*
X-0074Y-00439*
X-00741Y-00438*
X-00741Y-00438*
X-00729*
X-0073Y-00438*
G37*
G36*
X00847Y-00439D02*
X00847Y-00439D01*
X00846Y-00439*
X00845Y-0044*
X00845Y-00441*
X00844Y-00442*
X00844Y-00443*
X00844Y-00445*
X00843Y-00447*
X00843Y-00448*
X00833*
X00833Y-00447*
X00833Y-00445*
X00833Y-00443*
X00833Y-00442*
X00832Y-00441*
X00832Y-0044*
X00831Y-00439*
X0083Y-00439*
X00829Y-00439*
X00828Y-00438*
X00848*
X00847Y-00439*
G37*
G36*
X-0026Y-00446D02*
X-0026Y-00447D01*
X-0026Y-00448*
X-00259Y-00449*
X-00259Y-0045*
X-00259Y-0045*
X-00258Y-00451*
X-00258Y-00452*
X-00257Y-00453*
X-00256Y-00454*
X-0027*
X-00269Y-00453*
X-00268Y-00452*
X-00268Y-00451*
X-00267Y-0045*
X-00267Y-0045*
X-00267Y-00449*
X-00266Y-00448*
X-00266Y-00447*
X-00266Y-00446*
X-00266Y-00445*
X-0026*
X-0026Y-00446*
G37*
G36*
X-00772D02*
X-00772Y-00447D01*
X-00771Y-00448*
X-00771Y-00449*
X-00771Y-0045*
X-0077Y-0045*
X-0077Y-00451*
X-00769Y-00452*
X-00769Y-00453*
X-00768Y-00454*
X-00782*
X-00781Y-00453*
X-0078Y-00452*
X-0078Y-00451*
X-00779Y-0045*
X-00779Y-0045*
X-00778Y-00449*
X-00778Y-00448*
X-00778Y-00447*
X-00778Y-00446*
X-00778Y-00445*
X-00772*
X-00772Y-00446*
G37*
G36*
X-00732D02*
X-00732Y-00447D01*
X-00732Y-00448*
X-00732Y-00449*
X-00731Y-0045*
X-00731Y-0045*
X-00731Y-00451*
X-0073Y-00452*
X-00729Y-00453*
X-00729Y-00454*
X-00742*
X-00742Y-00453*
X-00741Y-00452*
X-0074Y-00451*
X-0074Y-0045*
X-00739Y-0045*
X-00739Y-00449*
X-00739Y-00448*
X-00739Y-00447*
X-00738Y-00446*
X-00738Y-00445*
X-00732*
X-00732Y-00446*
G37*
G36*
X00566Y-00446D02*
X00566Y-00447D01*
X00566Y-00448*
X00566Y-00449*
X00567Y-00449*
X00567Y-0045*
X00568Y-00451*
X00568Y-00452*
X00569Y-00452*
X0057Y-00453*
X00556Y-00454*
X00557Y-00453*
X00557Y-00452*
X00558Y-00451*
X00558Y-00451*
X00559Y-0045*
X00559Y-00449*
X00559Y-00448*
X0056Y-00447*
X0056Y-00446*
X0056Y-00445*
X00566Y-00445*
X00566Y-00446*
G37*
G36*
X01568Y-00434D02*
X01541Y-00461D01*
X01208*
Y-00344*
X01178Y-00314*
Y-00219*
X01568*
Y-00434*
G37*
G36*
X00408Y-00459D02*
X00408Y-0046D01*
X00409Y-00461*
X00409Y-00462*
X00409Y-00463*
X0041Y-00463*
X0041Y-00464*
X00411Y-00465*
X00412Y-00466*
X00412Y-00466*
X00399Y-00467*
X00399Y-00466*
X004Y-00465*
X004Y-00465*
X00401Y-00464*
X00401Y-00463*
X00402Y-00462*
X00402Y-00461*
X00402Y-0046*
X00402Y-0046*
X00402Y-00459*
X00408Y-00458*
X00408Y-00459*
G37*
G36*
X-00338Y-0046D02*
X-00338Y-00461D01*
X-00338Y-00461*
X-00338Y-00462*
X-00337Y-00463*
X-00337Y-00464*
X-00336Y-00465*
X-00336Y-00466*
X-00335Y-00466*
X-00334Y-00467*
X-00348*
X-00347Y-00466*
X-00347Y-00466*
X-00346Y-00465*
X-00346Y-00464*
X-00345Y-00463*
X-00345Y-00462*
X-00345Y-00461*
X-00344Y-00461*
X-00344Y-0046*
X-00344Y-00459*
X-00338*
X-00338Y-0046*
G37*
G36*
X-00287Y-00466D02*
X-00288Y-00469D01*
X-00288Y-0047*
X-00289Y-00471*
X-00289Y-00472*
X-00289Y-00473*
X-00289Y-00474*
X-00295Y-00476*
X-00295Y-00475*
X-00295Y-00474*
X-00295Y-00474*
X-00296Y-00473*
X-00296Y-00472*
X-00297Y-00472*
X-00297Y-00471*
X-00298Y-0047*
X-00299Y-0047*
X-00299Y-0047*
X-00287Y-00465*
X-00287Y-00466*
G37*
G36*
X01156Y-00475D02*
X01156Y-00476D01*
X01157Y-00477*
X01157Y-00478*
X01157Y-00478*
X01157Y-00479*
X01158Y-00479*
X01158Y-0048*
X01159Y-0048*
X01159Y-0048*
X01147*
X01148Y-0048*
X01148Y-0048*
X01149Y-00479*
X01149Y-00479*
X0115Y-00478*
X0115Y-00478*
X0115Y-00477*
X0115Y-00476*
X0115Y-00475*
X0115Y-00474*
X01156*
X01156Y-00475*
G37*
G36*
X00448D02*
X00448Y-00476D01*
X00448Y-00477*
X00448Y-00478*
X00448Y-00478*
X00449Y-00479*
X00449Y-00479*
X0045Y-0048*
X0045Y-0048*
X00451Y-0048*
X00439*
X00439Y-0048*
X0044Y-0048*
X0044Y-00479*
X00441Y-00479*
X00441Y-00478*
X00441Y-00478*
X00441Y-00477*
X00442Y-00476*
X00442Y-00475*
X00442Y-00474*
X00448*
X00448Y-00475*
G37*
G36*
X00829Y-00484D02*
X00827Y-00486D01*
X00823Y-0049*
X00822Y-00491*
X00821Y-00493*
X00821Y-00494*
X00821Y-00495*
X00821Y-00496*
X00821Y-00497*
X00822Y-00498*
X00804Y-00488*
X00805Y-00488*
X00806Y-00488*
X00807Y-00488*
X00809Y-00487*
X00811Y-00486*
X00812Y-00485*
X00814Y-00483*
X00819Y-00479*
X00822Y-00477*
X00829Y-00484*
G37*
G36*
X01157Y-00496D02*
X0115D01*
X0115Y-00495*
X0115Y-00495*
X0115Y-00494*
X0115Y-00493*
X0115Y-00485*
X01156*
X01157Y-00496*
G37*
G36*
X-00192Y-00506D02*
X-00192Y-00505D01*
X-00193Y-00505*
X-00194Y-00504*
X-00195Y-00504*
X-00196Y-00503*
X-00196Y-00503*
X-00197Y-00503*
X-00198Y-00502*
X-00199Y-00502*
X-002Y-00502*
X-002Y-00496*
X-00199Y-00496*
X-00198Y-00496*
X-00197Y-00496*
X-00196Y-00496*
X-00196Y-00495*
X-00195Y-00495*
X-00194Y-00494*
X-00193Y-00494*
X-00192Y-00493*
X-00192Y-00492*
X-00192Y-00506*
G37*
G36*
X01162Y-00517D02*
X01162Y-00518D01*
X01161Y-00518*
X0116Y-00519*
X0116Y-00521*
X01159Y-00522*
X01159Y-00523*
X01159Y-00525*
X01158Y-00526*
X01158Y-00528*
X01148*
X01148Y-00526*
X01148Y-00525*
X01148Y-00523*
X01148Y-00522*
X01147Y-00521*
X01147Y-00519*
X01146Y-00518*
X01145Y-00518*
X01144Y-00517*
X01143Y-00516*
X01163*
X01162Y-00517*
G37*
G36*
X-00229Y-00558D02*
X-00228Y-00558D01*
X-00228Y-00558*
X-00227Y-00558*
X-00227Y-00559*
X-00226Y-00559*
X-00225Y-00559*
X-00224Y-00559*
X-00222Y-00559*
Y-00569*
X-00223Y-00569*
X-00225Y-00569*
X-00226Y-00569*
X-00227Y-0057*
X-00227Y-0057*
X-00228Y-0057*
X-00228Y-0057*
X-00229Y-00571*
X-00229Y-00571*
Y-00557*
X-00229Y-00558*
G37*
G36*
X0028Y01414D02*
X0028Y01413D01*
X0028Y01413*
X00281Y01412*
X00281Y01411*
X00281Y0141*
X00282Y01409*
X00283Y01408*
X00283Y01408*
X00284Y01407*
X0027*
X00271Y01408*
X00272Y01408*
X00272Y01409*
X00273Y0141*
X00273Y01411*
X00273Y01412*
X00274Y01413*
X00274Y01413*
X00274Y01414*
X00274Y01415*
X0028*
X0028Y01414*
G37*
G36*
X00329Y01409D02*
X00329Y01408D01*
X00328Y01407*
X00328Y01406*
X00327Y01406*
X00327Y01405*
X00327Y01404*
X00327Y01403*
X00326Y01402*
X00326Y01401*
X00326Y014*
X00317Y0141*
X00318Y0141*
X00319Y0141*
X0032Y0141*
X00321Y0141*
X00321Y0141*
X00322Y01411*
X00323Y01411*
X00324Y01412*
X00324Y01412*
X00325Y01413*
X00329Y01409*
G37*
G36*
X00383Y01391D02*
X00382Y0139D01*
X00381Y01389*
X00381Y01389*
X00381Y01388*
X0038Y01387*
X0038Y01386*
X0038Y01385*
X0038Y01384*
X0038Y01384*
X00374*
X00373Y01384*
X00373Y01385*
X00373Y01386*
X00373Y01387*
X00373Y01388*
X00372Y01389*
X00372Y01389*
X00371Y0139*
X0037Y01391*
X0037Y01392*
X00383*
X00383Y01391*
G37*
G36*
X00339Y01384D02*
X00339Y01383D01*
X00339Y01383*
X0034Y01382*
X0034Y01381*
X00341Y0138*
X00341Y01379*
X00342Y01378*
X00342Y01378*
X00343Y01377*
X00329*
X0033Y01378*
X00331Y01378*
X00331Y01379*
X00332Y0138*
X00332Y01381*
X00332Y01382*
X00333Y01383*
X00333Y01383*
X00333Y01384*
X00333Y01385*
X00339*
X00339Y01384*
G37*
G36*
X003D02*
X003Y01383D01*
X003Y01383*
X003Y01382*
X00301Y01381*
X00301Y0138*
X00302Y01379*
X00302Y01378*
X00303Y01378*
X00304Y01377*
X0029*
X00291Y01378*
X00291Y01378*
X00292Y01379*
X00292Y0138*
X00293Y01381*
X00293Y01382*
X00293Y01383*
X00294Y01383*
X00294Y01384*
X00294Y01385*
X003*
X003Y01384*
G37*
G36*
X00406Y01368D02*
X00406Y01367D01*
X00406Y01366*
X00406Y01365*
X00407Y01364*
X00407Y01363*
X00408Y01362*
X00408Y01361*
X00409Y01361*
X00409Y0136*
X00405Y01356*
X00404Y01356*
X00404Y01357*
X00403Y01358*
X00402Y01358*
X00401Y01358*
X004Y01359*
X00399Y01359*
X00398Y01359*
X00398Y01359*
X00396Y01359*
X00406Y01369*
X00406Y01368*
G37*
G36*
X009Y01337D02*
X009Y01337D01*
X00901Y01336*
X00902Y01336*
X00903Y01335*
X00904Y01335*
X00905Y01335*
X00906Y01335*
X00907Y01335*
X00908Y01335*
X00898Y01325*
X00898Y01326*
X00898Y01327*
X00898Y01328*
X00898Y01329*
X00897Y0133*
X00897Y01331*
X00896Y01331*
X00896Y01332*
X00895Y01333*
X00895Y01333*
X00899Y01338*
X009Y01337*
G37*
G36*
X01107Y01318D02*
X01106Y01319D01*
X01106Y01319*
X01105Y0132*
X01104Y0132*
X01103Y01321*
X01102Y01321*
X01101Y01321*
X01101Y01322*
X011Y01322*
X01099Y01322*
X01099Y01328*
X011Y01328*
X01101Y01328*
X01102Y01328*
X01102Y01328*
X01103Y01329*
X01104Y01329*
X01105Y0133*
X01106Y0133*
X01106Y01331*
X01107Y01332*
X01107Y01318*
G37*
G36*
X01143Y01292D02*
X01142Y01293D01*
X01141Y01293*
X0114Y01294*
X01139Y01294*
X01139Y01295*
X01138Y01295*
X01137Y01295*
X01136Y01296*
X01135Y01296*
X01134Y01296*
Y01302*
X01135Y01302*
X01136Y01302*
X01137Y01302*
X01138Y01302*
X01139Y01303*
X01139Y01303*
X0114Y01304*
X01141Y01304*
X01142Y01305*
X01143Y01306*
Y01292*
G37*
G36*
X0093Y01272D02*
X0093Y01272D01*
X00931Y01271*
X00932Y01271*
X00933Y0127*
X00934Y0127*
X00935Y0127*
X00936Y0127*
X00937Y0127*
X00938*
X00928Y0126*
X00928Y01261*
X00928Y01262*
X00928Y01263*
X00928Y01264*
X00927Y01265*
X00927Y01266*
X00926Y01266*
X00926Y01267*
X00925Y01268*
X00925Y01268*
X00929Y01273*
X0093Y01272*
G37*
G36*
X01021Y01213D02*
X0102Y01214D01*
X01019Y01214*
X01018Y01215*
X01018Y01216*
X01017Y01216*
X01016Y01216*
X01015Y01217*
X01014Y01217*
X01013Y01217*
X01013Y01217*
X01013Y01223*
X01013Y01223*
X01014Y01223*
X01015Y01223*
X01016Y01224*
X01017Y01224*
X01018Y01224*
X01019Y01225*
X01019Y01225*
X0102Y01226*
X01021Y01227*
X01021Y01213*
G37*
G36*
X00991Y01188D02*
X0099Y01189D01*
X00989Y01189*
X00988Y0119*
X00988Y01191*
X00987Y01191*
X00986Y01191*
X00985Y01192*
X00984Y01192*
X00983Y01192*
X00983Y01192*
Y01198*
X00983Y01198*
X00984Y01198*
X00985Y01198*
X00986Y01199*
X00987Y01199*
X00988Y01199*
X00988Y012*
X00989Y012*
X0099Y01201*
X00991Y01202*
Y01188*
G37*
G36*
X-00749Y00951D02*
X-00748Y0095D01*
X-00747Y00949*
X-00746Y00949*
X-00745Y00948*
X-00744Y00948*
X-00744Y00948*
X-00743Y00948*
X-00742Y00947*
X-00741Y00947*
Y00941*
X-00742Y00941*
X-00743Y00941*
X-00744Y00941*
X-00744Y00941*
X-00745Y0094*
X-00746Y0094*
X-00747Y00939*
X-00748Y00939*
X-00749Y00938*
X-00749Y00937*
X-00749Y00951*
X-00749Y00951*
G37*
G36*
X00329Y00518D02*
X00328Y00519D01*
X00328Y00519*
X00327Y0052*
X00326Y0052*
X00325Y00521*
X00324Y00521*
X00323Y00522*
X00323Y00522*
X00322Y00522*
X00321Y00522*
Y00528*
X00322Y00528*
X00323Y00528*
X00323Y00528*
X00324Y00528*
X00325Y00529*
X00326Y00529*
X00327Y0053*
X00328Y0053*
X00328Y00531*
X00329Y00532*
Y00518*
G37*
%LNmod_duo_x_g3399-4*%
%LPC*%
G36*
X00277Y00099D02*
X00272Y00098D01*
X00267Y00095*
X00267Y00095*
X00266Y00094*
X00266Y00094*
X00265Y00093*
X00265Y00093*
X00264Y00093*
X00264Y00093*
X00263Y00092*
X00263Y00092*
X00262Y00092*
X00262Y00092*
X00261Y00092*
X00214*
X00214Y00092*
X00213Y00092*
X00213Y00092*
X00212Y00092*
X00212Y00093*
X00211Y00093*
X00211Y00093*
X0021Y00093*
X0021Y00094*
X00209Y00094*
X00208Y00095*
X00208Y00095*
X00204Y00098*
X00198Y00099*
X00193Y00098*
X00188Y00095*
X00185Y0009*
X00184Y00085*
X00185Y00079*
X00188Y00075*
X00193Y00072*
X00198Y00071*
X00204Y00072*
X00208Y00075*
X00208Y00075*
X00209Y00076*
X0021Y00076*
X0021Y00076*
X00211Y00077*
X00211Y00077*
X00212Y00077*
X00212Y00077*
X00213Y00077*
X00213Y00078*
X00214Y00078*
X00214Y00078*
X00261*
X00262Y00078*
X00262Y00078*
X00263Y00077*
X00263Y00077*
X00264Y00077*
X00264Y00077*
X00265Y00077*
X00265Y00076*
X00266Y00076*
X00266Y00076*
X00267Y00075*
X00267Y00075*
X00272Y00072*
X00277Y00071*
X00282Y00072*
X00287Y00075*
X0029Y00079*
X00291Y00085*
X0029Y0009*
X00287Y00095*
X00282Y00098*
X00277Y00099*
G37*
G36*
X00061Y00087D02*
X00055Y00086D01*
X00051Y00083*
X00047Y00078*
X00046Y00073*
X00047Y00067*
X00051Y00063*
X00055Y0006*
X00061Y00059*
X00066Y0006*
X00071Y00063*
X00074Y00067*
X00075Y00073*
X00074Y00078*
X00071Y00083*
X00066Y00086*
X00061Y00087*
G37*
G36*
X00513Y00044D02*
X00507Y00043D01*
X00503Y0004*
X005Y00035*
X00499Y0003*
X005Y00024*
X00503Y0002*
X00507Y00017*
X00513Y00016*
X00518Y00017*
X00523Y0002*
X00526Y00024*
X00527Y0003*
X00526Y00035*
X00523Y0004*
X00518Y00043*
X00513Y00044*
G37*
G36*
X00456Y00016D02*
X0045Y00014D01*
X00445Y00011*
X00441Y00006*
X0044Y0*
X00441Y-00006*
X00445Y-00011*
X0045Y-00014*
X00456Y-00016*
X00462Y-00014*
X00468Y-00011*
X00471Y-00006*
X00472Y0*
X00471Y00006*
X00468Y00011*
X00462Y00014*
X00456Y00016*
G37*
G36*
X0D02*
X-00006Y00014D01*
X-00011Y00011*
X-00014Y00006*
X-00016Y0*
X-00014Y-00006*
X-00011Y-00011*
X-00006Y-00014*
X0Y-00016*
X00006Y-00014*
X00011Y-00011*
X00014Y-00006*
X00016Y0*
X00014Y00006*
X00011Y00011*
X00006Y00014*
X0Y00016*
G37*
G36*
X00061Y-00025D02*
X00055Y-00026D01*
X00051Y-00029*
X00047Y-00034*
X00046Y-00039*
X00047Y-00044*
X00051Y-00049*
X00055Y-00052*
X00061Y-00053*
X00066Y-00052*
X00071Y-00049*
X00074Y-00044*
X00075Y-00039*
X00074Y-00034*
X00071Y-00029*
X00066Y-00026*
X00061Y-00025*
G37*
G36*
X00277Y-0049D02*
X00272Y-00491D01*
X00267Y-00494*
X00264Y-00499*
X00263Y-00504*
X00264Y-0051*
X00267Y-00514*
X00272Y-00517*
X00277Y-00518*
X00282Y-00517*
X00287Y-00514*
X0029Y-0051*
X00291Y-00504*
X0029Y-00499*
X00287Y-00494*
X00282Y-00491*
X00277Y-0049*
G37*
G36*
X00316Y-0049D02*
X00311Y-00491D01*
X00306Y-00494*
X00303Y-00499*
X00302Y-00504*
X00303Y-0051*
X00306Y-00514*
X00311Y-00517*
X00316Y-00518*
X00322Y-00517*
X00326Y-00514*
X00329Y-0051*
X00331Y-00504*
X00329Y-00499*
X00326Y-00494*
X00322Y-00491*
X00316Y-0049*
G37*
%LNmod_duo_x_g3399-5*%
%LPD*%
G36*
X0027Y00078D02*
X00269Y00079D01*
X00268Y00079*
X00268Y0008*
X00267Y0008*
X00266Y00081*
X00265Y00081*
X00264Y00082*
X00264Y00082*
X00263Y00082*
X00262Y00082*
Y00088*
X00263Y00088*
X00264Y00088*
X00264Y00088*
X00265Y00089*
X00266Y00089*
X00267Y00089*
X00268Y0009*
X00268Y0009*
X00269Y00091*
X0027Y00092*
Y00078*
G37*
G36*
X00206Y00091D02*
X00207Y0009D01*
X00208Y0009*
X00209Y00089*
X00209Y00089*
X0021Y00089*
X00211Y00088*
X00212Y00088*
X00213Y00088*
X00214Y00088*
Y00082*
X00213Y00082*
X00212Y00082*
X00211Y00082*
X0021Y00081*
X00209Y00081*
X00209Y0008*
X00208Y0008*
X00207Y00079*
X00206Y00079*
X00205Y00078*
Y00092*
X00206Y00091*
G37*
G54D11*
X0013Y01767D02*
Y01863D01*
X00838Y-00279D02*
X00838Y-0028D01*
Y-00389D02*
Y-0028D01*
X00548Y-00259D02*
X00563D01*
X00523Y-00283D02*
X00548Y-00259D01*
X00523Y-00389D02*
Y-00283D01*
G54D13*
X-00889Y-00275D03*
Y-00236D03*
Y-00196D03*
Y-00157D03*
Y-00118D03*
Y-00078D03*
Y-00039D03*
Y0D03*
Y00039D03*
Y00078D03*
Y00118D03*
Y00157D03*
Y00196D03*
Y00236D03*
Y00275D03*
Y00314D03*
Y00354D03*
Y00393D03*
Y00433D03*
Y00472D03*
Y00511D03*
Y00551D03*
Y0059D03*
Y00629D03*
Y00669D03*
Y00708D03*
Y00747D03*
Y00787D03*
Y00826D03*
Y00866D03*
Y00905D03*
Y00944D03*
Y00984D03*
Y01023D03*
Y01062D03*
Y01102D03*
Y01141D03*
Y01181D03*
Y0122D03*
Y01259D03*
Y01299D03*
Y01338D03*
Y01377D03*
Y01417D03*
Y01456D03*
Y01496D03*
Y01535D03*
Y01574D03*
Y01614D03*
X01267Y01653D03*
Y01614D03*
Y01574D03*
Y01535D03*
Y01496D03*
Y01456D03*
Y01417D03*
Y01377D03*
Y01338D03*
Y01299D03*
Y01259D03*
Y0122D03*
Y01181D03*
Y01141D03*
Y01102D03*
Y01062D03*
Y01023D03*
Y00984D03*
Y00944D03*
Y00905D03*
Y00866D03*
Y00826D03*
Y00787D03*
Y00747D03*
Y00708D03*
Y00669D03*
Y00629D03*
Y0059D03*
Y00551D03*
Y00511D03*
Y00472D03*
Y00433D03*
Y00393D03*
Y00354D03*
Y00314D03*
Y00275D03*
Y00236D03*
Y00196D03*
Y00157D03*
Y00118D03*
Y00078D03*
Y00039D03*
Y0D03*
Y-00039D03*
Y-00078D03*
Y-00118D03*
Y-00157D03*
Y-00196D03*
Y-00236D03*
Y-00275D03*
X-00889Y01653D03*
G54D14*
X01153Y01767D03*
X-00775Y-00389D03*
X-00735D03*
X-00696D03*
X-00657D03*
X-00617D03*
X-00578D03*
X-00539D03*
X-00499D03*
X-0046D03*
X-0042D03*
X-00381D03*
X-00342D03*
X-00302D03*
X-00263D03*
X-00224D03*
X-00184D03*
X-00145D03*
X-00106D03*
X-00066D03*
X-00027D03*
X00012D03*
X00051D03*
X0009D03*
X0013D03*
X00169D03*
X00208D03*
X00248D03*
X00287D03*
X00327D03*
X00366D03*
X00405D03*
X00445D03*
X00484D03*
X00523D03*
X00563D03*
X00602D03*
X00642D03*
X00681D03*
X0072D03*
X0076D03*
X00799D03*
X00838D03*
X00878D03*
X00917D03*
X00956D03*
X00996D03*
X01035D03*
X01075D03*
X01114D03*
X01153D03*
X01114Y01767D03*
X01075D03*
X01035D03*
X00996D03*
X00956D03*
X00917D03*
X00878D03*
X00838D03*
X00799D03*
X0076D03*
X0072D03*
X00681D03*
X00642D03*
X00602D03*
X00563D03*
X00523D03*
X00484D03*
X00445D03*
X00405D03*
X00366D03*
X00327D03*
X00287D03*
X00248D03*
X00208D03*
X00169D03*
X0013D03*
X0009D03*
X00051D03*
X00012D03*
X-00027D03*
X-00066D03*
X-00106D03*
X-00145D03*
X-00184D03*
X-00224D03*
X-00263D03*
X-00302D03*
X-00342D03*
X-00381D03*
X-0042D03*
X-0046D03*
X-00499D03*
X-00539D03*
X-00578D03*
X-00617D03*
X-00657D03*
X-00696D03*
X-00735D03*
X-00775D03*
G54D15*
X01153Y-00499D03*
X00445D03*
G54D16*
X00806Y-00499D03*
X00759D03*
G54D23*
X0098Y01824D02*
D01*
X0098Y01829*
X0098Y01833*
X00979Y01837*
X00978Y01842*
X00977Y01846*
X00975Y0185*
X00973Y01854*
X00971Y01858*
X00968Y01861*
X00966Y01865*
X00963Y01868*
X00962Y01869*
X00962Y01869D02*
D01*
X00959Y01872*
X00955Y01875*
X00951Y01877*
X00947Y0188*
X00943Y01882*
X00939Y01884*
X00935Y01885*
X00931Y01886*
X00926Y01887*
X00922Y01888*
X00917Y01888*
X00916Y01888*
X0098Y0182D02*
D01*
X0098Y01819*
X00981Y01819*
X00981Y01818*
X00981Y01818*
X00981Y01817*
X00981Y01817*
X00981Y01816*
X00982Y01816*
X00982Y01815*
X00982Y01815*
X00983Y01815*
X00983Y01815*
X00985Y01814D02*
D01*
X00985Y01814*
X00985Y01814*
X00985Y01814*
X00985Y01814*
X00985Y01814*
X00996Y01794D02*
D01*
X00996Y01796*
X00996Y01797*
X00995Y01799*
X00995Y018*
X00995Y01801*
X00994Y01802*
X00994Y01804*
X00993Y01805*
X00992Y01806*
X00991Y01807*
X0099Y01808*
X0099Y01808*
X00985Y01814D02*
D01*
X00985Y01814*
X00985Y01814*
X00985Y01814*
X00984Y01814*
X00984Y01814*
X00984Y01814*
X00984Y01814*
X00984Y01814*
X00984Y01814*
X00984Y01814*
X00984Y01814*
X00984Y01814*
X00983Y01815D02*
D01*
X00983Y01814*
X00983Y01814*
X00983Y01814*
X00983Y01814*
X00983Y01814*
X00983Y01814*
X00983Y01814*
X00983Y01814*
X00984Y01814*
X00984Y01814*
X00984Y01814*
X00984Y01814*
X00956Y01863D02*
D01*
X00953Y01866*
X0095Y01868*
X00947Y0187*
X00943Y01872*
X0094Y01874*
X00936Y01876*
X00932Y01877*
X00929Y01878*
X00925Y01879*
X00921Y01879*
X00917Y01879*
X00916Y01879*
X00972Y01824D02*
D01*
X00972Y01828*
X00971Y01832*
X00971Y01836*
X0097Y01839*
X00969Y01843*
X00967Y01846*
X00965Y0185*
X00964Y01853*
X00961Y01856*
X00959Y01859*
X00956Y01862*
X00956Y01863*
X0097Y01815D02*
D01*
X0097Y01815*
X0097Y01815*
X00971Y01816*
X00971Y01816*
X00971Y01817*
X00971Y01817*
X00972Y01818*
X00972Y01818*
X00972Y01819*
X00972Y01819*
X00972Y0182*
X00972Y0182*
X00969Y01814D02*
D01*
X00969Y01814*
X00969Y01814*
X00969Y01814*
X00969Y01814*
X00969Y01814*
X00969Y01814*
X00969Y01814*
X00969Y01814*
X00969Y01814*
X00969Y01814*
X0097Y01814*
X0097Y01815*
X00969Y01814D02*
D01*
X00968Y01814*
X00968Y01814*
X00968Y01814*
X00968Y01814*
X00968Y01814*
X00968Y01814*
X00968Y01814*
X00968Y01814*
X00968Y01814*
X00968Y01814*
X00968Y01814*
X00968Y01814*
X00962Y01808D02*
D01*
X00961Y01807*
X0096Y01806*
X0096Y01805*
X00959Y01804*
X00958Y01803*
X00958Y01802*
X00957Y018*
X00957Y01799*
X00957Y01798*
X00957Y01796*
X00956Y01795*
X00956Y01794*
X00962Y01869D02*
X00962Y01869D01*
X0098Y0182D02*
Y01824D01*
X0082Y01888D02*
X00916D01*
X00985Y01814D02*
X0099Y01808D01*
X00996Y01767D02*
Y01794D01*
X00985Y01814D02*
X00985Y01814D01*
X00984Y01814D02*
D01*
X0082Y01879D02*
X00916D01*
X00972Y0182D02*
Y01824D01*
X0097Y01815D02*
D01*
X00962Y01808D02*
X00968Y01814D01*
X00962Y01808D02*
D01*
X00813Y01895D02*
Y01896D01*
Y01895D02*
X0082Y01888D01*
X00813Y01872D02*
X0082Y01879D01*
X00813Y01872D02*
Y01872D01*
X00956Y01767D02*
Y01794D01*
X00673Y01853D02*
Y01855D01*
X00665Y01845D02*
X00673Y01853D01*
X00665Y01839D02*
Y01845D01*
Y01839D02*
X00666Y01838D01*
Y01823D02*
Y01838D01*
X00648Y01852D02*
Y01854D01*
Y01852D02*
X00656Y01844D01*
Y01828D02*
Y01844D01*
Y01828D02*
X00657Y01827D01*
Y01817D02*
Y01827D01*
D01*
D01*
X00666Y01823D02*
D01*
Y01817D02*
Y01823D01*
Y01817D02*
X00668Y01814D01*
X00669*
X00681Y01803*
Y01767D02*
Y01803D01*
X00654Y01814D02*
X00657Y01817D01*
X00653Y01814D02*
X00654D01*
X00642Y01803D02*
X00653Y01814D01*
X00642Y01767D02*
Y01803D01*
G54D24*
X-00889Y01102D02*
X-00564D01*
X-00204Y-00499D02*
X-00185D01*
X-00224Y-0048D02*
X-00204Y-00499D01*
X-00224Y-0048D02*
Y-00389D01*
X00139Y-00501D02*
Y-00449D01*
X00116Y-00524D02*
X00139Y-00501D01*
X-00249Y-00524D02*
X00116D01*
X-00292Y-00481D02*
X-00249Y-00524D01*
X00208Y-00516D02*
Y-00389D01*
X00181Y-00544D02*
X00208Y-00516D01*
X-00266Y-00544D02*
X00181D01*
X-00316Y-00494D02*
X-00266Y-00544D01*
X-00331Y01578D02*
X-00312D01*
X-00302Y01568*
X-00213*
X-00175Y01606*
X00003*
X00035Y01637*
Y01693*
X00061Y0168D02*
X00081Y017D01*
X-00369Y01549D02*
X00012D01*
X-00461Y01641D02*
X-00369Y01549D01*
X00012D02*
X00038Y01575D01*
X00035Y01693D02*
X00051Y0171D01*
Y01767*
X-00084Y0029D02*
X00213D01*
X00238Y00314*
X00257Y003D02*
Y00309D01*
X00263Y00314*
Y0033*
X00253Y0034D02*
X00263Y0033D01*
X00233Y0034D02*
X00253D01*
X00208Y00314D02*
X00233Y0034D01*
X-00097Y00314D02*
X00208D01*
X-00342Y-00389D02*
X-00341Y-0039D01*
Y-00474D02*
Y-0039D01*
X-0099Y0059D02*
D01*
X-0099Y0059D01*
X-00889*
X-00988Y00669D02*
X-00988Y00669D01*
X-00889*
X0072Y-00499D02*
X00759D01*
X-00446Y00819D02*
X-00391Y00765D01*
X-00779Y00819D02*
X-00446D01*
X-00786Y00826D02*
X-00779Y00819D01*
X00041Y00185D02*
X00563D01*
X00167Y0168D02*
X00257D01*
X00238Y017D02*
X00248Y0171D01*
X00081Y017D02*
X00238D01*
X00159Y01658D02*
Y01672D01*
X00167Y0168*
X-00316Y-00494D02*
Y-00484D01*
X-00295Y-00461D02*
X-00292Y-00464D01*
Y-00481D02*
Y-00464D01*
X00134Y-00444D02*
X00139Y-00449D01*
X00134Y-00444D02*
Y-00394D01*
X0013Y-00389D02*
X00134Y-00394D01*
X-00362Y00118D02*
X-00276D01*
Y0145D02*
X-00023D01*
X-00889Y00118D02*
X-00362D01*
X-00889Y00275D02*
X-00251D01*
X-00251Y00275*
X00405Y-00473D02*
X00406Y-00474D01*
X00405Y-00473D02*
Y-00389D01*
X00563Y-00299D02*
X00568D01*
X00602Y-00334*
Y-00389D02*
Y-00334D01*
X-00789Y00472D02*
X-00786Y00475D01*
X-00889Y00472D02*
X-00789D01*
X-00756Y00354D02*
X-00756Y00354D01*
X-00889Y00354D02*
X-00756D01*
X-00722Y01377D02*
X-00706Y01361D01*
X-00889Y01377D02*
X-00722D01*
X-00236Y00078D02*
X-00236Y00078D01*
X-00889Y00078D02*
X-00236D01*
X-00174Y00039D02*
X-00171Y00042D01*
X-00889Y00039D02*
X-00174D01*
X-00889Y0D02*
X-00171D01*
X-00735Y00236D02*
X-00735Y00236D01*
X-00889Y00236D02*
X-00735D01*
X00563Y-0046D02*
X00563Y-00461D01*
X00563Y-0046D02*
Y-00389D01*
X00169Y-00224D02*
X00333D01*
X00356Y-00201D02*
Y-00196D01*
X00333Y-00224D02*
X00356Y-00201D01*
X00172Y-00242D02*
X00348D01*
X00366Y-00224D02*
X00367D01*
X00372Y-0022*
X00375*
X00348Y-00242D02*
X00366Y-00224D01*
X00365Y-00242D02*
X00465D01*
X00299Y-00308D02*
X00365Y-00242D01*
X00257Y-00308D02*
X00299D01*
X00465Y-00242D02*
X00563Y-00144D01*
X00588D02*
Y0D01*
X00473Y-00259D02*
X00588Y-00144D01*
X00381Y-00259D02*
X00473D01*
X00327Y-00313D02*
X00381Y-00259D01*
X00327Y-00389D02*
Y-00313D01*
X00613Y-00159D02*
Y00105D01*
X00488Y-00283D02*
X00613Y-00159D01*
X00406Y-00283D02*
X00488D01*
X00366Y-00323D02*
X00406Y-00283D01*
X00366Y-00389D02*
Y-00323D01*
X00164Y-00229D02*
X00169Y-00224D01*
X-00101Y-00229D02*
X00164D01*
X-00212Y-00118D02*
X-00101Y-00229D01*
X-00889Y-00118D02*
X-00212D01*
X00165Y-00249D02*
X00172Y-00242D01*
X-00107Y-00249D02*
X00165D01*
X-00199Y-00157D02*
X-00107Y-00249D01*
X-00889Y-00157D02*
X-00199D01*
X00563Y-00144D02*
Y00134D01*
X00248Y-00318D02*
X00257Y-00308D01*
X00248Y-00389D02*
Y-00318D01*
X01075Y-00389D02*
Y00078D01*
X0082Y01377D02*
X00939Y01259D01*
X-00174Y00425D02*
X00858D01*
X-00206Y00393D02*
X-00174Y00425D01*
X-00889Y00393D02*
X-00206D01*
X-00142D02*
X00159D01*
X00159Y00393*
X-00221Y00314D02*
X-00142Y00393D01*
X-00889Y00314D02*
X-00221D01*
X-00487Y01641D02*
X-00461D01*
X-00513Y01621D02*
X-00473D01*
X-00539Y0121D02*
X-00308D01*
X-00564Y0119D02*
X-00291D01*
X-00236Y01245D02*
Y01303D01*
X-00291Y0119D02*
X-00236Y01245D01*
X-00263Y01255D02*
Y01308D01*
X-00308Y0121D02*
X-00263Y01255D01*
X-00889Y01141D02*
X-00538D01*
X-00889Y00629D02*
X-00889Y00629D01*
X-0096Y00629D02*
X-00889D01*
Y00708D02*
X-00889Y00708D01*
X-0096Y00708D02*
X-00889D01*
X00257Y0168D02*
X00287Y0171D01*
Y01767*
X00248Y0171D02*
Y01767D01*
X-00889Y00118D02*
X-00889Y00118D01*
X00238Y00134D02*
X00238Y00134D01*
X00179Y00134D02*
X00238D01*
X00198Y00085D02*
X00277D01*
X-00127Y00365D02*
X00297D01*
X00271Y01558D02*
X00474D01*
X00208Y01496D02*
X00271Y01558D01*
X00296Y01515D02*
X00448D01*
X00878Y01355D02*
X00908Y01325D01*
X00428Y01377D02*
X0082D01*
X00938Y0122D02*
X01028D01*
X0101Y01377D02*
X01058D01*
X00917Y-00389D02*
Y00185D01*
X00994Y01353D02*
X01089D01*
X00956Y-00389D02*
Y00185D01*
X00967Y0138D02*
X00994Y01353D01*
X00996Y-00389D02*
Y00185D01*
X01035Y-00389D02*
Y00185D01*
X0092Y01195D02*
X00998D01*
X00776Y01338D02*
X0092Y01195D01*
X008Y01358D02*
X00938Y0122D01*
X00878Y01355D02*
Y01369D01*
X00975Y01299D02*
X0115D01*
X00913Y01361D02*
X00975Y01299D01*
X00913Y01361D02*
Y0138D01*
X00987Y01325D02*
X01114D01*
X00939Y01373D02*
X00987Y01325D01*
X00939Y01373D02*
Y01402D01*
X00994Y01394D02*
X0101Y01377D01*
X00994Y01394D02*
Y01439D01*
X00958Y01475D02*
X00994Y01439D01*
X00488Y01475D02*
X00958D01*
X00471Y01456D02*
X00936D01*
X00967Y0138D02*
Y01425D01*
X00936Y01456D02*
X00967Y01425D01*
X00906Y01435D02*
X00939Y01402D01*
X00457Y01435D02*
X00906D01*
X00876Y01417D02*
X00913Y0138D01*
X00446Y01417D02*
X00876D01*
X00847Y014D02*
X00878Y01369D01*
X00436Y014D02*
X00847D01*
X00407Y01358D02*
X008D01*
X00396Y01338D02*
X00776D01*
X00448Y01515D02*
X00488Y01475D01*
X00256D02*
X00296Y01515D01*
X00105Y01475D02*
X00256D01*
X00061Y0143D02*
X00105Y01475D01*
X00061Y014D02*
Y0143D01*
X00308Y01496D02*
X00432D01*
X00471Y01456*
X00262Y0145D02*
X00308Y01496D01*
X00118Y0145D02*
X00262D01*
X0008Y01412D02*
X00118Y0145D01*
X0008Y0137D02*
Y01412D01*
X00417Y01475D02*
X00457Y01435D01*
X00277Y0143D02*
X00322Y01475D01*
X00417*
X00277Y014D02*
Y0143D01*
X00406Y01456D02*
X00446Y01417D01*
X00297Y01415D02*
X00338Y01456D01*
X00406*
X00297Y0137D02*
Y01415D01*
X00351Y01435D02*
X00401D01*
X00436Y014*
X00316D02*
X00351Y01435D01*
X00363Y01417D02*
X00388D01*
X00336Y0139D02*
X00363Y01417D01*
X00388D02*
X00428Y01377D01*
X00336Y0137D02*
Y0139D01*
X00396Y01369D02*
X00407Y01358D01*
X00377D02*
Y01399D01*
Y01358D02*
X00396Y01338D01*
X-00308Y00673D02*
X-00159Y00525D01*
X-00114Y00335D02*
X00198D01*
X-00292Y00157D02*
X-00114Y00335D01*
X00474Y01558D02*
X00494Y01578D01*
X001Y0159D02*
Y01632D01*
X-00735Y01574D02*
X-00476D01*
X-00392Y0149*
X-00221Y0147D02*
X00051D01*
X-00889Y-00236D02*
X-00223D01*
X-00221Y-00234*
X00045Y0149D02*
X0007Y01515D01*
X-00392Y0149D02*
X00045D01*
X-00473Y01621D02*
X-00381Y0153D01*
X-00889Y-00196D02*
X-00205D01*
X-00204Y-00196*
X-00197*
X-00195Y-00193*
Y0151D02*
X00036D01*
X-00145Y-00023D02*
Y00266D01*
X-00161Y-00039D02*
X-00145Y-00023D01*
X-00889Y-00039D02*
X-00161D01*
X-00145Y00266D02*
X-00097Y00314D01*
X-00114Y-00047D02*
Y0026D01*
X-00145Y-00078D02*
X-00114Y-00047D01*
X-00889Y-00078D02*
X-00145D01*
X-00114Y0026D02*
X-00084Y0029D01*
X00038Y01575D02*
X00085D01*
X001Y0159*
X-00381Y0153D02*
X00026D01*
X00055Y01558*
X00103*
X0012Y01575*
Y01648*
X00036Y0151D02*
X0006Y01534D01*
X00192*
X00255Y01597*
X00445*
X00454Y01607*
Y01632*
X0007Y01515D02*
X00198D01*
X00261Y01578*
X00461*
X00474Y01591*
Y01648*
X00051Y0147D02*
X00077Y01496D01*
X00208*
X00494Y01578D02*
Y01632D01*
X-00295Y00196D02*
X-00127Y00365D01*
X-00889Y00196D02*
X-00295D01*
X-00889Y00157D02*
X-00292D01*
X-00391Y0059D02*
Y00765D01*
X-00089Y00157D02*
X00602D01*
X001Y0024D02*
X00686D01*
X0012Y00268D02*
X00713D01*
X00041Y00185D02*
D01*
X00713Y00268D02*
X00799Y00183D01*
Y-00389D02*
Y00183D01*
X00686Y0024D02*
X0076Y00166D01*
Y-00389D02*
Y00166D01*
X00602Y00157D02*
X00642Y00118D01*
Y-00389D02*
Y00118D01*
X-00775Y-00459D02*
Y-00389D01*
X-00735Y-00459D02*
Y-00389D01*
X-00499D02*
Y-00319D01*
X-0046Y-00389D02*
Y-00305D01*
X-00381Y-00389D02*
Y-00319D01*
X-00263Y-00459D02*
Y-00389D01*
X00336Y00525D02*
X00336D01*
X-00159D02*
X00336D01*
X-00251Y0045D02*
X00395D01*
X-00391Y0059D02*
X-00251Y0045D01*
X-00308Y00673D02*
Y00848D01*
X-00404Y00944D02*
X-00308Y00848D01*
X-00756Y00944D02*
X-00404D01*
X-00889Y00905D02*
X-00564D01*
X-00889Y00866D02*
X-00539D01*
X0012Y0136D02*
Y014D01*
X00098Y01338D02*
X0012Y0136D01*
X-00041Y01338D02*
X00098D01*
X-00048Y01345D02*
X-00041Y01338D01*
X-00195Y01345D02*
X-00048D01*
X-00236Y01303D02*
X-00195Y01345D01*
X-00211Y0136D02*
X-00041D01*
X-00031Y0135*
X00103Y0136D02*
Y01408D01*
X00093Y0135D02*
X00103Y0136D01*
X-00031Y0135D02*
X00093D01*
X-00263Y01308D02*
X-00211Y0136D01*
X00139Y0137D02*
X00153Y01383D01*
Y01411*
X00139Y01425D02*
X00153Y01411D01*
X0012Y01425D02*
X00139D01*
X00103Y01408D02*
X0012Y01425D01*
X00001Y014D02*
Y01425D01*
X-00023Y0145D02*
X00001Y01425D01*
X-00016Y01371D02*
Y0141D01*
X-00017Y0137D02*
X-00016Y01371D01*
X-00031Y01425D02*
X-00016Y0141D01*
X-00451Y01425D02*
X-00031D01*
X-00037Y014D02*
X-00037Y014D01*
X-00481Y014D02*
X-00037D01*
X-00889Y01456D02*
X-00538D01*
X-00481Y014*
X-00889Y01496D02*
X-00521D01*
X-00451Y01425*
X01153Y-00499D02*
Y-00389D01*
X00445Y-00499D02*
Y-00389D01*
G54D25*
X00817Y-00488D02*
X00838Y-00467D01*
X00817Y-00492D02*
Y-00488D01*
X0081Y-00499D02*
X00817Y-00492D01*
X00806Y-00499D02*
X0081D01*
X00838Y-00467D02*
Y-00389D01*
X01175Y-00494D02*
X01224Y-00445D01*
X01159Y-00494D02*
X01175D01*
X01153Y-00499D02*
X01159Y-00494D01*
X-00236Y-00564D02*
X01089D01*
X01144Y-00539D02*
X01153Y-0053D01*
Y-00499*
X01114Y-00539D02*
X01144D01*
X01089Y-00564D02*
X01114Y-00539D01*
G54D26*
X-0097Y00433D02*
X-00889D01*
X-01001D02*
X-0097D01*
X-01026D02*
X-01001D01*
X-01051D02*
X-01026D01*
G54D27*
X-01194Y00694D03*
X0148D03*
G54D28*
X-00416Y00574D03*
X-00462Y00984D03*
X-00564Y01102D03*
X-00539Y00866D03*
X-00647Y00983D03*
X-00185Y-00499D03*
X-00513Y00798D03*
X-00342Y00826D03*
X-00331Y01578D03*
X0008Y01658D03*
X00139Y01632D03*
X00061Y0168D03*
X-00381Y00488D03*
X-0016Y00489D03*
X00238Y00314D03*
X-00295Y-00461D03*
X-00996Y00673D03*
X-0099Y0059D03*
X-0096Y00629D03*
Y00708D03*
X00721Y-00499D03*
X-01081Y0172D03*
X-00239Y00078D03*
X-00646Y00842D03*
X-00236Y-00564D03*
X-00308Y01319D03*
X-00462Y0132D03*
X00297Y-00544D03*
X-00984Y01209D03*
X00218Y01637D03*
X00257Y01637D03*
X00277Y01658D03*
X00238Y01658D03*
X-00487Y01641D03*
X00159Y01658D03*
X-00618Y00453D03*
X-0103Y01496D03*
X-00316Y-00484D03*
X-00276Y0145D03*
Y00118D03*
X-00251Y01591D03*
X-00251Y00275D03*
X00406Y-00474D03*
X0012Y-00467D03*
X00277Y-00504D03*
X0008Y-00209D03*
X00563Y-00299D03*
X-00786Y00826D03*
Y00475D03*
X-00756Y00354D03*
Y00944D03*
X-00706Y01361D03*
X-00539Y00561D03*
X00375Y00493D03*
X00356Y00475D03*
X-00564Y00455D03*
X-0059Y00433D03*
X00943Y00405D03*
X-00564Y00905D03*
X00395Y-00196D03*
X00415Y-00175D03*
X-00171Y00042D03*
X-00171Y0D03*
X-00735Y00236D03*
X00316Y-00504D03*
X00563Y-00461D03*
X00356Y-00196D03*
X00375Y-0022D03*
X00563Y00185D03*
Y00134D03*
X00061Y00073D03*
X00613Y00105D03*
X00061Y-00039D03*
X01075Y00078D03*
X00858Y00425D03*
X00159Y00393D03*
X-00513Y01621D03*
X-00539Y0121D03*
X-00564Y0119D03*
X-00538Y01141D03*
X-01132Y01755D03*
X-01106Y01736D03*
X-01055Y017D03*
X00316Y01693D03*
X00297Y01677D03*
X00813Y01896D03*
Y01872D03*
X00257Y0029D03*
X00238Y00134D03*
X00198Y00335D03*
X00297Y00365D03*
X01161Y01977D03*
X00698Y01566D03*
X00733D03*
X00803D03*
X00768D03*
X00873D03*
X00838D03*
Y0153D03*
X00873D03*
X00768D03*
X00803D03*
X00733D03*
X00698D03*
Y016D03*
X00733D03*
X00803D03*
X00768D03*
X00873D03*
X00838D03*
X00698Y01635D03*
X00733D03*
X00803D03*
X00768D03*
X00873D03*
X00838D03*
X00603Y-00299D03*
X01508Y-00314D03*
X01543D03*
X01438D03*
X01473D03*
X01403D03*
X01368D03*
X01508Y-00349D03*
X01543D03*
X01438D03*
X01473D03*
X01403D03*
X01368D03*
Y-00419D03*
X01403D03*
X01473D03*
X01438D03*
X01543D03*
X01508D03*
Y-00383D03*
X01543D03*
X01438D03*
X01473D03*
X01403D03*
X01368D03*
X01058Y01862D03*
X-0097Y00433D03*
X-01001D03*
X-01026D03*
X-01051D03*
X00513Y01648D03*
X00078Y01965D03*
X0013Y01863D03*
X00038Y01865D03*
X00377Y01658D03*
X00415Y01643D03*
X00908Y01325D03*
X00938Y0126D03*
X00513Y0003D03*
X00998Y01195D03*
X01028Y0122D03*
X00588Y0D03*
X01058Y01377D03*
X01089Y01353D03*
X01114Y01325D03*
X0115Y01299D03*
X00917Y00185D03*
X00957D03*
X00996D03*
X01035Y00185D03*
X00061Y014D03*
X0008Y0137D03*
X00277Y014D03*
X00297Y0137D03*
X00316Y014D03*
X00336Y0137D03*
X00396Y01369D03*
X00377Y01399D03*
X00277Y00085D03*
X00198D03*
X00179Y00134D03*
X-00706Y01399D03*
X00048Y01375D03*
X001Y01632D03*
X-00735Y01574D03*
X-00221Y-00234D03*
X-00221Y0147D03*
X-00195Y-00193D03*
Y0151D03*
X0012Y01648D03*
X00494Y01632D03*
X00474Y01648D03*
X00454Y01632D03*
X00435Y01534D03*
X-00089Y00157D03*
X00838Y-00279D03*
X00563Y-00258D03*
X001Y0024D03*
X0012Y00268D03*
X00041Y00185D03*
X00159Y-00614D03*
X00139Y-00589D03*
X-00775Y-00461D03*
X-00735D03*
X00179Y-00259D03*
X-00499Y-00318D03*
X00218Y-00279D03*
X-0046Y-00304D03*
X00257Y-00461D03*
X00238Y-00175D03*
X-00263Y-00461D03*
X00198Y-00308D03*
X-00381Y-00318D03*
X-00341Y-00474D03*
X00395Y0045D03*
X00336Y00525D03*
X-00037Y014D03*
X-00017Y0137D03*
X00001Y014D03*
X00179D03*
X0012Y014D03*
X00139Y0137D03*
X00648Y01854D03*
X00673Y01855D03*
X00316Y-0003D03*
X00336Y-00085D03*
Y-00175D03*
X00238Y-00087D03*
X001Y-00175D03*
Y-00085D03*
X00278Y01534D03*
X01653Y0199D03*
X01608D03*
X01653Y0194D03*
X01608D03*
X01633Y01965D03*
X-01241Y01955D03*
X-01256Y-00604D03*
X01483Y01601D03*
X01518D03*
X01588D03*
X01553D03*
X01658D03*
X01623D03*
Y01565D03*
X01658D03*
X01553D03*
X01588D03*
X01518D03*
X01483D03*
Y01635D03*
X01518D03*
X01588D03*
X01553D03*
X01658D03*
X01623D03*
X01483Y0167D03*
X01518D03*
X01588D03*
X01553D03*
X01658D03*
X01623D03*
X01483Y01704D03*
X01518D03*
X01588D03*
X01553D03*
X01658D03*
X01623D03*
Y0174D03*
X01658D03*
X01553D03*
X01588D03*
X01518D03*
X01483D03*
X01323Y01765D03*
X01291D03*
X01393D03*
X01403Y0174D03*
X01263Y01765D03*
X01278Y0174D03*
X01308D03*
X01373D03*
X01338D03*
X01358Y01765D03*
M02*