G04 Layer_Color=65535*
%FSLAX25Y25*%
%MOIN*%
G70*
G01*
G75*
%ADD10C,0.02362*%
%ADD11C,0.01181*%
%ADD12C,0.00591*%
D10*
X-82457Y-35106D02*
G03*
X-82457Y-35106I-1118J0D01*
G01*
D11*
X119425Y-41106D02*
X126425D01*
Y-31606D01*
X-88575Y178894D02*
X-81575D01*
X-88575Y169394D02*
Y178894D01*
X119425D02*
X126425D01*
Y169394D02*
Y178894D01*
X-88575Y-31606D02*
X-88575Y-41106D01*
X-81575D01*
D12*
X115196Y195342D02*
Y198491D01*
X116770D01*
X117295Y197966D01*
Y196917D01*
X116770Y196392D01*
X115196D01*
X116245D02*
X117295Y195342D01*
X119919D02*
X118869D01*
X118344Y195867D01*
Y196917D01*
X118869Y197441D01*
X119919D01*
X120443Y196917D01*
Y196392D01*
X118344D01*
X121493Y197441D02*
X122543Y195342D01*
X123592Y197441D01*
X124642Y195342D02*
Y195867D01*
X125166D01*
Y195342D01*
X124642D01*
X127265Y197441D02*
X127790D01*
Y196917D01*
X127265D01*
Y197441D01*
Y195867D02*
X127790D01*
Y195342D01*
X127265D01*
Y195867D01*
X129889Y195342D02*
Y198491D01*
X130939Y197441D01*
X131988Y198491D01*
Y195342D01*
X133038Y198491D02*
Y195342D01*
X134612D01*
X135137Y195867D01*
Y197966D01*
X134612Y198491D01*
X133038D01*
X136186D02*
X138286Y195342D01*
Y198491D02*
X136186Y195342D01*
X139335Y196917D02*
X141434D01*
X142484Y198491D02*
Y196392D01*
X143533Y195342D01*
X144583Y196392D01*
Y198491D01*
X145632Y195342D02*
X146682D01*
X146157D01*
Y198491D01*
X145632Y197966D01*
X148256Y195342D02*
Y195867D01*
X148781D01*
Y195342D01*
X148256D01*
X150880Y197966D02*
X151405Y198491D01*
X152454D01*
X152979Y197966D01*
Y195867D01*
X152454Y195342D01*
X151405D01*
X150880Y195867D01*
Y197966D01*
X156128Y195342D02*
X154028D01*
X156128Y197441D01*
Y197966D01*
X155603Y198491D01*
X154553D01*
X154028Y197966D01*
X115196Y193295D02*
Y190147D01*
X116770D01*
X117295Y190672D01*
Y192771D01*
X116770Y193295D01*
X115196D01*
X118869Y192246D02*
X119919D01*
X120443Y191721D01*
Y190147D01*
X118869D01*
X118344Y190672D01*
X118869Y191196D01*
X120443D01*
X122018Y192771D02*
Y192246D01*
X121493D01*
X122543D01*
X122018D01*
Y190672D01*
X122543Y190147D01*
X125691D02*
X124642D01*
X124117Y190672D01*
Y191721D01*
X124642Y192246D01*
X125691D01*
X126216Y191721D01*
Y191196D01*
X124117D01*
X127265Y192246D02*
X127790D01*
Y191721D01*
X127265D01*
Y192246D01*
Y190672D02*
X127790D01*
Y190147D01*
X127265D01*
Y190672D01*
X135137Y190147D02*
X133038D01*
X135137Y192246D01*
Y192771D01*
X134612Y193295D01*
X133563D01*
X133038Y192771D01*
X136186D02*
X136711Y193295D01*
X137761D01*
X138286Y192771D01*
Y190672D01*
X137761Y190147D01*
X136711D01*
X136186Y190672D01*
Y192771D01*
X141434Y190147D02*
X139335D01*
X141434Y192246D01*
Y192771D01*
X140909Y193295D01*
X139860D01*
X139335Y192771D01*
X142484D02*
X143008Y193295D01*
X144058D01*
X144583Y192771D01*
Y190672D01*
X144058Y190147D01*
X143008D01*
X142484Y190672D01*
Y192771D01*
X145632Y190147D02*
Y190672D01*
X146157D01*
Y190147D01*
X145632D01*
X148256Y192771D02*
X148781Y193295D01*
X149830D01*
X150355Y192771D01*
Y190672D01*
X149830Y190147D01*
X148781D01*
X148256Y190672D01*
Y192771D01*
X153504Y193295D02*
X151405D01*
Y191721D01*
X152454Y192246D01*
X152979D01*
X153504Y191721D01*
Y190672D01*
X152979Y190147D01*
X151929D01*
X151405Y190672D01*
X154553Y190147D02*
Y190672D01*
X155078D01*
Y190147D01*
X154553D01*
X157177D02*
X158227D01*
X157702D01*
Y193295D01*
X157177Y192771D01*
X161900Y193295D02*
X159801D01*
Y191721D01*
X160850Y192246D01*
X161375D01*
X161900Y191721D01*
Y190672D01*
X161375Y190147D01*
X160326D01*
X159801Y190672D01*
X-118860Y-54089D02*
X-119910D01*
Y-50940D01*
X-118860D01*
X-117286Y-54089D02*
Y-50940D01*
X-116236Y-51990D01*
X-115187Y-50940D01*
Y-54089D01*
X-114137Y-50940D02*
Y-54089D01*
X-112563D01*
X-112038Y-53564D01*
Y-51465D01*
X-112563Y-50940D01*
X-114137D01*
X-110988D02*
X-108889Y-54089D01*
Y-50940D02*
X-110988Y-54089D01*
X-107840Y-52514D02*
X-105741D01*
X-102592Y-50940D02*
X-104691D01*
Y-54089D01*
X-102592D01*
X-104691Y-52514D02*
X-103642D01*
X-101543Y-50940D02*
Y-54089D01*
X-99444D01*
X-96295Y-50940D02*
X-98394D01*
Y-54089D01*
X-96295D01*
X-98394Y-52514D02*
X-97345D01*
X-95245D02*
X-93146D01*
X-92097Y-51465D02*
X-91572Y-50940D01*
X-90523D01*
X-89998Y-51465D01*
Y-53564D01*
X-90523Y-54089D01*
X-91572D01*
X-92097Y-53564D01*
Y-51465D01*
X-88948D02*
X-88424Y-50940D01*
X-87374D01*
X-86849Y-51465D01*
Y-53564D01*
X-87374Y-54089D01*
X-88424D01*
X-88948Y-53564D01*
Y-51465D01*
X-85800D02*
X-85275Y-50940D01*
X-84225D01*
X-83701Y-51465D01*
Y-51990D01*
X-84225Y-52514D01*
X-84750D01*
X-84225D01*
X-83701Y-53039D01*
Y-53564D01*
X-84225Y-54089D01*
X-85275D01*
X-85800Y-53564D01*
X-82651Y-54089D02*
X-81602D01*
Y-50940D01*
X-82651D01*
X-119910Y-59284D02*
Y-56136D01*
X-118860Y-57185D01*
X-117810Y-56136D01*
Y-59284D01*
X-115187Y-56136D02*
X-116236D01*
X-116761Y-56661D01*
Y-58760D01*
X-116236Y-59284D01*
X-115187D01*
X-114662Y-58760D01*
Y-56661D01*
X-115187Y-56136D01*
X-113612D02*
Y-59284D01*
X-112038D01*
X-111513Y-58760D01*
Y-56661D01*
X-112038Y-56136D01*
X-113612D01*
X-107315D02*
Y-59284D01*
X-105741D01*
X-105216Y-58760D01*
Y-56661D01*
X-105741Y-56136D01*
X-107315D01*
X-104166Y-57185D02*
Y-58760D01*
X-103642Y-59284D01*
X-102067D01*
Y-57185D01*
X-100493Y-59284D02*
X-99444D01*
X-98919Y-58760D01*
Y-57710D01*
X-99444Y-57185D01*
X-100493D01*
X-101018Y-57710D01*
Y-58760D01*
X-100493Y-59284D01*
X-97869Y-56136D02*
X-95770Y-59284D01*
Y-56136D02*
X-97869Y-59284D01*
X-91572Y-57710D02*
X-89473D01*
X-85275Y-59284D02*
Y-56136D01*
X-83701D01*
X-83176Y-56661D01*
Y-57710D01*
X-83701Y-58235D01*
X-85275D01*
X-84225D02*
X-83176Y-59284D01*
X-82126Y-56136D02*
Y-59284D01*
Y-58235D01*
X-80027Y-56136D01*
X-81602Y-57710D01*
X-80027Y-59284D01*
X-78978Y-56661D02*
X-78453Y-56136D01*
X-77403D01*
X-76879Y-56661D01*
Y-57185D01*
X-77403Y-57710D01*
X-77928D01*
X-77403D01*
X-76879Y-58235D01*
Y-58760D01*
X-77403Y-59284D01*
X-78453D01*
X-78978Y-58760D01*
X-75829Y-56661D02*
X-75304Y-56136D01*
X-74255D01*
X-73730Y-56661D01*
Y-57185D01*
X-74255Y-57710D01*
X-74780D01*
X-74255D01*
X-73730Y-58235D01*
Y-58760D01*
X-74255Y-59284D01*
X-75304D01*
X-75829Y-58760D01*
X-72681D02*
X-72156Y-59284D01*
X-71106D01*
X-70582Y-58760D01*
Y-56661D01*
X-71106Y-56136D01*
X-72156D01*
X-72681Y-56661D01*
Y-57185D01*
X-72156Y-57710D01*
X-70582D01*
X-69532Y-58760D02*
X-69007Y-59284D01*
X-67958D01*
X-67433Y-58760D01*
Y-56661D01*
X-67958Y-56136D01*
X-69007D01*
X-69532Y-56661D01*
Y-57185D01*
X-69007Y-57710D01*
X-67433D01*
X-61136Y-56661D02*
X-61660Y-56136D01*
X-62710D01*
X-63235Y-56661D01*
Y-57185D01*
X-62710Y-57710D01*
X-61660D01*
X-61136Y-58235D01*
Y-58760D01*
X-61660Y-59284D01*
X-62710D01*
X-63235Y-58760D01*
X-59562Y-59284D02*
X-58512D01*
X-57987Y-58760D01*
Y-57710D01*
X-58512Y-57185D01*
X-59562D01*
X-60086Y-57710D01*
Y-58760D01*
X-59562Y-59284D01*
X-56938D02*
Y-56136D01*
X-55888Y-57185D01*
X-54839Y-56136D01*
Y-59284D01*
X-50116Y-57185D02*
X-49066D01*
X-48541Y-57710D01*
Y-59284D01*
X-50116D01*
X-50640Y-58760D01*
X-50116Y-58235D01*
X-48541D01*
X-45393Y-56136D02*
Y-59284D01*
X-46967D01*
X-47492Y-58760D01*
Y-57710D01*
X-46967Y-57185D01*
X-45393D01*
X-43819D02*
X-42769D01*
X-42244Y-57710D01*
Y-59284D01*
X-43819D01*
X-44343Y-58760D01*
X-43819Y-58235D01*
X-42244D01*
X-41195Y-60334D02*
Y-57185D01*
X-39620D01*
X-39096Y-57710D01*
Y-58760D01*
X-39620Y-59284D01*
X-41195D01*
X-37521Y-56661D02*
Y-57185D01*
X-38046D01*
X-36997D01*
X-37521D01*
Y-58760D01*
X-36997Y-59284D01*
X-33848D02*
X-34898D01*
X-35422Y-58760D01*
Y-57710D01*
X-34898Y-57185D01*
X-33848D01*
X-33323Y-57710D01*
Y-58235D01*
X-35422D01*
X-32274Y-57185D02*
Y-59284D01*
Y-58235D01*
X-31749Y-57710D01*
X-31224Y-57185D01*
X-30699D01*
X-119867Y194923D02*
Y198071D01*
X-118818Y197022D01*
X-117768Y198071D01*
Y194923D01*
X-115145Y198071D02*
X-116194D01*
X-116719Y197547D01*
Y195448D01*
X-116194Y194923D01*
X-115145D01*
X-114620Y195448D01*
Y197547D01*
X-115145Y198071D01*
X-113570D02*
Y194923D01*
X-111996D01*
X-111471Y195448D01*
Y197547D01*
X-111996Y198071D01*
X-113570D01*
X-107273D02*
Y194923D01*
X-105699D01*
X-105174Y195448D01*
Y197547D01*
X-105699Y198071D01*
X-107273D01*
X-102550Y194923D02*
X-103600D01*
X-104124Y195448D01*
Y196497D01*
X-103600Y197022D01*
X-102550D01*
X-102025Y196497D01*
Y195972D01*
X-104124D01*
X-100976Y197022D02*
X-99926Y194923D01*
X-98877Y197022D01*
X-97827Y194923D02*
X-96778D01*
X-97303D01*
Y197022D01*
X-97827D01*
X-93104D02*
X-94679D01*
X-95204Y196497D01*
Y195448D01*
X-94679Y194923D01*
X-93104D01*
X-90481D02*
X-91530D01*
X-92055Y195448D01*
Y196497D01*
X-91530Y197022D01*
X-90481D01*
X-89956Y196497D01*
Y195972D01*
X-92055D01*
X-88906Y194923D02*
X-87332D01*
X-86807Y195448D01*
X-87332Y195972D01*
X-88381D01*
X-88906Y196497D01*
X-88381Y197022D01*
X-86807D01*
X-80510Y197547D02*
X-81035Y198071D01*
X-82084D01*
X-82609Y197547D01*
Y195448D01*
X-82084Y194923D01*
X-81035D01*
X-80510Y195448D01*
Y196497D01*
X-81560D01*
X-79461Y194923D02*
Y197022D01*
X-78936D01*
X-78411Y196497D01*
Y194923D01*
Y196497D01*
X-77886Y197022D01*
X-77362Y196497D01*
Y194923D01*
X-76312Y198071D02*
Y194923D01*
X-74738D01*
X-74213Y195448D01*
Y195972D01*
Y196497D01*
X-74738Y197022D01*
X-76312D01*
X-73163Y198071D02*
Y194923D01*
Y196497D01*
X-71064D01*
Y198071D01*
Y194923D01*
X-119867Y192876D02*
Y189727D01*
Y191301D01*
X-119343Y191826D01*
X-118293D01*
X-117768Y191301D01*
Y189727D01*
X-116194Y192351D02*
Y191826D01*
X-116719D01*
X-115669D01*
X-116194D01*
Y190252D01*
X-115669Y189727D01*
X-113570Y192351D02*
Y191826D01*
X-114095D01*
X-113046D01*
X-113570D01*
Y190252D01*
X-113046Y189727D01*
X-111471Y188678D02*
Y191826D01*
X-109897D01*
X-109372Y191301D01*
Y190252D01*
X-109897Y189727D01*
X-111471D01*
X-108323Y191826D02*
X-107798D01*
Y191301D01*
X-108323D01*
Y191826D01*
Y190252D02*
X-107798D01*
Y189727D01*
X-108323D01*
Y190252D01*
X-105699Y189727D02*
X-103600Y191826D01*
X-102550Y189727D02*
X-100451Y191826D01*
X-99402Y189727D02*
Y191826D01*
X-98877D01*
X-98352Y191301D01*
Y189727D01*
Y191301D01*
X-97827Y191826D01*
X-97303Y191301D01*
Y189727D01*
X-95728D02*
X-94679D01*
X-94154Y190252D01*
Y191301D01*
X-94679Y191826D01*
X-95728D01*
X-96253Y191301D01*
Y190252D01*
X-95728Y189727D01*
X-91005Y192876D02*
Y189727D01*
X-92580D01*
X-93104Y190252D01*
Y191301D01*
X-92580Y191826D01*
X-91005D01*
X-87857Y192876D02*
Y189727D01*
X-89431D01*
X-89956Y190252D01*
Y191301D01*
X-89431Y191826D01*
X-87857D01*
X-85233Y189727D02*
X-86282D01*
X-86807Y190252D01*
Y191301D01*
X-86282Y191826D01*
X-85233D01*
X-84708Y191301D01*
Y190777D01*
X-86807D01*
X-83659Y191826D02*
X-82609Y189727D01*
X-81560Y191826D01*
X-80510Y189727D02*
X-79461D01*
X-79985D01*
Y191826D01*
X-80510D01*
X-75787D02*
X-77361D01*
X-77886Y191301D01*
Y190252D01*
X-77361Y189727D01*
X-75787D01*
X-73163D02*
X-74213D01*
X-74738Y190252D01*
Y191301D01*
X-74213Y191826D01*
X-73163D01*
X-72639Y191301D01*
Y190777D01*
X-74738D01*
X-71589Y189727D02*
X-70015D01*
X-69490Y190252D01*
X-70015Y190777D01*
X-71064D01*
X-71589Y191301D01*
X-71064Y191826D01*
X-69490D01*
X-68440Y189727D02*
Y190252D01*
X-67916D01*
Y189727D01*
X-68440D01*
X-63718Y191826D02*
X-65292D01*
X-65817Y191301D01*
Y190252D01*
X-65292Y189727D01*
X-63718D01*
X-62143D02*
X-61094D01*
X-60569Y190252D01*
Y191301D01*
X-61094Y191826D01*
X-62143D01*
X-62668Y191301D01*
Y190252D01*
X-62143Y189727D01*
X-59519D02*
Y191826D01*
X-58995D01*
X-58470Y191301D01*
Y189727D01*
Y191301D01*
X-57945Y191826D01*
X-57420Y191301D01*
Y189727D01*
X-90176Y185120D02*
Y182660D01*
X-89684Y182168D01*
X-88700D01*
X-88208Y182660D01*
Y185120D01*
X-85256Y182168D02*
X-87224D01*
X-85256Y184136D01*
Y184628D01*
X-85748Y185120D01*
X-86732D01*
X-87224Y184628D01*
X48319Y-48513D02*
X50287D01*
X49303D01*
Y-51465D01*
X51271D02*
Y-48513D01*
X52747D01*
X53239Y-49005D01*
Y-49989D01*
X52747Y-50481D01*
X51271D01*
X56190Y-51465D02*
X54223D01*
X56190Y-49497D01*
Y-49005D01*
X55698Y-48513D01*
X54715D01*
X54223Y-49005D01*
X118819Y-48513D02*
X120787D01*
X119803D01*
Y-51465D01*
X121771D02*
Y-48513D01*
X123247D01*
X123739Y-49005D01*
Y-49989D01*
X123247Y-50481D01*
X121771D01*
X124723Y-49005D02*
X125215Y-48513D01*
X126198D01*
X126690Y-49005D01*
Y-49497D01*
X126198Y-49989D01*
X125707D01*
X126198D01*
X126690Y-50481D01*
Y-50973D01*
X126198Y-51465D01*
X125215D01*
X124723Y-50973D01*
X67786Y-48821D02*
X67294Y-48329D01*
X66310D01*
X65818Y-48821D01*
Y-50788D01*
X66310Y-51280D01*
X67294D01*
X67786Y-50788D01*
X68770Y-51280D02*
X69754D01*
X69262D01*
Y-48329D01*
X68770Y-48821D01*
X71230D02*
X71722Y-48329D01*
X72706D01*
X73198Y-48821D01*
Y-49313D01*
X72706Y-49805D01*
X72214D01*
X72706D01*
X73198Y-50296D01*
Y-50788D01*
X72706Y-51280D01*
X71722D01*
X71230Y-50788D01*
M02*
