%FSTAX23Y23*%
%MOIN*%
%SFA1B1*%

%IPPOS*%
%ADD10C,0.023620*%
%ADD11C,0.011810*%
%ADD12C,0.005910*%
%LNmod_duo_x_g3399-1*%
%LPD*%
G54D10*
X-00824Y-00351D02*
D01*
X-00824Y-0035*
X-00824Y-00349*
X-00824Y-00348*
X-00825Y-00347*
X-00825Y-00347*
X-00825Y-00346*
X-00825Y-00345*
X-00826Y-00345*
X-00826Y-00344*
X-00827Y-00343*
X-00827Y-00343*
X-00828Y-00342*
X-00828Y-00342*
X-00829Y-00341*
X-0083Y-00341*
X-0083Y-00341*
X-00831Y-0034*
X-00832Y-0034*
X-00833Y-0034*
X-00833Y-0034*
X-00834Y-00339*
X-00835Y-00339*
X-00836*
X-00836Y-00339*
X-00837Y-0034*
X-00838Y-0034*
X-00839Y-0034*
X-00839Y-0034*
X-0084Y-00341*
X-00841Y-00341*
X-00842Y-00341*
X-00842Y-00342*
X-00843Y-00342*
X-00843Y-00343*
X-00844Y-00343*
X-00844Y-00344*
X-00845Y-00345*
X-00845Y-00345*
X-00845Y-00346*
X-00846Y-00347*
X-00846Y-00347*
X-00846Y-00348*
X-00846Y-00349*
X-00846Y-0035*
X-00846Y-00351*
X-00846Y-00351*
X-00846Y-00352*
X-00846Y-00353*
X-00846Y-00354*
X-00846Y-00354*
X-00845Y-00355*
X-00845Y-00356*
X-00845Y-00356*
X-00844Y-00357*
X-00844Y-00358*
X-00843Y-00358*
X-00843Y-00359*
X-00842Y-00359*
X-00842Y-0036*
X-00841Y-0036*
X-0084Y-00361*
X-00839Y-00361*
X-00839Y-00361*
X-00838Y-00361*
X-00837Y-00362*
X-00836Y-00362*
X-00836Y-00362*
X-00835*
X-00834Y-00362*
X-00833Y-00362*
X-00833Y-00361*
X-00832Y-00361*
X-00831Y-00361*
X-0083Y-00361*
X-0083Y-0036*
X-00829Y-0036*
X-00828Y-00359*
X-00828Y-00359*
X-00827Y-00358*
X-00827Y-00358*
X-00826Y-00357*
X-00826Y-00356*
X-00825Y-00356*
X-00825Y-00355*
X-00825Y-00354*
X-00825Y-00354*
X-00824Y-00353*
X-00824Y-00352*
X-00824Y-00351*
X-00824Y-00351*
G54D11*
X-00885Y-00411D02*
X-00815D01*
X-00885Y-00316D02*
Y-00411D01*
X01264Y01693D02*
Y01788D01*
X01194D02*
X01264D01*
X-00885Y01693D02*
Y01788D01*
X-00815*
X01264Y-00411D02*
Y-00316D01*
X01194Y-00411D02*
X01264D01*
G54D12*
X-01199Y-00542D02*
Y-00521D01*
X-01189Y-0051*
X-01178Y-00521*
Y-00542*
Y-00526*
X-01199*
X-01147Y-0051D02*
Y-00542D01*
X-01162*
X-01168Y-00536*
Y-00526*
X-01162Y-00521*
X-01147*
X-01131D02*
X-0112D01*
X-01115Y-00526*
Y-00542*
X-01131*
X-01136Y-00536*
X-01131Y-00531*
X-01115*
X-01105Y-00552D02*
Y-00521D01*
X-01089*
X-01084Y-00526*
Y-00536*
X-01089Y-00542*
X-01105*
X-01068Y-00515D02*
Y-00521D01*
X-01073*
X-01063*
X-01068*
Y-00536*
X-01063Y-00542*
X-01031D02*
X-01042D01*
X-01047Y-00536*
Y-00526*
X-01042Y-00521*
X-01031*
X-01026Y-00526*
Y-00531*
X-01047*
X-01015Y-00521D02*
Y-00542D01*
Y-00531*
X-0101Y-00526*
X-01005Y-00521*
X-01*
X-00952Y-0051D02*
Y-00542D01*
X-00937*
X-00931Y-00536*
Y-00515*
X-00937Y-0051*
X-00952*
X-00921Y-00521D02*
Y-00536D01*
X-00916Y-00542*
X-009*
Y-00521*
X-00884Y-00542D02*
X-00874D01*
X-00868Y-00536*
Y-00526*
X-00874Y-00521*
X-00884*
X-00889Y-00526*
Y-00536*
X-00884Y-00542*
X-00837D02*
X-00858D01*
X-00837Y-00521*
Y-00515*
X-00842Y-0051*
X-00853*
X-00858Y-00515*
X-00826Y-00542D02*
Y-00536D01*
X-00821*
Y-00542*
X-00826*
X-008Y-00515D02*
X-00795Y-0051D01*
X-00785*
X-00779Y-00515*
Y-00536*
X-00785Y-00542*
X-00795*
X-008Y-00536*
Y-00515*
X-00769Y-00526D02*
X-00748D01*
X-00716Y-00515D02*
X-00722Y-0051D01*
X-00732*
X-00737Y-00515*
Y-00536*
X-00732Y-00542*
X-00722*
X-00716Y-00536*
Y-00526*
X-00727*
X-00706Y-00515D02*
X-00701Y-0051D01*
X-0069*
X-00685Y-00515*
Y-00521*
X-0069Y-00526*
X-00695*
X-0069*
X-00685Y-00531*
Y-00536*
X-0069Y-00542*
X-00701*
X-00706Y-00536*
X-00674Y-00515D02*
X-00669Y-0051D01*
X-00659*
X-00653Y-00515*
Y-00521*
X-00659Y-00526*
X-00664*
X-00659*
X-00653Y-00531*
Y-00536*
X-00659Y-00542*
X-00669*
X-00674Y-00536*
X-00643D02*
X-00638Y-00542D01*
X-00627*
X-00622Y-00536*
Y-00515*
X-00627Y-0051*
X-00638*
X-00643Y-00515*
Y-00521*
X-00638Y-00526*
X-00622*
X-00611Y-00536D02*
X-00606Y-00542D01*
X-00596*
X-0059Y-00536*
Y-00515*
X-00596Y-0051*
X-00606*
X-00611Y-00515*
Y-00521*
X-00606Y-00526*
X-0059*
X-01199Y-00604D02*
Y-00573D01*
X-01183*
X-01178Y-00578*
Y-00588*
X-01183Y-00594*
X-01199*
X-01189D02*
X-01178Y-00604D01*
X-01152D02*
X-01162D01*
X-01168Y-00599*
Y-00588*
X-01162Y-00583*
X-01152*
X-01147Y-00588*
Y-00594*
X-01168*
X-01136Y-00583D02*
X-01126Y-00604D01*
X-01115Y-00583*
X-01105D02*
X-01099D01*
Y-00588*
X-01105*
Y-00583*
Y-00599D02*
X-01099D01*
Y-00604*
X-01105*
Y-00599*
X-01026Y-00604D02*
X-01047D01*
X-01026Y-00583*
Y-00578*
X-01031Y-00573*
X-01042*
X-01047Y-00578*
X-01015D02*
X-0101Y-00573D01*
X-01*
X-00994Y-00578*
Y-00599*
X-01Y-00604*
X-0101*
X-01015Y-00599*
Y-00578*
X-00963Y-00604D02*
X-00984D01*
X-00963Y-00583*
Y-00578*
X-00968Y-00573*
X-00979*
X-00984Y-00578*
X-00952D02*
X-00947Y-00573D01*
X-00937*
X-00931Y-00578*
Y-00599*
X-00937Y-00604*
X-00947*
X-00952Y-00599*
Y-00578*
X-00921Y-00604D02*
Y-00599D01*
X-00916*
Y-00604*
X-00921*
X-00895Y-00578D02*
X-00889Y-00573D01*
X-00879*
X-00874Y-00578*
Y-00599*
X-00879Y-00604*
X-00889*
X-00895Y-00599*
Y-00578*
X-00842Y-00604D02*
X-00863D01*
X-00842Y-00583*
Y-00578*
X-00847Y-00573*
X-00858*
X-00863Y-00578*
X-00832Y-00604D02*
Y-00599D01*
X-00826*
Y-00604*
X-00832*
X-00805D02*
X-00795D01*
X-008*
Y-00573*
X-00805Y-00578*
X-00779Y-00573D02*
X-00758D01*
Y-00578*
X-00779Y-00599*
Y-00604*
X00677Y-00488D02*
X00672Y-00483D01*
X00663*
X00658Y-00488*
Y-00507*
X00663Y-00512*
X00672*
X00677Y-00507*
X00687Y-00512D02*
X00697D01*
X00692*
Y-00483*
X00687Y-00488*
X00712D02*
X00717Y-00483D01*
X00727*
X00731Y-00488*
Y-00493*
X00727Y-00498*
X00722*
X00727*
X00731Y-00502*
Y-00507*
X00727Y-00512*
X00717*
X00712Y-00507*
X01188Y-00485D02*
X01207D01*
X01198*
Y-00514*
X01217D02*
Y-00485D01*
X01232*
X01237Y-0049*
Y-00499*
X01232Y-00504*
X01217*
X01247Y-0049D02*
X01252Y-00485D01*
X01261*
X01266Y-0049*
Y-00494*
X01261Y-00499*
X01257*
X01261*
X01266Y-00504*
Y-00509*
X01261Y-00514*
X01252*
X01247Y-00509*
X-00956Y01895D02*
Y01871D01*
X-00951Y01866*
X-00942*
X-00937Y01871*
Y01895*
X-00907Y01866D02*
X-00927D01*
X-00907Y01886*
Y0189*
X-00912Y01895*
X-00922*
X-00927Y0189*
X00483Y-00485D02*
X00502D01*
X00493*
Y-00514*
X00512D02*
Y-00485D01*
X00527*
X00532Y-0049*
Y-00499*
X00527Y-00504*
X00512*
X00561Y-00514D02*
X00542D01*
X00561Y-00494*
Y-0049*
X00556Y-00485*
X00547*
X00542Y-0049*
M02*