%FSTAX23Y23*%
%MOIN*%
%SFA1B1*%

%IPPOS*%
%ADD11C,0.011810*%
%ADD24C,0.006000*%
%ADD25C,0.010000*%
%ADD27C,0.177170*%
%ADD28C,0.019680*%
%LNmod_duo_x_g3399-1*%
%LPD*%
G36*
X01678Y-00643D02*
X-013D01*
Y02021*
X01678*
Y-00643*
G37*
%LNmod_duo_x_g3399-2*%
%LPC*%
G36*
X01653Y02004D02*
X01647Y02003D01*
X01643Y02*
X0164Y01995*
X01639Y0199*
X0164Y01984*
X01642Y01982*
X01638Y01978*
X01638Y01978*
X01633Y01979*
X01627Y01978*
X01623Y01975*
X0162Y0197*
X01619Y01965*
X0162Y01959*
X01623Y01955*
X01627Y01952*
X01633Y01951*
X01638Y01952*
X01638Y01952*
X01642Y01948*
X0164Y01945*
X01639Y0194*
X0164Y01934*
X01643Y0193*
X01647Y01927*
X01653Y01926*
X01658Y01927*
X01663Y0193*
X01666Y01934*
X01667Y0194*
X01666Y01945*
X01663Y0195*
X01658Y01953*
X01653Y01954*
X01647Y01953*
X01647Y01953*
X01644Y01957*
X01646Y01959*
X01647Y01965*
X01646Y0197*
X01644Y01973*
X01647Y01977*
X01647Y01977*
X01653Y01976*
X01658Y01977*
X01663Y0198*
X01666Y01984*
X01667Y0199*
X01666Y01995*
X01663Y02*
X01658Y02003*
X01653Y02004*
G37*
G36*
X01608D02*
X01602Y02003D01*
X01598Y02*
X01595Y01995*
X01594Y0199*
X01595Y01984*
X01598Y0198*
X01602Y01977*
X01608Y01976*
X01613Y01977*
X01618Y0198*
X01621Y01984*
X01622Y0199*
X01621Y01995*
X01618Y02*
X01613Y02003*
X01608Y02004*
G37*
G36*
X00078Y01979D02*
X00072Y01978D01*
X00068Y01975*
X00065Y0197*
X00064Y01965*
X00065Y01959*
X00068Y01955*
X00072Y01952*
X00078Y01951*
X00083Y01952*
X00088Y01955*
X00091Y01959*
X00092Y01965*
X00091Y0197*
X00088Y01975*
X00083Y01978*
X00078Y01979*
G37*
G36*
X-01241Y01969D02*
X-01247Y01968D01*
X-01251Y01965*
X-01254Y0196*
X-01255Y01955*
X-01254Y01949*
X-01251Y01945*
X-01247Y01942*
X-01241Y01941*
X-01236Y01942*
X-01231Y01945*
X-01228Y01949*
X-01227Y01955*
X-01228Y0196*
X-01231Y01965*
X-01236Y01968*
X-01241Y01969*
G37*
G36*
X01608Y01954D02*
X01602Y01953D01*
X01598Y0195*
X01595Y01945*
X01594Y0194*
X01595Y01934*
X01598Y0193*
X01602Y01927*
X01608Y01926*
X01613Y01927*
X01618Y0193*
X01621Y01934*
X01622Y0194*
X01621Y01945*
X01618Y0195*
X01613Y01953*
X01608Y01954*
G37*
G36*
X00673Y01885D02*
X00665Y01884D01*
X0066Y01882*
X00655Y01883*
X00648Y01884*
X0064Y01883*
X00633Y0188*
X00626Y01876*
X00622Y01869*
X00619Y01862*
X00618Y01854*
X00619Y01847*
X00622Y01839*
X00626Y01833*
X00633Y01828*
X0064Y01825*
X00648Y01824*
X00655Y01825*
X00661Y01827*
X00665Y01826*
X00673Y01825*
X0068Y01826*
X00688Y01829*
X00694Y01834*
X00699Y0184*
X00702Y01847*
X00703Y01855*
X00702Y01863*
X00699Y0187*
X00694Y01876*
X00688Y01881*
X0068Y01884*
X00673Y01885*
G37*
G36*
X0013Y01877D02*
X00124Y01876D01*
X0012Y01873*
X00117Y01868*
X00116Y01863*
X00117Y01857*
X0012Y01853*
X00124Y0185*
X0013Y01849*
X00135Y0185*
X0014Y01853*
X00143Y01857*
X00144Y01863*
X00143Y01868*
X0014Y01873*
X00135Y01876*
X0013Y01877*
G37*
G36*
X00813Y01926D02*
X00805Y01925D01*
X00798Y01922*
X00791Y01917*
X00787Y01911*
X00784Y01903*
X00783Y01896*
X00784Y01888*
X00785Y01884*
X00784Y0188*
X00783Y01872*
X00784Y01864*
X00787Y01857*
X00791Y01851*
X00798Y01846*
X00805Y01843*
X00813Y01842*
X0082Y01843*
X00828Y01846*
X00834Y01851*
X00839Y01857*
X00842Y01864*
X00843Y01872*
X00842Y0188*
X0084Y01884*
X00842Y01888*
X00843Y01896*
X00842Y01903*
X00839Y01911*
X00834Y01917*
X00828Y01922*
X0082Y01925*
X00813Y01926*
G37*
G36*
X00513Y01662D02*
X00508Y01661D01*
X00503Y01658*
X005Y01653*
X00499Y01648*
X00495Y01646*
X00494Y01646*
X00493Y01646*
X00488Y01648*
X00487Y01653*
X00484Y01658*
X00479Y01661*
X00474Y01662*
X00468Y01661*
X00464Y01658*
X00461Y01653*
X0046Y01648*
X00455Y01646*
X00454Y01646*
X00449Y01645*
X00444Y01642*
X00441Y01637*
X0044Y01632*
X00441Y01627*
X00444Y01622*
X00449Y01619*
X00454Y01618*
X0046Y01619*
X00464Y01622*
X00467Y01627*
X00468Y01632*
X00473Y01634*
X00474Y01634*
X00475Y01634*
X00479Y01632*
X00481Y01627*
X00484Y01622*
X00488Y01619*
X00494Y01618*
X00499Y01619*
X00504Y01622*
X00507Y01627*
X00508Y01632*
X00512Y01634*
X00513Y01634*
X00519Y01635*
X00523Y01638*
X00526Y01642*
X00528Y01648*
X00526Y01653*
X00523Y01658*
X00519Y01661*
X00513Y01662*
G37*
G36*
X00038Y01879D02*
X00032Y01878D01*
X00028Y01875*
X00025Y0187*
X00024Y01865*
X00025Y01859*
X00028Y01855*
X00032Y01852*
X00038Y01851*
X00041Y01846*
Y01806*
X00041Y01803*
X00043Y01801*
X00069Y01775*
X00069Y01775*
X00068Y0177*
X-01124*
X-01127Y01769*
X-01128Y01768*
X-01132Y01769*
X-01137Y01768*
X-01142Y01765*
X-01145Y0176*
X-01146Y01755*
X-01145Y01749*
X-01142Y01745*
X-01137Y01742*
X-01132Y01741*
X-01126Y01742*
X-01124Y01744*
X-01123Y01743*
X-0112Y0174*
X-0112Y01736*
X-01119Y01731*
X-01116Y01726*
X-01112Y01723*
X-01106Y01722*
X-01101Y01723*
X-01099Y01724*
X-01095Y01721*
X-01095Y0172*
X-01094Y01714*
X-01091Y0171*
X-01086Y01707*
X-01081Y01706*
X-01075Y01707*
X-01072Y01709*
X-01071Y0171*
X-01067Y01707*
X-01068Y01705*
X-01069Y017*
X-01068Y01694*
X-01065Y0169*
X-01061Y01687*
X-01055Y01686*
X-0105Y01687*
X-01045Y0169*
X-01045Y0169*
X-01044Y0169*
X-01044Y01691*
X-01043Y01691*
X-01043Y01692*
X-01042Y01692*
X-01042Y01692*
X-01041Y01692*
X-01041Y01692*
X-0104Y01693*
X-0104Y01693*
X-01039Y01693*
X00047*
X00049Y01688*
X00048Y01685*
X00047Y0168*
X00048Y01674*
X00051Y0167*
X00055Y01667*
X00061Y01666*
X00063Y01666*
X00065Y01665*
X00067Y01662*
X00066Y01658*
X00067Y01652*
X0007Y01648*
X00075Y01645*
X0008Y01644*
X00086Y01645*
X00086Y01644*
X00089Y01641*
X00087Y01637*
X00086Y01632*
X00087Y01627*
X0009Y01622*
X00094Y01619*
X001Y01618*
X00105Y01619*
X0011Y01622*
X00113Y01627*
X00114Y01632*
X00119Y01634*
X0012Y01634*
X0012Y01634*
X00125Y01632*
X00126Y01627*
X00129Y01622*
X00134Y01619*
X00139Y01618*
X00145Y01619*
X00149Y01622*
X00152Y01627*
X00153Y01632*
X00152Y01637*
X0015Y01641*
X00149Y01642*
X00153Y01645*
X00153Y01645*
X00154Y01645*
X00159Y01644*
X00164Y01645*
X00169Y01648*
X00172Y01652*
X00173Y01658*
X00172Y01663*
X00169Y01668*
X00169Y01668*
X0017Y01673*
X00213*
X00221Y01664*
X00222Y01663*
X00222Y01663*
X00222Y01663*
X00223Y01662*
X00223Y01662*
X00223Y01661*
X00223Y01661*
X00223Y0166*
X00223Y01659*
X00224Y01659*
X00224Y01658*
X00224Y01657*
X00224Y01655*
X0022Y01651*
X00218Y01651*
X00213Y0165*
X00208Y01647*
X00205Y01642*
X00204Y01637*
X00205Y01632*
X00208Y01627*
X00213Y01624*
X00218Y01623*
X00223Y01624*
X00228Y01627*
X00231Y01632*
X00232Y01637*
X00232Y0164*
X00235Y01644*
X00238*
X00238Y01644*
X00238Y01644*
X0024*
X00244Y0164*
X00243Y01637*
X00244Y01632*
X00247Y01627*
X00252Y01624*
X00257Y01623*
X00263Y01624*
X00267Y01627*
X0027Y01632*
X00271Y01637*
X00271Y0164*
X00275Y01644*
X00277Y01644*
X00282Y01645*
X00287Y01648*
X0029Y01652*
X00291Y01658*
X00291Y01659*
X00295Y01664*
X00297Y01663*
X00302Y01664*
X00307Y01667*
X0031Y01672*
X00311Y01677*
X00316Y0168*
X00316Y01679*
X00322Y0168*
X00326Y01683*
X00329Y01688*
X00331Y01693*
X00329Y01699*
X00326Y01703*
X00322Y01706*
X00317Y01708*
X00316Y01708*
X00315Y01708*
X00315Y01708*
X00314Y01708*
X00313Y01708*
X00313Y01708*
X00312Y01708*
X00312Y01709*
X00312Y01709*
X00311Y01709*
X00311Y0171*
X0031Y0171*
X00279Y01741*
X00276Y01743*
X00274Y01743*
X00136*
X00112Y01768*
X00111Y01768*
X00112Y01773*
X00295*
X0037Y01698*
Y01674*
X00369Y01673*
X00369Y01672*
X00369Y01672*
X00369Y01672*
X00369Y01671*
X00369Y01671*
X00369Y0167*
X00368Y01669*
X00368Y01669*
X00367Y01668*
X00367Y01668*
X00367Y01667*
X00364Y01663*
X00363Y01658*
X00364Y01652*
X00367Y01648*
X00371Y01645*
X00377Y01644*
X00382Y01645*
X00387Y01648*
X0039Y01652*
X00391Y01658*
X0039Y01663*
X00387Y01667*
X00387Y01668*
X00386Y01668*
X00386Y01669*
X00385Y01669*
X00385Y0167*
X00385Y01671*
X00384Y01671*
X00384Y01672*
X00384Y01672*
X00384Y01672*
X00384Y01673*
X00384Y01674*
Y01701*
X00383Y01704*
X00382Y01706*
X00303Y01785*
X003Y01787*
X00298Y01787*
X00077*
X00055Y01809*
Y01855*
X00054Y01858*
X00053Y01859*
X00053Y0186*
X00052Y01861*
X00052Y01861*
X00052Y01861*
X00052Y01862*
X00052Y01862*
X00052Y01862*
X00052Y01862*
X00052Y01862*
X00051Y01862*
X00052Y01865*
X00051Y0187*
X00048Y01875*
X00043Y01878*
X00038Y01879*
G37*
G36*
X00415Y01657D02*
X0041Y01656D01*
X00405Y01653*
X00402Y01648*
X00401Y01643*
X00402Y01637*
X00405Y01633*
X0041Y0163*
X00415Y01629*
X0042Y0163*
X00425Y01633*
X00428Y01637*
X00429Y01643*
X00428Y01648*
X00425Y01653*
X0042Y01656*
X00415Y01657*
G37*
G36*
X01313Y01904D02*
X01073D01*
X0107Y01903*
X00926Y01759*
X00778*
X00775Y01758*
X00621Y01604*
X00483*
X0048Y01603*
X00453Y01576*
X00422Y01606*
X00419Y01608*
X00415Y01609*
X0004*
X-00019Y01669*
X-00022Y01671*
X-00026Y01672*
X-00901*
X-00905Y01671*
X-00908Y01669*
X-01036Y01541*
X-01038Y01538*
X-01039Y01535*
Y0151*
X-01039Y0151*
X-01039Y01508*
X-01039Y01508*
X-01039Y01507*
X-01039Y01506*
X-01039Y01506*
X-01039Y01506*
X-01039Y01506*
X-0104Y01506*
X-0104Y01505*
X-0104Y01505*
X-01043Y01501*
X-01044Y01496*
X-01043Y0149*
X-0104Y01486*
X-0104Y01486*
X-0104Y01485*
X-01039Y01485*
X-01039Y01485*
X-01039Y01485*
X-01039Y01485*
X-01039Y01484*
X-01039Y01484*
X-01039Y01482*
X-01039Y01481*
X-01039Y01481*
Y00557*
X-01038Y00553*
X-01036Y0055*
X-00929Y00443*
X-00926Y00441*
X-00922Y00441*
X-0063*
X-0063Y00441*
X-00628Y0044*
X-00627Y0044*
X-00625Y0044*
X-00625Y0044*
X-00625Y0044*
X-00625Y0044*
X-00625Y0044*
X-00625*
X-00625Y0044*
X-00624Y0044*
X-00624Y0044*
X-00624Y0044*
X-00618Y00439*
X-00613Y0044*
X-00608Y00443*
X-00605Y00447*
X-00604Y00453*
X-00605Y00458*
X-00608Y00463*
X-00613Y00466*
X-00618Y00467*
X-00624Y00466*
X-00628Y00463*
X-0063Y0046*
X-0063Y0046*
X-0063Y0046*
X-0063Y0046*
X-0063Y0046*
X-0063Y0046*
X-00631Y0046*
X-00631Y00459*
X-00631Y00459*
X-00633Y00459*
X-00634Y00459*
X-00634Y00459*
X-00776*
X-00778Y00464*
X-00776Y00465*
X-00773Y00469*
X-00772Y00475*
X-00773Y0048*
X-00776Y00485*
X-00781Y00488*
X-00786Y00489*
X-00792Y00488*
X-00796Y00485*
X-00799Y0048*
X-008Y00475*
X-00799Y00469*
X-00796Y00465*
X-00795Y00464*
X-00797Y00459*
X-00919*
X-0102Y00561*
Y01481*
X-0102Y01481*
X-0102Y01483*
X-0102Y01484*
X-0102Y01484*
X-0102Y01485*
X-0102Y01485*
X-0102Y01485*
X-0102Y01485*
X-0102Y01485*
X-01019Y01486*
X-01019Y01486*
X-01016Y0149*
X-01015Y01496*
X-01016Y01501*
X-01019Y01505*
X-01019Y01505*
X-0102Y01506*
X-0102Y01506*
X-0102Y01506*
X-0102Y01506*
X-0102Y01506*
X-0102Y01507*
X-0102Y01507*
X-0102Y01509*
X-0102Y0151*
X-0102Y0151*
Y01531*
X-00897Y01654*
X-00502*
X-00499Y01649*
X-005Y01647*
X-00502Y01641*
X-005Y01636*
X-00499Y01634*
X-00503Y01631*
X-00504Y01632*
X-00508Y01634*
X-00513Y01635*
X-00518Y01634*
X-00523Y01631*
X-00526Y01627*
X-00527Y01621*
X-00526Y01616*
X-00523Y01611*
X-00518Y01608*
X-00513Y01607*
X-00508Y01608*
X-00503Y01611*
X-005Y01616*
X-00499Y01621*
X-005Y01627*
X-00501Y01628*
X-00497Y01631*
X-00496Y0163*
X-00493Y01628*
X-00487Y01627*
X-00482Y01628*
X-00477Y01631*
X-00474Y01636*
X-00473Y01641*
X-00474Y01647*
X-00476Y01649*
X-00473Y01654*
X-0003*
X0003Y01593*
X00033Y01591*
X00036Y01591*
X00412*
X00443Y01559*
Y01551*
X00438Y01548*
X00435Y01548*
X00435Y01549*
X00434Y01549*
X00433Y01549*
X00432Y01549*
X00432Y01549*
X00431Y01549*
X00431Y01549*
X0043Y01549*
X0043Y0155*
X00429Y0155*
X00429Y0155*
X00428Y01551*
X0041Y01569*
X00408Y01571*
X00405Y01571*
X-00032*
X-00059Y01598*
X-00061Y016*
X-00064Y016*
X-00236*
X-00237Y016*
X-00237Y016*
X-00238Y01601*
X-00239Y01601*
X-00239Y01601*
X-0024Y01601*
X-0024Y01601*
X-00241Y01602*
X-00243Y01602*
X-00244Y01603*
X-00244Y01603*
X-00246Y01604*
X-00251Y01605*
X-00257Y01604*
X-00261Y01601*
X-00264Y01596*
X-00265Y01591*
X-00264Y01586*
X-00261Y01581*
X-00257Y01578*
X-00251Y01577*
X-00246Y01578*
X-00241Y01581*
X-0024Y01583*
X-00239Y01583*
X-00239Y01584*
X-00239Y01584*
X-00238Y01585*
X-00238Y01585*
X-00238Y01585*
X-00237Y01585*
X-00237Y01586*
X-00236Y01586*
X-00236Y01586*
X-00235Y01586*
X-00235Y01586*
X-00235Y01586*
X-00235Y01586*
X-00115*
X-00113Y01581*
X-00113Y0158*
X-00114Y01574*
X-00113Y01568*
X-00109Y01563*
X-00104Y01559*
X-00098Y01558*
X-00092Y01559*
X-00087Y01563*
X-00083Y01568*
X-00082Y01574*
X-00083Y0158*
X-00083Y01581*
X-00081Y01586*
X-00067*
X-0004Y01559*
X-00037Y01557*
X-00035Y01557*
X00402*
X00418Y01541*
X00418Y0154*
X00419Y0154*
X00419Y01539*
X00419Y01539*
X0042Y01538*
X0042Y01538*
X0042Y01537*
X0042Y01537*
X0042Y01536*
X0042Y01535*
X0042Y01534*
X0042Y01534*
X00421Y01529*
X00425Y01524*
X00429Y01521*
X00435Y0152*
X00438Y01521*
X00443Y01518*
Y01442*
X00445Y01439*
X00448Y01438*
X00995*
X00998Y01439*
X01101Y01542*
X01204Y01646*
X01393*
X01396Y01647*
X01416Y01667*
X01417Y0167*
Y0183*
X01416Y01833*
X01401Y01848*
X01398Y01849*
X01359*
X01317Y01892*
Y019*
X01316Y01903*
X01313Y01904*
G37*
G36*
X-00331Y01592D02*
X-00337Y01591D01*
X-00341Y01588*
X-00344Y01583*
X-00345Y01578*
X-00344Y01572*
X-00341Y01568*
X-00337Y01565*
X-00331Y01564*
X-00326Y01565*
X-00321Y01568*
X-00318Y01572*
X-00317Y01578*
X-00318Y01583*
X-00321Y01588*
X-00326Y01591*
X-00331Y01592*
G37*
G36*
X-00735Y01588D02*
X-00741Y01587D01*
X-00745Y01584*
X-00748Y0158*
X-0075Y01574*
X-00748Y01569*
X-00745Y01564*
X-00741Y01561*
X-00735Y0156*
X-0073Y01561*
X-00725Y01564*
X-00722Y01569*
X-00721Y01574*
X-00722Y0158*
X-00725Y01584*
X-0073Y01587*
X-00735Y01588*
G37*
G36*
X00278Y01548D02*
X00272Y01547D01*
X00268Y01544*
X00265Y0154*
X00264Y01534*
X00265Y01529*
X00268Y01524*
X00272Y01521*
X00278Y0152*
X00283Y01521*
X00288Y01524*
X00291Y01529*
X00292Y01534*
X00291Y0154*
X00288Y01544*
X00283Y01547*
X00278Y01548*
G37*
G36*
X-00195Y01524D02*
X-002Y01523D01*
X-00204Y0152*
X-00208Y01515*
X-00209Y0151*
X-00208Y01504*
X-00204Y015*
X-002Y01497*
X-00195Y01496*
X-00189Y01497*
X-00185Y015*
X-00181Y01504*
X-0018Y0151*
X-00181Y01515*
X-00185Y0152*
X-00189Y01523*
X-00195Y01524*
G37*
G36*
X-00221Y01484D02*
X-00226Y01483D01*
X-00231Y0148*
X-00234Y01475*
X-00235Y0147*
X-00234Y01464*
X-00231Y0146*
X-00226Y01457*
X-00221Y01456*
X-00215Y01457*
X-00211Y0146*
X-00208Y01464*
X-00207Y0147*
X-00208Y01475*
X-00211Y0148*
X-00215Y01483*
X-00221Y01484*
G37*
G36*
X-00276Y01464D02*
X-00282Y01463D01*
X-00286Y0146*
X-00289Y01455*
X-0029Y0145*
X-00289Y01444*
X-00286Y0144*
X-00282Y01437*
X-00276Y01436*
X-00271Y01437*
X-00266Y0144*
X-00263Y01444*
X-00262Y0145*
X-00263Y01455*
X-00266Y0146*
X-00271Y01463*
X-00276Y01464*
G37*
G36*
X0012Y01414D02*
X00114Y01413D01*
X0011Y0141*
X00107Y01405*
X00105Y014*
X00107Y01394*
X0011Y0139*
X00114Y01387*
X0012Y01386*
X00125Y01387*
X0013Y0139*
X00133Y01394*
X00134Y014*
X00133Y01405*
X0013Y0141*
X00125Y01413*
X0012Y01414*
G37*
G36*
X00316Y01414D02*
X00311Y01413D01*
X00306Y0141*
X00303Y01405*
X00302Y014*
X00303Y01394*
X00306Y0139*
X00311Y01387*
X00316Y01386*
X00322Y01387*
X00326Y0139*
X00329Y01394*
X00331Y014*
X00329Y01405*
X00326Y0141*
X00322Y01413*
X00316Y01414*
G37*
G36*
X00277D02*
X00272Y01413D01*
X00267Y0141*
X00264Y01405*
X00263Y014*
X00264Y01394*
X00267Y0139*
X00272Y01387*
X00277Y01386*
X00282Y01387*
X00287Y0139*
X0029Y01394*
X00291Y014*
X0029Y01405*
X00287Y0141*
X00282Y01413*
X00277Y01414*
G37*
G36*
X00153Y01447D02*
X-0008D01*
X-00083Y01446*
X-00085Y01445*
X-00124Y01406*
X-0069*
X-00691Y01406*
X-00692Y01406*
X-00692Y01406*
X-00692Y01406*
X-00693Y01406*
X-00693Y01407*
X-00694Y01407*
X-00694Y01407*
X-00695Y01408*
X-00696Y01408*
X-00696Y01409*
X-00696Y01409*
X-00701Y01412*
X-00706Y01413*
X-00712Y01412*
X-00716Y01409*
X-00719Y01404*
X-0072Y01399*
X-00719Y01393*
X-00716Y01389*
X-00712Y01386*
X-00706Y01385*
X-00701Y01386*
X-00697Y01389*
X-00696Y01389*
X-00696Y01389*
X-00695Y0139*
X-00695Y0139*
X-00694Y01391*
X-00693Y01391*
X-00693Y01391*
X-00693Y01391*
X-00692Y01391*
X-00692Y01391*
X-00691Y01391*
X-0069Y01392*
X-00122*
X-00119Y01392*
X-00116Y01394*
X-00077Y01433*
X0015*
X00167Y01415*
X00168Y01415*
X00168Y01415*
X00169Y0141*
X00166Y01405*
X00165Y014*
X00166Y01394*
X00169Y0139*
X00173Y01387*
X00179Y01386*
X00184Y01387*
X00189Y0139*
X00192Y01394*
X00193Y014*
X00192Y01405*
X00189Y0141*
X00187Y01411*
X00187Y01411*
X00186Y01412*
X00186Y01412*
X00186Y01412*
X00186Y01412*
X00186Y01412*
X00186Y01413*
X00186Y01413*
X00186Y01414*
X00186Y01414*
X00185Y01415*
X00185Y01417*
X00183Y01419*
X00158Y01445*
X00155Y01446*
X00153Y01447*
G37*
G36*
X00001Y01414D02*
X-00003Y01413D01*
X-00008Y0141*
X-00011Y01405*
X-00012Y014*
X-00011Y01394*
X-00008Y0139*
X-00003Y01387*
X00001Y01386*
X00007Y01387*
X00011Y0139*
X00014Y01394*
X00016Y014*
X00014Y01405*
X00011Y0141*
X00007Y01413*
X00001Y01414*
G37*
G36*
X-00037D02*
X-00042Y01413D01*
X-00047Y0141*
X-0005Y01405*
X-00051Y014*
X-0005Y01394*
X-00047Y0139*
X-00042Y01387*
X-00037Y01386*
X-00032Y01387*
X-00027Y0139*
X-00024Y01394*
X-00023Y014*
X-00024Y01405*
X-00027Y0141*
X-00032Y01413*
X-00037Y01414*
G37*
G36*
X00377Y01413D02*
X00371Y01412D01*
X00367Y01409*
X00363Y01404*
X00362Y01399*
X00363Y01393*
X00367Y01389*
X00371Y01386*
X00377Y01385*
X00382Y01386*
X00387Y01389*
X0039Y01393*
X00391Y01399*
X0039Y01404*
X00387Y01409*
X00382Y01412*
X00377Y01413*
G37*
G36*
X01058Y01392D02*
X01052Y0139D01*
X01048Y01387*
X01045Y01383*
X01044Y01377*
X01045Y01372*
X01048Y01367*
X01052Y01364*
X01058Y01363*
X01063Y01364*
X01068Y01367*
X01071Y01372*
X01072Y01377*
X01071Y01383*
X01068Y01387*
X01063Y0139*
X01058Y01392*
G37*
G36*
X00061Y01414D02*
X00055Y01413D01*
X00051Y0141*
X00047Y01405*
X00046Y014*
X00047Y01394*
X00048Y01394*
X00048Y01393*
X00045Y01389*
X00042Y01388*
X00038Y01385*
X00035Y0138*
X00034Y01375*
X00035Y01369*
X00038Y01365*
X00042Y01362*
X00048Y01361*
X00053Y01362*
X00058Y01365*
X00061Y01369*
X00062Y01375*
X00061Y0138*
X0006Y01381*
X0006Y01381*
X00063Y01386*
X00066Y01387*
X0007Y0139*
X00074Y01394*
X00075Y014*
X00074Y01405*
X0007Y0141*
X00066Y01413*
X00061Y01414*
G37*
G36*
X00139Y01384D02*
X00134Y01383D01*
X00129Y0138*
X00126Y01375*
X00125Y0137*
X00126Y01364*
X00129Y0136*
X00134Y01357*
X00139Y01356*
X00145Y01357*
X00149Y0136*
X00152Y01364*
X00153Y0137*
X00152Y01375*
X00149Y0138*
X00145Y01383*
X00139Y01384*
G37*
G36*
X00336Y01384D02*
X00331Y01383D01*
X00326Y0138*
X00323Y01375*
X00322Y0137*
X00323Y01364*
X00326Y0136*
X00331Y01357*
X00336Y01356*
X00342Y01357*
X00346Y0136*
X00349Y01364*
X0035Y0137*
X00349Y01375*
X00346Y0138*
X00342Y01383*
X00336Y01384*
G37*
G36*
X00297D02*
X00291Y01383D01*
X00287Y0138*
X00284Y01375*
X00283Y0137*
X00284Y01364*
X00287Y0136*
X00291Y01357*
X00297Y01356*
X00302Y01357*
X00307Y0136*
X0031Y01364*
X00311Y0137*
X0031Y01375*
X00307Y0138*
X00302Y01383*
X00297Y01384*
G37*
G36*
X0008D02*
X00075Y01383D01*
X0007Y0138*
X00067Y01375*
X00066Y0137*
X00067Y01364*
X0007Y0136*
X00075Y01357*
X0008Y01356*
X00086Y01357*
X0009Y0136*
X00093Y01364*
X00094Y0137*
X00093Y01375*
X0009Y0138*
X00086Y01383*
X0008Y01384*
G37*
G36*
X-00017D02*
X-00023Y01383D01*
X-00027Y0138*
X-0003Y01375*
X-00031Y0137*
X-0003Y01364*
X-00027Y0136*
X-00023Y01357*
X-00017Y01356*
X-00012Y01357*
X-00007Y0136*
X-00004Y01364*
X-00003Y0137*
X-00004Y01375*
X-00007Y0138*
X-00012Y01383*
X-00017Y01384*
G37*
G36*
X00396Y01383D02*
X00391Y01382D01*
X00386Y01379*
X00383Y01374*
X00382Y01369*
X00383Y01363*
X00386Y01359*
X00391Y01356*
X00396Y01355*
X00402Y01356*
X00406Y01359*
X00409Y01363*
X0041Y01369*
X00409Y01374*
X00406Y01379*
X00402Y01382*
X00396Y01383*
G37*
G36*
X-00706Y01375D02*
X-00712Y01374D01*
X-00716Y01371*
X-00719Y01367*
X-0072Y01361*
X-00719Y01356*
X-00716Y01351*
X-00712Y01348*
X-00706Y01347*
X-00701Y01348*
X-00696Y01351*
X-00693Y01356*
X-00692Y01361*
X-00693Y01367*
X-00696Y01371*
X-00701Y01374*
X-00706Y01375*
G37*
G36*
X01089Y01367D02*
X01084Y01366D01*
X01079Y01363*
X01076Y01358*
X01075Y01353*
X01076Y01348*
X01079Y01343*
X01084Y0134*
X01089Y01339*
X01095Y0134*
X01099Y01343*
X01102Y01348*
X01103Y01353*
X01102Y01358*
X01099Y01363*
X01095Y01366*
X01089Y01367*
G37*
G36*
X-00455Y01331D02*
X-00455Y01331D01*
X-00455Y01331*
X-00456Y0133*
X-00458Y0133*
X-00458Y0133*
X-00458Y0133*
X-00458Y01329*
X-00462*
X-00465Y01328*
X-00468Y01326*
X-0047Y01323*
X-00471Y0132*
X-0047Y01316*
X-00468Y01313*
X-00465Y01311*
X-00462Y01311*
X-00458*
X-00458Y0131*
X-00458Y0131*
X-00458Y0131*
X-00456Y01309*
X-00455Y01309*
X-00455Y01309*
X-00455Y01309*
X-00453Y01309*
X-00452Y0131*
X-00452Y0131*
X-00452Y0131*
X-00452Y0131*
X-00451Y0131*
X-00451Y0131*
X-0045Y0131*
X-0045Y0131*
X-00448Y01311*
X-00447Y01311*
X-00447Y01311*
X-00323*
X-00323Y01311*
X-00323Y01311*
X-00323Y01311*
X-00321Y0131*
X-0032Y0131*
X-0032Y0131*
X-00319Y0131*
X-00319Y0131*
X-00319Y0131*
X-00319Y0131*
X-00319Y0131*
X-00317Y01309*
X-00317Y01309*
X-00316Y01308*
X-00316Y01308*
X-00316Y01308*
X-00313Y01309*
X-00311Y0131*
X-00308Y0131*
X-00304Y0131*
X-00301Y01312*
X-00299Y01315*
X-00299Y01319*
X-00299Y01322*
X-00301Y01325*
X-00302Y01326*
X-00305Y01328*
X-00309Y01329*
X-00311*
X-00311Y01329*
X-00312Y0133*
X-00313Y01331*
X-00314Y01331*
X-00314Y01331*
X-00315Y0133*
X-00317Y0133*
X-00317Y0133*
X-00317Y0133*
X-00317Y0133*
X-00317Y0133*
X-00318Y01329*
X-00318Y01329*
X-00321Y01329*
X-00322Y01329*
X-00322Y01329*
X-00447*
X-00447Y01329*
X-00449Y01329*
X-0045Y01329*
X-0045Y01329*
X-00451Y0133*
X-00451Y0133*
X-00452Y0133*
X-00452Y0133*
X-00452Y0133*
X-00452Y0133*
X-00453Y01331*
X-00453Y01331*
X-00455Y01331*
X-00455*
G37*
G36*
X00908Y01339D02*
X00902Y01338D01*
X00898Y01335*
X00895Y0133*
X00894Y01325*
X00895Y01319*
X00898Y01315*
X00902Y01312*
X00908Y01311*
X00913Y01312*
X00918Y01315*
X00921Y01319*
X00922Y01325*
X00921Y0133*
X00918Y01335*
X00913Y01338*
X00908Y01339*
G37*
G36*
X01114Y01339D02*
X01109Y01338D01*
X01104Y01335*
X01101Y0133*
X011Y01325*
X01101Y01319*
X01104Y01315*
X01109Y01312*
X01114Y01311*
X0112Y01312*
X01124Y01315*
X01127Y01319*
X01128Y01325*
X01127Y0133*
X01124Y01335*
X0112Y01338*
X01114Y01339*
G37*
G36*
X0115Y01313D02*
X01144Y01312D01*
X0114Y01309*
X01137Y01304*
X01136Y01299*
X01137Y01293*
X0114Y01289*
X01144Y01286*
X0115Y01285*
X01155Y01286*
X0116Y01289*
X01163Y01293*
X01164Y01299*
X01163Y01304*
X0116Y01309*
X01155Y01312*
X0115Y01313*
G37*
G36*
X00938Y01274D02*
X00932Y01273D01*
X00928Y0127*
X00925Y01265*
X00924Y0126*
X00925Y01254*
X00928Y0125*
X00932Y01247*
X00938Y01246*
X00943Y01247*
X00948Y0125*
X00951Y01254*
X00952Y0126*
X00951Y01265*
X00948Y0127*
X00943Y01273*
X00938Y01274*
G37*
G36*
X01028Y01234D02*
X01022Y01233D01*
X01018Y0123*
X01015Y01225*
X01014Y0122*
X01015Y01214*
X01018Y0121*
X01022Y01207*
X01028Y01206*
X01033Y01207*
X01038Y0121*
X01041Y01214*
X01042Y0122*
X01041Y01225*
X01038Y0123*
X01033Y01233*
X01028Y01234*
G37*
G36*
X-00539Y01224D02*
X-00544Y01223D01*
X-00549Y0122*
X-00552Y01215*
X-00553Y0121*
X-00552Y01204*
X-00551Y01203*
X-00554Y012*
X-00555Y01201*
X-00559Y01203*
X-00564Y01204*
X-0057Y01203*
X-00574Y012*
X-00577Y01195*
X-00578Y0119*
X-00577Y01184*
X-00574Y0118*
X-0057Y01177*
X-00564Y01176*
X-00559Y01177*
X-00554Y0118*
X-00551Y01184*
X-0055Y0119*
X-00551Y01195*
X-00552Y01197*
X-00549Y012*
X-00548Y01199*
X-00544Y01197*
X-00539Y01196*
X-00533Y01197*
X-00529Y012*
X-00526Y01204*
X-00524Y0121*
X-00526Y01215*
X-00529Y0122*
X-00533Y01223*
X-00539Y01224*
G37*
G36*
X00998Y01209D02*
X00992Y01208D01*
X00988Y01205*
X00985Y012*
X00984Y01195*
X00985Y0119*
X00988Y01185*
X00992Y01182*
X00998Y01181*
X01003Y01182*
X01008Y01185*
X01011Y0119*
X01012Y01195*
X01011Y012*
X01008Y01205*
X01003Y01208*
X00998Y01209*
G37*
G36*
X-00538Y01155D02*
X-00543Y01154D01*
X-00548Y01151*
X-00551Y01147*
X-00552Y01141*
X-00551Y01136*
X-00548Y01131*
X-00543Y01128*
X-00538Y01127*
X-00532Y01128*
X-00528Y01131*
X-00525Y01136*
X-00524Y01141*
X-00525Y01147*
X-00528Y01151*
X-00532Y01154*
X-00538Y01155*
G37*
G36*
X-00564Y01116D02*
X-0057Y01115D01*
X-00574Y01112*
X-00577Y01107*
X-00578Y01102*
X-00577Y01096*
X-00574Y01092*
X-0057Y01089*
X-00564Y01088*
X-00559Y01089*
X-00554Y01092*
X-00551Y01096*
X-0055Y01102*
X-00551Y01107*
X-00554Y01112*
X-00559Y01115*
X-00564Y01116*
G37*
G36*
X-00984Y01223D02*
X-00989Y01222D01*
X-00994Y01219*
X-00997Y01214*
X-00998Y01209*
X-00997Y01204*
X-00995Y012*
Y012*
X-00994Y012*
Y012*
X-00994Y012*
X-00994Y012*
X-00994Y01199*
X-00994Y01196*
X-00994Y01195*
X-00994Y01195*
Y01042*
X-00993Y01039*
X-00991Y01035*
X-00932Y00977*
X-00929Y00974*
X-00925Y00974*
X-00662*
X-00662Y00974*
X-00662Y00974*
X-00661Y00973*
X-00659Y00973*
X-00658Y00973*
X-00658Y00973*
X-00657Y00973*
X-00657Y00973*
X-00657Y00973*
X-00656Y00972*
X-00656Y00972*
X-00656Y00972*
X-00656Y00972*
X-00656Y00969*
X-00656Y00968*
X-00656Y00968*
X-00656Y00968*
X-00656Y00968*
Y00856*
X-00656Y00855*
X-00656Y00854*
X-00656Y00853*
X-00656Y00851*
X-00656Y00851*
X-00656Y00851*
X-00656Y00851*
Y00851*
X-00657Y00851*
X-00659Y00847*
X-0066Y00842*
X-00659Y00836*
X-00656Y00832*
X-00651Y00828*
X-00646Y00827*
X-0064Y00828*
X-00636Y00832*
X-00633Y00836*
X-00632Y00842*
X-00633Y00847*
X-00635Y00851*
X-00635Y00851*
X-00635Y00851*
X-00635Y00851*
X-00635Y00851*
X-00635Y00851*
X-00636Y00854*
X-00636Y00855*
X-00636Y00856*
Y00969*
X-00636Y0097*
X-00636Y0097*
X-00632Y00974*
X-00632Y00974*
X-00476*
X-00476Y00973*
X-00475Y00973*
X-00473Y00973*
X-00472Y00973*
X-00471Y00973*
X-00471Y00973*
X-00471Y00973*
X-00471*
X-00471Y00973*
X-00467Y00971*
X-00462Y0097*
X-00456Y00971*
X-00452Y00974*
X-00449Y00978*
X-00448Y00984*
X-00449Y00989*
X-00452Y00994*
X-00456Y00997*
X-00462Y00998*
X-00467Y00997*
X-00471Y00994*
X-00471Y00994*
X-00471*
X-00471Y00994*
X-00471Y00994*
X-00472Y00994*
X-00475Y00994*
X-00476Y00994*
X-00476Y00994*
X-00634*
X-00634Y00994*
X-00636Y00994*
X-00637Y00994*
X-00639Y00994*
X-00639Y00994*
X-00639Y00994*
X-00639Y00994*
X-00639Y00994*
X-00639Y00994*
X-00639Y00994*
X-00641Y00996*
X-00647Y00997*
X-00652Y00996*
X-00655Y00994*
X-00655Y00994*
X-00655*
X-00655Y00994*
X-00659Y00994*
X-0066*
X-0066Y00994*
X-00921*
X-00974Y01047*
Y01195*
X-00974Y01195*
X-00974Y01196*
X-00974Y01198*
X-00973Y01199*
X-00973Y012*
X-00973Y012*
X-00973Y012*
Y012*
X-00973Y012*
Y012*
X-00971Y01204*
X-0097Y01209*
X-00971Y01214*
X-00974Y01219*
X-00978Y01222*
X-00984Y01223*
G37*
G36*
X-00756Y00958D02*
X-00762Y00957D01*
X-00766Y00954*
X-00769Y0095*
X-0077Y00944*
X-00769Y00939*
X-00766Y00934*
X-00762Y00931*
X-00756Y0093*
X-00751Y00931*
X-00746Y00934*
X-00743Y00939*
X-00742Y00944*
X-00743Y0095*
X-00746Y00954*
X-00751Y00957*
X-00756Y00958*
G37*
G36*
X-00564Y00919D02*
X-0057Y00918D01*
X-00574Y00915*
X-00577Y0091*
X-00578Y00905*
X-00577Y009*
X-00574Y00895*
X-0057Y00892*
X-00564Y00891*
X-00559Y00892*
X-00554Y00895*
X-00551Y009*
X-0055Y00905*
X-00551Y0091*
X-00554Y00915*
X-00559Y00918*
X-00564Y00919*
G37*
G36*
X-00539Y0088D02*
X-00544Y00879D01*
X-00549Y00876*
X-00552Y00871*
X-00553Y00866*
X-00552Y0086*
X-00549Y00856*
X-00544Y00853*
X-00539Y00852*
X-00533Y00853*
X-00529Y00856*
X-00526Y0086*
X-00524Y00866*
X-00526Y00871*
X-00529Y00876*
X-00533Y00879*
X-00539Y0088*
G37*
G36*
X-00786Y0084D02*
X-00792Y00839D01*
X-00796Y00836*
X-00799Y00832*
X-008Y00826*
X-00799Y00821*
X-00796Y00816*
X-00792Y00813*
X-00786Y00812*
X-00781Y00813*
X-00776Y00816*
X-00773Y00821*
X-00772Y00826*
X-00773Y00832*
X-00776Y00836*
X-00781Y00839*
X-00786Y0084*
G37*
G36*
X-00342Y0084D02*
X-00347Y00839D01*
X-00352Y00836*
X-00352Y00836*
X-00352Y00836*
X-00353Y00835*
X-00354Y00835*
X-00354Y00834*
X-00355Y00834*
X-00355Y00834*
X-00356Y00834*
X-00356Y00834*
X-00357Y00834*
X-00357Y00834*
X-00358Y00833*
X-00485*
X-00488Y00833*
X-0049Y00831*
X-00507Y00814*
X-00507Y00814*
X-00508Y00814*
X-00508Y00814*
X-00509Y00813*
X-00509Y00813*
X-00509Y00813*
X-0051Y00813*
X-00511Y00813*
X-00511Y00812*
X-00512Y00812*
X-00513Y00812*
X-00513Y00812*
X-00518Y00811*
X-00523Y00808*
X-00526Y00804*
X-00527Y00798*
X-00526Y00793*
X-00523Y00788*
X-00518Y00785*
X-00513Y00784*
X-00508Y00785*
X-00503Y00788*
X-005Y00793*
X-00499Y00798*
X-00499Y00798*
X-00499Y00799*
X-00499Y008*
X-00499Y00801*
X-00499Y00801*
X-00498Y00802*
X-00498Y00802*
X-00498Y00803*
X-00498Y00803*
X-00497Y00803*
X-00497Y00804*
X-00497Y00804*
X-00482Y00819*
X-00358*
X-00357Y00819*
X-00357Y00819*
X-00356Y00819*
X-00356Y00819*
X-00355Y00819*
X-00355Y00818*
X-00354Y00818*
X-00354Y00818*
X-00353Y00817*
X-00352Y00817*
X-00352Y00816*
X-00352Y00816*
X-00347Y00813*
X-00342Y00812*
X-00336Y00813*
X-00332Y00816*
X-00329Y00821*
X-00328Y00826*
X-00329Y00832*
X-00332Y00836*
X-00336Y00839*
X-00342Y0084*
G37*
G36*
X-0096Y00722D02*
X-00966Y00721D01*
X-0097Y00718*
X-00973Y00714*
X-00974Y00708*
X-00973Y00703*
X-0097Y00698*
X-00966Y00695*
X-0096Y00694*
X-00955Y00695*
X-0095Y00698*
X-00947Y00703*
X-00946Y00708*
X-00947Y00714*
X-0095Y00718*
X-00955Y00721*
X-0096Y00722*
G37*
G36*
X-00996Y00687D02*
X-01001Y00686D01*
X-01006Y00683*
X-01009Y00679*
X-0101Y00673*
X-01009Y00668*
X-01006Y00663*
X-01001Y0066*
X-00996Y00659*
X-00991Y0066*
X-00986Y00663*
X-00983Y00668*
X-00982Y00673*
X-00983Y00679*
X-00986Y00683*
X-00991Y00686*
X-00996Y00687*
G37*
G36*
X-0096Y00644D02*
X-00966Y00642D01*
X-0097Y00639*
X-00973Y00635*
X-00974Y00629*
X-00973Y00624*
X-0097Y00619*
X-00966Y00616*
X-0096Y00615*
X-00955Y00616*
X-0095Y00619*
X-00947Y00624*
X-00946Y00629*
X-00947Y00635*
X-0095Y00639*
X-00955Y00642*
X-0096Y00644*
G37*
G36*
X0148Y00787D02*
X01462Y00786D01*
X01444Y0078*
X01428Y00772*
X01414Y0076*
X01402Y00746*
X01394Y0073*
X01389Y00713*
X01387Y00694*
X01389Y00676*
X01394Y00659*
X01402Y00643*
X01414Y00629*
X01428Y00617*
X01444Y00608*
X01462Y00603*
X0148Y00601*
X01498Y00603*
X01515Y00608*
X01532Y00617*
X01546Y00629*
X01557Y00643*
X01566Y00659*
X01571Y00676*
X01573Y00694*
X01571Y00713*
X01566Y0073*
X01557Y00746*
X01546Y0076*
X01532Y00772*
X01515Y0078*
X01498Y00786*
X0148Y00787*
G37*
G36*
X-01194D02*
X-01213Y00786D01*
X-0123Y0078*
X-01246Y00772*
X-0126Y0076*
X-01272Y00746*
X-0128Y0073*
X-01286Y00713*
X-01287Y00694*
X-01286Y00676*
X-0128Y00659*
X-01272Y00643*
X-0126Y00629*
X-01246Y00617*
X-0123Y00608*
X-01213Y00603*
X-01194Y00601*
X-01176Y00603*
X-01159Y00608*
X-01143Y00617*
X-01129Y00629*
X-01117Y00643*
X-01108Y00659*
X-01103Y00676*
X-01101Y00694*
X-01103Y00713*
X-01108Y0073*
X-01117Y00746*
X-01129Y0076*
X-01143Y00772*
X-01159Y0078*
X-01176Y00786*
X-01194Y00787*
G37*
G36*
X-0099Y00604D02*
X-00996Y00603D01*
X-01Y006*
X-01003Y00595*
X-01004Y0059*
X-01003Y00585*
X-01Y0058*
X-00996Y00577*
X-0099Y00576*
X-00985Y00577*
X-0098Y0058*
X-00977Y00585*
X-00976Y0059*
X-00977Y00595*
X-0098Y006*
X-00985Y00603*
X-0099Y00604*
G37*
G36*
X-00416Y00588D02*
X-00421Y00587D01*
X-00426Y00584*
X-00429Y00579*
X-0043Y00574*
X-00429Y00568*
X-00426Y00564*
X-00421Y00561*
X-00416Y0056*
X-0041Y00561*
X-00406Y00564*
X-00403Y00568*
X-00402Y00574*
X-00403Y00579*
X-00406Y00584*
X-0041Y00587*
X-00416Y00588*
G37*
G36*
X-00038Y01326D02*
X-00048Y01324D01*
X-00056Y01318*
X-00062Y0131*
X-00064Y013*
X-00063Y01295*
X-00063Y00576*
X-00063Y00576*
X-00064*
X-00062Y00566*
X-00056Y00558*
X-00048Y00552*
X-00038Y00551*
X-00038Y00551*
X0074Y00551*
X00745Y00551*
X00755Y00552*
X00763Y00558*
X00769Y00566*
X00771Y00576*
X0077Y00581*
X0077Y013*
X0077Y013*
X00771*
X00769Y0131*
X00763Y01318*
X00755Y01324*
X00745Y01326*
X0074Y01326*
X-00038Y01326*
Y01326*
G37*
G36*
X00336Y00539D02*
X00331Y00538D01*
X00326Y00535*
X00323Y0053*
X00322Y00525*
X00323Y00519*
X00326Y00515*
X00331Y00512*
X00336Y00511*
X00342Y00512*
X00346Y00515*
X00349Y00519*
X0035Y00525*
X00349Y0053*
X00346Y00535*
X00342Y00538*
X00336Y00539*
G37*
G36*
X-0016Y00503D02*
X-00165Y00502D01*
X-00169Y00499*
X-0017Y00499*
X-0017Y00499*
X-00171Y00498*
X-00171Y00498*
X-00172Y00497*
X-00172Y00497*
X-00173Y00497*
X-00173Y00497*
X-00174Y00497*
X-00174Y00497*
X-00175Y00497*
X-00175Y00496*
X-00366*
X-00366Y00497*
X-00367Y00497*
X-00367Y00497*
X-00368Y00497*
X-00369Y00497*
X-00369Y00497*
X-0037Y00497*
X-0037Y00498*
X-00372Y00499*
X-00373Y00499*
X-00373Y00499*
X-00376Y00501*
X-00381Y00502*
X-00387Y00501*
X-00391Y00498*
X-00394Y00493*
X-00395Y00488*
X-00394Y00482*
X-00391Y00478*
X-00387Y00475*
X-00381Y00474*
X-00376Y00475*
X-00371Y00478*
X-0037Y00479*
X-0037Y00479*
X-00369Y0048*
X-00369Y0048*
X-00368Y00481*
X-00368Y00481*
X-00368Y00481*
X-00367Y00482*
X-00367Y00482*
X-00366Y00482*
X-00366Y00482*
X-00365Y00482*
X-00365Y00482*
X-00365Y00482*
X-00365Y00482*
X-00175*
X-00175Y00482*
X-00174Y00482*
X-00174Y00482*
X-00173Y00482*
X-00173Y00482*
X-00172Y00481*
X-00172Y00481*
X-00171Y00481*
X-00171Y0048*
X-0017Y0048*
X-0017Y00479*
X-00169Y00479*
X-00165Y00476*
X-0016Y00475*
X-00154Y00476*
X-0015Y00479*
X-00146Y00484*
X-00145Y00489*
X-00146Y00495*
X-0015Y00499*
X-00154Y00502*
X-0016Y00503*
G37*
G36*
X-00539Y00575D02*
X-00544Y00574D01*
X-00549Y00571*
X-00552Y00566*
X-00553Y00561*
X-00552Y00556*
X-00549Y00551*
X-00549Y00551*
X-00548Y0055*
X-00547Y0055*
X-00547Y00549*
X-00547Y00549*
X-00546Y00548*
X-00546Y00548*
X-00546Y00547*
X-00546Y00547*
X-00546Y00546*
X-00546Y00545*
X-00546Y00545*
Y00478*
X-00545Y00476*
X-00544Y00473*
X-00526Y00455*
X-00523Y00454*
X-00521Y00453*
X00302*
X00305Y00454*
X00307Y00455*
X00336Y00485*
X0034Y00484*
X0034Y00483*
X00343Y00479*
X00342Y00475*
X00343Y00469*
X00346Y00465*
X00346Y00465*
X00346Y00464*
X00347Y00464*
X00347Y00463*
X00348Y00463*
X00348Y00462*
X00348Y00462*
X00348Y00461*
X00348Y00461*
X00335Y00447*
X-00546*
X-00548Y00449*
X-00548Y00449*
X-00549Y0045*
X-00549Y0045*
X-00549Y00451*
X-00549Y00451*
X-0055Y00452*
X-0055Y00452*
X-0055Y00453*
X-0055Y00454*
X-0055Y00454*
X-0055Y00455*
X-0055Y00455*
X-00551Y00461*
X-00554Y00465*
X-00559Y00468*
X-00564Y00469*
X-0057Y00468*
X-00574Y00465*
X-00577Y00461*
X-00578Y00455*
X-00577Y0045*
X-00574Y00445*
X-0057Y00442*
X-00564Y00441*
X-00564Y00441*
X-00563Y00441*
X-00563Y00441*
X-00562Y00441*
X-00561Y00441*
X-00561Y00441*
X-0056Y0044*
X-0056Y0044*
X-00559Y0044*
X-00559Y0044*
X-00558Y00439*
X-00558Y00437*
X-00561Y00432*
X-00575*
X-00576Y00433*
X-00577Y00438*
X-0058Y00443*
X-00584Y00446*
X-0059Y00447*
X-00595Y00446*
X-006Y00443*
X-00603Y00438*
X-00604Y00433*
X-00603Y00427*
X-006Y00423*
X-00595Y0042*
X-0059Y00418*
X-00586Y00419*
X-00585Y00418*
X-00582Y00418*
X00161*
X00179Y004*
X00182Y00398*
X00184Y00398*
X00927*
X00927Y00398*
X00928Y00398*
X00928Y00397*
X00929Y00397*
X00929Y00397*
X0093Y00397*
X0093Y00397*
X00931Y00396*
X00931Y00396*
X00932Y00396*
X00933Y00395*
X00933Y00395*
X00937Y00392*
X00943Y00391*
X00948Y00392*
X00953Y00395*
X00956Y00399*
X00957Y00405*
X00956Y0041*
X00953Y00415*
X00948Y00418*
X00943Y00419*
X00937Y00418*
X00933Y00415*
X00933Y00415*
X00932Y00414*
X00931Y00414*
X00931Y00413*
X0093Y00413*
X0093Y00413*
X00929Y00413*
X00929Y00412*
X00928Y00412*
X00928Y00412*
X00927Y00412*
X00927Y00412*
X00872*
X00869Y00417*
X00871Y00419*
X00872Y00425*
X00871Y0043*
X00868Y00435*
X00863Y00438*
X00858Y00439*
X00852Y00438*
X00848Y00435*
X00845Y0043*
X00844Y00425*
X00845Y00419*
X00846Y00417*
X00844Y00412*
X00187*
X00172Y00428*
X00174Y00433*
X00338*
X0034Y00433*
X00343Y00435*
X00361Y00453*
X00362Y00455*
X00363Y00458*
Y00459*
X00363Y00459*
X00363Y0046*
X00363Y00461*
X00363Y00461*
X00363Y00462*
X00364Y00462*
X00364Y00463*
X00364Y00463*
X00365Y00464*
X00365Y00464*
X00366Y00465*
X00366Y00465*
X00369Y00469*
X0037Y00475*
X0037Y00475*
X00374Y00479*
X00375Y00479*
X00381Y0048*
X00385Y00483*
X00389Y00488*
X0039Y00493*
X00389Y00499*
X00385Y00503*
X00381Y00506*
X00375Y00507*
X0037Y00506*
X00366Y00503*
X00365Y00503*
X00365Y00503*
X00364Y00502*
X00364Y00502*
X00363Y00501*
X00363Y00501*
X00362Y00501*
X00362Y00501*
X00361Y00501*
X00361Y00501*
X0036Y00501*
X0036Y005*
X00335*
X00332Y005*
X0033Y00498*
X00299Y00467*
X-00518*
X-00531Y00481*
Y00545*
X-00531Y00545*
X-00531Y00546*
X-00531Y00547*
X-00531Y00547*
X-00531Y00548*
X-00531Y00548*
X-0053Y00549*
X-0053Y00549*
X-0053Y0055*
X-00529Y0055*
X-00529Y00551*
X-00528Y00551*
X-00526Y00556*
X-00524Y00561*
X-00526Y00566*
X-00529Y00571*
X-00533Y00574*
X-00539Y00575*
G37*
G36*
X-0097Y00447D02*
X-00976Y00446D01*
X-0098Y00443*
X-00983Y00438*
X-00983Y00438*
X-00988*
X-00988Y00438*
X-00991Y00443*
X-00996Y00446*
X-01001Y00447*
X-01007Y00446*
X-01011Y00443*
X-01011Y00442*
X-01016*
X-01016Y00443*
X-01021Y00446*
X-01026Y00447*
X-01032Y00446*
X-01036Y00443*
X-01036Y00442*
X-01041*
X-01041Y00443*
X-01046Y00446*
X-01051Y00447*
X-01057Y00446*
X-01061Y00443*
X-01064Y00438*
X-01065Y00433*
X-01064Y00427*
X-01061Y00423*
X-01057Y00419*
X-01051Y00418*
X-01046Y00419*
X-01041Y00423*
X-01041Y00423*
X-01036*
X-01036Y00423*
X-01032Y00419*
X-01026Y00418*
X-01021Y00419*
X-01016Y00423*
X-01016Y00423*
X-01011*
X-01011Y00423*
X-01007Y00419*
X-01001Y00418*
X-00996Y00419*
X-00991Y00423*
X-00988Y00427*
X-00988Y00427*
X-00983*
X-00983Y00427*
X-0098Y00423*
X-00976Y00419*
X-0097Y00418*
X-00965Y00419*
X-0096Y00423*
X-00957Y00427*
X-00956Y00433*
X-00957Y00438*
X-0096Y00443*
X-00965Y00446*
X-0097Y00447*
G37*
G36*
X00395Y00464D02*
X0039Y00463D01*
X00385Y0046*
X00382Y00455*
X00381Y0045*
X00382Y00444*
X00385Y0044*
X0039Y00437*
X00395Y00436*
X00401Y00437*
X00405Y0044*
X00408Y00444*
X00409Y0045*
X00408Y00455*
X00405Y0046*
X00401Y00463*
X00395Y00464*
G37*
G36*
X00159Y00407D02*
X00154Y00406D01*
X00149Y00403*
X00146Y00399*
X00145Y00393*
X00146Y00388*
X00149Y00383*
X00154Y0038*
X00159Y00379*
X00164Y0038*
X00169Y00383*
X00172Y00388*
X00173Y00393*
X00172Y00399*
X00169Y00403*
X00164Y00406*
X00159Y00407*
G37*
G36*
X00297Y00379D02*
X00291Y00378D01*
X00287Y00375*
X00284Y0037*
X00283Y00365*
X00284Y00359*
X00287Y00355*
X00291Y00352*
X00297Y00351*
X00302Y00352*
X00307Y00355*
X0031Y00359*
X00311Y00365*
X0031Y0037*
X00307Y00375*
X00302Y00378*
X00297Y00379*
G37*
G36*
X-00756Y00368D02*
X-00762Y00367D01*
X-00766Y00364*
X-00769Y00359*
X-0077Y00354*
X-00769Y00348*
X-00766Y00344*
X-00762Y00341*
X-00756Y0034*
X-00751Y00341*
X-00746Y00344*
X-00743Y00348*
X-00742Y00354*
X-00743Y00359*
X-00746Y00364*
X-00751Y00367*
X-00756Y00368*
G37*
G36*
X00198Y00349D02*
X00193Y00348D01*
X00188Y00345*
X00185Y0034*
X00184Y00335*
X00185Y00329*
X00188Y00325*
X00193Y00322*
X00198Y00321*
X00204Y00322*
X00208Y00325*
X00211Y00329*
X00212Y00335*
X00211Y0034*
X00208Y00345*
X00204Y00348*
X00198Y00349*
G37*
G36*
X00238Y00329D02*
X00232Y00327D01*
X00228Y00324*
X00225Y0032*
X00224Y00314*
X00225Y00309*
X00228Y00304*
X00232Y00301*
X00238Y003*
X00242Y00301*
X00244Y00299*
X00246Y00297*
X00244Y00295*
X00243Y0029*
X00244Y00284*
X00247Y0028*
X00252Y00277*
X00257Y00276*
X00263Y00277*
X00267Y0028*
X0027Y00284*
X00271Y0029*
X0027Y00295*
X00267Y003*
X00263Y00303*
X00257Y00304*
X00253Y00303*
X00251Y00305*
X00249Y00307*
X00251Y00309*
X00252Y00314*
X00251Y0032*
X00248Y00324*
X00243Y00327*
X00238Y00329*
G37*
G36*
X-00251Y00289D02*
X-00257Y00288D01*
X-00261Y00285*
X-00264Y0028*
X-00265Y00275*
X-00264Y0027*
X-00261Y00265*
X-00257Y00262*
X-00251Y00261*
X-00246Y00262*
X-00241Y00265*
X-00238Y0027*
X-00237Y00275*
X-00238Y0028*
X-00241Y00285*
X-00246Y00288*
X-00251Y00289*
G37*
G36*
X0012Y00282D02*
X00114Y00281D01*
X0011Y00278*
X00107Y00274*
X00105Y00268*
X00107Y00263*
X0011Y00258*
X00114Y00255*
X0012Y00254*
X00125Y00255*
X0013Y00258*
X00133Y00263*
X00134Y00268*
X00133Y00274*
X0013Y00278*
X00125Y00281*
X0012Y00282*
G37*
G36*
X001Y00255D02*
X00094Y00254D01*
X0009Y0025*
X00087Y00246*
X00086Y0024*
X00087Y00235*
X0009Y0023*
X00094Y00227*
X001Y00226*
X00105Y00227*
X0011Y0023*
X00113Y00235*
X00114Y0024*
X00113Y00246*
X0011Y0025*
X00105Y00254*
X001Y00255*
G37*
G36*
X-00735Y0025D02*
X-00741Y00249D01*
X-00745Y00246*
X-00748Y00241*
X-0075Y00236*
X-00748Y0023*
X-00745Y00226*
X-00741Y00223*
X-00735Y00222*
X-0073Y00223*
X-00725Y00226*
X-00722Y0023*
X-00721Y00236*
X-00722Y00241*
X-00725Y00246*
X-0073Y00249*
X-00735Y0025*
G37*
G36*
X00996Y00199D02*
X00991Y00198D01*
X00986Y00195*
X00983Y0019*
X00982Y00185*
X00983Y00179*
X00986Y00175*
X00991Y00172*
X00996Y00171*
X01001Y00172*
X01006Y00175*
X01009Y00179*
X0101Y00185*
X01009Y0019*
X01006Y00195*
X01001Y00198*
X00996Y00199*
G37*
G36*
X00957D02*
X00951Y00198D01*
X00947Y00195*
X00944Y0019*
X00943Y00185*
X00944Y00179*
X00947Y00175*
X00951Y00172*
X00957Y00171*
X00962Y00172*
X00967Y00175*
X0097Y00179*
X00971Y00185*
X0097Y0019*
X00967Y00195*
X00962Y00198*
X00957Y00199*
G37*
G36*
X00917D02*
X00912Y00198D01*
X00907Y00195*
X00904Y0019*
X00903Y00185*
X00904Y00179*
X00907Y00175*
X00912Y00172*
X00917Y00171*
X00923Y00172*
X00927Y00175*
X0093Y00179*
X00931Y00185*
X0093Y0019*
X00927Y00195*
X00923Y00198*
X00917Y00199*
G37*
G36*
X00041D02*
X00035Y00198D01*
X00031Y00195*
X00028Y0019*
X00027Y00185*
X00028Y00179*
X00031Y00175*
X00035Y00172*
X00041Y00171*
X00046Y00172*
X00051Y00175*
X00054Y00179*
X00055Y00185*
X00054Y0019*
X00051Y00195*
X00046Y00198*
X00041Y00199*
G37*
G36*
X00563Y00199D02*
X00558Y00198D01*
X00553Y00195*
X0055Y0019*
X00549Y00185*
X0055Y00179*
X00553Y00175*
X00558Y00172*
X00563Y00171*
X00569Y00172*
X00573Y00175*
X00576Y00179*
X00577Y00185*
X00576Y0019*
X00573Y00195*
X00569Y00198*
X00563Y00199*
G37*
G36*
X01035Y00199D02*
X0103Y00198D01*
X01025Y00195*
X01022Y0019*
X01021Y00185*
X01022Y00179*
X01025Y00175*
X0103Y00172*
X01035Y00171*
X01041Y00172*
X01045Y00175*
X01048Y00179*
X01049Y00185*
X01048Y0019*
X01045Y00195*
X01041Y00198*
X01035Y00199*
G37*
G36*
X-00089Y00171D02*
X-00095Y0017D01*
X-00099Y00167*
X-00102Y00162*
X-00103Y00157*
X-00102Y00152*
X-00099Y00147*
X-00095Y00144*
X-00089Y00143*
X-00084Y00144*
X-00079Y00147*
X-00076Y00152*
X-00075Y00157*
X-00076Y00162*
X-00079Y00167*
X-00084Y0017*
X-00089Y00171*
G37*
G36*
X00238Y00148D02*
X00232Y00147D01*
X00228Y00144*
X00225Y00139*
X00224Y00134*
X00225Y00129*
X00228Y00124*
X00232Y00121*
X00238Y0012*
X00243Y00121*
X00248Y00124*
X00251Y00129*
X00252Y00134*
X00251Y00139*
X00248Y00144*
X00243Y00147*
X00238Y00148*
G37*
G36*
X00179Y00148D02*
X00173Y00147D01*
X00169Y00144*
X00166Y00139*
X00165Y00134*
X00166Y00129*
X00169Y00124*
X00173Y00121*
X00179Y0012*
X00184Y00121*
X00189Y00124*
X00192Y00129*
X00193Y00134*
X00192Y00139*
X00189Y00144*
X00184Y00147*
X00179Y00148*
G37*
G36*
X00563Y00148D02*
X00558Y00147D01*
X00553Y00144*
X0055Y00139*
X00549Y00134*
X0055Y00128*
X00553Y00124*
X00558Y00121*
X00563Y0012*
X00569Y00121*
X00573Y00124*
X00576Y00128*
X00577Y00134*
X00576Y00139*
X00573Y00144*
X00569Y00147*
X00563Y00148*
G37*
G36*
X-00276Y00132D02*
X-00282Y00131D01*
X-00286Y00128*
X-00289Y00123*
X-0029Y00118*
X-00289Y00112*
X-00286Y00108*
X-00282Y00105*
X-00276Y00103*
X-00271Y00105*
X-00266Y00108*
X-00263Y00112*
X-00262Y00118*
X-00263Y00123*
X-00266Y00128*
X-00271Y00131*
X-00276Y00132*
G37*
G36*
X00613Y00119D02*
X00607Y00118D01*
X00603Y00115*
X00603Y00115*
X00602Y00114*
X00602Y00114*
X00601Y00113*
X00601Y00113*
X006Y00113*
X006Y00113*
X00599Y00112*
X00599Y00112*
X00598Y00112*
X00597Y00112*
X00597Y00112*
X00093*
X0009Y00111*
X00087Y0011*
X00067Y00089*
X00066Y00089*
X00066Y00089*
X00065Y00088*
X00065Y00088*
X00065Y00088*
X00064Y00088*
X00063Y00087*
X00063Y00087*
X00062Y00087*
X00061Y00087*
X00061Y00087*
X0006Y00087*
X00055Y00086*
X00051Y00083*
X00047Y00078*
X00046Y00073*
X00047Y00067*
X00051Y00063*
X00055Y0006*
X0006Y00059*
X00061Y00058*
X00063Y00054*
X00055Y00047*
X00054Y00045*
X00053Y00042*
Y-00023*
X00053Y-00023*
X00053Y-00024*
X00053Y-00025*
X00053Y-00025*
X00053Y-00026*
X00053Y-00026*
X00052Y-00027*
X00052Y-00027*
X00052Y-00028*
X00051Y-00028*
X00051Y-00029*
X0005Y-00029*
X00047Y-00034*
X00046Y-00039*
X00047Y-00044*
X00049Y-00046*
X00046Y-00051*
X00034*
X00003Y-0002*
X00004Y-00015*
X00006Y-00014*
X00011Y-00011*
X00014Y-00006*
X00016Y0*
X00014Y00006*
X00011Y00011*
X00006Y00014*
X0Y00016*
X-00006Y00014*
X-00011Y00011*
X-00014Y00006*
X-00015Y00004*
X-0002Y00003*
X-00022Y00005*
X-00024Y00006*
X-00027Y00007*
X-00155*
X-00156Y00007*
X-00157Y00007*
X-00157Y00007*
X-00157Y00007*
X-00158Y00007*
X-00158Y00007*
X-00159Y00008*
X-0016Y00008*
X-0016Y00008*
X-00161Y00009*
X-00161Y00009*
X-00162Y0001*
X-00166Y00013*
X-00171Y00014*
X-00177Y00013*
X-00179Y00011*
X-00184Y00014*
Y00019*
X-00177Y00026*
X-00177Y00026*
X-00177Y00026*
X-00176Y00027*
X-00176Y00027*
X-00175Y00027*
X-00175Y00027*
X-00174Y00027*
X-00174Y00028*
X-00173Y00028*
X-00172Y00028*
X-00171Y00028*
X-00171Y00028*
X-00166Y00029*
X-00161Y00032*
X-00158Y00037*
X-00157Y00042*
X-00158Y00047*
X-00161Y00052*
X-00166Y00055*
X-00171Y00056*
X-00177Y00055*
X-00181Y00052*
X-00184Y00047*
X-00185Y00042*
X-00185Y00042*
X-00185Y00041*
X-00186Y0004*
X-00186Y0004*
X-00186Y00039*
X-00186Y00038*
X-00186Y00038*
X-00186Y00037*
X-00187Y00037*
X-00187Y00037*
X-00187Y00036*
X-00188Y00036*
X-00196Y00027*
X-00198Y00025*
X-00198Y00022*
Y-00009*
X-00198Y-00012*
X-00196Y-00014*
X-00182Y-00028*
X-0018Y-0003*
X-00177Y-0003*
X-00045*
X00033Y-00109*
X00035Y-00111*
X00038Y-00111*
X00387*
X00408Y-00132*
Y-00157*
X00407Y-00157*
X00402Y-00155*
Y-0015*
X00402Y-00147*
X004Y-00145*
X0038Y-00124*
X00378Y-00123*
X00375Y-00122*
X00034*
X-00045Y-00042*
X-00048Y-0004*
X-0005Y-0004*
X-00184*
X-00205Y-00018*
Y00054*
X-00206Y00057*
X-00207Y00059*
X-00222Y00074*
X-00222Y00074*
X-00222Y00075*
X-00223Y00075*
X-00223Y00076*
X-00223Y00076*
X-00224Y00077*
X-00224Y00077*
X-00224Y00078*
X-00224Y0008*
X-00225Y00081*
X-00225Y00081*
X-00226Y00084*
X-00229Y00088*
X-00233Y00091*
X-00239Y00092*
X-00244Y00091*
X-00249Y00088*
X-00252Y00084*
X-00253Y00078*
X-00252Y00073*
X-00249Y00068*
X-00244Y00065*
X-00239Y00064*
X-00237Y00064*
X-00236Y00064*
X-00235Y00064*
X-00235Y00064*
X-00234Y00064*
X-00234Y00064*
X-00233Y00064*
X-00233Y00064*
X-00233Y00064*
X-00232Y00064*
X-00232Y00063*
X-00231Y00063*
X-00231Y00063*
X-00231Y00063*
X-00231Y00063*
X-0022Y00051*
Y-00021*
X-00219Y-00024*
X-00217Y-00026*
X-00192Y-00052*
X-00189Y-00053*
X-00187Y-00054*
X-00053*
X00026Y-00134*
X00028Y-00136*
X00031Y-00137*
X00372*
X00388Y-00153*
Y-00181*
X00388Y-00181*
X00388Y-00182*
X00388Y-00182*
X00388Y-00183*
X00387Y-00183*
X00387Y-00184*
X00387Y-00184*
X00387Y-00185*
X00386Y-00185*
X00386Y-00186*
X00385Y-00186*
X00385Y-00187*
X00382Y-00191*
X00381Y-00196*
X00382Y-00202*
X00382Y-00202*
X00379Y-00206*
X00375Y-00205*
X00371Y-00206*
X00368Y-00203*
X00368Y-00202*
X00369Y-00201*
X0037Y-00196*
X00369Y-0019*
X00366Y-00186*
X00361Y-00183*
X00356Y-00182*
X00353Y-00182*
X00353Y-00182*
X0035Y-00178*
X0035Y-00175*
X00349Y-00169*
X00346Y-00165*
X00342Y-00162*
X00336Y-00161*
X00331Y-00162*
X00326Y-00165*
X00323Y-00169*
X00322Y-00175*
X00323Y-0018*
X00326Y-00185*
X00331Y-00188*
X00336Y-00189*
X00338Y-00188*
X00339Y-00188*
X00342Y-00193*
X00342Y-00196*
X00343Y-00201*
X00346Y-00206*
X0035Y-00209*
X00356Y-0021*
X0036Y-00209*
X00363Y-00213*
X00363Y-00213*
X00362Y-00214*
X00361Y-0022*
X00362Y-00225*
X00366Y-0023*
X0037Y-00233*
X00375Y-00234*
X00381Y-00233*
X00385Y-0023*
X00389Y-00225*
X0039Y-0022*
X00389Y-00214*
X00388Y-00214*
X00392Y-0021*
X00395Y-0021*
X00401Y-00209*
X00405Y-00206*
X00408Y-00202*
X00409Y-00196*
X00409Y-00193*
X00411Y-00189*
X00412Y-00188*
X00415Y-00189*
X0042Y-00188*
X00425Y-00185*
X00428Y-0018*
X00429Y-00175*
X00428Y-00169*
X00425Y-00165*
X00425Y-00165*
X00424Y-00164*
X00424Y-00163*
X00423Y-00163*
X00423Y-00162*
X00423Y-00162*
X00423Y-00161*
X00422Y-00161*
X00422Y-0016*
X00422Y-0016*
X00422Y-00159*
X00422Y-00159*
Y-00129*
X00421Y-00127*
X0042Y-00124*
X00395Y-00099*
X00392Y-00098*
X0039Y-00097*
X00351*
X00348Y-00092*
X00349Y-0009*
X0035Y-00085*
X00349Y-00079*
X00346Y-00075*
X00342Y-00072*
X00339Y-00071*
X0034Y-00066*
X00493*
X00495Y-00066*
X00498Y-00064*
X00518Y-00044*
X00519Y-00042*
X0052Y-00039*
Y00014*
X0052Y00014*
X0052Y00015*
X0052Y00016*
X0052Y00016*
X00521Y00017*
X00521Y00017*
X00521Y00018*
X00521Y00018*
X00522Y00019*
X00522Y00019*
X00523Y0002*
X00523Y0002*
X00526Y00024*
X00527Y0003*
X00526Y00035*
X00523Y0004*
X00518Y00043*
X00513Y00044*
X00507Y00043*
X00503Y0004*
X005Y00035*
X00499Y0003*
X005Y00024*
X00503Y0002*
X00503Y0002*
X00503Y00019*
X00504Y00019*
X00504Y00018*
X00505Y00018*
X00505Y00017*
X00505Y00017*
X00505Y00016*
X00505Y00016*
X00505Y00015*
X00506Y00014*
X00506Y00014*
Y-00036*
X0049Y-00052*
X00276*
X00276Y-00052*
X00273Y-00051*
X00075*
X00072Y-00046*
X00074Y-00044*
X00075Y-00039*
X00074Y-00034*
X00071Y-00029*
X00071Y-00029*
X0007Y-00028*
X00069Y-00028*
X00069Y-00027*
X00069Y-00027*
X00068Y-00026*
X00068Y-00026*
X00068Y-00025*
X00068Y-00025*
X00068Y-00024*
X00068Y-00023*
X00068Y-00023*
Y00039*
X0009Y00061*
X00284*
X00287Y00061*
X00289Y00063*
X00297Y00071*
X01059*
X01059Y00071*
X0106Y00071*
X0106Y00071*
X01061Y00071*
X01061Y00071*
X01062Y0007*
X01062Y0007*
X01063Y0007*
X01063Y00069*
X01064Y00069*
X01065Y00068*
X01065Y00068*
X01069Y00065*
X01075Y00064*
X0108Y00065*
X01085Y00068*
X01088Y00073*
X01089Y00078*
X01088Y00084*
X01085Y00088*
X0108Y00091*
X01075Y00092*
X01069Y00091*
X01065Y00088*
X01065Y00088*
X01064Y00088*
X01063Y00087*
X01063Y00087*
X01062Y00086*
X01062Y00086*
X01061Y00086*
X01061Y00086*
X0106Y00086*
X0106Y00086*
X01059Y00086*
X01059Y00085*
X00294*
X0029Y0009*
X0029Y0009*
X00288Y00093*
X00291Y00098*
X00597*
X00597Y00098*
X00598Y00098*
X00599Y00097*
X00599Y00097*
X006Y00097*
X006Y00097*
X00601Y00097*
X00601Y00096*
X00602Y00096*
X00602Y00095*
X00603Y00095*
X00603Y00095*
X00607Y00092*
X00613Y00091*
X00618Y00092*
X00623Y00095*
X00626Y00099*
X00627Y00105*
X00626Y0011*
X00623Y00115*
X00618Y00118*
X00613Y00119*
G37*
G36*
X00588Y00014D02*
X00582Y00013D01*
X00578Y00009*
X00575Y00005*
X00574Y0*
X00575Y-00005*
X00578Y-00009*
X00582Y-00013*
X00588Y-00014*
X00593Y-00013*
X00598Y-00009*
X00601Y-00005*
X00602Y0*
X00601Y00005*
X00598Y00009*
X00593Y00013*
X00588Y00014*
G37*
G36*
X00456Y00016D02*
X0045Y00014D01*
X00445Y00011*
X00441Y00006*
X0044Y0*
X00441Y-00006*
X00445Y-00011*
X0045Y-00014*
X00456Y-00016*
X00462Y-00014*
X00468Y-00011*
X00471Y-00006*
X00472Y0*
X00471Y00006*
X00468Y00011*
X00462Y00014*
X00456Y00016*
G37*
G36*
X00316Y-00016D02*
X00311Y-00017D01*
X00306Y-0002*
X00303Y-00024*
X00302Y-0003*
X00303Y-00035*
X00306Y-0004*
X00311Y-00043*
X00316Y-00044*
X00322Y-00043*
X00326Y-0004*
X00329Y-00035*
X00331Y-0003*
X00329Y-00024*
X00326Y-0002*
X00322Y-00017*
X00316Y-00016*
G37*
G36*
X00238Y-00161D02*
X00232Y-00162D01*
X00228Y-00165*
X00225Y-00169*
X00224Y-00175*
X00225Y-0018*
X00228Y-00185*
X00232Y-00188*
X00238Y-00189*
X00243Y-00188*
X00248Y-00185*
X00251Y-0018*
X00252Y-00175*
X00251Y-00169*
X00248Y-00165*
X00243Y-00162*
X00238Y-00161*
G37*
G36*
X001Y-00161D02*
X00094Y-00162D01*
X0009Y-00165*
X00087Y-00169*
X00086Y-00175*
X00087Y-0018*
X0009Y-00185*
X00094Y-00188*
X001Y-00189*
X00105Y-00188*
X0011Y-00185*
X00113Y-0018*
X00114Y-00175*
X00113Y-00169*
X0011Y-00165*
X00105Y-00162*
X001Y-00161*
G37*
G36*
X-00195Y-00179D02*
X-002Y-0018D01*
X-00204Y-00183*
X-00208Y-00188*
X-00209Y-00193*
X-00208Y-00199*
X-00204Y-00203*
X-002Y-00206*
X-00195Y-00207*
X-00189Y-00206*
X-00185Y-00203*
X-00181Y-00199*
X-0018Y-00193*
X-00181Y-00188*
X-00185Y-00183*
X-00189Y-0018*
X-00195Y-00179*
G37*
G36*
X-00221Y-0022D02*
X-00227Y-00221D01*
X-00231Y-00224*
X-00234Y-00229*
X-00235Y-00234*
X-00234Y-0024*
X-00231Y-00244*
X-00227Y-00247*
X-00221Y-00248*
X-00216Y-00247*
X-00211Y-00244*
X-00208Y-0024*
X-00207Y-00234*
X-00208Y-00229*
X-00211Y-00224*
X-00216Y-00221*
X-00221Y-0022*
G37*
G36*
X00563Y-00244D02*
X00557Y-00245D01*
X00553Y-00248*
X0055Y-00253*
X00549Y-00258*
X0055Y-00263*
X00553Y-00268*
X00557Y-00271*
X00563Y-00272*
X00568Y-00271*
X00573Y-00268*
X00576Y-00263*
X00577Y-00258*
X00576Y-00253*
X00573Y-00248*
X00568Y-00245*
X00563Y-00244*
G37*
G36*
X00179Y-00245D02*
X00173Y-00246D01*
X00169Y-00249*
X00166Y-00253*
X00166Y-00253*
X00165Y-00255*
X00164Y-00257*
X00163Y-00258*
X00163Y-00258*
X00162Y-0026*
X00161Y-0026*
X00161Y-0026*
X00155Y-00267*
X-00476*
X-00479Y-00268*
X-00481Y-00269*
X-00504Y-00292*
X-00506Y-00294*
X-00506Y-00297*
Y-00302*
X-00507Y-00303*
X-00507Y-00303*
X-00507Y-00304*
X-00507Y-00304*
X-00507Y-00305*
X-00507Y-00305*
X-00507Y-00306*
X-00508Y-00306*
X-00508Y-00307*
X-00509Y-00307*
X-00509Y-00308*
X-00509Y-00308*
X-00512Y-00313*
X-00513Y-00318*
X-00512Y-00323*
X-00509Y-00328*
X-00505Y-00331*
X-00499Y-00332*
X-00494Y-00331*
X-00489Y-00328*
X-00486Y-00323*
X-00485Y-00318*
X-00486Y-00313*
X-00489Y-00308*
X-00489Y-00308*
X-0049Y-00307*
X-0049Y-00307*
X-00491Y-00306*
X-00491Y-00306*
X-00491Y-00305*
X-00492Y-00305*
X-00492Y-00304*
X-00492Y-00304*
X-00492Y-00303*
X-00492Y-00303*
X-00492Y-00302*
Y-003*
X-00473Y-00281*
X00158*
X0016Y-00281*
X00163Y-00279*
X00169Y-00273*
X0017Y-00273*
X0017Y-00272*
X0017Y-00272*
X00171Y-00272*
X00171Y-00272*
X00171Y-00272*
X00171Y-00272*
X00171Y-00272*
X00172Y-00272*
X00172Y-00272*
X00173Y-00272*
X00173*
X00173Y-00272*
X00178Y-00273*
X00179Y-00275*
X0018Y-00278*
X00171Y-00287*
X-0045*
X-00453Y-00288*
X-00454Y-00289*
X-00455Y-00289*
X-00456Y-00289*
X-00456Y-0029*
X-00456Y-0029*
X-00457Y-0029*
X-00457Y-0029*
X-00457Y-0029*
X-00457Y-00291*
X-00458Y-00291*
X-00458*
X-00458Y-0029*
X-00458Y-00291*
X-00458Y-0029*
X-00459Y-00291*
X-0046Y-0029*
X-00466Y-00291*
X-0047Y-00294*
X-00473Y-00299*
X-00474Y-00304*
X-00473Y-0031*
X-0047Y-00314*
X-00466Y-00318*
X-0046Y-00319*
X-00455Y-00318*
X-0045Y-00314*
X-00447Y-0031*
X-00446Y-00304*
X-00442Y-00302*
X-00442Y-00301*
X-00441Y-00301*
X-0039*
X-00388Y-00306*
X-00391Y-00308*
X-00394Y-00313*
X-00395Y-00318*
X-00394Y-00323*
X-00391Y-00328*
X-00387Y-00331*
X-00381Y-00332*
X-00376Y-00331*
X-00371Y-00328*
X-00371Y-00328*
X-0037Y-00327*
X-0037Y-00327*
X-00369Y-00327*
X-00369Y-00326*
X-00368Y-00326*
X-00368Y-00326*
X-00367Y-00326*
X-00367Y-00325*
X-00366Y-00325*
X-00366Y-00325*
X-00365Y-00325*
X00189*
X00192Y-00325*
X00194Y-00324*
X00195Y-00323*
X00195Y-00323*
X00196Y-00322*
X00196Y-00322*
X00198Y-00322*
X00204Y-00321*
X00208Y-00318*
X00211Y-00314*
X00212Y-00308*
X00211Y-00303*
X00208Y-00298*
X00204Y-00295*
X00198Y-00294*
X00193Y-00295*
X00188Y-00298*
X00185Y-00303*
X00184Y-00308*
X00182Y-00311*
X-00365*
X-00366Y-00311*
X-00366Y-00311*
X-00367Y-00311*
X-00367Y-00311*
X-00368Y-0031*
X-00368Y-0031*
X-00369Y-0031*
X-00369Y-0031*
X-0037Y-00309*
X-0037Y-00309*
X-00371Y-00308*
X-00371Y-00308*
X-00374Y-00306*
X-00372Y-00301*
X00174*
X00177Y-00301*
X00179Y-00299*
X00192Y-00286*
X00202*
X00203Y-00286*
X00203Y-00287*
X00204Y-00287*
X00204Y-00287*
X00205Y-00287*
X00205Y-00287*
X00206Y-00287*
X00206Y-00288*
X00207Y-00288*
X00207Y-00289*
X00208Y-00289*
X00208Y-00289*
X00213Y-00292*
X00218Y-00293*
X00223Y-00292*
X00228Y-00289*
X00231Y-00285*
X00232Y-00279*
X00231Y-00274*
X00228Y-00269*
X00223Y-00266*
X00218Y-00265*
X00213Y-00266*
X00208Y-00269*
X00208Y-00269*
X00207Y-0027*
X00207Y-0027*
X00206Y-00271*
X00206Y-00271*
X00205Y-00271*
X00205Y-00271*
X00204Y-00272*
X00204Y-00272*
X00203Y-00272*
X00203Y-00272*
X00202Y-00272*
X00193*
X0019Y-00267*
X00192Y-00265*
X00193Y-00259*
X00192Y-00254*
X00189Y-00249*
X00184Y-00246*
X00179Y-00245*
G37*
G36*
X0008Y-00195D02*
X00075Y-00196D01*
X0007Y-00199*
X00067Y-00204*
X00066Y-00209*
X00067Y-00215*
X0007Y-00219*
X00075Y-00222*
X0008Y-00223*
X00086Y-00222*
X0009Y-00219*
X0009Y-00219*
X00091Y-00219*
X00091Y-00218*
X00092Y-00218*
X00093Y-00217*
X00093Y-00217*
X00094Y-00217*
X00094Y-00217*
X00095Y-00217*
X00095Y-00217*
X00096Y-00216*
X00096Y-00216*
X00189*
X00277Y-00304*
X0028Y-00306*
X00282Y-00306*
X00547*
X00547Y-00306*
X00548Y-00306*
X00548Y-00307*
X00549Y-00307*
X00549Y-00307*
X0055Y-00307*
X0055Y-00307*
X00551Y-00308*
X00551Y-00308*
X00552Y-00309*
X00553Y-00309*
X00553Y-00309*
X00557Y-00312*
X00563Y-00313*
X00568Y-00312*
X00573Y-00309*
X00576Y-00305*
X00577Y-00299*
X00576Y-00294*
X00573Y-00289*
X00568Y-00286*
X00563Y-00285*
X00557Y-00286*
X00553Y-00289*
X00553Y-00289*
X00552Y-0029*
X00551Y-0029*
X00551Y-00291*
X0055Y-00291*
X0055Y-00291*
X00549Y-00291*
X00549Y-00292*
X00548Y-00292*
X00548Y-00292*
X00547Y-00292*
X00547Y-00292*
X00285*
X00197Y-00204*
X00195Y-00203*
X00192Y-00202*
X00096*
X00096Y-00202*
X00095Y-00202*
X00095Y-00202*
X00094Y-00202*
X00094Y-00201*
X00093Y-00201*
X00093Y-00201*
X00092Y-00201*
X00091Y-002*
X00091Y-002*
X0009Y-00199*
X0009Y-00199*
X00086Y-00196*
X0008Y-00195*
G37*
G36*
X00603Y-00285D02*
X00597Y-00286D01*
X00593Y-00289*
X0059Y-00294*
X00589Y-00299*
X0059Y-00305*
X00593Y-00309*
X00597Y-00312*
X00603Y-00313*
X00608Y-00312*
X00613Y-00309*
X00616Y-00305*
X00617Y-00299*
X00616Y-00294*
X00613Y-00289*
X00608Y-00286*
X00603Y-00285*
G37*
G36*
X00231Y-00427D02*
X-00322D01*
X-00324Y-00428*
X-00327Y-00429*
X-00346Y-00449*
X-00348Y-00451*
X-00348Y-00454*
Y-00458*
X-00349Y-00459*
X-00349Y-00459*
X-00349Y-0046*
X-00349Y-0046*
X-00349Y-00461*
X-00349Y-00461*
X-00349Y-00462*
X-0035Y-00462*
X-0035Y-00463*
X-00351Y-00463*
X-00351Y-00464*
X-00351Y-00464*
X-00354Y-00469*
X-00355Y-00474*
X-00354Y-0048*
X-00351Y-00484*
X-00347Y-00487*
X-00341Y-00488*
X-00336Y-00487*
X-00335Y-00487*
X-0033Y-00489*
X-00329Y-0049*
X-00326Y-00494*
X-00322Y-00497*
X-00316Y-00498*
X-00311Y-00497*
X-00306Y-00494*
X-00303Y-0049*
X-00302Y-00484*
X-00303Y-00479*
X-00304Y-00477*
X-00301Y-00474*
X-00301Y-00474*
X-00295Y-00475*
X-0029Y-00474*
X-00285Y-00471*
X-00282Y-00466*
X-00282Y-00463*
X-00282Y-00463*
X-00277*
X-00277Y-00463*
X-00276Y-00466*
X-00273Y-00471*
X-00268Y-00474*
X-00263Y-00475*
X-00258Y-00474*
X-00253Y-00471*
X-00253Y-00471*
X-00252Y-0047*
X-00252Y-00469*
X-00251Y-00469*
X-00251Y-00469*
X-0025Y-00468*
X-0025Y-00468*
X-00249Y-00468*
X-00249Y-00468*
X-00248Y-00468*
X-00248Y-00468*
X-00247Y-00468*
X00068*
X00093Y-00493*
X00092Y-00493*
X00091Y-00498*
X-00168*
X-00168Y-00498*
X-00169Y-00498*
X-00169Y-00498*
X-0017Y-00497*
X-0017Y-00497*
X-0017Y-00497*
X-0017Y-00497*
X-0017Y-00497*
X-00171Y-00497*
X-00171Y-00496*
X-00171Y-00494*
X-00175Y-00489*
X-00179Y-00486*
X-00185Y-00485*
X-0019Y-00486*
X-00195Y-00489*
X-00198Y-00494*
X-00199Y-00499*
X-00198Y-00505*
X-00195Y-00509*
X-0019Y-00512*
X-0019Y-00512*
X-00192Y-00517*
X-00373*
X-00414Y-00476*
X-00417Y-00475*
X-00419Y-00474*
X-00556*
X-00575Y-00456*
X-00577Y-00454*
X-0058Y-00453*
X-0072*
X-0072Y-00453*
X-00721Y-00453*
X-00721Y-00453*
X-00722Y-00453*
X-00722Y-00453*
X-00723Y-00453*
X-00723Y-00452*
X-00724Y-00452*
X-00724Y-00452*
X-00725Y-00451*
X-00725Y-00451*
X-00726Y-0045*
X-0073Y-00448*
X-00735Y-00446*
X-00741Y-00448*
X-00745Y-00451*
X-00748Y-00455*
X-0075Y-00461*
X-00748Y-00466*
X-00748Y-00466*
X-00751Y-00472*
X-00753Y-00472*
X-00759Y-00467*
X-00759Y-00466*
X-00759Y-00466*
X-00759Y-00465*
X-0076Y-00465*
X-0076Y-00465*
X-0076Y-00464*
X-0076Y-00464*
X-0076Y-00463*
X-00761Y-00462*
X-00761Y-00462*
X-00761Y-00461*
X-00761Y-0046*
X-00762Y-00455*
X-00765Y-00451*
X-00769Y-00448*
X-00775Y-00446*
X-0078Y-00448*
X-00785Y-00451*
X-00788Y-00455*
X-00789Y-00461*
X-00788Y-00466*
X-00785Y-00471*
X-0078Y-00474*
X-00775Y-00475*
X-00775Y-00475*
X-00774Y-00475*
X-00773Y-00475*
X-00772Y-00475*
X-00772Y-00475*
X-00771Y-00475*
X-00771Y-00475*
X-0077Y-00476*
X-0077Y-00476*
X-0077Y-00476*
X-00769Y-00477*
X-00769Y-00477*
X-00759Y-00486*
X-00757Y-00488*
X-00754Y-00488*
X-00587*
X-00571Y-00504*
X-00569Y-00506*
X-00566Y-00506*
X-00429*
X-00386Y-00549*
X-00384Y-00551*
X-00381Y-00551*
X00095*
X00111Y-00567*
Y-00594*
X00111Y-00597*
X00113Y-00599*
X00133Y-00619*
X00135Y-00621*
X00138Y-00621*
X00143*
X00143Y-00621*
X00144Y-00622*
X00145Y-00622*
X00145Y-00622*
X00146Y-00622*
X00146Y-00622*
X00147Y-00622*
X00147Y-00623*
X00148Y-00623*
X00148Y-00624*
X00149Y-00624*
X00149Y-00624*
X00154Y-00627*
X00159Y-00628*
X00164Y-00627*
X00169Y-00624*
X00172Y-0062*
X00173Y-00614*
X00172Y-00609*
X00169Y-00604*
X00164Y-00601*
X00159Y-006*
X00154Y-00601*
X00153Y-006*
X00151Y-00597*
X00152Y-00595*
X00153Y-00589*
X00152Y-00584*
X00149Y-00579*
X00148Y-00578*
X00148Y-00578*
X00147Y-00577*
X00146Y-00577*
X00146Y-00576*
X00146Y-00576*
X00146Y-00576*
X00145Y-00575*
X00145Y-00575*
X00145Y-00574*
X00145Y-00574*
X00145Y-00573*
X00145Y-00573*
X00145Y-00573*
X00145Y-00573*
Y-00544*
X00144Y-00541*
X00143Y-00539*
X00123Y-00519*
X0012Y-00518*
X00118Y-00517*
X-00163*
X-00166Y-00512*
X-00166Y-00512*
X00137*
X00174Y-00549*
X00176Y-00551*
X00179Y-00551*
X00281*
X00281Y-00551*
X00282Y-00551*
X00282Y-00552*
X00283Y-00552*
X00283Y-00552*
X00284Y-00552*
X00284Y-00552*
X00285Y-00553*
X00285Y-00553*
X00286Y-00554*
X00287Y-00554*
X00287Y-00554*
X00291Y-00557*
X00297Y-00558*
X00302Y-00557*
X00307Y-00554*
X0031Y-0055*
X00311Y-00544*
X0031Y-00539*
X00307Y-00534*
X00302Y-00531*
X00297Y-0053*
X00291Y-00531*
X00287Y-00534*
X00287Y-00534*
X00286Y-00535*
X00285Y-00535*
X00285Y-00536*
X00284Y-00536*
X00284Y-00536*
X00283Y-00536*
X00283Y-00537*
X00282Y-00537*
X00282Y-00537*
X00281Y-00537*
X00281Y-00537*
X00182*
X00145Y-005*
X00145Y-00499*
X00146Y-00495*
X0022*
X00234Y-00509*
X00236Y-00511*
X00239Y-00511*
X00261*
X00262Y-00511*
X00262Y-00511*
X00263Y-00512*
X00263Y-00512*
X00264Y-00512*
X00264Y-00512*
X00265Y-00512*
X00265Y-00513*
X00266Y-00513*
X00266Y-00513*
X00267Y-00514*
X00267Y-00514*
X00272Y-00517*
X00277Y-00518*
X00282Y-00517*
X00287Y-00514*
X0029Y-0051*
X00291Y-00504*
X0029Y-00499*
X00287Y-00494*
X00286Y-00493*
X00287Y-00488*
X00306*
X00308Y-00493*
X00306Y-00494*
X00303Y-00499*
X00302Y-00504*
X00303Y-0051*
X00306Y-00514*
X00311Y-00517*
X00316Y-00518*
X00322Y-00517*
X00326Y-00514*
X00326Y-00514*
X00327Y-00514*
X00328Y-00513*
X00328Y-00513*
X00329Y-00512*
X00329Y-00512*
X0033Y-00512*
X0033Y-00512*
X00331Y-00512*
X00331Y-00512*
X00332Y-00511*
X00332Y-00511*
X00543*
X00546Y-00511*
X00549Y-00509*
X00568Y-00489*
X0057Y-00487*
X0057Y-00484*
Y-00476*
X00571Y-00476*
X00571Y-00475*
X00571Y-00475*
X00571Y-00474*
X00571Y-00474*
X00571Y-00473*
X00571Y-00473*
X00572Y-00472*
X00572Y-00472*
X00573Y-00471*
X00573Y-00471*
X00573Y-0047*
X00576Y-00466*
X00577Y-00461*
X00576Y-00455*
X00573Y-00451*
X00569Y-00448*
X00563Y-00446*
X00558Y-00448*
X00553Y-00451*
X0055Y-00455*
X00549Y-00461*
X0055Y-00466*
X00553Y-0047*
X00553Y-00471*
X00554Y-00471*
X00554Y-00472*
X00555Y-00472*
X00555Y-00473*
X00555Y-00473*
X00556Y-00474*
X00556Y-00474*
X00556Y-00475*
X00556Y-00475*
X00556Y-00476*
X00556Y-00476*
Y-00481*
X00541Y-00497*
X00332*
X00332Y-00497*
X00331Y-00497*
X00331Y-00497*
X0033Y-00497*
X0033Y-00496*
X00329Y-00496*
X00329Y-00496*
X00328Y-00496*
X00328Y-00495*
X00327Y-00495*
X00326Y-00494*
X00326Y-00494*
X00325Y-00493*
X00327Y-00488*
X00398*
X00401Y-00488*
X00402Y-00487*
X00406Y-00488*
X00411Y-00487*
X00416Y-00484*
X00419Y-00479*
X0042Y-00474*
X00419Y-00468*
X00416Y-00464*
X00411Y-00461*
X00406Y-0046*
X004Y-00461*
X00396Y-00464*
X00393Y-00468*
X00392Y-00474*
X00391Y-00474*
X00271*
X0027Y-00474*
X00268Y-00469*
X0027Y-00466*
X00271Y-00461*
X0027Y-00455*
X00267Y-00451*
X00263Y-00448*
X00258Y-00446*
X00257Y-00446*
X00256Y-00446*
X00256Y-00446*
X00255Y-00446*
X00254Y-00446*
X00254Y-00446*
X00253Y-00446*
X00253Y-00445*
X00253Y-00445*
X00252Y-00445*
X00252Y-00444*
X00251Y-00444*
X00236Y-00429*
X00234Y-00428*
X00231Y-00427*
G37*
G36*
X00721Y-00485D02*
X00715Y-00486D01*
X00711Y-00489*
X00708Y-00494*
X00706Y-00499*
X00708Y-00505*
X00711Y-00509*
X00715Y-00512*
X00721Y-00514*
X00726Y-00512*
X00731Y-00509*
X00734Y-00505*
X00735Y-00499*
X00734Y-00494*
X00731Y-00489*
X00726Y-00486*
X00721Y-00485*
G37*
G36*
X-01256Y-0059D02*
X-01262Y-00591D01*
X-01266Y-00594*
X-01269Y-00599*
X-0127Y-00604*
X-01269Y-0061*
X-01266Y-00614*
X-01262Y-00617*
X-01256Y-00618*
X-01251Y-00617*
X-01246Y-00614*
X-01243Y-0061*
X-01242Y-00604*
X-01243Y-00599*
X-01246Y-00594*
X-01251Y-00591*
X-01256Y-0059*
G37*
%LNmod_duo_x_g3399-3*%
%LPD*%
G36*
X00047Y01862D02*
X00047Y01861D01*
X00047Y01861*
X00047Y0186*
X00048Y0186*
X00048Y01859*
X00048Y01859*
X00049Y01858*
X00049Y01858*
X0005Y01857*
X00046Y01853*
X00045Y01853*
X00044Y01854*
X00043Y01855*
X00043Y01855*
X00042Y01855*
X00042Y01855*
X00041Y01855*
X00041*
X0004Y01855*
X00047Y01862*
X00047Y01862*
G37*
G36*
X-01078Y01729D02*
X-01078Y01729D01*
X-01074Y01729*
X-01067Y01729*
X-01066Y01723*
X-01067Y01723*
X-01067Y01723*
X-01068Y01723*
X-01069Y01723*
X-01069Y01722*
X-0107Y01722*
X-0107Y01721*
X-01071Y01721*
X-01071Y0172*
X-01071Y01719*
X-01079Y0173*
X-01078Y01729*
G37*
G36*
X00308Y01706D02*
X00309Y01705D01*
X0031Y01705*
X00311Y01704*
X00311Y01704*
X00312Y01704*
X00313Y01704*
X00314Y01703*
X00315Y01703*
X00316Y01703*
X00307Y01694*
X00307Y01695*
X00306Y01696*
X00306Y01697*
X00306Y01698*
X00306Y01698*
X00305Y01699*
X00305Y017*
X00305Y01701*
X00304Y01701*
X00303Y01702*
X00308Y01706*
X00308Y01706*
G37*
G36*
X-01047Y01706D02*
X-01047Y01705D01*
X-01046Y01705*
X-01045Y01704*
X-01044Y01704*
X-01043Y01703*
X-01042Y01703*
X-01042Y01703*
X-01041Y01703*
X-0104Y01703*
Y01697*
X-01041Y01697*
X-01042Y01697*
X-01042Y01697*
X-01043Y01696*
X-01044Y01696*
X-01045Y01695*
X-01046Y01695*
X-01047Y01694*
X-01047Y01694*
X-01048Y01693*
X-01048Y01707*
X-01047Y01706*
G37*
G36*
X00289Y0169D02*
X00289Y01689D01*
X0029Y01689*
X00291Y01688*
X00292Y01688*
X00293Y01688*
X00294Y01687*
X00295Y01687*
X00296Y01687*
X00297Y01687*
X00287Y01677*
X00287Y01678*
X00287Y0168*
X00287Y0168*
X00286Y01681*
X00286Y01682*
X00286Y01683*
X00285Y01684*
X00285Y01685*
X00284Y01685*
X00284Y01686*
X00288Y0169*
X00289Y0169*
G37*
G36*
X0038Y01672D02*
X0038Y01671D01*
X0038Y0167*
X0038Y0167*
X00381Y01669*
X00381Y01668*
X00382Y01667*
X00382Y01666*
X00383Y01665*
X00384Y01665*
X0037*
X00371Y01665*
X00371Y01666*
X00372Y01667*
X00372Y01668*
X00373Y01669*
X00373Y0167*
X00373Y0167*
X00374Y01671*
X00374Y01672*
X00374Y01673*
X0038*
X0038Y01672*
G37*
G36*
X0023Y0167D02*
X0023Y01669D01*
X00231Y01669*
X00232Y01669*
X00233Y01668*
X00234Y01668*
X00235Y01668*
X00236Y01668*
X00237Y01668*
X00238Y01668*
X00228Y01658*
X00228Y01659*
X00228Y0166*
X00228Y01661*
X00227Y01662*
X00227Y01663*
X00227Y01663*
X00226Y01664*
X00226Y01665*
X00225Y01666*
X00225Y01666*
X00229Y01671*
X0023Y0167*
G37*
G36*
X0026Y01651D02*
X00261Y0165D01*
X00261Y0165*
X00261Y01649*
X00261Y01648*
X00262Y01647*
X00262Y01646*
X00263Y01646*
X00264Y01645*
X00264Y01644*
X0025*
X00251Y01645*
X00252Y01646*
X00252Y01646*
X00253Y01647*
X00253Y01648*
X00254Y01649*
X00254Y0165*
X00254Y0165*
X00254Y01651*
X00254Y01652*
X0026*
X0026Y01651*
G37*
G36*
X-00245Y01599D02*
X-00243Y01598D01*
X-00242Y01597*
X-00241Y01597*
X-0024Y01597*
X-00239Y01596*
X-00239Y01596*
X-00238Y01596*
X-00237Y01596*
X-00236Y0159*
X-00236Y0159*
X-00237Y0159*
X-00238Y0159*
X-00239Y01589*
X-0024Y01589*
X-0024Y01589*
X-00241Y01588*
X-00242Y01587*
X-00242Y01587*
X-00243Y01586*
X-00246Y01599*
X-00245Y01599*
G37*
G36*
X00426Y01547D02*
X00427Y01546D01*
X00428Y01546*
X00429Y01545*
X0043Y01545*
X0043Y01545*
X00431Y01544*
X00432Y01544*
X00433Y01544*
X00434Y01544*
X00425Y01534*
X00425Y01536*
X00425Y01537*
X00424Y01538*
X00424Y01538*
X00424Y01539*
X00424Y0154*
X00423Y01541*
X00423Y01542*
X00422Y01542*
X00422Y01543*
X00426Y01547*
X00426Y01547*
G37*
G36*
X-01025Y01509D02*
X-01024Y01507D01*
X-01024Y01506*
X-01024Y01505*
X-01024Y01505*
X-01024Y01504*
X-01023Y01503*
X-01023Y01503*
X-01023Y01503*
X-01036*
X-01036Y01503*
X-01036Y01503*
X-01035Y01504*
X-01035Y01505*
X-01035Y01505*
X-01035Y01506*
X-01035Y01507*
X-01035Y01508*
X-01035Y0151*
X-01025*
X-01025Y01509*
G37*
G36*
X-01023Y01488D02*
X-01023Y01488D01*
X-01024Y01487*
X-01024Y01486*
X-01024Y01486*
X-01024Y01485*
X-01024Y01484*
X-01024Y01483*
X-01025Y01481*
X-01035*
X-01035Y01482*
X-01035Y01484*
X-01035Y01485*
X-01035Y01486*
X-01035Y01486*
X-01035Y01487*
X-01036Y01488*
X-01036Y01488*
X-01036Y01489*
X-01023*
X-01023Y01488*
G37*
G36*
X01313Y0189D02*
X01358Y01845D01*
X01398*
X01413Y0183*
Y0167*
X01393Y0165*
X01203*
X01098Y01545*
X00995Y01442*
X00448*
Y0153*
X00449Y01534*
X00448Y01539*
Y01565*
X00483Y016*
X00623*
X00778Y01755*
X00928*
X01073Y019*
X01313*
Y0189*
G37*
G36*
X-00623Y00444D02*
X-00623Y00444D01*
X-00624Y00444*
X-00624Y00444*
X-00625Y00445*
X-00626Y00445*
X-00628Y00445*
X-0063Y00445*
X-00634Y00455*
X-00633Y00455*
X-00631Y00455*
X-0063Y00455*
X-00629Y00455*
X-00629Y00456*
X-00628Y00456*
X-00627Y00456*
X-00627Y00457*
X-00627Y00457*
X-00623Y00444*
G37*
G36*
X00181Y01413D02*
X00181Y01413D01*
X00182Y01412*
X00182Y01411*
X00182Y0141*
X00182Y0141*
X00182Y01409*
X00183Y01409*
X00183Y01409*
X00184Y01408*
X00173Y01408*
X00174Y01408*
X00174Y01409*
X00174Y01409*
X00175Y0141*
X00175Y0141*
X00175Y01411*
X00175Y01412*
X00175Y01412*
X00175Y01413*
X00175Y01414*
X00181*
X00181Y01413*
G37*
G36*
X-00698Y01405D02*
X-00698Y01404D01*
X-00697Y01404*
X-00696Y01403*
X-00695Y01403*
X-00694Y01402*
X-00694Y01402*
X-00693Y01402*
X-00692Y01402*
X-00691Y01402*
X-00691Y01396*
X-00692Y01396*
X-00693Y01396*
X-00694Y01395*
X-00694Y01395*
X-00695Y01395*
X-00696Y01394*
X-00697Y01394*
X-00698Y01393*
X-00699Y01393*
X-00699Y01392*
X-00699Y01406*
X-00698Y01405*
G37*
G36*
X-00454Y01326D02*
X-00454Y01326D01*
X-00453Y01326*
X-00453Y01326*
X-00452Y01325*
X-00451Y01325*
X-0045Y01325*
X-00449Y01325*
X-00447Y01325*
Y01315*
X-00449Y01315*
X-0045Y01315*
X-00451Y01315*
X-00452Y01314*
X-00453Y01314*
X-00453Y01314*
X-00454Y01314*
X-00454Y01313*
X-00455Y01313*
Y01327*
X-00454Y01326*
G37*
G36*
X-00316Y01313D02*
X-00316Y01313D01*
X-00316Y01314*
X-00317Y01314*
X-00318Y01314*
X-00318Y01314*
X-00319Y01315*
X-0032Y01315*
X-00321Y01315*
X-00323Y01315*
X-00322Y01325*
X-0032Y01325*
X-00318Y01325*
X-00317Y01325*
X-00316Y01325*
X-00316Y01326*
X-00315Y01326*
X-00315Y01326*
X-00314Y01326*
X-00316Y01313*
G37*
G36*
X-00977Y01202D02*
X-00977Y01201D01*
X-00977Y01201*
X-00978Y01201*
X-00978Y012*
X-00978Y01198*
X-00978Y01196*
X-00978Y01195*
X-0099*
X-0099Y01196*
X-0099Y012*
X-0099Y01201*
X-0099Y01201*
X-0099Y01201*
X-00991Y01202*
X-00991Y01202*
X-00977*
X-00977Y01202*
G37*
G36*
X-00469Y00977D02*
X-00469Y00977D01*
X-00469Y00977*
X-0047Y00977*
X-0047Y00977*
X-00471Y00978*
X-00473Y00978*
X-00474Y00978*
X-00476Y00978*
X-00476Y0099*
X-00475Y0099*
X-00471Y0099*
X-0047Y0099*
X-0047Y0099*
X-00469Y0099*
X-00469Y0099*
X-00469Y00991*
X-00469Y00977*
G37*
G36*
X-0064Y0099D02*
X-0064Y0099D01*
X-0064Y0099*
X-00639Y0099*
X-00638Y0099*
X-00636Y0099*
X-00634Y0099*
X-00632Y00978*
X-00634Y00978*
X-00636Y00978*
X-00637Y00978*
X-00638Y00977*
X-00638Y00977*
X-00639Y00977*
X-00639Y00977*
X-00639Y00977*
X-00641Y0099*
X-0064Y0099*
G37*
G36*
X-00655Y00977D02*
X-00655Y00977D01*
X-00655Y00977*
X-00656Y00977*
X-00656Y00977*
X-00657Y00978*
X-00657Y00978*
X-00659Y00978*
X-00661Y00978*
X-0066Y0099*
X-00659Y0099*
X-00654Y0099*
X-00654Y0099*
X-00653Y0099*
X-00653Y0099*
X-00655Y00977*
G37*
G36*
X-00639Y00976D02*
X-0064Y00976D01*
X-0064Y00976*
X-0064Y00975*
X-0064Y00974*
X-0064Y00972*
X-0064Y0097*
X-00652Y00968*
X-00652Y00969*
X-00652Y00972*
X-00652Y00973*
X-00652Y00974*
X-00652Y00974*
X-00653Y00974*
X-00653Y00975*
X-00653Y00975*
X-00639Y00976*
X-00639Y00976*
G37*
G36*
X-0064Y00854D02*
X-0064Y00851D01*
X-0064Y0085*
X-00639Y0085*
X-00639Y00849*
X-00639Y00849*
X-00639Y00849*
X-00653*
X-00653Y00849*
X-00652Y00849*
X-00652Y0085*
X-00652Y0085*
X-00652Y00851*
X-00652Y00852*
X-00652Y00854*
X-00652Y00855*
X-0064*
X-0064Y00854*
G37*
G36*
X-00349Y00819D02*
X-0035Y0082D01*
X-0035Y00821*
X-00351Y00821*
X-00352Y00822*
X-00353Y00822*
X-00354Y00823*
X-00354Y00823*
X-00355Y00823*
X-00356Y00823*
X-00357Y00823*
Y00829*
X-00356Y00829*
X-00355Y00829*
X-00354Y0083*
X-00354Y0083*
X-00353Y0083*
X-00352Y00831*
X-00351Y00831*
X-0035Y00832*
X-0035Y00832*
X-00349Y00833*
Y00819*
G37*
G36*
X-005Y00807D02*
X-00501Y00806D01*
X-00501Y00806*
X-00502Y00805*
X-00502Y00804*
X-00502Y00803*
X-00503Y00802*
X-00503Y00801*
X-00503Y008*
X-00503Y00799*
X-00503Y00798*
X-00513Y00808*
X-00512Y00808*
X-00511Y00808*
X-0051Y00808*
X-00509Y00809*
X-00508Y00809*
X-00507Y00809*
X-00506Y0081*
X-00506Y0081*
X-00505Y00811*
X-00504Y00811*
X-005Y00807*
G37*
G36*
X-00167Y00482D02*
X-00167Y00483D01*
X-00168Y00484*
X-00169Y00484*
X-0017Y00485*
X-00171Y00485*
X-00171Y00486*
X-00172Y00486*
X-00173Y00486*
X-00174Y00486*
X-00175Y00486*
Y00492*
X-00174Y00492*
X-00173Y00492*
X-00172Y00493*
X-00171Y00493*
X-00171Y00493*
X-0017Y00494*
X-00169Y00494*
X-00168Y00495*
X-00167Y00495*
X-00167Y00496*
Y00482*
G37*
G36*
X-00374Y00495D02*
X-00372Y00494D01*
X-00372Y00493*
X-00371Y00493*
X-0037Y00493*
X-00369Y00493*
X-00368Y00492*
X-00367Y00492*
X-00366Y00492*
X-00366Y00486*
X-00366Y00486*
X-00367Y00486*
X-00368Y00486*
X-00369Y00486*
X-0037Y00485*
X-0037Y00485*
X-00371Y00484*
X-00372Y00484*
X-00373Y00483*
X-00373Y00482*
X-00375Y00496*
X-00374Y00495*
G37*
G36*
X-00532Y00553D02*
X-00533Y00552D01*
X-00534Y00552*
X-00534Y00551*
X-00535Y0055*
X-00535Y00549*
X-00535Y00548*
X-00535Y00547*
X-00536Y00547*
X-00536Y00546*
X-00542*
X-00542Y00547*
X-00542Y00547*
X-00542Y00548*
X-00542Y00549*
X-00543Y0055*
X-00543Y00551*
X-00544Y00552*
X-00544Y00552*
X-00545Y00553*
X-00545Y00554*
X-00532*
X-00532Y00553*
G37*
G36*
X00368Y00486D02*
X00368Y00487D01*
X00367Y00488*
X00366Y00488*
X00365Y00489*
X00364Y00489*
X00364Y0049*
X00363Y0049*
X00362Y0049*
X00361Y0049*
X0036Y0049*
Y00496*
X00361Y00496*
X00362Y00496*
X00363Y00497*
X00364Y00497*
X00364Y00497*
X00365Y00498*
X00366Y00498*
X00367Y00499*
X00368Y00499*
X00368Y005*
Y00486*
G37*
G36*
X00362Y00467D02*
X00361Y00466D01*
X00361Y00465*
X0036Y00465*
X0036Y00464*
X00359Y00463*
X00359Y00462*
X00359Y00461*
X00359Y0046*
X00359Y0046*
X00353*
X00353Y0046*
X00353Y00461*
X00352Y00462*
X00352Y00463*
X00352Y00464*
X00351Y00465*
X00351Y00465*
X0035Y00466*
X0035Y00467*
X00349Y00468*
X00363*
X00362Y00467*
G37*
G36*
X-00554Y00454D02*
X-00554Y00453D01*
X-00554Y00452*
X-00554Y00451*
X-00554Y0045*
X-00553Y00449*
X-00553Y00449*
X-00552Y00448*
X-00552Y00447*
X-00551Y00447*
X-00555Y00442*
X-00556Y00443*
X-00557Y00443*
X-00558Y00444*
X-00558Y00444*
X-00559Y00445*
X-0056Y00445*
X-00561Y00445*
X-00562Y00445*
X-00563Y00445*
X-00564Y00445*
X-00554Y00455*
X-00554Y00454*
G37*
G36*
X00936Y00398D02*
X00935Y00399D01*
X00934Y00399*
X00933Y004*
X00933Y004*
X00932Y00401*
X00931Y00401*
X0093Y00402*
X00929Y00402*
X00928Y00402*
X00927Y00402*
Y00408*
X00928Y00408*
X00929Y00408*
X0093Y00408*
X00931Y00408*
X00932Y00409*
X00933Y00409*
X00933Y0041*
X00934Y0041*
X00935Y00411*
X00936Y00412*
Y00398*
G37*
G36*
X00606Y00098D02*
X00605Y00099D01*
X00604Y00099*
X00603Y001*
X00603Y001*
X00602Y00101*
X00601Y00101*
X006Y00102*
X00599Y00102*
X00598Y00102*
X00598Y00102*
Y00108*
X00598Y00108*
X00599Y00108*
X006Y00108*
X00601Y00108*
X00602Y00109*
X00603Y00109*
X00603Y0011*
X00604Y0011*
X00605Y00111*
X00606Y00112*
Y00098*
G37*
G36*
X00073Y00082D02*
X00073Y00081D01*
X00072Y0008*
X00072Y00079*
X00071Y00079*
X00071Y00078*
X00071Y00077*
X00071Y00076*
X0007Y00075*
X0007Y00074*
X0007Y00073*
X00061Y00083*
X00062Y00083*
X00063Y00083*
X00064Y00083*
X00065Y00083*
X00066Y00083*
X00066Y00084*
X00067Y00084*
X00068Y00085*
X00069Y00085*
X00069Y00086*
X00073Y00082*
G37*
G36*
X01068Y00071D02*
X01067Y00072D01*
X01066Y00073*
X01065Y00073*
X01064Y00074*
X01064Y00074*
X01063Y00075*
X01062Y00075*
X01061Y00075*
X0106Y00075*
X01059Y00075*
Y00081*
X0106Y00081*
X01061Y00081*
X01062Y00082*
X01063Y00082*
X01064Y00082*
X01064Y00083*
X01065Y00083*
X01066Y00084*
X01067Y00084*
X01068Y00085*
Y00071*
G37*
G36*
X-00229Y00079D02*
X-00228Y00077D01*
X-00228Y00076*
X-00228Y00075*
X-00227Y00074*
X-00227Y00073*
X-00226Y00073*
X-00226Y00072*
X-00225Y00071*
X-00229Y00066*
X-00229Y00067*
X-0023Y00067*
X-00231Y00068*
X-00231Y00068*
X-00232Y00068*
X-00233Y00069*
X-00234Y00069*
X-00235Y00069*
X-00236Y00069*
X-00237Y00069*
X-00229Y0008*
X-00229Y00079*
G37*
G36*
X-00171Y00032D02*
X-00172Y00032D01*
X-00173Y00032*
X-00174Y00032*
X-00175Y00032*
X-00176Y00031*
X-00177Y00031*
X-00178Y00031*
X-00179Y0003*
X-00179Y0003*
X-0018Y00029*
X-00184Y00033*
X-00184Y00034*
X-00183Y00035*
X-00183Y00035*
X-00182Y00036*
X-00182Y00037*
X-00182Y00038*
X-00181Y00039*
X-00181Y0004*
X-00181Y00041*
X-00181Y00042*
X-00171Y00032*
G37*
G36*
X00519Y00022D02*
X00518Y00021D01*
X00518Y0002*
X00517Y0002*
X00517Y00019*
X00516Y00018*
X00516Y00017*
X00516Y00016*
X00516Y00015*
X00516Y00015*
X0051*
X0051Y00015*
X0051Y00016*
X0051Y00017*
X00509Y00018*
X00509Y00019*
X00508Y0002*
X00508Y0002*
X00507Y00021*
X00507Y00022*
X00506Y00023*
X0052*
X00519Y00022*
G37*
G36*
X-00164Y00006D02*
X-00163Y00005D01*
X-00162Y00004*
X-00161Y00004*
X-0016Y00003*
X-00159Y00003*
X-00159Y00003*
X-00158Y00003*
X-00157Y00003*
X-00156Y00002*
Y-00003*
X-00157Y-00003*
X-00158Y-00003*
X-00159Y-00003*
X-00159Y-00003*
X-0016Y-00004*
X-00161Y-00004*
X-00162Y-00004*
X-00163Y-00005*
X-00164Y-00006*
X-00164Y-00006*
Y00006*
X-00164Y00006*
G37*
G36*
X00064Y-00025D02*
X00064Y-00025D01*
X00064Y-00026*
X00064Y-00027*
X00065Y-00028*
X00065Y-00029*
X00065Y-0003*
X00066Y-0003*
X00067Y-00031*
X00067Y-00032*
X00054Y-00032*
X00054Y-00031*
X00055Y-0003*
X00056Y-0003*
X00056Y-00029*
X00057Y-00028*
X00057Y-00027*
X00057Y-00026*
X00057Y-00025*
X00057Y-00025*
X00058Y-00024*
X00064*
X00064Y-00025*
G37*
G36*
X00418Y-0016D02*
X00418Y-00161D01*
X00418Y-00162*
X00418Y-00163*
X00419Y-00164*
X00419Y-00165*
X0042Y-00165*
X0042Y-00166*
X00421Y-00167*
X00422Y-00168*
X00408Y-00168*
X00409Y-00167*
X00409Y-00166*
X0041Y-00165*
X0041Y-00165*
X00411Y-00164*
X00411Y-00163*
X00412Y-00162*
X00412Y-00161*
X00412Y-0016*
X00412Y-00159*
X00418Y-00159*
X00418Y-0016*
G37*
G36*
X00398Y-00182D02*
X00398Y-00183D01*
X00399Y-00184*
X00399Y-00185*
X00399Y-00185*
X004Y-00186*
X004Y-00187*
X00401Y-00188*
X00401Y-00189*
X00402Y-00189*
X00388Y-00189*
X00389Y-00189*
X0039Y-00188*
X0039Y-00187*
X00391Y-00186*
X00391Y-00185*
X00392Y-00185*
X00392Y-00184*
X00392Y-00183*
X00392Y-00182*
X00392Y-00181*
X00398*
X00398Y-00182*
G37*
G36*
X00174Y-00268D02*
X00174Y-00268D01*
X00173Y-00267*
X00172Y-00267*
X00171Y-00267*
X0017Y-00267*
X0017Y-00268*
X00169Y-00268*
X00168Y-00268*
X00167Y-00269*
X00167Y-00269*
X00165Y-00263*
X00165Y-00262*
X00166Y-00261*
X00167Y-0026*
X00168Y-00259*
X00169Y-00257*
X0017Y-00255*
X00174Y-00268*
G37*
G36*
X00211Y-00286D02*
X0021Y-00285D01*
X00209Y-00285*
X00209Y-00284*
X00208Y-00284*
X00207Y-00283*
X00206Y-00283*
X00205Y-00283*
X00204Y-00282*
X00204Y-00282*
X00203Y-00282*
Y-00276*
X00204Y-00276*
X00204Y-00276*
X00205Y-00276*
X00206Y-00276*
X00207Y-00275*
X00208Y-00275*
X00209Y-00274*
X00209Y-00274*
X0021Y-00273*
X00211Y-00272*
Y-00286*
G37*
G36*
X-00448Y-00296D02*
X-00448Y-00297D01*
X-00449Y-00298*
X-00449Y-00298*
X-0045Y-00299*
X-0045Y-003*
X-0045Y-003*
X-00451Y-00301*
X-00451Y-00301*
X-00451Y-00302*
X-00451Y-00303*
X-00458Y-00295*
X-00458Y-00295*
X-00457Y-00295*
X-00457Y-00295*
X-00456Y-00295*
X-00455Y-00294*
X-00455Y-00294*
X-00454Y-00294*
X-00453Y-00293*
X-00453Y-00293*
X-00452Y-00292*
X-00448Y-00296*
G37*
G36*
X-00496Y-00304D02*
X-00496Y-00305D01*
X-00496Y-00305*
X-00496Y-00306*
X-00495Y-00307*
X-00495Y-00308*
X-00494Y-00309*
X-00494Y-00309*
X-00493Y-0031*
X-00492Y-00311*
X-00506*
X-00505Y-0031*
X-00505Y-00309*
X-00504Y-00309*
X-00504Y-00308*
X-00503Y-00307*
X-00503Y-00306*
X-00503Y-00305*
X-00502Y-00305*
X-00502Y-00304*
X-00502Y-00303*
X-00496*
X-00496Y-00304*
G37*
G36*
X00195Y-00318D02*
X00195Y-00318D01*
X00195Y-00318*
X00195Y-00318*
X00194Y-00318*
X00194Y-00318*
X00194Y-00318*
X00193Y-00319*
X00192Y-0032*
X00192Y-0032*
X00187Y-00316*
X00188Y-00315*
X00189Y-00315*
X00189Y-00314*
X00189Y-00314*
X00189Y-00313*
X00189Y-00313*
X00189Y-00313*
X00189Y-00313*
X00189Y-00312*
X00195Y-00318*
G37*
G36*
X-00373Y-00312D02*
X-00373Y-00313D01*
X-00372Y-00313*
X-00371Y-00314*
X-0037Y-00314*
X-00369Y-00314*
X-00368Y-00315*
X-00368Y-00315*
X-00367Y-00315*
X-00366Y-00315*
Y-00321*
X-00367Y-00321*
X-00368Y-00321*
X-00368Y-00321*
X-00369Y-00322*
X-0037Y-00322*
X-00371Y-00322*
X-00372Y-00323*
X-00373Y-00324*
X-00373Y-00324*
X-00374Y-00325*
Y-00311*
X-00373Y-00312*
G37*
G36*
X00088Y-00203D02*
X00089Y-00204D01*
X0009Y-00204*
X0009Y-00205*
X00091Y-00205*
X00092Y-00206*
X00093Y-00206*
X00094Y-00206*
X00095Y-00206*
X00095Y-00206*
Y-00212*
X00095Y-00212*
X00094Y-00212*
X00093Y-00212*
X00092Y-00213*
X00091Y-00213*
X0009Y-00214*
X0009Y-00214*
X00089Y-00215*
X00088Y-00215*
X00087Y-00216*
X00087Y-00202*
X00088Y-00203*
G37*
G36*
X00556Y-00306D02*
X00555Y-00305D01*
X00554Y-00305*
X00553Y-00304*
X00553Y-00304*
X00552Y-00303*
X00551Y-00303*
X0055Y-00302*
X00549Y-00302*
X00548Y-00302*
X00547Y-00302*
Y-00296*
X00548Y-00296*
X00549Y-00296*
X0055Y-00296*
X00551Y-00296*
X00552Y-00295*
X00553Y-00295*
X00553Y-00294*
X00554Y-00294*
X00555Y-00293*
X00556Y-00292*
Y-00306*
G37*
G36*
X00249Y-00448D02*
X0025Y-00449D01*
X00251Y-00449*
X00252Y-0045*
X00252Y-0045*
X00253Y-0045*
X00254Y-0045*
X00255Y-00451*
X00256Y-00451*
X00257Y-00451*
X00248Y-0046*
X00248Y-00459*
X00247Y-00458*
X00247Y-00457*
X00247Y-00456*
X00247Y-00456*
X00246Y-00455*
X00246Y-00454*
X00246Y-00453*
X00245Y-00453*
X00244Y-00452*
X00249Y-00448*
X00249Y-00448*
G37*
G36*
X-00338Y-0046D02*
X-00338Y-00461D01*
X-00338Y-00461*
X-00338Y-00462*
X-00337Y-00463*
X-00337Y-00464*
X-00336Y-00465*
X-00336Y-00466*
X-00335Y-00466*
X-00334Y-00467*
X-00348*
X-00347Y-00466*
X-00347Y-00466*
X-00346Y-00465*
X-00346Y-00464*
X-00345Y-00463*
X-00345Y-00462*
X-00345Y-00461*
X-00344Y-00461*
X-00344Y-0046*
X-00344Y-00459*
X-00338*
X-00338Y-0046*
G37*
G36*
X-00255Y-00454D02*
X-00254Y-00455D01*
X-00254Y-00456*
X-00253Y-00456*
X-00252Y-00457*
X-00251Y-00457*
X-0025Y-00457*
X-00249Y-00457*
X-00249Y-00458*
X-00248Y-00458*
Y-00464*
X-00249Y-00464*
X-00249Y-00464*
X-0025Y-00464*
X-00251Y-00464*
X-00252Y-00465*
X-00253Y-00465*
X-00254Y-00465*
X-00254Y-00466*
X-00255Y-00467*
X-00256Y-00467*
Y-00454*
X-00255Y-00454*
G37*
G36*
X-00728D02*
X-00727Y-00455D01*
X-00726Y-00456*
X-00725Y-00456*
X-00724Y-00457*
X-00724Y-00457*
X-00723Y-00457*
X-00722Y-00457*
X-00721Y-00458*
X-0072Y-00458*
Y-00464*
X-00721Y-00464*
X-00722Y-00464*
X-00723Y-00464*
X-00724Y-00464*
X-00724Y-00465*
X-00725Y-00465*
X-00726Y-00465*
X-00727Y-00466*
X-00728Y-00467*
X-00728Y-00467*
Y-00454*
X-00728Y-00454*
G37*
G36*
X-00765Y-00462D02*
X-00765Y-00463D01*
X-00765Y-00464*
X-00765Y-00465*
X-00764Y-00466*
X-00764Y-00466*
X-00763Y-00467*
X-00763Y-00468*
X-00762Y-00469*
X-00762Y-00469*
X-00766Y-00473*
X-00767Y-00473*
X-00767Y-00472*
X-00768Y-00472*
X-00769Y-00471*
X-0077Y-00471*
X-00771Y-00471*
X-00772Y-00471*
X-00773Y-00471*
X-00774Y-0047*
X-00775Y-0047*
X-00765Y-00461*
X-00765Y-00462*
G37*
G36*
X00127Y-00461D02*
X00128Y-00462D01*
X00129Y-00463*
X0013Y-00463*
X00131Y-00463*
X00131Y-00464*
X00132Y-00464*
X00133Y-00464*
X00134Y-00464*
X00135Y-00464*
Y-0047*
X00134Y-0047*
X00133Y-00471*
X00132Y-00471*
X00131Y-00471*
X00131Y-00471*
X0013Y-00472*
X00129Y-00472*
X00128Y-00473*
X00127Y-00474*
X00127Y-00474*
Y-00461*
X00127Y-00461*
G37*
G36*
X0057Y-00468D02*
X00569Y-00468D01*
X00569Y-00469*
X00568Y-0047*
X00568Y-00471*
X00567Y-00472*
X00567Y-00472*
X00567Y-00473*
X00566Y-00474*
X00566Y-00475*
X00566Y-00476*
X0056Y-00476*
X0056Y-00475*
X0056Y-00474*
X0056Y-00473*
X0056Y-00472*
X00559Y-00472*
X00559Y-00471*
X00558Y-0047*
X00558Y-00469*
X00557Y-00468*
X00556Y-00468*
X0057Y-00468*
G37*
G36*
X-00175Y-00498D02*
X-00174Y-00499D01*
X-00174Y-005*
X-00174Y-005*
X-00173Y-00501*
X-00172Y-00501*
X-00172Y-00501*
X-00171Y-00502*
X-0017Y-00502*
X-00169Y-00502*
X-00171Y-00508*
X-00172Y-00508*
X-00181Y-00508*
X-00181Y-00509*
X-00182Y-00509*
X-00175Y-00498*
X-00175Y-00498*
G37*
G36*
X0027Y-00511D02*
X00269Y-0051D01*
X00268Y-0051*
X00268Y-00509*
X00267Y-00509*
X00266Y-00508*
X00265Y-00508*
X00264Y-00507*
X00264Y-00507*
X00263Y-00507*
X00262Y-00507*
Y-00501*
X00263Y-00501*
X00264Y-00501*
X00264Y-00501*
X00265Y-00501*
X00266Y-005*
X00267Y-005*
X00268Y-00499*
X00268Y-00499*
X00269Y-00498*
X0027Y-00497*
Y-00511*
G37*
G36*
X00324Y-00498D02*
X00325Y-00499D01*
X00326Y-00499*
X00327Y-005*
X00327Y-005*
X00328Y-00501*
X00329Y-00501*
X0033Y-00501*
X00331Y-00501*
X00332Y-00501*
Y-00507*
X00331Y-00507*
X0033Y-00507*
X00329Y-00508*
X00328Y-00508*
X00327Y-00508*
X00327Y-00509*
X00326Y-00509*
X00325Y-0051*
X00324Y-0051*
X00323Y-00511*
X00323Y-00497*
X00324Y-00498*
G37*
G36*
X0029Y-00551D02*
X00289Y-0055D01*
X00288Y-0055*
X00287Y-00549*
X00287Y-00549*
X00286Y-00548*
X00285Y-00548*
X00284Y-00547*
X00283Y-00547*
X00282Y-00547*
X00281Y-00547*
Y-00541*
X00282Y-00541*
X00283Y-00541*
X00284Y-00541*
X00285Y-00541*
X00286Y-0054*
X00287Y-0054*
X00287Y-00539*
X00288Y-00539*
X00289Y-00538*
X0029Y-00537*
Y-00551*
G37*
G36*
X00141Y-00574D02*
X00141Y-00575D01*
X00141Y-00576*
X00141Y-00577*
X00142Y-00578*
X00142Y-00578*
X00143Y-00579*
X00143Y-0058*
X00144Y-0058*
X00145Y-00581*
X00131Y-00583*
X00132Y-00582*
X00133Y-00581*
X00133Y-0058*
X00134Y-00579*
X00134Y-00578*
X00134Y-00577*
X00135Y-00576*
X00135Y-00575*
X00135Y-00575*
X00141Y-00574*
X00141Y-00574*
G37*
G36*
X00152Y-00621D02*
X00151Y-0062D01*
X0015Y-0062*
X0015Y-00619*
X00149Y-00619*
X00148Y-00618*
X00147Y-00618*
X00146Y-00618*
X00145Y-00617*
X00145Y-00617*
X00144Y-00617*
Y-00611*
X00145Y-00611*
X00145Y-00611*
X00146Y-00611*
X00147Y-00611*
X00148Y-0061*
X00149Y-0061*
X0015Y-00609*
X0015Y-00609*
X00151Y-00608*
X00152Y-00607*
Y-00621*
G37*
%LNmod_duo_x_g3399-4*%
%LPC*%
G36*
X00555Y0159D02*
X00548Y01589D01*
X00543Y01586*
X0054Y0158*
X00538Y01574*
X0054Y01568*
X00543Y01563*
X00548Y01559*
X00555Y01558*
X00561Y01559*
X00566Y01563*
X00569Y01568*
X00571Y01574*
X00569Y0158*
X00566Y01586*
X00561Y01589*
X00555Y0159*
G37*
%LNmod_duo_x_g3399-5*%
%LPD*%
G54D11*
X-00647Y00984D02*
X-00462D01*
X-00925D02*
X-00648D01*
X-00646Y00842D02*
Y00982D01*
X-00984Y01042D02*
X-00925Y00984D01*
X-00984Y01042D02*
Y01209D01*
G54D24*
X-00179Y-00505D02*
X0014D01*
X-00185Y-00499D02*
X-00179Y-00505D01*
X00179Y-00544D02*
X00297D01*
X0014Y-00505D02*
X00179Y-00544D01*
X00238Y-00481D02*
X00398D01*
X00406Y-00474*
X00224Y-00467D02*
X00238Y-00481D01*
X-00485Y00826D02*
X-00342D01*
X-00513Y00798D02*
X-00485Y00826D01*
X-00381Y00488D02*
X-0038Y00489D01*
X-0016*
X00038Y01865D02*
X00048Y01855D01*
X00239Y-00504D02*
X00277D01*
X00223Y-00488D02*
X00239Y-00504D01*
X00098Y-00488D02*
X00223D01*
X0007Y-00461D02*
X00098Y-00488D01*
X-00263Y-00461D02*
X0007D01*
X00231Y-00435D02*
X00257Y-00461D01*
X-00322Y-00435D02*
X00231D01*
X-00341Y-00454D02*
X-00322Y-00435D01*
X-00341Y-00474D02*
Y-00454D01*
X00082Y01726D02*
X00108Y017D01*
X-01074Y01726D02*
X00082D01*
X-01081Y0172D02*
X-01074Y01726D01*
X00101Y01744D02*
X00124Y0172D01*
X-01099Y01744D02*
X00101D01*
X-01106Y01736D02*
X-01099Y01744D01*
X00107Y01763D02*
X00133Y01736D01*
X-01124Y01763D02*
X00107D01*
X-01132Y01755D02*
X-01124Y01763D01*
X-00239Y00078D02*
X-00236D01*
X-00212Y00054*
X00257Y01637D02*
Y01674D01*
X00231Y017D02*
X00257Y01674D01*
X00216Y0168D02*
X00238Y01658D01*
X00101Y0168D02*
X00216D01*
X00081Y017D02*
X00101Y0168D01*
X-01055Y017D02*
X-01055D01*
X00108D02*
X00231D01*
X-00251Y01591D02*
X-00249Y01593D01*
X0012Y-00467D02*
X00224D01*
X0008Y-00209D02*
X00192D01*
X00282Y-00299*
X00563*
X00356Y00458D02*
Y00475D01*
X00338Y0044D02*
X00356Y00458D01*
X-00549Y0044D02*
X00338D01*
X00302Y0046D02*
X00335Y00493D01*
X00375*
X-00521Y0046D02*
X00302D01*
X-00539Y00478D02*
X-00521Y0046D01*
X-00539Y00478D02*
Y00561D01*
X-00564Y00455D02*
X-00549Y0044D01*
X-0059Y00433D02*
X-00582Y00425D01*
X00164*
X00184Y00405*
X00943*
X00395Y-00196D02*
Y-0015D01*
X00375Y-00129D02*
X00395Y-0015D01*
X00031Y-00129D02*
X00375D01*
X-0005Y-00047D02*
X00031Y-00129D01*
X-00187Y-00047D02*
X-0005D01*
X-00212Y-00021D02*
X-00187Y-00047D01*
X-00212Y-00021D02*
Y00054D01*
X00415Y-00175D02*
Y-00129D01*
X0039Y-00104D02*
X00415Y-00129D01*
X00038Y-00104D02*
X0039D01*
X-00042Y-00023D02*
X00038Y-00104D01*
X-00177Y-00023D02*
X-00042D01*
X-00191Y-00009D02*
X-00177Y-00023D01*
X-00191Y-00009D02*
Y00022D01*
X-00171Y00042*
X00513Y-00039D02*
Y0003D01*
X00493Y-00059D02*
X00513Y-00039D01*
X00273Y-00059D02*
X00493D01*
X00273Y-00059D02*
X00273Y-00059D01*
X00031Y-00059D02*
X00273D01*
X-00027Y0D02*
X00031Y-00059D01*
X-00171Y0D02*
X-00027D01*
X00316Y-00504D02*
X00543D01*
X00563Y-00484D02*
Y-00461D01*
X00543Y-00504D02*
X00563Y-00484D01*
X00061Y00073D02*
X00093Y00105D01*
X00061Y00073D02*
X00061Y00073D01*
X00093Y00105D02*
X00613D01*
X00061Y-00039D02*
Y00042D01*
X00087Y00068*
X00284*
X00294Y00078*
X01075*
X-01055Y017D02*
X00081D01*
X-01081Y0172D02*
X-01081D01*
X-01132Y01755D02*
X-01132D01*
X00298Y0178D02*
X00377Y01701D01*
X00074Y0178D02*
X00298D01*
X00048Y01806D02*
X00074Y0178D01*
X00377Y01658D02*
Y01701D01*
X00274Y01736D02*
X00316Y01693D01*
X00133Y01736D02*
X00274D01*
X00254Y0172D02*
X00297Y01677D01*
X00124Y0172D02*
X00254D01*
X00048Y01806D02*
Y01855D01*
X00238Y00134D02*
X00238Y00134D01*
X-00249Y01593D02*
X-00064D01*
X-00035Y01564*
X00405*
X00435Y01534*
X-00706Y01399D02*
X-00122D01*
X-0008Y0144*
X00153*
X00178Y01414*
Y014D02*
Y01414D01*
Y014D02*
X00179Y014D01*
X00138Y-00614D02*
X00159D01*
X00118Y-00594D02*
X00138Y-00614D01*
X00118Y-00594D02*
Y-00564D01*
X00098Y-00544D02*
X00118Y-00564D01*
X-00381Y-00544D02*
X00098D01*
X-00426Y-00499D02*
X-00381Y-00544D01*
X-00566Y-00499D02*
X-00426D01*
X-00584Y-00481D02*
X-00566Y-00499D01*
X-00754Y-00481D02*
X-00584D01*
X-00775Y-00461D02*
X-00754Y-00481D01*
X00138Y-00588D02*
Y-00544D01*
Y-00588D02*
X00139Y-00589D01*
X00118Y-00524D02*
X00138Y-00544D01*
X-00376Y-00524D02*
X00118D01*
X-00419Y-00481D02*
X-00376Y-00524D01*
X-00559Y-00481D02*
X-00419D01*
X-0058Y-00461D02*
X-00559Y-00481D01*
X-00735Y-00461D02*
X-0058D01*
X00173Y-00259D02*
X00179D01*
X00158Y-00274D02*
X00173Y-00259D01*
X-00476Y-00274D02*
X00158D01*
X-00499Y-00297D02*
X-00476Y-00274D01*
X-00499Y-00318D02*
Y-00297D01*
X00189Y-00279D02*
X00218D01*
X00174Y-00294D02*
X00189Y-00279D01*
X-0045Y-00294D02*
X00174D01*
X-0046Y-00304D02*
X-0045Y-00294D01*
X-0046Y-00304D02*
X-0046D01*
X00189Y-00318D02*
X00198Y-00309D01*
X-00381Y-00318D02*
X00189D01*
G54D25*
X-00309Y0132D02*
X-00308Y01319D01*
X-00462Y0132D02*
X-00309D01*
X00415Y016D02*
X00457Y01558D01*
X00036Y016D02*
X00415D01*
X-00026Y01663D02*
X00036Y016D01*
X-00901Y01663D02*
X-00026D01*
X-0103Y01535D02*
X-00901Y01663D01*
X-0103Y01496D02*
Y01535D01*
X-00621Y0045D02*
X-00615Y00455D01*
X-00922Y0045D02*
X-00621D01*
X-0103Y00557D02*
X-00922Y0045D01*
X-0103Y00557D02*
Y01496D01*
X01089Y01564D02*
Y01575D01*
G54D27*
X-01194Y00694D03*
X0148D03*
G54D28*
X-00416Y00574D03*
X-00462Y00984D03*
X-00564Y01102D03*
X-00539Y00866D03*
X-00647Y00983D03*
X-00185Y-00499D03*
X-00513Y00798D03*
X-00342Y00826D03*
X-00331Y01578D03*
X0008Y01658D03*
X00139Y01632D03*
X00061Y0168D03*
X-00381Y00488D03*
X-0016Y00489D03*
X00238Y00314D03*
X-00295Y-00461D03*
X-00996Y00673D03*
X-0099Y0059D03*
X-0096Y00629D03*
Y00708D03*
X00721Y-00499D03*
X-01081Y0172D03*
X-00239Y00078D03*
X-00646Y00842D03*
X-00236Y-00564D03*
X-00308Y01319D03*
X-00462Y0132D03*
X00297Y-00544D03*
X-00984Y01209D03*
X00218Y01637D03*
X00257Y01637D03*
X00277Y01658D03*
X00238Y01658D03*
X-00487Y01641D03*
X00159Y01658D03*
X-00618Y00453D03*
X-0103Y01496D03*
X-00316Y-00484D03*
X-00276Y0145D03*
Y00118D03*
X-00251Y01591D03*
X-00251Y00275D03*
X00406Y-00474D03*
X0012Y-00467D03*
X00277Y-00504D03*
X0008Y-00209D03*
X00563Y-00299D03*
X-00786Y00826D03*
Y00475D03*
X-00756Y00354D03*
Y00944D03*
X-00706Y01361D03*
X-00539Y00561D03*
X00375Y00493D03*
X00356Y00475D03*
X-00564Y00455D03*
X-0059Y00433D03*
X00943Y00405D03*
X-00564Y00905D03*
X00395Y-00196D03*
X00415Y-00175D03*
X-00171Y00042D03*
X-00171Y0D03*
X-00735Y00236D03*
X00316Y-00504D03*
X00563Y-00461D03*
X00356Y-00196D03*
X00375Y-0022D03*
X00563Y00185D03*
Y00134D03*
X00061Y00073D03*
X00613Y00105D03*
X00061Y-00039D03*
X01075Y00078D03*
X00858Y00425D03*
X00159Y00393D03*
X-00513Y01621D03*
X-00539Y0121D03*
X-00564Y0119D03*
X-00538Y01141D03*
X-01132Y01755D03*
X-01106Y01736D03*
X-01055Y017D03*
X00316Y01693D03*
X00297Y01677D03*
X00813Y01896D03*
Y01872D03*
X00257Y0029D03*
X00238Y00134D03*
X00198Y00335D03*
X00297Y00365D03*
X01161Y01977D03*
X00698Y01566D03*
X00733D03*
X00803D03*
X00768D03*
X00873D03*
X00838D03*
Y0153D03*
X00873D03*
X00768D03*
X00803D03*
X00733D03*
X00698D03*
Y016D03*
X00733D03*
X00803D03*
X00768D03*
X00873D03*
X00838D03*
X00698Y01635D03*
X00733D03*
X00803D03*
X00768D03*
X00873D03*
X00838D03*
X00603Y-00299D03*
X01508Y-00314D03*
X01543D03*
X01438D03*
X01473D03*
X01403D03*
X01368D03*
X01508Y-00349D03*
X01543D03*
X01438D03*
X01473D03*
X01403D03*
X01368D03*
Y-00419D03*
X01403D03*
X01473D03*
X01438D03*
X01543D03*
X01508D03*
Y-00383D03*
X01543D03*
X01438D03*
X01473D03*
X01403D03*
X01368D03*
X01058Y01862D03*
X-0097Y00433D03*
X-01001D03*
X-01026D03*
X-01051D03*
X00513Y01648D03*
X00078Y01965D03*
X0013Y01863D03*
X00038Y01865D03*
X00377Y01658D03*
X00415Y01643D03*
X00908Y01325D03*
X00938Y0126D03*
X00513Y0003D03*
X00998Y01195D03*
X01028Y0122D03*
X00588Y0D03*
X01058Y01377D03*
X01089Y01353D03*
X01114Y01325D03*
X0115Y01299D03*
X00917Y00185D03*
X00957D03*
X00996D03*
X01035Y00185D03*
X00061Y014D03*
X0008Y0137D03*
X00277Y014D03*
X00297Y0137D03*
X00316Y014D03*
X00336Y0137D03*
X00396Y01369D03*
X00377Y01399D03*
X00277Y00085D03*
X00198D03*
X00179Y00134D03*
X-00706Y01399D03*
X00048Y01375D03*
X001Y01632D03*
X-00735Y01574D03*
X-00221Y-00234D03*
X-00221Y0147D03*
X-00195Y-00193D03*
Y0151D03*
X0012Y01648D03*
X00494Y01632D03*
X00474Y01648D03*
X00454Y01632D03*
X00435Y01534D03*
X-00089Y00157D03*
X00838Y-00279D03*
X00563Y-00258D03*
X001Y0024D03*
X0012Y00268D03*
X00041Y00185D03*
X00159Y-00614D03*
X00139Y-00589D03*
X-00775Y-00461D03*
X-00735D03*
X00179Y-00259D03*
X-00499Y-00318D03*
X00218Y-00279D03*
X-0046Y-00304D03*
X00257Y-00461D03*
X00238Y-00175D03*
X-00263Y-00461D03*
X00198Y-00308D03*
X-00381Y-00318D03*
X-00341Y-00474D03*
X00395Y0045D03*
X00336Y00525D03*
X-00037Y014D03*
X-00017Y0137D03*
X00001Y014D03*
X00179D03*
X0012Y014D03*
X00139Y0137D03*
X00648Y01854D03*
X00673Y01855D03*
X00316Y-0003D03*
X00336Y-00085D03*
Y-00175D03*
X00238Y-00087D03*
X001Y-00175D03*
Y-00085D03*
X00278Y01534D03*
X01653Y0199D03*
X01608D03*
X01653Y0194D03*
X01608D03*
X01633Y01965D03*
X-01241Y01955D03*
X-01256Y-00604D03*
X01483Y01601D03*
X01518D03*
X01588D03*
X01553D03*
X01658D03*
X01623D03*
Y01565D03*
X01658D03*
X01553D03*
X01588D03*
X01518D03*
X01483D03*
Y01635D03*
X01518D03*
X01588D03*
X01553D03*
X01658D03*
X01623D03*
X01483Y0167D03*
X01518D03*
X01588D03*
X01553D03*
X01658D03*
X01623D03*
X01483Y01704D03*
X01518D03*
X01588D03*
X01553D03*
X01658D03*
X01623D03*
Y0174D03*
X01658D03*
X01553D03*
X01588D03*
X01518D03*
X01483D03*
X01323Y01765D03*
X01291D03*
X01393D03*
X01403Y0174D03*
X01263Y01765D03*
X01278Y0174D03*
X01308D03*
X01373D03*
X01338D03*
X01358Y01765D03*
M02*