%FSTAX23Y23*%
%MOIN*%
%SFA1B1*%

%IPPOS*%
%ADD25C,0.010000*%
%ADD63C,0.015000*%
%ADD64C,0.001000*%
%LNmod_duo_x_g3399-1*%
%LPD*%
G54D25*
X02034Y05551D02*
Y05491D01*
X02074*
X02104Y05531D02*
X02124D01*
X02134Y05521*
Y05491*
X02104*
X02094Y05501*
X02104Y05511*
X02134*
X02154Y05531D02*
Y05501D01*
X02164Y05491*
X02194*
Y05481*
X02184Y05471*
X02174*
X02194Y05491D02*
Y05531D01*
X02244Y05491D02*
X02224D01*
X02214Y05501*
Y05521*
X02224Y05531*
X02244*
X02254Y05521*
Y05511*
X02214*
X02274Y05531D02*
Y05491D01*
Y05511*
X02284Y05521*
X02294Y05531*
X02304*
X02064Y04411D02*
Y04471D01*
X02034Y04441*
X02074*
X02034Y04701D02*
X02044Y04711D01*
X02064*
X02074Y04701*
Y04691*
X02064Y04681*
X02054*
X02064*
X02074Y04671*
Y04661*
X02064Y04651*
X02044*
X02034Y04661*
X02074Y04891D02*
X02034D01*
X02074Y04931*
Y04941*
X02064Y04951*
X02044*
X02034Y04941*
Y05131D02*
X02054D01*
X02044*
Y05191*
X02034Y05181*
X02444Y05491D02*
Y05551D01*
X02484Y05491*
Y05551*
X02514Y05531D02*
X02534D01*
X02544Y05521*
Y05491*
X02514*
X02504Y05501*
X02514Y05511*
X02544*
X02564Y05491D02*
Y05531D01*
X02574*
X02584Y05521*
Y05491*
Y05521*
X02594Y05531*
X02604Y05521*
Y05491*
X02654D02*
X02634D01*
X02624Y05501*
Y05521*
X02634Y05531*
X02654*
X02664Y05521*
Y05511*
X02624*
X02444Y04231D02*
Y04171D01*
X02474*
X02484Y04181*
Y04191*
X02474Y04201*
X02444*
X02474*
X02484Y04211*
Y04221*
X02474Y04231*
X02444*
X02514Y04171D02*
X02534D01*
X02544Y04181*
Y04201*
X02534Y04211*
X02514*
X02504Y04201*
Y04181*
X02514Y04171*
X02574Y04221D02*
Y04211D01*
X02564*
X02584*
X02574*
Y04181*
X02584Y04171*
X02624Y04221D02*
Y04211D01*
X02614*
X02634*
X02624*
Y04181*
X02634Y04171*
X02674D02*
X02694D01*
X02704Y04181*
Y04201*
X02694Y04211*
X02674*
X02664Y04201*
Y04181*
X02674Y04171*
X02724D02*
Y04211D01*
X02734*
X02744Y04201*
Y04171*
Y04201*
X02754Y04211*
X02764Y04201*
Y04171*
X02874Y04231D02*
X02854D01*
X02844Y04221*
Y04181*
X02854Y04171*
X02874*
X02884Y04181*
Y04221*
X02874Y04231*
X02904Y04211D02*
X02924Y04171D01*
X02944Y04211*
X02994Y04171D02*
X02974D01*
X02964Y04181*
Y04201*
X02974Y04211*
X02994*
X03004Y04201*
Y04191*
X02964*
X03024Y04211D02*
Y04171D01*
Y04191*
X03034Y04201*
X03044Y04211*
X03054*
X03084Y04171D02*
X03104D01*
X03094*
Y04231*
X03084*
X03144Y04211D02*
X03164D01*
X03174Y04201*
Y04171*
X03144*
X03134Y04181*
X03144Y04191*
X03174*
X03194Y04211D02*
Y04181D01*
X03204Y04171*
X03234*
Y04161*
X03224Y04151*
X03214*
X03234Y04171D02*
Y04211D01*
X02444Y04351D02*
Y04291D01*
X02474*
X02484Y04301*
Y04311*
X02474Y04321*
X02444*
X02474*
X02484Y04331*
Y04341*
X02474Y04351*
X02444*
X02514Y04291D02*
X02534D01*
X02544Y04301*
Y04321*
X02534Y04331*
X02514*
X02504Y04321*
Y04301*
X02514Y04291*
X02574Y04341D02*
Y04331D01*
X02564*
X02584*
X02574*
Y04301*
X02584Y04291*
X02624Y04341D02*
Y04331D01*
X02614*
X02634*
X02624*
Y04301*
X02634Y04291*
X02674D02*
X02694D01*
X02704Y04301*
Y04321*
X02694Y04331*
X02674*
X02664Y04321*
Y04301*
X02674Y04291*
X02724D02*
Y04331D01*
X02734*
X02744Y04321*
Y04291*
Y04321*
X02754Y04331*
X02764Y04321*
Y04291*
X02884Y04341D02*
X02874Y04351D01*
X02854*
X02844Y04341*
Y04331*
X02854Y04321*
X02874*
X02884Y04311*
Y04301*
X02874Y04291*
X02854*
X02844Y04301*
X02914Y04291D02*
X02934D01*
X02944Y04301*
Y04321*
X02934Y04331*
X02914*
X02904Y04321*
Y04301*
X02914Y04291*
X02964D02*
X02984D01*
X02974*
Y04351*
X02964*
X03054D02*
Y04291D01*
X03024*
X03014Y04301*
Y04321*
X03024Y04331*
X03054*
X03104Y04291D02*
X03084D01*
X03074Y04301*
Y04321*
X03084Y04331*
X03104*
X03114Y04321*
Y04311*
X03074*
X03134Y04331D02*
Y04291D01*
Y04311*
X03144Y04321*
X03154Y04331*
X03164*
X02444Y04471D02*
Y04411D01*
X02474*
X02484Y04421*
Y04431*
X02474Y04441*
X02444*
X02474*
X02484Y04451*
Y04461*
X02474Y04471*
X02444*
X02514Y04411D02*
X02534D01*
X02544Y04421*
Y04441*
X02534Y04451*
X02514*
X02504Y04441*
Y04421*
X02514Y04411*
X02574Y04461D02*
Y04451D01*
X02564*
X02584*
X02574*
Y04421*
X02584Y04411*
X02624Y04461D02*
Y04451D01*
X02614*
X02634*
X02624*
Y04421*
X02634Y04411*
X02674D02*
X02694D01*
X02704Y04421*
Y04441*
X02694Y04451*
X02674*
X02664Y04441*
Y04421*
X02674Y04411*
X02724D02*
Y04451D01*
X02734*
X02744Y04441*
Y04411*
Y04441*
X02754Y04451*
X02764Y04441*
Y04411*
X02844Y04471D02*
Y04411D01*
X02884*
X02914Y04451D02*
X02934D01*
X02944Y04441*
Y04411*
X02914*
X02904Y04421*
X02914Y04431*
X02944*
X02964Y04451D02*
Y04421D01*
X02974Y04411*
X03004*
Y04401*
X02994Y04391*
X02984*
X03004Y04411D02*
Y04451D01*
X03054Y04411D02*
X03034D01*
X03024Y04421*
Y04441*
X03034Y04451*
X03054*
X03064Y04441*
Y04431*
X03024*
X03084Y04451D02*
Y04411D01*
Y04431*
X03094Y04441*
X03104Y04451*
X03114*
X02444Y04591D02*
Y04531D01*
X02474*
X02484Y04541*
Y04581*
X02474Y04591*
X02444*
X02504Y04531D02*
X02524D01*
X02514*
Y04571*
X02504*
X02584Y04531D02*
X02564D01*
X02554Y04541*
Y04561*
X02564Y04571*
X02584*
X02594Y04561*
Y04551*
X02554*
X02614Y04531D02*
X02634D01*
X02624*
Y04591*
X02614*
X02694Y04531D02*
X02674D01*
X02664Y04541*
Y04561*
X02674Y04571*
X02694*
X02704Y04561*
Y04551*
X02664*
X02764Y04571D02*
X02734D01*
X02724Y04561*
Y04541*
X02734Y04531*
X02764*
X02794Y04581D02*
Y04571D01*
X02784*
X02804*
X02794*
Y04541*
X02804Y04531*
X02834Y04571D02*
Y04531D01*
Y04551*
X02844Y04561*
X02854Y04571*
X02864*
X02894Y04531D02*
X02914D01*
X02904*
Y04571*
X02894*
X02984D02*
X02954D01*
X02944Y04561*
Y04541*
X02954Y04531*
X02984*
X03104D02*
X03064D01*
X03104Y04571*
Y04581*
X03094Y04591*
X03074*
X03064Y04581*
X02484Y04701D02*
X02474Y04711D01*
X02454*
X02444Y04701*
Y04661*
X02454Y04651*
X02474*
X02484Y04661*
Y04681*
X02464*
X02504Y04651D02*
Y04711D01*
X02544Y04651*
Y04711*
X02564D02*
Y04651D01*
X02594*
X02604Y04661*
Y04701*
X02594Y04711*
X02564*
X02444Y04831D02*
Y04771D01*
X02474*
X02484Y04781*
Y04821*
X02474Y04831*
X02444*
X02504Y04771D02*
X02524D01*
X02514*
Y04811*
X02504*
X02584Y04771D02*
X02564D01*
X02554Y04781*
Y04801*
X02564Y04811*
X02584*
X02594Y04801*
Y04791*
X02554*
X02614Y04771D02*
X02634D01*
X02624*
Y04831*
X02614*
X02694Y04771D02*
X02674D01*
X02664Y04781*
Y04801*
X02674Y04811*
X02694*
X02704Y04801*
Y04791*
X02664*
X02764Y04811D02*
X02734D01*
X02724Y04801*
Y04781*
X02734Y04771*
X02764*
X02794Y04821D02*
Y04811D01*
X02784*
X02804*
X02794*
Y04781*
X02804Y04771*
X02834Y04811D02*
Y04771D01*
Y04791*
X02844Y04801*
X02854Y04811*
X02864*
X02894Y04771D02*
X02914D01*
X02904*
Y04811*
X02894*
X02984D02*
X02954D01*
X02944Y04801*
Y04781*
X02954Y04771*
X02984*
X03064Y04821D02*
X03074Y04831D01*
X03094*
X03104Y04821*
Y04811*
X03094Y04801*
X03084*
X03094*
X03104Y04791*
Y04781*
X03094Y04771*
X03074*
X03064Y04781*
X02444Y04951D02*
Y04911D01*
X02464Y04891*
X02484Y04911*
Y04951*
X02544Y04941D02*
X02534Y04951D01*
X02514*
X02504Y04941*
Y04901*
X02514Y04891*
X02534*
X02544Y04901*
X02604Y04941D02*
X02594Y04951D01*
X02574*
X02564Y04941*
Y04901*
X02574Y04891*
X02594*
X02604Y04901*
X02444Y05071D02*
Y05011D01*
X02474*
X02484Y05021*
Y05061*
X02474Y05071*
X02444*
X02504Y05011D02*
X02524D01*
X02514*
Y05051*
X02504*
X02584Y05011D02*
X02564D01*
X02554Y05021*
Y05041*
X02564Y05051*
X02584*
X02594Y05041*
Y05031*
X02554*
X02614Y05011D02*
X02634D01*
X02624*
Y05071*
X02614*
X02694Y05011D02*
X02674D01*
X02664Y05021*
Y05041*
X02674Y05051*
X02694*
X02704Y05041*
Y05031*
X02664*
X02764Y05051D02*
X02734D01*
X02724Y05041*
Y05021*
X02734Y05011*
X02764*
X02794Y05061D02*
Y05051D01*
X02784*
X02804*
X02794*
Y05021*
X02804Y05011*
X02834Y05051D02*
Y05011D01*
Y05031*
X02844Y05041*
X02854Y05051*
X02864*
X02894Y05011D02*
X02914D01*
X02904*
Y05051*
X02894*
X02984D02*
X02954D01*
X02944Y05041*
Y05021*
X02954Y05011*
X02984*
X03064D02*
X03084D01*
X03074*
Y05071*
X03064Y05061*
X02444Y05191D02*
X02484D01*
X02464*
Y05131*
X02514D02*
X02534D01*
X02544Y05141*
Y05161*
X02534Y05171*
X02514*
X02504Y05161*
Y05141*
X02514Y05131*
X02564Y05111D02*
Y05171D01*
X02594*
X02604Y05161*
Y05141*
X02594Y05131*
X02564*
X02684Y05191D02*
Y05131D01*
X02724*
X02754Y05171D02*
X02774D01*
X02784Y05161*
Y05131*
X02754*
X02744Y05141*
X02754Y05151*
X02784*
X02804Y05171D02*
Y05141D01*
X02814Y05131*
X02844*
Y05121*
X02834Y05111*
X02824*
X02844Y05131D02*
Y05171D01*
X02894Y05131D02*
X02874D01*
X02864Y05141*
Y05161*
X02874Y05171*
X02894*
X02904Y05161*
Y05151*
X02864*
X02924Y05171D02*
Y05131D01*
Y05151*
X02934Y05161*
X02944Y05171*
X02954*
X02444Y05311D02*
X02484D01*
X02464*
Y05251*
X02514D02*
X02534D01*
X02544Y05261*
Y05281*
X02534Y05291*
X02514*
X02504Y05281*
Y05261*
X02514Y05251*
X02564Y05231D02*
Y05291D01*
X02594*
X02604Y05281*
Y05261*
X02594Y05251*
X02564*
X02724Y05301D02*
X02714Y05311D01*
X02694*
X02684Y05301*
Y05291*
X02694Y05281*
X02714*
X02724Y05271*
Y05261*
X02714Y05251*
X02694*
X02684Y05261*
X02754Y05251D02*
X02774D01*
X02784Y05261*
Y05281*
X02774Y05291*
X02754*
X02744Y05281*
Y05261*
X02754Y05251*
X02804D02*
X02824D01*
X02814*
Y05311*
X02804*
X02894D02*
Y05251D01*
X02864*
X02854Y05261*
Y05281*
X02864Y05291*
X02894*
X02944Y05251D02*
X02924D01*
X02914Y05261*
Y05281*
X02924Y05291*
X02944*
X02954Y05281*
Y05271*
X02914*
X02974Y05291D02*
Y05251D01*
Y05271*
X02984Y05281*
X02994Y05291*
X03004*
X02444Y05431D02*
X02484D01*
X02464*
Y05371*
X02514D02*
X02534D01*
X02544Y05381*
Y05401*
X02534Y05411*
X02514*
X02504Y05401*
Y05381*
X02514Y05371*
X02564Y05351D02*
Y05411D01*
X02594*
X02604Y05401*
Y05381*
X02594Y05371*
X02564*
X02714Y05431D02*
X02694D01*
X02684Y05421*
Y05381*
X02694Y05371*
X02714*
X02724Y05381*
Y05421*
X02714Y05431*
X02744Y05411D02*
X02764Y05371D01*
X02784Y05411*
X02834Y05371D02*
X02814D01*
X02804Y05381*
Y05401*
X02814Y05411*
X02834*
X02844Y05401*
Y05391*
X02804*
X02864Y05411D02*
Y05371D01*
Y05391*
X02874Y05401*
X02884Y05411*
X02894*
X02924Y05371D02*
X02944D01*
X02934*
Y05431*
X02924*
X02984Y05411D02*
X03004D01*
X03014Y05401*
Y05371*
X02984*
X02974Y05381*
X02984Y05391*
X03014*
X03034Y05411D02*
Y05381D01*
X03044Y05371*
X03074*
Y05361*
X03064Y05351*
X03054*
X03074Y05371D02*
Y05411D01*
X03374Y05491D02*
Y05551D01*
X03394Y05531*
X03414Y05551*
Y05491*
X03444Y05531D02*
X03464D01*
X03474Y05521*
Y05491*
X03444*
X03434Y05501*
X03444Y05511*
X03474*
X03504Y05541D02*
Y05531D01*
X03494*
X03514*
X03504*
Y05501*
X03514Y05491*
X03574D02*
X03554D01*
X03544Y05501*
Y05521*
X03554Y05531*
X03574*
X03584Y05521*
Y05511*
X03544*
X03604Y05531D02*
Y05491D01*
Y05511*
X03614Y05521*
X03624Y05531*
X03634*
X03664Y05491D02*
X03684D01*
X03674*
Y05531*
X03664*
X03724D02*
X03744D01*
X03754Y05521*
Y05491*
X03724*
X03714Y05501*
X03724Y05511*
X03754*
X03774Y05491D02*
X03794D01*
X03784*
Y05551*
X03774*
X03414Y04341D02*
X03404Y04351D01*
X03384*
X03374Y04341*
Y04331*
X03384Y04321*
X03404*
X03414Y04311*
Y04301*
X03404Y04291*
X03384*
X03374Y04301*
X03444Y04291D02*
X03464D01*
X03474Y04301*
Y04321*
X03464Y04331*
X03444*
X03434Y04321*
Y04301*
X03444Y04291*
X03494D02*
X03514D01*
X03504*
Y04351*
X03494*
X03584D02*
Y04291D01*
X03554*
X03544Y04301*
Y04321*
X03554Y04331*
X03584*
X03634Y04291D02*
X03614D01*
X03604Y04301*
Y04321*
X03614Y04331*
X03634*
X03644Y04321*
Y04311*
X03604*
X03664Y04331D02*
Y04291D01*
Y04311*
X03674Y04321*
X03684Y04331*
X03694*
X03784Y04291D02*
Y04351D01*
X03814*
X03824Y04341*
Y04321*
X03814Y04311*
X03784*
X03804D02*
X03824Y04291D01*
X03874D02*
X03854D01*
X03844Y04301*
Y04321*
X03854Y04331*
X03874*
X03884Y04321*
Y04311*
X03844*
X03904Y04291D02*
X03934D01*
X03944Y04301*
X03934Y04311*
X03914*
X03904Y04321*
X03914Y04331*
X03944*
X03964Y04291D02*
X03984D01*
X03974*
Y04331*
X03964*
X04014Y04291D02*
X04044D01*
X04054Y04301*
X04044Y04311*
X04024*
X04014Y04321*
X04024Y04331*
X04054*
X04084Y04341D02*
Y04331D01*
X04074*
X04094*
X04084*
Y04301*
X04094Y04291*
X03414Y04461D02*
X03404Y04471D01*
X03384*
X03374Y04461*
Y04421*
X03384Y04411*
X03404*
X03414Y04421*
X03444Y04411D02*
X03464D01*
X03474Y04421*
Y04441*
X03464Y04451*
X03444*
X03434Y04441*
Y04421*
X03444Y04411*
X03494Y04391D02*
Y04451D01*
X03524*
X03534Y04441*
Y04421*
X03524Y04411*
X03494*
X03554Y04391D02*
Y04451D01*
X03584*
X03594Y04441*
Y04421*
X03584Y04411*
X03554*
X03644D02*
X03624D01*
X03614Y04421*
Y04441*
X03624Y04451*
X03644*
X03654Y04441*
Y04431*
X03614*
X03674Y04451D02*
Y04411D01*
Y04431*
X03684Y04441*
X03694Y04451*
X03704*
X03414Y04701D02*
X03404Y04711D01*
X03384*
X03374Y04701*
Y04661*
X03384Y04651*
X03404*
X03414Y04661*
X03444Y04651D02*
X03464D01*
X03474Y04661*
Y04681*
X03464Y04691*
X03444*
X03434Y04681*
Y04661*
X03444Y04651*
X03494Y04631D02*
Y04691D01*
X03524*
X03534Y04681*
Y04661*
X03524Y04651*
X03494*
X03554Y04631D02*
Y04691D01*
X03584*
X03594Y04681*
Y04661*
X03584Y04651*
X03554*
X03644D02*
X03624D01*
X03614Y04661*
Y04681*
X03624Y04691*
X03644*
X03654Y04681*
Y04671*
X03614*
X03674Y04691D02*
Y04651D01*
Y04671*
X03684Y04681*
X03694Y04691*
X03704*
X03414Y04941D02*
X03404Y04951D01*
X03384*
X03374Y04941*
Y04901*
X03384Y04891*
X03404*
X03414Y04901*
X03444Y04891D02*
X03464D01*
X03474Y04901*
Y04921*
X03464Y04931*
X03444*
X03434Y04921*
Y04901*
X03444Y04891*
X03494Y04871D02*
Y04931D01*
X03524*
X03534Y04921*
Y04901*
X03524Y04891*
X03494*
X03554Y04871D02*
Y04931D01*
X03584*
X03594Y04921*
Y04901*
X03584Y04891*
X03554*
X03644D02*
X03624D01*
X03614Y04901*
Y04921*
X03624Y04931*
X03644*
X03654Y04921*
Y04911*
X03614*
X03674Y04931D02*
Y04891D01*
Y04911*
X03684Y04921*
X03694Y04931*
X03704*
X03414Y05071D02*
X03374D01*
Y05041*
X03394*
X03374*
Y05011*
X03434D02*
Y05071D01*
X03464*
X03474Y05061*
Y05041*
X03464Y05031*
X03434*
X03454D02*
X03474Y05011D01*
X03494Y05041D02*
X03534D01*
X03584Y05011D02*
Y05071D01*
X03554Y05041*
X03594*
X03414Y05181D02*
X03404Y05191D01*
X03384*
X03374Y05181*
Y05141*
X03384Y05131*
X03404*
X03414Y05141*
X03444Y05131D02*
X03464D01*
X03474Y05141*
Y05161*
X03464Y05171*
X03444*
X03434Y05161*
Y05141*
X03444Y05131*
X03494Y05111D02*
Y05171D01*
X03524*
X03534Y05161*
Y05141*
X03524Y05131*
X03494*
X03554Y05111D02*
Y05171D01*
X03584*
X03594Y05161*
Y05141*
X03584Y05131*
X03554*
X03644D02*
X03624D01*
X03614Y05141*
Y05161*
X03624Y05171*
X03644*
X03654Y05161*
Y05151*
X03614*
X03674Y05171D02*
Y05131D01*
Y05151*
X03684Y05161*
X03694Y05171*
X03704*
X03414Y05301D02*
X03404Y05311D01*
X03384*
X03374Y05301*
Y05291*
X03384Y05281*
X03404*
X03414Y05271*
Y05261*
X03404Y05251*
X03384*
X03374Y05261*
X03444Y05251D02*
X03464D01*
X03474Y05261*
Y05281*
X03464Y05291*
X03444*
X03434Y05281*
Y05261*
X03444Y05251*
X03494D02*
X03514D01*
X03504*
Y05311*
X03494*
X03584D02*
Y05251D01*
X03554*
X03544Y05261*
Y05281*
X03554Y05291*
X03584*
X03634Y05251D02*
X03614D01*
X03604Y05261*
Y05281*
X03614Y05291*
X03634*
X03644Y05281*
Y05271*
X03604*
X03664Y05291D02*
Y05251D01*
Y05271*
X03674Y05281*
X03684Y05291*
X03694*
X03784Y05251D02*
Y05311D01*
X03814*
X03824Y05301*
Y05281*
X03814Y05271*
X03784*
X03804D02*
X03824Y05251D01*
X03874D02*
X03854D01*
X03844Y05261*
Y05281*
X03854Y05291*
X03874*
X03884Y05281*
Y05271*
X03844*
X03904Y05251D02*
X03934D01*
X03944Y05261*
X03934Y05271*
X03914*
X03904Y05281*
X03914Y05291*
X03944*
X03964Y05251D02*
X03984D01*
X03974*
Y05291*
X03964*
X04014Y05251D02*
X04044D01*
X04054Y05261*
X04044Y05271*
X04024*
X04014Y05281*
X04024Y05291*
X04054*
X04084Y05301D02*
Y05291D01*
X04074*
X04094*
X04084*
Y05261*
X04094Y05251*
X04234Y05551D02*
X04274D01*
X04254*
Y05491*
X04294Y05551D02*
Y05491D01*
Y05521*
X04304Y05531*
X04324*
X04334Y05521*
Y05491*
X04354D02*
X04374D01*
X04364*
Y05531*
X04354*
X04444D02*
X04414D01*
X04404Y05521*
Y05501*
X04414Y05491*
X04444*
X04464D02*
Y05551D01*
Y05511D02*
X04494Y05531D01*
X04464Y05511D02*
X04494Y05491D01*
X04524D02*
Y05531D01*
X04554*
X04564Y05521*
Y05491*
X04614D02*
X04594D01*
X04584Y05501*
Y05521*
X04594Y05531*
X04614*
X04624Y05521*
Y05511*
X04584*
X04644Y05491D02*
X04674D01*
X04684Y05501*
X04674Y05511*
X04654*
X04644Y05521*
X04654Y05531*
X04684*
X04704Y05491D02*
X04734D01*
X04744Y05501*
X04734Y05511*
X04714*
X04704Y05521*
X04714Y05531*
X04744*
X04234Y04341D02*
X04244Y04351D01*
X04264*
X04274Y04341*
Y04301*
X04264Y04291*
X04244*
X04234Y04301*
Y04341*
X04294Y04291D02*
Y04301D01*
X04304*
Y04291*
X04294*
X04344Y04351D02*
X04384D01*
Y04341*
X04344Y04301*
Y04291*
X04404Y04301D02*
X04414Y04291D01*
X04434*
X04444Y04301*
Y04341*
X04434Y04351*
X04414*
X04404Y04341*
Y04331*
X04414Y04321*
X04444*
X04464Y04291D02*
Y04331D01*
X04474*
X04484Y04321*
Y04291*
Y04321*
X04494Y04331*
X04504Y04321*
Y04291*
X04524D02*
X04544D01*
X04534*
Y04331*
X04524*
X04574Y04291D02*
X04594D01*
X04584*
Y04351*
X04574*
X04234Y04411D02*
X04254D01*
X04244*
Y04471*
X04234Y04461*
X04284Y04411D02*
Y04421D01*
X04294*
Y04411*
X04284*
X04334Y04461D02*
X04344Y04471D01*
X04364*
X04374Y04461*
Y04451*
X04364Y04441*
X04354*
X04364*
X04374Y04431*
Y04421*
X04364Y04411*
X04344*
X04334Y04421*
X04394Y04461D02*
X04404Y04471D01*
X04424*
X04434Y04461*
Y04451*
X04424Y04441*
X04434Y04431*
Y04421*
X04424Y04411*
X04404*
X04394Y04421*
Y04431*
X04404Y04441*
X04394Y04451*
Y04461*
X04404Y04441D02*
X04424D01*
X04454Y04411D02*
Y04451D01*
X04464*
X04474Y04441*
Y04411*
Y04441*
X04484Y04451*
X04494Y04441*
Y04411*
X04514D02*
X04534D01*
X04524*
Y04451*
X04514*
X04564Y04411D02*
X04584D01*
X04574*
Y04471*
X04564*
X04234Y04581D02*
X04244Y04591D01*
X04264*
X04274Y04581*
Y04571*
X04264Y04561*
X04254*
X04264*
X04274Y04551*
Y04541*
X04264Y04531*
X04244*
X04234Y04541*
X04294Y04531D02*
Y04541D01*
X04304*
Y04531*
X04294*
X04344Y04541D02*
X04354Y04531D01*
X04374*
X04384Y04541*
Y04581*
X04374Y04591*
X04354*
X04344Y04581*
Y04571*
X04354Y04561*
X04384*
X04434Y04531D02*
Y04591D01*
X04404Y04561*
X04444*
X04464Y04531D02*
Y04571D01*
X04474*
X04484Y04561*
Y04531*
Y04561*
X04494Y04571*
X04504Y04561*
Y04531*
X04524D02*
X04544D01*
X04534*
Y04571*
X04524*
X04574Y04531D02*
X04594D01*
X04584*
Y04591*
X04574*
X04234Y04701D02*
X04244Y04711D01*
X04264*
X04274Y04701*
Y04661*
X04264Y04651*
X04244*
X04234Y04661*
Y04701*
X04294Y04651D02*
Y04661D01*
X04304*
Y04651*
X04294*
X04384Y04711D02*
X04364Y04701D01*
X04344Y04681*
Y04661*
X04354Y04651*
X04374*
X04384Y04661*
Y04671*
X04374Y04681*
X04344*
X04404Y04661D02*
X04414Y04651D01*
X04434*
X04444Y04661*
Y04701*
X04434Y04711*
X04414*
X04404Y04701*
Y04691*
X04414Y04681*
X04444*
X04464Y04651D02*
Y04691D01*
X04474*
X04484Y04681*
Y04651*
Y04681*
X04494Y04691*
X04504Y04681*
Y04651*
X04524D02*
X04544D01*
X04534*
Y04691*
X04524*
X04574Y04651D02*
X04594D01*
X04584*
Y04711*
X04574*
X04264Y04771D02*
Y04831D01*
X04234Y04801*
X04274*
X04294Y04771D02*
X04314D01*
X04304*
Y04831*
X04294Y04821*
X04344Y04771D02*
Y04781D01*
X04354*
Y04771*
X04344*
X04394Y04781D02*
X04404Y04771D01*
X04424*
X04434Y04781*
Y04821*
X04424Y04831*
X04404*
X04394Y04821*
Y04811*
X04404Y04801*
X04434*
X04454Y04821D02*
X04464Y04831D01*
X04484*
X04494Y04821*
Y04811*
X04484Y04801*
X04474*
X04484*
X04494Y04791*
Y04781*
X04484Y04771*
X04464*
X04454Y04781*
X04514Y04771D02*
Y04811D01*
X04524*
X04534Y04801*
Y04771*
Y04801*
X04544Y04811*
X04554Y04801*
Y04771*
X04574D02*
X04594D01*
X04584*
Y04811*
X04574*
X04624Y04771D02*
X04644D01*
X04634*
Y04831*
X04624*
X04234Y04941D02*
X04244Y04951D01*
X04264*
X04274Y04941*
Y04901*
X04264Y04891*
X04244*
X04234Y04901*
Y04941*
X04294Y04891D02*
Y04901D01*
X04304*
Y04891*
X04294*
X04384Y04951D02*
X04364Y04941D01*
X04344Y04921*
Y04901*
X04354Y04891*
X04374*
X04384Y04901*
Y04911*
X04374Y04921*
X04344*
X04404Y04901D02*
X04414Y04891D01*
X04434*
X04444Y04901*
Y04941*
X04434Y04951*
X04414*
X04404Y04941*
Y04931*
X04414Y04921*
X04444*
X04464Y04891D02*
Y04931D01*
X04474*
X04484Y04921*
Y04891*
Y04921*
X04494Y04931*
X04504Y04921*
Y04891*
X04524D02*
X04544D01*
X04534*
Y04931*
X04524*
X04574Y04891D02*
X04594D01*
X04584*
Y04951*
X04574*
X04234Y05061D02*
X04244Y05071D01*
X04264*
X04274Y05061*
Y05051*
X04264Y05041*
X04254*
X04264*
X04274Y05031*
Y05021*
X04264Y05011*
X04244*
X04234Y05021*
X04294Y05011D02*
Y05021D01*
X04304*
Y05011*
X04294*
X04344Y05021D02*
X04354Y05011D01*
X04374*
X04384Y05021*
Y05061*
X04374Y05071*
X04354*
X04344Y05061*
Y05051*
X04354Y05041*
X04384*
X04434Y05011D02*
Y05071D01*
X04404Y05041*
X04444*
X04464Y05011D02*
Y05051D01*
X04474*
X04484Y05041*
Y05011*
Y05041*
X04494Y05051*
X04504Y05041*
Y05011*
X04524D02*
X04544D01*
X04534*
Y05051*
X04524*
X04574Y05011D02*
X04594D01*
X04584*
Y05071*
X04574*
X04234Y05131D02*
X04254D01*
X04244*
Y05191*
X04234Y05181*
X04284Y05131D02*
Y05141D01*
X04294*
Y05131*
X04284*
X04334Y05181D02*
X04344Y05191D01*
X04364*
X04374Y05181*
Y05171*
X04364Y05161*
X04354*
X04364*
X04374Y05151*
Y05141*
X04364Y05131*
X04344*
X04334Y05141*
X04394Y05181D02*
X04404Y05191D01*
X04424*
X04434Y05181*
Y05171*
X04424Y05161*
X04434Y05151*
Y05141*
X04424Y05131*
X04404*
X04394Y05141*
Y05151*
X04404Y05161*
X04394Y05171*
Y05181*
X04404Y05161D02*
X04424D01*
X04454Y05131D02*
Y05171D01*
X04464*
X04474Y05161*
Y05131*
Y05161*
X04484Y05171*
X04494Y05161*
Y05131*
X04514D02*
X04534D01*
X04524*
Y05171*
X04514*
X04564Y05131D02*
X04584D01*
X04574*
Y05191*
X04564*
X04234Y05301D02*
X04244Y05311D01*
X04264*
X04274Y05301*
Y05261*
X04264Y05251*
X04244*
X04234Y05261*
Y05301*
X04294Y05251D02*
Y05261D01*
X04304*
Y05251*
X04294*
X04344Y05301D02*
X04354Y05311D01*
X04374*
X04384Y05301*
Y05291*
X04374Y05281*
X04384Y05271*
Y05261*
X04374Y05251*
X04354*
X04344Y05261*
Y05271*
X04354Y05281*
X04344Y05291*
Y05301*
X04354Y05281D02*
X04374D01*
X04404Y05301D02*
X04414Y05311D01*
X04434*
X04444Y05301*
Y05261*
X04434Y05251*
X04414*
X04404Y05261*
Y05301*
X04464Y05251D02*
Y05291D01*
X04474*
X04484Y05281*
Y05251*
Y05281*
X04494Y05291*
X04504Y05281*
Y05251*
X04524D02*
X04544D01*
X04534*
Y05291*
X04524*
X04574Y05251D02*
X04594D01*
X04584*
Y05311*
X04574*
X04924Y05541D02*
X04914Y05551D01*
X04894*
X04884Y05541*
Y05501*
X04894Y05491*
X04914*
X04924Y05501*
X04954Y05491D02*
X04974D01*
X04984Y05501*
Y05521*
X04974Y05531*
X04954*
X04944Y05521*
Y05501*
X04954Y05491*
X05004D02*
Y05531D01*
X05034*
X05044Y05521*
Y05491*
X05064D02*
X05094D01*
X05104Y05501*
X05094Y05511*
X05074*
X05064Y05521*
X05074Y05531*
X05104*
X05134Y05541D02*
Y05531D01*
X05124*
X05144*
X05134*
Y05501*
X05144Y05491*
X05184Y05531D02*
X05204D01*
X05214Y05521*
Y05491*
X05184*
X05174Y05501*
X05184Y05511*
X05214*
X05234Y05491D02*
Y05531D01*
X05264*
X05274Y05521*
Y05491*
X05304Y05541D02*
Y05531D01*
X05294*
X05314*
X05304*
Y05501*
X05314Y05491*
X04884Y04341D02*
X04894Y04351D01*
X04914*
X04924Y04341*
Y04331*
X04914Y04321*
X04904*
X04914*
X04924Y04311*
Y04301*
X04914Y04291*
X04894*
X04884Y04301*
X04944Y04291D02*
Y04301D01*
X04954*
Y04291*
X04944*
X04994Y04341D02*
X05004Y04351D01*
X05024*
X05034Y04341*
Y04331*
X05024Y04321*
X05034Y04311*
Y04301*
X05024Y04291*
X05004*
X04994Y04301*
Y04311*
X05004Y04321*
X04994Y04331*
Y04341*
X05004Y04321D02*
X05024D01*
X04914Y04531D02*
Y04591D01*
X04884Y04561*
X04924*
X04944Y04531D02*
Y04541D01*
X04954*
Y04531*
X04944*
X04994Y04581D02*
X05004Y04591D01*
X05024*
X05034Y04581*
Y04541*
X05024Y04531*
X05004*
X04994Y04541*
Y04581*
X05094Y04591D02*
X05054D01*
Y04561*
X05074Y04571*
X05084*
X05094Y04561*
Y04541*
X05084Y04531*
X05064*
X05054Y04541*
X04914Y04771D02*
Y04831D01*
X04884Y04801*
X04924*
X04944Y04771D02*
Y04781D01*
X04954*
Y04771*
X04944*
X05034D02*
X04994D01*
X05034Y04811*
Y04821*
X05024Y04831*
X05004*
X04994Y04821*
X04914Y05011D02*
Y05071D01*
X04884Y05041*
X04924*
X04944Y05011D02*
Y05021D01*
X04954*
Y05011*
X04944*
X04994Y05061D02*
X05004Y05071D01*
X05024*
X05034Y05061*
Y05021*
X05024Y05011*
X05004*
X04994Y05021*
Y05061*
X05094Y05071D02*
X05054D01*
Y05041*
X05074Y05051*
X05084*
X05094Y05041*
Y05021*
X05084Y05011*
X05064*
X05054Y05021*
X04884Y05301D02*
X04894Y05311D01*
X04914*
X04924Y05301*
Y05291*
X04914Y05281*
X04904*
X04914*
X04924Y05271*
Y05261*
X04914Y05251*
X04894*
X04884Y05261*
X04944Y05251D02*
Y05261D01*
X04954*
Y05251*
X04944*
X04994Y05301D02*
X05004Y05311D01*
X05024*
X05034Y05301*
Y05291*
X05024Y05281*
X05034Y05271*
Y05261*
X05024Y05251*
X05004*
X04994Y05261*
Y05271*
X05004Y05281*
X04994Y05291*
Y05301*
X05004Y05281D02*
X05024D01*
X05454Y05551D02*
Y05491D01*
X05484*
X05494Y05501*
Y05511*
X05484Y05521*
X05454*
X05484*
X05494Y05531*
Y05541*
X05484Y05551*
X05454*
X05524Y05491D02*
X05544D01*
X05554Y05501*
Y05521*
X05544Y05531*
X05524*
X05514Y05521*
Y05501*
X05524Y05491*
X05584Y05531D02*
X05604D01*
X05614Y05521*
Y05491*
X05584*
X05574Y05501*
X05584Y05511*
X05614*
X05633Y05531D02*
Y05491D01*
Y05511*
X05643Y05521*
X05653Y05531*
X05663*
X05733Y05551D02*
Y05491D01*
X05703*
X05693Y05501*
Y05521*
X05703Y05531*
X05733*
X05813Y05551D02*
Y05491D01*
X05853*
X05883Y05531D02*
X05903D01*
X05913Y05521*
Y05491*
X05883*
X05873Y05501*
X05883Y05511*
X05913*
X05933Y05531D02*
Y05501D01*
X05943Y05491*
X05973*
Y05481*
X05963Y05471*
X05953*
X05973Y05491D02*
Y05531D01*
X06023Y05491D02*
X06003D01*
X05993Y05501*
Y05521*
X06003Y05531*
X06023*
X06033Y05521*
Y05511*
X05993*
X06053Y05531D02*
Y05491D01*
Y05511*
X06063Y05521*
X06073Y05531*
X06083*
X06213Y05541D02*
X06203Y05551D01*
X06183*
X06173Y05541*
Y05531*
X06183Y05521*
X06203*
X06213Y05511*
Y05501*
X06203Y05491*
X06183*
X06173Y05501*
X06243Y05541D02*
Y05531D01*
X06233*
X06253*
X06243*
Y05501*
X06253Y05491*
X06293Y05531D02*
X06313D01*
X06323Y05521*
Y05491*
X06293*
X06283Y05501*
X06293Y05511*
X06323*
X06383Y05531D02*
X06353D01*
X06343Y05521*
Y05501*
X06353Y05491*
X06383*
X06403D02*
Y05551D01*
Y05511D02*
X06433Y05531D01*
X06403Y05511D02*
X06433Y05491D01*
G54D63*
X01964Y05461D02*
X06503D01*
X01964Y05581D02*
X06503D01*
X01964Y04141D02*
Y05581D01*
Y04141D02*
X02374D01*
X01964Y04261D02*
X02374D01*
X01964Y04381D02*
X02374D01*
X01964Y04501D02*
X02374D01*
X01964Y04621D02*
X02374D01*
X01964Y04741D02*
X02374D01*
X01964Y04861D02*
X02374D01*
X01964Y04981D02*
X02374D01*
X01964Y05101D02*
X02374D01*
X01964Y05221D02*
X02374D01*
X01964Y05341D02*
X02374D01*
Y04141D02*
Y05581D01*
Y04141D02*
X03304D01*
X02374Y04261D02*
X03304D01*
X02374Y04381D02*
X03304D01*
X02374Y04501D02*
X03304D01*
X02374Y04621D02*
X03304D01*
X02374Y04741D02*
X03304D01*
X02374Y04861D02*
X03304D01*
X02374Y04981D02*
X03304D01*
X02374Y05101D02*
X03304D01*
X02374Y05221D02*
X03304D01*
X02374Y05341D02*
X03304D01*
Y04141D02*
Y05581D01*
Y04141D02*
X04164D01*
X03304Y04261D02*
X04164D01*
X03304Y04381D02*
X04164D01*
X03304Y04501D02*
X04164D01*
X03304Y04621D02*
X04164D01*
X03304Y04741D02*
X04164D01*
X03304Y04861D02*
X04164D01*
X03304Y04981D02*
X04164D01*
X03304Y05101D02*
X04164D01*
X03304Y05221D02*
X04164D01*
X03304Y05341D02*
X04164D01*
Y04141D02*
Y05581D01*
Y04141D02*
X04814D01*
X04164Y04261D02*
X04814D01*
X04164Y04381D02*
X04814D01*
X04164Y04501D02*
X04814D01*
X04164Y04621D02*
X04814D01*
X04164Y04741D02*
X04814D01*
X04164Y04861D02*
X04814D01*
X04164Y04981D02*
X04814D01*
X04164Y05101D02*
X04814D01*
X04164Y05221D02*
X04814D01*
X04164Y05341D02*
X04814D01*
Y04141D02*
Y05581D01*
Y04141D02*
X05384D01*
X04814Y04261D02*
X05384D01*
X04814Y04381D02*
X05384D01*
X04814Y04501D02*
X05384D01*
X04814Y04621D02*
X05384D01*
X04814Y04741D02*
X05384D01*
X04814Y04861D02*
X05384D01*
X04814Y04981D02*
X05384D01*
X04814Y05101D02*
X05384D01*
X04814Y05221D02*
X05384D01*
X04814Y05341D02*
X05384D01*
Y04141D02*
Y05581D01*
Y04141D02*
X06503D01*
X05384Y04261D02*
X06503D01*
X05384Y04381D02*
X06503D01*
X05384Y04501D02*
X06503D01*
X05384Y04621D02*
X06503D01*
X05384Y04741D02*
X06503D01*
X05384Y04861D02*
X06503D01*
X05384Y04981D02*
X06503D01*
X05384Y05101D02*
X06503D01*
X05384Y05221D02*
X06503D01*
X05384Y05341D02*
X06503D01*
Y04141D02*
Y05581D01*
X01964Y0005D02*
X06503D01*
Y04111*
X01964D02*
X06503D01*
X01964Y0005D02*
Y04111D01*
G54D64*
X06443Y04141D02*
X06503Y04201D01*
X06383Y04141D02*
X06503Y04261D01*
X06323Y04141D02*
X06443Y04261D01*
X06263Y04141D02*
X06383Y04261D01*
X06203Y04141D02*
X06323Y04261D01*
X06143Y04141D02*
X06263Y04261D01*
X06083Y04141D02*
X06203Y04261D01*
X06023Y04141D02*
X06143Y04261D01*
X05963Y04141D02*
X06083Y04261D01*
X05903Y04141D02*
X06023Y04261D01*
X05843Y04141D02*
X05963Y04261D01*
X05783Y04141D02*
X05903Y04261D01*
X05723Y04141D02*
X05843Y04261D01*
X05663Y04141D02*
X05783Y04261D01*
X05603Y04141D02*
X05723Y04261D01*
X05543Y04141D02*
X05663Y04261D01*
X05483Y04141D02*
X05603Y04261D01*
X05423Y04141D02*
X05543Y04261D01*
X05384Y04162D02*
X05483Y04261D01*
X05384Y04222D02*
X05423Y04261D01*
X06443D02*
X06503Y04321D01*
X06383Y04261D02*
X06503Y04381D01*
X06323Y04261D02*
X06443Y04381D01*
X06263Y04261D02*
X06383Y04381D01*
X06203Y04261D02*
X06323Y04381D01*
X06143Y04261D02*
X06263Y04381D01*
X06083Y04261D02*
X06203Y04381D01*
X06023Y04261D02*
X06143Y04381D01*
X05963Y04261D02*
X06083Y04381D01*
X05903Y04261D02*
X06023Y04381D01*
X05843Y04261D02*
X05963Y04381D01*
X05783Y04261D02*
X05903Y04381D01*
X05723Y04261D02*
X05843Y04381D01*
X05663Y04261D02*
X05783Y04381D01*
X05603Y04261D02*
X05723Y04381D01*
X05543Y04261D02*
X05663Y04381D01*
X05483Y04261D02*
X05603Y04381D01*
X05423Y04261D02*
X05543Y04381D01*
X05384Y04282D02*
X05483Y04381D01*
X05384Y04342D02*
X05423Y04381D01*
X06443D02*
X06503Y04441D01*
X06383Y04381D02*
X06503Y04501D01*
X06323Y04381D02*
X06443Y04501D01*
X06263Y04381D02*
X06383Y04501D01*
X06203Y04381D02*
X06323Y04501D01*
X06143Y04381D02*
X06263Y04501D01*
X06083Y04381D02*
X06203Y04501D01*
X06023Y04381D02*
X06143Y04501D01*
X05963Y04381D02*
X06083Y04501D01*
X05903Y04381D02*
X06023Y04501D01*
X05843Y04381D02*
X05963Y04501D01*
X05783Y04381D02*
X05903Y04501D01*
X05723Y04381D02*
X05843Y04501D01*
X05663Y04381D02*
X05783Y04501D01*
X05603Y04381D02*
X05723Y04501D01*
X05543Y04381D02*
X05663Y04501D01*
X05483Y04381D02*
X05603Y04501D01*
X05423Y04381D02*
X05543Y04501D01*
X05384Y04402D02*
X05483Y04501D01*
X05384Y04462D02*
X05423Y04501D01*
X06443D02*
X06503Y04561D01*
X06383Y04501D02*
X06503Y04621D01*
X06323Y04501D02*
X06443Y04621D01*
X06263Y04501D02*
X06383Y04621D01*
X06203Y04501D02*
X06323Y04621D01*
X06143Y04501D02*
X06263Y04621D01*
X06083Y04501D02*
X06203Y04621D01*
X06023Y04501D02*
X06143Y04621D01*
X05963Y04501D02*
X06083Y04621D01*
X05903Y04501D02*
X06023Y04621D01*
X05843Y04501D02*
X05963Y04621D01*
X05783Y04501D02*
X05903Y04621D01*
X05723Y04501D02*
X05843Y04621D01*
X05663Y04501D02*
X05783Y04621D01*
X05603Y04501D02*
X05723Y04621D01*
X05543Y04501D02*
X05663Y04621D01*
X05483Y04501D02*
X05603Y04621D01*
X05423Y04501D02*
X05543Y04621D01*
X05384Y04522D02*
X05483Y04621D01*
X05384Y04582D02*
X05423Y04621D01*
X06443D02*
X06503Y04681D01*
X06383Y04621D02*
X06503Y04741D01*
X06323Y04621D02*
X06443Y04741D01*
X06263Y04621D02*
X06383Y04741D01*
X06203Y04621D02*
X06323Y04741D01*
X06143Y04621D02*
X06263Y04741D01*
X06083Y04621D02*
X06203Y04741D01*
X06023Y04621D02*
X06143Y04741D01*
X05963Y04621D02*
X06083Y04741D01*
X05903Y04621D02*
X06023Y04741D01*
X05843Y04621D02*
X05963Y04741D01*
X05783Y04621D02*
X05903Y04741D01*
X05723Y04621D02*
X05843Y04741D01*
X05663Y04621D02*
X05783Y04741D01*
X05603Y04621D02*
X05723Y04741D01*
X05543Y04621D02*
X05663Y04741D01*
X05483Y04621D02*
X05603Y04741D01*
X05423Y04621D02*
X05543Y04741D01*
X05384Y04642D02*
X05483Y04741D01*
X05384Y04702D02*
X05423Y04741D01*
X06443D02*
X06503Y04801D01*
X06383Y04741D02*
X06503Y04861D01*
X06323Y04741D02*
X06443Y04861D01*
X06263Y04741D02*
X06383Y04861D01*
X06203Y04741D02*
X06323Y04861D01*
X06143Y04741D02*
X06263Y04861D01*
X06083Y04741D02*
X06203Y04861D01*
X06023Y04741D02*
X06143Y04861D01*
X05963Y04741D02*
X06083Y04861D01*
X05903Y04741D02*
X06023Y04861D01*
X05843Y04741D02*
X05963Y04861D01*
X05783Y04741D02*
X05903Y04861D01*
X05723Y04741D02*
X05843Y04861D01*
X05663Y04741D02*
X05783Y04861D01*
X05603Y04741D02*
X05723Y04861D01*
X05543Y04741D02*
X05663Y04861D01*
X05483Y04741D02*
X05603Y04861D01*
X05423Y04741D02*
X05543Y04861D01*
X05384Y04762D02*
X05483Y04861D01*
X05384Y04822D02*
X05423Y04861D01*
X06443D02*
X06503Y04921D01*
X06383Y04861D02*
X06503Y04981D01*
X06323Y04861D02*
X06443Y04981D01*
X06263Y04861D02*
X06383Y04981D01*
X06203Y04861D02*
X06323Y04981D01*
X06143Y04861D02*
X06263Y04981D01*
X06083Y04861D02*
X06203Y04981D01*
X06023Y04861D02*
X06143Y04981D01*
X05963Y04861D02*
X06083Y04981D01*
X05903Y04861D02*
X06023Y04981D01*
X05843Y04861D02*
X05963Y04981D01*
X05783Y04861D02*
X05903Y04981D01*
X05723Y04861D02*
X05843Y04981D01*
X05663Y04861D02*
X05783Y04981D01*
X05603Y04861D02*
X05723Y04981D01*
X05543Y04861D02*
X05663Y04981D01*
X05483Y04861D02*
X05603Y04981D01*
X05423Y04861D02*
X05543Y04981D01*
X05384Y04882D02*
X05483Y04981D01*
X05384Y04942D02*
X05423Y04981D01*
X06443D02*
X06503Y05041D01*
X06383Y04981D02*
X06503Y05101D01*
X06323Y04981D02*
X06443Y05101D01*
X06263Y04981D02*
X06383Y05101D01*
X06203Y04981D02*
X06323Y05101D01*
X06143Y04981D02*
X06263Y05101D01*
X06083Y04981D02*
X06203Y05101D01*
X06023Y04981D02*
X06143Y05101D01*
X05963Y04981D02*
X06083Y05101D01*
X05903Y04981D02*
X06023Y05101D01*
X05843Y04981D02*
X05963Y05101D01*
X05783Y04981D02*
X05903Y05101D01*
X05723Y04981D02*
X05843Y05101D01*
X05663Y04981D02*
X05783Y05101D01*
X05603Y04981D02*
X05723Y05101D01*
X05543Y04981D02*
X05663Y05101D01*
X05483Y04981D02*
X05603Y05101D01*
X05423Y04981D02*
X05543Y05101D01*
X05384Y05002D02*
X05483Y05101D01*
X05384Y05062D02*
X05423Y05101D01*
X06443D02*
X06503Y05161D01*
X06383Y05101D02*
X06503Y05221D01*
X06323Y05101D02*
X06443Y05221D01*
X06263Y05101D02*
X06383Y05221D01*
X06203Y05101D02*
X06323Y05221D01*
X06143Y05101D02*
X06263Y05221D01*
X06083Y05101D02*
X06203Y05221D01*
X06023Y05101D02*
X06143Y05221D01*
X05963Y05101D02*
X06083Y05221D01*
X05903Y05101D02*
X06023Y05221D01*
X05843Y05101D02*
X05963Y05221D01*
X05783Y05101D02*
X05903Y05221D01*
X05723Y05101D02*
X05843Y05221D01*
X05663Y05101D02*
X05783Y05221D01*
X05603Y05101D02*
X05723Y05221D01*
X05543Y05101D02*
X05663Y05221D01*
X05483Y05101D02*
X05603Y05221D01*
X05423Y05101D02*
X05543Y05221D01*
X05384Y05122D02*
X05483Y05221D01*
X05384Y05182D02*
X05423Y05221D01*
X06443D02*
X06503Y05281D01*
X06383Y05221D02*
X06503Y05341D01*
X06323Y05221D02*
X06443Y05341D01*
X06263Y05221D02*
X06383Y05341D01*
X06203Y05221D02*
X06323Y05341D01*
X06143Y05221D02*
X06263Y05341D01*
X06083Y05221D02*
X06203Y05341D01*
X06023Y05221D02*
X06143Y05341D01*
X05963Y05221D02*
X06083Y05341D01*
X05903Y05221D02*
X06023Y05341D01*
X05843Y05221D02*
X05963Y05341D01*
X05783Y05221D02*
X05903Y05341D01*
X05723Y05221D02*
X05843Y05341D01*
X05663Y05221D02*
X05783Y05341D01*
X05603Y05221D02*
X05723Y05341D01*
X05543Y05221D02*
X05663Y05341D01*
X05483Y05221D02*
X05603Y05341D01*
X05423Y05221D02*
X05543Y05341D01*
X05384Y05242D02*
X05483Y05341D01*
X05384Y05302D02*
X05423Y05341D01*
X06443D02*
X06503Y05401D01*
X06383Y05341D02*
X06503Y05461D01*
X06323Y05341D02*
X06443Y05461D01*
X06263Y05341D02*
X06383Y05461D01*
X06203Y05341D02*
X06323Y05461D01*
X06143Y05341D02*
X06263Y05461D01*
X06083Y05341D02*
X06203Y05461D01*
X06023Y05341D02*
X06143Y05461D01*
X05963Y05341D02*
X06083Y05461D01*
X05903Y05341D02*
X06023Y05461D01*
X05843Y05341D02*
X05963Y05461D01*
X05783Y05341D02*
X05903Y05461D01*
X05723Y05341D02*
X05843Y05461D01*
X05663Y05341D02*
X05783Y05461D01*
X05603Y05341D02*
X05723Y05461D01*
X05543Y05341D02*
X05663Y05461D01*
X05483Y05341D02*
X05603Y05461D01*
X05423Y05341D02*
X05543Y05461D01*
X05384Y05362D02*
X05483Y05461D01*
X05384Y05422D02*
X05423Y05461D01*
X06443Y0005D02*
X06503Y0011D01*
X06383Y0005D02*
X06503Y0017D01*
X06323Y0005D02*
X06503Y0023D01*
X06263Y0005D02*
X06503Y0029D01*
X06203Y0005D02*
X06503Y0035D01*
X06143Y0005D02*
X06503Y0041D01*
X06083Y0005D02*
X06503Y0047D01*
X06023Y0005D02*
X06503Y0053D01*
X05963Y0005D02*
X06503Y0059D01*
X05903Y0005D02*
X06503Y0065D01*
X05843Y0005D02*
X06503Y0071D01*
X05783Y0005D02*
X06503Y0077D01*
X05723Y0005D02*
X06503Y0083D01*
X05663Y0005D02*
X06503Y0089D01*
X05603Y0005D02*
X06503Y0095D01*
X05543Y0005D02*
X06503Y0101D01*
X05483Y0005D02*
X06503Y0107D01*
X05423Y0005D02*
X06503Y0113D01*
X05363Y0005D02*
X06503Y0119D01*
X05303Y0005D02*
X06503Y0125D01*
X05243Y0005D02*
X06503Y0131D01*
X05183Y0005D02*
X06503Y0137D01*
X05123Y0005D02*
X06503Y0143D01*
X05063Y0005D02*
X06503Y0149D01*
X05003Y0005D02*
X06503Y0155D01*
X04943Y0005D02*
X06503Y0161D01*
X04883Y0005D02*
X06503Y0167D01*
X04823Y0005D02*
X06503Y0173D01*
X04763Y0005D02*
X06503Y0179D01*
X04703Y0005D02*
X06503Y0185D01*
X04643Y0005D02*
X06503Y0191D01*
X04583Y0005D02*
X06503Y0197D01*
X04523Y0005D02*
X06503Y0203D01*
X04463Y0005D02*
X06503Y0209D01*
X04403Y0005D02*
X06503Y0215D01*
X04343Y0005D02*
X06503Y0221D01*
X04283Y0005D02*
X06503Y0227D01*
X04223Y0005D02*
X06503Y0233D01*
X04163Y0005D02*
X06503Y0239D01*
X04103Y0005D02*
X06503Y0245D01*
X04043Y0005D02*
X06503Y0251D01*
X03983Y0005D02*
X06503Y0257D01*
X03923Y0005D02*
X06503Y0263D01*
X03863Y0005D02*
X06503Y0269D01*
X03803Y0005D02*
X06503Y0275D01*
X03743Y0005D02*
X06503Y0281D01*
X03683Y0005D02*
X06503Y0287D01*
X03623Y0005D02*
X06503Y0293D01*
X03563Y0005D02*
X06503Y0299D01*
X03503Y0005D02*
X06503Y0305D01*
X03443Y0005D02*
X06503Y0311D01*
X03383Y0005D02*
X06503Y0317D01*
X03323Y0005D02*
X06503Y0323D01*
X03263Y0005D02*
X06503Y0329D01*
X03203Y0005D02*
X06503Y0335D01*
X03143Y0005D02*
X06503Y0341D01*
X03083Y0005D02*
X06503Y0347D01*
X03023Y0005D02*
X06503Y0353D01*
X02963Y0005D02*
X06503Y0359D01*
X02903Y0005D02*
X06503Y0365D01*
X02843Y0005D02*
X06503Y0371D01*
X02783Y0005D02*
X06503Y0377D01*
X02723Y0005D02*
X06503Y0383D01*
X02663Y0005D02*
X06503Y0389D01*
X02603Y0005D02*
X06503Y0395D01*
X02543Y0005D02*
X06503Y0401D01*
X02483Y0005D02*
X06503Y0407D01*
X02423Y0005D02*
X06485Y04112D01*
X02363Y0005D02*
X06425Y04112D01*
X02303Y0005D02*
X06365Y04112D01*
X02243Y0005D02*
X06305Y04112D01*
X02183Y0005D02*
X06245Y04112D01*
X02123Y0005D02*
X06185Y04112D01*
X02063Y0005D02*
X06125Y04112D01*
X02003Y0005D02*
X06065Y04112D01*
X01964Y00072D02*
X06005Y04112D01*
X01964Y00132D02*
X05945Y04112D01*
X01964Y00192D02*
X05885Y04112D01*
X01964Y00252D02*
X05825Y04112D01*
X01964Y00312D02*
X05765Y04112D01*
X01964Y00372D02*
X05705Y04112D01*
X01964Y00432D02*
X05645Y04112D01*
X01964Y00492D02*
X05585Y04112D01*
X01964Y00552D02*
X05525Y04112D01*
X01964Y00612D02*
X05465Y04112D01*
X01964Y00672D02*
X05405Y04112D01*
X01964Y00732D02*
X05345Y04112D01*
X01964Y00792D02*
X05285Y04112D01*
X01964Y00852D02*
X05225Y04112D01*
X01964Y00912D02*
X05165Y04112D01*
X01964Y00972D02*
X05105Y04112D01*
X01964Y01032D02*
X05045Y04112D01*
X01964Y01092D02*
X04985Y04112D01*
X01964Y01152D02*
X04925Y04112D01*
X01964Y01212D02*
X04865Y04112D01*
X01964Y01272D02*
X04805Y04112D01*
X01964Y01332D02*
X04745Y04112D01*
X01964Y01392D02*
X04685Y04112D01*
X01964Y01452D02*
X04625Y04112D01*
X01964Y01512D02*
X04565Y04112D01*
X01964Y01572D02*
X04505Y04112D01*
X01964Y01632D02*
X04445Y04112D01*
X01964Y01692D02*
X04385Y04112D01*
X01964Y01752D02*
X04325Y04112D01*
X01964Y01812D02*
X04265Y04112D01*
X01964Y01872D02*
X04205Y04112D01*
X01964Y01932D02*
X04145Y04112D01*
X01964Y01992D02*
X04085Y04112D01*
X01964Y02052D02*
X04025Y04112D01*
X01964Y02112D02*
X03965Y04112D01*
X01964Y02172D02*
X03905Y04112D01*
X01964Y02232D02*
X03845Y04112D01*
X01964Y02292D02*
X03785Y04112D01*
X01964Y02352D02*
X03725Y04112D01*
X01964Y02412D02*
X03665Y04112D01*
X01964Y02472D02*
X03605Y04112D01*
X01964Y02532D02*
X03545Y04112D01*
X01964Y02592D02*
X03485Y04112D01*
X01964Y02652D02*
X03425Y04112D01*
X01964Y02712D02*
X03365Y04112D01*
X01964Y02772D02*
X03305Y04112D01*
X01964Y02832D02*
X03245Y04112D01*
X01964Y02892D02*
X03185Y04112D01*
X01964Y02952D02*
X03125Y04112D01*
X01964Y03012D02*
X03065Y04112D01*
X01964Y03072D02*
X03005Y04112D01*
X01964Y03132D02*
X02945Y04112D01*
X01964Y03192D02*
X02885Y04112D01*
X01964Y03252D02*
X02825Y04112D01*
X01964Y03312D02*
X02765Y04112D01*
X01964Y03372D02*
X02705Y04112D01*
X01964Y03432D02*
X02645Y04112D01*
X01964Y03492D02*
X02585Y04112D01*
X01964Y03552D02*
X02525Y04112D01*
X01964Y03612D02*
X02465Y04112D01*
X01964Y03672D02*
X02405Y04112D01*
X01964Y03732D02*
X02345Y04112D01*
X01964Y03792D02*
X02285Y04112D01*
X01964Y03852D02*
X02225Y04112D01*
X01964Y03912D02*
X02165Y04112D01*
X01964Y03972D02*
X02105Y04112D01*
X01964Y04032D02*
X02045Y04112D01*
X01964Y04092D02*
X01985Y04112D01*
M02*