%FSTAX23Y23*%
%MOIN*%
%SFA1B1*%

%IPPOS*%
%ADD15C,0.039370*%
%ADD16R,0.031500X0.023620*%
%ADD27C,0.177170*%
%ADD31R,0.011810X0.062990*%
%ADD32R,0.031500X0.070870*%
%ADD33R,0.059060X0.051180*%
%ADD34R,0.059060X0.047240*%
%ADD35R,0.027560X0.031500*%
%ADD36R,0.043310X0.011810*%
%ADD37R,0.023620X0.009840*%
%ADD38R,0.039370X0.039370*%
%ADD39R,0.037400X0.048030*%
%ADD40R,0.014000X0.066000*%
%ADD41R,0.039370X0.039370*%
%ADD42R,0.051180X0.059060*%
%ADD43R,0.023620X0.031500*%
%ADD44R,0.031500X0.027560*%
%LNmod_duo_x_g3399-1*%
%LPD*%
G54D15*
X01136Y01815D03*
G54D16*
X00641Y-00259D03*
X00594D03*
X-00403Y00944D03*
X-00451D03*
X-00937Y01245D03*
X-00984D03*
X-00693Y00425D03*
X-00646D03*
X-00693Y0082D03*
X-00646D03*
X-00403Y01361D03*
X-00451D03*
X-00937Y01653D03*
X-00984D03*
G54D27*
X-01194Y00694D03*
X0148D03*
G54D31*
X00513Y01586D03*
X00494D03*
X00474D03*
X00454D03*
X00435D03*
X00415D03*
X00395D03*
X00375D03*
X00316D03*
X00297D03*
X00277D03*
X00257D03*
X00238D03*
X00218D03*
X00159D03*
X00139D03*
X0012D03*
X001D03*
X0008D03*
X00061D03*
X00041D03*
X00021D03*
X00001D03*
X-00017D03*
X-00037D03*
X00513Y01444D03*
X00494D03*
X00474D03*
X00454D03*
X00435D03*
X00415D03*
X00395D03*
X00375D03*
X00356D03*
X00336D03*
X00316D03*
X00297D03*
X00277D03*
X00257D03*
X00238D03*
X00218D03*
X00198D03*
X00179D03*
X00159D03*
X00139D03*
X0012D03*
X001D03*
X0008D03*
X00061D03*
X00041D03*
X00021D03*
X00001D03*
X-00017D03*
X-00037D03*
X-00057D03*
Y01586D03*
X00356D03*
X00336D03*
X00198D03*
X00179D03*
X00041Y00011D03*
Y-00129D03*
X00061D03*
X0008D03*
X001D03*
X0012D03*
X00139D03*
X00159D03*
X00179D03*
X00198D03*
X00218D03*
X00238D03*
X00257D03*
X00277D03*
X00297D03*
X00316D03*
X00336D03*
X00356D03*
X00375D03*
X00395D03*
X00415D03*
X00061Y00011D03*
X0008D03*
X001D03*
X0012D03*
X00139D03*
X00159D03*
X00179D03*
X00198D03*
X00218D03*
X00238D03*
X00257D03*
X00277D03*
X00297D03*
X00316D03*
X00336D03*
X00356D03*
X00375D03*
X00395D03*
X00415D03*
G54D32*
X-00124Y01515D03*
X0058D03*
X00482Y-00059D03*
X-00025D03*
G54D33*
X01608Y01888D03*
Y01821D03*
G54D34*
X01493Y01802D03*
Y01908D03*
G54D35*
X01088Y0193D03*
Y01977D03*
X-00391Y00591D03*
Y00638D03*
X-00681Y01136D03*
Y01183D03*
X-01251Y01433D03*
Y0148D03*
X01138Y0193D03*
Y01977D03*
G54D36*
X0129Y0189D03*
Y0191D03*
Y0193D03*
G54D37*
X01247Y0193D03*
Y0191D03*
Y0189D03*
G54D38*
X01601Y-00248D03*
Y-00185D03*
X01543D03*
Y-00248D03*
X01483Y-00185D03*
Y-00248D03*
G54D39*
X00722Y-00184D03*
X00593D03*
G54D40*
X-00615Y0073D03*
X-0059D03*
X-00564D03*
X-00539D03*
X-00513D03*
X-00487D03*
X-00462D03*
Y00508D03*
X-00487D03*
X-00513D03*
X-00539D03*
X-00564D03*
X-0059D03*
X-00615D03*
X-00462Y01266D03*
X-00487D03*
X-00513D03*
X-00539D03*
X-00564D03*
X-0059D03*
X-00615D03*
Y01044D03*
X-0059D03*
X-00564D03*
X-00539D03*
X-00513D03*
X-00487D03*
X-00462D03*
X-0103Y01561D03*
X-01055D03*
X-01081D03*
X-01106D03*
X-01132D03*
X-01157D03*
X-01183D03*
Y01339D03*
X-01157D03*
X-01132D03*
X-01106D03*
X-01081D03*
X-01055D03*
X-0103D03*
G54D41*
X00068Y01918D03*
X00131D03*
G54D42*
X01291Y01805D03*
X01224D03*
G54D43*
X01183Y01977D03*
Y0193D03*
X01433Y-00193D03*
Y-00241D03*
G54D44*
X01089Y0188D03*
X01136D03*
M02*