%FSTAX23Y23*%
%MOIN*%
%SFA1B1*%

%IPPOS*%
%AMD41*
4,1,8,0.033500,-0.036400,0.033500,0.036400,0.016800,0.053200,-0.016800,0.053200,-0.033500,0.036400,-0.033500,-0.036400,-0.016800,-0.053200,0.016800,-0.053200,0.033500,-0.036400,0.0*
%
%AMD42*
4,1,8,0.017700,0.045300,-0.017700,0.045300,-0.035500,0.027600,-0.035500,-0.027600,-0.017700,-0.045300,0.017700,-0.045300,0.035500,-0.027600,0.035500,0.027600,0.017700,0.045300,0.0*
%
%AMD45*
4,1,8,-0.010900,-0.033500,0.010900,-0.033500,0.021700,-0.022700,0.021700,0.022700,0.010900,0.033500,-0.010900,0.033500,-0.021700,0.022700,-0.021700,-0.022700,-0.010900,-0.033500,0.0*
%
%AMD47*
4,1,8,0.019700,0.053200,-0.019700,0.053200,-0.039400,0.033500,-0.039400,-0.033500,-0.019700,-0.053200,0.019700,-0.053200,0.039400,-0.033500,0.039400,0.033500,0.019700,0.053200,0.0*
%
%AMD74*
4,1,4,0.105900,-0.047200,-0.047200,0.105900,-0.105900,0.047200,0.047200,-0.105900,0.105900,-0.047200,0.0*
%
%AMD91*
4,1,4,-0.033400,0.000000,0.000000,-0.033400,0.033400,0.000000,0.000000,0.033400,-0.033400,0.000000,0.0*
%
%AMD92*
4,1,4,-0.016000,0.030000,-0.030000,0.016000,0.016000,-0.030000,0.030000,-0.016000,-0.016000,0.030000,0.0*
%
%AMD93*
4,1,4,0.030000,0.016000,0.016000,0.030000,-0.030000,-0.016000,-0.016000,-0.030000,0.030000,0.016000,0.0*
%
%AMD102*
4,1,4,0.025100,0.002800,0.002800,0.025100,-0.025100,-0.002800,-0.002800,-0.025100,0.025100,0.002800,0.0*
%
%AMD103*
4,1,4,-0.002800,0.025100,-0.025100,0.002800,0.002800,-0.025100,0.025100,-0.002800,-0.002800,0.025100,0.0*
%
%ADD26R,0.059181X0.067055*%
%ADD27R,0.047370X0.047370*%
%ADD29R,0.043433X0.047370*%
%ADD35R,0.078740X0.078740*%
%ADD36C,0.078740*%
%ADD37R,0.047370X0.043433*%
%ADD38R,0.067055X0.067055*%
%ADD39C,0.067055*%
%ADD40C,0.027685*%
G04~CAMADD=41~4~0.0~0.0~1064.3~670.6~0.0~167.6~0~0.0~0.0~0.0~0.0~0~0.0~0.0~0.0~0.0~0~0.0~0.0~0.0~270.0~670.0~1064.0*
%ADD41D41*%
G04~CAMADD=42~4~0.0~0.0~709.9~906.8~0.0~177.5~0~0.0~0.0~0.0~0.0~0~0.0~0.0~0.0~0.0~0~0.0~0.0~0.0~0.0~709.9~906.8*
%ADD42D42*%
%ADD43O,0.114299X0.149732*%
%ADD44C,0.094614*%
G04~CAMADD=45~4~0.0~0.0~434.3~670.6~0.0~108.6~0~0.0~0.0~0.0~0.0~0~0.0~0.0~0.0~0.0~0~0.0~0.0~0.0~180.0~434.0~670.0*
%ADD45D45*%
%ADD46C,0.047370*%
G04~CAMADD=47~4~0.0~0.0~788.7~1064.3~0.0~197.2~0~0.0~0.0~0.0~0.0~0~0.0~0.0~0.0~0.0~0~0.0~0.0~0.0~0.0~788.7~1064.3*
%ADD47D47*%
%ADD48C,0.126110*%
G04~CAMADD=74~9~0.0~0.0~2165.0~830.0~0.0~0.0~0~0.0~0.0~0.0~0.0~0~0.0~0.0~0.0~0.0~0~0.0~0.0~0.0~315.0~2118.0~2117.0*
%ADD74D74*%
%ADD90R,0.025716X0.035559*%
G04~CAMADD=91~10~0.0~473.7~0.0~0.0~0.0~0.0~0~0.0~0.0~0.0~0.0~0~0.0~0.0~0.0~0.0~0~0.0~0.0~0.0~135.0~473.7~0.0*
%ADD91D91*%
G04~CAMADD=92~9~0.0~0.0~198.1~650.9~0.0~0.0~0~0.0~0.0~0.0~0.0~0~0.0~0.0~0.0~0.0~0~0.0~0.0~0.0~45.0~600.0~599.0*
%ADD92D92*%
G04~CAMADD=93~9~0.0~0.0~198.1~650.9~0.0~0.0~0~0.0~0.0~0.0~0.0~0~0.0~0.0~0.0~0.0~0~0.0~0.0~0.0~315.0~600.0~599.0*
%ADD93D93*%
%ADD94R,0.047370X0.031622*%
%ADD95R,0.055244X0.033590*%
%ADD96R,0.067055X0.031622*%
%ADD97R,0.039496X0.035559*%
%ADD98R,0.043433X0.070992*%
%ADD99R,0.027685X0.017842*%
%ADD100R,0.051307X0.035559*%
%ADD101R,0.039496X0.031622*%
G04~CAMADD=102~9~0.0~0.0~316.2~395.0~0.0~0.0~0~0.0~0.0~0.0~0.0~0~0.0~0.0~0.0~0.0~0~0.0~0.0~0.0~315.0~502.0~501.0*
%ADD102D102*%
G04~CAMADD=103~9~0.0~0.0~316.2~395.0~0.0~0.0~0~0.0~0.0~0.0~0.0~0~0.0~0.0~0.0~0.0~0~0.0~0.0~0.0~45.0~502.0~501.0*
%ADD103D103*%
%ADD104R,0.031622X0.067055*%
%ADD105R,0.035559X0.025716*%
%ADD106R,0.047370X0.047370*%
%ADD107R,0.067055X0.059181*%
%LNduo_x-1*%
%LPD*%
G54D26*
X05203Y02729D03*
X0527D03*
X0503D03*
X04963D03*
X03838Y03535D03*
X03771D03*
X00848D03*
X00781D03*
G54D27*
X01041Y0406D03*
X00978D03*
X03966Y03585D03*
X03903D03*
X03966Y03525D03*
X03903D03*
X00976D03*
X00913D03*
X00976Y03585D03*
X00913D03*
X00918Y03999D03*
X00855D03*
G54D29*
X04446Y00115D03*
X04513D03*
X02995Y02665D03*
X03061D03*
X01306Y0024D03*
X01373D03*
X04301Y00115D03*
X04368D03*
X02806Y0024D03*
X02873D03*
X02374Y02665D03*
X02441D03*
X01536Y02814D03*
X01603D03*
X-00188Y0024D03*
X-00121D03*
X02925Y02665D03*
X02858D03*
X01523Y0024D03*
X01456D03*
X04341Y00205D03*
X04408D03*
X02583Y02665D03*
X02516D03*
X01536Y02987D03*
X01603D03*
X0302Y0024D03*
X02953D03*
X02334Y02605D03*
X02267D03*
X01536Y0311D03*
X01603D03*
X00028Y0024D03*
X-00038D03*
X02928Y03625D03*
X02995D03*
X02708Y02385D03*
X02641D03*
X02536Y0177D03*
X02603D03*
X02738Y02195D03*
X02671D03*
X01083Y03759D03*
X01016D03*
X01083Y03819D03*
X01016D03*
X01043Y03999D03*
X00976D03*
G54D35*
X04782Y04915D03*
G54D36*
X0428Y0D03*
X0086Y00001D03*
G54D37*
X01505Y-00146D03*
Y-00079D03*
X0287Y02986D03*
Y03053D03*
X03005Y-00146D03*
Y-00079D03*
X00016Y-00146D03*
Y-00079D03*
X-00095Y02976D03*
Y03043D03*
X-00035Y02976D03*
Y03043D03*
X00025Y02976D03*
Y03043D03*
X00085Y02976D03*
Y03043D03*
X0071Y03847D03*
Y03914D03*
X0359Y03598D03*
Y03531D03*
X006Y036D03*
Y03533D03*
G54D38*
X00495Y0234D03*
G54D39*
X00495Y0244D03*
X00395Y0234D03*
Y0244D03*
X00295Y0234D03*
Y0244D03*
X00195Y0234D03*
Y0244D03*
X00095Y0234D03*
Y0244D03*
X-00004Y0234D03*
Y0244D03*
X-00104Y0234D03*
Y0244D03*
X-00204Y0234D03*
Y0244D03*
X-00304Y0234D03*
Y0244D03*
X-00404Y0234D03*
Y0244D03*
G54D40*
X05102Y02579D03*
Y02611D03*
G54D41*
X05024Y03014D03*
X04925D03*
G54D42*
X00992Y027D03*
X01091D03*
X01189D03*
X00992Y03271D03*
X01189D03*
X03984Y027D03*
X04083D03*
X04181D03*
X03984Y03271D03*
X04181D03*
G54D43*
X00866Y02995D03*
X01315D03*
X03858D03*
X04307D03*
G54D44*
X05047Y03497D03*
X03118D03*
X02055D03*
X00126D03*
G54D45*
X05343Y05333D03*
X05292D03*
X02823Y0336D03*
X02873D03*
X04558D03*
X04508D03*
X04458D03*
X04408D03*
X04358D03*
X04308D03*
X04258D03*
X04208D03*
X04158D03*
X04108D03*
X04058D03*
X04008D03*
X03958D03*
X03908D03*
X03858D03*
X03808D03*
X03758D03*
X03708D03*
X03658D03*
X03608D03*
X03558D03*
X04608D03*
X05292D03*
X05343D03*
X02873Y05333D03*
X02823D03*
X02351D03*
X023D03*
X-00168Y0336D03*
X-00118D03*
X01566D03*
X01516D03*
X01466D03*
X01416D03*
X01366D03*
X01316D03*
X01266D03*
X01216D03*
X01166D03*
X01116D03*
X01066D03*
X01016D03*
X00966D03*
X00916D03*
X00866D03*
X00816D03*
X00766D03*
X00716D03*
X00666D03*
X00616D03*
X00566D03*
X01616D03*
X023D03*
X02351D03*
X-00118Y05333D03*
X-00168D03*
G54D46*
X00105Y0283D03*
X00055D03*
X00005D03*
X-00045D03*
X-00095Y0288D03*
Y0283D03*
X-00045Y0288D03*
X00005D03*
X00055D03*
X00105D03*
G54D47*
X04978Y00434D03*
X0488D03*
X04782D03*
X04683D03*
D03*
X03187D03*
D03*
X03286D03*
X03384D03*
X03482D03*
X01691D03*
D03*
X0179D03*
X01888D03*
X01986D03*
X00195D03*
D03*
X00293D03*
X00392D03*
X0049D03*
X04683Y01576D03*
D03*
X04782D03*
X0488D03*
X04978D03*
X03187D03*
D03*
X03286D03*
X03384D03*
X03482D03*
X01691D03*
D03*
X0179D03*
X01888D03*
X01986D03*
X00195D03*
D03*
X00293D03*
X00392D03*
X0049D03*
G54D48*
X04603Y00867D03*
X05059D03*
X03563D03*
X03106D03*
X02067D03*
X0161D03*
X00571D03*
X00114D03*
X05059Y02009D03*
X04603D03*
X03563D03*
X03106D03*
X02067D03*
X0161D03*
X00571D03*
X00114D03*
G54D74*
X01491Y04368D03*
X01758Y04101D03*
G54D90*
X00148Y02964D03*
Y03055D03*
X0065Y03835D03*
Y03926D03*
G54D91*
X02184Y03847D03*
X0214Y03892D03*
X01427Y04212D03*
X01382Y04257D03*
X01647Y03992D03*
X01602Y04037D03*
X01777Y04737D03*
X01822Y04692D03*
G54D92*
X02639Y03705D03*
X02653Y03719D03*
X02667Y03732D03*
X02681Y03746D03*
X02695Y0376D03*
X02709Y03774D03*
X02723Y03788D03*
X02737Y03802D03*
X02751Y03816D03*
X02765Y0383D03*
X02779Y03844D03*
X02793Y03858D03*
X02807Y03872D03*
X0282Y03886D03*
X02834Y039D03*
X02848Y03913D03*
X02862Y03927D03*
X02876Y03941D03*
X0289Y03955D03*
X02904Y03969D03*
X02918Y03983D03*
X02932Y03997D03*
X02946Y04011D03*
X0296Y04025D03*
X02974Y04039D03*
X02987Y04053D03*
X03001Y04067D03*
X03015Y0408D03*
X03029Y04094D03*
X03043Y04108D03*
X03057Y04122D03*
X03071Y04136D03*
X03085Y0415D03*
X03099Y04164D03*
X03113Y04178D03*
X03127Y04192D03*
X03141Y04206D03*
X03155Y0422D03*
X03168Y04234D03*
X03182Y04247D03*
X03196Y04261D03*
X0321Y04275D03*
X03224Y04289D03*
X03238Y04303D03*
X03252Y04317D03*
X03266Y04331D03*
X0328Y04345D03*
X03294Y04359D03*
X03308Y04373D03*
X03322Y04387D03*
X03335Y04401D03*
X03349Y04415D03*
X0253Y05234D03*
X02516Y0522D03*
X02502Y05207D03*
X02488Y05193D03*
X02474Y05179D03*
X0246Y05165D03*
X02446Y05151D03*
X02432Y05137D03*
X02418Y05123D03*
X02404Y05109D03*
X0239Y05095D03*
X02376Y05081D03*
X02362Y05067D03*
X02349Y05053D03*
X02335Y0504D03*
X02321Y05026D03*
X02307Y05012D03*
X02293Y04998D03*
X02279Y04984D03*
X02265Y0497D03*
X02251Y04956D03*
X02237Y04942D03*
X02223Y04928D03*
X02209Y04914D03*
X02195Y049D03*
X02182Y04886D03*
X02168Y04872D03*
X02154Y04859D03*
X0214Y04845D03*
X02126Y04831D03*
X02112Y04817D03*
X02098Y04803D03*
X02084Y04789D03*
X0207Y04775D03*
X02056Y04761D03*
X02042Y04747D03*
X02028Y04733D03*
X02015Y04719D03*
X02001Y04705D03*
X01987Y04692D03*
X01973Y04678D03*
X01959Y04664D03*
X01945Y0465D03*
X01931Y04636D03*
X01917Y04622D03*
X01903Y04608D03*
X01889Y04594D03*
X01875Y0458D03*
X01861Y04566D03*
X01847Y04552D03*
X01834Y04538D03*
X0182Y04524D03*
G54D93*
X03349Y04524D03*
X03335Y04538D03*
X03322Y04552D03*
X03308Y04566D03*
X03294Y0458D03*
X0328Y04594D03*
X03266Y04608D03*
X03252Y04622D03*
X03238Y04636D03*
X03224Y0465D03*
X0321Y04664D03*
X03196Y04678D03*
X03182Y04692D03*
X03168Y04705D03*
X03155Y04719D03*
X03141Y04733D03*
X03127Y04747D03*
X03113Y04761D03*
X03099Y04775D03*
X03085Y04789D03*
X03071Y04803D03*
X03057Y04817D03*
X03043Y04831D03*
X03029Y04845D03*
X03015Y04859D03*
X03001Y04872D03*
X02987Y04886D03*
X02974Y049D03*
X0296Y04914D03*
X02946Y04928D03*
X02932Y04942D03*
X02918Y04956D03*
X02904Y0497D03*
X0289Y04984D03*
X02876Y04998D03*
X02862Y05012D03*
X02848Y05026D03*
X02834Y0504D03*
X0282Y05053D03*
X02807Y05067D03*
X02793Y05081D03*
X02779Y05095D03*
X02765Y05109D03*
X02751Y05123D03*
X02737Y05137D03*
X02723Y05151D03*
X02709Y05165D03*
X02695Y05179D03*
X02681Y05193D03*
X02667Y05207D03*
X02653Y0522D03*
X02639Y05234D03*
X0182Y04415D03*
X01834Y04401D03*
X01847Y04387D03*
X01861Y04373D03*
X01875Y04359D03*
X01889Y04345D03*
X01903Y04331D03*
X01917Y04317D03*
X01931Y04303D03*
X01945Y04289D03*
X01959Y04275D03*
X01973Y04261D03*
X01987Y04247D03*
X02001Y04234D03*
X02015Y0422D03*
X02028Y04206D03*
X02042Y04192D03*
X02056Y04178D03*
X0207Y04164D03*
X02084Y0415D03*
X02098Y04136D03*
X02112Y04122D03*
X02126Y04108D03*
X0214Y04094D03*
X02154Y0408D03*
X02168Y04067D03*
X02182Y04053D03*
X02195Y04039D03*
X02209Y04025D03*
X02223Y04011D03*
X02237Y03997D03*
X02251Y03983D03*
X02265Y03969D03*
X02279Y03955D03*
X02293Y03941D03*
X02307Y03927D03*
X02321Y03913D03*
X02335Y039D03*
X02349Y03886D03*
X02362Y03872D03*
X02376Y03858D03*
X0239Y03844D03*
X02404Y0383D03*
X02418Y03816D03*
X02432Y03802D03*
X02446Y03788D03*
X0246Y03774D03*
X02474Y0376D03*
X02488Y03746D03*
X02502Y03732D03*
X02516Y03719D03*
X0253Y03705D03*
G54D94*
X00839Y03917D03*
Y03842D03*
X00941D03*
Y03879D03*
Y03917D03*
G54D95*
X05272Y02538D03*
Y02646D03*
G54D96*
X04897Y02592D03*
X04972Y02555D03*
Y02629D03*
X03066Y03329D03*
Y03403D03*
X03141Y03366D03*
X04607Y0006D03*
Y00135D03*
X04682Y00097D03*
X04607Y-00219D03*
Y-00144D03*
X04682Y-00182D03*
X04607Y-00079D03*
Y-00004D03*
X04682Y-00042D03*
X03111Y-00079D03*
Y-00004D03*
X03185Y-00042D03*
X03111Y-00219D03*
Y-00144D03*
X03185Y-00182D03*
X03111Y0006D03*
Y00135D03*
X03185Y00097D03*
X01615Y-00079D03*
Y-00004D03*
X01689Y-00042D03*
X01615Y0006D03*
Y00135D03*
X01689Y00097D03*
X01615Y-00219D03*
Y-00144D03*
X01689Y-00182D03*
X00119Y-00079D03*
Y-00004D03*
X00193Y-00042D03*
X00119Y-00219D03*
Y-00144D03*
X00193Y-00182D03*
X00119Y0006D03*
Y00135D03*
X00193Y00097D03*
X02953Y03052D03*
Y03127D03*
X03028Y0309D03*
X02953Y02912D03*
Y02987D03*
X03028Y0295D03*
X02953Y02772D03*
Y02847D03*
X03028Y0281D03*
X02363Y02772D03*
Y02847D03*
X02437Y0281D03*
X02363Y03052D03*
Y03127D03*
X02437Y0309D03*
X02363Y02912D03*
Y02987D03*
X02437Y0295D03*
X01772Y03052D03*
Y03127D03*
X01847Y0309D03*
X01772Y02912D03*
Y02987D03*
X01847Y0295D03*
X01772Y02772D03*
Y02847D03*
X01847Y0281D03*
G54D97*
X05141Y02744D03*
X05093D03*
X05191Y02794D03*
X05143D03*
X05093Y02504D03*
X05141D03*
G54D98*
X05102Y02594D03*
G54D99*
X05139Y02624D03*
Y02604D03*
Y02585D03*
Y02565D03*
X05065Y02624D03*
Y02604D03*
Y02585D03*
Y02565D03*
G54D100*
X00837Y04181D03*
X00662D03*
Y04318D03*
X00837D03*
G54D101*
X03061Y0504D03*
X03109D03*
X02868Y05185D03*
X02821D03*
X02186Y051D03*
X02233D03*
X02186Y05053D03*
X02233D03*
G54D102*
X02073Y03948D03*
X02106Y03981D03*
G54D103*
X02888Y03736D03*
X02855Y0377D03*
X02183Y03925D03*
X02216Y03891D03*
X03107Y03988D03*
X03073Y04021D03*
X03213Y04085D03*
X0318Y04118D03*
X03336Y04208D03*
X03303Y04241D03*
X03316Y04703D03*
X03283Y04736D03*
X0197Y04875D03*
X02003Y04842D03*
X01823Y04766D03*
X01856Y04733D03*
G54D104*
X02995Y03702D03*
X03033Y03777D03*
X02958D03*
X-00031Y03442D03*
X-00106D03*
X-00069Y03517D03*
G54D105*
X01095Y03939D03*
X01005D03*
G54D106*
X0077Y03912D03*
Y03849D03*
G54D107*
X03658Y0353D03*
Y03596D03*
X0067Y03531D03*
Y03598D03*
M02*