%FSTAX23Y23*%
%MOIN*%
%SFA1B1*%

%IPPOS*%
%AMD61*
4,1,8,0.029500,-0.034400,0.029500,0.034400,0.014800,0.049200,-0.014800,0.049200,-0.029500,0.034400,-0.029500,-0.034400,-0.014800,-0.049200,0.014800,-0.049200,0.029500,-0.034400,0.0*
%
%AMD62*
4,1,8,0.015700,0.041300,-0.015700,0.041300,-0.031500,0.025600,-0.031500,-0.025600,-0.015700,-0.041300,0.015700,-0.041300,0.031500,-0.025600,0.031500,0.025600,0.015700,0.041300,0.0*
%
%AMD65*
4,1,8,-0.008900,-0.029500,0.008900,-0.029500,0.017700,-0.020700,0.017700,0.020700,0.008900,0.029500,-0.008900,0.029500,-0.017700,0.020700,-0.017700,-0.020700,-0.008900,-0.029500,0.0*
%
%AMD66*
4,1,8,0.017700,0.049200,-0.017700,0.049200,-0.035400,0.031500,-0.035400,-0.031500,-0.017700,-0.049200,0.017700,-0.049200,0.035400,-0.031500,0.035400,0.031500,0.017700,0.049200,0.0*
%
%AMD69*
4,1,4,-0.027700,0.000000,0.000000,-0.027700,0.027700,0.000000,0.000000,0.027700,-0.027700,0.000000,0.0*
%
%AMD70*
4,1,4,-0.016000,0.024300,-0.024300,0.016000,0.016000,-0.024300,0.024300,-0.016000,-0.016000,0.024300,0.0*
%
%AMD71*
4,1,4,0.024300,0.016000,0.016000,0.024300,-0.024300,-0.016000,-0.016000,-0.024300,0.024300,0.016000,0.0*
%
%AMD73*
4,1,4,0.105900,-0.047200,-0.047200,0.105900,-0.105900,0.047200,0.047200,-0.105900,0.105900,-0.047200,0.0*
%
%AMD81*
4,1,4,0.019400,0.002800,0.002800,0.019400,-0.019400,-0.002800,-0.002800,-0.019400,0.019400,0.002800,0.0*
%
%AMD82*
4,1,4,-0.002800,0.019400,-0.019400,0.002800,0.002800,-0.019400,0.019400,-0.002800,-0.002800,0.019400,0.0*
%
%ADD16R,0.051181X0.059055*%
%ADD17R,0.039370X0.039370*%
%ADD19R,0.035433X0.039370*%
%ADD24R,0.039370X0.035433*%
%ADD51C,0.039370*%
%ADD52C,0.010000*%
%ADD53C,0.006000*%
%ADD54C,0.020000*%
%ADD55C,0.015000*%
%ADD56C,0.027559*%
%ADD58R,0.059055X0.059055*%
%ADD59C,0.059055*%
%ADD60C,0.019685*%
G04~CAMADD=61~4~0.0~0.0~984.3~590.6~0.0~147.6~0~0.0~0.0~0.0~0.0~0~0.0~0.0~0.0~0.0~0~0.0~0.0~0.0~270.0~590.0~984.0*
%ADD61D61*%
G04~CAMADD=62~4~0.0~0.0~629.9~826.8~0.0~157.5~0~0.0~0.0~0.0~0.0~0~0.0~0.0~0.0~0.0~0~0.0~0.0~0.0~0.0~629.9~826.8*
%ADD62D62*%
%ADD63O,0.106299X0.141732*%
%ADD64C,0.086614*%
G04~CAMADD=65~4~0.0~0.0~354.3~590.6~0.0~88.6~0~0.0~0.0~0.0~0.0~0~0.0~0.0~0.0~0.0~0~0.0~0.0~0.0~180.0~354.0~590.0*
%ADD65D65*%
G04~CAMADD=66~4~0.0~0.0~708.7~984.3~0.0~177.2~0~0.0~0.0~0.0~0.0~0~0.0~0.0~0.0~0.0~0~0.0~0.0~0.0~0.0~708.7~984.3*
%ADD66D66*%
%ADD67C,0.118110*%
%ADD68R,0.017716X0.027559*%
G04~CAMADD=69~10~0.0~393.7~0.0~0.0~0.0~0.0~0~0.0~0.0~0.0~0.0~0~0.0~0.0~0.0~0.0~0~0.0~0.0~0.0~135.0~393.7~0.0*
%ADD69D69*%
G04~CAMADD=70~9~0.0~0.0~118.1~570.9~0.0~0.0~0~0.0~0.0~0.0~0.0~0~0.0~0.0~0.0~0.0~0~0.0~0.0~0.0~45.0~486.0~485.0*
%ADD70D70*%
G04~CAMADD=71~9~0.0~0.0~118.1~570.9~0.0~0.0~0~0.0~0.0~0.0~0.0~0~0.0~0.0~0.0~0.0~0~0.0~0.0~0.0~315.0~486.0~485.0*
%ADD71D71*%
%ADD72R,0.039370X0.023622*%
G04~CAMADD=73~9~0.0~0.0~2165.0~830.0~0.0~0.0~0~0.0~0.0~0.0~0.0~0~0.0~0.0~0.0~0.0~0~0.0~0.0~0.0~315.0~2118.0~2117.0*
%ADD73D73*%
%ADD74R,0.047244X0.025591*%
%ADD75R,0.059055X0.023622*%
%ADD76R,0.031496X0.027559*%
%ADD77R,0.035433X0.062992*%
%ADD78R,0.019685X0.009843*%
%ADD79R,0.043307X0.027559*%
%ADD80R,0.031496X0.023622*%
G04~CAMADD=81~9~0.0~0.0~236.2~315.0~0.0~0.0~0~0.0~0.0~0.0~0.0~0~0.0~0.0~0.0~0.0~0~0.0~0.0~0.0~315.0~388.0~387.0*
%ADD81D81*%
G04~CAMADD=82~9~0.0~0.0~236.2~315.0~0.0~0.0~0~0.0~0.0~0.0~0.0~0~0.0~0.0~0.0~0.0~0~0.0~0.0~0.0~45.0~388.0~387.0*
%ADD82D82*%
%ADD83R,0.023622X0.059055*%
%ADD84R,0.027559X0.017716*%
%ADD85R,0.039370X0.039370*%
%ADD86R,0.059055X0.051181*%
%ADD87C,0.025000*%
%ADD88C,0.030000*%
%LNduo_x-1*%
%LPD*%
G36*
X02357Y0558D02*
X02372Y05563D01*
X02384Y05543*
X02393Y05522*
X02398Y055*
X02398Y05492*
X02399Y05487*
X02403Y05468*
X02411Y05444*
X02422Y05422*
X02431Y05408*
X02428Y05405*
X02397Y05435*
X02392Y05439*
X02386Y0544*
X02231*
X02225Y05439*
X0222Y05435*
X02179Y05395*
X00652*
X00646Y05394*
X00642Y0539*
X00018Y04767*
X00014Y04762*
X00013Y04756*
Y04201*
X00013Y042*
X00008Y04193*
X00006Y04185*
X00008Y04176*
X00013Y04169*
X0002Y04164*
X00029Y04162*
X00031Y04163*
X00033Y04156*
X00038Y04149*
X00045Y04144*
X00053Y04142*
X00056Y04143*
X00057Y04136*
X00062Y04129*
X0007Y04124*
X00078Y04122*
X00081Y04123*
X00082Y04116*
X00087Y04109*
X00094Y04104*
X00103Y04102*
X00105Y04103*
X00106Y04096*
X00111Y04089*
X00118Y04084*
X00126Y04082*
X00127Y04076*
X00132Y04069*
X00139Y04064*
X00148Y04062*
X00148Y04062*
X00149Y04056*
X00154Y04049*
X00161Y04044*
X0017Y04042*
X00171Y04042*
X00174Y0404*
X00171Y04037*
X0017Y04037*
X00162Y04035*
X00155Y0403*
X0015Y04023*
X00148Y04016*
X00145Y04017*
X00136Y04015*
X00129Y0401*
X00124Y04003*
X00123Y03996*
X00119Y03997*
X0011Y03995*
X00103Y0399*
X00098Y03983*
X00097Y03977*
X00096Y03977*
X00087Y03975*
X0008Y0397*
X00075Y03963*
X00074Y03957*
X00066Y03955*
X00059Y0395*
X00054Y03943*
X00053Y03935*
X00054Y03926*
X00059Y03919*
Y03751*
X00058Y0375*
X-00075*
X-0008Y03749*
X-00085Y03745*
X-00269Y03562*
X-00273Y03564*
X-00274Y03564*
X-00274Y03564*
X-00274*
X-00274Y03564*
Y05318*
X-00274*
X-00273Y0532*
X-00272Y05323*
X-00269Y05324*
X-00269Y05324*
X-00268Y05325*
X-00268Y05325*
X-00267Y05325*
X-00213Y05347*
X-00213Y05347*
X-00202Y05351*
X-00198Y05348*
Y05306*
X-00183Y05291*
X-00153*
X-00143Y05301*
X-00133Y05291*
X-00103*
X-00088Y05306*
Y05359*
X-00097Y05368*
X-00097Y05373*
X-00093Y05376*
X-00092Y05376*
X-00088Y05379*
X-00084Y05382*
X-00068Y05396*
X-00053Y05413*
X-00041Y05432*
X-00031Y05452*
X-00024Y05473*
X-0002Y05492*
X-00019Y05494*
X-00019Y05497*
X-00018Y05502*
X-00015Y0552*
X-00008Y0554*
X00001Y0556*
X00008Y05571*
X00011Y05575*
X00014Y05578*
X00019Y05582*
X00022Y05582*
X00027Y05583*
X00032*
X00032*
X02354*
X02357Y0558*
G37*
G36*
X05147Y05583D02*
D01*
X05152Y05582*
X05154Y05582*
X05159Y05578*
X05162Y05575*
X05165Y05571*
X05173Y0556*
X05182Y0554*
X05189Y0552*
X05193Y05502*
X05194Y05497*
X05194Y05494*
X05194Y05492*
X05198Y05473*
X05205Y05452*
X05215Y05432*
X05227Y05413*
X05242Y05396*
X05259Y05382*
X05262Y05379*
X05266Y05376*
X05267Y05376*
X05271Y05373*
X05272Y05368*
X05263Y05359*
Y05306*
X05278Y05291*
X05307*
X05318Y05301*
X05328Y05291*
X05358*
X05373Y05306*
Y05348*
X05377Y05351*
X05387Y05347*
X05387Y05347*
X05439Y05326*
X05442Y05325*
X05442Y05325*
X05442Y05325*
X05444Y05324*
X05444Y05324*
X05447Y05321*
X05448Y0532*
X05448Y05318*
X05448*
Y03544*
X05448*
X0545Y03516*
X05455Y03489*
X05464Y03463*
X05476Y03439*
X05491Y03416*
X05509Y03396*
X0553Y03377*
X05553Y03362*
X05577Y0335*
X05603Y03341*
X0563Y03336*
X05658Y03334*
Y03334*
X05736*
X05737Y03334*
X0576Y03333*
X05784Y03328*
X05807Y0332*
X05829Y0331*
X05849Y03296*
X05867Y0328*
X05883Y03262*
X05896Y03242*
X05907Y03221*
X05915Y03198*
X05919Y03174*
X05921Y0315*
X05921Y0315*
Y01865*
X0592Y01864*
X05916Y01863*
X059Y01879*
X05894Y01883*
X05887Y01884*
X05873*
X05871Y01886*
Y01892*
X05875Y01895*
X0588Y01902*
X05882Y0191*
X0588Y01919*
X05875Y01926*
X05868Y01931*
X0586Y01933*
X05851Y01931*
X05846Y01928*
X05653*
X05652Y01933*
X05647Y01941*
X0564Y01945*
X05631Y01947*
X05623Y01945*
X05616Y01941*
X05611Y01933*
X05609Y01925*
X05611Y01916*
X05616Y01909*
X05623Y01904*
X05629Y01903*
X05634Y01898*
X05639Y01894*
X05646Y01893*
X05846*
X05848Y01892*
Y01886*
X05844Y01883*
X05839Y01876*
X05837Y01867*
X05839Y01859*
X05844Y01851*
X05846Y0185*
X05847Y01844*
X05844Y01841*
X05782*
X05746Y01877*
X05741Y01881*
X05734Y01882*
X05645*
X0564Y01885*
X05631Y01887*
X05623Y01885*
X05616Y01881*
X05611Y01873*
X05609Y01865*
X05611Y01856*
X05616Y01849*
X05623Y01844*
X05631Y01843*
X0564Y01844*
X05645Y01847*
X05727*
X05763Y01811*
X05769Y01808*
X05773Y01807*
X05773Y01802*
X05757*
X05739Y01819*
X05734Y01823*
X05727Y01824*
X05645*
X0564Y01828*
X05631Y01829*
X05623Y01828*
X05616Y01823*
X05611Y01816*
X05609Y01807*
X05611Y01799*
X05616Y01791*
X05623Y01786*
X05631Y01785*
X0564Y01786*
X05645Y0179*
X0572*
X05737Y01772*
X05743Y01768*
X0575Y01767*
X0589*
X05896Y01768*
X05902Y01772*
X05916Y01786*
X0592Y01785*
X05921Y01784*
Y01106*
X05916Y01106*
X05916Y01107*
X05912Y01112*
X05897Y01127*
X05891Y01131*
X05885Y01132*
X05873*
X05868Y01136*
X05859Y01137*
X05851Y01136*
X05844Y01131*
X05839Y01124*
X05837Y01115*
X05839Y01107*
X05844Y01099*
X05846Y01098*
X05847Y01092*
X05844Y01089*
X05789*
X0574Y01139*
X05734Y01143*
X05727Y01144*
X05645*
X0564Y01147*
X05631Y01149*
X05623Y01147*
X05616Y01143*
X05611Y01135*
X05609Y01127*
X05611Y01118*
X05616Y01111*
X05623Y01106*
X05631Y01104*
X0564Y01106*
X05645Y01109*
X0572*
X05739Y01091*
X05736Y01086*
X05735Y01087*
X05645*
X0564Y0109*
X05631Y01091*
X05623Y0109*
X05616Y01085*
X05611Y01078*
X05609Y01069*
X05611Y01061*
X05616Y01053*
X05623Y01049*
X05631Y01047*
X0564Y01049*
X05645Y01052*
X05728*
X05749Y01031*
X05746Y01026*
X05745Y01027*
X05645*
X0564Y0103*
X05631Y01031*
X05623Y0103*
X05616Y01025*
X05611Y01018*
X05609Y01009*
X05611Y01001*
X05616Y00993*
X05623Y00989*
X05631Y00987*
X0564Y00989*
X05645Y00992*
X05738*
X05767Y00962*
X05773Y00958*
X0578Y00957*
X05875*
X05881Y00958*
X05887Y00962*
X05912Y00987*
X05916Y00993*
X05916Y00994*
X05921Y00993*
Y006*
Y006*
Y00595*
X0592Y0059*
X05919Y00578*
X05916Y00562*
X05909Y00547*
X05901Y00533*
X0589Y0052*
X05877Y00509*
X05863Y00501*
X05848Y00494*
X05832Y0049*
X05821Y0049*
X05821Y00489*
X0582Y00489*
X05805Y00488*
X05775Y00482*
X05747Y00473*
X0572Y00459*
X05695Y00443*
X05673Y00423*
X05653Y004*
X05636Y00375*
X05623Y00348*
X05613Y0032*
X05607Y00291*
X05606Y00274*
X05606Y00273*
X05606Y00273*
X05605Y00255*
X05599Y00222*
X0559Y00189*
X05577Y00158*
X0556Y00128*
X05541Y001*
X05525Y00083*
X05526Y00083*
X05525Y00082*
X05511Y00066*
X05492Y0004*
X05477Y00012*
X05464Y-00017*
X05455Y-00048*
X0545Y-0008*
X05448Y-00112*
X05448Y-00117*
X05447Y-00136*
X05442Y-0016*
X05434Y-00183*
X05424Y-00205*
X0541Y-00225*
X05394Y-00243*
X05376Y-00259*
X05356Y-00272*
X05335Y-00283*
X05312Y-0029*
X05288Y-00295*
X05269Y-00296*
X05264Y-00297*
X05259*
X-00084*
X-00084*
X-00089*
X-00094Y-00296*
X-00113Y-00295*
X-00137Y-0029*
X-0016Y-00283*
X-00182Y-00272*
X-00202Y-00259*
X-0022Y-00243*
X-00236Y-00225*
X-00249Y-00205*
X-0026Y-00183*
X-00268Y-0016*
X-00272Y-00136*
X-00274Y-00117*
X-00274Y-00112*
X-00275Y-0008*
X-00281Y-00048*
X-0029Y-00017*
X-00302Y00012*
X-00318Y0004*
X-00336Y00066*
X-00351Y00082*
X-00351Y00083*
X-00351Y00083*
X-00366Y001*
X-00386Y00128*
X-00402Y00158*
X-00415Y00189*
X-00425Y00222*
X-0043Y00255*
X-00431Y00273*
X-00432Y00273*
X-00432Y00274*
X-00433Y00291*
X-00439Y0032*
X-00448Y00348*
X-00462Y00375*
X-00478Y004*
X-00498Y00423*
X-00521Y00443*
X-00546Y00459*
X-00573Y00473*
X-00601Y00482*
X-0063Y00488*
X-00646Y00489*
X-00647Y00489*
X-00647Y0049*
X-00657Y0049*
X-00673Y00494*
X-00689Y00501*
X-00703Y00509*
X-00715Y0052*
X-00726Y00533*
X-00735Y00547*
X-00741Y00562*
X-00745Y00578*
X-00746Y00595*
X-00746Y00595*
Y0317*
X-00746Y03171*
X-00745Y03194*
X-0074Y03218*
X-00732Y03241*
X-00722Y03262*
X-00708Y03282*
X-00692Y03301*
X-00674Y03317*
X-00654Y0333*
X-00632Y03341*
X-0061Y03348*
X-00586Y03353*
X-00562Y03355*
X-00562Y03355*
X-00483*
Y03354*
X-00456Y03356*
X-00429Y03361*
X-00403Y0337*
X-00378Y03382*
X-00356Y03398*
X-00335Y03416*
X-00317Y03436*
X-00302Y03459*
X-00295Y03473*
X-0029Y03472*
Y03446*
X-0043Y03305*
X-00434Y033*
X-00435Y03295*
Y03256*
X-0062Y0307*
X-00624Y03065*
X-00625Y0306*
Y02086*
X-00626Y02085*
X-00631Y02078*
X-00632Y0207*
X-00631Y02061*
X-00626Y02054*
X-00618Y02049*
X-0061Y02047*
X-00601Y02049*
X-00594Y02054*
X-00589Y02061*
X-00588Y02068*
X-00581Y02069*
X-00574Y02074*
X-00569Y02081*
X-00568Y02088*
X-00561Y02089*
X-00554Y02094*
X-00549Y02101*
X-00548Y0211*
X-00548Y02113*
X-00541Y02114*
X-00534Y02119*
X-00529Y02126*
X-00528Y02135*
X-00528Y02138*
X-00521Y02139*
X-00514Y02144*
X-00509Y02151*
X-00508Y0216*
X-00509Y02168*
X-00514Y02175*
Y02194*
X-00509Y02198*
X-00505Y02197*
X-005Y02198*
X-00499Y02198*
X-00497Y02193*
X-005Y02188*
X-00502Y0218*
X-005Y02171*
X-00495Y02164*
X-00488Y02159*
X-0048Y02157*
X-00471Y02159*
X-00464Y02164*
X-00459Y02171*
X-00458Y02178*
X-00455Y02177*
X-00446Y02179*
X-00439Y02184*
X-00434Y02191*
X-00432Y022*
X-00434Y02208*
X-00439Y02215*
X-00439Y02216*
Y02311*
X-00434Y02312*
X-00433Y02311*
X-00425Y02304*
X-00419Y02302*
Y02212*
X-00418Y02206*
X-00414Y02201*
X-0038Y02167*
X-00375Y02164*
X-0037Y02163*
X00633*
X00639Y02164*
X00644Y02167*
X0067Y02193*
X00674Y02191*
Y00801*
X00674Y008*
X00669Y00793*
X00667Y00785*
X00669Y00776*
X00674Y00769*
X00681Y00764*
X0069Y00762*
X00693Y00758*
X00694Y00751*
X00699Y00744*
X00706Y00739*
X00715Y00737*
X00718Y00733*
X00719Y00726*
X00724Y00719*
X00731Y00714*
X00738Y00713*
X00737Y0071*
X00739Y00701*
X00744Y00694*
X00751Y00689*
X00758Y00688*
X00757Y00685*
X00759Y00676*
X00764Y00669*
X00771Y00664*
X00778Y00663*
X00777Y0066*
X00779Y00651*
X00784Y00644*
X00791Y00639*
X00798Y00638*
X00797Y00635*
X00799Y00626*
X00804Y00619*
X00811Y00614*
X0082Y00612*
X00828Y00614*
X00835Y00619*
X0084Y00626*
X00842Y00635*
X0084Y00643*
X00835Y0065*
X00835Y00651*
Y0286*
X00834Y02865*
X0083Y0287*
X00525Y03176*
Y03739*
X00595Y0381*
X00599Y03815*
X006Y03821*
Y04048*
X006Y04049*
X00605Y04056*
X00607Y04065*
X00605Y04073*
X006Y0408*
X00593Y04085*
X00586Y04086*
X00585Y04093*
X0058Y041*
X00573Y04105*
X00566Y04106*
X00565Y04113*
X0056Y0412*
X00553Y04125*
X00546Y04126*
X00545Y04133*
X0054Y0414*
X00533Y04145*
X00526Y04146*
X00525Y04153*
X0052Y0416*
X00513Y04165*
X00505Y04167*
X00501Y04166*
X005Y04173*
X00495Y0418*
X00488Y04185*
X0048Y04187*
X00476Y04186*
X00475Y04193*
X0047Y042*
X00463Y04205*
X00455Y04207*
X0045Y04206*
X00445Y0421*
Y04512*
X0086Y04927*
X01036*
X01039Y04922*
X01038Y04916*
X01033Y04917*
X01025Y04915*
X01018Y0491*
X01013Y04903*
X01011Y04895*
X01013Y04886*
X01014Y04884*
Y0432*
X01015Y04314*
X01019Y04309*
X01064Y04263*
Y04091*
X01058*
Y0415*
X01057Y04155*
X01054Y0416*
X01025Y04189*
X01021Y04192*
X01015Y04193*
X00871*
Y04206*
X00804*
Y04196*
X00696*
Y04206*
X00628*
Y04155*
X00696*
Y04165*
X00804*
Y04155*
X00871*
Y04163*
X01008*
X01028Y04143*
Y04091*
X01009*
Y04034*
X01006Y04031*
X01006*
X00946*
Y03997*
X00923Y03974*
X00887*
Y04019*
X00887Y04022*
Y04031*
X00878*
X00875Y04032*
X00835*
X00832Y04031*
X00823*
Y04022*
X00823Y04019*
Y03974*
X00811Y03963*
X00809Y03959*
X00808Y03954*
Y0394*
X00807*
Y03893*
X00816*
X0082Y03892*
X00839*
X00861Y0387*
X00859Y03866*
X00807*
Y03857*
X00802*
Y03881*
X00745*
X00742Y03885*
Y03885*
Y03944*
X00678*
Y0393*
X00671*
Y03952*
X00629*
Y03927*
X00624Y03921*
X0062Y03916*
X00619Y03911*
Y03898*
X00614Y03893*
X0061Y03888*
X00609Y03882*
Y03673*
X00609Y03673*
X00604Y03666*
X00602Y03657*
X00604Y03649*
X00609Y03642*
X00616Y03637*
X00625Y03635*
X00633Y03637*
X0064Y03642*
X00645Y03649*
X00647Y03657*
X00645Y03666*
X0064Y03673*
X0064Y03673*
Y0381*
X00671*
Y0382*
X00678*
Y03818*
X00738*
X00802*
Y03827*
X00807*
Y03818*
X0087*
X00872Y03814*
Y03804*
X00873Y03798*
X00877Y03792*
X00899Y0377*
X00905Y03767*
X00911Y03765*
X00922*
X00975Y03712*
X00962Y03699*
X00958Y03693*
X00957Y03687*
Y03627*
X0095*
X00945Y03626*
X00941Y03623*
X00938Y03619*
X00937Y03615*
Y03505*
X00936Y03503*
X00933Y03499*
X00932Y03495*
Y03404*
X0093Y034*
X00921*
Y0336*
Y03321*
X0093*
X00939Y0333*
X00951Y03319*
X00962*
X00964Y03314*
X00951Y03301*
Y03276*
X01034*
Y03301*
X01021Y03314*
X01023Y03319*
X01031*
X01041Y03329*
X01051Y03319*
X01081*
X01092Y0333*
X01102Y03321*
X01111*
Y0336*
Y034*
X01102*
X01092Y0339*
X01081Y03401*
Y03612*
X01081Y03613*
X01086Y0362*
X01088Y03628*
X01086Y03637*
X01081Y03644*
X01074Y03649*
X01066Y03651*
X01057Y03649*
X01054Y03647*
X0105Y0365*
X01052Y03657*
X0105Y03666*
X01045Y03673*
X01038Y03678*
X0103Y0368*
X01021Y03678*
X01014Y03673*
X01009Y03666*
X01007Y03657*
X01009Y03649*
X01014Y03642*
X01014Y03641*
Y03623*
X01009Y03622*
X01008Y03623*
X01004Y03626*
X01Y03627*
X00992*
Y0368*
X01007Y03694*
X01071*
X01077Y03696*
X01083Y037*
X01096Y03712*
X01099Y03718*
X01101Y03724*
Y03728*
X01113*
Y03787*
X01118Y03791*
X01119Y03791*
X01126Y03786*
X01135Y03785*
X01143Y03786*
X0115Y03791*
X01155Y03798*
X01157Y03807*
X01155Y03816*
X0115Y03823*
X0115Y03823*
Y03897*
X01155Y03899*
X01474Y03579*
Y03541*
X01474Y0354*
X01469Y03533*
X01467Y03525*
X01469Y03516*
X01474Y03509*
X01481Y03504*
X0149Y03502*
X01498Y03504*
X01505Y03509*
X0151Y03516*
X01512Y03524*
X01514Y03525*
X01515Y03526*
X01519Y03523*
Y0345*
X01505Y03436*
X01502Y03431*
X015Y03425*
Y03401*
X01489Y0339*
X0148Y034*
X01471*
Y0336*
Y03321*
X0148*
X01489Y0333*
X01501Y03319*
X01531*
X01541Y03329*
X01551Y03319*
X01581*
X01591Y03329*
X01601Y03319*
X01631*
X01635Y03323*
X01639Y03321*
Y03304*
X0163Y03295*
X0163Y03295*
X01621Y03293*
X01614Y03288*
X01609Y03281*
X01607Y03273*
X01609Y03264*
X01614Y03257*
X01617Y03254*
X01618Y03249*
X01584Y03215*
X0158Y0321*
X01579Y03205*
Y03199*
X01579Y03199*
X01574Y03192*
X01572Y03183*
X01574Y03175*
X01579Y03168*
X01586Y03163*
X01595Y03161*
X01598Y03158*
Y03141*
X01573*
Y03078*
X01598*
Y0307*
X01595Y03068*
X0159Y03061*
X01588Y03052*
X0159Y03044*
X01595Y03036*
X01602Y03031*
X0161Y0303*
X01612Y0303*
X01617Y03027*
X01617Y03022*
X01613Y03019*
X01573*
Y02955*
X01612*
X01619Y02948*
Y02931*
X01619Y0293*
X01614Y02923*
X01612Y02915*
X01614Y02906*
X01619Y02899*
X01626Y02894*
X01635Y02892*
X01638Y02889*
X01638Y02885*
X01633Y0288*
X01615*
X01609Y02879*
X01604Y02875*
X01592Y02864*
X01589Y02859*
X01588Y02853*
Y02845*
X01573*
Y02782*
X01588*
X01589Y02779*
X01592Y02774*
X01605Y02762*
X01609Y02758*
X01615Y02757*
X01638*
X01639Y02757*
X01646Y02752*
X01655Y0275*
X01659Y02751*
X01664Y02747*
Y02441*
X01459Y02235*
X01455Y0223*
X01454Y02225*
Y01996*
X01279Y0182*
X01275Y01815*
X01274Y0181*
Y00626*
X01274Y00625*
X01269Y00618*
X01267Y0061*
X01269Y00601*
X01274Y00594*
X01281Y00589*
X01289Y00587*
X0129Y00587*
X01293Y00583*
X01292Y0058*
X01294Y00571*
X01299Y00564*
X01306Y00559*
X01315Y00557*
X01323Y00559*
X0133Y00564*
X01335Y00571*
X01337Y0058*
X01335Y00588*
X0133Y00595*
X0133Y00596*
Y01803*
X01505Y01979*
X01509Y01984*
X0151Y0199*
Y02208*
X01715Y02413*
X01719Y02418*
X0172Y02424*
Y02747*
X01725Y02751*
X01729Y0275*
X01731Y02749*
Y02748*
X01814*
Y02786*
X01872*
X01874Y02782*
X01874Y02781*
X01872Y02773*
X01874Y02764*
X01879Y02757*
X01886Y02752*
X01895Y0275*
X01903Y02752*
X0191Y02757*
X01915Y02764*
X01917Y02773*
X01915Y02781*
X01912Y02786*
Y02794*
X01912Y02795*
X01915Y02798*
X01956*
X01961Y02795*
X0197Y02794*
X01978Y02795*
X01985Y028*
X0199Y02807*
X01991Y02812*
X01996Y02813*
X01999Y02811*
Y02231*
X0179Y02021*
X01786Y02016*
X01785Y0201*
Y01831*
X01785Y0183*
X0178Y01823*
X01778Y01815*
X0178Y01806*
X01785Y01799*
X01792Y01794*
X018Y01792*
X01801Y01792*
X01805Y01789*
Y01696*
X01779Y0167*
X01775Y01665*
X01774Y0166*
Y01637*
X01766*
X01742Y01613*
Y01538*
X01766Y01514*
X01813*
X01836Y01537*
X01839Y01538*
X01842Y01537*
X01864Y01514*
X01866*
Y00495*
X01864*
X01842Y00472*
X01839Y00472*
X01836Y00472*
X01813Y00495*
X01805*
Y00563*
X01805Y00564*
X0181Y00571*
X01812Y0058*
X0181Y00588*
X01805Y00595*
X01798Y006*
X0179Y00602*
X01781Y006*
X01774Y00595*
X01769Y00588*
X01767Y0058*
X01769Y00571*
X01774Y00564*
X01774Y00563*
Y00495*
X01766*
X01742Y00471*
Y00396*
X01766Y00373*
X01813*
X01836Y00395*
X01839Y00396*
X01842Y00395*
X01864Y00373*
X01866*
Y00357*
X0185Y00342*
X01721*
X01713Y0034*
X01706Y00335*
X01668Y00298*
X01663Y0029*
X01661Y00282*
Y0026*
X01663Y00251*
X01668Y00244*
X01675Y00239*
X01684Y00237*
X01692Y00239*
X017Y00244*
X01704Y00251*
X01706Y0026*
Y00272*
X01731Y00297*
X0186*
X01868Y00299*
X01875Y00304*
X01904Y00332*
X01909Y00339*
X0191Y00348*
Y00373*
X01912*
X01934Y00395*
X01937Y00396*
X0194Y00395*
X01963Y00373*
X0201*
X02034Y00396*
Y00471*
X0201Y00495*
X01963*
X0194Y00472*
X01937Y00472*
X01934Y00472*
X01912Y00495*
X0191*
Y01514*
X01912*
X01934Y01537*
X01937Y01538*
X0194Y01537*
X01963Y01514*
X0201*
X02034Y01538*
Y01613*
X0201Y01637*
X01963*
X0194Y01614*
X01937Y01614*
X01934Y01614*
X01912Y01637*
X01864*
X01842Y01614*
X01839Y01614*
X01836Y01614*
X01813Y01637*
X01805*
Y01653*
X01831Y01679*
X01834Y01684*
X01835Y0169*
Y01809*
X01839Y01812*
X0184Y01812*
X01848Y01814*
X01855Y01819*
X0186Y01826*
X01862Y01835*
X01861Y01838*
X01868Y01839*
X01875Y01844*
X0188Y01851*
X01882Y0186*
X0188Y01868*
X01875Y01875*
X01875Y01876*
Y0198*
X02084Y02189*
X02088Y02194*
X02089Y022*
Y02751*
X02093Y02754*
X02096Y02752*
X02105Y0275*
X02113Y02752*
X0212Y02757*
X02125Y02764*
X02127Y02773*
X02125Y02781*
X02122Y02786*
Y02875*
X02121Y02881*
X02117Y02887*
X02062Y02942*
Y02954*
X02067Y02955*
X02067Y02955*
X02137Y02885*
Y02829*
X02134Y02824*
X02132Y02816*
X02134Y02807*
X02139Y028*
X02146Y02795*
X02155Y02794*
X02163Y02795*
X0217Y028*
X02175Y02807*
X02177Y02816*
X02175Y02824*
X02172Y02829*
Y02892*
X02171Y02899*
X02167Y02904*
X02097Y02974*
Y02983*
X02102Y02985*
X02112Y02975*
X02118Y02971*
X02125Y0297*
X02155*
X02182Y02942*
Y02873*
X02179Y02868*
X02177Y02859*
X02179Y02851*
X02184Y02843*
X02191Y02839*
X022Y02837*
X02208Y02839*
X0221Y0284*
X02214Y02837*
Y02171*
X02214Y0217*
X02209Y02163*
X02207Y02155*
X02209Y02146*
X02214Y02139*
X02221Y02134*
X0223Y02132*
X02238Y02134*
X02245Y02139*
X0225Y02146*
X02252Y02153*
X02256Y02152*
X02265Y02154*
X02272Y02159*
X02277Y02166*
X02279Y02175*
X02277Y02183*
X02272Y0219*
X02272Y02191*
Y02573*
X02297*
Y02636*
X02272*
Y02787*
X02277Y0279*
X02282Y02788*
X02287Y02787*
X02296*
X02301Y02788*
X0231Y02791*
X02314Y02794*
X02317Y02797*
X02321Y02795*
Y02748*
X02404*
Y02757*
X02417*
X02424Y02749*
Y02696*
X02412*
Y02633*
X02424*
Y02241*
X02423Y0224*
X02418Y02233*
X02417Y02225*
X02418Y02216*
X02423Y02209*
X02431Y02204*
X02439Y02202*
X02448Y02204*
X02455Y02209*
X0246Y02216*
X02461Y02225*
X0246Y02233*
X02455Y0224*
Y02633*
X02471*
Y02696*
X02455*
Y02756*
X02454Y02762*
X0245Y02767*
X02436Y02781*
X02438Y02786*
X02462*
X02464Y02782*
X02464Y02781*
X02463Y02773*
X02464Y02764*
X02469Y02757*
X02477Y02752*
X02485Y0275*
X02494Y02752*
X02496Y02753*
X025Y02751*
Y02696*
X02486*
Y02633*
X025*
Y02216*
X02499Y02215*
X02494Y02208*
X02493Y022*
X02494Y02191*
X02499Y02184*
X02506Y02179*
X02514Y02177*
X02516Y02176*
X02516Y02175*
X02517Y02173*
X02516Y02166*
Y01801*
X02506*
Y01738*
X02516*
Y01688*
X02518Y0168*
X02522Y01674*
X02534Y01662*
X02534Y01661*
X02539Y01654*
X02546Y01649*
X02555Y01647*
X02563Y01649*
X0257Y01654*
X02575Y01661*
X02577Y0167*
X02575Y01678*
X0257Y01685*
X02563Y0169*
X02562Y0169*
X02556Y01696*
Y01738*
X02566*
Y01801*
X02556*
Y02158*
X02572Y02174*
X0258Y02172*
X02588Y02174*
X02594Y02178*
X02599Y02176*
Y01801*
X02573*
Y01738*
X02599*
Y01636*
X02599Y01635*
X02594Y01628*
X02592Y0162*
X02594Y01611*
X02599Y01604*
X02606Y01599*
X02613Y01598*
X02612Y01595*
X02614Y01586*
X02619Y01579*
X02626Y01574*
X02635Y01572*
X02643Y01574*
X0265Y01579*
X02655Y01586*
X02657Y01594*
X02657Y01595*
X02661Y01598*
X02665Y01597*
X02673Y01599*
X0268Y01604*
X02685Y01611*
X02687Y0162*
X02685Y01628*
X0268Y01635*
X0268Y01636*
Y02163*
X02701*
Y02226*
X0268*
Y02298*
X0268Y02299*
X02685Y02306*
X02687Y02315*
X02685Y02323*
X0268Y0233*
X02673Y02335*
X02665Y02337*
X02656Y02335*
X02654Y02334*
X0265Y02336*
Y02353*
X02671*
Y02416*
X02611*
Y024*
X0261*
X02604Y02399*
X02601Y02397*
X026Y02397*
X02591Y02395*
X02584Y0239*
X02579Y02383*
X02577Y02375*
X02579Y02366*
X02584Y02359*
X02591Y02354*
X02593Y02349*
X02592Y02345*
X02594Y02336*
X02599Y02329*
X02599Y02328*
Y02213*
X02594Y02211*
X02588Y02215*
X0258Y02217*
X02571Y02215*
X0257Y02214*
X02565*
X02557Y02213*
X0255Y02209*
X02542Y022*
X02537Y02202*
X02535Y02208*
X02531Y02215*
Y02633*
X02546*
Y02696*
X02531*
Y02808*
X02536Y0281*
X02542Y02804*
X02548Y028*
X02555Y02798*
X02562*
X02567Y02795*
X02575Y02794*
X02584Y02795*
X02591Y028*
X02596Y02807*
X02597Y02816*
X02596Y02824*
X02591Y02832*
X02584Y02836*
X02575Y02838*
X02567Y02836*
X02562Y02833*
X02557Y02838*
Y02847*
X02556Y02853*
X02552Y02859*
X02529Y02882*
X02523Y02886*
X0252Y02886*
X02521Y02891*
X02519Y02899*
X02514Y02906*
X02512Y02908*
Y03075*
X02511Y03082*
X02507Y03087*
X02493Y03101*
X02494Y03106*
X02495Y03106*
X02499Y0311*
X02516*
X02528Y03097*
Y02971*
X02529Y02965*
X02533Y02959*
X02605Y02887*
X0261Y02883*
X02617Y02882*
X02663*
X02678Y02867*
Y02786*
X02674Y02781*
X02673Y02773*
X02674Y02764*
X02679Y02757*
X02687Y02752*
X02695Y0275*
X02704Y02752*
X02711Y02757*
X02716Y02764*
X02717Y02773*
X02716Y02781*
X02712Y02786*
Y02801*
X02717Y02802*
X02719Y028*
X02726Y02795*
X02735Y02794*
X02743Y02795*
X0275Y028*
X02755Y02807*
X02757Y02816*
X02755Y02824*
X02752Y02828*
Y02837*
X02757Y0284*
X0276Y02838*
X02769Y02836*
X02777Y02838*
X0278Y0284*
X02784Y02837*
Y0222*
X02779Y02216*
X02775Y02217*
X02772Y02216*
X02768Y02219*
Y02226*
X02758*
Y02355*
X02756Y02362*
X02752Y02369*
X02738Y02383*
Y02416*
X02678*
Y02353*
X02712*
X02718Y02346*
Y02226*
X02708*
Y02163*
X02768*
Y0217*
X02772Y02173*
X02775Y02172*
X02779Y02173*
X02784Y02169*
Y02151*
X02784Y0215*
X02779Y02143*
X02777Y02135*
X02779Y02126*
X02784Y02119*
X02791Y02114*
X028Y02112*
X02808Y02114*
X02815Y02119*
X0282Y02126*
X02822Y02135*
X0282Y02143*
X02815Y0215*
X02815Y02151*
Y02259*
X0282Y02263*
X02825Y02262*
X02827Y02258*
X02824Y02253*
X02822Y02245*
X02824Y02236*
X02829Y02229*
X02836Y02224*
X02845Y02222*
X02853Y02224*
X0286Y02229*
X02865Y02236*
X02867Y02245*
X02865Y02253*
X0286Y0226*
X0286Y02261*
Y02633*
X02887*
Y02696*
X0286*
Y02788*
X02862Y0279*
X02865Y02791*
X02873Y02788*
X02877Y02787*
X02887*
X02891Y02788*
X029Y02791*
X02904Y02794*
X02904*
X02907Y02797*
X02912Y02795*
Y02748*
X02995*
Y02757*
X03026*
X03045Y02738*
Y02696*
X03032*
Y02633*
X03045*
Y02281*
X03044Y0228*
X03039Y02273*
X03038Y02265*
X03039Y02256*
X03044Y02249*
X03051Y02244*
X0306Y02242*
X03068Y02244*
X03076Y02249*
X0308Y02256*
X03082Y02265*
X0308Y02273*
X03076Y0228*
Y02633*
X03091*
Y02696*
X03076*
Y02745*
X03075Y02745*
X03075Y02746*
X03079Y02751*
X03084Y02752*
X03091Y02757*
X03096Y02764*
X03098Y02773*
X03096Y02781*
X03093Y02786*
Y02794*
X03093Y02795*
X03096Y02798*
X03152*
X03157Y02795*
X03166Y02794*
X03174Y02795*
X03181Y028*
X03186Y02807*
X03188Y02816*
X03186Y02824*
X03181Y02832*
X03174Y02836*
X03166Y02838*
X03157Y02836*
X03152Y02833*
X03097*
X03091Y02839*
X03092Y02843*
X03097Y02851*
X03098Y02859*
X03097Y02868*
X03093Y02873*
Y02907*
X03098Y02912*
X03102Y02918*
X03103Y02924*
Y02935*
X03108Y02937*
X03157Y02887*
X03163Y02883*
X0317Y02882*
X03253*
X03268Y02867*
Y02786*
X03264Y0278*
X03263Y02772*
X03264Y02763*
X03269Y02756*
X03277Y02751*
X03285Y0275*
X03294Y02751*
X03301Y02756*
X03306Y02763*
X03307Y02772*
X03306Y0278*
X03303Y02785*
Y02797*
X03308Y02799*
X03314Y02795*
X03323Y02793*
X03331Y02795*
X03338Y028*
X03343Y02807*
X03345Y02815*
X03343Y02824*
X03343Y02824*
Y02837*
X03348Y0284*
X0335Y02838*
X03359Y02836*
X03367Y02838*
X03375Y02843*
X0338Y0285*
X03381Y02859*
X0338Y02867*
X03378Y02869*
Y0291*
X03383Y02915*
X03385Y02914*
X03518*
X03529Y02903*
Y02471*
X03529Y02471*
X03524Y02463*
X03522Y02455*
X03524Y02446*
X03529Y02439*
X03536Y02434*
X03544Y02433*
X03547Y02428*
X03547Y02428*
X03545Y0242*
X03547Y02411*
X03552Y02404*
X03559Y02399*
X03567Y02397*
X03576Y02399*
X03583Y02404*
X03588Y02411*
X0359Y0242*
X03588Y02428*
X03583Y02435*
X03583Y02436*
Y02885*
X03587Y02888*
X0359Y02887*
X03591Y02887*
X03595Y02884*
Y02434*
X03596Y02428*
X03599Y02423*
X0381Y02212*
X03815Y02209*
X03821Y02208*
X03997*
X04Y02203*
X04Y02201*
X03996Y022*
X03989Y02195*
X03984Y02188*
X03982Y0218*
X03984Y02171*
X03989Y02164*
X03989Y02163*
Y00686*
X03989Y00685*
X03984Y00678*
X03982Y0067*
X03984Y00661*
X03989Y00654*
X03996Y00649*
X04003Y00648*
X04004Y00641*
X04009Y00634*
X04016Y00629*
X04025Y00627*
X04033Y00629*
X0404Y00634*
X04045Y00641*
X04047Y0065*
X04045Y00658*
X0404Y00665*
X0404Y00666*
Y02183*
X0404Y02184*
X04045Y02191*
X04047Y022*
X04046Y02204*
X04049Y02208*
X04233*
X04234Y02208*
X04241Y02203*
X0425Y02201*
X04258Y02203*
X04265Y02208*
X0427Y02215*
X04272Y02223*
X0427Y02232*
X04265Y02239*
X04258Y02244*
X04254Y02245*
X04254Y0225*
X04283*
X04434Y02098*
Y00301*
X04434Y003*
X04429Y00293*
X04427Y00285*
X04429Y00276*
X04434Y00269*
X0444Y00264*
X04438Y0026*
X0443Y00262*
X04421Y0026*
X04414Y00255*
X04409Y00248*
X04407Y0024*
X04404Y00236*
X04378*
Y00184*
X04373Y00181*
X04368Y00182*
X04359Y0018*
X04352Y00175*
X04347Y00168*
X04345Y0016*
X04347Y00151*
X04347Y0015*
X04345Y00146*
X04338*
Y00083*
X04352*
Y-0015*
X04354Y-00156*
X04357Y-00161*
X04426Y-0023*
X04431Y-00233*
X04436Y-00234*
X04565*
Y-00243*
X04648*
Y-00205*
X04706*
X04708Y-00209*
X04709Y-0021*
X04707Y-00219*
X04709Y-00227*
X04713Y-00234*
X04721Y-00239*
X04729Y-00241*
X04738Y-00239*
X04745Y-00234*
X0475Y-00227*
X04751Y-00219*
X0475Y-0021*
X04746Y-00205*
Y-00197*
X04746Y-00197*
X0475Y-00193*
X04806*
X04811Y-00196*
X04819Y-00198*
X04828Y-00196*
X04835Y-00191*
X0484Y-00184*
X04841Y-00175*
X0484Y-00167*
X04835Y-0016*
X04828Y-00155*
X04819Y-00153*
X04811Y-00155*
X04806Y-00158*
X04751*
X04745Y-00152*
X04745Y-00148*
X0475Y-00141*
X04752Y-00132*
X0475Y-00123*
X04747Y-00119*
Y-00084*
X04751Y-00079*
X04755Y-00074*
X04756Y-00067*
Y00083*
X04755Y00089*
X04751Y00095*
X04738Y00109*
X04738Y00114*
X04739Y00114*
X04744Y00117*
X0476*
X04772Y00105*
Y-0002*
X04773Y-00026*
X04777Y-00032*
X04849Y-00104*
X04854Y-00108*
X04861Y-00109*
X04907*
X04922Y-00124*
Y-00205*
X04919Y-0021*
X04917Y-00219*
X04919Y-00227*
X04923Y-00234*
X04931Y-00239*
X04939Y-00241*
X04948Y-00239*
X04955Y-00234*
X0496Y-00227*
X04961Y-00219*
X0496Y-0021*
X04956Y-00205*
Y-00191*
X04961Y-00189*
X04963Y-00191*
X0497Y-00196*
X04978Y-00198*
X04987Y-00196*
X04994Y-00191*
X04999Y-00184*
X05001Y-00175*
X04999Y-00167*
X04996Y-00163*
Y-00153*
X05001Y-00151*
X05004Y-00153*
X05013Y-00154*
X05021Y-00153*
X05028Y-00148*
X05033Y-00141*
X05035Y-00132*
X05033Y-00123*
X05031Y-00121*
Y-00052*
X0503Y-00045*
X05026Y-00039*
X04979Y00007*
X04973Y00011*
X04967Y00012*
X04899*
X04886Y00025*
Y00151*
X04885Y00157*
X04881Y00163*
X04811Y00234*
X04805Y00237*
X04799Y00239*
X04743*
X04738Y00242*
X0473Y00244*
X04721Y00242*
X04714Y00237*
X04709Y0023*
X04707Y00221*
X04709Y00213*
X04714Y00206*
X04718Y00202*
X04719Y00197*
X04714Y00194*
X0471Y00187*
X04708Y00178*
X0471Y0017*
X04714Y00162*
X04719Y00159*
Y00153*
X04714Y0015*
X0471Y00143*
X04708Y00135*
X0471Y00126*
X0471Y00126*
X04708Y00121*
X0464*
Y00084*
X04565*
Y00075*
X04484*
X04476Y00083*
Y00146*
X04463*
Y00191*
X04479Y00208*
X04483Y00213*
X04484Y00218*
X0449Y00217*
X0449Y00217*
X04494Y00214*
Y00176*
X04494Y00175*
X04489Y00168*
X04487Y0016*
X04489Y00151*
X04494Y00144*
X04501Y00139*
X0451Y00137*
X04518Y00139*
X04525Y00144*
X0453Y00151*
X04532Y0016*
X0453Y00168*
X04525Y00175*
X04525Y00176*
Y02155*
X04524Y0216*
X0452Y02165*
X0435Y02335*
X04345Y02339*
X0434Y0234*
X04036*
X04034Y02345*
X0404Y02349*
X04045Y02356*
X04047Y02365*
X04045Y02373*
X0404Y0238*
X04033Y02385*
X04025Y02387*
X04016Y02385*
X04009Y0238*
X04008Y0238*
X03891*
X0377Y02501*
Y03013*
X03769Y03019*
X03765Y03024*
X03639Y0315*
X03634Y03154*
X03628Y03155*
X03505*
X03495Y03165*
Y03355*
X03494Y03361*
X0349Y03366*
X0346Y03396*
Y03658*
X0346Y03659*
X03465Y03666*
X03467Y03675*
X03465Y03683*
X0346Y0369*
X03453Y03695*
X03446Y03696*
X03447Y037*
X03445Y03708*
X0344Y03715*
X03433Y0372*
X03424Y03722*
X03423Y03722*
X03419Y03725*
Y03823*
X035Y03904*
X03504Y03909*
X03505Y03915*
Y04274*
X03504Y0428*
X035Y04285*
X03389Y04397*
X03391Y04399*
X03333Y04456*
X03308Y04431*
X0328Y04403*
X03253Y04376*
X03252Y04375*
X0325Y04372*
X03249Y04371*
X03225Y04347*
X03197Y04319*
X03169Y04291*
X03155Y04277*
X03152Y04275*
X03127Y0425*
X03113Y04236*
X03111Y04233*
X03085Y04208*
X03071Y04194*
X03044Y04166*
X03016Y04138*
X02988Y0411*
X02974Y04096*
X0296Y04083*
X02958Y0408*
X02932Y04055*
X02918Y04041*
X0289Y04013*
X02877Y03999*
X02874Y03997*
X02849Y03971*
X02821Y03943*
X02793Y03916*
X02767Y03889*
X02762Y03891*
Y03978*
X02763Y03979*
X02768Y03986*
X02769Y03995*
X02768Y04003*
X02763Y0401*
X02756Y04015*
X02747Y04017*
X02738Y04015*
X02734Y04012*
X0243*
X02423Y04011*
X02417Y04007*
X02351Y0394*
X02337Y03955*
X02309Y03983*
X02281Y0401*
X02267Y04024*
X02265Y04027*
X02259Y04033*
X02261Y04037*
X02307*
X02311Y04038*
X02315Y04041*
X02318Y04045*
X02319Y0405*
Y041*
X02318Y04104*
X02315Y04108*
X02311Y04111*
X02307Y04112*
X02208*
X02204Y04111*
X022Y04108*
X02197Y04104*
X02197Y04102*
X02191Y041*
X02156Y04136*
X02128Y04164*
X02128*
X02111Y0418*
X02112Y0418*
X02086Y04205*
X02072Y04219*
X02044Y04247*
X02017Y04275*
X01989Y04303*
X01963Y04329*
X01963Y04331*
X01964Y04334*
X01964Y04335*
X0197Y04339*
X01975Y04346*
X01977Y04355*
X01975Y04363*
X0197Y0437*
X01963Y04375*
X01955Y04377*
X01946Y04375*
X01939Y0437*
X01935Y04364*
X01929Y04362*
X0192Y04371*
X01919Y04372*
X01917Y04375*
X01891Y044*
X01863Y04428*
X01836Y04456*
X01778Y04399*
X01792Y04385*
X01818Y04359*
X01845Y04331*
X01848Y04329*
X01864Y04313*
X01854Y04303*
X01814*
X01792Y04325*
X01787Y04329*
X01781Y0433*
X01691*
X01685Y04329*
X0168Y04325*
X0163Y04275*
X01606*
X01587Y04294*
X01614Y04321*
X01444Y04491*
X01368Y04415*
X01444Y0434*
X01394Y0429*
X01382Y04302*
X01337Y04257*
X01382Y04212*
X01427Y04257*
X01415Y04268*
X01465Y04318*
X01538Y04245*
X01565Y04272*
X01589Y04249*
X01594Y04245*
X016Y04244*
X01636*
X01639Y04245*
X01643Y04241*
X01642Y04238*
Y04201*
X01644Y04195*
X01647Y0419*
X01662Y04175*
X01635Y04148*
X01709Y04074*
X0166Y04024*
X01647Y04037*
X01602Y03992*
X01647Y03947*
X01692Y03992*
X01681Y04003*
X01731Y04052*
X01805Y03978*
X01881Y04054*
X01711Y04224*
X01684Y04197*
X01673Y04208*
Y04231*
X01715Y04274*
X01751*
X01774Y04251*
X01779Y04247*
X01785Y04246*
X01864*
X01867Y04242*
X01867Y04241*
X01867Y04241*
X01865Y04239*
X01862Y04234*
X01861Y04228*
Y04146*
X01862Y0414*
X01865Y04135*
X01914Y04086*
Y03904*
X0177Y0376*
X01767Y03755*
X01765Y03749*
Y03596*
X01765Y03595*
X0176Y03588*
X01758Y0358*
X0176Y03571*
X01765Y03564*
X01772Y03559*
X01781Y03557*
X01788Y03559*
X01793Y03556*
Y03332*
X01788Y03329*
X01782Y03331*
X01777Y03332*
X01768*
X01768*
X01765Y03331*
X01763Y03331*
X01755Y03327*
X01754Y03327*
X01749Y0333*
Y03745*
X01748Y0375*
X01745Y03755*
X01685Y03815*
X0168Y03819*
X01674Y0382*
X01586*
X01295Y04111*
Y04245*
Y04496*
X01348Y04549*
X01773*
X0178Y04542*
X01778Y0454*
X01836Y04483*
X0185Y04497*
X01877Y04525*
X01903Y0455*
X01919Y04567*
X01933Y04581*
X01961Y04608*
X01986Y04634*
X01989Y04636*
X02003Y0465*
X02031Y04678*
X02058Y04706*
X02082Y04729*
X02085Y04729*
X02092Y04724*
X02101Y04722*
X02109Y04724*
X02116Y04729*
X02121Y04736*
X02123Y04745*
X02121Y04753*
X02116Y0476*
X02116Y04764*
X02156Y04803*
X02181Y04829*
X02185Y04832*
X02198Y04845*
X02211Y04859*
X02225Y04873*
X02253Y04901*
X02279Y04926*
X02281Y04929*
X02295Y04942*
X02323Y0497*
X02351Y04998*
X02378Y05026*
X02404Y05051*
X02406Y05054*
X02434Y05082*
X02462Y0511*
X02486Y05134*
X02487Y05135*
X0249Y05137*
X02491Y05138*
X02518Y05165*
X02546Y05193*
X02571Y05218*
X02514Y05276*
X02512Y05274*
X025Y05286*
Y05326*
X02499Y05332*
X02495Y05337*
X02475Y05357*
X02478Y05361*
X02492Y05352*
X02514Y05341*
X02538Y05333*
X02562Y05328*
X02587Y05327*
X02612Y05328*
X02636Y05333*
X02659Y05341*
X02682Y05352*
X02702Y05366*
X02709Y05372*
X02714Y0537*
Y05331*
X02657Y05274*
X02655Y05276*
X02598Y05218*
X02623Y05193*
X02651Y05165*
X02678Y05138*
X02679Y05137*
X02682Y05135*
X02683Y05134*
X0271Y05107*
X02735Y05082*
X02737Y05079*
X02763Y05054*
X02791Y05026*
X02818Y04998*
X02846Y0497*
X02874Y04942*
X02902Y04915*
X02932Y04884*
X02958Y04859*
X02971Y04845*
X02974Y04843*
X02999Y04817*
X03002Y04815*
X03016Y04801*
X03041Y04775*
X03069Y04748*
X03097Y0472*
X03125Y04692*
X03152Y04664*
X0318Y04636*
X03207Y04609*
X03209Y04607*
X03225Y04592*
X0325Y04567*
X03264Y04553*
X03266Y0455*
X0328Y04536*
X03306Y04511*
X03333Y04483*
X03391Y0454*
X03365Y04566*
X03338Y04594*
X03335Y04596*
X0331Y04621*
X03296Y04635*
X03269Y04662*
X03267Y04665*
X03263Y04668*
X03264Y0467*
X03266Y04672*
X0327Y04673*
X03274Y04676*
X03322Y04724*
X03324Y04728*
X03325Y04732*
X03324Y04737*
X03323Y04738*
X03322Y04741*
X03291Y04771*
X03287Y04774*
X03283Y04775*
X03278*
X03273Y04774*
X03269Y04771*
X03225Y04727*
X03222Y04723*
X03221Y04719*
Y04717*
X03217Y04715*
X03184Y04747*
X03152Y04779*
X03162Y04789*
X03364*
X0337Y0479*
X03375Y04794*
X03403Y04822*
X03408Y0482*
X03409Y04816*
X03414Y04809*
X03421Y04804*
X0343Y04802*
X03438Y04804*
X03445Y04809*
X03446Y04809*
X04151*
X04384Y04577*
Y03931*
X04383Y03931*
X04378Y03923*
X04377Y03915*
X04378Y03906*
X04383Y03899*
X0439Y03894*
X04399Y03893*
X044Y03893*
X04404Y0389*
Y03856*
X04404Y03855*
X04399Y03848*
X04397Y0384*
X04399Y03831*
X04404Y03824*
X04411Y03819*
X0442Y03817*
X04428Y03819*
X04435Y03824*
X0444Y03831*
X04441Y03837*
X04449Y03839*
X04456Y03844*
X04461Y03851*
X04463Y0386*
X04462Y03862*
X0447Y03864*
X04478Y03869*
X04483Y03876*
X04484Y03883*
X04484Y03885*
X04488Y03888*
X04492Y03889*
X045Y03894*
X04504Y03901*
X04506Y0391*
X04506Y03912*
X04513Y03914*
X0452Y03919*
X04525Y03926*
X04527Y03935*
X04525Y03943*
X0452Y0395*
X0452Y03951*
Y0424*
X04524Y04243*
X04526Y04242*
X04534Y04244*
X04541Y04249*
X04546Y04256*
X04547Y04262*
X04555Y04264*
X04563Y04269*
X04567Y04276*
X04568Y04277*
X04573Y04277*
Y03816*
X04546Y0379*
X04543Y03785*
X04542Y03779*
Y0374*
X04537Y03733*
X04536Y03725*
X04537Y03716*
X04542Y03709*
Y03673*
X04473Y03604*
X04469Y03599*
X04468Y03593*
Y03521*
X04437Y0349*
X04074*
X04074Y0349*
X04066Y03495*
X04058Y03497*
X04049Y03495*
X04042Y0349*
X04037Y03483*
X04036Y03475*
X04036Y0347*
X04032Y03465*
X04023*
X04018Y03464*
X04013Y03461*
X03997Y03445*
X03994Y03441*
X03993Y03441*
X03989Y03443*
Y03484*
X03997Y03493*
X03998*
Y03493*
X04Y03496*
X04003Y035*
X04004Y03505*
Y03615*
X04003Y03619*
X04002Y03621*
Y03624*
X04058Y03681*
X04061Y03685*
X04062Y0369*
Y04137*
X04061Y04142*
X04058Y04146*
X04054Y04148*
X0405Y04149*
X03942*
X03937Y04148*
X03933Y04146*
X0393Y04142*
X03929Y04137*
Y03615*
Y03521*
Y03505*
X03928Y03503*
X03925Y03499*
X03924Y03495*
Y03404*
X03922Y034*
X03913*
Y0336*
Y03321*
X03922*
X03931Y0333*
X03943Y03319*
X03954*
X03956Y03314*
X03943Y03301*
Y03276*
X04026*
Y03301*
X04013Y03314*
X04015Y03319*
X04023*
X04033Y03329*
X04043Y03319*
X04073*
X04084Y0333*
X04094Y03321*
X04103*
Y0336*
Y034*
X04094*
X04084Y0339*
X04073Y03402*
X04043*
X04033Y03392*
X04023Y03401*
Y03428*
X0403Y03435*
X04454*
X0446Y03436*
X04465Y03439*
X04514Y03489*
X04519Y03487*
Y03471*
X04497Y03449*
X04494Y03444*
X04493Y03438*
Y03401*
X04481Y0339*
X04472Y034*
X04463*
Y0336*
Y03321*
X04472*
X04481Y0333*
X04493Y03319*
X04523*
X04533Y03329*
X04543Y03319*
X04573*
X04583Y03329*
X04593Y03319*
X04623*
X04638Y03333*
Y03387*
X04623Y03401*
Y03439*
X04622Y03445*
X04619Y03449*
X046Y03468*
Y03517*
X04744Y03661*
X04748Y03666*
X04749Y03672*
Y03785*
X04754Y03788*
X0476Y03787*
X04764Y03788*
X04769Y03784*
Y03571*
X04649Y0345*
X04645Y03445*
X04644Y0344*
Y02506*
X04639Y02505*
X04635Y0251*
X0456Y02585*
X04553Y0259*
X04545Y02592*
X03864*
Y02855*
X03863Y02863*
X03858Y0287*
X03851Y02875*
X03842Y02877*
X03833Y02875*
X03826Y0287*
X03821Y02863*
X0382Y02855*
Y02589*
X03814Y02585*
X03809Y02578*
X03807Y0257*
X03809Y02561*
X03814Y02554*
X03821Y02549*
X0383Y02547*
X04535*
X04597Y02485*
Y02205*
X04599Y02196*
X04604Y02189*
X04682Y0211*
Y01919*
X04667Y01904*
X04662Y01897*
X04661Y01888*
Y01758*
X04614Y0171*
X04587Y01683*
X04582Y01676*
X0458Y01668*
Y015*
X04582Y01492*
X04587Y01484*
X04661Y0141*
Y01141*
X04662Y01133*
X04667Y01125*
X04697Y01096*
Y0083*
Y0082*
X04699Y00811*
X04704Y00804*
X04858Y0065*
Y00495*
X04856*
X04834Y00472*
X04831Y00472*
X04828Y00472*
X04805Y00495*
X04797*
Y00633*
X04797Y00634*
X04802Y00641*
X04804Y0065*
X04802Y00658*
X04797Y00665*
X0479Y0067*
X04782Y00672*
X04773Y0067*
X04766Y00665*
X04761Y00658*
X04759Y0065*
X04761Y00641*
X04766Y00634*
X04766Y00633*
Y00495*
X04758*
X04734Y00471*
Y00396*
X04758Y00373*
X04805*
X04828Y00395*
X04831Y00396*
X04834Y00395*
X04849Y0038*
X04805Y00337*
X04703*
X04695Y00335*
X04687Y0033*
X0466Y00303*
X04655Y00296*
X04653Y00287*
Y0026*
X04655Y00251*
X0466Y00244*
X04667Y00239*
X04676Y00237*
X04684Y00239*
X04692Y00244*
X04697Y00251*
X04698Y0026*
Y00278*
X04713Y00292*
X04815*
X04823Y00294*
X0483Y00299*
X04869Y00337*
X04874Y00335*
X04874Y00333*
X04877Y00327*
X04881Y00321*
X04887Y00317*
X04893Y00314*
X049Y00314*
X0521*
X05216Y00314*
X05223Y00317*
X05228Y00321*
X05403Y00496*
X05407Y00502*
X0541Y00508*
X05411Y00515*
Y02205*
X0541Y02211*
X05407Y02218*
X05403Y02223*
X05208Y02418*
X05203Y02422*
X05196Y02425*
X0519Y02426*
X04895*
X04853Y02468*
Y02602*
X04989*
X05005Y02586*
X05003Y02582*
X0494*
X04935Y02581*
X04931Y02578*
X0493*
Y02577*
X04928Y02574*
X04927Y0257*
Y02538*
X04928Y02533*
X04931Y02529*
X04935Y02527*
X0494Y02526*
X05044*
X05046Y02521*
X05044Y02517*
X05041Y02511*
X0504Y02504*
X05041Y02498*
X05044Y02491*
X05048Y02486*
X05053Y02482*
X05059Y02479*
X05066Y02478*
X05093*
X05095Y02479*
X05168*
Y02514*
X05173Y02515*
X05176Y02511*
X05181Y02506*
X05185Y02503*
X0519Y02502*
X0533*
X05334Y02503*
X05338Y02506*
X05341Y0251*
X05342Y02515*
Y0257*
X05341Y02574*
X05338Y02578*
X05334Y02581*
X0533Y02582*
X05196*
X05184Y02594*
X05188Y02599*
X05349*
Y02514*
X05349Y02513*
X05347Y02504*
X05349Y02496*
X05354Y02489*
X05361Y02484*
X05369Y02482*
X05378Y02484*
X05385Y02489*
X0539Y02496*
X05392Y02504*
X0539Y02513*
X05389Y02514*
Y02599*
X054*
X05404Y026*
X05408Y02602*
X05428Y02622*
X056*
X05605Y02623*
X05609Y02626*
X05638Y02655*
X05641Y02659*
X05642Y02664*
Y03025*
X05641Y03029*
X05638Y03033*
X05634Y03036*
X0563Y03037*
X05175*
X0517Y03036*
X05166Y03033*
X05163Y03029*
X05162Y03025*
Y0282*
X05116*
Y0277*
X05113*
Y02719*
X05124*
Y02661*
X0512Y02658*
X0512Y02658*
X05103*
X05077Y02685*
Y0277*
X05076Y02774*
X05073Y02778*
X05069Y02781*
X05065Y02782*
X05007*
Y02816*
X05006Y02821*
X05003Y02824*
X04987Y02841*
Y02965*
X04991Y02967*
X05004Y02955*
X05019*
Y03014*
Y03073*
X05004*
X04991Y0306*
X04987Y03062*
Y0311*
X04986Y03114*
X04983Y03118*
X04979Y03121*
X04975Y03122*
X04815*
X0481Y03121*
X04806Y03118*
X04803Y03114*
X04802Y0311*
Y02663*
X04802Y02662*
X04801Y02655*
Y02457*
X04802Y0245*
X04804Y02444*
X04809Y02439*
X04866Y02381*
X04872Y02377*
X04878Y02374*
X04885Y02373*
X05179*
X05358Y02194*
Y00525*
X05199Y00366*
X04906*
X04903Y00371*
X04904Y00373*
X04926Y00395*
X04929Y00396*
X04932Y00395*
X04955Y00373*
X05002*
X05026Y00396*
Y00471*
X05002Y00495*
X04955*
X04932Y00472*
X04929Y00472*
X04926Y00472*
X04904Y00495*
X04902*
Y00659*
X04901Y00668*
X04896Y00675*
X04742Y00829*
Y01105*
X0474Y01114*
X04735Y01121*
X04706Y01151*
Y0142*
X04704Y01428*
X04699Y01435*
X04625Y0151*
Y01658*
X04645Y01679*
X04699Y01732*
X04704Y0174*
X04706Y01748*
Y01755*
Y01879*
X0472Y01894*
X04724Y01899*
X04729Y01898*
Y01871*
X0473Y01866*
X04734Y01861*
X04735Y0186*
X04734Y01854*
X04729Y0185*
X04724Y01843*
X04722Y01835*
X04724Y01826*
X04729Y01819*
X04736Y01814*
X04745Y01812*
X04745Y01812*
X04766Y01791*
Y01637*
X04758*
X04734Y01613*
Y01538*
X04758Y01514*
X04805*
X04828Y01537*
X04831Y01538*
X04834Y01537*
X04856Y01514*
X04904*
X04926Y01537*
X04929Y01538*
X04932Y01537*
X04955Y01514*
X05002*
X05026Y01538*
Y01613*
X05002Y01637*
X04955*
X04932Y01614*
X04929Y01614*
X04926Y01614*
X04904Y01637*
X04856*
X04834Y01614*
X04831Y01614*
X04828Y01614*
X04805Y01637*
X04797*
Y01791*
X04802Y01793*
X04861Y01734*
X04866Y0173*
X04871Y01729*
X04983*
X05074Y01638*
Y01031*
X05075Y01026*
X05079Y01021*
X05179Y0092*
Y00711*
X05178Y0071*
X05173Y00703*
X05172Y00695*
X05173Y00686*
X05178Y00679*
X05186Y00674*
X05194Y00672*
X05203Y00674*
X0521Y00679*
X05215Y00686*
X05216Y00693*
X05223Y00694*
X0523Y00699*
X05235Y00706*
X05236Y00713*
X05243Y00714*
X0525Y00719*
X05255Y00726*
X05257Y00735*
X05256Y00738*
X05263Y00739*
X0527Y00744*
X05275Y00751*
X05277Y0076*
X05276Y00763*
X05283Y00764*
X0529Y00769*
X05295Y00776*
X05297Y00785*
X05295Y00793*
X0529Y008*
X0529Y00801*
Y0096*
X05289Y00965*
X05285Y0097*
X05185Y01071*
Y0172*
X05184Y01725*
X0518Y0173*
X0505Y0186*
X05045Y01864*
X0504Y01865*
X04948*
X04882Y01931*
Y02218*
X0488Y02224*
X04877Y02229*
X0479Y02316*
Y03378*
X04875Y03464*
X04879Y03469*
X0488Y03475*
Y03918*
X0488Y03919*
X04885Y03926*
X04887Y03935*
X04885Y03943*
X0488Y0395*
X04873Y03955*
X04865Y03957*
X04856Y03955*
X04849Y0395*
X04844Y03943*
X04842Y03935*
X04843Y03931*
X04836Y0393*
X04829Y03925*
X04824Y03918*
X04822Y0391*
X04823Y03906*
X04816Y03905*
X04809Y039*
X04804Y03893*
X04802Y03885*
X04803Y03881*
X04796Y0388*
X04789Y03875*
X04784Y03868*
X04783Y03864*
X04779Y03863*
X04775Y03866*
Y04775*
X04774Y0478*
X0477Y04785*
X04195Y0536*
X0419Y05364*
X04185Y05365*
X03061*
X0297Y05455*
X02965Y05459*
X0296Y0546*
X028*
X02794Y05459*
X02789Y05455*
X02758Y05425*
X02754Y05428*
X02762Y05444*
X0277Y05468*
X02774Y05489*
X02775Y05492*
X02775Y05494*
X02776Y055*
X02781Y05522*
X0279Y05543*
X02802Y05563*
X02816Y0558*
X0282Y05583*
X05142*
X05147*
G37*
G36*
X04263Y05102D02*
X04261Y05097D01*
X03015*
X03009Y05095*
X03004Y05092*
X02922Y05009*
X02906Y05025*
X02878Y05053*
X0285Y05081*
X02823Y05109*
X02796Y05135*
X02795Y05141*
Y05142*
X02796Y05143*
X02799Y05143*
X02803Y05146*
X02806Y05148*
X02807Y05149*
X02808Y0515*
X02814Y05157*
X0284*
X02844Y05158*
X02848Y0516*
X02848Y05161*
X02849*
Y05161*
X02851Y05164*
X02852Y05169*
Y05205*
X02856Y05209*
X03413*
X03414Y05209*
X03421Y05204*
X0343Y05202*
X03438Y05204*
X03445Y05209*
X0345Y05216*
X03452Y05225*
X03452Y05225*
X03455Y05229*
X04136*
X04263Y05102*
G37*
G36*
X0284Y05205D02*
Y05169D01*
X02809*
X02795Y05155*
X0278*
X02755Y0518*
Y0519*
X02775Y0521*
X02835*
X0284Y05205*
G37*
G36*
X02144Y05129D02*
X02149Y05125D01*
X02155Y05124*
X02201*
X02206Y05123*
Y05077*
X02205*
Y0503*
X02206*
X02207Y05025*
X02209Y05021*
X02228Y05003*
X02231Y05001*
X02232Y05*
X02233Y04995*
X02224Y04986*
X02222Y04984*
X02217*
X02101Y051*
X02096Y05104*
X0209Y05105*
X01915*
X01911Y0511*
X01911Y05115*
X01911Y05118*
X01914Y05122*
X0205*
X0205Y05121*
X02058Y05116*
X02066Y05115*
X02075Y05116*
X02082Y05121*
X02087Y05128*
X02089Y05137*
X02088Y0514*
X02091Y05144*
X02128*
X02144Y05129*
G37*
G36*
X023Y05084D02*
Y05061D01*
X02251Y05012*
X02236*
X02218Y0503*
Y05125*
X0226*
X023Y05084*
G37*
G36*
X03284Y05061D02*
X0323Y05007D01*
X03095*
X03091Y05012*
X03092Y05015*
Y05065*
X03093Y05066*
X03282*
X03284Y05061*
G37*
G36*
X0308Y05015D02*
X03015D01*
X02974Y04973*
X02958Y04973*
X02956*
X02942Y04987*
X02942Y04992*
X02948Y04997*
X03016Y05065*
X0308*
Y05015*
G37*
G36*
X01906Y04922D02*
X01904Y0492D01*
X01899Y04913*
X01898Y04907*
X01893Y04904*
X0189Y04904*
X01881Y04903*
X01874Y04898*
X01869Y04891*
X01867Y04882*
X01869Y04873*
X01874Y04866*
X01874Y04866*
Y04817*
X01875Y04811*
X01879Y04806*
X01961Y04723*
X01931Y04694*
X01929Y04691*
X01907Y04669*
X01902Y04675*
Y0472*
X01901Y04724*
X01898Y04728*
X01863Y04763*
X01859Y04766*
X01856Y04766*
X01853Y04769*
X01851Y04767*
X01847Y04766*
X01843Y04763*
X01784Y04705*
X01781Y04701*
X01781Y04696*
Y04696*
X01777Y04692*
X01781Y04688*
X01781Y04687*
X01784Y04683*
X0184Y04627*
X01843Y04625*
X01848Y04624*
X01855*
X01857Y04619*
X01844Y04606*
X01814Y04635*
X01809Y04639*
X01803Y0464*
X01275*
X01269Y04639*
X01264Y04635*
X01194Y04565*
X0119Y0456*
X01189Y04555*
Y04353*
X01189Y04353*
X01184Y04351*
X01145Y04391*
Y04538*
X01145Y04539*
X0115Y04546*
X01152Y04555*
X0115Y04563*
X01145Y0457*
X01138Y04575*
X0113Y04577*
X01126Y04576*
X01125Y04583*
X0112Y0459*
X01113Y04595*
X01105Y04597*
X01101Y04596*
X011Y04603*
X01095Y0461*
X01088Y04615*
X0108Y04616*
X01075Y04615*
X0107Y04619*
Y04895*
X01075Y04899*
X0108Y04906*
X01082Y04915*
X0108Y04922*
X01083Y04927*
X01905*
X01906Y04922*
G37*
G36*
X02049Y04923D02*
X02048Y0492D01*
X0205Y04911*
X02054Y04904*
X02055Y04903*
Y04859*
X02056Y04853*
X02059Y04848*
X02072Y04835*
X02054Y04816*
X02035Y04835*
X0204Y04839*
X02Y04878*
X01967Y04845*
X02006Y04805*
X02011Y0481*
X02029Y04791*
X02011Y04773*
X01935Y04849*
Y04888*
X01935Y04889*
X0194Y04896*
X01942Y04905*
X0194Y04913*
X01935Y0492*
X01933Y04922*
X01934Y04927*
X02045*
X02049Y04923*
G37*
G36*
X03283Y04763D02*
X03313Y04732D01*
X03265Y04685*
X03248*
X03233Y047*
Y04719*
X03278Y04763*
X03283*
G37*
G36*
X0189Y0472D02*
Y0467D01*
X019Y0466*
X01876Y04636*
X01848*
X01793Y04691*
Y04696*
X01851Y04755*
X01855*
X0189Y0472*
G37*
G36*
X03354Y04221D02*
Y04076D01*
X03349Y04074*
X03326Y04098*
X03327Y04104*
X0333Y04106*
X03335Y04114*
X03337Y04122*
X03335Y04131*
X0333Y04138*
X03323Y04143*
X03322Y04143*
X03299Y04166*
Y04204*
X03304Y04206*
X03306Y04205*
X03338Y04237*
X03354Y04221*
G37*
G36*
X02307Y04053D02*
Y0405D01*
X02247*
X02208Y04088*
Y041*
X02307*
Y04053*
G37*
G36*
X03189Y04052D02*
X03223Y04018D01*
Y0397*
X03189Y03935*
X03185Y0393*
X03184Y03925*
Y03911*
X03184Y0391*
X03179Y03903*
X03177Y03895*
X03179Y03886*
X03184Y03879*
X03191Y03874*
X03198Y03873*
X03199Y03866*
X03204Y03859*
X03211Y03854*
X0322Y03852*
X03224Y03853*
X03229Y03849*
Y03486*
X03184Y0344*
X0318Y03435*
X03179Y0343*
Y0339*
X03163*
Y03465*
X03167Y03469*
X03172Y03482*
X03174Y03497*
X03172Y03511*
X03167Y03525*
X03158Y03536*
X03146Y03545*
X03133Y03551*
X03118Y03553*
X03104Y03551*
X0309Y03545*
X03079Y03536*
X0307Y03525*
X03064Y03511*
X03062Y03497*
X03064Y03482*
X0307Y03469*
X03079Y03457*
X0309Y03449*
X03104Y03443*
X03118Y03441*
X03118Y03441*
Y0339*
X03099*
Y03352*
X03039*
X03Y03392*
Y03508*
X03Y03509*
X03005Y03516*
X03007Y03525*
X03005Y03533*
X03Y0354*
X02993Y03545*
X02985Y03547*
X02976Y03545*
X02969Y0354*
X02964Y03533*
X02962Y03525*
X02963Y03523*
X02958Y03521*
X02946Y03533*
Y03593*
X02958*
Y03656*
X02921*
X02872Y03705*
Y0374*
X02888Y03757*
X02889Y03757*
X02889Y03757*
X0289Y03759*
X02891Y0376*
X02891Y03761*
X02891Y03761*
X02892Y03763*
X02892Y03765*
X02892Y03765*
X02892Y03765*
X02892Y0377*
X02892Y0377*
X02892Y0377*
X02892Y03773*
X02891Y03775*
X02891Y03775*
X02891Y03775*
X0289Y03777*
X02889Y03779*
X02889Y03779*
X02889Y03779*
X02834Y03833*
X02833Y03834*
X02832Y0384*
X0285Y03858*
X02878Y03886*
X02906Y03914*
X02931Y03939*
X02934Y03942*
X02935Y03943*
X02962Y0397*
X0299Y03997*
X03003Y04011*
X03028Y04036*
X03034Y04034*
X03034Y04033*
X03039Y04026*
X03037Y04024*
X03076Y03985*
X0311Y04018*
X03071Y04058*
X0307Y04057*
X03063Y04062*
X03061Y04062*
X0306Y04065*
X0306Y04068*
X03087Y04095*
X03117Y04124*
X03189Y04052*
G37*
G36*
X03284Y04038D02*
Y04001D01*
X03258Y03975*
X03253Y03977*
Y04025*
X03252Y0403*
X03249Y04035*
X0321Y04074*
X03192Y04092*
X03211Y04111*
X03284Y04038*
G37*
G36*
X0216Y04025D02*
Y04015D01*
X02102Y03957*
X02073Y03986*
X02129Y04041*
X02143*
X0216Y04025*
G37*
G36*
X01012Y04026D02*
X01013Y04025D01*
Y03968*
X01045*
X01069Y03943*
Y03918*
X01094*
X01119Y03894*
Y03823*
X01119Y03823*
X01114Y03816*
X01112Y03807*
X01114Y03798*
X01117Y03795*
X01113Y03791*
X01054*
Y03729*
X01046*
Y03788*
Y03851*
X00987*
X00983Y03853*
X00978Y03856*
X00973Y03857*
Y03866*
X00912*
X00909Y03866*
X00906Y03869*
X00906Y03873*
X00902Y03878*
X00872Y03908*
Y03934*
X00909*
Y03893*
X00973*
Y03924*
X00979*
Y03918*
X0103*
Y0396*
X00979*
Y03955*
X00967*
X00965Y0396*
X00973Y03968*
X01006*
Y04023*
X0101Y04026*
X01012Y04026*
G37*
G36*
X00875Y03969D02*
X0086Y03954D01*
Y03904*
X0082*
Y03954*
X00835Y03969*
Y04019*
X00875*
Y03969*
G37*
G36*
X02238Y03946D02*
Y0393D01*
X02211*
X02183Y03901*
X0215Y03934*
Y03978*
X02176Y04005*
X0218*
X02238Y03946*
G37*
G36*
X02054Y04123D02*
X02055Y04123D01*
X0206*
X02073Y0411*
X02073Y04109*
X02071Y04106*
X02085Y04092*
X0212Y04056*
X0212Y0405*
X0212Y0405*
X02064Y03994*
X02062Y0399*
X02061Y03986*
X02062Y03981*
X02064Y03977*
X02086Y03955*
Y03946*
X02088Y03939*
X02092Y03932*
X02114Y03911*
X02095Y03892*
X0214Y03847*
X02184Y03802*
X02229Y03847*
X022Y03877*
Y03901*
X02216Y03917*
X02238*
X02241Y03918*
X02243Y03915*
X02243Y03913*
X0224Y03909*
X02239Y03903*
Y0384*
X02189Y0379*
X01982*
X01976Y03789*
X01971Y03785*
X01876Y0369*
X01871Y03692*
X01871Y03695*
X02014Y03838*
X02017Y03843*
X02018Y03849*
Y03869*
X02022Y03872*
X02024Y03872*
X02032Y03874*
X02039Y03879*
X02044Y03886*
X02046Y03895*
X02044Y03903*
X02039Y0391*
X02039Y03911*
Y04131*
X02044Y04133*
X02054Y04123*
G37*
G36*
X02727Y03878D02*
X02728Y03871D01*
X02732Y03866*
X02738Y0386*
X02723Y03846*
X02721Y03843*
X02705Y03828*
X02669Y03864*
X02669Y03865*
X02667Y03873*
X02662Y0388*
X02655Y03885*
X02647Y03887*
X02638Y03885*
X02631Y0388*
X0263Y03879*
X02625Y0388*
Y03905*
X02624Y0391*
X02622Y03913*
X02622Y03915*
X0262Y03923*
X02615Y0393*
X02608Y03935*
X026Y03937*
X02591Y03935*
X02586Y03931*
X02582Y03935*
X02583Y03936*
X02584Y03945*
X02583Y03953*
X02578Y0396*
X02571Y03965*
X02562Y03967*
X02553Y03965*
X02546Y0396*
X02545Y03959*
X02543Y0396*
X02535Y03962*
X02526Y0396*
X02519Y03955*
X02514Y03948*
X02512Y0394*
X02512Y03939*
X02505Y03932*
X02491*
X02485Y03931*
X0248Y03927*
X02422Y03869*
X02406Y03885*
X02376Y03916*
X02437Y03977*
X02727*
Y03878*
G37*
G36*
X0288Y0377D02*
X0288Y03765D01*
X0286Y03746*
X02802Y03805*
Y03811*
X02815Y03825*
X02826*
X0288Y0377*
G37*
G36*
X0405Y0369D02*
X0399Y0363D01*
Y03615*
X03992*
Y03505*
X03977Y0349*
Y034*
X03937*
Y03495*
X03942Y035*
Y03521*
Y04137*
X0405*
Y0369*
G37*
G36*
X01Y03505D02*
X00985Y0349D01*
Y034*
X00945*
Y03495*
X0095Y035*
Y03615*
X01*
Y03505*
G37*
G36*
X00048Y03635D02*
X00014Y036D01*
X0001Y03595*
X00009Y0359*
Y03366*
X-00001Y03355*
X-0008*
X-00083Y03354*
X-00088Y03357*
Y03387*
X-00103Y03402*
X-00133*
X-00143Y03391*
X-00153Y03402*
X-00176*
X-00179Y03406*
X-00179Y03406*
Y03495*
X-00035Y03639*
X00046*
X00048Y03635*
G37*
G36*
X02388Y03789D02*
X02416Y03761D01*
X02419Y03758*
X02433Y03744*
X02458Y03719*
X02486Y03691*
X02514Y03663*
X02571Y03721*
X02555Y03736*
X02614Y03795*
X02617Y038*
X02618Y03806*
X02621Y03808*
X02625Y03807*
X02626Y03807*
X02656Y03778*
X02626Y03748*
X02598Y03721*
X02655Y03663*
X02669Y03677*
X02697Y03705*
X02711Y03719*
X02725Y03733*
X0275Y03758*
X02778Y03786*
X02781Y03789*
X02782Y0379*
X02789Y03797*
X02793Y03796*
X02837Y03752*
Y03698*
X02838Y03692*
X02842Y03686*
X02898Y0363*
Y03593*
X02911*
Y03526*
X02912Y03519*
X02916Y03514*
X0294Y0349*
Y03349*
X02941Y03343*
X02945Y03337*
X03005Y03277*
Y03265*
X03002Y0326*
X03Y03252*
X03002Y03243*
X03007Y03236*
X03014Y03231*
X03022Y03229*
X03031Y03231*
X03038Y03236*
X03043Y03243*
X03045Y03252*
X03043Y0326*
X0304Y03265*
Y03284*
X03038Y03291*
X03035Y03296*
X03031Y033*
X03033Y03305*
X03108*
Y03342*
X03179*
Y03141*
X03175Y03139*
X03157Y03157*
Y03183*
X03156Y0319*
X03152Y03195*
X03122Y03226*
X03116Y03229*
X03109Y03231*
X03089*
X03084Y03234*
X03076Y03236*
X03067Y03234*
X0306Y03229*
X03055Y03222*
X03054Y03213*
X03055Y03205*
X0306Y03198*
X03065Y03195*
X03065Y03189*
X03061Y03186*
X03056Y03179*
X03054Y0317*
X03056Y03162*
X03061Y03154*
X03065Y03152*
Y03145*
X03061Y03143*
X03056Y03135*
X03054Y03127*
X03056Y03118*
X03056Y03118*
X03054Y03113*
X02986*
Y03076*
X02912*
Y03067*
X02902*
Y03083*
X02838*
Y03067*
X02837*
X02831Y03066*
X02826Y03063*
X02819Y03056*
X02815Y03058*
Y03151*
X02845Y03181*
X02849Y03178*
X02847Y03173*
X02846Y03168*
Y03159*
X02847Y03154*
X02851Y03145*
X02853Y03141*
X0286Y03135*
X02864Y03132*
X02873Y03128*
X02877Y03127*
X02887*
X02891Y03128*
X029Y03132*
X02904Y03135*
X02904*
X02911Y03141*
X02913Y03145*
X02917Y03154*
X02918Y03159*
Y03168*
X02917Y0317*
X02917Y03173*
X02915Y03177*
X02919Y0318*
X02921Y03179*
X0293Y03177*
X02938Y03179*
X02945Y03184*
X0295Y03191*
X02952Y032*
X0295Y03208*
X02945Y03215*
X02938Y0322*
X0293Y03222*
X02921Y0322*
X02914Y03215*
X02913Y03215*
X02842*
X02836Y03214*
X02831Y0321*
X02789Y03168*
X02785Y03163*
X02784Y03157*
Y02957*
X02779Y02955*
X02735Y02999*
X02729Y03003*
X02723Y03004*
X02655*
X02642Y03017*
Y03143*
X02641Y0315*
X02637Y03155*
X02567Y03226*
X02561Y03229*
X02555Y03231*
X02499*
X02494Y03234*
X02485Y03236*
X02477Y03234*
X0247Y03229*
X02465Y03222*
X02463Y03213*
X02465Y03205*
X0247Y03198*
X02474Y03195*
X02474Y03189*
X0247Y03186*
X02466Y03179*
X02464Y0317*
X02466Y03162*
X0247Y03154*
X02475Y03152*
Y03145*
X0247Y03143*
X02466Y03135*
X02464Y03127*
X02466Y03118*
X02466Y03118*
X02464Y03113*
X02396*
Y03076*
X02321*
Y03067*
X02284*
X02278Y03066*
X02273Y03063*
X0225Y0304*
X02245Y03042*
Y03068*
X02256Y03079*
X02259Y03084*
X02261Y0309*
Y03136*
X02266Y03138*
X02269Y03135*
X02273Y03132*
X02282Y03128*
X02287Y03127*
X02296*
X02301Y03128*
X0231Y03132*
X02314Y03135*
X0232Y03141*
X02323Y03145*
X02326Y03154*
X02326*
X02327Y03159*
Y03168*
X02327Y0317*
X02326Y03173*
X02326*
X02323Y03181*
X0232Y03185*
X02314Y03192*
X02312Y03193*
X02313Y03198*
X0232*
X02342Y03176*
X02347Y03173*
X02353Y03172*
X02373*
X02374Y03171*
X02381Y03166*
X0239Y03165*
X02398Y03166*
X02405Y03171*
X0241Y03178*
X02412Y03187*
X0241Y03195*
X02405Y03203*
X02398Y03207*
X0239Y03209*
X02381Y03207*
X02374Y03203*
X02373Y03202*
X02359*
X02337Y03224*
X02332Y03228*
X02326Y03229*
X02268*
X02263Y03228*
X02258Y03224*
X02234Y03201*
X02231Y03196*
X0223Y0319*
Y03097*
X02219Y03085*
X02215Y0308*
X02214Y03075*
Y02966*
X02209Y02964*
X02174Y02999*
X02169Y03003*
X02162Y03004*
X02132*
X02127Y03009*
Y03175*
X02126Y03181*
X02122Y03187*
X02082Y03227*
X02076Y03231*
X0207Y03232*
X02013*
X02008Y03235*
X02Y03237*
X01991Y03235*
X01984Y0323*
X01979Y03223*
X01977Y03215*
X01979Y03206*
X01984Y03199*
X0199Y03195*
X0199Y03194*
Y0319*
X0199Y03189*
X01984Y03185*
X01979Y03178*
X01977Y0317*
X01979Y03161*
X01984Y03154*
X01988Y03151*
Y03145*
X01984Y03143*
X0198Y03137*
X01974Y03136*
X0195Y0316*
Y03634*
X02021Y03704*
X02238*
X02244Y03705*
X02249Y03709*
X02359Y03818*
X02388Y03789*
G37*
G36*
X01861Y03245D02*
Y0313D01*
X01862Y03124*
X01865Y03119*
X01866Y03118*
X01864Y03113*
X01805*
Y03076*
X01731*
Y03075*
X0173Y03074*
X01725Y03073*
X0172Y03077*
Y03156*
X01774Y0321*
X01813*
X01819Y03211*
X01824Y03215*
X01856Y03247*
X01861Y03245*
G37*
G36*
X03068Y02973D02*
X02986D01*
Y02936*
X02912*
Y02927*
X02871*
X02865Y02926*
X0286Y02923*
X02844Y02907*
X0284Y02909*
Y03023*
X02902*
Y03037*
X02912*
Y03028*
X02995*
Y03066*
X03068*
Y02973*
G37*
G36*
X02478D02*
X02396D01*
Y02936*
X02321*
Y02888*
X02404*
X02422Y0287*
Y02857*
X02423Y02851*
X02427Y02846*
X02434Y02838*
X02433Y02833*
X02396*
Y02796*
X02322*
X0232Y028*
X0232Y02801*
X02323Y02805*
X02326Y02813*
X02326*
X02327Y02818*
Y02827*
X02327Y0283*
X02326Y02832*
X02326*
X02323Y02841*
X0232Y02845*
X02314Y02851*
X0231Y02854*
X02301Y02858*
X02296Y02859*
X02287*
X02284Y02858*
X02282Y02858*
X02282*
X02277Y02855*
X02272Y02859*
Y03018*
X0229Y03037*
X02321*
Y03028*
X02404*
Y03066*
X02478*
Y02973*
G37*
G36*
X01887D02*
X01805D01*
Y02936*
X01731*
Y02935*
X0173Y02934*
X01725Y02933*
X0172Y02937*
Y03027*
X01725Y03031*
X0173Y0303*
X01731Y03029*
Y03028*
X01814*
Y03066*
X01887*
Y02973*
G37*
G36*
X-00235Y03099D02*
X-00235Y03098D01*
Y02801*
X-00235Y028*
X-0024Y02793*
X-00242Y02785*
X-0024Y02776*
X-00235Y02769*
X-00228Y02764*
X-0022Y02762*
X-00222Y02755*
X-0022Y02746*
X-00215Y02739*
X-00208Y02734*
X-002Y02732*
X-00195Y02733*
X-00191Y0273*
Y02716*
X-00192Y02715*
X-00197Y02708*
X-00198Y027*
X-00197Y02691*
X-00192Y02684*
X-00185Y02679*
X-00176Y02677*
X-00167Y02679*
X-0016Y02684*
X-00155Y02691*
X-00154Y027*
X-00155Y02707*
X-00155Y02707*
X-00146Y02709*
X-00139Y02714*
X-00134Y02721*
X-00132Y0273*
X-00134Y02738*
X-00139Y02745*
X-00139Y02746*
Y03062*
X-00131Y0307*
X-00126Y03068*
Y03013*
X-00066*
X-00003*
Y03073*
X-00047*
Y03087*
X-00037Y03097*
X00061*
X00067Y03091*
Y03073*
X00053*
Y03013*
X00089*
X00091Y03011*
X00089Y03006*
X00056*
X-00006*
X-00063*
X-00126*
Y02946*
X-00116*
X-00115Y02941*
X-0011Y02934*
X-0011Y02933*
Y02907*
X-0011Y02907*
X-00117Y02902*
X-00122Y02895*
X-00125Y02888*
X-00126Y0288*
X-00125Y02871*
X-00122Y02864*
X-00117Y02857*
Y02852*
X-00122Y02845*
X-00125Y02838*
X-00126Y0283*
X-00125Y02821*
X-00122Y02814*
X-00117Y02807*
X-0011Y02802*
X-00103Y02799*
X-00095Y02798*
X-00086Y02799*
X-00079Y02802*
X-00072Y02807*
X-00071Y02808*
X-00066*
X-00066Y02808*
X-00059Y02804*
X-00052Y02801*
X-0005Y028*
Y0283*
X-0004*
Y028*
X-00037Y02801*
X-0003Y02804*
X-00023Y02808*
X-00022Y0281*
X-00017*
X-00016Y02808*
X-00009Y02804*
X-00002Y02801*
X0Y028*
Y0283*
X0001*
Y028*
X00012Y02801*
X00019Y02804*
X00026Y02808*
X00026Y02808*
X00031*
X00032Y02807*
X00039Y02802*
X00046Y02799*
X00055Y02798*
X00063Y02799*
X0007Y02802*
X00077Y02807*
X00078Y02808*
X00083*
X00083Y02808*
X0009Y02804*
X00097Y02801*
X001Y028*
Y0283*
X00105*
Y02835*
X00134*
X00133Y02837*
X0013Y02844*
X00126Y02851*
X00126Y02851*
Y02856*
X00127Y02857*
X00132Y02864*
X00135Y02871*
X00136Y0288*
X00135Y02888*
X00132Y02895*
X00127Y02902*
X00125Y02903*
X00125Y02908*
X00135Y02919*
X00139Y02924*
X0014Y0293*
Y02934*
X00144Y02938*
X00169*
Y0299*
X00173Y02992*
X00242*
X00347Y02887*
X00353Y02883*
X0036Y02882*
X00497*
X00543Y02837*
X00544Y02831*
X00549Y02824*
X00556Y02819*
X00565Y02817*
X00573Y02819*
X0058Y02824*
X00585Y02831*
X00585Y02833*
X0059Y02834*
X00674Y0275*
Y02369*
X0067Y02366*
X00666Y02367*
X00665Y02367*
X00661Y02371*
X00662Y02375*
X0066Y02383*
X00655Y0239*
X00648Y02395*
X0064Y02397*
X00631Y02395*
X00624Y0239*
X00619Y02383*
X00617Y02375*
X00619Y02366*
X00624Y02359*
X00624Y02358*
Y02345*
X00619Y02341*
X00615Y02342*
X00606Y0234*
X00599Y02335*
X00594Y02328*
X00592Y0232*
X00594Y02311*
X00599Y02304*
X00599Y02303*
Y02261*
X00583Y02245*
X-00168*
X-00188Y02265*
Y02302*
X-00183Y02304*
X-00174Y02311*
X-00167Y02319*
X-00163Y02329*
X-00162Y0234*
X-00163Y02351*
X-00167Y02361*
X-00174Y0237*
X-00183Y02377*
X-00193Y02381*
X-00204Y02382*
X-00214Y02381*
X-00225Y02377*
X-00233Y0237*
X-0024Y02361*
X-00244Y02351*
X-00245Y0234*
X-00244Y02329*
X-0024Y02319*
X-00233Y02311*
X-00225Y02304*
X-00219Y02302*
Y02259*
X-00218Y02253*
X-00214Y02248*
X-00191Y02224*
X-00193Y0222*
X-00258*
X-00288Y0225*
Y02302*
X-00283Y02304*
X-00274Y02311*
X-00267Y02319*
X-00263Y02329*
X-00262Y0234*
X-00263Y02351*
X-00267Y02361*
X-00274Y02369*
X-00273Y02372*
X-00272Y02375*
X-00269Y02375*
X-00264Y02379*
X-00244Y02399*
X-0024Y02404*
X-00239Y0241*
Y02411*
X-00234Y02412*
X-00233Y02411*
X-00225Y02404*
X-00214Y024*
X-00204Y02398*
X-00193Y024*
X-00183Y02404*
X-00175Y0241*
X-0017Y02409*
Y02391*
X-00169Y02385*
X-00165Y0238*
X-00142Y02357*
X-00144Y02351*
X-00145Y0234*
X-00144Y02329*
X-0014Y02319*
X-00133Y02311*
X-00125Y02304*
X-00114Y023*
X-00104Y02298*
X-00093Y023*
X-00083Y02304*
X-00074Y02311*
X-00067Y02319*
X-00063Y02329*
X-00062Y0234*
X-00063Y02351*
X-00067Y02361*
X-00074Y0237*
X-00083Y02377*
X-00093Y02381*
X-00104Y02382*
X-00114Y02381*
X-0012Y02378*
X-00139Y02397*
Y02411*
X-00134Y02412*
X-00133Y02411*
X-00125Y02404*
X-00114Y024*
X-00104Y02398*
X-00093Y024*
X-00083Y02404*
X-00074Y02411*
X-00067Y02419*
X-00063Y02429*
X-00062Y0244*
X-00063Y02451*
X-00067Y02461*
X-00074Y0247*
X-00083Y02477*
X-00088Y02479*
Y02494*
X-00073Y02509*
X00433*
X00434Y02509*
X00441Y02504*
X0045Y02502*
X00458Y02504*
X00465Y02509*
X0047Y02516*
X00472Y02525*
X0047Y02533*
X00465Y0254*
X00458Y02545*
X0045Y02547*
X00441Y02545*
X00436Y02542*
X00433Y02542*
X00432Y02543*
X0043Y02547*
X00432Y02555*
X0043Y02563*
X00429Y02565*
X00431Y02569*
X00468*
X00469Y02569*
X00476Y02564*
X00485Y02562*
X00493Y02564*
X005Y02569*
X00505Y02576*
X00507Y02585*
X00505Y02593*
X005Y026*
X00493Y02605*
X00485Y02607*
X00476Y02605*
X00469Y026*
X00468Y026*
X00361*
X00359Y02604*
X0036Y02606*
X00362Y02615*
X0036Y02622*
X00364Y02625*
X00364Y02625*
X00366Y02624*
X00375Y02622*
X00383Y02624*
X0039Y02629*
X00395Y02636*
X00397Y02645*
X00395Y02653*
X0039Y0266*
X00383Y02665*
X00375Y02667*
X00366Y02665*
X00359Y0266*
X00358Y0266*
X-0024*
X-00245Y02659*
X-0025Y02655*
X-00314Y02591*
X-00318Y02586*
X-00319Y0258*
Y02479*
X-00325Y02477*
X-00333Y0247*
X-0034Y02461*
X-00344Y02451*
X-00345Y0244*
X-00344Y02429*
X-0034Y02419*
X-00333Y02411*
X-00332Y0241*
X-00333Y02405*
X-00347*
X-00365Y02424*
X-00363Y02429*
X-00362Y0244*
X-00363Y02451*
X-00367Y02461*
X-00374Y0247*
X-00383Y02477*
X-00393Y02481*
X-00404Y02482*
X-00414Y02481*
X-00425Y02477*
X-00433Y0247*
X-00434Y02468*
X-00439Y0247*
Y02968*
X-00304Y03103*
X-0024*
X-00239Y03103*
X-00235Y03099*
G37*
G36*
X03011Y02852D02*
X03012Y02845D01*
X03016Y0284*
X03018Y02838*
X03016Y02833*
X02986*
Y02796*
X02913*
X0291Y028*
X02911Y02801*
X02913Y02805*
X02917Y02813*
X02918Y02818*
Y02827*
X02917Y0283*
X02917Y02832*
X02913Y02841*
X02911Y02845*
X02904Y02851*
X02904*
X029Y02854*
X02891Y02858*
X02887Y02859*
X02877*
X02875Y02858*
X02873Y02858*
X02873*
X02865Y02854*
X02862Y02855*
X0286Y02857*
Y02879*
X02877Y02897*
X02912*
Y02888*
X02995*
Y02926*
X03011*
Y02852*
G37*
G36*
X0183D02*
X01831Y02845D01*
X01835Y0284*
X01837Y02838*
X01835Y02833*
X01805*
Y02796*
X01731*
Y02796*
X01729Y02795*
X01725Y02794*
X0172Y02798*
Y02887*
X01725Y02891*
X0173Y0289*
X01731Y02889*
Y02888*
X01814*
Y02926*
X0183*
Y02852*
G37*
G36*
X05175Y02767D02*
X05224D01*
X05232Y02759*
Y02688*
X05226Y02682*
X0519*
X05185Y02681*
X05181Y02678*
X05166Y02663*
X05163Y02659*
X05162Y02655*
Y02645*
X05161Y02641*
X05155*
Y02719*
X05168*
Y02764*
X05173Y02768*
X05175Y02767*
G37*
G36*
X0563Y02664D02*
X056Y02635D01*
X05423*
X054Y02611*
X05186*
X05185Y02612*
X05169Y02597*
X0513*
Y02611*
X05153*
X05155Y02613*
X05155*
Y02613*
X05175Y02633*
Y02655*
X0519Y0267*
X05231*
X05245Y02683*
Y02765*
X0523Y0278*
X05175*
Y03025*
X0563*
Y02664*
G37*
G36*
X04975Y02836D02*
X04995Y02816D01*
Y0277*
Y0268*
X0502Y02655*
Y02625*
X05033Y02611*
X05075*
Y02579*
X0503*
X04995Y02615*
X04839*
X04815Y02639*
Y0311*
X04975*
Y02836*
G37*
G36*
X05065Y0268D02*
X05098Y02646D01*
X0512*
Y02538*
X0494*
Y0257*
X05085*
Y02618*
X05083Y0262*
X0505*
X0504Y0263*
Y02665*
X05005Y027*
Y0277*
X05065*
Y0268*
G37*
G36*
X05191Y0257D02*
X0533D01*
Y02515*
X0519*
X05185Y0252*
Y0255*
X0516Y02575*
X05155*
Y02576*
X0513*
Y0259*
X05171*
X05191Y0257*
G37*
G36*
X04437Y00079D02*
X04466Y00049D01*
X04471Y00046*
X04477Y00045*
X04565*
Y00036*
X04648*
Y00074*
X04722*
Y-00018*
X0464*
Y-00055*
X04565*
Y-00064*
X04474*
X04423Y-00013*
Y00083*
X04434*
X04437Y00079*
G37*
G36*
X04392Y-0002D02*
X04394Y-00025D01*
X04397Y-0003*
X04456Y-0009*
X04461Y-00093*
X04467Y-00094*
X04565*
Y-00103*
X04648*
Y-00065*
X04664*
Y-00139*
X04666Y-00146*
X04669Y-00151*
X04671Y-00153*
X04669Y-00158*
X0464*
Y-00195*
X04565*
Y-00204*
X04443*
X04383Y-00144*
Y00083*
X04392*
Y-0002*
G37*
%LNduo_x-2*%
%LPC*%
G36*
X01097Y05568D02*
X01084D01*
X01083Y05568*
X01082*
X01068Y05565*
X01067Y05565*
X01066Y05565*
X01053Y05559*
X01052Y05559*
X01051Y05558*
X0104Y05551*
X01039Y0555*
X01038Y05549*
X01029Y0554*
X01028Y05539*
X01027Y05538*
X01019Y05527*
X01019Y05525*
X01018Y05524*
X01013Y05512*
X01013Y05511*
X01012Y0551*
X0101Y05496*
Y05495*
X0101Y05494*
Y0548*
X0101Y05479*
Y05478*
X01012Y05465*
X01013Y05464*
X01013Y05462*
X01018Y0545*
X01019Y05449*
X01019Y05448*
X01027Y05436*
X01028Y05436*
X01029Y05435*
X01038Y05425*
X01039Y05424*
X0104Y05423*
X01051Y05416*
X01052Y05415*
X01053Y05415*
X01066Y0541*
X01067Y05409*
X01068Y05409*
X01082Y05406*
X01083*
X01084Y05406*
X01097*
X01099Y05406*
X011*
X01113Y05409*
X01114Y05409*
X01115Y0541*
X01128Y05415*
X01129Y05415*
X0113Y05416*
X01141Y05423*
X01142Y05424*
X01143Y05425*
X01153Y05435*
X01154Y05436*
X01154Y05436*
X01162Y05448*
X01162Y05449*
X01163Y0545*
X01168Y05462*
X01168Y05464*
X01169Y05465*
X01172Y05478*
Y05479*
X01172Y0548*
Y05494*
X01172Y05495*
Y05496*
X01169Y0551*
X01168Y05511*
X01168Y05512*
X01163Y05524*
X01162Y05525*
X01162Y05527*
X01154Y05538*
X01154Y05539*
X01153Y0554*
X01143Y05549*
X01142Y0555*
X01141Y05551*
X0113Y05558*
X01129Y05559*
X01128Y05559*
X01115Y05565*
X01114Y05565*
X01113Y05565*
X011Y05568*
X01099*
X01097Y05568*
G37*
G36*
X0409D02*
X04076D01*
X04075Y05568*
X04074*
X0406Y05565*
X04059Y05565*
X04058Y05565*
X04046Y05559*
X04045Y05559*
X04043Y05558*
X04032Y05551*
X04031Y0555*
X0403Y05549*
X04021Y0554*
X0402Y05539*
X04019Y05538*
X04012Y05527*
X04011Y05525*
X0401Y05524*
X04005Y05512*
X04005Y05511*
X04005Y0551*
X04002Y05496*
Y05495*
X04002Y05494*
Y0548*
X04002Y05479*
Y05478*
X04005Y05465*
X04005Y05464*
X04005Y05462*
X0401Y0545*
X04011Y05449*
X04012Y05448*
X04019Y05436*
X0402Y05436*
X04021Y05435*
X0403Y05425*
X04031Y05424*
X04032Y05423*
X04043Y05416*
X04045Y05415*
X04046Y05415*
X04058Y0541*
X04059Y05409*
X0406Y05409*
X04074Y05406*
X04075*
X04076Y05406*
X0409*
X04091Y05406*
X04092*
X04105Y05409*
X04106Y05409*
X04108Y0541*
X0412Y05415*
X04121Y05415*
X04122Y05416*
X04134Y05423*
X04134Y05424*
X04135Y05425*
X04145Y05435*
X04146Y05436*
X04147Y05436*
X04154Y05448*
X04155Y05449*
X04155Y0545*
X0416Y05462*
X04161Y05464*
X04161Y05465*
X04164Y05478*
Y05479*
X04164Y0548*
Y05494*
X04164Y05495*
Y05496*
X04161Y0551*
X04161Y05511*
X0416Y05512*
X04155Y05524*
X04155Y05525*
X04154Y05527*
X04147Y05538*
X04146Y05539*
X04145Y0554*
X04135Y05549*
X04134Y0555*
X04134Y05551*
X04122Y05558*
X04121Y05559*
X0412Y05559*
X04108Y05565*
X04106Y05565*
X04105Y05565*
X04092Y05568*
X04091*
X0409Y05568*
G37*
G36*
X04813Y04946D02*
X0475D01*
Y04883*
X04813*
Y04946*
G37*
G36*
X03872Y03587D02*
X03812D01*
X03807Y03586*
X03807Y03586*
X03806Y03586*
X03802Y03587*
X03742*
X03737Y03586*
X03733Y03583*
X0373Y03579*
X03729Y03575*
Y03467*
X0373Y03462*
X03733Y03458*
X03737Y03456*
X03742Y03455*
X03759*
X03774Y03439*
Y03406*
X03774Y03405*
X0377Y03402*
X03743*
X03733Y03392*
X03723Y03402*
X03693*
X03693Y03402*
X03689Y03404*
X03689Y03405*
Y03474*
X037Y03486*
X03703Y0349*
X03704Y03495*
Y0356*
X03703Y03564*
X037Y03568*
X03696Y03571*
X03692Y03572*
X03563*
X03558Y03571*
X03554Y03568*
X03552Y03564*
X03551Y0356*
Y03505*
X03552Y035*
X03554Y03496*
X03584Y03466*
X03588Y03463*
X03593Y03462*
X03622*
X03629Y03454*
Y03405*
X03625Y034*
X03624Y034*
X03623Y03402*
X03593*
X03583Y03392*
X03573Y03402*
X03543*
X03528Y03387*
Y03333*
X03543Y03319*
X03573*
X03583Y03329*
X03593Y03319*
X03623*
X03633Y03329*
X03643Y03319*
X03673*
X03683Y03329*
X03693Y03319*
X03723*
X03733Y03329*
X03743Y03319*
X03773*
X03783Y03329*
X03793Y03319*
X03823*
X03833Y03329*
X03843Y03319*
X03873*
X03884Y0333*
X03894Y03321*
X03903*
Y0336*
Y034*
X03894*
X03884Y0339*
X0388Y03394*
X0388Y03395*
X03883Y03399*
X03884Y03403*
Y03575*
X03883Y03579*
X0388Y03583*
X03876Y03586*
X03872Y03587*
G37*
G36*
X0088D02*
X0082D01*
X00815Y03586*
X00815Y03586*
X00814Y03586*
X0081Y03587*
X0075*
X00745Y03586*
X00741Y03583*
X00738Y03579*
X00737Y03575*
Y03467*
X00738Y03462*
X00741Y03458*
X00745Y03456*
X0075Y03455*
X00767*
X00782Y03439*
Y03406*
X00782Y03405*
X00778Y03402*
X00751*
X00741Y03392*
X00731Y03402*
X00701*
X00701Y03402*
X00697Y03404*
X00697Y03405*
Y03474*
X00708Y03486*
X00711Y0349*
X00712Y03495*
Y0356*
X00711Y03563*
Y03569*
X00707*
X00704Y03571*
X007Y03572*
X00571*
X00566Y03571*
X00562Y03568*
X0056Y03564*
X00559Y0356*
Y03505*
X0056Y035*
X00562Y03496*
X00592Y03466*
X00596Y03463*
X00601Y03462*
X00629*
X00637Y03454*
Y03405*
X00633Y034*
X00632Y034*
X00631Y03402*
X00601*
X00591Y03392*
X00581Y03402*
X00551*
X00536Y03387*
Y03333*
X00551Y03319*
X00581*
X00591Y03329*
X00601Y03319*
X00631*
X00641Y03329*
X00651Y03319*
X00681*
X00691Y03329*
X00701Y03319*
X00731*
X00741Y03329*
X00751Y03319*
X00781*
X00791Y03329*
X00801Y03319*
X00831*
X00841Y03329*
X00851Y03319*
X00881*
X00892Y0333*
X00902Y03321*
X00911*
Y0336*
Y034*
X00902*
X00892Y0339*
X00888Y03394*
X00888Y03395*
X00891Y03399*
X00892Y03403*
Y03575*
X00891Y03579*
X00888Y03583*
X00884Y03586*
X0088Y03587*
G37*
G36*
X05047Y03553D02*
X05033Y03551D01*
X05019Y03545*
X05008Y03536*
X04999Y03525*
X04994Y03511*
X04992Y03497*
X04994Y03482*
X04999Y03469*
X05008Y03457*
X05019Y03449*
X05033Y03443*
X05047Y03441*
X05062Y03443*
X05075Y03449*
X05087Y03457*
X05096Y03469*
X05101Y03482*
X05103Y03497*
X05101Y03511*
X05096Y03525*
X05087Y03536*
X05075Y03545*
X05062Y03551*
X05047Y03553*
G37*
G36*
X05358Y03402D02*
X05328D01*
X05318Y03391*
X05307Y03402*
X05278*
X05263Y03387*
Y03333*
X05278Y03319*
X05307*
X05318Y03329*
X05328Y03319*
X05358*
X05373Y03333*
Y03387*
X05358Y03402*
G37*
G36*
X04453Y034D02*
X04444D01*
X04433Y03389*
X04422Y034*
X04413*
Y0336*
Y03321*
X04422*
X04433Y03332*
X04444Y03321*
X04453*
Y0336*
Y034*
G37*
G36*
X04403D02*
X04394D01*
X04383Y03389*
X04372Y034*
X04363*
Y0336*
Y03321*
X04372*
X04383Y03332*
X04394Y03321*
X04403*
Y0336*
Y034*
G37*
G36*
X04353D02*
X04344D01*
X04333Y03389*
X04322Y034*
X04313*
Y0336*
Y03321*
X04322*
X04333Y03332*
X04344Y03321*
X04353*
Y0336*
Y034*
G37*
G36*
X04303D02*
X04294D01*
X04283Y03389*
X04272Y034*
X04263*
Y0336*
Y03321*
X04272*
X04283Y03332*
X04294Y03321*
X04303*
Y0336*
Y034*
G37*
G36*
X04253D02*
X04244D01*
X04233Y03389*
X04222Y034*
X04213*
Y0336*
X04203*
Y034*
X04194*
X04183Y03389*
X04172Y034*
X04163*
Y0336*
X04153*
Y034*
X04144*
X04133Y03389*
X04122Y034*
X04113*
Y0336*
Y03321*
X04122*
X04133Y03332*
X04144Y03321*
X0415*
X04152Y03316*
X04138Y03302*
Y03239*
X04159Y03217*
X04203*
X04225Y03239*
Y03302*
X04211Y03316*
X04213Y03321*
X04222*
X04233Y03332*
X04244Y03321*
X04253*
Y0336*
Y034*
G37*
G36*
X01461D02*
X01452D01*
X01441Y03389*
X0143Y034*
X01421*
Y0336*
Y03321*
X0143*
X01441Y03332*
X01452Y03321*
X01461*
Y0336*
Y034*
G37*
G36*
X01411D02*
X01402D01*
X01391Y03389*
X0138Y034*
X01371*
Y0336*
Y03321*
X0138*
X01391Y03332*
X01402Y03321*
X01411*
Y0336*
Y034*
G37*
G36*
X01361D02*
X01352D01*
X01341Y03389*
X0133Y034*
X01321*
Y0336*
Y03321*
X0133*
X01341Y03332*
X01352Y03321*
X01361*
Y0336*
Y034*
G37*
G36*
X01311D02*
X01302D01*
X01291Y03389*
X0128Y034*
X01271*
Y0336*
Y03321*
X0128*
X01291Y03332*
X01302Y03321*
X01311*
Y0336*
Y034*
G37*
G36*
X01261D02*
X01252D01*
X01241Y03389*
X0123Y034*
X01221*
Y0336*
X01211*
Y034*
X01202*
X01191Y03389*
X0118Y034*
X01171*
Y0336*
X01161*
Y034*
X01152*
X01141Y03389*
X0113Y034*
X01121*
Y0336*
Y03321*
X0113*
X01141Y03332*
X01152Y03321*
X01158*
X01159Y03316*
X01146Y03302*
Y03239*
X01167Y03217*
X01211*
X01233Y03239*
Y03302*
X01219Y03316*
X01221Y03321*
X0123*
X01241Y03332*
X01252Y03321*
X01261*
Y0336*
Y034*
G37*
G36*
X04026Y03266D02*
X03989D01*
Y03219*
X04005*
X04026Y0324*
Y03266*
G37*
G36*
X03979D02*
X03943D01*
Y0324*
X03964Y03219*
X03979*
Y03266*
G37*
G36*
X01034D02*
X00997D01*
Y03219*
X01013*
X01034Y0324*
Y03266*
G37*
G36*
X00987D02*
X00951D01*
Y0324*
X00972Y03219*
X00987*
Y03266*
G37*
G36*
X05043Y03073D02*
X05029D01*
Y03019*
X05063*
Y03053*
X05043Y03073*
G37*
G36*
X05063Y03009D02*
X05029D01*
Y02955*
X05043*
X05063Y02974*
Y03009*
G37*
G36*
X04307Y03078D02*
X04294Y03077D01*
X04282Y03073*
X04271Y03067*
X04261Y03059*
X04253Y03049*
X04247Y03038*
X04243Y03025*
X04242Y03013*
Y02977*
X04243Y02964*
X04247Y02952*
X04253Y02941*
X04261Y02931*
X04271Y02923*
X04282Y02917*
X04294Y02913*
X04307Y02912*
X0432Y02913*
X04332Y02917*
X04344Y02923*
X04354Y02931*
X04362Y02941*
X04368Y02952*
X04371Y02964*
X04373Y02977*
Y03013*
X04371Y03025*
X04368Y03038*
X04362Y03049*
X04354Y03059*
X04344Y03067*
X04332Y03073*
X0432Y03077*
X04307Y03078*
G37*
G36*
X03858D02*
X03846Y03077D01*
X03833Y03073*
X03822Y03067*
X03812Y03059*
X03804Y03049*
X03798Y03038*
X03794Y03025*
X03793Y03013*
Y02977*
X03794Y02964*
X03798Y02952*
X03804Y02941*
X03812Y02931*
X03822Y02923*
X03833Y02917*
X03846Y02913*
X03858Y02912*
X03871Y02913*
X03883Y02917*
X03895Y02923*
X03905Y02931*
X03913Y02941*
X03919Y02952*
X03923Y02964*
X03924Y02977*
Y03013*
X03923Y03025*
X03919Y03038*
X03913Y03049*
X03905Y03059*
X03895Y03067*
X03883Y03073*
X03871Y03077*
X03858Y03078*
G37*
G36*
X01315D02*
X01302Y03077D01*
X0129Y03073*
X01279Y03067*
X01269Y03059*
X01261Y03049*
X01255Y03038*
X01251Y03025*
X0125Y03013*
Y02977*
X01251Y02964*
X01255Y02952*
X01261Y02941*
X01269Y02931*
X01279Y02923*
X0129Y02917*
X01302Y02913*
X01315Y02912*
X01328Y02913*
X0134Y02917*
X01351Y02923*
X01361Y02931*
X0137Y02941*
X01376Y02952*
X01379Y02964*
X01381Y02977*
Y03013*
X01379Y03025*
X01376Y03038*
X0137Y03049*
X01361Y03059*
X01351Y03067*
X0134Y03073*
X01328Y03077*
X01315Y03078*
G37*
G36*
X00866D02*
X00854Y03077D01*
X00841Y03073*
X0083Y03067*
X0082Y03059*
X00812Y03049*
X00806Y03038*
X00802Y03025*
X00801Y03013*
Y02977*
X00802Y02964*
X00806Y02952*
X00812Y02941*
X0082Y02931*
X0083Y02923*
X00841Y02917*
X00854Y02913*
X00866Y02912*
X00879Y02913*
X00891Y02917*
X00903Y02923*
X00913Y02931*
X00921Y02941*
X00927Y02952*
X0093Y02964*
X00932Y02977*
Y03013*
X0093Y03025*
X00927Y03038*
X00921Y03049*
X00913Y03059*
X00903Y03067*
X00891Y03073*
X00879Y03077*
X00866Y03078*
G37*
G36*
X04104Y02751D02*
X04088D01*
Y02705*
X04124*
Y0273*
X04104Y02751*
G37*
G36*
X04078D02*
X04062D01*
X04041Y0273*
Y02705*
X04078*
Y02751*
G37*
G36*
X01111D02*
X01096D01*
Y02705*
X01132*
Y0273*
X01111Y02751*
G37*
G36*
X01086D02*
X0107D01*
X01049Y0273*
Y02705*
X01086*
Y02751*
G37*
G36*
X03396Y02728D02*
X03394Y02727D01*
X03391Y02727*
X03383Y02723*
Y02723*
X03379Y02721*
X03372Y02714*
X03369Y0271*
X03366Y02701*
X03365Y02697*
Y02687*
X03366Y02683*
X03369Y02674*
X03372Y0267*
X03379Y02663*
X03383Y02661*
X03391Y02657*
X03396Y02656*
X03405*
X0341Y02657*
X03419Y02661*
X03423Y02663*
X03429Y0267*
Y0267*
X03432Y02674*
X03436Y02683*
X03437Y02687*
Y02697*
X03436Y02699*
X03436Y02701*
Y02701*
X03432Y0271*
X03429Y02714*
X03423Y02721*
X03419Y02723*
Y02723*
X0341Y02727*
X03405Y02728*
X03396*
G37*
G36*
X01768D02*
X01765Y02727D01*
X01763Y02727*
X01755Y02723*
Y02723*
X01751Y02721*
X01744Y02714*
X01741Y0271*
X01738Y02701*
X01737Y02697*
Y02687*
X01738Y02683*
X01741Y02674*
X01744Y0267*
X01751Y02663*
X01755Y02661*
X01763Y02657*
X01768Y02656*
X01777*
X01782Y02657*
X01791Y02661*
X01795Y02663*
X01801Y0267*
Y0267*
X01804Y02674*
X01808Y02683*
X01809Y02687*
Y02697*
X01808Y02699*
X01808Y02701*
Y02701*
X01804Y0271*
X01801Y02714*
X01795Y02721*
X01791Y02723*
Y02723*
X01782Y02727*
X01777Y02728*
X01768*
X01768*
G37*
G36*
X04124Y02695D02*
X04088D01*
Y02648*
X04104*
X04124Y02669*
Y02695*
G37*
G36*
X04078D02*
X04041D01*
Y02669*
X04062Y02648*
X04078*
Y02695*
G37*
G36*
X01132D02*
X01096D01*
Y02648*
X01111*
X01132Y02669*
Y02695*
G37*
G36*
X01086D02*
X01049D01*
Y02669*
X0107Y02648*
X01086*
Y02695*
G37*
G36*
X04203Y02753D02*
X04159D01*
X04138Y02731*
Y02668*
X04159Y02646*
X04203*
X04225Y02668*
Y02731*
X04203Y02753*
G37*
G36*
X04006D02*
X03963D01*
X03941Y02731*
Y02668*
X03963Y02646*
X04006*
X04028Y02668*
Y02731*
X04006Y02753*
G37*
G36*
X01211D02*
X01167D01*
X01146Y02731*
Y02668*
X01167Y02646*
X01211*
X01233Y02668*
Y02731*
X01211Y02753*
G37*
G36*
X01014D02*
X00971D01*
X00949Y02731*
Y02668*
X00971Y02646*
X01014*
X01036Y02668*
Y02731*
X01014Y02753*
G37*
G36*
X0146Y03187D02*
X01451Y03185D01*
X01444Y0318*
X01439Y03173*
X01437Y03165*
X01439Y03156*
X01442Y03151*
Y02602*
X01427Y02587*
X01348*
X01343Y0259*
X01335Y02592*
X0094*
X00931Y0259*
X00924Y02585*
X00919Y02578*
X00917Y0257*
X00919Y02561*
X00924Y02554*
X00931Y02549*
X0094Y02547*
X01335*
X01343Y02549*
X01348Y02552*
X01435*
X01441Y02553*
X01447Y02557*
X01472Y02582*
X01476Y02588*
X01477Y02595*
Y03151*
X0148Y03156*
X01482Y03165*
X0148Y03173*
X01475Y0318*
X01468Y03185*
X0146Y03187*
G37*
G36*
X05059Y0208D02*
X05045Y02079D01*
X05032Y02075*
X0502Y02068*
X05009Y02059*
X05Y02048*
X04993Y02036*
X04989Y02023*
X04988Y02009*
X04989Y01995*
X04993Y01981*
X05Y01969*
X05009Y01958*
X0502Y01949*
X05032Y01943*
X05045Y01939*
X05059Y01937*
X05073Y01939*
X05087Y01943*
X05099Y01949*
X0511Y01958*
X05119Y01969*
X05125Y01981*
X05129Y01995*
X05131Y02009*
X05129Y02023*
X05125Y02036*
X05119Y02048*
X0511Y02059*
X05099Y02068*
X05087Y02075*
X05073Y02079*
X05059Y0208*
G37*
G36*
X04603D02*
X04589Y02079D01*
X04575Y02075*
X04563Y02068*
X04552Y02059*
X04543Y02048*
X04537Y02036*
X04532Y02023*
X04531Y02009*
X04532Y01995*
X04537Y01981*
X04543Y01969*
X04552Y01958*
X04563Y01949*
X04575Y01943*
X04589Y01939*
X04603Y01937*
X04616Y01939*
X0463Y01943*
X04642Y01949*
X04653Y01958*
X04662Y01969*
X04668Y01981*
X04673Y01995*
X04674Y02009*
X04673Y02023*
X04668Y02036*
X04662Y02048*
X04653Y02059*
X04642Y02068*
X0463Y02075*
X04616Y02079*
X04603Y0208*
G37*
G36*
X03563D02*
X03549Y02079D01*
X03536Y02075*
X03523Y02068*
X03513Y02059*
X03504Y02048*
X03497Y02036*
X03493Y02023*
X03492Y02009*
X03493Y01995*
X03497Y01981*
X03504Y01969*
X03513Y01958*
X03523Y01949*
X03536Y01943*
X03549Y01939*
X03563Y01937*
X03577Y01939*
X0359Y01943*
X03603Y01949*
X03614Y01958*
X03623Y01969*
X03629Y01981*
X03633Y01995*
X03635Y02009*
X03633Y02023*
X03629Y02036*
X03623Y02048*
X03614Y02059*
X03603Y02068*
X0359Y02075*
X03577Y02079*
X03563Y0208*
G37*
G36*
X03106D02*
X03093Y02079D01*
X03079Y02075*
X03067Y02068*
X03056Y02059*
X03047Y02048*
X0304Y02036*
X03036Y02023*
X03035Y02009*
X03036Y01995*
X0304Y01981*
X03047Y01969*
X03056Y01958*
X03067Y01949*
X03079Y01943*
X03093Y01939*
X03106Y01937*
X0312Y01939*
X03134Y01943*
X03146Y01949*
X03157Y01958*
X03166Y01969*
X03172Y01981*
X03176Y01995*
X03178Y02009*
X03176Y02023*
X03172Y02036*
X03166Y02048*
X03157Y02059*
X03146Y02068*
X03134Y02075*
X0312Y02079*
X03106Y0208*
G37*
G36*
X02067D02*
X02053Y02079D01*
X0204Y02075*
X02027Y02068*
X02017Y02059*
X02008Y02048*
X02001Y02036*
X01997Y02023*
X01996Y02009*
X01997Y01995*
X02001Y01981*
X02008Y01969*
X02017Y01958*
X02027Y01949*
X0204Y01943*
X02053Y01939*
X02067Y01937*
X02081Y01939*
X02094Y01943*
X02107Y01949*
X02118Y01958*
X02126Y01969*
X02133Y01981*
X02137Y01995*
X02138Y02009*
X02137Y02023*
X02133Y02036*
X02126Y02048*
X02118Y02059*
X02107Y02068*
X02094Y02075*
X02081Y02079*
X02067Y0208*
G37*
G36*
X0161D02*
X01596Y02079D01*
X01583Y02075*
X01571Y02068*
X0156Y02059*
X01551Y02048*
X01544Y02036*
X0154Y02023*
X01539Y02009*
X0154Y01995*
X01544Y01981*
X01551Y01969*
X0156Y01958*
X01571Y01949*
X01583Y01943*
X01596Y01939*
X0161Y01937*
X01624Y01939*
X01638Y01943*
X0165Y01949*
X01661Y01958*
X0167Y01969*
X01676Y01981*
X0168Y01995*
X01682Y02009*
X0168Y02023*
X01676Y02036*
X0167Y02048*
X01661Y02059*
X0165Y02068*
X01638Y02075*
X01624Y02079*
X0161Y0208*
G37*
G36*
X00571D02*
X00557Y02079D01*
X00544Y02075*
X00531Y02068*
X00521Y02059*
X00512Y02048*
X00505Y02036*
X00501Y02023*
X005Y02009*
X00501Y01995*
X00505Y01981*
X00512Y01969*
X00521Y01958*
X00531Y01949*
X00544Y01943*
X00557Y01939*
X00571Y01937*
X00585Y01939*
X00598Y01943*
X00611Y01949*
X00621Y01958*
X0063Y01969*
X00637Y01981*
X00641Y01995*
X00642Y02009*
X00641Y02023*
X00637Y02036*
X0063Y02048*
X00621Y02059*
X00611Y02068*
X00598Y02075*
X00585Y02079*
X00571Y0208*
G37*
G36*
X00114D02*
X001Y02079D01*
X00087Y02075*
X00075Y02068*
X00064Y02059*
X00055Y02048*
X00048Y02036*
X00044Y02023*
X00043Y02009*
X00044Y01995*
X00048Y01981*
X00055Y01969*
X00064Y01958*
X00075Y01949*
X00087Y01943*
X001Y01939*
X00114Y01937*
X00128Y01939*
X00142Y01943*
X00154Y01949*
X00165Y01958*
X00174Y01969*
X0018Y01981*
X00184Y01995*
X00186Y02009*
X00184Y02023*
X0018Y02036*
X00174Y02048*
X00165Y02059*
X00154Y02068*
X00142Y02075*
X00128Y02079*
X00114Y0208*
G37*
G36*
X-00559Y01889D02*
X-00568Y01888D01*
X-00575Y01883*
X-0058Y01876*
X-00582Y01867*
X-0058Y01858*
X-00575Y01851*
X-00568Y01846*
X-00559Y01845*
X-00551Y01846*
X-0055Y01847*
X-00485*
X-00468Y0183*
Y01779*
X-00469Y01778*
X-0047Y0177*
X-00469Y01761*
X-00464Y01754*
X-00456Y01749*
X-00448Y01747*
X-00439Y01749*
X-00432Y01754*
X-00427Y01761*
X-00426Y0177*
X-00427Y01778*
X-00428Y01779*
Y01838*
X-0043Y01846*
X-00434Y01852*
X-00463Y01881*
X-00469Y01885*
X-00477Y01887*
X-0055*
X-00551Y01888*
X-00559Y01889*
G37*
G36*
X04706Y01635D02*
X04688D01*
Y01581*
X04729*
Y01612*
X04706Y01635*
G37*
G36*
X04678D02*
X0466D01*
X04638Y01612*
Y01581*
X04678*
Y01635*
G37*
G36*
X0321D02*
X03192D01*
Y01581*
X03233*
Y01612*
X0321Y01635*
G37*
G36*
X03182D02*
X03164D01*
X03142Y01612*
Y01581*
X03182*
Y01635*
G37*
G36*
X01714D02*
X01696D01*
Y01581*
X01737*
Y01612*
X01714Y01635*
G37*
G36*
X01686D02*
X01668D01*
X01646Y01612*
Y01581*
X01686*
Y01635*
G37*
G36*
X00218D02*
X002D01*
Y01581*
X0024*
Y01612*
X00218Y01635*
G37*
G36*
X0019D02*
X00172D01*
X0015Y01612*
Y01581*
X0019*
Y01635*
G37*
G36*
X04729Y01571D02*
X04688D01*
Y01516*
X04706*
X04729Y01539*
Y01571*
G37*
G36*
X04678D02*
X04638D01*
Y01539*
X0466Y01516*
X04678*
Y01571*
G37*
G36*
X03233D02*
X03192D01*
Y01516*
X0321*
X03233Y01539*
Y01571*
G37*
G36*
X03182D02*
X03142D01*
Y01539*
X03164Y01516*
X03182*
Y01571*
G37*
G36*
X01737D02*
X01696D01*
Y01516*
X01714*
X01737Y01539*
Y01571*
G37*
G36*
X01686D02*
X01646D01*
Y01539*
X01668Y01516*
X01686*
Y01571*
G37*
G36*
X0024D02*
X002D01*
Y01516*
X00218*
X0024Y01539*
Y01571*
G37*
G36*
X0019D02*
X0015D01*
Y01539*
X00172Y01516*
X0019*
Y01571*
G37*
G36*
X00293Y01837D02*
X00285Y01835D01*
X00278Y0183*
X00273Y01823*
X00271Y01815*
X00273Y01806*
X00278Y01799*
X00278Y01798*
Y01637*
X0027*
X00246Y01613*
Y01538*
X0027Y01514*
X00317*
X0034Y01537*
X00343Y01538*
X00345Y01537*
X00368Y01514*
X00416*
X00438Y01537*
X00441Y01538*
X00444Y01537*
X00467Y01514*
X00514*
X00538Y01538*
Y01613*
X00514Y01637*
X00467*
X00444Y01614*
X00441Y01614*
X00438Y01614*
X00416Y01637*
X00368*
X00345Y01614*
X00343Y01614*
X0034Y01614*
X00317Y01637*
X00309*
Y01798*
X00309Y01799*
X00314Y01806*
X00316Y01815*
X00314Y01823*
X00309Y0183*
X00302Y01835*
X00293Y01837*
G37*
G36*
X03286Y01857D02*
X03277Y01855D01*
X0327Y0185*
X03265Y01843*
X03263Y01835*
X03265Y01826*
X0327Y01819*
X0327Y01818*
Y01637*
X03262*
X03238Y01613*
Y01538*
X03262Y01514*
X03309*
X03332Y01537*
X03335Y01538*
X03338Y01537*
X0336Y01514*
X03358Y0151*
X0335Y01502*
X03139*
X03049Y01592*
X03042Y01596*
X03033Y01598*
X02818*
X02813Y01602*
Y0164*
X02812Y01648*
X02807Y01655*
X028Y0166*
X02791Y01662*
X02782Y0166*
X02775Y01655*
X0277Y01648*
X02769Y0164*
Y01593*
X0277Y01584*
X02775Y01577*
X02792Y0156*
X028Y01555*
X02808Y01553*
X03024*
X03114Y01464*
X03121Y01459*
X03129Y01457*
X03359*
X03368Y01459*
X03375Y01464*
X034Y01489*
X03405Y01496*
X03406Y01505*
Y01514*
X03408*
X0343Y01537*
X03433Y01538*
X03436Y01537*
X03459Y01514*
X03506*
X0353Y01538*
Y01613*
X03506Y01637*
X03459*
X03436Y01614*
X03433Y01614*
X0343Y01614*
X03408Y01637*
X0336*
X03338Y01614*
X03335Y01614*
X03332Y01614*
X03309Y01637*
X03301*
Y01818*
X03301Y01819*
X03306Y01826*
X03308Y01835*
X03306Y01843*
X03301Y0185*
X03294Y01855*
X03286Y01857*
G37*
G36*
X0301Y01437D02*
X03001Y01435D01*
X02994Y0143*
X02993Y0143*
X02886*
X02881Y01428*
X02876Y01425*
X02829Y01378*
X02825Y01373*
X02824Y01367*
Y01243*
X02786Y01205*
X02606*
X02606Y01205*
X02599Y0121*
X0259Y01212*
X02582Y0121*
X02574Y01205*
X0257Y01198*
X02568Y01189*
X0257Y01181*
X02574Y01174*
X02582Y01169*
X0259Y01167*
X02594Y01168*
X02595Y01161*
X026Y01154*
X02607Y01149*
X02616Y01147*
X02619Y01148*
X02621Y01141*
X02626Y01134*
X02633Y01129*
X02641Y01127*
X0265Y01129*
X02657Y01134*
X02657Y01134*
X02808*
X02814Y01135*
X02819Y01139*
X0289Y01209*
X02893Y01214*
X02895Y0122*
Y01345*
X02909Y01359*
X02993*
X02994Y01359*
X03001Y01354*
X0301Y01352*
X03018Y01354*
X03025Y01359*
X0303Y01366*
X03031Y01373*
X03035Y01372*
X03043Y01374*
X0305Y01379*
X03055Y01386*
X03057Y01395*
X03055Y01403*
X0305Y0141*
X03043Y01415*
X03035Y01417*
X03031Y01416*
X0303Y01423*
X03025Y0143*
X03018Y01435*
X0301Y01437*
G37*
G36*
X02105Y01482D02*
X02096Y0148D01*
X02089Y01475*
X02084Y01468*
X02082Y0146*
X02083Y01456*
X02076Y01455*
X02069Y0145*
X02064Y01443*
X02062Y01435*
X02064Y01426*
X02069Y01419*
X02076Y01414*
X02083Y01413*
X02082Y0141*
X02084Y01401*
X02089Y01394*
X02096Y01389*
X02105Y01387*
X02113Y01389*
X0212Y01394*
X02125Y01392*
X02134Y01383*
Y01314*
X02135Y01308*
X02139Y01303*
X02214Y01228*
Y01201*
X02215Y01195*
X02219Y0119*
X0226Y01149*
X02265Y01146*
X02271Y01144*
X02497*
X02498Y01144*
X02505Y01139*
X02513Y01137*
X02522Y01139*
X02529Y01144*
X02534Y01151*
X02536Y0116*
X02534Y01168*
X02529Y01176*
X02522Y0118*
X02513Y01182*
X02509Y01186*
X0251Y01191*
X02508Y01199*
X02503Y01207*
X02496Y01212*
X02488Y01213*
X02479Y01212*
X02472Y01207*
X02472Y01206*
X02294*
X02275Y01226*
Y0125*
X02274Y01255*
X02272Y01257*
X02275Y01262*
X02342*
X02343Y01262*
X0235Y01257*
X02359Y01255*
X02367Y01257*
X02374Y01262*
X02379Y01269*
X02381Y01278*
X02379Y01286*
X02374Y01293*
X02367Y01298*
X02359Y013*
X0235Y01298*
X02343Y01293*
X02342Y01293*
X02278*
X02216Y01355*
Y01423*
X02215Y01429*
X02212Y01434*
X02175Y0147*
X0217Y01474*
X02165Y01475*
X02121*
X0212Y01475*
X02113Y0148*
X02105Y01482*
G37*
G36*
X-00559Y01094D02*
X-00568Y01092D01*
X-00575Y01087*
X-0058Y0108*
X-00582Y01072*
X-0058Y01063*
X-00575Y01056*
X-00568Y01051*
X-00559Y01049*
X-00551Y01051*
X-0055Y01052*
X-00488*
X-00468Y01031*
Y00984*
X-00469Y00983*
X-0047Y00975*
X-00469Y00966*
X-00464Y00959*
X-00456Y00954*
X-00448Y00952*
X-00439Y00954*
X-00432Y00959*
X-00427Y00966*
X-00426Y00975*
X-00427Y00983*
X-00428Y00984*
Y0104*
X-0043Y01047*
X-00434Y01054*
X-00466Y01086*
X-00473Y0109*
X-0048Y01092*
X-0055*
X-00551Y01092*
X-00559Y01094*
G37*
G36*
X03563Y00938D02*
X03549Y00937D01*
X03536Y00933*
X03523Y00926*
X03513Y00917*
X03504Y00907*
X03497Y00894*
X03493Y00881*
X03492Y00867*
X03493Y00853*
X03497Y0084*
X03504Y00827*
X03513Y00817*
X03523Y00808*
X03536Y00801*
X03549Y00797*
X03563Y00796*
X03577Y00797*
X0359Y00801*
X03603Y00808*
X03614Y00817*
X03623Y00827*
X03629Y0084*
X03633Y00853*
X03635Y00867*
X03633Y00881*
X03629Y00894*
X03623Y00907*
X03614Y00917*
X03603Y00926*
X0359Y00933*
X03577Y00937*
X03563Y00938*
G37*
G36*
X03106D02*
X03093Y00937D01*
X03079Y00933*
X03067Y00926*
X03056Y00917*
X03047Y00907*
X0304Y00894*
X03036Y00881*
X03035Y00867*
X03036Y00853*
X0304Y0084*
X03047Y00827*
X03056Y00817*
X03067Y00808*
X03079Y00801*
X03093Y00797*
X03106Y00796*
X0312Y00797*
X03134Y00801*
X03146Y00808*
X03157Y00817*
X03166Y00827*
X03172Y0084*
X03176Y00853*
X03178Y00867*
X03176Y00881*
X03172Y00894*
X03166Y00907*
X03157Y00917*
X03146Y00926*
X03134Y00933*
X0312Y00937*
X03106Y00938*
G37*
G36*
X05059D02*
X05045Y00937D01*
X05032Y00933*
X0502Y00926*
X05009Y00917*
X05Y00907*
X04993Y00894*
X04989Y00881*
X04988Y00867*
X04989Y00853*
X04993Y0084*
X05Y00827*
X05009Y00817*
X0502Y00808*
X05032Y00801*
X05045Y00797*
X05059Y00796*
X05073Y00797*
X05087Y00801*
X05099Y00808*
X0511Y00817*
X05119Y00827*
X05125Y0084*
X05129Y00853*
X05131Y00867*
X05129Y00881*
X05125Y00894*
X05119Y00907*
X0511Y00917*
X05099Y00926*
X05087Y00933*
X05073Y00937*
X05059Y00938*
G37*
G36*
X04603D02*
X04589Y00937D01*
X04575Y00933*
X04563Y00926*
X04552Y00917*
X04543Y00907*
X04537Y00894*
X04532Y00881*
X04531Y00867*
X04532Y00853*
X04537Y0084*
X04543Y00827*
X04552Y00817*
X04563Y00808*
X04575Y00801*
X04589Y00797*
X04603Y00796*
X04616Y00797*
X0463Y00801*
X04642Y00808*
X04653Y00817*
X04662Y00827*
X04668Y0084*
X04673Y00853*
X04674Y00867*
X04673Y00881*
X04668Y00894*
X04662Y00907*
X04653Y00917*
X04642Y00926*
X0463Y00933*
X04616Y00937*
X04603Y00938*
G37*
G36*
X02067D02*
X02053Y00937D01*
X0204Y00933*
X02027Y00926*
X02017Y00917*
X02008Y00907*
X02001Y00894*
X01997Y00881*
X01996Y00867*
X01997Y00853*
X02001Y0084*
X02008Y00827*
X02017Y00817*
X02027Y00808*
X0204Y00801*
X02053Y00797*
X02067Y00796*
X02081Y00797*
X02094Y00801*
X02107Y00808*
X02118Y00817*
X02126Y00827*
X02133Y0084*
X02137Y00853*
X02138Y00867*
X02137Y00881*
X02133Y00894*
X02126Y00907*
X02118Y00917*
X02107Y00926*
X02094Y00933*
X02081Y00937*
X02067Y00938*
G37*
G36*
X0161D02*
X01596Y00937D01*
X01583Y00933*
X01571Y00926*
X0156Y00917*
X01551Y00907*
X01544Y00894*
X0154Y00881*
X01539Y00867*
X0154Y00853*
X01544Y0084*
X01551Y00827*
X0156Y00817*
X01569Y00809*
X01569Y00804*
X01568Y00803*
X01564Y008*
X01559Y00793*
X01557Y00785*
X01559Y00776*
X01564Y00769*
X01564Y00768*
Y0025*
X01565Y00244*
X01569Y00239*
X01622Y00185*
X01622Y00185*
X01624Y00176*
X01629Y00169*
X01636Y00164*
X01645Y00162*
X01653Y00164*
X0166Y00169*
X01665Y00176*
X01667Y00185*
X01665Y00193*
X0166Y002*
X01653Y00205*
X01645Y00207*
X01644Y00207*
X01595Y00256*
Y00768*
X01595Y00769*
X016Y00776*
X01602Y00785*
X016Y00792*
X01603Y00796*
X0161Y00796*
X01624Y00797*
X01638Y00801*
X0165Y00808*
X01661Y00817*
X0167Y00827*
X01676Y0084*
X0168Y00853*
X01682Y00867*
X0168Y00881*
X01676Y00894*
X0167Y00907*
X01661Y00917*
X0165Y00926*
X01638Y00933*
X01624Y00937*
X0161Y00938*
G37*
G36*
X00571D02*
X00557Y00937D01*
X00544Y00933*
X00531Y00926*
X00521Y00917*
X00512Y00907*
X00505Y00894*
X00501Y00881*
X005Y00867*
X00501Y00853*
X00505Y0084*
X00512Y00827*
X00521Y00817*
X00531Y00808*
X00544Y00801*
X00557Y00797*
X00571Y00796*
X00585Y00797*
X00598Y00801*
X00611Y00808*
X00621Y00817*
X0063Y00827*
X00637Y0084*
X00641Y00853*
X00642Y00867*
X00641Y00881*
X00637Y00894*
X0063Y00907*
X00621Y00917*
X00611Y00926*
X00598Y00933*
X00585Y00937*
X00571Y00938*
G37*
G36*
X00114D02*
X001Y00937D01*
X00087Y00933*
X00075Y00926*
X00064Y00917*
X00055Y00907*
X00048Y00894*
X00044Y00881*
X00043Y00867*
X00044Y00853*
X00048Y0084*
X00055Y00827*
X00064Y00817*
X00075Y00808*
X00087Y00801*
X001Y00797*
X00114Y00796*
X00128Y00797*
X00142Y00801*
X00154Y00808*
X00165Y00817*
X00174Y00827*
X0018Y0084*
X00184Y00853*
X00186Y00867*
X00184Y00881*
X0018Y00894*
X00174Y00907*
X00165Y00917*
X00154Y00926*
X00142Y00933*
X00128Y00937*
X00114Y00938*
G37*
G36*
X01456Y00807D02*
X01447Y00805D01*
X0144Y008*
X01435Y00793*
X01433Y00785*
X01434Y00779*
X0143Y00776*
X01424Y0078*
X01416Y00782*
X01407Y0078*
X014Y00775*
X01395Y00768*
X01393Y0076*
X01394Y00754*
X0139Y00751*
X01384Y00755*
X01376Y00757*
X01367Y00755*
X0136Y0075*
X01355Y00743*
X01353Y00734*
X01355Y00726*
X0136Y00719*
X0136Y00718*
Y00271*
X01343*
Y00208*
X0136*
Y-0015*
X01361Y-00156*
X01365Y-00161*
X01433Y-0023*
X01438Y-00233*
X01444Y-00234*
X01573*
Y-00243*
X01656*
Y-00205*
X01714*
X01716Y-00209*
X01716Y-0021*
X01715Y-00219*
X01716Y-00227*
X01721Y-00234*
X01728Y-00239*
X01737Y-00241*
X01746Y-00239*
X01753Y-00234*
X01758Y-00227*
X01759Y-00219*
X01758Y-0021*
X01754Y-00205*
Y-00197*
X01754Y-00197*
X01757Y-00193*
X01814*
X01818Y-00196*
X01827Y-00198*
X01836Y-00196*
X01843Y-00191*
X01848Y-00184*
X01849Y-00175*
X01848Y-00167*
X01843Y-0016*
X01836Y-00155*
X01827Y-00153*
X01818Y-00155*
X01814Y-00158*
X01758*
X01753Y-00152*
X01753Y-00148*
X01758Y-00141*
X0176Y-00132*
X01758Y-00123*
X01755Y-00119*
Y-00084*
X01759Y-00079*
X01763Y-00074*
X01764Y-00067*
Y00083*
X01763Y00089*
X01759Y00095*
X01745Y00109*
X01746Y00114*
X01747Y00114*
X01751Y00117*
X01767*
X0178Y00105*
Y-0002*
X01781Y-00026*
X01785Y-00032*
X01857Y-00104*
X01862Y-00108*
X01869Y-00109*
X01915*
X0193Y-00124*
Y-00205*
X01926Y-0021*
X01925Y-00219*
X01926Y-00227*
X01931Y-00234*
X01938Y-00239*
X01947Y-00241*
X01956Y-00239*
X01963Y-00234*
X01968Y-00227*
X01969Y-00219*
X01968Y-0021*
X01964Y-00205*
Y-00191*
X01969Y-00189*
X01971Y-00191*
X01978Y-00196*
X01986Y-00198*
X01995Y-00196*
X02002Y-00191*
X02007Y-00184*
X02009Y-00175*
X02007Y-00167*
X02004Y-00163*
Y-00153*
X02009Y-00151*
X02012Y-00153*
X02021Y-00154*
X02029Y-00153*
X02036Y-00148*
X02041Y-00141*
X02043Y-00132*
X02041Y-00123*
X02038Y-00119*
Y-0005*
X02037Y-00044*
X02033Y-00038*
X01987Y00007*
X01981Y00011*
X01975Y00012*
X01907*
X01894Y00025*
Y00151*
X01893Y00157*
X01889Y00163*
X01819Y00234*
X01813Y00237*
X01806Y00239*
X01751*
X01746Y00242*
X01737Y00244*
X01729Y00242*
X01722Y00237*
X01717Y0023*
X01715Y00221*
X01717Y00213*
X01722Y00206*
X01726Y00202*
X01726Y00197*
X01722Y00194*
X01717Y00187*
X01716Y00178*
X01717Y0017*
X01722Y00162*
X01727Y00159*
Y00153*
X01722Y0015*
X01717Y00143*
X01716Y00135*
X01717Y00126*
X01718Y00126*
X01716Y00121*
X01648*
Y00084*
X01573*
Y00075*
X01491*
X01471Y00096*
Y00208*
X01486*
Y00271*
X01471*
Y00768*
X01471Y00769*
X01476Y00776*
X01478Y00785*
X01476Y00793*
X01471Y008*
X01464Y00805*
X01456Y00807*
G37*
G36*
X-0004Y00707D02*
X-00048Y00705D01*
X-00055Y007*
X-0006Y00693*
X-00062Y00685*
X-00061Y00679*
X-00065Y00676*
X-00071Y0068*
X-0008Y00682*
X-00088Y0068*
X-00095Y00675*
X-001Y00668*
X-00102Y0066*
X-00101Y00654*
X-00105Y00651*
X-00111Y00655*
X-0012Y00657*
X-00128Y00655*
X-00135Y0065*
X-0014Y00643*
X-00142Y00635*
X-0014Y00626*
X-00135Y00619*
X-00135Y00618*
Y00271*
X-00151*
Y00208*
X-00135*
Y-0015*
X-00134Y-00156*
X-0013Y-00161*
X-00062Y-0023*
X-00057Y-00233*
X-00051Y-00234*
X00077*
Y-00243*
X0016*
Y-00205*
X00218*
X0022Y-00209*
X0022Y-0021*
X00219Y-00219*
X0022Y-00227*
X00225Y-00234*
X00232Y-00239*
X00241Y-00241*
X00249Y-00239*
X00257Y-00234*
X00262Y-00227*
X00263Y-00219*
X00262Y-0021*
X00258Y-00205*
Y-00197*
X00258Y-00197*
X00261Y-00193*
X00318*
X00322Y-00196*
X00331Y-00198*
X00339Y-00196*
X00347Y-00191*
X00352Y-00184*
X00353Y-00175*
X00352Y-00167*
X00347Y-0016*
X00339Y-00155*
X00331Y-00153*
X00322Y-00155*
X00318Y-00158*
X00262*
X00257Y-00152*
X00257Y-00148*
X00262Y-00141*
X00264Y-00132*
X00262Y-00123*
X00259Y-00119*
Y-00084*
X00263Y-00079*
X00267Y-00074*
X00268Y-00067*
Y00083*
X00267Y00089*
X00263Y00095*
X00249Y00109*
X0025Y00114*
X00251Y00114*
X00255Y00117*
X00271*
X00284Y00105*
Y-0002*
X00285Y-00026*
X00289Y-00032*
X00361Y-00104*
X00366Y-00108*
X00373Y-00109*
X00419*
X00434Y-00124*
Y-00205*
X0043Y-0021*
X00429Y-00219*
X0043Y-00227*
X00435Y-00234*
X00442Y-00239*
X00451Y-00241*
X00459Y-00239*
X00467Y-00234*
X00472Y-00227*
X00473Y-00219*
X00472Y-0021*
X00468Y-00205*
Y-00191*
X00473Y-00189*
X00475Y-00191*
X00482Y-00196*
X0049Y-00198*
X00499Y-00196*
X00506Y-00191*
X00511Y-00184*
X00513Y-00175*
X00511Y-00167*
X00508Y-00162*
Y-00153*
X00513Y-0015*
X00516Y-00153*
X00525Y-00154*
X00533Y-00153*
X0054Y-00148*
X00545Y-00141*
X00547Y-00132*
X00545Y-00123*
X00542Y-00119*
Y-0005*
X00541Y-00044*
X00537Y-00038*
X00491Y00007*
X00485Y00011*
X00479Y00012*
X00411*
X00398Y00025*
Y00151*
X00397Y00157*
X00393Y00163*
X00323Y00234*
X00317Y00237*
X0031Y00239*
X00255*
X0025Y00242*
X00241Y00244*
X00233Y00242*
X00226Y00237*
X00221Y0023*
X00219Y00221*
X00221Y00213*
X00226Y00206*
X0023Y00202*
X0023Y00197*
X00226Y00194*
X00221Y00187*
X0022Y00178*
X00221Y0017*
X00226Y00162*
X00231Y00159*
Y00153*
X00226Y0015*
X00221Y00143*
X0022Y00135*
X00221Y00126*
X00222Y00126*
X00219Y00121*
X00152*
Y00084*
X00077*
Y00075*
X-00004*
X-00024Y00096*
Y00208*
X-00008*
Y00271*
X-00024*
Y00668*
X-00024Y00669*
X-00019Y00676*
X-00017Y00685*
X-00019Y00693*
X-00024Y007*
X-00031Y00705*
X-0004Y00707*
G37*
G36*
X0321Y00493D02*
X03192D01*
Y00439*
X03233*
Y0047*
X0321Y00493*
G37*
G36*
X03182D02*
X03164D01*
X03142Y0047*
Y00439*
X03182*
Y00493*
G37*
G36*
X04706D02*
X04688D01*
Y00439*
X04729*
Y0047*
X04706Y00493*
G37*
G36*
X04678D02*
X0466D01*
X04638Y0047*
Y00439*
X04678*
Y00493*
G37*
G36*
X01714D02*
X01696D01*
Y00439*
X01737*
Y0047*
X01714Y00493*
G37*
G36*
X01686D02*
X01668D01*
X01646Y0047*
Y00439*
X01686*
Y00493*
G37*
G36*
X00218D02*
X002D01*
Y00439*
X0024*
Y0047*
X00218Y00493*
G37*
G36*
X03233Y00429D02*
X03192D01*
Y00375*
X0321*
X03233Y00397*
Y00429*
G37*
G36*
X03182D02*
X03142D01*
Y00397*
X03164Y00375*
X03182*
Y00429*
G37*
G36*
X04729D02*
X04688D01*
Y00375*
X04706*
X04729Y00397*
Y00429*
G37*
G36*
X04678D02*
X04638D01*
Y00397*
X0466Y00375*
X04678*
Y00429*
G37*
G36*
X01737D02*
X01696D01*
Y00375*
X01714*
X01737Y00397*
Y00429*
G37*
G36*
X01686D02*
X01646D01*
Y00397*
X01668Y00375*
X01686*
Y00429*
G37*
G36*
X0024D02*
X002D01*
Y00375*
X00218*
X0024Y00397*
Y00429*
G37*
G36*
X0013Y00732D02*
X00121Y0073D01*
X00114Y00725*
X00109Y00718*
X00107Y0071*
X00109Y00701*
X00114Y00694*
X00114Y00693*
Y00198*
X00114Y00198*
X00109Y0019*
X00107Y00182*
X00109Y00173*
X00114Y00166*
X00121Y00161*
X0013Y0016*
X00138Y00161*
X00145Y00166*
X0015Y00173*
X00152Y00182*
X0015Y0019*
X00145Y00198*
X00145Y00198*
Y00397*
X0015Y00397*
X00172Y00375*
X0019*
Y00434*
Y00493*
X00172*
X0015Y00471*
X00145Y00471*
Y00693*
X00145Y00694*
X0015Y00701*
X00152Y0071*
X0015Y00718*
X00145Y00725*
X00138Y0073*
X0013Y00732*
G37*
G36*
X03286Y00692D02*
X03277Y0069D01*
X0327Y00685*
X03265Y00678*
X03263Y0067*
X03265Y00661*
X0327Y00654*
X0327Y00653*
Y00495*
X03262*
X03238Y00471*
Y00396*
X03262Y00373*
X03309*
X03332Y00395*
X03335Y00396*
X03338Y00395*
X0336Y00373*
X03362*
Y00328*
X03355Y00322*
X0322*
X03211Y0032*
X03204Y00315*
X03164Y00275*
X03159Y00268*
X03157Y0026*
X03159Y00251*
X03164Y00244*
X03171Y00239*
X0318Y00237*
X03188Y00239*
X03196Y00244*
X03229Y00277*
X03365*
X03373Y00279*
X0338Y00284*
X034Y00303*
X03405Y0031*
X03406Y00319*
Y00373*
X03408*
X0343Y00395*
X03433Y00396*
X03436Y00395*
X03459Y00373*
X03506*
X0353Y00396*
Y00471*
X03506Y00495*
X03459*
X03436Y00472*
X03433Y00472*
X0343Y00472*
X03408Y00495*
X0336*
X03338Y00472*
X03335Y00472*
X03332Y00472*
X03309Y00495*
X03301*
Y00653*
X03301Y00654*
X03306Y00661*
X03308Y0067*
X03306Y00678*
X03301Y00685*
X03294Y0069*
X03286Y00692*
G37*
G36*
X00293Y00632D02*
X00285Y0063D01*
X00278Y00625*
X00273Y00618*
X00271Y0061*
X00273Y00601*
X00278Y00594*
X00278Y00593*
Y00495*
X0027*
X00246Y00471*
Y00396*
X0027Y00373*
X00317*
X0034Y00395*
X00343Y00396*
X00345Y00395*
X00368Y00373*
X00416*
X00438Y00395*
X00441Y00396*
X00444Y00395*
X00467Y00373*
X00514*
X00538Y00396*
Y00471*
X00514Y00495*
X00467*
X00444Y00472*
X00441Y00472*
X00438Y00472*
X00416Y00495*
X00368*
X00345Y00472*
X00343Y00472*
X0034Y00472*
X00317Y00495*
X00309*
Y00593*
X00309Y00594*
X00314Y00601*
X00316Y0061*
X00314Y00618*
X00309Y00625*
X00302Y0063*
X00293Y00632*
G37*
G36*
X02871Y00782D02*
X02863Y0078D01*
X02855Y00775*
X02851Y00768*
X02849Y0076*
X02851Y00751*
X02855Y00744*
X02856Y00743*
Y00271*
X02843*
Y00208*
X02856*
Y-0015*
X02857Y-00156*
X02861Y-00161*
X0293Y-0023*
X02935Y-00233*
X0294Y-00234*
X03069*
Y-00243*
X03152*
Y-00205*
X0321*
X03212Y-00209*
X03212Y-0021*
X03211Y-00219*
X03213Y-00227*
X03217Y-00234*
X03225Y-00239*
X03233Y-00241*
X03242Y-00239*
X03249Y-00234*
X03254Y-00227*
X03255Y-00219*
X03254Y-0021*
X0325Y-00205*
Y-00197*
X0325Y-00197*
X03253Y-00193*
X0331*
X03315Y-00196*
X03323Y-00198*
X03332Y-00196*
X03339Y-00191*
X03344Y-00184*
X03345Y-00175*
X03344Y-00167*
X03339Y-0016*
X03332Y-00155*
X03323Y-00153*
X03315Y-00155*
X0331Y-00158*
X03254*
X03249Y-00152*
X03249Y-00148*
X03254Y-00141*
X03256Y-00132*
X03254Y-00123*
X03251Y-00119*
Y-00084*
X03255Y-00079*
X03259Y-00074*
X0326Y-00067*
Y00083*
X03259Y00089*
X03255Y00095*
X03242Y00109*
X03242Y00114*
X03243Y00114*
X03247Y00117*
X03264*
X03276Y00105*
Y-0002*
X03277Y-00026*
X03281Y-00032*
X03353Y-00104*
X03358Y-00108*
X03365Y-00109*
X03411*
X03426Y-00124*
Y-00205*
X03423Y-0021*
X03421Y-00219*
X03423Y-00227*
X03427Y-00234*
X03435Y-00239*
X03443Y-00241*
X03452Y-00239*
X03459Y-00234*
X03464Y-00227*
X03465Y-00219*
X03464Y-0021*
X0346Y-00205*
Y-00191*
X03465Y-00189*
X03467Y-00191*
X03474Y-00196*
X03482Y-00198*
X03491Y-00196*
X03498Y-00191*
X03503Y-00184*
X03505Y-00175*
X03503Y-00167*
X035Y-00163*
Y-00153*
X03505Y-00151*
X03508Y-00153*
X03517Y-00154*
X03525Y-00153*
X03532Y-00148*
X03537Y-00141*
X03539Y-00132*
X03537Y-00123*
X03534Y-00119*
Y-0005*
X03533Y-00044*
X03529Y-00038*
X03483Y00007*
X03477Y00011*
X03471Y00012*
X03403*
X0339Y00025*
Y00151*
X03389Y00157*
X03385Y00163*
X03315Y00234*
X03309Y00237*
X03303Y00239*
X03247*
X03242Y00242*
X03233Y00244*
X03225Y00242*
X03218Y00237*
X03213Y0023*
X03211Y00221*
X03213Y00213*
X03218Y00206*
X03222Y00202*
X03222Y00197*
X03218Y00194*
X03214Y00187*
X03212Y00178*
X03214Y0017*
X03218Y00162*
X03223Y00159*
Y00153*
X03218Y0015*
X03214Y00143*
X03212Y00135*
X03214Y00126*
X03214Y00126*
X03212Y00121*
X03144*
Y00084*
X03069*
Y00075*
X02987*
X02967Y00096*
Y00208*
X02983*
Y00271*
X02967*
Y00676*
X02972Y00678*
X02974Y00676*
Y0058*
X02975Y00574*
X02978Y00569*
X03064Y00484*
Y00201*
X03063Y002*
X03058Y00193*
X03057Y00185*
X03058Y00176*
X03063Y00169*
X03071Y00164*
X03079Y00162*
X03088Y00164*
X03095Y00169*
X031Y00176*
X03101Y00185*
X031Y00193*
X03095Y002*
X03094Y00201*
Y0049*
X03093Y00496*
X0309Y00501*
X03004Y00586*
Y00678*
X03005Y00679*
X0301Y00686*
X03011Y00695*
X0301Y00703*
X03005Y0071*
X02998Y00715*
X02989Y00717*
X02981Y00715*
X02978Y00714*
X02977Y00714*
X02973Y00716*
X02972Y00723*
X02967Y0073*
X0296Y00735*
X02951Y00737*
X02943Y00735*
X02938Y00732*
X02935Y00733*
X02933Y00735*
X02932Y00743*
X02927Y0075*
X0292Y00755*
X02911Y00757*
X02903Y00755*
X02897Y00751*
X02892Y00754*
X02893Y0076*
X02892Y00768*
X02887Y00775*
X0288Y0078*
X02871Y00782*
G37*
G36*
X0086Y00033D02*
X00851Y00032D01*
X00844Y00029*
X00837Y00023*
X00832Y00017*
X00829Y00009*
X00828Y00001*
X00829Y-00006*
X00832Y-00014*
X00837Y-00021*
X00844Y-00026*
X00851Y-00029*
X0086Y-0003*
X00868Y-00029*
X00875Y-00026*
X00882Y-00021*
X00887Y-00014*
X0089Y-00006*
X00891Y00001*
X0089Y00009*
X00887Y00017*
X00882Y00023*
X00875Y00029*
X00868Y00032*
X0086Y00033*
G37*
G36*
X05169Y00035D02*
X05167Y00035D01*
X05165Y00034*
X05156Y00031*
X05152Y00028*
X05145Y00022*
X05143Y00018*
X05139Y00009*
X05138Y00004*
Y-00004*
X05139Y-00009*
X05143Y-00018*
X05145Y-00022*
X05152Y-00028*
X05156Y-00031*
X05165Y-00034*
X05169Y-00035*
X05179*
X05183Y-00034*
X05192Y-00031*
X05196Y-00028*
X05203Y-00022*
X05203*
X05205Y-00018*
X05209Y-00009*
X0521Y-00004*
Y00004*
Y00004*
X05209Y00007*
X05209Y00009*
X05205Y00018*
X05203Y00022*
X05196Y00028*
X05192Y00031*
X05192*
X05183Y00034*
X05179Y00035*
X05169*
G37*
G36*
X03673D02*
X03671Y00035D01*
X03669Y00034*
X0366Y00031*
X03656Y00028*
X03649Y00022*
X03649*
X03647Y00018*
X03643Y00009*
X03642Y00004*
Y-00004*
X03643Y-00009*
X03647Y-00018*
X03649Y-00022*
X03649*
X03656Y-00028*
X0366Y-00031*
X03669Y-00034*
X03673Y-00035*
X03683*
X03687Y-00034*
X03696Y-00031*
X037Y-00028*
X03707Y-00022*
X03707*
X03709Y-00018*
X03713Y-00009*
X03714Y-00004*
Y00004*
Y00004*
X03713Y00007*
X03713Y00009*
X03709Y00018*
X03707Y00022*
X037Y00028*
X03696Y00031*
X03696*
X03687Y00034*
X03683Y00035*
X03673*
G37*
G36*
X02177D02*
X02175Y00035D01*
X02173Y00034*
X02164Y00031*
X0216Y00028*
X02153Y00022*
X02151Y00018*
X02147Y00009*
X02146Y00004*
Y-00004*
X02147Y-00009*
X02147*
X02151Y-00018*
X02153Y-00022*
X0216Y-00028*
X02164Y-00031*
X02173Y-00034*
X02177Y-00035*
X02187*
X02191Y-00034*
X022Y-00031*
X02204Y-00028*
X02211Y-00022*
X02211*
X02213Y-00018*
X02217Y-00009*
X02218Y-00004*
Y00004*
Y00004*
X02217Y00007*
X02217Y00009*
X02213Y00018*
X02211Y00022*
X02204Y00028*
X022Y00031*
X022*
X02191Y00034*
X02187Y00035*
X02177*
G37*
G36*
X00681D02*
X00679Y00035D01*
X00676Y00034*
X00668Y00031*
X00664Y00028*
X00657Y00022*
X00654Y00018*
X00651Y00009*
X0065Y00004*
Y-00004*
X00651Y-00009*
X00654Y-00018*
X00657Y-00022*
X00664Y-00028*
X00668Y-00031*
X00676Y-00034*
X00681Y-00035*
X00691*
X00695Y-00034*
X00704Y-00031*
X00708Y-00028*
X00715Y-00022*
X00717Y-00018*
X00721Y-00009*
X00722Y-00004*
Y00004*
Y00004*
X00721Y00007*
X00721Y00009*
X00717Y00018*
X00715Y00022*
X00708Y00028*
X00704Y00031*
X00695Y00034*
X00691Y00035*
X00681*
G37*
G36*
X0428Y00053D02*
X04266Y00051D01*
X04253Y00046*
X04241Y00038*
X04233Y00026*
X04228Y00013*
X04226Y0*
X04228Y-00013*
X04233Y-00026*
X04241Y-00038*
X04253Y-00046*
X04266Y-00051*
X0428Y-00053*
X04293Y-00051*
X04306Y-00046*
X04318Y-00038*
X04326Y-00026*
X04331Y-00013*
X04333Y0*
X04331Y00013*
X04326Y00026*
X04318Y00038*
X04306Y00046*
X04293Y00051*
X0428Y00053*
G37*
G36*
X02594Y00083D02*
X0258D01*
X02579Y00083*
X02578*
X02564Y0008*
X02563Y0008*
X02562Y00079*
X02549Y00074*
X02548Y00074*
X02547Y00073*
X02536Y00066*
X02535Y00065*
X02534Y00064*
X02525Y00054*
X02524Y00053*
X02523Y00053*
X02516Y00041*
X02515Y0004*
X02514Y00039*
X02509Y00027*
X02509Y00025*
X02509Y00024*
X02506Y00011*
Y0001*
X02506Y00009*
Y-00004*
X02506Y-00005*
Y-00006*
X02509Y-0002*
X02509Y-00021*
X02509Y-00022*
X02514Y-00034*
X02515Y-00035*
X02516Y-00037*
X02523Y-00048*
X02524Y-00049*
X02525Y-0005*
X02534Y-00059*
X02535Y-0006*
X02536Y-00061*
X02547Y-00068*
X02548Y-00069*
X02549Y-00069*
X02562Y-00075*
X02563Y-00075*
X02564Y-00075*
X02578Y-00078*
X02579*
X0258Y-00078*
X02594*
X02595Y-00078*
X02596*
X02609Y-00075*
X0261Y-00075*
X02612Y-00075*
X02624Y-00069*
X02625Y-00069*
X02626Y-00068*
X02637Y-00061*
X02638Y-0006*
X02639Y-00059*
X02649Y-0005*
X0265Y-00049*
X0265Y-00048*
X02658Y-00037*
X02658Y-00035*
X02659Y-00034*
X02664Y-00022*
X02665Y-00021*
X02665Y-0002*
X02668Y-00006*
Y-00005*
X02668Y-00004*
Y00009*
X02668Y0001*
Y00011*
X02665Y00024*
X02665Y00025*
X02664Y00027*
X02659Y00039*
X02658Y0004*
X02658Y00041*
X0265Y00053*
X0265Y00053*
X02649Y00054*
X02639Y00064*
X02638Y00065*
X02637Y00066*
X02626Y00073*
X02625Y00074*
X02624Y00074*
X02612Y00079*
X0261Y0008*
X02609Y0008*
X02596Y00083*
X02595*
X02594Y00083*
G37*
G36*
X01097D02*
X01084D01*
X01083Y00083*
X01082*
X01068Y0008*
X01067Y0008*
X01066Y00079*
X01053Y00074*
X01052Y00074*
X01051Y00073*
X0104Y00066*
X01039Y00065*
X01038Y00064*
X01029Y00054*
X01028Y00053*
X01027Y00053*
X01019Y00041*
X01019Y0004*
X01018Y00039*
X01013Y00027*
X01013Y00025*
X01012Y00024*
X0101Y00011*
Y0001*
X0101Y00009*
Y-00004*
X0101Y-00005*
Y-00006*
X01012Y-0002*
X01013Y-00021*
X01013Y-00022*
X01018Y-00034*
X01019Y-00035*
X01019Y-00037*
X01027Y-00048*
X01028Y-00049*
X01029Y-0005*
X01038Y-00059*
X01039Y-0006*
X0104Y-00061*
X01051Y-00068*
X01052Y-00069*
X01053Y-00069*
X01066Y-00075*
X01067Y-00075*
X01068Y-00075*
X01082Y-00078*
X01083*
X01084Y-00078*
X01097*
X01099Y-00078*
X011*
X01113Y-00075*
X01114Y-00075*
X01115Y-00075*
X01128Y-00069*
X01129Y-00069*
X0113Y-00068*
X01141Y-00061*
X01142Y-0006*
X01143Y-00059*
X01153Y-0005*
X01154Y-00049*
X01154Y-00048*
X01162Y-00037*
X01162Y-00035*
X01163Y-00034*
X01168Y-00022*
X01168Y-00021*
X01169Y-0002*
X01172Y-00006*
Y-00005*
X01172Y-00004*
Y00009*
X01172Y0001*
Y00011*
X01169Y00024*
X01168Y00025*
X01168Y00027*
X01163Y00039*
X01162Y0004*
X01162Y00041*
X01154Y00053*
X01154Y00053*
X01153Y00054*
X01143Y00064*
X01142Y00065*
X01141Y00066*
X0113Y00073*
X01129Y00074*
X01128Y00074*
X01115Y00079*
X01114Y0008*
X01113Y0008*
X011Y00083*
X01099*
X01097Y00083*
G37*
G36*
X0409Y00081D02*
X04076D01*
X04075Y0008*
X04074*
X0406Y00078*
X04059Y00077*
X04058Y00077*
X04046Y00072*
X04045Y00071*
X04043Y00071*
X04032Y00063*
X04031Y00062*
X0403Y00062*
X04021Y00052*
X0402Y00051*
X04019Y0005*
X04012Y00039*
X04011Y00038*
X0401Y00037*
X04005Y00024*
X04005Y00023*
X04005Y00022*
X04002Y00009*
Y00007*
X04002Y00006*
Y-00006*
X04002Y-00007*
Y-00009*
X04005Y-00022*
X04005Y-00023*
X04005Y-00024*
X0401Y-00037*
X04011Y-00038*
X04012Y-00039*
X04019Y-0005*
X0402Y-00051*
X04021Y-00052*
X0403Y-00062*
X04031Y-00062*
X04032Y-00063*
X04043Y-00071*
X04045Y-00071*
X04046Y-00072*
X04058Y-00077*
X04059Y-00077*
X0406Y-00078*
X04074Y-0008*
X04075*
X04076Y-00081*
X0409*
X04091Y-0008*
X04092*
X04105Y-00078*
X04106Y-00077*
X04108Y-00077*
X0412Y-00072*
X04121Y-00071*
X04122Y-00071*
X04134Y-00063*
X04134Y-00062*
X04135Y-00062*
X04145Y-00052*
X04146Y-00051*
X04147Y-0005*
X04154Y-00039*
X04155Y-00038*
X04155Y-00037*
X0416Y-00024*
X04161Y-00023*
X04161Y-00022*
X04164Y-00009*
Y-00007*
X04164Y-00006*
Y00006*
X04164Y00007*
Y00009*
X04161Y00022*
X04161Y00023*
X0416Y00024*
X04155Y00037*
X04155Y00038*
X04154Y00039*
X04147Y0005*
X04146Y00051*
X04145Y00052*
X04135Y00062*
X04134Y00062*
X04134Y00063*
X04122Y00071*
X04121Y00071*
X0412Y00072*
X04108Y00077*
X04106Y00077*
X04105Y00078*
X04092Y0008*
X04091*
X0409Y00081*
G37*
G36*
X02995Y03937D02*
X02987Y03936D01*
X02979Y03931*
X02975Y03923*
X02973Y03915*
X02975Y03906*
X02979Y03899*
X0298Y03899*
Y0386*
X02975Y03858*
X02974Y0386*
X02966Y03865*
X02958Y03867*
X02949Y03865*
X02942Y0386*
X02937Y03853*
X02936Y03845*
X02937Y03836*
X02942Y03829*
X02943Y03828*
Y03818*
X02934*
Y03735*
X02972*
Y03661*
X0297Y03656*
X02965*
Y03593*
X03025*
Y03656*
X03021*
X03019Y03661*
Y03744*
X0301*
Y03899*
X03011Y03899*
X03016Y03906*
X03017Y03915*
X03016Y03923*
X03011Y03931*
X03004Y03936*
X02995Y03937*
G37*
G36*
X-00045Y03558D02*
X-00092D01*
Y03475*
X-00055*
Y03425*
X-0006Y03421*
X-00065Y03422*
X-00073Y0342*
X-0008Y03415*
X-00085Y03408*
X-00087Y034*
X-00085Y03391*
X-0008Y03384*
X-00073Y03379*
X-00065Y03377*
X-00056Y03379*
X-00049Y03384*
X-00048Y03385*
X-00047Y03385*
X-00042Y03389*
X-00031Y03401*
X-00007*
Y03484*
X-00045*
Y03492*
X-00041Y03495*
X-00039Y03495*
X-00031Y03496*
X-00024Y03501*
X-00019Y03508*
X-00017Y03517*
X-00019Y03525*
X-00024Y03533*
X-00031Y03537*
X-00039Y03539*
X-00041Y03539*
X-00045Y03542*
Y03558*
G37*
G36*
X02055Y03553D02*
X02041Y03551D01*
X02027Y03545*
X02016Y03536*
X02007Y03525*
X02001Y03511*
X01999Y03497*
X02001Y03482*
X02007Y03469*
X02016Y03457*
X02027Y03449*
X02041Y03443*
X02055Y03441*
X0207Y03443*
X02083Y03449*
X02095Y03457*
X02104Y03469*
X02109Y03482*
X02111Y03497*
X02109Y03511*
X02104Y03525*
X02095Y03536*
X02083Y03545*
X0207Y03551*
X02055Y03553*
G37*
G36*
X02888Y03402D02*
X02858D01*
X02848Y03391*
X02838Y03402*
X02808*
X02793Y03387*
Y03333*
X02808Y03319*
X02838*
X02848Y03329*
X02858Y03319*
X02888*
X02903Y03333*
Y03387*
X02888Y03402*
G37*
G36*
X02366D02*
X02336D01*
X02326Y03391*
X02315Y03402*
X02285*
X02271Y03387*
Y03333*
X02285Y03319*
X02315*
X02326Y03329*
X02336Y03319*
X02366*
X0238Y03333*
Y03387*
X02366Y03402*
G37*
G36*
X02432Y03442D02*
X02423Y0344D01*
X02416Y03435*
X02411Y03428*
X02409Y0342*
X02411Y03411*
X02414Y03406*
Y03265*
X02411Y0326*
X02409Y03252*
X02411Y03243*
X02416Y03236*
X02423Y03231*
X02432Y03229*
X0244Y03231*
X02448Y03236*
X02452Y03243*
X02454Y03252*
X02452Y0326*
X02449Y03265*
Y03406*
X02452Y03411*
X02454Y0342*
X02452Y03428*
X02448Y03435*
X0244Y0344*
X02432Y03442*
G37*
G36*
X00134Y02825D02*
X0011D01*
Y028*
X00112Y02801*
X00119Y02804*
X00126Y02808*
X0013Y02815*
X00133Y02822*
X00134Y02825*
G37*
G36*
X005Y02479D02*
Y02445D01*
X00535*
X00534Y02451*
X0053Y0246*
X00524Y02468*
X00515Y02475*
X00506Y02479*
X005Y02479*
G37*
G36*
X0D02*
Y02445D01*
X00035*
X00034Y02451*
X0003Y0246*
X00024Y02468*
X00015Y02475*
X00006Y02479*
X0Y02479*
G37*
G36*
X0049D02*
X00485Y02479D01*
X00475Y02475*
X00467Y02468*
X00461Y0246*
X00457Y02451*
X00456Y02445*
X0049*
Y02479*
G37*
G36*
X-00009D02*
X-00014Y02479D01*
X-00024Y02475*
X-00032Y02468*
X-00038Y0246*
X-00042Y02451*
X-00043Y02445*
X-00009*
Y02479*
G37*
G36*
X00095Y02482D02*
X00085Y02481D01*
X00074Y02477*
X00066Y0247*
X00059Y02461*
X00055Y02451*
X00054Y0244*
X00055Y02429*
X00059Y02419*
X00065Y02411*
X00064Y02406*
X00024*
X00022Y02411*
X00024Y02412*
X0003Y0242*
X00034Y0243*
X00035Y02435*
X-00004*
X-00043*
X-00042Y0243*
X-00038Y0242*
X-00032Y02412*
X-00031Y02411*
X-00032Y02406*
X-00038*
X-00039Y02407*
X-00046Y02412*
X-00055Y02413*
X-00063Y02412*
X-0007Y02407*
X-00075Y024*
X-00077Y02391*
X-00075Y02383*
X-0007Y02375*
X-00063Y02371*
X-00055Y02369*
X-00046Y02371*
X-00039Y02375*
X-00038Y02376*
X-0003*
X-00029Y02371*
X-00032Y02368*
X-00038Y0236*
X-00042Y02351*
X-00043Y02345*
X-00004*
X00035*
X00034Y02351*
X0003Y0236*
X00024Y02368*
X0002Y02371*
X00022Y02376*
X00066*
X00067Y02371*
X00066Y0237*
X00059Y02361*
X00055Y02351*
X00054Y0234*
X00055Y02329*
X00059Y02319*
X00066Y02311*
X00074Y02304*
X00085Y023*
X00095Y02298*
X00106Y023*
X00116Y02304*
X00125Y02311*
X00132Y02319*
X00136Y02329*
X00137Y0234*
X00136Y02351*
X00132Y02361*
X00125Y0237*
X00123Y02371*
X00125Y02376*
X00138*
X00157Y02357*
X00155Y02351*
X00154Y0234*
X00155Y02329*
X00159Y02319*
X00166Y02311*
X00174Y02304*
X00185Y023*
X00195Y02298*
X00206Y023*
X00216Y02304*
X00225Y02311*
X00232Y02319*
X00236Y02329*
X00237Y0234*
X00236Y02351*
X00232Y02361*
X00225Y0237*
X00216Y02377*
X00206Y02381*
X00195Y02382*
X00185Y02381*
X00179Y02378*
X00155Y02402*
X0015Y02405*
X00145Y02406*
X00127*
X00126Y02411*
X00132Y02419*
X00136Y02429*
X00137Y0244*
X00136Y02451*
X00132Y02461*
X00125Y0247*
X00116Y02477*
X00106Y02481*
X00095Y02482*
G37*
G36*
X00535Y02435D02*
X005D01*
Y02401*
X00506Y02402*
X00515Y02406*
X00524Y02412*
X0053Y0242*
X00534Y0243*
X00535Y02435*
G37*
G36*
X0049D02*
X00456D01*
X00457Y0243*
X00461Y0242*
X00467Y02412*
X00475Y02406*
X00485Y02402*
X0049Y02401*
Y02435*
G37*
G36*
X00395Y02482D02*
X00385Y02481D01*
X00374Y02477*
X00366Y0247*
X00359Y02461*
X00355Y02451*
X00354Y0244*
X00355Y02429*
X00359Y02419*
X00366Y02411*
X00374Y02404*
X00385Y024*
X00395Y02398*
X00406Y024*
X00416Y02404*
X00425Y02411*
X00432Y02419*
X00436Y02429*
X00437Y0244*
X00436Y02451*
X00432Y02461*
X00425Y0247*
X00416Y02477*
X00406Y02481*
X00395Y02482*
G37*
G36*
X00295D02*
X00285Y02481D01*
X00274Y02477*
X00266Y0247*
X00259Y02461*
X00255Y02451*
X00254Y0244*
X00255Y02429*
X00259Y02419*
X00266Y02411*
X00274Y02404*
X00285Y024*
X00295Y02398*
X00306Y024*
X00316Y02404*
X00325Y02411*
X00332Y02419*
X00336Y02429*
X00337Y0244*
X00336Y02451*
X00332Y02461*
X00325Y0247*
X00316Y02477*
X00306Y02481*
X00295Y02482*
G37*
G36*
X00195D02*
X00185Y02481D01*
X00174Y02477*
X00166Y0247*
X00159Y02461*
X00155Y02451*
X00154Y0244*
X00155Y02429*
X00159Y02419*
X00166Y02411*
X00174Y02404*
X00185Y024*
X00195Y02398*
X00206Y024*
X00216Y02404*
X00225Y02411*
X00232Y02419*
X00236Y02429*
X00237Y0244*
X00236Y02451*
X00232Y02461*
X00225Y0247*
X00216Y02477*
X00206Y02481*
X00195Y02482*
G37*
G36*
X003Y02379D02*
Y02345D01*
X00335*
X00334Y02351*
X0033Y0236*
X00324Y02368*
X00315Y02375*
X00306Y02379*
X003Y02379*
G37*
G36*
X0029D02*
X00285Y02379D01*
X00275Y02375*
X00267Y02368*
X00261Y0236*
X00257Y02351*
X00256Y02345*
X0029*
Y02379*
G37*
G36*
X00335Y02335D02*
X003D01*
Y02301*
X00306Y02302*
X00315Y02306*
X00324Y02312*
X0033Y0232*
X00334Y0233*
X00335Y02335*
G37*
G36*
X00035D02*
X0D01*
Y02301*
X00006Y02302*
X00015Y02306*
X00024Y02312*
X0003Y0232*
X00034Y0233*
X00035Y02335*
G37*
G36*
X0029D02*
X00256D01*
X00257Y0233*
X00261Y0232*
X00267Y02312*
X00275Y02306*
X00285Y02302*
X0029Y02301*
Y02335*
G37*
G36*
X-00009D02*
X-00043D01*
X-00042Y0233*
X-00038Y0232*
X-00032Y02312*
X-00024Y02306*
X-00014Y02302*
X-00009Y02301*
Y02335*
G37*
G36*
X00537Y02382D02*
X00454D01*
Y02299*
X00537*
Y02382*
G37*
G36*
X00395Y02382D02*
X00385Y02381D01*
X00374Y02377*
X00366Y0237*
X00359Y02361*
X00355Y02351*
X00354Y0234*
X00355Y02329*
X00359Y02319*
X00366Y02311*
X00374Y02304*
X00385Y023*
X00395Y02298*
X00406Y023*
X00416Y02304*
X00425Y02311*
X00432Y02319*
X00436Y02329*
X00437Y0234*
X00436Y02351*
X00432Y02361*
X00425Y0237*
X00416Y02377*
X00406Y02381*
X00395Y02382*
G37*
G36*
X04483Y00035D02*
X0448Y00035D01*
X04478Y00034*
X0447Y00031*
X04466Y00028*
X04459Y00022*
X04457Y00019*
X04456Y00018*
X04453Y00009*
X04452Y00004*
Y0*
Y-00004*
X04453Y-00009*
X04456Y-00018*
X04459Y-00022*
X04466Y-00028*
X04468Y-0003*
X0447Y-00031*
X04478Y-00034*
X04483Y-00035*
X04492*
X04497Y-00034*
X04506Y-00031*
X0451Y-00028*
X04516Y-00022*
X04518Y-00018*
X04519Y-00018*
X04523Y-00009*
X04523Y-00005*
X04524Y-00004*
Y0*
Y00004*
Y00004*
X04523Y00007*
X04523Y00009*
X04519Y00018*
X04516Y00022*
X0451Y00028*
X04507Y0003*
X04506Y00031*
X04497Y00034*
X04493Y00035*
X04492Y00035*
X04483*
G37*
%LNduo_x-3*%
%LPD*%
G36*
X03802Y03468D02*
X03819Y0345D01*
Y03406*
X03787*
Y03445*
X03764Y03467*
X03742*
Y03575*
X03802*
Y03468*
G37*
G36*
X03692Y03495D02*
X03677Y0348D01*
Y03405*
X03642*
Y0346*
X03627Y03475*
X03593*
X03563Y03505*
Y0356*
X03692*
Y03495*
G37*
G36*
X03872Y03403D02*
X03842D01*
Y03458*
X0384Y0346*
X03827*
X03812Y03475*
Y03575*
X03872*
Y03403*
G37*
G36*
X0081Y03468D02*
X00827Y0345D01*
Y03406*
X00795*
Y03445*
X00772Y03467*
X0075*
Y03575*
X0081*
Y03468*
G37*
G36*
X007Y03495D02*
X00685Y0348D01*
Y03405*
X0065*
Y0346*
X00635Y03475*
X00601*
X00571Y03505*
Y0356*
X007*
Y03495*
G37*
G36*
X0088Y03403D02*
X0085D01*
Y03458*
X00848Y0346*
X00835*
X0082Y03475*
Y03575*
X0088*
Y03403*
G37*
G36*
X0144Y0009D02*
X01441Y00084D01*
X01445Y00079*
X01474Y00049*
X01479Y00046*
X01485Y00045*
X01573*
Y00036*
X01656*
Y00074*
X0173*
Y-00018*
X01648*
Y-00055*
X01573*
Y-00064*
X01536*
Y-00049*
X01473*
X01469Y-00051*
X01431Y-00013*
Y00208*
X0144*
Y0009*
G37*
G36*
X014Y-0002D02*
X01401Y-00025D01*
X01405Y-0003*
X01464Y-0009*
X01469Y-00093*
X01473Y-00094*
Y-00109*
X01536*
Y-00094*
X01573*
Y-00103*
X01656*
Y-00065*
X01672*
Y-00139*
X01673Y-00146*
X01677Y-00151*
X01679Y-00153*
X01677Y-00158*
X01648*
Y-00195*
X01573*
Y-00204*
X01451*
X01391Y-00144*
Y00208*
X014*
Y-0002*
G37*
G36*
X-00055Y0009D02*
X-00054Y00084D01*
X-0005Y00079*
X-00021Y00049*
X-00016Y00046*
X-0001Y00045*
X00077*
Y00036*
X0016*
Y00074*
X00234*
Y-00018*
X00152*
Y-00055*
X00077*
Y-00064*
X00048*
Y-00049*
X-00014*
Y-00056*
X-00019Y-00058*
X-00064Y-00013*
Y00208*
X-00055*
Y0009*
G37*
G36*
X-00095Y-0002D02*
X-00094Y-00025D01*
X-0009Y-0003*
X-00031Y-0009*
X-00026Y-00093*
X-0002Y-00094*
X-00014*
Y-00109*
X00048*
Y-00094*
X00077*
Y-00103*
X0016*
Y-00065*
X00176*
Y-00139*
X00177Y-00146*
X00181Y-00151*
X00183Y-00153*
X00181Y-00158*
X00152*
Y-00195*
X00077*
Y-00204*
X-00044*
X-00104Y-00144*
Y00208*
X-00095*
Y-0002*
G37*
G36*
X02936Y0009D02*
X02937Y00084D01*
X02941Y00079*
X0297Y00049*
X02975Y00046*
X02981Y00045*
X03069*
Y00036*
X03152*
Y00074*
X03226*
Y-00018*
X03144*
Y-00055*
X03069*
Y-00064*
X03036*
Y-00049*
X02973*
Y-00053*
X02968Y-00054*
X02927Y-00013*
Y00208*
X02936*
Y0009*
G37*
G36*
X02896Y-0002D02*
X02897Y-00025D01*
X02901Y-0003*
X0296Y-0009*
X02965Y-00093*
X02971Y-00094*
X02973*
Y-00109*
X03036*
Y-00094*
X03069*
Y-00103*
X03152*
Y-00065*
X03168*
Y-00139*
X03169Y-00146*
X03173Y-00151*
X03175Y-00153*
X03173Y-00158*
X03144*
Y-00195*
X03069*
Y-00204*
X02947*
X02887Y-00144*
Y00208*
X02896*
Y-0002*
G37*
%LNduo_x-4*%
%LPC*%
G36*
X01491Y00035D02*
X01488Y00035D01*
X01486Y00034*
X01478Y00031*
X01474Y00028*
X01467Y00022*
X01464Y00018*
X01461Y00009*
X0146Y00004*
Y-00004*
X01461Y-00009*
X01464Y-00018*
X01467Y-00022*
X01474Y-00028*
X01478Y-00031*
X01486Y-00034*
X01491Y-00035*
X015*
X01505Y-00034*
X01514Y-00031*
X01518Y-00028*
X01524Y-00022*
X01527Y-00018*
X0153Y-00009*
X01531Y-00004*
Y00004*
Y00004*
X01531Y00007*
X0153Y00009*
X01527Y00018*
X01524Y00022*
X01518Y00028*
X01514Y00031*
X01505Y00034*
X015Y00035*
X01491*
X01491*
G37*
G36*
X-00004D02*
X-00007Y00035D01*
X-00009Y00034*
X-00018Y00031*
X-00022Y00028*
X-00028Y00022*
X-00031Y00018*
X-00034Y00009*
X-00035Y00004*
Y-00004*
X-00034Y-00009*
X-00031Y-00018*
X-00028Y-00022*
X-00022Y-00028*
X-00018Y-00031*
X-00009Y-00034*
X-00004Y-00035*
X00004*
X00009Y-00034*
X00018Y-00031*
X00022Y-00028*
X00028Y-00022*
X00031Y-00018*
X00034Y-00009*
X00035Y-00004*
Y00004*
Y00004*
X00035Y00007*
X00034Y00009*
X00031Y00018*
X00028Y00022*
X00022Y00028*
X00018Y00031*
X00009Y00034*
X00004Y00035*
X-00004*
X-00004*
G37*
G36*
X02987D02*
X02984Y00035D01*
X02982Y00034*
X02974Y00031*
X0297Y00028*
X02963Y00022*
X0296Y00018*
X02957Y00009*
X02956Y00004*
Y-00004*
X02957Y-00009*
X0296Y-00018*
X02963Y-00022*
X0297Y-00028*
X02974Y-00031*
X02982Y-00034*
X02987Y-00035*
X02996*
X03001Y-00034*
X0301Y-00031*
X03014Y-00028*
X0302Y-00022*
X03023Y-00018*
X03027Y-00009*
X03027Y-00004*
Y00004*
Y00004*
X03027Y00007*
X03027Y00009*
X03023Y00018*
X0302Y00022*
X03014Y00028*
X0301Y00031*
X03001Y00034*
X02996Y00035*
X02987*
G37*
%LNduo_x-5*%
%LPD*%
G54D16*
X05203Y02729D03*
X0527D03*
X0503D03*
X04963D03*
X03838Y03535D03*
X03771D03*
X00848D03*
X00781D03*
G54D17*
X04782Y04915D03*
X01041Y0406D03*
X00978D03*
X03966Y03585D03*
X03903D03*
X03966Y03525D03*
X03903D03*
X00976D03*
X00913D03*
X00976Y03585D03*
X00913D03*
X00918Y03999D03*
X00855D03*
G54D19*
X04446Y00115D03*
X04513D03*
X02995Y02665D03*
X03061D03*
X01306Y0024D03*
X01373D03*
X04301Y00115D03*
X04368D03*
X02806Y0024D03*
X02873D03*
X02374Y02665D03*
X02441D03*
X01536Y02814D03*
X01603D03*
X-00188Y0024D03*
X-00121D03*
X02925Y02665D03*
X02858D03*
X01523Y0024D03*
X01456D03*
X04341Y00205D03*
X04408D03*
X02583Y02665D03*
X02516D03*
X01536Y02987D03*
X01603D03*
X0302Y0024D03*
X02953D03*
X02334Y02605D03*
X02267D03*
X01536Y0311D03*
X01603D03*
X00028Y0024D03*
X-00038D03*
X02928Y03625D03*
X02995D03*
X02708Y02385D03*
X02641D03*
X02536Y0177D03*
X02603D03*
X02738Y02195D03*
X02671D03*
X01083Y03759D03*
X01016D03*
X01083Y03819D03*
X01016D03*
X01043Y03999D03*
X00976D03*
G54D24*
X01505Y-00146D03*
Y-00079D03*
X0287Y02986D03*
Y03053D03*
X03005Y-00146D03*
Y-00079D03*
X00016Y-00146D03*
Y-00079D03*
X-00095Y02976D03*
Y03043D03*
X-00035Y02976D03*
Y03043D03*
X00025Y02976D03*
Y03043D03*
X00085Y02976D03*
Y03043D03*
X0071Y03847D03*
Y03914D03*
X0359Y03598D03*
Y03531D03*
X006Y036D03*
Y03533D03*
G54D51*
X0428Y0D03*
X0086Y00001D03*
X00105Y0283D03*
X00055D03*
X00005D03*
X-00045D03*
X-00095Y0288D03*
Y0283D03*
X-00045Y0288D03*
X00005D03*
X00055D03*
X00105D03*
G54D52*
X02979Y04795D02*
X03029Y04845D01*
X02701Y03866D02*
X02751Y03816D01*
X03195Y04592D02*
X03238Y04636D01*
X02064Y04102D02*
X02098Y04136D01*
X02044Y0411D02*
X02084Y0415D01*
X02098Y04136D02*
X02136Y04174D01*
X02084Y0415D02*
X02125Y0419D01*
X03141Y04289D02*
X03182Y04247D01*
X03102Y04245D02*
X03141Y04206D01*
X02868Y04005D02*
X02904Y03969D01*
X02237Y03997D02*
X02267Y04027D01*
X01959Y04664D02*
X02007Y04615D01*
X02154Y04859D02*
X02201Y04811D01*
X02251Y04956D02*
X023Y04908D01*
X02376Y05081D02*
X02421Y05036D01*
X02723Y05067D02*
X02765Y05109D01*
X0316Y04131D02*
X03172Y04118D01*
X03113Y04178D02*
X0316Y04131D01*
X03055Y04041D02*
X03073Y04022D01*
X03015Y0408D02*
X03055Y04041D01*
X00505Y029D02*
X00566Y02838D01*
X02855Y03698D02*
Y0377D01*
X03241Y04303D02*
X03303Y04241D01*
X03238Y04303D02*
X03241D01*
X02003Y04842D02*
X02003D01*
X0207Y04775*
X02101Y04745*
X01991Y04164D02*
X01995Y0416D01*
X01991Y04164D02*
Y04196D01*
X02015Y0422*
X0243Y03995D02*
X02747D01*
X02335Y039D02*
X0243Y03995D01*
X02208Y0408D02*
X02232D01*
X02182Y04053D02*
X02208Y0408D01*
X02153Y04025D02*
X02182Y04053D01*
X02745Y03992D02*
X02747Y03995D01*
X02745Y03878D02*
Y03992D01*
Y03878D02*
X02779Y03844D01*
X03073Y04021D02*
Y04022D01*
X03172Y04118D02*
X0318D01*
X0321Y04664D02*
X0324Y04693D01*
X02918Y04956D02*
X02946Y04985D01*
X02737Y05137D02*
X02769Y05169D01*
X02779Y03844D02*
X02808Y03815D01*
X01885Y04654D02*
X01917Y04622D01*
X02251Y05012D02*
X02279Y04984D01*
X0229Y05057D02*
X02321Y05026D01*
X00975Y03615D02*
Y03687D01*
X01Y03712*
X00911Y03783D02*
X00929D01*
X0089Y03804D02*
X00911Y03783D01*
X0089Y03804D02*
Y03866D01*
X01335Y0257D02*
X01435D01*
X0146Y02595*
Y03165*
X02855Y03698D02*
X02928Y03625D01*
X0586Y01867D02*
X05887D01*
X05905Y0185*
Y018D02*
Y0185D01*
X0589Y01785D02*
X05905Y018D01*
X0575Y01785D02*
X0589D01*
X05727Y01807D02*
X0575Y01785D01*
X05631Y01807D02*
X05727D01*
X05775Y01824D02*
X0586D01*
X05734Y01865D02*
X05775Y01824D01*
X05631Y01865D02*
X05734D01*
X05646Y0191D02*
X0586D01*
X05631Y01925D02*
X05646Y0191D01*
X05859Y01115D02*
X05885D01*
X059Y011*
Y01D02*
Y011D01*
X05875Y00975D02*
X059Y01D01*
X0578Y00975D02*
X05875D01*
X05745Y01009D02*
X0578Y00975D01*
X05631Y01009D02*
X05745D01*
X05782Y01072D02*
X05859D01*
X05727Y01127D02*
X05782Y01072D01*
X05631Y01127D02*
X05727D01*
X05776Y01028D02*
X05859D01*
X05735Y01069D02*
X05776Y01028D01*
X05631Y01069D02*
X05735D01*
X02432Y03252D02*
Y0342D01*
X01083Y03724D02*
Y03759D01*
X01071Y03712D02*
X01083Y03724D01*
X01Y03712D02*
X01071D01*
X00929Y03783D02*
X01Y03712D01*
X00839Y03917D02*
X0089Y03866D01*
X00085Y03043D02*
Y03098D01*
X00068Y03115D02*
X00085Y03098D01*
X-00044Y03115D02*
X00068D01*
X-00065Y03094D02*
X-00044Y03115D01*
X-00065Y03043D02*
Y03094D01*
Y03043D02*
X-00035D01*
X-00095D02*
X-00065D01*
X-00035D02*
D01*
X00085D02*
X00118Y0301D01*
X0025*
X0036Y029*
X00505*
X02957Y03349D02*
Y03497D01*
Y03349D02*
X03022Y03284D01*
Y03252D02*
Y03284D01*
X00479Y-00004D02*
X00525Y-0005D01*
Y-00132D02*
Y-0005D01*
X00449Y-00047D02*
X0049Y-00088D01*
Y-00175D02*
Y-00088D01*
X01975Y-00004D02*
X02021Y-0005D01*
Y-00132D02*
Y-0005D01*
X03471Y-00004D02*
X03517Y-0005D01*
Y-00132D02*
Y-0005D01*
X05013Y-00132D02*
X05014Y-00131D01*
X04939Y-00219D02*
Y-00117D01*
X04914Y-00092D02*
X04939Y-00117D01*
X00451Y-00219D02*
Y-00117D01*
X00426Y-00092D02*
X00451Y-00117D01*
X03359Y02859D02*
X03361Y0286D01*
X03323Y02815D02*
X03326Y02818D01*
X03286Y02772D02*
Y02875D01*
X03261Y029D02*
X03286Y02875D01*
X02735Y02816D02*
X02735Y02816D01*
X02723Y02987D02*
X0277Y0294D01*
Y02859D02*
Y0294D01*
X02735Y02816D02*
Y02902D01*
X02693Y02945D02*
X02735Y02902D01*
X02162Y02987D02*
X022Y0295D01*
Y02859D02*
Y0295D01*
X02928Y03526D02*
X02957Y03497D01*
X02928Y03526D02*
Y03625D01*
X0473Y00135D02*
X04767D01*
X0473Y00178D02*
X04783D01*
X04824Y00137*
X01909Y02816D02*
X0197D01*
X02045Y02935D02*
X02105Y02875D01*
X02045Y02935D02*
Y03106D01*
X02024Y03127D02*
X02045Y03106D01*
X03361Y0286D02*
Y02917D01*
X03293Y02985D02*
X03361Y02917D01*
X03205Y02985D02*
X03293D01*
X03173Y03017D02*
X03205Y02985D01*
X03173Y03017D02*
Y03116D01*
X0314Y0315D02*
X03173Y03116D01*
X0314Y0315D02*
Y03183D01*
X02Y03127D02*
X02024D01*
X02Y0317D02*
X0205D01*
X02051Y0317*
X0208Y03142*
X0207Y03215D02*
X0211Y03175D01*
X02Y03215D02*
X0207D01*
X02105Y02773D02*
Y02875D01*
X0208Y02967D02*
X02155Y02892D01*
X0208Y02967D02*
Y03142D01*
X02125Y02987D02*
X02162D01*
X0211Y03002D02*
X02125Y02987D01*
X0211Y03002D02*
Y03175D01*
X03077Y0317D02*
X0314Y03107D01*
Y02989D02*
Y03107D01*
Y02989D02*
X03185Y02945D01*
X03077Y03127D02*
X03109Y03094D01*
Y0296D02*
Y03094D01*
Y0296D02*
X0317Y029D01*
X03109Y03213D02*
X0314Y03183D01*
X03076Y03213D02*
X03109D01*
X03326Y02818D02*
Y02888D01*
X03269Y02945D02*
X03326Y02888D01*
X03185Y02945D02*
X03269D01*
X0317Y029D02*
X03261D01*
X02695Y02773D02*
Y02875D01*
X02555Y02816D02*
X02575D01*
X0254Y02831D02*
X02555Y02816D01*
X0254Y02831D02*
Y02847D01*
X02517Y0287D02*
X0254Y02847D01*
X0248Y0287D02*
X02517D01*
X02437Y02912D02*
X0248Y0287D01*
X02437Y02912D02*
Y0295D01*
X02495Y02894D02*
X02498Y02891D01*
X02495Y02894D02*
Y03075D01*
X02155Y02816D02*
Y02892D01*
X00231Y-00152D02*
X00255Y-00175D01*
X00206Y-00152D02*
X00231D01*
X00193Y-00139D02*
X00206Y-00152D01*
X00241Y-00132D02*
Y-00077D01*
X00241Y-00219D02*
Y-00197D01*
X00226Y-00182D02*
X00241Y-00197D01*
X00193Y-00182D02*
X00226D01*
X00241Y-00077D02*
X00251Y-00067D01*
Y00083*
X00236Y00097D02*
X00251Y00083D01*
X00193Y00097D02*
X00236D01*
X02485Y02773D02*
Y02794D01*
X0247Y0281D02*
X02485Y02794D01*
X02437Y0281D02*
X0247D01*
X04789Y-0002D02*
X04861Y-00092D01*
X04914*
X04767Y00135D02*
X04789Y00112D01*
Y-0002D02*
Y00112D01*
X04979Y-00175D02*
Y-00089D01*
X04869Y-00047D02*
X04937D01*
X04979Y-00089*
X04824Y-00002D02*
Y00137D01*
Y-00002D02*
X04869Y-00047D01*
X05014Y-00131D02*
Y-00052D01*
X04892Y-00004D02*
X04967D01*
X05014Y-00052*
X0473Y00221D02*
X04799D01*
X04869Y00017D02*
Y00151D01*
Y00017D02*
X04892Y-00004D01*
X04799Y00221D02*
X04869Y00151D01*
X04729Y-00219D02*
Y-00197D01*
X04682Y-00182D02*
X04714D01*
X04729Y-00197*
X04739Y-00067D02*
Y00083D01*
X0473Y-00077D02*
X04739Y-00067D01*
X0473Y-00132D02*
Y-00077D01*
X04682Y00097D02*
X04725D01*
X04739Y00083*
X04743Y-00175D02*
X04819D01*
X0472Y-00152D02*
X04743Y-00175D01*
X04682Y-00139D02*
Y-00042D01*
X04694Y-00152D02*
X0472D01*
X04682Y-00139D02*
X04694Y-00152D01*
X03418Y-00092D02*
X03443Y-00117D01*
Y-00219D02*
Y-00117D01*
X03234Y00135D02*
X03271D01*
X03293Y-0002D02*
X03365Y-00092D01*
X03418*
X03271Y00135D02*
X03293Y00112D01*
Y-0002D02*
Y00112D01*
X03483Y-00175D02*
Y-00089D01*
X03373Y-00047D02*
X03441D01*
X03483Y-00089*
X03234Y00178D02*
X03287D01*
X03328Y-00002D02*
Y00137D01*
Y-00002D02*
X03373Y-00047D01*
X03287Y00178D02*
X03328Y00137D01*
X03396Y-00004D02*
X03471D01*
X03233Y00221D02*
X03303D01*
X03373Y00017D02*
Y00151D01*
Y00017D02*
X03396Y-00004D01*
X03303Y00221D02*
X03373Y00151D01*
X03233Y-00219D02*
Y-00197D01*
X03185Y-00182D02*
X03218D01*
X03233Y-00197*
X03243Y-00067D02*
Y00083D01*
X03233Y-00077D02*
X03243Y-00067D01*
X03233Y-00132D02*
Y-00077D01*
X03185Y00097D02*
X03228D01*
X03243Y00083*
X03247Y-00175D02*
X03323D01*
X03224Y-00152D02*
X03247Y-00175D01*
X03185Y-00139D02*
Y-00042D01*
X03198Y-00152D02*
X03224D01*
X03185Y-00139D02*
X03198Y-00152D01*
X01922Y-00092D02*
X01947Y-00117D01*
Y-00219D02*
Y-00117D01*
X01738Y00135D02*
X01775D01*
X01797Y-0002D02*
X01869Y-00092D01*
X01922*
X01775Y00135D02*
X01797Y00112D01*
Y-0002D02*
Y00112D01*
X01987Y-00175D02*
Y-00089D01*
X01877Y-00047D02*
X01945D01*
X01987Y-00089*
X01738Y00178D02*
X01791D01*
X01832Y-00002D02*
Y00137D01*
Y-00002D02*
X01877Y-00047D01*
X01791Y00178D02*
X01832Y00137D01*
X019Y-00004D02*
X01975D01*
X01737Y00221D02*
X01806D01*
X01877Y00017D02*
Y00151D01*
Y00017D02*
X019Y-00004D01*
X01806Y00221D02*
X01877Y00151D01*
X01737Y-00219D02*
Y-00197D01*
X01689Y-00182D02*
X01722D01*
X01737Y-00197*
X01747Y-00067D02*
Y00083D01*
X01737Y-00077D02*
X01747Y-00067D01*
X01737Y-00132D02*
Y-00077D01*
X01689Y00097D02*
X01732D01*
X01747Y00083*
X01751Y-00175D02*
X01827D01*
X01728Y-00152D02*
X01751Y-00175D01*
X01689Y-00139D02*
Y-00042D01*
X01702Y-00152D02*
X01728D01*
X01689Y-00139D02*
X01702Y-00152D01*
X00242Y00135D02*
X00279D01*
X00301Y-0002D02*
X00373Y-00092D01*
X00426*
X00279Y00135D02*
X00301Y00112D01*
Y-0002D02*
Y00112D01*
X00381Y-00047D02*
X00449D01*
X00242Y00178D02*
X00295D01*
X00336Y-00002D02*
Y00137D01*
Y-00002D02*
X00381Y-00047D01*
X00295Y00178D02*
X00336Y00137D01*
X00404Y-00004D02*
X00479D01*
X00241Y00221D02*
X0031D01*
X00381Y00017D02*
Y00151D01*
Y00017D02*
X00404Y-00004D01*
X0031Y00221D02*
X00381Y00151D01*
X00255Y-00175D02*
X00331D01*
X00193Y-00139D02*
Y-00042D01*
X03076Y02773D02*
Y02794D01*
X03028Y0281D02*
X0306D01*
X03076Y02794*
X03086Y02924D02*
Y03075D01*
X03076Y02915D02*
X03086Y02924D01*
X03076Y02859D02*
Y02915D01*
X03028Y0309D02*
X03071D01*
X03086Y03075*
X0309Y02816D02*
X03166D01*
X03066Y0284D02*
X0309Y02816D01*
X03028Y02852D02*
Y0295D01*
X03041Y0284D02*
X03066D01*
X03028Y02852D02*
X03041Y0284D01*
X0267Y029D02*
X02695Y02875D01*
X02486Y03127D02*
X02523D01*
X02545Y02971D02*
X02617Y029D01*
X0267*
X02523Y03127D02*
X02545Y03105D01*
Y02971D02*
Y03105D01*
X02625Y02945D02*
X02693D01*
X02486Y0317D02*
X02539D01*
X0258Y0299D02*
Y0313D01*
Y0299D02*
X02625Y02945D01*
X02539Y0317D02*
X0258Y0313D01*
X02648Y02987D02*
X02723D01*
X02485Y03213D02*
X02555D01*
X02625Y0301D02*
Y03143D01*
Y0301D02*
X02648Y02987D01*
X02555Y03213D02*
X02625Y03143D01*
X02437Y0309D02*
X0248D01*
X02495Y03075*
X01895Y02859D02*
Y02915D01*
X01905Y02924*
Y03075*
X0189Y0309D02*
X01905Y03075D01*
X01847Y0309D02*
X0189D01*
X01847Y02852D02*
Y0295D01*
Y02852D02*
X0186Y0284D01*
X01885*
X01909Y02816*
X01895Y02773D02*
Y02794D01*
X01879Y0281D02*
X01895Y02794D01*
X01847Y0281D02*
X01879D01*
G54D53*
X02512Y03917D02*
X02535Y0394D01*
X02491Y03917D02*
X02512D01*
X02404Y0383D02*
X02491Y03917D01*
X02024Y03895D02*
Y04145D01*
X02056Y04178*
X02562Y03876D02*
Y03945D01*
X0246Y03774D02*
X02562Y03876D01*
X02583Y03842D02*
Y03885D01*
X02488Y03746D02*
X02583Y03842D01*
X026Y03915D02*
X0261Y03905D01*
Y03875D02*
Y03905D01*
X02603Y03869D02*
X0261Y03875D01*
X02603Y03806D02*
Y03869D01*
X02516Y03719D02*
X02603Y03806D01*
X0234Y0514D02*
X02346D01*
X0239Y05095*
X02183Y03925D02*
X02184Y03923D01*
Y03847D02*
Y03923D01*
X04158Y04825D02*
X04399Y04583D01*
X0343Y04825D02*
X04158D01*
X02282Y03826D02*
Y03875D01*
X02212Y03756D02*
X02282Y03826D01*
Y03875D02*
X02321Y03913D01*
X0231Y0382D02*
Y03847D01*
X02229Y0374D02*
X0231Y0382D01*
Y03847D02*
X02349Y03886D01*
X0184Y01835D02*
Y01994D01*
X0218Y03995D02*
X02209Y04025D01*
X01917Y04317D02*
X01917D01*
X01955Y04355*
X01876Y04228D02*
X01889Y04241D01*
X01876Y04146D02*
Y04228D01*
Y04146D02*
X0193Y04092D01*
Y03898D02*
Y04092D01*
X01781Y03749D02*
X0193Y03898D01*
X01781Y0358D02*
Y03749D01*
X01955Y03883D02*
Y04105D01*
X01895Y04165D02*
X01955Y04105D01*
X01895Y04165D02*
Y04211D01*
X01808Y03736D02*
X01955Y03883D01*
X03425Y03382D02*
Y037D01*
X0192Y04171D02*
X0198Y04111D01*
Y03868D02*
Y04111D01*
X01835Y03723D02*
X0198Y03868D01*
X0192Y04171D02*
Y04208D01*
X01315Y0058D02*
Y0181D01*
Y0058D02*
Y0058D01*
X01947Y04177D02*
X02003Y04121D01*
Y03849D02*
Y04121D01*
X01855Y03701D02*
X02003Y03849D01*
X01947Y04177D02*
Y04208D01*
X03445Y0339D02*
Y03675D01*
X01855Y03267D02*
Y03701D01*
X01947Y04208D02*
X01987Y04247D01*
X0192Y04208D02*
X01973Y04261D01*
X01835Y03605D02*
Y03723D01*
X01808Y03267D02*
Y03736D01*
X0178Y0324D02*
X01808Y03267D01*
X01754Y0324D02*
X0178D01*
X01895Y04211D02*
X01959Y04275D01*
X02709Y05165D02*
X02769Y05225D01*
X0343*
X03364Y04805D02*
X03406Y04847D01*
X04167*
X04399Y03915D02*
Y04583D01*
X02995Y03702D02*
Y03915D01*
Y03702D02*
X02995Y03702D01*
X0207Y04859D02*
Y0492D01*
Y04859D02*
X02112Y04817D01*
X00854Y04942D02*
X02098D01*
X0043Y04518D02*
X00854Y04942D01*
X02098D02*
X02168Y04872D01*
X01055Y0491D02*
X0106Y04915D01*
X01055Y04337D02*
Y0491D01*
X0103Y04891D02*
X01033Y04895D01*
X0103Y0432D02*
Y04891D01*
Y0432D02*
X0108Y0427D01*
Y03996D02*
Y0427D01*
X01055Y04337D02*
X011Y04292D01*
Y0401D02*
Y04292D01*
X0108Y03996D02*
X0149Y03586D01*
Y03525D02*
Y03586D01*
X011Y0401D02*
X0151Y036D01*
Y0355D02*
Y036D01*
X01125Y04024D02*
Y0431D01*
X0108Y04355D02*
X01125Y0431D01*
X0108Y04355D02*
Y04594D01*
X0115Y04042D02*
Y04326D01*
X01105Y04371D02*
X0115Y04326D01*
X01105Y04371D02*
Y04575D01*
X01175Y04064D02*
Y0434D01*
X0113Y04385D02*
X01175Y0434D01*
X0113Y04385D02*
Y04555D01*
X01043Y03999D02*
Y0415D01*
Y03992D02*
Y03999D01*
Y03992D02*
X01095Y03939D01*
X01015Y04178D02*
X01043Y0415D01*
X01205Y04199D02*
Y04555D01*
X01275Y04625*
X01803*
X01861Y04566*
X0123Y04085D02*
Y04545D01*
X01795Y04605D02*
X01847Y04552D01*
X0129Y04605D02*
X01795D01*
X0123Y04545D02*
X0129Y04605D01*
X01255Y04231D02*
Y04525D01*
Y04095D02*
Y04231D01*
Y04525D02*
X01315Y04585D01*
X01787*
X01834Y04538*
X0128Y04245D02*
Y04502D01*
Y04105D02*
Y04245D01*
X0178Y04565D02*
X0182Y04524D01*
X01342Y04565D02*
X0178D01*
X0128Y04502D02*
X01342Y04565D01*
X01734Y0326D02*
Y03745D01*
X01674Y03805D02*
X01734Y03745D01*
X0158Y03805D02*
X01674D01*
X01635Y03018D02*
Y03188D01*
X01715Y03268D02*
Y0373D01*
X01662Y03783D02*
X01715Y0373D01*
X01566Y03783D02*
X01662D01*
X01613Y03055D02*
Y03196D01*
X01694Y03276D02*
Y03716D01*
X0165Y0376D02*
X01694Y03716D01*
X01554Y0376D02*
X0165D01*
X01675Y03285D02*
Y03699D01*
X01634Y0374D02*
X01675Y03699D01*
X01539Y0374D02*
X01634D01*
X01625Y03463D02*
Y03708D01*
Y03463D02*
X01655Y03433D01*
Y03298D02*
Y03433D01*
X0128Y04105D02*
X0158Y03805D01*
X01255Y04095D02*
X01566Y03783D01*
X0123Y04085D02*
X01554Y0376D01*
X01205Y04074D02*
Y04199D01*
Y04074D02*
X01539Y0374D01*
X01175Y04064D02*
X016Y03639D01*
X01125Y04024D02*
X01535Y03614D01*
X016Y03441D02*
Y03639D01*
X01566Y0336D02*
Y03626D01*
X0115Y04042D02*
X01566Y03626D01*
X01535Y03444D02*
Y03614D01*
X01757Y04289D02*
X01785Y04261D01*
X01889*
X04557Y03667D02*
Y03779D01*
X01709Y04289D02*
X01757D01*
X01658Y04238D02*
X01709Y04289D01*
X01658Y04201D02*
Y04238D01*
X01691Y04315D02*
X01781D01*
X01636Y0426D02*
X01691Y04315D01*
X016Y0426D02*
X01636D01*
X01781Y04315D02*
X01808Y04288D01*
X0186*
X01903Y04331*
X01889Y04261D02*
X01931Y04303D01*
X02183Y03925D02*
X02198Y0394D01*
X02235*
X02265Y03969*
X02255Y03903D02*
X02293Y03941D01*
X02255Y03834D02*
Y03903D01*
X02195Y03775D02*
X02255Y03834D01*
X01982Y03775D02*
X02195D01*
X01991Y03756D02*
X02212D01*
X02005Y0374D02*
X02229D01*
X02238Y0372D02*
X02376Y03858D01*
X02015Y0372D02*
X02238D01*
X02365Y05165D02*
X02376D01*
X02418Y05123*
X02647Y03865D02*
X02723Y03788D01*
X032Y03895D02*
Y03925D01*
Y04063D02*
X03238Y04025D01*
Y03963D02*
Y04025D01*
X032Y03925D02*
X03238Y03963D01*
X03099Y04164D02*
X032Y04063D01*
X02625Y0383D02*
X02626D01*
X02695Y0376*
X03127Y04192D02*
X03169Y0415D01*
X03195*
X033Y04045*
Y03995D02*
Y04045D01*
X0322Y03915D02*
X033Y03995D01*
X0322Y03875D02*
Y03915D01*
X0332Y03987D02*
Y04055D01*
X03245Y03912D02*
X0332Y03987D01*
X03245Y0348D02*
Y03912D01*
X03195Y0312D02*
Y0343D01*
X03155Y0422D02*
X0332Y04055D01*
X03195Y0343D02*
X03245Y0348D01*
X03168Y04234D02*
X03342Y0406D01*
Y03982D02*
Y0406D01*
X03265Y03905D02*
X03342Y03982D01*
X03215Y03132D02*
Y0341D01*
X03265Y0346D02*
Y03905D01*
X03215Y0341D02*
X03265Y0346D01*
X03266Y04331D02*
X0337Y04227D01*
Y0398D02*
Y04227D01*
X03285Y03895D02*
X0337Y0398D01*
X03285Y03452D02*
Y03895D01*
X03238Y03406D02*
X03285Y03452D01*
X03238Y03141D02*
Y03406D01*
X0328Y04345D02*
X03387Y04237D01*
Y03966D02*
Y04237D01*
X03305Y03883D02*
X03387Y03966D01*
X03305Y03441D02*
Y03883D01*
X0326Y03396D02*
X03305Y03441D01*
X0326Y03151D02*
Y03396D01*
X03294Y04359D02*
X0341Y04243D01*
Y03958D02*
Y04243D01*
X03326Y03873D02*
X0341Y03958D01*
X03326Y03431D02*
Y03873D01*
X0328Y03385D02*
X03326Y03431D01*
X0328Y0316D02*
Y03385D01*
X03301Y03169D02*
Y03371D01*
X03308Y04373D02*
X0343Y04251D01*
Y03944D02*
Y04251D01*
X03345Y03859D02*
X0343Y03944D01*
X03345Y03415D02*
Y03859D01*
X03301Y03371D02*
X03345Y03415D01*
X0332Y03177D02*
Y0336D01*
X03322Y04387D02*
X0345Y04259D01*
Y03933D02*
Y04259D01*
X03365Y03848D02*
X0345Y03933D01*
X03365Y03405D02*
Y03848D01*
X0332Y0336D02*
X03365Y03405D01*
X04368Y-0015D02*
Y0016D01*
X03349Y04415D02*
X0349Y04274D01*
Y03915D02*
Y04274D01*
X03404Y03829D02*
X0349Y03915D01*
X0334Y03185D02*
Y0335D01*
X03335Y04401D02*
X0347Y04267D01*
Y03923D02*
Y04267D01*
X03384Y03838D02*
X0347Y03923D01*
X03384Y03393D02*
Y03838D01*
X0334Y0335D02*
X03384Y03393D01*
X03404Y0337D02*
Y03829D01*
X01095Y03939D02*
X01135Y039D01*
Y03807D02*
Y039D01*
X-00199Y02755D02*
Y03087D01*
X0189Y04817D02*
Y04882D01*
Y04817D02*
X02001Y04705D01*
X0192Y04842D02*
Y04905D01*
Y04842D02*
X02028Y04733D01*
X02098Y0497D02*
X02182Y04886D01*
X00842Y0497D02*
X02098D01*
X02101Y04995D02*
X02195Y049D01*
X00835Y04995D02*
X02101D01*
X02104Y0502D02*
X02209Y04914D01*
X02084Y05067D02*
X02223Y04928D01*
X0209Y0509D02*
X02237Y04942D01*
X00785Y0509D02*
X0209D01*
X00662Y04181D02*
X00837D01*
X0084Y04178*
X01015*
X04185Y0535D02*
X0476Y04775D01*
X03055Y0535D02*
X04185D01*
X0296Y05445D02*
X03055Y0535D01*
X04166Y05327D02*
X04734Y04759D01*
X03037Y05327D02*
X04166D01*
X02945Y0542D02*
X03037Y05327D01*
X0417Y05285D02*
X04709Y04745D01*
X02745Y05285D02*
X0417D01*
X04155Y05265D02*
X04671Y04748D01*
X02753Y05265D02*
X04155D01*
X04142Y05245D02*
X04649Y04737D01*
X02761Y05245D02*
X04142D01*
X03353Y0497D02*
X04204D01*
X04526Y04265D02*
Y04648D01*
X04204Y0497D02*
X04526Y04648D01*
X04211Y04995D02*
X04547Y04658D01*
X03343Y04995D02*
X04211D01*
X04547Y04285D02*
Y04658D01*
X0422Y0502D02*
X04568Y04671D01*
X03331Y0502D02*
X0422D01*
X04568Y04305D02*
Y04671D01*
X03316Y0504D02*
X04232D01*
X04588Y03809D02*
Y04684D01*
X04232Y0504D02*
X04588Y04684D01*
X04253Y0506D02*
X04607Y04705D01*
X03304Y0506D02*
X04253D01*
X04607Y04325D02*
Y04705D01*
X03015Y05081D02*
X04268D01*
X04628Y03815D02*
Y04721D01*
X04268Y05081D02*
X04628Y04721D01*
X04649Y04345D02*
Y04737D01*
X04671Y0397D02*
Y04748D01*
X04709Y03682D02*
Y04745D01*
X04734Y03672D02*
Y04759D01*
X0476Y0381D02*
Y04775D01*
X03156Y04805D02*
X03364D01*
X04167Y04847D02*
X0421Y04805D01*
X03113Y04761D02*
X03156Y04805D01*
X04175Y0487D02*
X04218Y04826D01*
X03397Y0487D02*
X04175D01*
X0418Y04895D02*
X04227Y04847D01*
X0339Y04895D02*
X0418D01*
X04227Y04847D02*
X04462Y04612D01*
X03342Y04847D02*
X0339Y04895D01*
X03353Y04826D02*
X03397Y0487D01*
X0315Y04826D02*
X03353D01*
X03099Y04775D02*
X0315Y04826D01*
X03143Y04847D02*
X03342D01*
X03085Y04789D02*
X03143Y04847D01*
X03137Y04869D02*
X03326D01*
X03071Y04803D02*
X03137Y04869D01*
X04186Y0492D02*
X04236Y04869D01*
X04441Y0386D02*
Y04603D01*
X04218Y04826D02*
X04441Y04603D01*
X03377Y0492D02*
X04186D01*
X03326Y04869D02*
X03377Y0492D01*
X04245Y04889D02*
X04504Y0463D01*
X0419Y04945D02*
X04245Y04889D01*
X0313D02*
X0331D01*
X03365Y04945D02*
X0419D01*
X0331Y04889D02*
X03365Y04945D01*
X03057Y04817D02*
X0313Y04889D01*
X03123Y04911D02*
X03294D01*
X03353Y0497*
X03043Y04831D02*
X03123Y04911D01*
X0328Y04932D02*
X03343Y04995D01*
X03202Y04932D02*
X0328D01*
X03202Y04932D02*
X03202Y04932D01*
X03089Y04932D02*
X03202D01*
X03015Y04859D02*
X03089Y04932D01*
X03026Y04953D02*
X03265D01*
X03331Y0502*
X03236Y04992D02*
X03304Y0506D01*
X03009Y04992D02*
X03236D01*
X02974Y049D02*
X03026Y04953D01*
X03018Y04973D02*
X03249D01*
X03316Y0504*
X0296Y04914D02*
X03018Y04973D01*
X02946Y04928D02*
X03009Y04992D01*
X02904Y0497D02*
X03015Y05081D01*
X02695Y05179D02*
X02761Y05245D01*
X02667Y05207D02*
X02745Y05285D01*
X02681Y05193D02*
X02753Y05265D01*
X0282Y0542D02*
X02945D01*
X0276Y0536D02*
X0282Y0542D01*
X0276Y05327D02*
Y0536D01*
X02653Y0522D02*
X0276Y05327D01*
X028Y05445D02*
X0296D01*
X0273Y05375D02*
X028Y05445D01*
X0273Y05324D02*
Y05375D01*
X02639Y05234D02*
X0273Y05324D01*
X01456Y0009D02*
Y00785D01*
X02231Y05425D02*
X02386D01*
X02186Y0538D02*
X02231Y05425D01*
X00652Y0538D02*
X02186D01*
X01475Y-00079D02*
X01615D01*
X02245Y054D02*
X0237D01*
X022Y05355D02*
X02245Y054D01*
X00662Y05355D02*
X022D01*
X01376Y-0015D02*
Y00734D01*
X00672Y0533D02*
X022D01*
X00682Y05305D02*
X02192D01*
X022Y0533D02*
X02252Y05277D01*
X00078Y04735D02*
X00672Y0533D01*
X0017Y0369D02*
Y04015D01*
X0244Y02225D02*
Y02756D01*
X-0053Y0216D02*
Y0301D01*
X02515Y022D02*
Y02814D01*
X00145Y037D02*
Y03995D01*
X-0055Y02135D02*
Y0302D01*
X00408Y04536D02*
X00842Y0497D01*
X00119Y03709D02*
Y03975D01*
X02256Y02175D02*
Y03025D01*
X-0057Y0211D02*
Y03035D01*
X00387Y04547D02*
X00835Y04995D01*
X00095Y03725D02*
Y03955D01*
X-0059Y0209D02*
Y0305D01*
X00825Y0502D02*
X02104D01*
X00366Y04561D02*
X00825Y0502D01*
X0081Y05045D02*
X0192D01*
X00345Y0458D02*
X0081Y05045D01*
X00796Y05067D02*
X02084D01*
X00323Y04594D02*
X00796Y05067D01*
X00075Y03745D02*
Y03935D01*
X-0061Y0207D02*
Y0306D01*
X00302Y04607D02*
X00785Y0509D01*
X0077Y05115D02*
X01889D01*
X00282Y04627D02*
X0077Y05115D01*
X00408Y03995D02*
Y04536D01*
X00366Y03955D02*
Y04561D01*
X00345Y0365D02*
Y0458D01*
X00323Y03658D02*
Y04594D01*
X00302Y03935D02*
Y04607D01*
X00282Y03649D02*
Y04627D01*
X00752Y05137D02*
X02066D01*
X00262Y04647D02*
X00752Y05137D01*
X00262Y03657D02*
Y04647D01*
X00387Y03975D02*
Y04547D01*
X0043Y04015D02*
Y04518D01*
X02845Y02245D02*
Y02886D01*
X00221Y03677D02*
Y04676D01*
X0073Y05185D02*
X02148D01*
X00221Y04676D02*
X0073Y05185D01*
X00577Y04997D02*
X00739Y0516D01*
X02135*
X02155Y0514*
X02262*
X02349Y05053*
X00195Y03685D02*
Y04687D01*
X00714Y05207*
X02148Y05185D02*
X02173Y0516D01*
X0227*
X02362Y05067*
X02385Y05185D02*
X02432Y05137D01*
X02182Y05185D02*
X02385D01*
X0216Y05207D02*
X02182Y05185D01*
X02837Y03052D02*
X02953D01*
X00714Y05207D02*
X0216D01*
X0239D02*
X02446Y05151D01*
X02192Y05207D02*
X0239D01*
X0217Y0523D02*
X02192Y05207D01*
X00702Y0523D02*
X0217D01*
X-0012Y-0015D02*
Y00635D01*
X0017Y04697D02*
X00702Y0523D01*
X-0002Y-00079D02*
X00119D01*
X02179Y05255D02*
X02209Y05225D01*
X00696Y05255D02*
X02179D01*
X00148Y04706D02*
X00696Y05255D01*
X02209Y05225D02*
X024D01*
X0246Y05165*
X-0004Y0009D02*
Y00685D01*
X02185Y0528D02*
X0222Y05245D01*
X00691Y0528D02*
X02185D01*
X00127Y04715D02*
X00691Y0528D01*
X0222Y05245D02*
X02408D01*
X02474Y05179*
X02421Y0526D02*
X02488Y05193D01*
X02237Y0526D02*
X02421D01*
X02192Y05305D02*
X02237Y0526D01*
X00103Y04725D02*
X00682Y05305D01*
X02386Y05425D02*
X02485Y05326D01*
X0237Y054D02*
X0246Y0531D01*
X02432Y05277D02*
X02502Y05207D01*
X02252Y05277D02*
X02432D01*
X00053Y04745D02*
X00662Y05355D01*
X00029Y04756D02*
X00652Y0538D01*
X0246Y05277D02*
Y0531D01*
Y05277D02*
X02516Y0522D01*
X02485Y05279D02*
Y05326D01*
Y05279D02*
X0253Y05234D01*
X02635Y01595D02*
Y02385D01*
X-00055Y02391D02*
X00145D01*
X00195Y0234*
X-0008Y02525D02*
X0045D01*
X-00104Y025D02*
X-0008Y02525D01*
X-00104Y0244D02*
Y025D01*
X-00109Y02555D02*
X00409D01*
X0041Y02555*
X-00155Y0251D02*
X-00109Y02555D01*
X-0015Y02585D02*
X00485D01*
X-00204Y0253D02*
X-0015Y02585D01*
X-0022Y02615D02*
X0034D01*
X-00255Y0258D02*
X-0022Y02615D01*
X-00255Y0241D02*
Y0258D01*
X-0024Y02645D02*
X00375D01*
X-00304Y0258D02*
X-0024Y02645D01*
X-00304Y0244D02*
Y0258D01*
X-00155Y02391D02*
Y0251D01*
Y02391D02*
X-00104Y0234D01*
X-00204Y0244D02*
Y0253D01*
X00615Y02255D02*
Y0232D01*
X0059Y0223D02*
X00615Y02255D01*
X-00175Y0223D02*
X0059D01*
X-00204Y02259D02*
X-00175Y0223D01*
X-00204Y02259D02*
Y0234D01*
X0064Y02235D02*
Y02375D01*
X0061Y02205D02*
X0064Y02235D01*
X-00265Y02205D02*
X0061D01*
X-00304Y02244D02*
X-00265Y02205D01*
X-00304Y02244D02*
Y0234D01*
X-0037Y02178D02*
X00633D01*
X-00404Y02212D02*
X-0037Y02178D01*
X-00404Y02212D02*
Y0234D01*
X02635Y02385D02*
Y024D01*
Y02385D02*
X02641D01*
X0261D02*
X02635D01*
X026Y02375D02*
X0261Y02385D01*
X-00275Y0239D02*
X-00255Y0241D01*
X-00353Y0239D02*
X-00275D01*
X-00404Y0244D02*
X-00353Y0239D01*
X00666Y02211D02*
Y02345D01*
X00633Y02178D02*
X00666Y02211D01*
X00055Y02921D02*
X00085Y02951D01*
X-0022Y03098D02*
X-00042Y03276D01*
X-0022Y02785D02*
Y03098D01*
X-00155Y0273D02*
Y03068D01*
X-00176Y027D02*
Y03077D01*
X01615Y02773D02*
X01655D01*
X01603Y02785D02*
X01615Y02773D01*
X01603Y02785D02*
Y02814D01*
X01655Y0288D02*
Y0318D01*
X0164Y02865D02*
X01655Y0288D01*
X01615Y02865D02*
X0164D01*
X01603Y02853D02*
X01615Y02865D01*
X01603Y02814D02*
Y02853D01*
X01635Y02915D02*
Y02955D01*
X01603Y02986D02*
X01635Y02955D01*
X01603Y02986D02*
Y02987D01*
X01635Y03018*
X05195Y00695D02*
Y00926D01*
X03079Y00185D02*
Y0049D01*
X02989Y0058D02*
X03079Y0049D01*
X02989Y0058D02*
Y00695D01*
X02105Y0141D02*
X0213D01*
X0215Y0139*
Y01314D02*
Y0139D01*
Y01314D02*
X0223Y01234D01*
Y01201D02*
Y01234D01*
Y01201D02*
X02271Y0116D01*
X02513*
X02085Y01435D02*
X0215D01*
X02175Y0141*
Y01335D02*
Y0141D01*
Y01335D02*
X0226Y0125D01*
Y0122D02*
Y0125D01*
Y0122D02*
X02288Y01191D01*
X02488*
X02105Y0146D02*
X02165D01*
X02201Y01423*
Y01348D02*
Y01423D01*
Y01348D02*
X02271Y01278D01*
X02359*
X02886Y01414D02*
X0301D01*
X0284Y01367D02*
X02886Y01414D01*
X02895Y01395D02*
X03035D01*
X02859Y01359D02*
X02895Y01395D01*
X02903Y01375D02*
X0301D01*
X02879Y01351D02*
X02903Y01375D01*
X02879Y0122D02*
Y01351D01*
X02808Y0115D02*
X02879Y0122D01*
X02859Y01229D02*
Y01359D01*
X028Y0117D02*
X02859Y01229D01*
X0284Y01237D02*
Y01367D01*
X02792Y01189D02*
X0284Y01237D01*
X02641Y0115D02*
X02808D01*
X02616Y0117D02*
X028D01*
X0259Y01189D02*
X02792D01*
X04005Y0067D02*
Y0218D01*
X04025Y0065D02*
Y022D01*
X03041Y03329D02*
X03066D01*
X02985Y03385D02*
X03041Y03329D01*
X02985Y03385D02*
Y03525D01*
X-0008Y0334D02*
X00005D01*
X-00255Y03165D02*
X-0008Y0334D01*
X00005D02*
X00025Y0336D01*
X-00065Y034D02*
X-00053D01*
X-00031Y03422*
Y03442*
X03755Y02495D02*
X03885Y02365D01*
X04025*
X03755Y02495D02*
Y03013D01*
X0509Y01031D02*
X05195Y00926D01*
X04508Y0336D02*
Y03438D01*
X04535Y03465*
Y03548*
X04649Y03663*
Y04345*
X03475Y031D02*
X0361D01*
X0344Y03134D02*
X03475Y031D01*
X0344Y03134D02*
Y03334D01*
X0348Y03158D02*
Y03355D01*
Y03158D02*
X03498Y0314D01*
X03445Y0339D02*
X0348Y03355D01*
X028Y03157D02*
X02842Y032D01*
X028Y02135D02*
Y03157D01*
X0334Y03185D02*
X03448Y03077D01*
X03601*
X03829Y02244D02*
X03932D01*
X04585Y03754D02*
Y03771D01*
Y0366D02*
Y03754D01*
X01066Y0336D02*
Y03628D01*
X0103Y03475D02*
Y03657D01*
X01016Y03461D02*
X0103Y03475D01*
X01016Y0336D02*
Y03461D01*
X04449Y00285D02*
Y02105D01*
X04289Y02265D02*
X04449Y02105D01*
X03838Y02265D02*
X04289D01*
X04488Y00241D02*
Y02141D01*
X04325Y02304D02*
X04488Y02141D01*
X03854Y02304D02*
X04325D01*
X0451Y0016D02*
Y02155D01*
X0434Y02325D02*
X0451Y02155D01*
X03865Y02325D02*
X0434D01*
X05141Y02791D02*
X05143Y02794D01*
X05141Y02744D02*
Y02791D01*
X05139Y02743D02*
X05141Y02744D01*
X05139Y02624D02*
Y02743D01*
Y02506D02*
X05141Y02504D01*
X05139Y02506D02*
Y02565D01*
X04508Y03504D02*
Y03583D01*
X04454Y0345D02*
X04508Y03504D01*
X04023Y0345D02*
X04454D01*
X04585Y03771D02*
X04628Y03815D01*
X04508Y03583D02*
X04585Y0366D01*
X0509Y01031D02*
Y01644D01*
X04989Y01745D02*
X0509Y01644D01*
X04871Y01745D02*
X04989D01*
X02912Y-0002D02*
Y00734D01*
X0513Y01048D02*
Y0168D01*
X05012Y01797D02*
X0513Y0168D01*
X04907Y01797D02*
X05012D01*
X02872Y-0015D02*
Y0076D01*
X0515Y01056D02*
Y017D01*
X05029Y0182D02*
X0515Y017D01*
X04924Y0182D02*
X05029D01*
X0517Y01065D02*
Y0172D01*
X0504Y0185D02*
X0517Y0172D01*
X04941Y0185D02*
X0504D01*
X04866Y01924D02*
X04941Y0185D01*
X04866Y01924D02*
Y02218D01*
X04805Y019D02*
X04907Y01797D01*
X02952Y0009D02*
Y00715D01*
X05Y0177D02*
X0511Y0166D01*
X0489Y0177D02*
X05D01*
X04775Y01885D02*
X0489Y0177D01*
X04745Y01871D02*
X04871Y01745D01*
X04835Y0191D02*
X04924Y0182D01*
X04835Y0191D02*
Y02205D01*
X04775Y01885D02*
Y02185D01*
X04805Y019D02*
Y02195D01*
X04775Y0231D02*
X04866Y02218D01*
X04745Y02295D02*
X04835Y02205D01*
X0469Y0227D02*
X04775Y02185D01*
X0472Y0228D02*
X04805Y02195D01*
X04775Y0231D02*
Y03385D01*
X0472Y0228D02*
Y03415D01*
X0469Y0227D02*
Y03425D01*
X04745Y02295D02*
Y03395D01*
X04775Y03385D02*
X04865Y03475D01*
X0472Y03415D02*
X04825Y0352D01*
X0469Y03425D02*
X04805Y0354D01*
X04745Y03395D02*
X04845Y03495D01*
X04805Y0354D02*
Y0386D01*
X04825Y0352D02*
Y03885D01*
X04845Y03495D02*
Y0391D01*
X04865Y03475D02*
Y03935D01*
X0017Y04065D02*
Y04697D01*
X00565Y03829D02*
Y04085D01*
X00148D02*
Y04706D01*
X00127Y04105D02*
Y04715D01*
X00103Y04125D02*
Y04725D01*
X00078Y04145D02*
Y04735D01*
X00053Y04165D02*
Y04745D01*
X0048Y03864D02*
Y04165D01*
X00405Y03789D02*
X0048Y03864D01*
X00029Y04185D02*
Y04756D01*
X-00095Y0295D02*
Y02976D01*
Y0288D02*
Y0295D01*
X-00035D02*
Y02976D01*
Y02936D02*
Y0295D01*
X00025D02*
Y02976D01*
Y0294D02*
Y0295D01*
X00148Y03055D02*
Y03085D01*
X00625Y03657D02*
Y03882D01*
X00635Y03892*
Y03911*
X0065Y03926*
X0082Y00635D02*
Y0286D01*
X0051Y0317D02*
X0082Y0286D01*
X0051Y0317D02*
Y03746D01*
X008Y0066D02*
Y02839D01*
X0049Y03149D02*
X008Y02839D01*
X0049Y03149D02*
Y03754D01*
X0078Y00685D02*
Y02819D01*
X0047Y03129D02*
X0078Y02819D01*
X0047Y03129D02*
Y03762D01*
X0076Y0071D02*
Y028D01*
X0045Y0311D02*
X0076Y028D01*
X0045Y0311D02*
Y03771D01*
X0074Y00735D02*
Y02783D01*
X0043Y03093D02*
X0074Y02783D01*
X0043Y03093D02*
Y03779D01*
X00715Y0076D02*
Y02769D01*
X00405Y03079D02*
X00715Y02769D01*
X00405Y03079D02*
Y03789D01*
X0069Y00785D02*
Y02756D01*
X0038Y03066D02*
X0069Y02756D01*
X0038Y03066D02*
Y038D01*
X00125Y02941D02*
X00148Y02964D01*
X00125Y0293D02*
Y02941D01*
X00105Y0291D02*
X00125Y0293D01*
X00105Y0288D02*
Y0291D01*
X00085Y02951D02*
Y02976D01*
X00055Y0288D02*
Y02921D01*
X00005Y0292D02*
X00025Y0294D01*
X00005Y0288D02*
Y0292D01*
X-00045Y02926D02*
X-00035Y02936D01*
X-00045Y0288D02*
Y02926D01*
X00455Y03875D02*
Y04185D01*
X0147Y02225D02*
X0168Y02435D01*
X01495Y02214D02*
X01705Y02424D01*
X016Y03441D02*
X01616Y03425D01*
X01516D02*
X01535Y03444D01*
X01516Y0336D02*
Y03425D01*
X0051Y03746D02*
X00585Y03821D01*
X01616Y0336D02*
Y03425D01*
X02958Y03777D02*
Y03845D01*
X0163Y03273D02*
X01655Y03298D01*
X00545Y03837D02*
Y04105D01*
X00525Y03846D02*
Y04125D01*
X00505Y03854D02*
Y04145D01*
X00585Y03821D02*
Y04065D01*
X0047Y03762D02*
X00545Y03837D01*
X0045Y03771D02*
X00525Y03846D01*
X0043Y03779D02*
X00505Y03854D01*
X0049Y03754D02*
X00565Y03829D01*
X00135Y03655D02*
X0017Y0369D01*
X00145Y03635D02*
X00195Y03685D01*
X00104Y03695D02*
X00119Y03709D01*
X0012Y03675D02*
X00145Y037D01*
X02995Y03625D02*
X02995Y03625D01*
Y03702*
X02665Y0162D02*
Y02315D01*
X02615Y0162D02*
Y02345D01*
X0158Y0025D02*
X01645Y00185D01*
X0158Y0025D02*
Y00785D01*
X0179Y00434D02*
Y0058D01*
X00293Y00434D02*
Y0061D01*
X01315Y0181D02*
X01495Y0199D01*
X0129Y0061D02*
Y0181D01*
X0147Y0199*
Y02225*
X01495Y0199D02*
Y02214D01*
X01705Y02424D02*
Y03162D01*
X01768Y03226*
X0168Y03165D02*
X01754Y0324D01*
X0168Y02435D02*
Y03165D01*
X01655Y0318D02*
X01734Y0326D01*
X01635Y03188D02*
X01715Y03268D01*
X01613Y03196D02*
X01694Y03276D01*
X0161Y03052D02*
X01613Y03055D01*
X01595Y03205D02*
X01675Y03285D01*
X01595Y03183D02*
Y03205D01*
X01768Y03226D02*
X01813D01*
X01855Y03267*
X01876Y03668D02*
X01982Y03775D01*
X01876Y0313D02*
Y03668D01*
X01896Y03661D02*
X01991Y03756D01*
X01896Y03138D02*
Y03661D01*
X01915Y0365D02*
X02005Y0374D01*
X01915Y03146D02*
Y0365D01*
X01935Y0364D02*
X02015Y0372D01*
X01935Y03154D02*
Y0364D01*
X04782Y00434D02*
Y0065D01*
X03286Y00434D02*
Y0067D01*
X03876Y02345D02*
X04005D01*
X03735Y02486D02*
X03876Y02345D01*
X03628Y0314D02*
X03755Y03013D01*
X03735Y02486D02*
Y03005D01*
X0362Y0312D02*
X03735Y03005D01*
X03498Y0314D02*
X03628D01*
X0349Y0312D02*
X0362D01*
X0346Y0315D02*
X0349Y0312D01*
X0346Y0315D02*
Y03347D01*
X03425Y03382D02*
X0346Y03347D01*
X03404Y0337D02*
X0344Y03334D01*
X04745Y01835D02*
X04782Y01797D01*
Y01576D02*
Y01797D01*
X0186Y0186D02*
Y01986D01*
X03286Y01835D02*
D01*
Y01576D02*
Y01835D01*
X00293Y01815D02*
D01*
Y01576D02*
Y01815D01*
X018D02*
Y0201D01*
X0179Y01576D02*
Y0166D01*
X0182Y0169*
Y02002*
X0186Y01986D02*
X02074Y022D01*
Y02842*
X0184Y01994D02*
X02054Y02208D01*
Y02834*
X0182Y02002D02*
X02034Y02216D01*
Y02826*
X018Y0201D02*
X02015Y02225D01*
Y02818*
X02014Y02902D02*
X02074Y02842D01*
X01994Y02894D02*
X02054Y02834D01*
X01974Y02886D02*
X02034Y02826D01*
X01955Y02878D02*
X02015Y02818D01*
X01994Y02894D02*
Y03067D01*
X02014Y02902D02*
Y03075D01*
X01935Y03154D02*
X02014Y03075D01*
X01915Y03146D02*
X01994Y03067D01*
X01974Y02886D02*
Y03059D01*
X01896Y03138D02*
X01974Y03059D01*
X01955Y02878D02*
Y03051D01*
X01876Y0313D02*
X01955Y03051D01*
X03567Y0242D02*
Y02925D01*
X03545Y02455D02*
Y0291D01*
X03525Y0293D02*
X03545Y0291D01*
X03385Y0293D02*
X03525D01*
X03543Y0295D02*
X03567Y02925D01*
X03397Y0295D02*
X03543D01*
X03195Y0312D02*
X03385Y0293D01*
X03215Y03132D02*
X03397Y0295D01*
X0013Y00182D02*
Y0071D01*
X-0008Y-0002D02*
Y0066D01*
X01416Y-0002D02*
Y0076D01*
X0038Y038D02*
X00455Y03875D01*
X02845Y02886D02*
X02871Y02912D01*
X02953*
X02825Y02285D02*
Y0304D01*
X02837Y03052*
X0306Y02265D02*
Y02745D01*
X-00455Y022D02*
Y02975D01*
X-00311Y03118*
X-0024*
X-0048Y02987D02*
X-00327Y0314D01*
X-0048Y0218D02*
Y02987D01*
X-00327Y0314D02*
X-00249D01*
X-00505Y0222D02*
Y02998D01*
X-00338Y03165*
X00085Y03715D02*
X00095Y03725D01*
X-00066Y03715D02*
X00085D01*
X00065Y03735D02*
X00075Y03745D01*
X-00075Y03735D02*
X00065D01*
X-00275Y03535D02*
X-00075Y03735D01*
X-00058Y03695D02*
X00104D01*
X-00235Y03518D02*
X-00058Y03695D01*
X-00255Y03526D02*
X-00066Y03715D01*
X-00049Y03675D02*
X0012D01*
X-00041Y03655D02*
X00135D01*
X-00195Y03501D02*
X-00041Y03655D01*
X-00338Y03165D02*
X-00255D01*
X-00249Y0314D02*
X-00069Y0332D01*
X00025Y0336D02*
Y0359D01*
X0007Y03635*
X00145*
X-00215Y0351D02*
X-00049Y03675D01*
X02842Y032D02*
X0293D01*
X02493Y02836D02*
X02515Y02814D01*
X02458Y02836D02*
X02493D01*
X02437Y02857D02*
X02458Y02836D01*
X02437Y02857D02*
Y02877D01*
X02402Y02912D02*
X02437Y02877D01*
X02363Y02912D02*
X02402D01*
X02256Y03025D02*
X02284Y03052D01*
X02363*
X0223Y02155D02*
Y03075D01*
X02245Y0309*
Y0319*
X02268Y03213*
X02326*
X02353Y03187*
X0239*
X02423Y02772D02*
X0244Y02756D01*
X02363Y02772D02*
X02423D01*
X03033D02*
X0306Y02745D01*
X02953Y02772D02*
X03033D01*
X-00069Y0332D02*
X0002D01*
X-0024Y03118D02*
X-0006Y03298D01*
X-004Y0324D02*
Y03286D01*
X-0059Y0305D02*
X-004Y0324D01*
X-0038Y03225D02*
Y03278D01*
X-0057Y03035D02*
X-0038Y03225D01*
X-0036Y0321D02*
Y0327D01*
X-0055Y0302D02*
X-0036Y0321D01*
X-0042Y0325D02*
Y03295D01*
X-0061Y0306D02*
X-0042Y0325D01*
X-0053Y0301D02*
X-0034Y032D01*
Y03261*
X-00195Y03406*
X-0036Y0327D02*
X-00215Y03415D01*
X-0038Y03278D02*
X-00235Y03423D01*
X-004Y03286D02*
X-00255Y03431D01*
Y03526*
X-0042Y03295D02*
X-00275Y0344D01*
Y03535*
X-00235Y03423D02*
Y03518D01*
X-00215Y03415D02*
Y0351D01*
X-00195Y03406D02*
Y03501D01*
X00158Y03615D02*
X00221Y03677D01*
X0008Y03615D02*
X00158D01*
X00167Y03593D02*
X00242Y03668D01*
X00088Y03593D02*
X00167D01*
X00242Y03668D02*
Y04662D01*
X0008Y03276D02*
X0019Y03386D01*
X-00042Y03276D02*
X0008D01*
X-0006Y03298D02*
X00028D01*
X00065Y03335*
X0002Y0332D02*
X00043Y03343D01*
Y03578*
X00065Y03335D02*
Y0357D01*
X00043Y03578D02*
X0008Y03615D01*
X00065Y0357D02*
X00088Y03593D01*
X0011Y03215D02*
X00255Y03359D01*
X-00008Y03215D02*
X0011D01*
X-00155Y03068D02*
X-00008Y03215D01*
X001Y03235D02*
X00233Y03368D01*
X-00018Y03235D02*
X001D01*
X-00176Y03077D02*
X-00018Y03235D01*
X0019Y03585D02*
X00262Y03657D01*
X05215Y00715D02*
Y00935D01*
X05235Y00735D02*
Y00943D01*
X05255Y0076D02*
Y00951D01*
X05275Y00785D02*
Y0096D01*
X0511Y0104D02*
X05215Y00935D01*
X0511Y0104D02*
Y0166D01*
X0513Y01048D02*
X05235Y00943D01*
X0515Y01056D02*
X05255Y00951D01*
X0517Y01065D02*
X05275Y0096D01*
X04745Y01871D02*
Y02171D01*
X0466Y02256D02*
X04745Y02171D01*
X0466Y02256D02*
Y0344D01*
X04785Y03565*
Y0384*
X04058Y03475D02*
X04443D01*
X04483Y03515*
Y03593D02*
X04557Y03667D01*
X04483Y03515D02*
Y03593D01*
X04557Y03779D02*
X04588Y03809D01*
X04008Y0336D02*
Y03435D01*
X04023Y0345*
X04608Y03366D02*
Y03439D01*
X04558Y03366D02*
Y03531D01*
X04585Y03523D02*
X04734Y03672D01*
X04558Y03531D02*
X04709Y03682D01*
X-00199Y03087D02*
X-0003Y03257D01*
X00088*
X00233Y03368D02*
Y03568D01*
X00255Y03359D02*
Y03559D01*
X00345Y0365*
X00233Y03568D02*
X00323Y03658D01*
X00088Y03257D02*
X0021Y03378D01*
X0019Y03386D02*
Y03585D01*
X0021Y03378D02*
Y03577D01*
X00282Y03649*
X0173Y02773D02*
X01772Y02772D01*
X0173Y02912D02*
X01772D01*
X0173Y03052D02*
X01772D01*
X03715Y02475D02*
X03865Y02325D01*
X03715Y02475D02*
Y02995D01*
X0361Y031D02*
X03715Y02995D01*
X00242Y04662D02*
X00577Y04997D01*
X04585Y03462D02*
X04608Y03439D01*
X04585Y03462D02*
Y03523D01*
X04504Y03935D02*
Y0463D01*
X04484Y0391D02*
Y04621D01*
X04462Y03885D02*
Y04612D01*
X0442Y0384D02*
Y04595D01*
X0421Y04805D02*
X0442Y04595D01*
X04236Y04869D02*
X04484Y04621D01*
X0359Y0291D02*
Y0294D01*
X03557Y02972D02*
X0359Y0294D01*
X03408Y02972D02*
X03557D01*
X03238Y03141D02*
X03408Y02972D01*
X04488Y00241D02*
X0449Y0024D01*
X04408Y00218D02*
X0443Y0024D01*
X04408Y-0002D02*
Y00218D01*
X04448Y0009D02*
Y00198D01*
X04469Y00219*
X03821Y02223D02*
X0425D01*
X0363Y02443D02*
X03829Y02244D01*
X03585Y03038D02*
X0365Y02973D01*
Y02453D02*
Y02973D01*
Y02453D02*
X03838Y02265D01*
X03593Y03057D02*
X03672Y02978D01*
Y02459D02*
Y02978D01*
Y02459D02*
X03846Y02284D01*
X03576Y03017D02*
X0363Y02963D01*
Y02443D02*
Y02963D01*
X03567Y02996D02*
X0361Y02954D01*
Y02434D02*
Y02954D01*
Y02434D02*
X03821Y02223D01*
X04469Y00219D02*
Y02122D01*
X04306Y02284D02*
X04469Y02122D01*
X03846Y02284D02*
X04306D01*
X03691Y02467D02*
X03854Y02304D01*
X03691Y02467D02*
Y02987D01*
X03601Y03077D02*
X03691Y02987D01*
X0344Y03057D02*
X03593D01*
X03432Y03038D02*
X03585D01*
X03423Y03017D02*
X03576D01*
X03415Y02996D02*
X03567D01*
X0332Y03177D02*
X0344Y03057D01*
X0326Y03151D02*
X03415Y02996D01*
X0328Y0316D02*
X03423Y03017D01*
X03301Y03169D02*
X03432Y03038D01*
X0065Y03926D02*
X00662Y03914D01*
X0071*
X00698Y03835D02*
X0071Y03847D01*
X0065Y03835D02*
X00698D01*
X00768Y03847D02*
X00773Y03842D01*
X00839*
X00768Y03847D02*
X0077Y03849D01*
X0071Y03847D02*
X00768D01*
X01016Y03759D02*
Y03819D01*
X00995D02*
X01016D01*
X00972Y03842D02*
X00995Y03819D01*
X00941Y03842D02*
X00972D01*
X00941Y03917D02*
X00964Y03939D01*
X01005*
X04477Y0006D02*
X04607D01*
X04448Y0009D02*
X04477Y0006D01*
X04467Y-00079D02*
X04607D01*
X04408Y-0002D02*
X04467Y-00079D01*
X04436Y-00219D02*
X04607D01*
X04368Y-0015D02*
X04436Y-00219D01*
X02981Y0006D02*
X03111D01*
X02952Y0009D02*
X02981Y0006D01*
X02971Y-00079D02*
X03111D01*
X02912Y-0002D02*
X02971Y-00079D01*
X0294Y-00219D02*
X03111D01*
X02872Y-0015D02*
X0294Y-00219D01*
X01485Y0006D02*
X01615D01*
X01456Y0009D02*
X01485Y0006D01*
X01416Y-0002D02*
X01475Y-00079D01*
X01444Y-00219D02*
X01615D01*
X01376Y-0015D02*
X01444Y-00219D01*
X-0012Y-0015D02*
X-00051Y-00219D01*
X00119*
X-0008Y-0002D02*
X-0002Y-00079D01*
X-0004Y0009D02*
X-0001Y0006D01*
X00119*
X01649Y03992D02*
X01758Y04101D01*
X01382Y04257D02*
X01491Y04366D01*
X01658Y04201D02*
X01758Y04101D01*
X01491Y04368D02*
X016Y0426D01*
G54D54*
X04683Y01755D02*
Y01888D01*
X0463Y01695D02*
X04683Y01748D01*
X04603Y01668D02*
X0463Y01695D01*
X0472Y0083D02*
Y01105D01*
Y0082D02*
Y0083D01*
X03842Y0257D02*
Y02855D01*
X04676Y0026D02*
Y00287D01*
X04703Y00315*
X04815*
X0488Y0038*
Y00434*
Y00659*
X0472Y0082D02*
X0488Y00659D01*
X04683Y01141D02*
Y0142D01*
X04603Y015D02*
X04683Y0142D01*
X04603Y015D02*
Y01668D01*
X04683Y01748D02*
Y01755D01*
X02808Y01576D02*
X03033D01*
X03129Y0148*
X03359*
X03384Y01505*
Y01576*
X0383Y0257D02*
X03842D01*
X03855*
X02791Y01615D02*
Y0164D01*
Y01593D02*
Y01615D01*
X028Y01585D02*
X02808Y01576D01*
X02791Y01593D02*
X028Y01585D01*
X01256Y0257D02*
X0131D01*
X0094D02*
X01256D01*
X0131D02*
X01335D01*
X03932D02*
X04249D01*
X03855D02*
X03932D01*
X04249D02*
X04545D01*
X0462Y02495*
X04683Y01141D02*
X0472Y01105D01*
X0462Y02205D02*
Y02495D01*
Y02205D02*
X04705Y0212D01*
Y0191D02*
Y0212D01*
X04683Y01888D02*
X04705Y0191D01*
X03384Y00319D02*
Y00434D01*
X03365Y003D02*
X03384Y00319D01*
X0322Y003D02*
X03365D01*
X0318Y0026D02*
X0322Y003D01*
X01684Y0026D02*
Y00282D01*
X01721Y0032*
X0186*
X01888Y00348*
Y00434*
Y01576D02*
D01*
Y00434D02*
Y01576D01*
X03118Y03497D02*
X03141Y03474D01*
Y03366D02*
Y03474D01*
G54D55*
X02272Y05075D02*
X0229Y05057D01*
X02233Y05075D02*
X02272D01*
X02106Y03946D02*
Y03981D01*
Y03946D02*
X0214Y03913D01*
Y03892D02*
Y03913D01*
X03279Y04157D02*
X03315Y04122D01*
X03279Y04157D02*
Y04218D01*
X03303Y04241*
X00861Y03954D02*
X00931D01*
X00976Y03999*
Y03999*
X02233Y0503D02*
Y05053D01*
Y0503D02*
X02251Y05012D01*
X02233Y05053D02*
X02233Y05054D01*
Y05075*
Y051*
X02536Y01688D02*
X02555Y0167D01*
X02536Y01688D02*
Y0177D01*
X02738Y02195D02*
X02775D01*
X02565D02*
X0258D01*
X02536Y02166D02*
X02565Y02195D01*
X02536Y0177D02*
Y02166D01*
X02738Y02195D02*
Y02355D01*
X02708Y02385D02*
X02738Y02355D01*
X-00448Y00975D02*
Y0104D01*
X-0048Y01072D02*
X-00448Y0104D01*
X-00559Y01072D02*
X-0048D01*
X-00448Y0177D02*
Y01838D01*
X-00477Y01867D02*
X-00448Y01838D01*
X-00559Y01867D02*
X-00477D01*
X05369Y02504D02*
Y02629D01*
X-00069Y03517D02*
X-00039D01*
X03658Y03366D02*
Y03409D01*
X03808Y03366D02*
Y0341D01*
X03858Y03366D02*
Y0341D01*
X00666Y03366D02*
Y03409D01*
X00816Y03366D02*
Y0341D01*
X00866Y03366D02*
Y0341D01*
G54D56*
X05385Y00515D02*
Y02205D01*
X0521Y0034D02*
X05385Y00515D01*
X0519Y024D02*
X05385Y02205D01*
X05066Y02504D02*
X05093D01*
X05Y0034D02*
X0521D01*
X04975D02*
X05D01*
X0495D02*
X04975D01*
X04925D02*
X0495D01*
X049D02*
X04925D01*
X04827Y02457D02*
Y02655D01*
Y02457D02*
X04885Y024D01*
X0519*
G54D58*
X00495Y0234D03*
G54D59*
X00495Y0244D03*
X00395Y0234D03*
Y0244D03*
X00295Y0234D03*
Y0244D03*
X00195Y0234D03*
Y0244D03*
X00095Y0234D03*
Y0244D03*
X-00004Y0234D03*
Y0244D03*
X-00104Y0234D03*
Y0244D03*
X-00204Y0234D03*
Y0244D03*
X-00304Y0234D03*
Y0244D03*
X-00404Y0234D03*
Y0244D03*
G54D60*
X05102Y02579D03*
Y02611D03*
X022Y02859D03*
X01895D03*
X02155Y02816D03*
X0197D03*
X02105Y02773D03*
X01895D03*
X05515Y02889D03*
X05415Y02885D03*
X02024Y03895D03*
X00375Y02645D03*
X0034Y02615D03*
X0101Y03965D03*
X03265Y03997D03*
X04795Y03992D03*
X04905Y0388D03*
X02956Y04225D03*
X04905Y0396D03*
X0128Y05527D03*
X02165Y04225D03*
X02751Y04151D03*
X02566Y04225D03*
X0216Y05104D03*
X02126Y0509D03*
X0332Y04178D03*
X02359Y0416D03*
X02745Y04984D03*
X0197Y04908D03*
X02025Y04907D03*
X01525Y04878D03*
X01145D03*
X01335Y0488D03*
X02423Y0498D03*
X0214Y0474D03*
X03055Y0466D03*
X02583Y05137D03*
X01715Y04878D03*
X01985Y04594D03*
X0228Y0485D03*
X02911Y04805D03*
X-00188Y04965D03*
X00035Y05535D03*
X0214Y05538D03*
X0322Y0451D03*
X02582Y04826D03*
X0325Y0505D03*
X03168Y05036D03*
X0323Y05104D03*
X03113Y05105D03*
X04043Y05162D03*
X03845D03*
X03675D03*
X03505D03*
X03315Y04122D03*
X0227Y0509D03*
X02265Y05061D03*
X02252Y05036D03*
X02101Y04745D03*
X01875Y0469D03*
X01855Y04655D03*
X01995Y0416D03*
X0227Y04067D03*
X0224Y04088D03*
X01955Y04355D03*
X01889Y04241D03*
X01855Y04112D03*
X01781Y0358D03*
X03445Y03675D03*
X01835Y03605D03*
X03055Y04041D03*
X0316Y04131D03*
X02791Y05165D03*
X02775Y05185D03*
X0299Y0502D03*
X02965Y04994D03*
X03256Y0471D03*
X0343Y05225D03*
Y04825D03*
X04399Y03915D03*
X02995D03*
X0207Y0492D03*
X0106Y04915D03*
X01033Y04895D03*
X0149Y03525D03*
X0151Y0355D03*
X03424Y037D03*
X01625Y03708D03*
X0113Y04555D03*
X01105Y04575D03*
X0108Y04594D03*
X02535Y0394D03*
X02562Y03945D03*
X02583Y03885D03*
X026Y03915D03*
X0234Y0514D03*
X02365Y05165D03*
X02647Y03865D03*
X032Y03895D03*
X02625Y0383D03*
X0322Y03875D03*
X01135Y03807D03*
X01889Y05115D03*
X0192Y05045D03*
Y04905D03*
X0189Y04882D03*
X02066Y05137D03*
X00625Y03657D03*
X02704Y03945D03*
X04671Y0397D03*
X0388Y04765D03*
X03558D03*
X0331D03*
X03035Y03845D03*
X02454Y03517D03*
X02395Y0362D03*
X02726Y0355D03*
X02583Y03554D03*
X01018Y04103D03*
X-00251Y02875D03*
X-0025Y03035D03*
X-00007Y03375D03*
Y03085D03*
X00053Y03084D03*
X-00062Y03455D03*
X-00118Y0351D03*
X0146Y03165D03*
X02555Y0167D03*
X02775Y02195D03*
X0258D03*
X00565Y0284D03*
X-00055Y02391D03*
X0045Y02525D03*
X0041Y02555D03*
X00485Y02585D03*
X00615Y0232D03*
X0064Y02375D03*
X026D03*
X00666Y02345D03*
X-0022Y02785D03*
X-002Y02755D03*
X-00155Y0273D03*
X-00176Y027D03*
X-00559Y01867D03*
Y01072D03*
X-00448Y0177D03*
Y00975D03*
X02105Y0146D03*
X02085Y01435D03*
X02105Y0141D03*
X02359Y01278D03*
X02513Y0116D03*
X02488Y01191D03*
X0301Y01375D03*
X03035Y01395D03*
X0301Y01414D03*
X02641Y0115D03*
X02616Y0117D03*
X0259Y01189D03*
X05631Y01127D03*
X05859Y01028D03*
Y01072D03*
Y01115D03*
X0586Y01824D03*
Y01867D03*
Y0191D03*
X0463Y01695D03*
X02432Y0342D03*
X03842Y02855D03*
X02432Y03252D03*
X04676Y0026D03*
X028Y01585D03*
X02791Y01615D03*
Y0164D03*
X05369Y02504D03*
X05066D03*
X03958Y0346D03*
Y03435D03*
Y03483D03*
X03965Y04048D03*
X03996D03*
X0403D03*
X03965Y0408D03*
X03996D03*
X0403D03*
Y04112D03*
X03996D03*
X03965D03*
X05245Y0291D03*
X05285Y02885D03*
X0532Y0291D03*
X05355Y02885D03*
X0539Y0291D03*
X0561Y02915D03*
X05575Y0289D03*
X0554Y02915D03*
X05465D03*
X05245Y03005D03*
X05285Y0298D03*
X0532Y03005D03*
X05355Y0298D03*
X0539Y03005D03*
X0543Y0298D03*
X0561Y0301D03*
X05575Y02985D03*
X0554Y0301D03*
X05505Y02985D03*
X05465Y0301D03*
X02747Y03995D03*
X00939Y0257D03*
X01256D03*
X01335D03*
X0131D03*
X03932D03*
X04249D03*
X03855D03*
X0383D03*
X02985Y03525D03*
X0476Y0381D03*
X-00039Y03517D03*
X-00065Y034D03*
X05Y0034D03*
X04975D03*
X0495D03*
X04925D03*
X049D03*
X03022Y03252D03*
X01684Y0026D03*
X0318D03*
X01947Y-00219D03*
X01986Y-00175D03*
X02021Y-00132D03*
X04939Y-00219D03*
X04978Y-00175D03*
X05013Y-00132D03*
X03443Y-00219D03*
X03482Y-00175D03*
X03517Y-00132D03*
X00525D03*
X0049Y-00175D03*
X00451Y-00219D03*
X03285Y02772D03*
X03323Y02815D03*
X03359Y02859D03*
X02769D03*
X02735Y02816D03*
X02695Y02773D03*
X0309Y-00114D03*
X0313D03*
X0309Y-00043D03*
X0313D03*
X01595Y-00114D03*
X01635D03*
X01595Y-00043D03*
X01635D03*
X01789Y0295D03*
X01749D03*
X01789Y02878D03*
X01749D03*
X00138Y-00045D03*
X00098D03*
X00138Y-00112D03*
X00098D03*
X01793Y03084D03*
X01753D03*
X01793Y0302D03*
X01753D03*
X04585Y-00116D03*
X04625D03*
X04585Y-00041D03*
X04625D03*
X02934Y02877D03*
X02974D03*
X02934Y02952D03*
X02974D03*
X04585Y00022D03*
X04625D03*
X04585Y00097D03*
X04625D03*
X02934Y03017D03*
X02974D03*
X02934Y03092D03*
X02974D03*
X0313Y001D03*
X0309D03*
X0313Y00024D03*
X0309D03*
X02376Y0309D03*
X0234Y0309D03*
X0238Y0295D03*
X0234D03*
X03206Y03635D03*
X0511Y02674D03*
X05165Y0271D03*
X0511Y02705D03*
X05164Y02679D03*
X01834Y04175D03*
X01572Y04086D03*
X01744Y0426D03*
X0167Y0433D03*
X01595Y04405D03*
X01445Y0427D03*
X0261Y03943D03*
X0243Y04614D03*
X04585Y03754D03*
X04558Y03725D03*
X01066Y03628D03*
X0103Y03657D03*
X0473Y00135D03*
Y00178D03*
X00302Y03935D03*
X00096Y03955D03*
X00119Y03975D03*
X00145Y03995D03*
X0017Y04015D03*
X00387Y03975D03*
X00408Y03995D03*
X0043Y04015D03*
X00366Y03955D03*
X00075Y03935D03*
X00127Y04105D03*
X00103Y04125D03*
X00078Y04145D03*
X00053Y04165D03*
X00029Y04185D03*
X00585Y04065D03*
X00565Y04085D03*
X00455Y04185D03*
X0048Y04165D03*
X00505Y04145D03*
X00525Y04125D03*
X00545Y04105D03*
X00148Y04085D03*
X0017Y04065D03*
X-00095Y0295D03*
X-00035D03*
X00025D03*
X00148Y03085D03*
X00085Y0295D03*
X04649Y04345D03*
X04607Y04325D03*
X04568Y04305D03*
X04547Y04285D03*
X04526Y04265D03*
X02958Y03845D03*
X0163Y03273D03*
X02615Y02345D03*
X02665Y02315D03*
Y0162D03*
X02635Y01595D03*
X02615Y0162D03*
X01315Y0058D03*
X0179D03*
X0129Y0061D03*
X00293D03*
X01655Y02773D03*
X01729D03*
X01635Y02915D03*
X0161Y03052D03*
X01595Y03183D03*
X04782Y0065D03*
X03286Y0067D03*
X04025Y0065D03*
X04005Y0067D03*
Y0218D03*
X04025Y022D03*
X04005Y02345D03*
X04025Y02365D03*
X04745Y01835D03*
X0186Y0186D03*
X03286Y01835D03*
X0184D03*
X00293Y01815D03*
X018D03*
X02Y03127D03*
Y0317D03*
Y03215D03*
X03567Y0242D03*
X03544Y02455D03*
X0013Y0071D03*
Y00182D03*
X-0004Y00685D03*
X-0008Y0066D03*
X-0012Y00635D03*
X01456Y00785D03*
X01416Y0076D03*
X01376Y00734D03*
X0158Y00785D03*
X01645Y00185D03*
X0082Y00635D03*
X008Y0066D03*
X0078Y00685D03*
X0076Y0071D03*
X0074Y00735D03*
X00715Y0076D03*
X0069Y00785D03*
X02845Y02245D03*
X02825Y02285D03*
X-00505Y0222D03*
X-00455Y022D03*
X-0048Y0218D03*
X028Y02135D03*
X0293Y032D03*
X02515Y022D03*
X02498Y02891D03*
X02256Y02175D03*
X0223Y02155D03*
X0239Y03187D03*
X02439Y02225D03*
X0306Y02265D03*
X-0061Y0207D03*
X-0059Y0209D03*
X-0057Y0211D03*
X-0055Y02135D03*
X-0053Y0216D03*
X02989Y00695D03*
X03079Y00185D03*
X02871Y0076D03*
X02911Y00734D03*
X02951Y00715D03*
X05194Y00695D03*
X05215Y00715D03*
X05235Y00735D03*
X05255Y0076D03*
X05275Y00785D03*
X00241Y-00132D03*
X04865Y03935D03*
X04845Y0391D03*
X04825Y03885D03*
X04805Y0386D03*
X04785Y0384D03*
X04504Y03935D03*
X04484Y0391D03*
X04462Y03885D03*
X04441Y0386D03*
X0442Y0384D03*
X04058Y03475D03*
X0173Y02912D03*
Y03052D03*
X04368Y0016D03*
X0451D03*
X0359Y0291D03*
X04449Y00285D03*
X0449Y0024D03*
X0443D03*
X0425Y02223D03*
X03932Y02245D03*
X05631Y01009D03*
Y01069D03*
Y01925D03*
Y01807D03*
Y01865D03*
X0473Y00221D03*
X04729Y-00219D03*
X0473Y-00132D03*
X04819Y-00175D03*
X03234Y00135D03*
Y00178D03*
X03233Y00221D03*
X03233Y-00219D03*
X03233Y-00132D03*
X03323Y-00175D03*
X01738Y00135D03*
Y00178D03*
X01737Y00221D03*
X01737Y-00219D03*
X01737Y-00132D03*
X01827Y-00175D03*
X00242Y00135D03*
Y00178D03*
X00241Y00221D03*
X00241Y-00219D03*
X00331Y-00175D03*
X03077Y03127D03*
Y0317D03*
X03076Y03213D03*
X03076Y02773D03*
X03076Y02859D03*
X03166Y02816D03*
X02486Y03127D03*
Y0317D03*
X02485Y03213D03*
X02485Y02773D03*
X02575Y02816D03*
G54D61*
X05024Y03014D03*
X04925D03*
G54D62*
X00992Y027D03*
X01091D03*
X01189D03*
X00992Y03271D03*
X01189D03*
X03984Y027D03*
X04083D03*
X04181D03*
X03984Y03271D03*
X04181D03*
G54D63*
X00866Y02995D03*
X01315D03*
X03858D03*
X04307D03*
G54D64*
X05047Y03497D03*
X03118D03*
X02055D03*
X00126D03*
G54D65*
X05343Y05333D03*
X05292D03*
X02823Y0336D03*
X02873D03*
X04558D03*
X04508D03*
X04458D03*
X04408D03*
X04358D03*
X04308D03*
X04258D03*
X04208D03*
X04158D03*
X04108D03*
X04058D03*
X04008D03*
X03958D03*
X03908D03*
X03858D03*
X03808D03*
X03758D03*
X03708D03*
X03658D03*
X03608D03*
X03558D03*
X04608D03*
X05292D03*
X05343D03*
X02873Y05333D03*
X02823D03*
X02351D03*
X023D03*
X-00168Y0336D03*
X-00118D03*
X01566D03*
X01516D03*
X01466D03*
X01416D03*
X01366D03*
X01316D03*
X01266D03*
X01216D03*
X01166D03*
X01116D03*
X01066D03*
X01016D03*
X00966D03*
X00916D03*
X00866D03*
X00816D03*
X00766D03*
X00716D03*
X00666D03*
X00616D03*
X00566D03*
X01616D03*
X023D03*
X02351D03*
X-00118Y05333D03*
X-00168D03*
G54D66*
X04978Y00434D03*
X0488D03*
X04782D03*
X04683D03*
D03*
X03187D03*
D03*
X03286D03*
X03384D03*
X03482D03*
X01691D03*
D03*
X0179D03*
X01888D03*
X01986D03*
X00195D03*
D03*
X00293D03*
X00392D03*
X0049D03*
X04683Y01576D03*
D03*
X04782D03*
X0488D03*
X04978D03*
X03187D03*
D03*
X03286D03*
X03384D03*
X03482D03*
X01691D03*
D03*
X0179D03*
X01888D03*
X01986D03*
X00195D03*
D03*
X00293D03*
X00392D03*
X0049D03*
G54D67*
X04603Y00867D03*
X05059D03*
X03563D03*
X03106D03*
X02067D03*
X0161D03*
X00571D03*
X00114D03*
X05059Y02009D03*
X04603D03*
X03563D03*
X03106D03*
X02067D03*
X0161D03*
X00571D03*
X00114D03*
G54D68*
X00148Y02964D03*
Y03055D03*
X0065Y03835D03*
Y03926D03*
G54D69*
X02184Y03847D03*
X0214Y03892D03*
X01427Y04212D03*
X01382Y04257D03*
X01647Y03992D03*
X01602Y04037D03*
X01777Y04737D03*
X01822Y04692D03*
G54D70*
X02639Y03705D03*
X02653Y03719D03*
X02667Y03732D03*
X02681Y03746D03*
X02695Y0376D03*
X02709Y03774D03*
X02723Y03788D03*
X02737Y03802D03*
X02751Y03816D03*
X02765Y0383D03*
X02779Y03844D03*
X02793Y03858D03*
X02807Y03872D03*
X0282Y03886D03*
X02834Y039D03*
X02848Y03913D03*
X02862Y03927D03*
X02876Y03941D03*
X0289Y03955D03*
X02904Y03969D03*
X02918Y03983D03*
X02932Y03997D03*
X02946Y04011D03*
X0296Y04025D03*
X02974Y04039D03*
X02987Y04053D03*
X03001Y04067D03*
X03015Y0408D03*
X03029Y04094D03*
X03043Y04108D03*
X03057Y04122D03*
X03071Y04136D03*
X03085Y0415D03*
X03099Y04164D03*
X03113Y04178D03*
X03127Y04192D03*
X03141Y04206D03*
X03155Y0422D03*
X03168Y04234D03*
X03182Y04247D03*
X03196Y04261D03*
X0321Y04275D03*
X03224Y04289D03*
X03238Y04303D03*
X03252Y04317D03*
X03266Y04331D03*
X0328Y04345D03*
X03294Y04359D03*
X03308Y04373D03*
X03322Y04387D03*
X03335Y04401D03*
X03349Y04415D03*
X0253Y05234D03*
X02516Y0522D03*
X02502Y05207D03*
X02488Y05193D03*
X02474Y05179D03*
X0246Y05165D03*
X02446Y05151D03*
X02432Y05137D03*
X02418Y05123D03*
X02404Y05109D03*
X0239Y05095D03*
X02376Y05081D03*
X02362Y05067D03*
X02349Y05053D03*
X02335Y0504D03*
X02321Y05026D03*
X02307Y05012D03*
X02293Y04998D03*
X02279Y04984D03*
X02265Y0497D03*
X02251Y04956D03*
X02237Y04942D03*
X02223Y04928D03*
X02209Y04914D03*
X02195Y049D03*
X02182Y04886D03*
X02168Y04872D03*
X02154Y04859D03*
X0214Y04845D03*
X02126Y04831D03*
X02112Y04817D03*
X02098Y04803D03*
X02084Y04789D03*
X0207Y04775D03*
X02056Y04761D03*
X02042Y04747D03*
X02028Y04733D03*
X02015Y04719D03*
X02001Y04705D03*
X01987Y04692D03*
X01973Y04678D03*
X01959Y04664D03*
X01945Y0465D03*
X01931Y04636D03*
X01917Y04622D03*
X01903Y04608D03*
X01889Y04594D03*
X01875Y0458D03*
X01861Y04566D03*
X01847Y04552D03*
X01834Y04538D03*
X0182Y04524D03*
G54D71*
X03349Y04524D03*
X03335Y04538D03*
X03322Y04552D03*
X03308Y04566D03*
X03294Y0458D03*
X0328Y04594D03*
X03266Y04608D03*
X03252Y04622D03*
X03238Y04636D03*
X03224Y0465D03*
X0321Y04664D03*
X03196Y04678D03*
X03182Y04692D03*
X03168Y04705D03*
X03155Y04719D03*
X03141Y04733D03*
X03127Y04747D03*
X03113Y04761D03*
X03099Y04775D03*
X03085Y04789D03*
X03071Y04803D03*
X03057Y04817D03*
X03043Y04831D03*
X03029Y04845D03*
X03015Y04859D03*
X03001Y04872D03*
X02987Y04886D03*
X02974Y049D03*
X0296Y04914D03*
X02946Y04928D03*
X02932Y04942D03*
X02918Y04956D03*
X02904Y0497D03*
X0289Y04984D03*
X02876Y04998D03*
X02862Y05012D03*
X02848Y05026D03*
X02834Y0504D03*
X0282Y05053D03*
X02807Y05067D03*
X02793Y05081D03*
X02779Y05095D03*
X02765Y05109D03*
X02751Y05123D03*
X02737Y05137D03*
X02723Y05151D03*
X02709Y05165D03*
X02695Y05179D03*
X02681Y05193D03*
X02667Y05207D03*
X02653Y0522D03*
X02639Y05234D03*
X0182Y04415D03*
X01834Y04401D03*
X01847Y04387D03*
X01861Y04373D03*
X01875Y04359D03*
X01889Y04345D03*
X01903Y04331D03*
X01917Y04317D03*
X01931Y04303D03*
X01945Y04289D03*
X01959Y04275D03*
X01973Y04261D03*
X01987Y04247D03*
X02001Y04234D03*
X02015Y0422D03*
X02028Y04206D03*
X02042Y04192D03*
X02056Y04178D03*
X0207Y04164D03*
X02084Y0415D03*
X02098Y04136D03*
X02112Y04122D03*
X02126Y04108D03*
X0214Y04094D03*
X02154Y0408D03*
X02168Y04067D03*
X02182Y04053D03*
X02195Y04039D03*
X02209Y04025D03*
X02223Y04011D03*
X02237Y03997D03*
X02251Y03983D03*
X02265Y03969D03*
X02279Y03955D03*
X02293Y03941D03*
X02307Y03927D03*
X02321Y03913D03*
X02335Y039D03*
X02349Y03886D03*
X02362Y03872D03*
X02376Y03858D03*
X0239Y03844D03*
X02404Y0383D03*
X02418Y03816D03*
X02432Y03802D03*
X02446Y03788D03*
X0246Y03774D03*
X02474Y0376D03*
X02488Y03746D03*
X02502Y03732D03*
X02516Y03719D03*
X0253Y03705D03*
G54D72*
X00839Y03917D03*
Y03842D03*
X00941D03*
Y03879D03*
Y03917D03*
G54D73*
X01491Y04368D03*
X01758Y04101D03*
G54D74*
X05272Y02538D03*
Y02646D03*
G54D75*
X04897Y02592D03*
X04972Y02555D03*
Y02629D03*
X03066Y03329D03*
Y03403D03*
X03141Y03366D03*
X04607Y0006D03*
Y00135D03*
X04682Y00097D03*
X04607Y-00219D03*
Y-00144D03*
X04682Y-00182D03*
X04607Y-00079D03*
Y-00004D03*
X04682Y-00042D03*
X03111Y-00079D03*
Y-00004D03*
X03185Y-00042D03*
X03111Y-00219D03*
Y-00144D03*
X03185Y-00182D03*
X03111Y0006D03*
Y00135D03*
X03185Y00097D03*
X01615Y-00079D03*
Y-00004D03*
X01689Y-00042D03*
X01615Y0006D03*
Y00135D03*
X01689Y00097D03*
X01615Y-00219D03*
Y-00144D03*
X01689Y-00182D03*
X00119Y-00079D03*
Y-00004D03*
X00193Y-00042D03*
X00119Y-00219D03*
Y-00144D03*
X00193Y-00182D03*
X00119Y0006D03*
Y00135D03*
X00193Y00097D03*
X02953Y03052D03*
Y03127D03*
X03028Y0309D03*
X02953Y02912D03*
Y02987D03*
X03028Y0295D03*
X02953Y02772D03*
Y02847D03*
X03028Y0281D03*
X02363Y02772D03*
Y02847D03*
X02437Y0281D03*
X02363Y03052D03*
Y03127D03*
X02437Y0309D03*
X02363Y02912D03*
Y02987D03*
X02437Y0295D03*
X01772Y03052D03*
Y03127D03*
X01847Y0309D03*
X01772Y02912D03*
Y02987D03*
X01847Y0295D03*
X01772Y02772D03*
Y02847D03*
X01847Y0281D03*
G54D76*
X05141Y02744D03*
X05093D03*
X05191Y02794D03*
X05143D03*
X05093Y02504D03*
X05141D03*
G54D77*
X05102Y02594D03*
G54D78*
X05139Y02624D03*
Y02604D03*
Y02585D03*
Y02565D03*
X05065Y02624D03*
Y02604D03*
Y02585D03*
Y02565D03*
G54D79*
X00837Y04181D03*
X00662D03*
Y04318D03*
X00837D03*
G54D80*
X03061Y0504D03*
X03109D03*
X02868Y05185D03*
X02821D03*
X02186Y051D03*
X02233D03*
X02186Y05053D03*
X02233D03*
G54D81*
X02073Y03948D03*
X02106Y03981D03*
G54D82*
X02888Y03736D03*
X02855Y0377D03*
X02183Y03925D03*
X02216Y03891D03*
X03107Y03988D03*
X03073Y04021D03*
X03213Y04085D03*
X0318Y04118D03*
X03336Y04208D03*
X03303Y04241D03*
X03316Y04703D03*
X03283Y04736D03*
X0197Y04875D03*
X02003Y04842D03*
X01823Y04766D03*
X01856Y04733D03*
G54D83*
X02995Y03702D03*
X03033Y03777D03*
X02958D03*
X-00031Y03442D03*
X-00106D03*
X-00069Y03517D03*
G54D84*
X01095Y03939D03*
X01005D03*
G54D85*
X0077Y03912D03*
Y03849D03*
G54D86*
X03658Y0353D03*
Y03596D03*
X0067Y03531D03*
Y03598D03*
G54D87*
X01772Y03917D02*
X01882Y04027D01*
X01871Y04016D02*
X01882Y04027D01*
Y04084*
X01855Y04112D02*
X01882Y04084D01*
X01427Y04212D02*
X01602Y04037D01*
X01642Y03917D02*
X01772D01*
X01366Y04471D02*
X01415Y0452D01*
X0148*
X01595Y04405*
X01595*
X0167Y0433*
X01575Y03984D02*
X01642Y03917D01*
X01575Y03984D02*
Y04009D01*
X01365Y0418D02*
X01394D01*
X01305Y0424D02*
X01365Y0418D01*
X01305Y0424D02*
Y04285D01*
X01366Y04346D02*
Y04471D01*
X01305Y04285D02*
X01366Y04346D01*
X01575Y04009D02*
X01602Y04037D01*
X01394Y0418D02*
X01427Y04212D01*
G54D88*
X03958Y03366D02*
Y03411D01*
X00966Y03366D02*
Y03411D01*
M02*