%FSTAX23Y23*%
%MOIN*%
%SFA1B1*%

%IPPOS*%
%ADD10C,0.003937*%
%ADD11C,0.009843*%
%ADD12C,0.007874*%
%ADD13C,0.005905*%
%ADD53C,0.010000*%
%ADD54C,0.006000*%
%ADD108C,0.023622*%
%ADD109C,0.005984*%
%LNduo_x-1*%
%LPD*%
G54D10*
X-00493Y02567D02*
D01*
X-00493Y02568*
X-00493Y02568*
X-00493Y02568*
X-00493Y02568*
X-00494Y02569*
X-00494Y02569*
X-00494Y02569*
X-00494Y02569*
X-00494Y0257*
X-00494Y0257*
X-00494Y0257*
X-00495Y0257*
X-00495Y02571*
X-00495Y02571*
X-00495Y02571*
X-00496Y02571*
X-00496Y02571*
X-00496Y02571*
X-00496Y02571*
X-00497Y02571*
X-00497Y02571*
X-00497Y02571*
X-00497Y02571*
X-00517D02*
D01*
X-00517Y02571*
X-00518Y02571*
X-00518Y02571*
X-00518Y02571*
X-00518Y02571*
X-00519Y02571*
X-00519Y02571*
X-00519Y02571*
X-00519Y02571*
X-00519Y0257*
X-0052Y0257*
X-0052Y0257*
X-0052Y0257*
X-0052Y0257*
X-0052Y02569*
X-00521Y02569*
X-00521Y02569*
X-00521Y02569*
X-00521Y02568*
X-00521Y02568*
X-00521Y02568*
X-00521Y02568*
X-00521Y02567*
X00059D02*
D01*
X00059Y02568*
X00059Y02568*
X00059Y02568*
X00059Y02568*
X00059Y02569*
X00059Y02569*
X00059Y02569*
X00059Y02569*
X00058Y0257*
X00058Y0257*
X00058Y0257*
X00058Y0257*
X00058Y02571*
X00057Y02571*
X00057Y02571*
X00057Y02571*
X00057Y02571*
X00056Y02571*
X00056Y02571*
X00056Y02571*
X00056Y02571*
X00055Y02571*
X00055Y02571*
X00036D02*
D01*
X00035Y02571*
X00035Y02571*
X00035Y02571*
X00034Y02571*
X00034Y02571*
X00034Y02571*
X00034Y02571*
X00033Y02571*
X00033Y02571*
X00033Y0257*
X00033Y0257*
X00033Y0257*
X00032Y0257*
X00032Y0257*
X00032Y02569*
X00032Y02569*
X00032Y02569*
X00032Y02569*
X00032Y02568*
X00032Y02568*
X00032Y02568*
X00032Y02568*
X00032Y02567*
X00613D02*
D01*
X00613Y02568*
X00613Y02568*
X00613Y02568*
X00613Y02568*
X00613Y02569*
X00612Y02569*
X00612Y02569*
X00612Y02569*
X00612Y0257*
X00612Y0257*
X00612Y0257*
X00611Y0257*
X00611Y02571*
X00611Y02571*
X00611Y02571*
X00611Y02571*
X0061Y02571*
X0061Y02571*
X0061Y02571*
X00609Y02571*
X00609Y02571*
X00609Y02571*
X00609Y02571*
X00589D02*
D01*
X00589Y02571*
X00589Y02571*
X00588Y02571*
X00588Y02571*
X00588Y02571*
X00588Y02571*
X00587Y02571*
X00587Y02571*
X00587Y02571*
X00587Y0257*
X00586Y0257*
X00586Y0257*
X00586Y0257*
X00586Y0257*
X00586Y02569*
X00586Y02569*
X00585Y02569*
X00585Y02569*
X00585Y02568*
X00585Y02568*
X00585Y02568*
X00585Y02568*
X00585Y02567*
X05309Y02517D02*
D01*
X05309Y02517*
X05309Y02517*
X05309Y02518*
X05309Y02518*
X05309Y02518*
X05309Y02518*
X05309Y02518*
X05309Y02518*
X05309Y02518*
X05309Y02518*
X05309Y02519*
X05309Y02519*
X05309Y02519*
X05308Y02519*
X05308Y02519*
X05308Y02519*
X05308Y02519*
X05308Y02519*
X05308Y02519*
X05308Y02519*
X05308Y02519*
X05307Y02519*
X05307*
X05307Y02519*
X05307Y02519*
X05307Y02519*
X05307Y02519*
X05307Y02519*
X05306Y02519*
X05306Y02519*
X05306Y02519*
X05306Y02519*
X05306Y02519*
X05306Y02519*
X05306Y02518*
X05306Y02518*
X05306Y02518*
X05306Y02518*
X05306Y02518*
X05305Y02518*
X05305Y02518*
X05305Y02518*
X05305Y02517*
X05305Y02517*
X05305Y02517*
X05305Y02517*
X05305Y02517*
X05305Y02517*
X05305Y02517*
X05305Y02516*
X05306Y02516*
X05306Y02516*
X05306Y02516*
X05306Y02516*
X05306Y02516*
X05306Y02516*
X05306Y02516*
X05306Y02516*
X05306Y02516*
X05306Y02515*
X05306Y02515*
X05307Y02515*
X05307Y02515*
X05307Y02515*
X05307Y02515*
X05307Y02515*
X05307Y02515*
X05307*
X05308Y02515*
X05308Y02515*
X05308Y02515*
X05308Y02515*
X05308Y02515*
X05308Y02515*
X05308Y02515*
X05308Y02516*
X05309Y02516*
X05309Y02516*
X05309Y02516*
X05309Y02516*
X05309Y02516*
X05309Y02516*
X05309Y02516*
X05309Y02516*
X05309Y02516*
X05309Y02517*
X05309Y02517*
X05309Y02517*
X05309Y02517*
X05309Y02517*
X05047Y02547D02*
D01*
X05047Y02547*
X05047Y02547*
X05047Y02548*
X05047Y02548*
X05047Y02548*
X05047Y02548*
X05047Y02548*
X05046Y02548*
X05046Y02548*
X05046Y02548*
X05046Y02548*
X05046Y02549*
X05046Y02549*
X05046Y02549*
X05046Y02549*
X05046Y02549*
X05046Y02549*
X05045Y02549*
X05045Y02549*
X05045Y02549*
X05045Y02549*
X05045Y02549*
X05045*
X05045Y02549*
X05044Y02549*
X05044Y02549*
X05044Y02549*
X05044Y02549*
X05044Y02549*
X05044Y02549*
X05044Y02549*
X05044Y02549*
X05043Y02549*
X05043Y02548*
X05043Y02548*
X05043Y02548*
X05043Y02548*
X05043Y02548*
X05043Y02548*
X05043Y02548*
X05043Y02548*
X05043Y02548*
X05043Y02547*
X05043Y02547*
X05043Y02547*
X05043Y02547*
X05043Y02547*
X05043Y02547*
X05043Y02547*
X05043Y02546*
X05043Y02546*
X05043Y02546*
X05043Y02546*
X05043Y02546*
X05043Y02546*
X05043Y02546*
X05043Y02546*
X05044Y02546*
X05044Y02545*
X05044Y02545*
X05044Y02545*
X05044Y02545*
X05044Y02545*
X05044Y02545*
X05044Y02545*
X05045Y02545*
X05045Y02545*
X05045*
X05045Y02545*
X05045Y02545*
X05045Y02545*
X05045Y02545*
X05046Y02545*
X05046Y02545*
X05046Y02545*
X05046Y02545*
X05046Y02546*
X05046Y02546*
X05046Y02546*
X05046Y02546*
X05046Y02546*
X05046Y02546*
X05047Y02546*
X05047Y02546*
X05047Y02546*
X05047Y02547*
X05047Y02547*
X05047Y02547*
X05047Y02547*
X05047Y02547*
X00789Y0425D02*
D01*
X00789Y04252*
X00788Y04255*
X00788Y04258*
X00787Y0426*
X00786Y04263*
X00785Y04265*
X00784Y04268*
X00783Y0427*
X00781Y04272*
X0078Y04275*
X00778Y04277*
X00776Y04279*
X00774Y0428*
X00771Y04282*
X00769Y04283*
X00767Y04285*
X00764Y04286*
X00762Y04287*
X00759Y04287*
X00756Y04288*
X00754Y04288*
X00751Y04289*
X00748*
X00746Y04288*
X00743Y04288*
X0074Y04287*
X00738Y04287*
X00735Y04286*
X00732Y04285*
X0073Y04283*
X00728Y04282*
X00726Y0428*
X00723Y04279*
X00722Y04277*
X0072Y04275*
X00718Y04272*
X00716Y0427*
X00715Y04268*
X00714Y04265*
X00713Y04263*
X00712Y0426*
X00711Y04258*
X00711Y04255*
X00711Y04252*
X00711Y0425*
X00711Y04247*
X00711Y04244*
X00711Y04241*
X00712Y04239*
X00713Y04236*
X00714Y04234*
X00715Y04231*
X00716Y04229*
X00718Y04227*
X0072Y04224*
X00722Y04222*
X00723Y0422*
X00726Y04219*
X00728Y04217*
X0073Y04216*
X00732Y04214*
X00735Y04213*
X00738Y04212*
X0074Y04212*
X00743Y04211*
X00746Y04211*
X00748Y0421*
X00751*
X00754Y04211*
X00756Y04211*
X00759Y04212*
X00762Y04212*
X00764Y04213*
X00767Y04214*
X00769Y04216*
X00771Y04217*
X00774Y04219*
X00776Y0422*
X00778Y04222*
X0078Y04224*
X00781Y04227*
X00783Y04229*
X00784Y04231*
X00785Y04234*
X00786Y04236*
X00787Y04239*
X00788Y04241*
X00788Y04244*
X00789Y04247*
X00789Y0425*
X00133Y0299D02*
X00163D01*
X-00582Y02541D02*
X00673D01*
X00059Y02563D02*
X00585D01*
X-00558Y02518D02*
X0065D01*
X00134Y02262D02*
X0065D01*
X00134Y02239D02*
X00673D01*
X00134Y02217D02*
X00695D01*
X-00493Y02563D02*
X00032D01*
X-00558Y02262D02*
X-00042D01*
X-00604Y02217D02*
X-00042D01*
X-00582Y02239D02*
X-00042D01*
X0065Y02262D02*
X00673Y02239D01*
X-00604Y02563D02*
X-00521D01*
X-00042Y023D02*
X00134D01*
X-00042Y02217D02*
X00134D01*
X00455Y02213D02*
X00526D01*
X0065Y02518D02*
X00673Y02541D01*
X00613Y02563D02*
X00695D01*
X-00582Y02239D02*
Y02541D01*
X-00558Y02262D02*
Y02518D01*
X-00604Y02563D02*
Y02217D01*
X0065Y02262D02*
Y02518D01*
X00673Y02239D02*
Y02541D01*
X00695Y02217D02*
Y02563D01*
X-00552Y02325D02*
Y02455D01*
X-00582Y02239D02*
X-00558Y02262D01*
X-00042Y02239D02*
Y02262D01*
X00134Y02239D02*
Y02262D01*
X00644Y02325D02*
Y02455D01*
X-00582Y02541D02*
X-00558Y02518D01*
Y02455D02*
X-00552D01*
X-00558Y02325D02*
X-00552D01*
X-00521Y02563D02*
Y02567D01*
X-00493Y02563D02*
Y02567D01*
X-00517Y02571D02*
X-00497D01*
X-00042Y02262D02*
Y023D01*
Y02217D02*
Y02239D01*
X00036Y02571D02*
X00055D01*
X00059Y02563D02*
Y02567D01*
X00032Y02563D02*
Y02567D01*
X00134Y02262D02*
Y023D01*
Y02217D02*
Y02239D01*
X00331Y02563D02*
Y02565D01*
X00321D02*
X00331D01*
X00321Y02563D02*
Y02565D01*
X00291Y02563D02*
Y02565D01*
X00321*
X00283Y02563D02*
Y02565D01*
X00291*
X00276Y02563D02*
Y02565D01*
X00283*
X00272Y02563D02*
Y02565D01*
X00276*
X0027D02*
Y02563D01*
Y02565D02*
X00272D01*
X00383D02*
Y02563D01*
X00373Y02565D02*
X00383D01*
X00373Y02563D02*
Y02565D01*
X00363D02*
X00373D01*
X00363Y02563D02*
Y02565D01*
X00355Y02563D02*
Y02565D01*
X00363*
X00391Y02563D02*
Y02565D01*
X00383D02*
X00391D01*
X00396Y02563D02*
Y02565D01*
X00391D02*
X00396D01*
X0035Y02563D02*
Y02565D01*
X00355*
X00399Y02563D02*
Y02565D01*
X00396D02*
X00399D01*
X00347Y02563D02*
Y02565D01*
X0035*
X00345Y02563D02*
Y02565D01*
X00347*
X00401D02*
Y02563D01*
X00399Y02565D02*
X00401D01*
X00403Y02563D02*
Y02565D01*
X00401D02*
X00403D01*
X00344Y02563D02*
Y02565D01*
X00345*
X00416D02*
X00475D01*
X00416Y02563D02*
Y02565D01*
X00475Y02563D02*
Y02565D01*
X00455Y02213D02*
Y02217D01*
X00526Y02213D02*
Y02217D01*
X00589Y02571D02*
X00609D01*
X00585Y02563D02*
Y02567D01*
X00613Y02563D02*
Y02567D01*
X00644Y02455D02*
X0065D01*
X00644Y02325D02*
X0065D01*
X0103Y03924D02*
Y03954D01*
X00635Y03901D02*
X00665D01*
G54D11*
X02554Y03685D02*
D01*
X02554Y03685*
X02554Y03686*
X02554Y03686*
X02554Y03686*
X02554Y03687*
X02553Y03687*
X02553Y03687*
X02553Y03688*
X02553Y03688*
X02553Y03688*
X02553Y03689*
X02552Y03689*
X02552Y03689*
X02552Y03689*
X02551Y03689*
X02551Y0369*
X02551Y0369*
X02551Y0369*
X0255Y0369*
X0255Y0369*
X0255Y0369*
X02549Y0369*
X02549*
X02548Y0369*
X02548Y0369*
X02548Y0369*
X02547Y0369*
X02547Y0369*
X02547Y0369*
X02547Y03689*
X02546Y03689*
X02546Y03689*
X02546Y03689*
X02545Y03689*
X02545Y03688*
X02545Y03688*
X02545Y03688*
X02545Y03687*
X02545Y03687*
X02544Y03687*
X02544Y03686*
X02544Y03686*
X02544Y03686*
X02544Y03685*
X02544Y03685*
X02544Y03685*
X02544Y03684*
X02544Y03684*
X02544Y03684*
X02544Y03683*
X02545Y03683*
X02545Y03683*
X02545Y03683*
X02545Y03682*
X02545Y03682*
X02545Y03682*
X02546Y03681*
X02546Y03681*
X02546Y03681*
X02547Y03681*
X02547Y03681*
X02547Y03681*
X02547Y0368*
X02548Y0368*
X02548Y0368*
X02548Y0368*
X02549Y0368*
X02549*
X0255Y0368*
X0255Y0368*
X0255Y0368*
X02551Y0368*
X02551Y03681*
X02551Y03681*
X02551Y03681*
X02552Y03681*
X02552Y03681*
X02552Y03681*
X02553Y03682*
X02553Y03682*
X02553Y03682*
X02553Y03683*
X02553Y03683*
X02553Y03683*
X02554Y03683*
X02554Y03684*
X02554Y03684*
X02554Y03684*
X02554Y03685*
X02554Y03685*
X00949Y0395D02*
D01*
X00949Y0395*
X00949Y03951*
X00949Y03951*
X00949Y03951*
X00949Y03952*
X00949Y03952*
X00948Y03952*
X00948Y03953*
X00948Y03953*
X00948Y03953*
X00948Y03954*
X00947Y03954*
X00947Y03954*
X00947Y03954*
X00947Y03954*
X00946Y03955*
X00946Y03955*
X00946Y03955*
X00945Y03955*
X00945Y03955*
X00945Y03955*
X00944Y03955*
X00944*
X00944Y03955*
X00943Y03955*
X00943Y03955*
X00943Y03955*
X00942Y03955*
X00942Y03955*
X00942Y03954*
X00941Y03954*
X00941Y03954*
X00941Y03954*
X00941Y03954*
X0094Y03953*
X0094Y03953*
X0094Y03953*
X0094Y03952*
X0094Y03952*
X00939Y03952*
X00939Y03951*
X00939Y03951*
X00939Y03951*
X00939Y0395*
X00939Y0395*
X00939Y0395*
X00939Y03949*
X00939Y03949*
X00939Y03949*
X00939Y03948*
X0094Y03948*
X0094Y03948*
X0094Y03948*
X0094Y03947*
X0094Y03947*
X00941Y03947*
X00941Y03946*
X00941Y03946*
X00941Y03946*
X00942Y03946*
X00942Y03946*
X00942Y03946*
X00943Y03945*
X00943Y03945*
X00943Y03945*
X00944Y03945*
X00944Y03945*
X00944*
X00945Y03945*
X00945Y03945*
X00945Y03945*
X00946Y03945*
X00946Y03946*
X00946Y03946*
X00947Y03946*
X00947Y03946*
X00947Y03946*
X00947Y03946*
X00948Y03947*
X00948Y03947*
X00948Y03947*
X00948Y03948*
X00948Y03948*
X00949Y03948*
X00949Y03948*
X00949Y03949*
X00949Y03949*
X00949Y03949*
X00949Y0395*
X00949Y0395*
X04977Y02663D02*
D01*
X04977Y02663*
X04977Y02663*
X04977Y02664*
X04977Y02664*
X04977Y02664*
X04976Y02665*
X04976Y02665*
X04976Y02665*
X04976Y02666*
X04976Y02666*
X04975Y02666*
X04975Y02666*
X04975Y02667*
X04975Y02667*
X04974Y02667*
X04974Y02667*
X04974Y02667*
X04973Y02667*
X04973Y02668*
X04973Y02668*
X04972Y02668*
X04972Y02668*
X04972*
X04971Y02668*
X04971Y02668*
X04971Y02668*
X0497Y02667*
X0497Y02667*
X0497Y02667*
X04969Y02667*
X04969Y02667*
X04969Y02667*
X04969Y02666*
X04968Y02666*
X04968Y02666*
X04968Y02666*
X04968Y02665*
X04968Y02665*
X04967Y02665*
X04967Y02664*
X04967Y02664*
X04967Y02664*
X04967Y02663*
X04967Y02663*
X04967Y02663*
X04967Y02662*
X04967Y02662*
X04967Y02662*
X04967Y02661*
X04967Y02661*
X04967Y02661*
X04968Y0266*
X04968Y0266*
X04968Y0266*
X04968Y0266*
X04968Y02659*
X04969Y02659*
X04969Y02659*
X04969Y02659*
X04969Y02659*
X0497Y02658*
X0497Y02658*
X0497Y02658*
X04971Y02658*
X04971Y02658*
X04971Y02658*
X04972Y02658*
X04972*
X04972Y02658*
X04973Y02658*
X04973Y02658*
X04973Y02658*
X04974Y02658*
X04974Y02658*
X04974Y02659*
X04975Y02659*
X04975Y02659*
X04975Y02659*
X04975Y02659*
X04976Y0266*
X04976Y0266*
X04976Y0266*
X04976Y0266*
X04976Y02661*
X04977Y02661*
X04977Y02661*
X04977Y02662*
X04977Y02662*
X04977Y02662*
X04977Y02663*
X02929Y03777D02*
D01*
X02929Y03777*
X02929Y03778*
X02929Y03778*
X02929Y03778*
X02929Y03779*
X02929Y03779*
X02929Y03779*
X02929Y0378*
X02928Y0378*
X02928Y0378*
X02928Y0378*
X02928Y03781*
X02927Y03781*
X02927Y03781*
X02927Y03781*
X02927Y03781*
X02926Y03781*
X02926Y03782*
X02926Y03782*
X02925Y03782*
X02925Y03782*
X02925Y03782*
X02924*
X02924Y03782*
X02924Y03782*
X02923Y03782*
X02923Y03782*
X02923Y03781*
X02922Y03781*
X02922Y03781*
X02922Y03781*
X02921Y03781*
X02921Y03781*
X02921Y0378*
X02921Y0378*
X0292Y0378*
X0292Y0378*
X0292Y03779*
X0292Y03779*
X0292Y03779*
X0292Y03778*
X0292Y03778*
X0292Y03778*
X0292Y03777*
X0292Y03777*
X0292Y03777*
X0292Y03776*
X0292Y03776*
X0292Y03776*
X0292Y03775*
X0292Y03775*
X0292Y03775*
X0292Y03774*
X0292Y03774*
X02921Y03774*
X02921Y03773*
X02921Y03773*
X02921Y03773*
X02922Y03773*
X02922Y03773*
X02922Y03772*
X02923Y03772*
X02923Y03772*
X02923Y03772*
X02924Y03772*
X02924Y03772*
X02924Y03772*
X02925*
X02925Y03772*
X02925Y03772*
X02926Y03772*
X02926Y03772*
X02926Y03772*
X02927Y03772*
X02927Y03773*
X02927Y03773*
X02927Y03773*
X02928Y03773*
X02928Y03773*
X02928Y03774*
X02928Y03774*
X02929Y03774*
X02929Y03775*
X02929Y03775*
X02929Y03775*
X02929Y03776*
X02929Y03776*
X02929Y03776*
X02929Y03777*
X02929Y03777*
X00006Y03442D02*
D01*
X00006Y03442*
X00006Y03443*
X00006Y03443*
X00006Y03443*
X00006Y03444*
X00006Y03444*
X00006Y03444*
X00005Y03445*
X00005Y03445*
X00005Y03445*
X00005Y03446*
X00005Y03446*
X00004Y03446*
X00004Y03446*
X00004Y03446*
X00003Y03447*
X00003Y03447*
X00003Y03447*
X00002Y03447*
X00002Y03447*
X00002Y03447*
X00001Y03447*
X00001*
X00001Y03447*
X0Y03447*
X0Y03447*
X0Y03447*
X0Y03447*
X0Y03447*
X0Y03446*
X0Y03446*
X-00001Y03446*
X-00001Y03446*
X-00001Y03446*
X-00001Y03445*
X-00002Y03445*
X-00002Y03445*
X-00002Y03444*
X-00002Y03444*
X-00002Y03444*
X-00002Y03443*
X-00003Y03443*
X-00003Y03443*
X-00003Y03442*
X-00003Y03442*
X-00003Y03442*
X-00003Y03441*
X-00003Y03441*
X-00002Y03441*
X-00002Y0344*
X-00002Y0344*
X-00002Y0344*
X-00002Y03439*
X-00002Y03439*
X-00001Y03439*
X-00001Y03439*
X-00001Y03438*
X-00001Y03438*
X0Y03438*
X0Y03438*
X0Y03438*
X0Y03438*
X0Y03437*
X0Y03437*
X0Y03437*
X00001Y03437*
X00001Y03437*
X00001*
X00002Y03437*
X00002Y03437*
X00002Y03437*
X00003Y03437*
X00003Y03438*
X00003Y03438*
X00004Y03438*
X00004Y03438*
X00004Y03438*
X00005Y03438*
X00005Y03439*
X00005Y03439*
X00005Y03439*
X00005Y03439*
X00006Y0344*
X00006Y0344*
X00006Y0344*
X00006Y03441*
X00006Y03441*
X00006Y03441*
X00006Y03442*
X00006Y03442*
X03071Y03295D02*
D01*
X03071Y03295*
X03071Y03296*
X03071Y03296*
X03071Y03296*
X03071Y03297*
X03071Y03297*
X0307Y03297*
X0307Y03298*
X0307Y03298*
X0307Y03298*
X0307Y03298*
X03069Y03299*
X03069Y03299*
X03069Y03299*
X03068Y03299*
X03068Y03299*
X03068Y033*
X03068Y033*
X03067Y033*
X03067Y033*
X03067Y033*
X03066Y033*
X03066*
X03066Y033*
X03065Y033*
X03065Y033*
X03065Y033*
X03064Y033*
X03064Y03299*
X03064Y03299*
X03063Y03299*
X03063Y03299*
X03063Y03299*
X03062Y03298*
X03062Y03298*
X03062Y03298*
X03062Y03298*
X03062Y03297*
X03062Y03297*
X03061Y03297*
X03061Y03296*
X03061Y03296*
X03061Y03296*
X03061Y03295*
X03061Y03295*
X03061Y03295*
X03061Y03294*
X03061Y03294*
X03061Y03294*
X03061Y03293*
X03062Y03293*
X03062Y03293*
X03062Y03292*
X03062Y03292*
X03062Y03292*
X03062Y03292*
X03063Y03291*
X03063Y03291*
X03063Y03291*
X03064Y03291*
X03064Y03291*
X03064Y0329*
X03065Y0329*
X03065Y0329*
X03065Y0329*
X03066Y0329*
X03066Y0329*
X03066*
X03067Y0329*
X03067Y0329*
X03067Y0329*
X03068Y0329*
X03068Y0329*
X03068Y03291*
X03068Y03291*
X03069Y03291*
X03069Y03291*
X03069Y03291*
X0307Y03292*
X0307Y03292*
X0307Y03292*
X0307Y03292*
X0307Y03293*
X03071Y03293*
X03071Y03293*
X03071Y03294*
X03071Y03294*
X03071Y03294*
X03071Y03295*
X03071Y03295*
X04612Y00027D02*
D01*
X04612Y00027*
X04612Y00027*
X04612Y00028*
X04611Y00028*
X04611Y00028*
X04611Y00029*
X04611Y00029*
X04611Y00029*
X04611Y00029*
X04611Y0003*
X0461Y0003*
X0461Y0003*
X0461Y0003*
X04609Y00031*
X04609Y00031*
X04609Y00031*
X04609Y00031*
X04608Y00031*
X04608Y00031*
X04608Y00031*
X04607Y00031*
X04607Y00031*
X04607*
X04606Y00031*
X04606Y00031*
X04606Y00031*
X04605Y00031*
X04605Y00031*
X04605Y00031*
X04604Y00031*
X04604Y00031*
X04604Y0003*
X04603Y0003*
X04603Y0003*
X04603Y0003*
X04603Y00029*
X04603Y00029*
X04602Y00029*
X04602Y00029*
X04602Y00028*
X04602Y00028*
X04602Y00028*
X04602Y00027*
X04602Y00027*
X04602Y00027*
X04602Y00026*
X04602Y00026*
X04602Y00025*
X04602Y00025*
X04602Y00025*
X04602Y00025*
X04602Y00024*
X04603Y00024*
X04603Y00024*
X04603Y00023*
X04603Y00023*
X04603Y00023*
X04604Y00023*
X04604Y00022*
X04604Y00022*
X04605Y00022*
X04605Y00022*
X04605Y00022*
X04606Y00022*
X04606Y00022*
X04606Y00022*
X04607Y00022*
X04607*
X04607Y00022*
X04608Y00022*
X04608Y00022*
X04608Y00022*
X04609Y00022*
X04609Y00022*
X04609Y00022*
X04609Y00022*
X0461Y00023*
X0461Y00023*
X0461Y00023*
X04611Y00023*
X04611Y00024*
X04611Y00024*
X04611Y00024*
X04611Y00025*
X04611Y00025*
X04611Y00025*
X04612Y00025*
X04612Y00026*
X04612Y00026*
X04612Y00027*
Y-00252D02*
D01*
X04612Y-00252*
X04612Y-00252*
X04612Y-00251*
X04611Y-00251*
X04611Y-00251*
X04611Y-0025*
X04611Y-0025*
X04611Y-0025*
X04611Y-0025*
X04611Y-00249*
X0461Y-00249*
X0461Y-00249*
X0461Y-00249*
X04609Y-00248*
X04609Y-00248*
X04609Y-00248*
X04609Y-00248*
X04608Y-00248*
X04608Y-00248*
X04608Y-00248*
X04607Y-00248*
X04607Y-00248*
X04607*
X04606Y-00248*
X04606Y-00248*
X04606Y-00248*
X04605Y-00248*
X04605Y-00248*
X04605Y-00248*
X04604Y-00248*
X04604Y-00248*
X04604Y-00249*
X04603Y-00249*
X04603Y-00249*
X04603Y-00249*
X04603Y-0025*
X04603Y-0025*
X04602Y-0025*
X04602Y-0025*
X04602Y-00251*
X04602Y-00251*
X04602Y-00251*
X04602Y-00252*
X04602Y-00252*
X04602Y-00252*
X04602Y-00253*
X04602Y-00253*
X04602Y-00254*
X04602Y-00254*
X04602Y-00254*
X04602Y-00254*
X04602Y-00255*
X04603Y-00255*
X04603Y-00255*
X04603Y-00256*
X04603Y-00256*
X04603Y-00256*
X04604Y-00256*
X04604Y-00257*
X04604Y-00257*
X04605Y-00257*
X04605Y-00257*
X04605Y-00257*
X04606Y-00257*
X04606Y-00257*
X04606Y-00257*
X04607Y-00257*
X04607*
X04607Y-00257*
X04608Y-00257*
X04608Y-00257*
X04608Y-00257*
X04609Y-00257*
X04609Y-00257*
X04609Y-00257*
X04609Y-00257*
X0461Y-00256*
X0461Y-00256*
X0461Y-00256*
X04611Y-00256*
X04611Y-00255*
X04611Y-00255*
X04611Y-00255*
X04611Y-00254*
X04611Y-00254*
X04611Y-00254*
X04612Y-00254*
X04612Y-00253*
X04612Y-00253*
X04612Y-00252*
Y-00112D02*
D01*
X04612Y-00112*
X04612Y-00112*
X04612Y-00111*
X04611Y-00111*
X04611Y-00111*
X04611Y-0011*
X04611Y-0011*
X04611Y-0011*
X04611Y-0011*
X04611Y-00109*
X0461Y-00109*
X0461Y-00109*
X0461Y-00109*
X04609Y-00108*
X04609Y-00108*
X04609Y-00108*
X04609Y-00108*
X04608Y-00108*
X04608Y-00108*
X04608Y-00108*
X04607Y-00108*
X04607Y-00108*
X04607*
X04606Y-00108*
X04606Y-00108*
X04606Y-00108*
X04605Y-00108*
X04605Y-00108*
X04605Y-00108*
X04604Y-00108*
X04604Y-00108*
X04604Y-00109*
X04603Y-00109*
X04603Y-00109*
X04603Y-00109*
X04603Y-0011*
X04603Y-0011*
X04602Y-0011*
X04602Y-0011*
X04602Y-00111*
X04602Y-00111*
X04602Y-00111*
X04602Y-00112*
X04602Y-00112*
X04602Y-00112*
X04602Y-00113*
X04602Y-00113*
X04602Y-00114*
X04602Y-00114*
X04602Y-00114*
X04602Y-00114*
X04602Y-00115*
X04603Y-00115*
X04603Y-00115*
X04603Y-00116*
X04603Y-00116*
X04603Y-00116*
X04604Y-00116*
X04604Y-00117*
X04604Y-00117*
X04605Y-00117*
X04605Y-00117*
X04605Y-00117*
X04606Y-00117*
X04606Y-00117*
X04606Y-00117*
X04607Y-00117*
X04607*
X04607Y-00117*
X04608Y-00117*
X04608Y-00117*
X04608Y-00117*
X04609Y-00117*
X04609Y-00117*
X04609Y-00117*
X04609Y-00117*
X0461Y-00116*
X0461Y-00116*
X0461Y-00116*
X04611Y-00116*
X04611Y-00115*
X04611Y-00115*
X04611Y-00115*
X04611Y-00114*
X04611Y-00114*
X04611Y-00114*
X04612Y-00114*
X04612Y-00113*
X04612Y-00113*
X04612Y-00112*
X03116D02*
D01*
X03116Y-00112*
X03116Y-00112*
X03115Y-00111*
X03115Y-00111*
X03115Y-00111*
X03115Y-0011*
X03115Y-0011*
X03115Y-0011*
X03115Y-0011*
X03114Y-00109*
X03114Y-00109*
X03114Y-00109*
X03114Y-00109*
X03113Y-00108*
X03113Y-00108*
X03113Y-00108*
X03113Y-00108*
X03112Y-00108*
X03112Y-00108*
X03112Y-00108*
X03111Y-00108*
X03111Y-00108*
X03111*
X0311Y-00108*
X0311Y-00108*
X03109Y-00108*
X03109Y-00108*
X03109Y-00108*
X03109Y-00108*
X03108Y-00108*
X03108Y-00108*
X03108Y-00109*
X03107Y-00109*
X03107Y-00109*
X03107Y-00109*
X03107Y-0011*
X03107Y-0011*
X03106Y-0011*
X03106Y-0011*
X03106Y-00111*
X03106Y-00111*
X03106Y-00111*
X03106Y-00112*
X03106Y-00112*
X03106Y-00112*
X03106Y-00113*
X03106Y-00113*
X03106Y-00114*
X03106Y-00114*
X03106Y-00114*
X03106Y-00114*
X03106Y-00115*
X03107Y-00115*
X03107Y-00115*
X03107Y-00116*
X03107Y-00116*
X03107Y-00116*
X03108Y-00116*
X03108Y-00117*
X03108Y-00117*
X03109Y-00117*
X03109Y-00117*
X03109Y-00117*
X03109Y-00117*
X0311Y-00117*
X0311Y-00117*
X03111Y-00117*
X03111*
X03111Y-00117*
X03112Y-00117*
X03112Y-00117*
X03112Y-00117*
X03113Y-00117*
X03113Y-00117*
X03113Y-00117*
X03113Y-00117*
X03114Y-00116*
X03114Y-00116*
X03114Y-00116*
X03114Y-00116*
X03115Y-00115*
X03115Y-00115*
X03115Y-00115*
X03115Y-00114*
X03115Y-00114*
X03115Y-00114*
X03115Y-00114*
X03116Y-00113*
X03116Y-00113*
X03116Y-00112*
Y-00252D02*
D01*
X03116Y-00252*
X03116Y-00252*
X03115Y-00251*
X03115Y-00251*
X03115Y-00251*
X03115Y-0025*
X03115Y-0025*
X03115Y-0025*
X03115Y-0025*
X03114Y-00249*
X03114Y-00249*
X03114Y-00249*
X03114Y-00249*
X03113Y-00248*
X03113Y-00248*
X03113Y-00248*
X03113Y-00248*
X03112Y-00248*
X03112Y-00248*
X03112Y-00248*
X03111Y-00248*
X03111Y-00248*
X03111*
X0311Y-00248*
X0311Y-00248*
X03109Y-00248*
X03109Y-00248*
X03109Y-00248*
X03109Y-00248*
X03108Y-00248*
X03108Y-00248*
X03108Y-00249*
X03107Y-00249*
X03107Y-00249*
X03107Y-00249*
X03107Y-0025*
X03107Y-0025*
X03106Y-0025*
X03106Y-0025*
X03106Y-00251*
X03106Y-00251*
X03106Y-00251*
X03106Y-00252*
X03106Y-00252*
X03106Y-00252*
X03106Y-00253*
X03106Y-00253*
X03106Y-00254*
X03106Y-00254*
X03106Y-00254*
X03106Y-00254*
X03106Y-00255*
X03107Y-00255*
X03107Y-00255*
X03107Y-00256*
X03107Y-00256*
X03107Y-00256*
X03108Y-00256*
X03108Y-00257*
X03108Y-00257*
X03109Y-00257*
X03109Y-00257*
X03109Y-00257*
X03109Y-00257*
X0311Y-00257*
X0311Y-00257*
X03111Y-00257*
X03111*
X03111Y-00257*
X03112Y-00257*
X03112Y-00257*
X03112Y-00257*
X03113Y-00257*
X03113Y-00257*
X03113Y-00257*
X03113Y-00257*
X03114Y-00256*
X03114Y-00256*
X03114Y-00256*
X03114Y-00256*
X03115Y-00255*
X03115Y-00255*
X03115Y-00255*
X03115Y-00254*
X03115Y-00254*
X03115Y-00254*
X03115Y-00254*
X03116Y-00253*
X03116Y-00253*
X03116Y-00252*
Y00027D02*
D01*
X03116Y00027*
X03116Y00027*
X03115Y00028*
X03115Y00028*
X03115Y00028*
X03115Y00029*
X03115Y00029*
X03115Y00029*
X03115Y00029*
X03114Y0003*
X03114Y0003*
X03114Y0003*
X03114Y0003*
X03113Y00031*
X03113Y00031*
X03113Y00031*
X03113Y00031*
X03112Y00031*
X03112Y00031*
X03112Y00031*
X03111Y00031*
X03111Y00031*
X03111*
X0311Y00031*
X0311Y00031*
X03109Y00031*
X03109Y00031*
X03109Y00031*
X03109Y00031*
X03108Y00031*
X03108Y00031*
X03108Y0003*
X03107Y0003*
X03107Y0003*
X03107Y0003*
X03107Y00029*
X03107Y00029*
X03106Y00029*
X03106Y00029*
X03106Y00028*
X03106Y00028*
X03106Y00028*
X03106Y00027*
X03106Y00027*
X03106Y00027*
X03106Y00026*
X03106Y00026*
X03106Y00025*
X03106Y00025*
X03106Y00025*
X03106Y00025*
X03106Y00024*
X03107Y00024*
X03107Y00024*
X03107Y00023*
X03107Y00023*
X03107Y00023*
X03108Y00023*
X03108Y00022*
X03108Y00022*
X03109Y00022*
X03109Y00022*
X03109Y00022*
X03109Y00022*
X0311Y00022*
X0311Y00022*
X03111Y00022*
X03111*
X03111Y00022*
X03112Y00022*
X03112Y00022*
X03112Y00022*
X03113Y00022*
X03113Y00022*
X03113Y00022*
X03113Y00022*
X03114Y00023*
X03114Y00023*
X03114Y00023*
X03114Y00023*
X03115Y00024*
X03115Y00024*
X03115Y00024*
X03115Y00025*
X03115Y00025*
X03115Y00025*
X03115Y00025*
X03116Y00026*
X03116Y00026*
X03116Y00027*
X0162Y-00112D02*
D01*
X0162Y-00112*
X01619Y-00112*
X01619Y-00111*
X01619Y-00111*
X01619Y-00111*
X01619Y-0011*
X01619Y-0011*
X01619Y-0011*
X01619Y-0011*
X01618Y-00109*
X01618Y-00109*
X01618Y-00109*
X01618Y-00109*
X01617Y-00108*
X01617Y-00108*
X01617Y-00108*
X01616Y-00108*
X01616Y-00108*
X01616Y-00108*
X01615Y-00108*
X01615Y-00108*
X01615Y-00108*
X01614*
X01614Y-00108*
X01614Y-00108*
X01613Y-00108*
X01613Y-00108*
X01613Y-00108*
X01612Y-00108*
X01612Y-00108*
X01612Y-00108*
X01612Y-00109*
X01611Y-00109*
X01611Y-00109*
X01611Y-00109*
X01611Y-0011*
X0161Y-0011*
X0161Y-0011*
X0161Y-0011*
X0161Y-00111*
X0161Y-00111*
X0161Y-00111*
X0161Y-00112*
X0161Y-00112*
X0161Y-00112*
X0161Y-00113*
X0161Y-00113*
X0161Y-00114*
X0161Y-00114*
X0161Y-00114*
X0161Y-00114*
X0161Y-00115*
X0161Y-00115*
X01611Y-00115*
X01611Y-00116*
X01611Y-00116*
X01611Y-00116*
X01612Y-00116*
X01612Y-00117*
X01612Y-00117*
X01612Y-00117*
X01613Y-00117*
X01613Y-00117*
X01613Y-00117*
X01614Y-00117*
X01614Y-00117*
X01614Y-00117*
X01615*
X01615Y-00117*
X01615Y-00117*
X01616Y-00117*
X01616Y-00117*
X01616Y-00117*
X01617Y-00117*
X01617Y-00117*
X01617Y-00117*
X01618Y-00116*
X01618Y-00116*
X01618Y-00116*
X01618Y-00116*
X01619Y-00115*
X01619Y-00115*
X01619Y-00115*
X01619Y-00114*
X01619Y-00114*
X01619Y-00114*
X01619Y-00114*
X01619Y-00113*
X0162Y-00113*
X0162Y-00112*
Y00027D02*
D01*
X0162Y00027*
X01619Y00027*
X01619Y00028*
X01619Y00028*
X01619Y00028*
X01619Y00029*
X01619Y00029*
X01619Y00029*
X01619Y00029*
X01618Y0003*
X01618Y0003*
X01618Y0003*
X01618Y0003*
X01617Y00031*
X01617Y00031*
X01617Y00031*
X01616Y00031*
X01616Y00031*
X01616Y00031*
X01615Y00031*
X01615Y00031*
X01615Y00031*
X01614*
X01614Y00031*
X01614Y00031*
X01613Y00031*
X01613Y00031*
X01613Y00031*
X01612Y00031*
X01612Y00031*
X01612Y00031*
X01612Y0003*
X01611Y0003*
X01611Y0003*
X01611Y0003*
X01611Y00029*
X0161Y00029*
X0161Y00029*
X0161Y00029*
X0161Y00028*
X0161Y00028*
X0161Y00028*
X0161Y00027*
X0161Y00027*
X0161Y00027*
X0161Y00026*
X0161Y00026*
X0161Y00025*
X0161Y00025*
X0161Y00025*
X0161Y00025*
X0161Y00024*
X0161Y00024*
X01611Y00024*
X01611Y00023*
X01611Y00023*
X01611Y00023*
X01612Y00023*
X01612Y00022*
X01612Y00022*
X01612Y00022*
X01613Y00022*
X01613Y00022*
X01613Y00022*
X01614Y00022*
X01614Y00022*
X01614Y00022*
X01615*
X01615Y00022*
X01615Y00022*
X01616Y00022*
X01616Y00022*
X01616Y00022*
X01617Y00022*
X01617Y00022*
X01617Y00022*
X01618Y00023*
X01618Y00023*
X01618Y00023*
X01618Y00023*
X01619Y00024*
X01619Y00024*
X01619Y00024*
X01619Y00025*
X01619Y00025*
X01619Y00025*
X01619Y00025*
X01619Y00026*
X0162Y00026*
X0162Y00027*
Y-00252D02*
D01*
X0162Y-00252*
X01619Y-00252*
X01619Y-00251*
X01619Y-00251*
X01619Y-00251*
X01619Y-0025*
X01619Y-0025*
X01619Y-0025*
X01619Y-0025*
X01618Y-00249*
X01618Y-00249*
X01618Y-00249*
X01618Y-00249*
X01617Y-00248*
X01617Y-00248*
X01617Y-00248*
X01616Y-00248*
X01616Y-00248*
X01616Y-00248*
X01615Y-00248*
X01615Y-00248*
X01615Y-00248*
X01614*
X01614Y-00248*
X01614Y-00248*
X01613Y-00248*
X01613Y-00248*
X01613Y-00248*
X01612Y-00248*
X01612Y-00248*
X01612Y-00248*
X01612Y-00249*
X01611Y-00249*
X01611Y-00249*
X01611Y-00249*
X01611Y-0025*
X0161Y-0025*
X0161Y-0025*
X0161Y-0025*
X0161Y-00251*
X0161Y-00251*
X0161Y-00251*
X0161Y-00252*
X0161Y-00252*
X0161Y-00252*
X0161Y-00253*
X0161Y-00253*
X0161Y-00254*
X0161Y-00254*
X0161Y-00254*
X0161Y-00254*
X0161Y-00255*
X0161Y-00255*
X01611Y-00255*
X01611Y-00256*
X01611Y-00256*
X01611Y-00256*
X01612Y-00256*
X01612Y-00257*
X01612Y-00257*
X01612Y-00257*
X01613Y-00257*
X01613Y-00257*
X01613Y-00257*
X01614Y-00257*
X01614Y-00257*
X01614Y-00257*
X01615*
X01615Y-00257*
X01615Y-00257*
X01616Y-00257*
X01616Y-00257*
X01616Y-00257*
X01617Y-00257*
X01617Y-00257*
X01617Y-00257*
X01618Y-00256*
X01618Y-00256*
X01618Y-00256*
X01618Y-00256*
X01619Y-00255*
X01619Y-00255*
X01619Y-00255*
X01619Y-00254*
X01619Y-00254*
X01619Y-00254*
X01619Y-00254*
X01619Y-00253*
X0162Y-00253*
X0162Y-00252*
X00123Y-00112D02*
D01*
X00123Y-00112*
X00123Y-00112*
X00123Y-00111*
X00123Y-00111*
X00123Y-00111*
X00123Y-0011*
X00123Y-0011*
X00123Y-0011*
X00123Y-0011*
X00122Y-00109*
X00122Y-00109*
X00122Y-00109*
X00122Y-00109*
X00121Y-00108*
X00121Y-00108*
X00121Y-00108*
X0012Y-00108*
X0012Y-00108*
X0012Y-00108*
X00119Y-00108*
X00119Y-00108*
X00119Y-00108*
X00118*
X00118Y-00108*
X00118Y-00108*
X00117Y-00108*
X00117Y-00108*
X00117Y-00108*
X00116Y-00108*
X00116Y-00108*
X00116Y-00108*
X00116Y-00109*
X00115Y-00109*
X00115Y-00109*
X00115Y-00109*
X00115Y-0011*
X00114Y-0011*
X00114Y-0011*
X00114Y-0011*
X00114Y-00111*
X00114Y-00111*
X00114Y-00111*
X00114Y-00112*
X00114Y-00112*
X00114Y-00112*
X00114Y-00113*
X00114Y-00113*
X00114Y-00114*
X00114Y-00114*
X00114Y-00114*
X00114Y-00114*
X00114Y-00115*
X00114Y-00115*
X00115Y-00115*
X00115Y-00116*
X00115Y-00116*
X00115Y-00116*
X00116Y-00116*
X00116Y-00117*
X00116Y-00117*
X00116Y-00117*
X00117Y-00117*
X00117Y-00117*
X00117Y-00117*
X00118Y-00117*
X00118Y-00117*
X00118Y-00117*
X00119*
X00119Y-00117*
X00119Y-00117*
X0012Y-00117*
X0012Y-00117*
X0012Y-00117*
X00121Y-00117*
X00121Y-00117*
X00121Y-00117*
X00122Y-00116*
X00122Y-00116*
X00122Y-00116*
X00122Y-00116*
X00123Y-00115*
X00123Y-00115*
X00123Y-00115*
X00123Y-00114*
X00123Y-00114*
X00123Y-00114*
X00123Y-00114*
X00123Y-00113*
X00123Y-00113*
X00123Y-00112*
Y-00252D02*
D01*
X00123Y-00252*
X00123Y-00252*
X00123Y-00251*
X00123Y-00251*
X00123Y-00251*
X00123Y-0025*
X00123Y-0025*
X00123Y-0025*
X00123Y-0025*
X00122Y-00249*
X00122Y-00249*
X00122Y-00249*
X00122Y-00249*
X00121Y-00248*
X00121Y-00248*
X00121Y-00248*
X0012Y-00248*
X0012Y-00248*
X0012Y-00248*
X00119Y-00248*
X00119Y-00248*
X00119Y-00248*
X00118*
X00118Y-00248*
X00118Y-00248*
X00117Y-00248*
X00117Y-00248*
X00117Y-00248*
X00116Y-00248*
X00116Y-00248*
X00116Y-00248*
X00116Y-00249*
X00115Y-00249*
X00115Y-00249*
X00115Y-00249*
X00115Y-0025*
X00114Y-0025*
X00114Y-0025*
X00114Y-0025*
X00114Y-00251*
X00114Y-00251*
X00114Y-00251*
X00114Y-00252*
X00114Y-00252*
X00114Y-00252*
X00114Y-00253*
X00114Y-00253*
X00114Y-00254*
X00114Y-00254*
X00114Y-00254*
X00114Y-00254*
X00114Y-00255*
X00114Y-00255*
X00115Y-00255*
X00115Y-00256*
X00115Y-00256*
X00115Y-00256*
X00116Y-00256*
X00116Y-00257*
X00116Y-00257*
X00116Y-00257*
X00117Y-00257*
X00117Y-00257*
X00117Y-00257*
X00118Y-00257*
X00118Y-00257*
X00118Y-00257*
X00119*
X00119Y-00257*
X00119Y-00257*
X0012Y-00257*
X0012Y-00257*
X0012Y-00257*
X00121Y-00257*
X00121Y-00257*
X00121Y-00257*
X00122Y-00256*
X00122Y-00256*
X00122Y-00256*
X00122Y-00256*
X00123Y-00255*
X00123Y-00255*
X00123Y-00255*
X00123Y-00254*
X00123Y-00254*
X00123Y-00254*
X00123Y-00254*
X00123Y-00253*
X00123Y-00253*
X00123Y-00252*
Y00027D02*
D01*
X00123Y00027*
X00123Y00027*
X00123Y00028*
X00123Y00028*
X00123Y00028*
X00123Y00029*
X00123Y00029*
X00123Y00029*
X00123Y00029*
X00122Y0003*
X00122Y0003*
X00122Y0003*
X00122Y0003*
X00121Y00031*
X00121Y00031*
X00121Y00031*
X0012Y00031*
X0012Y00031*
X0012Y00031*
X00119Y00031*
X00119Y00031*
X00119Y00031*
X00118*
X00118Y00031*
X00118Y00031*
X00117Y00031*
X00117Y00031*
X00117Y00031*
X00116Y00031*
X00116Y00031*
X00116Y00031*
X00116Y0003*
X00115Y0003*
X00115Y0003*
X00115Y0003*
X00115Y00029*
X00114Y00029*
X00114Y00029*
X00114Y00029*
X00114Y00028*
X00114Y00028*
X00114Y00028*
X00114Y00027*
X00114Y00027*
X00114Y00027*
X00114Y00026*
X00114Y00026*
X00114Y00025*
X00114Y00025*
X00114Y00025*
X00114Y00025*
X00114Y00024*
X00114Y00024*
X00115Y00024*
X00115Y00023*
X00115Y00023*
X00115Y00023*
X00116Y00023*
X00116Y00022*
X00116Y00022*
X00116Y00022*
X00117Y00022*
X00117Y00022*
X00117Y00022*
X00118Y00022*
X00118Y00022*
X00118Y00022*
X00119*
X00119Y00022*
X00119Y00022*
X0012Y00022*
X0012Y00022*
X0012Y00022*
X00121Y00022*
X00121Y00022*
X00121Y00022*
X00122Y00023*
X00122Y00023*
X00122Y00023*
X00122Y00023*
X00123Y00024*
X00123Y00024*
X00123Y00024*
X00123Y00025*
X00123Y00025*
X00123Y00025*
X00123Y00025*
X00123Y00026*
X00123Y00026*
X00123Y00027*
X02958Y03019D02*
D01*
X02958Y03019*
X02958Y03019*
X02958Y0302*
X02958Y0302*
X02958Y0302*
X02958Y03021*
X02958Y03021*
X02957Y03021*
X02957Y03022*
X02957Y03022*
X02957Y03022*
X02956Y03022*
X02956Y03023*
X02956Y03023*
X02956Y03023*
X02955Y03023*
X02955Y03023*
X02955Y03023*
X02954Y03023*
X02954Y03023*
X02954Y03024*
X02953Y03024*
X02953*
X02953Y03024*
X02952Y03023*
X02952Y03023*
X02952Y03023*
X02951Y03023*
X02951Y03023*
X02951Y03023*
X0295Y03023*
X0295Y03023*
X0295Y03022*
X0295Y03022*
X02949Y03022*
X02949Y03022*
X02949Y03021*
X02949Y03021*
X02949Y03021*
X02949Y0302*
X02948Y0302*
X02948Y0302*
X02948Y03019*
X02948Y03019*
X02948Y03019*
X02948Y03018*
X02948Y03018*
X02948Y03018*
X02948Y03017*
X02949Y03017*
X02949Y03017*
X02949Y03016*
X02949Y03016*
X02949Y03016*
X02949Y03015*
X0295Y03015*
X0295Y03015*
X0295Y03015*
X0295Y03015*
X02951Y03014*
X02951Y03014*
X02951Y03014*
X02952Y03014*
X02952Y03014*
X02952Y03014*
X02953Y03014*
X02953Y03014*
X02953*
X02954Y03014*
X02954Y03014*
X02954Y03014*
X02955Y03014*
X02955Y03014*
X02955Y03014*
X02956Y03014*
X02956Y03015*
X02956Y03015*
X02956Y03015*
X02957Y03015*
X02957Y03015*
X02957Y03016*
X02957Y03016*
X02958Y03016*
X02958Y03017*
X02958Y03017*
X02958Y03017*
X02958Y03018*
X02958Y03018*
X02958Y03018*
X02958Y03019*
Y02879D02*
D01*
X02958Y02879*
X02958Y02879*
X02958Y0288*
X02958Y0288*
X02958Y0288*
X02958Y02881*
X02958Y02881*
X02957Y02881*
X02957Y02882*
X02957Y02882*
X02957Y02882*
X02956Y02882*
X02956Y02883*
X02956Y02883*
X02956Y02883*
X02955Y02883*
X02955Y02883*
X02955Y02883*
X02954Y02883*
X02954Y02883*
X02954Y02884*
X02953Y02884*
X02953*
X02953Y02884*
X02952Y02883*
X02952Y02883*
X02952Y02883*
X02951Y02883*
X02951Y02883*
X02951Y02883*
X0295Y02883*
X0295Y02883*
X0295Y02882*
X0295Y02882*
X02949Y02882*
X02949Y02882*
X02949Y02881*
X02949Y02881*
X02949Y02881*
X02949Y0288*
X02948Y0288*
X02948Y0288*
X02948Y02879*
X02948Y02879*
X02948Y02879*
X02948Y02878*
X02948Y02878*
X02948Y02878*
X02948Y02877*
X02949Y02877*
X02949Y02877*
X02949Y02876*
X02949Y02876*
X02949Y02876*
X02949Y02875*
X0295Y02875*
X0295Y02875*
X0295Y02875*
X0295Y02875*
X02951Y02874*
X02951Y02874*
X02951Y02874*
X02952Y02874*
X02952Y02874*
X02952Y02874*
X02953Y02874*
X02953Y02874*
X02953*
X02954Y02874*
X02954Y02874*
X02954Y02874*
X02955Y02874*
X02955Y02874*
X02955Y02874*
X02956Y02874*
X02956Y02875*
X02956Y02875*
X02956Y02875*
X02957Y02875*
X02957Y02875*
X02957Y02876*
X02957Y02876*
X02958Y02876*
X02958Y02877*
X02958Y02877*
X02958Y02877*
X02958Y02878*
X02958Y02878*
X02958Y02878*
X02958Y02879*
Y02739D02*
D01*
X02958Y02739*
X02958Y02739*
X02958Y0274*
X02958Y0274*
X02958Y0274*
X02958Y02741*
X02958Y02741*
X02957Y02741*
X02957Y02742*
X02957Y02742*
X02957Y02742*
X02956Y02742*
X02956Y02743*
X02956Y02743*
X02956Y02743*
X02955Y02743*
X02955Y02743*
X02955Y02743*
X02954Y02743*
X02954Y02743*
X02954Y02744*
X02953Y02744*
X02953*
X02953Y02744*
X02952Y02743*
X02952Y02743*
X02952Y02743*
X02951Y02743*
X02951Y02743*
X02951Y02743*
X0295Y02743*
X0295Y02743*
X0295Y02742*
X0295Y02742*
X02949Y02742*
X02949Y02742*
X02949Y02741*
X02949Y02741*
X02949Y02741*
X02949Y0274*
X02948Y0274*
X02948Y0274*
X02948Y02739*
X02948Y02739*
X02948Y02739*
X02948Y02738*
X02948Y02738*
X02948Y02738*
X02948Y02737*
X02949Y02737*
X02949Y02737*
X02949Y02736*
X02949Y02736*
X02949Y02736*
X02949Y02735*
X0295Y02735*
X0295Y02735*
X0295Y02735*
X0295Y02735*
X02951Y02734*
X02951Y02734*
X02951Y02734*
X02952Y02734*
X02952Y02734*
X02952Y02734*
X02953Y02734*
X02953Y02734*
X02953*
X02954Y02734*
X02954Y02734*
X02954Y02734*
X02955Y02734*
X02955Y02734*
X02955Y02734*
X02956Y02734*
X02956Y02735*
X02956Y02735*
X02956Y02735*
X02957Y02735*
X02957Y02735*
X02957Y02736*
X02957Y02736*
X02958Y02736*
X02958Y02737*
X02958Y02737*
X02958Y02737*
X02958Y02738*
X02958Y02738*
X02958Y02738*
X02958Y02739*
X02368D02*
D01*
X02368Y02739*
X02368Y02739*
X02367Y0274*
X02367Y0274*
X02367Y0274*
X02367Y02741*
X02367Y02741*
X02367Y02741*
X02367Y02742*
X02366Y02742*
X02366Y02742*
X02366Y02742*
X02366Y02743*
X02365Y02743*
X02365Y02743*
X02365Y02743*
X02364Y02743*
X02364Y02743*
X02364Y02743*
X02364Y02743*
X02363Y02744*
X02363Y02744*
X02362*
X02362Y02744*
X02362Y02743*
X02361Y02743*
X02361Y02743*
X02361Y02743*
X0236Y02743*
X0236Y02743*
X0236Y02743*
X0236Y02743*
X02359Y02742*
X02359Y02742*
X02359Y02742*
X02359Y02742*
X02358Y02741*
X02358Y02741*
X02358Y02741*
X02358Y0274*
X02358Y0274*
X02358Y0274*
X02358Y02739*
X02358Y02739*
X02358Y02739*
X02358Y02738*
X02358Y02738*
X02358Y02738*
X02358Y02737*
X02358Y02737*
X02358Y02737*
X02358Y02736*
X02358Y02736*
X02359Y02736*
X02359Y02735*
X02359Y02735*
X02359Y02735*
X0236Y02735*
X0236Y02735*
X0236Y02734*
X0236Y02734*
X02361Y02734*
X02361Y02734*
X02361Y02734*
X02362Y02734*
X02362Y02734*
X02362Y02734*
X02363*
X02363Y02734*
X02364Y02734*
X02364Y02734*
X02364Y02734*
X02364Y02734*
X02365Y02734*
X02365Y02734*
X02365Y02735*
X02366Y02735*
X02366Y02735*
X02366Y02735*
X02366Y02735*
X02367Y02736*
X02367Y02736*
X02367Y02736*
X02367Y02737*
X02367Y02737*
X02367Y02737*
X02367Y02738*
X02368Y02738*
X02368Y02738*
X02368Y02739*
Y03019D02*
D01*
X02368Y03019*
X02368Y03019*
X02367Y0302*
X02367Y0302*
X02367Y0302*
X02367Y03021*
X02367Y03021*
X02367Y03021*
X02367Y03022*
X02366Y03022*
X02366Y03022*
X02366Y03022*
X02366Y03023*
X02365Y03023*
X02365Y03023*
X02365Y03023*
X02364Y03023*
X02364Y03023*
X02364Y03023*
X02364Y03023*
X02363Y03024*
X02363Y03024*
X02362*
X02362Y03024*
X02362Y03023*
X02361Y03023*
X02361Y03023*
X02361Y03023*
X0236Y03023*
X0236Y03023*
X0236Y03023*
X0236Y03023*
X02359Y03022*
X02359Y03022*
X02359Y03022*
X02359Y03022*
X02358Y03021*
X02358Y03021*
X02358Y03021*
X02358Y0302*
X02358Y0302*
X02358Y0302*
X02358Y03019*
X02358Y03019*
X02358Y03019*
X02358Y03018*
X02358Y03018*
X02358Y03018*
X02358Y03017*
X02358Y03017*
X02358Y03017*
X02358Y03016*
X02358Y03016*
X02359Y03016*
X02359Y03015*
X02359Y03015*
X02359Y03015*
X0236Y03015*
X0236Y03015*
X0236Y03014*
X0236Y03014*
X02361Y03014*
X02361Y03014*
X02361Y03014*
X02362Y03014*
X02362Y03014*
X02362Y03014*
X02363*
X02363Y03014*
X02364Y03014*
X02364Y03014*
X02364Y03014*
X02364Y03014*
X02365Y03014*
X02365Y03014*
X02365Y03015*
X02366Y03015*
X02366Y03015*
X02366Y03015*
X02366Y03015*
X02367Y03016*
X02367Y03016*
X02367Y03016*
X02367Y03017*
X02367Y03017*
X02367Y03017*
X02367Y03018*
X02368Y03018*
X02368Y03018*
X02368Y03019*
Y02879D02*
D01*
X02368Y02879*
X02368Y02879*
X02367Y0288*
X02367Y0288*
X02367Y0288*
X02367Y02881*
X02367Y02881*
X02367Y02881*
X02367Y02882*
X02366Y02882*
X02366Y02882*
X02366Y02882*
X02366Y02883*
X02365Y02883*
X02365Y02883*
X02365Y02883*
X02364Y02883*
X02364Y02883*
X02364Y02883*
X02364Y02883*
X02363Y02884*
X02363Y02884*
X02362*
X02362Y02884*
X02362Y02883*
X02361Y02883*
X02361Y02883*
X02361Y02883*
X0236Y02883*
X0236Y02883*
X0236Y02883*
X0236Y02883*
X02359Y02882*
X02359Y02882*
X02359Y02882*
X02359Y02882*
X02358Y02881*
X02358Y02881*
X02358Y02881*
X02358Y0288*
X02358Y0288*
X02358Y0288*
X02358Y02879*
X02358Y02879*
X02358Y02879*
X02358Y02878*
X02358Y02878*
X02358Y02878*
X02358Y02877*
X02358Y02877*
X02358Y02877*
X02358Y02876*
X02358Y02876*
X02359Y02876*
X02359Y02875*
X02359Y02875*
X02359Y02875*
X0236Y02875*
X0236Y02875*
X0236Y02874*
X0236Y02874*
X02361Y02874*
X02361Y02874*
X02361Y02874*
X02362Y02874*
X02362Y02874*
X02362Y02874*
X02363*
X02363Y02874*
X02364Y02874*
X02364Y02874*
X02364Y02874*
X02364Y02874*
X02365Y02874*
X02365Y02874*
X02365Y02875*
X02366Y02875*
X02366Y02875*
X02366Y02875*
X02366Y02875*
X02367Y02876*
X02367Y02876*
X02367Y02876*
X02367Y02877*
X02367Y02877*
X02367Y02877*
X02367Y02878*
X02368Y02878*
X02368Y02878*
X02368Y02879*
X01777Y03019D02*
D01*
X01777Y03019*
X01777Y03019*
X01777Y0302*
X01777Y0302*
X01777Y0302*
X01777Y03021*
X01776Y03021*
X01776Y03021*
X01776Y03022*
X01776Y03022*
X01776Y03022*
X01775Y03022*
X01775Y03023*
X01775Y03023*
X01775Y03023*
X01774Y03023*
X01774Y03023*
X01774Y03023*
X01773Y03023*
X01773Y03023*
X01773Y03024*
X01772Y03024*
X01772*
X01772Y03024*
X01771Y03023*
X01771Y03023*
X01771Y03023*
X0177Y03023*
X0177Y03023*
X0177Y03023*
X01769Y03023*
X01769Y03023*
X01769Y03022*
X01769Y03022*
X01768Y03022*
X01768Y03022*
X01768Y03021*
X01768Y03021*
X01768Y03021*
X01767Y0302*
X01767Y0302*
X01767Y0302*
X01767Y03019*
X01767Y03019*
X01767Y03019*
X01767Y03018*
X01767Y03018*
X01767Y03018*
X01767Y03017*
X01767Y03017*
X01768Y03017*
X01768Y03016*
X01768Y03016*
X01768Y03016*
X01768Y03015*
X01769Y03015*
X01769Y03015*
X01769Y03015*
X01769Y03015*
X0177Y03014*
X0177Y03014*
X0177Y03014*
X01771Y03014*
X01771Y03014*
X01771Y03014*
X01772Y03014*
X01772Y03014*
X01772*
X01773Y03014*
X01773Y03014*
X01773Y03014*
X01774Y03014*
X01774Y03014*
X01774Y03014*
X01775Y03014*
X01775Y03015*
X01775Y03015*
X01775Y03015*
X01776Y03015*
X01776Y03015*
X01776Y03016*
X01776Y03016*
X01776Y03016*
X01777Y03017*
X01777Y03017*
X01777Y03017*
X01777Y03018*
X01777Y03018*
X01777Y03018*
X01777Y03019*
Y02879D02*
D01*
X01777Y02879*
X01777Y02879*
X01777Y0288*
X01777Y0288*
X01777Y0288*
X01777Y02881*
X01776Y02881*
X01776Y02881*
X01776Y02882*
X01776Y02882*
X01776Y02882*
X01775Y02882*
X01775Y02883*
X01775Y02883*
X01775Y02883*
X01774Y02883*
X01774Y02883*
X01774Y02883*
X01773Y02883*
X01773Y02883*
X01773Y02884*
X01772Y02884*
X01772*
X01772Y02884*
X01771Y02883*
X01771Y02883*
X01771Y02883*
X0177Y02883*
X0177Y02883*
X0177Y02883*
X01769Y02883*
X01769Y02883*
X01769Y02882*
X01769Y02882*
X01768Y02882*
X01768Y02882*
X01768Y02881*
X01768Y02881*
X01768Y02881*
X01767Y0288*
X01767Y0288*
X01767Y0288*
X01767Y02879*
X01767Y02879*
X01767Y02879*
X01767Y02878*
X01767Y02878*
X01767Y02878*
X01767Y02877*
X01767Y02877*
X01768Y02877*
X01768Y02876*
X01768Y02876*
X01768Y02876*
X01768Y02875*
X01769Y02875*
X01769Y02875*
X01769Y02875*
X01769Y02875*
X0177Y02874*
X0177Y02874*
X0177Y02874*
X01771Y02874*
X01771Y02874*
X01771Y02874*
X01772Y02874*
X01772Y02874*
X01772*
X01773Y02874*
X01773Y02874*
X01773Y02874*
X01774Y02874*
X01774Y02874*
X01774Y02874*
X01775Y02874*
X01775Y02875*
X01775Y02875*
X01775Y02875*
X01776Y02875*
X01776Y02875*
X01776Y02876*
X01776Y02876*
X01776Y02876*
X01777Y02877*
X01777Y02877*
X01777Y02877*
X01777Y02878*
X01777Y02878*
X01777Y02878*
X01777Y02879*
Y02739D02*
D01*
X01777Y02739*
X01777Y02739*
X01777Y0274*
X01777Y0274*
X01777Y0274*
X01777Y02741*
X01776Y02741*
X01776Y02741*
X01776Y02742*
X01776Y02742*
X01776Y02742*
X01775Y02742*
X01775Y02743*
X01775Y02743*
X01775Y02743*
X01774Y02743*
X01774Y02743*
X01774Y02743*
X01773Y02743*
X01773Y02743*
X01773Y02744*
X01772Y02744*
X01772*
X01772Y02744*
X01771Y02743*
X01771Y02743*
X01771Y02743*
X0177Y02743*
X0177Y02743*
X0177Y02743*
X01769Y02743*
X01769Y02743*
X01769Y02742*
X01769Y02742*
X01768Y02742*
X01768Y02742*
X01768Y02741*
X01768Y02741*
X01768Y02741*
X01767Y0274*
X01767Y0274*
X01767Y0274*
X01767Y02739*
X01767Y02739*
X01767Y02739*
X01767Y02738*
X01767Y02738*
X01767Y02738*
X01767Y02737*
X01767Y02737*
X01768Y02737*
X01768Y02736*
X01768Y02736*
X01768Y02736*
X01768Y02735*
X01769Y02735*
X01769Y02735*
X01769Y02735*
X01769Y02735*
X0177Y02734*
X0177Y02734*
X0177Y02734*
X01771Y02734*
X01771Y02734*
X01771Y02734*
X01772Y02734*
X01772Y02734*
X01772*
X01773Y02734*
X01773Y02734*
X01773Y02734*
X01774Y02734*
X01774Y02734*
X01774Y02734*
X01775Y02734*
X01775Y02735*
X01775Y02735*
X01775Y02735*
X01776Y02735*
X01776Y02735*
X01776Y02736*
X01776Y02736*
X01776Y02736*
X01777Y02737*
X01777Y02737*
X01777Y02737*
X01777Y02738*
X01777Y02738*
X01777Y02738*
X01777Y02739*
G54D12*
X02196Y03814D02*
X02218Y03836D01*
X01827Y0447D02*
X02585Y05227D01*
Y03712D02*
X03342Y0447D01*
X02585Y05227D02*
X03342Y0447D01*
X01827D02*
X02585Y03712D01*
X0087Y03818D02*
Y0394D01*
X0091Y03818D02*
Y0394D01*
X0087Y03818D02*
X0091D01*
X0087Y0394D02*
X0091D01*
X05327Y02533D02*
Y02651D01*
X05217Y02533D02*
Y02651D01*
X05307Y02533D02*
X05327D01*
X05307Y02651D02*
X05327D01*
X05217Y02533D02*
X05236D01*
X05217Y02651D02*
X05236D01*
X04907Y02533D02*
Y02564D01*
Y02533D02*
X04927D01*
X04907Y0262D02*
Y02651D01*
X04927*
X05135Y02642D02*
X05143D01*
X05061D02*
X05069D01*
X05135Y02547D02*
X05143D01*
X05061D02*
X05069D01*
X04472Y00099D02*
X04487D01*
X04472Y0013D02*
X04487D01*
X0302Y02649D02*
X03036D01*
X0302Y0268D02*
X03036D01*
X01332Y00224D02*
X01347D01*
X01332Y00255D02*
X01347D01*
X04327Y00099D02*
X04342D01*
X04327Y0013D02*
X04342D01*
X02832Y00224D02*
X02847D01*
X02832Y00255D02*
X02847D01*
X024Y02649D02*
X02416D01*
X024Y0268D02*
X02416D01*
X01562Y02798D02*
X01577D01*
X01562Y02829D02*
X01577D01*
X-00162Y00224D02*
X-00147D01*
X-00162Y00255D02*
X-00147D01*
X02883Y0268D02*
X02899D01*
X02883Y02649D02*
X02899D01*
X0152Y-0012D02*
Y-00104D01*
X01489Y-0012D02*
Y-00104D01*
X01482Y00255D02*
X01497D01*
X01482Y00224D02*
X01497D01*
X02886Y03012D02*
Y03027D01*
X02854Y03012D02*
Y03027D01*
X04367Y00189D02*
X04382D01*
X04367Y0022D02*
X04382D01*
X0302Y-0012D02*
Y-00104D01*
X02989Y-0012D02*
Y-00104D01*
X02542Y0268D02*
X02557D01*
X02542Y02649D02*
X02557D01*
X01562Y02971D02*
X01577D01*
X01562Y03003D02*
X01577D01*
X02979Y00255D02*
X02995D01*
X02979Y00224D02*
X02995D01*
X02292Y0262D02*
X02308D01*
X02292Y02589D02*
X02308D01*
X01562Y03094D02*
X01577D01*
X01562Y03125D02*
X01577D01*
X00032Y-0012D02*
Y-00104D01*
X0Y-0012D02*
Y-00104D01*
X-00012Y00255D02*
X00002D01*
X-00012Y00224D02*
X00002D01*
X02954Y03609D02*
X0297D01*
X02954Y0364D02*
X0297D01*
X03023Y03712D02*
X03054D01*
Y03732*
X02936Y03712D02*
X02968D01*
X02936D02*
Y03732D01*
X-00079Y03002D02*
Y03017D01*
X-0011Y03002D02*
Y03017D01*
X-00019Y03002D02*
Y03017D01*
X-0005Y03002D02*
Y03017D01*
X0004Y03002D02*
Y03017D01*
X00009Y03002D02*
Y03017D01*
X001Y03002D02*
Y03017D01*
X00069Y03002D02*
Y03017D01*
X02667Y024D02*
X02682D01*
X02667Y02369D02*
X02682D01*
X02562Y01754D02*
X02577D01*
X02562Y01785D02*
X02577D01*
X02697Y0221D02*
X02712D01*
X02697Y02179D02*
X02712D01*
X-0001Y03487D02*
Y03507D01*
X-00041D02*
X-0001D01*
X-00128Y03487D02*
Y03507D01*
X-00096*
X03111Y03307D02*
X03131D01*
Y03338*
X03111Y03425D02*
X03131D01*
Y03393D02*
Y03425D01*
X01042Y03775D02*
X01058D01*
X01042Y03744D02*
X01058D01*
X01042Y03835D02*
X01058D01*
X01042Y03804D02*
X01058D01*
X01002Y04015D02*
X01017D01*
X01002Y03984D02*
X01017D01*
X00726Y03873D02*
Y03889D01*
X00694Y03873D02*
Y03889D01*
X03574Y03557D02*
Y03572D01*
X03605Y03557D02*
Y03572D01*
X00584Y03558D02*
Y03574D01*
X00615Y03558D02*
Y03574D01*
X04652Y00038D02*
X04672D01*
Y0007*
X04652Y00156D02*
X04672D01*
Y00125D02*
Y00156D01*
X04652Y-00241D02*
X04672D01*
Y-00209*
X04652Y-00123D02*
X04672D01*
Y-00154D02*
Y-00123D01*
X04652Y-00101D02*
X04672D01*
Y-00069*
X04652Y00016D02*
X04672D01*
Y-00014D02*
Y00016D01*
X03156Y-00101D02*
X03176D01*
Y-00069*
X03156Y00016D02*
X03176D01*
Y-00014D02*
Y00016D01*
X03156Y-00241D02*
X03176D01*
Y-00209*
X03156Y-00123D02*
X03176D01*
Y-00154D02*
Y-00123D01*
X03156Y00038D02*
X03176D01*
Y0007*
X03156Y00156D02*
X03176D01*
Y00125D02*
Y00156D01*
X0166Y-00101D02*
X0168D01*
Y-00069*
X0166Y00016D02*
X0168D01*
Y-00014D02*
Y00016D01*
X0166Y00038D02*
X0168D01*
Y0007*
X0166Y00156D02*
X0168D01*
Y00125D02*
Y00156D01*
X0166Y-00241D02*
X0168D01*
Y-00209*
X0166Y-00123D02*
X0168D01*
Y-00154D02*
Y-00123D01*
X00164Y-00101D02*
X00184D01*
Y-00069*
X00164Y00016D02*
X00184D01*
Y-00014D02*
Y00016D01*
X00164Y-00241D02*
X00184D01*
Y-00209*
X00164Y-00123D02*
X00184D01*
Y-00154D02*
Y-00123D01*
X00164Y00038D02*
X00184D01*
Y0007*
X00164Y00156D02*
X00184D01*
Y00125D02*
Y00156D01*
X02998Y0303D02*
X03018D01*
Y03062*
X02998Y03149D02*
X03018D01*
Y03117D02*
Y03149D01*
X02998Y0289D02*
X03018D01*
Y02922*
X02998Y03009D02*
X03018D01*
Y02977D02*
Y03009D01*
X02998Y0275D02*
X03018D01*
Y02782*
X02998Y02869D02*
X03018D01*
Y02837D02*
Y02869D01*
X02408Y0275D02*
X02428D01*
Y02782*
X02408Y02869D02*
X02428D01*
Y02837D02*
Y02869D01*
X02408Y0303D02*
X02428D01*
Y03062*
X02408Y03149D02*
X02428D01*
Y03117D02*
Y03149D01*
X02408Y0289D02*
X02428D01*
Y02922*
X02408Y03009D02*
X02428D01*
Y02977D02*
Y03009D01*
X01817Y0303D02*
X01837D01*
Y03062*
X01817Y03149D02*
X01837D01*
Y03117D02*
Y03149D01*
X01817Y0289D02*
X01837D01*
Y02922*
X01817Y03009D02*
X01837D01*
Y02977D02*
Y03009D01*
X01817Y0275D02*
X01837D01*
Y02782*
X01817Y02869D02*
X01837D01*
Y02837D02*
Y02869D01*
G54D13*
X03174Y05025D02*
X03169Y0502D01*
X03159*
X03155Y05025*
Y05045*
X03159Y0505*
X03169*
X03174Y05045*
X03184Y05025D02*
X03189Y0502D01*
X03199*
X03204Y05025*
Y0503*
X03199Y05035*
X03194*
X03199*
X03204Y0504*
Y05045*
X03199Y0505*
X03189*
X03184Y05045*
X03233Y0502D02*
X03214D01*
Y05035*
X03223Y0503*
X03228*
X03233Y05035*
Y05045*
X03228Y0505*
X03218*
X03214Y05045*
X02934Y0517D02*
X02929Y05165D01*
X02919*
X02915Y0517*
Y0519*
X02919Y05195*
X02929*
X02934Y0519*
X02944Y0517D02*
X02949Y05165D01*
X02959*
X02964Y0517*
Y05175*
X02959Y0518*
X02954*
X02959*
X02964Y05185*
Y0519*
X02959Y05195*
X02949*
X02944Y0519*
X02988Y05195D02*
Y05165D01*
X02974Y0518*
X02993*
X02023Y03913D02*
Y0392D01*
X0203Y03927*
X02037*
X02051Y03913*
Y03906*
X02044Y03899*
X02037*
X02016Y03906D02*
X02009D01*
X02002Y03899*
Y03892*
X02006Y03889*
X02013*
X02016Y03892*
X02013Y03889*
Y03882*
X02016Y03878*
X02023*
X0203Y03885*
Y03892*
X01995Y03885D02*
X01988D01*
X01981Y03878*
Y03871*
X01985Y03868*
X01992*
X01995Y03871*
X01992Y03868*
Y03861*
X01995Y03857*
X02002*
X02009Y03864*
Y03871*
X02816Y03722D02*
X02809D01*
X02802Y03729*
Y03736*
X02816Y0375*
X02823*
X0283Y03743*
Y03736*
X02823Y03715D02*
Y03708D01*
X0283Y03701*
X02837*
X0284Y03705*
Y03712*
X02837Y03715*
X0284Y03712*
X02847*
X02851Y03715*
Y03722*
X02844Y03729*
X02837*
X02875Y03698D02*
X02861Y03712D01*
Y03684*
X02858Y0368*
X02851*
X02844Y03687*
Y03694*
X04568Y00157D02*
Y00187D01*
X04553*
X04548Y00182*
Y00172*
X04553Y00167*
X04568*
X04558D02*
X04548Y00157D01*
X04524D02*
Y00187D01*
X04538Y00172*
X04519*
X04489Y00187D02*
X04499Y00182D01*
X04509Y00172*
Y00162*
X04504Y00157*
X04494*
X04489Y00162*
Y00167*
X04494Y00172*
X04509*
X0446Y00182D02*
X04465Y00187D01*
X04475*
X04479Y00182*
Y00162*
X04475Y00157*
X04465*
X0446Y00162*
Y00172*
X0447*
X03035Y00285D02*
Y00314D01*
X0302*
X03015Y00309*
Y00299*
X0302Y00294*
X03035*
X03025D02*
X03015Y00285D01*
X0299D02*
Y00314D01*
X03005Y00299*
X02985*
X02956Y00314D02*
X02966Y00309D01*
X02975Y00299*
Y00289*
X02971Y00285*
X02961*
X02956Y00289*
Y00294*
X02961Y00299*
X02975*
X02926Y00314D02*
X02946D01*
Y00299*
X02936*
X02946*
Y00285*
X0154Y0029D02*
Y00319D01*
X01525*
X0152Y00314*
Y00304*
X01525Y00299*
X0154*
X0153D02*
X0152Y0029D01*
X01495D02*
Y00319D01*
X0151Y00304*
X0149*
X01461Y00319D02*
X01471Y00314D01*
X0148Y00304*
Y00294*
X01476Y0029*
X01466*
X01461Y00294*
Y00299*
X01466Y00304*
X0148*
X01431Y00319D02*
X01451D01*
Y0029*
X01431*
X01451Y00304D02*
X01441D01*
X00045Y0029D02*
Y00319D01*
X0003*
X00025Y00314*
Y00304*
X0003Y00299*
X00045*
X00035D02*
X00025Y0029D01*
X0D02*
Y00319D01*
X00015Y00304*
X-00004*
X-00033Y00319D02*
X-00023Y00314D01*
X-00014Y00304*
Y00294*
X-00018Y0029*
X-00028*
X-00033Y00294*
Y00299*
X-00028Y00304*
X-00014*
X-00043Y00319D02*
Y0029D01*
X-00058*
X-00063Y00294*
Y00314*
X-00058Y00319*
X-00043*
X02825Y03075D02*
X02795D01*
Y0306*
X028Y03055*
X0281*
X02815Y0306*
Y03075*
Y03065D02*
X02825Y03055D01*
Y0303D02*
X02795D01*
X0281Y03045*
Y03025*
X02795Y02996D02*
X028Y03006D01*
X0281Y03015*
X0282*
X02825Y03011*
Y03001*
X0282Y02996*
X02815*
X0281Y03001*
Y03015*
X028Y02966D02*
X02795Y02971D01*
Y02981*
X028Y02986*
X0282*
X02825Y02981*
Y02971*
X0282Y02966*
X02486Y0259D02*
Y02619D01*
X02471*
X02466Y02614*
Y02604*
X02471Y02599*
X02486*
X02476D02*
X02466Y0259D01*
X02442D02*
Y02619D01*
X02457Y02604*
X02437*
X02407Y02619D02*
X02417Y02614D01*
X02427Y02604*
Y02594*
X02422Y0259*
X02412*
X02407Y02594*
Y02599*
X02412Y02604*
X02427*
X02398Y02619D02*
Y0259D01*
X02383*
X02378Y02594*
Y02599*
X02383Y02604*
X02398*
X02383*
X02378Y02609*
Y02614*
X02383Y02619*
X02398*
X0162Y03159D02*
Y03188D01*
X01605*
X016Y03183*
Y03173*
X01605Y03168*
X0162*
X0161D02*
X016Y03159D01*
X01575D02*
Y03188D01*
X0159Y03173*
X0157*
X01541Y03188D02*
X01551Y03183D01*
X0156Y03173*
Y03163*
X01556Y03159*
X01546*
X01541Y03163*
Y03168*
X01546Y03173*
X0156*
X01531Y03159D02*
Y03178D01*
X01521Y03188*
X01511Y03178*
Y03159*
Y03173*
X01531*
X0443Y0025D02*
Y00279D01*
X04415*
X0441Y00274*
Y00264*
X04415Y00259*
X0443*
X0442D02*
X0441Y0025D01*
X0438D02*
X044D01*
X0438Y00269*
Y00274*
X04385Y00279*
X04395*
X044Y00274*
X0437Y00279D02*
X04351D01*
Y00274*
X0437Y00254*
Y0025*
X04321Y00274D02*
X04326Y00279D01*
X04336*
X04341Y00274*
Y00254*
X04336Y0025*
X04326*
X04321Y00254*
Y00264*
X04331*
X0296Y-0007D02*
X02931D01*
Y-00084*
X02936Y-00089*
X02946*
X02951Y-00084*
Y-0007*
Y-00079D02*
X0296Y-00089D01*
Y-00119D02*
Y-00099D01*
X02941Y-00119*
X02936*
X02931Y-00114*
Y-00104*
X02936Y-00099*
X02931Y-00129D02*
Y-00148D01*
X02936*
X02956Y-00129*
X0296*
X02931Y-00178D02*
Y-00158D01*
X02946*
Y-00168*
Y-00158*
X0296*
X0146Y-00063D02*
X0143D01*
Y-00078*
X01435Y-00083*
X01445*
X0145Y-00078*
Y-00063*
Y-00073D02*
X0146Y-00083D01*
Y-00113D02*
Y-00093D01*
X0144Y-00113*
X01435*
X0143Y-00108*
Y-00098*
X01435Y-00093*
X0143Y-00122D02*
Y-00142D01*
X01435*
X01455Y-00122*
X0146*
X0143Y-00172D02*
Y-00152D01*
X0146*
Y-00172*
X01445Y-00152D02*
Y-00162D01*
X-0003Y-00065D02*
X-00059D01*
Y-00079*
X-00054Y-00084*
X-00044*
X-00039Y-00079*
Y-00065*
Y-00074D02*
X-0003Y-00084D01*
Y-00114D02*
Y-00094D01*
X-00049Y-00114*
X-00054*
X-00059Y-00109*
Y-00099*
X-00054Y-00094*
X-00059Y-00124D02*
Y-00143D01*
X-00054*
X-00034Y-00124*
X-0003*
X-00059Y-00153D02*
X-0003D01*
Y-00168*
X-00034Y-00173*
X-00054*
X-00059Y-00168*
Y-00153*
X0308Y02595D02*
Y02624D01*
X03065*
X0306Y02619*
Y02609*
X03065Y02604*
X0308*
X0307D02*
X0306Y02595D01*
X0303D02*
X0305D01*
X0303Y02614*
Y02619*
X03035Y02624*
X03045*
X0305Y02619*
X0302Y02624D02*
X03001D01*
Y02619*
X0302Y02599*
Y02595*
X02971Y02619D02*
X02976Y02624D01*
X02986*
X02991Y02619*
Y02599*
X02986Y02595*
X02976*
X02971Y02599*
X02625Y0259D02*
Y02619D01*
X0261*
X02605Y02614*
Y02604*
X0261Y02599*
X02625*
X02615D02*
X02605Y0259D01*
X02575D02*
X02595D01*
X02575Y02609*
Y02614*
X0258Y02619*
X0259*
X02595Y02614*
X02565Y02619D02*
X02546D01*
Y02614*
X02565Y02594*
Y0259*
X02536Y02619D02*
Y0259D01*
X02521*
X02516Y02594*
Y02599*
X02521Y02604*
X02536*
X02521*
X02516Y02609*
Y02614*
X02521Y02619*
X02536*
X01625Y03035D02*
Y03064D01*
X0161*
X01605Y03059*
Y03049*
X0161Y03044*
X01625*
X01615D02*
X01605Y03035D01*
X01575D02*
X01595D01*
X01575Y03054*
Y03059*
X0158Y03064*
X0159*
X01595Y03059*
X01565Y03064D02*
X01546D01*
Y03059*
X01565Y03039*
Y03035*
X01536D02*
Y03054D01*
X01526Y03064*
X01516Y03054*
Y03035*
Y03049*
X01536*
X04335Y00157D02*
Y00187D01*
X0432*
X04315Y00182*
Y00172*
X0432Y00167*
X04335*
X04325D02*
X04315Y00157D01*
X04285D02*
X04305D01*
X04285Y00177*
Y00182*
X0429Y00187*
X043*
X04305Y00182*
X04261Y00157D02*
Y00187D01*
X04275Y00172*
X04256*
X04226Y00182D02*
X04231Y00187D01*
X04241*
X04246Y00182*
Y00162*
X04241Y00157*
X04231*
X04226Y00162*
Y00172*
X04236*
X02885Y00285D02*
Y00314D01*
X0287*
X02865Y00309*
Y00299*
X0287Y00294*
X02885*
X02875D02*
X02865Y00285D01*
X02835D02*
X02855D01*
X02835Y00304*
Y00309*
X0284Y00314*
X0285*
X02855Y00309*
X02811Y00285D02*
Y00314D01*
X02825Y00299*
X02806*
X02776Y00314D02*
X02796D01*
Y00299*
X02786*
X02796*
Y00285*
X01395Y0029D02*
Y00319D01*
X0138*
X01375Y00314*
Y00304*
X0138Y00299*
X01395*
X01385D02*
X01375Y0029D01*
X01345D02*
X01365D01*
X01345Y00309*
Y00314*
X0135Y00319*
X0136*
X01365Y00314*
X01321Y0029D02*
Y00319D01*
X01335Y00304*
X01316*
X01286Y00319D02*
X01306D01*
Y0029*
X01286*
X01306Y00304D02*
X01296D01*
X-00105Y0029D02*
Y00319D01*
X-00119*
X-00124Y00314*
Y00304*
X-00119Y00299*
X-00105*
X-00114D02*
X-00124Y0029D01*
X-00154D02*
X-00134D01*
X-00154Y00309*
Y00314*
X-00149Y00319*
X-00139*
X-00134Y00314*
X-00178Y0029D02*
Y00319D01*
X-00164Y00304*
X-00183*
X-00193Y00319D02*
Y0029D01*
X-00208*
X-00213Y00294*
Y00314*
X-00208Y00319*
X-00193*
X02945Y02595D02*
Y02624D01*
X0293*
X02925Y02619*
Y02609*
X0293Y02604*
X02945*
X02935D02*
X02925Y02595D01*
X02895D02*
X02915D01*
X02895Y02614*
Y02619*
X029Y02624*
X0291*
X02915Y02619*
X02871Y02595D02*
Y02624D01*
X02885Y02609*
X02866*
X02836Y02619D02*
X02841Y02624D01*
X02851*
X02856Y02619*
Y02599*
X02851Y02595*
X02841*
X02836Y02599*
X02355Y0253D02*
Y02559D01*
X0234*
X02335Y02554*
Y02544*
X0234Y02539*
X02355*
X02345D02*
X02335Y0253D01*
X02305D02*
X02325D01*
X02305Y02549*
Y02554*
X0231Y02559*
X0232*
X02325Y02554*
X02281Y0253D02*
Y02559D01*
X02295Y02544*
X02276*
X02266Y02559D02*
Y0253D01*
X02251*
X02246Y02534*
Y02539*
X02251Y02544*
X02266*
X02251*
X02246Y02549*
Y02554*
X02251Y02559*
X02266*
X01625Y0286D02*
Y0289D01*
X0161*
X01605Y02885*
Y02875*
X0161Y0287*
X01625*
X01615D02*
X01605Y0286D01*
X01575D02*
X01595D01*
X01575Y0288*
Y02885*
X0158Y0289*
X0159*
X01595Y02885*
X01551Y0286D02*
Y0289D01*
X01565Y02875*
X01546*
X01536Y0286D02*
Y0288D01*
X01526Y0289*
X01516Y0288*
Y0286*
Y02875*
X01536*
X00835Y04379D02*
X0084Y04384D01*
X0085*
X00855Y04379*
Y04374*
X0085Y04369*
X0084*
X00835Y04364*
Y04359*
X0084Y04355*
X0085*
X00855Y04359*
X00825Y04384D02*
Y04355D01*
X00815Y04364*
X00805Y04355*
Y04384*
X00796Y04355D02*
X00786D01*
X00791*
Y04384*
X00796Y04379*
X05114Y03133D02*
Y03162D01*
X051*
X05095Y03157*
Y03147*
X051Y03142*
X05114*
X05085Y03157D02*
X0508Y03162D01*
X0507*
X05065Y03157*
Y03152*
X0507Y03147*
X05075*
X0507*
X05065Y03142*
Y03138*
X0507Y03133*
X0508*
X05085Y03138*
X0273Y02315D02*
Y02344D01*
X02715*
X0271Y02339*
Y02329*
X02715Y02324*
X0273*
X0272D02*
X0271Y02315D01*
X02685D02*
Y02344D01*
X027Y02329*
X0268*
X02623Y0181D02*
Y01839D01*
X02608*
X02604Y01834*
Y01824*
X02608Y01819*
X02623*
X02613D02*
X02604Y0181D01*
X02594Y01834D02*
X02589Y01839D01*
X02579*
X02574Y01834*
Y01829*
X02579Y01824*
X02584*
X02579*
X02574Y01819*
Y01814*
X02579Y0181*
X02589*
X02594Y01814*
X0276Y02125D02*
Y02154D01*
X02745*
X0274Y02149*
Y02139*
X02745Y02134*
X0276*
X0275D02*
X0274Y02125D01*
X0271D02*
X0273D01*
X0271Y02144*
Y02149*
X02715Y02154*
X02725*
X0273Y02149*
X05144Y02694D02*
Y02669D01*
X05139Y02665*
X05129*
X05124Y02669*
Y02694*
X05099Y02665D02*
Y02694D01*
X05114Y02679*
X05095*
X05105Y0278D02*
Y02809D01*
X0509*
X05085Y02804*
Y02794*
X0509Y02789*
X05105*
X05095D02*
X05085Y0278D01*
X0506D02*
Y02809D01*
X05075Y02794*
X05055*
X05045Y02804D02*
X05041Y02809D01*
X05031*
X05026Y02804*
Y02799*
X05031Y02794*
X05036*
X05031*
X05026Y02789*
Y02784*
X05031Y0278*
X05041*
X05045Y02784*
X0521Y0283D02*
Y02859D01*
X05195*
X0519Y02854*
Y02844*
X05195Y02839*
X0521*
X052D02*
X0519Y0283D01*
X05165D02*
Y02859D01*
X0518Y02844*
X0516*
X05131Y0283D02*
X0515D01*
X05131Y02849*
Y02854*
X05136Y02859*
X05146*
X0515Y02854*
X05055Y0249D02*
Y02519D01*
X0504*
X05035Y02514*
Y02504*
X0504Y02499*
X05055*
X05045D02*
X05035Y0249D01*
X0501D02*
Y02519D01*
X05025Y02504*
X05005*
X04995Y0249D02*
X04986D01*
X04991*
Y02519*
X04995Y02514*
X0482Y02534D02*
Y02554D01*
X04825Y02559*
X04835*
X0484Y02554*
Y02534*
X04835Y0253*
X04825*
X0483Y02539D02*
X0482Y0253D01*
X04825D02*
X0482Y02534D01*
X0481Y02559D02*
X0479D01*
Y02554*
X0481Y02534*
Y0253*
X0526Y02484D02*
Y02455D01*
X0524*
X0521D02*
X0523D01*
X0521Y02474*
Y02479*
X05215Y02484*
X05225*
X0523Y02479*
X04892Y02739D02*
X04897Y02744D01*
X04907*
X04912Y02739*
Y02719*
X04907Y02715*
X04897*
X04892Y02719*
X04882Y02739D02*
X04878Y02744D01*
X04868*
X04863Y02739*
Y02734*
X04868Y02729*
X04873*
X04868*
X04863Y02724*
Y02719*
X04868Y02715*
X04878*
X04882Y02719*
X04853Y02715D02*
X04843D01*
X04848*
Y02744*
X04853Y02739*
X0529Y02809D02*
X05295Y02814D01*
X05305*
X0531Y02809*
Y02789*
X05305Y02785*
X05295*
X0529Y02789*
X0528Y02809D02*
X05275Y02814D01*
X05265*
X0526Y02809*
Y02804*
X05265Y02799*
X0527*
X05265*
X0526Y02794*
Y02789*
X05265Y02785*
X05275*
X0528Y02789*
X0525Y02809D02*
X05246Y02814D01*
X05236*
X05231Y02809*
Y02789*
X05236Y02785*
X05246*
X0525Y02789*
Y02809*
X04799Y-00052D02*
Y-00032D01*
X04804Y-00027*
X04814*
X04819Y-00032*
Y-00052*
X04814Y-00057*
X04804*
X04809Y-00047D02*
X04799Y-00057D01*
X04804D02*
X04799Y-00052D01*
X0479Y-00032D02*
X04785Y-00027D01*
X04775*
X0477Y-00032*
Y-00037*
X04775Y-00042*
X0478*
X04775*
X0477Y-00047*
Y-00052*
X04775Y-00057*
X04785*
X0479Y-00052*
X0474Y-00032D02*
X04745Y-00027D01*
X04755*
X0476Y-00032*
Y-00052*
X04755Y-00057*
X04745*
X0474Y-00052*
Y-00042*
X0475*
X04799Y-00192D02*
Y-00172D01*
X04804Y-00167*
X04814*
X04819Y-00172*
Y-00192*
X04814Y-00197*
X04804*
X04809Y-00187D02*
X04799Y-00197D01*
X04804D02*
X04799Y-00192D01*
X0477Y-00197D02*
X0479D01*
X0477Y-00177*
Y-00172*
X04775Y-00167*
X04785*
X0479Y-00172*
X0474D02*
X04745Y-00167D01*
X04755*
X0476Y-00172*
Y-00192*
X04755Y-00197*
X04745*
X0474Y-00192*
Y-00182*
X0475*
X04799Y00087D02*
Y00107D01*
X04804Y00112*
X04814*
X04819Y00107*
Y00087*
X04814Y00082*
X04804*
X04809Y00092D02*
X04799Y00082D01*
X04804D02*
X04799Y00087D01*
X04775Y00082D02*
Y00112D01*
X0479Y00097*
X0477*
X0474Y00107D02*
X04745Y00112D01*
X04755*
X0476Y00107*
Y00087*
X04755Y00082*
X04745*
X0474Y00087*
Y00097*
X0475*
X03303Y00087D02*
Y00107D01*
X03308Y00112*
X03318*
X03323Y00107*
Y00087*
X03318Y00082*
X03308*
X03313Y00092D02*
X03303Y00082D01*
X03308D02*
X03303Y00087D01*
X03279Y00082D02*
Y00112D01*
X03294Y00097*
X03274*
X03244Y00112D02*
X03264D01*
Y00097*
X03254*
X03264*
Y00082*
X03303Y-00192D02*
Y-00172D01*
X03308Y-00167*
X03318*
X03323Y-00172*
Y-00192*
X03318Y-00197*
X03308*
X03313Y-00187D02*
X03303Y-00197D01*
X03308D02*
X03303Y-00192D01*
X03274Y-00197D02*
X03294D01*
X03274Y-00177*
Y-00172*
X03279Y-00167*
X03289*
X03294Y-00172*
X03244Y-00167D02*
X03264D01*
Y-00182*
X03254*
X03264*
Y-00197*
X03303Y-00052D02*
Y-00032D01*
X03308Y-00027*
X03318*
X03323Y-00032*
Y-00052*
X03318Y-00057*
X03308*
X03313Y-00047D02*
X03303Y-00057D01*
X03308D02*
X03303Y-00052D01*
X03294Y-00032D02*
X03289Y-00027D01*
X03279*
X03274Y-00032*
Y-00037*
X03279Y-00042*
X03284*
X03279*
X03274Y-00047*
Y-00052*
X03279Y-00057*
X03289*
X03294Y-00052*
X03244Y-00027D02*
X03264D01*
Y-00042*
X03254*
X03264*
Y-00057*
X01807Y-00192D02*
Y-00172D01*
X01812Y-00167*
X01822*
X01827Y-00172*
Y-00192*
X01822Y-00197*
X01812*
X01817Y-00187D02*
X01807Y-00197D01*
X01812D02*
X01807Y-00192D01*
X01778Y-00197D02*
X01798D01*
X01778Y-00177*
Y-00172*
X01783Y-00167*
X01793*
X01798Y-00172*
X01748Y-00167D02*
X01768D01*
Y-00197*
X01748*
X01768Y-00182D02*
X01758D01*
X01807Y00087D02*
Y00107D01*
X01812Y00112*
X01822*
X01827Y00107*
Y00087*
X01822Y00082*
X01812*
X01817Y00092D02*
X01807Y00082D01*
X01812D02*
X01807Y00087D01*
X01783Y00082D02*
Y00112D01*
X01798Y00097*
X01778*
X01748Y00112D02*
X01768D01*
Y00082*
X01748*
X01768Y00097D02*
X01758D01*
X01807Y-00052D02*
Y-00032D01*
X01812Y-00027*
X01822*
X01827Y-00032*
Y-00052*
X01822Y-00057*
X01812*
X01817Y-00047D02*
X01807Y-00057D01*
X01812D02*
X01807Y-00052D01*
X01798Y-00032D02*
X01793Y-00027D01*
X01783*
X01778Y-00032*
Y-00037*
X01783Y-00042*
X01788*
X01783*
X01778Y-00047*
Y-00052*
X01783Y-00057*
X01793*
X01798Y-00052*
X01748Y-00027D02*
X01768D01*
Y-00057*
X01748*
X01768Y-00042D02*
X01758D01*
X00311Y00087D02*
Y00107D01*
X00316Y00112*
X00326*
X00331Y00107*
Y00087*
X00326Y00082*
X00316*
X00321Y00092D02*
X00311Y00082D01*
X00316D02*
X00311Y00087D01*
X00287Y00082D02*
Y00112D01*
X00301Y00097*
X00282*
X00272Y00112D02*
Y00082D01*
X00257*
X00252Y00087*
Y00107*
X00257Y00112*
X00272*
X00311Y-00192D02*
Y-00172D01*
X00316Y-00167*
X00326*
X00331Y-00172*
Y-00192*
X00326Y-00197*
X00316*
X00321Y-00187D02*
X00311Y-00197D01*
X00316D02*
X00311Y-00192D01*
X00282Y-00197D02*
X00301D01*
X00282Y-00177*
Y-00172*
X00287Y-00167*
X00297*
X00301Y-00172*
X00272Y-00167D02*
Y-00197D01*
X00257*
X00252Y-00192*
Y-00172*
X00257Y-00167*
X00272*
X00311Y-00052D02*
Y-00032D01*
X00316Y-00027*
X00326*
X00331Y-00032*
Y-00052*
X00326Y-00057*
X00316*
X00321Y-00047D02*
X00311Y-00057D01*
X00316D02*
X00311Y-00052D01*
X00301Y-00032D02*
X00297Y-00027D01*
X00287*
X00282Y-00032*
Y-00037*
X00287Y-00042*
X00292*
X00287*
X00282Y-00047*
Y-00052*
X00287Y-00057*
X00297*
X00301Y-00052*
X00272Y-00027D02*
Y-00057D01*
X00257*
X00252Y-00052*
Y-00032*
X00257Y-00027*
X00272*
X03146Y02799D02*
Y02819D01*
X03151Y02824*
X03161*
X03166Y02819*
Y02799*
X03161Y02795*
X03151*
X03156Y02804D02*
X03146Y02795D01*
X03151D02*
X03146Y02799D01*
X03116Y02795D02*
X03136D01*
X03116Y02814*
Y02819*
X03121Y02824*
X03131*
X03136Y02819*
X03087D02*
X03092Y02824D01*
X03102*
X03107Y02819*
Y02799*
X03102Y02795*
X03092*
X03087Y02799*
X03146Y02939D02*
Y02959D01*
X03151Y02964*
X03161*
X03166Y02959*
Y02939*
X03161Y02935*
X03151*
X03156Y02944D02*
X03146Y02935D01*
X03151D02*
X03146Y02939D01*
X03136Y02959D02*
X03131Y02964D01*
X03121*
X03116Y02959*
Y02954*
X03121Y02949*
X03126*
X03121*
X03116Y02944*
Y02939*
X03121Y02935*
X03131*
X03136Y02939*
X03087Y02959D02*
X03092Y02964D01*
X03102*
X03107Y02959*
Y02939*
X03102Y02935*
X03092*
X03087Y02939*
X03146Y03079D02*
Y03099D01*
X03151Y03104*
X03161*
X03166Y03099*
Y03079*
X03161Y03075*
X03151*
X03156Y03084D02*
X03146Y03075D01*
X03151D02*
X03146Y03079D01*
X03121Y03075D02*
Y03104D01*
X03136Y03089*
X03116*
X03087Y03099D02*
X03092Y03104D01*
X03102*
X03107Y03099*
Y03079*
X03102Y03075*
X03092*
X03087Y03079*
X02555Y02939D02*
Y02959D01*
X0256Y02964*
X0257*
X02575Y02959*
Y02939*
X0257Y02935*
X0256*
X02565Y02944D02*
X02555Y02935D01*
X0256D02*
X02555Y02939D01*
X02546Y02959D02*
X02541Y02964D01*
X02531*
X02526Y02959*
Y02954*
X02531Y02949*
X02536*
X02531*
X02526Y02944*
Y02939*
X02531Y02935*
X02541*
X02546Y02939*
X02516Y02964D02*
Y02935D01*
X02501*
X02496Y02939*
Y02944*
X02501Y02949*
X02516*
X02501*
X02496Y02954*
Y02959*
X02501Y02964*
X02516*
X02555Y03079D02*
Y03099D01*
X0256Y03104*
X0257*
X02575Y03099*
Y03079*
X0257Y03075*
X0256*
X02565Y03084D02*
X02555Y03075D01*
X0256D02*
X02555Y03079D01*
X02531Y03075D02*
Y03104D01*
X02546Y03089*
X02526*
X02516Y03104D02*
Y03075D01*
X02501*
X02496Y03079*
Y03084*
X02501Y03089*
X02516*
X02501*
X02496Y03094*
Y03099*
X02501Y03104*
X02516*
X02555Y02799D02*
Y02819D01*
X0256Y02824*
X0257*
X02575Y02819*
Y02799*
X0257Y02795*
X0256*
X02565Y02804D02*
X02555Y02795D01*
X0256D02*
X02555Y02799D01*
X02526Y02795D02*
X02546D01*
X02526Y02814*
Y02819*
X02531Y02824*
X02541*
X02546Y02819*
X02516Y02824D02*
Y02795D01*
X02501*
X02496Y02799*
Y02804*
X02501Y02809*
X02516*
X02501*
X02496Y02814*
Y02819*
X02501Y02824*
X02516*
X01965Y02939D02*
Y02959D01*
X0197Y02964*
X0198*
X01985Y02959*
Y02939*
X0198Y02935*
X0197*
X01975Y02944D02*
X01965Y02935D01*
X0197D02*
X01965Y02939D01*
X01955Y02959D02*
X0195Y02964D01*
X0194*
X01935Y02959*
Y02954*
X0194Y02949*
X01945*
X0194*
X01935Y02944*
Y02939*
X0194Y02935*
X0195*
X01955Y02939*
X01925Y02935D02*
Y02954D01*
X01916Y02964*
X01906Y02954*
Y02935*
Y02949*
X01925*
X01965Y03079D02*
Y03099D01*
X0197Y03104*
X0198*
X01985Y03099*
Y03079*
X0198Y03075*
X0197*
X01975Y03084D02*
X01965Y03075D01*
X0197D02*
X01965Y03079D01*
X0194Y03075D02*
Y03104D01*
X01955Y03089*
X01935*
X01925Y03075D02*
Y03094D01*
X01916Y03104*
X01906Y03094*
Y03075*
Y03089*
X01925*
X01965Y02799D02*
Y02819D01*
X0197Y02824*
X0198*
X01985Y02819*
Y02799*
X0198Y02795*
X0197*
X01975Y02804D02*
X01965Y02795D01*
X0197D02*
X01965Y02799D01*
X01935Y02795D02*
X01955D01*
X01935Y02814*
Y02819*
X0194Y02824*
X0195*
X01955Y02819*
X01925Y02795D02*
Y02814D01*
X01916Y02824*
X01906Y02814*
Y02795*
Y02809*
X01925*
X0178Y03965D02*
X01777Y03962D01*
X01763*
Y03976*
X01766Y03979*
X01763Y03962D02*
X01753Y03951D01*
X01739Y03965D02*
X01732Y03972D01*
X01735Y03969*
X01756Y0399*
Y03983*
X0091Y03794D02*
Y03769D01*
X00905Y03764*
X00895*
X0089Y03769*
Y03794*
X00861Y03764D02*
X0088D01*
X00861Y03784*
Y03789*
X00866Y03794*
X00876*
X0088Y03789*
X02593Y0403D02*
X0261Y04013D01*
Y04006*
X02603Y03999*
X02596*
X02579Y04016*
X02593Y03989D02*
X02586Y03982D01*
X02589Y03985*
X02568Y04006*
X02575*
X03575Y03645D02*
X03604D01*
Y03659*
X03599Y03664*
X03589*
X03584Y03659*
Y03645*
Y03654D02*
X03575Y03664D01*
Y03694D02*
Y03674D01*
X03594Y03694*
X03599*
X03604Y03689*
Y03679*
X03599Y03674*
X03604Y03723D02*
Y03704D01*
X03589*
X03594Y03713*
Y03718*
X03589Y03723*
X03579*
X03575Y03718*
Y03708*
X03579Y03704*
X00585Y03655D02*
X00614D01*
Y03669*
X00609Y03674*
X00599*
X00594Y03669*
Y03655*
Y03664D02*
X00585Y03674D01*
Y03704D02*
Y03684D01*
X00604Y03704*
X00609*
X00614Y03699*
Y03689*
X00609Y03684*
X00585Y03733D02*
Y03714D01*
X00604Y03733*
X00609*
X00614Y03728*
Y03718*
X00609Y03714*
X01205Y03807D02*
Y03837D01*
X0119*
X01185Y03832*
Y03822*
X0119Y03817*
X01205*
X01195D02*
X01185Y03807D01*
X01175D02*
X01165D01*
X0117*
Y03837*
X01175Y03832*
X01131Y03807D02*
X0115D01*
X01131Y03827*
Y03832*
X01136Y03837*
X01145*
X0115Y03832*
X012Y0375D02*
Y03779D01*
X01185*
X0118Y03774*
Y03764*
X01185Y03759*
X012*
X0119D02*
X0118Y0375D01*
X0117D02*
X0116D01*
X01165*
Y03779*
X0117Y03774*
X01145Y0375D02*
X01136D01*
X0114*
Y03779*
X01145Y03774*
X0116Y0398D02*
Y04009D01*
X01145*
X0114Y04004*
Y03994*
X01145Y03989*
X0116*
X0115D02*
X0114Y0398D01*
X0113D02*
X0112D01*
X01125*
Y04009*
X0113Y04004*
X01105D02*
X011Y04009D01*
X01091*
X01086Y04004*
Y03984*
X01091Y0398*
X011*
X01105Y03984*
Y04004*
X0004Y0314D02*
X0001D01*
Y03125*
X00015Y0312*
X00025*
X0003Y03125*
Y0314*
Y0313D02*
X0004Y0312D01*
X00035Y0311D02*
X0004Y03105D01*
Y03095*
X00035Y0309*
X00015*
X0001Y03095*
Y03105*
X00015Y0311*
X0002*
X00025Y03105*
Y0309*
X00103Y0314D02*
X00073D01*
Y03125*
X00078Y0312*
X00088*
X00093Y03125*
Y0314*
Y0313D02*
X00103Y0312D01*
X00078Y0311D02*
X00073Y03105D01*
Y03095*
X00078Y0309*
X00083*
X00088Y03095*
X00093Y0309*
X00098*
X00103Y03095*
Y03105*
X00098Y0311*
X00093*
X00088Y03105*
X00083Y0311*
X00078*
X00088Y03105D02*
Y03095D01*
X-00018Y0314D02*
X-00048D01*
Y03125*
X-00043Y0312*
X-00033*
X-00028Y03125*
Y0314*
Y0313D02*
X-00018Y0312D01*
X-00048Y0311D02*
Y0309D01*
X-00043*
X-00023Y0311*
X-00018*
X-0008Y0314D02*
X-00109D01*
Y03125*
X-00104Y0312*
X-00094*
X-00089Y03125*
Y0314*
Y0313D02*
X-0008Y0312D01*
X-00109Y0309D02*
X-00104Y031D01*
X-00094Y0311*
X-00084*
X-0008Y03105*
Y03095*
X-00084Y0309*
X-00089*
X-00094Y03095*
Y0311*
X00695Y03959D02*
X00724D01*
Y03974*
X0072Y03979*
X0071*
X00705Y03974*
Y03959*
Y03969D02*
X00695Y03979D01*
X00724Y04008D02*
Y03989D01*
X0071*
X00715Y03999*
Y04004*
X0071Y04008*
X007*
X00695Y04004*
Y03994*
X007Y03989*
X03076Y0361D02*
Y03639D01*
X03061*
X03056Y03634*
Y03624*
X03061Y03619*
X03076*
X03066D02*
X03056Y0361D01*
X03046D02*
X03037D01*
X03042*
Y03639*
X03046Y03634*
X03228Y0337D02*
X03208D01*
X03204Y03375*
Y03385*
X03208Y0339*
X03228*
X03233Y03385*
Y03375*
X03223Y0338D02*
X03233Y0337D01*
Y03375D02*
X03228Y0337D01*
X03204Y0334D02*
X03208Y0335D01*
X03218Y0336*
X03228*
X03233Y03355*
Y03345*
X03228Y0334*
X03223*
X03218Y03345*
Y0336*
X00048Y03463D02*
X00029D01*
X00024Y03468*
Y03478*
X00029Y03483*
X00048*
X00053Y03478*
Y03468*
X00043Y03473D02*
X00053Y03463D01*
Y03468D02*
X00048Y03463D01*
X00024Y03434D02*
Y03453D01*
X00039*
X00034Y03443*
Y03439*
X00039Y03434*
X00048*
X00053Y03439*
Y03448*
X00048Y03453*
X0304Y03834D02*
Y03854D01*
X03045Y03859*
X03055*
X0306Y03854*
Y03834*
X03055Y0383*
X03045*
X0305Y03839D02*
X0304Y0383D01*
X03045D02*
X0304Y03834D01*
X0303Y0383D02*
X0302D01*
X03025*
Y03859*
X0303Y03854*
X00692Y02599D02*
Y02629D01*
X00677*
X00672Y02624*
Y02614*
X00677Y02609*
X00692*
X00662Y02599D02*
X00653D01*
X00657*
Y02629*
X00662Y02624*
X0226Y03785D02*
X0224Y03765D01*
X02226Y03778*
X02219Y03785D02*
X02212Y03792D01*
X02215Y03789*
X02236Y0381*
Y03803*
X00135Y0314D02*
X00165D01*
Y03125*
X0016Y0312*
X0014*
X00135Y03125*
Y0314*
X0014Y0311D02*
X00135Y03105D01*
Y03095*
X0014Y0309*
X00145*
X0015Y03095*
Y031*
Y03095*
X00155Y0309*
X0016*
X00165Y03095*
Y03105*
X0016Y0311*
X0118Y03954D02*
Y03924D01*
X01165*
X0116Y03929*
Y03949*
X01165Y03954*
X0118*
X0113Y03924D02*
X0115D01*
X0113Y03944*
Y03949*
X01135Y03954*
X01145*
X0115Y03949*
X00664Y03959D02*
X00635D01*
Y03974*
X0064Y03979*
X0066*
X00664Y03974*
Y03959*
X00635Y03989D02*
Y03999D01*
Y03994*
X00664*
X0066Y03989*
X03835Y03614D02*
X0384Y03619D01*
X0385*
X03855Y03614*
Y03594*
X0385Y0359*
X0384*
X03835Y03594*
X03805Y0359D02*
X03825D01*
X03805Y03609*
Y03614*
X0381Y03619*
X0382*
X03825Y03614*
X03795Y03619D02*
X03776D01*
Y03614*
X03795Y03594*
Y0359*
X03669Y03664D02*
X03674Y03659D01*
Y03649*
X03669Y03645*
X03649*
X03645Y03649*
Y03659*
X03649Y03664*
X03645Y03694D02*
Y03674D01*
X03664Y03694*
X03669*
X03674Y03689*
Y03679*
X03669Y03674*
X03674Y03723D02*
Y03704D01*
X03659*
X03664Y03713*
Y03718*
X03659Y03723*
X03649*
X03645Y03718*
Y03708*
X03649Y03704*
X0407Y03599D02*
X04075Y03604D01*
X04085*
X0409Y03599*
Y03579*
X04085Y03575*
X04075*
X0407Y03579*
X0404Y03575D02*
X0406D01*
X0404Y03594*
Y03599*
X04045Y03604*
X04055*
X0406Y03599*
X04016Y03575D02*
Y03604D01*
X0403Y03589*
X04011*
X04071Y03533D02*
X04076Y03538D01*
X04086*
X04091Y03533*
Y03514*
X04086Y03509*
X04076*
X04071Y03514*
X04041Y03509D02*
X04061D01*
X04041Y03528*
Y03533*
X04046Y03538*
X04056*
X04061Y03533*
X04032D02*
X04027Y03538D01*
X04017*
X04012Y03533*
Y03528*
X04017Y03524*
X04022*
X04017*
X04012Y03519*
Y03514*
X04017Y03509*
X04027*
X04032Y03514*
X0085Y03614D02*
X00855Y03619D01*
X00865*
X0087Y03614*
Y03594*
X00865Y0359*
X00855*
X0085Y03594*
X0082Y0359D02*
X0084D01*
X0082Y03609*
Y03614*
X00825Y03619*
X00835*
X0084Y03614*
X00791Y0359D02*
X0081D01*
X00791Y03609*
Y03614*
X00796Y03619*
X00806*
X0081Y03614*
X00679Y03674D02*
X00684Y03669D01*
Y03659*
X00679Y03655*
X00659*
X00655Y03659*
Y03669*
X00659Y03674*
X00655Y03704D02*
Y03684D01*
X00674Y03704*
X00679*
X00684Y03699*
Y03689*
X00679Y03684*
Y03714D02*
X00684Y03718D01*
Y03728*
X00679Y03733*
X00659*
X00655Y03728*
Y03718*
X00659Y03714*
X00679*
X01075Y03534D02*
X0108Y03539D01*
X0109*
X01095Y03534*
Y03514*
X0109Y0351*
X0108*
X01075Y03514*
X01065Y0351D02*
X01055D01*
X0106*
Y03539*
X01065Y03534*
X0104Y03514D02*
X01035Y0351D01*
X01026*
X01021Y03514*
Y03534*
X01026Y03539*
X01035*
X0104Y03534*
Y03529*
X01035Y03524*
X01021*
X01075Y03599D02*
X0108Y03604D01*
X0109*
X01095Y03599*
Y03579*
X0109Y03575*
X0108*
X01075Y03579*
X01065Y03575D02*
X01055D01*
X0106*
Y03604*
X01065Y03599*
X0104D02*
X01035Y03604D01*
X01026*
X01021Y03599*
Y03594*
X01026Y03589*
X01021Y03584*
Y03579*
X01026Y03575*
X01035*
X0104Y03579*
Y03584*
X01035Y03589*
X0104Y03594*
Y03599*
X01035Y03589D02*
X01026D01*
X02308Y03814D02*
X02315D01*
X02322Y03807*
Y038*
X02308Y03787*
X02301*
X02294Y03794*
Y038*
X02284Y03804D02*
X02277Y03811D01*
X0228Y03807*
X02301Y03828*
Y03821*
X01738Y04791D02*
X01745D01*
X01752Y04784*
Y04777*
X01738Y04763*
X01731*
X01724Y0477*
Y04777*
X01714Y0478D02*
X01707Y04787D01*
X0171Y04784*
X01731Y04805*
Y04798*
X01703Y04833D02*
X01717Y04819D01*
X01707Y04808*
X01703Y04819*
X017Y04822*
X01693*
X01686Y04815*
Y04808*
X01693Y04801*
X017*
X03183Y03926D02*
X0319D01*
X03197Y03919*
Y03912*
X03183Y03898*
X03176*
X03169Y03905*
Y03912*
X03159Y03915D02*
X03152Y03922D01*
X03155Y03919*
X03176Y0394*
Y03933*
X03131Y03943D02*
X03152Y03964D01*
Y03943*
X03138Y03957*
X03283Y04021D02*
X0329D01*
X03297Y04014*
Y04007*
X03283Y03993*
X03276*
X03269Y04*
Y04007*
X03259Y0401D02*
X03252Y04017D01*
X03255Y04014*
X03276Y04035*
Y04028*
X03259Y04045D02*
Y04052D01*
X03252Y04059*
X03245*
X03241Y04056*
Y04049*
X03245Y04045*
X03241Y04049*
X03234*
X03231Y04045*
Y04038*
X03238Y04031*
X03245*
X03409Y04151D02*
X03416D01*
X03423Y04144*
Y04137*
X03409Y04123*
X03402*
X03395Y0413*
Y04137*
X03385Y0414D02*
X03378Y04147D01*
X03381Y04144*
X03402Y04165*
Y04158*
X03353Y04172D02*
X03367Y04158D01*
Y04186*
X03371Y04189*
X03378*
X03385Y04182*
Y04175*
X03358Y04746D02*
X03365D01*
X03372Y04739*
Y04732*
X03358Y04718*
X03351*
X03344Y04725*
Y04732*
X03334Y04735D02*
X03327Y04742D01*
X0333Y04739*
X03351Y0476*
Y04753*
X03316D02*
X03309Y0476D01*
X03313Y04756*
X03334Y04777*
Y0477*
X01933Y04926D02*
X0194D01*
X01947Y04919*
Y04912*
X01933Y04898*
X01926*
X01919Y04905*
Y04912*
X01909Y04915D02*
X01902Y04922D01*
X01905Y04919*
X01926Y0494*
Y04933*
X01909Y0495D02*
Y04957D01*
X01902Y04964*
X01895*
X01881Y0495*
Y04943*
X01888Y04936*
X01895*
X01909Y0495*
X0211Y05114D02*
X02115Y05119D01*
X02125*
X0213Y05114*
Y05094*
X02125Y0509*
X02115*
X0211Y05094*
X021D02*
X02095Y0509D01*
X02085*
X0208Y05094*
Y05114*
X02085Y05119*
X02095*
X021Y05114*
Y05109*
X02095Y05104*
X0208*
X0211Y05064D02*
X02115Y05069D01*
X02125*
X0213Y05064*
Y05044*
X02125Y0504*
X02115*
X0211Y05044*
X021Y05064D02*
X02095Y05069D01*
X02085*
X0208Y05064*
Y05059*
X02085Y05054*
X0208Y05049*
Y05044*
X02085Y0504*
X02095*
X021Y05044*
Y05049*
X02095Y05054*
X021Y05059*
Y05064*
X02095Y05054D02*
X02085D01*
X01778Y04826D02*
X01785D01*
X01792Y04819*
Y04812*
X01778Y04798*
X01771*
X01764Y04805*
Y04812*
X01775Y04836D02*
X01761Y0485D01*
X01757Y04847*
Y04819*
X01754Y04815*
X0114Y04066D02*
X01145Y04071D01*
X01155*
X0116Y04066*
Y04046*
X01155Y04041*
X01145*
X0114Y04046*
X0111Y04071D02*
X0112Y04066D01*
X0113Y04056*
Y04046*
X01125Y04041*
X01115*
X0111Y04046*
Y04051*
X01115Y04056*
X0113*
X0078Y03979D02*
X00784Y03974D01*
Y03964*
X0078Y03959*
X0076*
X00755Y03964*
Y03974*
X0076Y03979*
X00784Y04008D02*
Y03989D01*
X0077*
X00775Y03999*
Y04004*
X0077Y04008*
X0076*
X00755Y04004*
Y03994*
X0076Y03989*
X00925Y04069D02*
X0093Y04074D01*
X0094*
X00945Y04069*
Y04049*
X0094Y04044*
X0093*
X00925Y04049*
X009Y04044D02*
Y04074D01*
X00915Y04059*
X00895*
X01483Y04171D02*
X0149D01*
X01497Y04164*
Y04157*
X01483Y04143*
X01476*
X01469Y0415*
Y04157*
X01476Y04178D02*
Y04185D01*
X01469Y04192*
X01462*
X01459Y04188*
Y04181*
X01462Y04178*
X01459Y04181*
X01452*
X01448Y04178*
Y04171*
X01455Y04164*
X01462*
X01568Y04088D02*
X01575D01*
X01582Y04081*
Y04074*
X01568Y0406*
X01561*
X01554Y04067*
Y04074*
X0153Y04092D02*
X01544Y04078D01*
Y04106*
X01547Y04109*
X01554*
X01561Y04102*
Y04095*
G54D53*
X0083Y05226D02*
Y05286D01*
X0081Y05266*
X0079Y05286*
Y05226*
X0074Y05286D02*
X0076D01*
X0077Y05276*
Y05236*
X0076Y05226*
X0074*
X0073Y05236*
Y05276*
X0074Y05286*
X0071D02*
Y05226D01*
X0068*
X0067Y05236*
Y05276*
X0068Y05286*
X0071*
X0059D02*
Y05226D01*
X0056*
X0055Y05236*
Y05276*
X0056Y05286*
X0059*
X005Y05226D02*
X0052D01*
X0053Y05236*
Y05256*
X0052Y05266*
X005*
X0049Y05256*
Y05246*
X0053*
X0047Y05266D02*
X0045Y05226D01*
X0043Y05266*
X0041Y05226D02*
X0039D01*
X004*
Y05266*
X0041*
X0032D02*
X0035D01*
X0036Y05256*
Y05236*
X0035Y05226*
X0032*
X0027D02*
X0029D01*
X003Y05236*
Y05256*
X0029Y05266*
X0027*
X0026Y05256*
Y05246*
X003*
X0024Y05226D02*
X0021D01*
X002Y05236*
X0021Y05246*
X0023*
X0024Y05256*
X0023Y05266*
X002*
X0083Y0519D02*
Y0513D01*
X008*
X0079Y0514*
Y0518*
X008Y0519*
X0083*
X0077Y0517D02*
Y0514D01*
X0076Y0513*
X0073*
Y0517*
X007Y0513D02*
X0068D01*
X0067Y0514*
Y0516*
X0068Y0517*
X007*
X0071Y0516*
Y0514*
X007Y0513*
X0059Y0519D02*
X0055Y0513D01*
Y0519D02*
X0059Y0513D01*
X0047Y0516D02*
X0043D01*
X0035Y0519D02*
X0031D01*
X0033*
Y0513*
X0028D02*
X0026D01*
X0025Y0514*
Y0516*
X0026Y0517*
X0028*
X0029Y0516*
Y0514*
X0028Y0513*
X0023Y0511D02*
Y0517D01*
X002*
X0019Y0516*
Y0514*
X002Y0513*
X0023*
X0011Y0519D02*
Y0513D01*
X0008*
X0007Y0514*
Y0515*
X0008Y0516*
X0011*
X0008*
X0007Y0517*
Y0518*
X0008Y0519*
X0011*
X0004Y0513D02*
X0002D01*
X0001Y0514*
Y0516*
X0002Y0517*
X0004*
X0005Y0516*
Y0514*
X0004Y0513*
X-00019Y0517D02*
X-00039D01*
X-00049Y0516*
Y0513*
X-00019*
X-00009Y0514*
X-00019Y0515*
X-00049*
X-00069Y0517D02*
Y0513D01*
Y0515*
X-00079Y0516*
X-00089Y0517*
X-00099*
X-00169Y0519D02*
Y0513D01*
X-00139*
X-00129Y0514*
Y0516*
X-00139Y0517*
X-00169*
X0083Y05015D02*
Y05074D01*
X008*
X0079Y05064*
Y05044*
X008Y05034*
X0083*
X0081D02*
X0079Y05015D01*
X0074D02*
X0076D01*
X0077Y05024*
Y05044*
X0076Y05054*
X0074*
X0073Y05044*
Y05034*
X0077*
X0071Y05054D02*
X0069Y05015D01*
X0067Y05054*
X0065D02*
X0064D01*
Y05044*
X0065*
Y05054*
Y05024D02*
X0064D01*
Y05015*
X0065*
Y05024*
X005Y05015D02*
X0054D01*
X005Y05054*
Y05064*
X0051Y05074*
X0053*
X0054Y05064*
X0048D02*
X0047Y05074D01*
X0045*
X0044Y05064*
Y05024*
X0045Y05015*
X0047*
X0048Y05024*
Y05064*
X0038Y05015D02*
X0042D01*
X0038Y05054*
Y05064*
X0039Y05074*
X0041*
X0042Y05064*
X0036D02*
X0035Y05074D01*
X0033*
X0032Y05064*
Y05024*
X0033Y05015*
X0035*
X0036Y05024*
Y05064*
X003Y05015D02*
Y05024D01*
X0029*
Y05015*
X003*
X0025Y05064D02*
X0024Y05074D01*
X0022*
X0021Y05064*
Y05024*
X0022Y05015*
X0024*
X0025Y05024*
Y05064*
X0019Y05015D02*
X0017D01*
X0018*
Y05074*
X0019Y05064*
X0014Y05015D02*
Y05024D01*
X0013*
Y05015*
X0014*
X0009D02*
X0007D01*
X0008*
Y05074*
X0009Y05064*
X0004Y05015D02*
X0002D01*
X0003*
Y05074*
X0004Y05064*
G54D54*
X01718Y03995D02*
X01752Y04029D01*
X01497Y0444D02*
X01531Y04474D01*
X01864Y04141*
X0183Y04107D02*
X01864Y04141D01*
X01385Y04328D02*
X01718Y03995D01*
X01385Y04328D02*
X01419Y04362D01*
G54D108*
X02596Y03768D02*
D01*
X02596Y03769*
X02596Y0377*
X02596Y0377*
X02596Y03771*
X02596Y03772*
X02595Y03773*
X02595Y03774*
X02595Y03774*
X02594Y03775*
X02594Y03776*
X02593Y03776*
X02592Y03777*
X02592Y03777*
X02591Y03778*
X0259Y03778*
X0259Y03779*
X02589Y03779*
X02588Y03779*
X02587Y03779*
X02587Y0378*
X02586Y0378*
X02585Y0378*
X02584*
X02583Y0378*
X02582Y0378*
X02582Y03779*
X02581Y03779*
X0258Y03779*
X02579Y03779*
X02579Y03778*
X02578Y03778*
X02577Y03777*
X02577Y03777*
X02576Y03776*
X02575Y03776*
X02575Y03775*
X02574Y03774*
X02574Y03774*
X02574Y03773*
X02573Y03772*
X02573Y03771*
X02573Y0377*
X02573Y0377*
X02573Y03769*
X02573Y03768*
X02573Y03767*
X02573Y03766*
X02573Y03766*
X02573Y03765*
X02573Y03764*
X02574Y03763*
X02574Y03762*
X02574Y03762*
X02575Y03761*
X02575Y0376*
X02576Y0376*
X02577Y03759*
X02577Y03759*
X02578Y03758*
X02579Y03758*
X02579Y03757*
X0258Y03757*
X02581Y03757*
X02582Y03757*
X02582Y03756*
X02583Y03756*
X02584Y03756*
X02585*
X02586Y03756*
X02587Y03756*
X02587Y03757*
X02588Y03757*
X02589Y03757*
X0259Y03757*
X0259Y03758*
X02591Y03758*
X02592Y03759*
X02592Y03759*
X02593Y0376*
X02594Y0376*
X02594Y03761*
X02595Y03762*
X02595Y03762*
X02595Y03763*
X02596Y03764*
X02596Y03765*
X02596Y03766*
X02596Y03766*
X02596Y03767*
X02596Y03768*
G54D109*
X007Y0418D02*
X008D01*
X007Y0432D02*
X008D01*
X00665Y0421D02*
Y04285D01*
X00835Y0421D02*
Y04285D01*
M02*