G04 Layer_Color=32896*
%FSLAX44Y44*%
%MOMM*%
G71*
G01*
G75*
%ADD10C,0.1000*%
%ADD11C,0.6000*%
%ADD12C,0.2500*%
%ADD13C,0.2000*%
%ADD14C,0.1524*%
%ADD15C,0.1520*%
%ADD16C,0.0508*%
%ADD17C,0.2540*%
%ADD18C,0.1500*%
%ADD19R,5.3340X3.4290*%
%ADD20R,0.8890X1.6510*%
%ADD21R,0.9510X1.6510*%
D10*
X-125437Y652247D02*
G03*
X-126437Y653247I-1000J0D01*
G01*
X-131437D02*
G03*
X-132437Y652247I0J-1000D01*
G01*
X15163Y652247D02*
G03*
X14163Y653247I-1000J0D01*
G01*
X9163D02*
G03*
X8163Y652247I0J-1000D01*
G01*
X155763D02*
G03*
X154763Y653247I-1000J0D01*
G01*
X149763D02*
G03*
X148763Y652247I0J-1000D01*
G01*
X1348690Y639480D02*
G03*
X1348690Y639480I-500J0D01*
G01*
X1282010Y647090D02*
G03*
X1282010Y647090I-500J0D01*
G01*
X200445Y1079500D02*
G03*
X200445Y1079500I-9919J0D01*
G01*
X33899Y759460D02*
X41519D01*
X-147837Y645647D02*
X171163Y645647D01*
X15163Y651247D02*
X148763D01*
X-141937Y639747D02*
X165263Y639747D01*
X34163Y574747D02*
X165263Y574747D01*
X34163Y568847D02*
X171163D01*
X34163Y563247D02*
X176763D01*
X-125437Y651247D02*
X8163Y651247D01*
X-141937Y574747D02*
X-10837D01*
X-153437Y563247D02*
X-10837Y563247D01*
X-147837Y568847D02*
X-10837D01*
X165263Y574747D02*
X171163Y568847D01*
X-153437Y651247D02*
X-132437D01*
X-10837Y584247D02*
X34163Y584247D01*
X-10837Y563247D02*
X34163Y563247D01*
X115763Y562247D02*
X133763D01*
X165263Y639747D02*
X171163Y645647D01*
X155764Y651247D02*
X176763Y651247D01*
X-147837Y568847D02*
X-147837Y645647D01*
X-141937Y574747D02*
X-141937Y639747D01*
X-153437Y651247D02*
X-153437Y563247D01*
X165263Y574747D02*
Y639747D01*
X171163Y568847D02*
Y645647D01*
X176763Y563247D02*
Y651247D01*
X-140437Y590747D02*
Y623747D01*
X-147837Y568847D02*
X-141937Y574747D01*
X-10837Y568847D02*
Y574747D01*
X34163Y568847D02*
Y574747D01*
X163764Y590747D02*
Y623747D01*
X-147837Y645647D02*
X-141937Y639747D01*
Y623747D02*
X-140437D01*
X-141937Y590747D02*
X-140437Y590747D01*
X-132437Y651247D02*
Y652247D01*
X-125437Y651247D02*
Y652247D01*
X-131437Y653247D02*
X-126437D01*
X-10837Y574747D02*
Y584247D01*
Y563247D02*
Y568847D01*
X9163Y653247D02*
X14163D01*
X15163Y651247D02*
Y652247D01*
X8163Y651247D02*
Y652247D01*
X34163Y574747D02*
X34163Y584247D01*
X34163Y563247D02*
Y568847D01*
X84097Y651247D02*
Y651747D01*
X81597D02*
X84097D01*
X81597Y651247D02*
Y651747D01*
X74097Y651247D02*
X74097Y651747D01*
X81597D01*
X72013Y651247D02*
Y651747D01*
X74097D01*
X70347Y651247D02*
Y651747D01*
X72013D01*
X69097Y651247D02*
X69097Y651747D01*
X70347D01*
X68680D02*
X68680Y651247D01*
X68680Y651747D02*
X69097D01*
X97430Y651747D02*
X97430Y651247D01*
X94930Y651747D02*
X97430Y651747D01*
X94930Y651247D02*
Y651747D01*
X92430D02*
X94930D01*
X92430Y651247D02*
Y651747D01*
X90347Y651247D02*
Y651747D01*
X92430D01*
X99513Y651247D02*
Y651747D01*
X97430Y651747D02*
X99513Y651747D01*
X100763Y651247D02*
Y651747D01*
X99513D02*
X100763D01*
X89097Y651247D02*
X89097Y651747D01*
X90347D01*
X101597Y651247D02*
Y651747D01*
X100763Y651747D02*
X101597Y651747D01*
X88263Y651247D02*
Y651747D01*
X89097Y651747D01*
X87847Y651247D02*
X87847Y651747D01*
X88263Y651747D01*
X102013Y651747D02*
X102013Y651247D01*
X101597Y651747D02*
X102013Y651747D01*
X102430Y651247D02*
Y651747D01*
X102013D02*
X102430D01*
X87430Y651247D02*
X87430Y651747D01*
X87847D01*
X105763Y651747D02*
X120764Y651747D01*
X105763Y651247D02*
Y651747D01*
X120764Y651247D02*
Y651747D01*
X115763Y562247D02*
Y563247D01*
X133763Y562247D02*
Y563247D01*
X149763Y653247D02*
X154763Y653247D01*
X148763Y651247D02*
Y652247D01*
X155764Y651247D02*
X155764Y652247D01*
X163764Y623747D02*
X165263Y623747D01*
X163764Y590747D02*
X165263D01*
X261735Y996892D02*
Y1004512D01*
X161405Y990922D02*
X169025D01*
D11*
X659590Y957189D02*
G03*
X659590Y957189I-3000J0D01*
G01*
D12*
X648824Y936153D02*
G03*
X648824Y936153I-1250J0D01*
G01*
X241175Y1003461D02*
G03*
X241175Y1003461I-1250J0D01*
G01*
X1264240Y676480D02*
G03*
X1264240Y676480I-1250J0D01*
G01*
X744187Y959460D02*
G03*
X744187Y959460I-1250J0D01*
G01*
X1703Y874420D02*
G03*
X1703Y874420I-1250J0D01*
G01*
X780148Y837068D02*
G03*
X780148Y837068I-1250J0D01*
G01*
X1171490Y6860D02*
G03*
X1171490Y6860I-1250J0D01*
G01*
Y-64260D02*
G03*
X1171490Y-64260I-1250J0D01*
G01*
Y-28700D02*
G03*
X1171490Y-28700I-1250J0D01*
G01*
X791490D02*
G03*
X791490Y-28700I-1250J0D01*
G01*
Y-64260D02*
G03*
X791490Y-64260I-1250J0D01*
G01*
Y6860D02*
G03*
X791490Y6860I-1250J0D01*
G01*
X411490Y-28700D02*
G03*
X411490Y-28700I-1250J0D01*
G01*
Y6860D02*
G03*
X411490Y6860I-1250J0D01*
G01*
Y-64260D02*
G03*
X411490Y-64260I-1250J0D01*
G01*
X31490Y-28700D02*
G03*
X31490Y-28700I-1250J0D01*
G01*
Y-64260D02*
G03*
X31490Y-64260I-1250J0D01*
G01*
Y6860D02*
G03*
X31490Y6860I-1250J0D01*
G01*
X751490Y766860D02*
G03*
X751490Y766860I-1250J0D01*
G01*
Y731300D02*
G03*
X751490Y731300I-1250J0D01*
G01*
Y695740D02*
G03*
X751490Y695740I-1250J0D01*
G01*
X601490D02*
G03*
X601490Y695740I-1250J0D01*
G01*
Y766860D02*
G03*
X601490Y766860I-1250J0D01*
G01*
Y731300D02*
G03*
X601490Y731300I-1250J0D01*
G01*
X451490Y766860D02*
G03*
X451490Y766860I-1250J0D01*
G01*
Y731300D02*
G03*
X451490Y731300I-1250J0D01*
G01*
Y695740D02*
G03*
X451490Y695740I-1250J0D01*
G01*
D13*
X557785Y968838D02*
X563442Y974495D01*
X464257Y1135380D02*
X656590Y1327713D01*
Y943047D02*
X848923Y1135380D01*
X656590Y1327713D02*
X848923Y1135380D01*
X464257D02*
X656590Y943047D01*
X221175Y969961D02*
Y1000961D01*
X231175Y969961D02*
Y1000961D01*
X221175Y969961D02*
X231175D01*
X221175Y1000961D02*
X231175D01*
X1353190Y643480D02*
Y673480D01*
X1325190Y643480D02*
Y673480D01*
X1348190Y643480D02*
X1353190Y643480D01*
X1348190Y673480D02*
X1353190Y673480D01*
X1325190Y643480D02*
X1330190Y643480D01*
X1325190Y673480D02*
X1330190Y673480D01*
X1246490Y643480D02*
Y651480D01*
Y643480D02*
X1251490D01*
X1246490Y665480D02*
Y673480D01*
X1251490D01*
X1304460Y671090D02*
X1306510D01*
X1285510D02*
X1287560D01*
X1304460Y647090D02*
X1306510Y647090D01*
X1285510D02*
X1287560Y647090D01*
X1135920Y25210D02*
X1139920D01*
X1135920Y33210D02*
X1139920D01*
X767240Y672910D02*
X771240D01*
X767240Y680910D02*
X771240D01*
X338360Y56960D02*
X342360D01*
X338360Y64960D02*
X342360D01*
X1099090Y25210D02*
X1103090D01*
X1099090Y33210D02*
X1103090D01*
X719360Y56960D02*
X723360D01*
X719360Y64960D02*
X723360D01*
X609740Y672910D02*
X613740D01*
X609740Y680910D02*
X613740D01*
X396780Y710795D02*
X400780D01*
X396780Y718795D02*
X400780D01*
X-41370Y56960D02*
X-37370D01*
X-41370Y64960D02*
X-37370D01*
X732459Y680910D02*
X736459D01*
X732459Y672910D02*
X736459D01*
X386296Y-30650D02*
Y-26650D01*
X378296Y-30650D02*
Y-26650D01*
X376460Y64960D02*
X380460D01*
X376460Y56960D02*
X380460D01*
X733110Y765080D02*
Y769080D01*
X725110Y765080D02*
Y769080D01*
X1109250Y48070D02*
X1113250D01*
X1109250Y56070D02*
X1113250D01*
X767270Y-30650D02*
Y-26650D01*
X759270Y-30650D02*
Y-26650D01*
X645700Y680910D02*
X649700D01*
X645700Y672910D02*
X649700D01*
X396780Y754800D02*
X400780D01*
X396780Y762800D02*
X400780D01*
X756806Y64960D02*
X760807D01*
X756806Y56960D02*
X760807D01*
X582413Y665670D02*
X586413D01*
X582413Y657670D02*
X586413D01*
X396780Y785940D02*
X400780D01*
X396780Y793940D02*
X400780D01*
X8243Y-30647D02*
Y-26647D01*
X243Y-30647D02*
Y-26647D01*
X-3270Y64960D02*
X730D01*
X-3270Y56960D02*
X730D01*
X750392Y916750D02*
X754392D01*
X750392Y924750D02*
X754392D01*
X767937Y942960D02*
X775938D01*
Y947960D01*
X745938Y942960D02*
X753938D01*
X745938D02*
Y947960D01*
X-20130Y762540D02*
Y766540D01*
X-28130Y762540D02*
Y766540D01*
X-4890Y762540D02*
Y766540D01*
X-12890Y762540D02*
Y766540D01*
X10350Y762540D02*
Y766540D01*
X2350Y762540D02*
Y766540D01*
X25590Y762540D02*
Y766540D01*
X17590Y762540D02*
Y766540D01*
X677450Y609790D02*
X681450D01*
X677450Y601790D02*
X681450D01*
X650780Y445580D02*
X654780D01*
X650780Y453580D02*
X654780D01*
X685070Y561530D02*
X689070D01*
X685070Y553530D02*
X689070D01*
X-2547Y885920D02*
Y890920D01*
X-10547D02*
X-2547D01*
X-32547Y885920D02*
Y890920D01*
X-24547D01*
X790398Y840068D02*
X795398D01*
Y848068D01*
X790398Y870068D02*
X795398D01*
Y862068D02*
Y870068D01*
X264815Y958982D02*
X268815Y958982D01*
X264815Y950982D02*
X268815D01*
X264815Y974222D02*
X268815Y974222D01*
X264815Y966222D02*
X268815Y966222D01*
X254540Y1019942D02*
X258540D01*
X254540Y1011942D02*
X258540D01*
X184455Y983842D02*
Y987842D01*
X176455Y983842D02*
Y987842D01*
X907860Y903510D02*
Y907510D01*
X915860Y903510D02*
Y907510D01*
X148400Y903900D02*
Y907900D01*
X156400Y903900D02*
Y907900D01*
X1181740Y9860D02*
X1186740D01*
Y17860D01*
X1181740Y39860D02*
X1186740D01*
Y31860D02*
Y39860D01*
X1181740Y-61260D02*
X1186740D01*
Y-53260D01*
X1181740Y-31260D02*
X1186740D01*
Y-39260D02*
Y-31260D01*
X1181740Y-25700D02*
X1186740D01*
Y-17700D01*
X1181740Y4300D02*
X1186740D01*
Y-3700D02*
Y4300D01*
X801740Y-25700D02*
X806740D01*
Y-17700D01*
X801740Y4300D02*
X806740D01*
Y-3700D02*
Y4300D01*
X801740Y-61260D02*
X806740D01*
Y-53260D01*
X801740Y-31260D02*
X806740D01*
Y-39260D02*
Y-31260D01*
X801740Y9860D02*
X806740D01*
Y17860D01*
X801740Y39860D02*
X806740D01*
Y31860D02*
Y39860D01*
X421740Y-25700D02*
X426740D01*
Y-17700D01*
X421740Y4300D02*
X426740D01*
Y-3700D02*
Y4300D01*
X421740Y9860D02*
X426740D01*
Y17860D01*
X421740Y39860D02*
X426740D01*
Y31860D02*
Y39860D01*
X421740Y-61260D02*
X426740D01*
Y-53260D01*
X421740Y-31260D02*
X426740D01*
Y-39260D02*
Y-31260D01*
X41740Y-25700D02*
X46740D01*
Y-17700D01*
X41740Y4300D02*
X46740D01*
Y-3700D02*
Y4300D01*
X41740Y-61260D02*
X46740D01*
Y-53260D01*
X41740Y-31260D02*
X46740D01*
Y-39260D02*
Y-31260D01*
X41740Y9860D02*
X46740D01*
Y17860D01*
X41740Y39860D02*
X46740D01*
Y31860D02*
Y39860D01*
X761740Y769860D02*
X766740D01*
Y777860D01*
X761740Y799860D02*
X766740D01*
Y791860D02*
Y799860D01*
X761740Y734300D02*
X766740D01*
Y742300D01*
X761740Y764300D02*
X766740D01*
Y756300D02*
Y764300D01*
X761740Y698740D02*
X766740D01*
Y706740D01*
X761740Y728740D02*
X766740D01*
Y720740D02*
Y728740D01*
X611740Y698740D02*
X616740D01*
Y706740D01*
X611740Y728740D02*
X616740D01*
Y720740D02*
Y728740D01*
X611740Y769860D02*
X616740D01*
Y777860D01*
X611740Y799860D02*
X616740D01*
Y791860D02*
Y799860D01*
X611740Y734300D02*
X616740D01*
Y742300D01*
X611740Y764300D02*
X616740D01*
Y756300D02*
Y764300D01*
X461740Y769860D02*
X466740D01*
Y777860D01*
X461740Y799860D02*
X466740D01*
Y791860D02*
Y799860D01*
X461740Y734300D02*
X466740D01*
Y742300D01*
X461740Y764300D02*
X466740D01*
Y756300D02*
Y764300D01*
X461740Y698740D02*
X466740D01*
X466740Y706740D01*
X461740Y728740D02*
X466740D01*
Y720740D02*
Y728740D01*
D14*
X436458Y1014804D02*
X445241Y1023587D01*
X380259Y1127794D02*
X389042Y1136576D01*
X473636Y1051982D01*
X464854Y1043199D02*
X473636Y1051982D01*
X351864Y1099398D02*
X436458Y1014804D01*
X351864Y1099398D02*
X360647Y1108181D01*
D15*
X177826Y1061720D02*
X203225D01*
X177826Y1097280D02*
X203225D01*
X168936Y1069340D02*
Y1088390D01*
X212115Y1069340D02*
Y1088390D01*
D16*
X574548Y221996D02*
X616204D01*
X629920D02*
X664972D01*
X678688D02*
X685800D01*
X704596D02*
X711708D01*
X730504D02*
X737616D01*
X572516Y222504D02*
X616204D01*
X627888D02*
X667004D01*
X678688D02*
X685800D01*
X704596D02*
X712216D01*
X730504D02*
X737616D01*
X571500Y223012D02*
X616204D01*
X626872D02*
X668020D01*
X678688D02*
X685800D01*
X704088D02*
X712724D01*
X730504D02*
X737616D01*
X570484Y223520D02*
X616204D01*
X625856D02*
X669036D01*
X678688D02*
X685800D01*
X703580D02*
X712724D01*
X730504D02*
X737616D01*
X569468Y224028D02*
X616204D01*
X625348D02*
X669544D01*
X678688D02*
X685800D01*
X703072D02*
X713232D01*
X730504D02*
X737616D01*
X568960Y224536D02*
X616204D01*
X624840D02*
X670052D01*
X678688D02*
X685800D01*
X703072D02*
X713740D01*
X730504D02*
X737616D01*
X568452Y225044D02*
X616204D01*
X624332D02*
X670560D01*
X678688D02*
X685800D01*
X702564D02*
X714248D01*
X730504D02*
X737616D01*
X567944Y225552D02*
X616204D01*
X623824D02*
X671068D01*
X678688D02*
X685800D01*
X702056D02*
X714248D01*
X730504D02*
X737616D01*
X567436Y226060D02*
X616204D01*
X623824D02*
X671068D01*
X678688D02*
X685800D01*
X702056D02*
X714756D01*
X730504D02*
X737616D01*
X567436Y226568D02*
X616204D01*
X623316D02*
X671576D01*
X678688D02*
X685800D01*
X701548D02*
X715264D01*
X730504D02*
X737616D01*
X566928Y227076D02*
X616204D01*
X623316D02*
X671576D01*
X678688D02*
X685800D01*
X701040D02*
X715772D01*
X730504D02*
X737616D01*
X566928Y227584D02*
X616204D01*
X622808D02*
X672084D01*
X678688D02*
X685800D01*
X700532D02*
X715772D01*
X730504D02*
X737616D01*
X566928Y228092D02*
X577088D01*
X608584D02*
X616204D01*
X622808D02*
X632460D01*
X662432D02*
X672084D01*
X678688D02*
X685800D01*
X700532D02*
X716280D01*
X730504D02*
X737616D01*
X566420Y228600D02*
X575564D01*
X608584D02*
X616204D01*
X622808D02*
X631444D01*
X663448D02*
X672084D01*
X678688D02*
X685800D01*
X700024D02*
X716788D01*
X730504D02*
X737616D01*
X566420Y229108D02*
X575056D01*
X608584D02*
X616204D01*
X622808D02*
X630936D01*
X663956D02*
X672592D01*
X678688D02*
X685800D01*
X699516D02*
X716788D01*
X730504D02*
X737616D01*
X566420Y229616D02*
X574548D01*
X608584D02*
X616204D01*
X622300D02*
X630428D01*
X664464D02*
X672592D01*
X678688D02*
X685800D01*
X699008D02*
X707644D01*
X708152D02*
X717296D01*
X730504D02*
X737616D01*
X566420Y230124D02*
X574548D01*
X608584D02*
X616204D01*
X622300D02*
X630428D01*
X664464D02*
X672592D01*
X678688D02*
X685800D01*
X699008D02*
X707644D01*
X708660D02*
X717804D01*
X730504D02*
X737616D01*
X566420Y230632D02*
X574040D01*
X608584D02*
X616204D01*
X622300D02*
X630428D01*
X664464D02*
X672592D01*
X678688D02*
X685800D01*
X698500D02*
X707136D01*
X709168D02*
X718312D01*
X730504D02*
X737616D01*
X566420Y231140D02*
X574040D01*
X608584D02*
X616204D01*
X622300D02*
X630428D01*
X664464D02*
X672592D01*
X678688D02*
X685800D01*
X697992D02*
X706628D01*
X709168D02*
X718312D01*
X730504D02*
X737616D01*
X566420Y231648D02*
X574040D01*
X608584D02*
X616204D01*
X622300D02*
X630428D01*
X664464D02*
X672592D01*
X678688D02*
X685800D01*
X697992D02*
X706120D01*
X709676D02*
X718820D01*
X730504D02*
X737616D01*
X566420Y232156D02*
X574040D01*
X608584D02*
X616204D01*
X622300D02*
X630428D01*
X664464D02*
X672592D01*
X678688D02*
X685800D01*
X697484D02*
X706120D01*
X710184D02*
X719328D01*
X730504D02*
X737616D01*
X566420Y232664D02*
X574040D01*
X608584D02*
X616204D01*
X622300D02*
X630428D01*
X664464D02*
X672592D01*
X678688D02*
X685800D01*
X696976D02*
X705612D01*
X710692D02*
X719836D01*
X730504D02*
X737616D01*
X566420Y233172D02*
X574040D01*
X608584D02*
X616204D01*
X622300D02*
X630428D01*
X664464D02*
X672592D01*
X678688D02*
X685800D01*
X696468D02*
X705104D01*
X710692D02*
X719836D01*
X730504D02*
X737616D01*
X566420Y233680D02*
X574040D01*
X608584D02*
X616204D01*
X622300D02*
X630428D01*
X664464D02*
X672592D01*
X678688D02*
X685800D01*
X696468D02*
X705104D01*
X711200D02*
X720344D01*
X730504D02*
X737616D01*
X566420Y234188D02*
X574040D01*
X608584D02*
X616204D01*
X622300D02*
X630428D01*
X664464D02*
X672592D01*
X678688D02*
X685800D01*
X695960D02*
X704596D01*
X711708D02*
X720852D01*
X730504D02*
X737616D01*
X566420Y234696D02*
X574040D01*
X608584D02*
X616204D01*
X622300D02*
X630428D01*
X664464D02*
X672592D01*
X678688D02*
X685800D01*
X695452D02*
X704088D01*
X711708D02*
X720852D01*
X730504D02*
X737616D01*
X566420Y235204D02*
X574040D01*
X608584D02*
X616204D01*
X622300D02*
X630428D01*
X664464D02*
X672592D01*
X678688D02*
X685800D01*
X694944D02*
X703580D01*
X712216D02*
X721360D01*
X730504D02*
X737616D01*
X566420Y235712D02*
X574040D01*
X608584D02*
X616204D01*
X622300D02*
X630428D01*
X664464D02*
X672592D01*
X678688D02*
X685800D01*
X694944D02*
X703580D01*
X712724D02*
X721868D01*
X730504D02*
X737616D01*
X566420Y236220D02*
X574040D01*
X608584D02*
X616204D01*
X622300D02*
X630428D01*
X664464D02*
X672592D01*
X678688D02*
X685800D01*
X694436D02*
X703072D01*
X713232D02*
X722376D01*
X730504D02*
X737616D01*
X566420Y236728D02*
X574040D01*
X608584D02*
X616204D01*
X622300D02*
X630428D01*
X664464D02*
X672592D01*
X678688D02*
X685800D01*
X693928D02*
X702564D01*
X713232D02*
X722376D01*
X730504D02*
X737616D01*
X566420Y237236D02*
X574040D01*
X608584D02*
X616204D01*
X622300D02*
X630428D01*
X664464D02*
X672592D01*
X678688D02*
X685800D01*
X693928D02*
X702056D01*
X713740D02*
X722884D01*
X730504D02*
X737616D01*
X566420Y237744D02*
X574040D01*
X608584D02*
X616204D01*
X622300D02*
X630428D01*
X664464D02*
X672592D01*
X678688D02*
X685800D01*
X693420D02*
X702056D01*
X714248D02*
X723392D01*
X730504D02*
X737616D01*
X566420Y238252D02*
X574040D01*
X608584D02*
X616204D01*
X622300D02*
X630428D01*
X664464D02*
X672592D01*
X678688D02*
X685800D01*
X692912D02*
X701548D01*
X714248D02*
X723900D01*
X730504D02*
X737616D01*
X566420Y238760D02*
X574040D01*
X608584D02*
X616204D01*
X622300D02*
X630428D01*
X664464D02*
X672592D01*
X678688D02*
X685800D01*
X692404D02*
X701040D01*
X714756D02*
X723900D01*
X730504D02*
X737616D01*
X566420Y239268D02*
X574040D01*
X608584D02*
X616204D01*
X622300D02*
X630428D01*
X664464D02*
X672592D01*
X678688D02*
X685800D01*
X692404D02*
X701040D01*
X715264D02*
X724408D01*
X730504D02*
X737616D01*
X566420Y239776D02*
X574040D01*
X608584D02*
X616204D01*
X622300D02*
X630428D01*
X664464D02*
X672592D01*
X678688D02*
X685800D01*
X691896D02*
X700532D01*
X715772D02*
X724916D01*
X730504D02*
X737616D01*
X566420Y240284D02*
X574040D01*
X608584D02*
X616204D01*
X622300D02*
X630428D01*
X664464D02*
X672592D01*
X678688D02*
X685800D01*
X691388D02*
X700024D01*
X715772D02*
X725424D01*
X730504D02*
X737616D01*
X566420Y240792D02*
X574040D01*
X608584D02*
X616204D01*
X622300D02*
X630428D01*
X664464D02*
X672592D01*
X678688D02*
X685800D01*
X691388D02*
X699516D01*
X716280D02*
X725424D01*
X730504D02*
X737616D01*
X566420Y241300D02*
X574040D01*
X608584D02*
X616204D01*
X622300D02*
X630428D01*
X664464D02*
X672592D01*
X678688D02*
X685800D01*
X690880D02*
X699516D01*
X716788D02*
X725932D01*
X730504D02*
X737616D01*
X566420Y241808D02*
X574040D01*
X608584D02*
X616204D01*
X622300D02*
X630428D01*
X664464D02*
X672592D01*
X678688D02*
X685800D01*
X690372D02*
X699008D01*
X717296D02*
X726440D01*
X730504D02*
X737616D01*
X566420Y242316D02*
X574040D01*
X608584D02*
X616204D01*
X622300D02*
X630428D01*
X664464D02*
X672592D01*
X678688D02*
X685800D01*
X689864D02*
X698500D01*
X717296D02*
X726440D01*
X730504D02*
X737616D01*
X566420Y242824D02*
X574040D01*
X608584D02*
X616204D01*
X622300D02*
X630428D01*
X664464D02*
X672592D01*
X678688D02*
X685800D01*
X689864D02*
X698500D01*
X717804D02*
X726948D01*
X730504D02*
X737616D01*
X566420Y243332D02*
X574040D01*
X608584D02*
X616204D01*
X622300D02*
X630428D01*
X664464D02*
X672592D01*
X678688D02*
X685800D01*
X689356D02*
X697992D01*
X718312D02*
X727456D01*
X730504D02*
X737616D01*
X566420Y243840D02*
X574040D01*
X608584D02*
X616204D01*
X622300D02*
X630428D01*
X664464D02*
X672592D01*
X678688D02*
X685800D01*
X688848D02*
X697484D01*
X718312D02*
X727964D01*
X730504D02*
X737616D01*
X566420Y244348D02*
X574040D01*
X608584D02*
X616204D01*
X622300D02*
X630428D01*
X664464D02*
X672592D01*
X678688D02*
X685800D01*
X688340D02*
X696976D01*
X718820D02*
X727964D01*
X730504D02*
X737616D01*
X566420Y244856D02*
X574040D01*
X608584D02*
X616204D01*
X622300D02*
X630428D01*
X664464D02*
X672592D01*
X678688D02*
X685800D01*
X688340D02*
X696976D01*
X719328D02*
X728472D01*
X730504D02*
X737616D01*
X566420Y245364D02*
X574040D01*
X608584D02*
X616204D01*
X622300D02*
X630428D01*
X664464D02*
X672592D01*
X678688D02*
X685800D01*
X687832D02*
X696468D01*
X719836D02*
X728980D01*
X730504D02*
X737616D01*
X566420Y245872D02*
X574040D01*
X608584D02*
X616204D01*
X622300D02*
X630428D01*
X664464D02*
X672592D01*
X678688D02*
X685800D01*
X687324D02*
X695960D01*
X719836D02*
X729488D01*
X730504D02*
X737616D01*
X566420Y246380D02*
X574040D01*
X608584D02*
X616204D01*
X622300D02*
X630428D01*
X664464D02*
X672592D01*
X678688D02*
X685800D01*
X687324D02*
X695452D01*
X720344D02*
X729488D01*
X730504D02*
X737616D01*
X566420Y246888D02*
X574040D01*
X608584D02*
X616204D01*
X622300D02*
X630428D01*
X664464D02*
X672592D01*
X678688D02*
X685800D01*
X686816D02*
X695452D01*
X720852D02*
X729996D01*
X730504D02*
X737616D01*
X566420Y247396D02*
X574040D01*
X608584D02*
X616204D01*
X622300D02*
X630428D01*
X664464D02*
X672592D01*
X678688D02*
X685800D01*
X686308D02*
X694944D01*
X721360D02*
X737616D01*
X566420Y247904D02*
X574040D01*
X608584D02*
X616204D01*
X622300D02*
X630428D01*
X664464D02*
X672592D01*
X678688D02*
X694436D01*
X721360D02*
X737616D01*
X566420Y248412D02*
X574040D01*
X608584D02*
X616204D01*
X622300D02*
X630428D01*
X664464D02*
X672592D01*
X678688D02*
X694436D01*
X721868D02*
X737616D01*
X566420Y248920D02*
X574040D01*
X608584D02*
X616204D01*
X622300D02*
X630428D01*
X664464D02*
X672592D01*
X678688D02*
X693928D01*
X722376D02*
X737616D01*
X566420Y249428D02*
X574040D01*
X608584D02*
X616204D01*
X622300D02*
X630428D01*
X664464D02*
X672592D01*
X678688D02*
X693420D01*
X722376D02*
X737616D01*
X566420Y249936D02*
X574040D01*
X608584D02*
X616204D01*
X622300D02*
X630428D01*
X664464D02*
X672592D01*
X678688D02*
X692912D01*
X722884D02*
X737616D01*
X566420Y250444D02*
X574040D01*
X608584D02*
X616204D01*
X622300D02*
X630428D01*
X664464D02*
X672592D01*
X678688D02*
X692912D01*
X723392D02*
X737616D01*
X566420Y250952D02*
X574040D01*
X608584D02*
X616204D01*
X622300D02*
X630428D01*
X664464D02*
X672592D01*
X678688D02*
X692404D01*
X723900D02*
X737616D01*
X566420Y251460D02*
X574040D01*
X608584D02*
X616204D01*
X622300D02*
X630428D01*
X664464D02*
X672592D01*
X678688D02*
X691896D01*
X723900D02*
X737616D01*
X566420Y251968D02*
X574548D01*
X608584D02*
X616204D01*
X622300D02*
X630428D01*
X664464D02*
X672592D01*
X678688D02*
X691388D01*
X724408D02*
X737616D01*
X566420Y252476D02*
X574548D01*
X608584D02*
X616204D01*
X622300D02*
X630428D01*
X664464D02*
X672592D01*
X678688D02*
X691388D01*
X724916D02*
X737616D01*
X566420Y252984D02*
X575056D01*
X608584D02*
X616204D01*
X622808D02*
X630936D01*
X663956D02*
X672084D01*
X678688D02*
X690880D01*
X725424D02*
X737616D01*
X566928Y253492D02*
X576072D01*
X608584D02*
X616204D01*
X622808D02*
X631444D01*
X663448D02*
X672084D01*
X678688D02*
X690372D01*
X725424D02*
X737616D01*
X566928Y254000D02*
X577088D01*
X608584D02*
X616204D01*
X622808D02*
X632460D01*
X662432D02*
X672084D01*
X678688D02*
X690372D01*
X725932D02*
X737616D01*
X566928Y254508D02*
X616204D01*
X622808D02*
X672084D01*
X678688D02*
X689864D01*
X726440D02*
X737616D01*
X567436Y255016D02*
X616204D01*
X623316D02*
X671576D01*
X678688D02*
X689356D01*
X726440D02*
X737616D01*
X567436Y255524D02*
X616204D01*
X623316D02*
X671576D01*
X678688D02*
X688848D01*
X726948D02*
X737616D01*
X567944Y256032D02*
X616204D01*
X623824D02*
X671068D01*
X678688D02*
X688848D01*
X727456D02*
X737616D01*
X568452Y256540D02*
X616204D01*
X623824D02*
X671068D01*
X678688D02*
X688340D01*
X727964D02*
X737616D01*
X568452Y257048D02*
X616204D01*
X624332D02*
X670560D01*
X678688D02*
X687832D01*
X727964D02*
X737616D01*
X568960Y257556D02*
X616204D01*
X624840D02*
X670052D01*
X678688D02*
X687832D01*
X728472D02*
X737616D01*
X569976Y258064D02*
X616204D01*
X625348D02*
X669544D01*
X678688D02*
X687324D01*
X728980D02*
X737616D01*
X570484Y258572D02*
X616204D01*
X626364D02*
X668528D01*
X678688D02*
X686816D01*
X729488D02*
X737616D01*
X571500Y259080D02*
X616204D01*
X627380D02*
X668020D01*
X678688D02*
X686308D01*
X729488D02*
X737616D01*
X573024Y259588D02*
X616204D01*
X628396D02*
X666496D01*
X678688D02*
X686308D01*
X729996D02*
X737616D01*
X575056Y260096D02*
X616204D01*
X630428D02*
X664464D01*
X678688D02*
X685800D01*
X730504D02*
X737616D01*
X643128Y274828D02*
X660908D01*
X639572Y275336D02*
X664464D01*
X636524Y275844D02*
X667512D01*
X633984Y276352D02*
X670052D01*
X631952Y276860D02*
X672084D01*
X629920Y277368D02*
X674116D01*
X628396Y277876D02*
X675640D01*
X626364Y278384D02*
X677672D01*
X625348Y278892D02*
X678688D01*
X623824Y279400D02*
X680212D01*
X622300Y279908D02*
X681736D01*
X621284Y280416D02*
X682752D01*
X619760Y280924D02*
X684276D01*
X618744Y281432D02*
X685292D01*
X617728Y281940D02*
X686308D01*
X616712Y282448D02*
X687324D01*
X615188Y282956D02*
X688848D01*
X614680Y283464D02*
X689356D01*
X613664Y283972D02*
X690372D01*
X612648Y284480D02*
X691388D01*
X611632Y284988D02*
X692404D01*
X610616Y285496D02*
X693420D01*
X610108Y286004D02*
X693928D01*
X609092Y286512D02*
X694944D01*
X608076Y287020D02*
X695960D01*
X607568Y287528D02*
X644144D01*
X659892D02*
X696468D01*
X606552Y288036D02*
X640588D01*
X663448D02*
X697484D01*
X606044Y288544D02*
X638048D01*
X665988D02*
X697992D01*
X605028Y289052D02*
X635508D01*
X668528D02*
X699008D01*
X604520Y289560D02*
X633984D01*
X670052D02*
X699516D01*
X604012Y290068D02*
X631952D01*
X672084D02*
X700024D01*
X602996Y290576D02*
X630428D01*
X673608D02*
X701040D01*
X602488Y291084D02*
X628904D01*
X675132D02*
X701548D01*
X601980Y291592D02*
X627380D01*
X676656D02*
X702056D01*
X600964Y292100D02*
X626364D01*
X677672D02*
X703072D01*
X600456Y292608D02*
X624840D01*
X679196D02*
X703580D01*
X599948Y293116D02*
X623824D01*
X680212D02*
X704088D01*
X599440Y293624D02*
X622808D01*
X681228D02*
X704596D01*
X598424Y294132D02*
X621792D01*
X682244D02*
X705612D01*
X597916Y294640D02*
X620776D01*
X683260D02*
X706120D01*
X597408Y295148D02*
X619760D01*
X684276D02*
X706628D01*
X596900Y295656D02*
X618744D01*
X685292D02*
X707136D01*
X596392Y296164D02*
X617728D01*
X686308D02*
X707644D01*
X595884Y296672D02*
X617220D01*
X686816D02*
X708152D01*
X595376Y297180D02*
X616204D01*
X687832D02*
X708660D01*
X594868Y297688D02*
X615188D01*
X688848D02*
X709168D01*
X594360Y298196D02*
X614680D01*
X689356D02*
X709676D01*
X593852Y298704D02*
X613664D01*
X690372D02*
X710184D01*
X593344Y299212D02*
X613156D01*
X690880D02*
X710692D01*
X592836Y299720D02*
X612140D01*
X691896D02*
X711200D01*
X592328Y300228D02*
X611632D01*
X692404D02*
X711708D01*
X591820Y300736D02*
X610616D01*
X693420D02*
X712216D01*
X591312Y301244D02*
X610108D01*
X693928D02*
X712724D01*
X590804Y301752D02*
X609600D01*
X694436D02*
X713232D01*
X590296Y302260D02*
X609092D01*
X694944D02*
X713740D01*
X589788Y302768D02*
X608076D01*
X695960D02*
X714248D01*
X589788Y303276D02*
X607568D01*
X696468D02*
X714248D01*
X589280Y303784D02*
X607060D01*
X696976D02*
X714756D01*
X588772Y304292D02*
X606552D01*
X697484D02*
X715264D01*
X588264Y304800D02*
X606044D01*
X697992D02*
X715772D01*
X587756Y305308D02*
X605536D01*
X698500D02*
X716280D01*
X587248Y305816D02*
X605028D01*
X628396D02*
X675640D01*
X699008D02*
X716788D01*
X587248Y306324D02*
X604012D01*
X625856D02*
X678180D01*
X700024D02*
X716788D01*
X586740Y306832D02*
X603504D01*
X624332D02*
X679704D01*
X700532D02*
X717296D01*
X586232Y307340D02*
X602996D01*
X622808D02*
X681228D01*
X701040D02*
X717804D01*
X585724Y307848D02*
X602488D01*
X621792D02*
X682244D01*
X701548D02*
X718312D01*
X585724Y308356D02*
X601980D01*
X621284D02*
X683260D01*
X702056D02*
X718312D01*
X585216Y308864D02*
X601472D01*
X620268D02*
X683768D01*
X702564D02*
X718820D01*
X584708Y309372D02*
X601472D01*
X619760D02*
X684276D01*
X702564D02*
X719328D01*
X584708Y309880D02*
X600964D01*
X619252D02*
X684784D01*
X703072D02*
X719328D01*
X584200Y310388D02*
X600456D01*
X618744D02*
X685292D01*
X703580D02*
X719836D01*
X583692Y310896D02*
X599948D01*
X618236D02*
X685800D01*
X704088D02*
X720344D01*
X583692Y311404D02*
X599440D01*
X617728D02*
X686308D01*
X704596D02*
X720344D01*
X583184Y311912D02*
X598932D01*
X617728D02*
X686308D01*
X705104D02*
X720852D01*
X582676Y312420D02*
X598424D01*
X617220D02*
X686816D01*
X705612D02*
X721360D01*
X582676Y312928D02*
X597916D01*
X617220D02*
X686816D01*
X705612D02*
X721360D01*
X582168Y313436D02*
X597916D01*
X616712D02*
X687324D01*
X706120D02*
X721868D01*
X581660Y313944D02*
X597408D01*
X616712D02*
X687324D01*
X706628D02*
X722376D01*
X581660Y314452D02*
X596900D01*
X616712D02*
X630936D01*
X673100D02*
X687832D01*
X707136D02*
X722376D01*
X581152Y314960D02*
X596392D01*
X616204D02*
X629412D01*
X674624D02*
X687832D01*
X707644D02*
X722884D01*
X581152Y315468D02*
X596392D01*
X616204D02*
X628396D01*
X675640D02*
X687832D01*
X707644D02*
X722884D01*
X580644Y315976D02*
X595884D01*
X616204D02*
X627888D01*
X676148D02*
X687832D01*
X708152D02*
X723392D01*
X580644Y316484D02*
X595376D01*
X616204D02*
X627380D01*
X676656D02*
X687832D01*
X708660D02*
X723392D01*
X580136Y316992D02*
X595376D01*
X616204D02*
X627380D01*
X676656D02*
X688340D01*
X708660D02*
X723900D01*
X579628Y317500D02*
X594868D01*
X615696D02*
X627380D01*
X677164D02*
X688340D01*
X709168D02*
X724408D01*
X579628Y318008D02*
X594360D01*
X615696D02*
X626872D01*
X677164D02*
X688340D01*
X709676D02*
X724408D01*
X579120Y318516D02*
X593852D01*
X615696D02*
X626872D01*
X654812D02*
X662940D01*
X677164D02*
X688340D01*
X710184D02*
X724916D01*
X579120Y319024D02*
X593852D01*
X615696D02*
X626872D01*
X653796D02*
X663956D01*
X677164D02*
X688340D01*
X710184D02*
X724916D01*
X578612Y319532D02*
X593344D01*
X615696D02*
X626872D01*
X653288D02*
X663956D01*
X677164D02*
X688340D01*
X710692D02*
X725424D01*
X578612Y320040D02*
X593344D01*
X615696D02*
X626872D01*
X653288D02*
X664464D01*
X677164D02*
X688340D01*
X710692D02*
X725424D01*
X578104Y320548D02*
X592836D01*
X615696D02*
X626872D01*
X652780D02*
X664464D01*
X677164D02*
X688340D01*
X711200D02*
X725932D01*
X578104Y321056D02*
X592328D01*
X615696D02*
X626872D01*
X652780D02*
X664972D01*
X677164D02*
X688340D01*
X711708D02*
X725932D01*
X577596Y321564D02*
X592328D01*
X615696D02*
X626872D01*
X652780D02*
X664972D01*
X677164D02*
X688340D01*
X711708D02*
X726440D01*
X577596Y322072D02*
X591820D01*
X615696D02*
X626872D01*
X652780D02*
X664972D01*
X677164D02*
X688340D01*
X712216D02*
X726440D01*
X577088Y322580D02*
X591820D01*
X615696D02*
X626872D01*
X652780D02*
X664972D01*
X677164D02*
X688340D01*
X712216D02*
X726948D01*
X577088Y323088D02*
X591312D01*
X615696D02*
X626872D01*
X652780D02*
X664972D01*
X677164D02*
X688340D01*
X712724D02*
X726948D01*
X577088Y323596D02*
X591312D01*
X615696D02*
X626872D01*
X652780D02*
X664972D01*
X677164D02*
X688340D01*
X712724D02*
X726948D01*
X576580Y324104D02*
X590804D01*
X615696D02*
X626872D01*
X652780D02*
X664972D01*
X677164D02*
X688340D01*
X713232D02*
X727456D01*
X576580Y324612D02*
X590804D01*
X615696D02*
X626872D01*
X652780D02*
X664972D01*
X677164D02*
X688340D01*
X713232D02*
X727456D01*
X576072Y325120D02*
X590296D01*
X615696D02*
X626872D01*
X652780D02*
X664972D01*
X677164D02*
X688340D01*
X713740D02*
X727964D01*
X576072Y325628D02*
X589788D01*
X615696D02*
X626872D01*
X652780D02*
X664972D01*
X677164D02*
X688340D01*
X714248D02*
X727964D01*
X576072Y326136D02*
X589788D01*
X615696D02*
X626872D01*
X652780D02*
X664972D01*
X677164D02*
X688340D01*
X714248D02*
X727964D01*
X575564Y326644D02*
X589280D01*
X615696D02*
X626872D01*
X652780D02*
X664972D01*
X677164D02*
X688340D01*
X714756D02*
X728472D01*
X575564Y327152D02*
X589280D01*
X615696D02*
X626872D01*
X652780D02*
X664972D01*
X677164D02*
X688340D01*
X714756D02*
X728472D01*
X575056Y327660D02*
X589280D01*
X615696D02*
X626872D01*
X652780D02*
X664972D01*
X677164D02*
X688340D01*
X714756D02*
X728980D01*
X575056Y328168D02*
X588772D01*
X615696D02*
X626872D01*
X652780D02*
X664972D01*
X677164D02*
X688340D01*
X715264D02*
X728980D01*
X575056Y328676D02*
X588772D01*
X615696D02*
X626872D01*
X652780D02*
X664972D01*
X677164D02*
X688340D01*
X715264D02*
X728980D01*
X574548Y329184D02*
X588264D01*
X615696D02*
X626872D01*
X652780D02*
X664972D01*
X677164D02*
X688340D01*
X715772D02*
X729488D01*
X574548Y329692D02*
X588264D01*
X615696D02*
X626872D01*
X652780D02*
X664972D01*
X677164D02*
X688340D01*
X715772D02*
X729488D01*
X574548Y330200D02*
X587756D01*
X615696D02*
X626872D01*
X652780D02*
X664972D01*
X677164D02*
X688340D01*
X716280D02*
X729488D01*
X574040Y330708D02*
X587756D01*
X615696D02*
X626872D01*
X652780D02*
X664972D01*
X677164D02*
X688340D01*
X716280D02*
X729996D01*
X574040Y331216D02*
X587756D01*
X615696D02*
X626872D01*
X652780D02*
X664972D01*
X677164D02*
X688340D01*
X716280D02*
X729996D01*
X574040Y331724D02*
X587248D01*
X615696D02*
X626872D01*
X652780D02*
X664972D01*
X677164D02*
X688340D01*
X716788D02*
X729996D01*
X573532Y332232D02*
X587248D01*
X615696D02*
X626872D01*
X652780D02*
X664972D01*
X677164D02*
X688340D01*
X716788D02*
X730504D01*
X573532Y332740D02*
X586740D01*
X615696D02*
X626872D01*
X652780D02*
X664972D01*
X677164D02*
X688340D01*
X717296D02*
X730504D01*
X573532Y333248D02*
X586740D01*
X615696D02*
X626872D01*
X652780D02*
X664972D01*
X677164D02*
X688340D01*
X717296D02*
X730504D01*
X573024Y333756D02*
X586740D01*
X615696D02*
X626872D01*
X652780D02*
X664972D01*
X677164D02*
X688340D01*
X717296D02*
X731012D01*
X573024Y334264D02*
X586232D01*
X615696D02*
X626872D01*
X652780D02*
X664972D01*
X677164D02*
X688340D01*
X717804D02*
X731012D01*
X573024Y334772D02*
X586232D01*
X615696D02*
X626872D01*
X652780D02*
X664972D01*
X677164D02*
X688340D01*
X717804D02*
X731012D01*
X573024Y335280D02*
X586232D01*
X615696D02*
X626872D01*
X652780D02*
X664972D01*
X677164D02*
X688340D01*
X717804D02*
X731012D01*
X572516Y335788D02*
X585724D01*
X615696D02*
X626872D01*
X652780D02*
X664972D01*
X677164D02*
X688340D01*
X718312D02*
X731520D01*
X572516Y336296D02*
X585724D01*
X615696D02*
X626872D01*
X652780D02*
X664972D01*
X677164D02*
X688340D01*
X718312D02*
X731520D01*
X572516Y336804D02*
X585724D01*
X615696D02*
X626872D01*
X652780D02*
X664972D01*
X677164D02*
X688340D01*
X718312D02*
X731520D01*
X572516Y337312D02*
X585724D01*
X615696D02*
X626872D01*
X652780D02*
X664972D01*
X677164D02*
X688340D01*
X718312D02*
X731520D01*
X572008Y337820D02*
X585216D01*
X615696D02*
X626872D01*
X652780D02*
X664972D01*
X677164D02*
X688340D01*
X718820D02*
X732028D01*
X572008Y338328D02*
X585216D01*
X615696D02*
X626872D01*
X652780D02*
X664972D01*
X677164D02*
X688340D01*
X718820D02*
X732028D01*
X572008Y338836D02*
X585216D01*
X615696D02*
X626872D01*
X652780D02*
X664972D01*
X677164D02*
X688340D01*
X718820D02*
X732028D01*
X572008Y339344D02*
X584708D01*
X615696D02*
X626872D01*
X652780D02*
X664972D01*
X677164D02*
X688340D01*
X719328D02*
X732028D01*
X572008Y339852D02*
X584708D01*
X615696D02*
X626872D01*
X652780D02*
X664972D01*
X677164D02*
X688340D01*
X719328D02*
X732028D01*
X571500Y340360D02*
X584708D01*
X615696D02*
X626872D01*
X652780D02*
X664972D01*
X677164D02*
X688340D01*
X719328D02*
X732536D01*
X571500Y340868D02*
X584708D01*
X615696D02*
X626872D01*
X652780D02*
X664972D01*
X677164D02*
X688340D01*
X719328D02*
X732536D01*
X571500Y341376D02*
X584708D01*
X615696D02*
X626872D01*
X652780D02*
X664972D01*
X677164D02*
X688340D01*
X719328D02*
X732536D01*
X571500Y341884D02*
X584200D01*
X615696D02*
X626872D01*
X652780D02*
X664972D01*
X677164D02*
X688340D01*
X719836D02*
X732536D01*
X571500Y342392D02*
X584200D01*
X615696D02*
X626872D01*
X652780D02*
X664972D01*
X677164D02*
X688340D01*
X719836D02*
X732536D01*
X570992Y342900D02*
X584200D01*
X615696D02*
X626872D01*
X652780D02*
X664972D01*
X677164D02*
X688340D01*
X719836D02*
X733044D01*
X570992Y343408D02*
X584200D01*
X615696D02*
X626872D01*
X652780D02*
X664972D01*
X677164D02*
X688340D01*
X719836D02*
X733044D01*
X570992Y343916D02*
X583692D01*
X615696D02*
X626872D01*
X652780D02*
X664972D01*
X677164D02*
X688340D01*
X720344D02*
X733044D01*
X570992Y344424D02*
X583692D01*
X615696D02*
X626872D01*
X652780D02*
X664972D01*
X677164D02*
X688340D01*
X720344D02*
X733044D01*
X570992Y344932D02*
X583692D01*
X615696D02*
X626872D01*
X652780D02*
X664972D01*
X677164D02*
X688340D01*
X720344D02*
X733044D01*
X570992Y345440D02*
X583692D01*
X615696D02*
X626872D01*
X652780D02*
X664972D01*
X677164D02*
X688340D01*
X720344D02*
X733044D01*
X570992Y345948D02*
X583692D01*
X615696D02*
X626872D01*
X652780D02*
X664464D01*
X677164D02*
X688340D01*
X720344D02*
X733044D01*
X570484Y346456D02*
X583692D01*
X615696D02*
X626872D01*
X653288D02*
X664464D01*
X677164D02*
X688340D01*
X720344D02*
X733552D01*
X570484Y346964D02*
X583692D01*
X615696D02*
X626872D01*
X653288D02*
X664464D01*
X677164D02*
X688340D01*
X720344D02*
X733552D01*
X570484Y347472D02*
X583184D01*
X615696D02*
X626872D01*
X653796D02*
X663956D01*
X677164D02*
X688340D01*
X720852D02*
X733552D01*
X570484Y347980D02*
X583184D01*
X615696D02*
X626872D01*
X654304D02*
X663448D01*
X677164D02*
X688340D01*
X720852D02*
X733552D01*
X570484Y348488D02*
X583184D01*
X615696D02*
X626872D01*
X655320D02*
X661924D01*
X677164D02*
X688340D01*
X720852D02*
X733552D01*
X570484Y348996D02*
X583184D01*
X615696D02*
X626872D01*
X677164D02*
X688340D01*
X720852D02*
X733552D01*
X570484Y349504D02*
X583184D01*
X615696D02*
X626872D01*
X677164D02*
X688340D01*
X720852D02*
X733552D01*
X570484Y350012D02*
X583184D01*
X615696D02*
X627380D01*
X676656D02*
X688340D01*
X720852D02*
X733552D01*
X570484Y350520D02*
X583184D01*
X616204D02*
X627380D01*
X676656D02*
X688340D01*
X720852D02*
X733552D01*
X570484Y351028D02*
X583184D01*
X616204D02*
X627888D01*
X676148D02*
X687832D01*
X720852D02*
X733552D01*
X570484Y351536D02*
X583184D01*
X616204D02*
X628396D01*
X675640D02*
X687832D01*
X720852D02*
X733552D01*
X569976Y352044D02*
X583184D01*
X616204D02*
X628904D01*
X675132D02*
X687832D01*
X720852D02*
X734060D01*
X569976Y352552D02*
X582676D01*
X616204D02*
X629920D01*
X674116D02*
X687832D01*
X721360D02*
X734060D01*
X569976Y353060D02*
X582676D01*
X616712D02*
X633476D01*
X670560D02*
X687324D01*
X721360D02*
X734060D01*
X569976Y353568D02*
X582676D01*
X616712D02*
X687324D01*
X721360D02*
X734060D01*
X569976Y354076D02*
X582676D01*
X616712D02*
X687324D01*
X721360D02*
X734060D01*
X569976Y354584D02*
X582676D01*
X617220D02*
X686816D01*
X721360D02*
X734060D01*
X569976Y355092D02*
X582676D01*
X617220D02*
X686816D01*
X721360D02*
X734060D01*
X569976Y355600D02*
X582676D01*
X617728D02*
X686308D01*
X721360D02*
X734060D01*
X569976Y356108D02*
X582676D01*
X618236D02*
X685800D01*
X721360D02*
X734060D01*
X569976Y356616D02*
X582676D01*
X618236D02*
X685800D01*
X721360D02*
X734060D01*
X569976Y357124D02*
X582676D01*
X618744D02*
X685292D01*
X721360D02*
X734060D01*
X569976Y357632D02*
X582676D01*
X619252D02*
X684784D01*
X721360D02*
X734060D01*
X569976Y358140D02*
X582676D01*
X620268D02*
X684276D01*
X721360D02*
X734060D01*
X569976Y358648D02*
X582676D01*
X620776D02*
X683260D01*
X721360D02*
X734060D01*
X569976Y359156D02*
X582676D01*
X621284D02*
X682752D01*
X721360D02*
X734060D01*
X569976Y359664D02*
X582676D01*
X622300D02*
X681736D01*
X721360D02*
X734060D01*
X569976Y360172D02*
X582676D01*
X623316D02*
X680720D01*
X721360D02*
X734060D01*
X569976Y360680D02*
X583184D01*
X624840D02*
X679196D01*
X720852D02*
X734060D01*
X570484Y361188D02*
X583184D01*
X626872D02*
X677164D01*
X720852D02*
X733552D01*
X570484Y361696D02*
X583184D01*
X630428D02*
X673608D01*
X720852D02*
X733552D01*
X570484Y362204D02*
X583184D01*
X720852D02*
X733552D01*
X570484Y362712D02*
X583184D01*
X720852D02*
X733552D01*
X570484Y363220D02*
X583184D01*
X720852D02*
X733552D01*
X570484Y363728D02*
X583184D01*
X720852D02*
X733552D01*
X570484Y364236D02*
X583184D01*
X720852D02*
X733552D01*
X570484Y364744D02*
X583184D01*
X720852D02*
X733552D01*
X570484Y365252D02*
X583184D01*
X720852D02*
X733552D01*
X570484Y365760D02*
X583692D01*
X720344D02*
X733552D01*
X570484Y366268D02*
X583692D01*
X632460D02*
X671576D01*
X720344D02*
X733552D01*
X570992Y366776D02*
X583692D01*
X630936D02*
X673608D01*
X720344D02*
X733044D01*
X570992Y367284D02*
X583692D01*
X629412D02*
X674624D01*
X720344D02*
X733044D01*
X570992Y367792D02*
X583692D01*
X628396D02*
X675640D01*
X720344D02*
X733044D01*
X570992Y368300D02*
X583692D01*
X627380D02*
X676656D01*
X720344D02*
X733044D01*
X570992Y368808D02*
X583692D01*
X626872D02*
X677164D01*
X720344D02*
X733044D01*
X570992Y369316D02*
X584200D01*
X626364D02*
X677672D01*
X719836D02*
X733044D01*
X570992Y369824D02*
X584200D01*
X625856D02*
X678180D01*
X719836D02*
X733044D01*
X571500Y370332D02*
X584200D01*
X625348D02*
X678688D01*
X719836D02*
X732536D01*
X571500Y370840D02*
X584200D01*
X625348D02*
X679196D01*
X719836D02*
X732536D01*
X571500Y371348D02*
X584200D01*
X624840D02*
X679196D01*
X719836D02*
X732536D01*
X571500Y371856D02*
X584708D01*
X624332D02*
X679704D01*
X719328D02*
X732536D01*
X571500Y372364D02*
X584708D01*
X624332D02*
X679704D01*
X719328D02*
X732536D01*
X571500Y372872D02*
X584708D01*
X624332D02*
X679704D01*
X719328D02*
X732536D01*
X572008Y373380D02*
X584708D01*
X623824D02*
X680212D01*
X719328D02*
X732028D01*
X572008Y373888D02*
X585216D01*
X623824D02*
X680212D01*
X718820D02*
X732028D01*
X572008Y374396D02*
X585216D01*
X623824D02*
X680212D01*
X718820D02*
X732028D01*
X572008Y374904D02*
X585216D01*
X623824D02*
X680212D01*
X718820D02*
X732028D01*
X572516Y375412D02*
X585724D01*
X623824D02*
X680212D01*
X718312D02*
X731520D01*
X572516Y375920D02*
X585724D01*
X623824D02*
X680212D01*
X718312D02*
X731520D01*
X572516Y376428D02*
X585724D01*
X623824D02*
X653288D01*
X664464D02*
X680212D01*
X718312D02*
X731520D01*
X572516Y376936D02*
X585724D01*
X623824D02*
X652780D01*
X664972D02*
X680212D01*
X718312D02*
X731520D01*
X573024Y377444D02*
X586232D01*
X623824D02*
X651764D01*
X665480D02*
X680212D01*
X717804D02*
X731012D01*
X573024Y377952D02*
X586232D01*
X623824D02*
X651764D01*
X665988D02*
X680212D01*
X717804D02*
X731012D01*
X573024Y378460D02*
X586232D01*
X623824D02*
X651256D01*
X666496D02*
X680212D01*
X717804D02*
X731012D01*
X573024Y378968D02*
X586740D01*
X623824D02*
X650748D01*
X667004D02*
X680212D01*
X717296D02*
X731012D01*
X573532Y379476D02*
X586740D01*
X623824D02*
X650748D01*
X667004D02*
X680212D01*
X717296D02*
X730504D01*
X573532Y379984D02*
X586740D01*
X623824D02*
X650748D01*
X667004D02*
X680212D01*
X717296D02*
X730504D01*
X573532Y380492D02*
X587248D01*
X623824D02*
X650748D01*
X667004D02*
X680212D01*
X716788D02*
X730504D01*
X574040Y381000D02*
X587248D01*
X623824D02*
X650240D01*
X667004D02*
X680212D01*
X716788D02*
X729996D01*
X574040Y381508D02*
X587756D01*
X623824D02*
X650240D01*
X667004D02*
X680212D01*
X716280D02*
X729996D01*
X574040Y382016D02*
X587756D01*
X623824D02*
X650240D01*
X667004D02*
X680212D01*
X716280D02*
X729996D01*
X574548Y382524D02*
X587756D01*
X623824D02*
X650240D01*
X667004D02*
X680212D01*
X716280D02*
X729488D01*
X574548Y383032D02*
X588264D01*
X623824D02*
X650240D01*
X667004D02*
X680212D01*
X715772D02*
X729488D01*
X574548Y383540D02*
X588264D01*
X623824D02*
X650240D01*
X667004D02*
X680212D01*
X715772D02*
X729488D01*
X575056Y384048D02*
X588772D01*
X623824D02*
X630936D01*
X632968D02*
X650240D01*
X667004D02*
X680212D01*
X715264D02*
X728980D01*
X575056Y384556D02*
X588772D01*
X623824D02*
X630428D01*
X633476D02*
X650240D01*
X667004D02*
X680212D01*
X715264D02*
X728980D01*
X575056Y385064D02*
X589280D01*
X623824D02*
X629920D01*
X633984D02*
X650240D01*
X667004D02*
X680212D01*
X714756D02*
X728980D01*
X575564Y385572D02*
X589280D01*
X623824D02*
X629412D01*
X634492D02*
X650240D01*
X667004D02*
X680212D01*
X714756D02*
X728472D01*
X575564Y386080D02*
X589280D01*
X623824D02*
X629412D01*
X634492D02*
X650240D01*
X667004D02*
X680212D01*
X714756D02*
X728472D01*
X575564Y386588D02*
X589788D01*
X623824D02*
X629412D01*
X634492D02*
X650240D01*
X667004D02*
X680212D01*
X714248D02*
X728472D01*
X576072Y387096D02*
X589788D01*
X623824D02*
X629920D01*
X634492D02*
X650240D01*
X667004D02*
X680212D01*
X714248D02*
X727964D01*
X576072Y387604D02*
X590296D01*
X623824D02*
X629920D01*
X633984D02*
X650240D01*
X667004D02*
X680212D01*
X713740D02*
X727964D01*
X576580Y388112D02*
X590296D01*
X623824D02*
X630428D01*
X633476D02*
X650240D01*
X667004D02*
X680212D01*
X713740D02*
X727456D01*
X576580Y388620D02*
X590804D01*
X623824D02*
X631444D01*
X632460D02*
X650240D01*
X667004D02*
X680212D01*
X713232D02*
X727456D01*
X577088Y389128D02*
X590804D01*
X623824D02*
X650240D01*
X667004D02*
X680212D01*
X713232D02*
X726948D01*
X577088Y389636D02*
X591312D01*
X623824D02*
X650240D01*
X667004D02*
X680212D01*
X712724D02*
X726948D01*
X577088Y390144D02*
X591820D01*
X623824D02*
X650240D01*
X667004D02*
X680212D01*
X712216D02*
X726948D01*
X577596Y390652D02*
X591820D01*
X623824D02*
X650240D01*
X667004D02*
X680212D01*
X712216D02*
X726440D01*
X577596Y391160D02*
X592328D01*
X623824D02*
X650240D01*
X667004D02*
X680212D01*
X711708D02*
X726440D01*
X578104Y391668D02*
X592328D01*
X623824D02*
X650748D01*
X667004D02*
X680212D01*
X711708D02*
X725932D01*
X578104Y392176D02*
X592836D01*
X623824D02*
X650748D01*
X667004D02*
X680212D01*
X711200D02*
X725932D01*
X578612Y392684D02*
X592836D01*
X623824D02*
X650748D01*
X667004D02*
X680212D01*
X711200D02*
X725424D01*
X578612Y393192D02*
X593344D01*
X623824D02*
X650748D01*
X667004D02*
X680212D01*
X710692D02*
X725424D01*
X579120Y393700D02*
X593852D01*
X623824D02*
X651256D01*
X666496D02*
X680212D01*
X710184D02*
X724916D01*
X579120Y394208D02*
X593852D01*
X623824D02*
X651256D01*
X666496D02*
X680212D01*
X710184D02*
X724916D01*
X579628Y394716D02*
X594360D01*
X623824D02*
X651764D01*
X665988D02*
X680212D01*
X709676D02*
X724408D01*
X579628Y395224D02*
X594868D01*
X623824D02*
X652272D01*
X665480D02*
X680212D01*
X709168D02*
X724408D01*
X580136Y395732D02*
X594868D01*
X623824D02*
X652780D01*
X664464D02*
X680212D01*
X709168D02*
X723900D01*
X580136Y396240D02*
X595376D01*
X623824D02*
X654304D01*
X663448D02*
X680212D01*
X708660D02*
X723900D01*
X580644Y396748D02*
X595884D01*
X623824D02*
X655828D01*
X661924D02*
X680212D01*
X708152D02*
X723392D01*
X581152Y397256D02*
X596392D01*
X623824D02*
X655828D01*
X661924D02*
X680212D01*
X707644D02*
X722884D01*
X581152Y397764D02*
X596392D01*
X623824D02*
X655828D01*
X661924D02*
X680212D01*
X707644D02*
X722884D01*
X581660Y398272D02*
X596900D01*
X623824D02*
X655828D01*
X661924D02*
X680212D01*
X707136D02*
X722376D01*
X581660Y398780D02*
X597408D01*
X623824D02*
X655828D01*
X661924D02*
X680212D01*
X706628D02*
X722376D01*
X582168Y399288D02*
X597916D01*
X623824D02*
X655828D01*
X661924D02*
X680212D01*
X706120D02*
X721868D01*
X582676Y399796D02*
X597916D01*
X623824D02*
X655828D01*
X661924D02*
X680212D01*
X706120D02*
X721360D01*
X582676Y400304D02*
X598424D01*
X623824D02*
X655828D01*
X661924D02*
X680212D01*
X705612D02*
X721360D01*
X583184Y400812D02*
X598932D01*
X623824D02*
X655828D01*
X661924D02*
X680212D01*
X705104D02*
X720852D01*
X583184Y401320D02*
X599440D01*
X623824D02*
X655828D01*
X661924D02*
X680212D01*
X704596D02*
X720852D01*
X583692Y401828D02*
X599948D01*
X623824D02*
X655828D01*
X661924D02*
X680212D01*
X704088D02*
X720344D01*
X584200Y402336D02*
X600456D01*
X623824D02*
X655828D01*
X661924D02*
X680212D01*
X703580D02*
X719836D01*
X584708Y402844D02*
X600964D01*
X624332D02*
X655828D01*
X661924D02*
X680212D01*
X703072D02*
X719328D01*
X584708Y403352D02*
X600964D01*
X624332D02*
X655828D01*
X661924D02*
X679704D01*
X703072D02*
X719328D01*
X585216Y403860D02*
X601472D01*
X624332D02*
X655828D01*
X661924D02*
X679704D01*
X702564D02*
X718820D01*
X585724Y404368D02*
X601980D01*
X624840D02*
X655828D01*
X661924D02*
X679196D01*
X702056D02*
X718312D01*
X585724Y404876D02*
X602488D01*
X624840D02*
X655828D01*
X661924D02*
X679196D01*
X701548D02*
X718312D01*
X586232Y405384D02*
X602996D01*
X625348D02*
X655828D01*
X661924D02*
X678688D01*
X701040D02*
X717804D01*
X586740Y405892D02*
X603504D01*
X625856D02*
X655828D01*
X661924D02*
X678180D01*
X700532D02*
X717296D01*
X587248Y406400D02*
X604012D01*
X625856D02*
X655828D01*
X661924D02*
X678180D01*
X700024D02*
X716788D01*
X587248Y406908D02*
X604520D01*
X626872D02*
X655828D01*
X661924D02*
X677672D01*
X699516D02*
X716788D01*
X587756Y407416D02*
X605028D01*
X627380D02*
X655828D01*
X661924D02*
X676656D01*
X699008D02*
X716280D01*
X588264Y407924D02*
X606044D01*
X627888D02*
X655828D01*
X661924D02*
X676148D01*
X697992D02*
X715772D01*
X588772Y408432D02*
X606552D01*
X628904D02*
X655828D01*
X661924D02*
X675132D01*
X697484D02*
X715264D01*
X589280Y408940D02*
X607060D01*
X629920D02*
X655828D01*
X661924D02*
X674116D01*
X696976D02*
X714756D01*
X589280Y409448D02*
X607568D01*
X631952D02*
X655828D01*
X661924D02*
X672592D01*
X696468D02*
X714756D01*
X589788Y409956D02*
X608076D01*
X635000D02*
X655828D01*
X661924D02*
X669036D01*
X695960D02*
X714248D01*
X590296Y410464D02*
X608584D01*
X695452D02*
X713740D01*
X590804Y410972D02*
X609600D01*
X694436D02*
X713232D01*
X591312Y411480D02*
X610108D01*
X693928D02*
X712724D01*
X591820Y411988D02*
X610616D01*
X693420D02*
X712216D01*
X592328Y412496D02*
X611632D01*
X692404D02*
X711708D01*
X592836Y413004D02*
X612140D01*
X691896D02*
X711200D01*
X593344Y413512D02*
X612648D01*
X691388D02*
X710692D01*
X593852Y414020D02*
X613664D01*
X690372D02*
X710184D01*
X594360Y414528D02*
X614172D01*
X689864D02*
X709676D01*
X594868Y415036D02*
X615188D01*
X688848D02*
X709168D01*
X595376Y415544D02*
X616204D01*
X687832D02*
X708660D01*
X595884Y416052D02*
X616712D01*
X687324D02*
X708152D01*
X596392Y416560D02*
X617728D01*
X686308D02*
X707644D01*
X596900Y417068D02*
X618744D01*
X685292D02*
X707136D01*
X597408Y417576D02*
X619760D01*
X684276D02*
X706628D01*
X597916Y418084D02*
X620776D01*
X683260D02*
X706120D01*
X598424Y418592D02*
X621792D01*
X682244D02*
X705612D01*
X598932Y419100D02*
X622808D01*
X681228D02*
X705104D01*
X599948Y419608D02*
X623824D01*
X680212D02*
X704088D01*
X600456Y420116D02*
X624840D01*
X679196D02*
X703580D01*
X600964Y420624D02*
X625856D01*
X678180D02*
X703072D01*
X601472Y421132D02*
X627380D01*
X676656D02*
X702564D01*
X602488Y421640D02*
X628904D01*
X675132D02*
X701548D01*
X602996Y422148D02*
X630428D01*
X673608D02*
X701040D01*
X603504Y422656D02*
X631952D01*
X672084D02*
X700532D01*
X604520Y423164D02*
X633476D01*
X670560D02*
X699516D01*
X605028Y423672D02*
X635508D01*
X668528D02*
X699008D01*
X606044Y424180D02*
X637540D01*
X666496D02*
X697992D01*
X606552Y424688D02*
X640080D01*
X663956D02*
X697484D01*
X607568Y425196D02*
X643636D01*
X660400D02*
X696468D01*
X608076Y425704D02*
X695960D01*
X609092Y426212D02*
X694944D01*
X609600Y426720D02*
X694436D01*
X610616Y427228D02*
X693420D01*
X611632Y427736D02*
X692404D01*
X612648Y428244D02*
X691388D01*
X613156Y428752D02*
X690880D01*
X614172Y429260D02*
X689864D01*
X615188Y429768D02*
X688848D01*
X616204Y430276D02*
X687832D01*
X617220Y430784D02*
X686816D01*
X618744Y431292D02*
X685292D01*
X619760Y431800D02*
X684276D01*
X620776Y432308D02*
X683260D01*
X622300Y432816D02*
X681736D01*
X623316Y433324D02*
X680720D01*
X624840Y433832D02*
X679196D01*
X626364Y434340D02*
X677672D01*
X627888Y434848D02*
X676148D01*
X629920Y435356D02*
X674116D01*
X631444Y435864D02*
X672592D01*
X633984Y436372D02*
X670052D01*
X636016Y436880D02*
X668020D01*
X639064Y437388D02*
X664972D01*
X642620Y437896D02*
X661416D01*
D17*
X350520Y1301582D02*
Y1316817D01*
X345442Y1311739D01*
X340363Y1316817D01*
Y1301582D01*
X327667Y1316817D02*
X332746D01*
X335285Y1314278D01*
Y1304121D01*
X332746Y1301582D01*
X327667D01*
X325128Y1304121D01*
Y1314278D01*
X327667Y1316817D01*
X320050D02*
Y1301582D01*
X312432D01*
X309893Y1304121D01*
Y1314278D01*
X312432Y1316817D01*
X320050D01*
X289580D02*
Y1301582D01*
X281962D01*
X279423Y1304121D01*
Y1314278D01*
X281962Y1316817D01*
X289580D01*
X266727Y1301582D02*
X271805D01*
X274345Y1304121D01*
Y1309200D01*
X271805Y1311739D01*
X266727D01*
X264188Y1309200D01*
Y1306660D01*
X274345D01*
X259110Y1311739D02*
X254031Y1301582D01*
X248953Y1311739D01*
X243874Y1301582D02*
X238796D01*
X241335D01*
Y1311739D01*
X243874D01*
X221022D02*
X228639D01*
X231179Y1309200D01*
Y1304121D01*
X228639Y1301582D01*
X221022D01*
X208326D02*
X213404D01*
X215944Y1304121D01*
Y1309200D01*
X213404Y1311739D01*
X208326D01*
X205787Y1309200D01*
Y1306660D01*
X215944D01*
X200709Y1301582D02*
X193091D01*
X190552Y1304121D01*
X193091Y1306660D01*
X198169D01*
X200709Y1309200D01*
X198169Y1311739D01*
X190552D01*
X160082Y1314278D02*
X162621Y1316817D01*
X167699D01*
X170238Y1314278D01*
Y1304121D01*
X167699Y1301582D01*
X162621D01*
X160082Y1304121D01*
Y1309200D01*
X165160D01*
X155003Y1301582D02*
Y1311739D01*
X152464D01*
X149925Y1309200D01*
Y1301582D01*
Y1309200D01*
X147386Y1311739D01*
X144846Y1309200D01*
Y1301582D01*
X139768Y1316817D02*
Y1301582D01*
X132151D01*
X129612Y1304121D01*
Y1306660D01*
Y1309200D01*
X132151Y1311739D01*
X139768D01*
X124533Y1316817D02*
Y1301582D01*
Y1309200D01*
X114376D01*
Y1316817D01*
Y1301582D01*
X350520Y1292439D02*
Y1277204D01*
Y1284821D01*
X347981Y1287361D01*
X342902D01*
X340363Y1284821D01*
Y1277204D01*
X332746Y1289900D02*
Y1287361D01*
X335285D01*
X330207D01*
X332746D01*
Y1279743D01*
X330207Y1277204D01*
X320050Y1289900D02*
Y1287361D01*
X322589D01*
X317511D01*
X320050D01*
Y1279743D01*
X317511Y1277204D01*
X309893Y1272125D02*
Y1287361D01*
X302276D01*
X299736Y1284821D01*
Y1279743D01*
X302276Y1277204D01*
X309893D01*
X294658Y1287361D02*
X292119D01*
Y1284821D01*
X294658D01*
Y1287361D01*
Y1279743D02*
X292119D01*
Y1277204D01*
X294658D01*
Y1279743D01*
X281962Y1277204D02*
X271805Y1287361D01*
X266727Y1277204D02*
X256570Y1287361D01*
X251492Y1277204D02*
Y1287361D01*
X248953D01*
X246414Y1284821D01*
Y1277204D01*
Y1284821D01*
X243874Y1287361D01*
X241335Y1284821D01*
Y1277204D01*
X233718D02*
X228639D01*
X226100Y1279743D01*
Y1284821D01*
X228639Y1287361D01*
X233718D01*
X236257Y1284821D01*
Y1279743D01*
X233718Y1277204D01*
X210865Y1292439D02*
Y1277204D01*
X218483D01*
X221022Y1279743D01*
Y1284821D01*
X218483Y1287361D01*
X210865D01*
X195630Y1292439D02*
Y1277204D01*
X203248D01*
X205787Y1279743D01*
Y1284821D01*
X203248Y1287361D01*
X195630D01*
X182934Y1277204D02*
X188013D01*
X190552Y1279743D01*
Y1284821D01*
X188013Y1287361D01*
X182934D01*
X180395Y1284821D01*
Y1282282D01*
X190552D01*
X175317Y1287361D02*
X170238Y1277204D01*
X165160Y1287361D01*
X160082Y1277204D02*
X155003D01*
X157542D01*
Y1287361D01*
X160082D01*
X137229D02*
X144846D01*
X147386Y1284821D01*
Y1279743D01*
X144846Y1277204D01*
X137229D01*
X124533D02*
X129612D01*
X132151Y1279743D01*
Y1284821D01*
X129612Y1287361D01*
X124533D01*
X121994Y1284821D01*
Y1282282D01*
X132151D01*
X116916Y1277204D02*
X109298D01*
X106759Y1279743D01*
X109298Y1282282D01*
X114376D01*
X116916Y1284821D01*
X114376Y1287361D01*
X106759D01*
X101680Y1277204D02*
Y1279743D01*
X99141D01*
Y1277204D01*
X101680D01*
X78828Y1287361D02*
X86445D01*
X88985Y1284821D01*
Y1279743D01*
X86445Y1277204D01*
X78828D01*
X71210D02*
X66132D01*
X63593Y1279743D01*
Y1284821D01*
X66132Y1287361D01*
X71210D01*
X73750Y1284821D01*
Y1279743D01*
X71210Y1277204D01*
X58514D02*
Y1287361D01*
X55975D01*
X53436Y1284821D01*
Y1277204D01*
Y1284821D01*
X50897Y1287361D01*
X48358Y1284821D01*
Y1277204D01*
X345442Y1223369D02*
X350520D01*
Y1238604D01*
X345442D01*
X337824D02*
Y1223369D01*
X330207D01*
X327667Y1225909D01*
Y1236065D01*
X330207Y1238604D01*
X337824D01*
X322589D02*
X312432Y1223369D01*
Y1238604D02*
X322589Y1223369D01*
X307354Y1230987D02*
X297197D01*
X281962Y1238604D02*
X292119D01*
Y1223369D01*
X281962D01*
X292119Y1230987D02*
X287041D01*
X276884Y1238604D02*
Y1223369D01*
X266727D01*
X251492Y1238604D02*
X261649D01*
Y1223369D01*
X251492D01*
X261649Y1230987D02*
X256570D01*
X246414D02*
X236257D01*
X231179Y1236065D02*
X228639Y1238604D01*
X223561D01*
X221022Y1236065D01*
Y1225909D01*
X223561Y1223369D01*
X228639D01*
X231179Y1225909D01*
Y1236065D01*
X215944D02*
X213404Y1238604D01*
X208326D01*
X205787Y1236065D01*
Y1225909D01*
X208326Y1223369D01*
X213404D01*
X215944Y1225909D01*
Y1236065D01*
X190552Y1223369D02*
X200709D01*
X190552Y1233526D01*
Y1236065D01*
X193091Y1238604D01*
X198169D01*
X200709Y1236065D01*
X185473Y1223369D02*
X180395D01*
Y1238604D01*
X185473D01*
X350520Y1214226D02*
Y1198991D01*
X342902D01*
X340363Y1201531D01*
Y1211687D01*
X342902Y1214226D01*
X350520D01*
X335285Y1209148D02*
Y1201531D01*
X332746Y1198991D01*
X325128D01*
Y1209148D01*
X317511Y1198991D02*
X312432D01*
X309893Y1201531D01*
Y1206609D01*
X312432Y1209148D01*
X317511D01*
X320050Y1206609D01*
Y1201531D01*
X317511Y1198991D01*
X289580Y1214226D02*
X279423Y1198991D01*
Y1214226D02*
X289580Y1198991D01*
X259110Y1206609D02*
X248953D01*
X218483Y1211687D02*
X221022Y1214226D01*
X226100D01*
X228639Y1211687D01*
Y1201531D01*
X226100Y1198991D01*
X221022D01*
X218483Y1201531D01*
X210865Y1198991D02*
X205787D01*
X203248Y1201531D01*
Y1206609D01*
X205787Y1209148D01*
X210865D01*
X213404Y1206609D01*
Y1201531D01*
X210865Y1198991D01*
X198169D02*
Y1209148D01*
X190552D01*
X188013Y1206609D01*
Y1198991D01*
X180395Y1211687D02*
Y1209148D01*
X182934D01*
X177856D01*
X180395D01*
Y1201531D01*
X177856Y1198991D01*
X170238Y1209148D02*
Y1198991D01*
Y1204070D01*
X167699Y1206609D01*
X165160Y1209148D01*
X162621D01*
X152464Y1198991D02*
X147386D01*
X144846Y1201531D01*
Y1206609D01*
X147386Y1209148D01*
X152464D01*
X155003Y1206609D01*
Y1201531D01*
X152464Y1198991D01*
X139768D02*
X134690D01*
X137229D01*
Y1214226D01*
X139768D01*
X127072Y1198991D02*
X121994D01*
X124533D01*
Y1214226D01*
X127072D01*
X106759Y1198991D02*
X111837D01*
X114376Y1201531D01*
Y1206609D01*
X111837Y1209148D01*
X106759D01*
X104220Y1206609D01*
Y1204070D01*
X114376D01*
X99141Y1209148D02*
Y1198991D01*
Y1204070D01*
X96602Y1206609D01*
X94063Y1209148D01*
X91524D01*
X68671Y1214226D02*
Y1198991D01*
X61054D01*
X58514Y1201531D01*
Y1204070D01*
X61054Y1206609D01*
X68671D01*
X61054D01*
X58514Y1209148D01*
Y1211687D01*
X61054Y1214226D01*
X68671D01*
X50897Y1198991D02*
X45819D01*
X43279Y1201531D01*
Y1206609D01*
X45819Y1209148D01*
X50897D01*
X53436Y1206609D01*
Y1201531D01*
X50897Y1198991D01*
X35662Y1209148D02*
X30584D01*
X28044Y1206609D01*
Y1198991D01*
X35662D01*
X38201Y1201531D01*
X35662Y1204070D01*
X28044D01*
X22966Y1209148D02*
Y1198991D01*
Y1204070D01*
X20427Y1206609D01*
X17888Y1209148D01*
X15348D01*
X-2426Y1214226D02*
Y1198991D01*
X5192D01*
X7731Y1201531D01*
Y1206609D01*
X5192Y1209148D01*
X-2426D01*
X350520Y1174613D02*
Y1189848D01*
X342902D01*
X340363Y1187309D01*
Y1182231D01*
X342902Y1179691D01*
X350520D01*
X345442D02*
X340363Y1174613D01*
X327667D02*
X332746D01*
X335285Y1177152D01*
Y1182231D01*
X332746Y1184770D01*
X327667D01*
X325128Y1182231D01*
Y1179691D01*
X335285D01*
X320050Y1184770D02*
X314972Y1174613D01*
X309893Y1184770D01*
X304815D02*
X302276D01*
Y1182231D01*
X304815D01*
Y1184770D01*
Y1177152D02*
X302276D01*
Y1174613D01*
X304815D01*
Y1177152D01*
X266727Y1174613D02*
X276884D01*
X266727Y1184770D01*
Y1187309D01*
X269266Y1189848D01*
X274345D01*
X276884Y1187309D01*
X261649D02*
X259110Y1189848D01*
X254031D01*
X251492Y1187309D01*
Y1177152D01*
X254031Y1174613D01*
X259110D01*
X261649Y1177152D01*
Y1187309D01*
X246414Y1174613D02*
X241335D01*
X243874D01*
Y1189848D01*
X246414Y1187309D01*
X233718Y1177152D02*
X231179Y1174613D01*
X226100D01*
X223561Y1177152D01*
Y1187309D01*
X226100Y1189848D01*
X231179D01*
X233718Y1187309D01*
Y1184770D01*
X231179Y1182231D01*
X223561D01*
X218483Y1174613D02*
Y1177152D01*
X215944D01*
Y1174613D01*
X218483D01*
X205787Y1187309D02*
X203248Y1189848D01*
X198169D01*
X195630Y1187309D01*
Y1177152D01*
X198169Y1174613D01*
X203248D01*
X205787Y1177152D01*
Y1187309D01*
X190552D02*
X188013Y1189848D01*
X182934D01*
X180395Y1187309D01*
Y1184770D01*
X182934Y1182231D01*
X185473D01*
X182934D01*
X180395Y1179691D01*
Y1177152D01*
X182934Y1174613D01*
X188013D01*
X190552Y1177152D01*
X175317Y1174613D02*
Y1177152D01*
X172778D01*
Y1174613D01*
X175317D01*
X162621D02*
X157542D01*
X160082D01*
Y1189848D01*
X162621Y1187309D01*
X139768Y1174613D02*
X149925D01*
X139768Y1184770D01*
Y1187309D01*
X142307Y1189848D01*
X147386D01*
X149925Y1187309D01*
D18*
X806368Y1276452D02*
X805119Y1275202D01*
X802620D01*
X801370Y1276452D01*
Y1281450D01*
X802620Y1282700D01*
X805119D01*
X806368Y1281450D01*
X808868Y1276452D02*
X810117Y1275202D01*
X812616D01*
X813866Y1276452D01*
Y1277702D01*
X812616Y1278951D01*
X811367D01*
X812616D01*
X813866Y1280201D01*
Y1281450D01*
X812616Y1282700D01*
X810117D01*
X808868Y1281450D01*
X821364Y1275202D02*
X816365D01*
Y1278951D01*
X818864Y1277702D01*
X820114D01*
X821364Y1278951D01*
Y1281450D01*
X820114Y1282700D01*
X817615D01*
X816365Y1281450D01*
X745408Y1313282D02*
X744159Y1312032D01*
X741660D01*
X740410Y1313282D01*
Y1318280D01*
X741660Y1319530D01*
X744159D01*
X745408Y1318280D01*
X747908Y1313282D02*
X749157Y1312032D01*
X751656D01*
X752906Y1313282D01*
Y1314532D01*
X751656Y1315781D01*
X750407D01*
X751656D01*
X752906Y1317031D01*
Y1318280D01*
X751656Y1319530D01*
X749157D01*
X747908Y1318280D01*
X759154Y1319530D02*
Y1312032D01*
X755405Y1315781D01*
X760404D01*
X514018Y994024D02*
Y995791D01*
X515785Y997558D01*
X517552D01*
X521086Y994024D01*
Y992256D01*
X519319Y990489D01*
X517552D01*
X512250Y992256D02*
X510483D01*
X508716Y990489D01*
Y988722D01*
X509600Y987838D01*
X511367D01*
X512250Y988722D01*
X511367Y987838D01*
X511367Y986071D01*
X512250Y985188D01*
X514018D01*
X515785Y986955D01*
Y988722D01*
X506949Y986955D02*
X505182D01*
X503414Y985188D01*
Y983420D01*
X504298Y982537D01*
X506065D01*
X506949Y983420D01*
X506065Y982537D01*
Y980770D01*
X506949Y979886D01*
X508716D01*
X510483Y981653D01*
Y983420D01*
X715396Y945576D02*
X713629D01*
X711862Y947344D01*
Y949111D01*
X715396Y952645D01*
X717164D01*
X718931Y950878D01*
Y949111D01*
X717164Y943809D02*
Y942042D01*
X718931Y940275D01*
X720698D01*
X721582Y941159D01*
Y942926D01*
X720698Y943809D01*
X721582Y942926D01*
X723349Y942926D01*
X724232Y943809D01*
Y945576D01*
X722465Y947344D01*
X720698D01*
X730418Y939391D02*
X726883Y942926D01*
Y935857D01*
X726000Y934973D01*
X724232D01*
X722465Y936740D01*
Y938508D01*
X1160397Y40115D02*
Y47613D01*
X1156648D01*
X1155399Y46363D01*
Y43864D01*
X1156648Y42615D01*
X1160397D01*
X1157898D02*
X1155399Y40115D01*
X1149151D02*
Y47613D01*
X1152899Y43864D01*
X1147901D01*
X1140404Y47613D02*
X1142903Y46363D01*
X1145402Y43864D01*
Y41365D01*
X1144152Y40115D01*
X1141653D01*
X1140404Y41365D01*
Y42615D01*
X1141653Y43864D01*
X1145402D01*
X1132906Y46363D02*
X1134156Y47613D01*
X1136655D01*
X1137904Y46363D01*
Y41365D01*
X1136655Y40115D01*
X1134156D01*
X1132906Y41365D01*
Y43864D01*
X1135405D01*
X770890Y72390D02*
Y79888D01*
X767141D01*
X765892Y78638D01*
Y76139D01*
X767141Y74889D01*
X770890D01*
X768391D02*
X765892Y72390D01*
X759644D02*
Y79888D01*
X763392Y76139D01*
X758394D01*
X750896Y79888D02*
X753396Y78638D01*
X755895Y76139D01*
Y73640D01*
X754645Y72390D01*
X752146D01*
X750896Y73640D01*
Y74889D01*
X752146Y76139D01*
X755895D01*
X743399Y79888D02*
X748397D01*
Y76139D01*
X745898D01*
X748397D01*
Y72390D01*
X391160Y73660D02*
Y81158D01*
X387411D01*
X386162Y79908D01*
Y77409D01*
X387411Y76159D01*
X391160D01*
X388661D02*
X386162Y73660D01*
X379914D02*
Y81158D01*
X383662Y77409D01*
X378664D01*
X371166Y81158D02*
X373666Y79908D01*
X376165Y77409D01*
Y74910D01*
X374915Y73660D01*
X372416D01*
X371166Y74910D01*
Y76159D01*
X372416Y77409D01*
X376165D01*
X363669Y81158D02*
X368667D01*
Y73660D01*
X363669D01*
X368667Y77409D02*
X366168D01*
X11430Y73660D02*
Y81158D01*
X7681D01*
X6432Y79908D01*
Y77409D01*
X7681Y76159D01*
X11430D01*
X8931D02*
X6432Y73660D01*
X184D02*
Y81158D01*
X3932Y77409D01*
X-1066D01*
X-8564Y81158D02*
X-6064Y79908D01*
X-3565Y77409D01*
Y74910D01*
X-4815Y73660D01*
X-7314D01*
X-8564Y74910D01*
Y76159D01*
X-7314Y77409D01*
X-3565D01*
X-11063Y81158D02*
Y73660D01*
X-14812D01*
X-16061Y74910D01*
Y79908D01*
X-14812Y81158D01*
X-11063D01*
X717550Y781050D02*
X710052D01*
Y777301D01*
X711302Y776052D01*
X713801D01*
X715051Y777301D01*
Y781050D01*
Y778551D02*
X717550Y776052D01*
Y769804D02*
X710052D01*
X713801Y773552D01*
Y768554D01*
X710052Y761056D02*
X711302Y763556D01*
X713801Y766055D01*
X716300D01*
X717550Y764805D01*
Y762306D01*
X716300Y761056D01*
X715051D01*
X713801Y762306D01*
Y766055D01*
X711302Y753559D02*
X710052Y754808D01*
Y757308D01*
X711302Y758557D01*
X716300D01*
X717550Y757308D01*
Y754808D01*
X716300Y753559D01*
X631590Y657860D02*
Y665358D01*
X627841D01*
X626592Y664108D01*
Y661609D01*
X627841Y660359D01*
X631590D01*
X629091D02*
X626592Y657860D01*
X620344D02*
Y665358D01*
X624092Y661609D01*
X619094D01*
X611596Y665358D02*
X614096Y664108D01*
X616595Y661609D01*
Y659110D01*
X615345Y657860D01*
X612846D01*
X611596Y659110D01*
Y660359D01*
X612846Y661609D01*
X616595D01*
X609097Y665358D02*
Y657860D01*
X605348D01*
X604099Y659110D01*
Y660359D01*
X605348Y661609D01*
X609097D01*
X605348D01*
X604099Y662858D01*
Y664108D01*
X605348Y665358D01*
X609097D01*
X411480Y802394D02*
Y809891D01*
X407731D01*
X406482Y808642D01*
Y806142D01*
X407731Y804893D01*
X411480D01*
X408981D02*
X406482Y802394D01*
X400234D02*
Y809891D01*
X403982Y806142D01*
X398984D01*
X391486Y809891D02*
X393986Y808642D01*
X396485Y806142D01*
Y803643D01*
X395235Y802394D01*
X392736D01*
X391486Y803643D01*
Y804893D01*
X392736Y806142D01*
X396485D01*
X388987Y802394D02*
Y807392D01*
X386488Y809891D01*
X383989Y807392D01*
Y802394D01*
Y806142D01*
X388987D01*
X1125220Y63500D02*
Y70998D01*
X1121471D01*
X1120222Y69748D01*
Y67249D01*
X1121471Y65999D01*
X1125220D01*
X1122721D02*
X1120222Y63500D01*
X1112724D02*
X1117722D01*
X1112724Y68498D01*
Y69748D01*
X1113974Y70998D01*
X1116473D01*
X1117722Y69748D01*
X1110225Y70998D02*
X1105226D01*
Y69748D01*
X1110225Y64750D01*
Y63500D01*
X1097729Y69748D02*
X1098978Y70998D01*
X1101478D01*
X1102727Y69748D01*
Y64750D01*
X1101478Y63500D01*
X1098978D01*
X1097729Y64750D01*
Y67249D01*
X1100228D01*
X752079Y-17780D02*
X744582D01*
Y-21529D01*
X745831Y-22778D01*
X748330D01*
X749580Y-21529D01*
Y-17780D01*
Y-20279D02*
X752079Y-22778D01*
Y-30276D02*
Y-25278D01*
X747081Y-30276D01*
X745831D01*
X744582Y-29026D01*
Y-26527D01*
X745831Y-25278D01*
X744582Y-32775D02*
Y-37774D01*
X745831D01*
X750829Y-32775D01*
X752079D01*
X744582Y-45271D02*
Y-40273D01*
X748330D01*
Y-42772D01*
Y-40273D01*
X752079D01*
X370840Y-16221D02*
X363342D01*
Y-19970D01*
X364592Y-21220D01*
X367091D01*
X368341Y-19970D01*
Y-16221D01*
Y-18721D02*
X370840Y-21220D01*
Y-28717D02*
Y-23719D01*
X365842Y-28717D01*
X364592D01*
X363342Y-27468D01*
Y-24969D01*
X364592Y-23719D01*
X363342Y-31216D02*
Y-36215D01*
X364592D01*
X369590Y-31216D01*
X370840D01*
X363342Y-43713D02*
Y-38714D01*
X370840D01*
Y-43713D01*
X367091Y-38714D02*
Y-41213D01*
X-7620Y-16510D02*
X-15118D01*
Y-20259D01*
X-13868Y-21508D01*
X-11369D01*
X-10119Y-20259D01*
Y-16510D01*
Y-19009D02*
X-7620Y-21508D01*
Y-29006D02*
Y-24008D01*
X-12618Y-29006D01*
X-13868D01*
X-15118Y-27756D01*
Y-25257D01*
X-13868Y-24008D01*
X-15118Y-31505D02*
Y-36504D01*
X-13868D01*
X-8870Y-31505D01*
X-7620D01*
X-15118Y-39003D02*
X-7620D01*
Y-42752D01*
X-8870Y-44001D01*
X-13868D01*
X-15118Y-42752D01*
Y-39003D01*
X782320Y659130D02*
Y666628D01*
X778571D01*
X777322Y665378D01*
Y662879D01*
X778571Y661629D01*
X782320D01*
X779821D02*
X777322Y659130D01*
X769824D02*
X774822D01*
X769824Y664128D01*
Y665378D01*
X771074Y666628D01*
X773573D01*
X774822Y665378D01*
X767325Y666628D02*
X762326D01*
Y665378D01*
X767325Y660380D01*
Y659130D01*
X754829Y665378D02*
X756078Y666628D01*
X758578D01*
X759827Y665378D01*
Y660380D01*
X758578Y659130D01*
X756078D01*
X754829Y660380D01*
X666750Y657860D02*
Y665358D01*
X663001D01*
X661752Y664108D01*
Y661609D01*
X663001Y660359D01*
X666750D01*
X664251D02*
X661752Y657860D01*
X654254D02*
X659252D01*
X654254Y662858D01*
Y664108D01*
X655504Y665358D01*
X658003D01*
X659252Y664108D01*
X651755Y665358D02*
X646756D01*
Y664108D01*
X651755Y659110D01*
Y657860D01*
X644257Y665358D02*
Y657860D01*
X640508D01*
X639259Y659110D01*
Y660359D01*
X640508Y661609D01*
X644257D01*
X640508D01*
X639259Y662858D01*
Y664108D01*
X640508Y665358D01*
X644257D01*
X412750Y770890D02*
Y778388D01*
X409001D01*
X407752Y777138D01*
Y774639D01*
X409001Y773389D01*
X412750D01*
X410251D02*
X407752Y770890D01*
X400254D02*
X405252D01*
X400254Y775888D01*
Y777138D01*
X401504Y778388D01*
X404003D01*
X405252Y777138D01*
X397755Y778388D02*
X392756D01*
Y777138D01*
X397755Y772140D01*
Y770890D01*
X390257D02*
Y775888D01*
X387758Y778388D01*
X385259Y775888D01*
Y770890D01*
Y774639D01*
X390257D01*
X1101090Y40115D02*
Y47613D01*
X1097341D01*
X1096092Y46363D01*
Y43864D01*
X1097341Y42615D01*
X1101090D01*
X1098591D02*
X1096092Y40115D01*
X1088594D02*
X1093592D01*
X1088594Y45114D01*
Y46363D01*
X1089844Y47613D01*
X1092343D01*
X1093592Y46363D01*
X1082346Y40115D02*
Y47613D01*
X1086095Y43864D01*
X1081096D01*
X1073599Y46363D02*
X1074848Y47613D01*
X1077348D01*
X1078597Y46363D01*
Y41365D01*
X1077348Y40115D01*
X1074848D01*
X1073599Y41365D01*
Y43864D01*
X1076098D01*
X732790Y72390D02*
Y79888D01*
X729041D01*
X727792Y78638D01*
Y76139D01*
X729041Y74889D01*
X732790D01*
X730291D02*
X727792Y72390D01*
X720294D02*
X725292D01*
X720294Y77388D01*
Y78638D01*
X721544Y79888D01*
X724043D01*
X725292Y78638D01*
X714046Y72390D02*
Y79888D01*
X717795Y76139D01*
X712796D01*
X705299Y79888D02*
X710297D01*
Y76139D01*
X707798D01*
X710297D01*
Y72390D01*
X354330Y73660D02*
Y81158D01*
X350581D01*
X349332Y79908D01*
Y77409D01*
X350581Y76159D01*
X354330D01*
X351831D02*
X349332Y73660D01*
X341834D02*
X346832D01*
X341834Y78658D01*
Y79908D01*
X343084Y81158D01*
X345583D01*
X346832Y79908D01*
X335586Y73660D02*
Y81158D01*
X339335Y77409D01*
X334336D01*
X326839Y81158D02*
X331837D01*
Y73660D01*
X326839D01*
X331837Y77409D02*
X329338D01*
X-26670Y73660D02*
Y81158D01*
X-30419D01*
X-31668Y79908D01*
Y77409D01*
X-30419Y76159D01*
X-26670D01*
X-29169D02*
X-31668Y73660D01*
X-39166D02*
X-34168D01*
X-39166Y78658D01*
Y79908D01*
X-37916Y81158D01*
X-35417D01*
X-34168Y79908D01*
X-45414Y73660D02*
Y81158D01*
X-41665Y77409D01*
X-46664D01*
X-49163Y81158D02*
Y73660D01*
X-52912D01*
X-54161Y74910D01*
Y79908D01*
X-52912Y81158D01*
X-49163D01*
X748030Y659130D02*
Y666628D01*
X744281D01*
X743032Y665378D01*
Y662879D01*
X744281Y661629D01*
X748030D01*
X745531D02*
X743032Y659130D01*
X735534D02*
X740532D01*
X735534Y664128D01*
Y665378D01*
X736784Y666628D01*
X739283D01*
X740532Y665378D01*
X729286Y659130D02*
Y666628D01*
X733035Y662879D01*
X728036D01*
X720539Y665378D02*
X721788Y666628D01*
X724288D01*
X725537Y665378D01*
Y660380D01*
X724288Y659130D01*
X721788D01*
X720539Y660380D01*
X598170Y642620D02*
Y650118D01*
X594421D01*
X593172Y648868D01*
Y646369D01*
X594421Y645119D01*
X598170D01*
X595671D02*
X593172Y642620D01*
X585674D02*
X590672D01*
X585674Y647618D01*
Y648868D01*
X586924Y650118D01*
X589423D01*
X590672Y648868D01*
X579426Y642620D02*
Y650118D01*
X583175Y646369D01*
X578176D01*
X575677Y650118D02*
Y642620D01*
X571928D01*
X570679Y643870D01*
Y645119D01*
X571928Y646369D01*
X575677D01*
X571928D01*
X570679Y647618D01*
Y648868D01*
X571928Y650118D01*
X575677D01*
X412750Y726598D02*
Y734096D01*
X409001D01*
X407752Y732846D01*
Y730347D01*
X409001Y729097D01*
X412750D01*
X410251D02*
X407752Y726598D01*
X400254D02*
X405252D01*
X400254Y731597D01*
Y732846D01*
X401504Y734096D01*
X404003D01*
X405252Y732846D01*
X394006Y726598D02*
Y734096D01*
X397755Y730347D01*
X392756D01*
X390257Y726598D02*
Y731597D01*
X387758Y734096D01*
X385259Y731597D01*
Y726598D01*
Y730347D01*
X390257D01*
X212197Y1112418D02*
X213447Y1113668D01*
X215946D01*
X217195Y1112418D01*
Y1111168D01*
X215946Y1109919D01*
X213447D01*
X212197Y1108669D01*
Y1107420D01*
X213447Y1106170D01*
X215946D01*
X217195Y1107420D01*
X209698Y1113668D02*
Y1106170D01*
X207199Y1108669D01*
X204699Y1106170D01*
Y1113668D01*
X202200Y1106170D02*
X199701D01*
X200951D01*
Y1113668D01*
X202200Y1112418D01*
X1268730Y794347D02*
Y801844D01*
X1264981D01*
X1263732Y800595D01*
Y798095D01*
X1264981Y796846D01*
X1268730D01*
X1261232Y800595D02*
X1259983Y801844D01*
X1257484D01*
X1256234Y800595D01*
Y799345D01*
X1257484Y798095D01*
X1258733D01*
X1257484D01*
X1256234Y796846D01*
Y795596D01*
X1257484Y794347D01*
X1259983D01*
X1261232Y795596D01*
X693420Y588010D02*
Y595508D01*
X689671D01*
X688422Y594258D01*
Y591759D01*
X689671Y590509D01*
X693420D01*
X690921D02*
X688422Y588010D01*
X682174D02*
Y595508D01*
X685922Y591759D01*
X680924D01*
X666424Y459740D02*
Y467238D01*
X662675D01*
X661426Y465988D01*
Y463489D01*
X662675Y462239D01*
X666424D01*
X663925D02*
X661426Y459740D01*
X658927Y465988D02*
X657677Y467238D01*
X655178D01*
X653928Y465988D01*
Y464738D01*
X655178Y463489D01*
X656427D01*
X655178D01*
X653928Y462239D01*
Y460990D01*
X655178Y459740D01*
X657677D01*
X658927Y460990D01*
X701040Y539750D02*
Y547248D01*
X697291D01*
X696042Y545998D01*
Y543499D01*
X697291Y542249D01*
X701040D01*
X698541D02*
X696042Y539750D01*
X688544D02*
X693542D01*
X688544Y544748D01*
Y545998D01*
X689794Y547248D01*
X692293D01*
X693542Y545998D01*
X1306640Y684408D02*
Y678160D01*
X1305390Y676910D01*
X1302891D01*
X1301642Y678160D01*
Y684408D01*
X1295394Y676910D02*
Y684408D01*
X1299142Y680659D01*
X1294144D01*
X1296670Y706120D02*
Y713618D01*
X1292921D01*
X1291672Y712368D01*
Y709869D01*
X1292921Y708619D01*
X1296670D01*
X1294171D02*
X1291672Y706120D01*
X1285424D02*
Y713618D01*
X1289172Y709869D01*
X1284174D01*
X1281675Y712368D02*
X1280425Y713618D01*
X1277926D01*
X1276676Y712368D01*
Y711118D01*
X1277926Y709869D01*
X1279176D01*
X1277926D01*
X1276676Y708619D01*
Y707370D01*
X1277926Y706120D01*
X1280425D01*
X1281675Y707370D01*
X1323340Y718820D02*
Y726318D01*
X1319591D01*
X1318342Y725068D01*
Y722569D01*
X1319591Y721319D01*
X1323340D01*
X1320841D02*
X1318342Y718820D01*
X1312094D02*
Y726318D01*
X1315842Y722569D01*
X1310844D01*
X1303346Y718820D02*
X1308345D01*
X1303346Y723818D01*
Y725068D01*
X1304596Y726318D01*
X1307095D01*
X1308345Y725068D01*
X1283970Y632460D02*
Y639958D01*
X1280221D01*
X1278972Y638708D01*
Y636209D01*
X1280221Y634959D01*
X1283970D01*
X1281471D02*
X1278972Y632460D01*
X1272724D02*
Y639958D01*
X1276472Y636209D01*
X1271474D01*
X1268975Y632460D02*
X1266476D01*
X1267725D01*
Y639958D01*
X1268975Y638708D01*
X1224362Y643870D02*
Y648868D01*
X1225611Y650118D01*
X1228110D01*
X1229360Y648868D01*
Y643870D01*
X1228110Y642620D01*
X1225611D01*
X1226861Y645119D02*
X1224362Y642620D01*
X1225611D02*
X1224362Y643870D01*
X1221862Y650118D02*
X1216864D01*
Y648868D01*
X1221862Y643870D01*
Y642620D01*
X1336040Y631068D02*
Y623570D01*
X1331042D01*
X1323544D02*
X1328542D01*
X1323544Y628568D01*
Y629818D01*
X1324794Y631068D01*
X1327293D01*
X1328542Y629818D01*
X1242777Y695858D02*
X1244026Y697108D01*
X1246525D01*
X1247775Y695858D01*
Y690860D01*
X1246525Y689610D01*
X1244026D01*
X1242777Y690860D01*
X1240277Y695858D02*
X1239028Y697108D01*
X1236529D01*
X1235279Y695858D01*
Y694608D01*
X1236529Y693359D01*
X1237778D01*
X1236529D01*
X1235279Y692109D01*
Y690860D01*
X1236529Y689610D01*
X1239028D01*
X1240277Y690860D01*
X1232780Y689610D02*
X1230281D01*
X1231530D01*
Y697108D01*
X1232780Y695858D01*
X1343742Y713638D02*
X1344991Y714888D01*
X1347490D01*
X1348740Y713638D01*
Y708640D01*
X1347490Y707390D01*
X1344991D01*
X1343742Y708640D01*
X1341242Y713638D02*
X1339993Y714888D01*
X1337494D01*
X1336244Y713638D01*
Y712388D01*
X1337494Y711139D01*
X1338743D01*
X1337494D01*
X1336244Y709889D01*
Y708640D01*
X1337494Y707390D01*
X1339993D01*
X1341242Y708640D01*
X1333745Y713638D02*
X1332495Y714888D01*
X1329996D01*
X1328746Y713638D01*
Y708640D01*
X1329996Y707390D01*
X1332495D01*
X1333745Y708640D01*
Y713638D01*
X1219192Y-13260D02*
Y-8262D01*
X1220441Y-7012D01*
X1222940D01*
X1224190Y-8262D01*
Y-13260D01*
X1222940Y-14510D01*
X1220441D01*
X1221691Y-12011D02*
X1219192Y-14510D01*
X1220441D02*
X1219192Y-13260D01*
X1216692Y-8262D02*
X1215443Y-7012D01*
X1212944D01*
X1211694Y-8262D01*
Y-9512D01*
X1212944Y-10761D01*
X1214193D01*
X1212944D01*
X1211694Y-12011D01*
Y-13260D01*
X1212944Y-14510D01*
X1215443D01*
X1216692Y-13260D01*
X1204196Y-8262D02*
X1205446Y-7012D01*
X1207945D01*
X1209195Y-8262D01*
Y-13260D01*
X1207945Y-14510D01*
X1205446D01*
X1204196Y-13260D01*
Y-10761D01*
X1206696D01*
X1219192Y-48820D02*
Y-43822D01*
X1220441Y-42572D01*
X1222940D01*
X1224190Y-43822D01*
Y-48820D01*
X1222940Y-50070D01*
X1220441D01*
X1221691Y-47571D02*
X1219192Y-50070D01*
X1220441D02*
X1219192Y-48820D01*
X1211694Y-50070D02*
X1216692D01*
X1211694Y-45072D01*
Y-43822D01*
X1212944Y-42572D01*
X1215443D01*
X1216692Y-43822D01*
X1204196D02*
X1205446Y-42572D01*
X1207945D01*
X1209195Y-43822D01*
Y-48820D01*
X1207945Y-50070D01*
X1205446D01*
X1204196Y-48820D01*
Y-46321D01*
X1206696D01*
X1219192Y22300D02*
Y27298D01*
X1220441Y28548D01*
X1222940D01*
X1224190Y27298D01*
Y22300D01*
X1222940Y21050D01*
X1220441D01*
X1221691Y23549D02*
X1219192Y21050D01*
X1220441D02*
X1219192Y22300D01*
X1212944Y21050D02*
Y28548D01*
X1216692Y24799D01*
X1211694D01*
X1204196Y27298D02*
X1205446Y28548D01*
X1207945D01*
X1209195Y27298D01*
Y22300D01*
X1207945Y21050D01*
X1205446D01*
X1204196Y22300D01*
Y24799D01*
X1206696D01*
X839192Y22300D02*
Y27298D01*
X840441Y28548D01*
X842940D01*
X844190Y27298D01*
Y22300D01*
X842940Y21050D01*
X840441D01*
X841691Y23549D02*
X839192Y21050D01*
X840441D02*
X839192Y22300D01*
X832944Y21050D02*
Y28548D01*
X836692Y24799D01*
X831694D01*
X824196Y28548D02*
X829195D01*
Y24799D01*
X826696D01*
X829195D01*
Y21050D01*
X839192Y-48820D02*
Y-43822D01*
X840441Y-42572D01*
X842940D01*
X844190Y-43822D01*
Y-48820D01*
X842940Y-50070D01*
X840441D01*
X841691Y-47571D02*
X839192Y-50070D01*
X840441D02*
X839192Y-48820D01*
X831694Y-50070D02*
X836692D01*
X831694Y-45072D01*
Y-43822D01*
X832944Y-42572D01*
X835443D01*
X836692Y-43822D01*
X824196Y-42572D02*
X829195D01*
Y-46321D01*
X826696D01*
X829195D01*
Y-50070D01*
X839192Y-13260D02*
Y-8262D01*
X840441Y-7012D01*
X842940D01*
X844190Y-8262D01*
Y-13260D01*
X842940Y-14510D01*
X840441D01*
X841691Y-12011D02*
X839192Y-14510D01*
X840441D02*
X839192Y-13260D01*
X836692Y-8262D02*
X835443Y-7012D01*
X832944D01*
X831694Y-8262D01*
Y-9512D01*
X832944Y-10761D01*
X834193D01*
X832944D01*
X831694Y-12011D01*
Y-13260D01*
X832944Y-14510D01*
X835443D01*
X836692Y-13260D01*
X824196Y-7012D02*
X829195D01*
Y-10761D01*
X826696D01*
X829195D01*
Y-14510D01*
X459192Y-48820D02*
Y-43822D01*
X460441Y-42572D01*
X462940D01*
X464190Y-43822D01*
Y-48820D01*
X462940Y-50070D01*
X460441D01*
X461691Y-47571D02*
X459192Y-50070D01*
X460441D02*
X459192Y-48820D01*
X451694Y-50070D02*
X456692D01*
X451694Y-45072D01*
Y-43822D01*
X452944Y-42572D01*
X455443D01*
X456692Y-43822D01*
X444196Y-42572D02*
X449195D01*
Y-50070D01*
X444196D01*
X449195Y-46321D02*
X446696D01*
X459192Y22300D02*
Y27298D01*
X460441Y28548D01*
X462940D01*
X464190Y27298D01*
Y22300D01*
X462940Y21050D01*
X460441D01*
X461691Y23549D02*
X459192Y21050D01*
X460441D02*
X459192Y22300D01*
X452944Y21050D02*
Y28548D01*
X456692Y24799D01*
X451694D01*
X444196Y28548D02*
X449195D01*
Y21050D01*
X444196D01*
X449195Y24799D02*
X446696D01*
X459192Y-13260D02*
Y-8262D01*
X460441Y-7012D01*
X462940D01*
X464190Y-8262D01*
Y-13260D01*
X462940Y-14510D01*
X460441D01*
X461691Y-12011D02*
X459192Y-14510D01*
X460441D02*
X459192Y-13260D01*
X456692Y-8262D02*
X455443Y-7012D01*
X452944D01*
X451694Y-8262D01*
Y-9512D01*
X452944Y-10761D01*
X454193D01*
X452944D01*
X451694Y-12011D01*
Y-13260D01*
X452944Y-14510D01*
X455443D01*
X456692Y-13260D01*
X444196Y-7012D02*
X449195D01*
Y-14510D01*
X444196D01*
X449195Y-10761D02*
X446696D01*
X79192Y22300D02*
Y27298D01*
X80441Y28548D01*
X82940D01*
X84190Y27298D01*
Y22300D01*
X82940Y21050D01*
X80441D01*
X81691Y23549D02*
X79192Y21050D01*
X80441D02*
X79192Y22300D01*
X72944Y21050D02*
Y28548D01*
X76692Y24799D01*
X71694D01*
X69195Y28548D02*
Y21050D01*
X65446D01*
X64196Y22300D01*
Y27298D01*
X65446Y28548D01*
X69195D01*
X79192Y-48820D02*
Y-43822D01*
X80441Y-42572D01*
X82940D01*
X84190Y-43822D01*
Y-48820D01*
X82940Y-50070D01*
X80441D01*
X81691Y-47571D02*
X79192Y-50070D01*
X80441D02*
X79192Y-48820D01*
X71694Y-50070D02*
X76692D01*
X71694Y-45072D01*
Y-43822D01*
X72944Y-42572D01*
X75443D01*
X76692Y-43822D01*
X69195Y-42572D02*
Y-50070D01*
X65446D01*
X64196Y-48820D01*
Y-43822D01*
X65446Y-42572D01*
X69195D01*
X79192Y-13260D02*
Y-8262D01*
X80441Y-7012D01*
X82940D01*
X84190Y-8262D01*
Y-13260D01*
X82940Y-14510D01*
X80441D01*
X81691Y-12011D02*
X79192Y-14510D01*
X80441D02*
X79192Y-13260D01*
X76692Y-8262D02*
X75443Y-7012D01*
X72944D01*
X71694Y-8262D01*
Y-9512D01*
X72944Y-10761D01*
X74193D01*
X72944D01*
X71694Y-12011D01*
Y-13260D01*
X72944Y-14510D01*
X75443D01*
X76692Y-13260D01*
X69195Y-7012D02*
Y-14510D01*
X65446D01*
X64196Y-13260D01*
Y-8262D01*
X65446Y-7012D01*
X69195D01*
X799192Y711180D02*
Y716178D01*
X800441Y717428D01*
X802940D01*
X804190Y716178D01*
Y711180D01*
X802940Y709930D01*
X800441D01*
X801691Y712429D02*
X799192Y709930D01*
X800441D02*
X799192Y711180D01*
X791694Y709930D02*
X796692D01*
X791694Y714928D01*
Y716178D01*
X792944Y717428D01*
X795443D01*
X796692Y716178D01*
X784196D02*
X785446Y717428D01*
X787945D01*
X789195Y716178D01*
Y711180D01*
X787945Y709930D01*
X785446D01*
X784196Y711180D01*
X799192Y746740D02*
Y751738D01*
X800441Y752988D01*
X802940D01*
X804190Y751738D01*
Y746740D01*
X802940Y745490D01*
X800441D01*
X801691Y747989D02*
X799192Y745490D01*
X800441D02*
X799192Y746740D01*
X796692Y751738D02*
X795443Y752988D01*
X792944D01*
X791694Y751738D01*
Y750488D01*
X792944Y749239D01*
X794193D01*
X792944D01*
X791694Y747989D01*
Y746740D01*
X792944Y745490D01*
X795443D01*
X796692Y746740D01*
X784196Y751738D02*
X785446Y752988D01*
X787945D01*
X789195Y751738D01*
Y746740D01*
X787945Y745490D01*
X785446D01*
X784196Y746740D01*
X799192Y782300D02*
Y787298D01*
X800441Y788548D01*
X802940D01*
X804190Y787298D01*
Y782300D01*
X802940Y781050D01*
X800441D01*
X801691Y783549D02*
X799192Y781050D01*
X800441D02*
X799192Y782300D01*
X792944Y781050D02*
Y788548D01*
X796692Y784799D01*
X791694D01*
X784196Y787298D02*
X785446Y788548D01*
X787945D01*
X789195Y787298D01*
Y782300D01*
X787945Y781050D01*
X785446D01*
X784196Y782300D01*
X649192Y746740D02*
Y751738D01*
X650441Y752988D01*
X652940D01*
X654190Y751738D01*
Y746740D01*
X652940Y745490D01*
X650441D01*
X651691Y747989D02*
X649192Y745490D01*
X650441D02*
X649192Y746740D01*
X646692Y751738D02*
X645443Y752988D01*
X642944D01*
X641694Y751738D01*
Y750488D01*
X642944Y749239D01*
X644193D01*
X642944D01*
X641694Y747989D01*
Y746740D01*
X642944Y745490D01*
X645443D01*
X646692Y746740D01*
X639195Y752988D02*
Y745490D01*
X635446D01*
X634196Y746740D01*
Y747989D01*
X635446Y749239D01*
X639195D01*
X635446D01*
X634196Y750488D01*
Y751738D01*
X635446Y752988D01*
X639195D01*
X649192Y782300D02*
Y787298D01*
X650441Y788548D01*
X652940D01*
X654190Y787298D01*
Y782300D01*
X652940Y781050D01*
X650441D01*
X651691Y783549D02*
X649192Y781050D01*
X650441D02*
X649192Y782300D01*
X642944Y781050D02*
Y788548D01*
X646692Y784799D01*
X641694D01*
X639195Y788548D02*
Y781050D01*
X635446D01*
X634196Y782300D01*
Y783549D01*
X635446Y784799D01*
X639195D01*
X635446D01*
X634196Y786048D01*
Y787298D01*
X635446Y788548D01*
X639195D01*
X649192Y711180D02*
Y716178D01*
X650441Y717428D01*
X652940D01*
X654190Y716178D01*
Y711180D01*
X652940Y709930D01*
X650441D01*
X651691Y712429D02*
X649192Y709930D01*
X650441D02*
X649192Y711180D01*
X641694Y709930D02*
X646692D01*
X641694Y714928D01*
Y716178D01*
X642944Y717428D01*
X645443D01*
X646692Y716178D01*
X639195Y717428D02*
Y709930D01*
X635446D01*
X634196Y711180D01*
Y712429D01*
X635446Y713679D01*
X639195D01*
X635446D01*
X634196Y714928D01*
Y716178D01*
X635446Y717428D01*
X639195D01*
X499192Y746740D02*
Y751738D01*
X500441Y752988D01*
X502940D01*
X504190Y751738D01*
Y746740D01*
X502940Y745490D01*
X500441D01*
X501691Y747989D02*
X499192Y745490D01*
X500441D02*
X499192Y746740D01*
X496692Y751738D02*
X495443Y752988D01*
X492944D01*
X491694Y751738D01*
Y750488D01*
X492944Y749239D01*
X494193D01*
X492944D01*
X491694Y747989D01*
Y746740D01*
X492944Y745490D01*
X495443D01*
X496692Y746740D01*
X489195Y745490D02*
Y750488D01*
X486696Y752988D01*
X484196Y750488D01*
Y745490D01*
Y749239D01*
X489195D01*
X499192Y782300D02*
Y787298D01*
X500441Y788548D01*
X502940D01*
X504190Y787298D01*
Y782300D01*
X502940Y781050D01*
X500441D01*
X501691Y783549D02*
X499192Y781050D01*
X500441D02*
X499192Y782300D01*
X492944Y781050D02*
Y788548D01*
X496692Y784799D01*
X491694D01*
X489195Y781050D02*
Y786048D01*
X486696Y788548D01*
X484196Y786048D01*
Y781050D01*
Y784799D01*
X489195D01*
X499192Y711180D02*
Y716178D01*
X500441Y717428D01*
X502940D01*
X504190Y716178D01*
Y711180D01*
X502940Y709930D01*
X500441D01*
X501691Y712429D02*
X499192Y709930D01*
X500441D02*
X499192Y711180D01*
X491694Y709930D02*
X496692D01*
X491694Y714928D01*
Y716178D01*
X492944Y717428D01*
X495443D01*
X496692Y716178D01*
X489195Y709930D02*
Y714928D01*
X486696Y717428D01*
X484196Y714928D01*
Y709930D01*
Y713679D01*
X489195D01*
X452342Y1007332D02*
X451458Y1006448D01*
X447924D01*
X447924Y1009982D01*
X448807Y1010866D01*
X447924Y1006448D02*
X445273Y1003797D01*
X441738Y1007332D02*
X439971Y1009099D01*
X440855Y1008215D01*
X446156Y1013517D01*
Y1011750D01*
X231255Y963749D02*
Y957501D01*
X230005Y956252D01*
X227506D01*
X226256Y957501D01*
Y963749D01*
X218759Y956252D02*
X223757D01*
X218759Y961250D01*
Y962500D01*
X220008Y963749D01*
X222508D01*
X223757Y962500D01*
X658668Y1023842D02*
X663086Y1019424D01*
Y1017656D01*
X661319Y1015889D01*
X659552D01*
X655134Y1020307D01*
X658668Y1013238D02*
X656901Y1011471D01*
X657785Y1012355D01*
X652483Y1017656D01*
X654250D01*
X908050Y925830D02*
X915548D01*
Y929579D01*
X914298Y930828D01*
X911799D01*
X910549Y929579D01*
Y925830D01*
Y928329D02*
X908050Y930828D01*
Y938326D02*
Y933328D01*
X913048Y938326D01*
X914298D01*
X915548Y937076D01*
Y934577D01*
X914298Y933328D01*
X915548Y945824D02*
Y940825D01*
X911799D01*
X913048Y943324D01*
Y944574D01*
X911799Y945824D01*
X909300D01*
X908050Y944574D01*
Y942075D01*
X909300Y940825D01*
X148590Y928370D02*
X156088D01*
Y932119D01*
X154838Y933368D01*
X152339D01*
X151089Y932119D01*
Y928370D01*
Y930869D02*
X148590Y933368D01*
Y940866D02*
Y935868D01*
X153588Y940866D01*
X154838D01*
X156088Y939616D01*
Y937117D01*
X154838Y935868D01*
X148590Y948364D02*
Y943365D01*
X153588Y948364D01*
X154838D01*
X156088Y947114D01*
Y944615D01*
X154838Y943365D01*
X306070Y967105D02*
Y974603D01*
X302321D01*
X301072Y973353D01*
Y970854D01*
X302321Y969604D01*
X306070D01*
X303571D02*
X301072Y967105D01*
X298572D02*
X296073D01*
X297323D01*
Y974603D01*
X298572Y973353D01*
X287326Y967105D02*
X292324D01*
X287326Y972103D01*
Y973353D01*
X288576Y974603D01*
X291075D01*
X292324Y973353D01*
X304800Y952500D02*
Y959998D01*
X301051D01*
X299802Y958748D01*
Y956249D01*
X301051Y954999D01*
X304800D01*
X302301D02*
X299802Y952500D01*
X297302D02*
X294803D01*
X296053D01*
Y959998D01*
X297302Y958748D01*
X291054Y952500D02*
X288555D01*
X289805D01*
Y959998D01*
X291054Y958748D01*
X294640Y1010920D02*
Y1018418D01*
X290891D01*
X289642Y1017168D01*
Y1014669D01*
X290891Y1013419D01*
X294640D01*
X292141D02*
X289642Y1010920D01*
X287142D02*
X284643D01*
X285893D01*
Y1018418D01*
X287142Y1017168D01*
X280894D02*
X279645Y1018418D01*
X277146D01*
X275896Y1017168D01*
Y1012170D01*
X277146Y1010920D01*
X279645D01*
X280894Y1012170D01*
Y1017168D01*
X10160Y797560D02*
X2662D01*
Y793811D01*
X3912Y792562D01*
X6411D01*
X7661Y793811D01*
Y797560D01*
Y795061D02*
X10160Y792562D01*
X8910Y790062D02*
X10160Y788813D01*
Y786314D01*
X8910Y785064D01*
X3912D01*
X2662Y786314D01*
Y788813D01*
X3912Y790062D01*
X5162D01*
X6411Y788813D01*
Y785064D01*
X26235Y797560D02*
X18737D01*
Y793811D01*
X19986Y792562D01*
X22486D01*
X23735Y793811D01*
Y797560D01*
Y795061D02*
X26235Y792562D01*
X19986Y790062D02*
X18737Y788813D01*
Y786314D01*
X19986Y785064D01*
X21236D01*
X22486Y786314D01*
X23735Y785064D01*
X24985D01*
X26235Y786314D01*
Y788813D01*
X24985Y790062D01*
X23735D01*
X22486Y788813D01*
X21236Y790062D01*
X19986D01*
X22486Y788813D02*
Y786314D01*
X-4813Y797560D02*
X-12311D01*
Y793811D01*
X-11061Y792562D01*
X-8562D01*
X-7313Y793811D01*
Y797560D01*
Y795061D02*
X-4813Y792562D01*
X-12311Y790062D02*
Y785064D01*
X-11061D01*
X-6063Y790062D01*
X-4813D01*
X-20320Y797560D02*
X-27818D01*
Y793811D01*
X-26568Y792562D01*
X-24069D01*
X-22819Y793811D01*
Y797560D01*
Y795061D02*
X-20320Y792562D01*
X-27818Y785064D02*
X-26568Y787563D01*
X-24069Y790062D01*
X-21570D01*
X-20320Y788813D01*
Y786314D01*
X-21570Y785064D01*
X-22819D01*
X-24069Y786314D01*
Y790062D01*
X176645Y1005782D02*
X184142D01*
Y1009531D01*
X182893Y1010780D01*
X180394D01*
X179144Y1009531D01*
Y1005782D01*
Y1008281D02*
X176645Y1010780D01*
X184142Y1018278D02*
Y1013279D01*
X180394D01*
X181643Y1015779D01*
Y1017028D01*
X180394Y1018278D01*
X177894D01*
X176645Y1017028D01*
Y1014529D01*
X177894Y1013279D01*
X781423Y916940D02*
Y924438D01*
X777675D01*
X776425Y923188D01*
Y920689D01*
X777675Y919439D01*
X781423D01*
X778924D02*
X776425Y916940D01*
X773926D02*
X771426D01*
X772676D01*
Y924438D01*
X773926Y923188D01*
X820080Y856062D02*
X815082D01*
X813832Y857311D01*
Y859810D01*
X815082Y861060D01*
X820080D01*
X821330Y859810D01*
Y857311D01*
X818831Y858561D02*
X821330Y856062D01*
Y857311D02*
X820080Y856062D01*
X813832Y848564D02*
X815082Y851063D01*
X817581Y853562D01*
X820080D01*
X821330Y852313D01*
Y849814D01*
X820080Y848564D01*
X818831D01*
X817581Y849814D01*
Y853562D01*
X12413Y879758D02*
X7414D01*
X6165Y881007D01*
Y883506D01*
X7414Y884756D01*
X12413D01*
X13662Y883506D01*
Y881007D01*
X11163Y882257D02*
X13662Y879758D01*
Y881007D02*
X12413Y879758D01*
X6165Y872260D02*
Y877258D01*
X9913D01*
X8664Y874759D01*
Y873510D01*
X9913Y872260D01*
X12413D01*
X13662Y873510D01*
Y876009D01*
X12413Y877258D01*
X772242Y974070D02*
Y979068D01*
X773491Y980318D01*
X775990D01*
X777240Y979068D01*
Y974070D01*
X775990Y972820D01*
X773491D01*
X774741Y975319D02*
X772242Y972820D01*
X773491D02*
X772242Y974070D01*
X769742Y972820D02*
X767243D01*
X768493D01*
Y980318D01*
X769742Y979068D01*
X175879Y660362D02*
Y667859D01*
X172130D01*
X170880Y666610D01*
Y664110D01*
X172130Y662861D01*
X175879D01*
X168381Y660362D02*
X165882D01*
X167131D01*
Y667859D01*
X168381Y666610D01*
X574262Y961612D02*
X568960Y956310D01*
X565426Y959844D01*
X563658Y961612D02*
X561891Y963379D01*
X562775Y962495D01*
X568076Y967797D01*
Y966030D01*
X34412Y797560D02*
X41910D01*
Y793811D01*
X40660Y792562D01*
X35662D01*
X34412Y793811D01*
Y797560D01*
X35662Y790062D02*
X34412Y788813D01*
Y786314D01*
X35662Y785064D01*
X36912D01*
X38161Y786314D01*
Y787563D01*
Y786314D01*
X39411Y785064D01*
X40660D01*
X41910Y786314D01*
Y788813D01*
X40660Y790062D01*
X299720Y1004389D02*
Y996892D01*
X295971D01*
X294722Y998141D01*
Y1003140D01*
X295971Y1004389D01*
X299720D01*
X287224Y996892D02*
X292222D01*
X287224Y1001890D01*
Y1003140D01*
X288474Y1004389D01*
X290973D01*
X292222Y1003140D01*
X168902Y1005782D02*
X161405D01*
Y1009531D01*
X162654Y1010780D01*
X167653D01*
X168902Y1009531D01*
Y1005782D01*
X161405Y1013279D02*
Y1015779D01*
Y1014529D01*
X168902D01*
X167653Y1013279D01*
X974172Y918108D02*
X975421Y919358D01*
X977920D01*
X979170Y918108D01*
Y913110D01*
X977920Y911860D01*
X975421D01*
X974172Y913110D01*
X966674Y911860D02*
X971672D01*
X966674Y916858D01*
Y918108D01*
X967924Y919358D01*
X970423D01*
X971672Y918108D01*
X964175Y919358D02*
X959176D01*
Y918108D01*
X964175Y913110D01*
Y911860D01*
X932078Y930828D02*
X933328Y929579D01*
Y927080D01*
X932078Y925830D01*
X927080D01*
X925830Y927080D01*
Y929579D01*
X927080Y930828D01*
X925830Y938326D02*
Y933328D01*
X930828Y938326D01*
X932078D01*
X933328Y937076D01*
Y934577D01*
X932078Y933328D01*
X933328Y945824D02*
Y940825D01*
X929579D01*
X930828Y943324D01*
Y944574D01*
X929579Y945824D01*
X927080D01*
X925830Y944574D01*
Y942075D01*
X927080Y940825D01*
X1033862Y914298D02*
X1035111Y915548D01*
X1037610D01*
X1038860Y914298D01*
Y909300D01*
X1037610Y908050D01*
X1035111D01*
X1033862Y909300D01*
X1026364Y908050D02*
X1031362D01*
X1026364Y913048D01*
Y914298D01*
X1027614Y915548D01*
X1030113D01*
X1031362Y914298D01*
X1020116Y908050D02*
Y915548D01*
X1023865Y911799D01*
X1018866D01*
X1034165Y897598D02*
X1035415Y898848D01*
X1037914D01*
X1039163Y897598D01*
Y892600D01*
X1037914Y891350D01*
X1035415D01*
X1034165Y892600D01*
X1026667Y891350D02*
X1031666D01*
X1026667Y896348D01*
Y897598D01*
X1027917Y898848D01*
X1030416D01*
X1031666Y897598D01*
X1024168D02*
X1022918Y898848D01*
X1020419D01*
X1019170Y897598D01*
Y896348D01*
X1020419Y895099D01*
X1021669D01*
X1020419D01*
X1019170Y893849D01*
Y892600D01*
X1020419Y891350D01*
X1022918D01*
X1024168Y892600D01*
X215982Y918108D02*
X217231Y919358D01*
X219730D01*
X220980Y918108D01*
Y913110D01*
X219730Y911860D01*
X217231D01*
X215982Y913110D01*
X208484Y911860D02*
X213482D01*
X208484Y916858D01*
Y918108D01*
X209734Y919358D01*
X212233D01*
X213482Y918108D01*
X200986Y911860D02*
X205985D01*
X200986Y916858D01*
Y918108D01*
X202236Y919358D01*
X204735D01*
X205985Y918108D01*
X172618Y933368D02*
X173868Y932119D01*
Y929620D01*
X172618Y928370D01*
X167620D01*
X166370Y929620D01*
Y932119D01*
X167620Y933368D01*
X166370Y940866D02*
Y935868D01*
X171368Y940866D01*
X172618D01*
X173868Y939616D01*
Y937117D01*
X172618Y935868D01*
Y943365D02*
X173868Y944615D01*
Y947114D01*
X172618Y948364D01*
X167620D01*
X166370Y947114D01*
Y944615D01*
X167620Y943365D01*
X172618D01*
X273132Y897788D02*
X274381Y899038D01*
X276880D01*
X278130Y897788D01*
Y892790D01*
X276880Y891540D01*
X274381D01*
X273132Y892790D01*
X270632Y891540D02*
X268133D01*
X269383D01*
Y899038D01*
X270632Y897788D01*
X264384Y892790D02*
X263135Y891540D01*
X260636D01*
X259386Y892790D01*
Y897788D01*
X260636Y899038D01*
X263135D01*
X264384Y897788D01*
Y896538D01*
X263135Y895289D01*
X259386D01*
X273132Y914298D02*
X274381Y915548D01*
X276880D01*
X278130Y914298D01*
Y909300D01*
X276880Y908050D01*
X274381D01*
X273132Y909300D01*
X270632Y908050D02*
X268133D01*
X269383D01*
Y915548D01*
X270632Y914298D01*
X264384D02*
X263135Y915548D01*
X260636D01*
X259386Y914298D01*
Y913048D01*
X260636Y911799D01*
X259386Y910549D01*
Y909300D01*
X260636Y908050D01*
X263135D01*
X264384Y909300D01*
Y910549D01*
X263135Y911799D01*
X264384Y913048D01*
Y914298D01*
X263135Y911799D02*
X260636D01*
X586354Y968982D02*
X588121D01*
X589888Y967215D01*
Y965447D01*
X586354Y961913D01*
X584586D01*
X582819Y963680D01*
Y965447D01*
X580168Y966331D02*
X578401Y968098D01*
X579285Y967215D01*
X584586Y972516D01*
Y970749D01*
X441574Y1216992D02*
X443341D01*
X445108Y1215225D01*
Y1213458D01*
X441574Y1209924D01*
X439806D01*
X438039Y1211691D01*
Y1213458D01*
X435388Y1214342D02*
X433621Y1216109D01*
X434505Y1215225D01*
X439806Y1220527D01*
Y1218760D01*
X432738Y1227596D02*
X436272Y1224061D01*
X433621Y1221410D01*
X432738Y1224061D01*
X431854Y1224945D01*
X430087D01*
X428320Y1223178D01*
Y1221410D01*
X430087Y1219643D01*
X431854D01*
X808604Y997282D02*
X810371D01*
X812138Y995515D01*
Y993748D01*
X808604Y990214D01*
X806836D01*
X805069Y991981D01*
Y993748D01*
X802418Y994632D02*
X800651Y996399D01*
X801535Y995515D01*
X806836Y1000817D01*
Y999050D01*
X795350Y1001700D02*
X800651Y1007002D01*
X800651Y1001700D01*
X797117Y1005235D01*
X834004Y1021412D02*
X835771D01*
X837538Y1019645D01*
Y1017878D01*
X834004Y1014344D01*
X832236D01*
X830469Y1016111D01*
Y1017878D01*
X827818Y1018762D02*
X826051Y1020529D01*
X826935Y1019645D01*
X832236Y1024947D01*
Y1023180D01*
X827818Y1027598D02*
Y1029365D01*
X826051Y1031132D01*
X824284D01*
X823400Y1030248D01*
Y1028481D01*
X824284Y1027598D01*
X823400Y1028481D01*
X821633Y1028481D01*
X820750Y1027598D01*
Y1025830D01*
X822517Y1024063D01*
X824284D01*
X866005Y1054432D02*
X867772D01*
X869539Y1052665D01*
Y1050898D01*
X866005Y1047364D01*
X864238D01*
X862470Y1049131D01*
Y1050898D01*
X859820Y1051782D02*
X858052Y1053549D01*
X858936Y1052665D01*
X864238Y1057967D01*
Y1056200D01*
X851867Y1059734D02*
X855402Y1056200D01*
Y1063268D01*
X856285Y1064152D01*
X858052D01*
X859820Y1062385D01*
Y1060618D01*
X853054Y1205562D02*
X854821D01*
X856588Y1203795D01*
Y1202028D01*
X853054Y1198494D01*
X851286D01*
X849519Y1200261D01*
Y1202028D01*
X846868Y1202912D02*
X845101Y1204679D01*
X845985Y1203795D01*
X851286Y1209097D01*
Y1207330D01*
X842450D02*
X840683Y1209097D01*
X841567Y1208213D01*
X846868Y1213515D01*
Y1211748D01*
X491104Y1251282D02*
X492871D01*
X494638Y1249515D01*
Y1247748D01*
X491104Y1244214D01*
X489336D01*
X487569Y1245981D01*
Y1247748D01*
X484918Y1248632D02*
X483151Y1250399D01*
X484035Y1249515D01*
X489336Y1254817D01*
Y1253050D01*
X484918Y1257468D02*
Y1259235D01*
X483151Y1261002D01*
X481384D01*
X477850Y1257468D01*
Y1255700D01*
X479617Y1253933D01*
X481384D01*
X484918Y1257468D01*
X536022Y1299108D02*
X537271Y1300358D01*
X539770D01*
X541020Y1299108D01*
Y1294110D01*
X539770Y1292860D01*
X537271D01*
X536022Y1294110D01*
X533522D02*
X532273Y1292860D01*
X529774D01*
X528524Y1294110D01*
Y1299108D01*
X529774Y1300358D01*
X532273D01*
X533522Y1299108D01*
Y1297858D01*
X532273Y1296609D01*
X528524D01*
X536022Y1286408D02*
X537271Y1287658D01*
X539770D01*
X541020Y1286408D01*
Y1281410D01*
X539770Y1280160D01*
X537271D01*
X536022Y1281410D01*
X533522Y1286408D02*
X532273Y1287658D01*
X529774D01*
X528524Y1286408D01*
Y1285158D01*
X529774Y1283909D01*
X528524Y1282659D01*
Y1281410D01*
X529774Y1280160D01*
X532273D01*
X533522Y1281410D01*
Y1282659D01*
X532273Y1283909D01*
X533522Y1285158D01*
Y1286408D01*
X532273Y1283909D02*
X529774D01*
X451734Y1225882D02*
X453501D01*
X455268Y1224115D01*
Y1222348D01*
X451734Y1218814D01*
X449966D01*
X448199Y1220581D01*
Y1222348D01*
X450850Y1228533D02*
X447316Y1232068D01*
X446432Y1231184D01*
Y1224115D01*
X445548Y1223232D01*
X289642Y1032855D02*
X290891Y1034104D01*
X293390D01*
X294640Y1032855D01*
Y1027856D01*
X293390Y1026607D01*
X290891D01*
X289642Y1027856D01*
X282144Y1034104D02*
X284643Y1032855D01*
X287142Y1030355D01*
Y1027856D01*
X285893Y1026607D01*
X283394D01*
X282144Y1027856D01*
Y1029106D01*
X283394Y1030355D01*
X287142D01*
X198133Y1010780D02*
X199382Y1009531D01*
Y1007031D01*
X198133Y1005782D01*
X193134D01*
X191885Y1007031D01*
Y1009531D01*
X193134Y1010780D01*
X199382Y1018278D02*
Y1013279D01*
X195634D01*
X196883Y1015779D01*
Y1017028D01*
X195634Y1018278D01*
X193134D01*
X191885Y1017028D01*
Y1014529D01*
X193134Y1013279D01*
X235050Y1033620D02*
X236299Y1034869D01*
X238799D01*
X240048Y1033620D01*
Y1028621D01*
X238799Y1027372D01*
X236299D01*
X235050Y1028621D01*
X228802Y1027372D02*
Y1034869D01*
X232551Y1031121D01*
X227552D01*
X376804Y1059512D02*
X378571D01*
X380338Y1057745D01*
Y1055978D01*
X376804Y1052444D01*
X375036D01*
X373269Y1054211D01*
Y1055978D01*
X375036Y1061280D02*
Y1063047D01*
X373269Y1064814D01*
X371502D01*
X370618Y1063930D01*
Y1062163D01*
X371502Y1061280D01*
X370618Y1062163D01*
X368851Y1062163D01*
X367968Y1061280D01*
Y1059512D01*
X369735Y1057745D01*
X371502D01*
X398394Y1038519D02*
X400161D01*
X401928Y1036751D01*
Y1034984D01*
X398394Y1031450D01*
X396626D01*
X394859Y1033217D01*
Y1034984D01*
X388674Y1039402D02*
X392208Y1035868D01*
Y1042937D01*
X393092Y1043820D01*
X394859D01*
X396626Y1042053D01*
Y1040286D01*
D19*
X1263650Y766368D02*
D03*
D20*
X1241425Y791845D02*
D03*
D21*
X1285565Y791768D02*
D03*
M02*
