%FSTAX23Y23*%
%MOIN*%
%SFA1B1*%

%IPPOS*%
%ADD10C,0.007870*%
%ADD12C,0.005910*%
%ADD62C,0.003940*%
%LNmod_duo_x_cb-1*%
%LPD*%
G54D10*
X02551Y02595D02*
X02559D01*
X02601D02*
X02609D01*
X02599Y02524D02*
X02607D01*
X0255D02*
X0257D01*
G54D12*
X0269Y0175D02*
X02685Y01755D01*
Y01765*
X0269Y0177*
X0271*
X02715Y01765*
Y01755*
X0271Y0175*
X02715Y0174D02*
Y0173D01*
Y01735*
X02685*
X0269Y0174*
Y01715D02*
X02685Y0171D01*
Y01701*
X0269Y01696*
X02695*
X027Y01701*
Y01706*
Y01701*
X02705Y01696*
X0271*
X02715Y01701*
Y0171*
X0271Y01715*
X02627Y01743D02*
X02622Y01748D01*
Y01758*
X02627Y01763*
X02647*
X02652Y01758*
Y01748*
X02647Y01743*
X02652Y01733D02*
Y01723D01*
Y01728*
X02622*
X02627Y01733*
X02647Y01709D02*
X02652Y01704D01*
Y01694*
X02647Y01689*
X02627*
X02622Y01694*
Y01704*
X02627Y01709*
X02632*
X02637Y01704*
Y01689*
X02417Y01743D02*
X02412Y01748D01*
Y01758*
X02417Y01763*
X02436*
X02441Y01758*
Y01748*
X02436Y01743*
X02441Y01733D02*
Y01723D01*
Y01728*
X02412*
X02417Y01733*
X02441Y01709D02*
Y01699D01*
Y01704*
X02412*
X02417Y01709*
X02202Y01743D02*
X02197Y01748D01*
Y01758*
X02202Y01763*
X02221*
X02226Y01758*
Y01748*
X02221Y01743*
X02226Y01733D02*
Y01723D01*
Y01728*
X02197*
X02202Y01733*
Y01709D02*
X02197Y01704D01*
Y01694*
X02202Y01689*
X02221*
X02226Y01694*
Y01704*
X02221Y01709*
X02202*
X01986Y01743D02*
X01981Y01748D01*
Y01758*
X01986Y01763*
X02006*
X02011Y01758*
Y01748*
X02006Y01743*
Y01733D02*
X02011Y01728D01*
Y01719*
X02006Y01714*
X01986*
X01981Y01719*
Y01728*
X01986Y01733*
X01991*
X01996Y01728*
Y01714*
X01729Y01743D02*
X01724Y01748D01*
Y01758*
X01729Y01763*
X01749*
X01754Y01758*
Y01748*
X01749Y01743*
X01729Y01733D02*
X01724Y01728D01*
Y01719*
X01729Y01714*
X01734*
X01739Y01719*
X01744Y01714*
X01749*
X01754Y01719*
Y01728*
X01749Y01733*
X01744*
X01739Y01728*
X01734Y01733*
X01729*
X01739Y01728D02*
Y01719D01*
X01514Y01743D02*
X01509Y01748D01*
Y01758*
X01514Y01763*
X01533*
X01538Y01758*
Y01748*
X01533Y01743*
X01509Y01733D02*
Y01714D01*
X01514*
X01533Y01733*
X01538*
X01304Y01743D02*
X01299Y01748D01*
Y01758*
X01304Y01763*
X01323*
X01328Y01758*
Y01748*
X01323Y01743*
X01299Y01714D02*
X01304Y01723D01*
X01313Y01733*
X01323*
X01328Y01728*
Y01719*
X01323Y01714*
X01318*
X01313Y01719*
Y01733*
X01374Y01743D02*
X01369Y01748D01*
Y01758*
X01374Y01763*
X01393*
X01398Y01758*
Y01748*
X01393Y01743*
X01398Y01733D02*
Y01723D01*
Y01728*
X01369*
X01374Y01733*
X01398Y01694D02*
X01369D01*
X01383Y01709*
Y01689*
X01088Y01743D02*
X01083Y01748D01*
Y01758*
X01088Y01763*
X01108*
X01113Y01758*
Y01748*
X01108Y01743*
X01083Y01714D02*
Y01733D01*
X01098*
X01093Y01723*
Y01719*
X01098Y01714*
X01108*
X01113Y01719*
Y01728*
X01108Y01733*
X00876Y01743D02*
X00871Y01748D01*
Y01758*
X00876Y01763*
X00896*
X009Y01758*
Y01748*
X00896Y01743*
X009Y01719D02*
X00871D01*
X00886Y01733*
Y01714*
X00666Y01743D02*
X00661Y01748D01*
Y01758*
X00666Y01763*
X00685*
X0069Y01758*
Y01748*
X00685Y01743*
X00666Y01733D02*
X00661Y01728D01*
Y01719*
X00666Y01714*
X00671*
X00676Y01719*
Y01723*
Y01719*
X0068Y01714*
X00685*
X0069Y01719*
Y01728*
X00685Y01733*
X00455Y01744D02*
X00451Y01749D01*
Y01759*
X00455Y01763*
X00475*
X0048Y01759*
Y01749*
X00475Y01744*
X0048Y01714D02*
Y01734D01*
X0046Y01714*
X00455*
X00451Y01719*
Y01729*
X00455Y01734*
X02609Y02644D02*
Y02619D01*
X02604Y02615*
X02594*
X02589Y02619*
Y02644*
X02579Y02615D02*
X0257D01*
X02575*
Y02644*
X02579Y02639*
X0248Y02429D02*
X0246D01*
X0247*
Y024*
X0245D02*
Y02429D01*
X02435*
X0243Y02424*
Y02414*
X02435Y02409*
X0245*
X0242Y024D02*
X02411D01*
X02416*
Y02429*
X0242Y02424*
X02265Y02645D02*
X02235D01*
Y0263*
X0224Y02625*
X0225*
X02255Y0263*
Y02645*
Y02635D02*
X02265Y02625D01*
X0224Y02615D02*
X02235Y0261D01*
Y026*
X0224Y02595*
X02245*
X0225Y026*
Y02605*
Y026*
X02255Y02595*
X0226*
X02265Y026*
Y0261*
X0226Y02615*
X0235Y02515D02*
Y02544D01*
X02335*
X0233Y02539*
Y02529*
X02335Y02524*
X0235*
X0234D02*
X0233Y02515D01*
X023D02*
X0232D01*
X023Y02534*
Y02539*
X02305Y02544*
X02315*
X0232Y02539*
X0231Y02645D02*
X0228D01*
Y0263*
X02285Y02625*
X02295*
X023Y0263*
Y02645*
Y02635D02*
X0231Y02625D01*
Y02615D02*
Y02605D01*
Y0261*
X0228*
X02285Y02615*
X02869Y0235D02*
X0284D01*
Y02369*
Y02379D02*
Y02389D01*
Y02384*
X02869*
X02864Y02379*
X02929Y02364D02*
X02934Y02359D01*
Y02349*
X02929Y02345*
X02909*
X02905Y02349*
Y02359*
X02909Y02364*
X02905Y02374D02*
Y02384D01*
Y02379*
X02934*
X02929Y02374*
Y02399D02*
X02934Y02404D01*
Y02413*
X02929Y02418*
X02924*
X02919Y02413*
X02914Y02418*
X02909*
X02905Y02413*
Y02404*
X02909Y02399*
X02914*
X02919Y02404*
X02924Y02399*
X02929*
X02919Y02404D02*
Y02413D01*
X02615Y02394D02*
X0262Y02399D01*
X0263*
X02635Y02394*
Y02374*
X0263Y0237*
X0262*
X02615Y02374*
X02605Y0237D02*
X02595D01*
X026*
Y02399*
X02605Y02394*
X0258Y02399D02*
X02561D01*
Y02394*
X0258Y02374*
Y0237*
X02335Y02625D02*
X0233Y0263D01*
Y0264*
X02335Y02645*
X02355*
X0236Y0264*
Y0263*
X02355Y02625*
X0236Y02615D02*
Y02605D01*
Y0261*
X0233*
X02335Y02615*
X0233Y02571D02*
X02335Y02581D01*
X02345Y0259*
X02355*
X0236Y02585*
Y02576*
X02355Y02571*
X0235*
X02345Y02576*
Y0259*
X01803Y00723D02*
Y00752D01*
X01788*
X01783Y00747*
Y00737*
X01788Y00732*
X01803*
X01773Y00747D02*
X01768Y00752D01*
X01758*
X01753Y00747*
Y00742*
X01758Y00737*
X01763*
X01758*
X01753Y00732*
Y00727*
X01758Y00723*
X01768*
X01773Y00727*
X01901Y02298D02*
Y02327D01*
X01886*
X01881Y02322*
Y02312*
X01886Y02307*
X01901*
X01851Y02298D02*
X01871D01*
X01851Y02317*
Y02322*
X01856Y02327*
X01866*
X01871Y02322*
X00305Y01745D02*
X003Y0175D01*
Y0176*
X00305Y01765*
X00325*
X0033Y0176*
Y0175*
X00325Y01745*
X0033Y01735D02*
Y01725D01*
Y0173*
X003*
X00305Y01735*
X0033Y01691D02*
Y0171D01*
X0031Y01691*
X00305*
X003Y01696*
Y01705*
X00305Y0171*
X0024Y01745D02*
X00235Y0175D01*
Y0176*
X0024Y01765*
X0026*
X00265Y0176*
Y0175*
X0026Y01745*
X00265Y01735D02*
Y01725D01*
Y0173*
X00235*
X0024Y01735*
G54D62*
X0284Y0243D02*
X02865D01*
Y0258*
X0284D02*
X02865D01*
X02735Y0243D02*
X0276D01*
X02735D02*
Y0258D01*
X0276*
M02*