G04 #@! TF.GenerationSoftware,KiCad,Pcbnew,5.1.5-52549c5~84~ubuntu18.04.1*
G04 #@! TF.CreationDate,2020-03-05T11:49:07+01:00*
G04 #@! TF.ProjectId,bottom-board,626f7474-6f6d-42d6-926f-6172642e6b69,2.1*
G04 #@! TF.SameCoordinates,PX48111b4PY15fd6c8*
G04 #@! TF.FileFunction,Legend,Bot*
G04 #@! TF.FilePolarity,Positive*
%FSLAX46Y46*%
G04 Gerber Fmt 4.6, Leading zero omitted, Abs format (unit mm)*
G04 Created by KiCad (PCBNEW 5.1.5-52549c5~84~ubuntu18.04.1) date 2020-03-05 11:49:07*
%MOMM*%
%LPD*%
G04 APERTURE LIST*
%ADD10C,0.100000*%
%ADD11C,0.150000*%
%ADD12C,0.300000*%
%ADD13C,0.400000*%
%ADD14C,0.120000*%
G04 APERTURE END LIST*
D10*
D11*
X101434660Y-142949080D02*
X101434660Y-174949080D01*
X209434660Y-174949080D01*
X209434660Y-142949080D01*
X101434660Y-142949080D01*
D10*
D11*
X-65567540Y13058120D02*
X-65567540Y-176949080D01*
X211434660Y-176949080D01*
X211434660Y13058120D01*
X-65567540Y13058120D01*
D10*
D11*
X-63567540Y11058120D02*
X-63567540Y-174949080D01*
X209434660Y-174949080D01*
X209434660Y11058120D01*
X-63567540Y11058120D01*
D10*
D11*
X-15567540Y11058120D02*
X-15567540Y13058120D01*
D10*
D11*
X34432460Y11058120D02*
X34432460Y13058120D01*
D10*
D11*
X84432460Y11058120D02*
X84432460Y13058120D01*
D10*
D11*
X134432460Y11058120D02*
X134432460Y13058120D01*
D10*
D11*
X184432460Y11058120D02*
X184432460Y13058120D01*
D10*
D11*
X-39502064Y11470025D02*
X-40244921Y11470025D01*
X-39873493Y11470025D02*
X-39873493Y12770025D01*
X-39997302Y12584311D01*
X-40121112Y12460501D01*
X-40244921Y12398597D01*
D10*
D11*
X9755079Y12646216D02*
X9816983Y12708120D01*
X9940793Y12770025D01*
X10250317Y12770025D01*
X10374126Y12708120D01*
X10436031Y12646216D01*
X10497936Y12522406D01*
X10497936Y12398597D01*
X10436031Y12212882D01*
X9693174Y11470025D01*
X10497936Y11470025D01*
D10*
D11*
X59693174Y12770025D02*
X60497936Y12770025D01*
X60064602Y12274787D01*
X60250317Y12274787D01*
X60374126Y12212882D01*
X60436031Y12150978D01*
X60497936Y12027168D01*
X60497936Y11717644D01*
X60436031Y11593835D01*
X60374126Y11531930D01*
X60250317Y11470025D01*
X59878888Y11470025D01*
X59755079Y11531930D01*
X59693174Y11593835D01*
D10*
D11*
X110374126Y12336692D02*
X110374126Y11470025D01*
X110064602Y12831930D02*
X109755079Y11903359D01*
X110559840Y11903359D01*
D10*
D11*
X160436031Y12770025D02*
X159816983Y12770025D01*
X159755079Y12150978D01*
X159816983Y12212882D01*
X159940793Y12274787D01*
X160250317Y12274787D01*
X160374126Y12212882D01*
X160436031Y12150978D01*
X160497936Y12027168D01*
X160497936Y11717644D01*
X160436031Y11593835D01*
X160374126Y11531930D01*
X160250317Y11470025D01*
X159940793Y11470025D01*
X159816983Y11531930D01*
X159755079Y11593835D01*
D10*
D11*
X210374126Y12770025D02*
X210126507Y12770025D01*
X210002698Y12708120D01*
X209940793Y12646216D01*
X209816983Y12460501D01*
X209755079Y12212882D01*
X209755079Y11717644D01*
X209816983Y11593835D01*
X209878888Y11531930D01*
X210002698Y11470025D01*
X210250317Y11470025D01*
X210374126Y11531930D01*
X210436031Y11593835D01*
X210497936Y11717644D01*
X210497936Y12027168D01*
X210436031Y12150978D01*
X210374126Y12212882D01*
X210250317Y12274787D01*
X210002698Y12274787D01*
X209878888Y12212882D01*
X209816983Y12150978D01*
X209755079Y12027168D01*
D10*
D11*
X-15567540Y-174949080D02*
X-15567540Y-176949080D01*
D10*
D11*
X34432460Y-174949080D02*
X34432460Y-176949080D01*
D10*
D11*
X84432460Y-174949080D02*
X84432460Y-176949080D01*
D10*
D11*
X134432460Y-174949080D02*
X134432460Y-176949080D01*
D10*
D11*
X184432460Y-174949080D02*
X184432460Y-176949080D01*
D10*
D11*
X-39502064Y-176537175D02*
X-40244921Y-176537175D01*
X-39873493Y-176537175D02*
X-39873493Y-175237175D01*
X-39997302Y-175422889D01*
X-40121112Y-175546699D01*
X-40244921Y-175608603D01*
D10*
D11*
X9755079Y-175360984D02*
X9816983Y-175299080D01*
X9940793Y-175237175D01*
X10250317Y-175237175D01*
X10374126Y-175299080D01*
X10436031Y-175360984D01*
X10497936Y-175484794D01*
X10497936Y-175608603D01*
X10436031Y-175794318D01*
X9693174Y-176537175D01*
X10497936Y-176537175D01*
D10*
D11*
X59693174Y-175237175D02*
X60497936Y-175237175D01*
X60064602Y-175732413D01*
X60250317Y-175732413D01*
X60374126Y-175794318D01*
X60436031Y-175856222D01*
X60497936Y-175980032D01*
X60497936Y-176289556D01*
X60436031Y-176413365D01*
X60374126Y-176475270D01*
X60250317Y-176537175D01*
X59878888Y-176537175D01*
X59755079Y-176475270D01*
X59693174Y-176413365D01*
D10*
D11*
X110374126Y-175670508D02*
X110374126Y-176537175D01*
X110064602Y-175175270D02*
X109755079Y-176103841D01*
X110559840Y-176103841D01*
D10*
D11*
X160436031Y-175237175D02*
X159816983Y-175237175D01*
X159755079Y-175856222D01*
X159816983Y-175794318D01*
X159940793Y-175732413D01*
X160250317Y-175732413D01*
X160374126Y-175794318D01*
X160436031Y-175856222D01*
X160497936Y-175980032D01*
X160497936Y-176289556D01*
X160436031Y-176413365D01*
X160374126Y-176475270D01*
X160250317Y-176537175D01*
X159940793Y-176537175D01*
X159816983Y-176475270D01*
X159755079Y-176413365D01*
D10*
D11*
X210374126Y-175237175D02*
X210126507Y-175237175D01*
X210002698Y-175299080D01*
X209940793Y-175360984D01*
X209816983Y-175546699D01*
X209755079Y-175794318D01*
X209755079Y-176289556D01*
X209816983Y-176413365D01*
X209878888Y-176475270D01*
X210002698Y-176537175D01*
X210250317Y-176537175D01*
X210374126Y-176475270D01*
X210436031Y-176413365D01*
X210497936Y-176289556D01*
X210497936Y-175980032D01*
X210436031Y-175856222D01*
X210374126Y-175794318D01*
X210250317Y-175732413D01*
X210002698Y-175732413D01*
X209878888Y-175794318D01*
X209816983Y-175856222D01*
X209755079Y-175980032D01*
D10*
D11*
X-65567540Y-36941880D02*
X-63567540Y-36941880D01*
D10*
D11*
X-65567540Y-86941880D02*
X-63567540Y-86941880D01*
D10*
D11*
X-65567540Y-136941880D02*
X-63567540Y-136941880D01*
D10*
D11*
X-64877064Y-12158546D02*
X-64258017Y-12158546D01*
X-65000874Y-12529975D02*
X-64567540Y-11229975D01*
X-64134207Y-12529975D01*
D10*
D11*
X-64474683Y-61849022D02*
X-64288969Y-61910927D01*
X-64227064Y-61972832D01*
X-64165160Y-62096641D01*
X-64165160Y-62282356D01*
X-64227064Y-62406165D01*
X-64288969Y-62468070D01*
X-64412779Y-62529975D01*
X-64908017Y-62529975D01*
X-64908017Y-61229975D01*
X-64474683Y-61229975D01*
X-64350874Y-61291880D01*
X-64288969Y-61353784D01*
X-64227064Y-61477594D01*
X-64227064Y-61601403D01*
X-64288969Y-61725213D01*
X-64350874Y-61787118D01*
X-64474683Y-61849022D01*
X-64908017Y-61849022D01*
D10*
D11*
X-64165160Y-112406165D02*
X-64227064Y-112468070D01*
X-64412779Y-112529975D01*
X-64536588Y-112529975D01*
X-64722302Y-112468070D01*
X-64846112Y-112344260D01*
X-64908017Y-112220451D01*
X-64969921Y-111972832D01*
X-64969921Y-111787118D01*
X-64908017Y-111539499D01*
X-64846112Y-111415689D01*
X-64722302Y-111291880D01*
X-64536588Y-111229975D01*
X-64412779Y-111229975D01*
X-64227064Y-111291880D01*
X-64165160Y-111353784D01*
D10*
D11*
X-64908017Y-162529975D02*
X-64908017Y-161229975D01*
X-64598493Y-161229975D01*
X-64412779Y-161291880D01*
X-64288969Y-161415689D01*
X-64227064Y-161539499D01*
X-64165160Y-161787118D01*
X-64165160Y-161972832D01*
X-64227064Y-162220451D01*
X-64288969Y-162344260D01*
X-64412779Y-162468070D01*
X-64598493Y-162529975D01*
X-64908017Y-162529975D01*
D10*
D11*
X211434660Y-36941880D02*
X209434660Y-36941880D01*
D10*
D11*
X211434660Y-86941880D02*
X209434660Y-86941880D01*
D10*
D11*
X211434660Y-136941880D02*
X209434660Y-136941880D01*
D10*
D11*
X210125136Y-12158546D02*
X210744183Y-12158546D01*
X210001326Y-12529975D02*
X210434660Y-11229975D01*
X210867993Y-12529975D01*
D10*
D11*
X210527517Y-61849022D02*
X210713231Y-61910927D01*
X210775136Y-61972832D01*
X210837040Y-62096641D01*
X210837040Y-62282356D01*
X210775136Y-62406165D01*
X210713231Y-62468070D01*
X210589421Y-62529975D01*
X210094183Y-62529975D01*
X210094183Y-61229975D01*
X210527517Y-61229975D01*
X210651326Y-61291880D01*
X210713231Y-61353784D01*
X210775136Y-61477594D01*
X210775136Y-61601403D01*
X210713231Y-61725213D01*
X210651326Y-61787118D01*
X210527517Y-61849022D01*
X210094183Y-61849022D01*
D10*
D11*
X210837040Y-112406165D02*
X210775136Y-112468070D01*
X210589421Y-112529975D01*
X210465612Y-112529975D01*
X210279898Y-112468070D01*
X210156088Y-112344260D01*
X210094183Y-112220451D01*
X210032279Y-111972832D01*
X210032279Y-111787118D01*
X210094183Y-111539499D01*
X210156088Y-111415689D01*
X210279898Y-111291880D01*
X210465612Y-111229975D01*
X210589421Y-111229975D01*
X210775136Y-111291880D01*
X210837040Y-111353784D01*
D10*
D11*
X210094183Y-162529975D02*
X210094183Y-161229975D01*
X210403707Y-161229975D01*
X210589421Y-161291880D01*
X210713231Y-161415689D01*
X210775136Y-161539499D01*
X210837040Y-161787118D01*
X210837040Y-161972832D01*
X210775136Y-162220451D01*
X210713231Y-162344260D01*
X210589421Y-162468070D01*
X210403707Y-162529975D01*
X210094183Y-162529975D01*
D10*
D11*
X124866802Y-170727651D02*
X124866802Y-169227651D01*
X125223945Y-169227651D01*
X125438231Y-169299080D01*
X125581088Y-169441937D01*
X125652517Y-169584794D01*
X125723945Y-169870508D01*
X125723945Y-170084794D01*
X125652517Y-170370508D01*
X125581088Y-170513365D01*
X125438231Y-170656222D01*
X125223945Y-170727651D01*
X124866802Y-170727651D01*
X127009660Y-170727651D02*
X127009660Y-169941937D01*
X126938231Y-169799080D01*
X126795374Y-169727651D01*
X126509660Y-169727651D01*
X126366802Y-169799080D01*
X127009660Y-170656222D02*
X126866802Y-170727651D01*
X126509660Y-170727651D01*
X126366802Y-170656222D01*
X126295374Y-170513365D01*
X126295374Y-170370508D01*
X126366802Y-170227651D01*
X126509660Y-170156222D01*
X126866802Y-170156222D01*
X127009660Y-170084794D01*
X127509660Y-169727651D02*
X128081088Y-169727651D01*
X127723945Y-169227651D02*
X127723945Y-170513365D01*
X127795374Y-170656222D01*
X127938231Y-170727651D01*
X128081088Y-170727651D01*
X129152517Y-170656222D02*
X129009660Y-170727651D01*
X128723945Y-170727651D01*
X128581088Y-170656222D01*
X128509660Y-170513365D01*
X128509660Y-169941937D01*
X128581088Y-169799080D01*
X128723945Y-169727651D01*
X129009660Y-169727651D01*
X129152517Y-169799080D01*
X129223945Y-169941937D01*
X129223945Y-170084794D01*
X128509660Y-170227651D01*
X129866802Y-170584794D02*
X129938231Y-170656222D01*
X129866802Y-170727651D01*
X129795374Y-170656222D01*
X129866802Y-170584794D01*
X129866802Y-170727651D01*
X129866802Y-169799080D02*
X129938231Y-169870508D01*
X129866802Y-169941937D01*
X129795374Y-169870508D01*
X129866802Y-169799080D01*
X129866802Y-169941937D01*
X131652517Y-169370508D02*
X131723945Y-169299080D01*
X131866802Y-169227651D01*
X132223945Y-169227651D01*
X132366802Y-169299080D01*
X132438231Y-169370508D01*
X132509660Y-169513365D01*
X132509660Y-169656222D01*
X132438231Y-169870508D01*
X131581088Y-170727651D01*
X132509660Y-170727651D01*
X133438231Y-169227651D02*
X133581088Y-169227651D01*
X133723945Y-169299080D01*
X133795374Y-169370508D01*
X133866802Y-169513365D01*
X133938231Y-169799080D01*
X133938231Y-170156222D01*
X133866802Y-170441937D01*
X133795374Y-170584794D01*
X133723945Y-170656222D01*
X133581088Y-170727651D01*
X133438231Y-170727651D01*
X133295374Y-170656222D01*
X133223945Y-170584794D01*
X133152517Y-170441937D01*
X133081088Y-170156222D01*
X133081088Y-169799080D01*
X133152517Y-169513365D01*
X133223945Y-169370508D01*
X133295374Y-169299080D01*
X133438231Y-169227651D01*
X134509660Y-169370508D02*
X134581088Y-169299080D01*
X134723945Y-169227651D01*
X135081088Y-169227651D01*
X135223945Y-169299080D01*
X135295374Y-169370508D01*
X135366802Y-169513365D01*
X135366802Y-169656222D01*
X135295374Y-169870508D01*
X134438231Y-170727651D01*
X135366802Y-170727651D01*
X136295374Y-169227651D02*
X136438231Y-169227651D01*
X136581088Y-169299080D01*
X136652517Y-169370508D01*
X136723945Y-169513365D01*
X136795374Y-169799080D01*
X136795374Y-170156222D01*
X136723945Y-170441937D01*
X136652517Y-170584794D01*
X136581088Y-170656222D01*
X136438231Y-170727651D01*
X136295374Y-170727651D01*
X136152517Y-170656222D01*
X136081088Y-170584794D01*
X136009660Y-170441937D01*
X135938231Y-170156222D01*
X135938231Y-169799080D01*
X136009660Y-169513365D01*
X136081088Y-169370508D01*
X136152517Y-169299080D01*
X136295374Y-169227651D01*
X137438231Y-170156222D02*
X138581088Y-170156222D01*
X139581088Y-169227651D02*
X139723945Y-169227651D01*
X139866802Y-169299080D01*
X139938231Y-169370508D01*
X140009660Y-169513365D01*
X140081088Y-169799080D01*
X140081088Y-170156222D01*
X140009660Y-170441937D01*
X139938231Y-170584794D01*
X139866802Y-170656222D01*
X139723945Y-170727651D01*
X139581088Y-170727651D01*
X139438231Y-170656222D01*
X139366802Y-170584794D01*
X139295374Y-170441937D01*
X139223945Y-170156222D01*
X139223945Y-169799080D01*
X139295374Y-169513365D01*
X139366802Y-169370508D01*
X139438231Y-169299080D01*
X139581088Y-169227651D01*
X140652517Y-169370508D02*
X140723945Y-169299080D01*
X140866802Y-169227651D01*
X141223945Y-169227651D01*
X141366802Y-169299080D01*
X141438231Y-169370508D01*
X141509660Y-169513365D01*
X141509660Y-169656222D01*
X141438231Y-169870508D01*
X140581088Y-170727651D01*
X141509660Y-170727651D01*
X142152517Y-170156222D02*
X143295374Y-170156222D01*
X144795374Y-170727651D02*
X143938231Y-170727651D01*
X144366802Y-170727651D02*
X144366802Y-169227651D01*
X144223945Y-169441937D01*
X144081088Y-169584794D01*
X143938231Y-169656222D01*
X145509660Y-170727651D02*
X145795374Y-170727651D01*
X145938231Y-170656222D01*
X146009660Y-170584794D01*
X146152517Y-170370508D01*
X146223945Y-170084794D01*
X146223945Y-169513365D01*
X146152517Y-169370508D01*
X146081088Y-169299080D01*
X145938231Y-169227651D01*
X145652517Y-169227651D01*
X145509660Y-169299080D01*
X145438231Y-169370508D01*
X145366802Y-169513365D01*
X145366802Y-169870508D01*
X145438231Y-170013365D01*
X145509660Y-170084794D01*
X145652517Y-170156222D01*
X145938231Y-170156222D01*
X146081088Y-170084794D01*
X146152517Y-170013365D01*
X146223945Y-169870508D01*
D10*
D11*
X101434660Y-171449080D02*
X209434660Y-171449080D01*
D10*
D11*
X102866802Y-173527651D02*
X102866802Y-172027651D01*
X103723945Y-173527651D02*
X103081088Y-172670508D01*
X103723945Y-172027651D02*
X102866802Y-172884794D01*
X104366802Y-173527651D02*
X104366802Y-172527651D01*
X104366802Y-172027651D02*
X104295374Y-172099080D01*
X104366802Y-172170508D01*
X104438231Y-172099080D01*
X104366802Y-172027651D01*
X104366802Y-172170508D01*
X105938231Y-173384794D02*
X105866802Y-173456222D01*
X105652517Y-173527651D01*
X105509660Y-173527651D01*
X105295374Y-173456222D01*
X105152517Y-173313365D01*
X105081088Y-173170508D01*
X105009660Y-172884794D01*
X105009660Y-172670508D01*
X105081088Y-172384794D01*
X105152517Y-172241937D01*
X105295374Y-172099080D01*
X105509660Y-172027651D01*
X105652517Y-172027651D01*
X105866802Y-172099080D01*
X105938231Y-172170508D01*
X107223945Y-173527651D02*
X107223945Y-172741937D01*
X107152517Y-172599080D01*
X107009660Y-172527651D01*
X106723945Y-172527651D01*
X106581088Y-172599080D01*
X107223945Y-173456222D02*
X107081088Y-173527651D01*
X106723945Y-173527651D01*
X106581088Y-173456222D01*
X106509660Y-173313365D01*
X106509660Y-173170508D01*
X106581088Y-173027651D01*
X106723945Y-172956222D01*
X107081088Y-172956222D01*
X107223945Y-172884794D01*
X108581088Y-173527651D02*
X108581088Y-172027651D01*
X108581088Y-173456222D02*
X108438231Y-173527651D01*
X108152517Y-173527651D01*
X108009660Y-173456222D01*
X107938231Y-173384794D01*
X107866802Y-173241937D01*
X107866802Y-172813365D01*
X107938231Y-172670508D01*
X108009660Y-172599080D01*
X108152517Y-172527651D01*
X108438231Y-172527651D01*
X108581088Y-172599080D01*
X110438231Y-172741937D02*
X110938231Y-172741937D01*
X111152517Y-173527651D02*
X110438231Y-173527651D01*
X110438231Y-172027651D01*
X111152517Y-172027651D01*
X111795374Y-173384794D02*
X111866802Y-173456222D01*
X111795374Y-173527651D01*
X111723945Y-173456222D01*
X111795374Y-173384794D01*
X111795374Y-173527651D01*
X112509660Y-173527651D02*
X112509660Y-172027651D01*
X112866802Y-172027651D01*
X113081088Y-172099080D01*
X113223945Y-172241937D01*
X113295374Y-172384794D01*
X113366802Y-172670508D01*
X113366802Y-172884794D01*
X113295374Y-173170508D01*
X113223945Y-173313365D01*
X113081088Y-173456222D01*
X112866802Y-173527651D01*
X112509660Y-173527651D01*
X114009660Y-173384794D02*
X114081088Y-173456222D01*
X114009660Y-173527651D01*
X113938231Y-173456222D01*
X114009660Y-173384794D01*
X114009660Y-173527651D01*
X114652517Y-173099080D02*
X115366802Y-173099080D01*
X114509660Y-173527651D02*
X115009660Y-172027651D01*
X115509660Y-173527651D01*
X116009660Y-173384794D02*
X116081088Y-173456222D01*
X116009660Y-173527651D01*
X115938231Y-173456222D01*
X116009660Y-173384794D01*
X116009660Y-173527651D01*
X119009660Y-173527651D02*
X119009660Y-172027651D01*
X119152517Y-172956222D02*
X119581088Y-173527651D01*
X119581088Y-172527651D02*
X119009660Y-173099080D01*
X120223945Y-173527651D02*
X120223945Y-172527651D01*
X120223945Y-172027651D02*
X120152517Y-172099080D01*
X120223945Y-172170508D01*
X120295374Y-172099080D01*
X120223945Y-172027651D01*
X120223945Y-172170508D01*
X121581088Y-173456222D02*
X121438231Y-173527651D01*
X121152517Y-173527651D01*
X121009660Y-173456222D01*
X120938231Y-173384794D01*
X120866802Y-173241937D01*
X120866802Y-172813365D01*
X120938231Y-172670508D01*
X121009660Y-172599080D01*
X121152517Y-172527651D01*
X121438231Y-172527651D01*
X121581088Y-172599080D01*
X122866802Y-173527651D02*
X122866802Y-172741937D01*
X122795374Y-172599080D01*
X122652517Y-172527651D01*
X122366802Y-172527651D01*
X122223945Y-172599080D01*
X122866802Y-173456222D02*
X122723945Y-173527651D01*
X122366802Y-173527651D01*
X122223945Y-173456222D01*
X122152517Y-173313365D01*
X122152517Y-173170508D01*
X122223945Y-173027651D01*
X122366802Y-172956222D01*
X122723945Y-172956222D01*
X122866802Y-172884794D01*
X124223945Y-173527651D02*
X124223945Y-172027651D01*
X124223945Y-173456222D02*
X124081088Y-173527651D01*
X123795374Y-173527651D01*
X123652517Y-173456222D01*
X123581088Y-173384794D01*
X123509660Y-173241937D01*
X123509660Y-172813365D01*
X123581088Y-172670508D01*
X123652517Y-172599080D01*
X123795374Y-172527651D01*
X124081088Y-172527651D01*
X124223945Y-172599080D01*
X126795374Y-172027651D02*
X126081088Y-172027651D01*
X126009660Y-172741937D01*
X126081088Y-172670508D01*
X126223945Y-172599080D01*
X126581088Y-172599080D01*
X126723945Y-172670508D01*
X126795374Y-172741937D01*
X126866802Y-172884794D01*
X126866802Y-173241937D01*
X126795374Y-173384794D01*
X126723945Y-173456222D01*
X126581088Y-173527651D01*
X126223945Y-173527651D01*
X126081088Y-173456222D01*
X126009660Y-173384794D01*
X127509660Y-173384794D02*
X127581088Y-173456222D01*
X127509660Y-173527651D01*
X127438231Y-173456222D01*
X127509660Y-173384794D01*
X127509660Y-173527651D01*
X129009660Y-173527651D02*
X128152517Y-173527651D01*
X128581088Y-173527651D02*
X128581088Y-172027651D01*
X128438231Y-172241937D01*
X128295374Y-172384794D01*
X128152517Y-172456222D01*
X129652517Y-173384794D02*
X129723945Y-173456222D01*
X129652517Y-173527651D01*
X129581088Y-173456222D01*
X129652517Y-173384794D01*
X129652517Y-173527651D01*
X131081088Y-172027651D02*
X130366802Y-172027651D01*
X130295374Y-172741937D01*
X130366802Y-172670508D01*
X130509660Y-172599080D01*
X130866802Y-172599080D01*
X131009660Y-172670508D01*
X131081088Y-172741937D01*
X131152517Y-172884794D01*
X131152517Y-173241937D01*
X131081088Y-173384794D01*
X131009660Y-173456222D01*
X130866802Y-173527651D01*
X130509660Y-173527651D01*
X130366802Y-173456222D01*
X130295374Y-173384794D01*
X131795374Y-172956222D02*
X132938231Y-172956222D01*
X134366802Y-172027651D02*
X133652517Y-172027651D01*
X133581088Y-172741937D01*
X133652517Y-172670508D01*
X133795374Y-172599080D01*
X134152517Y-172599080D01*
X134295374Y-172670508D01*
X134366802Y-172741937D01*
X134438231Y-172884794D01*
X134438231Y-173241937D01*
X134366802Y-173384794D01*
X134295374Y-173456222D01*
X134152517Y-173527651D01*
X133795374Y-173527651D01*
X133652517Y-173456222D01*
X133581088Y-173384794D01*
X135009660Y-172170508D02*
X135081088Y-172099080D01*
X135223945Y-172027651D01*
X135581088Y-172027651D01*
X135723945Y-172099080D01*
X135795374Y-172170508D01*
X135866802Y-172313365D01*
X135866802Y-172456222D01*
X135795374Y-172670508D01*
X134938231Y-173527651D01*
X135866802Y-173527651D01*
X137223945Y-172027651D02*
X136509660Y-172027651D01*
X136438231Y-172741937D01*
X136509660Y-172670508D01*
X136652517Y-172599080D01*
X137009660Y-172599080D01*
X137152517Y-172670508D01*
X137223945Y-172741937D01*
X137295374Y-172884794D01*
X137295374Y-173241937D01*
X137223945Y-173384794D01*
X137152517Y-173456222D01*
X137009660Y-173527651D01*
X136652517Y-173527651D01*
X136509660Y-173456222D01*
X136438231Y-173384794D01*
X138581088Y-172527651D02*
X138581088Y-173527651D01*
X138223945Y-171956222D02*
X137866802Y-173027651D01*
X138795374Y-173027651D01*
X139438231Y-173527651D02*
X139723945Y-173527651D01*
X139866802Y-173456222D01*
X139938231Y-173384794D01*
X140081088Y-173170508D01*
X140152517Y-172884794D01*
X140152517Y-172313365D01*
X140081088Y-172170508D01*
X140009660Y-172099080D01*
X139866802Y-172027651D01*
X139581088Y-172027651D01*
X139438231Y-172099080D01*
X139366802Y-172170508D01*
X139295374Y-172313365D01*
X139295374Y-172670508D01*
X139366802Y-172813365D01*
X139438231Y-172884794D01*
X139581088Y-172956222D01*
X139866802Y-172956222D01*
X140009660Y-172884794D01*
X140081088Y-172813365D01*
X140152517Y-172670508D01*
X141438231Y-173456222D02*
X141295374Y-173527651D01*
X141009660Y-173527651D01*
X140866802Y-173456222D01*
X140795374Y-173384794D01*
X140723945Y-173241937D01*
X140723945Y-172813365D01*
X140795374Y-172670508D01*
X140866802Y-172599080D01*
X141009660Y-172527651D01*
X141295374Y-172527651D01*
X141438231Y-172599080D01*
X142795374Y-172027651D02*
X142081088Y-172027651D01*
X142009660Y-172741937D01*
X142081088Y-172670508D01*
X142223945Y-172599080D01*
X142581088Y-172599080D01*
X142723945Y-172670508D01*
X142795374Y-172741937D01*
X142866802Y-172884794D01*
X142866802Y-173241937D01*
X142795374Y-173384794D01*
X142723945Y-173456222D01*
X142581088Y-173527651D01*
X142223945Y-173527651D01*
X142081088Y-173456222D01*
X142009660Y-173384794D01*
X143152517Y-171619080D02*
X144581088Y-171619080D01*
X143723945Y-172670508D02*
X143581088Y-172599080D01*
X143509660Y-172527651D01*
X143438231Y-172384794D01*
X143438231Y-172313365D01*
X143509660Y-172170508D01*
X143581088Y-172099080D01*
X143723945Y-172027651D01*
X144009660Y-172027651D01*
X144152517Y-172099080D01*
X144223945Y-172170508D01*
X144295374Y-172313365D01*
X144295374Y-172384794D01*
X144223945Y-172527651D01*
X144152517Y-172599080D01*
X144009660Y-172670508D01*
X143723945Y-172670508D01*
X143581088Y-172741937D01*
X143509660Y-172813365D01*
X143438231Y-172956222D01*
X143438231Y-173241937D01*
X143509660Y-173384794D01*
X143581088Y-173456222D01*
X143723945Y-173527651D01*
X144009660Y-173527651D01*
X144152517Y-173456222D01*
X144223945Y-173384794D01*
X144295374Y-173241937D01*
X144295374Y-172956222D01*
X144223945Y-172813365D01*
X144152517Y-172741937D01*
X144009660Y-172670508D01*
X144581088Y-171619080D02*
X146009659Y-171619080D01*
X145581088Y-172527651D02*
X145581088Y-173527651D01*
X145223945Y-171956222D02*
X144866802Y-173027651D01*
X145795374Y-173027651D01*
X147009659Y-172527651D02*
X147009659Y-173527651D01*
X146366802Y-172527651D02*
X146366802Y-173313365D01*
X146438231Y-173456222D01*
X146581088Y-173527651D01*
X146795374Y-173527651D01*
X146938231Y-173456222D01*
X147009659Y-173384794D01*
X147723945Y-173527651D02*
X147723945Y-172027651D01*
X147723945Y-172599080D02*
X147866802Y-172527651D01*
X148152517Y-172527651D01*
X148295374Y-172599080D01*
X148366802Y-172670508D01*
X148438231Y-172813365D01*
X148438231Y-173241937D01*
X148366802Y-173384794D01*
X148295374Y-173456222D01*
X148152517Y-173527651D01*
X147866802Y-173527651D01*
X147723945Y-173456222D01*
X149723945Y-172527651D02*
X149723945Y-173527651D01*
X149081088Y-172527651D02*
X149081088Y-173313365D01*
X149152517Y-173456222D01*
X149295374Y-173527651D01*
X149509659Y-173527651D01*
X149652517Y-173456222D01*
X149723945Y-173384794D01*
X150438231Y-172527651D02*
X150438231Y-173527651D01*
X150438231Y-172670508D02*
X150509659Y-172599080D01*
X150652517Y-172527651D01*
X150866802Y-172527651D01*
X151009659Y-172599080D01*
X151081088Y-172741937D01*
X151081088Y-173527651D01*
X151581088Y-172527651D02*
X152152517Y-172527651D01*
X151795374Y-172027651D02*
X151795374Y-173313365D01*
X151866802Y-173456222D01*
X152009660Y-173527651D01*
X152152517Y-173527651D01*
X153295374Y-172527651D02*
X153295374Y-173527651D01*
X152652517Y-172527651D02*
X152652517Y-173313365D01*
X152723945Y-173456222D01*
X152866802Y-173527651D01*
X153081088Y-173527651D01*
X153223945Y-173456222D01*
X153295374Y-173384794D01*
X154795374Y-173527651D02*
X153938231Y-173527651D01*
X154366802Y-173527651D02*
X154366802Y-172027651D01*
X154223945Y-172241937D01*
X154081088Y-172384794D01*
X153938231Y-172456222D01*
X155652517Y-172670508D02*
X155509659Y-172599080D01*
X155438231Y-172527651D01*
X155366802Y-172384794D01*
X155366802Y-172313365D01*
X155438231Y-172170508D01*
X155509659Y-172099080D01*
X155652517Y-172027651D01*
X155938231Y-172027651D01*
X156081088Y-172099080D01*
X156152517Y-172170508D01*
X156223945Y-172313365D01*
X156223945Y-172384794D01*
X156152517Y-172527651D01*
X156081088Y-172599080D01*
X155938231Y-172670508D01*
X155652517Y-172670508D01*
X155509659Y-172741937D01*
X155438231Y-172813365D01*
X155366802Y-172956222D01*
X155366802Y-173241937D01*
X155438231Y-173384794D01*
X155509659Y-173456222D01*
X155652517Y-173527651D01*
X155938231Y-173527651D01*
X156081088Y-173456222D01*
X156152517Y-173384794D01*
X156223945Y-173241937D01*
X156223945Y-172956222D01*
X156152517Y-172813365D01*
X156081088Y-172741937D01*
X155938231Y-172670508D01*
X156866802Y-173384794D02*
X156938231Y-173456222D01*
X156866802Y-173527651D01*
X156795374Y-173456222D01*
X156866802Y-173384794D01*
X156866802Y-173527651D01*
X157866802Y-172027651D02*
X158009659Y-172027651D01*
X158152517Y-172099080D01*
X158223945Y-172170508D01*
X158295374Y-172313365D01*
X158366802Y-172599080D01*
X158366802Y-172956222D01*
X158295374Y-173241937D01*
X158223945Y-173384794D01*
X158152517Y-173456222D01*
X158009659Y-173527651D01*
X157866802Y-173527651D01*
X157723945Y-173456222D01*
X157652517Y-173384794D01*
X157581088Y-173241937D01*
X157509659Y-172956222D01*
X157509659Y-172599080D01*
X157581088Y-172313365D01*
X157652517Y-172170508D01*
X157723945Y-172099080D01*
X157866802Y-172027651D01*
X159652517Y-172527651D02*
X159652517Y-173527651D01*
X159295374Y-171956222D02*
X158938231Y-173027651D01*
X159866802Y-173027651D01*
X160438231Y-173384794D02*
X160509659Y-173456222D01*
X160438231Y-173527651D01*
X160366802Y-173456222D01*
X160438231Y-173384794D01*
X160438231Y-173527651D01*
X161938231Y-173527651D02*
X161081088Y-173527651D01*
X161509659Y-173527651D02*
X161509659Y-172027651D01*
X161366802Y-172241937D01*
X161223945Y-172384794D01*
X161081088Y-172456222D01*
D10*
D11*
X101434660Y-168449080D02*
X209434660Y-168449080D01*
D10*
D12*
X188843945Y-170727651D02*
X188343945Y-170013365D01*
X187986802Y-170727651D02*
X187986802Y-169227651D01*
X188558231Y-169227651D01*
X188701088Y-169299080D01*
X188772517Y-169370508D01*
X188843945Y-169513365D01*
X188843945Y-169727651D01*
X188772517Y-169870508D01*
X188701088Y-169941937D01*
X188558231Y-170013365D01*
X187986802Y-170013365D01*
X190058231Y-170656222D02*
X189915374Y-170727651D01*
X189629660Y-170727651D01*
X189486802Y-170656222D01*
X189415374Y-170513365D01*
X189415374Y-169941937D01*
X189486802Y-169799080D01*
X189629660Y-169727651D01*
X189915374Y-169727651D01*
X190058231Y-169799080D01*
X190129660Y-169941937D01*
X190129660Y-170084794D01*
X189415374Y-170227651D01*
X190629660Y-169727651D02*
X190986802Y-170727651D01*
X191343945Y-169727651D01*
X191915374Y-170584794D02*
X191986802Y-170656222D01*
X191915374Y-170727651D01*
X191843945Y-170656222D01*
X191915374Y-170584794D01*
X191915374Y-170727651D01*
X191915374Y-169799080D02*
X191986802Y-169870508D01*
X191915374Y-169941937D01*
X191843945Y-169870508D01*
X191915374Y-169799080D01*
X191915374Y-169941937D01*
X193701088Y-169370508D02*
X193772517Y-169299080D01*
X193915374Y-169227651D01*
X194272517Y-169227651D01*
X194415374Y-169299080D01*
X194486802Y-169370508D01*
X194558231Y-169513365D01*
X194558231Y-169656222D01*
X194486802Y-169870508D01*
X193629660Y-170727651D01*
X194558231Y-170727651D01*
X195201088Y-170584794D02*
X195272517Y-170656222D01*
X195201088Y-170727651D01*
X195129660Y-170656222D01*
X195201088Y-170584794D01*
X195201088Y-170727651D01*
X196701088Y-170727651D02*
X195843945Y-170727651D01*
X196272517Y-170727651D02*
X196272517Y-169227651D01*
X196129660Y-169441937D01*
X195986802Y-169584794D01*
X195843945Y-169656222D01*
D10*
D11*
X102795374Y-170656222D02*
X103009660Y-170727651D01*
X103366802Y-170727651D01*
X103509660Y-170656222D01*
X103581088Y-170584794D01*
X103652517Y-170441937D01*
X103652517Y-170299080D01*
X103581088Y-170156222D01*
X103509660Y-170084794D01*
X103366802Y-170013365D01*
X103081088Y-169941937D01*
X102938231Y-169870508D01*
X102866802Y-169799080D01*
X102795374Y-169656222D01*
X102795374Y-169513365D01*
X102866802Y-169370508D01*
X102938231Y-169299080D01*
X103081088Y-169227651D01*
X103438231Y-169227651D01*
X103652517Y-169299080D01*
X104295374Y-170727651D02*
X104295374Y-169727651D01*
X104295374Y-169227651D02*
X104223945Y-169299080D01*
X104295374Y-169370508D01*
X104366802Y-169299080D01*
X104295374Y-169227651D01*
X104295374Y-169370508D01*
X104866802Y-169727651D02*
X105652517Y-169727651D01*
X104866802Y-170727651D01*
X105652517Y-170727651D01*
X106795374Y-170656222D02*
X106652517Y-170727651D01*
X106366802Y-170727651D01*
X106223945Y-170656222D01*
X106152517Y-170513365D01*
X106152517Y-169941937D01*
X106223945Y-169799080D01*
X106366802Y-169727651D01*
X106652517Y-169727651D01*
X106795374Y-169799080D01*
X106866802Y-169941937D01*
X106866802Y-170084794D01*
X106152517Y-170227651D01*
X107509660Y-170584794D02*
X107581088Y-170656222D01*
X107509660Y-170727651D01*
X107438231Y-170656222D01*
X107509660Y-170584794D01*
X107509660Y-170727651D01*
X107509660Y-169799080D02*
X107581088Y-169870508D01*
X107509660Y-169941937D01*
X107438231Y-169870508D01*
X107509660Y-169799080D01*
X107509660Y-169941937D01*
X109295374Y-170299080D02*
X110009660Y-170299080D01*
X109152517Y-170727651D02*
X109652517Y-169227651D01*
X110152517Y-170727651D01*
X111295374Y-169727651D02*
X111295374Y-170727651D01*
X110938231Y-169156222D02*
X110581088Y-170227651D01*
X111509660Y-170227651D01*
D10*
D11*
X187866802Y-173527651D02*
X187866802Y-172027651D01*
X189223945Y-173527651D02*
X189223945Y-172027651D01*
X189223945Y-173456222D02*
X189081088Y-173527651D01*
X188795374Y-173527651D01*
X188652517Y-173456222D01*
X188581088Y-173384794D01*
X188509660Y-173241937D01*
X188509660Y-172813365D01*
X188581088Y-172670508D01*
X188652517Y-172599080D01*
X188795374Y-172527651D01*
X189081088Y-172527651D01*
X189223945Y-172599080D01*
X189938231Y-173384794D02*
X190009660Y-173456222D01*
X189938231Y-173527651D01*
X189866802Y-173456222D01*
X189938231Y-173384794D01*
X189938231Y-173527651D01*
X189938231Y-172599080D02*
X190009660Y-172670508D01*
X189938231Y-172741937D01*
X189866802Y-172670508D01*
X189938231Y-172599080D01*
X189938231Y-172741937D01*
X192581088Y-173527651D02*
X191723945Y-173527651D01*
X192152517Y-173527651D02*
X192152517Y-172027651D01*
X192009660Y-172241937D01*
X191866802Y-172384794D01*
X191723945Y-172456222D01*
X194295374Y-171956222D02*
X193009660Y-173884794D01*
X195581088Y-173527651D02*
X194723945Y-173527651D01*
X195152517Y-173527651D02*
X195152517Y-172027651D01*
X195009660Y-172241937D01*
X194866802Y-172384794D01*
X194723945Y-172456222D01*
D10*
D11*
X101434660Y-164449080D02*
X209434660Y-164449080D01*
D10*
D13*
X103147040Y-165153841D02*
X104289898Y-165153841D01*
X103468469Y-167153841D02*
X103718469Y-165153841D01*
X104706564Y-167153841D02*
X104873231Y-165820508D01*
X104956564Y-165153841D02*
X104849421Y-165249080D01*
X104932755Y-165344318D01*
X105039898Y-165249080D01*
X104956564Y-165153841D01*
X104932755Y-165344318D01*
X105539898Y-165820508D02*
X106301802Y-165820508D01*
X105908945Y-165153841D02*
X105694660Y-166868127D01*
X105766088Y-167058603D01*
X105944660Y-167153841D01*
X106135136Y-167153841D01*
X107087517Y-167153841D02*
X106908945Y-167058603D01*
X106837517Y-166868127D01*
X107051802Y-165153841D01*
X108623231Y-167058603D02*
X108420850Y-167153841D01*
X108039898Y-167153841D01*
X107861326Y-167058603D01*
X107789898Y-166868127D01*
X107885136Y-166106222D01*
X108004183Y-165915746D01*
X108206564Y-165820508D01*
X108587517Y-165820508D01*
X108766088Y-165915746D01*
X108837517Y-166106222D01*
X108813707Y-166296699D01*
X107837517Y-166487175D01*
X109587517Y-166963365D02*
X109670850Y-167058603D01*
X109563707Y-167153841D01*
X109480374Y-167058603D01*
X109587517Y-166963365D01*
X109563707Y-167153841D01*
X109718469Y-165915746D02*
X109801802Y-166010984D01*
X109694660Y-166106222D01*
X109611326Y-166010984D01*
X109718469Y-165915746D01*
X109694660Y-166106222D01*
X112039898Y-167153841D02*
X112289898Y-165153841D01*
X112777993Y-166582413D01*
X113623231Y-165153841D01*
X113373231Y-167153841D01*
X114956564Y-165153841D02*
X115337517Y-165153841D01*
X115516088Y-165249080D01*
X115682755Y-165439556D01*
X115730374Y-165820508D01*
X115647040Y-166487175D01*
X115504183Y-166868127D01*
X115289898Y-167058603D01*
X115087517Y-167153841D01*
X114706564Y-167153841D01*
X114527993Y-167058603D01*
X114361326Y-166868127D01*
X114313707Y-166487175D01*
X114397040Y-165820508D01*
X114539898Y-165439556D01*
X114754183Y-165249080D01*
X114956564Y-165153841D01*
X116420850Y-167153841D02*
X116670850Y-165153841D01*
X117147040Y-165153841D01*
X117420850Y-165249080D01*
X117587517Y-165439556D01*
X117658945Y-165630032D01*
X117706564Y-166010984D01*
X117670850Y-166296699D01*
X117527993Y-166677651D01*
X117408945Y-166868127D01*
X117194660Y-167058603D01*
X116897040Y-167153841D01*
X116420850Y-167153841D01*
X119944660Y-167153841D02*
X120194660Y-165153841D01*
X120670850Y-165153841D01*
X120944660Y-165249080D01*
X121111326Y-165439556D01*
X121182755Y-165630032D01*
X121230374Y-166010984D01*
X121194660Y-166296699D01*
X121051802Y-166677651D01*
X120932755Y-166868127D01*
X120718469Y-167058603D01*
X120420850Y-167153841D01*
X119944660Y-167153841D01*
X122968469Y-165820508D02*
X122801802Y-167153841D01*
X122111326Y-165820508D02*
X121980374Y-166868127D01*
X122051802Y-167058603D01*
X122230374Y-167153841D01*
X122516088Y-167153841D01*
X122718469Y-167058603D01*
X122825612Y-166963365D01*
X124039898Y-167153841D02*
X123861326Y-167058603D01*
X123777993Y-166963365D01*
X123706564Y-166772889D01*
X123777993Y-166201460D01*
X123897040Y-166010984D01*
X124004183Y-165915746D01*
X124206564Y-165820508D01*
X124492279Y-165820508D01*
X124670850Y-165915746D01*
X124754183Y-166010984D01*
X124825612Y-166201460D01*
X124754183Y-166772889D01*
X124635136Y-166963365D01*
X124527993Y-167058603D01*
X124325612Y-167153841D01*
X124039898Y-167153841D01*
X125623231Y-165153841D02*
X126706564Y-167153841D01*
X126956564Y-165153841D02*
X125373231Y-167153841D01*
X129087517Y-166391937D02*
X130611326Y-166391937D01*
X132992279Y-167153841D02*
X133242279Y-165153841D01*
X133147040Y-165915746D02*
X133349421Y-165820508D01*
X133730374Y-165820508D01*
X133908945Y-165915746D01*
X133992279Y-166010984D01*
X134063707Y-166201460D01*
X133992279Y-166772889D01*
X133873231Y-166963365D01*
X133766088Y-167058603D01*
X133563707Y-167153841D01*
X133182755Y-167153841D01*
X133004183Y-167058603D01*
X135087517Y-167153841D02*
X134908945Y-167058603D01*
X134825612Y-166963365D01*
X134754183Y-166772889D01*
X134825612Y-166201460D01*
X134944660Y-166010984D01*
X135051802Y-165915746D01*
X135254183Y-165820508D01*
X135539898Y-165820508D01*
X135718469Y-165915746D01*
X135801802Y-166010984D01*
X135873231Y-166201460D01*
X135801802Y-166772889D01*
X135682755Y-166963365D01*
X135575612Y-167058603D01*
X135373231Y-167153841D01*
X135087517Y-167153841D01*
X136492279Y-165820508D02*
X137254183Y-165820508D01*
X136861326Y-165153841D02*
X136647040Y-166868127D01*
X136718469Y-167058603D01*
X136897040Y-167153841D01*
X137087517Y-167153841D01*
X137635136Y-165820508D02*
X138397040Y-165820508D01*
X138004183Y-165153841D02*
X137789898Y-166868127D01*
X137861326Y-167058603D01*
X138039898Y-167153841D01*
X138230374Y-167153841D01*
X139182755Y-167153841D02*
X139004183Y-167058603D01*
X138920850Y-166963365D01*
X138849421Y-166772889D01*
X138920850Y-166201460D01*
X139039898Y-166010984D01*
X139147040Y-165915746D01*
X139349421Y-165820508D01*
X139635136Y-165820508D01*
X139813707Y-165915746D01*
X139897040Y-166010984D01*
X139968469Y-166201460D01*
X139897040Y-166772889D01*
X139777993Y-166963365D01*
X139670850Y-167058603D01*
X139468469Y-167153841D01*
X139182755Y-167153841D01*
X140706564Y-167153841D02*
X140873231Y-165820508D01*
X140849421Y-166010984D02*
X140956564Y-165915746D01*
X141158945Y-165820508D01*
X141444660Y-165820508D01*
X141623231Y-165915746D01*
X141694660Y-166106222D01*
X141563707Y-167153841D01*
X141694660Y-166106222D02*
X141813707Y-165915746D01*
X142016088Y-165820508D01*
X142301802Y-165820508D01*
X142480374Y-165915746D01*
X142551802Y-166106222D01*
X142420850Y-167153841D01*
X143373231Y-167153841D02*
X143623231Y-165153841D01*
X143527993Y-165915746D02*
X143730374Y-165820508D01*
X144111326Y-165820508D01*
X144289898Y-165915746D01*
X144373231Y-166010984D01*
X144444660Y-166201460D01*
X144373231Y-166772889D01*
X144254183Y-166963365D01*
X144147040Y-167058603D01*
X143944660Y-167153841D01*
X143563707Y-167153841D01*
X143385136Y-167058603D01*
X145468469Y-167153841D02*
X145289898Y-167058603D01*
X145206564Y-166963365D01*
X145135136Y-166772889D01*
X145206564Y-166201460D01*
X145325612Y-166010984D01*
X145432755Y-165915746D01*
X145635136Y-165820508D01*
X145920850Y-165820508D01*
X146099421Y-165915746D01*
X146182755Y-166010984D01*
X146254183Y-166201460D01*
X146182755Y-166772889D01*
X146063707Y-166963365D01*
X145956564Y-167058603D01*
X145754183Y-167153841D01*
X145468469Y-167153841D01*
X147849421Y-167153841D02*
X147980374Y-166106222D01*
X147908945Y-165915746D01*
X147730374Y-165820508D01*
X147349421Y-165820508D01*
X147147040Y-165915746D01*
X147861326Y-167058603D02*
X147658945Y-167153841D01*
X147182755Y-167153841D01*
X147004183Y-167058603D01*
X146932755Y-166868127D01*
X146956564Y-166677651D01*
X147075612Y-166487175D01*
X147277993Y-166391937D01*
X147754183Y-166391937D01*
X147956564Y-166296699D01*
X148801802Y-167153841D02*
X148968469Y-165820508D01*
X148920850Y-166201460D02*
X149039898Y-166010984D01*
X149147040Y-165915746D01*
X149349421Y-165820508D01*
X149539898Y-165820508D01*
X150897040Y-167153841D02*
X151147040Y-165153841D01*
X150908945Y-167058603D02*
X150706564Y-167153841D01*
X150325612Y-167153841D01*
X150147040Y-167058603D01*
X150063707Y-166963365D01*
X149992279Y-166772889D01*
X150063707Y-166201460D01*
X150182755Y-166010984D01*
X150289898Y-165915746D01*
X150492279Y-165820508D01*
X150873231Y-165820508D01*
X151051802Y-165915746D01*
D10*
D11*
X103366802Y-162541937D02*
X102866802Y-162541937D01*
X102866802Y-163327651D02*
X102866802Y-161827651D01*
X103581088Y-161827651D01*
X104152517Y-163327651D02*
X104152517Y-162327651D01*
X104152517Y-161827651D02*
X104081088Y-161899080D01*
X104152517Y-161970508D01*
X104223945Y-161899080D01*
X104152517Y-161827651D01*
X104152517Y-161970508D01*
X105081088Y-163327651D02*
X104938231Y-163256222D01*
X104866802Y-163113365D01*
X104866802Y-161827651D01*
X106223945Y-163256222D02*
X106081088Y-163327651D01*
X105795374Y-163327651D01*
X105652517Y-163256222D01*
X105581088Y-163113365D01*
X105581088Y-162541937D01*
X105652517Y-162399080D01*
X105795374Y-162327651D01*
X106081088Y-162327651D01*
X106223945Y-162399080D01*
X106295374Y-162541937D01*
X106295374Y-162684794D01*
X105581088Y-162827651D01*
X106938231Y-163184794D02*
X107009660Y-163256222D01*
X106938231Y-163327651D01*
X106866802Y-163256222D01*
X106938231Y-163184794D01*
X106938231Y-163327651D01*
X106938231Y-162399080D02*
X107009660Y-162470508D01*
X106938231Y-162541937D01*
X106866802Y-162470508D01*
X106938231Y-162399080D01*
X106938231Y-162541937D01*
X108795374Y-163327651D02*
X108795374Y-161827651D01*
X108795374Y-162399080D02*
X108938231Y-162327651D01*
X109223945Y-162327651D01*
X109366802Y-162399080D01*
X109438231Y-162470508D01*
X109509660Y-162613365D01*
X109509660Y-163041937D01*
X109438231Y-163184794D01*
X109366802Y-163256222D01*
X109223945Y-163327651D01*
X108938231Y-163327651D01*
X108795374Y-163256222D01*
X110366802Y-163327651D02*
X110223945Y-163256222D01*
X110152517Y-163184794D01*
X110081088Y-163041937D01*
X110081088Y-162613365D01*
X110152517Y-162470508D01*
X110223945Y-162399080D01*
X110366802Y-162327651D01*
X110581088Y-162327651D01*
X110723945Y-162399080D01*
X110795374Y-162470508D01*
X110866802Y-162613365D01*
X110866802Y-163041937D01*
X110795374Y-163184794D01*
X110723945Y-163256222D01*
X110581088Y-163327651D01*
X110366802Y-163327651D01*
X111295374Y-162327651D02*
X111866802Y-162327651D01*
X111509660Y-161827651D02*
X111509660Y-163113365D01*
X111581088Y-163256222D01*
X111723945Y-163327651D01*
X111866802Y-163327651D01*
X112152517Y-162327651D02*
X112723945Y-162327651D01*
X112366802Y-161827651D02*
X112366802Y-163113365D01*
X112438231Y-163256222D01*
X112581088Y-163327651D01*
X112723945Y-163327651D01*
X113438231Y-163327651D02*
X113295374Y-163256222D01*
X113223945Y-163184794D01*
X113152517Y-163041937D01*
X113152517Y-162613365D01*
X113223945Y-162470508D01*
X113295374Y-162399080D01*
X113438231Y-162327651D01*
X113652517Y-162327651D01*
X113795374Y-162399080D01*
X113866802Y-162470508D01*
X113938231Y-162613365D01*
X113938231Y-163041937D01*
X113866802Y-163184794D01*
X113795374Y-163256222D01*
X113652517Y-163327651D01*
X113438231Y-163327651D01*
X114581088Y-163327651D02*
X114581088Y-162327651D01*
X114581088Y-162470508D02*
X114652517Y-162399080D01*
X114795374Y-162327651D01*
X115009660Y-162327651D01*
X115152517Y-162399080D01*
X115223945Y-162541937D01*
X115223945Y-163327651D01*
X115223945Y-162541937D02*
X115295374Y-162399080D01*
X115438231Y-162327651D01*
X115652517Y-162327651D01*
X115795374Y-162399080D01*
X115866802Y-162541937D01*
X115866802Y-163327651D01*
X116581088Y-162756222D02*
X117723945Y-162756222D01*
X118438231Y-163327651D02*
X118438231Y-161827651D01*
X118438231Y-162399080D02*
X118581088Y-162327651D01*
X118866802Y-162327651D01*
X119009660Y-162399080D01*
X119081088Y-162470508D01*
X119152517Y-162613365D01*
X119152517Y-163041937D01*
X119081088Y-163184794D01*
X119009660Y-163256222D01*
X118866802Y-163327651D01*
X118581088Y-163327651D01*
X118438231Y-163256222D01*
X120009660Y-163327651D02*
X119866802Y-163256222D01*
X119795374Y-163184794D01*
X119723945Y-163041937D01*
X119723945Y-162613365D01*
X119795374Y-162470508D01*
X119866802Y-162399080D01*
X120009660Y-162327651D01*
X120223945Y-162327651D01*
X120366802Y-162399080D01*
X120438231Y-162470508D01*
X120509660Y-162613365D01*
X120509660Y-163041937D01*
X120438231Y-163184794D01*
X120366802Y-163256222D01*
X120223945Y-163327651D01*
X120009660Y-163327651D01*
X121795374Y-163327651D02*
X121795374Y-162541937D01*
X121723945Y-162399080D01*
X121581088Y-162327651D01*
X121295374Y-162327651D01*
X121152517Y-162399080D01*
X121795374Y-163256222D02*
X121652517Y-163327651D01*
X121295374Y-163327651D01*
X121152517Y-163256222D01*
X121081088Y-163113365D01*
X121081088Y-162970508D01*
X121152517Y-162827651D01*
X121295374Y-162756222D01*
X121652517Y-162756222D01*
X121795374Y-162684794D01*
X122509660Y-163327651D02*
X122509660Y-162327651D01*
X122509660Y-162613365D02*
X122581088Y-162470508D01*
X122652517Y-162399080D01*
X122795374Y-162327651D01*
X122938231Y-162327651D01*
X124081088Y-163327651D02*
X124081088Y-161827651D01*
X124081088Y-163256222D02*
X123938231Y-163327651D01*
X123652517Y-163327651D01*
X123509660Y-163256222D01*
X123438231Y-163184794D01*
X123366802Y-163041937D01*
X123366802Y-162613365D01*
X123438231Y-162470508D01*
X123509660Y-162399080D01*
X123652517Y-162327651D01*
X123938231Y-162327651D01*
X124081088Y-162399080D01*
X124795374Y-163184794D02*
X124866802Y-163256222D01*
X124795374Y-163327651D01*
X124723945Y-163256222D01*
X124795374Y-163184794D01*
X124795374Y-163327651D01*
X125509660Y-163327651D02*
X125509660Y-161827651D01*
X125652517Y-162756222D02*
X126081088Y-163327651D01*
X126081088Y-162327651D02*
X125509660Y-162899080D01*
X126723945Y-163327651D02*
X126723945Y-162327651D01*
X126723945Y-161827651D02*
X126652517Y-161899080D01*
X126723945Y-161970508D01*
X126795374Y-161899080D01*
X126723945Y-161827651D01*
X126723945Y-161970508D01*
X128081088Y-163256222D02*
X127938231Y-163327651D01*
X127652517Y-163327651D01*
X127509660Y-163256222D01*
X127438231Y-163184794D01*
X127366802Y-163041937D01*
X127366802Y-162613365D01*
X127438231Y-162470508D01*
X127509660Y-162399080D01*
X127652517Y-162327651D01*
X127938231Y-162327651D01*
X128081088Y-162399080D01*
X129366802Y-163327651D02*
X129366802Y-162541937D01*
X129295374Y-162399080D01*
X129152517Y-162327651D01*
X128866802Y-162327651D01*
X128723945Y-162399080D01*
X129366802Y-163256222D02*
X129223945Y-163327651D01*
X128866802Y-163327651D01*
X128723945Y-163256222D01*
X128652517Y-163113365D01*
X128652517Y-162970508D01*
X128723945Y-162827651D01*
X128866802Y-162756222D01*
X129223945Y-162756222D01*
X129366802Y-162684794D01*
X130723945Y-163327651D02*
X130723945Y-161827651D01*
X130723945Y-163256222D02*
X130581088Y-163327651D01*
X130295374Y-163327651D01*
X130152517Y-163256222D01*
X130081088Y-163184794D01*
X130009660Y-163041937D01*
X130009660Y-162613365D01*
X130081088Y-162470508D01*
X130152517Y-162399080D01*
X130295374Y-162327651D01*
X130581088Y-162327651D01*
X130723945Y-162399080D01*
X131081088Y-163470508D02*
X132223945Y-163470508D01*
X132581088Y-162327651D02*
X132581088Y-163827651D01*
X132581088Y-162399080D02*
X132723945Y-162327651D01*
X133009660Y-162327651D01*
X133152517Y-162399080D01*
X133223945Y-162470508D01*
X133295374Y-162613365D01*
X133295374Y-163041937D01*
X133223945Y-163184794D01*
X133152517Y-163256222D01*
X133009660Y-163327651D01*
X132723945Y-163327651D01*
X132581088Y-163256222D01*
X134581088Y-163256222D02*
X134438231Y-163327651D01*
X134152517Y-163327651D01*
X134009660Y-163256222D01*
X133938231Y-163184794D01*
X133866802Y-163041937D01*
X133866802Y-162613365D01*
X133938231Y-162470508D01*
X134009660Y-162399080D01*
X134152517Y-162327651D01*
X134438231Y-162327651D01*
X134581088Y-162399080D01*
X135223945Y-163327651D02*
X135223945Y-161827651D01*
X135223945Y-162399080D02*
X135366802Y-162327651D01*
X135652517Y-162327651D01*
X135795374Y-162399080D01*
X135866802Y-162470508D01*
X135938231Y-162613365D01*
X135938231Y-163041937D01*
X135866802Y-163184794D01*
X135795374Y-163256222D01*
X135652517Y-163327651D01*
X135366802Y-163327651D01*
X135223945Y-163256222D01*
D10*
D11*
X101434660Y-158449080D02*
X209434660Y-158449080D01*
D10*
D11*
X102795374Y-160556222D02*
X103009660Y-160627651D01*
X103366802Y-160627651D01*
X103509660Y-160556222D01*
X103581088Y-160484794D01*
X103652517Y-160341937D01*
X103652517Y-160199080D01*
X103581088Y-160056222D01*
X103509660Y-159984794D01*
X103366802Y-159913365D01*
X103081088Y-159841937D01*
X102938231Y-159770508D01*
X102866802Y-159699080D01*
X102795374Y-159556222D01*
X102795374Y-159413365D01*
X102866802Y-159270508D01*
X102938231Y-159199080D01*
X103081088Y-159127651D01*
X103438231Y-159127651D01*
X103652517Y-159199080D01*
X104295374Y-160627651D02*
X104295374Y-159127651D01*
X104938231Y-160627651D02*
X104938231Y-159841937D01*
X104866802Y-159699080D01*
X104723945Y-159627651D01*
X104509660Y-159627651D01*
X104366802Y-159699080D01*
X104295374Y-159770508D01*
X106223945Y-160556222D02*
X106081088Y-160627651D01*
X105795374Y-160627651D01*
X105652517Y-160556222D01*
X105581088Y-160413365D01*
X105581088Y-159841937D01*
X105652517Y-159699080D01*
X105795374Y-159627651D01*
X106081088Y-159627651D01*
X106223945Y-159699080D01*
X106295374Y-159841937D01*
X106295374Y-159984794D01*
X105581088Y-160127651D01*
X107509660Y-160556222D02*
X107366802Y-160627651D01*
X107081088Y-160627651D01*
X106938231Y-160556222D01*
X106866802Y-160413365D01*
X106866802Y-159841937D01*
X106938231Y-159699080D01*
X107081088Y-159627651D01*
X107366802Y-159627651D01*
X107509660Y-159699080D01*
X107581088Y-159841937D01*
X107581088Y-159984794D01*
X106866802Y-160127651D01*
X108009660Y-159627651D02*
X108581088Y-159627651D01*
X108223945Y-159127651D02*
X108223945Y-160413365D01*
X108295374Y-160556222D01*
X108438231Y-160627651D01*
X108581088Y-160627651D01*
X109081088Y-160484794D02*
X109152517Y-160556222D01*
X109081088Y-160627651D01*
X109009660Y-160556222D01*
X109081088Y-160484794D01*
X109081088Y-160627651D01*
X109081088Y-159699080D02*
X109152517Y-159770508D01*
X109081088Y-159841937D01*
X109009660Y-159770508D01*
X109081088Y-159699080D01*
X109081088Y-159841937D01*
D10*
D12*
X102986802Y-157627651D02*
X102986802Y-156127651D01*
X103486802Y-157199080D01*
X103986802Y-156127651D01*
X103986802Y-157627651D01*
X104986802Y-156127651D02*
X105272517Y-156127651D01*
X105415374Y-156199080D01*
X105558231Y-156341937D01*
X105629660Y-156627651D01*
X105629660Y-157127651D01*
X105558231Y-157413365D01*
X105415374Y-157556222D01*
X105272517Y-157627651D01*
X104986802Y-157627651D01*
X104843945Y-157556222D01*
X104701088Y-157413365D01*
X104629660Y-157127651D01*
X104629660Y-156627651D01*
X104701088Y-156341937D01*
X104843945Y-156199080D01*
X104986802Y-156127651D01*
X106272517Y-157627651D02*
X106272517Y-156127651D01*
X106629660Y-156127651D01*
X106843945Y-156199080D01*
X106986802Y-156341937D01*
X107058231Y-156484794D01*
X107129660Y-156770508D01*
X107129660Y-156984794D01*
X107058231Y-157270508D01*
X106986802Y-157413365D01*
X106843945Y-157556222D01*
X106629660Y-157627651D01*
X106272517Y-157627651D01*
X108915374Y-157627651D02*
X108915374Y-156127651D01*
X109272517Y-156127651D01*
X109486802Y-156199080D01*
X109629660Y-156341937D01*
X109701088Y-156484794D01*
X109772517Y-156770508D01*
X109772517Y-156984794D01*
X109701088Y-157270508D01*
X109629660Y-157413365D01*
X109486802Y-157556222D01*
X109272517Y-157627651D01*
X108915374Y-157627651D01*
X110986802Y-157556222D02*
X110843945Y-157627651D01*
X110558231Y-157627651D01*
X110415374Y-157556222D01*
X110343945Y-157413365D01*
X110343945Y-156841937D01*
X110415374Y-156699080D01*
X110558231Y-156627651D01*
X110843945Y-156627651D01*
X110986802Y-156699080D01*
X111058231Y-156841937D01*
X111058231Y-156984794D01*
X110343945Y-157127651D01*
X111558231Y-156627651D02*
X111915374Y-157627651D01*
X112272517Y-156627651D01*
X112843945Y-157627651D02*
X112843945Y-156627651D01*
X112843945Y-156127651D02*
X112772517Y-156199080D01*
X112843945Y-156270508D01*
X112915374Y-156199080D01*
X112843945Y-156127651D01*
X112843945Y-156270508D01*
X114201088Y-157556222D02*
X114058231Y-157627651D01*
X113772517Y-157627651D01*
X113629660Y-157556222D01*
X113558231Y-157484794D01*
X113486802Y-157341937D01*
X113486802Y-156913365D01*
X113558231Y-156770508D01*
X113629660Y-156699080D01*
X113772517Y-156627651D01*
X114058231Y-156627651D01*
X114201088Y-156699080D01*
X115415374Y-157556222D02*
X115272517Y-157627651D01*
X114986802Y-157627651D01*
X114843945Y-157556222D01*
X114772517Y-157413365D01*
X114772517Y-156841937D01*
X114843945Y-156699080D01*
X114986802Y-156627651D01*
X115272517Y-156627651D01*
X115415374Y-156699080D01*
X115486802Y-156841937D01*
X115486802Y-156984794D01*
X114772517Y-157127651D01*
X116058231Y-157556222D02*
X116201088Y-157627651D01*
X116486802Y-157627651D01*
X116629660Y-157556222D01*
X116701088Y-157413365D01*
X116701088Y-157341937D01*
X116629660Y-157199080D01*
X116486802Y-157127651D01*
X116272517Y-157127651D01*
X116129660Y-157056222D01*
X116058231Y-156913365D01*
X116058231Y-156841937D01*
X116129660Y-156699080D01*
X116272517Y-156627651D01*
X116486802Y-156627651D01*
X116629660Y-156699080D01*
X119272517Y-156199080D02*
X119129660Y-156127651D01*
X118915374Y-156127651D01*
X118701088Y-156199080D01*
X118558231Y-156341937D01*
X118486802Y-156484794D01*
X118415374Y-156770508D01*
X118415374Y-156984794D01*
X118486802Y-157270508D01*
X118558231Y-157413365D01*
X118701088Y-157556222D01*
X118915374Y-157627651D01*
X119058231Y-157627651D01*
X119272517Y-157556222D01*
X119343945Y-157484794D01*
X119343945Y-156984794D01*
X119058231Y-156984794D01*
X119986802Y-157627651D02*
X119986802Y-156627651D01*
X119986802Y-156770508D02*
X120058231Y-156699080D01*
X120201088Y-156627651D01*
X120415374Y-156627651D01*
X120558231Y-156699080D01*
X120629660Y-156841937D01*
X120629660Y-157627651D01*
X120629660Y-156841937D02*
X120701088Y-156699080D01*
X120843945Y-156627651D01*
X121058231Y-156627651D01*
X121201088Y-156699080D01*
X121272517Y-156841937D01*
X121272517Y-157627651D01*
X121986802Y-157627651D02*
X121986802Y-156127651D01*
X121986802Y-156699080D02*
X122129660Y-156627651D01*
X122415374Y-156627651D01*
X122558231Y-156699080D01*
X122629660Y-156770508D01*
X122701088Y-156913365D01*
X122701088Y-157341937D01*
X122629660Y-157484794D01*
X122558231Y-157556222D01*
X122415374Y-157627651D01*
X122129660Y-157627651D01*
X121986802Y-157556222D01*
X123343945Y-157627651D02*
X123343945Y-156127651D01*
X123343945Y-156841937D02*
X124201088Y-156841937D01*
X124201088Y-157627651D02*
X124201088Y-156127651D01*
D10*
D11*
X121434660Y-168449080D02*
X121434660Y-171449080D01*
D10*
D11*
X185434660Y-168449080D02*
X185434660Y-174949080D01*
X66489317Y-35052260D02*
X66822650Y-34576070D01*
X67060745Y-35052260D02*
X67060745Y-34052260D01*
X66679793Y-34052260D01*
X66584555Y-34099880D01*
X66536936Y-34147499D01*
X66489317Y-34242737D01*
X66489317Y-34385594D01*
X66536936Y-34480832D01*
X66584555Y-34528451D01*
X66679793Y-34576070D01*
X67060745Y-34576070D01*
X65679793Y-35004641D02*
X65775031Y-35052260D01*
X65965507Y-35052260D01*
X66060745Y-35004641D01*
X66108364Y-34909403D01*
X66108364Y-34528451D01*
X66060745Y-34433213D01*
X65965507Y-34385594D01*
X65775031Y-34385594D01*
X65679793Y-34433213D01*
X65632174Y-34528451D01*
X65632174Y-34623689D01*
X66108364Y-34718927D01*
X64775031Y-35004641D02*
X64870269Y-35052260D01*
X65060745Y-35052260D01*
X65155983Y-35004641D01*
X65203602Y-34957022D01*
X65251221Y-34861784D01*
X65251221Y-34576070D01*
X65203602Y-34480832D01*
X65155983Y-34433213D01*
X65060745Y-34385594D01*
X64870269Y-34385594D01*
X64775031Y-34433213D01*
X64203602Y-35052260D02*
X64298840Y-35004641D01*
X64346460Y-34957022D01*
X64394079Y-34861784D01*
X64394079Y-34576070D01*
X64346460Y-34480832D01*
X64298840Y-34433213D01*
X64203602Y-34385594D01*
X64060745Y-34385594D01*
X63965507Y-34433213D01*
X63917888Y-34480832D01*
X63870269Y-34576070D01*
X63870269Y-34861784D01*
X63917888Y-34957022D01*
X63965507Y-35004641D01*
X64060745Y-35052260D01*
X64203602Y-35052260D01*
X63536936Y-34385594D02*
X63298840Y-35052260D01*
X63060745Y-34385594D01*
X62298840Y-35004641D02*
X62394079Y-35052260D01*
X62584555Y-35052260D01*
X62679793Y-35004641D01*
X62727412Y-34909403D01*
X62727412Y-34528451D01*
X62679793Y-34433213D01*
X62584555Y-34385594D01*
X62394079Y-34385594D01*
X62298840Y-34433213D01*
X62251221Y-34528451D01*
X62251221Y-34623689D01*
X62727412Y-34718927D01*
X61822650Y-35052260D02*
X61822650Y-34385594D01*
X61822650Y-34576070D02*
X61775031Y-34480832D01*
X61727412Y-34433213D01*
X61632174Y-34385594D01*
X61536936Y-34385594D01*
X61298840Y-34385594D02*
X61060745Y-35052260D01*
X60822650Y-34385594D02*
X61060745Y-35052260D01*
X61155983Y-35290356D01*
X61203602Y-35337975D01*
X61298840Y-35385594D01*
X59679793Y-34385594D02*
X59679793Y-35385594D01*
X59679793Y-34433213D02*
X59584555Y-34385594D01*
X59394079Y-34385594D01*
X59298840Y-34433213D01*
X59251221Y-34480832D01*
X59203602Y-34576070D01*
X59203602Y-34861784D01*
X59251221Y-34957022D01*
X59298840Y-35004641D01*
X59394079Y-35052260D01*
X59584555Y-35052260D01*
X59679793Y-35004641D01*
X58346460Y-35052260D02*
X58346460Y-34528451D01*
X58394079Y-34433213D01*
X58489317Y-34385594D01*
X58679793Y-34385594D01*
X58775031Y-34433213D01*
X58346460Y-35004641D02*
X58441698Y-35052260D01*
X58679793Y-35052260D01*
X58775031Y-35004641D01*
X58822650Y-34909403D01*
X58822650Y-34814165D01*
X58775031Y-34718927D01*
X58679793Y-34671308D01*
X58441698Y-34671308D01*
X58346460Y-34623689D01*
X57441698Y-35052260D02*
X57441698Y-34052260D01*
X57441698Y-35004641D02*
X57536936Y-35052260D01*
X57727412Y-35052260D01*
X57822650Y-35004641D01*
X57870269Y-34957022D01*
X57917888Y-34861784D01*
X57917888Y-34576070D01*
X57870269Y-34480832D01*
X57822650Y-34433213D01*
X57727412Y-34385594D01*
X57536936Y-34385594D01*
X57441698Y-34433213D01*
X57013126Y-35004641D02*
X56917888Y-35052260D01*
X56727412Y-35052260D01*
X56632174Y-35004641D01*
X56584555Y-34909403D01*
X56584555Y-34861784D01*
X56632174Y-34766546D01*
X56727412Y-34718927D01*
X56870269Y-34718927D01*
X56965507Y-34671308D01*
X57013126Y-34576070D01*
X57013126Y-34528451D01*
X56965507Y-34433213D01*
X56870269Y-34385594D01*
X56727412Y-34385594D01*
X56632174Y-34433213D01*
X60322460Y-42727880D02*
X60322460Y-35869880D01*
X64386460Y-42727880D02*
X60322460Y-42727880D01*
X64386460Y-35869880D02*
X64386460Y-42727880D01*
X60322460Y-35869880D02*
X64386460Y-35869880D01*
D13*
X135916269Y-112786641D02*
X135916269Y-110786641D01*
X135249602Y-112215213D01*
X134582936Y-110786641D01*
X134582936Y-112786641D01*
X133249602Y-110786641D02*
X132868650Y-110786641D01*
X132678174Y-110881880D01*
X132487698Y-111072356D01*
X132392460Y-111453308D01*
X132392460Y-112119975D01*
X132487698Y-112500927D01*
X132678174Y-112691403D01*
X132868650Y-112786641D01*
X133249602Y-112786641D01*
X133440079Y-112691403D01*
X133630555Y-112500927D01*
X133725793Y-112119975D01*
X133725793Y-111453308D01*
X133630555Y-111072356D01*
X133440079Y-110881880D01*
X133249602Y-110786641D01*
X131535317Y-112786641D02*
X131535317Y-110786641D01*
X131059126Y-110786641D01*
X130773412Y-110881880D01*
X130582936Y-111072356D01*
X130487698Y-111262832D01*
X130392460Y-111643784D01*
X130392460Y-111929499D01*
X130487698Y-112310451D01*
X130582936Y-112500927D01*
X130773412Y-112691403D01*
X131059126Y-112786641D01*
X131535317Y-112786641D01*
X128011507Y-112786641D02*
X128011507Y-110786641D01*
X127535317Y-110786641D01*
X127249602Y-110881880D01*
X127059126Y-111072356D01*
X126963888Y-111262832D01*
X126868650Y-111643784D01*
X126868650Y-111929499D01*
X126963888Y-112310451D01*
X127059126Y-112500927D01*
X127249602Y-112691403D01*
X127535317Y-112786641D01*
X128011507Y-112786641D01*
X125249602Y-112691403D02*
X125440079Y-112786641D01*
X125821031Y-112786641D01*
X126011507Y-112691403D01*
X126106745Y-112500927D01*
X126106745Y-111739022D01*
X126011507Y-111548546D01*
X125821031Y-111453308D01*
X125440079Y-111453308D01*
X125249602Y-111548546D01*
X125154364Y-111739022D01*
X125154364Y-111929499D01*
X126106745Y-112119975D01*
X124487698Y-111453308D02*
X124011507Y-112786641D01*
X123535317Y-111453308D01*
X122773412Y-112786641D02*
X122773412Y-111453308D01*
X122773412Y-110786641D02*
X122868650Y-110881880D01*
X122773412Y-110977118D01*
X122678174Y-110881880D01*
X122773412Y-110786641D01*
X122773412Y-110977118D01*
X120963888Y-112691403D02*
X121154364Y-112786641D01*
X121535317Y-112786641D01*
X121725793Y-112691403D01*
X121821031Y-112596165D01*
X121916269Y-112405689D01*
X121916269Y-111834260D01*
X121821031Y-111643784D01*
X121725793Y-111548546D01*
X121535317Y-111453308D01*
X121154364Y-111453308D01*
X120963888Y-111548546D01*
X119344840Y-112691403D02*
X119535317Y-112786641D01*
X119916269Y-112786641D01*
X120106745Y-112691403D01*
X120201983Y-112500927D01*
X120201983Y-111739022D01*
X120106745Y-111548546D01*
X119916269Y-111453308D01*
X119535317Y-111453308D01*
X119344840Y-111548546D01*
X119249602Y-111739022D01*
X119249602Y-111929499D01*
X120201983Y-112119975D01*
X118487698Y-112691403D02*
X118297221Y-112786641D01*
X117916269Y-112786641D01*
X117725793Y-112691403D01*
X117630555Y-112500927D01*
X117630555Y-112405689D01*
X117725793Y-112215213D01*
X117916269Y-112119975D01*
X118201983Y-112119975D01*
X118392460Y-112024737D01*
X118487698Y-111834260D01*
X118487698Y-111739022D01*
X118392460Y-111548546D01*
X118201983Y-111453308D01*
X117916269Y-111453308D01*
X117725793Y-111548546D01*
X114201983Y-110881880D02*
X114392460Y-110786641D01*
X114678174Y-110786641D01*
X114963888Y-110881880D01*
X115154364Y-111072356D01*
X115249602Y-111262832D01*
X115344840Y-111643784D01*
X115344840Y-111929499D01*
X115249602Y-112310451D01*
X115154364Y-112500927D01*
X114963888Y-112691403D01*
X114678174Y-112786641D01*
X114487698Y-112786641D01*
X114201983Y-112691403D01*
X114106745Y-112596165D01*
X114106745Y-111929499D01*
X114487698Y-111929499D01*
X113249602Y-112786641D02*
X113249602Y-111453308D01*
X113249602Y-111643784D02*
X113154364Y-111548546D01*
X112963888Y-111453308D01*
X112678174Y-111453308D01*
X112487698Y-111548546D01*
X112392460Y-111739022D01*
X112392460Y-112786641D01*
X112392460Y-111739022D02*
X112297221Y-111548546D01*
X112106745Y-111453308D01*
X111821031Y-111453308D01*
X111630555Y-111548546D01*
X111535317Y-111739022D01*
X111535317Y-112786641D01*
X110582936Y-112786641D02*
X110582936Y-110786641D01*
X110582936Y-111548546D02*
X110392460Y-111453308D01*
X110011507Y-111453308D01*
X109821031Y-111548546D01*
X109725793Y-111643784D01*
X109630555Y-111834260D01*
X109630555Y-112405689D01*
X109725793Y-112596165D01*
X109821031Y-112691403D01*
X110011507Y-112786641D01*
X110392460Y-112786641D01*
X110582936Y-112691403D01*
X108773412Y-112786641D02*
X108773412Y-110786641D01*
X108773412Y-111739022D02*
X107630555Y-111739022D01*
X107630555Y-112786641D02*
X107630555Y-110786641D01*
X135916269Y-116186641D02*
X135916269Y-114186641D01*
X135059126Y-116186641D02*
X135059126Y-115139022D01*
X135154364Y-114948546D01*
X135344840Y-114853308D01*
X135630555Y-114853308D01*
X135821031Y-114948546D01*
X135916269Y-115043784D01*
X134392460Y-114853308D02*
X133630555Y-114853308D01*
X134106745Y-114186641D02*
X134106745Y-115900927D01*
X134011507Y-116091403D01*
X133821031Y-116186641D01*
X133630555Y-116186641D01*
X133249602Y-114853308D02*
X132487698Y-114853308D01*
X132963888Y-114186641D02*
X132963888Y-115900927D01*
X132868650Y-116091403D01*
X132678174Y-116186641D01*
X132487698Y-116186641D01*
X131821031Y-114853308D02*
X131821031Y-116853308D01*
X131821031Y-114948546D02*
X131630555Y-114853308D01*
X131249602Y-114853308D01*
X131059126Y-114948546D01*
X130963888Y-115043784D01*
X130868650Y-115234260D01*
X130868650Y-115805689D01*
X130963888Y-115996165D01*
X131059126Y-116091403D01*
X131249602Y-116186641D01*
X131630555Y-116186641D01*
X131821031Y-116091403D01*
X130011507Y-115996165D02*
X129916269Y-116091403D01*
X130011507Y-116186641D01*
X130106745Y-116091403D01*
X130011507Y-115996165D01*
X130011507Y-116186641D01*
X130011507Y-114948546D02*
X129916269Y-115043784D01*
X130011507Y-115139022D01*
X130106745Y-115043784D01*
X130011507Y-114948546D01*
X130011507Y-115139022D01*
X127630555Y-114091403D02*
X129344840Y-116662832D01*
X125535317Y-114091403D02*
X127249602Y-116662832D01*
X124868650Y-116186641D02*
X124868650Y-114853308D01*
X124868650Y-115043784D02*
X124773412Y-114948546D01*
X124582936Y-114853308D01*
X124297221Y-114853308D01*
X124106745Y-114948546D01*
X124011507Y-115139022D01*
X124011507Y-116186641D01*
X124011507Y-115139022D02*
X123916269Y-114948546D01*
X123725793Y-114853308D01*
X123440079Y-114853308D01*
X123249602Y-114948546D01*
X123154364Y-115139022D01*
X123154364Y-116186641D01*
X121916269Y-116186641D02*
X122106745Y-116091403D01*
X122201983Y-115996165D01*
X122297221Y-115805689D01*
X122297221Y-115234260D01*
X122201983Y-115043784D01*
X122106745Y-114948546D01*
X121916269Y-114853308D01*
X121630555Y-114853308D01*
X121440079Y-114948546D01*
X121344840Y-115043784D01*
X121249602Y-115234260D01*
X121249602Y-115805689D01*
X121344840Y-115996165D01*
X121440079Y-116091403D01*
X121630555Y-116186641D01*
X121916269Y-116186641D01*
X119535317Y-116186641D02*
X119535317Y-114186641D01*
X119535317Y-116091403D02*
X119725793Y-116186641D01*
X120106745Y-116186641D01*
X120297221Y-116091403D01*
X120392460Y-115996165D01*
X120487698Y-115805689D01*
X120487698Y-115234260D01*
X120392460Y-115043784D01*
X120297221Y-114948546D01*
X120106745Y-114853308D01*
X119725793Y-114853308D01*
X119535317Y-114948546D01*
X117725793Y-116186641D02*
X117725793Y-114186641D01*
X117725793Y-116091403D02*
X117916269Y-116186641D01*
X118297221Y-116186641D01*
X118487698Y-116091403D01*
X118582936Y-115996165D01*
X118678174Y-115805689D01*
X118678174Y-115234260D01*
X118582936Y-115043784D01*
X118487698Y-114948546D01*
X118297221Y-114853308D01*
X117916269Y-114853308D01*
X117725793Y-114948546D01*
X116011507Y-116091403D02*
X116201983Y-116186641D01*
X116582936Y-116186641D01*
X116773412Y-116091403D01*
X116868650Y-115900927D01*
X116868650Y-115139022D01*
X116773412Y-114948546D01*
X116582936Y-114853308D01*
X116201983Y-114853308D01*
X116011507Y-114948546D01*
X115916269Y-115139022D01*
X115916269Y-115329499D01*
X116868650Y-115519975D01*
X115249602Y-114853308D02*
X114773412Y-116186641D01*
X114297221Y-114853308D01*
X113535317Y-116186641D02*
X113535317Y-114853308D01*
X113535317Y-114186641D02*
X113630555Y-114281880D01*
X113535317Y-114377118D01*
X113440079Y-114281880D01*
X113535317Y-114186641D01*
X113535317Y-114377118D01*
X111725793Y-116091403D02*
X111916269Y-116186641D01*
X112297221Y-116186641D01*
X112487698Y-116091403D01*
X112582936Y-115996165D01*
X112678174Y-115805689D01*
X112678174Y-115234260D01*
X112582936Y-115043784D01*
X112487698Y-114948546D01*
X112297221Y-114853308D01*
X111916269Y-114853308D01*
X111725793Y-114948546D01*
X110106745Y-116091403D02*
X110297221Y-116186641D01*
X110678174Y-116186641D01*
X110868650Y-116091403D01*
X110963888Y-115900927D01*
X110963888Y-115139022D01*
X110868650Y-114948546D01*
X110678174Y-114853308D01*
X110297221Y-114853308D01*
X110106745Y-114948546D01*
X110011507Y-115139022D01*
X110011507Y-115329499D01*
X110963888Y-115519975D01*
X109249602Y-116091403D02*
X109059126Y-116186641D01*
X108678174Y-116186641D01*
X108487698Y-116091403D01*
X108392460Y-115900927D01*
X108392460Y-115805689D01*
X108487698Y-115615213D01*
X108678174Y-115519975D01*
X108963888Y-115519975D01*
X109154364Y-115424737D01*
X109249602Y-115234260D01*
X109249602Y-115139022D01*
X109154364Y-114948546D01*
X108963888Y-114853308D01*
X108678174Y-114853308D01*
X108487698Y-114948546D01*
X107535317Y-115996165D02*
X107440079Y-116091403D01*
X107535317Y-116186641D01*
X107630555Y-116091403D01*
X107535317Y-115996165D01*
X107535317Y-116186641D01*
X105725793Y-116091403D02*
X105916269Y-116186641D01*
X106297221Y-116186641D01*
X106487698Y-116091403D01*
X106582936Y-115996165D01*
X106678174Y-115805689D01*
X106678174Y-115234260D01*
X106582936Y-115043784D01*
X106487698Y-114948546D01*
X106297221Y-114853308D01*
X105916269Y-114853308D01*
X105725793Y-114948546D01*
X104582936Y-116186641D02*
X104773412Y-116091403D01*
X104868650Y-115996165D01*
X104963888Y-115805689D01*
X104963888Y-115234260D01*
X104868650Y-115043784D01*
X104773412Y-114948546D01*
X104582936Y-114853308D01*
X104297221Y-114853308D01*
X104106745Y-114948546D01*
X104011507Y-115043784D01*
X103916269Y-115234260D01*
X103916269Y-115805689D01*
X104011507Y-115996165D01*
X104106745Y-116091403D01*
X104297221Y-116186641D01*
X104582936Y-116186641D01*
X103059126Y-116186641D02*
X103059126Y-114853308D01*
X103059126Y-115043784D02*
X102963888Y-114948546D01*
X102773412Y-114853308D01*
X102487698Y-114853308D01*
X102297221Y-114948546D01*
X102201983Y-115139022D01*
X102201983Y-116186641D01*
X102201983Y-115139022D02*
X102106745Y-114948546D01*
X101916269Y-114853308D01*
X101630555Y-114853308D01*
X101440079Y-114948546D01*
X101344840Y-115139022D01*
X101344840Y-116186641D01*
X135344840Y-123653308D02*
X135821031Y-123653308D01*
X135821031Y-120796165D01*
X135344840Y-120796165D01*
X134582936Y-122986641D02*
X134582936Y-120986641D01*
X134106745Y-120986641D01*
X133821031Y-121081880D01*
X133630555Y-121272356D01*
X133535317Y-121462832D01*
X133440079Y-121843784D01*
X133440079Y-122129499D01*
X133535317Y-122510451D01*
X133630555Y-122700927D01*
X133821031Y-122891403D01*
X134106745Y-122986641D01*
X134582936Y-122986641D01*
X132773412Y-120986641D02*
X131440079Y-122986641D01*
X131440079Y-120986641D02*
X132773412Y-122986641D01*
X130678174Y-122224737D02*
X129154364Y-122224737D01*
X128201983Y-121939022D02*
X127535317Y-121939022D01*
X127249602Y-122986641D02*
X128201983Y-122986641D01*
X128201983Y-120986641D01*
X127249602Y-120986641D01*
X125440079Y-122986641D02*
X126392460Y-122986641D01*
X126392460Y-120986641D01*
X124773412Y-121939022D02*
X124106745Y-121939022D01*
X123821031Y-122986641D02*
X124773412Y-122986641D01*
X124773412Y-120986641D01*
X123821031Y-120986641D01*
X122963888Y-122224737D02*
X121440079Y-122224737D01*
X120106745Y-120986641D02*
X119916269Y-120986641D01*
X119725793Y-121081880D01*
X119630555Y-121177118D01*
X119535317Y-121367594D01*
X119440079Y-121748546D01*
X119440079Y-122224737D01*
X119535317Y-122605689D01*
X119630555Y-122796165D01*
X119725793Y-122891403D01*
X119916269Y-122986641D01*
X120106745Y-122986641D01*
X120297221Y-122891403D01*
X120392460Y-122796165D01*
X120487698Y-122605689D01*
X120582936Y-122224737D01*
X120582936Y-121748546D01*
X120487698Y-121367594D01*
X120392460Y-121177118D01*
X120297221Y-121081880D01*
X120106745Y-120986641D01*
X118201983Y-120986641D02*
X118011507Y-120986641D01*
X117821031Y-121081880D01*
X117725793Y-121177118D01*
X117630555Y-121367594D01*
X117535317Y-121748546D01*
X117535317Y-122224737D01*
X117630555Y-122605689D01*
X117725793Y-122796165D01*
X117821031Y-122891403D01*
X118011507Y-122986641D01*
X118201983Y-122986641D01*
X118392460Y-122891403D01*
X118487698Y-122796165D01*
X118582936Y-122605689D01*
X118678174Y-122224737D01*
X118678174Y-121748546D01*
X118582936Y-121367594D01*
X118487698Y-121177118D01*
X118392460Y-121081880D01*
X118201983Y-120986641D01*
X115630555Y-122986641D02*
X116773412Y-122986641D01*
X116201983Y-122986641D02*
X116201983Y-120986641D01*
X116392460Y-121272356D01*
X116582936Y-121462832D01*
X116773412Y-121558070D01*
X114963888Y-123653308D02*
X114487698Y-123653308D01*
X114487698Y-120796165D01*
X114963888Y-120796165D01*
X135916269Y-126386641D02*
X135916269Y-124386641D01*
X135249602Y-125815213D01*
X134582936Y-124386641D01*
X134582936Y-126386641D01*
X133249602Y-124386641D02*
X132868650Y-124386641D01*
X132678174Y-124481880D01*
X132487698Y-124672356D01*
X132392460Y-125053308D01*
X132392460Y-125719975D01*
X132487698Y-126100927D01*
X132678174Y-126291403D01*
X132868650Y-126386641D01*
X133249602Y-126386641D01*
X133440079Y-126291403D01*
X133630555Y-126100927D01*
X133725793Y-125719975D01*
X133725793Y-125053308D01*
X133630555Y-124672356D01*
X133440079Y-124481880D01*
X133249602Y-124386641D01*
X131535317Y-126386641D02*
X131535317Y-124386641D01*
X131059126Y-124386641D01*
X130773412Y-124481880D01*
X130582936Y-124672356D01*
X130487698Y-124862832D01*
X130392460Y-125243784D01*
X130392460Y-125529499D01*
X130487698Y-125910451D01*
X130582936Y-126100927D01*
X130773412Y-126291403D01*
X131059126Y-126386641D01*
X131535317Y-126386641D01*
X128011507Y-126386641D02*
X128011507Y-124386641D01*
X127535317Y-124386641D01*
X127249602Y-124481880D01*
X127059126Y-124672356D01*
X126963888Y-124862832D01*
X126868650Y-125243784D01*
X126868650Y-125529499D01*
X126963888Y-125910451D01*
X127059126Y-126100927D01*
X127249602Y-126291403D01*
X127535317Y-126386641D01*
X128011507Y-126386641D01*
X125154364Y-125053308D02*
X125154364Y-126386641D01*
X126011507Y-125053308D02*
X126011507Y-126100927D01*
X125916269Y-126291403D01*
X125725793Y-126386641D01*
X125440079Y-126386641D01*
X125249602Y-126291403D01*
X125154364Y-126196165D01*
X123916269Y-126386641D02*
X124106745Y-126291403D01*
X124201983Y-126196165D01*
X124297221Y-126005689D01*
X124297221Y-125434260D01*
X124201983Y-125243784D01*
X124106745Y-125148546D01*
X123916269Y-125053308D01*
X123630555Y-125053308D01*
X123440079Y-125148546D01*
X123344840Y-125243784D01*
X123249602Y-125434260D01*
X123249602Y-126005689D01*
X123344840Y-126196165D01*
X123440079Y-126291403D01*
X123630555Y-126386641D01*
X123916269Y-126386641D01*
X122582936Y-124386641D02*
X121249602Y-126386641D01*
X121249602Y-124386641D02*
X122582936Y-126386641D01*
X118963888Y-125624737D02*
X117440079Y-125624737D01*
X114963888Y-126386641D02*
X114963888Y-124386641D01*
X114297221Y-125815213D01*
X113630555Y-124386641D01*
X113630555Y-126386641D01*
X111821031Y-126386641D02*
X111821031Y-125339022D01*
X111916269Y-125148546D01*
X112106745Y-125053308D01*
X112487698Y-125053308D01*
X112678174Y-125148546D01*
X111821031Y-126291403D02*
X112011507Y-126386641D01*
X112487698Y-126386641D01*
X112678174Y-126291403D01*
X112773412Y-126100927D01*
X112773412Y-125910451D01*
X112678174Y-125719975D01*
X112487698Y-125624737D01*
X112011507Y-125624737D01*
X111821031Y-125529499D01*
X110868650Y-126386641D02*
X110868650Y-125053308D01*
X110868650Y-124386641D02*
X110963888Y-124481880D01*
X110868650Y-124577118D01*
X110773412Y-124481880D01*
X110868650Y-124386641D01*
X110868650Y-124577118D01*
X109916269Y-125053308D02*
X109916269Y-126386641D01*
X109916269Y-125243784D02*
X109821031Y-125148546D01*
X109630555Y-125053308D01*
X109344840Y-125053308D01*
X109154364Y-125148546D01*
X109059126Y-125339022D01*
X109059126Y-126386641D01*
X105916269Y-125339022D02*
X105630555Y-125434260D01*
X105535317Y-125529499D01*
X105440079Y-125719975D01*
X105440079Y-126005689D01*
X105535317Y-126196165D01*
X105630555Y-126291403D01*
X105821031Y-126386641D01*
X106582936Y-126386641D01*
X106582936Y-124386641D01*
X105916269Y-124386641D01*
X105725793Y-124481880D01*
X105630555Y-124577118D01*
X105535317Y-124767594D01*
X105535317Y-124958070D01*
X105630555Y-125148546D01*
X105725793Y-125243784D01*
X105916269Y-125339022D01*
X106582936Y-125339022D01*
X104297221Y-126386641D02*
X104487698Y-126291403D01*
X104582936Y-126196165D01*
X104678174Y-126005689D01*
X104678174Y-125434260D01*
X104582936Y-125243784D01*
X104487698Y-125148546D01*
X104297221Y-125053308D01*
X104011507Y-125053308D01*
X103821031Y-125148546D01*
X103725793Y-125243784D01*
X103630555Y-125434260D01*
X103630555Y-126005689D01*
X103725793Y-126196165D01*
X103821031Y-126291403D01*
X104011507Y-126386641D01*
X104297221Y-126386641D01*
X101916269Y-126386641D02*
X101916269Y-125339022D01*
X102011507Y-125148546D01*
X102201983Y-125053308D01*
X102582936Y-125053308D01*
X102773412Y-125148546D01*
X101916269Y-126291403D02*
X102106745Y-126386641D01*
X102582936Y-126386641D01*
X102773412Y-126291403D01*
X102868650Y-126100927D01*
X102868650Y-125910451D01*
X102773412Y-125719975D01*
X102582936Y-125624737D01*
X102106745Y-125624737D01*
X101916269Y-125529499D01*
X100963888Y-126386641D02*
X100963888Y-125053308D01*
X100963888Y-125434260D02*
X100868650Y-125243784D01*
X100773412Y-125148546D01*
X100582936Y-125053308D01*
X100392460Y-125053308D01*
X98868650Y-126386641D02*
X98868650Y-124386641D01*
X98868650Y-126291403D02*
X99059126Y-126386641D01*
X99440079Y-126386641D01*
X99630555Y-126291403D01*
X99725793Y-126196165D01*
X99821031Y-126005689D01*
X99821031Y-125434260D01*
X99725793Y-125243784D01*
X99630555Y-125148546D01*
X99440079Y-125053308D01*
X99059126Y-125053308D01*
X98868650Y-125148546D01*
X134773412Y-129786641D02*
X135440079Y-128834260D01*
X135916269Y-129786641D02*
X135916269Y-127786641D01*
X135154364Y-127786641D01*
X134963888Y-127881880D01*
X134868650Y-127977118D01*
X134773412Y-128167594D01*
X134773412Y-128453308D01*
X134868650Y-128643784D01*
X134963888Y-128739022D01*
X135154364Y-128834260D01*
X135916269Y-128834260D01*
X133154364Y-129691403D02*
X133344840Y-129786641D01*
X133725793Y-129786641D01*
X133916269Y-129691403D01*
X134011507Y-129500927D01*
X134011507Y-128739022D01*
X133916269Y-128548546D01*
X133725793Y-128453308D01*
X133344840Y-128453308D01*
X133154364Y-128548546D01*
X133059126Y-128739022D01*
X133059126Y-128929499D01*
X134011507Y-129119975D01*
X132392460Y-128453308D02*
X131916269Y-129786641D01*
X131440079Y-128453308D01*
X130678174Y-129596165D02*
X130582936Y-129691403D01*
X130678174Y-129786641D01*
X130773412Y-129691403D01*
X130678174Y-129596165D01*
X130678174Y-129786641D01*
X129725793Y-129596165D02*
X129630555Y-129691403D01*
X129725793Y-129786641D01*
X129821031Y-129691403D01*
X129725793Y-129596165D01*
X129725793Y-129786641D01*
X129725793Y-128548546D02*
X129630555Y-128643784D01*
X129725793Y-128739022D01*
X129821031Y-128643784D01*
X129725793Y-128548546D01*
X129725793Y-128739022D01*
X127344840Y-127977118D02*
X127249602Y-127881880D01*
X127059126Y-127786641D01*
X126582936Y-127786641D01*
X126392460Y-127881880D01*
X126297221Y-127977118D01*
X126201983Y-128167594D01*
X126201983Y-128358070D01*
X126297221Y-128643784D01*
X127440079Y-129786641D01*
X126201983Y-129786641D01*
X124963888Y-127786641D02*
X124773412Y-127786641D01*
X124582936Y-127881880D01*
X124487698Y-127977118D01*
X124392460Y-128167594D01*
X124297221Y-128548546D01*
X124297221Y-129024737D01*
X124392460Y-129405689D01*
X124487698Y-129596165D01*
X124582936Y-129691403D01*
X124773412Y-129786641D01*
X124963888Y-129786641D01*
X125154364Y-129691403D01*
X125249602Y-129596165D01*
X125344840Y-129405689D01*
X125440079Y-129024737D01*
X125440079Y-128548546D01*
X125344840Y-128167594D01*
X125249602Y-127977118D01*
X125154364Y-127881880D01*
X124963888Y-127786641D01*
X123535317Y-127977118D02*
X123440079Y-127881880D01*
X123249602Y-127786641D01*
X122773412Y-127786641D01*
X122582936Y-127881880D01*
X122487698Y-127977118D01*
X122392460Y-128167594D01*
X122392460Y-128358070D01*
X122487698Y-128643784D01*
X123630555Y-129786641D01*
X122392460Y-129786641D01*
X121154364Y-127786641D02*
X120963888Y-127786641D01*
X120773412Y-127881880D01*
X120678174Y-127977118D01*
X120582936Y-128167594D01*
X120487698Y-128548546D01*
X120487698Y-129024737D01*
X120582936Y-129405689D01*
X120678174Y-129596165D01*
X120773412Y-129691403D01*
X120963888Y-129786641D01*
X121154364Y-129786641D01*
X121344840Y-129691403D01*
X121440079Y-129596165D01*
X121535317Y-129405689D01*
X121630555Y-129024737D01*
X121630555Y-128548546D01*
X121535317Y-128167594D01*
X121440079Y-127977118D01*
X121344840Y-127881880D01*
X121154364Y-127786641D01*
X119630555Y-129596165D02*
X119535317Y-129691403D01*
X119630555Y-129786641D01*
X119725793Y-129691403D01*
X119630555Y-129596165D01*
X119630555Y-129786641D01*
X118297221Y-127786641D02*
X118106745Y-127786641D01*
X117916269Y-127881880D01*
X117821031Y-127977118D01*
X117725793Y-128167594D01*
X117630555Y-128548546D01*
X117630555Y-129024737D01*
X117725793Y-129405689D01*
X117821031Y-129596165D01*
X117916269Y-129691403D01*
X118106745Y-129786641D01*
X118297221Y-129786641D01*
X118487698Y-129691403D01*
X118582936Y-129596165D01*
X118678174Y-129405689D01*
X118773412Y-129024737D01*
X118773412Y-128548546D01*
X118678174Y-128167594D01*
X118582936Y-127977118D01*
X118487698Y-127881880D01*
X118297221Y-127786641D01*
X116963888Y-127786641D02*
X115725793Y-127786641D01*
X116392460Y-128548546D01*
X116106745Y-128548546D01*
X115916269Y-128643784D01*
X115821031Y-128739022D01*
X115725793Y-128929499D01*
X115725793Y-129405689D01*
X115821031Y-129596165D01*
X115916269Y-129691403D01*
X116106745Y-129786641D01*
X116678174Y-129786641D01*
X116868650Y-129691403D01*
X116963888Y-129596165D01*
X114868650Y-129596165D02*
X114773412Y-129691403D01*
X114868650Y-129786641D01*
X114963888Y-129691403D01*
X114868650Y-129596165D01*
X114868650Y-129786641D01*
X113535317Y-127786641D02*
X113344840Y-127786641D01*
X113154364Y-127881880D01*
X113059126Y-127977118D01*
X112963888Y-128167594D01*
X112868650Y-128548546D01*
X112868650Y-129024737D01*
X112963888Y-129405689D01*
X113059126Y-129596165D01*
X113154364Y-129691403D01*
X113344840Y-129786641D01*
X113535317Y-129786641D01*
X113725793Y-129691403D01*
X113821031Y-129596165D01*
X113916269Y-129405689D01*
X114011507Y-129024737D01*
X114011507Y-128548546D01*
X113916269Y-128167594D01*
X113821031Y-127977118D01*
X113725793Y-127881880D01*
X113535317Y-127786641D01*
X111154364Y-128453308D02*
X111154364Y-129786641D01*
X111630555Y-127691403D02*
X112106745Y-129119975D01*
X110868650Y-129119975D01*
D10*
G36*
X78414775Y-97589880D02*
G01*
X78795718Y-97589880D01*
X79176661Y-97589880D01*
X79183211Y-96076976D01*
X79189760Y-94564073D01*
X80116151Y-95842026D01*
X80285498Y-96075571D01*
X80450555Y-96303066D01*
X80608120Y-96520108D01*
X80754993Y-96722294D01*
X80887972Y-96905219D01*
X81003855Y-97064481D01*
X81099443Y-97195676D01*
X81171534Y-97294400D01*
X81215951Y-97354930D01*
X81389360Y-97589880D01*
X81724660Y-97588521D01*
X82059960Y-97587162D01*
X83152160Y-96084852D01*
X84244360Y-94582542D01*
X84250912Y-96086211D01*
X84257463Y-97589880D01*
X84638262Y-97589880D01*
X85019060Y-97589880D01*
X85019060Y-95418180D01*
X85019060Y-93246480D01*
X84642361Y-93246480D01*
X84265661Y-93246480D01*
X82985011Y-95011018D01*
X82792092Y-95276569D01*
X82607599Y-95530015D01*
X82433718Y-95768378D01*
X82272640Y-95988684D01*
X82126551Y-96187954D01*
X81997642Y-96363212D01*
X81888099Y-96511482D01*
X81800113Y-96629787D01*
X81735870Y-96715150D01*
X81697561Y-96764594D01*
X81687138Y-96776318D01*
X81679141Y-96769158D01*
X81660053Y-96746282D01*
X81628626Y-96705979D01*
X81583610Y-96646538D01*
X81523757Y-96566246D01*
X81447820Y-96463392D01*
X81354548Y-96336265D01*
X81242694Y-96183152D01*
X81111010Y-96002342D01*
X80958246Y-95792123D01*
X80783154Y-95550785D01*
X80584485Y-95276614D01*
X80360992Y-94967899D01*
X80111424Y-94622929D01*
X79834535Y-94239993D01*
X79561141Y-93861748D01*
X79115505Y-93245116D01*
X78771633Y-93252148D01*
X78427760Y-93259180D01*
X78421268Y-95424530D01*
X78414775Y-97589880D01*
G37*
X78414775Y-97589880D02*
X78795718Y-97589880D01*
X79176661Y-97589880D01*
X79183211Y-96076976D01*
X79189760Y-94564073D01*
X80116151Y-95842026D01*
X80285498Y-96075571D01*
X80450555Y-96303066D01*
X80608120Y-96520108D01*
X80754993Y-96722294D01*
X80887972Y-96905219D01*
X81003855Y-97064481D01*
X81099443Y-97195676D01*
X81171534Y-97294400D01*
X81215951Y-97354930D01*
X81389360Y-97589880D01*
X81724660Y-97588521D01*
X82059960Y-97587162D01*
X83152160Y-96084852D01*
X84244360Y-94582542D01*
X84250912Y-96086211D01*
X84257463Y-97589880D01*
X84638262Y-97589880D01*
X85019060Y-97589880D01*
X85019060Y-95418180D01*
X85019060Y-93246480D01*
X84642361Y-93246480D01*
X84265661Y-93246480D01*
X82985011Y-95011018D01*
X82792092Y-95276569D01*
X82607599Y-95530015D01*
X82433718Y-95768378D01*
X82272640Y-95988684D01*
X82126551Y-96187954D01*
X81997642Y-96363212D01*
X81888099Y-96511482D01*
X81800113Y-96629787D01*
X81735870Y-96715150D01*
X81697561Y-96764594D01*
X81687138Y-96776318D01*
X81679141Y-96769158D01*
X81660053Y-96746282D01*
X81628626Y-96705979D01*
X81583610Y-96646538D01*
X81523757Y-96566246D01*
X81447820Y-96463392D01*
X81354548Y-96336265D01*
X81242694Y-96183152D01*
X81111010Y-96002342D01*
X80958246Y-95792123D01*
X80783154Y-95550785D01*
X80584485Y-95276614D01*
X80360992Y-94967899D01*
X80111424Y-94622929D01*
X79834535Y-94239993D01*
X79561141Y-93861748D01*
X79115505Y-93245116D01*
X78771633Y-93252148D01*
X78427760Y-93259180D01*
X78421268Y-95424530D01*
X78414775Y-97589880D01*
G36*
X72103160Y-95430345D02*
G01*
X72103198Y-95736602D01*
X72103409Y-95996288D01*
X72103945Y-96213634D01*
X72104953Y-96392868D01*
X72106583Y-96538221D01*
X72108986Y-96653921D01*
X72112309Y-96744200D01*
X72116703Y-96813286D01*
X72122316Y-96865409D01*
X72129298Y-96904798D01*
X72137799Y-96935683D01*
X72147968Y-96962295D01*
X72158047Y-96984742D01*
X72266144Y-97158598D01*
X72417227Y-97306826D01*
X72609745Y-97428233D01*
X72842149Y-97521630D01*
X72866759Y-97529156D01*
X72899803Y-97537988D01*
X72905995Y-97539226D01*
X72905995Y-96013095D01*
X72906862Y-95771441D01*
X72908430Y-95484407D01*
X72908931Y-95394379D01*
X72915960Y-94113382D01*
X72987073Y-94039173D01*
X73060927Y-93981244D01*
X73146432Y-93938724D01*
X73155120Y-93935922D01*
X73196403Y-93929339D01*
X73274414Y-93923667D01*
X73390976Y-93918875D01*
X73547911Y-93914934D01*
X73747041Y-93911811D01*
X73990189Y-93909478D01*
X74279177Y-93907903D01*
X74615828Y-93907056D01*
X74888375Y-93906880D01*
X76524697Y-93906880D01*
X76638029Y-93964030D01*
X76682379Y-93986410D01*
X76719721Y-94007963D01*
X76750658Y-94033005D01*
X76775791Y-94065851D01*
X76795722Y-94110817D01*
X76811055Y-94172218D01*
X76822392Y-94254372D01*
X76830335Y-94361593D01*
X76835486Y-94498197D01*
X76838447Y-94668500D01*
X76839822Y-94876819D01*
X76840213Y-95127468D01*
X76840221Y-95412645D01*
X76840121Y-95704901D01*
X76839544Y-95950782D01*
X76838107Y-96154711D01*
X76835426Y-96321115D01*
X76831120Y-96454417D01*
X76824805Y-96559042D01*
X76816097Y-96639414D01*
X76804613Y-96699958D01*
X76789971Y-96745100D01*
X76771786Y-96779262D01*
X76749677Y-96806870D01*
X76723260Y-96832349D01*
X76716782Y-96838152D01*
X76690009Y-96860350D01*
X76660628Y-96879469D01*
X76624875Y-96895724D01*
X76578984Y-96909330D01*
X76519192Y-96920502D01*
X76441736Y-96929455D01*
X76342851Y-96936404D01*
X76218773Y-96941566D01*
X76065738Y-96945155D01*
X75879982Y-96947385D01*
X75657741Y-96948473D01*
X75395252Y-96948634D01*
X75088749Y-96948082D01*
X74808260Y-96947270D01*
X73195360Y-96942180D01*
X73087934Y-96884780D01*
X73047584Y-96863411D01*
X73013519Y-96843143D01*
X72985231Y-96819752D01*
X72962212Y-96789010D01*
X72943955Y-96746694D01*
X72929953Y-96688578D01*
X72919697Y-96610435D01*
X72912681Y-96508041D01*
X72908397Y-96377170D01*
X72906337Y-96213597D01*
X72905995Y-96013095D01*
X72905995Y-97539226D01*
X72937972Y-97545623D01*
X72985088Y-97552164D01*
X73044974Y-97557710D01*
X73121453Y-97562363D01*
X73218348Y-97566225D01*
X73339481Y-97569397D01*
X73488676Y-97571979D01*
X73669755Y-97574072D01*
X73886541Y-97575779D01*
X74142857Y-97577200D01*
X74442526Y-97578437D01*
X74770160Y-97579530D01*
X75068425Y-97580121D01*
X75355082Y-97580047D01*
X75625550Y-97579348D01*
X75875252Y-97578067D01*
X76099608Y-97576245D01*
X76294038Y-97573924D01*
X76453963Y-97571145D01*
X76574804Y-97567950D01*
X76651983Y-97564380D01*
X76674379Y-97562239D01*
X76935311Y-97504394D01*
X77156701Y-97415056D01*
X77338384Y-97294337D01*
X77480193Y-97142347D01*
X77581964Y-96959197D01*
X77583726Y-96954880D01*
X77596007Y-96923716D01*
X77606370Y-96892887D01*
X77614978Y-96858015D01*
X77621995Y-96814721D01*
X77627583Y-96758625D01*
X77631904Y-96685349D01*
X77635121Y-96590514D01*
X77637398Y-96469742D01*
X77638896Y-96318653D01*
X77639779Y-96132869D01*
X77640208Y-95908011D01*
X77640348Y-95639701D01*
X77640360Y-95430880D01*
X77640368Y-95112524D01*
X77640031Y-94840651D01*
X77638811Y-94610942D01*
X77636167Y-94419081D01*
X77631561Y-94260750D01*
X77624453Y-94131631D01*
X77614303Y-94027408D01*
X77600573Y-93943762D01*
X77582722Y-93876376D01*
X77560212Y-93820932D01*
X77532502Y-93773115D01*
X77499055Y-93728605D01*
X77459329Y-93683085D01*
X77416097Y-93635864D01*
X77279755Y-93511998D01*
X77118424Y-93414891D01*
X76922871Y-93339647D01*
X76790560Y-93304194D01*
X76749203Y-93295313D01*
X76703652Y-93287674D01*
X76649970Y-93281184D01*
X76584220Y-93275754D01*
X76502469Y-93271291D01*
X76400780Y-93267705D01*
X76275218Y-93264905D01*
X76121846Y-93262800D01*
X75936730Y-93261298D01*
X75715933Y-93260308D01*
X75455521Y-93259740D01*
X75151557Y-93259502D01*
X74859060Y-93259491D01*
X74513281Y-93259665D01*
X74214423Y-93260112D01*
X73958610Y-93260918D01*
X73741963Y-93262169D01*
X73560604Y-93263951D01*
X73410657Y-93266350D01*
X73288242Y-93269452D01*
X73189483Y-93273342D01*
X73110502Y-93278107D01*
X73047421Y-93283832D01*
X72996361Y-93290604D01*
X72953446Y-93298509D01*
X72937363Y-93302084D01*
X72701027Y-93373607D01*
X72506945Y-93469527D01*
X72351534Y-93592337D01*
X72231212Y-93744535D01*
X72186777Y-93824862D01*
X72103160Y-93994711D01*
X72103160Y-95430345D01*
G37*
X72103160Y-95430345D02*
X72103198Y-95736602D01*
X72103409Y-95996288D01*
X72103945Y-96213634D01*
X72104953Y-96392868D01*
X72106583Y-96538221D01*
X72108986Y-96653921D01*
X72112309Y-96744200D01*
X72116703Y-96813286D01*
X72122316Y-96865409D01*
X72129298Y-96904798D01*
X72137799Y-96935683D01*
X72147968Y-96962295D01*
X72158047Y-96984742D01*
X72266144Y-97158598D01*
X72417227Y-97306826D01*
X72609745Y-97428233D01*
X72842149Y-97521630D01*
X72866759Y-97529156D01*
X72899803Y-97537988D01*
X72905995Y-97539226D01*
X72905995Y-96013095D01*
X72906862Y-95771441D01*
X72908430Y-95484407D01*
X72908931Y-95394379D01*
X72915960Y-94113382D01*
X72987073Y-94039173D01*
X73060927Y-93981244D01*
X73146432Y-93938724D01*
X73155120Y-93935922D01*
X73196403Y-93929339D01*
X73274414Y-93923667D01*
X73390976Y-93918875D01*
X73547911Y-93914934D01*
X73747041Y-93911811D01*
X73990189Y-93909478D01*
X74279177Y-93907903D01*
X74615828Y-93907056D01*
X74888375Y-93906880D01*
X76524697Y-93906880D01*
X76638029Y-93964030D01*
X76682379Y-93986410D01*
X76719721Y-94007963D01*
X76750658Y-94033005D01*
X76775791Y-94065851D01*
X76795722Y-94110817D01*
X76811055Y-94172218D01*
X76822392Y-94254372D01*
X76830335Y-94361593D01*
X76835486Y-94498197D01*
X76838447Y-94668500D01*
X76839822Y-94876819D01*
X76840213Y-95127468D01*
X76840221Y-95412645D01*
X76840121Y-95704901D01*
X76839544Y-95950782D01*
X76838107Y-96154711D01*
X76835426Y-96321115D01*
X76831120Y-96454417D01*
X76824805Y-96559042D01*
X76816097Y-96639414D01*
X76804613Y-96699958D01*
X76789971Y-96745100D01*
X76771786Y-96779262D01*
X76749677Y-96806870D01*
X76723260Y-96832349D01*
X76716782Y-96838152D01*
X76690009Y-96860350D01*
X76660628Y-96879469D01*
X76624875Y-96895724D01*
X76578984Y-96909330D01*
X76519192Y-96920502D01*
X76441736Y-96929455D01*
X76342851Y-96936404D01*
X76218773Y-96941566D01*
X76065738Y-96945155D01*
X75879982Y-96947385D01*
X75657741Y-96948473D01*
X75395252Y-96948634D01*
X75088749Y-96948082D01*
X74808260Y-96947270D01*
X73195360Y-96942180D01*
X73087934Y-96884780D01*
X73047584Y-96863411D01*
X73013519Y-96843143D01*
X72985231Y-96819752D01*
X72962212Y-96789010D01*
X72943955Y-96746694D01*
X72929953Y-96688578D01*
X72919697Y-96610435D01*
X72912681Y-96508041D01*
X72908397Y-96377170D01*
X72906337Y-96213597D01*
X72905995Y-96013095D01*
X72905995Y-97539226D01*
X72937972Y-97545623D01*
X72985088Y-97552164D01*
X73044974Y-97557710D01*
X73121453Y-97562363D01*
X73218348Y-97566225D01*
X73339481Y-97569397D01*
X73488676Y-97571979D01*
X73669755Y-97574072D01*
X73886541Y-97575779D01*
X74142857Y-97577200D01*
X74442526Y-97578437D01*
X74770160Y-97579530D01*
X75068425Y-97580121D01*
X75355082Y-97580047D01*
X75625550Y-97579348D01*
X75875252Y-97578067D01*
X76099608Y-97576245D01*
X76294038Y-97573924D01*
X76453963Y-97571145D01*
X76574804Y-97567950D01*
X76651983Y-97564380D01*
X76674379Y-97562239D01*
X76935311Y-97504394D01*
X77156701Y-97415056D01*
X77338384Y-97294337D01*
X77480193Y-97142347D01*
X77581964Y-96959197D01*
X77583726Y-96954880D01*
X77596007Y-96923716D01*
X77606370Y-96892887D01*
X77614978Y-96858015D01*
X77621995Y-96814721D01*
X77627583Y-96758625D01*
X77631904Y-96685349D01*
X77635121Y-96590514D01*
X77637398Y-96469742D01*
X77638896Y-96318653D01*
X77639779Y-96132869D01*
X77640208Y-95908011D01*
X77640348Y-95639701D01*
X77640360Y-95430880D01*
X77640368Y-95112524D01*
X77640031Y-94840651D01*
X77638811Y-94610942D01*
X77636167Y-94419081D01*
X77631561Y-94260750D01*
X77624453Y-94131631D01*
X77614303Y-94027408D01*
X77600573Y-93943762D01*
X77582722Y-93876376D01*
X77560212Y-93820932D01*
X77532502Y-93773115D01*
X77499055Y-93728605D01*
X77459329Y-93683085D01*
X77416097Y-93635864D01*
X77279755Y-93511998D01*
X77118424Y-93414891D01*
X76922871Y-93339647D01*
X76790560Y-93304194D01*
X76749203Y-93295313D01*
X76703652Y-93287674D01*
X76649970Y-93281184D01*
X76584220Y-93275754D01*
X76502469Y-93271291D01*
X76400780Y-93267705D01*
X76275218Y-93264905D01*
X76121846Y-93262800D01*
X75936730Y-93261298D01*
X75715933Y-93260308D01*
X75455521Y-93259740D01*
X75151557Y-93259502D01*
X74859060Y-93259491D01*
X74513281Y-93259665D01*
X74214423Y-93260112D01*
X73958610Y-93260918D01*
X73741963Y-93262169D01*
X73560604Y-93263951D01*
X73410657Y-93266350D01*
X73288242Y-93269452D01*
X73189483Y-93273342D01*
X73110502Y-93278107D01*
X73047421Y-93283832D01*
X72996361Y-93290604D01*
X72953446Y-93298509D01*
X72937363Y-93302084D01*
X72701027Y-93373607D01*
X72506945Y-93469527D01*
X72351534Y-93592337D01*
X72231212Y-93744535D01*
X72186777Y-93824862D01*
X72103160Y-93994711D01*
X72103160Y-95430345D01*
G36*
X65753160Y-95418180D02*
G01*
X65753338Y-95718078D01*
X65754135Y-95971955D01*
X65755949Y-96184588D01*
X65759179Y-96360754D01*
X65764220Y-96505231D01*
X65771472Y-96622797D01*
X65781331Y-96718230D01*
X65794195Y-96796307D01*
X65810462Y-96861806D01*
X65830529Y-96919505D01*
X65854794Y-96974180D01*
X65883654Y-97030611D01*
X65888012Y-97038790D01*
X65998330Y-97193383D01*
X66151296Y-97323410D01*
X66347751Y-97429408D01*
X66565960Y-97504178D01*
X66565960Y-95430880D01*
X66566046Y-95157792D01*
X66566432Y-94930762D01*
X66567308Y-94745046D01*
X66568868Y-94595900D01*
X66571302Y-94478581D01*
X66574802Y-94388348D01*
X66579560Y-94320455D01*
X66585768Y-94270160D01*
X66593617Y-94232721D01*
X66603299Y-94203394D01*
X66615006Y-94177436D01*
X66616760Y-94173915D01*
X66699546Y-94062849D01*
X66819439Y-93976863D01*
X66931273Y-93932687D01*
X66976312Y-93927392D01*
X67069988Y-93922638D01*
X67210143Y-93918456D01*
X67394615Y-93914876D01*
X67621246Y-93911928D01*
X67887875Y-93909643D01*
X68192344Y-93908051D01*
X68532491Y-93907183D01*
X68756710Y-93907021D01*
X70490260Y-93906880D01*
X70490260Y-95432014D01*
X70490260Y-96957149D01*
X68731310Y-96949664D01*
X66972360Y-96942180D01*
X66821133Y-96865980D01*
X66722961Y-96809301D01*
X66658866Y-96751605D01*
X66617933Y-96688180D01*
X66605669Y-96662496D01*
X66595501Y-96634586D01*
X66587234Y-96599704D01*
X66580671Y-96553107D01*
X66575615Y-96490050D01*
X66571871Y-96405789D01*
X66569243Y-96295581D01*
X66567534Y-96154680D01*
X66566548Y-95978343D01*
X66566090Y-95761826D01*
X66565963Y-95500385D01*
X66565960Y-95430880D01*
X66565960Y-97504178D01*
X66588540Y-97511916D01*
X66655912Y-97528971D01*
X66692545Y-97536879D01*
X66733947Y-97543851D01*
X66783505Y-97549962D01*
X66844604Y-97555290D01*
X66920630Y-97559908D01*
X67014967Y-97563894D01*
X67131003Y-97567322D01*
X67272122Y-97570269D01*
X67441710Y-97572810D01*
X67643153Y-97575021D01*
X67879837Y-97576978D01*
X68155147Y-97578756D01*
X68472469Y-97580432D01*
X68835189Y-97582081D01*
X69074210Y-97583081D01*
X71303060Y-97592202D01*
X71303060Y-95417085D01*
X71303060Y-93241969D01*
X69099610Y-93253832D01*
X68703226Y-93256079D01*
X68354389Y-93258329D01*
X68049848Y-93260652D01*
X67786352Y-93263117D01*
X67560648Y-93265795D01*
X67369484Y-93268753D01*
X67209609Y-93272061D01*
X67077771Y-93275790D01*
X66970717Y-93280007D01*
X66885196Y-93284783D01*
X66817956Y-93290187D01*
X66765746Y-93296288D01*
X66725312Y-93303156D01*
X66718360Y-93304626D01*
X66467303Y-93373522D01*
X66260292Y-93462118D01*
X66093358Y-93573527D01*
X65962530Y-93710862D01*
X65863841Y-93877235D01*
X65810529Y-94016518D01*
X65797327Y-94059743D01*
X65786323Y-94101284D01*
X65777317Y-94146028D01*
X65770108Y-94198862D01*
X65764498Y-94264671D01*
X65760285Y-94348343D01*
X65757270Y-94454763D01*
X65755253Y-94588819D01*
X65754033Y-94755396D01*
X65753412Y-94959382D01*
X65753188Y-95205663D01*
X65753160Y-95418180D01*
G37*
X65753160Y-95418180D02*
X65753338Y-95718078D01*
X65754135Y-95971955D01*
X65755949Y-96184588D01*
X65759179Y-96360754D01*
X65764220Y-96505231D01*
X65771472Y-96622797D01*
X65781331Y-96718230D01*
X65794195Y-96796307D01*
X65810462Y-96861806D01*
X65830529Y-96919505D01*
X65854794Y-96974180D01*
X65883654Y-97030611D01*
X65888012Y-97038790D01*
X65998330Y-97193383D01*
X66151296Y-97323410D01*
X66347751Y-97429408D01*
X66565960Y-97504178D01*
X66565960Y-95430880D01*
X66566046Y-95157792D01*
X66566432Y-94930762D01*
X66567308Y-94745046D01*
X66568868Y-94595900D01*
X66571302Y-94478581D01*
X66574802Y-94388348D01*
X66579560Y-94320455D01*
X66585768Y-94270160D01*
X66593617Y-94232721D01*
X66603299Y-94203394D01*
X66615006Y-94177436D01*
X66616760Y-94173915D01*
X66699546Y-94062849D01*
X66819439Y-93976863D01*
X66931273Y-93932687D01*
X66976312Y-93927392D01*
X67069988Y-93922638D01*
X67210143Y-93918456D01*
X67394615Y-93914876D01*
X67621246Y-93911928D01*
X67887875Y-93909643D01*
X68192344Y-93908051D01*
X68532491Y-93907183D01*
X68756710Y-93907021D01*
X70490260Y-93906880D01*
X70490260Y-95432014D01*
X70490260Y-96957149D01*
X68731310Y-96949664D01*
X66972360Y-96942180D01*
X66821133Y-96865980D01*
X66722961Y-96809301D01*
X66658866Y-96751605D01*
X66617933Y-96688180D01*
X66605669Y-96662496D01*
X66595501Y-96634586D01*
X66587234Y-96599704D01*
X66580671Y-96553107D01*
X66575615Y-96490050D01*
X66571871Y-96405789D01*
X66569243Y-96295581D01*
X66567534Y-96154680D01*
X66566548Y-95978343D01*
X66566090Y-95761826D01*
X66565963Y-95500385D01*
X66565960Y-95430880D01*
X66565960Y-97504178D01*
X66588540Y-97511916D01*
X66655912Y-97528971D01*
X66692545Y-97536879D01*
X66733947Y-97543851D01*
X66783505Y-97549962D01*
X66844604Y-97555290D01*
X66920630Y-97559908D01*
X67014967Y-97563894D01*
X67131003Y-97567322D01*
X67272122Y-97570269D01*
X67441710Y-97572810D01*
X67643153Y-97575021D01*
X67879837Y-97576978D01*
X68155147Y-97578756D01*
X68472469Y-97580432D01*
X68835189Y-97582081D01*
X69074210Y-97583081D01*
X71303060Y-97592202D01*
X71303060Y-95417085D01*
X71303060Y-93241969D01*
X69099610Y-93253832D01*
X68703226Y-93256079D01*
X68354389Y-93258329D01*
X68049848Y-93260652D01*
X67786352Y-93263117D01*
X67560648Y-93265795D01*
X67369484Y-93268753D01*
X67209609Y-93272061D01*
X67077771Y-93275790D01*
X66970717Y-93280007D01*
X66885196Y-93284783D01*
X66817956Y-93290187D01*
X66765746Y-93296288D01*
X66725312Y-93303156D01*
X66718360Y-93304626D01*
X66467303Y-93373522D01*
X66260292Y-93462118D01*
X66093358Y-93573527D01*
X65962530Y-93710862D01*
X65863841Y-93877235D01*
X65810529Y-94016518D01*
X65797327Y-94059743D01*
X65786323Y-94101284D01*
X65777317Y-94146028D01*
X65770108Y-94198862D01*
X65764498Y-94264671D01*
X65760285Y-94348343D01*
X65757270Y-94454763D01*
X65755253Y-94588819D01*
X65754033Y-94755396D01*
X65753412Y-94959382D01*
X65753188Y-95205663D01*
X65753160Y-95418180D01*
G36*
X66423345Y-82692780D02*
G01*
X66433990Y-83182725D01*
X66466505Y-83641921D01*
X66522852Y-84086353D01*
X66604994Y-84532006D01*
X66697645Y-84927980D01*
X66884965Y-85562296D01*
X67117796Y-86176658D01*
X67394125Y-86769056D01*
X67711937Y-87337476D01*
X67755863Y-87404165D01*
X67755863Y-82946780D01*
X67758898Y-82328900D01*
X67810865Y-81720108D01*
X67910341Y-81122772D01*
X68055906Y-80539259D01*
X68246136Y-79971938D01*
X68479610Y-79423177D01*
X68754905Y-78895344D01*
X69070601Y-78390806D01*
X69425274Y-77911933D01*
X69817503Y-77461092D01*
X70245867Y-77040650D01*
X70708942Y-76652977D01*
X71205307Y-76300440D01*
X71733540Y-75985408D01*
X72026960Y-75833956D01*
X72526750Y-75608101D01*
X73019807Y-75424735D01*
X73518535Y-75280239D01*
X74035336Y-75170994D01*
X74554260Y-75096576D01*
X74784415Y-75077106D01*
X75050658Y-75065886D01*
X75339367Y-75062651D01*
X75636917Y-75067137D01*
X75929686Y-75079077D01*
X76204049Y-75098206D01*
X76446382Y-75124259D01*
X76520393Y-75134854D01*
X77109922Y-75249481D01*
X77683698Y-75409285D01*
X78247756Y-75616185D01*
X78757960Y-75847145D01*
X79299860Y-76142167D01*
X79810906Y-76476062D01*
X80289648Y-76846408D01*
X80734634Y-77250786D01*
X81144414Y-77686774D01*
X81517538Y-78151951D01*
X81852556Y-78643896D01*
X82148016Y-79160188D01*
X82402467Y-79698407D01*
X82614461Y-80256132D01*
X82782545Y-80830941D01*
X82905269Y-81420414D01*
X82981183Y-82022130D01*
X83008836Y-82633668D01*
X83004401Y-82934080D01*
X82960825Y-83549815D01*
X82872607Y-84143867D01*
X82738598Y-84720802D01*
X82557648Y-85285187D01*
X82328608Y-85841586D01*
X82210213Y-86089238D01*
X81955003Y-86562909D01*
X81677123Y-87002480D01*
X81369423Y-87417666D01*
X81024751Y-87818181D01*
X80671817Y-88179180D01*
X80205488Y-88596304D01*
X79712394Y-88970576D01*
X79193760Y-89301282D01*
X78650810Y-89587707D01*
X78084769Y-89829138D01*
X77517607Y-90018845D01*
X77274286Y-90086253D01*
X77040756Y-90142903D01*
X76805293Y-90190926D01*
X76556174Y-90232451D01*
X76281676Y-90269608D01*
X75970075Y-90304526D01*
X75913160Y-90310334D01*
X75821705Y-90315505D01*
X75689532Y-90317565D01*
X75526607Y-90316827D01*
X75342895Y-90313607D01*
X75148364Y-90308219D01*
X74952979Y-90300977D01*
X74766707Y-90292196D01*
X74599512Y-90282191D01*
X74461363Y-90271276D01*
X74376460Y-90261828D01*
X73754940Y-90151557D01*
X73152655Y-89994391D01*
X72570721Y-89790893D01*
X72010251Y-89541625D01*
X71472360Y-89247151D01*
X70958162Y-88908034D01*
X70468772Y-88524836D01*
X70005304Y-88098120D01*
X69917865Y-88009705D01*
X69579956Y-87643672D01*
X69282122Y-87278354D01*
X69015380Y-86901286D01*
X68770745Y-86500000D01*
X68596798Y-86176475D01*
X68340424Y-85629284D01*
X68132528Y-85083393D01*
X67971399Y-84532236D01*
X67855328Y-83969247D01*
X67782605Y-83387859D01*
X67755863Y-82946780D01*
X67755863Y-87404165D01*
X68069218Y-87879905D01*
X68463954Y-88394333D01*
X68894130Y-88878746D01*
X69357732Y-89331132D01*
X69852746Y-89749479D01*
X70377156Y-90131775D01*
X70928949Y-90476007D01*
X71506111Y-90780163D01*
X72106626Y-91042231D01*
X72728481Y-91260199D01*
X73157260Y-91380869D01*
X73739663Y-91506929D01*
X74343530Y-91595937D01*
X74954830Y-91646540D01*
X75559534Y-91657388D01*
X75900755Y-91644987D01*
X76423015Y-91597911D01*
X76958930Y-91517535D01*
X77488526Y-91407405D01*
X77970560Y-91277554D01*
X78603281Y-91059642D01*
X79212760Y-90797732D01*
X79797200Y-90493798D01*
X80354803Y-90149813D01*
X80883773Y-89767752D01*
X81382313Y-89349588D01*
X81848625Y-88897294D01*
X82280913Y-88412845D01*
X82677379Y-87898215D01*
X83036227Y-87355376D01*
X83355659Y-86786303D01*
X83633878Y-86192969D01*
X83869087Y-85577348D01*
X84059490Y-84941415D01*
X84168088Y-84470780D01*
X84272335Y-83830792D01*
X84329290Y-83177402D01*
X84339010Y-82515620D01*
X84301549Y-81850456D01*
X84216963Y-81186918D01*
X84126607Y-80711580D01*
X84076430Y-80503895D01*
X84010201Y-80264694D01*
X83932659Y-80008812D01*
X83848541Y-79751082D01*
X83762587Y-79506340D01*
X83679537Y-79289419D01*
X83647858Y-79212980D01*
X83360296Y-78600810D01*
X83033369Y-78018944D01*
X82669187Y-77468570D01*
X82269864Y-76950875D01*
X81837510Y-76467046D01*
X81374239Y-76018271D01*
X80882161Y-75605736D01*
X80363390Y-75230630D01*
X79820036Y-74894140D01*
X79254213Y-74597453D01*
X78668031Y-74341756D01*
X78063604Y-74128238D01*
X77443043Y-73958084D01*
X76808459Y-73832484D01*
X76161966Y-73752623D01*
X75505675Y-73719690D01*
X74841699Y-73734871D01*
X74172148Y-73799355D01*
X74049214Y-73816581D01*
X73398621Y-73937290D01*
X72764983Y-74104652D01*
X72150200Y-74316804D01*
X71556168Y-74571882D01*
X70984786Y-74868022D01*
X70437952Y-75203360D01*
X69917564Y-75576033D01*
X69425520Y-75984177D01*
X68963718Y-76425929D01*
X68534056Y-76899424D01*
X68138432Y-77402799D01*
X67778744Y-77934190D01*
X67456890Y-78491734D01*
X67174769Y-79073567D01*
X66934278Y-79677824D01*
X66737315Y-80302643D01*
X66585778Y-80946160D01*
X66541642Y-81188393D01*
X66498940Y-81461118D01*
X66467089Y-81711692D01*
X66444864Y-81955692D01*
X66431040Y-82208692D01*
X66424394Y-82486268D01*
X66423345Y-82692780D01*
G37*
X66423345Y-82692780D02*
X66433990Y-83182725D01*
X66466505Y-83641921D01*
X66522852Y-84086353D01*
X66604994Y-84532006D01*
X66697645Y-84927980D01*
X66884965Y-85562296D01*
X67117796Y-86176658D01*
X67394125Y-86769056D01*
X67711937Y-87337476D01*
X67755863Y-87404165D01*
X67755863Y-82946780D01*
X67758898Y-82328900D01*
X67810865Y-81720108D01*
X67910341Y-81122772D01*
X68055906Y-80539259D01*
X68246136Y-79971938D01*
X68479610Y-79423177D01*
X68754905Y-78895344D01*
X69070601Y-78390806D01*
X69425274Y-77911933D01*
X69817503Y-77461092D01*
X70245867Y-77040650D01*
X70708942Y-76652977D01*
X71205307Y-76300440D01*
X71733540Y-75985408D01*
X72026960Y-75833956D01*
X72526750Y-75608101D01*
X73019807Y-75424735D01*
X73518535Y-75280239D01*
X74035336Y-75170994D01*
X74554260Y-75096576D01*
X74784415Y-75077106D01*
X75050658Y-75065886D01*
X75339367Y-75062651D01*
X75636917Y-75067137D01*
X75929686Y-75079077D01*
X76204049Y-75098206D01*
X76446382Y-75124259D01*
X76520393Y-75134854D01*
X77109922Y-75249481D01*
X77683698Y-75409285D01*
X78247756Y-75616185D01*
X78757960Y-75847145D01*
X79299860Y-76142167D01*
X79810906Y-76476062D01*
X80289648Y-76846408D01*
X80734634Y-77250786D01*
X81144414Y-77686774D01*
X81517538Y-78151951D01*
X81852556Y-78643896D01*
X82148016Y-79160188D01*
X82402467Y-79698407D01*
X82614461Y-80256132D01*
X82782545Y-80830941D01*
X82905269Y-81420414D01*
X82981183Y-82022130D01*
X83008836Y-82633668D01*
X83004401Y-82934080D01*
X82960825Y-83549815D01*
X82872607Y-84143867D01*
X82738598Y-84720802D01*
X82557648Y-85285187D01*
X82328608Y-85841586D01*
X82210213Y-86089238D01*
X81955003Y-86562909D01*
X81677123Y-87002480D01*
X81369423Y-87417666D01*
X81024751Y-87818181D01*
X80671817Y-88179180D01*
X80205488Y-88596304D01*
X79712394Y-88970576D01*
X79193760Y-89301282D01*
X78650810Y-89587707D01*
X78084769Y-89829138D01*
X77517607Y-90018845D01*
X77274286Y-90086253D01*
X77040756Y-90142903D01*
X76805293Y-90190926D01*
X76556174Y-90232451D01*
X76281676Y-90269608D01*
X75970075Y-90304526D01*
X75913160Y-90310334D01*
X75821705Y-90315505D01*
X75689532Y-90317565D01*
X75526607Y-90316827D01*
X75342895Y-90313607D01*
X75148364Y-90308219D01*
X74952979Y-90300977D01*
X74766707Y-90292196D01*
X74599512Y-90282191D01*
X74461363Y-90271276D01*
X74376460Y-90261828D01*
X73754940Y-90151557D01*
X73152655Y-89994391D01*
X72570721Y-89790893D01*
X72010251Y-89541625D01*
X71472360Y-89247151D01*
X70958162Y-88908034D01*
X70468772Y-88524836D01*
X70005304Y-88098120D01*
X69917865Y-88009705D01*
X69579956Y-87643672D01*
X69282122Y-87278354D01*
X69015380Y-86901286D01*
X68770745Y-86500000D01*
X68596798Y-86176475D01*
X68340424Y-85629284D01*
X68132528Y-85083393D01*
X67971399Y-84532236D01*
X67855328Y-83969247D01*
X67782605Y-83387859D01*
X67755863Y-82946780D01*
X67755863Y-87404165D01*
X68069218Y-87879905D01*
X68463954Y-88394333D01*
X68894130Y-88878746D01*
X69357732Y-89331132D01*
X69852746Y-89749479D01*
X70377156Y-90131775D01*
X70928949Y-90476007D01*
X71506111Y-90780163D01*
X72106626Y-91042231D01*
X72728481Y-91260199D01*
X73157260Y-91380869D01*
X73739663Y-91506929D01*
X74343530Y-91595937D01*
X74954830Y-91646540D01*
X75559534Y-91657388D01*
X75900755Y-91644987D01*
X76423015Y-91597911D01*
X76958930Y-91517535D01*
X77488526Y-91407405D01*
X77970560Y-91277554D01*
X78603281Y-91059642D01*
X79212760Y-90797732D01*
X79797200Y-90493798D01*
X80354803Y-90149813D01*
X80883773Y-89767752D01*
X81382313Y-89349588D01*
X81848625Y-88897294D01*
X82280913Y-88412845D01*
X82677379Y-87898215D01*
X83036227Y-87355376D01*
X83355659Y-86786303D01*
X83633878Y-86192969D01*
X83869087Y-85577348D01*
X84059490Y-84941415D01*
X84168088Y-84470780D01*
X84272335Y-83830792D01*
X84329290Y-83177402D01*
X84339010Y-82515620D01*
X84301549Y-81850456D01*
X84216963Y-81186918D01*
X84126607Y-80711580D01*
X84076430Y-80503895D01*
X84010201Y-80264694D01*
X83932659Y-80008812D01*
X83848541Y-79751082D01*
X83762587Y-79506340D01*
X83679537Y-79289419D01*
X83647858Y-79212980D01*
X83360296Y-78600810D01*
X83033369Y-78018944D01*
X82669187Y-77468570D01*
X82269864Y-76950875D01*
X81837510Y-76467046D01*
X81374239Y-76018271D01*
X80882161Y-75605736D01*
X80363390Y-75230630D01*
X79820036Y-74894140D01*
X79254213Y-74597453D01*
X78668031Y-74341756D01*
X78063604Y-74128238D01*
X77443043Y-73958084D01*
X76808459Y-73832484D01*
X76161966Y-73752623D01*
X75505675Y-73719690D01*
X74841699Y-73734871D01*
X74172148Y-73799355D01*
X74049214Y-73816581D01*
X73398621Y-73937290D01*
X72764983Y-74104652D01*
X72150200Y-74316804D01*
X71556168Y-74571882D01*
X70984786Y-74868022D01*
X70437952Y-75203360D01*
X69917564Y-75576033D01*
X69425520Y-75984177D01*
X68963718Y-76425929D01*
X68534056Y-76899424D01*
X68138432Y-77402799D01*
X67778744Y-77934190D01*
X67456890Y-78491734D01*
X67174769Y-79073567D01*
X66934278Y-79677824D01*
X66737315Y-80302643D01*
X66585778Y-80946160D01*
X66541642Y-81188393D01*
X66498940Y-81461118D01*
X66467089Y-81711692D01*
X66444864Y-81955692D01*
X66431040Y-82208692D01*
X66424394Y-82486268D01*
X66423345Y-82692780D01*
G36*
X71433180Y-84349661D02*
G01*
X71433424Y-84636595D01*
X71434511Y-84967116D01*
X71436007Y-85302145D01*
X71437733Y-85648994D01*
X71439450Y-85948809D01*
X71441263Y-86205355D01*
X71443280Y-86422398D01*
X71445607Y-86603705D01*
X71448351Y-86753040D01*
X71451619Y-86874170D01*
X71455517Y-86970860D01*
X71460151Y-87046876D01*
X71465629Y-87105983D01*
X71472057Y-87151948D01*
X71479541Y-87188536D01*
X71488189Y-87219512D01*
X71490498Y-87226680D01*
X71591916Y-87467055D01*
X71727656Y-87673529D01*
X71899792Y-87847931D01*
X72110396Y-87992095D01*
X72361540Y-88107852D01*
X72560360Y-88172346D01*
X72601813Y-88183898D01*
X72601813Y-84477260D01*
X72602476Y-84173838D01*
X72604158Y-83920113D01*
X72606862Y-83715719D01*
X72610593Y-83560291D01*
X72615354Y-83453466D01*
X72621149Y-83394878D01*
X72622761Y-83387719D01*
X72659974Y-83311965D01*
X72722269Y-83231947D01*
X72749994Y-83204584D01*
X72780708Y-83176566D01*
X72809189Y-83151799D01*
X72838597Y-83130093D01*
X72872091Y-83111256D01*
X72912829Y-83095097D01*
X72963971Y-83081426D01*
X73028675Y-83070050D01*
X73110100Y-83060779D01*
X73211406Y-83053422D01*
X73335751Y-83047787D01*
X73486295Y-83043683D01*
X73666196Y-83040920D01*
X73878613Y-83039306D01*
X74126706Y-83038650D01*
X74413633Y-83038761D01*
X74742553Y-83039447D01*
X75116625Y-83040518D01*
X75445207Y-83041507D01*
X77767360Y-83048380D01*
X77906722Y-83124580D01*
X78013586Y-83195630D01*
X78087608Y-83278582D01*
X78109922Y-83315080D01*
X78173760Y-83429380D01*
X78180985Y-85103889D01*
X78182277Y-85493302D01*
X78182564Y-85833150D01*
X78181832Y-86124660D01*
X78180068Y-86369056D01*
X78177257Y-86567565D01*
X78173385Y-86721412D01*
X78168438Y-86831824D01*
X78162401Y-86900025D01*
X78160082Y-86913893D01*
X78111791Y-87055642D01*
X78030024Y-87166030D01*
X77910625Y-87248743D01*
X77749441Y-87307464D01*
X77703860Y-87318445D01*
X77654384Y-87323756D01*
X77558751Y-87328661D01*
X77421601Y-87333151D01*
X77247576Y-87337217D01*
X77041316Y-87340848D01*
X76807463Y-87344036D01*
X76550657Y-87346771D01*
X76275540Y-87349042D01*
X75986752Y-87350842D01*
X75688935Y-87352160D01*
X75386729Y-87352986D01*
X75084776Y-87353312D01*
X74787716Y-87353127D01*
X74500191Y-87352422D01*
X74226841Y-87351187D01*
X73972308Y-87349413D01*
X73741233Y-87347091D01*
X73538256Y-87344211D01*
X73368018Y-87340763D01*
X73235161Y-87336737D01*
X73144325Y-87332125D01*
X73104465Y-87327901D01*
X72920733Y-87275608D01*
X72778473Y-87196599D01*
X72679335Y-87092123D01*
X72611160Y-86989120D01*
X72603528Y-85234650D01*
X72602164Y-84830742D01*
X72601813Y-84477260D01*
X72601813Y-88183898D01*
X72763560Y-88228974D01*
X75290860Y-88233193D01*
X75648312Y-88233564D01*
X75993738Y-88233484D01*
X76323449Y-88232977D01*
X76633758Y-88232069D01*
X76920975Y-88230786D01*
X77181413Y-88229151D01*
X77411381Y-88227191D01*
X77607193Y-88224929D01*
X77765160Y-88222393D01*
X77881592Y-88219605D01*
X77952801Y-88216593D01*
X77970560Y-88214971D01*
X78252208Y-88155078D01*
X78508945Y-88063479D01*
X78736055Y-87943070D01*
X78928818Y-87796745D01*
X79082516Y-87627397D01*
X79174625Y-87476377D01*
X79202919Y-87417871D01*
X79227515Y-87362897D01*
X79248673Y-87307596D01*
X79266651Y-87248112D01*
X79281708Y-87180585D01*
X79294104Y-87101158D01*
X79304095Y-87005974D01*
X79311943Y-86891175D01*
X79317905Y-86752902D01*
X79322241Y-86587298D01*
X79325208Y-86390506D01*
X79327067Y-86158667D01*
X79328076Y-85887924D01*
X79328493Y-85574418D01*
X79328578Y-85214293D01*
X79328578Y-85181980D01*
X79328422Y-84825483D01*
X79327907Y-84516131D01*
X79326963Y-84250269D01*
X79325520Y-84024242D01*
X79323507Y-83834395D01*
X79320854Y-83677074D01*
X79317491Y-83548623D01*
X79313348Y-83445389D01*
X79308355Y-83363716D01*
X79302441Y-83299950D01*
X79295536Y-83250436D01*
X79291010Y-83226623D01*
X79216327Y-82984745D01*
X79100814Y-82772242D01*
X78944189Y-82588863D01*
X78746166Y-82434361D01*
X78506463Y-82308488D01*
X78224794Y-82210994D01*
X78092480Y-82178130D01*
X78056563Y-82170836D01*
X78016108Y-82164385D01*
X77967955Y-82158727D01*
X77908943Y-82153810D01*
X77835912Y-82149583D01*
X77745703Y-82145994D01*
X77635153Y-82142994D01*
X77501103Y-82140530D01*
X77340392Y-82138551D01*
X77149860Y-82137006D01*
X76926347Y-82135844D01*
X76666692Y-82135014D01*
X76367734Y-82134464D01*
X76026314Y-82134143D01*
X75639270Y-82134001D01*
X75367060Y-82133980D01*
X72839760Y-82133980D01*
X72602387Y-82193815D01*
X72324813Y-82282731D01*
X72081649Y-82399935D01*
X71875954Y-82543257D01*
X71710789Y-82710524D01*
X71589215Y-82899564D01*
X71579662Y-82919391D01*
X71551867Y-82980462D01*
X71527672Y-83039400D01*
X71506847Y-83100015D01*
X71489162Y-83166117D01*
X71474388Y-83241516D01*
X71462296Y-83330021D01*
X71452654Y-83435444D01*
X71445235Y-83561594D01*
X71439807Y-83712281D01*
X71436142Y-83891314D01*
X71434010Y-84102504D01*
X71433180Y-84349661D01*
G37*
X71433180Y-84349661D02*
X71433424Y-84636595D01*
X71434511Y-84967116D01*
X71436007Y-85302145D01*
X71437733Y-85648994D01*
X71439450Y-85948809D01*
X71441263Y-86205355D01*
X71443280Y-86422398D01*
X71445607Y-86603705D01*
X71448351Y-86753040D01*
X71451619Y-86874170D01*
X71455517Y-86970860D01*
X71460151Y-87046876D01*
X71465629Y-87105983D01*
X71472057Y-87151948D01*
X71479541Y-87188536D01*
X71488189Y-87219512D01*
X71490498Y-87226680D01*
X71591916Y-87467055D01*
X71727656Y-87673529D01*
X71899792Y-87847931D01*
X72110396Y-87992095D01*
X72361540Y-88107852D01*
X72560360Y-88172346D01*
X72601813Y-88183898D01*
X72601813Y-84477260D01*
X72602476Y-84173838D01*
X72604158Y-83920113D01*
X72606862Y-83715719D01*
X72610593Y-83560291D01*
X72615354Y-83453466D01*
X72621149Y-83394878D01*
X72622761Y-83387719D01*
X72659974Y-83311965D01*
X72722269Y-83231947D01*
X72749994Y-83204584D01*
X72780708Y-83176566D01*
X72809189Y-83151799D01*
X72838597Y-83130093D01*
X72872091Y-83111256D01*
X72912829Y-83095097D01*
X72963971Y-83081426D01*
X73028675Y-83070050D01*
X73110100Y-83060779D01*
X73211406Y-83053422D01*
X73335751Y-83047787D01*
X73486295Y-83043683D01*
X73666196Y-83040920D01*
X73878613Y-83039306D01*
X74126706Y-83038650D01*
X74413633Y-83038761D01*
X74742553Y-83039447D01*
X75116625Y-83040518D01*
X75445207Y-83041507D01*
X77767360Y-83048380D01*
X77906722Y-83124580D01*
X78013586Y-83195630D01*
X78087608Y-83278582D01*
X78109922Y-83315080D01*
X78173760Y-83429380D01*
X78180985Y-85103889D01*
X78182277Y-85493302D01*
X78182564Y-85833150D01*
X78181832Y-86124660D01*
X78180068Y-86369056D01*
X78177257Y-86567565D01*
X78173385Y-86721412D01*
X78168438Y-86831824D01*
X78162401Y-86900025D01*
X78160082Y-86913893D01*
X78111791Y-87055642D01*
X78030024Y-87166030D01*
X77910625Y-87248743D01*
X77749441Y-87307464D01*
X77703860Y-87318445D01*
X77654384Y-87323756D01*
X77558751Y-87328661D01*
X77421601Y-87333151D01*
X77247576Y-87337217D01*
X77041316Y-87340848D01*
X76807463Y-87344036D01*
X76550657Y-87346771D01*
X76275540Y-87349042D01*
X75986752Y-87350842D01*
X75688935Y-87352160D01*
X75386729Y-87352986D01*
X75084776Y-87353312D01*
X74787716Y-87353127D01*
X74500191Y-87352422D01*
X74226841Y-87351187D01*
X73972308Y-87349413D01*
X73741233Y-87347091D01*
X73538256Y-87344211D01*
X73368018Y-87340763D01*
X73235161Y-87336737D01*
X73144325Y-87332125D01*
X73104465Y-87327901D01*
X72920733Y-87275608D01*
X72778473Y-87196599D01*
X72679335Y-87092123D01*
X72611160Y-86989120D01*
X72603528Y-85234650D01*
X72602164Y-84830742D01*
X72601813Y-84477260D01*
X72601813Y-88183898D01*
X72763560Y-88228974D01*
X75290860Y-88233193D01*
X75648312Y-88233564D01*
X75993738Y-88233484D01*
X76323449Y-88232977D01*
X76633758Y-88232069D01*
X76920975Y-88230786D01*
X77181413Y-88229151D01*
X77411381Y-88227191D01*
X77607193Y-88224929D01*
X77765160Y-88222393D01*
X77881592Y-88219605D01*
X77952801Y-88216593D01*
X77970560Y-88214971D01*
X78252208Y-88155078D01*
X78508945Y-88063479D01*
X78736055Y-87943070D01*
X78928818Y-87796745D01*
X79082516Y-87627397D01*
X79174625Y-87476377D01*
X79202919Y-87417871D01*
X79227515Y-87362897D01*
X79248673Y-87307596D01*
X79266651Y-87248112D01*
X79281708Y-87180585D01*
X79294104Y-87101158D01*
X79304095Y-87005974D01*
X79311943Y-86891175D01*
X79317905Y-86752902D01*
X79322241Y-86587298D01*
X79325208Y-86390506D01*
X79327067Y-86158667D01*
X79328076Y-85887924D01*
X79328493Y-85574418D01*
X79328578Y-85214293D01*
X79328578Y-85181980D01*
X79328422Y-84825483D01*
X79327907Y-84516131D01*
X79326963Y-84250269D01*
X79325520Y-84024242D01*
X79323507Y-83834395D01*
X79320854Y-83677074D01*
X79317491Y-83548623D01*
X79313348Y-83445389D01*
X79308355Y-83363716D01*
X79302441Y-83299950D01*
X79295536Y-83250436D01*
X79291010Y-83226623D01*
X79216327Y-82984745D01*
X79100814Y-82772242D01*
X78944189Y-82588863D01*
X78746166Y-82434361D01*
X78506463Y-82308488D01*
X78224794Y-82210994D01*
X78092480Y-82178130D01*
X78056563Y-82170836D01*
X78016108Y-82164385D01*
X77967955Y-82158727D01*
X77908943Y-82153810D01*
X77835912Y-82149583D01*
X77745703Y-82145994D01*
X77635153Y-82142994D01*
X77501103Y-82140530D01*
X77340392Y-82138551D01*
X77149860Y-82137006D01*
X76926347Y-82135844D01*
X76666692Y-82135014D01*
X76367734Y-82134464D01*
X76026314Y-82134143D01*
X75639270Y-82134001D01*
X75367060Y-82133980D01*
X72839760Y-82133980D01*
X72602387Y-82193815D01*
X72324813Y-82282731D01*
X72081649Y-82399935D01*
X71875954Y-82543257D01*
X71710789Y-82710524D01*
X71589215Y-82899564D01*
X71579662Y-82919391D01*
X71551867Y-82980462D01*
X71527672Y-83039400D01*
X71506847Y-83100015D01*
X71489162Y-83166117D01*
X71474388Y-83241516D01*
X71462296Y-83330021D01*
X71452654Y-83435444D01*
X71445235Y-83561594D01*
X71439807Y-83712281D01*
X71436142Y-83891314D01*
X71434010Y-84102504D01*
X71433180Y-84349661D01*
G36*
X72297472Y-78865568D02*
G01*
X72298754Y-79220379D01*
X72299351Y-79327280D01*
X72301254Y-79644362D01*
X72303193Y-79915023D01*
X72305624Y-80143640D01*
X72309001Y-80334591D01*
X72313780Y-80492251D01*
X72320415Y-80620999D01*
X72329364Y-80725211D01*
X72341079Y-80809264D01*
X72356018Y-80877537D01*
X72374635Y-80934405D01*
X72397386Y-80984245D01*
X72424725Y-81031436D01*
X72457108Y-81080354D01*
X72486069Y-81122390D01*
X72618888Y-81271497D01*
X72794258Y-81396893D01*
X72877955Y-81435853D01*
X72877955Y-79399641D01*
X72896606Y-79321609D01*
X72943123Y-79237028D01*
X73003680Y-79168365D01*
X73032728Y-79148159D01*
X73119461Y-79123672D01*
X73223951Y-79123389D01*
X73319956Y-79146125D01*
X73351954Y-79162592D01*
X73427064Y-79239954D01*
X73468744Y-79342847D01*
X73470956Y-79454017D01*
X73464086Y-79482937D01*
X73409036Y-79590889D01*
X73324675Y-79665767D01*
X73221622Y-79703137D01*
X73110493Y-79698564D01*
X73028240Y-79664946D01*
X72954101Y-79596614D01*
X72899624Y-79501124D01*
X72877963Y-79401699D01*
X72877955Y-79399641D01*
X72877955Y-81435853D01*
X73008920Y-81496817D01*
X73259614Y-81569510D01*
X73346075Y-81586585D01*
X73404900Y-81592200D01*
X73513297Y-81597125D01*
X73670045Y-81601343D01*
X73873922Y-81604841D01*
X74123704Y-81607605D01*
X74418170Y-81609618D01*
X74756097Y-81610868D01*
X75136262Y-81611338D01*
X75416175Y-81611209D01*
X75789089Y-81610653D01*
X76114633Y-81609803D01*
X76396239Y-81608594D01*
X76637338Y-81606964D01*
X76841359Y-81604849D01*
X77011733Y-81602185D01*
X77151892Y-81598909D01*
X77265264Y-81594957D01*
X77355282Y-81590267D01*
X77425375Y-81584775D01*
X77478975Y-81578417D01*
X77513360Y-81572444D01*
X77746485Y-81505152D01*
X77955293Y-81406531D01*
X78133488Y-81280907D01*
X78274771Y-81132604D01*
X78362249Y-80989585D01*
X78383785Y-80941734D01*
X78402166Y-80894027D01*
X78417618Y-80842241D01*
X78430366Y-80782154D01*
X78440636Y-80709544D01*
X78448652Y-80620188D01*
X78454640Y-80509863D01*
X78458826Y-80374349D01*
X78461435Y-80209422D01*
X78462691Y-80010859D01*
X78462820Y-79774440D01*
X78462048Y-79495940D01*
X78460600Y-79171138D01*
X78460488Y-79148387D01*
X78458921Y-78836656D01*
X78457428Y-78571516D01*
X78455842Y-78348758D01*
X78453991Y-78164172D01*
X78451709Y-78013551D01*
X78448825Y-77892685D01*
X78445171Y-77797366D01*
X78440579Y-77723385D01*
X78434879Y-77666532D01*
X78427902Y-77622600D01*
X78419480Y-77587380D01*
X78409444Y-77556662D01*
X78397624Y-77526237D01*
X78395163Y-77520143D01*
X78293083Y-77334395D01*
X78148608Y-77174803D01*
X77963969Y-77043246D01*
X77741394Y-76941605D01*
X77687145Y-76923314D01*
X77549103Y-76888922D01*
X77372128Y-76859439D01*
X77167958Y-76836166D01*
X76948332Y-76820403D01*
X76724988Y-76813451D01*
X76694210Y-76813256D01*
X76510060Y-76812680D01*
X76510060Y-77536580D01*
X76510543Y-77757150D01*
X76512119Y-77931330D01*
X76514981Y-78063523D01*
X76519323Y-78158132D01*
X76525337Y-78219558D01*
X76533217Y-78252204D01*
X76541810Y-78260621D01*
X76659446Y-78283248D01*
X76781647Y-78343709D01*
X76894916Y-78432359D01*
X76985753Y-78539552D01*
X77021473Y-78603380D01*
X77035260Y-78638179D01*
X77046038Y-78679128D01*
X77054167Y-78732580D01*
X77060009Y-78804888D01*
X77063926Y-78902406D01*
X77066280Y-79031488D01*
X77067432Y-79198487D01*
X77067745Y-79409758D01*
X77067745Y-79416180D01*
X77067450Y-79628743D01*
X77066326Y-79796862D01*
X77064009Y-79926890D01*
X77060140Y-80025183D01*
X77054354Y-80098092D01*
X77046292Y-80151972D01*
X77035592Y-80193177D01*
X77021890Y-80228060D01*
X77021473Y-80228980D01*
X76955429Y-80333055D01*
X76861386Y-80430728D01*
X76755535Y-80507430D01*
X76670608Y-80544648D01*
X76605701Y-80554882D01*
X76501168Y-80562600D01*
X76368123Y-80567800D01*
X76217678Y-80570483D01*
X76060946Y-80570649D01*
X75909039Y-80568297D01*
X75773070Y-80563428D01*
X75664150Y-80556042D01*
X75593394Y-80546138D01*
X75587513Y-80544648D01*
X75484131Y-80496293D01*
X75379165Y-80414920D01*
X75288808Y-80315097D01*
X75236648Y-80228980D01*
X75222861Y-80194180D01*
X75212083Y-80153231D01*
X75203954Y-80099779D01*
X75198112Y-80027471D01*
X75194195Y-79929953D01*
X75191841Y-79800871D01*
X75190689Y-79633872D01*
X75190376Y-79422601D01*
X75190376Y-79416180D01*
X75190671Y-79203616D01*
X75191795Y-79035497D01*
X75194112Y-78905469D01*
X75197981Y-78807176D01*
X75203767Y-78734267D01*
X75211829Y-78680387D01*
X75222529Y-78639182D01*
X75236231Y-78604299D01*
X75236648Y-78603380D01*
X75309250Y-78490066D01*
X75411761Y-78389952D01*
X75530681Y-78312684D01*
X75652513Y-78267907D01*
X75716310Y-78260621D01*
X75725965Y-78249590D01*
X75733594Y-78213661D01*
X75739388Y-78148441D01*
X75743539Y-78049535D01*
X75746239Y-77912548D01*
X75747681Y-77733087D01*
X75748060Y-77533454D01*
X75748060Y-76806429D01*
X74586010Y-76819946D01*
X74287089Y-76823665D01*
X74033824Y-76827663D01*
X73821074Y-76832488D01*
X73643698Y-76838688D01*
X73496552Y-76846813D01*
X73374495Y-76857410D01*
X73272385Y-76871028D01*
X73185079Y-76888214D01*
X73107435Y-76909519D01*
X73034312Y-76935490D01*
X72960567Y-76966675D01*
X72886051Y-77001249D01*
X72688654Y-77118475D01*
X72533232Y-77263682D01*
X72418107Y-77439094D01*
X72341603Y-77646933D01*
X72319183Y-77752480D01*
X72312013Y-77821165D01*
X72306278Y-77935489D01*
X72301966Y-78096272D01*
X72299068Y-78304334D01*
X72297574Y-78560493D01*
X72297472Y-78865568D01*
G37*
X72297472Y-78865568D02*
X72298754Y-79220379D01*
X72299351Y-79327280D01*
X72301254Y-79644362D01*
X72303193Y-79915023D01*
X72305624Y-80143640D01*
X72309001Y-80334591D01*
X72313780Y-80492251D01*
X72320415Y-80620999D01*
X72329364Y-80725211D01*
X72341079Y-80809264D01*
X72356018Y-80877537D01*
X72374635Y-80934405D01*
X72397386Y-80984245D01*
X72424725Y-81031436D01*
X72457108Y-81080354D01*
X72486069Y-81122390D01*
X72618888Y-81271497D01*
X72794258Y-81396893D01*
X72877955Y-81435853D01*
X72877955Y-79399641D01*
X72896606Y-79321609D01*
X72943123Y-79237028D01*
X73003680Y-79168365D01*
X73032728Y-79148159D01*
X73119461Y-79123672D01*
X73223951Y-79123389D01*
X73319956Y-79146125D01*
X73351954Y-79162592D01*
X73427064Y-79239954D01*
X73468744Y-79342847D01*
X73470956Y-79454017D01*
X73464086Y-79482937D01*
X73409036Y-79590889D01*
X73324675Y-79665767D01*
X73221622Y-79703137D01*
X73110493Y-79698564D01*
X73028240Y-79664946D01*
X72954101Y-79596614D01*
X72899624Y-79501124D01*
X72877963Y-79401699D01*
X72877955Y-79399641D01*
X72877955Y-81435853D01*
X73008920Y-81496817D01*
X73259614Y-81569510D01*
X73346075Y-81586585D01*
X73404900Y-81592200D01*
X73513297Y-81597125D01*
X73670045Y-81601343D01*
X73873922Y-81604841D01*
X74123704Y-81607605D01*
X74418170Y-81609618D01*
X74756097Y-81610868D01*
X75136262Y-81611338D01*
X75416175Y-81611209D01*
X75789089Y-81610653D01*
X76114633Y-81609803D01*
X76396239Y-81608594D01*
X76637338Y-81606964D01*
X76841359Y-81604849D01*
X77011733Y-81602185D01*
X77151892Y-81598909D01*
X77265264Y-81594957D01*
X77355282Y-81590267D01*
X77425375Y-81584775D01*
X77478975Y-81578417D01*
X77513360Y-81572444D01*
X77746485Y-81505152D01*
X77955293Y-81406531D01*
X78133488Y-81280907D01*
X78274771Y-81132604D01*
X78362249Y-80989585D01*
X78383785Y-80941734D01*
X78402166Y-80894027D01*
X78417618Y-80842241D01*
X78430366Y-80782154D01*
X78440636Y-80709544D01*
X78448652Y-80620188D01*
X78454640Y-80509863D01*
X78458826Y-80374349D01*
X78461435Y-80209422D01*
X78462691Y-80010859D01*
X78462820Y-79774440D01*
X78462048Y-79495940D01*
X78460600Y-79171138D01*
X78460488Y-79148387D01*
X78458921Y-78836656D01*
X78457428Y-78571516D01*
X78455842Y-78348758D01*
X78453991Y-78164172D01*
X78451709Y-78013551D01*
X78448825Y-77892685D01*
X78445171Y-77797366D01*
X78440579Y-77723385D01*
X78434879Y-77666532D01*
X78427902Y-77622600D01*
X78419480Y-77587380D01*
X78409444Y-77556662D01*
X78397624Y-77526237D01*
X78395163Y-77520143D01*
X78293083Y-77334395D01*
X78148608Y-77174803D01*
X77963969Y-77043246D01*
X77741394Y-76941605D01*
X77687145Y-76923314D01*
X77549103Y-76888922D01*
X77372128Y-76859439D01*
X77167958Y-76836166D01*
X76948332Y-76820403D01*
X76724988Y-76813451D01*
X76694210Y-76813256D01*
X76510060Y-76812680D01*
X76510060Y-77536580D01*
X76510543Y-77757150D01*
X76512119Y-77931330D01*
X76514981Y-78063523D01*
X76519323Y-78158132D01*
X76525337Y-78219558D01*
X76533217Y-78252204D01*
X76541810Y-78260621D01*
X76659446Y-78283248D01*
X76781647Y-78343709D01*
X76894916Y-78432359D01*
X76985753Y-78539552D01*
X77021473Y-78603380D01*
X77035260Y-78638179D01*
X77046038Y-78679128D01*
X77054167Y-78732580D01*
X77060009Y-78804888D01*
X77063926Y-78902406D01*
X77066280Y-79031488D01*
X77067432Y-79198487D01*
X77067745Y-79409758D01*
X77067745Y-79416180D01*
X77067450Y-79628743D01*
X77066326Y-79796862D01*
X77064009Y-79926890D01*
X77060140Y-80025183D01*
X77054354Y-80098092D01*
X77046292Y-80151972D01*
X77035592Y-80193177D01*
X77021890Y-80228060D01*
X77021473Y-80228980D01*
X76955429Y-80333055D01*
X76861386Y-80430728D01*
X76755535Y-80507430D01*
X76670608Y-80544648D01*
X76605701Y-80554882D01*
X76501168Y-80562600D01*
X76368123Y-80567800D01*
X76217678Y-80570483D01*
X76060946Y-80570649D01*
X75909039Y-80568297D01*
X75773070Y-80563428D01*
X75664150Y-80556042D01*
X75593394Y-80546138D01*
X75587513Y-80544648D01*
X75484131Y-80496293D01*
X75379165Y-80414920D01*
X75288808Y-80315097D01*
X75236648Y-80228980D01*
X75222861Y-80194180D01*
X75212083Y-80153231D01*
X75203954Y-80099779D01*
X75198112Y-80027471D01*
X75194195Y-79929953D01*
X75191841Y-79800871D01*
X75190689Y-79633872D01*
X75190376Y-79422601D01*
X75190376Y-79416180D01*
X75190671Y-79203616D01*
X75191795Y-79035497D01*
X75194112Y-78905469D01*
X75197981Y-78807176D01*
X75203767Y-78734267D01*
X75211829Y-78680387D01*
X75222529Y-78639182D01*
X75236231Y-78604299D01*
X75236648Y-78603380D01*
X75309250Y-78490066D01*
X75411761Y-78389952D01*
X75530681Y-78312684D01*
X75652513Y-78267907D01*
X75716310Y-78260621D01*
X75725965Y-78249590D01*
X75733594Y-78213661D01*
X75739388Y-78148441D01*
X75743539Y-78049535D01*
X75746239Y-77912548D01*
X75747681Y-77733087D01*
X75748060Y-77533454D01*
X75748060Y-76806429D01*
X74586010Y-76819946D01*
X74287089Y-76823665D01*
X74033824Y-76827663D01*
X73821074Y-76832488D01*
X73643698Y-76838688D01*
X73496552Y-76846813D01*
X73374495Y-76857410D01*
X73272385Y-76871028D01*
X73185079Y-76888214D01*
X73107435Y-76909519D01*
X73034312Y-76935490D01*
X72960567Y-76966675D01*
X72886051Y-77001249D01*
X72688654Y-77118475D01*
X72533232Y-77263682D01*
X72418107Y-77439094D01*
X72341603Y-77646933D01*
X72319183Y-77752480D01*
X72312013Y-77821165D01*
X72306278Y-77935489D01*
X72301966Y-78096272D01*
X72299068Y-78304334D01*
X72297574Y-78560493D01*
X72297472Y-78865568D01*
G36*
X75494039Y-85002756D02*
G01*
X75494060Y-85220079D01*
X75494041Y-85531274D01*
X75494316Y-85795774D01*
X75495381Y-86017684D01*
X75497736Y-86201111D01*
X75501877Y-86350159D01*
X75508301Y-86468932D01*
X75517507Y-86561538D01*
X75529993Y-86632079D01*
X75546255Y-86684663D01*
X75566791Y-86723393D01*
X75592099Y-86752375D01*
X75622677Y-86775714D01*
X75659022Y-86797516D01*
X75687205Y-86813512D01*
X75733405Y-86837194D01*
X75781661Y-86853215D01*
X75842928Y-86863008D01*
X75928162Y-86868007D01*
X76048318Y-86869644D01*
X76116360Y-86869667D01*
X76295276Y-86866094D01*
X76427535Y-86856174D01*
X76511447Y-86840049D01*
X76524020Y-86835352D01*
X76615383Y-86774739D01*
X76693903Y-86686102D01*
X76744135Y-86588187D01*
X76751495Y-86559182D01*
X76754221Y-86518440D01*
X76756502Y-86432002D01*
X76758309Y-86304972D01*
X76759617Y-86142451D01*
X76760398Y-85949543D01*
X76760626Y-85731350D01*
X76760275Y-85492974D01*
X76759317Y-85239519D01*
X76758856Y-85152071D01*
X76757144Y-84858656D01*
X76755485Y-84611761D01*
X76753695Y-84407106D01*
X76751590Y-84240412D01*
X76748986Y-84107399D01*
X76745701Y-84003786D01*
X76741550Y-83925296D01*
X76736350Y-83867647D01*
X76729917Y-83826560D01*
X76722068Y-83797756D01*
X76712619Y-83776955D01*
X76701387Y-83759877D01*
X76698991Y-83756640D01*
X76647166Y-83691844D01*
X76597168Y-83645200D01*
X76539325Y-83613527D01*
X76463968Y-83593644D01*
X76361424Y-83582368D01*
X76222023Y-83576520D01*
X76146349Y-83574842D01*
X76002121Y-83572626D01*
X75898503Y-83573196D01*
X75825334Y-83577676D01*
X75772452Y-83587191D01*
X75729694Y-83602864D01*
X75687205Y-83625642D01*
X75646654Y-83649143D01*
X75612212Y-83671308D01*
X75583379Y-83696249D01*
X75559658Y-83728077D01*
X75540551Y-83770903D01*
X75525560Y-83828838D01*
X75514187Y-83905993D01*
X75505934Y-84006478D01*
X75500303Y-84134406D01*
X75496796Y-84293886D01*
X75494915Y-84489031D01*
X75494162Y-84723951D01*
X75494039Y-85002756D01*
G37*
X75494039Y-85002756D02*
X75494060Y-85220079D01*
X75494041Y-85531274D01*
X75494316Y-85795774D01*
X75495381Y-86017684D01*
X75497736Y-86201111D01*
X75501877Y-86350159D01*
X75508301Y-86468932D01*
X75517507Y-86561538D01*
X75529993Y-86632079D01*
X75546255Y-86684663D01*
X75566791Y-86723393D01*
X75592099Y-86752375D01*
X75622677Y-86775714D01*
X75659022Y-86797516D01*
X75687205Y-86813512D01*
X75733405Y-86837194D01*
X75781661Y-86853215D01*
X75842928Y-86863008D01*
X75928162Y-86868007D01*
X76048318Y-86869644D01*
X76116360Y-86869667D01*
X76295276Y-86866094D01*
X76427535Y-86856174D01*
X76511447Y-86840049D01*
X76524020Y-86835352D01*
X76615383Y-86774739D01*
X76693903Y-86686102D01*
X76744135Y-86588187D01*
X76751495Y-86559182D01*
X76754221Y-86518440D01*
X76756502Y-86432002D01*
X76758309Y-86304972D01*
X76759617Y-86142451D01*
X76760398Y-85949543D01*
X76760626Y-85731350D01*
X76760275Y-85492974D01*
X76759317Y-85239519D01*
X76758856Y-85152071D01*
X76757144Y-84858656D01*
X76755485Y-84611761D01*
X76753695Y-84407106D01*
X76751590Y-84240412D01*
X76748986Y-84107399D01*
X76745701Y-84003786D01*
X76741550Y-83925296D01*
X76736350Y-83867647D01*
X76729917Y-83826560D01*
X76722068Y-83797756D01*
X76712619Y-83776955D01*
X76701387Y-83759877D01*
X76698991Y-83756640D01*
X76647166Y-83691844D01*
X76597168Y-83645200D01*
X76539325Y-83613527D01*
X76463968Y-83593644D01*
X76361424Y-83582368D01*
X76222023Y-83576520D01*
X76146349Y-83574842D01*
X76002121Y-83572626D01*
X75898503Y-83573196D01*
X75825334Y-83577676D01*
X75772452Y-83587191D01*
X75729694Y-83602864D01*
X75687205Y-83625642D01*
X75646654Y-83649143D01*
X75612212Y-83671308D01*
X75583379Y-83696249D01*
X75559658Y-83728077D01*
X75540551Y-83770903D01*
X75525560Y-83828838D01*
X75514187Y-83905993D01*
X75505934Y-84006478D01*
X75500303Y-84134406D01*
X75496796Y-84293886D01*
X75494915Y-84489031D01*
X75494162Y-84723951D01*
X75494039Y-85002756D01*
D14*
X63136461Y-37783881D02*
G75*
G03X63136461Y-37783881I-700000J0D01*
G01*
X63136461Y-40833881D02*
G75*
G03X63136461Y-40833881I-700000J0D01*
G01*
D10*
X76446208Y-84642308D02*
X76446208Y-84356594D01*
X75846208Y-84356594D01*
X76446208Y-84928022D02*
X76417637Y-84870880D01*
X76389065Y-84842308D01*
X76331922Y-84813737D01*
X76160494Y-84813737D01*
X76103351Y-84842308D01*
X76074780Y-84870880D01*
X76046208Y-84928022D01*
X76046208Y-85013737D01*
X76074780Y-85070880D01*
X76103351Y-85099451D01*
X76160494Y-85128022D01*
X76331922Y-85128022D01*
X76389065Y-85099451D01*
X76417637Y-85070880D01*
X76446208Y-85013737D01*
X76446208Y-84928022D01*
X76046208Y-85642308D02*
X76531922Y-85642308D01*
X76589065Y-85613737D01*
X76617637Y-85585165D01*
X76646208Y-85528022D01*
X76646208Y-85442308D01*
X76617637Y-85385165D01*
X76417637Y-85642308D02*
X76446208Y-85585165D01*
X76446208Y-85470880D01*
X76417637Y-85413737D01*
X76389065Y-85385165D01*
X76331922Y-85356594D01*
X76160494Y-85356594D01*
X76103351Y-85385165D01*
X76074780Y-85413737D01*
X76046208Y-85470880D01*
X76046208Y-85585165D01*
X76074780Y-85642308D01*
X76446208Y-86013737D02*
X76417637Y-85956594D01*
X76389065Y-85928022D01*
X76331922Y-85899451D01*
X76160494Y-85899451D01*
X76103351Y-85928022D01*
X76074780Y-85956594D01*
X76046208Y-86013737D01*
X76046208Y-86099451D01*
X76074780Y-86156594D01*
X76103351Y-86185165D01*
X76160494Y-86213737D01*
X76331922Y-86213737D01*
X76389065Y-86185165D01*
X76417637Y-86156594D01*
X76446208Y-86099451D01*
X76446208Y-86013737D01*
M02*
