G04 #@! TF.GenerationSoftware,KiCad,Pcbnew,5.1.7-a382d34a8~87~ubuntu20.04.1*
G04 #@! TF.CreationDate,2020-11-19T15:04:14+01:00*
G04 #@! TF.ProjectId,bottom-board,626f7474-6f6d-42d6-926f-6172642e6b69,2.1*
G04 #@! TF.SameCoordinates,PX48111b4PY15fd6c8*
G04 #@! TF.FileFunction,Soldermask,Bot*
G04 #@! TF.FilePolarity,Negative*
%FSLAX46Y46*%
G04 Gerber Fmt 4.6, Leading zero omitted, Abs format (unit mm)*
G04 Created by KiCad (PCBNEW 5.1.7-a382d34a8~87~ubuntu20.04.1) date 2020-11-19 15:04:14*
%MOMM*%
%LPD*%
G01*
G04 APERTURE LIST*
%ADD10C,0.100000*%
%ADD11C,0.150000*%
%ADD12C,0.300000*%
%ADD13C,0.400000*%
%ADD14C,1.900000*%
%ADD15C,5.600000*%
%ADD16O,2.599360X1.601140*%
%ADD17O,1.827200X1.827200*%
%ADD18C,3.100000*%
%ADD19O,1.800000X1.800000*%
%ADD20C,1.800000*%
%ADD21C,3.600000*%
%ADD22C,1.720000*%
%ADD23C,1.950000*%
%ADD24C,1.600000*%
%ADD25C,3.350000*%
%ADD26C,2.100000*%
%ADD27C,2.400000*%
%ADD28C,0.700000*%
%ADD29C,1.100000*%
%ADD30C,6.100000*%
G04 APERTURE END LIST*
D10*
D11*
X101434660Y-142949080D02*
X101434660Y-174949080D01*
X209434660Y-174949080D01*
X209434660Y-142949080D01*
X101434660Y-142949080D01*
D10*
D11*
X-65567540Y13058120D02*
X-65567540Y-176949080D01*
X211434660Y-176949080D01*
X211434660Y13058120D01*
X-65567540Y13058120D01*
D10*
D11*
X-63567540Y11058120D02*
X-63567540Y-174949080D01*
X209434660Y-174949080D01*
X209434660Y11058120D01*
X-63567540Y11058120D01*
D10*
D11*
X-15567540Y11058120D02*
X-15567540Y13058120D01*
D10*
D11*
X34432460Y11058120D02*
X34432460Y13058120D01*
D10*
D11*
X84432460Y11058120D02*
X84432460Y13058120D01*
D10*
D11*
X134432460Y11058120D02*
X134432460Y13058120D01*
D10*
D11*
X184432460Y11058120D02*
X184432460Y13058120D01*
D10*
D11*
X-39502064Y11470025D02*
X-40244921Y11470025D01*
X-39873493Y11470025D02*
X-39873493Y12770025D01*
X-39997302Y12584311D01*
X-40121112Y12460501D01*
X-40244921Y12398597D01*
D10*
D11*
X9755079Y12646216D02*
X9816983Y12708120D01*
X9940793Y12770025D01*
X10250317Y12770025D01*
X10374126Y12708120D01*
X10436031Y12646216D01*
X10497936Y12522406D01*
X10497936Y12398597D01*
X10436031Y12212882D01*
X9693174Y11470025D01*
X10497936Y11470025D01*
D10*
D11*
X59693174Y12770025D02*
X60497936Y12770025D01*
X60064602Y12274787D01*
X60250317Y12274787D01*
X60374126Y12212882D01*
X60436031Y12150978D01*
X60497936Y12027168D01*
X60497936Y11717644D01*
X60436031Y11593835D01*
X60374126Y11531930D01*
X60250317Y11470025D01*
X59878888Y11470025D01*
X59755079Y11531930D01*
X59693174Y11593835D01*
D10*
D11*
X110374126Y12336692D02*
X110374126Y11470025D01*
X110064602Y12831930D02*
X109755079Y11903359D01*
X110559840Y11903359D01*
D10*
D11*
X160436031Y12770025D02*
X159816983Y12770025D01*
X159755079Y12150978D01*
X159816983Y12212882D01*
X159940793Y12274787D01*
X160250317Y12274787D01*
X160374126Y12212882D01*
X160436031Y12150978D01*
X160497936Y12027168D01*
X160497936Y11717644D01*
X160436031Y11593835D01*
X160374126Y11531930D01*
X160250317Y11470025D01*
X159940793Y11470025D01*
X159816983Y11531930D01*
X159755079Y11593835D01*
D10*
D11*
X210374126Y12770025D02*
X210126507Y12770025D01*
X210002698Y12708120D01*
X209940793Y12646216D01*
X209816983Y12460501D01*
X209755079Y12212882D01*
X209755079Y11717644D01*
X209816983Y11593835D01*
X209878888Y11531930D01*
X210002698Y11470025D01*
X210250317Y11470025D01*
X210374126Y11531930D01*
X210436031Y11593835D01*
X210497936Y11717644D01*
X210497936Y12027168D01*
X210436031Y12150978D01*
X210374126Y12212882D01*
X210250317Y12274787D01*
X210002698Y12274787D01*
X209878888Y12212882D01*
X209816983Y12150978D01*
X209755079Y12027168D01*
D10*
D11*
X-15567540Y-174949080D02*
X-15567540Y-176949080D01*
D10*
D11*
X34432460Y-174949080D02*
X34432460Y-176949080D01*
D10*
D11*
X84432460Y-174949080D02*
X84432460Y-176949080D01*
D10*
D11*
X134432460Y-174949080D02*
X134432460Y-176949080D01*
D10*
D11*
X184432460Y-174949080D02*
X184432460Y-176949080D01*
D10*
D11*
X-39502064Y-176537175D02*
X-40244921Y-176537175D01*
X-39873493Y-176537175D02*
X-39873493Y-175237175D01*
X-39997302Y-175422889D01*
X-40121112Y-175546699D01*
X-40244921Y-175608603D01*
D10*
D11*
X9755079Y-175360984D02*
X9816983Y-175299080D01*
X9940793Y-175237175D01*
X10250317Y-175237175D01*
X10374126Y-175299080D01*
X10436031Y-175360984D01*
X10497936Y-175484794D01*
X10497936Y-175608603D01*
X10436031Y-175794318D01*
X9693174Y-176537175D01*
X10497936Y-176537175D01*
D10*
D11*
X59693174Y-175237175D02*
X60497936Y-175237175D01*
X60064602Y-175732413D01*
X60250317Y-175732413D01*
X60374126Y-175794318D01*
X60436031Y-175856222D01*
X60497936Y-175980032D01*
X60497936Y-176289556D01*
X60436031Y-176413365D01*
X60374126Y-176475270D01*
X60250317Y-176537175D01*
X59878888Y-176537175D01*
X59755079Y-176475270D01*
X59693174Y-176413365D01*
D10*
D11*
X110374126Y-175670508D02*
X110374126Y-176537175D01*
X110064602Y-175175270D02*
X109755079Y-176103841D01*
X110559840Y-176103841D01*
D10*
D11*
X160436031Y-175237175D02*
X159816983Y-175237175D01*
X159755079Y-175856222D01*
X159816983Y-175794318D01*
X159940793Y-175732413D01*
X160250317Y-175732413D01*
X160374126Y-175794318D01*
X160436031Y-175856222D01*
X160497936Y-175980032D01*
X160497936Y-176289556D01*
X160436031Y-176413365D01*
X160374126Y-176475270D01*
X160250317Y-176537175D01*
X159940793Y-176537175D01*
X159816983Y-176475270D01*
X159755079Y-176413365D01*
D10*
D11*
X210374126Y-175237175D02*
X210126507Y-175237175D01*
X210002698Y-175299080D01*
X209940793Y-175360984D01*
X209816983Y-175546699D01*
X209755079Y-175794318D01*
X209755079Y-176289556D01*
X209816983Y-176413365D01*
X209878888Y-176475270D01*
X210002698Y-176537175D01*
X210250317Y-176537175D01*
X210374126Y-176475270D01*
X210436031Y-176413365D01*
X210497936Y-176289556D01*
X210497936Y-175980032D01*
X210436031Y-175856222D01*
X210374126Y-175794318D01*
X210250317Y-175732413D01*
X210002698Y-175732413D01*
X209878888Y-175794318D01*
X209816983Y-175856222D01*
X209755079Y-175980032D01*
D10*
D11*
X-65567540Y-36941880D02*
X-63567540Y-36941880D01*
D10*
D11*
X-65567540Y-86941880D02*
X-63567540Y-86941880D01*
D10*
D11*
X-65567540Y-136941880D02*
X-63567540Y-136941880D01*
D10*
D11*
X-64877064Y-12158546D02*
X-64258017Y-12158546D01*
X-65000874Y-12529975D02*
X-64567540Y-11229975D01*
X-64134207Y-12529975D01*
D10*
D11*
X-64474683Y-61849022D02*
X-64288969Y-61910927D01*
X-64227064Y-61972832D01*
X-64165160Y-62096641D01*
X-64165160Y-62282356D01*
X-64227064Y-62406165D01*
X-64288969Y-62468070D01*
X-64412779Y-62529975D01*
X-64908017Y-62529975D01*
X-64908017Y-61229975D01*
X-64474683Y-61229975D01*
X-64350874Y-61291880D01*
X-64288969Y-61353784D01*
X-64227064Y-61477594D01*
X-64227064Y-61601403D01*
X-64288969Y-61725213D01*
X-64350874Y-61787118D01*
X-64474683Y-61849022D01*
X-64908017Y-61849022D01*
D10*
D11*
X-64165160Y-112406165D02*
X-64227064Y-112468070D01*
X-64412779Y-112529975D01*
X-64536588Y-112529975D01*
X-64722302Y-112468070D01*
X-64846112Y-112344260D01*
X-64908017Y-112220451D01*
X-64969921Y-111972832D01*
X-64969921Y-111787118D01*
X-64908017Y-111539499D01*
X-64846112Y-111415689D01*
X-64722302Y-111291880D01*
X-64536588Y-111229975D01*
X-64412779Y-111229975D01*
X-64227064Y-111291880D01*
X-64165160Y-111353784D01*
D10*
D11*
X-64908017Y-162529975D02*
X-64908017Y-161229975D01*
X-64598493Y-161229975D01*
X-64412779Y-161291880D01*
X-64288969Y-161415689D01*
X-64227064Y-161539499D01*
X-64165160Y-161787118D01*
X-64165160Y-161972832D01*
X-64227064Y-162220451D01*
X-64288969Y-162344260D01*
X-64412779Y-162468070D01*
X-64598493Y-162529975D01*
X-64908017Y-162529975D01*
D10*
D11*
X211434660Y-36941880D02*
X209434660Y-36941880D01*
D10*
D11*
X211434660Y-86941880D02*
X209434660Y-86941880D01*
D10*
D11*
X211434660Y-136941880D02*
X209434660Y-136941880D01*
D10*
D11*
X210125136Y-12158546D02*
X210744183Y-12158546D01*
X210001326Y-12529975D02*
X210434660Y-11229975D01*
X210867993Y-12529975D01*
D10*
D11*
X210527517Y-61849022D02*
X210713231Y-61910927D01*
X210775136Y-61972832D01*
X210837040Y-62096641D01*
X210837040Y-62282356D01*
X210775136Y-62406165D01*
X210713231Y-62468070D01*
X210589421Y-62529975D01*
X210094183Y-62529975D01*
X210094183Y-61229975D01*
X210527517Y-61229975D01*
X210651326Y-61291880D01*
X210713231Y-61353784D01*
X210775136Y-61477594D01*
X210775136Y-61601403D01*
X210713231Y-61725213D01*
X210651326Y-61787118D01*
X210527517Y-61849022D01*
X210094183Y-61849022D01*
D10*
D11*
X210837040Y-112406165D02*
X210775136Y-112468070D01*
X210589421Y-112529975D01*
X210465612Y-112529975D01*
X210279898Y-112468070D01*
X210156088Y-112344260D01*
X210094183Y-112220451D01*
X210032279Y-111972832D01*
X210032279Y-111787118D01*
X210094183Y-111539499D01*
X210156088Y-111415689D01*
X210279898Y-111291880D01*
X210465612Y-111229975D01*
X210589421Y-111229975D01*
X210775136Y-111291880D01*
X210837040Y-111353784D01*
D10*
D11*
X210094183Y-162529975D02*
X210094183Y-161229975D01*
X210403707Y-161229975D01*
X210589421Y-161291880D01*
X210713231Y-161415689D01*
X210775136Y-161539499D01*
X210837040Y-161787118D01*
X210837040Y-161972832D01*
X210775136Y-162220451D01*
X210713231Y-162344260D01*
X210589421Y-162468070D01*
X210403707Y-162529975D01*
X210094183Y-162529975D01*
D10*
D11*
X124866802Y-170727651D02*
X124866802Y-169227651D01*
X125223945Y-169227651D01*
X125438231Y-169299080D01*
X125581088Y-169441937D01*
X125652517Y-169584794D01*
X125723945Y-169870508D01*
X125723945Y-170084794D01*
X125652517Y-170370508D01*
X125581088Y-170513365D01*
X125438231Y-170656222D01*
X125223945Y-170727651D01*
X124866802Y-170727651D01*
X127009660Y-170727651D02*
X127009660Y-169941937D01*
X126938231Y-169799080D01*
X126795374Y-169727651D01*
X126509660Y-169727651D01*
X126366802Y-169799080D01*
X127009660Y-170656222D02*
X126866802Y-170727651D01*
X126509660Y-170727651D01*
X126366802Y-170656222D01*
X126295374Y-170513365D01*
X126295374Y-170370508D01*
X126366802Y-170227651D01*
X126509660Y-170156222D01*
X126866802Y-170156222D01*
X127009660Y-170084794D01*
X127509660Y-169727651D02*
X128081088Y-169727651D01*
X127723945Y-169227651D02*
X127723945Y-170513365D01*
X127795374Y-170656222D01*
X127938231Y-170727651D01*
X128081088Y-170727651D01*
X129152517Y-170656222D02*
X129009660Y-170727651D01*
X128723945Y-170727651D01*
X128581088Y-170656222D01*
X128509660Y-170513365D01*
X128509660Y-169941937D01*
X128581088Y-169799080D01*
X128723945Y-169727651D01*
X129009660Y-169727651D01*
X129152517Y-169799080D01*
X129223945Y-169941937D01*
X129223945Y-170084794D01*
X128509660Y-170227651D01*
X129866802Y-170584794D02*
X129938231Y-170656222D01*
X129866802Y-170727651D01*
X129795374Y-170656222D01*
X129866802Y-170584794D01*
X129866802Y-170727651D01*
X129866802Y-169799080D02*
X129938231Y-169870508D01*
X129866802Y-169941937D01*
X129795374Y-169870508D01*
X129866802Y-169799080D01*
X129866802Y-169941937D01*
X131652517Y-169370508D02*
X131723945Y-169299080D01*
X131866802Y-169227651D01*
X132223945Y-169227651D01*
X132366802Y-169299080D01*
X132438231Y-169370508D01*
X132509660Y-169513365D01*
X132509660Y-169656222D01*
X132438231Y-169870508D01*
X131581088Y-170727651D01*
X132509660Y-170727651D01*
X133438231Y-169227651D02*
X133581088Y-169227651D01*
X133723945Y-169299080D01*
X133795374Y-169370508D01*
X133866802Y-169513365D01*
X133938231Y-169799080D01*
X133938231Y-170156222D01*
X133866802Y-170441937D01*
X133795374Y-170584794D01*
X133723945Y-170656222D01*
X133581088Y-170727651D01*
X133438231Y-170727651D01*
X133295374Y-170656222D01*
X133223945Y-170584794D01*
X133152517Y-170441937D01*
X133081088Y-170156222D01*
X133081088Y-169799080D01*
X133152517Y-169513365D01*
X133223945Y-169370508D01*
X133295374Y-169299080D01*
X133438231Y-169227651D01*
X134509660Y-169370508D02*
X134581088Y-169299080D01*
X134723945Y-169227651D01*
X135081088Y-169227651D01*
X135223945Y-169299080D01*
X135295374Y-169370508D01*
X135366802Y-169513365D01*
X135366802Y-169656222D01*
X135295374Y-169870508D01*
X134438231Y-170727651D01*
X135366802Y-170727651D01*
X136295374Y-169227651D02*
X136438231Y-169227651D01*
X136581088Y-169299080D01*
X136652517Y-169370508D01*
X136723945Y-169513365D01*
X136795374Y-169799080D01*
X136795374Y-170156222D01*
X136723945Y-170441937D01*
X136652517Y-170584794D01*
X136581088Y-170656222D01*
X136438231Y-170727651D01*
X136295374Y-170727651D01*
X136152517Y-170656222D01*
X136081088Y-170584794D01*
X136009660Y-170441937D01*
X135938231Y-170156222D01*
X135938231Y-169799080D01*
X136009660Y-169513365D01*
X136081088Y-169370508D01*
X136152517Y-169299080D01*
X136295374Y-169227651D01*
X137438231Y-170156222D02*
X138581088Y-170156222D01*
X139581088Y-169227651D02*
X139723945Y-169227651D01*
X139866802Y-169299080D01*
X139938231Y-169370508D01*
X140009660Y-169513365D01*
X140081088Y-169799080D01*
X140081088Y-170156222D01*
X140009660Y-170441937D01*
X139938231Y-170584794D01*
X139866802Y-170656222D01*
X139723945Y-170727651D01*
X139581088Y-170727651D01*
X139438231Y-170656222D01*
X139366802Y-170584794D01*
X139295374Y-170441937D01*
X139223945Y-170156222D01*
X139223945Y-169799080D01*
X139295374Y-169513365D01*
X139366802Y-169370508D01*
X139438231Y-169299080D01*
X139581088Y-169227651D01*
X140652517Y-169370508D02*
X140723945Y-169299080D01*
X140866802Y-169227651D01*
X141223945Y-169227651D01*
X141366802Y-169299080D01*
X141438231Y-169370508D01*
X141509660Y-169513365D01*
X141509660Y-169656222D01*
X141438231Y-169870508D01*
X140581088Y-170727651D01*
X141509660Y-170727651D01*
X142152517Y-170156222D02*
X143295374Y-170156222D01*
X144795374Y-170727651D02*
X143938231Y-170727651D01*
X144366802Y-170727651D02*
X144366802Y-169227651D01*
X144223945Y-169441937D01*
X144081088Y-169584794D01*
X143938231Y-169656222D01*
X145509660Y-170727651D02*
X145795374Y-170727651D01*
X145938231Y-170656222D01*
X146009660Y-170584794D01*
X146152517Y-170370508D01*
X146223945Y-170084794D01*
X146223945Y-169513365D01*
X146152517Y-169370508D01*
X146081088Y-169299080D01*
X145938231Y-169227651D01*
X145652517Y-169227651D01*
X145509660Y-169299080D01*
X145438231Y-169370508D01*
X145366802Y-169513365D01*
X145366802Y-169870508D01*
X145438231Y-170013365D01*
X145509660Y-170084794D01*
X145652517Y-170156222D01*
X145938231Y-170156222D01*
X146081088Y-170084794D01*
X146152517Y-170013365D01*
X146223945Y-169870508D01*
D10*
D11*
X101434660Y-171449080D02*
X209434660Y-171449080D01*
D10*
D11*
X102866802Y-173527651D02*
X102866802Y-172027651D01*
X103723945Y-173527651D02*
X103081088Y-172670508D01*
X103723945Y-172027651D02*
X102866802Y-172884794D01*
X104366802Y-173527651D02*
X104366802Y-172527651D01*
X104366802Y-172027651D02*
X104295374Y-172099080D01*
X104366802Y-172170508D01*
X104438231Y-172099080D01*
X104366802Y-172027651D01*
X104366802Y-172170508D01*
X105938231Y-173384794D02*
X105866802Y-173456222D01*
X105652517Y-173527651D01*
X105509660Y-173527651D01*
X105295374Y-173456222D01*
X105152517Y-173313365D01*
X105081088Y-173170508D01*
X105009660Y-172884794D01*
X105009660Y-172670508D01*
X105081088Y-172384794D01*
X105152517Y-172241937D01*
X105295374Y-172099080D01*
X105509660Y-172027651D01*
X105652517Y-172027651D01*
X105866802Y-172099080D01*
X105938231Y-172170508D01*
X107223945Y-173527651D02*
X107223945Y-172741937D01*
X107152517Y-172599080D01*
X107009660Y-172527651D01*
X106723945Y-172527651D01*
X106581088Y-172599080D01*
X107223945Y-173456222D02*
X107081088Y-173527651D01*
X106723945Y-173527651D01*
X106581088Y-173456222D01*
X106509660Y-173313365D01*
X106509660Y-173170508D01*
X106581088Y-173027651D01*
X106723945Y-172956222D01*
X107081088Y-172956222D01*
X107223945Y-172884794D01*
X108581088Y-173527651D02*
X108581088Y-172027651D01*
X108581088Y-173456222D02*
X108438231Y-173527651D01*
X108152517Y-173527651D01*
X108009660Y-173456222D01*
X107938231Y-173384794D01*
X107866802Y-173241937D01*
X107866802Y-172813365D01*
X107938231Y-172670508D01*
X108009660Y-172599080D01*
X108152517Y-172527651D01*
X108438231Y-172527651D01*
X108581088Y-172599080D01*
X110438231Y-172741937D02*
X110938231Y-172741937D01*
X111152517Y-173527651D02*
X110438231Y-173527651D01*
X110438231Y-172027651D01*
X111152517Y-172027651D01*
X111795374Y-173384794D02*
X111866802Y-173456222D01*
X111795374Y-173527651D01*
X111723945Y-173456222D01*
X111795374Y-173384794D01*
X111795374Y-173527651D01*
X112509660Y-173527651D02*
X112509660Y-172027651D01*
X112866802Y-172027651D01*
X113081088Y-172099080D01*
X113223945Y-172241937D01*
X113295374Y-172384794D01*
X113366802Y-172670508D01*
X113366802Y-172884794D01*
X113295374Y-173170508D01*
X113223945Y-173313365D01*
X113081088Y-173456222D01*
X112866802Y-173527651D01*
X112509660Y-173527651D01*
X114009660Y-173384794D02*
X114081088Y-173456222D01*
X114009660Y-173527651D01*
X113938231Y-173456222D01*
X114009660Y-173384794D01*
X114009660Y-173527651D01*
X114652517Y-173099080D02*
X115366802Y-173099080D01*
X114509660Y-173527651D02*
X115009660Y-172027651D01*
X115509660Y-173527651D01*
X116009660Y-173384794D02*
X116081088Y-173456222D01*
X116009660Y-173527651D01*
X115938231Y-173456222D01*
X116009660Y-173384794D01*
X116009660Y-173527651D01*
X119009660Y-173527651D02*
X119009660Y-172027651D01*
X119152517Y-172956222D02*
X119581088Y-173527651D01*
X119581088Y-172527651D02*
X119009660Y-173099080D01*
X120223945Y-173527651D02*
X120223945Y-172527651D01*
X120223945Y-172027651D02*
X120152517Y-172099080D01*
X120223945Y-172170508D01*
X120295374Y-172099080D01*
X120223945Y-172027651D01*
X120223945Y-172170508D01*
X121581088Y-173456222D02*
X121438231Y-173527651D01*
X121152517Y-173527651D01*
X121009660Y-173456222D01*
X120938231Y-173384794D01*
X120866802Y-173241937D01*
X120866802Y-172813365D01*
X120938231Y-172670508D01*
X121009660Y-172599080D01*
X121152517Y-172527651D01*
X121438231Y-172527651D01*
X121581088Y-172599080D01*
X122866802Y-173527651D02*
X122866802Y-172741937D01*
X122795374Y-172599080D01*
X122652517Y-172527651D01*
X122366802Y-172527651D01*
X122223945Y-172599080D01*
X122866802Y-173456222D02*
X122723945Y-173527651D01*
X122366802Y-173527651D01*
X122223945Y-173456222D01*
X122152517Y-173313365D01*
X122152517Y-173170508D01*
X122223945Y-173027651D01*
X122366802Y-172956222D01*
X122723945Y-172956222D01*
X122866802Y-172884794D01*
X124223945Y-173527651D02*
X124223945Y-172027651D01*
X124223945Y-173456222D02*
X124081088Y-173527651D01*
X123795374Y-173527651D01*
X123652517Y-173456222D01*
X123581088Y-173384794D01*
X123509660Y-173241937D01*
X123509660Y-172813365D01*
X123581088Y-172670508D01*
X123652517Y-172599080D01*
X123795374Y-172527651D01*
X124081088Y-172527651D01*
X124223945Y-172599080D01*
X126795374Y-172027651D02*
X126081088Y-172027651D01*
X126009660Y-172741937D01*
X126081088Y-172670508D01*
X126223945Y-172599080D01*
X126581088Y-172599080D01*
X126723945Y-172670508D01*
X126795374Y-172741937D01*
X126866802Y-172884794D01*
X126866802Y-173241937D01*
X126795374Y-173384794D01*
X126723945Y-173456222D01*
X126581088Y-173527651D01*
X126223945Y-173527651D01*
X126081088Y-173456222D01*
X126009660Y-173384794D01*
X127509660Y-173384794D02*
X127581088Y-173456222D01*
X127509660Y-173527651D01*
X127438231Y-173456222D01*
X127509660Y-173384794D01*
X127509660Y-173527651D01*
X129009660Y-173527651D02*
X128152517Y-173527651D01*
X128581088Y-173527651D02*
X128581088Y-172027651D01*
X128438231Y-172241937D01*
X128295374Y-172384794D01*
X128152517Y-172456222D01*
X129652517Y-173384794D02*
X129723945Y-173456222D01*
X129652517Y-173527651D01*
X129581088Y-173456222D01*
X129652517Y-173384794D01*
X129652517Y-173527651D01*
X130223945Y-172027651D02*
X131223945Y-172027651D01*
X130581088Y-173527651D01*
X131795374Y-172956222D02*
X132938231Y-172956222D01*
X134295374Y-173527651D02*
X134295374Y-172741937D01*
X134223945Y-172599080D01*
X134081088Y-172527651D01*
X133795374Y-172527651D01*
X133652517Y-172599080D01*
X134295374Y-173456222D02*
X134152517Y-173527651D01*
X133795374Y-173527651D01*
X133652517Y-173456222D01*
X133581088Y-173313365D01*
X133581088Y-173170508D01*
X133652517Y-173027651D01*
X133795374Y-172956222D01*
X134152517Y-172956222D01*
X134295374Y-172884794D01*
X134866802Y-172027651D02*
X135795374Y-172027651D01*
X135295374Y-172599080D01*
X135509660Y-172599080D01*
X135652517Y-172670508D01*
X135723945Y-172741937D01*
X135795374Y-172884794D01*
X135795374Y-173241937D01*
X135723945Y-173384794D01*
X135652517Y-173456222D01*
X135509660Y-173527651D01*
X135081088Y-173527651D01*
X134938231Y-173456222D01*
X134866802Y-173384794D01*
X136652517Y-172670508D02*
X136509660Y-172599080D01*
X136438231Y-172527651D01*
X136366802Y-172384794D01*
X136366802Y-172313365D01*
X136438231Y-172170508D01*
X136509660Y-172099080D01*
X136652517Y-172027651D01*
X136938231Y-172027651D01*
X137081088Y-172099080D01*
X137152517Y-172170508D01*
X137223945Y-172313365D01*
X137223945Y-172384794D01*
X137152517Y-172527651D01*
X137081088Y-172599080D01*
X136938231Y-172670508D01*
X136652517Y-172670508D01*
X136509660Y-172741937D01*
X136438231Y-172813365D01*
X136366802Y-172956222D01*
X136366802Y-173241937D01*
X136438231Y-173384794D01*
X136509660Y-173456222D01*
X136652517Y-173527651D01*
X136938231Y-173527651D01*
X137081088Y-173456222D01*
X137152517Y-173384794D01*
X137223945Y-173241937D01*
X137223945Y-172956222D01*
X137152517Y-172813365D01*
X137081088Y-172741937D01*
X136938231Y-172670508D01*
X137795374Y-172170508D02*
X137866802Y-172099080D01*
X138009660Y-172027651D01*
X138366802Y-172027651D01*
X138509660Y-172099080D01*
X138581088Y-172170508D01*
X138652517Y-172313365D01*
X138652517Y-172456222D01*
X138581088Y-172670508D01*
X137723945Y-173527651D01*
X138652517Y-173527651D01*
X139938231Y-173527651D02*
X139938231Y-172027651D01*
X139938231Y-173456222D02*
X139795374Y-173527651D01*
X139509660Y-173527651D01*
X139366802Y-173456222D01*
X139295374Y-173384794D01*
X139223945Y-173241937D01*
X139223945Y-172813365D01*
X139295374Y-172670508D01*
X139366802Y-172599080D01*
X139509660Y-172527651D01*
X139795374Y-172527651D01*
X139938231Y-172599080D01*
X140509660Y-172027651D02*
X141438231Y-172027651D01*
X140938231Y-172599080D01*
X141152517Y-172599080D01*
X141295374Y-172670508D01*
X141366802Y-172741937D01*
X141438231Y-172884794D01*
X141438231Y-173241937D01*
X141366802Y-173384794D01*
X141295374Y-173456222D01*
X141152517Y-173527651D01*
X140723945Y-173527651D01*
X140581088Y-173456222D01*
X140509660Y-173384794D01*
X142723945Y-172527651D02*
X142723945Y-173527651D01*
X142366802Y-171956222D02*
X142009660Y-173027651D01*
X142938231Y-173027651D01*
X144152517Y-173527651D02*
X144152517Y-172741937D01*
X144081088Y-172599080D01*
X143938231Y-172527651D01*
X143652517Y-172527651D01*
X143509660Y-172599080D01*
X144152517Y-173456222D02*
X144009660Y-173527651D01*
X143652517Y-173527651D01*
X143509660Y-173456222D01*
X143438231Y-173313365D01*
X143438231Y-173170508D01*
X143509660Y-173027651D01*
X143652517Y-172956222D01*
X144009660Y-172956222D01*
X144152517Y-172884794D01*
X145081088Y-172670508D02*
X144938231Y-172599080D01*
X144866802Y-172527651D01*
X144795374Y-172384794D01*
X144795374Y-172313365D01*
X144866802Y-172170508D01*
X144938231Y-172099080D01*
X145081088Y-172027651D01*
X145366802Y-172027651D01*
X145509660Y-172099080D01*
X145581088Y-172170508D01*
X145652517Y-172313365D01*
X145652517Y-172384794D01*
X145581088Y-172527651D01*
X145509660Y-172599080D01*
X145366802Y-172670508D01*
X145081088Y-172670508D01*
X144938231Y-172741937D01*
X144866802Y-172813365D01*
X144795374Y-172956222D01*
X144795374Y-173241937D01*
X144866802Y-173384794D01*
X144938231Y-173456222D01*
X145081088Y-173527651D01*
X145366802Y-173527651D01*
X145509660Y-173456222D01*
X145581088Y-173384794D01*
X145652517Y-173241937D01*
X145652517Y-172956222D01*
X145581088Y-172813365D01*
X145509660Y-172741937D01*
X145366802Y-172670508D01*
X145938231Y-171619080D02*
X147366802Y-171619080D01*
X146509660Y-172670508D02*
X146366802Y-172599080D01*
X146295374Y-172527651D01*
X146223945Y-172384794D01*
X146223945Y-172313365D01*
X146295374Y-172170508D01*
X146366802Y-172099080D01*
X146509660Y-172027651D01*
X146795374Y-172027651D01*
X146938231Y-172099080D01*
X147009660Y-172170508D01*
X147081088Y-172313365D01*
X147081088Y-172384794D01*
X147009660Y-172527651D01*
X146938231Y-172599080D01*
X146795374Y-172670508D01*
X146509660Y-172670508D01*
X146366802Y-172741937D01*
X146295374Y-172813365D01*
X146223945Y-172956222D01*
X146223945Y-173241937D01*
X146295374Y-173384794D01*
X146366802Y-173456222D01*
X146509660Y-173527651D01*
X146795374Y-173527651D01*
X146938231Y-173456222D01*
X147009660Y-173384794D01*
X147081088Y-173241937D01*
X147081088Y-172956222D01*
X147009660Y-172813365D01*
X146938231Y-172741937D01*
X146795374Y-172670508D01*
X147366802Y-171619080D02*
X148795374Y-171619080D01*
X147581088Y-172027651D02*
X148581088Y-172027651D01*
X147938231Y-173527651D01*
X149795374Y-172527651D02*
X149795374Y-173527651D01*
X149152517Y-172527651D02*
X149152517Y-173313365D01*
X149223945Y-173456222D01*
X149366802Y-173527651D01*
X149581088Y-173527651D01*
X149723945Y-173456222D01*
X149795374Y-173384794D01*
X150509659Y-173527651D02*
X150509659Y-172027651D01*
X150509659Y-172599080D02*
X150652517Y-172527651D01*
X150938231Y-172527651D01*
X151081088Y-172599080D01*
X151152517Y-172670508D01*
X151223945Y-172813365D01*
X151223945Y-173241937D01*
X151152517Y-173384794D01*
X151081088Y-173456222D01*
X150938231Y-173527651D01*
X150652517Y-173527651D01*
X150509659Y-173456222D01*
X152509659Y-172527651D02*
X152509659Y-173527651D01*
X151866802Y-172527651D02*
X151866802Y-173313365D01*
X151938231Y-173456222D01*
X152081088Y-173527651D01*
X152295374Y-173527651D01*
X152438231Y-173456222D01*
X152509659Y-173384794D01*
X153223945Y-172527651D02*
X153223945Y-173527651D01*
X153223945Y-172670508D02*
X153295374Y-172599080D01*
X153438231Y-172527651D01*
X153652517Y-172527651D01*
X153795374Y-172599080D01*
X153866802Y-172741937D01*
X153866802Y-173527651D01*
X154366802Y-172527651D02*
X154938231Y-172527651D01*
X154581088Y-172027651D02*
X154581088Y-173313365D01*
X154652517Y-173456222D01*
X154795374Y-173527651D01*
X154938231Y-173527651D01*
X156081088Y-172527651D02*
X156081088Y-173527651D01*
X155438231Y-172527651D02*
X155438231Y-173313365D01*
X155509659Y-173456222D01*
X155652517Y-173527651D01*
X155866802Y-173527651D01*
X156009659Y-173456222D01*
X156081088Y-173384794D01*
X156723945Y-172170508D02*
X156795374Y-172099080D01*
X156938231Y-172027651D01*
X157295374Y-172027651D01*
X157438231Y-172099080D01*
X157509660Y-172170508D01*
X157581088Y-172313365D01*
X157581088Y-172456222D01*
X157509660Y-172670508D01*
X156652517Y-173527651D01*
X157581088Y-173527651D01*
X158509659Y-172027651D02*
X158652517Y-172027651D01*
X158795374Y-172099080D01*
X158866802Y-172170508D01*
X158938231Y-172313365D01*
X159009659Y-172599080D01*
X159009659Y-172956222D01*
X158938231Y-173241937D01*
X158866802Y-173384794D01*
X158795374Y-173456222D01*
X158652517Y-173527651D01*
X158509659Y-173527651D01*
X158366802Y-173456222D01*
X158295374Y-173384794D01*
X158223945Y-173241937D01*
X158152517Y-172956222D01*
X158152517Y-172599080D01*
X158223945Y-172313365D01*
X158295374Y-172170508D01*
X158366802Y-172099080D01*
X158509659Y-172027651D01*
X159652517Y-173384794D02*
X159723945Y-173456222D01*
X159652517Y-173527651D01*
X159581088Y-173456222D01*
X159652517Y-173384794D01*
X159652517Y-173527651D01*
X160652517Y-172027651D02*
X160795374Y-172027651D01*
X160938231Y-172099080D01*
X161009659Y-172170508D01*
X161081088Y-172313365D01*
X161152517Y-172599080D01*
X161152517Y-172956222D01*
X161081088Y-173241937D01*
X161009659Y-173384794D01*
X160938231Y-173456222D01*
X160795374Y-173527651D01*
X160652517Y-173527651D01*
X160509659Y-173456222D01*
X160438231Y-173384794D01*
X160366802Y-173241937D01*
X160295374Y-172956222D01*
X160295374Y-172599080D01*
X160366802Y-172313365D01*
X160438231Y-172170508D01*
X160509659Y-172099080D01*
X160652517Y-172027651D01*
X162438231Y-172527651D02*
X162438231Y-173527651D01*
X162081088Y-171956222D02*
X161723945Y-173027651D01*
X162652517Y-173027651D01*
X163223945Y-173384794D02*
X163295374Y-173456222D01*
X163223945Y-173527651D01*
X163152517Y-173456222D01*
X163223945Y-173384794D01*
X163223945Y-173527651D01*
X164723945Y-173527651D02*
X163866802Y-173527651D01*
X164295374Y-173527651D02*
X164295374Y-172027651D01*
X164152517Y-172241937D01*
X164009659Y-172384794D01*
X163866802Y-172456222D01*
D10*
D11*
X101434660Y-168449080D02*
X209434660Y-168449080D01*
D10*
D12*
X188843945Y-170727651D02*
X188343945Y-170013365D01*
X187986802Y-170727651D02*
X187986802Y-169227651D01*
X188558231Y-169227651D01*
X188701088Y-169299080D01*
X188772517Y-169370508D01*
X188843945Y-169513365D01*
X188843945Y-169727651D01*
X188772517Y-169870508D01*
X188701088Y-169941937D01*
X188558231Y-170013365D01*
X187986802Y-170013365D01*
X190058231Y-170656222D02*
X189915374Y-170727651D01*
X189629660Y-170727651D01*
X189486802Y-170656222D01*
X189415374Y-170513365D01*
X189415374Y-169941937D01*
X189486802Y-169799080D01*
X189629660Y-169727651D01*
X189915374Y-169727651D01*
X190058231Y-169799080D01*
X190129660Y-169941937D01*
X190129660Y-170084794D01*
X189415374Y-170227651D01*
X190629660Y-169727651D02*
X190986802Y-170727651D01*
X191343945Y-169727651D01*
X191915374Y-170584794D02*
X191986802Y-170656222D01*
X191915374Y-170727651D01*
X191843945Y-170656222D01*
X191915374Y-170584794D01*
X191915374Y-170727651D01*
X191915374Y-169799080D02*
X191986802Y-169870508D01*
X191915374Y-169941937D01*
X191843945Y-169870508D01*
X191915374Y-169799080D01*
X191915374Y-169941937D01*
X193701088Y-169370508D02*
X193772517Y-169299080D01*
X193915374Y-169227651D01*
X194272517Y-169227651D01*
X194415374Y-169299080D01*
X194486802Y-169370508D01*
X194558231Y-169513365D01*
X194558231Y-169656222D01*
X194486802Y-169870508D01*
X193629660Y-170727651D01*
X194558231Y-170727651D01*
X195201088Y-170584794D02*
X195272517Y-170656222D01*
X195201088Y-170727651D01*
X195129660Y-170656222D01*
X195201088Y-170584794D01*
X195201088Y-170727651D01*
X196701088Y-170727651D02*
X195843945Y-170727651D01*
X196272517Y-170727651D02*
X196272517Y-169227651D01*
X196129660Y-169441937D01*
X195986802Y-169584794D01*
X195843945Y-169656222D01*
D10*
D11*
X102795374Y-170656222D02*
X103009660Y-170727651D01*
X103366802Y-170727651D01*
X103509660Y-170656222D01*
X103581088Y-170584794D01*
X103652517Y-170441937D01*
X103652517Y-170299080D01*
X103581088Y-170156222D01*
X103509660Y-170084794D01*
X103366802Y-170013365D01*
X103081088Y-169941937D01*
X102938231Y-169870508D01*
X102866802Y-169799080D01*
X102795374Y-169656222D01*
X102795374Y-169513365D01*
X102866802Y-169370508D01*
X102938231Y-169299080D01*
X103081088Y-169227651D01*
X103438231Y-169227651D01*
X103652517Y-169299080D01*
X104295374Y-170727651D02*
X104295374Y-169727651D01*
X104295374Y-169227651D02*
X104223945Y-169299080D01*
X104295374Y-169370508D01*
X104366802Y-169299080D01*
X104295374Y-169227651D01*
X104295374Y-169370508D01*
X104866802Y-169727651D02*
X105652517Y-169727651D01*
X104866802Y-170727651D01*
X105652517Y-170727651D01*
X106795374Y-170656222D02*
X106652517Y-170727651D01*
X106366802Y-170727651D01*
X106223945Y-170656222D01*
X106152517Y-170513365D01*
X106152517Y-169941937D01*
X106223945Y-169799080D01*
X106366802Y-169727651D01*
X106652517Y-169727651D01*
X106795374Y-169799080D01*
X106866802Y-169941937D01*
X106866802Y-170084794D01*
X106152517Y-170227651D01*
X107509660Y-170584794D02*
X107581088Y-170656222D01*
X107509660Y-170727651D01*
X107438231Y-170656222D01*
X107509660Y-170584794D01*
X107509660Y-170727651D01*
X107509660Y-169799080D02*
X107581088Y-169870508D01*
X107509660Y-169941937D01*
X107438231Y-169870508D01*
X107509660Y-169799080D01*
X107509660Y-169941937D01*
X109295374Y-170299080D02*
X110009660Y-170299080D01*
X109152517Y-170727651D02*
X109652517Y-169227651D01*
X110152517Y-170727651D01*
X111295374Y-169727651D02*
X111295374Y-170727651D01*
X110938231Y-169156222D02*
X110581088Y-170227651D01*
X111509660Y-170227651D01*
D10*
D11*
X187866802Y-173527651D02*
X187866802Y-172027651D01*
X189223945Y-173527651D02*
X189223945Y-172027651D01*
X189223945Y-173456222D02*
X189081088Y-173527651D01*
X188795374Y-173527651D01*
X188652517Y-173456222D01*
X188581088Y-173384794D01*
X188509660Y-173241937D01*
X188509660Y-172813365D01*
X188581088Y-172670508D01*
X188652517Y-172599080D01*
X188795374Y-172527651D01*
X189081088Y-172527651D01*
X189223945Y-172599080D01*
X189938231Y-173384794D02*
X190009660Y-173456222D01*
X189938231Y-173527651D01*
X189866802Y-173456222D01*
X189938231Y-173384794D01*
X189938231Y-173527651D01*
X189938231Y-172599080D02*
X190009660Y-172670508D01*
X189938231Y-172741937D01*
X189866802Y-172670508D01*
X189938231Y-172599080D01*
X189938231Y-172741937D01*
X192581088Y-173527651D02*
X191723945Y-173527651D01*
X192152517Y-173527651D02*
X192152517Y-172027651D01*
X192009660Y-172241937D01*
X191866802Y-172384794D01*
X191723945Y-172456222D01*
X194295374Y-171956222D02*
X193009660Y-173884794D01*
X195581088Y-173527651D02*
X194723945Y-173527651D01*
X195152517Y-173527651D02*
X195152517Y-172027651D01*
X195009660Y-172241937D01*
X194866802Y-172384794D01*
X194723945Y-172456222D01*
D10*
D11*
X101434660Y-164449080D02*
X209434660Y-164449080D01*
D10*
D13*
X103147040Y-165153841D02*
X104289898Y-165153841D01*
X103468469Y-167153841D02*
X103718469Y-165153841D01*
X104706564Y-167153841D02*
X104873231Y-165820508D01*
X104956564Y-165153841D02*
X104849421Y-165249080D01*
X104932755Y-165344318D01*
X105039898Y-165249080D01*
X104956564Y-165153841D01*
X104932755Y-165344318D01*
X105539898Y-165820508D02*
X106301802Y-165820508D01*
X105908945Y-165153841D02*
X105694660Y-166868127D01*
X105766088Y-167058603D01*
X105944660Y-167153841D01*
X106135136Y-167153841D01*
X107087517Y-167153841D02*
X106908945Y-167058603D01*
X106837517Y-166868127D01*
X107051802Y-165153841D01*
X108623231Y-167058603D02*
X108420850Y-167153841D01*
X108039898Y-167153841D01*
X107861326Y-167058603D01*
X107789898Y-166868127D01*
X107885136Y-166106222D01*
X108004183Y-165915746D01*
X108206564Y-165820508D01*
X108587517Y-165820508D01*
X108766088Y-165915746D01*
X108837517Y-166106222D01*
X108813707Y-166296699D01*
X107837517Y-166487175D01*
X109587517Y-166963365D02*
X109670850Y-167058603D01*
X109563707Y-167153841D01*
X109480374Y-167058603D01*
X109587517Y-166963365D01*
X109563707Y-167153841D01*
X109718469Y-165915746D02*
X109801802Y-166010984D01*
X109694660Y-166106222D01*
X109611326Y-166010984D01*
X109718469Y-165915746D01*
X109694660Y-166106222D01*
X112039898Y-167153841D02*
X112289898Y-165153841D01*
X112777993Y-166582413D01*
X113623231Y-165153841D01*
X113373231Y-167153841D01*
X114956564Y-165153841D02*
X115337517Y-165153841D01*
X115516088Y-165249080D01*
X115682755Y-165439556D01*
X115730374Y-165820508D01*
X115647040Y-166487175D01*
X115504183Y-166868127D01*
X115289898Y-167058603D01*
X115087517Y-167153841D01*
X114706564Y-167153841D01*
X114527993Y-167058603D01*
X114361326Y-166868127D01*
X114313707Y-166487175D01*
X114397040Y-165820508D01*
X114539898Y-165439556D01*
X114754183Y-165249080D01*
X114956564Y-165153841D01*
X116420850Y-167153841D02*
X116670850Y-165153841D01*
X117147040Y-165153841D01*
X117420850Y-165249080D01*
X117587517Y-165439556D01*
X117658945Y-165630032D01*
X117706564Y-166010984D01*
X117670850Y-166296699D01*
X117527993Y-166677651D01*
X117408945Y-166868127D01*
X117194660Y-167058603D01*
X116897040Y-167153841D01*
X116420850Y-167153841D01*
X119944660Y-167153841D02*
X120194660Y-165153841D01*
X120670850Y-165153841D01*
X120944660Y-165249080D01*
X121111326Y-165439556D01*
X121182755Y-165630032D01*
X121230374Y-166010984D01*
X121194660Y-166296699D01*
X121051802Y-166677651D01*
X120932755Y-166868127D01*
X120718469Y-167058603D01*
X120420850Y-167153841D01*
X119944660Y-167153841D01*
X122968469Y-165820508D02*
X122801802Y-167153841D01*
X122111326Y-165820508D02*
X121980374Y-166868127D01*
X122051802Y-167058603D01*
X122230374Y-167153841D01*
X122516088Y-167153841D01*
X122718469Y-167058603D01*
X122825612Y-166963365D01*
X124039898Y-167153841D02*
X123861326Y-167058603D01*
X123777993Y-166963365D01*
X123706564Y-166772889D01*
X123777993Y-166201460D01*
X123897040Y-166010984D01*
X124004183Y-165915746D01*
X124206564Y-165820508D01*
X124492279Y-165820508D01*
X124670850Y-165915746D01*
X124754183Y-166010984D01*
X124825612Y-166201460D01*
X124754183Y-166772889D01*
X124635136Y-166963365D01*
X124527993Y-167058603D01*
X124325612Y-167153841D01*
X124039898Y-167153841D01*
X125623231Y-165153841D02*
X126706564Y-167153841D01*
X126956564Y-165153841D02*
X125373231Y-167153841D01*
X129087517Y-166391937D02*
X130611326Y-166391937D01*
X132992279Y-167153841D02*
X133242279Y-165153841D01*
X133147040Y-165915746D02*
X133349421Y-165820508D01*
X133730374Y-165820508D01*
X133908945Y-165915746D01*
X133992279Y-166010984D01*
X134063707Y-166201460D01*
X133992279Y-166772889D01*
X133873231Y-166963365D01*
X133766088Y-167058603D01*
X133563707Y-167153841D01*
X133182755Y-167153841D01*
X133004183Y-167058603D01*
X135087517Y-167153841D02*
X134908945Y-167058603D01*
X134825612Y-166963365D01*
X134754183Y-166772889D01*
X134825612Y-166201460D01*
X134944660Y-166010984D01*
X135051802Y-165915746D01*
X135254183Y-165820508D01*
X135539898Y-165820508D01*
X135718469Y-165915746D01*
X135801802Y-166010984D01*
X135873231Y-166201460D01*
X135801802Y-166772889D01*
X135682755Y-166963365D01*
X135575612Y-167058603D01*
X135373231Y-167153841D01*
X135087517Y-167153841D01*
X136492279Y-165820508D02*
X137254183Y-165820508D01*
X136861326Y-165153841D02*
X136647040Y-166868127D01*
X136718469Y-167058603D01*
X136897040Y-167153841D01*
X137087517Y-167153841D01*
X137635136Y-165820508D02*
X138397040Y-165820508D01*
X138004183Y-165153841D02*
X137789898Y-166868127D01*
X137861326Y-167058603D01*
X138039898Y-167153841D01*
X138230374Y-167153841D01*
X139182755Y-167153841D02*
X139004183Y-167058603D01*
X138920850Y-166963365D01*
X138849421Y-166772889D01*
X138920850Y-166201460D01*
X139039898Y-166010984D01*
X139147040Y-165915746D01*
X139349421Y-165820508D01*
X139635136Y-165820508D01*
X139813707Y-165915746D01*
X139897040Y-166010984D01*
X139968469Y-166201460D01*
X139897040Y-166772889D01*
X139777993Y-166963365D01*
X139670850Y-167058603D01*
X139468469Y-167153841D01*
X139182755Y-167153841D01*
X140706564Y-167153841D02*
X140873231Y-165820508D01*
X140849421Y-166010984D02*
X140956564Y-165915746D01*
X141158945Y-165820508D01*
X141444660Y-165820508D01*
X141623231Y-165915746D01*
X141694660Y-166106222D01*
X141563707Y-167153841D01*
X141694660Y-166106222D02*
X141813707Y-165915746D01*
X142016088Y-165820508D01*
X142301802Y-165820508D01*
X142480374Y-165915746D01*
X142551802Y-166106222D01*
X142420850Y-167153841D01*
X143373231Y-167153841D02*
X143623231Y-165153841D01*
X143527993Y-165915746D02*
X143730374Y-165820508D01*
X144111326Y-165820508D01*
X144289898Y-165915746D01*
X144373231Y-166010984D01*
X144444660Y-166201460D01*
X144373231Y-166772889D01*
X144254183Y-166963365D01*
X144147040Y-167058603D01*
X143944660Y-167153841D01*
X143563707Y-167153841D01*
X143385136Y-167058603D01*
X145468469Y-167153841D02*
X145289898Y-167058603D01*
X145206564Y-166963365D01*
X145135136Y-166772889D01*
X145206564Y-166201460D01*
X145325612Y-166010984D01*
X145432755Y-165915746D01*
X145635136Y-165820508D01*
X145920850Y-165820508D01*
X146099421Y-165915746D01*
X146182755Y-166010984D01*
X146254183Y-166201460D01*
X146182755Y-166772889D01*
X146063707Y-166963365D01*
X145956564Y-167058603D01*
X145754183Y-167153841D01*
X145468469Y-167153841D01*
X147849421Y-167153841D02*
X147980374Y-166106222D01*
X147908945Y-165915746D01*
X147730374Y-165820508D01*
X147349421Y-165820508D01*
X147147040Y-165915746D01*
X147861326Y-167058603D02*
X147658945Y-167153841D01*
X147182755Y-167153841D01*
X147004183Y-167058603D01*
X146932755Y-166868127D01*
X146956564Y-166677651D01*
X147075612Y-166487175D01*
X147277993Y-166391937D01*
X147754183Y-166391937D01*
X147956564Y-166296699D01*
X148801802Y-167153841D02*
X148968469Y-165820508D01*
X148920850Y-166201460D02*
X149039898Y-166010984D01*
X149147040Y-165915746D01*
X149349421Y-165820508D01*
X149539898Y-165820508D01*
X150897040Y-167153841D02*
X151147040Y-165153841D01*
X150908945Y-167058603D02*
X150706564Y-167153841D01*
X150325612Y-167153841D01*
X150147040Y-167058603D01*
X150063707Y-166963365D01*
X149992279Y-166772889D01*
X150063707Y-166201460D01*
X150182755Y-166010984D01*
X150289898Y-165915746D01*
X150492279Y-165820508D01*
X150873231Y-165820508D01*
X151051802Y-165915746D01*
D10*
D11*
X103366802Y-162541937D02*
X102866802Y-162541937D01*
X102866802Y-163327651D02*
X102866802Y-161827651D01*
X103581088Y-161827651D01*
X104152517Y-163327651D02*
X104152517Y-162327651D01*
X104152517Y-161827651D02*
X104081088Y-161899080D01*
X104152517Y-161970508D01*
X104223945Y-161899080D01*
X104152517Y-161827651D01*
X104152517Y-161970508D01*
X105081088Y-163327651D02*
X104938231Y-163256222D01*
X104866802Y-163113365D01*
X104866802Y-161827651D01*
X106223945Y-163256222D02*
X106081088Y-163327651D01*
X105795374Y-163327651D01*
X105652517Y-163256222D01*
X105581088Y-163113365D01*
X105581088Y-162541937D01*
X105652517Y-162399080D01*
X105795374Y-162327651D01*
X106081088Y-162327651D01*
X106223945Y-162399080D01*
X106295374Y-162541937D01*
X106295374Y-162684794D01*
X105581088Y-162827651D01*
X106938231Y-163184794D02*
X107009660Y-163256222D01*
X106938231Y-163327651D01*
X106866802Y-163256222D01*
X106938231Y-163184794D01*
X106938231Y-163327651D01*
X106938231Y-162399080D02*
X107009660Y-162470508D01*
X106938231Y-162541937D01*
X106866802Y-162470508D01*
X106938231Y-162399080D01*
X106938231Y-162541937D01*
X108795374Y-163327651D02*
X108795374Y-161827651D01*
X108795374Y-162399080D02*
X108938231Y-162327651D01*
X109223945Y-162327651D01*
X109366802Y-162399080D01*
X109438231Y-162470508D01*
X109509660Y-162613365D01*
X109509660Y-163041937D01*
X109438231Y-163184794D01*
X109366802Y-163256222D01*
X109223945Y-163327651D01*
X108938231Y-163327651D01*
X108795374Y-163256222D01*
X110366802Y-163327651D02*
X110223945Y-163256222D01*
X110152517Y-163184794D01*
X110081088Y-163041937D01*
X110081088Y-162613365D01*
X110152517Y-162470508D01*
X110223945Y-162399080D01*
X110366802Y-162327651D01*
X110581088Y-162327651D01*
X110723945Y-162399080D01*
X110795374Y-162470508D01*
X110866802Y-162613365D01*
X110866802Y-163041937D01*
X110795374Y-163184794D01*
X110723945Y-163256222D01*
X110581088Y-163327651D01*
X110366802Y-163327651D01*
X111295374Y-162327651D02*
X111866802Y-162327651D01*
X111509660Y-161827651D02*
X111509660Y-163113365D01*
X111581088Y-163256222D01*
X111723945Y-163327651D01*
X111866802Y-163327651D01*
X112152517Y-162327651D02*
X112723945Y-162327651D01*
X112366802Y-161827651D02*
X112366802Y-163113365D01*
X112438231Y-163256222D01*
X112581088Y-163327651D01*
X112723945Y-163327651D01*
X113438231Y-163327651D02*
X113295374Y-163256222D01*
X113223945Y-163184794D01*
X113152517Y-163041937D01*
X113152517Y-162613365D01*
X113223945Y-162470508D01*
X113295374Y-162399080D01*
X113438231Y-162327651D01*
X113652517Y-162327651D01*
X113795374Y-162399080D01*
X113866802Y-162470508D01*
X113938231Y-162613365D01*
X113938231Y-163041937D01*
X113866802Y-163184794D01*
X113795374Y-163256222D01*
X113652517Y-163327651D01*
X113438231Y-163327651D01*
X114581088Y-163327651D02*
X114581088Y-162327651D01*
X114581088Y-162470508D02*
X114652517Y-162399080D01*
X114795374Y-162327651D01*
X115009660Y-162327651D01*
X115152517Y-162399080D01*
X115223945Y-162541937D01*
X115223945Y-163327651D01*
X115223945Y-162541937D02*
X115295374Y-162399080D01*
X115438231Y-162327651D01*
X115652517Y-162327651D01*
X115795374Y-162399080D01*
X115866802Y-162541937D01*
X115866802Y-163327651D01*
X116581088Y-162756222D02*
X117723945Y-162756222D01*
X118438231Y-163327651D02*
X118438231Y-161827651D01*
X118438231Y-162399080D02*
X118581088Y-162327651D01*
X118866802Y-162327651D01*
X119009660Y-162399080D01*
X119081088Y-162470508D01*
X119152517Y-162613365D01*
X119152517Y-163041937D01*
X119081088Y-163184794D01*
X119009660Y-163256222D01*
X118866802Y-163327651D01*
X118581088Y-163327651D01*
X118438231Y-163256222D01*
X120009660Y-163327651D02*
X119866802Y-163256222D01*
X119795374Y-163184794D01*
X119723945Y-163041937D01*
X119723945Y-162613365D01*
X119795374Y-162470508D01*
X119866802Y-162399080D01*
X120009660Y-162327651D01*
X120223945Y-162327651D01*
X120366802Y-162399080D01*
X120438231Y-162470508D01*
X120509660Y-162613365D01*
X120509660Y-163041937D01*
X120438231Y-163184794D01*
X120366802Y-163256222D01*
X120223945Y-163327651D01*
X120009660Y-163327651D01*
X121795374Y-163327651D02*
X121795374Y-162541937D01*
X121723945Y-162399080D01*
X121581088Y-162327651D01*
X121295374Y-162327651D01*
X121152517Y-162399080D01*
X121795374Y-163256222D02*
X121652517Y-163327651D01*
X121295374Y-163327651D01*
X121152517Y-163256222D01*
X121081088Y-163113365D01*
X121081088Y-162970508D01*
X121152517Y-162827651D01*
X121295374Y-162756222D01*
X121652517Y-162756222D01*
X121795374Y-162684794D01*
X122509660Y-163327651D02*
X122509660Y-162327651D01*
X122509660Y-162613365D02*
X122581088Y-162470508D01*
X122652517Y-162399080D01*
X122795374Y-162327651D01*
X122938231Y-162327651D01*
X124081088Y-163327651D02*
X124081088Y-161827651D01*
X124081088Y-163256222D02*
X123938231Y-163327651D01*
X123652517Y-163327651D01*
X123509660Y-163256222D01*
X123438231Y-163184794D01*
X123366802Y-163041937D01*
X123366802Y-162613365D01*
X123438231Y-162470508D01*
X123509660Y-162399080D01*
X123652517Y-162327651D01*
X123938231Y-162327651D01*
X124081088Y-162399080D01*
X124795374Y-163184794D02*
X124866802Y-163256222D01*
X124795374Y-163327651D01*
X124723945Y-163256222D01*
X124795374Y-163184794D01*
X124795374Y-163327651D01*
X125509660Y-163327651D02*
X125509660Y-161827651D01*
X125652517Y-162756222D02*
X126081088Y-163327651D01*
X126081088Y-162327651D02*
X125509660Y-162899080D01*
X126723945Y-163327651D02*
X126723945Y-162327651D01*
X126723945Y-161827651D02*
X126652517Y-161899080D01*
X126723945Y-161970508D01*
X126795374Y-161899080D01*
X126723945Y-161827651D01*
X126723945Y-161970508D01*
X128081088Y-163256222D02*
X127938231Y-163327651D01*
X127652517Y-163327651D01*
X127509660Y-163256222D01*
X127438231Y-163184794D01*
X127366802Y-163041937D01*
X127366802Y-162613365D01*
X127438231Y-162470508D01*
X127509660Y-162399080D01*
X127652517Y-162327651D01*
X127938231Y-162327651D01*
X128081088Y-162399080D01*
X129366802Y-163327651D02*
X129366802Y-162541937D01*
X129295374Y-162399080D01*
X129152517Y-162327651D01*
X128866802Y-162327651D01*
X128723945Y-162399080D01*
X129366802Y-163256222D02*
X129223945Y-163327651D01*
X128866802Y-163327651D01*
X128723945Y-163256222D01*
X128652517Y-163113365D01*
X128652517Y-162970508D01*
X128723945Y-162827651D01*
X128866802Y-162756222D01*
X129223945Y-162756222D01*
X129366802Y-162684794D01*
X130723945Y-163327651D02*
X130723945Y-161827651D01*
X130723945Y-163256222D02*
X130581088Y-163327651D01*
X130295374Y-163327651D01*
X130152517Y-163256222D01*
X130081088Y-163184794D01*
X130009660Y-163041937D01*
X130009660Y-162613365D01*
X130081088Y-162470508D01*
X130152517Y-162399080D01*
X130295374Y-162327651D01*
X130581088Y-162327651D01*
X130723945Y-162399080D01*
X131081088Y-163470508D02*
X132223945Y-163470508D01*
X132581088Y-162327651D02*
X132581088Y-163827651D01*
X132581088Y-162399080D02*
X132723945Y-162327651D01*
X133009660Y-162327651D01*
X133152517Y-162399080D01*
X133223945Y-162470508D01*
X133295374Y-162613365D01*
X133295374Y-163041937D01*
X133223945Y-163184794D01*
X133152517Y-163256222D01*
X133009660Y-163327651D01*
X132723945Y-163327651D01*
X132581088Y-163256222D01*
X134581088Y-163256222D02*
X134438231Y-163327651D01*
X134152517Y-163327651D01*
X134009660Y-163256222D01*
X133938231Y-163184794D01*
X133866802Y-163041937D01*
X133866802Y-162613365D01*
X133938231Y-162470508D01*
X134009660Y-162399080D01*
X134152517Y-162327651D01*
X134438231Y-162327651D01*
X134581088Y-162399080D01*
X135223945Y-163327651D02*
X135223945Y-161827651D01*
X135223945Y-162399080D02*
X135366802Y-162327651D01*
X135652517Y-162327651D01*
X135795374Y-162399080D01*
X135866802Y-162470508D01*
X135938231Y-162613365D01*
X135938231Y-163041937D01*
X135866802Y-163184794D01*
X135795374Y-163256222D01*
X135652517Y-163327651D01*
X135366802Y-163327651D01*
X135223945Y-163256222D01*
D10*
D11*
X101434660Y-158449080D02*
X209434660Y-158449080D01*
D10*
D11*
X102795374Y-160556222D02*
X103009660Y-160627651D01*
X103366802Y-160627651D01*
X103509660Y-160556222D01*
X103581088Y-160484794D01*
X103652517Y-160341937D01*
X103652517Y-160199080D01*
X103581088Y-160056222D01*
X103509660Y-159984794D01*
X103366802Y-159913365D01*
X103081088Y-159841937D01*
X102938231Y-159770508D01*
X102866802Y-159699080D01*
X102795374Y-159556222D01*
X102795374Y-159413365D01*
X102866802Y-159270508D01*
X102938231Y-159199080D01*
X103081088Y-159127651D01*
X103438231Y-159127651D01*
X103652517Y-159199080D01*
X104295374Y-160627651D02*
X104295374Y-159127651D01*
X104938231Y-160627651D02*
X104938231Y-159841937D01*
X104866802Y-159699080D01*
X104723945Y-159627651D01*
X104509660Y-159627651D01*
X104366802Y-159699080D01*
X104295374Y-159770508D01*
X106223945Y-160556222D02*
X106081088Y-160627651D01*
X105795374Y-160627651D01*
X105652517Y-160556222D01*
X105581088Y-160413365D01*
X105581088Y-159841937D01*
X105652517Y-159699080D01*
X105795374Y-159627651D01*
X106081088Y-159627651D01*
X106223945Y-159699080D01*
X106295374Y-159841937D01*
X106295374Y-159984794D01*
X105581088Y-160127651D01*
X107509660Y-160556222D02*
X107366802Y-160627651D01*
X107081088Y-160627651D01*
X106938231Y-160556222D01*
X106866802Y-160413365D01*
X106866802Y-159841937D01*
X106938231Y-159699080D01*
X107081088Y-159627651D01*
X107366802Y-159627651D01*
X107509660Y-159699080D01*
X107581088Y-159841937D01*
X107581088Y-159984794D01*
X106866802Y-160127651D01*
X108009660Y-159627651D02*
X108581088Y-159627651D01*
X108223945Y-159127651D02*
X108223945Y-160413365D01*
X108295374Y-160556222D01*
X108438231Y-160627651D01*
X108581088Y-160627651D01*
X109081088Y-160484794D02*
X109152517Y-160556222D01*
X109081088Y-160627651D01*
X109009660Y-160556222D01*
X109081088Y-160484794D01*
X109081088Y-160627651D01*
X109081088Y-159699080D02*
X109152517Y-159770508D01*
X109081088Y-159841937D01*
X109009660Y-159770508D01*
X109081088Y-159699080D01*
X109081088Y-159841937D01*
D10*
D12*
X102986802Y-157627651D02*
X102986802Y-156127651D01*
X103486802Y-157199080D01*
X103986802Y-156127651D01*
X103986802Y-157627651D01*
X104986802Y-156127651D02*
X105272517Y-156127651D01*
X105415374Y-156199080D01*
X105558231Y-156341937D01*
X105629660Y-156627651D01*
X105629660Y-157127651D01*
X105558231Y-157413365D01*
X105415374Y-157556222D01*
X105272517Y-157627651D01*
X104986802Y-157627651D01*
X104843945Y-157556222D01*
X104701088Y-157413365D01*
X104629660Y-157127651D01*
X104629660Y-156627651D01*
X104701088Y-156341937D01*
X104843945Y-156199080D01*
X104986802Y-156127651D01*
X106272517Y-157627651D02*
X106272517Y-156127651D01*
X106629660Y-156127651D01*
X106843945Y-156199080D01*
X106986802Y-156341937D01*
X107058231Y-156484794D01*
X107129660Y-156770508D01*
X107129660Y-156984794D01*
X107058231Y-157270508D01*
X106986802Y-157413365D01*
X106843945Y-157556222D01*
X106629660Y-157627651D01*
X106272517Y-157627651D01*
X108915374Y-157627651D02*
X108915374Y-156127651D01*
X109272517Y-156127651D01*
X109486802Y-156199080D01*
X109629660Y-156341937D01*
X109701088Y-156484794D01*
X109772517Y-156770508D01*
X109772517Y-156984794D01*
X109701088Y-157270508D01*
X109629660Y-157413365D01*
X109486802Y-157556222D01*
X109272517Y-157627651D01*
X108915374Y-157627651D01*
X110986802Y-157556222D02*
X110843945Y-157627651D01*
X110558231Y-157627651D01*
X110415374Y-157556222D01*
X110343945Y-157413365D01*
X110343945Y-156841937D01*
X110415374Y-156699080D01*
X110558231Y-156627651D01*
X110843945Y-156627651D01*
X110986802Y-156699080D01*
X111058231Y-156841937D01*
X111058231Y-156984794D01*
X110343945Y-157127651D01*
X111558231Y-156627651D02*
X111915374Y-157627651D01*
X112272517Y-156627651D01*
X112843945Y-157627651D02*
X112843945Y-156627651D01*
X112843945Y-156127651D02*
X112772517Y-156199080D01*
X112843945Y-156270508D01*
X112915374Y-156199080D01*
X112843945Y-156127651D01*
X112843945Y-156270508D01*
X114201088Y-157556222D02*
X114058231Y-157627651D01*
X113772517Y-157627651D01*
X113629660Y-157556222D01*
X113558231Y-157484794D01*
X113486802Y-157341937D01*
X113486802Y-156913365D01*
X113558231Y-156770508D01*
X113629660Y-156699080D01*
X113772517Y-156627651D01*
X114058231Y-156627651D01*
X114201088Y-156699080D01*
X115415374Y-157556222D02*
X115272517Y-157627651D01*
X114986802Y-157627651D01*
X114843945Y-157556222D01*
X114772517Y-157413365D01*
X114772517Y-156841937D01*
X114843945Y-156699080D01*
X114986802Y-156627651D01*
X115272517Y-156627651D01*
X115415374Y-156699080D01*
X115486802Y-156841937D01*
X115486802Y-156984794D01*
X114772517Y-157127651D01*
X116058231Y-157556222D02*
X116201088Y-157627651D01*
X116486802Y-157627651D01*
X116629660Y-157556222D01*
X116701088Y-157413365D01*
X116701088Y-157341937D01*
X116629660Y-157199080D01*
X116486802Y-157127651D01*
X116272517Y-157127651D01*
X116129660Y-157056222D01*
X116058231Y-156913365D01*
X116058231Y-156841937D01*
X116129660Y-156699080D01*
X116272517Y-156627651D01*
X116486802Y-156627651D01*
X116629660Y-156699080D01*
X119272517Y-156199080D02*
X119129660Y-156127651D01*
X118915374Y-156127651D01*
X118701088Y-156199080D01*
X118558231Y-156341937D01*
X118486802Y-156484794D01*
X118415374Y-156770508D01*
X118415374Y-156984794D01*
X118486802Y-157270508D01*
X118558231Y-157413365D01*
X118701088Y-157556222D01*
X118915374Y-157627651D01*
X119058231Y-157627651D01*
X119272517Y-157556222D01*
X119343945Y-157484794D01*
X119343945Y-156984794D01*
X119058231Y-156984794D01*
X119986802Y-157627651D02*
X119986802Y-156627651D01*
X119986802Y-156770508D02*
X120058231Y-156699080D01*
X120201088Y-156627651D01*
X120415374Y-156627651D01*
X120558231Y-156699080D01*
X120629660Y-156841937D01*
X120629660Y-157627651D01*
X120629660Y-156841937D02*
X120701088Y-156699080D01*
X120843945Y-156627651D01*
X121058231Y-156627651D01*
X121201088Y-156699080D01*
X121272517Y-156841937D01*
X121272517Y-157627651D01*
X121986802Y-157627651D02*
X121986802Y-156127651D01*
X121986802Y-156699080D02*
X122129660Y-156627651D01*
X122415374Y-156627651D01*
X122558231Y-156699080D01*
X122629660Y-156770508D01*
X122701088Y-156913365D01*
X122701088Y-157341937D01*
X122629660Y-157484794D01*
X122558231Y-157556222D01*
X122415374Y-157627651D01*
X122129660Y-157627651D01*
X121986802Y-157556222D01*
X123343945Y-157627651D02*
X123343945Y-156127651D01*
X123343945Y-156841937D02*
X124201088Y-156841937D01*
X124201088Y-157627651D02*
X124201088Y-156127651D01*
D10*
D11*
X121434660Y-168449080D02*
X121434660Y-171449080D01*
D10*
D11*
X185434660Y-168449080D02*
X185434660Y-174949080D01*
D14*
X127522600Y-19977100D03*
G36*
G01*
X129072600Y-20877100D02*
X129072600Y-19077100D01*
G75*
G02*
X129122600Y-19027100I50000J0D01*
G01*
X130922600Y-19027100D01*
G75*
G02*
X130972600Y-19077100I0J-50000D01*
G01*
X130972600Y-20877100D01*
G75*
G02*
X130922600Y-20927100I-50000J0D01*
G01*
X129122600Y-20927100D01*
G75*
G02*
X129072600Y-20877100I0J50000D01*
G01*
G37*
D15*
X141010640Y-15240D03*
D16*
X121059561Y-28249880D03*
X121059561Y-33329880D03*
X121059561Y-30789880D03*
D17*
X-5709920Y-37548820D03*
X-5709920Y-35008820D03*
X-3169920Y-37548820D03*
X-3169920Y-35008820D03*
X-629920Y-37548820D03*
X-629920Y-35008820D03*
X1910080Y-37548820D03*
X1910080Y-35008820D03*
X4450080Y-37548820D03*
X4450080Y-35008820D03*
X6990080Y-37548820D03*
X6990080Y-35008820D03*
X9530080Y-37548820D03*
X9530080Y-35008820D03*
X12070080Y-37548820D03*
X12070080Y-35008820D03*
X14610080Y-37548820D03*
X14610080Y-35008820D03*
X17150080Y-37548820D03*
G36*
G01*
X16286480Y-34095220D02*
X18013680Y-34095220D01*
G75*
G02*
X18063680Y-34145220I0J-50000D01*
G01*
X18063680Y-35872420D01*
G75*
G02*
X18013680Y-35922420I-50000J0D01*
G01*
X16286480Y-35922420D01*
G75*
G02*
X16236480Y-35872420I0J50000D01*
G01*
X16236480Y-34145220D01*
G75*
G02*
X16286480Y-34095220I50000J0D01*
G01*
G37*
D18*
X151155400Y-104787700D03*
X138455400Y-104787700D03*
X144805400Y-104787700D03*
X151155400Y-121017700D03*
X138455400Y-121017700D03*
X144805400Y-121017700D03*
X144805400Y-100812000D03*
X138455400Y-100812000D03*
X151155400Y-100812000D03*
X144805400Y-84582000D03*
X138455400Y-84582000D03*
X151155400Y-84582000D03*
X-10147300Y-121017700D03*
X2552700Y-121017700D03*
X-3797300Y-121017700D03*
X-10147300Y-104787700D03*
X2552700Y-104787700D03*
X-3797300Y-104787700D03*
X-10147300Y-100824700D03*
X2552700Y-100824700D03*
X-3797300Y-100824700D03*
X-10147300Y-84594700D03*
X2552700Y-84594700D03*
X-3797300Y-84594700D03*
X151155400Y-56388000D03*
X138455400Y-56388000D03*
X144805400Y-56388000D03*
X151155400Y-72618000D03*
X138455400Y-72618000D03*
X144805400Y-72618000D03*
G36*
G01*
X129272460Y-3641880D02*
X132772460Y-3641880D01*
G75*
G02*
X132822460Y-3691880I0J-50000D01*
G01*
X132822460Y-7191880D01*
G75*
G02*
X132772460Y-7241880I-50000J0D01*
G01*
X129272460Y-7241880D01*
G75*
G02*
X129222460Y-7191880I0J50000D01*
G01*
X129222460Y-3691880D01*
G75*
G02*
X129272460Y-3641880I50000J0D01*
G01*
G37*
G36*
G01*
X129997460Y2108120D02*
X132047460Y2108120D01*
G75*
G02*
X132822460Y1333120I0J-775000D01*
G01*
X132822460Y-216880D01*
G75*
G02*
X132047460Y-991880I-775000J0D01*
G01*
X129997460Y-991880D01*
G75*
G02*
X129222460Y-216880I0J775000D01*
G01*
X129222460Y1333120D01*
G75*
G02*
X129997460Y2108120I775000J0D01*
G01*
G37*
G36*
G01*
X125422460Y-641880D02*
X127222460Y-641880D01*
G75*
G02*
X128122460Y-1541880I0J-900000D01*
G01*
X128122460Y-3341880D01*
G75*
G02*
X127222460Y-4241880I-900000J0D01*
G01*
X125422460Y-4241880D01*
G75*
G02*
X124522460Y-3341880I0J900000D01*
G01*
X124522460Y-1541880D01*
G75*
G02*
X125422460Y-641880I900000J0D01*
G01*
G37*
D19*
X-8737600Y-23263860D03*
X-8737600Y-25803860D03*
G36*
G01*
X-7837600Y-27493860D02*
X-7837600Y-29193860D01*
G75*
G02*
X-7887600Y-29243860I-50000J0D01*
G01*
X-9587600Y-29243860D01*
G75*
G02*
X-9637600Y-29193860I0J50000D01*
G01*
X-9637600Y-27493860D01*
G75*
G02*
X-9587600Y-27443860I50000J0D01*
G01*
X-7887600Y-27443860D01*
G75*
G02*
X-7837600Y-27493860I0J-50000D01*
G01*
G37*
G36*
G01*
X81736300Y-8850200D02*
X80036300Y-8850200D01*
G75*
G02*
X79986300Y-8800200I0J50000D01*
G01*
X79986300Y-7100200D01*
G75*
G02*
X80036300Y-7050200I50000J0D01*
G01*
X81736300Y-7050200D01*
G75*
G02*
X81786300Y-7100200I0J-50000D01*
G01*
X81786300Y-8800200D01*
G75*
G02*
X81736300Y-8850200I-50000J0D01*
G01*
G37*
D20*
X83386300Y-7950200D03*
X83386300Y-5950200D03*
X80886300Y-5950200D03*
D21*
X76116300Y-3240200D03*
X88156300Y-3240200D03*
D22*
X96136460Y-8590280D03*
X96136460Y-10590280D03*
X96136460Y-12590280D03*
D23*
X98856460Y-7860280D03*
D22*
X96136460Y-14590280D03*
D23*
X98856460Y-14860280D03*
X93416460Y-7860280D03*
X93416460Y-14860280D03*
G36*
G01*
X107937400Y-2215200D02*
X107937400Y-715200D01*
G75*
G02*
X107987400Y-665200I50000J0D01*
G01*
X109487400Y-665200D01*
G75*
G02*
X109537400Y-715200I0J-50000D01*
G01*
X109537400Y-2215200D01*
G75*
G02*
X109487400Y-2265200I-50000J0D01*
G01*
X107987400Y-2265200D01*
G75*
G02*
X107937400Y-2215200I0J50000D01*
G01*
G37*
D24*
X110777400Y-1465200D03*
X112817400Y-1465200D03*
X114857400Y-1465200D03*
X109757400Y-3245200D03*
X111797400Y-3245200D03*
X113837400Y-3245200D03*
X115877400Y-3245200D03*
D25*
X105947400Y1074800D03*
X118647400Y1074800D03*
D26*
X120427400Y-2355200D03*
X104167400Y-2355200D03*
D24*
X105437400Y-8065200D03*
X107727400Y-8065200D03*
X116867400Y-8065200D03*
X119157400Y-8065200D03*
D18*
X-10147300Y-72618000D03*
X2552700Y-72618000D03*
X-3797300Y-72618000D03*
X-10147300Y-56388000D03*
X2552700Y-56388000D03*
X-3797300Y-56388000D03*
G36*
G01*
X11603020Y3289900D02*
X16403020Y3289900D01*
G75*
G02*
X16453020Y3239900I0J-50000D01*
G01*
X16453020Y239900D01*
G75*
G02*
X16403020Y189900I-50000J0D01*
G01*
X11603020Y189900D01*
G75*
G02*
X11553020Y239900I0J50000D01*
G01*
X11553020Y3239900D01*
G75*
G02*
X11603020Y3289900I50000J0D01*
G01*
G37*
G36*
G01*
X12328020Y-10410100D02*
X15678020Y-10410100D01*
G75*
G02*
X16453020Y-11185100I0J-775000D01*
G01*
X16453020Y-12735100D01*
G75*
G02*
X15678020Y-13510100I-775000J0D01*
G01*
X12328020Y-13510100D01*
G75*
G02*
X11553020Y-12735100I0J775000D01*
G01*
X11553020Y-11185100D01*
G75*
G02*
X12328020Y-10410100I775000J0D01*
G01*
G37*
G36*
G01*
X8028020Y-7010100D02*
X9578020Y-7010100D01*
G75*
G02*
X10353020Y-7785100I0J-775000D01*
G01*
X10353020Y-11135100D01*
G75*
G02*
X9578020Y-11910100I-775000J0D01*
G01*
X8028020Y-11910100D01*
G75*
G02*
X7253020Y-11135100I0J775000D01*
G01*
X7253020Y-7785100D01*
G75*
G02*
X8028020Y-7010100I775000J0D01*
G01*
G37*
D26*
X53514740Y1488460D03*
D27*
X46014740Y-11011540D03*
X43514740Y-8511540D03*
X51014740Y-8511540D03*
X58514740Y-8511540D03*
D26*
X48514740Y1488460D03*
D27*
X56014740Y-11011540D03*
X35010720Y-11011540D03*
D26*
X27510720Y1488460D03*
D27*
X37510720Y-8511540D03*
X30010720Y-8511540D03*
X22510720Y-8511540D03*
X25010720Y-11011540D03*
D26*
X32510720Y1488460D03*
D28*
X69884380Y-81989880D03*
X81484380Y-81989880D03*
X67384380Y-41989880D03*
X83984380Y-41989880D03*
D29*
X62436461Y-37783881D03*
X62436461Y-40833881D03*
D30*
X107439460Y-64317880D03*
X39494460Y-64317880D03*
G36*
G01*
X143346460Y-18581880D02*
X143346460Y-16581880D01*
G75*
G02*
X143396460Y-16531880I50000J0D01*
G01*
X145396460Y-16531880D01*
G75*
G02*
X145446460Y-16581880I0J-50000D01*
G01*
X145446460Y-18581880D01*
G75*
G02*
X145396460Y-18631880I-50000J0D01*
G01*
X143396460Y-18631880D01*
G75*
G02*
X143346460Y-18581880I0J50000D01*
G01*
G37*
D26*
X149396460Y-17581880D03*
X149432460Y-28741880D03*
G36*
G01*
X143382460Y-29741880D02*
X143382460Y-27741880D01*
G75*
G02*
X143432460Y-27691880I50000J0D01*
G01*
X145432460Y-27691880D01*
G75*
G02*
X145482460Y-27741880I0J-50000D01*
G01*
X145482460Y-29741880D01*
G75*
G02*
X145432460Y-29791880I-50000J0D01*
G01*
X143432460Y-29791880D01*
G75*
G02*
X143382460Y-29741880I0J50000D01*
G01*
G37*
D10*
G36*
X16454185Y-12733474D02*
G01*
X16455020Y-12735100D01*
X16455020Y-12791460D01*
X16455010Y-12791656D01*
X16440727Y-12936681D01*
X16440651Y-12937066D01*
X16400140Y-13070611D01*
X16399990Y-13070973D01*
X16334204Y-13194050D01*
X16333986Y-13194376D01*
X16245452Y-13302255D01*
X16245175Y-13302532D01*
X16137296Y-13391066D01*
X16136970Y-13391284D01*
X16013893Y-13457070D01*
X16013531Y-13457220D01*
X15879986Y-13497731D01*
X15879601Y-13497807D01*
X15734576Y-13512090D01*
X15734380Y-13512100D01*
X15678020Y-13512100D01*
X15676288Y-13511100D01*
X15676288Y-13509100D01*
X15677824Y-13508110D01*
X15828820Y-13493239D01*
X15973831Y-13449250D01*
X16107471Y-13377818D01*
X16224607Y-13281687D01*
X16320738Y-13164551D01*
X16392170Y-13030911D01*
X16436159Y-12885900D01*
X16451030Y-12734904D01*
X16452195Y-12733278D01*
X16454185Y-12733474D01*
G37*
G36*
X11555010Y-12734904D02*
G01*
X11569881Y-12885900D01*
X11613870Y-13030911D01*
X11685302Y-13164551D01*
X11781433Y-13281687D01*
X11898569Y-13377818D01*
X12032209Y-13449250D01*
X12177220Y-13493239D01*
X12328216Y-13508110D01*
X12329842Y-13509275D01*
X12329646Y-13511265D01*
X12328020Y-13512100D01*
X12271660Y-13512100D01*
X12271464Y-13512090D01*
X12126439Y-13497807D01*
X12126054Y-13497731D01*
X11992509Y-13457220D01*
X11992147Y-13457070D01*
X11869070Y-13391284D01*
X11868744Y-13391066D01*
X11760865Y-13302532D01*
X11760588Y-13302255D01*
X11672054Y-13194376D01*
X11671836Y-13194050D01*
X11606050Y-13070973D01*
X11605900Y-13070611D01*
X11565389Y-12937066D01*
X11565313Y-12936681D01*
X11551030Y-12791656D01*
X11551020Y-12791460D01*
X11551020Y-12735100D01*
X11552020Y-12733368D01*
X11554020Y-12733368D01*
X11555010Y-12734904D01*
G37*
G36*
X7255010Y-11134904D02*
G01*
X7269881Y-11285900D01*
X7313870Y-11430911D01*
X7385302Y-11564551D01*
X7481433Y-11681687D01*
X7598569Y-11777818D01*
X7732209Y-11849250D01*
X7877220Y-11893239D01*
X8028216Y-11908110D01*
X8029842Y-11909275D01*
X8029646Y-11911265D01*
X8028020Y-11912100D01*
X7971660Y-11912100D01*
X7971464Y-11912090D01*
X7826439Y-11897807D01*
X7826054Y-11897731D01*
X7692509Y-11857220D01*
X7692147Y-11857070D01*
X7569070Y-11791284D01*
X7568744Y-11791066D01*
X7460865Y-11702532D01*
X7460588Y-11702255D01*
X7372054Y-11594376D01*
X7371836Y-11594050D01*
X7306050Y-11470973D01*
X7305900Y-11470611D01*
X7265389Y-11337066D01*
X7265313Y-11336681D01*
X7251030Y-11191656D01*
X7251020Y-11191460D01*
X7251020Y-11135100D01*
X7252020Y-11133368D01*
X7254020Y-11133368D01*
X7255010Y-11134904D01*
G37*
G36*
X10354185Y-11133474D02*
G01*
X10355020Y-11135100D01*
X10355020Y-11191460D01*
X10355010Y-11191656D01*
X10340727Y-11336681D01*
X10340651Y-11337066D01*
X10300140Y-11470611D01*
X10299990Y-11470973D01*
X10234204Y-11594050D01*
X10233986Y-11594376D01*
X10145452Y-11702255D01*
X10145175Y-11702532D01*
X10037296Y-11791066D01*
X10036970Y-11791284D01*
X9913893Y-11857070D01*
X9913531Y-11857220D01*
X9779986Y-11897731D01*
X9779601Y-11897807D01*
X9634576Y-11912090D01*
X9634380Y-11912100D01*
X9578020Y-11912100D01*
X9576288Y-11911100D01*
X9576288Y-11909100D01*
X9577824Y-11908110D01*
X9728820Y-11893239D01*
X9873831Y-11849250D01*
X10007471Y-11777818D01*
X10124607Y-11681687D01*
X10220738Y-11564551D01*
X10292170Y-11430911D01*
X10336159Y-11285900D01*
X10351030Y-11134904D01*
X10352195Y-11133278D01*
X10354185Y-11133474D01*
G37*
G36*
X12329752Y-10409100D02*
G01*
X12329752Y-10411100D01*
X12328216Y-10412090D01*
X12177220Y-10426961D01*
X12032209Y-10470950D01*
X11898569Y-10542382D01*
X11781433Y-10638513D01*
X11685302Y-10755649D01*
X11613870Y-10889289D01*
X11569881Y-11034300D01*
X11555010Y-11185296D01*
X11553845Y-11186922D01*
X11551855Y-11186726D01*
X11551020Y-11185100D01*
X11551020Y-11128740D01*
X11551030Y-11128544D01*
X11565313Y-10983519D01*
X11565389Y-10983134D01*
X11605900Y-10849589D01*
X11606050Y-10849227D01*
X11671836Y-10726150D01*
X11672054Y-10725824D01*
X11760588Y-10617945D01*
X11760865Y-10617668D01*
X11868744Y-10529134D01*
X11869070Y-10528916D01*
X11992147Y-10463130D01*
X11992509Y-10462980D01*
X12126054Y-10422469D01*
X12126439Y-10422393D01*
X12271464Y-10408110D01*
X12271660Y-10408100D01*
X12328020Y-10408100D01*
X12329752Y-10409100D01*
G37*
G36*
X15734576Y-10408110D02*
G01*
X15879601Y-10422393D01*
X15879986Y-10422469D01*
X16013531Y-10462980D01*
X16013893Y-10463130D01*
X16136970Y-10528916D01*
X16137296Y-10529134D01*
X16245175Y-10617668D01*
X16245452Y-10617945D01*
X16333986Y-10725824D01*
X16334204Y-10726150D01*
X16399990Y-10849227D01*
X16400140Y-10849589D01*
X16440651Y-10983134D01*
X16440727Y-10983519D01*
X16455010Y-11128544D01*
X16455020Y-11128740D01*
X16455020Y-11185100D01*
X16454020Y-11186832D01*
X16452020Y-11186832D01*
X16451030Y-11185296D01*
X16436159Y-11034300D01*
X16392170Y-10889289D01*
X16320738Y-10755649D01*
X16224607Y-10638513D01*
X16107471Y-10542382D01*
X15973831Y-10470950D01*
X15828820Y-10426961D01*
X15677824Y-10412090D01*
X15676198Y-10410925D01*
X15676394Y-10408935D01*
X15678020Y-10408100D01*
X15734380Y-10408100D01*
X15734576Y-10408110D01*
G37*
G36*
X8029752Y-7009100D02*
G01*
X8029752Y-7011100D01*
X8028216Y-7012090D01*
X7877220Y-7026961D01*
X7732209Y-7070950D01*
X7598569Y-7142382D01*
X7481433Y-7238513D01*
X7385302Y-7355649D01*
X7313870Y-7489289D01*
X7269881Y-7634300D01*
X7255010Y-7785296D01*
X7253845Y-7786922D01*
X7251855Y-7786726D01*
X7251020Y-7785100D01*
X7251020Y-7728740D01*
X7251030Y-7728544D01*
X7265313Y-7583519D01*
X7265389Y-7583134D01*
X7305900Y-7449589D01*
X7306050Y-7449227D01*
X7371836Y-7326150D01*
X7372054Y-7325824D01*
X7460588Y-7217945D01*
X7460865Y-7217668D01*
X7568744Y-7129134D01*
X7569070Y-7128916D01*
X7692147Y-7063130D01*
X7692509Y-7062980D01*
X7826054Y-7022469D01*
X7826439Y-7022393D01*
X7971464Y-7008110D01*
X7971660Y-7008100D01*
X8028020Y-7008100D01*
X8029752Y-7009100D01*
G37*
G36*
X9634576Y-7008110D02*
G01*
X9779601Y-7022393D01*
X9779986Y-7022469D01*
X9913531Y-7062980D01*
X9913893Y-7063130D01*
X10036970Y-7128916D01*
X10037296Y-7129134D01*
X10145175Y-7217668D01*
X10145452Y-7217945D01*
X10233986Y-7325824D01*
X10234204Y-7326150D01*
X10299990Y-7449227D01*
X10300140Y-7449589D01*
X10340651Y-7583134D01*
X10340727Y-7583519D01*
X10355010Y-7728544D01*
X10355020Y-7728740D01*
X10355020Y-7785100D01*
X10354020Y-7786832D01*
X10352020Y-7786832D01*
X10351030Y-7785296D01*
X10336159Y-7634300D01*
X10292170Y-7489289D01*
X10220738Y-7355649D01*
X10124607Y-7238513D01*
X10007471Y-7142382D01*
X9873831Y-7070950D01*
X9728820Y-7026961D01*
X9577824Y-7012090D01*
X9576198Y-7010925D01*
X9576394Y-7008935D01*
X9578020Y-7008100D01*
X9634380Y-7008100D01*
X9634576Y-7008110D01*
G37*
G36*
X83558877Y-6828066D02*
G01*
X83559267Y-6830028D01*
X83557954Y-6831299D01*
X83540566Y-6836573D01*
X83519303Y-6847938D01*
X83500666Y-6863233D01*
X83485370Y-6881870D01*
X83474005Y-6903134D01*
X83467005Y-6926208D01*
X83464642Y-6950200D01*
X83467005Y-6974191D01*
X83474005Y-6997266D01*
X83485370Y-7018529D01*
X83500665Y-7037166D01*
X83519302Y-7052462D01*
X83540566Y-7063827D01*
X83557954Y-7069101D01*
X83559321Y-7070561D01*
X83558740Y-7072475D01*
X83556983Y-7072977D01*
X83474316Y-7056534D01*
X83298284Y-7056534D01*
X83215617Y-7072977D01*
X83213723Y-7072334D01*
X83213333Y-7070372D01*
X83214646Y-7069101D01*
X83232034Y-7063827D01*
X83253297Y-7052462D01*
X83271934Y-7037167D01*
X83287230Y-7018530D01*
X83298595Y-6997266D01*
X83305595Y-6974192D01*
X83307958Y-6950200D01*
X83305595Y-6926209D01*
X83298595Y-6903134D01*
X83287230Y-6881871D01*
X83271935Y-6863234D01*
X83253298Y-6847938D01*
X83232034Y-6836573D01*
X83214646Y-6831299D01*
X83213279Y-6829839D01*
X83213860Y-6827925D01*
X83215617Y-6827423D01*
X83298284Y-6843866D01*
X83474316Y-6843866D01*
X83556983Y-6827423D01*
X83558877Y-6828066D01*
G37*
G36*
X81148054Y-6810327D02*
G01*
X81148444Y-6812289D01*
X81147493Y-6813410D01*
X81129664Y-6822939D01*
X81111027Y-6838235D01*
X81095732Y-6856872D01*
X81084367Y-6878135D01*
X81077367Y-6901210D01*
X81075004Y-6925201D01*
X81077367Y-6949193D01*
X81084367Y-6972267D01*
X81095732Y-6993531D01*
X81111028Y-7012168D01*
X81129665Y-7027463D01*
X81150928Y-7038828D01*
X81174003Y-7045828D01*
X81198190Y-7048210D01*
X81199816Y-7049375D01*
X81199620Y-7051365D01*
X81197994Y-7052200D01*
X80574606Y-7052200D01*
X80572874Y-7051200D01*
X80572874Y-7049200D01*
X80574410Y-7048210D01*
X80598597Y-7045828D01*
X80621672Y-7038828D01*
X80642936Y-7027463D01*
X80661573Y-7012168D01*
X80676868Y-6993531D01*
X80688233Y-6972267D01*
X80695233Y-6949192D01*
X80697596Y-6925201D01*
X80695233Y-6901210D01*
X80688233Y-6878135D01*
X80676868Y-6856871D01*
X80661573Y-6838234D01*
X80642936Y-6822939D01*
X80625107Y-6813410D01*
X80624051Y-6811711D01*
X80624994Y-6809948D01*
X80626440Y-6809684D01*
X80798284Y-6843866D01*
X80974316Y-6843866D01*
X81146160Y-6809684D01*
X81148054Y-6810327D01*
G37*
G36*
X124524450Y-3341684D02*
G01*
X124541723Y-3517066D01*
X124592825Y-3685526D01*
X124675808Y-3840777D01*
X124787485Y-3976855D01*
X124923563Y-4088532D01*
X125078814Y-4171515D01*
X125247274Y-4222617D01*
X125422656Y-4239890D01*
X125424282Y-4241055D01*
X125424086Y-4243045D01*
X125422460Y-4243880D01*
X125366100Y-4243880D01*
X125365904Y-4243870D01*
X125196496Y-4227185D01*
X125196111Y-4227109D01*
X125039110Y-4179483D01*
X125038748Y-4179333D01*
X124894064Y-4101998D01*
X124893738Y-4101780D01*
X124766916Y-3997701D01*
X124766639Y-3997424D01*
X124662560Y-3870602D01*
X124662342Y-3870276D01*
X124585007Y-3725592D01*
X124584857Y-3725230D01*
X124537231Y-3568229D01*
X124537155Y-3567844D01*
X124520470Y-3398436D01*
X124520460Y-3398240D01*
X124520460Y-3341880D01*
X124521460Y-3340148D01*
X124523460Y-3340148D01*
X124524450Y-3341684D01*
G37*
G36*
X128123625Y-3340254D02*
G01*
X128124460Y-3341880D01*
X128124460Y-3398240D01*
X128124450Y-3398436D01*
X128107765Y-3567844D01*
X128107689Y-3568229D01*
X128060063Y-3725230D01*
X128059913Y-3725592D01*
X127982578Y-3870276D01*
X127982360Y-3870602D01*
X127878281Y-3997424D01*
X127878004Y-3997701D01*
X127751182Y-4101780D01*
X127750856Y-4101998D01*
X127606172Y-4179333D01*
X127605810Y-4179483D01*
X127448809Y-4227109D01*
X127448424Y-4227185D01*
X127279016Y-4243870D01*
X127278820Y-4243880D01*
X127222460Y-4243880D01*
X127220728Y-4242880D01*
X127220728Y-4240880D01*
X127222264Y-4239890D01*
X127397646Y-4222617D01*
X127566106Y-4171515D01*
X127721357Y-4088532D01*
X127857435Y-3976855D01*
X127969112Y-3840777D01*
X128052095Y-3685526D01*
X128103197Y-3517066D01*
X128120470Y-3341684D01*
X128121635Y-3340058D01*
X128123625Y-3340254D01*
G37*
G36*
X109539132Y-2264200D02*
G01*
X109539400Y-2265200D01*
X109539400Y-2325423D01*
X109541772Y-2349508D01*
X109548772Y-2372583D01*
X109560137Y-2393847D01*
X109575432Y-2412484D01*
X109594069Y-2427779D01*
X109615333Y-2439144D01*
X109638408Y-2446144D01*
X109662399Y-2448507D01*
X109670959Y-2447664D01*
X109671155Y-2447654D01*
X109675960Y-2447654D01*
X109677692Y-2448654D01*
X109677692Y-2450654D01*
X109676350Y-2451616D01*
X109525754Y-2481572D01*
X109470069Y-2504637D01*
X109468086Y-2504376D01*
X109467321Y-2502528D01*
X109468361Y-2501025D01*
X109484385Y-2492461D01*
X109503022Y-2477165D01*
X109518317Y-2458529D01*
X109529682Y-2437265D01*
X109536682Y-2414190D01*
X109539045Y-2390199D01*
X109536682Y-2366208D01*
X109529682Y-2343133D01*
X109518317Y-2321869D01*
X109503021Y-2303232D01*
X109484385Y-2287937D01*
X109463121Y-2276572D01*
X109440046Y-2269572D01*
X109415859Y-2267190D01*
X109414233Y-2266025D01*
X109414429Y-2264035D01*
X109416055Y-2263200D01*
X109537400Y-2263200D01*
X109539132Y-2264200D01*
G37*
G36*
X125424192Y-640880D02*
G01*
X125424192Y-642880D01*
X125422656Y-643870D01*
X125247274Y-661143D01*
X125078814Y-712245D01*
X124923563Y-795228D01*
X124787485Y-906905D01*
X124675808Y-1042983D01*
X124592825Y-1198234D01*
X124541723Y-1366694D01*
X124524450Y-1542076D01*
X124523285Y-1543702D01*
X124521295Y-1543506D01*
X124520460Y-1541880D01*
X124520460Y-1485520D01*
X124520470Y-1485324D01*
X124537155Y-1315916D01*
X124537231Y-1315531D01*
X124584857Y-1158530D01*
X124585007Y-1158168D01*
X124662342Y-1013484D01*
X124662560Y-1013158D01*
X124766639Y-886336D01*
X124766916Y-886059D01*
X124893738Y-781980D01*
X124894064Y-781762D01*
X125038748Y-704427D01*
X125039110Y-704277D01*
X125196111Y-656651D01*
X125196496Y-656575D01*
X125365904Y-639890D01*
X125366100Y-639880D01*
X125422460Y-639880D01*
X125424192Y-640880D01*
G37*
G36*
X127279016Y-639890D02*
G01*
X127448424Y-656575D01*
X127448809Y-656651D01*
X127605810Y-704277D01*
X127606172Y-704427D01*
X127750856Y-781762D01*
X127751182Y-781980D01*
X127878004Y-886059D01*
X127878281Y-886336D01*
X127982360Y-1013158D01*
X127982578Y-1013484D01*
X128059913Y-1158168D01*
X128060063Y-1158530D01*
X128107689Y-1315531D01*
X128107765Y-1315916D01*
X128124450Y-1485324D01*
X128124460Y-1485520D01*
X128124460Y-1541880D01*
X128123460Y-1543612D01*
X128121460Y-1543612D01*
X128120470Y-1542076D01*
X128103197Y-1366694D01*
X128052095Y-1198234D01*
X127969112Y-1042983D01*
X127857435Y-906905D01*
X127721357Y-795228D01*
X127566106Y-712245D01*
X127397646Y-661143D01*
X127222264Y-643870D01*
X127220638Y-642705D01*
X127220834Y-640715D01*
X127222460Y-639880D01*
X127278820Y-639880D01*
X127279016Y-639890D01*
G37*
G36*
X129224450Y-216684D02*
G01*
X129239321Y-367680D01*
X129283310Y-512691D01*
X129354742Y-646331D01*
X129450873Y-763467D01*
X129568009Y-859598D01*
X129701649Y-931030D01*
X129846660Y-975019D01*
X129997656Y-989890D01*
X129999282Y-991055D01*
X129999086Y-993045D01*
X129997460Y-993880D01*
X129941100Y-993880D01*
X129940904Y-993870D01*
X129795879Y-979587D01*
X129795494Y-979511D01*
X129661949Y-939000D01*
X129661587Y-938850D01*
X129538510Y-873064D01*
X129538184Y-872846D01*
X129430305Y-784312D01*
X129430028Y-784035D01*
X129341494Y-676156D01*
X129341276Y-675830D01*
X129275490Y-552753D01*
X129275340Y-552391D01*
X129234829Y-418846D01*
X129234753Y-418461D01*
X129220470Y-273436D01*
X129220460Y-273240D01*
X129220460Y-216880D01*
X129221460Y-215148D01*
X129223460Y-215148D01*
X129224450Y-216684D01*
G37*
G36*
X132823625Y-215254D02*
G01*
X132824460Y-216880D01*
X132824460Y-273240D01*
X132824450Y-273436D01*
X132810167Y-418461D01*
X132810091Y-418846D01*
X132769580Y-552391D01*
X132769430Y-552753D01*
X132703644Y-675830D01*
X132703426Y-676156D01*
X132614892Y-784035D01*
X132614615Y-784312D01*
X132506736Y-872846D01*
X132506410Y-873064D01*
X132383333Y-938850D01*
X132382971Y-939000D01*
X132249426Y-979511D01*
X132249041Y-979587D01*
X132104016Y-993870D01*
X132103820Y-993880D01*
X132047460Y-993880D01*
X132045728Y-992880D01*
X132045728Y-990880D01*
X132047264Y-989890D01*
X132198260Y-975019D01*
X132343271Y-931030D01*
X132476911Y-859598D01*
X132594047Y-763467D01*
X132690178Y-646331D01*
X132761610Y-512691D01*
X132805599Y-367680D01*
X132820470Y-216684D01*
X132821635Y-215058D01*
X132823625Y-215254D01*
G37*
G36*
X129999192Y2109120D02*
G01*
X129999192Y2107120D01*
X129997656Y2106130D01*
X129846660Y2091259D01*
X129701649Y2047270D01*
X129568009Y1975838D01*
X129450873Y1879707D01*
X129354742Y1762571D01*
X129283310Y1628931D01*
X129239321Y1483920D01*
X129224450Y1332924D01*
X129223285Y1331298D01*
X129221295Y1331494D01*
X129220460Y1333120D01*
X129220460Y1389480D01*
X129220470Y1389676D01*
X129234753Y1534701D01*
X129234829Y1535086D01*
X129275340Y1668631D01*
X129275490Y1668993D01*
X129341276Y1792070D01*
X129341494Y1792396D01*
X129430028Y1900275D01*
X129430305Y1900552D01*
X129538184Y1989086D01*
X129538510Y1989304D01*
X129661587Y2055090D01*
X129661949Y2055240D01*
X129795494Y2095751D01*
X129795879Y2095827D01*
X129940904Y2110110D01*
X129941100Y2110120D01*
X129997460Y2110120D01*
X129999192Y2109120D01*
G37*
G36*
X132104016Y2110110D02*
G01*
X132249041Y2095827D01*
X132249426Y2095751D01*
X132382971Y2055240D01*
X132383333Y2055090D01*
X132506410Y1989304D01*
X132506736Y1989086D01*
X132614615Y1900552D01*
X132614892Y1900275D01*
X132703426Y1792396D01*
X132703644Y1792070D01*
X132769430Y1668993D01*
X132769580Y1668631D01*
X132810091Y1535086D01*
X132810167Y1534701D01*
X132824450Y1389676D01*
X132824460Y1389480D01*
X132824460Y1333120D01*
X132823460Y1331388D01*
X132821460Y1331388D01*
X132820470Y1332924D01*
X132805599Y1483920D01*
X132761610Y1628931D01*
X132690178Y1762571D01*
X132594047Y1879707D01*
X132476911Y1975838D01*
X132343271Y2047270D01*
X132198260Y2091259D01*
X132047264Y2106130D01*
X132045638Y2107295D01*
X132045834Y2109285D01*
X132047460Y2110120D01*
X132103820Y2110120D01*
X132104016Y2110110D01*
G37*
M02*
