G04 #@! TF.FileFunction,Profile,NP*
%FSLAX46Y46*%
G04 Gerber Fmt 4.6, Leading zero omitted, Abs format (unit mm)*
G04 Created by KiCad (PCBNEW no-vcs-found-product) date Sat 10 Oct 2015 11:57:04 PM BRT*
%MOMM*%
G01*
G04 APERTURE LIST*
%ADD10C,0.100000*%
%ADD11C,0.254000*%
G04 APERTURE END LIST*
D10*
D11*
X84482940Y-63431420D02*
X122496580Y-63431420D01*
X84482940Y-62433200D02*
X122496580Y-62433200D01*
X84482940Y-62433200D02*
X84482940Y-63431420D01*
X81488280Y-62433200D02*
X81488280Y-63431420D01*
X40487600Y-63431420D02*
X81488280Y-63431420D01*
D10*
X81488280Y-62433200D02*
X81490820Y-62433200D01*
D11*
X40487600Y-62433200D02*
X81488280Y-62433200D01*
D10*
X166491920Y-63431420D02*
X166494460Y-63431420D01*
D11*
X125491240Y-63431420D02*
X166491920Y-63431420D01*
D10*
X-3507740Y-63431420D02*
X-3505200Y-63431420D01*
D11*
X-3507740Y-63431420D02*
X37492940Y-63431420D01*
X125491240Y-62433200D02*
X166491920Y-62433200D01*
X-3507740Y-62433200D02*
X37492940Y-62433200D01*
X122496580Y-62433200D02*
X122496580Y-63431420D01*
X125491240Y-62433200D02*
X125491240Y-63431420D01*
X37492940Y-62433200D02*
X37492940Y-63431420D01*
X40487600Y-62433200D02*
X40487600Y-63431420D01*
X166491920Y3505200D02*
X166491920Y-62433200D01*
D10*
X166491920Y-62433200D02*
X166494460Y-62433200D01*
D11*
X166491920Y-63433960D02*
X166491920Y-129372360D01*
X-3507740Y-63433960D02*
X-3507740Y-129372360D01*
D10*
X-3507740Y-62433200D02*
X-3505200Y-62433200D01*
D11*
X-3507740Y3505200D02*
X-3507740Y-62433200D01*
X-3507740Y-129371215D02*
X166492262Y-129371215D01*
X-3507740Y3505200D02*
X166492262Y3505200D01*
M02*
