G04 #@! TF.FileFunction,Soldermask,Bot*
%FSLAX46Y46*%
G04 Gerber Fmt 4.6, Leading zero omitted, Abs format (unit mm)*
G04 Created by KiCad (PCBNEW 4.0.1-stable) date Fri 05 Feb 2016 02:26:42 PM CET*
%MOMM*%
G01*
G04 APERTURE LIST*
%ADD10C,0.100000*%
%ADD11O,2.003200X2.003200*%
%ADD12R,2.003200X2.003200*%
%ADD13C,1.203200*%
%ADD14R,3.203200X3.203200*%
%ADD15R,0.703200X0.523200*%
%ADD16R,1.930400X1.930400*%
%ADD17O,1.930400X1.930400*%
%ADD18R,2.235200X2.235200*%
%ADD19O,2.235200X2.235200*%
%ADD20R,0.703200X1.103200*%
%ADD21R,1.253200X1.253200*%
%ADD22C,1.253200*%
%ADD23C,1.803200*%
%ADD24R,3.003200X3.803200*%
%ADD25R,1.503200X0.903200*%
%ADD26R,1.003200X0.953200*%
%ADD27R,0.953200X1.003200*%
%ADD28R,1.453200X1.203200*%
G04 APERTURE END LIST*
D10*
D11*
X29154234Y-89875506D03*
D12*
X31654234Y-89875506D03*
D13*
X166322494Y-140319906D03*
D14*
X166322494Y-140319906D03*
D13*
X97691694Y-92034506D03*
D14*
X97691694Y-92034506D03*
D13*
X19535894Y-140319906D03*
D14*
X19535894Y-140319906D03*
D15*
X95945094Y-101998406D03*
X95945094Y-102998406D03*
X95945094Y-102498406D03*
X95945094Y-103498406D03*
X94945094Y-102498406D03*
X94945094Y-101998406D03*
X94945094Y-102998406D03*
X94945094Y-103498406D03*
D16*
X151025094Y-88587906D03*
D17*
X151025094Y-86047906D03*
X153565094Y-88587906D03*
X153565094Y-86047906D03*
X156105094Y-88587906D03*
X156105094Y-86047906D03*
X158645094Y-88587906D03*
X158645094Y-86047906D03*
X161185094Y-88587906D03*
X161185094Y-86047906D03*
X163725094Y-88587906D03*
X163725094Y-86047906D03*
X166265094Y-88587906D03*
X166265094Y-86047906D03*
X168805094Y-88587906D03*
X168805094Y-86047906D03*
X171345094Y-88587906D03*
X171345094Y-86047906D03*
X173885094Y-88587906D03*
X173885094Y-86047906D03*
D18*
X89874594Y-122750906D03*
D19*
X87334594Y-122750906D03*
D18*
X108035594Y-122750906D03*
D19*
X105495594Y-122750906D03*
D20*
X26419194Y-137660706D03*
X27919194Y-137660706D03*
X26419194Y-135984306D03*
X27919194Y-135984306D03*
X26419194Y-134307906D03*
X27919194Y-134307906D03*
X26419194Y-117620106D03*
X27919194Y-117620106D03*
X26419194Y-115943706D03*
X27919194Y-115943706D03*
X26419194Y-114267306D03*
X27919194Y-114267306D03*
X168990794Y-134307906D03*
X167490794Y-134307906D03*
X56075094Y-134307906D03*
X54575094Y-134307906D03*
X168990794Y-135984306D03*
X167490794Y-135984306D03*
X56075094Y-136009706D03*
X54575094Y-136009706D03*
X168990794Y-137660706D03*
X167490794Y-137660706D03*
X56075094Y-137711506D03*
X54575094Y-137711506D03*
X168990794Y-114267306D03*
X167490794Y-114267306D03*
X132300494Y-134333306D03*
X130800494Y-134333306D03*
X168990794Y-115943706D03*
X167490794Y-115943706D03*
X132300494Y-136009706D03*
X130800494Y-136009706D03*
X168990794Y-117620106D03*
X167490794Y-117620106D03*
X132300494Y-137711506D03*
X130800494Y-137711506D03*
D21*
X91456594Y-91699406D03*
D22*
X90186594Y-91699406D03*
X88916594Y-91699406D03*
X87646594Y-91699406D03*
X86376594Y-91699406D03*
X90186594Y-92969406D03*
X88916594Y-92969406D03*
X87646594Y-92969406D03*
X86376594Y-92969406D03*
X91456594Y-92969406D03*
D23*
X57106894Y-98519306D03*
X57106894Y-84019306D03*
X62106894Y-98519306D03*
X62106894Y-84019306D03*
X59606894Y-98519306D03*
D24*
X53006894Y-91019306D03*
X66206894Y-91019306D03*
D23*
X133332294Y-98468506D03*
X133332294Y-83968506D03*
X138332294Y-98468506D03*
X138332294Y-83968506D03*
X135832294Y-98468506D03*
D24*
X129232294Y-90968506D03*
X142432294Y-90968506D03*
D25*
X24248794Y-134897006D03*
X24248794Y-135997006D03*
X24248794Y-137097006D03*
X21148794Y-137097006D03*
X21148794Y-135997006D03*
X21148794Y-134897006D03*
X24261494Y-114843706D03*
X24261494Y-115943706D03*
X24261494Y-117043706D03*
X21161494Y-117043706D03*
X21161494Y-115943706D03*
X21161494Y-114843706D03*
X174248494Y-134897006D03*
X174248494Y-135997006D03*
X174248494Y-137097006D03*
X171148494Y-137097006D03*
X171148494Y-135997006D03*
X171148494Y-134897006D03*
X58042294Y-137109706D03*
X58042294Y-136009706D03*
X58042294Y-134909706D03*
X61142294Y-134909706D03*
X61142294Y-136009706D03*
X61142294Y-137109706D03*
X174248494Y-114843706D03*
X174248494Y-115943706D03*
X174248494Y-117043706D03*
X171148494Y-117043706D03*
X171148494Y-115943706D03*
X171148494Y-114843706D03*
X134254994Y-137109706D03*
X134254994Y-136009706D03*
X134254994Y-134909706D03*
X137354994Y-134909706D03*
X137354994Y-136009706D03*
X137354994Y-137109706D03*
D26*
X93310094Y-107002906D03*
X94810094Y-107002906D03*
X93310094Y-105351906D03*
X94810094Y-105351906D03*
D27*
X106696594Y-111689906D03*
X106696594Y-110189906D03*
D28*
X59864194Y-129595506D03*
X59864194Y-131595506D03*
D27*
X62086694Y-130099506D03*
X62086694Y-131599506D03*
D28*
X135111694Y-128516006D03*
X135111694Y-130516006D03*
D27*
X137334194Y-129083506D03*
X137334194Y-130583506D03*
X137334194Y-59984902D03*
X137334194Y-61484902D03*
D28*
X135111694Y-59417402D03*
X135111694Y-61417402D03*
D27*
X62086694Y-61000902D03*
X62086694Y-62500902D03*
D28*
X59864194Y-60496902D03*
X59864194Y-62496902D03*
D27*
X106696594Y-42591302D03*
X106696594Y-41091302D03*
D26*
X93310094Y-36253302D03*
X94810094Y-36253302D03*
X93310094Y-37904302D03*
X94810094Y-37904302D03*
D25*
X134254994Y-68011102D03*
X134254994Y-66911102D03*
X134254994Y-65811102D03*
X137354994Y-65811102D03*
X137354994Y-66911102D03*
X137354994Y-68011102D03*
X174248494Y-45745102D03*
X174248494Y-46845102D03*
X174248494Y-47945102D03*
X171148494Y-47945102D03*
X171148494Y-46845102D03*
X171148494Y-45745102D03*
X58042294Y-68011102D03*
X58042294Y-66911102D03*
X58042294Y-65811102D03*
X61142294Y-65811102D03*
X61142294Y-66911102D03*
X61142294Y-68011102D03*
X174248494Y-65798402D03*
X174248494Y-66898402D03*
X174248494Y-67998402D03*
X171148494Y-67998402D03*
X171148494Y-66898402D03*
X171148494Y-65798402D03*
X24261494Y-45745102D03*
X24261494Y-46845102D03*
X24261494Y-47945102D03*
X21161494Y-47945102D03*
X21161494Y-46845102D03*
X21161494Y-45745102D03*
X24248794Y-65798402D03*
X24248794Y-66898402D03*
X24248794Y-67998402D03*
X21148794Y-67998402D03*
X21148794Y-66898402D03*
X21148794Y-65798402D03*
D23*
X133332294Y-29369902D03*
X133332294Y-14869902D03*
X138332294Y-29369902D03*
X138332294Y-14869902D03*
X135832294Y-29369902D03*
D24*
X129232294Y-21869902D03*
X142432294Y-21869902D03*
D23*
X57106894Y-29420702D03*
X57106894Y-14920702D03*
X62106894Y-29420702D03*
X62106894Y-14920702D03*
X59606894Y-29420702D03*
D24*
X53006894Y-21920702D03*
X66206894Y-21920702D03*
D21*
X91456594Y-22600802D03*
D22*
X90186594Y-22600802D03*
X88916594Y-22600802D03*
X87646594Y-22600802D03*
X86376594Y-22600802D03*
X90186594Y-23870802D03*
X88916594Y-23870802D03*
X87646594Y-23870802D03*
X86376594Y-23870802D03*
X91456594Y-23870802D03*
D20*
X132300494Y-68612902D03*
X130800494Y-68612902D03*
X168990794Y-48521502D03*
X167490794Y-48521502D03*
X132300494Y-66911102D03*
X130800494Y-66911102D03*
X168990794Y-46845102D03*
X167490794Y-46845102D03*
X132300494Y-65234702D03*
X130800494Y-65234702D03*
X168990794Y-45168702D03*
X167490794Y-45168702D03*
X56075094Y-68612902D03*
X54575094Y-68612902D03*
X168990794Y-68562102D03*
X167490794Y-68562102D03*
X56075094Y-66911102D03*
X54575094Y-66911102D03*
X168990794Y-66885702D03*
X167490794Y-66885702D03*
X56075094Y-65209302D03*
X54575094Y-65209302D03*
X168990794Y-65209302D03*
X167490794Y-65209302D03*
X26419194Y-45168702D03*
X27919194Y-45168702D03*
X26419194Y-46845102D03*
X27919194Y-46845102D03*
X26419194Y-48521502D03*
X27919194Y-48521502D03*
X26419194Y-65209302D03*
X27919194Y-65209302D03*
X26419194Y-66885702D03*
X27919194Y-66885702D03*
X26419194Y-68562102D03*
X27919194Y-68562102D03*
D18*
X108035594Y-53652302D03*
D19*
X105495594Y-53652302D03*
D18*
X89874594Y-53652302D03*
D19*
X87334594Y-53652302D03*
D16*
X151025094Y-19489302D03*
D17*
X151025094Y-16949302D03*
X153565094Y-19489302D03*
X153565094Y-16949302D03*
X156105094Y-19489302D03*
X156105094Y-16949302D03*
X158645094Y-19489302D03*
X158645094Y-16949302D03*
X161185094Y-19489302D03*
X161185094Y-16949302D03*
X163725094Y-19489302D03*
X163725094Y-16949302D03*
X166265094Y-19489302D03*
X166265094Y-16949302D03*
X168805094Y-19489302D03*
X168805094Y-16949302D03*
X171345094Y-19489302D03*
X171345094Y-16949302D03*
X173885094Y-19489302D03*
X173885094Y-16949302D03*
D15*
X95945094Y-32899802D03*
X95945094Y-33899802D03*
X95945094Y-33399802D03*
X95945094Y-34399802D03*
X94945094Y-33399802D03*
X94945094Y-32899802D03*
X94945094Y-33899802D03*
X94945094Y-34399802D03*
D13*
X19535894Y-71221302D03*
D14*
X19535894Y-71221302D03*
D13*
X97691694Y-22935902D03*
D14*
X97691694Y-22935902D03*
D13*
X166322494Y-71221302D03*
D14*
X166322494Y-71221302D03*
D11*
X29154234Y-20776902D03*
D12*
X31654234Y-20776902D03*
M02*
