M48
;DRILL file {KiCad no-vcs-found-product} date Sat 10 Oct 2015 11:58:08 PM BRT
;FORMAT={-:-/ absolute / inch / decimal}
FMAT,2
INCH,TZ
T1C0.012
T2C0.015
T3C0.018
T4C0.026
T5C0.027
T6C0.031
T7C0.039
T8C0.040
T9C0.071
T10C0.138
%
G90
G05
M72
T1
X0.3161Y-1.3703
X0.3161Y-2.1663
X0.3161Y-4.0057
X0.3161Y-4.8017
X1.4501Y-2.1423
X1.4501Y-4.7777
X1.5626Y-1.8218
X1.5626Y-4.4572
X1.7081Y-0.3063
X1.7081Y-2.9417
X1.7676Y-1.8668
X1.7676Y-4.5022
X1.8161Y-0.3063
X1.8161Y-2.9417
X2.5376Y-0.8468
X2.5376Y-3.4822
X2.6226Y-0.5068
X2.6226Y-3.1422
X2.6861Y-0.5283
X2.6861Y-3.1637
X2.7601Y-0.4793
X2.7601Y-3.1147
X2.8526Y-0.4793
X2.8526Y-3.1147
X2.8841Y-0.9193
X2.8841Y-3.5547
X2.8861Y-0.5623
X2.8861Y-3.1977
X2.9301Y-0.4793
X2.9301Y-3.1147
X2.9921Y-0.7143
X2.9921Y-3.3497
X2.9976Y-0.7893
X2.9976Y-0.8543
X2.9976Y-3.4247
X2.9976Y-3.4897
X3.0101Y-0.4793
X3.0101Y-3.1147
X3.0171Y-0.7418
X3.0171Y-3.3772
X3.0621Y-0.7468
X3.0621Y-3.3822
X3.0901Y-1.3203
X3.0901Y-3.9557
X3.0996Y-0.7468
X3.0996Y-3.3822
X3.1426Y-0.8193
X3.1426Y-3.4547
X3.1676Y-1.0593
X3.1676Y-3.6947
X3.1801Y-0.9843
X3.1801Y-3.6197
X3.2226Y-1.0593
X3.2226Y-3.6947
X3.2326Y-0.9218
X3.2326Y-3.5572
X3.2576Y-1.0543
X3.2576Y-3.6897
X3.2641Y-1.3203
X3.2641Y-3.9557
X3.2891Y-0.9833
X3.2891Y-1.0573
X3.2891Y-3.6187
X3.2891Y-3.6927
X3.2976Y-1.3968
X3.2976Y-4.0322
X3.3201Y-1.0543
X3.3201Y-3.6897
X3.3276Y-0.7793
X3.3276Y-3.4147
X3.3326Y-0.9218
X3.3326Y-3.5572
X3.3526Y-0.4493
X3.3526Y-0.4868
X3.3526Y-0.7993
X3.3526Y-3.0847
X3.3526Y-3.1222
X3.3526Y-3.4347
X3.3671Y-1.3973
X3.3671Y-4.0327
X3.3726Y-1.0543
X3.3726Y-3.6897
X3.3751Y-0.8193
X3.3751Y-3.4547
X3.3876Y-0.4868
X3.3876Y-0.5218
X3.3876Y-3.1222
X3.3876Y-3.1572
X3.4226Y-0.5218
X3.4226Y-3.1572
X3.4271Y-0.5718
X3.4271Y-3.2072
X3.4771Y-0.5918
X3.4771Y-3.2272
X3.4801Y-1.0818
X3.4801Y-3.7172
X3.5051Y-1.1093
X3.5051Y-3.7447
X3.5146Y-0.5918
X3.5146Y-3.2272
X3.5546Y-0.5918
X3.5546Y-3.2272
X3.5551Y-0.6418
X3.5551Y-3.2772
X3.5901Y-0.6418
X3.5901Y-3.2772
X3.6051Y-1.0393
X3.6051Y-3.6747
X3.6251Y-0.6418
X3.6251Y-3.2772
X3.6846Y-0.9968
X3.6846Y-3.6322
X3.7951Y-1.0093
X3.7951Y-3.6447
X3.8151Y-0.5593
X3.8151Y-0.7343
X3.8151Y-3.1947
X3.8151Y-3.3697
X3.8501Y-0.7343
X3.8501Y-3.3697
X3.8526Y-0.5593
X3.8526Y-3.1947
X4.4241Y-0.0243
X4.4241Y-2.6597
X4.4776Y-0.5418
X4.4776Y-3.1772
X4.5176Y-0.5418
X4.5176Y-3.1772
X4.5426Y-1.8418
X4.5426Y-4.4772
X4.5521Y-0.2703
X4.5521Y-2.9057
X4.6813Y-1.8431
X4.6813Y-4.4785
X4.7901Y-2.1423
X4.7901Y-4.7777
X4.8661Y-0.2703
X4.8661Y-2.9057
X4.8701Y-0.5393
X4.8701Y-3.1747
X5.0251Y-1.913
X5.0251Y-4.5484
X5.5251Y-1.462
X5.5251Y-4.0974
X5.6176Y-1.3348
X5.6176Y-1.3858
X5.6176Y-3.9702
X5.6176Y-4.0212
X5.7581Y-1.1443
X5.7581Y-1.1803
X5.7581Y-1.2163
X5.7581Y-1.2523
X5.7581Y-1.2903
X5.7581Y-1.3263
X5.7581Y-3.7797
X5.7581Y-3.8157
X5.7581Y-3.8517
X5.7581Y-3.8877
X5.7581Y-3.9257
X5.7581Y-3.9617
X5.8616Y-1.3533
X5.8616Y-3.9887
X5.8736Y-1.3253
X5.8736Y-3.9607
X5.9113Y-1.1406
X5.9113Y-1.2056
X5.9113Y-1.2706
X5.9113Y-3.776
X5.9113Y-3.841
X5.9113Y-3.906
X5.9116Y-1.3253
X5.9116Y-3.9607
X6.0341Y-0.2743
X6.0341Y-2.9097
X6.1001Y-1.3843
X6.1001Y-4.0197
X6.1576Y-0.2743
X6.1576Y-2.9097
X6.2311Y-1.457
X6.2311Y-4.0924
X6.2576Y-0.2743
X6.2576Y-2.9097
T2
X2.9976Y-0.9593
X2.9976Y-3.5947
X5.5861Y-0.811
X5.5861Y-3.4464
X6.0691Y-0.811
X6.0691Y-3.4464
X6.1601Y-1.3843
X6.1601Y-4.0197
T3
X0.061Y-1.085
X0.061Y-1.371
X0.061Y-1.821
X0.061Y-3.7204
X0.061Y-4.0064
X0.061Y-4.4564
X0.2581Y-2.325
X0.2581Y-4.9604
X0.539Y-1.821
X0.539Y-2.167
X0.539Y-4.4564
X0.539Y-4.8024
X0.787Y-1.085
X0.787Y-1.371
X0.787Y-1.819
X0.787Y-3.7204
X0.787Y-4.0064
X0.787Y-4.4544
X1.081Y-1.085
X1.081Y-1.371
X1.081Y-1.821
X1.081Y-2.167
X1.081Y-3.7204
X1.081Y-4.0064
X1.081Y-4.4564
X1.081Y-4.8024
X1.2271Y-0.133
X1.2271Y-2.7684
X1.325Y-1.371
X1.325Y-4.0064
X1.3561Y-0.0543
X1.3561Y-2.6897
X1.481Y-0.709
X1.481Y-1.085
X1.481Y-3.3444
X1.481Y-3.7204
X1.7001Y-0.2243
X1.7001Y-2.8597
X1.947Y-0.709
X1.947Y-1.085
X1.947Y-3.3444
X1.947Y-3.7204
X2.231Y0.053
X2.231Y-2.5824
X2.257Y-0.225
X2.257Y-0.709
X2.257Y-1.085
X2.257Y-2.8604
X2.257Y-3.3444
X2.257Y-3.7204
X2.339Y-1.211
X2.339Y-3.8464
X2.521Y-0.225
X2.521Y-2.8604
X2.9001Y-2.097
X2.9001Y-4.7324
X2.913Y-0.139
X2.913Y-2.7744
X2.931Y0.053
X2.931Y-2.5824
X3.225Y-1.647
X3.225Y-4.2824
X3.265Y-0.387
X3.265Y-3.0224
X3.461Y0.053
X3.461Y-2.5824
X3.615Y-2.097
X3.615Y-4.7324
X3.639Y-0.139
X3.639Y-0.387
X3.639Y-2.7744
X3.639Y-3.0224
X3.981Y-2.097
X3.981Y-4.7324
X3.985Y-0.139
X3.985Y-0.223
X3.985Y-0.387
X3.985Y-0.789
X3.985Y-1.037
X3.985Y-1.473
X3.985Y-2.7744
X3.985Y-2.8584
X3.985Y-3.0224
X3.985Y-3.4244
X3.985Y-3.6724
X3.985Y-4.1084
X4.273Y0.053
X4.273Y-2.5824
X4.385Y-0.709
X4.385Y-3.3444
X4.5201Y-0.0543
X4.5201Y-2.6897
X4.653Y-1.037
X4.653Y-3.6724
X4.681Y-1.605
X4.681Y-4.2404
X5.095Y-0.709
X5.095Y-1.037
X5.095Y-1.605
X5.095Y-3.3444
X5.095Y-3.6724
X5.095Y-4.2404
X5.365Y-0.397
X5.365Y-0.519
X5.365Y-1.037
X5.365Y-3.0324
X5.365Y-3.1544
X5.365Y-3.6724
X5.507Y-0.255
X5.507Y-2.8904
X5.571Y-1.605
X5.571Y-4.2404
X5.809Y-0.255
X5.809Y-0.519
X5.809Y-1.037
X5.809Y-2.8904
X5.809Y-3.1544
X5.809Y-3.6724
X5.8271Y-2.325
X5.8271Y-4.9604
X6.0341Y-0.4363
X6.0341Y-3.0717
X6.1001Y-1.6043
X6.1001Y-2.1723
X6.1001Y-4.2397
X6.1001Y-4.8077
T4
X2.7626Y-0.2518
X2.7626Y-0.3018
X2.7626Y-2.8872
X2.7626Y-2.9372
X2.8126Y-0.2518
X2.8126Y-0.3018
X2.8126Y-2.8872
X2.8126Y-2.9372
X2.8626Y-0.2518
X2.8626Y-0.3018
X2.8626Y-2.8872
X2.8626Y-2.9372
X2.9126Y-0.2518
X2.9126Y-0.3018
X2.9126Y-2.8872
X2.9126Y-2.9372
X2.9626Y-0.2518
X2.9626Y-0.3018
X2.9626Y-2.8872
X2.9626Y-2.9372
T5
X0.0421Y-0.6023
X0.0421Y-0.6843
X0.0421Y-0.7963
X0.0421Y-0.8803
X0.0421Y-0.9603
X0.0421Y-3.2377
X0.0421Y-3.3197
X0.0421Y-3.4317
X0.0421Y-3.5157
X0.0421Y-3.5957
X0.1461Y-0.7563
X0.1461Y-0.8403
X0.1461Y-0.9203
X0.1461Y-3.3917
X0.1461Y-3.4757
X0.1461Y-3.5557
X0.2521Y-0.7963
X0.2521Y-0.8803
X0.2521Y-0.9603
X0.2521Y-3.4317
X0.2521Y-3.5157
X0.2521Y-3.5957
X0.3501Y-0.9203
X0.3501Y-3.5557
X0.3521Y-0.7563
X0.3521Y-0.8403
X0.3521Y-3.3917
X0.3521Y-3.4757
X0.4441Y-0.6043
X0.4441Y-0.6843
X0.4441Y-0.7963
X0.4441Y-0.8803
X0.4441Y-0.9603
X0.4441Y-3.2397
X0.4441Y-3.3197
X0.4441Y-3.4317
X0.4441Y-3.5157
X0.4441Y-3.5957
X0.6641Y-0.6023
X0.6641Y-0.6843
X0.6641Y-0.7963
X0.6641Y-0.8803
X0.6641Y-0.9603
X0.6641Y-3.2377
X0.6641Y-3.3197
X0.6641Y-3.4317
X0.6641Y-3.5157
X0.6641Y-3.5957
X0.7681Y-0.7563
X0.7681Y-0.8403
X0.7681Y-0.9203
X0.7681Y-3.3917
X0.7681Y-3.4757
X0.7681Y-3.5557
X0.8741Y-0.7963
X0.8741Y-0.8803
X0.8741Y-0.9603
X0.8741Y-3.4317
X0.8741Y-3.5157
X0.8741Y-3.5957
X0.9721Y-0.9203
X0.9721Y-3.5557
X0.9741Y-0.7563
X0.9741Y-0.8403
X0.9741Y-3.3917
X0.9741Y-3.4757
X1.0661Y-0.6043
X1.0661Y-0.6843
X1.0661Y-0.7963
X1.0661Y-0.8803
X1.0661Y-0.9603
X1.0661Y-3.2397
X1.0661Y-3.3197
X1.0661Y-3.4317
X1.0661Y-3.5157
X1.0661Y-3.5957
T6
X0.5097Y-0.18
X0.5097Y-2.8154
X0.6081Y-0.18
X0.6081Y-2.8154
T7
X1.6102Y0.0506
X1.6102Y-0.5203
X1.6102Y-2.5848
X1.6102Y-3.1557
X1.7086Y-0.5203
X1.7086Y-3.1557
X1.8071Y0.0506
X1.8071Y-0.5203
X1.8071Y-2.5848
X1.8071Y-3.1557
X4.6112Y0.0526
X4.6112Y-0.5183
X4.6112Y-2.5828
X4.6112Y-3.1537
X4.7096Y-0.5183
X4.7096Y-3.1537
X4.8081Y0.0526
X4.8081Y-0.5183
X4.8081Y-2.5828
X4.8081Y-3.1537
T8
X2.8003Y-1.4743
X2.8003Y-4.1097
X2.9003Y-1.4743
X2.9003Y-4.1097
X3.5153Y-1.4743
X3.5153Y-4.1097
X3.6153Y-1.4743
X3.6153Y-4.1097
X5.3078Y-0.0293
X5.3078Y-0.1293
X5.3078Y-2.6647
X5.3078Y-2.7647
X5.4078Y-0.0293
X5.4078Y-0.1293
X5.4078Y-2.6647
X5.4078Y-2.7647
X5.5078Y-0.0293
X5.5078Y-0.1293
X5.5078Y-2.6647
X5.5078Y-2.7647
X5.6078Y-0.0293
X5.6078Y-0.1293
X5.6078Y-2.6647
X5.6078Y-2.7647
X5.7078Y-0.0293
X5.7078Y-0.1293
X5.7078Y-2.6647
X5.7078Y-2.7647
X5.8078Y-0.0293
X5.8078Y-0.1293
X5.8078Y-2.6647
X5.8078Y-2.7647
X5.9078Y-0.0293
X5.9078Y-0.1293
X5.9078Y-2.6647
X5.9078Y-2.7647
X6.0078Y-0.0293
X6.0078Y-0.1293
X6.0078Y-2.6647
X6.0078Y-2.7647
X6.1078Y-0.0293
X6.1078Y-0.1293
X6.1078Y-2.6647
X6.1078Y-2.7647
X6.2078Y-0.0293
X6.2078Y-0.1293
X6.2078Y-2.6647
X6.2078Y-2.7647
T10
X0.Y0.
X0.Y-2.32
X0.Y-2.6354
X0.Y-4.9554
X3.208Y-1.831
X3.208Y-4.4664
X6.417Y0.
X6.417Y-2.32
X6.417Y-2.6354
X6.417Y-4.9554
T9
X1.4488Y-0.2408G85X1.4488Y-0.2093
G05
X1.4488Y-2.8761G85X1.4488Y-2.8446
G05
X1.9685Y-0.2408G85X1.9685Y-0.2093
G05
X1.9685Y-2.8761G85X1.9685Y-2.8446
G05
X4.4498Y-0.2388G85X4.4498Y-0.2073
G05
X4.4498Y-2.8741G85X4.4498Y-2.8426
G05
X4.9695Y-0.2388G85X4.9695Y-0.2073
G05
X4.9695Y-2.8741G85X4.9695Y-2.8426
G05
T0
M30
