G04 #@! TF.FileFunction,Soldermask,Bot*
%FSLAX46Y46*%
G04 Gerber Fmt 4.6, Leading zero omitted, Abs format (unit mm)*
G04 Created by KiCad (PCBNEW no-vcs-found-product) date Mon 12 Oct 2015 08:19:25 AM BRT*
%MOMM*%
G01*
G04 APERTURE LIST*
%ADD10C,0.100000*%
%ADD11O,1.803200X1.803200*%
%ADD12R,1.803200X1.803200*%
%ADD13C,1.203200*%
%ADD14R,3.203200X3.203200*%
%ADD15R,0.703200X0.523200*%
%ADD16R,1.930400X1.930400*%
%ADD17O,1.930400X1.930400*%
%ADD18R,2.235200X2.235200*%
%ADD19O,2.235200X2.235200*%
%ADD20R,0.703200X1.103200*%
%ADD21R,1.253200X1.253200*%
%ADD22C,1.253200*%
%ADD23C,1.803200*%
%ADD24R,3.003200X3.803200*%
%ADD25R,1.503200X0.903200*%
%ADD26R,1.003200X0.953200*%
%ADD27R,0.953200X1.003200*%
%ADD28R,1.453200X1.203200*%
G04 APERTURE END LIST*
D10*
D11*
X12946494Y-73009906D03*
D12*
X15446494Y-73009906D03*
D13*
X150114754Y-123454306D03*
D14*
X150114754Y-123454306D03*
D13*
X81483954Y-75168906D03*
D14*
X81483954Y-75168906D03*
D13*
X3328154Y-123454306D03*
D14*
X3328154Y-123454306D03*
D15*
X79737354Y-85132806D03*
X79737354Y-86132806D03*
X79737354Y-85632806D03*
X79737354Y-86632806D03*
X78737354Y-85632806D03*
X78737354Y-85132806D03*
X78737354Y-86132806D03*
X78737354Y-86632806D03*
D16*
X134817354Y-71722306D03*
D17*
X134817354Y-69182306D03*
X137357354Y-71722306D03*
X137357354Y-69182306D03*
X139897354Y-71722306D03*
X139897354Y-69182306D03*
X142437354Y-71722306D03*
X142437354Y-69182306D03*
X144977354Y-71722306D03*
X144977354Y-69182306D03*
X147517354Y-71722306D03*
X147517354Y-69182306D03*
X150057354Y-71722306D03*
X150057354Y-69182306D03*
X152597354Y-71722306D03*
X152597354Y-69182306D03*
X155137354Y-71722306D03*
X155137354Y-69182306D03*
X157677354Y-71722306D03*
X157677354Y-69182306D03*
D18*
X73666854Y-105885306D03*
D19*
X71126854Y-105885306D03*
D18*
X91827854Y-105885306D03*
D19*
X89287854Y-105885306D03*
D20*
X10211454Y-120795106D03*
X11711454Y-120795106D03*
X10211454Y-119118706D03*
X11711454Y-119118706D03*
X10211454Y-117442306D03*
X11711454Y-117442306D03*
X10211454Y-100754506D03*
X11711454Y-100754506D03*
X10211454Y-99078106D03*
X11711454Y-99078106D03*
X10211454Y-97401706D03*
X11711454Y-97401706D03*
X152783054Y-117442306D03*
X151283054Y-117442306D03*
X39867354Y-117442306D03*
X38367354Y-117442306D03*
X152783054Y-119118706D03*
X151283054Y-119118706D03*
X39867354Y-119144106D03*
X38367354Y-119144106D03*
X152783054Y-120795106D03*
X151283054Y-120795106D03*
X39867354Y-120845906D03*
X38367354Y-120845906D03*
X152783054Y-97401706D03*
X151283054Y-97401706D03*
X116092754Y-117467706D03*
X114592754Y-117467706D03*
X152783054Y-99078106D03*
X151283054Y-99078106D03*
X116092754Y-119144106D03*
X114592754Y-119144106D03*
X152783054Y-100754506D03*
X151283054Y-100754506D03*
X116092754Y-120845906D03*
X114592754Y-120845906D03*
D21*
X75248854Y-74833806D03*
D22*
X73978854Y-74833806D03*
X72708854Y-74833806D03*
X71438854Y-74833806D03*
X70168854Y-74833806D03*
X73978854Y-76103806D03*
X72708854Y-76103806D03*
X71438854Y-76103806D03*
X70168854Y-76103806D03*
X75248854Y-76103806D03*
D23*
X40899154Y-81653706D03*
X40899154Y-67153706D03*
X45899154Y-81653706D03*
X45899154Y-67153706D03*
X43399154Y-81653706D03*
D24*
X36799154Y-74153706D03*
X49999154Y-74153706D03*
D23*
X117124554Y-81602906D03*
X117124554Y-67102906D03*
X122124554Y-81602906D03*
X122124554Y-67102906D03*
X119624554Y-81602906D03*
D24*
X113024554Y-74102906D03*
X126224554Y-74102906D03*
D25*
X8041054Y-118031406D03*
X8041054Y-119131406D03*
X8041054Y-120231406D03*
X4941054Y-120231406D03*
X4941054Y-119131406D03*
X4941054Y-118031406D03*
X8053754Y-97978106D03*
X8053754Y-99078106D03*
X8053754Y-100178106D03*
X4953754Y-100178106D03*
X4953754Y-99078106D03*
X4953754Y-97978106D03*
X154940754Y-120231406D03*
X154940754Y-119131406D03*
X154940754Y-118031406D03*
X158040754Y-118031406D03*
X158040754Y-119131406D03*
X158040754Y-120231406D03*
X41834554Y-120244106D03*
X41834554Y-119144106D03*
X41834554Y-118044106D03*
X44934554Y-118044106D03*
X44934554Y-119144106D03*
X44934554Y-120244106D03*
X154940754Y-100178106D03*
X154940754Y-99078106D03*
X154940754Y-97978106D03*
X158040754Y-97978106D03*
X158040754Y-99078106D03*
X158040754Y-100178106D03*
X118047254Y-120244106D03*
X118047254Y-119144106D03*
X118047254Y-118044106D03*
X121147254Y-118044106D03*
X121147254Y-119144106D03*
X121147254Y-120244106D03*
D26*
X6515754Y-122141306D03*
X8015754Y-122141306D03*
X6515754Y-102075306D03*
X8015754Y-102075306D03*
X156453354Y-122141306D03*
X154953354Y-122141306D03*
X43359854Y-122268306D03*
X41859854Y-122268306D03*
X156453354Y-102202306D03*
X154953354Y-102202306D03*
X119559854Y-122204806D03*
X118059854Y-122204806D03*
X77102354Y-90137306D03*
X78602354Y-90137306D03*
X77102354Y-88486306D03*
X78602354Y-88486306D03*
D27*
X90488854Y-94824306D03*
X90488854Y-93324306D03*
D28*
X43656454Y-112729906D03*
X43656454Y-114729906D03*
D27*
X45878954Y-113233906D03*
X45878954Y-114733906D03*
D28*
X118903954Y-111650406D03*
X118903954Y-113650406D03*
D27*
X121126454Y-112217906D03*
X121126454Y-113717906D03*
X121126454Y-43779702D03*
X121126454Y-45279702D03*
D28*
X118903954Y-43212202D03*
X118903954Y-45212202D03*
D27*
X45878954Y-44795702D03*
X45878954Y-46295702D03*
D28*
X43656454Y-44291702D03*
X43656454Y-46291702D03*
D27*
X90488854Y-26386102D03*
X90488854Y-24886102D03*
D26*
X77102354Y-20048102D03*
X78602354Y-20048102D03*
X77102354Y-21699102D03*
X78602354Y-21699102D03*
X119559854Y-53766602D03*
X118059854Y-53766602D03*
X156453354Y-33764102D03*
X154953354Y-33764102D03*
X43359854Y-53830102D03*
X41859854Y-53830102D03*
X156453354Y-53703102D03*
X154953354Y-53703102D03*
X6515754Y-33637102D03*
X8015754Y-33637102D03*
X6515754Y-53703102D03*
X8015754Y-53703102D03*
D25*
X118047254Y-51805902D03*
X118047254Y-50705902D03*
X118047254Y-49605902D03*
X121147254Y-49605902D03*
X121147254Y-50705902D03*
X121147254Y-51805902D03*
X154940754Y-31739902D03*
X154940754Y-30639902D03*
X154940754Y-29539902D03*
X158040754Y-29539902D03*
X158040754Y-30639902D03*
X158040754Y-31739902D03*
X41834554Y-51805902D03*
X41834554Y-50705902D03*
X41834554Y-49605902D03*
X44934554Y-49605902D03*
X44934554Y-50705902D03*
X44934554Y-51805902D03*
X154940754Y-51793202D03*
X154940754Y-50693202D03*
X154940754Y-49593202D03*
X158040754Y-49593202D03*
X158040754Y-50693202D03*
X158040754Y-51793202D03*
X8053754Y-29539902D03*
X8053754Y-30639902D03*
X8053754Y-31739902D03*
X4953754Y-31739902D03*
X4953754Y-30639902D03*
X4953754Y-29539902D03*
X8041054Y-49593202D03*
X8041054Y-50693202D03*
X8041054Y-51793202D03*
X4941054Y-51793202D03*
X4941054Y-50693202D03*
X4941054Y-49593202D03*
D23*
X117124554Y-13164702D03*
X117124554Y1335298D03*
X122124554Y-13164702D03*
X122124554Y1335298D03*
X119624554Y-13164702D03*
D24*
X113024554Y-5664702D03*
X126224554Y-5664702D03*
D23*
X40899154Y-13215502D03*
X40899154Y1284498D03*
X45899154Y-13215502D03*
X45899154Y1284498D03*
X43399154Y-13215502D03*
D24*
X36799154Y-5715502D03*
X49999154Y-5715502D03*
D21*
X75248854Y-6395602D03*
D22*
X73978854Y-6395602D03*
X72708854Y-6395602D03*
X71438854Y-6395602D03*
X70168854Y-6395602D03*
X73978854Y-7665602D03*
X72708854Y-7665602D03*
X71438854Y-7665602D03*
X70168854Y-7665602D03*
X75248854Y-7665602D03*
D20*
X116092754Y-52407702D03*
X114592754Y-52407702D03*
X152783054Y-32316302D03*
X151283054Y-32316302D03*
X116092754Y-50705902D03*
X114592754Y-50705902D03*
X152783054Y-30639902D03*
X151283054Y-30639902D03*
X116092754Y-49029502D03*
X114592754Y-49029502D03*
X152783054Y-28963502D03*
X151283054Y-28963502D03*
X39867354Y-52407702D03*
X38367354Y-52407702D03*
X152783054Y-52356902D03*
X151283054Y-52356902D03*
X39867354Y-50705902D03*
X38367354Y-50705902D03*
X152783054Y-50680502D03*
X151283054Y-50680502D03*
X39867354Y-49004102D03*
X38367354Y-49004102D03*
X152783054Y-49004102D03*
X151283054Y-49004102D03*
X10211454Y-28963502D03*
X11711454Y-28963502D03*
X10211454Y-30639902D03*
X11711454Y-30639902D03*
X10211454Y-32316302D03*
X11711454Y-32316302D03*
X10211454Y-49004102D03*
X11711454Y-49004102D03*
X10211454Y-50680502D03*
X11711454Y-50680502D03*
X10211454Y-52356902D03*
X11711454Y-52356902D03*
D18*
X91827854Y-37447102D03*
D19*
X89287854Y-37447102D03*
D18*
X73666854Y-37447102D03*
D19*
X71126854Y-37447102D03*
D16*
X134817354Y-3284102D03*
D17*
X134817354Y-744102D03*
X137357354Y-3284102D03*
X137357354Y-744102D03*
X139897354Y-3284102D03*
X139897354Y-744102D03*
X142437354Y-3284102D03*
X142437354Y-744102D03*
X144977354Y-3284102D03*
X144977354Y-744102D03*
X147517354Y-3284102D03*
X147517354Y-744102D03*
X150057354Y-3284102D03*
X150057354Y-744102D03*
X152597354Y-3284102D03*
X152597354Y-744102D03*
X155137354Y-3284102D03*
X155137354Y-744102D03*
X157677354Y-3284102D03*
X157677354Y-744102D03*
D15*
X79737354Y-16694602D03*
X79737354Y-17694602D03*
X79737354Y-17194602D03*
X79737354Y-18194602D03*
X78737354Y-17194602D03*
X78737354Y-16694602D03*
X78737354Y-17694602D03*
X78737354Y-18194602D03*
D13*
X3328154Y-55016102D03*
D14*
X3328154Y-55016102D03*
D13*
X81483954Y-6730702D03*
D14*
X81483954Y-6730702D03*
D13*
X150114754Y-55016102D03*
D14*
X150114754Y-55016102D03*
D11*
X12946494Y-4571702D03*
D12*
X15446494Y-4571702D03*
M02*
