G04 #@! TF.FileFunction,Soldermask,Top*
%FSLAX46Y46*%
G04 Gerber Fmt 4.6, Leading zero omitted, Abs format (unit mm)*
G04 Created by KiCad (PCBNEW no-vcs-found-product) date Sat 10 Oct 2015 11:57:04 PM BRT*
%MOMM*%
G01*
G04 APERTURE LIST*
%ADD10C,0.100000*%
%ADD11O,1.803200X1.803200*%
%ADD12R,1.803200X1.803200*%
%ADD13R,1.203200X3.403200*%
%ADD14C,1.203200*%
%ADD15R,3.203200X3.203200*%
%ADD16R,2.203200X3.203200*%
%ADD17R,0.503200X1.453200*%
%ADD18R,1.930400X1.930400*%
%ADD19O,1.930400X1.930400*%
%ADD20R,0.853200X1.263200*%
%ADD21R,1.854200X3.251200*%
%ADD22R,6.299200X6.299200*%
%ADD23R,1.103200X0.703200*%
%ADD24R,0.703200X1.103200*%
%ADD25R,1.003300X1.003300*%
%ADD26R,0.793200X0.653200*%
%ADD27R,0.653200X0.793200*%
%ADD28R,0.953200X1.003200*%
%ADD29R,1.203200X1.453200*%
%ADD30R,2.235200X2.235200*%
%ADD31O,2.235200X2.235200*%
%ADD32R,2.303780X5.803900*%
%ADD33R,1.303200X0.603200*%
%ADD34R,1.703200X0.483200*%
%ADD35R,0.483200X1.703200*%
%ADD36R,1.803200X2.383200*%
%ADD37R,1.253200X1.253200*%
%ADD38C,1.253200*%
%ADD39R,1.203200X3.053200*%
%ADD40R,1.603200X4.003200*%
%ADD41C,1.803200*%
%ADD42R,3.003200X3.803200*%
%ADD43R,1.003200X0.953200*%
%ADD44R,1.453200X1.203200*%
%ADD45R,3.802380X1.803400*%
%ADD46C,0.254000*%
G04 APERTURE END LIST*
D10*
D11*
X12946494Y-71509908D03*
D12*
X15446494Y-71509908D03*
D13*
X63047294Y-121497108D03*
X56847294Y-121497108D03*
X139247294Y-121497108D03*
X133047294Y-121497108D03*
D14*
X150114754Y-121954308D03*
D15*
X150114754Y-121954308D03*
D14*
X81483954Y-73668908D03*
D15*
X81483954Y-73668908D03*
D14*
X3328154Y-121954308D03*
D15*
X3328154Y-121954308D03*
D16*
X33645354Y-113212808D03*
X53225354Y-113212808D03*
D17*
X50685354Y-115537808D03*
X50185354Y-115537808D03*
X49685354Y-115537808D03*
X49185354Y-115537808D03*
X48685354Y-115537808D03*
X48185354Y-115537808D03*
X47685354Y-115537808D03*
X47185354Y-115537808D03*
X46685354Y-115537808D03*
X46185354Y-115537808D03*
X45685354Y-115537808D03*
X45185354Y-115537808D03*
X44685354Y-115537808D03*
X44185354Y-115537808D03*
X43685354Y-115537808D03*
X43185354Y-115537808D03*
X42685354Y-115537808D03*
X42185354Y-115537808D03*
X41685354Y-115537808D03*
X41185354Y-115537808D03*
X40685354Y-115537808D03*
X40185354Y-115537808D03*
X39685354Y-115537808D03*
X39185354Y-115537808D03*
X38685354Y-115537808D03*
X38185354Y-115537808D03*
X37685354Y-115537808D03*
X37185354Y-115537808D03*
X36685354Y-115537808D03*
X36185354Y-115537808D03*
D16*
X109845354Y-113212808D03*
X129425354Y-113212808D03*
D17*
X126885354Y-115537808D03*
X126385354Y-115537808D03*
X125885354Y-115537808D03*
X125385354Y-115537808D03*
X124885354Y-115537808D03*
X124385354Y-115537808D03*
X123885354Y-115537808D03*
X123385354Y-115537808D03*
X122885354Y-115537808D03*
X122385354Y-115537808D03*
X121885354Y-115537808D03*
X121385354Y-115537808D03*
X120885354Y-115537808D03*
X120385354Y-115537808D03*
X119885354Y-115537808D03*
X119385354Y-115537808D03*
X118885354Y-115537808D03*
X118385354Y-115537808D03*
X117885354Y-115537808D03*
X117385354Y-115537808D03*
X116885354Y-115537808D03*
X116385354Y-115537808D03*
X115885354Y-115537808D03*
X115385354Y-115537808D03*
X114885354Y-115537808D03*
X114385354Y-115537808D03*
X113885354Y-115537808D03*
X113385354Y-115537808D03*
X112885354Y-115537808D03*
X112385354Y-115537808D03*
D18*
X134817354Y-70222308D03*
D19*
X134817354Y-67682308D03*
X137357354Y-70222308D03*
X137357354Y-67682308D03*
X139897354Y-70222308D03*
X139897354Y-67682308D03*
X142437354Y-70222308D03*
X142437354Y-67682308D03*
X144977354Y-70222308D03*
X144977354Y-67682308D03*
X147517354Y-70222308D03*
X147517354Y-67682308D03*
X150057354Y-70222308D03*
X150057354Y-67682308D03*
X152597354Y-70222308D03*
X152597354Y-67682308D03*
X155137354Y-70222308D03*
X155137354Y-67682308D03*
X157677354Y-70222308D03*
X157677354Y-67682308D03*
D20*
X62424354Y-83895308D03*
X63374354Y-83895308D03*
X64324354Y-83895308D03*
X64324354Y-81695308D03*
X62424354Y-81695308D03*
D21*
X8637354Y-75873808D03*
D22*
X6351354Y-82223808D03*
D21*
X4065354Y-75873808D03*
D23*
X60770854Y-84267808D03*
X60770854Y-85767808D03*
X153264954Y-74655308D03*
X153264954Y-73155308D03*
X156414554Y-74655308D03*
X156414554Y-73155308D03*
X158941854Y-74655308D03*
X158941854Y-73155308D03*
D24*
X65862854Y-85716308D03*
X67362854Y-85716308D03*
X67362854Y-83874808D03*
X65862854Y-83874808D03*
X67362854Y-79810808D03*
X65862854Y-79810808D03*
D25*
X94525614Y-94159308D03*
X94525614Y-92259308D03*
X92526634Y-93209308D03*
D26*
X64556354Y-85779808D03*
X62446354Y-85779808D03*
D27*
X70156154Y-82070508D03*
X70156154Y-84180508D03*
D26*
X64302354Y-79810808D03*
X62192354Y-79810808D03*
D28*
X65914354Y-92332308D03*
X65914354Y-93832308D03*
D29*
X68120854Y-81842808D03*
X66120854Y-81842808D03*
D28*
X19866094Y-72869508D03*
X19866094Y-71369508D03*
D30*
X73666854Y-104385308D03*
D31*
X71126854Y-104385308D03*
D30*
X91827854Y-104385308D03*
D31*
X89287854Y-104385308D03*
D32*
X70346654Y-88169948D03*
X70346654Y-97867668D03*
D33*
X147326554Y-104089108D03*
X147326554Y-103439108D03*
X147326554Y-102789108D03*
X147326554Y-102139108D03*
X147326554Y-101489108D03*
X147326554Y-100839108D03*
X147326554Y-100189108D03*
X147326554Y-99539108D03*
X147326554Y-98889108D03*
X147326554Y-98239108D03*
X147326554Y-97589108D03*
X147326554Y-96939108D03*
X147326554Y-96289108D03*
X147326554Y-95639108D03*
X141626554Y-95639108D03*
X141626554Y-96289108D03*
X141626554Y-96939108D03*
X141626554Y-97589108D03*
X141626554Y-98239108D03*
X141626554Y-98889108D03*
X141626554Y-99539108D03*
X141626554Y-100189108D03*
X141626554Y-100839108D03*
X141626554Y-101489108D03*
X141626554Y-102139108D03*
X141626554Y-102789108D03*
X141626554Y-103439108D03*
X141626554Y-104089108D03*
D34*
X74609954Y-83785708D03*
X74609954Y-84285708D03*
X74609954Y-84785708D03*
X74609954Y-85285708D03*
X74609954Y-85785708D03*
X74609954Y-86285708D03*
X74609954Y-86785708D03*
X74609954Y-87285708D03*
X74609954Y-87785708D03*
X74609954Y-88285708D03*
X74609954Y-88785708D03*
X74609954Y-89285708D03*
X74609954Y-89785708D03*
X74609954Y-90285708D03*
X74609954Y-90785708D03*
X74609954Y-91285708D03*
X74609954Y-91785708D03*
X74609954Y-92285708D03*
X74609954Y-92785708D03*
X74609954Y-93285708D03*
D35*
X76759954Y-95435708D03*
X77259954Y-95435708D03*
X77759954Y-95435708D03*
X78259954Y-95435708D03*
X78759954Y-95435708D03*
X79259954Y-95435708D03*
X79759954Y-95435708D03*
X80259954Y-95435708D03*
X80759954Y-95435708D03*
X81259954Y-95435708D03*
X81759954Y-95435708D03*
X82259954Y-95435708D03*
X82759954Y-95435708D03*
X83259954Y-95435708D03*
X83759954Y-95435708D03*
X84259954Y-95435708D03*
X84759954Y-95435708D03*
X85259954Y-95435708D03*
X85759954Y-95435708D03*
X86259954Y-95435708D03*
D34*
X88409954Y-93285708D03*
X88409954Y-92785708D03*
X88409954Y-92285708D03*
X88409954Y-91785708D03*
X88409954Y-91285708D03*
X88409954Y-90785708D03*
X88409954Y-90285708D03*
X88409954Y-89785708D03*
X88409954Y-89285708D03*
X88409954Y-88785708D03*
X88409954Y-88285708D03*
X88409954Y-87785708D03*
X88409954Y-87285708D03*
X88409954Y-86785708D03*
X88409954Y-86285708D03*
X88409954Y-85785708D03*
X88409954Y-85285708D03*
X88409954Y-84785708D03*
X88409954Y-84285708D03*
X88409954Y-83785708D03*
D35*
X86259954Y-81635708D03*
X85759954Y-81635708D03*
X85259954Y-81635708D03*
X84759954Y-81635708D03*
X84259954Y-81635708D03*
X83759954Y-81635708D03*
X83259954Y-81635708D03*
X82759954Y-81635708D03*
X82259954Y-81635708D03*
X81759954Y-81635708D03*
X81259954Y-81635708D03*
X80759954Y-81635708D03*
X80259954Y-81635708D03*
X79759954Y-81635708D03*
X79259954Y-81635708D03*
X78759954Y-81635708D03*
X78259954Y-81635708D03*
X77759954Y-81635708D03*
X77259954Y-81635708D03*
X76759954Y-81635708D03*
D21*
X24448854Y-75873808D03*
D22*
X22162854Y-82223808D03*
D21*
X19876854Y-75873808D03*
D36*
X62995454Y-88469768D03*
X62990814Y-97674628D03*
D24*
X45860354Y-77867708D03*
X47360354Y-77867708D03*
X122111154Y-77867708D03*
X123611154Y-77867708D03*
X47360354Y-76140508D03*
X45860354Y-76140508D03*
X123611154Y-76140508D03*
X122111154Y-76140508D03*
D23*
X83757854Y-103166808D03*
X83757854Y-101666808D03*
D24*
X40883354Y-77867708D03*
X39383354Y-77867708D03*
X117134154Y-77867708D03*
X115634154Y-77867708D03*
X39383354Y-76140508D03*
X40883354Y-76140508D03*
X115634154Y-76140508D03*
X117134154Y-76140508D03*
D23*
X36120154Y-68305308D03*
X36120154Y-66805308D03*
X112370954Y-68305308D03*
X112370954Y-66805308D03*
X85535854Y-103166808D03*
X85535854Y-101666808D03*
X70105354Y-79862308D03*
X70105354Y-78362308D03*
X72454854Y-79862308D03*
X72454854Y-78362308D03*
X74423354Y-79862308D03*
X74423354Y-78362308D03*
X76455354Y-79862308D03*
X76455354Y-78362308D03*
X96394354Y-93324308D03*
X96394354Y-91824308D03*
D24*
X65915594Y-112353108D03*
X67415594Y-112353108D03*
X142102894Y-112353108D03*
X143602894Y-112353108D03*
D25*
X67425094Y-113968548D03*
X65525094Y-113968548D03*
X66475094Y-115967528D03*
X143612394Y-113955848D03*
X141712394Y-113955848D03*
X142662394Y-115954828D03*
D37*
X75248854Y-73333808D03*
D38*
X73978854Y-73333808D03*
X72708854Y-73333808D03*
X71438854Y-73333808D03*
X70168854Y-73333808D03*
X73978854Y-74603808D03*
X72708854Y-74603808D03*
X71438854Y-74603808D03*
X70168854Y-74603808D03*
X75248854Y-74603808D03*
D39*
X58945354Y-117448308D03*
X60945354Y-117448308D03*
D40*
X56695354Y-111073308D03*
X63195354Y-111073308D03*
D39*
X135145354Y-117448308D03*
X137145354Y-117448308D03*
D40*
X132895354Y-111073308D03*
X139395354Y-111073308D03*
D41*
X40899154Y-80153708D03*
X40899154Y-65653708D03*
X45899154Y-80153708D03*
X45899154Y-65653708D03*
X43399154Y-80153708D03*
D42*
X36799154Y-72653708D03*
X49999154Y-72653708D03*
D41*
X117124554Y-80102908D03*
X117124554Y-65602908D03*
X122124554Y-80102908D03*
X122124554Y-65602908D03*
X119624554Y-80102908D03*
D42*
X113024554Y-72602908D03*
X126224554Y-72602908D03*
D28*
X44375154Y-77728708D03*
X44375154Y-76228708D03*
X120625954Y-77728708D03*
X120625954Y-76228708D03*
X42368554Y-77728708D03*
X42368554Y-76228708D03*
X118619354Y-77728708D03*
X118619354Y-76228708D03*
X66803354Y-97896308D03*
X66803354Y-96396308D03*
X66803354Y-88204808D03*
X66803354Y-89704808D03*
X82932354Y-97475808D03*
X82932354Y-98975808D03*
X82945754Y-79659108D03*
X82945754Y-78159108D03*
X78233354Y-79671808D03*
X78233354Y-78171808D03*
D43*
X90298354Y-86224308D03*
X91798354Y-86224308D03*
D28*
X76201354Y-97920308D03*
X76201354Y-99420308D03*
D44*
X36831354Y-122339808D03*
X36831354Y-120339808D03*
X51944354Y-122339808D03*
X51944354Y-120339808D03*
X49785354Y-122339808D03*
X49785354Y-120339808D03*
X47626354Y-122339808D03*
X47626354Y-120339808D03*
X43308354Y-122339808D03*
X43308354Y-120339808D03*
X45467354Y-122339808D03*
X45467354Y-120339808D03*
X54103354Y-122339808D03*
X54103354Y-120339808D03*
X41149354Y-122339808D03*
X41149354Y-120339808D03*
X38990354Y-120339808D03*
X38990354Y-122339808D03*
X113031354Y-122339808D03*
X113031354Y-120339808D03*
X128144354Y-122339808D03*
X128144354Y-120339808D03*
X125985354Y-122339808D03*
X125985354Y-120339808D03*
X123826354Y-122339808D03*
X123826354Y-120339808D03*
X119508354Y-122339808D03*
X119508354Y-120339808D03*
X121667354Y-122339808D03*
X121667354Y-120339808D03*
X130303354Y-122339808D03*
X130303354Y-120339808D03*
X117349354Y-122339808D03*
X117349354Y-120339808D03*
X115190354Y-120339808D03*
X115190354Y-122339808D03*
D45*
X27898174Y-68317308D03*
X22396534Y-68317308D03*
D43*
X24817854Y-72952808D03*
X23317854Y-72952808D03*
X5603294Y-72678308D03*
X7103294Y-72678308D03*
X5603294Y-5740102D03*
X7103294Y-5740102D03*
X24817854Y-6014602D03*
X23317854Y-6014602D03*
D45*
X27898174Y-1379102D03*
X22396534Y-1379102D03*
D44*
X115190354Y-53401602D03*
X115190354Y-55401602D03*
X117349354Y-55401602D03*
X117349354Y-53401602D03*
X130303354Y-55401602D03*
X130303354Y-53401602D03*
X121667354Y-55401602D03*
X121667354Y-53401602D03*
X119508354Y-55401602D03*
X119508354Y-53401602D03*
X123826354Y-55401602D03*
X123826354Y-53401602D03*
X125985354Y-55401602D03*
X125985354Y-53401602D03*
X128144354Y-55401602D03*
X128144354Y-53401602D03*
X113031354Y-55401602D03*
X113031354Y-53401602D03*
X38990354Y-53401602D03*
X38990354Y-55401602D03*
X41149354Y-55401602D03*
X41149354Y-53401602D03*
X54103354Y-55401602D03*
X54103354Y-53401602D03*
X45467354Y-55401602D03*
X45467354Y-53401602D03*
X43308354Y-55401602D03*
X43308354Y-53401602D03*
X47626354Y-55401602D03*
X47626354Y-53401602D03*
X49785354Y-55401602D03*
X49785354Y-53401602D03*
X51944354Y-55401602D03*
X51944354Y-53401602D03*
X36831354Y-55401602D03*
X36831354Y-53401602D03*
D28*
X76201354Y-30982102D03*
X76201354Y-32482102D03*
D43*
X90298354Y-19286102D03*
X91798354Y-19286102D03*
D28*
X78233354Y-12733602D03*
X78233354Y-11233602D03*
X82945754Y-12720902D03*
X82945754Y-11220902D03*
X82932354Y-30537602D03*
X82932354Y-32037602D03*
X66803354Y-21266602D03*
X66803354Y-22766602D03*
X66803354Y-30958102D03*
X66803354Y-29458102D03*
X118619354Y-10790502D03*
X118619354Y-9290502D03*
X42368554Y-10790502D03*
X42368554Y-9290502D03*
X120625954Y-10790502D03*
X120625954Y-9290502D03*
X44375154Y-10790502D03*
X44375154Y-9290502D03*
D41*
X117124554Y-13164702D03*
X117124554Y1335298D03*
X122124554Y-13164702D03*
X122124554Y1335298D03*
X119624554Y-13164702D03*
D42*
X113024554Y-5664702D03*
X126224554Y-5664702D03*
D41*
X40899154Y-13215502D03*
X40899154Y1284498D03*
X45899154Y-13215502D03*
X45899154Y1284498D03*
X43399154Y-13215502D03*
D42*
X36799154Y-5715502D03*
X49999154Y-5715502D03*
D39*
X135145354Y-50510102D03*
X137145354Y-50510102D03*
D40*
X132895354Y-44135102D03*
X139395354Y-44135102D03*
D39*
X58945354Y-50510102D03*
X60945354Y-50510102D03*
D40*
X56695354Y-44135102D03*
X63195354Y-44135102D03*
D37*
X75248854Y-6395602D03*
D38*
X73978854Y-6395602D03*
X72708854Y-6395602D03*
X71438854Y-6395602D03*
X70168854Y-6395602D03*
X73978854Y-7665602D03*
X72708854Y-7665602D03*
X71438854Y-7665602D03*
X70168854Y-7665602D03*
X75248854Y-7665602D03*
D25*
X143612394Y-47017642D03*
X141712394Y-47017642D03*
X142662394Y-49016622D03*
X67425094Y-47030342D03*
X65525094Y-47030342D03*
X66475094Y-49029322D03*
D24*
X142102894Y-45414902D03*
X143602894Y-45414902D03*
X65915594Y-45414902D03*
X67415594Y-45414902D03*
D23*
X96394354Y-26386102D03*
X96394354Y-24886102D03*
X76455354Y-12924102D03*
X76455354Y-11424102D03*
X74423354Y-12924102D03*
X74423354Y-11424102D03*
X72454854Y-12924102D03*
X72454854Y-11424102D03*
X70105354Y-12924102D03*
X70105354Y-11424102D03*
X85535854Y-36228602D03*
X85535854Y-34728602D03*
X112370954Y-1367102D03*
X112370954Y132898D03*
X36120154Y-1367102D03*
X36120154Y132898D03*
D24*
X115634154Y-9202302D03*
X117134154Y-9202302D03*
X39383354Y-9202302D03*
X40883354Y-9202302D03*
X117134154Y-10929502D03*
X115634154Y-10929502D03*
X40883354Y-10929502D03*
X39383354Y-10929502D03*
D23*
X83757854Y-36228602D03*
X83757854Y-34728602D03*
D24*
X123611154Y-9202302D03*
X122111154Y-9202302D03*
X47360354Y-9202302D03*
X45860354Y-9202302D03*
X122111154Y-10929502D03*
X123611154Y-10929502D03*
X45860354Y-10929502D03*
X47360354Y-10929502D03*
D36*
X62995454Y-21531562D03*
X62990814Y-30736422D03*
D21*
X24448854Y-8935602D03*
D22*
X22162854Y-15285602D03*
D21*
X19876854Y-8935602D03*
D34*
X74609954Y-16847502D03*
X74609954Y-17347502D03*
X74609954Y-17847502D03*
X74609954Y-18347502D03*
X74609954Y-18847502D03*
X74609954Y-19347502D03*
X74609954Y-19847502D03*
X74609954Y-20347502D03*
X74609954Y-20847502D03*
X74609954Y-21347502D03*
X74609954Y-21847502D03*
X74609954Y-22347502D03*
X74609954Y-22847502D03*
X74609954Y-23347502D03*
X74609954Y-23847502D03*
X74609954Y-24347502D03*
X74609954Y-24847502D03*
X74609954Y-25347502D03*
X74609954Y-25847502D03*
X74609954Y-26347502D03*
D35*
X76759954Y-28497502D03*
X77259954Y-28497502D03*
X77759954Y-28497502D03*
X78259954Y-28497502D03*
X78759954Y-28497502D03*
X79259954Y-28497502D03*
X79759954Y-28497502D03*
X80259954Y-28497502D03*
X80759954Y-28497502D03*
X81259954Y-28497502D03*
X81759954Y-28497502D03*
X82259954Y-28497502D03*
X82759954Y-28497502D03*
X83259954Y-28497502D03*
X83759954Y-28497502D03*
X84259954Y-28497502D03*
X84759954Y-28497502D03*
X85259954Y-28497502D03*
X85759954Y-28497502D03*
X86259954Y-28497502D03*
D34*
X88409954Y-26347502D03*
X88409954Y-25847502D03*
X88409954Y-25347502D03*
X88409954Y-24847502D03*
X88409954Y-24347502D03*
X88409954Y-23847502D03*
X88409954Y-23347502D03*
X88409954Y-22847502D03*
X88409954Y-22347502D03*
X88409954Y-21847502D03*
X88409954Y-21347502D03*
X88409954Y-20847502D03*
X88409954Y-20347502D03*
X88409954Y-19847502D03*
X88409954Y-19347502D03*
X88409954Y-18847502D03*
X88409954Y-18347502D03*
X88409954Y-17847502D03*
X88409954Y-17347502D03*
X88409954Y-16847502D03*
D35*
X86259954Y-14697502D03*
X85759954Y-14697502D03*
X85259954Y-14697502D03*
X84759954Y-14697502D03*
X84259954Y-14697502D03*
X83759954Y-14697502D03*
X83259954Y-14697502D03*
X82759954Y-14697502D03*
X82259954Y-14697502D03*
X81759954Y-14697502D03*
X81259954Y-14697502D03*
X80759954Y-14697502D03*
X80259954Y-14697502D03*
X79759954Y-14697502D03*
X79259954Y-14697502D03*
X78759954Y-14697502D03*
X78259954Y-14697502D03*
X77759954Y-14697502D03*
X77259954Y-14697502D03*
X76759954Y-14697502D03*
D33*
X147326554Y-37150902D03*
X147326554Y-36500902D03*
X147326554Y-35850902D03*
X147326554Y-35200902D03*
X147326554Y-34550902D03*
X147326554Y-33900902D03*
X147326554Y-33250902D03*
X147326554Y-32600902D03*
X147326554Y-31950902D03*
X147326554Y-31300902D03*
X147326554Y-30650902D03*
X147326554Y-30000902D03*
X147326554Y-29350902D03*
X147326554Y-28700902D03*
X141626554Y-28700902D03*
X141626554Y-29350902D03*
X141626554Y-30000902D03*
X141626554Y-30650902D03*
X141626554Y-31300902D03*
X141626554Y-31950902D03*
X141626554Y-32600902D03*
X141626554Y-33250902D03*
X141626554Y-33900902D03*
X141626554Y-34550902D03*
X141626554Y-35200902D03*
X141626554Y-35850902D03*
X141626554Y-36500902D03*
X141626554Y-37150902D03*
D32*
X70346654Y-21231742D03*
X70346654Y-30929462D03*
D30*
X91827854Y-37447102D03*
D31*
X89287854Y-37447102D03*
D30*
X73666854Y-37447102D03*
D31*
X71126854Y-37447102D03*
D28*
X19866094Y-5931302D03*
X19866094Y-4431302D03*
D29*
X68120854Y-14904602D03*
X66120854Y-14904602D03*
D28*
X65914354Y-25394102D03*
X65914354Y-26894102D03*
D26*
X64302354Y-12872602D03*
X62192354Y-12872602D03*
D27*
X70156154Y-15132302D03*
X70156154Y-17242302D03*
D26*
X64556354Y-18841602D03*
X62446354Y-18841602D03*
D25*
X94525614Y-27221102D03*
X94525614Y-25321102D03*
X92526634Y-26271102D03*
D24*
X67362854Y-12872602D03*
X65862854Y-12872602D03*
X67362854Y-16936602D03*
X65862854Y-16936602D03*
X65862854Y-18778102D03*
X67362854Y-18778102D03*
D23*
X158941854Y-7717102D03*
X158941854Y-6217102D03*
X156414554Y-7717102D03*
X156414554Y-6217102D03*
X153264954Y-7717102D03*
X153264954Y-6217102D03*
X60770854Y-17329602D03*
X60770854Y-18829602D03*
D21*
X8637354Y-8935602D03*
D22*
X6351354Y-15285602D03*
D21*
X4065354Y-8935602D03*
D20*
X62424354Y-16957102D03*
X63374354Y-16957102D03*
X64324354Y-16957102D03*
X64324354Y-14757102D03*
X62424354Y-14757102D03*
D18*
X134817354Y-3284102D03*
D19*
X134817354Y-744102D03*
X137357354Y-3284102D03*
X137357354Y-744102D03*
X139897354Y-3284102D03*
X139897354Y-744102D03*
X142437354Y-3284102D03*
X142437354Y-744102D03*
X144977354Y-3284102D03*
X144977354Y-744102D03*
X147517354Y-3284102D03*
X147517354Y-744102D03*
X150057354Y-3284102D03*
X150057354Y-744102D03*
X152597354Y-3284102D03*
X152597354Y-744102D03*
X155137354Y-3284102D03*
X155137354Y-744102D03*
X157677354Y-3284102D03*
X157677354Y-744102D03*
D16*
X109845354Y-46274602D03*
X129425354Y-46274602D03*
D17*
X126885354Y-48599602D03*
X126385354Y-48599602D03*
X125885354Y-48599602D03*
X125385354Y-48599602D03*
X124885354Y-48599602D03*
X124385354Y-48599602D03*
X123885354Y-48599602D03*
X123385354Y-48599602D03*
X122885354Y-48599602D03*
X122385354Y-48599602D03*
X121885354Y-48599602D03*
X121385354Y-48599602D03*
X120885354Y-48599602D03*
X120385354Y-48599602D03*
X119885354Y-48599602D03*
X119385354Y-48599602D03*
X118885354Y-48599602D03*
X118385354Y-48599602D03*
X117885354Y-48599602D03*
X117385354Y-48599602D03*
X116885354Y-48599602D03*
X116385354Y-48599602D03*
X115885354Y-48599602D03*
X115385354Y-48599602D03*
X114885354Y-48599602D03*
X114385354Y-48599602D03*
X113885354Y-48599602D03*
X113385354Y-48599602D03*
X112885354Y-48599602D03*
X112385354Y-48599602D03*
D16*
X33645354Y-46274602D03*
X53225354Y-46274602D03*
D17*
X50685354Y-48599602D03*
X50185354Y-48599602D03*
X49685354Y-48599602D03*
X49185354Y-48599602D03*
X48685354Y-48599602D03*
X48185354Y-48599602D03*
X47685354Y-48599602D03*
X47185354Y-48599602D03*
X46685354Y-48599602D03*
X46185354Y-48599602D03*
X45685354Y-48599602D03*
X45185354Y-48599602D03*
X44685354Y-48599602D03*
X44185354Y-48599602D03*
X43685354Y-48599602D03*
X43185354Y-48599602D03*
X42685354Y-48599602D03*
X42185354Y-48599602D03*
X41685354Y-48599602D03*
X41185354Y-48599602D03*
X40685354Y-48599602D03*
X40185354Y-48599602D03*
X39685354Y-48599602D03*
X39185354Y-48599602D03*
X38685354Y-48599602D03*
X38185354Y-48599602D03*
X37685354Y-48599602D03*
X37185354Y-48599602D03*
X36685354Y-48599602D03*
X36185354Y-48599602D03*
D14*
X3328154Y-55016102D03*
D15*
X3328154Y-55016102D03*
D14*
X81483954Y-6730702D03*
D15*
X81483954Y-6730702D03*
D14*
X150114754Y-55016102D03*
D15*
X150114754Y-55016102D03*
D13*
X139247294Y-54558902D03*
X133047294Y-54558902D03*
X63047294Y-54558902D03*
X56847294Y-54558902D03*
D11*
X12946494Y-4571702D03*
D12*
X15446494Y-4571702D03*
D46*
G36*
X29730144Y-11201494D02*
X29850345Y-11281811D01*
X29930662Y-11402012D01*
X29961354Y-11556311D01*
X29961354Y-26088793D01*
X29930662Y-26243092D01*
X29850345Y-26363293D01*
X29730144Y-26443610D01*
X29575845Y-26474302D01*
X-1009437Y-26474302D01*
X-1163736Y-26443610D01*
X-1283937Y-26363293D01*
X-1364254Y-26243092D01*
X-1394946Y-26088793D01*
X-1394946Y-11556311D01*
X-1364254Y-11402012D01*
X-1283937Y-11281811D01*
X-1163736Y-11201494D01*
X-1009437Y-11170802D01*
X29575845Y-11170802D01*
X29730144Y-11201494D01*
X29730144Y-11201494D01*
G37*
X29730144Y-11201494D02*
X29850345Y-11281811D01*
X29930662Y-11402012D01*
X29961354Y-11556311D01*
X29961354Y-26088793D01*
X29930662Y-26243092D01*
X29850345Y-26363293D01*
X29730144Y-26443610D01*
X29575845Y-26474302D01*
X-1009437Y-26474302D01*
X-1163736Y-26443610D01*
X-1283937Y-26363293D01*
X-1364254Y-26243092D01*
X-1394946Y-26088793D01*
X-1394946Y-11556311D01*
X-1364254Y-11402012D01*
X-1283937Y-11281811D01*
X-1163736Y-11201494D01*
X-1009437Y-11170802D01*
X29575845Y-11170802D01*
X29730144Y-11201494D01*
G36*
X29730144Y-78139700D02*
X29850345Y-78220017D01*
X29930662Y-78340218D01*
X29961354Y-78494517D01*
X29961354Y-93026999D01*
X29930662Y-93181298D01*
X29850345Y-93301499D01*
X29730144Y-93381816D01*
X29575845Y-93412508D01*
X-1009437Y-93412508D01*
X-1163736Y-93381816D01*
X-1283937Y-93301499D01*
X-1364254Y-93181298D01*
X-1394946Y-93026999D01*
X-1394946Y-78494517D01*
X-1364254Y-78340218D01*
X-1283937Y-78220017D01*
X-1163736Y-78139700D01*
X-1009437Y-78109008D01*
X29575845Y-78109008D01*
X29730144Y-78139700D01*
X29730144Y-78139700D01*
G37*
X29730144Y-78139700D02*
X29850345Y-78220017D01*
X29930662Y-78340218D01*
X29961354Y-78494517D01*
X29961354Y-93026999D01*
X29930662Y-93181298D01*
X29850345Y-93301499D01*
X29730144Y-93381816D01*
X29575845Y-93412508D01*
X-1009437Y-93412508D01*
X-1163736Y-93381816D01*
X-1283937Y-93301499D01*
X-1364254Y-93181298D01*
X-1394946Y-93026999D01*
X-1394946Y-78494517D01*
X-1364254Y-78340218D01*
X-1283937Y-78220017D01*
X-1163736Y-78139700D01*
X-1009437Y-78109008D01*
X29575845Y-78109008D01*
X29730144Y-78139700D01*
M02*
