G04 #@! TF.FileFunction,Profile,NP*
%FSLAX46Y46*%
G04 Gerber Fmt 4.6, Leading zero omitted, Abs format (unit mm)*
G04 Created by KiCad (PCBNEW no-vcs-found-product) date Mon 12 Oct 2015 08:57:56 AM BRT*
%MOMM*%
G01*
G04 APERTURE LIST*
%ADD10C,0.100000*%
%ADD11C,0.254000*%
G04 APERTURE END LIST*
D10*
D11*
X-3507740Y-130871213D02*
X166492262Y-130871213D01*
X-3507740Y3505200D02*
X166492262Y3505200D01*
X84482940Y-64932560D02*
X122496580Y-64932560D01*
X84482940Y-62435740D02*
X122496580Y-62435740D01*
X84482940Y-62435740D02*
X84482940Y-64932560D01*
X81488280Y-62435740D02*
X81488280Y-64932560D01*
X40487600Y-64932560D02*
X81488280Y-64932560D01*
D10*
X81488280Y-62435740D02*
X81490820Y-62435740D01*
D11*
X40487600Y-62435740D02*
X81488280Y-62435740D01*
D10*
X166491920Y-64932560D02*
X166494460Y-64932560D01*
D11*
X125491240Y-64932560D02*
X166491920Y-64932560D01*
X-3507740Y-64932560D02*
X37492940Y-64932560D01*
X125491240Y-62435740D02*
X166491920Y-62435740D01*
X-3507740Y-62435740D02*
X37492940Y-62435740D01*
X122496580Y-62435740D02*
X122496580Y-64932560D01*
X125491240Y-62435740D02*
X125491240Y-64932560D01*
X37492940Y-62435740D02*
X37492940Y-64932560D01*
X40487600Y-62435740D02*
X40487600Y-64932560D01*
X166491920Y3505200D02*
X166491920Y-62433200D01*
D10*
X166491920Y-62435740D02*
X166494460Y-62435740D01*
D11*
X166491920Y-64932560D02*
X166491920Y-130870960D01*
X-3507740Y-64932560D02*
X-3507740Y-130870960D01*
X-3507740Y3502660D02*
X-3507740Y-62435740D01*
M02*
