G04 Layer_Color=8421504*
%FSLAX44Y44*%
%MOMM*%
G71*
G01*
G75*
%ADD10R,1.0000X0.9000*%
%ADD11R,0.9000X1.0000*%
%ADD12R,1.0000X1.0000*%
%ADD13R,1.3000X0.7000*%
%ADD14R,1.6000X1.4000*%
%ADD15R,1.3000X1.5000*%
%ADD17R,1.8000X3.0500*%
%ADD63C,0.0130*%
%ADD64R,0.6000X0.6000*%
%ADD65R,1.0500X0.3000*%
%ADD66R,0.3000X1.0500*%
D10*
X708660Y392920D02*
D03*
Y375920D02*
D03*
X370840Y831460D02*
D03*
X370840Y814460D02*
D03*
X1130300Y831460D02*
D03*
Y814460D02*
D03*
X467793Y802097D02*
D03*
Y819097D02*
D03*
X617793Y802097D02*
D03*
Y819097D02*
D03*
X767793Y802097D02*
D03*
Y819097D02*
D03*
X47793Y42097D02*
D03*
Y59097D02*
D03*
X427793Y42097D02*
D03*
Y59097D02*
D03*
X807793Y42097D02*
D03*
Y59097D02*
D03*
X1187793Y42097D02*
D03*
Y59097D02*
D03*
D11*
X255750Y638880D02*
D03*
X238750D02*
D03*
Y623640D02*
D03*
X255750D02*
D03*
X302250Y638880D02*
D03*
X319250D02*
D03*
X319250Y623640D02*
D03*
X302250D02*
D03*
X998750D02*
D03*
X1015750D02*
D03*
X1015750Y638880D02*
D03*
X998750D02*
D03*
X1079250Y623640D02*
D03*
X1062250D02*
D03*
X1062250Y638880D02*
D03*
X1079250D02*
D03*
X542380Y795020D02*
D03*
X559380D02*
D03*
X542383Y825500D02*
D03*
X559383D02*
D03*
X542383Y810465D02*
D03*
X559383D02*
D03*
X693810Y825500D02*
D03*
X710810D02*
D03*
X693810Y810465D02*
D03*
X710810D02*
D03*
X693810Y795020D02*
D03*
X710810D02*
D03*
X843670Y822739D02*
D03*
X860670D02*
D03*
X843670Y807720D02*
D03*
X860670D02*
D03*
X843670Y792480D02*
D03*
X860670D02*
D03*
X124380Y65500D02*
D03*
X141380D02*
D03*
X124380Y50597D02*
D03*
X141380D02*
D03*
X124380Y35700D02*
D03*
X141380D02*
D03*
X504380Y65500D02*
D03*
X521380D02*
D03*
X504380Y50600D02*
D03*
X521380D02*
D03*
X504380Y35700D02*
D03*
X521380D02*
D03*
X884380Y65500D02*
D03*
X901380D02*
D03*
X884380Y50600D02*
D03*
X901380D02*
D03*
X884380Y35700D02*
D03*
X901380D02*
D03*
X1264380Y65500D02*
D03*
X1281380D02*
D03*
X1264380Y50600D02*
D03*
X1281380D02*
D03*
X1264380Y35700D02*
D03*
X1281380D02*
D03*
X-96910Y286947D02*
D03*
X-113910D02*
D03*
X-96910Y256469D02*
D03*
X-113910D02*
D03*
X-96910Y271709D02*
D03*
X-113910D02*
D03*
X1402469Y286322D02*
D03*
X1419469D02*
D03*
X1402469Y271709D02*
D03*
X1419469D02*
D03*
X1402469Y489020D02*
D03*
X1419469D02*
D03*
X1402469Y459113D02*
D03*
X1419469D02*
D03*
X1402469Y473780D02*
D03*
X1419469D02*
D03*
X-96910Y488950D02*
D03*
X-113910D02*
D03*
X-96910Y458470D02*
D03*
X-113910D02*
D03*
X-96910Y473710D02*
D03*
X-113910D02*
D03*
X132470Y821690D02*
D03*
X149470D02*
D03*
X920360D02*
D03*
X903360D02*
D03*
X1419469Y256469D02*
D03*
X1402469D02*
D03*
D12*
X287000Y638880D02*
D03*
X271000D02*
D03*
X271001Y623642D02*
D03*
X287001D02*
D03*
X1031001Y623640D02*
D03*
X1047001D02*
D03*
X1047000Y638880D02*
D03*
X1031000D02*
D03*
X653160Y401320D02*
D03*
X637160D02*
D03*
D13*
X521913Y816347D02*
D03*
Y805347D02*
D03*
Y794347D02*
D03*
X492413Y816347D02*
D03*
Y805347D02*
D03*
Y794347D02*
D03*
X671913Y816347D02*
D03*
Y805347D02*
D03*
Y794347D02*
D03*
X642413Y816347D02*
D03*
Y805347D02*
D03*
Y794347D02*
D03*
X821913Y816347D02*
D03*
Y805347D02*
D03*
Y794347D02*
D03*
X792413Y816347D02*
D03*
Y805347D02*
D03*
Y794347D02*
D03*
X101913Y56347D02*
D03*
Y45347D02*
D03*
Y34347D02*
D03*
X72413Y56347D02*
D03*
Y45347D02*
D03*
Y34347D02*
D03*
X481913Y56347D02*
D03*
Y45347D02*
D03*
Y34347D02*
D03*
X452413Y56347D02*
D03*
Y45347D02*
D03*
Y34347D02*
D03*
X861913Y56347D02*
D03*
Y45347D02*
D03*
Y34347D02*
D03*
X832413Y56347D02*
D03*
Y45347D02*
D03*
Y34347D02*
D03*
X1241913Y56347D02*
D03*
Y45347D02*
D03*
Y34347D02*
D03*
X1212413Y56347D02*
D03*
Y45347D02*
D03*
Y34347D02*
D03*
X-133587Y283350D02*
D03*
Y272350D02*
D03*
Y261350D02*
D03*
X-163087Y283350D02*
D03*
Y272350D02*
D03*
Y261350D02*
D03*
X1477445Y485353D02*
D03*
Y474353D02*
D03*
Y463353D02*
D03*
X1447945Y485353D02*
D03*
Y474353D02*
D03*
Y463353D02*
D03*
X-133590Y485350D02*
D03*
Y474350D02*
D03*
Y463350D02*
D03*
X-163090Y485350D02*
D03*
Y474350D02*
D03*
Y463350D02*
D03*
X1447913Y261353D02*
D03*
Y272353D02*
D03*
Y283353D02*
D03*
X1477413Y261353D02*
D03*
Y272353D02*
D03*
Y283353D02*
D03*
D14*
X543163Y775347D02*
D03*
X471163D02*
D03*
Y745347D02*
D03*
X543163D02*
D03*
X693163Y775347D02*
D03*
X621163D02*
D03*
Y745347D02*
D03*
X693163D02*
D03*
X843163Y775347D02*
D03*
X771163D02*
D03*
Y745347D02*
D03*
X843163D02*
D03*
X123163Y15347D02*
D03*
X51163D02*
D03*
Y-14653D02*
D03*
X123163D02*
D03*
X503163Y15347D02*
D03*
X431163D02*
D03*
Y-14653D02*
D03*
X503163D02*
D03*
X883163Y15347D02*
D03*
X811163D02*
D03*
Y-14653D02*
D03*
X883163D02*
D03*
X1263163D02*
D03*
X1191163D02*
D03*
Y15347D02*
D03*
X1263163D02*
D03*
D15*
X175650Y821690D02*
D03*
X192650D02*
D03*
X953380D02*
D03*
X936380D02*
D03*
D17*
X1389380Y671695D02*
D03*
Y721695D02*
D03*
D63*
X6000Y0D02*
G03*
X6000Y0I-6000J0D01*
G01*
X0D02*
X25000D01*
X31000D01*
X-31000D02*
X-25000D01*
X0D01*
Y-25000D02*
Y0D01*
Y25000D02*
Y31000D01*
Y0D02*
Y25000D01*
Y-31000D02*
Y-25000D01*
D64*
X639510Y344170D02*
D03*
Y356170D02*
D03*
X663510Y332170D02*
D03*
Y356170D02*
D03*
Y344170D02*
D03*
X651510D02*
D03*
X639510Y332170D02*
D03*
X651510Y356170D02*
D03*
Y332170D02*
D03*
D65*
X623010Y363670D02*
D03*
Y357170D02*
D03*
Y350670D02*
D03*
Y344170D02*
D03*
Y337670D02*
D03*
Y331170D02*
D03*
Y324670D02*
D03*
X680010D02*
D03*
Y331170D02*
D03*
Y337670D02*
D03*
Y344170D02*
D03*
Y350670D02*
D03*
Y357170D02*
D03*
Y363670D02*
D03*
D66*
X632010Y315670D02*
D03*
X638510D02*
D03*
X645010D02*
D03*
X651510D02*
D03*
X658010D02*
D03*
X664510D02*
D03*
X671010D02*
D03*
Y372670D02*
D03*
X664510D02*
D03*
X658010D02*
D03*
X651510D02*
D03*
X645010D02*
D03*
X638510D02*
D03*
X632010D02*
D03*
M02*
