G04 Layer_Color=16711935*
%FSLAX44Y44*%
%MOMM*%
G71*
G01*
G75*
%ADD63C,0.0130*%
%ADD111C,0.0127*%
%ADD112C,0.0064*%
D63*
X6000Y0D02*
G03*
X6000Y0I-6000J0D01*
G01*
X53663Y108347D02*
Y112347D01*
X49663Y110347D02*
Y115437D01*
X44573Y110347D02*
X49663D01*
X49663Y105257D02*
Y110347D01*
Y110347D02*
X54753D01*
X429663D02*
X434753D01*
X429663Y105257D02*
Y110347D01*
X424573D02*
X429663D01*
Y110347D02*
Y115437D01*
X809663Y110347D02*
X814753D01*
X809663Y105257D02*
Y110347D01*
X804573D02*
X809663D01*
Y110347D02*
Y115437D01*
X1189663Y110347D02*
X1194753D01*
X1189663Y105257D02*
Y110347D01*
X1184573D02*
X1189663D01*
Y110347D02*
Y115437D01*
X1189663Y400347D02*
X1194753D01*
X1189663Y395257D02*
Y400347D01*
X1184573D02*
X1189663D01*
Y400347D02*
Y405437D01*
X809663Y400347D02*
X814753D01*
X809663Y395257D02*
Y400347D01*
X804573D02*
X809663D01*
Y400347D02*
Y405437D01*
X429663Y400347D02*
X434753D01*
X429663Y395257D02*
Y400347D01*
X424573D02*
X429663D01*
Y400347D02*
Y405437D01*
X49663Y400347D02*
X54753D01*
X49663Y395257D02*
Y400347D01*
X44573D02*
X49663D01*
Y400347D02*
Y405437D01*
X252163Y685847D02*
Y690937D01*
X247073Y685847D02*
X252163D01*
Y685847D02*
X257253D01*
X252163Y680757D02*
Y685847D01*
X1012163Y680757D02*
Y685847D01*
X1012163Y685847D02*
X1017253D01*
X1007073Y685847D02*
X1012163D01*
Y685847D02*
Y690937D01*
X642413Y805347D02*
Y825499D01*
X622261Y805347D02*
X642413D01*
X662566D01*
X642413Y785194D02*
Y805347D01*
X792413D02*
Y825499D01*
X772261Y805347D02*
X792413D01*
X812566D01*
X792413Y785194D02*
Y805347D01*
X1212413Y45347D02*
Y65499D01*
X1192261Y45347D02*
X1212413D01*
X1232566D01*
X1212413Y25194D02*
Y45347D01*
X832413D02*
Y65499D01*
X812261Y45347D02*
X832413D01*
X852566D01*
X832413Y25194D02*
Y45347D01*
X452413D02*
Y65499D01*
X432261Y45347D02*
X452413D01*
X472566D01*
X452413Y25194D02*
Y45347D01*
X72413D02*
Y65499D01*
X52261Y45347D02*
X72413D01*
X92566D01*
X72413Y25194D02*
Y45347D01*
X492413Y805347D02*
Y825499D01*
X472261Y805347D02*
X492413D01*
X512566D01*
X492413Y785194D02*
Y805347D01*
X0Y0D02*
X25000D01*
X31000D01*
X-31000D02*
X-25000D01*
X0D01*
Y-25000D02*
Y0D01*
Y25000D02*
Y31000D01*
Y0D02*
Y25000D01*
Y-31000D02*
Y-25000D01*
D111*
X274163Y684347D02*
G03*
X275163Y683347I1000J0D01*
G01*
X279163D02*
G03*
X280163Y684347I0J1000D01*
G01*
X1034163D02*
G03*
X1035163Y683347I1000J0D01*
G01*
X456399Y837347D02*
G03*
X456399Y837347I-6000J0D01*
G01*
X869928Y683866D02*
G03*
X869928Y683866I-6000J0D01*
G01*
Y837347D02*
G03*
X869928Y837347I-6000J0D01*
G01*
X738163Y803587D02*
G03*
X738163Y803587I-6000J0D01*
G01*
Y717106D02*
G03*
X738163Y717106I-6000J0D01*
G01*
X588163D02*
G03*
X588163Y717106I-6000J0D01*
G01*
Y803587D02*
G03*
X588163Y803587I-6000J0D01*
G01*
X456399Y683866D02*
G03*
X456399Y683866I-6000J0D01*
G01*
X1320327Y0D02*
G03*
X1320327Y0I-6000J0D01*
G01*
X1146000D02*
G03*
X1146000Y0I-6000J0D01*
G01*
X6000D02*
G03*
X6000Y0I-6000J0D01*
G01*
X940327D02*
G03*
X940327Y0I-6000J0D01*
G01*
X766000D02*
G03*
X766000Y0I-6000J0D01*
G01*
X560327D02*
G03*
X560327Y0I-6000J0D01*
G01*
X386000D02*
G03*
X386000Y0I-6000J0D01*
G01*
X180327D02*
G03*
X180327Y0I-6000J0D01*
G01*
X304163Y683347D02*
G03*
X305163Y684347I0J1000D01*
G01*
X299163D02*
G03*
X300163Y683347I1000J0D01*
G01*
X254163D02*
G03*
X255163Y684347I0J1000D01*
G01*
X249163D02*
G03*
X250163Y683347I1000J0D01*
G01*
X254663Y831347D02*
G03*
X253663Y832347I-1000J0D01*
G01*
X250663D02*
G03*
X249663Y831347I0J-1000D01*
G01*
X300663Y832347D02*
G03*
X299663Y831347I0J-1000D01*
G01*
X304663D02*
G03*
X303663Y832347I-1000J0D01*
G01*
X1014163Y683347D02*
G03*
X1015163Y684347I0J1000D01*
G01*
X1009163D02*
G03*
X1010163Y683347I1000J0D01*
G01*
X1039163D02*
G03*
X1040163Y684347I0J1000D01*
G01*
X1064163Y683347D02*
G03*
X1065163Y684347I0J1000D01*
G01*
X1059163D02*
G03*
X1060163Y683347I1000J0D01*
G01*
X1014663Y831347D02*
G03*
X1013663Y832347I-1000J0D01*
G01*
X1010663D02*
G03*
X1009663Y831347I0J-1000D01*
G01*
X1060663Y832347D02*
G03*
X1059663Y831347I0J-1000D01*
G01*
X1064663D02*
G03*
X1063663Y832347I-1000J0D01*
G01*
X36406Y888347D02*
G03*
X36406Y888347I-4243J0D01*
G01*
X526406D02*
G03*
X526406Y888347I-4243J0D01*
G01*
X796406D02*
G03*
X796406Y888347I-4243J0D01*
G01*
X1286406D02*
G03*
X1286406Y888347I-4243J0D01*
G01*
X1054663Y0D02*
G03*
X1054663Y0I-17500J0D01*
G01*
X674663Y606D02*
G03*
X674663Y606I-17500J0D01*
G01*
X294663D02*
G03*
X294663Y606I-17500J0D01*
G01*
X1054663Y1393853D02*
G03*
X1054663Y1393853I-17500J0D01*
G01*
X294663D02*
G03*
X294663Y1393853I-17500J0D01*
G01*
X6000Y0D02*
G03*
X6000Y0I-6000J0D01*
G01*
X1487663Y272353D02*
X1504173D01*
X1462663Y230843D02*
Y247353D01*
X1419883Y474353D02*
X1436393D01*
X1462663Y297353D02*
Y313863D01*
Y272353D02*
X1487663D01*
X1462663Y247353D02*
Y272353D01*
X1437663Y306643D02*
X1462663D01*
Y272353D02*
Y297353D01*
X1487663Y474353D02*
X1504173D01*
X1462663Y432843D02*
Y449353D01*
X1421153Y474353D02*
X1437663D01*
X1462663Y499353D02*
Y515863D01*
Y474353D02*
X1487663D01*
X1462663Y449353D02*
Y474353D01*
X1437663D02*
X1462663D01*
Y499353D01*
X-123337Y272353D02*
X-106827D01*
X-148337Y230843D02*
Y247353D01*
X-189847Y272353D02*
X-173337D01*
X-148337Y297353D02*
Y313863D01*
Y272353D02*
X-123337D01*
X-148337Y247353D02*
Y272353D01*
X-173337D02*
X-148337D01*
Y297353D01*
X-123337Y474353D02*
X-106827D01*
X-148337Y432843D02*
Y449353D01*
X-189847Y474353D02*
X-173337D01*
X-148337Y499353D02*
Y515863D01*
Y474353D02*
X-123337D01*
X-148337Y449353D02*
Y474353D01*
X-173337D02*
X-148337D01*
Y499353D01*
X475399Y837347D02*
X481399D01*
X450399Y806347D02*
Y812347D01*
X419399Y837347D02*
X425399D01*
X450399Y862347D02*
Y868347D01*
Y837347D02*
X475399D01*
X450399Y812347D02*
Y837347D01*
X425399D02*
X450399D01*
Y862347D01*
X888928Y683866D02*
X894928D01*
X863928Y652866D02*
Y658866D01*
X832928Y683866D02*
X838928D01*
X863928D02*
X888928D01*
X863928Y658866D02*
Y683866D01*
X838928D02*
X863928D01*
X888928Y837347D02*
X894928D01*
X863928Y806347D02*
Y812347D01*
X832928Y837347D02*
X838928D01*
X863928Y862347D02*
Y868347D01*
Y837347D02*
X888928D01*
X863928Y812347D02*
Y837347D01*
X838928D02*
X863928D01*
Y862347D01*
X757163Y803587D02*
X763163D01*
X732163Y772587D02*
Y778587D01*
X701163Y803587D02*
X707163D01*
X732163Y828587D02*
Y834587D01*
Y803587D02*
X757163D01*
X732163Y778587D02*
Y803587D01*
X707163D02*
X732163D01*
Y828587D01*
X757163Y717106D02*
X763163D01*
X732163Y686106D02*
Y692106D01*
X701163Y717106D02*
X707163D01*
X732163Y742106D02*
Y748106D01*
Y717106D02*
X757163D01*
X732163Y692106D02*
Y717106D01*
X707163D02*
X732163D01*
Y742106D01*
X607163Y717106D02*
X613163D01*
X582163Y686106D02*
Y692106D01*
X551163Y717106D02*
X557163D01*
X582163Y742106D02*
Y748106D01*
Y717106D02*
X607163D01*
X582163Y692106D02*
Y717106D01*
X557163D02*
X582163D01*
Y742106D01*
X607163Y803587D02*
X613163D01*
X582163Y772587D02*
Y778587D01*
X551163Y803587D02*
X557163D01*
X582163Y828587D02*
Y834587D01*
Y803587D02*
X607163D01*
X582163Y778587D02*
Y803587D01*
X557163D02*
X582163D01*
Y828587D01*
X475399Y683866D02*
X481399D01*
X450399Y652866D02*
Y658866D01*
X419399Y683866D02*
X425399D01*
X450399Y708866D02*
Y714866D01*
Y683866D02*
X475399D01*
X450399Y658866D02*
Y683866D01*
X425399D02*
X450399D01*
Y708866D01*
X1339327Y0D02*
X1345327D01*
X1314327Y-31000D02*
Y-25000D01*
X1283327Y0D02*
X1289327D01*
X1314327Y25000D02*
Y31000D01*
Y0D02*
X1339327D01*
X1314327Y-25000D02*
Y0D01*
X1289327D02*
X1314327D01*
Y25000D01*
X1165000Y0D02*
X1171000D01*
X1140000Y-31000D02*
Y-25000D01*
X1109000Y0D02*
X1115000D01*
X1140000Y25000D02*
Y31000D01*
Y0D02*
X1165000D01*
X1140000Y-25000D02*
Y0D01*
X1115000D02*
X1140000D01*
Y25000D01*
X25000Y0D02*
X31000D01*
X0Y-31000D02*
Y-25000D01*
X-31000Y0D02*
X-25000D01*
X0Y25000D02*
Y31000D01*
Y0D02*
X25000D01*
X0Y-25000D02*
Y0D01*
X-25000D02*
X0D01*
Y25000D01*
X959327Y0D02*
X965327D01*
X934327Y-31000D02*
Y-25000D01*
X903327Y0D02*
X909327D01*
X934327Y25000D02*
Y31000D01*
Y0D02*
X959327D01*
X934327Y-25000D02*
Y0D01*
X909327D02*
X934327D01*
Y25000D01*
X785000Y0D02*
X791000D01*
X760000Y-31000D02*
Y-25000D01*
X729000Y0D02*
X735000D01*
X760000Y25000D02*
Y31000D01*
Y0D02*
X785000D01*
X760000Y-25000D02*
Y0D01*
X735000D02*
X760000D01*
Y25000D01*
X579327Y0D02*
X585327D01*
X554327Y-31000D02*
Y-25000D01*
X523327Y0D02*
X529327D01*
X554327Y25000D02*
Y31000D01*
Y0D02*
X579327D01*
X554327Y-25000D02*
Y0D01*
X529327D02*
X554327D01*
Y25000D01*
X405000Y0D02*
X411000D01*
X380000Y-31000D02*
Y-25000D01*
X349000Y0D02*
X355000D01*
X380000Y25000D02*
Y31000D01*
Y0D02*
X405000D01*
X380000Y-25000D02*
Y0D01*
X355000D02*
X380000D01*
Y25000D01*
X199327Y0D02*
X205327D01*
X174327Y-31000D02*
Y-25000D01*
X143327Y0D02*
X149327D01*
X174327Y25000D02*
Y31000D01*
Y0D02*
X199327D01*
X174327Y-25000D02*
Y0D01*
X149327D02*
X174327D01*
Y25000D01*
X57163Y888347D02*
X61406D01*
X32163Y859104D02*
Y863347D01*
X2921Y888347D02*
X7163D01*
X32163Y913347D02*
Y917589D01*
Y888347D02*
X57163D01*
X32163Y863347D02*
Y888347D01*
X7163D02*
X32163D01*
Y913347D01*
X547163Y888347D02*
X551406D01*
X522163Y859104D02*
Y863347D01*
X492921Y888347D02*
X497163D01*
X522163Y913347D02*
Y917589D01*
Y888347D02*
X547163D01*
X522163Y863347D02*
Y888347D01*
X497163D02*
X522163D01*
Y913347D01*
X817163Y888347D02*
X821406D01*
X792163Y859104D02*
Y863347D01*
X762921Y888347D02*
X767163D01*
X792163Y913347D02*
Y917589D01*
Y888347D02*
X817163D01*
X792163Y863347D02*
Y888347D01*
X767163D02*
X792163D01*
Y913347D01*
X1307163Y888347D02*
X1311406D01*
X1282163Y859104D02*
Y863347D01*
X1252921Y888347D02*
X1257163D01*
X1282163Y913347D02*
Y917589D01*
Y888347D02*
X1307163D01*
X1282163Y863347D02*
Y888347D01*
X1257163D02*
X1282163D01*
Y913347D01*
X302163Y1393853D02*
X319663D01*
X277163Y1351353D02*
Y1368853D01*
X234663Y1393853D02*
X252163D01*
X277163Y1418853D02*
Y1436353D01*
Y1393853D02*
X302163D01*
X277163Y1368853D02*
Y1393853D01*
X252163D02*
X277163D01*
Y1418853D01*
X1062163Y0D02*
X1079663D01*
X1037163Y-42500D02*
Y-25000D01*
X994663Y0D02*
X1012163D01*
X1037163Y25000D02*
Y42500D01*
Y0D02*
X1062163D01*
X1037163Y-25000D02*
Y0D01*
X1012163D02*
X1037163D01*
Y25000D01*
X682163Y606D02*
X699663D01*
X657163Y-41894D02*
Y-24394D01*
X614663Y606D02*
X632163D01*
X657163Y25606D02*
Y43106D01*
Y606D02*
X682163D01*
X657163Y-24394D02*
Y606D01*
X632163D02*
X657163D01*
Y25606D01*
X302163Y606D02*
X319663D01*
X277163Y-41894D02*
Y-24394D01*
X234663Y606D02*
X252163D01*
X277163Y25606D02*
Y43106D01*
Y606D02*
X302163D01*
X277163Y-24394D02*
Y606D01*
X252163D02*
X277163D01*
Y25606D01*
X1062163Y1393853D02*
X1079663D01*
X1037163Y1351353D02*
Y1368853D01*
X994663Y1393853D02*
X1012163D01*
X1037163Y1418853D02*
Y1436353D01*
Y1393853D02*
X1062163D01*
X1037163Y1368853D02*
Y1393853D01*
X1012163D02*
X1037163D01*
Y1418853D01*
X272663Y684347D02*
X274163D01*
X1032663D02*
X1034163D01*
X425663Y108347D02*
Y112347D01*
X433663D01*
Y108347D02*
Y112347D01*
X425663Y108347D02*
X433663D01*
X450663D02*
Y112347D01*
X458663D01*
Y108347D02*
Y112347D01*
X450663Y108347D02*
X458663D01*
X475663D02*
Y112347D01*
X483663D01*
Y108347D02*
Y112347D01*
X475663Y108347D02*
X483663D01*
X500663D02*
Y112347D01*
X508663D01*
Y108347D02*
Y112347D01*
X500663Y108347D02*
X508663D01*
X425663Y398347D02*
Y402347D01*
X433663D01*
Y398347D02*
Y402347D01*
X425663Y398347D02*
X433663D01*
X450663D02*
Y402347D01*
X458663D01*
Y398347D02*
Y402347D01*
X450663Y398347D02*
X458663D01*
X805663Y108347D02*
Y112347D01*
X813663D01*
Y108347D02*
Y112347D01*
X805663Y108347D02*
X813663D01*
X830663D02*
Y112347D01*
X838663D01*
Y108347D02*
Y112347D01*
X830663Y108347D02*
X838663D01*
X855663D02*
Y112347D01*
X863663D01*
Y108347D02*
Y112347D01*
X855663Y108347D02*
X863663D01*
X880663D02*
Y112347D01*
X888663D01*
Y108347D02*
Y112347D01*
X880663Y108347D02*
X888663D01*
X855663Y398347D02*
Y402347D01*
X863663D01*
Y398347D02*
Y402347D01*
X855663Y398347D02*
X863663D01*
X880663D02*
Y402347D01*
X888663D01*
Y398347D02*
Y402347D01*
X880663Y398347D02*
X888663D01*
X475663D02*
X483663D01*
X475663D02*
Y402347D01*
X483663D01*
Y398347D02*
Y402347D01*
X500663Y398347D02*
Y402347D01*
X508663D01*
Y398347D02*
Y402347D01*
X500663Y398347D02*
X508663D01*
X805663D02*
Y402347D01*
X813663D01*
Y398347D02*
Y402347D01*
X805663Y398347D02*
X813663D01*
X830663D02*
Y402347D01*
X838663D01*
Y398347D02*
Y402347D01*
X830663Y398347D02*
X838663D01*
X1185663Y108347D02*
Y112347D01*
X1193663D01*
Y108347D02*
Y112347D01*
X1185663Y108347D02*
X1193663D01*
X1210663D02*
Y112347D01*
X1218663D01*
Y108347D02*
Y112347D01*
X1210663Y108347D02*
X1218663D01*
X1235663D02*
Y112347D01*
X1243663D01*
Y108347D02*
Y112347D01*
X1235663Y108347D02*
X1243663D01*
X1260663D02*
Y112347D01*
X1268663D01*
Y108347D02*
Y112347D01*
X1260663Y108347D02*
X1268663D01*
X1185663Y398347D02*
Y402347D01*
X1193663D01*
Y398347D02*
Y402347D01*
X1185663Y398347D02*
X1193663D01*
X1210663D02*
Y402347D01*
X1218663D01*
Y398347D02*
Y402347D01*
X1210663Y398347D02*
X1218663D01*
X1235663D02*
Y402347D01*
X1243663D01*
Y398347D02*
Y402347D01*
X1235663Y398347D02*
X1243663D01*
X1260663D02*
Y402347D01*
X1268663D01*
Y398347D02*
Y402347D01*
X1260663Y398347D02*
X1268663D01*
X53663D02*
Y402347D01*
X45663Y398347D02*
X53663D01*
X45663D02*
Y402347D01*
X53663D01*
X78663Y398347D02*
Y402347D01*
X70663Y398347D02*
X78663D01*
X70663D02*
Y402347D01*
X78663D01*
X95663Y398347D02*
Y402347D01*
X103663D01*
Y398347D02*
Y402347D01*
X95663Y398347D02*
X103663D01*
X120663D02*
Y402347D01*
X128663D01*
Y398347D02*
Y402347D01*
X120663Y398347D02*
X128663D01*
X45663Y108347D02*
Y112347D01*
X53663D01*
Y108347D02*
Y112347D01*
X45663Y108347D02*
X53663D01*
X70663D02*
Y112347D01*
X78663D01*
Y108347D02*
Y112347D01*
X70663Y108347D02*
X78663D01*
X95663D02*
Y112347D01*
X103663D01*
Y108347D02*
Y112347D01*
X95663Y108347D02*
X103663D01*
X120663D02*
X128663D01*
X120663D02*
Y112347D01*
X128663D01*
Y108347D02*
Y112347D01*
X297663Y687347D02*
X306663D01*
Y684347D02*
Y687347D01*
X305163Y684347D02*
X306663D01*
X300163Y683347D02*
X304163D01*
X297663Y684347D02*
X299163D01*
X297663D02*
Y687347D01*
X272663Y686347D02*
X281663D01*
Y684347D02*
Y686347D01*
X280163Y684347D02*
X281663D01*
X275163Y683347D02*
X279163D01*
X272663Y684347D02*
Y686347D01*
X247663Y687347D02*
X256663D01*
Y684347D02*
Y687347D01*
X255163Y684347D02*
X256663D01*
X250163Y683347D02*
X254163D01*
X247663Y684347D02*
X249163D01*
X247663D02*
Y687347D01*
X250663Y832347D02*
X253663D01*
X254663Y831347D02*
X256163D01*
Y829347D02*
Y831347D01*
X248163Y829347D02*
X256163D01*
X248163D02*
Y831347D01*
X249663D01*
X298163Y829347D02*
X306163D01*
X298163D02*
Y831347D01*
X299663D01*
X300663Y832347D02*
X303663D01*
X304663Y831347D02*
X306163D01*
Y829347D02*
Y831347D01*
X1007663Y687347D02*
X1016663D01*
Y684347D02*
Y687347D01*
X1015163Y684347D02*
X1016663D01*
X1010163Y683347D02*
X1014163D01*
X1007663Y684347D02*
X1009163D01*
X1007663D02*
Y687347D01*
X1035163Y683347D02*
X1039163D01*
X1032663Y684347D02*
Y686347D01*
X1041663D01*
Y684347D02*
Y686347D01*
X1040163Y684347D02*
X1041663D01*
X1057663Y687347D02*
X1066663D01*
Y684347D02*
Y687347D01*
X1065163Y684347D02*
X1066663D01*
X1060163Y683347D02*
X1064163D01*
X1057663Y684347D02*
X1059163D01*
X1057663D02*
Y687347D01*
X1010663Y832347D02*
X1013663D01*
X1014663Y831347D02*
X1016163D01*
Y829347D02*
Y831347D01*
X1008163Y829347D02*
X1016163D01*
X1008163D02*
Y831347D01*
X1009663D01*
X1058163Y829347D02*
X1066163D01*
X1058163D02*
Y831347D01*
X1059663D01*
X1060663Y832347D02*
X1063663D01*
X1064663Y831347D02*
X1066163D01*
Y829347D02*
Y831347D01*
X-41287Y852347D02*
Y855347D01*
X-44287Y852347D02*
X-41287D01*
X-44287D02*
Y855347D01*
X-41287D01*
X-31587D02*
X-28587D01*
Y852347D02*
Y855347D01*
X-31587Y852347D02*
X-28587D01*
X-31587D02*
Y855347D01*
X142313D02*
X145313D01*
Y852347D02*
Y855347D01*
X142313Y852347D02*
X145313D01*
X142313D02*
Y855347D01*
X155013D02*
X158013D01*
Y852347D02*
Y855347D01*
X155013Y852347D02*
X158013D01*
X155013D02*
Y855347D01*
X167713D02*
X170713D01*
Y852347D02*
Y855347D01*
X167713Y852347D02*
X170713D01*
X167713D02*
Y855347D01*
X180413D02*
X183413D01*
Y852347D02*
Y855347D01*
X180413Y852347D02*
X183413D01*
X180413D02*
Y855347D01*
X193113D02*
X196113D01*
Y852347D02*
Y855347D01*
X193113Y852347D02*
X196113D01*
X193113D02*
Y855347D01*
X205813D02*
X208813D01*
Y852347D02*
Y855347D01*
X205813Y852347D02*
X208813D01*
X205813D02*
Y855347D01*
X218513D02*
X221513D01*
Y852347D02*
Y855347D01*
X218513Y852347D02*
X221513D01*
X218513D02*
Y855347D01*
X231213D02*
X234213D01*
Y852347D02*
Y855347D01*
X231213Y852347D02*
X234213D01*
X231213D02*
Y855347D01*
X243913D02*
X246913D01*
Y852347D02*
Y855347D01*
X243913Y852347D02*
X246913D01*
X243913D02*
Y855347D01*
X256613D02*
X259613D01*
Y852347D02*
Y855347D01*
X256613Y852347D02*
X259613D01*
X256613D02*
Y855347D01*
X272313Y852347D02*
Y855347D01*
X269313Y852347D02*
X272313D01*
X269313D02*
Y855347D01*
X272313D01*
X285013Y852347D02*
Y855347D01*
X282013Y852347D02*
X285013D01*
X282013D02*
Y855347D01*
X285013D01*
X297713Y852347D02*
Y855347D01*
X294713Y852347D02*
X297713D01*
X294713D02*
Y855347D01*
X297713D01*
X310413Y852347D02*
Y855347D01*
X307413Y852347D02*
X310413D01*
X307413D02*
Y855347D01*
X310413D01*
X323113Y852347D02*
Y855347D01*
X320113Y852347D02*
X323113D01*
X320113D02*
Y855347D01*
X323113D01*
X335813Y852347D02*
Y855347D01*
X332813Y852347D02*
X335813D01*
X332813D02*
Y855347D01*
X335813D01*
X348513Y852347D02*
Y855347D01*
X345513Y852347D02*
X348513D01*
X345513D02*
Y855347D01*
X348513D01*
X361213Y852347D02*
Y855347D01*
X358213Y852347D02*
X361213D01*
X358213D02*
Y855347D01*
X361213D01*
X373913Y852347D02*
Y855347D01*
X370913Y852347D02*
X373913D01*
X370913D02*
Y855347D01*
X373913D01*
X386613Y852347D02*
Y855347D01*
X383613Y852347D02*
X386613D01*
X383613D02*
Y855347D01*
X386613D01*
X399313Y852347D02*
Y855347D01*
X396313Y852347D02*
X399313D01*
X396313D02*
Y855347D01*
X399313D01*
X412013Y852347D02*
Y855347D01*
X409013Y852347D02*
X412013D01*
X409013D02*
Y855347D01*
X412013D01*
X595613Y852347D02*
X598613D01*
X595613D02*
Y855347D01*
X598613D01*
Y852347D02*
Y855347D01*
X585913Y852347D02*
Y855347D01*
X582913Y852347D02*
X585913D01*
X582913D02*
Y855347D01*
X585913D01*
X-44287Y1355347D02*
X-41287D01*
X-44287D02*
Y1358347D01*
X-41287D01*
Y1355347D02*
Y1358347D01*
X-28587Y1355347D02*
Y1358347D01*
X-31587Y1355347D02*
X-28587D01*
X-31587D02*
Y1358347D01*
X-28587D01*
X582913Y1355347D02*
X585913D01*
X582913D02*
Y1358347D01*
X585913D01*
Y1355347D02*
Y1358347D01*
X595613Y1355347D02*
Y1358347D01*
X598613D01*
Y1355347D02*
Y1358347D01*
X595613Y1355347D02*
X598613D01*
X718713Y852347D02*
Y855347D01*
X715713Y852347D02*
X718713D01*
X715713D02*
Y855347D01*
X718713D01*
X728413D02*
X731413D01*
Y852347D02*
Y855347D01*
X728413Y852347D02*
X731413D01*
X728413D02*
Y855347D01*
X902313D02*
X905313D01*
Y852347D02*
Y855347D01*
X902313Y852347D02*
X905313D01*
X902313D02*
Y855347D01*
X915013D02*
X918013D01*
Y852347D02*
Y855347D01*
X915013Y852347D02*
X918013D01*
X915013D02*
Y855347D01*
X927713D02*
X930713D01*
Y852347D02*
Y855347D01*
X927713Y852347D02*
X930713D01*
X927713D02*
Y855347D01*
X940413D02*
X943413D01*
Y852347D02*
Y855347D01*
X940413Y852347D02*
X943413D01*
X940413D02*
Y855347D01*
X953113D02*
X956113D01*
Y852347D02*
Y855347D01*
X953113Y852347D02*
X956113D01*
X953113D02*
Y855347D01*
X965813D02*
X968813D01*
Y852347D02*
Y855347D01*
X965813Y852347D02*
X968813D01*
X965813D02*
Y855347D01*
X978513D02*
X981513D01*
Y852347D02*
Y855347D01*
X978513Y852347D02*
X981513D01*
X978513D02*
Y855347D01*
X991213D02*
X994213D01*
Y852347D02*
Y855347D01*
X991213Y852347D02*
X994213D01*
X991213D02*
Y855347D01*
X1003913D02*
X1006913D01*
Y852347D02*
Y855347D01*
X1003913Y852347D02*
X1006913D01*
X1003913D02*
Y855347D01*
X1016613D02*
X1019613D01*
Y852347D02*
Y855347D01*
X1016613Y852347D02*
X1019613D01*
X1016613D02*
Y855347D01*
X1032313Y852347D02*
Y855347D01*
X1029313Y852347D02*
X1032313D01*
X1029313D02*
Y855347D01*
X1032313D01*
X1045013Y852347D02*
Y855347D01*
X1042013Y852347D02*
X1045013D01*
X1042013D02*
Y855347D01*
X1045013D01*
X1057713Y852347D02*
Y855347D01*
X1054713Y852347D02*
X1057713D01*
X1054713D02*
Y855347D01*
X1057713D01*
X1070413Y852347D02*
Y855347D01*
X1067413Y852347D02*
X1070413D01*
X1067413D02*
Y855347D01*
X1070413D01*
X1083113Y852347D02*
Y855347D01*
X1080113Y852347D02*
X1083113D01*
X1080113D02*
Y855347D01*
X1083113D01*
X1095813Y852347D02*
Y855347D01*
X1092813Y852347D02*
X1095813D01*
X1092813D02*
Y855347D01*
X1095813D01*
X1108513Y852347D02*
Y855347D01*
X1105513Y852347D02*
X1108513D01*
X1105513D02*
Y855347D01*
X1108513D01*
X1121213Y852347D02*
Y855347D01*
X1118213Y852347D02*
X1121213D01*
X1118213D02*
Y855347D01*
X1121213D01*
X1133913Y852347D02*
Y855347D01*
X1130913Y852347D02*
X1133913D01*
X1130913D02*
Y855347D01*
X1133913D01*
X1146613Y852347D02*
Y855347D01*
X1143613Y852347D02*
X1146613D01*
X1143613D02*
Y855347D01*
X1146613D01*
X1159313Y852347D02*
Y855347D01*
X1156313Y852347D02*
X1159313D01*
X1156313D02*
Y855347D01*
X1159313D01*
X1172013Y852347D02*
Y855347D01*
X1169013Y852347D02*
X1172013D01*
X1169013D02*
Y855347D01*
X1172013D01*
X1345913Y852347D02*
Y855347D01*
X1342913Y852347D02*
X1345913D01*
X1342913D02*
Y855347D01*
X1345913D01*
X1355613Y852347D02*
X1358613D01*
X1355613D02*
Y855347D01*
X1358613D01*
Y852347D02*
Y855347D01*
X1342913Y1355347D02*
X1345913D01*
X1342913D02*
Y1358347D01*
X1345913D01*
Y1355347D02*
Y1358347D01*
X1355613Y1355347D02*
Y1358347D01*
X1358613D01*
Y1355347D02*
Y1358347D01*
X1355613Y1355347D02*
X1358613D01*
X-102637Y619947D02*
Y623757D01*
Y616137D02*
Y619947D01*
X-106447D02*
X-102637D01*
X-98827D01*
X1174892Y762432D02*
Y765632D01*
X1178092D01*
X1171692D02*
X1174892D01*
Y768832D01*
D112*
X1462695Y474353D02*
G03*
X1462695Y474353I-32J0D01*
G01*
M02*
