G04 Layer_Color=16711935*
%FSLAX44Y44*%
%MOMM*%
G71*
G01*
G75*
G04:AMPARAMS|DCode=52|XSize=5.4991mm|YSize=2.1082mm|CornerRadius=0mm|HoleSize=0mm|Usage=FLASHONLY|Rotation=315.000|XOffset=0mm|YOffset=0mm|HoleType=Round|Shape=Rectangle|*
%AMROTATEDRECTD52*
4,1,4,-2.6896,1.1989,-1.1989,2.6896,2.6896,-1.1989,1.1989,-2.6896,-2.6896,1.1989,0.0*
%
%ADD52ROTATEDRECTD52*%

%ADD67R,1.2032X1.1032*%
%ADD68R,1.1032X1.2032*%
%ADD69R,1.2032X1.2032*%
%ADD72R,1.5032X1.7032*%
%ADD73C,2.0000*%
%ADD74R,2.0000X2.0000*%
%ADD79C,2.4032*%
G04:AMPARAMS|DCode=80|XSize=1.1032mm|YSize=1.7032mm|CornerRadius=0mm|HoleSize=0mm|Usage=FLASHONLY|Rotation=180.000|XOffset=0mm|YOffset=0mm|HoleType=Round|Shape=Octagon|*
%AMOCTAGOND80*
4,1,8,0.2758,-0.8516,-0.2758,-0.8516,-0.5516,-0.5758,-0.5516,0.5758,-0.2758,0.8516,0.2758,0.8516,0.5516,0.5758,0.5516,-0.5758,0.2758,-0.8516,0.0*
%
%ADD80OCTAGOND80*%

%ADD81O,2.9032X3.8032*%
G04:AMPARAMS|DCode=82|XSize=1.8032mm|YSize=2.3032mm|CornerRadius=0mm|HoleSize=0mm|Usage=FLASHONLY|Rotation=0.000|XOffset=0mm|YOffset=0mm|HoleType=Round|Shape=Octagon|*
%AMOCTAGOND82*
4,1,8,-0.4508,1.1516,0.4508,1.1516,0.9016,0.7008,0.9016,-0.7008,0.4508,-1.1516,-0.4508,-1.1516,-0.9016,-0.7008,-0.9016,0.7008,-0.4508,1.1516,0.0*
%
%ADD82OCTAGOND82*%

G04:AMPARAMS|DCode=83|XSize=2.0032mm|YSize=2.7032mm|CornerRadius=0mm|HoleSize=0mm|Usage=FLASHONLY|Rotation=0.000|XOffset=0mm|YOffset=0mm|HoleType=Round|Shape=Octagon|*
%AMOCTAGOND83*
4,1,8,-0.5008,1.3516,0.5008,1.3516,1.0016,0.8508,1.0016,-0.8508,0.5008,-1.3516,-0.5008,-1.3516,-1.0016,-0.8508,-1.0016,0.8508,-0.5008,1.3516,0.0*
%
%ADD83OCTAGOND83*%

%ADD84C,3.2032*%
%ADD85C,1.2032*%
G04:AMPARAMS|DCode=86|XSize=2.7032mm|YSize=1.7032mm|CornerRadius=0mm|HoleSize=0mm|Usage=FLASHONLY|Rotation=270.000|XOffset=0mm|YOffset=0mm|HoleType=Round|Shape=Octagon|*
%AMOCTAGOND86*
4,1,8,-0.4258,-1.3516,0.4258,-1.3516,0.8516,-0.9258,0.8516,0.9258,0.4258,1.3516,-0.4258,1.3516,-0.8516,0.9258,-0.8516,-0.9258,-0.4258,-1.3516,0.0*
%
%ADD86OCTAGOND86*%

%ADD87C,0.7032*%
%ADD88C,1.7032*%
%ADD89R,1.7032X1.7032*%
%ADD90R,1.7032X0.8032*%
%ADD91P,1.7016X4X270.0*%
%ADD92R,1.7032X1.5032*%
%ADD93R,1.2032X1.2032*%
%ADD94R,0.6532X0.9032*%
%ADD95R,0.9032X0.6532*%
%ADD96R,0.8032X1.7032*%
%ADD97R,1.0032X0.9032*%
G04:AMPARAMS|DCode=98|XSize=0.8032mm|YSize=1.0032mm|CornerRadius=0mm|HoleSize=0mm|Usage=FLASHONLY|Rotation=225.000|XOffset=0mm|YOffset=0mm|HoleType=Round|Shape=Rectangle|*
%AMROTATEDRECTD98*
4,1,4,-0.0707,0.6387,0.6387,-0.0707,0.0707,-0.6387,-0.6387,0.0707,-0.0707,0.6387,0.0*
%
%ADD98ROTATEDRECTD98*%

%ADD99R,1.0032X0.8032*%
G04:AMPARAMS|DCode=100|XSize=0.8032mm|YSize=1.0032mm|CornerRadius=0mm|HoleSize=0mm|Usage=FLASHONLY|Rotation=315.000|XOffset=0mm|YOffset=0mm|HoleType=Round|Shape=Rectangle|*
%AMROTATEDRECTD100*
4,1,4,-0.6387,-0.0707,0.0707,0.6387,0.6387,0.0707,-0.0707,-0.6387,-0.6387,-0.0707,0.0*
%
%ADD100ROTATEDRECTD100*%

%ADD101R,1.3032X0.9032*%
%ADD102R,0.7032X0.4532*%
%ADD103R,1.1032X1.8032*%
%ADD104R,1.4032X0.8532*%
%ADD105R,1.2032X0.8032*%
G04:AMPARAMS|DCode=106|XSize=0.5032mm|YSize=1.6532mm|CornerRadius=0mm|HoleSize=0mm|Usage=FLASHONLY|Rotation=315.000|XOffset=0mm|YOffset=0mm|HoleType=Round|Shape=Rectangle|*
%AMROTATEDRECTD106*
4,1,4,-0.7624,-0.4066,0.4066,0.7624,0.7624,0.4066,-0.4066,-0.7624,-0.7624,-0.4066,0.0*
%
%ADD106ROTATEDRECTD106*%

G04:AMPARAMS|DCode=107|XSize=0.5032mm|YSize=1.6532mm|CornerRadius=0mm|HoleSize=0mm|Usage=FLASHONLY|Rotation=45.000|XOffset=0mm|YOffset=0mm|HoleType=Round|Shape=Rectangle|*
%AMROTATEDRECTD107*
4,1,4,0.4066,-0.7624,-0.7624,0.4066,-0.4066,0.7624,0.7624,-0.4066,0.4066,-0.7624,0.0*
%
%ADD107ROTATEDRECTD107*%

D52*
X446651Y1041789D02*
D03*
X378849Y1109591D02*
D03*
D67*
X152400Y897400D02*
D03*
Y914400D02*
D03*
X911860Y897010D02*
D03*
Y914010D02*
D03*
X180455Y994342D02*
D03*
X180455Y977342D02*
D03*
X21590Y773040D02*
D03*
Y756040D02*
D03*
X6350Y773040D02*
D03*
Y756040D02*
D03*
X-8890Y773040D02*
D03*
Y756040D02*
D03*
X-24130Y773040D02*
D03*
Y756040D02*
D03*
X4243Y-20147D02*
D03*
Y-37147D02*
D03*
X763270Y-20150D02*
D03*
Y-37150D02*
D03*
X729110Y775580D02*
D03*
Y758580D02*
D03*
X382296Y-20150D02*
D03*
Y-37150D02*
D03*
D68*
X248040Y1015942D02*
D03*
X265040D02*
D03*
X258315Y970222D02*
D03*
X275315D02*
D03*
X258315Y954982D02*
D03*
X275315D02*
D03*
X678570Y557530D02*
D03*
X695570D02*
D03*
X661280Y449580D02*
D03*
X644280D02*
D03*
X670950Y605790D02*
D03*
X687950D02*
D03*
X760892Y920750D02*
D03*
X743892D02*
D03*
X-9770Y60960D02*
D03*
X7230D02*
D03*
X407280Y789940D02*
D03*
X390280D02*
D03*
X575913Y661670D02*
D03*
X592913D02*
D03*
X750306Y60960D02*
D03*
X767307D02*
D03*
X407280Y758800D02*
D03*
X390280D02*
D03*
X639200Y676910D02*
D03*
X656200D02*
D03*
X1119750Y52070D02*
D03*
X1102750D02*
D03*
X369960Y60960D02*
D03*
X386960D02*
D03*
X725959Y676910D02*
D03*
X742959D02*
D03*
X-30870Y60960D02*
D03*
X-47870D02*
D03*
X407280Y714795D02*
D03*
X390280D02*
D03*
X620240Y676910D02*
D03*
X603240D02*
D03*
X729860Y60960D02*
D03*
X712860D02*
D03*
X1109590Y29210D02*
D03*
X1092590D02*
D03*
X348860Y60960D02*
D03*
X331860D02*
D03*
X777740Y676910D02*
D03*
X760740D02*
D03*
X1146420Y29210D02*
D03*
X1129420D02*
D03*
D69*
X217285Y1015942D02*
D03*
X233285D02*
D03*
X232030Y910590D02*
D03*
X248030D02*
D03*
X232030Y895350D02*
D03*
X248030D02*
D03*
X991490D02*
D03*
X1007490D02*
D03*
X991490Y910590D02*
D03*
X1007490D02*
D03*
X248540Y1031240D02*
D03*
X264540D02*
D03*
D72*
X198510Y897890D02*
D03*
X215510D02*
D03*
X957970D02*
D03*
X974970D02*
D03*
X1260840Y693380D02*
D03*
X1277840D02*
D03*
X1338800D02*
D03*
X1321800D02*
D03*
D73*
X218440Y350D02*
D03*
X1087120Y0D02*
D03*
D74*
X1214663Y1248410D02*
D03*
D79*
X32163Y888347D02*
D03*
X522163D02*
D03*
X792163D02*
D03*
X1282163D02*
D03*
D80*
X-42887Y1354597D02*
D03*
X-30087D02*
D03*
X597213Y853597D02*
D03*
X584413D02*
D03*
X410513D02*
D03*
X143813D02*
D03*
X156513D02*
D03*
X169213D02*
D03*
X181913D02*
D03*
X194613D02*
D03*
X207313D02*
D03*
X220013D02*
D03*
X232713D02*
D03*
X245413D02*
D03*
X258113D02*
D03*
X270813D02*
D03*
X283513D02*
D03*
X296213D02*
D03*
X308913D02*
D03*
X321613D02*
D03*
X334313D02*
D03*
X347013D02*
D03*
X359713D02*
D03*
X372413D02*
D03*
X385113D02*
D03*
X397813D02*
D03*
X-30087D02*
D03*
X-42887D02*
D03*
X584413Y1354597D02*
D03*
X597213D02*
D03*
X717113D02*
D03*
X729913D02*
D03*
X1357213Y853597D02*
D03*
X1344413D02*
D03*
X1170513D02*
D03*
X903813D02*
D03*
X916513D02*
D03*
X929213D02*
D03*
X941913D02*
D03*
X954613D02*
D03*
X967313D02*
D03*
X980013D02*
D03*
X992713D02*
D03*
X1005413D02*
D03*
X1018113D02*
D03*
X1030813D02*
D03*
X1043513D02*
D03*
X1056213D02*
D03*
X1068913D02*
D03*
X1081613D02*
D03*
X1094313D02*
D03*
X1107013D02*
D03*
X1119713D02*
D03*
X1132413D02*
D03*
X1145113D02*
D03*
X1157813D02*
D03*
X729913D02*
D03*
X717113D02*
D03*
X1344413Y1354597D02*
D03*
X1357213D02*
D03*
D81*
X1094163Y760847D02*
D03*
X980163D02*
D03*
X334163D02*
D03*
X220163D02*
D03*
D82*
X1062163Y830847D02*
D03*
X1012163D02*
D03*
X1062163Y685847D02*
D03*
X1037163D02*
D03*
X1012163D02*
D03*
X302163Y830847D02*
D03*
X252163D02*
D03*
X302163Y685847D02*
D03*
X277163D02*
D03*
X252163D02*
D03*
D83*
X124663Y400347D02*
D03*
X99663D02*
D03*
X74663D02*
D03*
X49663D02*
D03*
D03*
X504663D02*
D03*
X479663D02*
D03*
X454663D02*
D03*
X429663D02*
D03*
D03*
X884663D02*
D03*
X859663D02*
D03*
X834663D02*
D03*
X809663D02*
D03*
D03*
X1264663Y400347D02*
D03*
X1239663D02*
D03*
X1214663D02*
D03*
X1189663D02*
D03*
D03*
X124663Y110347D02*
D03*
X99663D02*
D03*
X74663D02*
D03*
X49663D02*
D03*
D03*
X504663D02*
D03*
X479663D02*
D03*
X454663D02*
D03*
X429663D02*
D03*
D03*
X884663Y110347D02*
D03*
X859663D02*
D03*
X834663D02*
D03*
X809663D02*
D03*
D03*
X1189663Y110347D02*
D03*
D03*
X1214663D02*
D03*
X1239663D02*
D03*
X1264663D02*
D03*
D84*
X29163Y510347D02*
D03*
X145163D02*
D03*
X409163D02*
D03*
X525163D02*
D03*
X789163D02*
D03*
X905163D02*
D03*
X1169163Y510347D02*
D03*
X1285163D02*
D03*
X29163Y220347D02*
D03*
X145163D02*
D03*
X409163D02*
D03*
X525163D02*
D03*
X789163Y220347D02*
D03*
X905163D02*
D03*
X1285163Y220347D02*
D03*
X1169163D02*
D03*
D85*
X26670Y731520D02*
D03*
X13970D02*
D03*
X1270D02*
D03*
X-11430D02*
D03*
X-24130Y718820D02*
D03*
Y731520D02*
D03*
X-11430Y718820D02*
D03*
X1270D02*
D03*
X13970D02*
D03*
X26670D02*
D03*
D86*
X1251150Y765630D02*
D03*
X1276150D02*
D03*
D87*
X1296010Y663280D02*
D03*
Y655280D02*
D03*
D88*
X-102637Y619947D02*
D03*
Y594547D02*
D03*
X-77237Y619947D02*
D03*
Y594547D02*
D03*
X-51837Y619947D02*
D03*
X-51837Y594547D02*
D03*
X-26437Y619947D02*
D03*
X-26437Y594547D02*
D03*
X-1037Y619947D02*
D03*
Y594547D02*
D03*
X24363Y619947D02*
D03*
Y594547D02*
D03*
X49763Y619947D02*
D03*
Y594547D02*
D03*
X75163Y619947D02*
D03*
X75163Y594547D02*
D03*
X100563Y619947D02*
D03*
Y594547D02*
D03*
X125963Y619947D02*
D03*
D89*
Y594547D02*
D03*
D90*
X469240Y713740D02*
D03*
X450240Y723240D02*
D03*
Y704240D02*
D03*
X469240Y749300D02*
D03*
X450240Y758800D02*
D03*
Y739800D02*
D03*
X469240Y784860D02*
D03*
X450240Y794360D02*
D03*
Y775360D02*
D03*
X619240Y749300D02*
D03*
X600240Y758800D02*
D03*
Y739800D02*
D03*
X619240Y784860D02*
D03*
X600240Y794360D02*
D03*
Y775360D02*
D03*
X619240Y713740D02*
D03*
X600240Y723240D02*
D03*
Y704240D02*
D03*
X769240Y713740D02*
D03*
X750240Y723240D02*
D03*
Y704240D02*
D03*
X769240Y749300D02*
D03*
X750240Y758800D02*
D03*
Y739800D02*
D03*
X769240Y784860D02*
D03*
X750240Y794360D02*
D03*
Y775360D02*
D03*
X49240Y24860D02*
D03*
X30240Y34360D02*
D03*
Y15360D02*
D03*
X49240Y-46260D02*
D03*
X30240Y-36760D02*
D03*
Y-55760D02*
D03*
X49240Y-10700D02*
D03*
X30240Y-1200D02*
D03*
Y-20200D02*
D03*
X429240Y-46260D02*
D03*
X410240Y-36760D02*
D03*
Y-55760D02*
D03*
X429240Y24860D02*
D03*
X410240Y34360D02*
D03*
Y15360D02*
D03*
X429240Y-10700D02*
D03*
X410240Y-1200D02*
D03*
Y-20200D02*
D03*
X809240Y24860D02*
D03*
X790240Y34360D02*
D03*
Y15360D02*
D03*
X809240Y-46260D02*
D03*
X790240Y-36760D02*
D03*
Y-55760D02*
D03*
X809240Y-10700D02*
D03*
X790240Y-1200D02*
D03*
Y-20200D02*
D03*
X1189240Y-10700D02*
D03*
X1170240Y-1200D02*
D03*
Y-20200D02*
D03*
X1189240Y-46260D02*
D03*
X1170240Y-36760D02*
D03*
Y-55760D02*
D03*
X1189240Y24860D02*
D03*
X1170240Y34360D02*
D03*
Y15360D02*
D03*
X797898Y855068D02*
D03*
X778898Y864568D02*
D03*
Y845568D02*
D03*
X1262990Y667980D02*
D03*
Y648980D02*
D03*
X1243990Y658480D02*
D03*
D91*
X462857Y1191953D02*
D03*
X451543Y1203267D02*
D03*
X407093Y1025467D02*
D03*
X418407Y1014153D02*
D03*
X351213Y1081347D02*
D03*
X362527Y1070033D02*
D03*
X543643Y988637D02*
D03*
X554957Y977323D02*
D03*
D92*
X170180Y914010D02*
D03*
Y897010D02*
D03*
X929213Y913620D02*
D03*
Y896620D02*
D03*
D93*
X195695Y977842D02*
D03*
Y993842D02*
D03*
D94*
X165215Y997342D02*
D03*
X165215Y974342D02*
D03*
X37709Y776040D02*
D03*
Y753040D02*
D03*
D95*
X255315Y1000702D02*
D03*
X278315Y1000702D02*
D03*
D96*
X-17547Y893420D02*
D03*
X-27047Y874420D02*
D03*
X-8047D02*
D03*
X751438Y959460D02*
D03*
X770437D02*
D03*
X760938Y940460D02*
D03*
D97*
X1305820Y636230D02*
D03*
X1293820D02*
D03*
X1306520Y709750D02*
D03*
X1318520D02*
D03*
X1293820Y697190D02*
D03*
X1305820D02*
D03*
D98*
X471603Y1202257D02*
D03*
X463117Y1210743D02*
D03*
X508906Y1229956D02*
D03*
X500421Y1238441D02*
D03*
X833957Y1203123D02*
D03*
X842443Y1194637D02*
D03*
X839037Y1077393D02*
D03*
X847523Y1068907D02*
D03*
X807734Y1046219D02*
D03*
X816219Y1037734D02*
D03*
X780786Y1021513D02*
D03*
X789271Y1013027D02*
D03*
X563043Y988537D02*
D03*
X554557Y997022D02*
D03*
X725170Y957580D02*
D03*
X733655Y949095D02*
D03*
D99*
X567340Y1283696D02*
D03*
X555340D02*
D03*
X567407Y1295400D02*
D03*
X555407D02*
D03*
X716630Y1316990D02*
D03*
X728630D02*
D03*
X789740Y1280160D02*
D03*
X777740D02*
D03*
D100*
X535103Y1011353D02*
D03*
X526617Y1002867D02*
D03*
D101*
X212775Y1097000D02*
D03*
X168276D02*
D03*
Y1062000D02*
D03*
X212775D02*
D03*
D102*
X1286510Y651590D02*
D03*
Y656590D02*
D03*
Y661590D02*
D03*
Y666590D02*
D03*
X1305510Y651590D02*
D03*
Y656590D02*
D03*
Y661590D02*
D03*
Y666590D02*
D03*
D103*
X1296010Y659090D02*
D03*
D104*
X1339190Y672230D02*
D03*
X1339190Y644730D02*
D03*
D105*
X239175Y994961D02*
D03*
Y985461D02*
D03*
X239175Y975961D02*
D03*
X213175D02*
D03*
X213175Y994961D02*
D03*
D106*
X642625Y941102D02*
D03*
X639089Y944638D02*
D03*
X635554Y948174D02*
D03*
X632018Y951709D02*
D03*
X628483Y955245D02*
D03*
X624947Y958780D02*
D03*
X621412Y962316D02*
D03*
X617876Y965851D02*
D03*
X614340Y969387D02*
D03*
X610805Y972922D02*
D03*
X607269Y976458D02*
D03*
X603734Y979993D02*
D03*
X600198Y983529D02*
D03*
X596663Y987064D02*
D03*
X593127Y990600D02*
D03*
X589592Y994135D02*
D03*
X586056Y997671D02*
D03*
X582521Y1001207D02*
D03*
X578985Y1004742D02*
D03*
X575449Y1008278D02*
D03*
X571914Y1011813D02*
D03*
X568378Y1015349D02*
D03*
X564843Y1018884D02*
D03*
X561307Y1022420D02*
D03*
X557772Y1025955D02*
D03*
X554236Y1029491D02*
D03*
X550701Y1033026D02*
D03*
X547165Y1036562D02*
D03*
X543630Y1040097D02*
D03*
X540094Y1043633D02*
D03*
X536559Y1047168D02*
D03*
X533023Y1050704D02*
D03*
X529488Y1054240D02*
D03*
X525952Y1057775D02*
D03*
X522416Y1061311D02*
D03*
X518881Y1064846D02*
D03*
X515345Y1068382D02*
D03*
X511810Y1071917D02*
D03*
X508274Y1075453D02*
D03*
X504739Y1078988D02*
D03*
X501203Y1082524D02*
D03*
X497668Y1086059D02*
D03*
X494132Y1089595D02*
D03*
X490597Y1093130D02*
D03*
X487061Y1096666D02*
D03*
X483526Y1100201D02*
D03*
X479990Y1103737D02*
D03*
X476455Y1107272D02*
D03*
X472919Y1110808D02*
D03*
X469384Y1114344D02*
D03*
X465848Y1117879D02*
D03*
X462312Y1121415D02*
D03*
X670555Y1329658D02*
D03*
X674091Y1326122D02*
D03*
X677626Y1322587D02*
D03*
X681162Y1319051D02*
D03*
X684697Y1315515D02*
D03*
X688233Y1311980D02*
D03*
X691768Y1308444D02*
D03*
X695304Y1304909D02*
D03*
X698840Y1301373D02*
D03*
X702375Y1297838D02*
D03*
X705911Y1294302D02*
D03*
X709446Y1290767D02*
D03*
X712982Y1287231D02*
D03*
X716517Y1283696D02*
D03*
X720053Y1280160D02*
D03*
X723588Y1276625D02*
D03*
X727124Y1273089D02*
D03*
X730659Y1269554D02*
D03*
X734195Y1266018D02*
D03*
X737730Y1262482D02*
D03*
X741266Y1258947D02*
D03*
X744802Y1255411D02*
D03*
X748337Y1251876D02*
D03*
X751873Y1248340D02*
D03*
X755408Y1244805D02*
D03*
X758944Y1241269D02*
D03*
X762479Y1237734D02*
D03*
X766015Y1234198D02*
D03*
X769550Y1230663D02*
D03*
X773086Y1227127D02*
D03*
X776621Y1223592D02*
D03*
X780157Y1220056D02*
D03*
X783692Y1216520D02*
D03*
X787228Y1212985D02*
D03*
X790763Y1209449D02*
D03*
X794299Y1205914D02*
D03*
X797835Y1202378D02*
D03*
X801370Y1198843D02*
D03*
X804906Y1195307D02*
D03*
X808441Y1191772D02*
D03*
X811977Y1188236D02*
D03*
X815512Y1184701D02*
D03*
X819048Y1181165D02*
D03*
X822583Y1177630D02*
D03*
X826119Y1174094D02*
D03*
X829654Y1170558D02*
D03*
X833190Y1167023D02*
D03*
X836725Y1163487D02*
D03*
X840261Y1159952D02*
D03*
X843796Y1156416D02*
D03*
X847332Y1152881D02*
D03*
X850868Y1149345D02*
D03*
D107*
X462312D02*
D03*
X465848Y1152881D02*
D03*
X469384Y1156416D02*
D03*
X472919Y1159952D02*
D03*
X476455Y1163487D02*
D03*
X479990Y1167023D02*
D03*
X483526Y1170558D02*
D03*
X487061Y1174094D02*
D03*
X490597Y1177630D02*
D03*
X494132Y1181165D02*
D03*
X497668Y1184701D02*
D03*
X501203Y1188236D02*
D03*
X504739Y1191772D02*
D03*
X508274Y1195307D02*
D03*
X511810Y1198843D02*
D03*
X515345Y1202378D02*
D03*
X518881Y1205914D02*
D03*
X522416Y1209449D02*
D03*
X525952Y1212985D02*
D03*
X529488Y1216520D02*
D03*
X533023Y1220056D02*
D03*
X536559Y1223592D02*
D03*
X540094Y1227127D02*
D03*
X543630Y1230663D02*
D03*
X547165Y1234198D02*
D03*
X550701Y1237734D02*
D03*
X554236Y1241269D02*
D03*
X557772Y1244805D02*
D03*
X561307Y1248340D02*
D03*
X564843Y1251876D02*
D03*
X568378Y1255411D02*
D03*
X571914Y1258947D02*
D03*
X575449Y1262482D02*
D03*
X578985Y1266018D02*
D03*
X582521Y1269554D02*
D03*
X586056Y1273089D02*
D03*
X589592Y1276625D02*
D03*
X593127Y1280160D02*
D03*
X596663Y1283696D02*
D03*
X600198Y1287231D02*
D03*
X603734Y1290767D02*
D03*
X607269Y1294302D02*
D03*
X610805Y1297838D02*
D03*
X614340Y1301373D02*
D03*
X617876Y1304909D02*
D03*
X621412Y1308444D02*
D03*
X624947Y1311980D02*
D03*
X628483Y1315515D02*
D03*
X632018Y1319051D02*
D03*
X635554Y1322587D02*
D03*
X639089Y1326122D02*
D03*
X642625Y1329658D02*
D03*
X850868Y1121415D02*
D03*
X847332Y1117879D02*
D03*
X843796Y1114344D02*
D03*
X840261Y1110808D02*
D03*
X836725Y1107272D02*
D03*
X833190Y1103737D02*
D03*
X829654Y1100201D02*
D03*
X826119Y1096666D02*
D03*
X822583Y1093130D02*
D03*
X819048Y1089595D02*
D03*
X815512Y1086059D02*
D03*
X811977Y1082524D02*
D03*
X808441Y1078988D02*
D03*
X804906Y1075453D02*
D03*
X801370Y1071917D02*
D03*
X797835Y1068382D02*
D03*
X794299Y1064846D02*
D03*
X790763Y1061311D02*
D03*
X787228Y1057775D02*
D03*
X783692Y1054240D02*
D03*
X780157Y1050704D02*
D03*
X776621Y1047168D02*
D03*
X773086Y1043633D02*
D03*
X769550Y1040097D02*
D03*
X766015Y1036562D02*
D03*
X762479Y1033026D02*
D03*
X758944Y1029491D02*
D03*
X755408Y1025955D02*
D03*
X751873Y1022420D02*
D03*
X748337Y1018884D02*
D03*
X744802Y1015349D02*
D03*
X741266Y1011813D02*
D03*
X737730Y1008278D02*
D03*
X734195Y1004742D02*
D03*
X730659Y1001207D02*
D03*
X727124Y997671D02*
D03*
X723588Y994135D02*
D03*
X720053Y990600D02*
D03*
X716517Y987064D02*
D03*
X712982Y983529D02*
D03*
X709446Y979993D02*
D03*
X705911Y976458D02*
D03*
X702375Y972922D02*
D03*
X698840Y969387D02*
D03*
X695304Y965851D02*
D03*
X691768Y962316D02*
D03*
X688233Y958780D02*
D03*
X684697Y955245D02*
D03*
X681162Y951709D02*
D03*
X677626Y948174D02*
D03*
X674091Y944638D02*
D03*
X670555Y941102D02*
D03*
M02*
