G04*
G04 #@! TF.GenerationSoftware,Altium Limited,Altium Designer,22.1.2 (22)*
G04*
G04 Layer_Color=16711935*
%FSLAX44Y44*%
%MOMM*%
G71*
G04*
G04 #@! TF.SameCoordinates,E984ECC1-2850-43E0-9178-450474204A0E*
G04*
G04*
G04 #@! TF.FilePolarity,Negative*
G04*
G01*
G75*
%ADD29R,1.1016X1.0016*%
%ADD31C,2.0000*%
%ADD32R,2.0000X2.0000*%
%ADD33R,1.0016X1.1016*%
%ADD41R,1.4016X1.6016*%
%ADD42R,1.1016X1.1016*%
%ADD43C,2.3016*%
G04:AMPARAMS|DCode=44|XSize=1.0016mm|YSize=1.6016mm|CornerRadius=0mm|HoleSize=0mm|Usage=FLASHONLY|Rotation=180.000|XOffset=0mm|YOffset=0mm|HoleType=Round|Shape=Octagon|*
%AMOCTAGOND44*
4,1,8,0.2504,-0.8008,-0.2504,-0.8008,-0.5008,-0.5504,-0.5008,0.5504,-0.2504,0.8008,0.2504,0.8008,0.5008,0.5504,0.5008,-0.5504,0.2504,-0.8008,0.0*
%
%ADD44OCTAGOND44*%

G04:AMPARAMS|DCode=45|XSize=1.9016mm|YSize=2.6016mm|CornerRadius=0mm|HoleSize=0mm|Usage=FLASHONLY|Rotation=0.000|XOffset=0mm|YOffset=0mm|HoleType=Round|Shape=Octagon|*
%AMOCTAGOND45*
4,1,8,-0.4754,1.3008,0.4754,1.3008,0.9508,0.8254,0.9508,-0.8254,0.4754,-1.3008,-0.4754,-1.3008,-0.9508,-0.8254,-0.9508,0.8254,-0.4754,1.3008,0.0*
%
%ADD45OCTAGOND45*%

%ADD46C,3.1016*%
%ADD47C,1.1016*%
%ADD48O,3.7016X2.8016*%
G04:AMPARAMS|DCode=49|XSize=1.7016mm|YSize=2.2016mm|CornerRadius=0mm|HoleSize=0mm|Usage=FLASHONLY|Rotation=90.000|XOffset=0mm|YOffset=0mm|HoleType=Round|Shape=Octagon|*
%AMOCTAGOND49*
4,1,8,-1.1008,-0.4254,-1.1008,0.4254,-0.6754,0.8508,0.6754,0.8508,1.1008,0.4254,1.1008,-0.4254,0.6754,-0.8508,-0.6754,-0.8508,-1.1008,-0.4254,0.0*
%
%ADD49OCTAGOND49*%

G04:AMPARAMS|DCode=79|XSize=5.4991mm|YSize=2.1082mm|CornerRadius=0mm|HoleSize=0mm|Usage=FLASHONLY|Rotation=315.000|XOffset=0mm|YOffset=0mm|HoleType=Round|Shape=Rectangle|*
%AMROTATEDRECTD79*
4,1,4,-2.6896,1.1989,-1.1989,2.6896,2.6896,-1.1989,1.1989,-2.6896,-2.6896,1.1989,0.0*
%
%ADD79ROTATEDRECTD79*%

G04:AMPARAMS|DCode=85|XSize=9.1016mm|YSize=1.9016mm|CornerRadius=0.5008mm|HoleSize=0mm|Usage=FLASHONLY|Rotation=270.000|XOffset=0mm|YOffset=0mm|HoleType=Round|Shape=RoundedRectangle|*
%AMROUNDEDRECTD85*
21,1,9.1016,0.9000,0,0,270.0*
21,1,8.1000,1.9016,0,0,270.0*
1,1,1.0016,-0.4500,-4.0500*
1,1,1.0016,-0.4500,4.0500*
1,1,1.0016,0.4500,4.0500*
1,1,1.0016,0.4500,-4.0500*
%
%ADD85ROUNDEDRECTD85*%
%ADD86R,0.4016X1.4016*%
%ADD87R,1.6016X0.7016*%
%ADD88P,1.5579X4X90.0*%
G04:AMPARAMS|DCode=89|XSize=0.7016mm|YSize=0.9016mm|CornerRadius=0mm|HoleSize=0mm|Usage=FLASHONLY|Rotation=225.000|XOffset=0mm|YOffset=0mm|HoleType=Round|Shape=Rectangle|*
%AMROTATEDRECTD89*
4,1,4,-0.0707,0.5668,0.5668,-0.0707,0.0707,-0.5668,-0.5668,0.0707,-0.0707,0.5668,0.0*
%
%ADD89ROTATEDRECTD89*%

G04:AMPARAMS|DCode=90|XSize=0.7016mm|YSize=0.9016mm|CornerRadius=0mm|HoleSize=0mm|Usage=FLASHONLY|Rotation=315.000|XOffset=0mm|YOffset=0mm|HoleType=Round|Shape=Rectangle|*
%AMROTATEDRECTD90*
4,1,4,-0.5668,-0.0707,0.0707,0.5668,0.5668,0.0707,-0.0707,-0.5668,-0.5668,-0.0707,0.0*
%
%ADD90ROTATEDRECTD90*%

%ADD91R,0.9016X0.7016*%
%ADD92R,0.7016X1.6016*%
%ADD93R,1.6016X1.4016*%
%ADD94R,1.1016X1.1016*%
%ADD95R,1.1016X0.7016*%
G04:AMPARAMS|DCode=96|XSize=0.4016mm|YSize=1.5516mm|CornerRadius=0mm|HoleSize=0mm|Usage=FLASHONLY|Rotation=315.000|XOffset=0mm|YOffset=0mm|HoleType=Round|Shape=Rectangle|*
%AMROTATEDRECTD96*
4,1,4,-0.6906,-0.4066,0.4066,0.6906,0.6906,0.4066,-0.4066,-0.6906,-0.6906,-0.4066,0.0*
%
%ADD96ROTATEDRECTD96*%

G04:AMPARAMS|DCode=97|XSize=0.4016mm|YSize=1.5516mm|CornerRadius=0mm|HoleSize=0mm|Usage=FLASHONLY|Rotation=45.000|XOffset=0mm|YOffset=0mm|HoleType=Round|Shape=Rectangle|*
%AMROTATEDRECTD97*
4,1,4,0.4066,-0.6906,-0.6906,0.4066,-0.4066,0.6906,0.6906,-0.4066,0.4066,-0.6906,0.0*
%
%ADD97ROTATEDRECTD97*%

%ADD98R,0.5516X0.8016*%
%ADD99R,1.2016X0.8016*%
%ADD100R,0.8016X0.5516*%
D29*
X527793Y66920D02*
D03*
Y49920D02*
D03*
X908126Y66802D02*
D03*
Y49802D02*
D03*
X1287793Y66233D02*
D03*
Y49233D02*
D03*
X147793Y67597D02*
D03*
Y50597D02*
D03*
X858190Y828635D02*
D03*
Y811635D02*
D03*
X725175Y847883D02*
D03*
Y830883D02*
D03*
X802652Y847883D02*
D03*
Y830883D02*
D03*
X777808Y847883D02*
D03*
Y830883D02*
D03*
X752807Y847493D02*
D03*
Y830492D02*
D03*
X661221Y848531D02*
D03*
Y831532D02*
D03*
X633400Y848143D02*
D03*
Y831143D02*
D03*
X603843Y847883D02*
D03*
Y830883D02*
D03*
X75870Y773040D02*
D03*
Y756040D02*
D03*
X104243Y-20147D02*
D03*
Y-37147D02*
D03*
X121590Y773040D02*
D03*
Y756040D02*
D03*
X280455Y994342D02*
D03*
X280455Y977342D02*
D03*
X482296Y-20150D02*
D03*
Y-37150D02*
D03*
X813796Y706310D02*
D03*
Y723310D02*
D03*
X813526Y739530D02*
D03*
Y756530D02*
D03*
X829110Y775580D02*
D03*
Y758580D02*
D03*
X889163Y676559D02*
D03*
Y693559D02*
D03*
X1011860Y897010D02*
D03*
Y914010D02*
D03*
X91110Y773040D02*
D03*
Y756040D02*
D03*
X106350Y773040D02*
D03*
Y756040D02*
D03*
X252400Y897400D02*
D03*
Y914400D02*
D03*
X654990Y698890D02*
D03*
Y715890D02*
D03*
X661221Y759850D02*
D03*
Y776850D02*
D03*
X863270Y-20150D02*
D03*
Y-37150D02*
D03*
D31*
X1467790Y115570D02*
D03*
X22530D02*
D03*
D32*
X1394386Y1257996D02*
D03*
D33*
X1433440Y91440D02*
D03*
X1416440D02*
D03*
X1433440Y106620D02*
D03*
X1416440D02*
D03*
X1433440Y122340D02*
D03*
X1416440D02*
D03*
X1062727Y91440D02*
D03*
X1045727D02*
D03*
X1062727Y106620D02*
D03*
X1045727D02*
D03*
X1062727Y122340D02*
D03*
X1045727D02*
D03*
X687950Y91440D02*
D03*
X670950D02*
D03*
X687950Y106620D02*
D03*
X670950D02*
D03*
X687950Y122340D02*
D03*
X670950D02*
D03*
X300302Y91367D02*
D03*
X283302D02*
D03*
X300302Y106617D02*
D03*
X283302D02*
D03*
X300302Y122342D02*
D03*
X283302D02*
D03*
X90230Y60960D02*
D03*
X107230D02*
D03*
X358315Y970222D02*
D03*
X375315D02*
D03*
X507280Y789940D02*
D03*
X490280D02*
D03*
X677121Y742857D02*
D03*
X660120D02*
D03*
X860892Y920750D02*
D03*
X843892D02*
D03*
X1219750Y52070D02*
D03*
X1202750D02*
D03*
X1246420Y29210D02*
D03*
X1229420D02*
D03*
X69130Y60960D02*
D03*
X52130D02*
D03*
X348040Y1015942D02*
D03*
X365040D02*
D03*
X358315Y954982D02*
D03*
X375315D02*
D03*
X448860Y60960D02*
D03*
X431860D02*
D03*
X469960D02*
D03*
X486960D02*
D03*
X507280Y714795D02*
D03*
X490280D02*
D03*
X507280Y758800D02*
D03*
X490280D02*
D03*
X761280Y449580D02*
D03*
X744280D02*
D03*
X779822Y449580D02*
D03*
X796822D02*
D03*
X829860Y60960D02*
D03*
X812860D02*
D03*
X850306D02*
D03*
X867307D02*
D03*
X1209590Y29210D02*
D03*
X1192590D02*
D03*
D41*
X298510Y897890D02*
D03*
X315510D02*
D03*
X1057970D02*
D03*
X1074970D02*
D03*
D42*
X332030Y910590D02*
D03*
X348030D02*
D03*
X348540Y1031240D02*
D03*
X364540D02*
D03*
X1091490Y910590D02*
D03*
X1107490D02*
D03*
X332030Y895350D02*
D03*
X348030D02*
D03*
X317285Y1015942D02*
D03*
X333285D02*
D03*
X1091490Y895350D02*
D03*
X1107490D02*
D03*
D43*
X132163Y888597D02*
D03*
X622163D02*
D03*
X1382163D02*
D03*
X892163D02*
D03*
D44*
X57113Y1354847D02*
D03*
X69913D02*
D03*
X697213Y853847D02*
D03*
X684413D02*
D03*
X510513D02*
D03*
X243813D02*
D03*
X256513D02*
D03*
X269213D02*
D03*
X281913D02*
D03*
X294613D02*
D03*
X307313D02*
D03*
X320013D02*
D03*
X332713D02*
D03*
X345413D02*
D03*
X358113D02*
D03*
X370813D02*
D03*
X383513D02*
D03*
X396213D02*
D03*
X408913D02*
D03*
X421613D02*
D03*
X434313D02*
D03*
X447013D02*
D03*
X459713D02*
D03*
X472413D02*
D03*
X485113D02*
D03*
X497813D02*
D03*
X69913D02*
D03*
X57113D02*
D03*
X684413Y1354847D02*
D03*
X697213D02*
D03*
X1457213D02*
D03*
X1444413D02*
D03*
X817113Y853847D02*
D03*
X829913D02*
D03*
X1257813D02*
D03*
X1245113D02*
D03*
X1232413D02*
D03*
X1219713D02*
D03*
X1207013D02*
D03*
X1194313D02*
D03*
X1181613D02*
D03*
X1168913D02*
D03*
X1156213D02*
D03*
X1143513D02*
D03*
X1130813D02*
D03*
X1118113D02*
D03*
X1105413D02*
D03*
X1092713D02*
D03*
X1080013D02*
D03*
X1067313D02*
D03*
X1054613D02*
D03*
X1041913D02*
D03*
X1029213D02*
D03*
X1016513D02*
D03*
X1003813D02*
D03*
X1270513D02*
D03*
X1444413D02*
D03*
X1457213D02*
D03*
X829913Y1354847D02*
D03*
X817113D02*
D03*
D45*
X224663Y400347D02*
D03*
X199663D02*
D03*
X174663D02*
D03*
X149663D02*
D03*
D03*
X224663Y110347D02*
D03*
X199663D02*
D03*
X174663D02*
D03*
X149663D02*
D03*
D03*
X604663D02*
D03*
X579663D02*
D03*
X554663D02*
D03*
X529663D02*
D03*
D03*
X604663Y400347D02*
D03*
X579663D02*
D03*
X554663D02*
D03*
X529663D02*
D03*
D03*
X984663Y110347D02*
D03*
X959663D02*
D03*
X934663D02*
D03*
X909663D02*
D03*
D03*
X984663Y400347D02*
D03*
X959663D02*
D03*
X934663D02*
D03*
X909663D02*
D03*
D03*
X1289663Y110347D02*
D03*
D03*
X1314663D02*
D03*
X1339663D02*
D03*
X1364663D02*
D03*
X1364663Y400347D02*
D03*
X1339663D02*
D03*
X1314663D02*
D03*
X1289663D02*
D03*
D03*
D46*
X129163Y510347D02*
D03*
X245163D02*
D03*
X129163Y220347D02*
D03*
X245163D02*
D03*
X509163D02*
D03*
X625163D02*
D03*
X509163Y510347D02*
D03*
X625163D02*
D03*
X889163Y220347D02*
D03*
X1005163D02*
D03*
X889163Y510347D02*
D03*
X1005163D02*
D03*
X1385163Y220347D02*
D03*
X1269163D02*
D03*
X1269163Y510347D02*
D03*
X1385163D02*
D03*
D47*
X126670Y731520D02*
D03*
X113970D02*
D03*
X101270D02*
D03*
X88570D02*
D03*
X75870Y718820D02*
D03*
Y731520D02*
D03*
X88570Y718820D02*
D03*
X101270D02*
D03*
X113970D02*
D03*
X126670D02*
D03*
D48*
X377163Y817347D02*
D03*
Y703347D02*
D03*
X1137163Y817347D02*
D03*
Y703347D02*
D03*
D49*
X307163Y785347D02*
D03*
Y735347D02*
D03*
X452163Y785347D02*
D03*
Y760347D02*
D03*
Y735347D02*
D03*
X1067163Y785347D02*
D03*
Y735347D02*
D03*
X1212163Y785347D02*
D03*
Y760347D02*
D03*
Y735347D02*
D03*
D79*
X546651Y1041789D02*
D03*
X478849Y1109591D02*
D03*
D85*
X262184Y671975D02*
D03*
X-27344D02*
D03*
D86*
X232156Y628645D02*
D03*
X222156D02*
D03*
X212156Y628645D02*
D03*
X202156D02*
D03*
X192156Y628645D02*
D03*
X182156D02*
D03*
X172156D02*
D03*
X162156D02*
D03*
X152156D02*
D03*
X142156Y628645D02*
D03*
X132156Y628645D02*
D03*
X122156D02*
D03*
X112156Y628645D02*
D03*
X102156D02*
D03*
X92156Y628645D02*
D03*
X82156D02*
D03*
X72156D02*
D03*
X62156D02*
D03*
X52156D02*
D03*
X42156D02*
D03*
X32156D02*
D03*
X22156D02*
D03*
X12156D02*
D03*
X2156Y628645D02*
D03*
D87*
X149240Y-46260D02*
D03*
X130240Y-36760D02*
D03*
Y-55760D02*
D03*
X149240Y-10700D02*
D03*
X130240Y-1200D02*
D03*
Y-20200D02*
D03*
X149240Y24860D02*
D03*
X130240Y34360D02*
D03*
Y15360D02*
D03*
X719240Y713740D02*
D03*
X700240Y723240D02*
D03*
Y704240D02*
D03*
X719240Y749300D02*
D03*
X700240Y758800D02*
D03*
Y739800D02*
D03*
X719240Y784860D02*
D03*
X700240Y794360D02*
D03*
Y775360D02*
D03*
X1289240Y-46260D02*
D03*
X1270240Y-36760D02*
D03*
Y-55760D02*
D03*
X1289240Y-10700D02*
D03*
X1270240Y-1200D02*
D03*
Y-20200D02*
D03*
X1289240Y24860D02*
D03*
X1270240Y34360D02*
D03*
Y15360D02*
D03*
X529240Y-46260D02*
D03*
X510240Y-36760D02*
D03*
Y-55760D02*
D03*
X529240Y24860D02*
D03*
X510240Y34360D02*
D03*
Y15360D02*
D03*
X569240Y784860D02*
D03*
X550240Y794360D02*
D03*
Y775360D02*
D03*
X569240Y749300D02*
D03*
X550240Y758800D02*
D03*
Y739800D02*
D03*
X869240Y784860D02*
D03*
X850240Y794360D02*
D03*
Y775360D02*
D03*
X869240Y749300D02*
D03*
X850240Y758800D02*
D03*
Y739800D02*
D03*
X897898Y855068D02*
D03*
X878898Y864568D02*
D03*
Y845568D02*
D03*
X909240Y-46260D02*
D03*
X890240Y-36760D02*
D03*
Y-55760D02*
D03*
X909240Y24860D02*
D03*
X890240Y34360D02*
D03*
Y15360D02*
D03*
X529240Y-10700D02*
D03*
X510240Y-1200D02*
D03*
Y-20200D02*
D03*
X569240Y713740D02*
D03*
X550240Y723240D02*
D03*
Y704240D02*
D03*
X869240Y713740D02*
D03*
X850240Y723240D02*
D03*
Y704240D02*
D03*
X909240Y-10700D02*
D03*
X890240Y-1200D02*
D03*
Y-20200D02*
D03*
D88*
X451213Y1081347D02*
D03*
X462527Y1070033D02*
D03*
X507093Y1025467D02*
D03*
X518407Y1014153D02*
D03*
X562857Y1191953D02*
D03*
X551543Y1203267D02*
D03*
X643643Y988637D02*
D03*
X654957Y977323D02*
D03*
D89*
X571603Y1202257D02*
D03*
X563117Y1210743D02*
D03*
X608906Y1229956D02*
D03*
X600421Y1238441D02*
D03*
X663043Y988537D02*
D03*
X654557Y997022D02*
D03*
X825170Y957580D02*
D03*
X833655Y949095D02*
D03*
X880786Y1021513D02*
D03*
X889271Y1013027D02*
D03*
X907734Y1046219D02*
D03*
X916219Y1037734D02*
D03*
X939037Y1077393D02*
D03*
X947523Y1068907D02*
D03*
X933957Y1203123D02*
D03*
X942443Y1194637D02*
D03*
D90*
X635103Y1011353D02*
D03*
X626617Y1002867D02*
D03*
D91*
X667407Y1295400D02*
D03*
X655407D02*
D03*
X816630Y1316990D02*
D03*
X828630D02*
D03*
X889740Y1280160D02*
D03*
X877740D02*
D03*
X667340Y1283696D02*
D03*
X655340D02*
D03*
D92*
X851438Y959460D02*
D03*
X870437D02*
D03*
X860938Y940460D02*
D03*
X82453Y893420D02*
D03*
X72953Y874420D02*
D03*
X91953D02*
D03*
D93*
X270180Y914010D02*
D03*
Y897010D02*
D03*
X1029213Y913620D02*
D03*
Y896620D02*
D03*
D94*
X295695Y977842D02*
D03*
Y993842D02*
D03*
D95*
X339175Y994961D02*
D03*
Y985461D02*
D03*
X339175Y975961D02*
D03*
X313175D02*
D03*
X313175Y994961D02*
D03*
D96*
X742625Y941102D02*
D03*
X739089Y944638D02*
D03*
X735554Y948174D02*
D03*
X732018Y951709D02*
D03*
X728483Y955245D02*
D03*
X724947Y958780D02*
D03*
X721412Y962316D02*
D03*
X717876Y965851D02*
D03*
X714340Y969387D02*
D03*
X710805Y972922D02*
D03*
X707269Y976458D02*
D03*
X703734Y979993D02*
D03*
X700198Y983529D02*
D03*
X696663Y987064D02*
D03*
X693127Y990600D02*
D03*
X689592Y994135D02*
D03*
X686056Y997671D02*
D03*
X682521Y1001207D02*
D03*
X678985Y1004742D02*
D03*
X675450Y1008278D02*
D03*
X671914Y1011813D02*
D03*
X668378Y1015349D02*
D03*
X664843Y1018884D02*
D03*
X661307Y1022420D02*
D03*
X657772Y1025955D02*
D03*
X654236Y1029491D02*
D03*
X650701Y1033026D02*
D03*
X647165Y1036562D02*
D03*
X643630Y1040097D02*
D03*
X640094Y1043633D02*
D03*
X636559Y1047168D02*
D03*
X633023Y1050704D02*
D03*
X629488Y1054240D02*
D03*
X625952Y1057775D02*
D03*
X622416Y1061311D02*
D03*
X618881Y1064846D02*
D03*
X615345Y1068382D02*
D03*
X611810Y1071917D02*
D03*
X608274Y1075453D02*
D03*
X604739Y1078988D02*
D03*
X601203Y1082524D02*
D03*
X597668Y1086059D02*
D03*
X594132Y1089595D02*
D03*
X590597Y1093130D02*
D03*
X587061Y1096666D02*
D03*
X583526Y1100201D02*
D03*
X579990Y1103737D02*
D03*
X576455Y1107272D02*
D03*
X572919Y1110808D02*
D03*
X569384Y1114344D02*
D03*
X565848Y1117879D02*
D03*
X562312Y1121415D02*
D03*
X770555Y1329658D02*
D03*
X774091Y1326122D02*
D03*
X777626Y1322587D02*
D03*
X781162Y1319051D02*
D03*
X784697Y1315515D02*
D03*
X788233Y1311980D02*
D03*
X791768Y1308444D02*
D03*
X795304Y1304909D02*
D03*
X798840Y1301373D02*
D03*
X802375Y1297838D02*
D03*
X805911Y1294302D02*
D03*
X809446Y1290767D02*
D03*
X812982Y1287231D02*
D03*
X816517Y1283696D02*
D03*
X820053Y1280160D02*
D03*
X823588Y1276625D02*
D03*
X827124Y1273089D02*
D03*
X830659Y1269554D02*
D03*
X834195Y1266018D02*
D03*
X837730Y1262482D02*
D03*
X841266Y1258947D02*
D03*
X844802Y1255411D02*
D03*
X848337Y1251876D02*
D03*
X851873Y1248340D02*
D03*
X855408Y1244805D02*
D03*
X858944Y1241269D02*
D03*
X862479Y1237734D02*
D03*
X866015Y1234198D02*
D03*
X869550Y1230663D02*
D03*
X873086Y1227127D02*
D03*
X876621Y1223592D02*
D03*
X880157Y1220056D02*
D03*
X883692Y1216520D02*
D03*
X887228Y1212985D02*
D03*
X890763Y1209449D02*
D03*
X894299Y1205914D02*
D03*
X897835Y1202378D02*
D03*
X901370Y1198843D02*
D03*
X904906Y1195307D02*
D03*
X908441Y1191772D02*
D03*
X911977Y1188236D02*
D03*
X915512Y1184701D02*
D03*
X919048Y1181165D02*
D03*
X922583Y1177630D02*
D03*
X926119Y1174094D02*
D03*
X929654Y1170558D02*
D03*
X933190Y1167023D02*
D03*
X936725Y1163487D02*
D03*
X940261Y1159952D02*
D03*
X943796Y1156416D02*
D03*
X947332Y1152881D02*
D03*
X950868Y1149345D02*
D03*
D97*
X562312D02*
D03*
X565848Y1152881D02*
D03*
X569384Y1156416D02*
D03*
X572919Y1159952D02*
D03*
X576455Y1163487D02*
D03*
X579990Y1167023D02*
D03*
X583526Y1170558D02*
D03*
X587061Y1174094D02*
D03*
X590597Y1177630D02*
D03*
X594132Y1181165D02*
D03*
X597668Y1184701D02*
D03*
X601203Y1188236D02*
D03*
X604739Y1191772D02*
D03*
X608274Y1195307D02*
D03*
X611810Y1198843D02*
D03*
X615345Y1202378D02*
D03*
X618881Y1205914D02*
D03*
X622416Y1209449D02*
D03*
X625952Y1212985D02*
D03*
X629488Y1216520D02*
D03*
X633023Y1220056D02*
D03*
X636559Y1223592D02*
D03*
X640094Y1227127D02*
D03*
X643630Y1230663D02*
D03*
X647165Y1234198D02*
D03*
X650701Y1237734D02*
D03*
X654236Y1241269D02*
D03*
X657772Y1244805D02*
D03*
X661307Y1248340D02*
D03*
X664843Y1251876D02*
D03*
X668378Y1255411D02*
D03*
X671914Y1258947D02*
D03*
X675450Y1262482D02*
D03*
X678985Y1266018D02*
D03*
X682521Y1269554D02*
D03*
X686056Y1273089D02*
D03*
X689592Y1276625D02*
D03*
X693127Y1280160D02*
D03*
X696663Y1283696D02*
D03*
X700198Y1287231D02*
D03*
X703734Y1290767D02*
D03*
X707269Y1294302D02*
D03*
X710805Y1297838D02*
D03*
X714340Y1301373D02*
D03*
X717876Y1304909D02*
D03*
X721412Y1308444D02*
D03*
X724947Y1311980D02*
D03*
X728483Y1315515D02*
D03*
X732018Y1319051D02*
D03*
X735554Y1322587D02*
D03*
X739089Y1326122D02*
D03*
X742625Y1329658D02*
D03*
X950868Y1121415D02*
D03*
X947332Y1117879D02*
D03*
X943796Y1114344D02*
D03*
X940261Y1110808D02*
D03*
X936725Y1107272D02*
D03*
X933190Y1103737D02*
D03*
X929654Y1100201D02*
D03*
X926119Y1096666D02*
D03*
X922583Y1093130D02*
D03*
X919048Y1089595D02*
D03*
X915512Y1086059D02*
D03*
X911977Y1082524D02*
D03*
X908441Y1078988D02*
D03*
X904906Y1075453D02*
D03*
X901370Y1071917D02*
D03*
X897835Y1068382D02*
D03*
X894299Y1064846D02*
D03*
X890763Y1061311D02*
D03*
X887228Y1057775D02*
D03*
X883692Y1054240D02*
D03*
X880157Y1050704D02*
D03*
X876621Y1047168D02*
D03*
X873086Y1043633D02*
D03*
X869550Y1040097D02*
D03*
X866015Y1036562D02*
D03*
X862479Y1033026D02*
D03*
X858944Y1029491D02*
D03*
X855408Y1025955D02*
D03*
X851873Y1022420D02*
D03*
X848337Y1018884D02*
D03*
X844802Y1015349D02*
D03*
X841266Y1011813D02*
D03*
X837730Y1008278D02*
D03*
X834195Y1004742D02*
D03*
X830659Y1001207D02*
D03*
X827124Y997671D02*
D03*
X823588Y994135D02*
D03*
X820053Y990600D02*
D03*
X816517Y987064D02*
D03*
X812982Y983529D02*
D03*
X809446Y979993D02*
D03*
X805911Y976458D02*
D03*
X802375Y972922D02*
D03*
X798840Y969387D02*
D03*
X795304Y965851D02*
D03*
X791768Y962316D02*
D03*
X788233Y958780D02*
D03*
X784697Y955245D02*
D03*
X781162Y951709D02*
D03*
X777626Y948174D02*
D03*
X774091Y944638D02*
D03*
X770555Y941102D02*
D03*
D98*
X137709Y776040D02*
D03*
Y753040D02*
D03*
X265215Y997342D02*
D03*
X265215Y974342D02*
D03*
D99*
X312775Y1097000D02*
D03*
X268276D02*
D03*
Y1062000D02*
D03*
X312775D02*
D03*
D100*
X355315Y1000702D02*
D03*
X378315Y1000702D02*
D03*
M02*
